<svg xmlns="http://www.w3.org/2000/svg" viewBox="0 0 800 397" preserveAspectRatio="xMidYMid meet">
<rect width="100%" height="100%" fill="#f3ead5"/>
<path d="M552.1,183.8 L438.6,128.7 L420.2,167.7 L367.0,142.1 L382.3,110.6 L320.5,81.3 L306.8,109.7 L286.1,99.5 L291.8,87.8 L182.4,35.3 L160.3,81.1 L221.7,111.0 L202.7,149.4 L159.9,128.7 L127.7,195.5 L96.3,180.6 L35.6,306.8 L86.1,330.9 L81.3,340.8 L127.7,363.5 L131.2,354.9 L160.7,369.4 L174.8,340.3 L197.5,351.5 L224.3,364.5 L264.2,282.2 L275.6,288.0 L284.8,268.9 L338.0,294.4 L354.5,260.4 L370.0,268.1 L387.3,232.2 L450.2,262.6 L588.1,329.8 L600.6,304.4 L730.1,367.1 L772.4,280.5 L702.2,246.1 L686.1,279.5 L619.0,247.2 L540.1,209.1 L552.1,183.8 Z" fill="#00000022" stroke="none"/>
<path d="M548.1,179.8 L434.6,124.7 L416.2,163.7 L363.0,138.1 L378.3,106.6 L316.5,77.3 L302.8,105.7 L282.1,95.5 L287.8,83.8 L178.4,31.3 L156.3,77.1 L217.7,107.0 L198.7,145.4 L155.9,124.7 L123.7,191.5 L92.3,176.6 L31.6,302.8 L82.1,326.9 L77.3,336.8 L123.7,359.5 L127.2,350.9 L156.7,365.4 L170.8,336.3 L193.5,347.5 L220.3,360.5 L260.2,278.2 L271.6,284.0 L280.8,264.9 L334.0,290.4 L350.5,256.4 L366.0,264.1 L383.3,228.2 L446.2,258.6 L584.1,325.8 L596.6,300.4 L726.1,363.1 L768.4,276.5 L698.2,242.1 L682.1,275.5 L615.0,243.2 L536.1,205.1 L548.1,179.8 Z" fill="#2a2a2a" stroke="#1a1a1a" stroke-width="1.5" stroke-linejoin="round"/>
</svg>