<svg xmlns="http://www.w3.org/2000/svg" viewBox="0 0 800 256" preserveAspectRatio="xMidYMid meet">
<rect width="100%" height="100%" fill="#f3ead5"/>
<path d="M763.7,84.2 L781.7,166.6 L600.3,205.8 L591.1,234.4 L569.9,229.2 L566.8,237.7 L535.1,227.6 L536.9,218.5 L519.5,213.5 L523.5,196.6 L374.2,144.0 L381.3,121.6 L353.5,114.7 L355.8,131.0 L350.0,131.8 L352.1,143.1 L347.7,144.4 L350.3,156.3 L361.7,164.8 L365.4,181.1 L356.3,196.2 L338.7,201.1 L322.8,191.5 L320.8,181.6 L283.8,188.4 L284.4,191.0 L272.5,193.3 L275.7,207.8 L154.5,231.1 L139.0,164.9 L115.4,170.3 L95.8,181.5 L107.8,210.1 L51.2,236.2 L26.3,180.2 L66.7,158.0 L33.5,94.7 L96.3,65.5 L130.7,134.0 L133.9,131.6 L121.0,68.1 L180.4,58.4 L186.2,81.8 L317.3,55.3 L321.0,82.4 L342.3,75.2 L343.6,61.3 L330.6,60.3 L332.7,42.1 L334.5,25.8 L384.3,28.0 L383.4,43.7 L382.1,63.7 L371.8,62.7 L370.0,79.5 L397.0,91.2 L409.5,66.3 L545.0,110.7 L580.2,122.4 L763.7,84.2 Z" fill="#00000022" stroke="none"/>
<path d="M759.7,80.2 L777.7,162.6 L596.3,201.8 L587.1,230.4 L565.9,225.2 L562.8,233.7 L531.1,223.6 L532.9,214.5 L515.5,209.5 L519.5,192.6 L370.2,140.0 L377.3,117.6 L349.5,110.7 L351.8,127.0 L346.0,127.8 L348.1,139.1 L343.7,140.4 L346.3,152.3 L357.7,160.8 L361.4,177.1 L352.3,192.2 L334.7,197.1 L318.8,187.5 L316.8,177.6 L279.8,184.4 L280.4,187.0 L268.5,189.3 L271.7,203.8 L150.5,227.1 L135.0,160.9 L111.4,166.3 L91.8,177.5 L103.8,206.1 L47.2,232.2 L22.3,176.2 L62.7,154.0 L29.5,90.7 L92.3,61.5 L126.7,130.0 L129.9,127.6 L117.0,64.1 L176.4,54.4 L182.2,77.8 L313.3,51.3 L317.0,78.4 L338.3,71.2 L339.6,57.3 L326.6,56.3 L328.7,38.1 L330.5,21.8 L380.3,24.0 L379.4,39.7 L378.1,59.7 L367.8,58.7 L366.0,75.5 L393.0,87.2 L405.5,62.3 L541.0,106.7 L576.2,118.4 L759.7,80.2 Z" fill="#2a2a2a" stroke="#1a1a1a" stroke-width="1.5" stroke-linejoin="round"/>
</svg>