<svg xmlns="http://www.w3.org/2000/svg" viewBox="0 0 800 575" preserveAspectRatio="xMidYMid meet">
<rect width="100%" height="100%" fill="#f3ead5"/>
<path d="M763.9,414.8 L699.8,365.1 L694.0,372.6 L621.4,316.1 L616.0,324.2 L253.7,43.9 L210.9,99.6 L247.6,127.6 L122.2,289.9 L108.7,279.4 L66.2,334.8 L110.2,368.6 L44.1,453.5 L154.5,538.9 L235.4,434.3 L228.8,428.9 L245.9,406.7 L230.9,395.4 L294.6,312.2 L366.8,302.8 L387.7,276.2 L552.4,405.5 L551.7,409.6 L598.1,445.3 L601.6,440.3 L624.4,458.0 L605.7,482.2 L671.4,533.5 L763.9,414.8 Z" fill="#00000022" stroke="none"/>
<path d="M759.9,410.8 L695.8,361.1 L690.0,368.6 L617.4,312.1 L612.0,320.2 L249.7,39.9 L206.9,95.6 L243.6,123.6 L118.2,285.9 L104.7,275.4 L62.2,330.8 L106.2,364.6 L40.1,449.5 L150.5,534.9 L231.4,430.3 L224.8,424.9 L241.9,402.7 L226.9,391.4 L290.6,308.2 L362.8,298.8 L383.7,272.2 L548.4,401.5 L547.7,405.6 L594.1,441.3 L597.6,436.3 L620.4,454.0 L601.7,478.2 L667.4,529.5 L759.9,410.8 Z" fill="#2a2a2a" stroke="#1a1a1a" stroke-width="1.5" stroke-linejoin="round"/>
</svg>