<svg xmlns="http://www.w3.org/2000/svg" viewBox="0 0 800 560" preserveAspectRatio="xMidYMid meet">
<rect width="100%" height="100%" fill="#f3ead5"/>
<path d="M109.7,217.8 L109.2,305.3 L153.9,304.7 L154.7,370.3 L353.7,369.6 L353.5,413.4 L421.7,412.4 L421.1,370.9 L464.2,371.4 L466.1,458.8 L698.8,458.8 L696.1,108.9 L501.7,109.5 L437.5,109.3 L438.8,151.9 L148.0,153.8 L148.1,218.4 L109.7,217.8 Z" fill="#00000022" stroke="none"/>
<path d="M105.7,213.8 L105.2,301.3 L149.9,300.7 L150.7,366.3 L349.7,365.6 L349.5,409.4 L417.7,408.4 L417.1,366.9 L460.2,367.4 L462.1,454.8 L694.8,454.8 L692.1,104.9 L497.7,105.5 L433.5,105.3 L434.8,147.9 L144.0,149.8 L144.1,214.4 L105.7,213.8 Z" fill="#2a2a2a" stroke="#1a1a1a" stroke-width="1.5" stroke-linejoin="round"/>
</svg>