<svg xmlns="http://www.w3.org/2000/svg" viewBox="0 0 800 583" preserveAspectRatio="xMidYMid meet">
<rect width="100%" height="100%" fill="#f3ead5"/>
<path d="M368.2,73.1 L198.8,245.1 L144.6,192.5 L73.1,265.9 L185.0,375.8 L244.7,313.4 L452.9,517.9 L523.7,446.0 L576.2,498.2 L618.5,455.8 L556.8,396.0 L734.9,215.6 L629.0,109.4 L610.7,127.6 L568.6,85.6 L529.6,74.6 L464.2,131.0 L368.2,73.1 Z" fill="#00000022" stroke="none"/>
<path d="M364.2,69.1 L194.8,241.1 L140.6,188.5 L69.1,261.9 L181.0,371.8 L240.7,309.4 L448.9,513.9 L519.7,442.0 L572.2,494.2 L614.5,451.8 L552.8,392.0 L730.9,211.6 L625.0,105.4 L606.7,123.6 L564.6,81.6 L525.6,70.6 L460.2,127.0 L364.2,69.1 Z" fill="#2a2a2a" stroke="#1a1a1a" stroke-width="1.5" stroke-linejoin="round"/>
</svg>