<svg xmlns="http://www.w3.org/2000/svg" viewBox="0 0 800 478" preserveAspectRatio="xMidYMid meet">
<rect width="100%" height="100%" fill="#f3ead5"/>
<path d="M712.8,97.6 L231.4,91.9 L231.3,152.5 L136.5,149.1 L137.8,203.7 L92.0,202.6 L93.8,361.6 L335.2,362.1 L338.5,394.0 L501.3,387.8 L504.3,350.8 L577.3,343.4 L577.5,254.3 L716.0,251.8 L712.8,97.6 Z" fill="#00000022" stroke="none"/>
<path d="M708.8,93.6 L227.4,87.9 L227.3,148.5 L132.5,145.1 L133.8,199.7 L88.0,198.6 L89.8,357.6 L331.2,358.1 L334.5,390.0 L497.3,383.8 L500.3,346.8 L573.3,339.4 L573.5,250.3 L712.0,247.8 L708.8,93.6 Z" fill="#2a2a2a" stroke="#1a1a1a" stroke-width="1.5" stroke-linejoin="round"/>
</svg>