<svg xmlns="http://www.w3.org/2000/svg" viewBox="0 0 800 329" preserveAspectRatio="xMidYMid meet">
<rect width="100%" height="100%" fill="#f3ead5"/>
<path d="M428.0,248.5 L438.6,295.1 L501.6,280.5 L499.5,272.2 L769.2,209.1 L729.1,38.6 L463.1,101.0 L467.3,137.9 L340.9,152.0 L333.0,103.3 L302.1,106.7 L263.0,110.4 L251.7,39.0 L175.0,52.0 L181.9,91.2 L38.8,121.1 L72.7,298.2 L129.2,288.7 L126.9,275.0 L276.5,245.8 L282.1,272.6 L428.0,248.5 Z" fill="#00000022" stroke="none"/>
<path d="M424.0,244.5 L434.6,291.1 L497.6,276.5 L495.5,268.2 L765.2,205.1 L725.1,34.6 L459.1,97.0 L463.3,133.9 L336.9,148.0 L329.0,99.3 L298.1,102.7 L259.0,106.4 L247.7,35.0 L171.0,48.0 L177.9,87.2 L34.8,117.1 L68.7,294.2 L125.2,284.7 L122.9,271.0 L272.5,241.8 L278.1,268.6 L424.0,244.5 Z" fill="#2a2a2a" stroke="#1a1a1a" stroke-width="1.5" stroke-linejoin="round"/>
</svg>