<svg xmlns="http://www.w3.org/2000/svg" viewBox="0 0 800 391" preserveAspectRatio="xMidYMid meet">
<rect width="100%" height="100%" fill="#f3ead5"/>
<path d="M314.7,159.7 L323.2,144.0 L300.7,132.7 L293.2,146.9 L92.1,42.4 L42.4,138.3 L105.2,171.0 L109.9,164.6 L232.2,227.2 L228.0,234.3 L266.4,254.9 L269.7,247.8 L392.5,311.8 L390.2,319.6 L463.3,356.6 L513.9,262.7 L505.5,245.7 L565.5,226.5 L575.3,262.0 L655.9,237.9 L647.5,200.9 L714.0,179.6 L715.9,186.0 L747.8,176.0 L744.5,164.6 L765.6,158.2 L760.0,156.8 L752.0,154.0 L744.0,149.0 L737.0,144.0 L730.9,138.3 L724.8,131.2 L720.1,124.1 L716.4,116.3 L713.6,107.8 L711.7,99.2 L711.2,90.0 L712.1,80.8 L713.6,72.2 L716.4,63.7 L719.6,55.9 L724.8,48.8 L719.6,43.8 L675.6,57.3 L673.2,50.2 L401.4,138.3 L408.5,159.0 L389.7,195.9 L314.7,159.7 Z" fill="#00000022" stroke="none"/>
<path d="M310.7,155.7 L319.2,140.0 L296.7,128.7 L289.2,142.9 L88.1,38.4 L38.4,134.3 L101.2,167.0 L105.9,160.6 L228.2,223.2 L224.0,230.3 L262.4,250.9 L265.7,243.8 L388.5,307.8 L386.2,315.6 L459.3,352.6 L509.9,258.7 L501.5,241.7 L561.5,222.5 L571.3,258.0 L651.9,233.9 L643.5,196.9 L710.0,175.6 L711.9,182.0 L743.8,172.0 L740.5,160.6 L761.6,154.2 L756.0,152.8 L748.0,150.0 L740.0,145.0 L733.0,140.0 L726.9,134.3 L720.8,127.2 L716.1,120.1 L712.4,112.3 L709.6,103.8 L707.7,95.2 L707.2,86.0 L708.1,76.8 L709.6,68.2 L712.4,59.7 L715.6,51.9 L720.8,44.8 L715.6,39.8 L671.6,53.3 L669.2,46.2 L397.4,134.3 L404.5,155.0 L385.7,191.9 L310.7,155.7 Z" fill="#2a2a2a" stroke="#1a1a1a" stroke-width="1.5" stroke-linejoin="round"/>
</svg>