<svg xmlns="http://www.w3.org/2000/svg" viewBox="0 0 800 464" preserveAspectRatio="xMidYMid meet">
<rect width="100%" height="100%" fill="#f3ead5"/>
<path d="M753.5,230.3 L581.5,228.5 L579.4,263.7 L572.3,304.7 L558.0,332.2 L532.2,363.1 L500.7,384.8 L464.8,406.2 L431.3,419.0 L399.6,419.7 L363.4,410.7 L335.9,398.3 L312.4,381.5 L287.2,351.0 L270.1,321.3 L254.8,287.0 L249.4,252.7 L248.0,234.1 L60.7,233.3 L52.3,52.0 L236.5,54.0 L235.4,160.5 L324.4,160.8 L323.4,247.2 L328.0,268.4 L337.6,289.6 L353.3,310.3 L369.7,323.2 L390.9,334.1 L411.5,337.7 L432.0,335.6 L453.7,327.3 L471.0,318.7 L487.7,302.8 L496.2,284.2 L500.3,259.7 L501.1,161.8 L577.7,163.0 L575.9,58.5 L755.7,56.4 L753.5,230.3 Z" fill="#00000022" stroke="none"/>
<path d="M749.5,226.3 L577.5,224.5 L575.4,259.7 L568.3,300.7 L554.0,328.2 L528.2,359.1 L496.7,380.8 L460.8,402.2 L427.3,415.0 L395.6,415.7 L359.4,406.7 L331.9,394.3 L308.4,377.5 L283.2,347.0 L266.1,317.3 L250.8,283.0 L245.4,248.7 L244.0,230.1 L56.7,229.3 L48.3,48.0 L232.5,50.0 L231.4,156.5 L320.4,156.8 L319.4,243.2 L324.0,264.4 L333.6,285.6 L349.3,306.3 L365.7,319.2 L386.9,330.1 L407.5,333.7 L428.0,331.6 L449.7,323.3 L467.0,314.7 L483.7,298.8 L492.2,280.2 L496.3,255.7 L497.1,157.8 L573.7,159.0 L571.9,54.5 L751.7,52.4 L749.5,226.3 Z" fill="#2a2a2a" stroke="#1a1a1a" stroke-width="1.5" stroke-linejoin="round"/>
</svg>