<svg xmlns="http://www.w3.org/2000/svg" viewBox="0 0 800 419" preserveAspectRatio="xMidYMid meet">
<rect width="100%" height="100%" fill="#f3ead5"/>
<path d="M764.2,155.2 L765.4,250.2 L652.2,252.2 L652.0,294.7 L535.0,297.2 L534.1,274.0 L443.4,274.1 L435.9,322.1 L417.9,353.6 L394.7,374.6 L359.2,384.4 L329.1,382.7 L297.1,374.1 L271.7,349.9 L256.2,321.6 L247.4,273.8 L247.4,264.2 L42.6,265.1 L45.0,71.9 L154.5,72.2 L153.8,142.0 L280.4,142.2 L282.7,129.7 L289.6,121.5 L303.5,118.6 L304.5,42.8 L388.7,42.8 L389.3,122.0 L401.5,123.6 L408.4,128.9 L411.0,142.8 L533.9,144.5 L534.7,70.8 L566.8,70.8 L567.2,61.7 L581.3,43.3 L611.2,43.2 L626.6,61.1 L628.4,71.0 L663.5,71.1 L665.0,156.1 L764.2,155.2 Z" fill="#00000022" stroke="none"/>
<path d="M760.2,151.2 L761.4,246.2 L648.2,248.2 L648.0,290.7 L531.0,293.2 L530.1,270.0 L439.4,270.1 L431.9,318.1 L413.9,349.6 L390.7,370.6 L355.2,380.4 L325.1,378.7 L293.1,370.1 L267.7,345.9 L252.2,317.6 L243.4,269.8 L243.4,260.2 L38.6,261.1 L41.0,67.9 L150.5,68.2 L149.8,138.0 L276.4,138.2 L278.7,125.7 L285.6,117.5 L299.5,114.6 L300.5,38.8 L384.7,38.8 L385.3,118.0 L397.5,119.6 L404.4,124.9 L407.0,138.8 L529.9,140.5 L530.7,66.8 L562.8,66.8 L563.2,57.7 L577.3,39.3 L607.2,39.2 L622.6,57.1 L624.4,67.0 L659.5,67.1 L661.0,152.1 L760.2,151.2 Z" fill="#2a2a2a" stroke="#1a1a1a" stroke-width="1.5" stroke-linejoin="round"/>
</svg>