<svg xmlns="http://www.w3.org/2000/svg" viewBox="0 0 800 310" preserveAspectRatio="xMidYMid meet">
<rect width="100%" height="100%" fill="#f3ead5"/>
<path d="M763.5,73.2 L762.6,225.4 L621.3,223.6 L621.8,236.0 L578.1,236.1 L576.5,272.7 L235.6,273.5 L237.5,193.0 L225.7,190.5 L226.1,260.9 L125.6,236.7 L45.6,177.4 L44.5,49.4 L229.8,45.4 L229.3,62.3 L390.7,62.6 L392.3,44.1 L723.2,50.6 L724.6,72.6 L763.5,73.2 Z" fill="#00000022" stroke="none"/>
<path d="M759.5,69.2 L758.6,221.4 L617.3,219.6 L617.8,232.0 L574.1,232.1 L572.5,268.7 L231.6,269.5 L233.5,189.0 L221.7,186.5 L222.1,256.9 L121.6,232.7 L41.6,173.4 L40.5,45.4 L225.8,41.4 L225.3,58.3 L386.7,58.6 L388.3,40.1 L719.2,46.6 L720.6,68.6 L759.5,69.2 Z" fill="#2a2a2a" stroke="#1a1a1a" stroke-width="1.5" stroke-linejoin="round"/>
</svg>