<svg xmlns="http://www.w3.org/2000/svg" viewBox="0 0 800 474" preserveAspectRatio="xMidYMid meet">
<rect width="100%" height="100%" fill="#f3ead5"/>
<path d="M742.9,418.3 L744.3,181.7 L710.4,181.8 L709.8,175.2 L692.0,157.7 L669.4,155.3 L647.9,178.8 L630.7,178.0 L631.6,139.4 L576.1,139.0 L575.2,183.9 L542.4,183.4 L542.3,165.7 L561.1,149.6 L565.2,83.7 L538.2,63.7 L480.0,66.8 L455.3,88.4 L451.2,137.9 L454.5,148.6 L476.6,165.9 L475.6,188.1 L447.6,186.4 L447.6,178.8 L437.9,178.5 L425.4,166.6 L387.7,165.9 L381.8,175.2 L366.8,174.4 L366.7,159.3 L324.7,158.7 L324.3,198.9 L232.7,197.4 L232.8,203.7 L176.2,202.7 L167.0,191.3 L144.9,191.6 L133.7,203.1 L64.2,202.4 L63.7,377.7 L132.6,378.0 L132.7,388.1 L212.4,388.1 L212.3,369.1 L410.5,369.1 L410.1,403.0 L345.4,402.5 L344.9,417.4 L742.9,418.3 Z" fill="#00000022" stroke="none"/>
<path d="M738.9,414.3 L740.3,177.7 L706.4,177.8 L705.8,171.2 L688.0,153.7 L665.4,151.3 L643.9,174.8 L626.7,174.0 L627.6,135.4 L572.1,135.0 L571.2,179.9 L538.4,179.4 L538.3,161.7 L557.1,145.6 L561.2,79.7 L534.2,59.7 L476.0,62.8 L451.3,84.4 L447.2,133.9 L450.5,144.6 L472.6,161.9 L471.6,184.1 L443.6,182.4 L443.6,174.8 L433.9,174.5 L421.4,162.6 L383.7,161.9 L377.8,171.2 L362.8,170.4 L362.7,155.3 L320.7,154.7 L320.3,194.9 L228.7,193.4 L228.8,199.7 L172.2,198.7 L163.0,187.3 L140.9,187.6 L129.7,199.1 L60.2,198.4 L59.7,373.7 L128.6,374.0 L128.7,384.1 L208.4,384.1 L208.3,365.1 L406.5,365.1 L406.1,399.0 L341.4,398.5 L340.9,413.4 L738.9,414.3 Z" fill="#2a2a2a" stroke="#1a1a1a" stroke-width="1.5" stroke-linejoin="round"/>
</svg>