<svg xmlns="http://www.w3.org/2000/svg" viewBox="0 0 800 553" preserveAspectRatio="xMidYMid meet">
<rect width="100%" height="100%" fill="#f3ead5"/>
<path d="M763.0,115.9 L692.1,53.4 L686.1,59.8 L672.0,44.9 L526.6,233.2 L439.9,346.1 L408.8,320.1 L442.9,275.4 L407.3,247.2 L375.7,222.6 L381.2,215.5 L342.3,186.9 L368.2,153.2 L394.0,120.4 L347.3,87.2 L321.5,119.1 L288.8,158.0 L224.3,111.6 L234.9,99.8 L164.9,45.3 L103.5,119.0 L94.8,113.3 L45.0,179.3 L482.8,516.0 L513.2,478.8 L500.9,470.1 L763.0,115.9 Z" fill="#00000022" stroke="none"/>
<path d="M759.0,111.9 L688.1,49.4 L682.1,55.8 L668.0,40.9 L522.6,229.2 L435.9,342.1 L404.8,316.1 L438.9,271.4 L403.3,243.2 L371.7,218.6 L377.2,211.5 L338.3,182.9 L364.2,149.2 L390.0,116.4 L343.3,83.2 L317.5,115.1 L284.8,154.0 L220.3,107.6 L230.9,95.8 L160.9,41.3 L99.5,115.0 L90.8,109.3 L41.0,175.3 L478.8,512.0 L509.2,474.8 L496.9,466.1 L759.0,111.9 Z" fill="#2a2a2a" stroke="#1a1a1a" stroke-width="1.5" stroke-linejoin="round"/>
</svg>