<svg xmlns="http://www.w3.org/2000/svg" viewBox="0 0 800 659" preserveAspectRatio="xMidYMid meet">
<rect width="100%" height="100%" fill="#f3ead5"/>
<path d="M694.2,172.9 L696.0,225.3 L699.7,551.6 L130.2,558.7 L129.3,479.5 L160.2,479.5 L159.2,393.9 L134.1,394.8 L109.0,394.6 L108.3,320.7 L158.5,320.1 L157.5,236.6 L124.7,236.7 L124.1,163.9 L263.1,162.3 L263.2,108.7 L406.1,108.0 L405.8,155.1 L533.2,153.9 L532.0,174.3 L694.2,172.9 Z" fill="#00000022" stroke="none"/>
<path d="M690.2,168.9 L692.0,221.3 L695.7,547.6 L126.2,554.7 L125.3,475.5 L156.2,475.5 L155.2,389.9 L130.1,390.8 L105.0,390.6 L104.3,316.7 L154.5,316.1 L153.5,232.6 L120.7,232.7 L120.1,159.9 L259.1,158.3 L259.2,104.7 L402.1,104.0 L401.8,151.1 L529.2,149.9 L528.0,170.3 L690.2,168.9 Z" fill="#2a2a2a" stroke="#1a1a1a" stroke-width="1.5" stroke-linejoin="round"/>
</svg>