<svg xmlns="http://www.w3.org/2000/svg" viewBox="0 0 800 438" preserveAspectRatio="xMidYMid meet">
<rect width="100%" height="100%" fill="#f3ead5"/>
<path d="M27.9,309.2 L47.9,394.1 L123.9,375.2 L134.8,412.4 L143.5,410.6 L163.7,406.9 L169.9,418.1 L204.0,410.8 L204.0,400.7 L359.0,364.1 L363.9,371.3 L389.1,365.3 L389.0,359.3 L453.6,343.2 L457.8,355.8 L470.2,350.4 L485.1,395.6 L481.7,397.9 L488.3,417.0 L545.5,406.7 L579.6,400.8 L557.5,308.0 L570.2,304.1 L570.3,297.2 L581.9,293.9 L580.7,288.1 L590.1,286.1 L596.4,298.3 L607.0,298.4 L613.6,292.8 L614.2,287.0 L622.1,285.5 L618.6,276.8 L651.5,266.4 L672.7,352.1 L739.6,335.3 L717.7,217.4 L780.1,117.5 L724.1,83.7 L664.4,186.6 L533.9,218.4 L520.1,161.7 L514.2,138.6 L445.3,155.8 L453.0,183.0 L467.9,235.0 L425.7,246.6 L400.7,143.4 L315.9,165.9 L343.0,287.1 L230.1,314.9 L192.4,163.0 L237.8,151.9 L217.3,65.0 L170.9,76.8 L159.8,27.6 L75.0,48.8 L88.4,97.2 L41.2,108.8 L61.0,194.6 L106.2,184.3 L134.2,285.5 L27.9,309.2 Z" fill="#00000022" stroke="none"/>
<path d="M23.9,305.2 L43.9,390.1 L119.9,371.2 L130.8,408.4 L139.5,406.6 L159.7,402.9 L165.9,414.1 L200.0,406.8 L200.0,396.7 L355.0,360.1 L359.9,367.3 L385.1,361.3 L385.0,355.3 L449.6,339.2 L453.8,351.8 L466.2,346.4 L481.1,391.6 L477.7,393.9 L484.3,413.0 L541.5,402.7 L575.6,396.8 L553.5,304.0 L566.2,300.1 L566.3,293.2 L577.9,289.9 L576.7,284.1 L586.1,282.1 L592.4,294.3 L603.0,294.4 L609.6,288.8 L610.2,283.0 L618.1,281.5 L614.6,272.8 L647.5,262.4 L668.7,348.1 L735.6,331.3 L713.7,213.4 L776.1,113.5 L720.1,79.7 L660.4,182.6 L529.9,214.4 L516.1,157.7 L510.2,134.6 L441.3,151.8 L449.0,179.0 L463.9,231.0 L421.7,242.6 L396.7,139.4 L311.9,161.9 L339.0,283.1 L226.1,310.9 L188.4,159.0 L233.8,147.9 L213.3,61.0 L166.9,72.8 L155.8,23.6 L71.0,44.8 L84.4,93.2 L37.2,104.8 L57.0,190.6 L102.2,180.3 L130.2,281.5 L23.9,305.2 Z" fill="#2a2a2a" stroke="#1a1a1a" stroke-width="1.5" stroke-linejoin="round"/>
</svg>