<svg xmlns="http://www.w3.org/2000/svg" viewBox="0 0 800 408" preserveAspectRatio="xMidYMid meet">
<rect width="100%" height="100%" fill="#f3ead5"/>
<path d="M709.5,294.4 L535.9,277.7 L519.2,349.1 L434.9,352.7 L330.5,335.4 L326.1,322.4 L119.4,293.4 L122.5,268.0 L125.8,237.4 L63.3,229.8 L65.7,210.4 L76.6,111.9 L80.3,77.9 L162.9,92.1 L166.7,65.4 L407.6,94.8 L412.6,63.3 L739.4,98.0 L731.6,142.4 L744.7,145.5 L734.9,258.9 L718.5,255.0 L709.5,294.4 Z" fill="#00000022" stroke="none"/>
<path d="M705.5,290.4 L531.9,273.7 L515.2,345.1 L430.9,348.7 L326.5,331.4 L322.1,318.4 L115.4,289.4 L118.5,264.0 L121.8,233.4 L59.3,225.8 L61.7,206.4 L72.6,107.9 L76.3,73.9 L158.9,88.1 L162.7,61.4 L403.6,90.8 L408.6,59.3 L735.4,94.0 L727.6,138.4 L740.7,141.5 L730.9,254.9 L714.5,251.0 L705.5,290.4 Z" fill="#2a2a2a" stroke="#1a1a1a" stroke-width="1.5" stroke-linejoin="round"/>
</svg>