<svg xmlns="http://www.w3.org/2000/svg" viewBox="0 0 800 719" preserveAspectRatio="xMidYMid meet">
<rect width="100%" height="100%" fill="#f3ead5"/>
<path d="M674.2,518.1 L728.3,411.9 L663.5,378.9 L684.6,337.5 L645.6,316.1 L686.0,238.4 L760.3,212.0 L729.8,118.7 L656.4,143.3 L517.2,70.8 L495.8,116.6 L363.8,47.8 L342.6,92.9 L254.7,48.1 L232.8,92.9 L189.2,71.5 L121.5,211.5 L47.7,235.1 L78.5,322.6 L114.1,340.0 L103.5,362.6 L150.8,387.4 L175.1,437.6 L233.0,464.8 L329.5,464.1 L343.6,436.5 L382.5,456.4 L367.9,485.2 L257.9,522.8 L309.8,679.3 L465.6,631.7 L426.6,515.9 L441.0,487.7 L517.7,526.0 L592.4,511.2 L608.2,483.7 L674.2,518.1 Z" fill="#00000022" stroke="none"/>
<path d="M670.2,514.1 L724.3,407.9 L659.5,374.9 L680.6,333.5 L641.6,312.1 L682.0,234.4 L756.3,208.0 L725.8,114.7 L652.4,139.3 L513.2,66.8 L491.8,112.6 L359.8,43.8 L338.6,88.9 L250.7,44.1 L228.8,88.9 L185.2,67.5 L117.5,207.5 L43.7,231.1 L74.5,318.6 L110.1,336.0 L99.5,358.6 L146.8,383.4 L171.1,433.6 L229.0,460.8 L325.5,460.1 L339.6,432.5 L378.5,452.4 L363.9,481.2 L253.9,518.8 L305.8,675.3 L461.6,627.7 L422.6,511.9 L437.0,483.7 L513.7,522.0 L588.4,507.2 L604.2,479.7 L670.2,514.1 Z" fill="#2a2a2a" stroke="#1a1a1a" stroke-width="1.5" stroke-linejoin="round"/>
</svg>