<svg xmlns="http://www.w3.org/2000/svg" viewBox="0 0 800 513" preserveAspectRatio="xMidYMid meet">
<rect width="100%" height="100%" fill="#f3ead5"/>
<path d="M738.3,90.5 L695.0,451.3 L528.9,430.9 L534.5,383.6 L385.7,365.7 L375.3,447.6 L185.6,424.8 L193.4,364.4 L97.9,352.8 L69.7,291.6 L83.5,157.7 L125.0,97.2 L196.9,105.7 L201.1,69.4 L306.4,82.2 L303.9,106.8 L566.8,138.4 L574.8,70.4 L738.3,90.5 Z" fill="#00000022" stroke="none"/>
<path d="M734.3,86.5 L691.0,447.3 L524.9,426.9 L530.5,379.6 L381.7,361.7 L371.3,443.6 L181.6,420.8 L189.4,360.4 L93.9,348.8 L65.7,287.6 L79.5,153.7 L121.0,93.2 L192.9,101.7 L197.1,65.4 L302.4,78.2 L299.9,102.8 L562.8,134.4 L570.8,66.4 L734.3,86.5 Z" fill="#2a2a2a" stroke="#1a1a1a" stroke-width="1.5" stroke-linejoin="round"/>
</svg>