<svg xmlns="http://www.w3.org/2000/svg" viewBox="0 0 800 316" preserveAspectRatio="xMidYMid meet">
<rect width="100%" height="100%" fill="#f3ead5"/>
<path d="M656.6,106.5 L656.4,102.9 L676.8,103.3 L676.4,90.0 L739.9,87.5 L741.0,100.6 L760.3,101.0 L760.7,112.9 L771.9,112.8 L773.5,189.3 L773.5,196.2 L774.0,223.3 L762.4,223.1 L763.1,235.2 L743.5,236.8 L743.9,249.4 L679.7,251.4 L679.3,238.8 L659.3,238.6 L658.9,226.7 L623.8,226.5 L621.4,184.3 L578.5,184.7 L578.7,187.5 L539.3,188.4 L538.8,186.0 L511.1,185.7 L475.6,186.7 L475.6,211.3 L467.2,212.1 L455.0,212.8 L454.3,225.3 L453.9,231.2 L450.8,237.8 L447.6,243.0 L443.6,247.7 L438.3,252.7 L431.9,257.7 L425.7,260.7 L417.7,261.8 L407.8,261.4 L407.4,265.9 L386.0,266.1 L387.1,280.7 L357.0,281.3 L357.5,272.1 L339.9,272.4 L339.1,258.1 L292.7,257.9 L292.1,265.7 L271.3,265.7 L271.0,272.3 L271.7,289.9 L192.6,290.0 L192.4,268.7 L170.3,269.0 L170.1,260.0 L123.4,261.0 L123.9,275.1 L108.8,275.0 L108.9,283.4 L78.0,283.5 L77.8,274.5 L58.8,274.4 L58.5,261.8 L56.0,261.3 L56.0,249.0 L59.1,248.5 L59.0,221.7 L44.5,221.5 L44.7,168.9 L44.8,152.5 L34.3,152.4 L34.0,128.9 L44.8,128.6 L44.7,101.0 L163.5,101.7 L163.9,95.8 L180.4,95.5 L180.5,73.7 L180.8,41.0 L180.8,34.8 L271.4,34.2 L271.4,39.7 L271.2,72.4 L271.4,77.4 L271.4,95.2 L403.5,94.6 L422.9,94.2 L423.4,103.5 L424.3,137.7 L424.7,144.2 L475.2,143.2 L475.4,165.3 L537.5,163.2 L537.9,158.0 L546.7,157.5 L574.4,156.4 L577.2,156.4 L577.5,162.1 L646.4,161.4 L645.3,117.4 L656.8,116.2 L656.6,106.5 Z" fill="#00000022" stroke="none"/>
<path d="M652.6,102.5 L652.4,98.9 L672.8,99.3 L672.4,86.0 L735.9,83.5 L737.0,96.6 L756.3,97.0 L756.7,108.9 L767.9,108.8 L769.5,185.3 L769.5,192.2 L770.0,219.3 L758.4,219.1 L759.1,231.2 L739.5,232.8 L739.9,245.4 L675.7,247.4 L675.3,234.8 L655.3,234.6 L654.9,222.7 L619.8,222.5 L617.4,180.3 L574.5,180.7 L574.7,183.5 L535.3,184.4 L534.8,182.0 L507.1,181.7 L471.6,182.7 L471.6,207.3 L463.2,208.1 L451.0,208.8 L450.3,221.3 L449.9,227.2 L446.8,233.8 L443.6,239.0 L439.6,243.7 L434.3,248.7 L427.9,253.7 L421.7,256.7 L413.7,257.8 L403.8,257.4 L403.4,261.9 L382.0,262.1 L383.1,276.7 L353.0,277.3 L353.5,268.1 L335.9,268.4 L335.1,254.1 L288.7,253.9 L288.1,261.7 L267.3,261.7 L267.0,268.3 L267.7,285.9 L188.6,286.0 L188.4,264.7 L166.3,265.0 L166.1,256.0 L119.4,257.0 L119.9,271.1 L104.8,271.0 L104.9,279.4 L74.0,279.5 L73.8,270.5 L54.8,270.4 L54.5,257.8 L52.0,257.3 L52.0,245.0 L55.1,244.5 L55.0,217.7 L40.5,217.5 L40.7,164.9 L40.8,148.5 L30.3,148.4 L30.0,124.9 L40.8,124.6 L40.7,97.0 L159.5,97.7 L159.9,91.8 L176.4,91.5 L176.5,69.7 L176.8,37.0 L176.8,30.8 L267.4,30.2 L267.4,35.7 L267.2,68.4 L267.4,73.4 L267.4,91.2 L399.5,90.6 L418.9,90.2 L419.4,99.5 L420.3,133.7 L420.7,140.2 L471.2,139.2 L471.4,161.3 L533.5,159.2 L533.9,154.0 L542.7,153.5 L570.4,152.4 L573.2,152.4 L573.5,158.1 L642.4,157.4 L641.3,113.4 L652.8,112.2 L652.6,102.5 Z" fill="#2a2a2a" stroke="#1a1a1a" stroke-width="1.5" stroke-linejoin="round"/>
</svg>