<svg xmlns="http://www.w3.org/2000/svg" viewBox="0 0 800 483" preserveAspectRatio="xMidYMid meet">
<rect width="100%" height="100%" fill="#f3ead5"/>
<path d="M93.4,144.5 L92.2,261.4 L143.1,262.2 L142.8,321.8 L65.8,321.1 L65.7,345.8 L116.6,346.6 L116.5,361.2 L168.1,361.4 L167.1,421.6 L183.4,421.9 L488.7,425.3 L489.6,376.8 L539.0,377.2 L538.9,410.7 L709.9,413.2 L710.8,377.8 L740.4,377.8 L742.3,277.8 L707.7,277.4 L708.5,244.8 L678.8,244.8 L680.2,93.1 L495.1,91.5 L495.2,66.8 L420.3,65.9 L420.2,84.8 L347.4,83.7 L347.1,147.7 L93.4,144.5 Z" fill="#00000022" stroke="none"/>
<path d="M89.4,140.5 L88.2,257.4 L139.1,258.2 L138.8,317.8 L61.8,317.1 L61.7,341.8 L112.6,342.6 L112.5,357.2 L164.1,357.4 L163.1,417.6 L179.4,417.9 L484.7,421.3 L485.6,372.8 L535.0,373.2 L534.9,406.7 L705.9,409.2 L706.8,373.8 L736.4,373.8 L738.3,273.8 L703.7,273.4 L704.5,240.8 L674.8,240.8 L676.2,89.1 L491.1,87.5 L491.2,62.8 L416.3,61.9 L416.2,80.8 L343.4,79.7 L343.1,143.7 L89.4,140.5 Z" fill="#2a2a2a" stroke="#1a1a1a" stroke-width="1.5" stroke-linejoin="round"/>
</svg>