<svg xmlns="http://www.w3.org/2000/svg" viewBox="0 0 800 598" preserveAspectRatio="xMidYMid meet">
<rect width="100%" height="100%" fill="#f3ead5"/>
<path d="M157.2,466.9 L164.8,478.3 L195.2,483.5 L204.6,478.0 L320.9,492.7 L332.5,506.6 L364.1,510.8 L377.0,500.0 L533.1,519.2 L539.7,474.7 L593.4,481.6 L614.0,465.5 L620.9,476.2 L683.1,428.8 L664.5,404.2 L679.6,286.3 L721.2,250.2 L677.5,198.2 L682.2,194.2 L628.1,132.1 L625.7,134.0 L611.8,117.4 L575.0,111.6 L576.7,104.2 L462.2,86.8 L460.4,94.3 L416.0,86.6 L401.0,176.0 L287.6,157.6 L284.1,179.6 L230.3,170.3 L188.7,199.3 L188.0,205.7 L160.6,201.6 L157.0,225.9 L130.1,222.4 L128.9,230.5 L110.8,228.0 L95.1,342.8 L106.2,344.1 L103.9,355.6 L100.4,353.8 L92.7,359.0 L86.8,382.9 L91.4,390.8 L100.2,391.8 L97.8,400.8 L166.2,410.9 L157.2,466.9 Z" fill="#00000022" stroke="none"/>
<path d="M153.2,462.9 L160.8,474.3 L191.2,479.5 L200.6,474.0 L316.9,488.7 L328.5,502.6 L360.1,506.8 L373.0,496.0 L529.1,515.2 L535.7,470.7 L589.4,477.6 L610.0,461.5 L616.9,472.2 L679.1,424.8 L660.5,400.2 L675.6,282.3 L717.2,246.2 L673.5,194.2 L678.2,190.2 L624.1,128.1 L621.7,130.0 L607.8,113.4 L571.0,107.6 L572.7,100.2 L458.2,82.8 L456.4,90.3 L412.0,82.6 L397.0,172.0 L283.6,153.6 L280.1,175.6 L226.3,166.3 L184.7,195.3 L184.0,201.7 L156.6,197.6 L153.0,221.9 L126.1,218.4 L124.9,226.5 L106.8,224.0 L91.1,338.8 L102.2,340.1 L99.9,351.6 L96.4,349.8 L88.7,355.0 L82.8,378.9 L87.4,386.8 L96.2,387.8 L93.8,396.8 L162.2,406.9 L153.2,462.9 Z" fill="#2a2a2a" stroke="#1a1a1a" stroke-width="1.5" stroke-linejoin="round"/>
</svg>