<svg xmlns="http://www.w3.org/2000/svg" viewBox="0 0 800 635" preserveAspectRatio="xMidYMid meet">
<rect width="100%" height="100%" fill="#f3ead5"/>
<path d="M717.8,104.5 L645.7,338.2 L637.9,336.2 L607.5,437.0 L596.8,433.7 L560.7,552.8 L494.9,532.6 L484.1,550.9 L256.5,483.7 L229.8,498.8 L174.0,466.5 L169.4,414.0 L100.5,392.7 L90.2,375.6 L101.5,339.2 L123.8,326.7 L154.9,228.3 L188.6,238.6 L234.0,92.2 L456.7,162.8 L467.2,128.2 L513.1,142.4 L501.5,179.8 L568.8,200.5 L575.2,180.5 L532.3,167.4 L556.3,90.9 L661.7,123.8 L671.9,90.2 L717.8,104.5 Z" fill="#00000022" stroke="none"/>
<path d="M713.8,100.5 L641.7,334.2 L633.9,332.2 L603.5,433.0 L592.8,429.7 L556.7,548.8 L490.9,528.6 L480.1,546.9 L252.5,479.7 L225.8,494.8 L170.0,462.5 L165.4,410.0 L96.5,388.7 L86.2,371.6 L97.5,335.2 L119.8,322.7 L150.9,224.3 L184.6,234.6 L230.0,88.2 L452.7,158.8 L463.2,124.2 L509.1,138.4 L497.5,175.8 L564.8,196.5 L571.2,176.5 L528.3,163.4 L552.3,86.9 L657.7,119.8 L667.9,86.2 L713.8,100.5 Z" fill="#2a2a2a" stroke="#1a1a1a" stroke-width="1.5" stroke-linejoin="round"/>
</svg>