<svg xmlns="http://www.w3.org/2000/svg" viewBox="0 0 800 516" preserveAspectRatio="xMidYMid meet">
<rect width="100%" height="100%" fill="#f3ead5"/>
<path d="M713.0,100.9 L691.3,340.5 L703.9,344.7 L721.2,371.8 L718.8,404.4 L699.0,429.1 L667.3,437.2 L637.4,425.9 L620.2,399.6 L530.6,392.6 L525.5,408.8 L501.6,417.1 L478.0,409.6 L471.8,386.7 L409.9,381.0 L409.1,391.1 L389.3,415.8 L357.7,424.7 L327.6,412.6 L310.4,385.5 L311.0,373.0 L253.8,367.8 L247.8,435.7 L142.7,426.4 L148.7,358.5 L86.8,352.8 L109.9,89.7 L196.5,97.8 L195.3,123.7 L529.2,152.9 L535.3,86.6 L713.0,100.9 Z" fill="#00000022" stroke="none"/>
<path d="M709.0,96.9 L687.3,336.5 L699.9,340.7 L717.2,367.8 L714.8,400.4 L695.0,425.1 L663.3,433.2 L633.4,421.9 L616.2,395.6 L526.6,388.6 L521.5,404.8 L497.6,413.1 L474.0,405.6 L467.8,382.7 L405.9,377.0 L405.1,387.1 L385.3,411.8 L353.7,420.7 L323.6,408.6 L306.4,381.5 L307.0,369.0 L249.8,363.8 L243.8,431.7 L138.7,422.4 L144.7,354.5 L82.8,348.8 L105.9,85.7 L192.5,93.8 L191.3,119.7 L525.2,148.9 L531.3,82.6 L709.0,96.9 Z" fill="#2a2a2a" stroke="#1a1a1a" stroke-width="1.5" stroke-linejoin="round"/>
</svg>