<svg xmlns="http://www.w3.org/2000/svg" viewBox="0 0 800 686" preserveAspectRatio="xMidYMid meet">
<rect width="100%" height="100%" fill="#f3ead5"/>
<path d="M491.2,215.8 L335.2,91.7 L324.4,104.5 L312.0,103.8 L299.7,106.0 L290.8,110.2 L279.8,120.0 L273.9,128.4 L272.0,137.0 L270.2,145.7 L271.6,156.2 L274.9,166.5 L257.1,186.3 L237.9,187.2 L223.5,208.8 L227.7,229.0 L232.5,233.0 L218.7,250.0 L209.6,251.1 L201.0,253.0 L191.5,256.4 L180.9,263.8 L171.0,275.0 L167.8,284.6 L165.1,294.9 L165.7,307.1 L168.7,319.7 L157.0,334.2 L163.3,340.3 L91.5,441.0 L314.4,601.3 L378.9,509.9 L380.9,521.1 L399.0,535.7 L421.7,531.4 L522.8,602.5 L617.6,466.8 L495.5,379.9 L517.7,349.6 L541.5,366.6 L556.4,345.6 L645.4,410.5 L716.5,314.5 L525.6,171.7 L491.2,215.8 Z" fill="#00000022" stroke="none"/>
<path d="M487.2,211.8 L331.2,87.7 L320.4,100.5 L308.0,99.8 L295.7,102.0 L286.8,106.2 L275.8,116.0 L269.9,124.4 L268.0,133.0 L266.2,141.7 L267.6,152.2 L270.9,162.5 L253.1,182.3 L233.9,183.2 L219.5,204.8 L223.7,225.0 L228.5,229.0 L214.7,246.0 L205.6,247.1 L197.0,249.0 L187.5,252.4 L176.9,259.8 L167.0,271.0 L163.8,280.6 L161.1,290.9 L161.7,303.1 L164.7,315.7 L153.0,330.2 L159.3,336.3 L87.5,437.0 L310.4,597.3 L374.9,505.9 L376.9,517.1 L395.0,531.7 L417.7,527.4 L518.8,598.5 L613.6,462.8 L491.5,375.9 L513.7,345.6 L537.5,362.6 L552.4,341.6 L641.4,406.5 L712.5,310.5 L521.6,167.7 L487.2,211.8 Z" fill="#2a2a2a" stroke="#1a1a1a" stroke-width="1.5" stroke-linejoin="round"/>
</svg>