<svg xmlns="http://www.w3.org/2000/svg" viewBox="0 0 800 315" preserveAspectRatio="xMidYMid meet">
<rect width="100%" height="100%" fill="#f3ead5"/>
<path d="M718.6,236.0 L720.9,209.7 L749.9,211.7 L757.8,112.6 L675.1,105.3 L677.3,80.6 L536.6,68.8 L534.8,89.5 L500.7,86.5 L500.3,90.5 L464.6,87.4 L465.2,79.8 L463.4,71.0 L459.7,64.6 L454.2,58.5 L447.6,54.9 L439.3,52.6 L431.6,51.9 L423.7,53.8 L416.6,56.7 L412.8,61.0 L408.9,65.7 L406.7,71.7 L404.4,87.8 L391.6,86.6 L389.6,80.9 L383.0,67.5 L372.7,58.0 L359.5,51.2 L343.3,49.8 L329.4,51.7 L319.7,54.9 L313.2,60.4 L306.7,66.0 L303.6,72.3 L302.1,79.3 L172.8,65.5 L158.7,79.5 L155.9,111.3 L126.1,108.7 L124.6,124.9 L58.2,119.1 L50.2,199.9 L91.1,203.5 L88.6,232.8 L109.0,234.6 L109.9,224.5 L265.0,238.5 L263.4,256.2 L267.2,262.7 L272.7,268.3 L283.5,272.8 L290.4,272.3 L297.4,270.4 L303.8,266.4 L310.3,259.8 L311.9,251.8 L331.5,253.5 L442.3,262.7 L442.7,259.2 L595.4,270.5 L600.1,206.2 L634.3,208.7 L633.3,230.0 L646.1,231.1 L647.5,244.0 L655.9,255.4 L662.5,259.6 L670.8,261.8 L681.2,261.2 L691.0,257.5 L697.7,249.9 L701.8,242.1 L702.4,234.5 L718.6,236.0 Z" fill="#00000022" stroke="none"/>
<path d="M714.6,232.0 L716.9,205.7 L745.9,207.7 L753.8,108.6 L671.1,101.3 L673.3,76.6 L532.6,64.8 L530.8,85.5 L496.7,82.5 L496.3,86.5 L460.6,83.4 L461.2,75.8 L459.4,67.0 L455.7,60.6 L450.2,54.5 L443.6,50.9 L435.3,48.6 L427.6,47.9 L419.7,49.8 L412.6,52.7 L408.8,57.0 L404.9,61.7 L402.7,67.7 L400.4,83.8 L387.6,82.6 L385.6,76.9 L379.0,63.5 L368.7,54.0 L355.5,47.2 L339.3,45.8 L325.4,47.7 L315.7,50.9 L309.2,56.4 L302.7,62.0 L299.6,68.3 L298.1,75.3 L168.8,61.5 L154.7,75.5 L151.9,107.3 L122.1,104.7 L120.6,120.9 L54.2,115.1 L46.2,195.9 L87.1,199.5 L84.6,228.8 L105.0,230.6 L105.9,220.5 L261.0,234.5 L259.4,252.2 L263.2,258.7 L268.7,264.3 L279.5,268.8 L286.4,268.3 L293.4,266.4 L299.8,262.4 L306.3,255.8 L307.9,247.8 L327.5,249.5 L438.3,258.7 L438.7,255.2 L591.4,266.5 L596.1,202.2 L630.3,204.7 L629.3,226.0 L642.1,227.1 L643.5,240.0 L651.9,251.4 L658.5,255.6 L666.8,257.8 L677.2,257.2 L687.0,253.5 L693.7,245.9 L697.8,238.1 L698.4,230.5 L714.6,232.0 Z" fill="#2a2a2a" stroke="#1a1a1a" stroke-width="1.5" stroke-linejoin="round"/>
</svg>