<svg xmlns="http://www.w3.org/2000/svg" viewBox="0 0 800 650" preserveAspectRatio="xMidYMid meet">
<rect width="100%" height="100%" fill="#f3ead5"/>
<path d="M477.4,87.7 L411.1,135.4 L365.9,73.5 L230.0,172.6 L317.6,293.3 L274.2,324.6 L218.1,247.1 L195.6,262.9 L176.9,237.0 L107.7,287.8 L168.4,373.0 L73.7,442.5 L164.4,568.4 L185.0,553.5 L207.2,583.8 L459.2,401.7 L591.9,584.3 L663.8,531.3 L675.9,547.4 L730.5,508.2 L701.7,468.2 L734.3,444.1 L477.4,87.7 Z" fill="#00000022" stroke="none"/>
<path d="M473.4,83.7 L407.1,131.4 L361.9,69.5 L226.0,168.6 L313.6,289.3 L270.2,320.6 L214.1,243.1 L191.6,258.9 L172.9,233.0 L103.7,283.8 L164.4,369.0 L69.7,438.5 L160.4,564.4 L181.0,549.5 L203.2,579.8 L455.2,397.7 L587.9,580.3 L659.8,527.3 L671.9,543.4 L726.5,504.2 L697.7,464.2 L730.3,440.1 L473.4,83.7 Z" fill="#2a2a2a" stroke="#1a1a1a" stroke-width="1.5" stroke-linejoin="round"/>
</svg>