<svg xmlns="http://www.w3.org/2000/svg" viewBox="0 0 800 500" preserveAspectRatio="xMidYMid meet">
<rect width="100%" height="100%" fill="#f3ead5"/>
<path d="M46.5,239.8 L85.8,316.7 L214.5,251.7 L288.5,398.9 L424.9,329.8 L492.1,461.5 L628.5,392.3 L654.7,444.5 L761.5,390.6 L587.4,46.6 L507.3,87.2 L487.1,47.5 L391.9,95.6 L420.0,151.4 L395.2,163.8 L354.9,84.6 L46.5,239.8 Z" fill="#00000022" stroke="none"/>
<path d="M42.5,235.8 L81.8,312.7 L210.5,247.7 L284.5,394.9 L420.9,325.8 L488.1,457.5 L624.5,388.3 L650.7,440.5 L757.5,386.6 L583.4,42.6 L503.3,83.2 L483.1,43.5 L387.9,91.6 L416.0,147.4 L391.2,159.8 L350.9,80.6 L42.5,235.8 Z" fill="#2a2a2a" stroke="#1a1a1a" stroke-width="1.5" stroke-linejoin="round"/>
</svg>