<svg xmlns="http://www.w3.org/2000/svg" viewBox="0 0 800 644" preserveAspectRatio="xMidYMid meet">
<rect width="100%" height="100%" fill="#f3ead5"/>
<path d="M111.1,86.6 L441.7,120.0 L445.3,89.1 L555.5,100.2 L551.3,137.3 L605.9,142.1 L611.1,91.2 L700.1,100.3 L693.7,162.1 L721.1,165.3 L691.1,463.3 L595.0,453.0 L591.5,487.0 L501.6,477.9 L496.7,518.1 L455.3,514.1 L450.1,565.1 L311.8,552.4 L316.0,499.9 L215.5,489.8 L230.6,341.5 L86.9,327.6 L111.1,86.6 Z" fill="#00000022" stroke="none"/>
<path d="M107.1,82.6 L437.7,116.0 L441.3,85.1 L551.5,96.2 L547.3,133.3 L601.9,138.1 L607.1,87.2 L696.1,96.3 L689.7,158.1 L717.1,161.3 L687.1,459.3 L591.0,449.0 L587.5,483.0 L497.6,473.9 L492.7,514.1 L451.3,510.1 L446.1,561.1 L307.8,548.4 L312.0,495.9 L211.5,485.8 L226.6,337.5 L82.9,323.6 L107.1,82.6 Z" fill="#2a2a2a" stroke="#1a1a1a" stroke-width="1.5" stroke-linejoin="round"/>
</svg>