<svg xmlns="http://www.w3.org/2000/svg" viewBox="0 0 800 435" preserveAspectRatio="xMidYMid meet">
<rect width="100%" height="100%" fill="#f3ead5"/>
<path d="M47.0,93.5 L90.0,162.6 L178.3,182.8 L331.3,396.0 L558.5,256.2 L692.2,281.2 L761.0,232.5 L706.7,162.9 L581.0,134.9 L504.9,183.4 L406.4,46.5 L253.9,140.8 L205.3,63.7 L123.2,48.3 L47.0,93.5 Z" fill="#00000022" stroke="none"/>
<path d="M43.0,89.5 L86.0,158.6 L174.3,178.8 L327.3,392.0 L554.5,252.2 L688.2,277.2 L757.0,228.5 L702.7,158.9 L577.0,130.9 L500.9,179.4 L402.4,42.5 L249.9,136.8 L201.3,59.7 L119.2,44.3 L43.0,89.5 Z" fill="#2a2a2a" stroke="#1a1a1a" stroke-width="1.5" stroke-linejoin="round"/>
</svg>