<svg xmlns="http://www.w3.org/2000/svg" viewBox="0 0 800 609" preserveAspectRatio="xMidYMid meet">
<rect width="100%" height="100%" fill="#f3ead5"/>
<path d="M721.6,477.6 L587.7,481.6 L583.9,530.1 L435.1,530.6 L433.3,487.1 L175.9,490.6 L174.8,317.0 L86.4,320.2 L89.9,182.9 L298.5,183.9 L295.6,86.1 L679.0,87.0 L681.4,370.1 L721.6,372.6 L721.6,477.6 Z" fill="#00000022" stroke="none"/>
<path d="M717.6,473.6 L583.7,477.6 L579.9,526.1 L431.1,526.6 L429.3,483.1 L171.9,486.6 L170.8,313.0 L82.4,316.2 L85.9,178.9 L294.5,179.9 L291.6,82.1 L675.0,83.0 L677.4,366.1 L717.6,368.6 L717.6,473.6 Z" fill="#2a2a2a" stroke="#1a1a1a" stroke-width="1.5" stroke-linejoin="round"/>
</svg>