<svg xmlns="http://www.w3.org/2000/svg" viewBox="0 0 800 569" preserveAspectRatio="xMidYMid meet">
<rect width="100%" height="100%" fill="#f3ead5"/>
<path d="M321.7,373.8 L187.9,506.5 L152.1,506.8 L68.3,420.9 L67.8,386.2 L163.3,292.7 L164.8,204.9 L247.4,123.2 L297.6,125.2 L353.3,67.4 L457.5,70.6 L511.4,125.8 L560.4,125.6 L645.3,212.5 L645.8,295.1 L738.1,391.5 L740.2,424.7 L656.9,507.7 L621.4,509.2 L487.0,377.1 L456.1,377.7 L457.0,436.3 L457.1,474.6 L426.5,508.8 L386.0,508.8 L351.3,477.7 L350.7,437.0 L350.8,373.5 L321.7,373.8 Z" fill="#00000022" stroke="none"/>
<path d="M317.7,369.8 L183.9,502.5 L148.1,502.8 L64.3,416.9 L63.8,382.2 L159.3,288.7 L160.8,200.9 L243.4,119.2 L293.6,121.2 L349.3,63.4 L453.5,66.6 L507.4,121.8 L556.4,121.6 L641.3,208.5 L641.8,291.1 L734.1,387.5 L736.2,420.7 L652.9,503.7 L617.4,505.2 L483.0,373.1 L452.1,373.7 L453.0,432.3 L453.1,470.6 L422.5,504.8 L382.0,504.8 L347.3,473.7 L346.7,433.0 L346.8,369.5 L317.7,369.8 Z" fill="#2a2a2a" stroke="#1a1a1a" stroke-width="1.5" stroke-linejoin="round"/>
</svg>