<svg xmlns="http://www.w3.org/2000/svg" viewBox="0 0 800 626" preserveAspectRatio="xMidYMid meet">
<rect width="100%" height="100%" fill="#f3ead5"/>
<path d="M687.0,356.9 L688.6,428.4 L632.0,429.7 L631.8,447.1 L537.1,450.4 L534.7,529.1 L409.7,535.7 L405.6,457.3 L313.1,460.4 L310.1,444.8 L193.5,445.7 L191.2,381.1 L128.0,382.7 L125.6,316.4 L101.5,314.2 L98.3,253.2 L152.7,250.3 L153.9,190.9 L223.6,189.0 L220.3,147.2 L313.8,142.3 L320.7,127.9 L334.8,106.2 L349.9,102.0 L374.8,98.9 L388.5,110.4 L401.2,123.7 L529.5,117.0 L551.7,103.6 L578.7,98.7 L596.6,108.2 L604.1,127.1 L624.8,126.0 L623.5,143.5 L701.7,137.7 L708.9,315.5 L709.7,331.2 L704.9,343.7 L695.4,349.5 L687.0,356.9 Z" fill="#00000022" stroke="none"/>
<path d="M683.0,352.9 L684.6,424.4 L628.0,425.7 L627.8,443.1 L533.1,446.4 L530.7,525.1 L405.7,531.7 L401.6,453.3 L309.1,456.4 L306.1,440.8 L189.5,441.7 L187.2,377.1 L124.0,378.7 L121.6,312.4 L97.5,310.2 L94.3,249.2 L148.7,246.3 L149.9,186.9 L219.6,185.0 L216.3,143.2 L309.8,138.3 L316.7,123.9 L330.8,102.2 L345.9,98.0 L370.8,94.9 L384.5,106.4 L397.2,119.7 L525.5,113.0 L547.7,99.6 L574.7,94.7 L592.6,104.2 L600.1,123.1 L620.8,122.0 L619.5,139.5 L697.7,133.7 L704.9,311.5 L705.7,327.2 L700.9,339.7 L691.4,345.5 L683.0,352.9 Z" fill="#2a2a2a" stroke="#1a1a1a" stroke-width="1.5" stroke-linejoin="round"/>
</svg>