<svg xmlns="http://www.w3.org/2000/svg" viewBox="0 0 750 800" preserveAspectRatio="xMidYMid meet">
<rect width="100%" height="100%" fill="#143018"/>
<path d="M58.8,525.2 L55.1,525.7 L51.8,527.5 L49.3,530.2 L47.8,533.7 L47.5,537.4 L48.4,541.0 L50.5,544.1 L53.3,546.3 L56.8,547.4 L60.4,547.5 L63.8,546.3 L66.7,544.1 L68.8,541.2 L69.8,537.7 L69.6,534.0 L68.2,530.5 L65.7,527.7 L62.5,525.9 L58.8,525.2 Z" fill="#0f2810" stroke="none"/>
<path d="M1518.1,-349.4 L1483.1,-357.3 L1441.3,-369.6 L1408.7,-385.0 L1376.7,-404.7 L1354.0,-421.3 L1339.3,-429.2 L1326.3,-420.0 L1312.8,-397.3 L1311.0,-377.0 L1299.9,-359.8 L1290.1,-348.1 L1275.9,-336.4 L1268.6,-316.2 L1266.1,-294.0 L1261.2,-274.4 L1253.8,-246.1 L1248.3,-215.4 L1233.5,-181.0 L1232.3,-155.8 L1223.7,-125.0 L1215.7,-104.1 L1201.0,-94.3 L1183.1,-77.1 L1170.3,-66.6 L1160.4,-61.7 L1148.1,-51.9 L1142.0,-39.0 L1137.7,-19.9 L1130.3,-4.0 L1110.0,3.4 L1090.3,11.4 L1078.7,21.2 L1067.0,32.9 L1044.9,51.4 L1027.6,70.4 L1008.6,84.5 L992.0,99.9 L974.2,115.9 L954.5,132.5 L934.2,147.9 L910.2,170.0 L877.7,192.8 L854.9,206.9 L819.3,225.9 L797.2,237.0 L782.4,253.6 L781.8,270.8 L778.7,295.4 L769.5,315.0 L758.4,327.4 L746.8,341.5 L761.5,380.8 L794.1,366.1 L851.9,327.9 L891.8,322.4 L933.6,319.4 L1012.3,265.9 L1044.2,238.8 L1106.3,183.5 L1161.6,133.7 L1215.1,108.5 L1264.9,79.1 L1328.2,39.1 L1378.0,11.4 L1409.9,-14.4 L1436.4,-36.5 L1454.8,-82.6 L1473.3,-147.8 L1484.3,-200.0 L1514.4,-284.8 L1531.0,-324.8 L1532.9,-340.1 L1526.7,-345.7 L1518.1,-349.4 Z" fill="#0f2810" stroke="none"/>
<path d="M882.0,-444.6 L845.7,-443.7 L809.4,-442.7 L775.9,-437.1 L737.7,-425.0 L713.4,-420.4 L690.1,-412.0 L672.4,-407.3 L639.8,-407.3 L610.0,-405.5 L578.3,-412.0 L542.0,-411.1 L513.1,-409.2 L484.2,-403.6 L452.6,-402.7 L424.6,-397.1 L405.1,-393.4 L379.9,-387.8 L351.0,-388.7 L313.8,-387.8 L287.7,-384.0 L261.6,-381.3 L232.7,-379.4 L202.9,-370.1 L183.4,-365.5 L169.5,-356.8 L159.0,-346.0 L143.6,-325.7 L126.0,-309.5 L109.9,-298.3 L96.6,-291.6 L86.3,-287.4 L79.3,-285.9 L72.6,-285.6 L67.2,-283.1 L62.2,-279.1 L60.4,-275.7 L60.1,-271.1 L60.4,-263.0 L61.3,-254.1 L65.7,-239.7 L73.3,-227.9 L77.7,-219.6 L86.9,-204.8 L100.9,-187.3 L118.1,-165.1 L139.6,-133.4 L172.2,-107.4 L202.9,-86.9 L237.4,-68.3 L259.7,-53.4 L269.0,-30.1 L276.5,-3.0 L281.6,19.8 L285.8,31.2 L293.2,40.8 L311.0,45.4 L317.9,47.7 L322.1,53.8 L323.1,66.6 L323.7,78.6 L321.0,90.4 L320.8,98.6 L324.0,104.3 L328.1,125.1 L328.9,138.2 L330.1,160.2 L331.2,175.8 L328.2,194.0 L324.3,212.5 L322.6,224.0 L319.9,233.2 L321.5,242.7 L324.6,248.5 L329.4,252.2 L337.4,251.6 L346.6,250.6 L360.9,243.8 L372.7,236.4 L388.3,225.2 L400.6,211.5 L409.5,197.9 L415.9,185.0 L422.1,171.4 L423.4,163.3 L422.0,154.4 L418.4,136.7 L416.7,120.0 L414.8,103.9 L414.4,90.8 L413.1,79.3 L413.2,63.4 L416.6,53.7 L422.1,44.2 L427.9,36.6 L434.0,28.7 L439.2,22.2 L445.8,14.9 L454.9,10.0 L465.5,8.1 L477.5,6.3 L493.2,5.9 L509.2,5.3 L520.1,7.4 L528.4,11.7 L538.5,10.2 L549.4,7.7 L566.5,1.4 L583.5,-4.9 L601.8,-6.1 L618.4,-5.8 L637.6,-2.2 L653.1,3.7 L666.0,5.7 L688.5,2.3 L709.6,-2.1 L728.6,-9.1 L762.8,-28.2 L798.2,-57.1 L818.7,-85.0 L841.1,-119.5 L858.8,-149.3 L885.8,-185.6 L909.1,-220.1 L929.6,-255.5 L966.8,-282.5 L973.4,-302.1 L987.3,-317.0 L995.7,-333.7 L1011.6,-347.7 L1023.6,-350.5 L1023.6,-336.6 L1018.1,-305.8 L1019.0,-287.2 L1026.5,-278.8 L1042.3,-272.3 L1053.5,-271.3 L1069.3,-287.2 L1091.6,-314.2 L1121.5,-345.9 L1153.1,-380.3 L1169.9,-403.6 L1176.4,-443.7 L1169.0,-463.2 L1140.1,-468.8 L1114.0,-459.5 L1081.4,-433.4 L1038.5,-392.5 L991.0,-357.1 L948.2,-386.8 L915.6,-424.1 L896.9,-439.0 L882.0,-444.6 Z" fill="#0f2810" stroke="none"/>
<path d="M35.2,455.1 L32.0,421.0 L32.0,359.4 L49.8,307.5 L67.6,257.2 L61.1,216.6 L51.4,171.2 L35.2,77.1 L17.3,44.7 L-15.1,-13.7 L-45.9,-64.0 L-88.1,-102.9 L-138.4,-133.7 L-213.0,-151.6 L-268.1,-171.0 L-334.6,-182.4 L-360.6,-210.0 L-389.8,-235.9 L-431.9,-244.0 L-470.9,-270.0 L-503.3,-279.7 L-547.1,-297.5 L-599.0,-323.5 L-646.1,-344.6 L-689.9,-385.1 L-727.2,-414.3 L-772.6,-419.2 L-818.0,-399.7 L-865.0,-346.2 L-873.1,-289.4 L-801.8,-222.9 L-602.8,-72.9 L-584.4,-59.1 L-380.0,72.3 L-193.5,223.1 L-146.5,307.5 L-127.0,411.3 L-112.4,519.9 L-97.8,549.1 L-36.2,549.1 L-2.1,545.9 L12.5,515.1 L25.5,479.4 L35.2,455.1 Z" fill="#0f2810" stroke="none"/>
<path d="M165.6,698.2 L156.6,707.8 L149.5,717.0 L146.9,725.5 L146.9,732.9 L148.1,740.7 L150.4,752.6 L152.6,764.5 L151.5,772.3 L148.9,783.8 L146.5,791.3 L145.5,802.9 L147.0,815.7 L147.1,829.8 L145.8,843.8 L144.6,861.3 L141.5,875.3 L139.5,887.7 L138.2,894.8 L138.6,901.5 L141.0,907.9 L143.1,916.4 L144.6,924.7 L144.5,931.7 L143.0,938.7 L140.6,958.1 L140.4,962.3 L140.0,964.8 L139.5,966.6 L137.8,968.0 L135.8,968.9 L129.1,968.8 L112.9,968.5 L110.0,968.6 L109.3,968.1 L108.7,967.5 L108.2,966.5 L107.9,965.0 L107.2,960.8 L102.6,916.4 L59.4,907.9 L35.1,907.1 L15.2,910.3 L2.1,917.9 L-8.7,917.4 L-18.3,914.0 L-29.8,906.0 L-40.5,905.8 L-48.3,907.5 L-55.4,918.9 L-61.1,931.7 L-70.8,941.1 L-70.0,953.3 L-66.6,965.3 L-61.5,975.5 L-54.8,982.0 L-48.9,988.8 L-44.3,996.8 L-44.8,1007.4 L-46.8,1019.7 L-44.9,1029.9 L-39.4,1042.0 L-31.2,1059.0 L-20.9,1077.0 L-8.5,1090.8 L6.1,1104.0 L26.1,1117.4 L47.1,1128.6 L72.3,1139.7 L97.3,1144.2 L129.3,1143.1 L148.2,1140.1 L169.6,1133.5 L189.4,1121.7 L209.5,1104.5 L238.2,1075.6 L283.7,1025.3 L304.7,1012.0 L314.3,999.5 L327.5,988.6 L339.5,971.5 L352.5,952.7 L362.9,941.6 L375.5,926.1 L393.1,913.8 L407.9,899.9 L420.6,884.1 L438.2,866.9 L469.0,846.1 L513.1,800.5 L559.0,750.6 L609.8,694.9 L656.4,646.4 L689.7,613.1 L731.5,571.8 L762.3,542.1 L794.8,509.6 L808.8,485.0 L788.4,482.9 L759.5,493.6 L718.9,510.7 L685.7,512.8 L647.1,512.8 L618.2,519.3 L556.2,529.9 L499.5,550.3 L466.3,570.6 L458.3,580.8 L449.2,589.5 L438.9,594.3 L427.9,595.3 L414.6,591.3 L402.9,589.5 L394.6,590.0 L385.2,592.3 L374.7,597.8 L364.4,605.8 L356.2,611.3 L344.1,616.9 L335.3,620.7 L330.1,626.9 L326.2,633.6 L324.5,642.0 L321.9,650.0 L318.5,656.4 L313.1,663.0 L309.4,666.4 L304.5,669.9 L300.4,672.0 L297.7,672.7 L294.4,673.3 L290.5,673.8 L287.0,673.6 L283.1,673.0 L279.4,672.8 L273.2,672.3 L264.8,671.2 L261.2,671.1 L254.3,670.1 L245.3,671.7 L245.5,672.9 L245.5,674.1 L245.3,675.9 L244.9,677.7 L244.5,678.7 L244.2,679.4 L243.6,680.1 L242.8,680.8 L241.2,681.8 L239.4,682.7 L237.6,683.5 L235.9,684.2 L234.1,684.7 L232.4,685.0 L230.7,685.3 L228.7,685.4 L226.5,685.3 L224.1,685.1 L222.4,684.7 L221.6,684.5 L220.7,684.1 L219.4,683.6 L218.8,682.8 L218.5,682.0 L218.8,670.4 L212.2,669.4 L212.7,680.8 L212.6,682.0 L212.4,683.0 L211.7,684.0 L210.6,684.7 L209.5,685.1 L208.3,685.2 L207.4,685.3 L206.2,685.3 L204.8,685.2 L202.1,685.0 L196.9,684.5 L195.7,684.2 L194.7,683.8 L193.4,682.9 L192.6,681.9 L192.5,681.1 L192.6,680.3 L184.4,683.0 L178.6,686.8 L171.1,690.2 L165.6,691.4 L165.6,698.2 Z" fill="#0f2810" stroke="none"/>
<path d="M611.2,759.4 L783.0,564.6 L860.2,490.2 L897.0,499.4 L987.0,504.0 L1007.2,517.7 L999.0,541.6 L923.6,599.5 L842.8,653.7 L730.7,709.8 L654.4,783.3 L537.7,910.1 L489.0,870.6 L611.2,759.4 Z" fill="#0f2810" stroke="none"/>
<path d="M-1134.2,274.1 L-1170.7,248.8 L-1273.2,229.1 L-1387.0,230.5 L-1454.3,254.5 L-1533.0,288.1 L-1584.9,335.8 L-1674.8,382.2 L-1735.2,410.2 L-1747.8,462.2 L-1712.7,521.2 L-1660.8,568.9 L-1629.9,634.9 L-1695.7,670.9 L-1711.3,723.4 L-1920.6,293.7 L-1832.1,208.0 L-1724.0,101.3 L-1551.2,29.7 L-1423.5,35.3 L-1242.3,25.5 L-1087.8,42.4 L-1019.0,77.4 L-922.2,140.7 L-861.8,205.2 L-847.7,265.6 L-784.5,316.2 L-693.2,380.8 L-617.4,390.6 L-507.9,422.9 L-392.8,451.0 L-267.8,497.3 L-238.3,545.1 L-211.3,633.0 L-89.1,627.4 L21.8,624.7 L78.4,660.9 L96.9,732.0 L90.1,874.0 L-49.6,882.7 L-121.7,931.7 L-31.5,1156.8 L-28.8,1208.8 L-79.3,1232.6 L-172.0,1336.6 L-236.6,1391.3 L-287.1,1333.8 L-302.6,1213.0 L-299.7,1029.0 L-247.8,971.5 L-208.5,887.2 L-246.4,746.8 L-277.3,685.0 L-298.7,637.7 L-332.4,625.1 L-345.3,643.6 L-359.0,705.1 L-395.5,750.1 L-502.3,719.2 L-514.9,677.0 L-555.6,620.9 L-645.5,601.2 L-731.2,601.2 L-814.0,557.7 L-908.1,495.9 L-991.0,446.8 L-1062.6,365.3 L-1134.2,274.1 Z" fill="#0f2810" stroke="none"/>
<path d="M-31.5,1156.8 L3.9,1190.7 L103.6,1207.5 L175.3,1191.6 L246.1,1146.9 L361.7,1011.8 L489.0,870.6 L537.7,910.1 L477.2,962.4 L431.4,1037.1 L305.8,1139.4 L246.1,1202.8 L142.8,1241.0 L71.0,1246.6 L8.6,1226.1 L-28.8,1208.8 L-31.5,1156.8 Z" fill="#0f2810" stroke="none"/>
<path d="M-705.6,-5.6 L-660.4,84.0 L-624.5,138.9 L-576.9,130.3 L-562.3,74.8 L-581.2,-0.1 L-594.0,-51.3 L-602.8,-72.9 L-584.4,-59.1 L-380.0,72.3 L-193.5,223.1 L-146.5,307.5 L-127.0,411.3 L-112.4,519.9 L-97.8,549.1 L-124.0,560.1 L-157.0,537.5 L-188.7,489.9 L-249.6,437.5 L-333.1,404.0 L-442.8,387.5 L-536.7,374.7 L-578.8,358.9 L-615.4,272.9 L-656.8,222.4 L-735.4,141.3 L-800.0,62.1 L-705.6,-5.6 Z" fill="#0f2810" stroke="none"/>
<path d="M163.9,610.5 L135.5,609.1 L107.3,612.6 L81.1,611.6 L62.5,611.8 L64.7,616.6 L60.5,618.4 L55.0,620.9 L57.8,627.4 L62.4,630.8 L79.2,640.4 L87.5,649.1 L94.0,660.1 L96.1,665.4 L101.5,676.1 L105.7,684.8 L107.9,692.3 L109.4,698.2 L110.2,706.4 L109.1,720.5 L107.7,737.1 L106.2,756.7 L105.1,775.0 L104.8,794.3 L105.1,814.4 L106.7,834.7 L108.4,855.5 L108.3,868.5 L107.7,880.9 L105.7,893.5 L103.6,901.2 L102.3,908.3 L102.1,912.8 L102.6,916.4 L107.2,960.8 L107.7,963.8 L107.9,965.0 L108.2,966.5 L108.7,967.5 L109.3,968.1 L110.0,968.6 L111.1,968.7 L112.9,968.5 L129.1,968.8 L135.8,968.9 L137.8,968.0 L139.5,966.6 L140.0,964.8 L140.4,962.3 L140.6,958.1 L143.0,938.7 L144.5,931.7 L144.6,924.7 L143.1,916.4 L141.0,907.9 L138.6,901.5 L138.2,894.8 L139.5,887.7 L141.5,875.3 L144.6,861.3 L145.8,843.8 L147.1,829.8 L147.0,815.7 L145.5,802.9 L146.5,791.3 L148.9,783.8 L151.5,772.3 L152.6,764.5 L150.4,752.6 L148.1,740.7 L146.9,732.9 L146.9,725.5 L149.5,717.0 L156.6,707.8 L165.6,698.2 L165.6,691.4 L158.5,691.9 L154.1,691.3 L149.7,689.8 L145.1,687.2 L140.5,683.0 L113.8,683.5 L112.9,634.4 L139.6,633.9 L144.9,626.6 L149.7,619.9 L157.9,613.5 L163.9,610.5 Z" fill="#2b5a2a" stroke="none"/>
<path d="M507.2,168.8 L243.2,631.2" fill="none" stroke="#4e8b39" stroke-width="131.3" stroke-linecap="round" stroke-linejoin="round" opacity="0.85"/>
<path d="M1009.3,936.6 L1046.7,861.2 L1099.9,796.9 L1154.2,736.3 L1202.7,679.4 L1220.6,645.6 L1241.1,578.7 L1253.8,555.5 L1284.3,540.2 L1335.0,527.1 L1390.8,506.5 L1506.2,472.3 L1523.1,486.5 L1517.8,512.3 L1464.1,548.7 L1395.6,613.5 L1370.2,659.3 L1280.7,800.0 L1209.5,894.9 L1105.2,1019.3 L1072.1,1084.0 L1048.2,1137.2 L979.0,1261.3 L938.3,1314.5 L891.3,1359.7 L822.2,1393.4 L775.2,1382.7 L745.1,1343.7 L764.6,1278.1 L793.8,1197.5 L808.4,1118.5 L815.8,1092.7 L844.8,1086.3 L897.5,1096.3 L946.0,1076.3 L956.5,1002.5 L1009.3,936.6 Z" fill="#5a9540" stroke="none"/>
<path d="M25.3,-358.2 L12.7,-357.7 L-1.4,-358.8 L-14.3,-362.5 L-31.3,-368.5 L-42.7,-377.3 L-50.2,-384.8 L-55.3,-394.1 L-57.7,-399.7 L-59.0,-408.2 L-59.8,-419.9 L-59.3,-428.2 L-304.2,-476.4 L-569.7,-529.9 L-555.0,-520.7 L-543.5,-513.6 L-534.3,-507.0 L-529.4,-503.7 L-524.3,-498.5 L-521.2,-493.6 L-516.9,-485.5 L-512.4,-475.5 L-508.6,-469.0 L-504.5,-463.5 L-496.3,-453.0 L-487.6,-443.1 L-484.0,-439.5 L-478.2,-432.9 L-475.6,-428.0 L-473.0,-422.5 L-470.9,-418.1 L-469.9,-412.6 L-469.9,-409.6 L-470.5,-406.2 L-472.5,-400.3 L-475.9,-394.0 L-480.4,-385.4 L-484.1,-377.6 L-485.3,-371.8 L-486.0,-366.0 L-485.9,-361.6 L-484.1,-356.4 L-482.0,-351.9 L-476.4,-345.2 L-446.8,-331.5 L-426.5,-316.8 L-421.7,-311.7 L-416.1,-308.5 L-408.6,-308.6 L-400.5,-309.8 L-389.2,-311.3 L-378.2,-311.7 L-367.8,-310.4 L-355.4,-306.1 L-344.7,-296.9 L-317.9,-272.0 L-306.7,-266.5 L-287.7,-242.1 L-251.8,-224.4 L-150.6,-204.0 L-138.4,-200.6 L-126.2,-195.1 L-103.6,-181.6 L-92.6,-173.3 L-82.0,-162.6 L-61.1,-140.9 L-53.2,-134.1 L-43.3,-127.2 L-34.2,-123.1 L-24.4,-121.2 L-18.0,-120.9 L-11.3,-119.6 L-5.9,-117.0 L-2.3,-113.5 L4.2,-103.3 L9.0,-94.9 L14.3,-82.3 L19.6,-66.1 L21.1,-58.9 L21.4,-53.6 L23.6,-47.6 L27.3,-42.0 L31.2,-36.0 L38.2,-25.2 L47.4,-11.2 L55.8,0.8 L64.2,11.5 L71.9,24.2 L81.0,38.6 L83.1,44.3 L84.9,53.4 L87.0,65.8 L89.5,84.9 L90.3,99.7 L92.1,116.9 L92.4,126.9 L91.5,137.9 L89.7,149.2 L87.2,157.0 L85.2,167.5 L85.4,175.1 L88.0,182.1 L92.3,187.5 L97.8,192.5 L108.2,199.7 L124.8,211.2 L143.9,224.2 L159.3,236.6 L164.7,241.4 L169.2,248.9 L171.0,253.1 L171.4,260.1 L170.8,266.3 L168.9,273.6 L163.7,281.6 L158.1,286.5 L149.8,291.8 L140.5,295.6 L124.6,301.2 L111.2,305.8 L98.4,312.8 L88.7,320.4 L80.2,329.5 L73.7,337.6 L64.9,349.4 L59.4,358.6 L57.7,370.0 L59.4,381.3 L67.0,396.9 L94.4,454.7 L122.1,515.5 L125.7,518.5 L130.9,519.9 L148.6,518.6 L169.7,517.4 L198.6,513.1 L236.7,506.8 L276.2,499.5 L350.9,487.0 L335.0,264.4 L318.4,263.8 L303.6,257.1 L298.6,245.9 L297.8,232.0 L299.4,214.2 L306.7,183.3 L308.4,145.7 L298.4,102.5 L297.4,91.7 L295.5,79.4 L289.8,66.7 L287.3,53.0 L284.4,39.7 L265.7,-1.8 L250.0,-43.8 L235.5,-59.1 L197.0,-83.2 L169.9,-101.7 L143.5,-119.8 L127.5,-139.0 L101.1,-177.9 L71.6,-221.0 L52.0,-246.7 L46.3,-254.1 L39.9,-260.8 L36.1,-267.1 L35.1,-269.9 L34.6,-272.5 L34.1,-275.2 L34.2,-277.8 L35.0,-280.5 L36.1,-282.7 L37.5,-284.9 L39.2,-286.6 L44.6,-290.3 L64.0,-299.6 L76.8,-302.5 L88.5,-304.9 L99.9,-309.3 L110.0,-315.2 L121.9,-322.7 L136.1,-334.0 L142.4,-340.4 L150.6,-349.5 L155.3,-356.5 L161.8,-364.4 L165.6,-369.3 L44.9,-357.4 L36.0,-359.8 L25.3,-358.2 Z" fill="#5a9540" stroke="none"/>
<path d="M187.6,1460.5 L371.7,1391.0 L454.6,1332.5 L558.2,1271.5 L655.8,1196.0 L796.0,1030.2 L850.8,950.9 L846.0,914.4 L824.0,890.0 L798.4,888.8 L728.9,940.0 L672.8,994.8 L615.5,1050.9 L522.9,1099.7 L468.0,1135.0 L320.5,1205.7 L198.6,1300.8 L162.0,1328.9 L136.4,1359.3 L141.3,1387.4 L121.8,1403.2 L87.7,1400.8 L28.0,1393.5 L-3.8,1394.7 L-23.3,1431.3 L-23.3,1470.3 L-7.4,1522.7 L54.8,1510.5 L187.6,1460.5 Z" fill="#5a9540" stroke="none"/>
<path d="M-600.5,-527.3 L-607.3,-529.6 L-613.8,-532.5 L-619.3,-533.1 L-620.9,-542.6 L-616.4,-549.7 L-606.9,-542.9 L-605.9,-539.1 L-597.9,-533.4 L-594.6,-531.4 L-589.7,-527.7 L-585.2,-522.6 L-582.1,-517.9 L-580.0,-513.2 L-577.5,-510.4 L-574.5,-508.1 L-569.7,-505.5 L-563.2,-504.0 L-557.8,-502.8 L-553.2,-498.6 L-550.2,-496.1 L-541.7,-491.0 L-537.1,-488.5 L-534.4,-487.0 L-531.8,-483.0 L-529.7,-479.9 L-527.8,-468.3 L-522.9,-457.8 L-513.9,-445.6 L-506.1,-439.3 L-500.6,-435.5 L-494.8,-432.9 L-490.8,-429.1 L-486.7,-424.1 L-483.7,-421.4 L-480.3,-418.7 L-478.8,-414.8 L-478.9,-409.2 L-478.9,-405.1 L-480.8,-399.1 L-483.2,-394.8 L-485.9,-390.5 L-488.9,-385.3 L-491.9,-380.3 L-494.3,-374.9 L-497.8,-370.8 L-498.8,-363.6 L-496.6,-357.3 L-495.8,-350.1 L-494.7,-346.7 L-490.4,-342.3 L-488.8,-337.3 L-480.5,-337.0 L-475.3,-332.9 L-471.8,-332.8 L-468.4,-328.7 L-463.8,-321.1 L-457.4,-309.2 L-446.4,-296.4 L-437.4,-290.9 L-431.6,-287.0 L-425.3,-285.0 L-417.2,-284.3 L-409.3,-283.8 L-398.6,-289.4 L-386.1,-293.9 L-374.8,-293.1 L-364.5,-294.6 L-353.7,-293.7 L-349.7,-291.5 L-345.9,-287.5 L-343.0,-284.3 L-336.0,-279.7 L-327.8,-276.8 L-323.3,-271.6 L-320.9,-263.8 L-320.8,-255.9 L-319.8,-248.1 L-318.5,-240.8 L-315.9,-233.0 L-310.3,-223.6 L-303.7,-215.4 L-293.4,-207.2 L-280.7,-203.5 L-270.4,-203.5 L-253.3,-203.5 L-247.5,-207.2 L-242.4,-207.4 L-234.6,-203.8 L-229.6,-203.4 L-217.1,-205.2 L-205.9,-201.4 L-193.4,-199.8 L-180.8,-194.6 L-170.4,-190.9 L-154.1,-188.7 L-140.0,-186.5 L-129.3,-184.3 L-121.3,-180.4 L-115.9,-174.3 L-109.1,-170.8 L-100.0,-161.3 L-87.6,-150.2 L-76.9,-141.5 L-67.7,-132.3 L-60.7,-125.0 L-52.6,-119.8 L-46.9,-118.6 L-40.2,-116.9 L-31.1,-116.1 L-20.7,-115.3 L-11.1,-112.4 L-3.7,-104.2 L0.7,-91.6 L6.7,-80.5 L10.2,-74.9 L11.1,-68.7 L14.7,-63.1 L14.6,-53.6 L15.7,-45.9 L18.2,-40.0 L21.5,-36.0 L21.9,-32.0 L27.4,-23.6 L35.2,-12.5 L41.5,-2.7 L44.9,1.6 L52.1,9.0 L54.7,13.1 L59.3,23.8 L66.6,29.4 L71.8,35.3 L74.5,39.4 L78.3,44.7 L79.8,62.6 L80.8,72.1 L83.8,84.7 L83.7,96.5 L85.3,112.4 L85.2,130.6 L84.6,135.2 L82.4,145.2 L83.7,150.2 L81.4,155.6 L79.8,157.7 L78.5,162.6 L75.5,169.6 L75.4,178.1 L79.1,182.0 L81.9,187.5 L87.2,195.0 L92.2,200.1 L97.7,205.7 L104.7,207.6 L112.7,210.6 L121.6,215.3 L130.9,224.8 L136.8,232.9 L143.7,242.7 L147.9,248.0 L151.9,251.3 L154.5,254.0 L158.8,258.4 L161.5,268.5 L161.0,272.8 L155.1,273.8 L154.8,269.3 L150.0,261.4 L145.4,252.9 L142.2,246.1 L137.8,241.7 L129.7,234.3 L122.2,226.9 L114.1,222.4 L106.7,216.5 L100.0,215.0 L97.7,214.0 L90.4,210.6 L82.2,203.2 L77.8,191.3 L73.4,181.7 L67.4,172.8 L68.9,163.9 L71.1,156.5 L71.1,147.6 L71.9,138.0 L76.3,130.6 L78.5,119.5 L79.3,103.9 L77.8,98.0 L74.8,89.1 L69.8,81.3 L69.6,74.3 L69.6,64.7 L70.4,51.4 L65.2,45.4 L59.3,43.2 L49.6,37.3 L43.0,26.9 L36.3,19.5 L30.4,9.1 L23.7,-2.7 L13.3,-13.1 L8.9,-24.2 L4.4,-34.6 L3.7,-49.4 L3.0,-62.0 L1.5,-72.4 L-4.4,-82.8 L-8.9,-92.4 L-13.3,-102.0 L-21.5,-107.2 L-47.4,-107.2 L-56.3,-108.7 L-63.0,-110.2 L-77.8,-123.5 L-92.6,-132.4 L-101.5,-142.8 L-105.9,-151.6 L-117.8,-159.1 L-128.9,-167.9 L-145.2,-175.3 L-160.0,-179.0 L-169.6,-179.0 L-185.2,-182.0 L-197.8,-190.2 L-214.8,-190.9 L-235.6,-190.9 L-249.7,-190.9 L-263.0,-190.9 L-280.7,-192.4 L-294.8,-196.8 L-307.4,-202.7 L-317.8,-210.9 L-323.0,-217.6 L-328.2,-226.4 L-331.9,-237.6 L-334.1,-251.6 L-332.6,-262.0 L-339.5,-265.7 L-346.7,-269.7 L-355.4,-274.0 L-363.5,-278.1 L-371.9,-281.3 L-379.6,-281.4 L-389.3,-281.2 L-399.0,-278.5 L-410.4,-276.1 L-422.2,-276.1 L-436.3,-282.0 L-444.2,-286.0 L-452.2,-291.5 L-458.4,-296.2 L-463.3,-301.2 L-468.7,-306.0 L-471.2,-311.5 L-475.3,-321.4 L-483.9,-326.7 L-493.5,-330.1 L-495.7,-335.4 L-494.9,-339.4 L-499.3,-345.3 L-501.9,-351.9 L-502.5,-358.8 L-502.9,-365.4 L-502.8,-371.6 L-500.6,-375.6 L-497.7,-377.8 L-490.6,-388.1 L-487.8,-394.4 L-485.2,-399.5 L-483.3,-403.9 L-482.9,-410.2 L-485.7,-416.8 L-490.7,-421.4 L-495.4,-425.0 L-499.5,-428.8 L-504.0,-432.9 L-512.0,-438.2 L-516.7,-441.9 L-520.5,-446.3 L-524.1,-451.4 L-526.4,-454.8 L-529.4,-461.7 L-532.4,-468.0 L-533.8,-473.4 L-534.1,-476.4 L-534.3,-478.9 L-535.2,-481.8 L-536.7,-483.2 L-538.9,-485.0 L-542.8,-489.2 L-548.0,-492.4 L-554.0,-496.0 L-564.0,-499.6 L-571.6,-503.2 L-578.5,-507.6 L-585.0,-512.9 L-590.4,-519.1 L-595.1,-523.7 L-600.5,-527.3 Z" fill="#2e5577" stroke="none"/>
<path d="M742.7,291.4 L737.7,289.4 L730.0,286.8 L722.6,284.5 L715.1,283.0 L708.2,282.5 L700.6,282.5 L693.2,283.4 L688.3,285.1 L684.3,287.9 L680.7,291.0 L677.1,294.8 L671.4,301.3 L665.1,311.0 L658.2,321.1 L650.1,334.3 L641.0,350.4 L635.2,362.7 L631.4,373.7 L627.9,391.4 L626.4,400.2 L626.2,406.7 L627.1,410.2 L628.1,413.5 L630.4,416.0 L633.2,418.6 L636.2,420.2 L639.7,420.7 L644.8,420.4 L649.4,419.7 L652.4,417.7 L656.0,414.4 L659.8,407.7 L666.0,392.5 L667.6,389.0 L670.6,385.4 L674.6,381.7 L679.8,377.8 L686.1,374.1 L700.2,367.4 L709.6,362.3 L716.8,357.7 L723.2,352.8 L733.8,344.1 L738.7,339.7 L743.7,335.7 L748.8,331.1 L752.5,327.5 L755.0,324.4 L755.9,320.5 L756.0,317.0 L756.0,311.8 L755.0,304.9 L752.5,299.5 L749.7,295.9 L746.1,293.5 L742.7,291.4 Z" fill="#2e5577" stroke="none"/>
<path d="M163.9,610.5 L183.8,603.5 L201.5,599.8 L215.9,596.0 L240.0,590.1 L265.0,584.8 L277.7,582.0 L288.2,580.4 L299.1,577.8 L303.8,577.9 L307.7,579.5 L310.2,580.7 L311.6,582.5 L313.1,586.5 L315.5,591.8 L319.5,600.4 L325.0,607.0 L328.0,605.6 L332.1,604.3 L341.2,603.0 L345.1,600.0 L348.7,594.6 L359.3,578.5 L366.4,567.6 L372.5,563.1 L380.6,561.3 L388.3,559.5 L412.4,556.8 L471.0,544.7 L549.3,522.9 L597.3,513.3 L642.8,502.7 L672.8,492.9 L726.5,486.1 L739.2,484.4 L745.5,481.2 L765.3,475.6 L792.5,466.4 L807.3,465.0 L818.6,466.0 L834.5,467.8 L867.3,477.7 L896.3,491.5 L936.5,498.5 L965.1,498.9 L1019.8,496.8 L1058.3,496.4 L1083.0,500.2 L1101.7,504.2 L1132.8,510.9 L1164.6,519.7 L1185.0,526.4 L1203.0,532.0 L1207.6,541.2 L1215.4,531.0 L1239.4,535.2 L1246.1,536.7 L1257.4,537.0 L1277.9,537.0 L1296.9,533.4 L1311.1,530.3 L1325.2,522.9 L1347.1,514.4 L1367.9,506.6 L1386.6,498.5 L1395.1,498.9 L1397.5,494.6 L1407.8,489.0 L1425.1,480.1 L1449.8,468.1 L1470.3,460.7 L1502.0,451.2 L1528.2,445.6 L1549.7,441.7 L1567.3,440.8 L1567.3,406.3 L1561.4,406.3 L1553.5,406.3 L1543.8,405.9 L1528.3,403.5 L1512.5,399.8 L1504.8,399.4 L1486.6,402.2 L1468.3,405.1 L1457.8,408.3 L1445.2,412.8 L1417.7,427.0 L1397.0,439.5 L1377.9,448.9 L1365.7,456.2 L1350.7,463.9 L1351.6,471.2 L1335.7,474.0 L1318.7,481.7 L1292.8,489.8 L1273.3,494.7 L1244.5,497.1 L1228.1,500.5 L1177.6,480.9 L1149.2,474.0 L1123.3,467.5 L1095.7,462.6 L1074.2,463.9 L1050.2,462.3 L1026.3,462.3 L993.1,454.6 L965.9,442.8 L954.6,437.4 L938.8,429.8 L899.0,416.8 L859.3,405.9 L847.1,403.0 L825.6,402.6 L795.2,407.9 L762.3,414.4 L738.0,419.3 L718.1,421.3 L698.7,424.1 L648.8,436.7 L640.2,438.3 L630.2,440.6 L623.0,441.6 L610.7,443.0 L602.5,443.0 L597.4,443.9 L591.1,446.7 L584.3,449.5 L577.4,452.1 L570.3,454.1 L562.2,454.9 L550.3,456.0 L541.9,457.0 L535.0,457.6 L528.4,459.5 L524.7,461.4 L518.0,464.9 L512.1,467.0 L507.0,468.8 L500.5,470.5 L497.9,471.2 L493.3,472.1 L489.6,474.2 L486.5,475.8 L484.0,478.6 L483.3,480.7 L480.7,483.5 L477.4,485.6 L474.4,487.5 L471.1,488.6 L464.9,489.5 L454.6,490.5 L435.3,493.5 L403.6,496.8 L376.4,501.0 L323.0,508.2 L290.2,513.8 L251.3,520.8 L231.5,525.4 L217.5,527.5 L188.2,530.8 L174.7,532.2 L147.0,538.0 L106.6,544.8 L23.7,556.9 L-7.3,560.8 L-39.5,559.7 L-68.8,559.7 L-124.0,560.1 L-132.3,560.1 L-158.8,561.8 L-219.1,564.6 L-260.8,572.1 L-302.5,572.1 L-353.9,557.1 L-388.1,548.6 L-424.5,543.2 L-438.4,533.6 L-472.7,521.8 L-501.6,510.0 L-525.1,511.1 L-555.1,518.6 L-573.3,527.2 L-569.8,561.6 L-540.9,561.1 L-519.5,550.4 L-499.1,550.4 L-471.9,553.1 L-443.0,562.7 L-402.8,572.9 L-368.1,582.5 L-313.5,599.1 L-261.6,605.0 L-210.8,607.7 L-131.6,611.4 L-95.7,613.0 L-54.0,615.7 L1.1,613.0 L33.8,612.0 L62.5,611.8 L81.1,611.6 L107.3,612.6 L135.5,609.1 L163.9,610.5 Z" fill="#2e5577" stroke="none"/>
<path d="M219.8,666.9 L220.7,665.8 L223.1,665.5 L227.4,665.8 L231.9,666.1 L236.1,666.5 L239.9,666.9 L241.1,667.2 L242.3,667.5 L243.2,668.0 L244.1,668.6 L245.0,670.2 L245.3,671.7 L245.5,672.9 L245.5,674.1 L245.3,675.9 L244.9,677.7 L244.5,678.7 L244.2,679.4 L243.6,680.1 L242.8,680.8 L241.2,681.8 L239.4,682.7 L237.6,683.5 L235.9,684.2 L234.1,684.7 L232.4,685.0 L230.7,685.3 L228.7,685.4 L226.5,685.3 L224.1,685.1 L222.4,684.7 L221.6,684.5 L220.7,684.1 L219.4,683.6 L218.8,682.8 L218.5,682.0 L218.8,670.4 L219.0,668.9 L219.4,667.9 L219.8,666.9 Z" fill="#e7d6a3" stroke="none"/>
<path d="M198.6,667.3 L199.3,666.5 L200.0,666.0 L200.8,665.8 L202.2,665.7 L204.1,665.7 L206.0,665.9 L207.8,666.1 L209.2,666.4 L210.4,666.8 L211.1,667.1 L211.5,667.6 L211.9,668.2 L212.2,669.4 L212.7,680.8 L212.6,682.0 L212.4,683.0 L211.7,684.0 L210.6,684.7 L209.5,685.1 L208.3,685.2 L207.4,685.3 L206.2,685.3 L204.8,685.2 L202.1,685.0 L196.9,684.5 L195.7,684.2 L194.7,683.8 L193.4,682.9 L192.6,681.9 L192.5,681.1 L192.6,680.3 L195.6,673.6 L198.6,667.3 Z" fill="#e7d6a3" stroke="none"/>
<path d="M538.3,400.7 L539.3,398.8 L540.8,396.7 L542.0,394.1 L543.9,389.7 L546.0,383.8 L547.2,379.4 L547.6,376.0 L547.5,373.4 L546.9,371.3 L545.4,368.9 L543.7,367.3 L541.6,366.1 L539.5,365.3 L537.6,365.1 L536.0,365.1 L534.0,365.3 L532.3,365.6 L531.0,366.0 L529.1,366.2 L527.8,366.3 L526.7,366.3 L525.3,366.1 L523.8,365.3 L521.5,363.8 L518.5,362.1 L516.4,361.2 L514.3,360.8 L511.9,360.8 L509.7,361.1 L507.6,361.9 L506.0,363.4 L504.8,364.8 L503.7,366.5 L503.0,368.1 L502.5,369.8 L502.1,371.4 L501.6,372.8 L500.7,374.0 L499.6,375.1 L498.2,376.3 L497.0,377.9 L496.1,378.9 L495.6,380.6 L495.5,382.3 L495.6,384.3 L495.9,386.3 L496.7,388.0 L497.4,389.3 L498.1,390.5 L499.2,391.8 L500.5,392.5 L502.0,393.0 L503.4,393.3 L505.3,393.2 L507.2,392.8 L508.9,392.6 L511.3,392.1 L513.1,391.9 L514.6,391.8 L516.0,392.2 L517.1,392.8 L518.1,393.8 L519.0,395.1 L519.6,396.1 L519.9,397.1 L520.3,398.0 L520.7,399.6 L520.9,400.8 L521.3,402.0 L521.7,403.0 L522.3,403.9 L523.1,404.7 L524.3,405.2 L525.6,405.8 L527.4,406.1 L528.8,406.2 L530.5,406.1 L532.1,405.8 L533.5,405.5 L534.8,404.9 L536.3,403.6 L537.3,402.3 L538.3,400.7 Z" fill="#e7d6a3" stroke="none"/>
<path d="M259.1,610.3 L260.2,611.1 L261.1,612.0 L261.8,612.3 L262.8,612.7 L264.2,612.8 L265.9,612.4 L267.3,612.0 L269.0,611.1 L270.9,610.3 L273.1,609.0 L274.7,607.8 L275.8,606.8 L276.6,605.7 L277.4,604.2 L277.9,602.5 L278.0,601.0 L278.0,599.3 L277.9,597.8 L277.7,596.3 L277.1,594.9 L276.5,594.1 L275.6,593.1 L274.2,592.1 L272.8,591.3 L271.1,590.8 L269.8,590.5 L268.5,590.3 L266.9,590.2 L265.7,590.3 L264.6,590.5 L263.0,591.0 L261.9,591.4 L260.8,592.0 L259.7,592.7 L258.8,593.2 L257.7,593.6 L256.6,594.0 L255.6,594.3 L254.3,594.6 L253.4,594.7 L252.2,594.7 L250.8,594.6 L249.4,594.5 L247.9,594.3 L246.0,594.2 L244.1,594.3 L242.5,594.5 L240.9,594.9 L239.6,595.3 L238.3,595.9 L237.3,596.6 L236.4,597.5 L235.8,598.7 L235.5,599.8 L235.2,601.5 L235.1,602.9 L235.3,604.6 L235.5,605.8 L236.0,607.3 L236.7,608.5 L237.6,609.9 L238.6,611.0 L239.9,612.1 L241.4,613.2 L243.0,614.0 L244.4,614.5 L246.0,614.9 L247.3,615.0 L248.7,615.0 L250.1,614.6 L251.4,613.8 L252.2,612.8 L252.9,611.7 L253.7,610.5 L254.6,609.7 L255.7,609.2 L256.6,609.2 L257.5,609.4 L258.1,609.7 L259.1,610.3 Z" fill="#e7d6a3" stroke="none"/>
<path d="M505.6,150.2 L525.2,162.8 L489.8,219.0 L469.8,205.9 L505.6,150.2 Z" fill="#4f8a3e" stroke="none"/>
<path d="M134.6,904.5 L133.4,962.8 L111.8,962.4 L113.0,904.0 L134.6,904.5 Z" fill="#4f8a3e" stroke="none"/>
<path d="M112.9,634.4 L113.8,683.5 L140.5,683.0 L139.6,633.9 L112.9,634.4 Z" fill="#4f8a3e" stroke="none"/>
<path d="M532.1,174.7 L553.9,188.1 L517.4,242.7 L496.6,229.6 L532.1,174.7 Z" fill="#4f8a3e" stroke="none"/>
<path d="M646.8,310.8 L647.2,307.6 L647.1,304.4 L646.6,299.9 L645.6,296.7 L643.6,294.3 L641.1,292.0 L637.1,289.6 L631.8,288.4 L625.7,288.1 L618.2,288.9 L606.8,291.0 L596.8,293.3 L588.7,296.0 L580.9,299.9 L574.0,304.1 L567.7,309.3 L562.9,313.8 L557.7,320.4 L553.3,326.7 L550.5,331.7 L548.3,337.7 L548.0,342.8 L548.4,348.4 L548.6,355.5 L550.1,367.0 L550.5,377.0 L548.9,384.9 L547.9,391.6 L548.0,397.5 L548.5,402.8 L549.5,407.8 L551.7,413.0 L555.4,418.0 L560.9,421.7 L566.0,423.6 L572.6,425.1 L578.8,425.4 L586.1,424.9 L592.4,423.4 L597.5,420.9 L601.7,417.5 L607.4,410.7 L610.3,405.0 L612.2,399.6 L613.5,393.2 L614.0,389.3 L614.9,385.6 L615.4,380.4 L616.7,372.0 L618.1,363.9 L619.7,358.2 L621.3,354.5 L622.7,351.8 L624.5,347.9 L628.3,341.6 L633.4,333.8 L638.8,326.0 L643.4,319.0 L645.2,315.4 L646.8,310.8 Z" fill="#2f7825" stroke="none"/>
<path d="M219.2,653.4 L226.0,652.9 L234.3,652.7 L242.2,653.2 L249.9,653.9 L257.2,654.7 L264.1,655.2 L269.6,655.5 L274.8,654.6 L281.6,653.1 L286.3,650.9 L292.1,646.8 L296.0,642.2 L299.4,638.0 L302.4,633.8 L304.1,630.1 L305.4,626.2 L306.1,622.2 L306.1,617.1 L304.9,612.7 L303.7,610.1 L301.5,607.6 L299.6,605.5 L296.8,604.2 L293.7,603.3 L290.7,603.4 L287.8,603.8 L284.7,604.8 L282.0,606.1 L279.0,608.7 L275.9,610.6 L272.4,612.2 L268.5,614.2 L264.7,615.3 L261.2,616.4 L257.9,617.1 L254.4,617.6 L249.6,617.9 L246.8,618.0 L244.3,618.0 L241.3,617.4 L238.7,616.7 L236.1,615.6 L230.6,614.2 L225.9,613.1 L221.0,612.4 L215.5,612.0 L210.6,612.4 L205.5,613.1 L201.5,614.1 L197.3,615.7 L193.9,617.6 L191.0,619.5 L188.4,622.2 L186.1,625.4 L185.2,628.7 L184.9,632.3 L185.2,634.9 L185.6,637.3 L186.4,639.9 L187.5,642.7 L189.4,645.6 L191.8,648.1 L194.4,650.0 L198.4,651.6 L203.0,653.0 L207.7,653.6 L213.2,653.9 L219.2,653.4 Z" fill="#2f7825" stroke="none"/>
<path d="M507.2,168.8 L243.2,631.2" fill="none" stroke="#ffd64a" stroke-width="3.5" stroke-linecap="round" stroke-linejoin="round" opacity="0.95"/>
</svg>