<svg xmlns="http://www.w3.org/2000/svg" viewBox="0 0 800 600" preserveAspectRatio="xMidYMid slice">
<rect width="100%" height="100%" fill="#143018"/>
<path d="M279.5,348.5 L278.1,348.7 L276.9,349.3 L275.9,350.4 L275.3,351.7 L275.2,353.1 L275.6,354.5 L276.4,355.7 L277.5,356.5 L278.8,356.9 L280.1,356.9 L281.4,356.5 L282.5,355.7 L283.3,354.5 L283.7,353.2 L283.6,351.8 L283.1,350.5 L282.2,349.4 L280.9,348.7 L279.5,348.5 Z" fill="#0f2810" stroke="none"/>
<path d="M835.1,15.5 L821.8,12.4 L805.9,7.8 L793.5,1.9 L781.3,-5.6 L772.7,-11.9 L767.0,-14.9 L762.1,-11.4 L757.0,-2.8 L756.3,5.0 L752.1,11.5 L748.3,16.0 L742.9,20.4 L740.1,28.1 L739.2,36.5 L737.3,44.0 L734.5,54.8 L732.4,66.5 L726.8,79.6 L726.3,89.2 L723.0,100.9 L720.0,108.9 L714.4,112.6 L707.6,119.1 L702.7,123.1 L698.9,125.0 L694.3,128.7 L691.9,133.7 L690.3,140.9 L687.5,147.0 L679.7,149.8 L672.3,152.8 L667.8,156.6 L663.4,161.0 L655.0,168.1 L648.4,175.3 L641.1,180.7 L634.8,186.5 L628.0,192.6 L620.5,198.9 L612.8,204.8 L603.7,213.2 L591.3,221.9 L582.6,227.3 L569.1,234.5 L560.6,238.7 L555.0,245.1 L554.8,251.6 L553.6,261.0 L550.1,268.4 L545.9,273.1 L541.5,278.5 L547.1,293.5 L559.5,287.9 L581.5,273.4 L596.7,271.3 L612.6,270.1 L642.6,249.7 L654.7,239.4 L678.3,218.4 L699.4,199.4 L719.8,189.8 L738.7,178.6 L762.8,163.4 L781.8,152.8 L794.0,143.0 L804.0,134.6 L811.0,117.0 L818.1,92.2 L822.3,72.4 L833.7,40.1 L840.0,24.8 L840.7,19.0 L838.4,16.9 L835.1,15.5 Z" fill="#0f2810" stroke="none"/>
<path d="M593.0,-20.8 L579.1,-20.4 L565.3,-20.1 L552.5,-17.9 L538.0,-13.3 L528.8,-11.6 L519.9,-8.4 L513.2,-6.6 L500.8,-6.6 L489.4,-5.9 L477.3,-8.4 L463.5,-8.0 L452.5,-7.3 L441.5,-5.2 L429.4,-4.8 L418.8,-2.7 L411.4,-1.3 L401.8,0.9 L390.8,0.5 L376.6,0.9 L366.7,2.3 L356.7,3.3 L345.7,4.1 L334.4,7.6 L327.0,9.3 L321.7,12.7 L317.7,16.8 L311.8,24.5 L305.1,30.7 L299.0,34.9 L293.9,37.5 L290.0,39.1 L287.3,39.6 L284.8,39.8 L282.7,40.7 L280.8,42.2 L280.2,43.5 L280.0,45.3 L280.2,48.4 L280.5,51.7 L282.2,57.2 L285.0,61.7 L286.7,64.9 L290.2,70.5 L295.5,77.2 L302.1,85.6 L310.3,97.7 L322.7,107.6 L334.4,115.4 L347.5,122.5 L356.0,128.2 L359.6,137.1 L362.4,147.3 L364.4,156.0 L366.0,160.4 L368.8,164.0 L375.5,165.8 L378.2,166.7 L379.8,169.0 L380.2,173.9 L380.4,178.4 L379.3,182.9 L379.3,186.1 L380.5,188.2 L382.1,196.1 L382.4,201.1 L382.8,209.5 L383.3,215.4 L382.1,222.4 L380.6,229.4 L380.0,233.8 L378.9,237.3 L379.5,240.9 L380.7,243.1 L382.5,244.5 L385.6,244.3 L389.1,243.9 L394.6,241.3 L399.0,238.5 L405.0,234.2 L409.7,229.0 L413.1,223.9 L415.5,219.0 L417.8,213.8 L418.3,210.7 L417.8,207.3 L416.4,200.5 L415.8,194.2 L415.1,188.0 L414.9,183.1 L414.4,178.7 L414.5,172.6 L415.7,168.9 L417.8,165.3 L420.0,162.4 L422.4,159.4 L424.4,157.0 L426.9,154.2 L430.3,152.3 L434.4,151.6 L438.9,150.9 L444.9,150.8 L451.0,150.5 L455.1,151.3 L458.3,153.0 L462.2,152.4 L466.3,151.4 L472.8,149.0 L479.3,146.6 L486.3,146.2 L492.6,146.3 L499.9,147.7 L505.8,149.9 L510.7,150.7 L519.3,149.4 L527.3,147.7 L534.5,145.0 L547.6,137.8 L561.0,126.8 L568.8,116.1 L577.4,103.0 L584.1,91.7 L594.4,77.8 L603.2,64.7 L611.1,51.2 L625.2,40.9 L627.7,33.5 L633.0,27.8 L636.2,21.4 L642.3,16.1 L646.9,15.0 L646.9,20.4 L644.7,32.1 L645.1,39.2 L647.9,42.4 L654.0,44.8 L658.2,45.2 L664.3,39.2 L672.8,28.9 L684.1,16.8 L696.2,3.7 L702.6,-5.2 L705.0,-20.4 L702.2,-27.9 L691.2,-30.0 L681.3,-26.5 L668.9,-16.5 L652.5,-0.9 L634.5,12.6 L618.2,1.2 L605.7,-13.0 L598.6,-18.6 L593.0,-20.8 Z" fill="#0f2810" stroke="none"/>
<path d="M270.5,321.8 L269.3,308.8 L269.3,285.3 L276.1,265.6 L282.9,246.4 L280.4,231.0 L276.7,213.7 L270.5,177.9 L263.7,165.5 L251.4,143.3 L239.7,124.1 L223.6,109.3 L204.5,97.6 L176.1,90.8 L155.1,83.4 L129.7,79.1 L119.9,68.6 L108.7,58.7 L92.7,55.6 L77.9,45.7 L65.5,42.0 L48.8,35.2 L29.1,25.3 L11.2,17.3 L-5.5,1.9 L-19.7,-9.2 L-37.0,-11.1 L-54.3,-3.7 L-72.2,16.7 L-75.3,38.3 L-48.1,63.6 L27.6,120.7 L34.6,126.0 L112.4,176.0 L183.5,233.4 L201.4,265.6 L208.8,305.1 L214.3,346.5 L219.9,357.6 L243.4,357.6 L256.3,356.3 L261.9,344.6 L266.8,331.0 L270.5,321.8 Z" fill="#0f2810" stroke="none"/>
<path d="M320.2,414.3 L316.8,418.0 L314.0,421.5 L313.1,424.7 L313.1,427.6 L313.5,430.5 L314.4,435.1 L315.2,439.6 L314.8,442.6 L313.8,446.9 L312.9,449.8 L312.5,454.2 L313.1,459.0 L313.2,464.4 L312.7,469.8 L312.2,476.4 L311.0,481.8 L310.3,486.5 L309.8,489.2 L309.9,491.7 L310.8,494.2 L311.6,497.4 L312.2,500.6 L312.1,503.2 L311.6,505.9 L310.7,513.3 L310.6,514.9 L310.5,515.8 L310.3,516.5 L309.6,517.1 L308.8,517.4 L306.3,517.4 L300.1,517.2 L299.0,517.3 L298.8,517.1 L298.5,516.9 L298.3,516.5 L298.2,515.9 L298.0,514.3 L296.2,497.4 L279.8,494.2 L270.5,493.9 L262.9,495.1 L257.9,498.0 L253.8,497.8 L250.2,496.5 L245.8,493.4 L241.7,493.4 L238.7,494.0 L236.0,498.4 L233.9,503.2 L230.2,506.8 L230.5,511.5 L231.8,516.0 L233.7,519.9 L236.3,522.4 L238.5,525.0 L240.3,528.0 L240.1,532.0 L239.3,536.7 L240.1,540.6 L242.1,545.2 L245.3,551.7 L249.2,558.5 L253.9,563.8 L259.5,568.8 L267.1,573.9 L275.1,578.2 L284.7,582.4 L294.2,584.1 L306.4,583.7 L313.6,582.6 L321.7,580.1 L329.3,575.5 L336.9,569.0 L347.8,558.0 L365.1,538.9 L373.2,533.8 L376.8,529.0 L381.8,524.9 L386.4,518.4 L391.3,511.2 L395.3,507.0 L400.1,501.1 L406.8,496.4 L412.4,491.1 L417.3,485.1 L424.0,478.6 L435.7,470.7 L452.5,453.3 L470.0,434.3 L489.3,413.1 L507.1,394.6 L519.7,381.9 L535.6,366.2 L547.4,354.9 L559.8,342.5 L565.1,333.2 L557.3,332.3 L546.3,336.4 L530.8,342.9 L518.2,343.7 L503.5,343.7 L492.5,346.2 L468.9,350.3 L447.3,358.0 L434.7,365.8 L431.6,369.6 L428.2,372.9 L424.2,374.8 L420.1,375.1 L415.0,373.6 L410.5,373.0 L407.4,373.1 L403.8,374.0 L399.8,376.1 L395.9,379.2 L392.8,381.2 L388.2,383.4 L384.8,384.8 L382.8,387.2 L381.3,389.7 L380.7,392.9 L379.7,396.0 L378.4,398.4 L376.3,400.9 L374.9,402.2 L373.1,403.5 L371.5,404.4 L370.5,404.6 L369.2,404.9 L367.8,405.1 L366.4,405.0 L364.9,404.7 L363.5,404.7 L361.2,404.5 L358.0,404.0 L356.6,404.0 L354.0,403.6 L350.5,404.2 L350.6,404.7 L350.6,405.1 L350.5,405.8 L350.4,406.5 L350.2,406.9 L350.1,407.2 L349.9,407.4 L349.6,407.7 L349.0,408.1 L348.3,408.4 L347.6,408.7 L346.9,409.0 L346.3,409.2 L345.6,409.3 L345.0,409.4 L344.2,409.5 L343.4,409.4 L342.5,409.3 L341.8,409.2 L341.5,409.1 L341.2,409.0 L340.7,408.8 L340.5,408.5 L340.3,408.2 L340.4,403.8 L337.9,403.4 L338.1,407.7 L338.1,408.2 L338.0,408.6 L337.7,408.9 L337.3,409.2 L336.9,409.4 L336.5,409.4 L336.1,409.4 L335.6,409.4 L335.1,409.4 L334.1,409.3 L332.1,409.1 L331.6,409.0 L331.3,408.8 L330.8,408.5 L330.5,408.1 L330.4,407.8 L330.5,407.5 L327.3,408.5 L325.2,410.0 L322.3,411.3 L320.2,411.7 L320.2,414.3 Z" fill="#0f2810" stroke="none"/>
<path d="M853.4,145.5 L812.2,158.9 L756.1,184.5 L715.5,211.8 L671.6,246.0 L618.7,294.7 L609.6,305.4 L620.6,315.0 L645.9,316.0 L665.2,311.8 L688.2,277.6 L708.0,262.1 L738.4,271.1 L751.3,272.7 L767.8,265.3 L795.1,238.5 L814.9,219.3 L848.6,231.0 L874.2,248.1 L882.3,265.3 L920.2,262.6 L917.0,225.7 L918.1,193.6 L920.8,165.8 L929.8,147.6 L935.2,134.8 L921.3,128.9 L887.6,134.3 L853.4,145.5 Z" fill="#0f2810" stroke="none"/>
<path d="M489.9,437.6 L555.3,363.5 L584.7,335.1 L598.6,338.6 L632.9,340.4 L640.6,345.6 L637.5,354.7 L608.8,376.8 L578.0,397.4 L535.3,418.7 L506.3,446.7 L461.9,495.0 L443.3,479.9 L489.9,437.6 Z" fill="#0f2810" stroke="none"/>
<path d="M-174.7,252.8 L-188.6,243.2 L-227.6,235.7 L-270.9,236.3 L-296.5,245.4 L-326.5,258.2 L-346.3,276.4 L-380.5,294.0 L-403.5,304.7 L-408.3,324.5 L-394.9,346.9 L-375.2,365.1 L-363.4,390.2 L-388.5,403.9 L-394.4,423.9 L-474.1,260.3 L-440.4,227.7 L-399.2,187.1 L-333.5,159.8 L-284.8,161.9 L-215.8,158.2 L-157.0,164.6 L-130.8,178.0 L-93.9,202.1 L-71.0,226.6 L-65.6,249.6 L-41.5,268.9 L-6.8,293.5 L22.1,297.2 L63.8,309.5 L107.6,320.2 L155.2,337.8 L166.4,356.0 L176.7,389.5 L223.2,387.4 L265.5,386.3 L287.0,400.1 L294.1,427.2 L291.5,481.2 L238.3,484.6 L210.8,503.2 L245.1,588.9 L246.2,608.7 L227.0,617.8 L191.7,657.4 L167.1,678.2 L147.8,656.3 L142.0,610.3 L143.0,540.3 L162.8,518.4 L177.8,486.3 L163.3,432.8 L151.6,409.3 L143.4,391.3 L130.6,386.5 L125.7,393.6 L120.4,417.0 L106.6,434.1 L65.9,422.3 L61.1,406.3 L45.6,384.9 L11.4,377.4 L-21.2,377.4 L-52.8,360.8 L-88.6,337.3 L-120.1,318.6 L-147.4,287.6 L-174.7,252.8 Z" fill="#0f2810" stroke="none"/>
<path d="M245.1,588.9 L258.6,601.8 L296.6,608.2 L323.9,602.2 L350.9,585.2 L394.8,533.7 L443.3,479.9 L461.9,495.0 L438.8,514.9 L421.4,543.3 L373.6,582.3 L350.9,606.4 L311.5,621.0 L284.2,623.1 L260.4,615.3 L246.2,608.7 L245.1,588.9 Z" fill="#0f2810" stroke="none"/>
<path d="M-11.5,146.4 L5.7,180.5 L19.4,201.4 L37.5,198.1 L43.1,177.0 L35.9,148.5 L31.0,129.0 L27.6,120.7 L34.6,126.0 L112.4,176.0 L183.5,233.4 L201.4,265.6 L208.8,305.1 L214.3,346.5 L219.9,357.6 L209.9,361.7 L197.4,353.1 L185.3,335.0 L162.1,315.1 L130.3,302.3 L88.5,296.1 L52.8,291.2 L36.8,285.1 L22.9,252.4 L7.1,233.2 L-22.9,202.3 L-47.5,172.1 L-11.5,146.4 Z" fill="#0f2810" stroke="none"/>
<path d="M724.7,339.1 L726.5,329.8 L731.8,312.2 L743.2,293.7 L755.2,282.4 L771.1,270.4 L796.0,245.8 L810.9,241.9 L837.9,245.9 L848.3,256.6 L853.9,269.1 L855.1,285.3 L852.3,292.1 L851.2,298.5 L851.6,303.2 L848.6,303.2 L844.9,303.0 L839.0,302.1 L833.0,300.7 L830.1,300.6 L823.1,301.6 L816.2,302.7 L812.2,304.0 L807.4,305.7 L796.9,311.1 L789.0,315.8 L781.8,319.4 L777.1,322.2 L771.4,325.1 L771.7,327.9 L765.7,329.0 L759.2,331.9 L749.3,335.0 L741.9,336.9 L731.0,337.8 L724.7,339.1 Z" fill="#2b5a2a" stroke="none"/>
<path d="M319.6,380.9 L308.7,380.4 L298.0,381.7 L288.0,381.3 L280.9,381.4 L281.8,383.3 L280.2,383.9 L278.1,384.9 L279.2,387.4 L280.9,388.7 L287.3,392.3 L290.5,395.6 L292.9,399.8 L293.7,401.8 L295.8,405.9 L297.4,409.2 L298.2,412.1 L298.8,414.3 L299.1,417.4 L298.7,422.8 L298.2,429.2 L297.6,436.6 L297.2,443.6 L297.0,450.9 L297.1,458.6 L297.8,466.3 L298.4,474.2 L298.4,479.2 L298.2,483.9 L297.4,488.7 L296.6,491.6 L296.1,494.3 L296.0,496.0 L296.2,497.4 L298.0,514.3 L298.2,515.5 L298.2,515.9 L298.3,516.5 L298.5,516.9 L298.8,517.1 L299.0,517.3 L299.4,517.3 L300.1,517.2 L306.3,517.4 L308.8,517.4 L309.6,517.1 L310.3,516.5 L310.5,515.8 L310.6,514.9 L310.7,513.3 L311.6,505.9 L312.1,503.2 L312.2,500.6 L311.6,497.4 L310.8,494.2 L309.9,491.7 L309.8,489.2 L310.3,486.5 L311.0,481.8 L312.2,476.4 L312.7,469.8 L313.2,464.4 L313.1,459.0 L312.5,454.2 L312.9,449.8 L313.8,446.9 L314.8,442.6 L315.2,439.6 L314.4,435.1 L313.5,430.5 L313.1,427.6 L313.1,424.7 L314.0,421.5 L316.8,418.0 L320.2,414.3 L320.2,411.7 L317.5,411.9 L315.8,411.7 L314.2,411.1 L312.4,410.1 L310.6,408.5 L300.5,408.7 L300.1,390.0 L310.3,389.8 L312.3,387.1 L314.1,384.5 L317.2,382.1 L319.6,380.9 Z" fill="#2b5a2a" stroke="none"/>
<path d="M641.4,505.1 L655.6,476.4 L675.9,451.9 L696.6,428.8 L715.0,407.2 L721.9,394.3 L729.7,368.8 L734.5,360.0 L746.1,354.2 L765.4,349.2 L786.7,341.3 L830.6,328.3 L837.0,333.7 L835.0,343.6 L814.6,357.4 L788.5,382.1 L778.8,399.5 L744.7,453.1 L717.6,489.2 L677.9,536.6 L665.3,561.2 L656.2,581.5 L629.9,628.7 L614.4,649.0 L596.5,666.2 L570.2,679.0 L552.3,674.9 L540.8,660.1 L548.2,635.1 L559.4,604.4 L564.9,574.3 L567.7,564.5 L578.8,562.1 L598.8,565.9 L617.3,558.3 L621.3,530.2 L641.4,505.1 Z" fill="#5a9540" stroke="none"/>
<path d="M266.8,12.1 L262.0,12.3 L256.6,11.9 L251.7,10.5 L245.2,8.2 L240.9,4.9 L238.0,2.0 L236.1,-1.5 L235.2,-3.7 L234.7,-6.9 L234.4,-11.4 L234.6,-14.5 L141.3,-32.9 L40.2,-53.2 L45.9,-49.8 L50.2,-47.0 L53.7,-44.5 L55.6,-43.3 L57.5,-41.3 L58.7,-39.4 L60.3,-36.3 L62.0,-32.5 L63.5,-30.1 L65.1,-28.0 L68.2,-24.0 L71.5,-20.2 L72.9,-18.8 L75.1,-16.3 L76.1,-14.4 L77.0,-12.4 L77.9,-10.7 L78.2,-8.6 L78.2,-7.4 L78.0,-6.2 L77.2,-3.9 L76.0,-1.5 L74.3,1.8 L72.8,4.7 L72.4,6.9 L72.1,9.1 L72.1,10.8 L72.8,12.8 L73.6,14.5 L75.8,17.1 L87.0,22.3 L94.8,27.9 L96.6,29.8 L98.7,31.0 L101.6,31.0 L104.7,30.6 L109.0,30.0 L113.1,29.8 L117.1,30.3 L121.8,32.0 L125.9,35.5 L136.1,44.9 L140.4,47.0 L147.6,56.3 L161.3,63.0 L199.8,70.8 L204.5,72.1 L209.1,74.2 L217.7,79.4 L221.9,82.5 L225.9,86.6 L233.9,94.9 L236.9,97.5 L240.7,100.1 L244.1,101.6 L247.8,102.4 L250.3,102.5 L252.8,103.0 L254.9,103.9 L256.3,105.3 L258.7,109.2 L260.6,112.4 L262.6,117.2 L264.6,123.3 L265.2,126.1 L265.3,128.1 L266.1,130.4 L267.6,132.5 L269.0,134.8 L271.7,138.9 L275.2,144.3 L278.4,148.8 L281.6,152.9 L284.5,157.7 L288.0,163.2 L288.8,165.4 L289.4,168.8 L290.3,173.6 L291.2,180.8 L291.5,186.5 L292.2,193.0 L292.3,196.8 L292.0,201.0 L291.3,205.3 L290.4,208.3 L289.6,212.3 L289.7,215.2 L290.7,217.8 L292.3,219.9 L294.4,221.8 L298.3,224.5 L304.7,228.9 L311.9,233.8 L317.8,238.6 L319.8,240.4 L321.6,243.2 L322.2,244.8 L322.4,247.5 L322.2,249.9 L321.5,252.7 L319.5,255.7 L317.3,257.6 L314.2,259.6 L310.6,261.1 L304.6,263.2 L299.5,264.9 L294.6,267.6 L290.9,270.5 L287.7,274.0 L285.2,277.0 L281.9,281.5 L279.7,285.0 L279.1,289.4 L279.8,293.7 L282.7,299.6 L293.1,321.6 L303.6,344.8 L305.0,345.9 L307.0,346.4 L313.7,346.0 L321.8,345.5 L332.8,343.8 L347.3,341.5 L362.3,338.7 L390.7,333.9 L384.7,249.2 L378.4,248.9 L372.7,246.4 L370.8,242.1 L370.5,236.8 L371.1,230.1 L373.9,218.3 L374.6,204.0 L370.8,187.5 L370.4,183.4 L369.7,178.7 L367.5,173.9 L366.5,168.7 L365.4,163.6 L358.3,147.8 L352.3,131.8 L346.8,126.0 L332.2,116.8 L321.8,109.8 L311.8,102.9 L305.7,95.6 L295.6,80.8 L284.4,64.3 L276.9,54.6 L274.8,51.7 L272.3,49.2 L270.9,46.8 L270.5,45.7 L270.3,44.7 L270.1,43.7 L270.2,42.7 L270.5,41.7 L270.9,40.9 L271.4,40.0 L272.1,39.4 L274.1,38.0 L281.5,34.4 L286.4,33.3 L290.9,32.4 L295.2,30.7 L299.0,28.5 L303.6,25.6 L309.0,21.3 L311.3,18.9 L314.5,15.4 L316.3,12.8 L318.8,9.8 L320.2,7.9 L274.3,12.4 L270.8,11.5 L266.8,12.1 Z" fill="#5a9540" stroke="none"/>
<path d="M328.6,704.6 L398.7,678.1 L430.2,655.8 L469.7,632.6 L506.8,603.9 L560.2,540.7 L581.1,510.6 L579.2,496.6 L570.9,487.4 L561.1,486.9 L534.7,506.4 L513.3,527.3 L491.5,548.6 L456.2,567.2 L435.3,580.6 L379.2,607.6 L332.8,643.8 L318.8,654.4 L309.1,666.0 L311.0,676.7 L303.5,682.8 L290.5,681.8 L267.8,679.0 L255.7,679.5 L248.3,693.4 L248.3,708.3 L254.3,728.2 L278.0,723.6 L328.6,704.6 Z" fill="#5a9540" stroke="none"/>
<path d="M28.5,-52.3 L25.9,-53.2 L23.4,-54.2 L21.4,-54.5 L20.7,-58.1 L22.4,-60.8 L26.1,-58.2 L26.5,-56.8 L29.5,-54.6 L30.8,-53.8 L32.6,-52.4 L34.3,-50.5 L35.5,-48.7 L36.3,-46.9 L37.3,-45.8 L38.4,-44.9 L40.3,-44.0 L42.7,-43.4 L44.8,-42.9 L46.5,-41.3 L47.7,-40.4 L50.9,-38.4 L52.7,-37.5 L53.7,-36.9 L54.7,-35.4 L55.5,-34.2 L56.2,-29.8 L58.1,-25.8 L61.5,-21.1 L64.5,-18.7 L66.5,-17.3 L68.8,-16.3 L70.3,-14.9 L71.8,-13.0 L73.0,-11.9 L74.3,-10.9 L74.8,-9.4 L74.8,-7.3 L74.8,-5.7 L74.1,-3.5 L73.2,-1.8 L72.1,-0.2 L71.0,1.8 L69.9,3.7 L69.0,5.8 L67.6,7.3 L67.2,10.1 L68.1,12.5 L68.4,15.2 L68.8,16.5 L70.4,18.2 L71.0,20.1 L74.2,20.2 L76.2,21.8 L77.5,21.8 L78.8,23.3 L80.6,26.2 L83.0,30.8 L87.2,35.7 L90.6,37.7 L92.8,39.2 L95.2,40.0 L98.3,40.2 L101.3,40.5 L105.4,38.3 L110.1,36.6 L114.4,36.9 L118.4,36.3 L122.5,36.7 L124.0,37.5 L125.4,39.0 L126.6,40.3 L129.2,42.0 L132.4,43.1 L134.1,45.1 L135.0,48.1 L135.0,51.1 L135.4,54.1 L135.9,56.8 L136.9,59.8 L139.0,63.4 L141.5,66.5 L145.5,69.6 L150.3,71.0 L154.2,71.0 L160.7,71.0 L162.9,69.6 L164.9,69.5 L167.8,70.9 L169.7,71.1 L174.5,70.4 L178.8,71.8 L183.5,72.4 L188.3,74.4 L192.3,75.8 L198.5,76.7 L203.8,77.5 L207.9,78.3 L211.0,79.8 L213.0,82.2 L215.6,83.5 L219.1,87.1 L223.8,91.3 L227.9,94.6 L231.4,98.1 L234.0,100.9 L237.1,102.9 L239.3,103.4 L241.9,104.0 L245.3,104.3 L249.2,104.6 L252.9,105.7 L255.7,108.8 L257.4,113.6 L259.7,117.8 L261.0,120.0 L261.4,122.4 L262.7,124.5 L262.7,128.1 L263.1,131.0 L264.1,133.3 L265.3,134.8 L265.5,136.3 L267.6,139.5 L270.5,143.8 L273.0,147.5 L274.2,149.1 L277.0,151.9 L278.0,153.5 L279.7,157.6 L282.5,159.7 L284.5,161.9 L285.5,163.5 L286.9,165.5 L287.5,172.3 L287.9,175.9 L289.1,180.8 L289.0,185.3 L289.6,191.3 L289.6,198.2 L289.3,200.0 L288.5,203.8 L289.0,205.7 L288.1,207.7 L287.5,208.5 L287.0,210.4 L285.9,213.1 L285.9,216.3 L287.3,217.8 L288.3,219.9 L290.3,222.7 L292.3,224.7 L294.3,226.8 L297.0,227.5 L300.1,228.7 L303.5,230.5 L307.0,234.1 L309.2,237.2 L311.9,240.9 L313.5,242.9 L315.0,244.2 L316.0,245.2 L317.6,246.9 L318.6,250.7 L318.4,252.4 L316.2,252.7 L316.1,251.0 L314.3,248.0 L312.5,244.8 L311.3,242.2 L309.6,240.5 L306.5,237.7 L303.7,234.9 L300.6,233.2 L297.8,230.9 L295.2,230.4 L294.3,230.0 L291.6,228.7 L288.5,225.9 L286.8,221.3 L285.1,217.7 L282.8,214.3 L283.4,210.9 L284.2,208.1 L284.2,204.7 L284.5,201.1 L286.2,198.2 L287.0,194.0 L287.3,188.1 L286.8,185.8 L285.6,182.4 L283.7,179.5 L283.7,176.8 L283.7,173.1 L283.9,168.1 L282.0,165.8 L279.7,164.9 L276.0,162.7 L273.5,158.7 L271.0,155.9 L268.7,152.0 L266.2,147.5 L262.2,143.5 L260.5,139.3 L258.8,135.3 L258.6,129.7 L258.3,124.9 L257.7,120.9 L255.5,117.0 L253.8,113.3 L252.1,109.7 L249.0,107.7 L239.1,107.7 L235.7,107.1 L233.2,106.6 L227.5,101.5 L221.9,98.1 L218.5,94.1 L216.8,90.8 L212.3,87.9 L208.1,84.6 L201.9,81.7 L196.2,80.3 L192.6,80.3 L186.6,79.2 L181.8,76.1 L175.4,75.8 L167.5,75.8 L162.1,75.8 L157.0,75.8 L150.3,75.3 L144.9,73.6 L140.1,71.3 L136.1,68.2 L134.2,65.7 L132.2,62.3 L130.8,58.1 L129.9,52.7 L130.5,48.7 L127.9,47.3 L125.1,45.8 L121.9,44.2 L118.7,42.6 L115.6,41.4 L112.6,41.4 L108.9,41.4 L105.2,42.4 L100.9,43.4 L96.4,43.4 L91.0,41.1 L88.0,39.6 L85.0,37.5 L82.6,35.7 L80.7,33.8 L78.7,32.0 L77.8,29.9 L76.2,26.1 L72.9,24.1 L69.3,22.8 L68.4,20.8 L68.7,19.3 L67.1,17.0 L66.1,14.5 L65.8,11.9 L65.7,9.4 L65.7,7.0 L66.5,5.5 L67.7,4.7 L70.4,0.7 L71.4,-1.7 L72.4,-3.6 L73.1,-5.3 L73.3,-7.7 L72.2,-10.2 L70.3,-11.9 L68.5,-13.3 L67.0,-14.8 L65.3,-16.3 L62.2,-18.3 L60.4,-19.8 L59.0,-21.4 L57.6,-23.4 L56.7,-24.7 L55.6,-27.3 L54.4,-29.7 L53.9,-31.7 L53.8,-32.9 L53.7,-33.8 L53.4,-35.0 L52.8,-35.5 L52.0,-36.2 L50.5,-37.8 L48.5,-39.0 L46.2,-40.3 L42.4,-41.7 L39.5,-43.1 L36.9,-44.8 L34.4,-46.8 L32.4,-49.1 L30.6,-50.9 L28.5,-52.3 Z" fill="#2e5577" stroke="none"/>
<path d="M539.9,259.5 L538.0,258.7 L535.1,257.7 L532.3,256.8 L529.4,256.2 L526.8,256.1 L523.9,256.1 L521.1,256.4 L519.2,257.1 L517.7,258.1 L516.3,259.3 L514.9,260.7 L512.8,263.2 L510.4,266.9 L507.7,270.7 L504.6,275.8 L501.2,281.9 L499.0,286.6 L497.6,290.8 L496.2,297.5 L495.6,300.9 L495.6,303.4 L495.9,304.7 L496.3,305.9 L497.2,306.9 L498.2,307.9 L499.4,308.5 L500.7,308.7 L502.6,308.5 L504.4,308.3 L505.5,307.5 L506.9,306.3 L508.4,303.7 L510.7,297.9 L511.3,296.6 L512.5,295.2 L514.0,293.8 L516.0,292.4 L518.4,290.9 L523.7,288.4 L527.3,286.4 L530.1,284.7 L532.5,282.8 L536.5,279.5 L538.4,277.8 L540.3,276.3 L542.2,274.5 L543.6,273.2 L544.6,272.0 L544.9,270.5 L545.0,269.2 L545.0,267.2 L544.6,264.6 L543.6,262.5 L542.6,261.2 L541.2,260.2 L539.9,259.5 Z" fill="#2e5577" stroke="none"/>
<path d="M319.6,380.9 L327.1,378.3 L333.9,376.9 L339.4,375.4 L348.5,373.2 L358.0,371.2 L362.9,370.1 L366.9,369.5 L371.0,368.5 L372.8,368.5 L374.3,369.1 L375.2,369.6 L375.8,370.3 L376.4,371.8 L377.3,373.8 L378.8,377.1 L380.9,379.6 L382.0,379.1 L383.6,378.6 L387.1,378.1 L388.5,376.9 L389.9,374.9 L393.9,368.8 L396.6,364.6 L399.0,362.9 L402.0,362.2 L405.0,361.5 L414.2,360.5 L436.5,355.9 L466.3,347.6 L484.5,343.9 L501.9,339.9 L513.3,336.2 L533.7,333.6 L538.6,332.9 L541.0,331.7 L548.5,329.6 L558.9,326.1 L564.5,325.5 L568.8,325.9 L574.9,326.6 L587.4,330.4 L598.4,335.6 L613.7,338.3 L624.6,338.4 L645.4,337.6 L660.1,337.5 L669.5,339.0 L676.6,340.5 L688.4,343.0 L700.5,346.4 L708.3,348.9 L715.2,351.1 L716.9,354.6 L719.9,350.7 L729.0,352.3 L731.6,352.8 L735.9,352.9 L743.7,352.9 L750.9,351.6 L756.3,350.4 L761.7,347.6 L770.0,344.4 L777.9,341.4 L785.1,338.3 L788.3,338.4 L789.2,336.8 L793.1,334.7 L799.7,331.3 L809.1,326.7 L816.9,323.9 L829.0,320.3 L839.0,318.1 L847.2,316.7 L853.9,316.3 L853.9,303.2 L851.6,303.2 L848.6,303.2 L844.9,303.0 L839.0,302.1 L833.0,300.7 L830.1,300.6 L823.1,301.6 L816.2,302.7 L812.2,304.0 L807.4,305.7 L796.9,311.1 L789.0,315.8 L781.8,319.4 L777.1,322.2 L771.4,325.1 L771.7,327.9 L765.7,329.0 L759.2,331.9 L749.3,335.0 L741.9,336.9 L731.0,337.8 L724.7,339.1 L705.5,331.6 L694.7,329.0 L684.8,326.5 L674.3,324.6 L666.1,325.1 L657.0,324.5 L647.9,324.5 L635.2,321.6 L624.9,317.1 L620.6,315.0 L614.6,312.1 L599.4,307.2 L584.3,303.0 L579.7,302.0 L571.5,301.8 L559.9,303.8 L547.4,306.3 L538.1,308.1 L530.6,308.9 L523.2,310.0 L504.2,314.8 L500.9,315.4 L497.1,316.3 L494.3,316.6 L489.6,317.2 L486.5,317.2 L484.6,317.5 L482.2,318.6 L479.6,319.6 L477.0,320.6 L474.3,321.4 L471.2,321.7 L466.7,322.1 L463.5,322.5 L460.8,322.7 L458.3,323.5 L456.9,324.2 L454.3,325.5 L452.1,326.3 L450.2,327.0 L447.7,327.6 L446.7,327.9 L444.9,328.2 L443.5,329.0 L442.4,329.7 L441.4,330.7 L441.1,331.5 L440.2,332.6 L438.9,333.4 L437.8,334.1 L436.5,334.5 L434.1,334.9 L430.2,335.3 L422.9,336.4 L410.8,337.6 L400.4,339.2 L380.1,342.0 L367.6,344.1 L352.8,346.8 L345.3,348.6 L340.0,349.3 L328.8,350.6 L323.6,351.1 L313.1,353.3 L297.7,355.9 L266.2,360.5 L254.4,362.0 L242.1,361.6 L231.0,361.6 L209.9,361.7 L206.8,361.7 L196.7,362.4 L173.7,363.5 L157.9,366.3 L142.0,366.3 L122.4,360.6 L109.4,357.4 L95.5,355.3 L90.2,351.6 L77.2,347.2 L66.2,342.7 L57.2,343.1 L45.8,345.9 L38.9,349.2 L40.2,362.3 L51.2,362.1 L59.4,358.1 L67.1,358.1 L77.5,359.1 L88.5,362.7 L103.8,366.6 L117.0,370.3 L137.8,376.6 L157.6,378.8 L176.9,379.9 L207.1,381.3 L220.7,381.9 L236.6,382.9 L257.6,381.9 L270.0,381.5 L280.9,381.4 L288.0,381.3 L298.0,381.7 L308.7,380.4 L319.6,380.9 Z" fill="#2e5577" stroke="none"/>
<path d="M340.8,402.4 L341.2,402.0 L342.1,401.9 L343.7,402.0 L345.5,402.1 L347.0,402.3 L348.5,402.4 L349.0,402.5 L349.4,402.6 L349.7,402.8 L350.1,403.1 L350.4,403.7 L350.5,404.2 L350.6,404.7 L350.6,405.1 L350.5,405.8 L350.4,406.5 L350.2,406.9 L350.1,407.2 L349.9,407.4 L349.6,407.7 L349.0,408.1 L348.3,408.4 L347.6,408.7 L346.9,409.0 L346.3,409.2 L345.6,409.3 L345.0,409.4 L344.2,409.5 L343.4,409.4 L342.5,409.3 L341.8,409.2 L341.5,409.1 L341.2,409.0 L340.7,408.8 L340.5,408.5 L340.3,408.2 L340.4,403.8 L340.5,403.2 L340.7,402.8 L340.8,402.4 Z" fill="#e7d6a3" stroke="none"/>
<path d="M332.8,402.5 L333.0,402.2 L333.3,402.1 L333.6,402.0 L334.1,401.9 L334.8,401.9 L335.6,402.0 L336.2,402.1 L336.8,402.2 L337.2,402.4 L337.5,402.5 L337.7,402.7 L337.8,402.9 L337.9,403.4 L338.1,407.7 L338.1,408.2 L338.0,408.6 L337.7,408.9 L337.3,409.2 L336.9,409.4 L336.5,409.4 L336.1,409.4 L335.6,409.4 L335.1,409.4 L334.1,409.3 L332.1,409.1 L331.6,409.0 L331.3,408.8 L330.8,408.5 L330.5,408.1 L330.4,407.8 L330.5,407.5 L331.6,405.0 L332.8,402.5 Z" fill="#e7d6a3" stroke="none"/>
<path d="M462.1,301.0 L462.5,300.3 L463.0,299.5 L463.5,298.5 L464.2,296.9 L465.0,294.6 L465.5,292.9 L465.6,291.6 L465.6,290.7 L465.4,289.9 L464.8,289.0 L464.1,288.3 L463.4,287.9 L462.6,287.6 L461.8,287.5 L461.2,287.5 L460.4,287.6 L459.8,287.7 L459.3,287.9 L458.6,287.9 L458.1,288.0 L457.7,288.0 L457.2,287.9 L456.6,287.6 L455.7,287.0 L454.5,286.4 L453.7,286.0 L452.9,285.9 L452.0,285.9 L451.2,286.0 L450.4,286.3 L449.8,286.9 L449.3,287.4 L448.9,288.0 L448.6,288.6 L448.5,289.3 L448.3,289.9 L448.1,290.5 L447.8,290.9 L447.3,291.3 L446.8,291.8 L446.4,292.4 L446.0,292.8 L445.8,293.4 L445.8,294.0 L445.8,294.8 L446.0,295.6 L446.2,296.2 L446.5,296.7 L446.8,297.2 L447.2,297.7 L447.7,297.9 L448.3,298.1 L448.8,298.2 L449.5,298.2 L450.3,298.1 L450.9,298.0 L451.8,297.8 L452.5,297.7 L453.1,297.7 L453.6,297.8 L454.0,298.1 L454.4,298.4 L454.8,298.9 L455.0,299.3 L455.1,299.7 L455.2,300.0 L455.4,300.7 L455.4,301.1 L455.6,301.5 L455.8,302.0 L456.0,302.3 L456.3,302.6 L456.8,302.8 L457.3,303.0 L457.9,303.1 L458.5,303.2 L459.1,303.1 L459.7,303.0 L460.3,302.9 L460.8,302.6 L461.3,302.2 L461.7,301.7 L462.1,301.0 Z" fill="#e7d6a3" stroke="none"/>
<path d="M355.8,380.9 L356.2,381.2 L356.6,381.5 L356.8,381.6 L357.2,381.8 L357.7,381.8 L358.4,381.7 L358.9,381.5 L359.6,381.2 L360.3,380.9 L361.1,380.4 L361.7,379.9 L362.2,379.5 L362.5,379.1 L362.7,378.6 L362.9,377.9 L363.0,377.3 L363.0,376.7 L363.0,376.1 L362.9,375.5 L362.6,375.0 L362.4,374.7 L362.1,374.3 L361.6,373.9 L361.0,373.6 L360.4,373.4 L359.9,373.3 L359.4,373.2 L358.8,373.2 L358.3,373.2 L357.9,373.3 L357.3,373.5 L356.9,373.7 L356.4,373.9 L356.0,374.2 L355.7,374.3 L355.3,374.5 L354.8,374.6 L354.5,374.8 L354.0,374.9 L353.6,374.9 L353.2,374.9 L352.6,374.9 L352.1,374.8 L351.5,374.8 L350.8,374.7 L350.1,374.8 L349.5,374.9 L348.9,375.0 L348.4,375.1 L347.9,375.4 L347.5,375.7 L347.1,376.0 L346.9,376.4 L346.8,376.9 L346.7,377.5 L346.6,378.0 L346.7,378.7 L346.8,379.1 L347.0,379.7 L347.3,380.2 L347.6,380.7 L348.0,381.1 L348.5,381.6 L349.0,381.9 L349.7,382.3 L350.2,382.5 L350.8,382.6 L351.3,382.6 L351.8,382.6 L352.4,382.5 L352.9,382.2 L353.2,381.8 L353.4,381.4 L353.7,380.9 L354.1,380.6 L354.5,380.4 L354.8,380.4 L355.2,380.5 L355.4,380.6 L355.8,380.9 Z" fill="#e7d6a3" stroke="none"/>
<path d="M449.6,205.7 L457.1,210.5 L443.6,231.9 L436.0,226.9 L449.6,205.7 Z" fill="#4f8a3e" stroke="none"/>
<path d="M308.4,492.9 L307.9,515.1 L299.7,514.9 L300.2,492.7 L308.4,492.9 Z" fill="#4f8a3e" stroke="none"/>
<path d="M300.1,390.0 L300.5,408.7 L310.6,408.5 L310.3,389.8 L300.1,390.0 Z" fill="#4f8a3e" stroke="none"/>
<path d="M684.5,303.4 L692.2,309.8 L702.5,297.5 L694.9,291.1 L684.5,303.4 Z" fill="#4f8a3e" stroke="none"/>
<path d="M640.2,378.2 L658.2,354.9 L667.1,361.8 L649.0,385.1 L640.2,378.2 Z" fill="#4f8a3e" stroke="none"/>
<path d="M702.9,278.5 L709.7,285.1 L719.1,275.4 L712.3,268.8 L702.9,278.5 Z" fill="#4f8a3e" stroke="none"/>
<path d="M128.5,392.4 L127.0,408.2 L135.2,409.0 L136.8,409.2 L137.8,409.3 L139.4,393.4 L128.5,392.4 Z" fill="#4f8a3e" stroke="none"/>
<path d="M459.7,215.0 L468.0,220.1 L454.2,240.9 L446.2,235.9 L459.7,215.0 Z" fill="#4f8a3e" stroke="none"/>
<path d="M102.5,536.2 L101.0,548.5 L109.4,549.5 L110.8,537.2 L102.5,536.2 Z" fill="#4f8a3e" stroke="none"/>
<path d="M121.1,450.8 L123.0,435.9 L133.4,437.3 L131.4,452.1 L121.1,450.8 Z" fill="#4f8a3e" stroke="none"/>
<path d="M120.8,478.9 L119.3,489.8 L130.5,491.3 L132.0,480.4 L120.8,478.9 Z" fill="#4f8a3e" stroke="none"/>
<path d="M780.9,311.2 L778.2,305.0 L776.9,297.0 L778.4,290.7 L782.8,286.7 L797.5,278.9 L806.8,275.8 L815.9,274.6 L822.5,276.5 L827.3,282.1 L830.2,288.8 L829.6,292.3 L826.9,296.1 L807.7,300.6 L786.0,311.6 L780.9,311.2 Z" fill="#2f7825" stroke="none"/>
<path d="M503.4,266.8 L503.6,265.6 L503.5,264.4 L503.3,262.7 L503.0,261.5 L502.2,260.6 L501.2,259.7 L499.7,258.8 L497.7,258.3 L495.4,258.2 L492.5,258.5 L488.2,259.3 L484.4,260.2 L481.3,261.2 L478.3,262.7 L475.7,264.3 L473.3,266.3 L471.4,268.0 L469.5,270.5 L467.8,272.9 L466.7,274.8 L465.9,277.1 L465.8,279.0 L465.9,281.2 L466.0,283.8 L466.6,288.2 L466.7,292.0 L466.1,295.0 L465.8,297.6 L465.8,299.8 L466.0,301.9 L466.4,303.8 L467.2,305.8 L468.6,307.6 L470.7,309.1 L472.6,309.8 L475.1,310.3 L477.5,310.5 L480.3,310.3 L482.7,309.7 L484.6,308.8 L486.2,307.5 L488.4,304.9 L489.5,302.7 L490.2,300.7 L490.7,298.2 L490.9,296.7 L491.3,295.3 L491.4,293.3 L491.9,290.1 L492.5,287.0 L493.1,284.9 L493.7,283.5 L494.2,282.4 L494.9,281.0 L496.4,278.6 L498.3,275.6 L500.3,272.6 L502.1,269.9 L502.8,268.6 L503.4,266.8 Z" fill="#2f7825" stroke="none"/>
<path d="M340.6,397.3 L343.2,397.1 L346.3,397.0 L349.3,397.2 L352.3,397.5 L355.1,397.8 L357.7,398.0 L359.8,398.1 L361.8,397.7 L364.4,397.1 L366.1,396.3 L368.3,394.7 L369.8,393.0 L371.1,391.4 L372.3,389.8 L372.9,388.4 L373.4,386.9 L373.7,385.4 L373.7,383.4 L373.2,381.8 L372.8,380.8 L372.0,379.8 L371.2,379.0 L370.1,378.6 L369.0,378.2 L367.8,378.2 L366.7,378.4 L365.5,378.8 L364.5,379.3 L363.4,380.2 L362.2,381.0 L360.9,381.6 L359.4,382.4 L357.9,382.8 L356.6,383.2 L355.3,383.4 L354.0,383.6 L352.2,383.8 L351.1,383.8 L350.1,383.8 L349.0,383.6 L348.0,383.3 L347.1,382.9 L344.9,382.3 L343.2,381.9 L341.3,381.7 L339.2,381.5 L337.3,381.7 L335.4,381.9 L333.9,382.3 L332.3,382.9 L331.0,383.6 L329.9,384.4 L328.9,385.4 L328.0,386.6 L327.6,387.8 L327.5,389.2 L327.6,390.2 L327.8,391.1 L328.1,392.1 L328.5,393.2 L329.3,394.3 L330.2,395.2 L331.2,396.0 L332.7,396.6 L334.4,397.1 L336.2,397.3 L338.3,397.5 L340.6,397.3 Z" fill="#2f7825" stroke="none"/>
<path d="M591.8,-46.2 L593.7,-46.3 L596.0,-46.8 L598.1,-48.0 L599.8,-49.1 L601.1,-50.5 L601.9,-51.9 L603.3,-55.2 L604.3,-58.7 L604.8,-61.9 L605.3,-63.7 L606.0,-65.3 L606.9,-66.7 L608.7,-69.2 L610.6,-72.4 L611.8,-74.9 L613.3,-79.1 L614.3,-82.9 L614.7,-85.7 L615.0,-88.1 L615.0,-90.5 L614.8,-91.9 L614.5,-93.6 L613.9,-95.0 L613.0,-96.3 L612.1,-97.3 L610.8,-98.4 L609.5,-99.3 L608.1,-99.7 L606.7,-100.3 L605.2,-100.4 L603.5,-100.4 L602.3,-100.3 L599.4,-99.5 L594.2,-98.2 L588.9,-96.7 L585.3,-95.6 L583.1,-94.7 L581.2,-93.4 L579.9,-92.5 L578.1,-90.8 L577.0,-89.5 L575.9,-88.1 L574.5,-86.2 L573.4,-84.3 L572.3,-81.9 L571.2,-78.7 L570.4,-75.8 L569.8,-73.1 L569.4,-70.8 L569.2,-69.1 L568.9,-66.0 L568.9,-64.4 L569.1,-62.8 L569.3,-61.6 L569.7,-60.0 L570.1,-58.5 L571.1,-56.7 L572.5,-55.2 L573.8,-54.4 L575.8,-53.6 L577.5,-52.7 L580.2,-51.5 L582.2,-50.6 L583.9,-49.5 L585.1,-48.5 L586.7,-47.4 L588.3,-46.6 L589.9,-46.2 L591.8,-46.2 Z" fill="#2f7825" stroke="none"/>
<path d="M450.3,212.8 L349.7,388.8" fill="none" stroke="#ffd64a" stroke-width="5" stroke-linecap="round" stroke-linejoin="round" opacity="0.95"/>
</svg>