<svg xmlns="http://www.w3.org/2000/svg" viewBox="0 0 800 600" preserveAspectRatio="xMidYMid slice">
<rect width="100%" height="100%" fill="#143018"/>
<path d="M429.9,428.6 L436.0,414.3 L441.4,409.2 L447.4,406.9 L451.2,408.5 L453.3,412.5 L456.5,433.1 L446.3,448.7 L444.7,454.0 L444.0,467.1 L441.1,477.7 L435.4,483.9 L429.4,486.7 L423.7,485.1 L420.3,480.2 L418.8,474.2 L426.0,446.8 L429.9,428.6 Z" fill="#2b5a2a" stroke="none"/>
<path d="M786.0,310.3 L800.9,321.3 L805.5,327.7 L797.0,351.0 L797.3,358.8 L801.2,366.6 L809.0,373.0 L822.5,391.1 L829.6,398.9 L829.6,405.2 L820.0,406.0 L795.9,388.6 L784.9,382.6 L769.7,368.0 L766.5,356.0 L765.8,341.1 L770.1,326.6 L776.4,315.3 L786.0,310.3 Z" fill="#2b5a2a" stroke="none"/>
<path d="M507.6,356.6 L515.4,362.3 L523.1,380.0 L526.7,394.1 L521.4,426.7 L517.1,440.2 L511.8,438.8 L509.3,437.0 L506.1,410.8 L500.8,393.4 L494.1,387.4 L490.2,380.3 L491.3,371.8 L507.6,356.6 Z" fill="#2b5a2a" stroke="none"/>
<path d="M467.5,534.8 L461.9,536.2 L445.2,532.0 L424.7,528.1 L418.3,523.8 L413.7,515.0 L418.3,509.6 L424.3,507.2 L434.9,508.9 L463.3,519.6 L467.2,529.5 L467.5,534.8 Z" fill="#2b5a2a" stroke="none"/>
<path d="M470.0,519.9 L473.9,533.0 L486.7,527.7 L500.1,518.8 L509.7,506.4 L516.1,491.6 L524.2,481.3 L526.3,474.2 L517.5,448.0 L510.0,447.3 L504.4,452.2 L502.6,469.6 L495.5,469.6 L487.0,473.1 L481.7,485.2 L481.0,495.8 L476.0,517.1 L470.0,519.9 Z" fill="#2b5a2a" stroke="none"/>
<path d="M533.8,16.1 L516.9,12.4 L509.5,12.0 L502.1,1.7 L489.4,-11.5 L482.8,-15.6 L493.9,-24.6 L502.5,-27.5 L510.3,-28.3 L534.6,-34.9 L546.6,-32.0 L554.4,-25.9 L558.1,-11.9 L569.2,13.2 L556.8,7.5 L551.1,9.9 L540.0,9.1 L533.8,16.1 Z" fill="#2b5a2a" stroke="none"/>
<path d="M492.2,-79.3 L490.4,-78.1 L490.2,-76.0 L490.6,-74.0 L492.6,-73.2 L495.0,-73.5 L496.6,-74.5 L497.5,-75.5 L497.8,-76.8 L497.5,-78.1 L496.6,-78.8 L493.4,-79.7 L492.2,-79.3 Z" fill="#e7d6a3" stroke="none"/>
<path d="M643.9,294.5 L649.1,301.9 L648.9,305.1 L646.9,307.7 L644.5,306.9 L642.9,306.8 L635.9,316.5 L636.6,324.7 L637.6,326.3 L640.7,327.4 L645.6,327.9 L646.4,326.1 L646.9,323.2 L649.1,321.3 L653.9,322.5 L655.3,320.2 L655.8,315.9 L654.2,314.5 L653.1,311.5 L654.7,302.9 L658.0,295.5 L657.6,292.8 L655.8,290.9 L653.1,289.2 L653.3,285.9 L647.5,282.0 L643.6,281.8 L641.5,284.2 L640.1,285.1 L638.2,285.1 L637.7,285.9 L638.7,287.5 L640.7,288.3 L641.9,289.2 L643.2,291.4 L643.9,294.5 Z" fill="#e7d6a3" stroke="none"/>
<path d="M606.6,370.6 L610.5,373.8 L610.2,377.2 L608.4,377.8 L603.2,375.2 L601.9,374.9 L602.5,373.4 L602.7,372.0 L602.2,370.7 L603.3,369.4 L606.0,369.4 L606.6,370.6 Z" fill="#e7d6a3" stroke="none"/>
<path d="M615.7,368.9 L615.6,370.2 L615.2,371.3 L615.3,372.5 L614.8,374.0 L615.7,375.6 L623.2,378.0 L631.4,376.5 L632.3,375.2 L631.9,373.6 L632.3,372.0 L631.0,371.2 L629.2,371.7 L627.5,371.7 L624.6,370.4 L624.1,369.7 L623.8,368.5 L623.0,369.0 L619.7,367.8 L619.0,367.3 L617.8,367.8 L616.3,367.9 L615.7,368.9 Z" fill="#e7d6a3" stroke="none"/>
<path d="M649.6,410.3 L648.9,411.7 L646.7,413.6 L646.4,414.9 L646.8,416.0 L647.9,416.5 L649.1,416.6 L654.2,420.5 L655.9,421.0 L656.9,421.0 L657.8,420.5 L658.3,418.6 L658.3,417.3 L658.7,416.0 L657.6,414.7 L655.5,413.9 L653.8,411.3 L652.9,410.8 L650.9,410.0 L649.6,410.3 Z" fill="#e7d6a3" stroke="none"/>
<path d="M669.9,424.4 L669.7,422.0 L666.0,412.7 L666.3,411.3 L662.8,411.0 L661.8,409.8 L659.5,408.9 L658.6,409.6 L657.6,411.6 L658.2,413.0 L660.9,413.7 L660.4,414.4 L660.1,416.9 L660.6,417.9 L660.5,422.7 L661.7,424.6 L665.5,426.6 L666.9,426.5 L667.9,425.3 L669.9,424.4 Z" fill="#e7d6a3" stroke="none"/>
<path d="M635.1,430.7 L632.7,430.6 L631.5,430.7 L630.9,432.4 L631.5,433.7 L632.8,434.6 L632.1,435.3 L632.0,436.8 L631.6,438.2 L632.0,439.9 L631.9,441.2 L632.7,442.3 L633.1,443.2 L633.8,442.8 L635.1,443.1 L635.7,441.9 L636.9,440.5 L638.4,437.6 L638.4,435.8 L638.6,434.2 L638.2,432.2 L637.1,430.6 L635.1,430.7 Z" fill="#e7d6a3" stroke="none"/>
<path d="M585.0,471.4 L583.9,476.6 L582.7,478.4 L583.5,480.5 L585.3,480.6 L588.0,481.7 L588.6,480.5 L590.2,480.0 L592.4,477.1 L593.3,471.8 L593.2,470.7 L591.9,470.1 L590.6,469.0 L588.6,468.2 L588.0,469.6 L585.6,470.4 L585.0,471.4 Z" fill="#e7d6a3" stroke="none"/>
<path d="M648.5,475.0 L647.9,477.3 L647.9,479.6 L648.8,481.8 L649.3,483.9 L648.9,485.3 L649.6,487.7 L650.7,489.1 L653.4,489.3 L655.2,488.4 L655.9,485.8 L656.8,484.2 L657.3,482.2 L657.1,480.4 L655.7,478.6 L653.8,477.5 L652.7,475.7 L650.0,474.7 L648.5,475.0 Z" fill="#e7d6a3" stroke="none"/>
<path d="M491.7,40.5 L492.1,42.7 L492.6,43.8 L493.8,44.4 L496.2,46.3 L497.6,46.6 L498.8,46.3 L500.6,44.3 L501.1,41.9 L498.0,38.0 L497.5,36.9 L496.7,36.2 L496.1,36.6 L494.2,36.7 L491.5,38.1 L491.9,39.5 L491.7,40.5 Z" fill="#e7d6a3" stroke="none"/>
<path d="M367.0,465.0 L367.1,466.8 L368.0,467.6 L369.3,467.8 L370.3,467.8 L370.8,466.8 L370.7,465.2 L370.1,464.1 L369.3,463.6 L367.0,465.0 Z" fill="#e7d6a3" stroke="none"/>
<path d="M392.0,443.9 L391.8,445.3 L392.6,446.9 L393.6,447.7 L395.2,447.1 L396.3,446.2 L399.3,446.0 L400.4,445.4 L401.0,444.3 L401.0,442.8 L400.1,441.5 L398.9,440.6 L396.9,440.3 L395.2,440.5 L392.0,443.9 Z" fill="#e7d6a3" stroke="none"/>
<path d="M398.4,403.6 L398.5,405.9 L397.6,407.7 L396.2,408.8 L394.0,408.8 L393.2,406.8 L393.0,404.6 L391.8,403.1 L390.6,402.1 L389.7,401.6 L388.3,401.7 L387.3,401.4 L387.3,400.3 L392.4,397.5 L393.4,396.6 L394.7,396.6 L396.0,398.0 L398.4,403.6 Z" fill="#e7d6a3" stroke="none"/>
<path d="M386.8,363.6 L383.9,365.3 L381.1,366.0 L380.1,364.3 L379.5,362.9 L377.2,361.5 L373.0,361.7 L370.8,362.6 L371.2,369.5 L369.8,371.1 L368.6,371.7 L368.6,372.8 L368.2,374.1 L371.6,374.1 L372.0,373.1 L373.3,373.0 L374.4,373.8 L375.8,374.5 L375.2,376.4 L375.7,377.3 L376.5,376.1 L378.4,376.1 L379.2,376.9 L379.5,377.9 L380.7,376.7 L382.3,375.8 L384.6,375.6 L384.4,374.6 L385.5,374.4 L386.2,374.8 L386.3,373.1 L389.0,370.9 L389.6,369.0 L389.6,365.5 L389.9,363.6 L386.8,363.6 Z" fill="#e7d6a3" stroke="none"/>
<path d="M408.6,340.1 L406.8,341.2 L406.2,342.5 L404.2,343.6 L404.5,344.9 L405.8,345.8 L407.1,346.3 L407.1,348.2 L407.6,349.1 L409.4,349.3 L412.4,350.9 L413.3,349.9 L414.1,348.3 L415.2,348.5 L416.0,349.3 L416.2,350.4 L417.4,351.1 L418.2,350.6 L418.4,349.1 L419.8,348.8 L422.0,349.5 L423.4,347.4 L423.1,345.5 L425.6,343.7 L425.0,342.3 L424.7,340.6 L426.7,337.9 L428.2,337.1 L426.6,336.9 L427.0,336.0 L425.0,335.2 L426.3,334.3 L427.6,334.3 L427.2,333.2 L428.2,330.7 L430.2,329.9 L432.4,329.9 L433.8,330.6 L435.1,330.2 L433.8,328.7 L435.1,328.0 L436.7,328.1 L437.7,329.1 L438.6,329.6 L439.3,328.6 L440.0,328.7 L439.9,327.4 L438.8,326.4 L436.3,326.5 L435.4,326.7 L433.0,326.5 L428.6,327.1 L427.2,327.7 L425.8,329.0 L425.0,330.9 L424.6,332.5 L422.0,336.9 L421.5,342.0 L420.1,343.5 L417.9,343.6 L416.7,342.6 L416.5,340.7 L414.6,340.0 L411.4,339.7 L408.6,340.1 Z" fill="#e7d6a3" stroke="none"/>
<path d="M396.4,345.7 L393.3,352.7 L393.1,354.8 L393.8,357.1 L395.5,359.2 L396.2,357.9 L396.4,355.9 L395.5,353.9 L396.1,352.9 L396.0,351.3 L397.5,350.4 L398.6,350.6 L399.0,349.2 L399.0,346.8 L399.6,345.2 L401.2,342.9 L403.1,342.0 L403.3,340.7 L401.9,340.7 L399.7,341.4 L397.5,343.0 L397.1,345.0 L396.4,345.7 Z" fill="#e7d6a3" stroke="none"/>
<path d="M665.4,594.4 L666.1,597.6 L668.5,601.9 L668.8,603.5 L670.1,604.1 L672.2,604.0 L673.4,602.8 L674.4,600.1 L673.7,598.6 L673.1,596.2 L669.8,589.0 L670.1,587.6 L668.8,586.9 L667.6,587.8 L665.7,590.5 L665.4,594.4 Z" fill="#e7d6a3" stroke="none"/>
<path d="M652.8,577.9 L652.2,580.6 L652.4,583.2 L653.7,586.7 L659.1,589.7 L660.4,589.6 L660.7,588.3 L660.3,587.1 L660.2,585.7 L659.3,585.0 L658.2,583.4 L658.2,581.6 L657.9,580.0 L657.4,579.0 L658.3,577.7 L659.1,577.5 L659.1,574.7 L657.6,574.4 L654.0,575.1 L652.9,575.9 L652.8,577.9 Z" fill="#e7d6a3" stroke="none"/>
<path d="M604.3,-35.1 L601.2,-29.7 L599.1,-23.5 L606.0,-1.5 L607.3,7.1 L606.5,17.3 L608.8,22.1 L613.6,24.6 L620.1,24.9 L625.6,22.0 L627.4,17.6 L626.8,12.2 L618.4,0.2 L617.4,-6.8 L617.7,-13.2 L615.7,-21.1 L616.3,-32.2 L613.7,-36.0 L611.0,-37.2 L607.0,-37.1 L604.3,-35.1 Z" fill="#4f8a3e" stroke="none"/>
<path d="M612.1,38.9 L607.0,42.4 L605.4,47.8 L608.5,53.8 L614.8,58.1 L620.8,58.3 L624.6,56.1 L626.1,51.2 L624.6,44.7 L622.6,40.9 L619.0,39.3 L612.1,38.9 Z" fill="#4f8a3e" stroke="none"/>
<path d="M589.0,283.1 L590.0,278.4 L589.4,273.9 L575.6,247.4 L578.5,240.9 L582.8,235.6 L585.8,230.0 L585.7,220.8 L583.1,213.9 L577.1,209.1 L568.6,206.7 L562.4,208.1 L558.2,207.1 L555.0,207.9 L553.6,212.1 L555.2,225.6 L565.7,245.9 L565.4,250.0 L566.2,254.0 L568.1,258.2 L573.0,265.6 L573.8,269.5 L572.7,274.2 L573.8,280.7 L578.0,285.6 L582.9,287.5 L587.0,286.1 L589.0,283.1 Z" fill="#4f8a3e" stroke="none"/>
<path d="M559.9,165.3 L555.7,171.8 L557.0,181.4 L561.1,187.8 L567.5,190.2 L574.7,188.0 L578.2,183.0 L578.4,177.1 L576.8,172.3 L573.3,167.7 L567.1,164.3 L564.9,163.0 L559.9,165.3 Z" fill="#4f8a3e" stroke="none"/>
<path d="M551.5,128.0 L548.2,133.2 L547.7,138.4 L550.0,145.5 L554.7,151.8 L557.2,156.9 L559.9,159.8 L564.7,159.4 L569.5,156.2 L572.2,151.1 L571.8,145.2 L557.5,127.6 L553.6,126.9 L551.5,128.0 Z" fill="#4f8a3e" stroke="none"/>
<path d="M409.2,40.4 L407.2,42.6 L405.9,45.7 L405.7,48.6 L406.6,51.1 L408.2,52.7 L410.1,53.4 L412.7,53.4 L414.8,51.7 L416.3,49.2 L416.4,46.6 L415.7,44.0 L414.5,41.9 L412.2,40.4 L409.2,40.4 Z" fill="#4f8a3e" stroke="none"/>
<path d="M404.9,63.9 L402.8,67.3 L401.8,73.2 L402.3,93.7 L404.6,103.2 L404.1,110.3 L401.0,114.1 L397.2,116.5 L394.5,121.7 L394.3,127.6 L397.0,134.4 L402.1,138.2 L405.3,142.0 L409.6,144.5 L414.7,144.5 L417.6,143.1 L420.5,139.1 L422.1,131.9 L422.4,124.9 L416.5,106.1 L419.2,81.6 L419.4,72.6 L418.0,67.2 L414.6,63.2 L410.9,61.8 L407.6,62.2 L404.9,63.9 Z" fill="#4f8a3e" stroke="none"/>
<path d="M393.2,143.9 L391.5,147.4 L392.8,154.8 L396.9,161.9 L401.0,166.0 L406.9,167.1 L412.4,164.5 L414.6,159.9 L413.6,155.0 L410.4,152.3 L407.0,150.3 L401.7,144.3 L399.7,142.7 L395.9,142.3 L393.2,143.9 Z" fill="#4f8a3e" stroke="none"/>
<path d="M404.2,190.7 L401.2,192.2 L399.6,195.3 L400.2,199.7 L402.5,203.2 L406.9,205.1 L411.8,204.1 L414.9,201.4 L415.5,197.7 L414.4,194.0 L411.2,191.3 L407.5,190.1 L404.2,190.7 Z" fill="#4f8a3e" stroke="none"/>
<path d="M411.2,606.6 L408.6,608.0 L406.9,611.3 L407.2,614.7 L410.2,619.2 L422.1,623.6 L426.0,623.2 L429.5,620.1 L430.3,616.7 L429.6,612.9 L427.4,610.1 L424.4,608.7 L411.2,606.6 Z" fill="#4f8a3e" stroke="none"/>
<path d="M429.8,581.5 L429.7,575.9 L425.5,571.4 L419.6,570.4 L415.5,572.9 L413.9,576.9 L414.5,580.8 L416.4,583.7 L419.4,585.7 L423.2,586.2 L426.8,584.6 L429.8,581.5 Z" fill="#4f8a3e" stroke="none"/>
<path d="M370.8,565.2 L382.1,564.2 L385.5,561.4 L387.0,556.6 L385.8,550.9 L382.5,547.3 L370.0,543.0 L364.8,544.6 L361.4,549.4 L360.6,553.1 L360.9,556.4 L366.6,563.4 L370.8,565.2 Z" fill="#4f8a3e" stroke="none"/>
<path d="M348.8,524.8 L345.5,524.4 L343.0,525.9 L343.3,529.2 L344.6,532.8 L347.9,537.2 L352.3,540.3 L353.3,540.7 L354.6,541.2 L359.2,540.4 L362.8,538.0 L363.8,535.3 L363.1,531.9 L360.9,529.4 L348.8,524.8 Z" fill="#4f8a3e" stroke="none"/>
<path d="M342.2,518.5 L345.4,517.5 L346.7,514.9 L346.5,512.2 L344.6,509.6 L341.9,508.2 L339.4,507.7 L336.5,508.3 L335.1,510.0 L334.7,511.7 L335.5,514.1 L337.1,516.3 L339.0,517.9 L342.2,518.5 Z" fill="#4f8a3e" stroke="none"/>
<path d="M469.4,-96.7 L464.0,-94.2 L460.5,-88.5 L460.1,-66.9 L457.9,-62.0 L456.8,-54.5 L459.9,-48.1 L466.9,-45.0 L474.0,-44.4 L479.2,-46.6 L483.0,-52.6 L486.3,-62.4 L487.9,-75.8 L489.6,-80.8 L496.8,-85.9 L499.9,-90.7 L499.2,-96.7 L495.6,-100.5 L488.9,-101.6 L485.2,-100.2 L481.2,-97.4 L478.1,-96.0 L474.0,-97.2 L469.4,-96.7 Z" fill="#2f7825" stroke="none"/>
<path d="M593.0,316.5 L607.2,305.9 L611.0,298.7 L612.5,291.9 L624.0,280.2 L630.5,280.7 L636.0,286.7 L640.3,294.8 L639.9,303.5 L637.2,311.7 L616.1,335.6 L612.3,338.0 L603.0,339.1 L595.4,336.4 L590.7,330.5 L589.6,325.3 L590.4,320.1 L593.0,316.5 Z" fill="#2f7825" stroke="none"/>
<path d="M459.5,13.0 L455.5,21.7 L454.3,30.6 L455.4,38.3 L475.7,64.1 L478.9,63.7 L481.8,62.4 L482.9,56.3 L482.9,44.7 L486.0,31.7 L485.9,27.5 L484.6,22.2 L482.0,17.5 L478.0,13.3 L472.1,9.8 L467.6,9.2 L463.0,10.5 L459.5,13.0 Z" fill="#2f7825" stroke="none"/>
<path d="M336.5,449.0 L333.8,451.6 L330.7,456.1 L330.1,462.1 L331.4,481.8 L333.1,489.8 L336.9,494.1 L342.3,495.8 L362.9,494.8 L371.0,492.7 L375.1,487.7 L376.0,481.6 L374.6,475.2 L367.9,471.0 L365.7,468.4 L365.7,464.8 L366.5,460.3 L366.5,457.0 L365.2,452.9 L361.8,449.5 L357.8,448.2 L348.8,448.9 L342.0,448.1 L336.5,449.0 Z" fill="#2f7825" stroke="none"/>
<path d="M410.4,46.3 L438.2,380.9 L349.1,472.8" fill="none" stroke="#ffd64a" stroke-width="5" stroke-linecap="round" stroke-linejoin="round" opacity="0.95"/>
</svg>