<svg xmlns="http://www.w3.org/2000/svg" viewBox="0 0 412 800" preserveAspectRatio="xMidYMid meet">
<rect width="100%" height="100%" fill="#143018"/>
<path d="M258.1,643.6 L266.9,623.0 L274.6,615.6 L283.4,612.4 L288.8,614.6 L291.8,620.4 L296.5,650.1 L281.8,672.5 L279.5,680.2 L278.4,699.1 L274.3,714.4 L266.0,723.2 L257.5,727.4 L249.2,725.0 L244.3,717.9 L242.2,709.3 L252.5,669.9 L258.1,643.6 Z" fill="#2b5a2a" stroke="none"/>
<path d="M370.0,539.8 L381.3,548.0 L392.5,573.5 L397.6,593.9 L390.0,640.9 L383.8,660.3 L376.2,658.3 L372.6,655.7 L368.0,617.9 L360.3,592.9 L350.7,584.3 L345.0,574.0 L346.6,561.8 L370.0,539.8 Z" fill="#2b5a2a" stroke="none"/>
<path d="M312.4,796.6 L304.2,798.7 L280.2,792.5 L250.6,786.9 L241.4,780.8 L234.8,768.1 L241.4,760.4 L250.1,756.8 L265.4,759.4 L306.2,774.7 L311.8,789.0 L312.4,796.6 Z" fill="#2b5a2a" stroke="none"/>
<path d="M315.9,775.2 L321.5,794.1 L339.9,786.4 L359.3,773.7 L373.1,755.8 L382.3,734.3 L394.0,719.5 L397.1,709.3 L384.3,671.5 L373.6,670.5 L365.4,677.7 L362.9,702.7 L352.7,702.7 L340.4,707.8 L332.8,725.2 L331.8,740.5 L324.6,771.1 L315.9,775.2 Z" fill="#2b5a2a" stroke="none"/>
<path d="M407.9,49.2 L383.5,43.8 L372.9,43.2 L362.2,28.4 L343.8,9.4 L334.3,3.5 L350.3,-9.6 L362.8,-13.7 L374.1,-14.9 L409.1,-24.4 L426.2,-20.2 L437.5,-11.3 L442.8,8.8 L458.9,45.0 L441.1,36.7 L432.8,40.3 L416.7,39.1 L407.9,49.2 Z" fill="#2b5a2a" stroke="none"/>
<path d="M230.0,92.6 L270.0,574.8 L141.7,707.4" fill="none" stroke="#4e8b39" stroke-width="72.1" stroke-linecap="round" stroke-linejoin="round" opacity="0.85"/>
<path d="M347.2,84.3 L347.8,87.5 L348.5,89.1 L350.3,89.9 L353.6,92.7 L355.7,93.1 L357.5,92.7 L360.0,89.7 L360.8,86.3 L356.2,80.7 L355.5,79.0 L354.4,78.1 L353.5,78.7 L350.8,78.8 L346.8,80.9 L347.4,82.9 L347.2,84.3 Z" fill="#e7d6a3" stroke="none"/>
<path d="M167.4,696.1 L167.6,698.6 L169.0,699.8 L170.7,700.2 L172.3,700.2 L172.9,698.6 L172.8,696.3 L172.0,694.7 L170.7,694.1 L167.4,696.1 Z" fill="#e7d6a3" stroke="none"/>
<path d="M203.5,665.6 L203.3,667.7 L204.4,669.9 L205.9,671.1 L208.2,670.3 L209.7,668.9 L214.1,668.7 L215.6,667.8 L216.5,666.2 L216.5,664.1 L215.2,662.1 L213.5,660.9 L210.6,660.4 L208.2,660.8 L203.5,665.6 Z" fill="#e7d6a3" stroke="none"/>
<path d="M212.8,607.5 L212.9,610.9 L211.6,613.5 L209.5,615.1 L206.4,615.0 L205.3,612.1 L204.9,609.1 L203.3,606.9 L201.5,605.3 L200.1,604.7 L198.1,604.9 L196.7,604.4 L196.7,602.8 L204.1,598.7 L205.5,597.5 L207.4,597.5 L209.3,599.5 L212.8,607.5 Z" fill="#e7d6a3" stroke="none"/>
<path d="M196.0,549.9 L191.8,552.4 L187.9,553.3 L186.3,550.9 L185.6,548.9 L182.2,546.8 L176.1,547.2 L173.0,548.5 L173.5,558.4 L171.6,560.7 L169.8,561.6 L169.8,563.3 L169.2,565.1 L174.1,565.1 L174.6,563.6 L176.6,563.5 L178.2,564.7 L180.1,565.7 L179.3,568.4 L180.0,569.7 L181.1,568.0 L183.9,568.0 L185.0,569.1 L185.6,570.5 L187.2,568.8 L189.5,567.5 L192.8,567.2 L192.5,565.8 L194.1,565.4 L195.1,566.0 L195.4,563.6 L199.2,560.5 L200.0,557.7 L200.0,552.7 L200.5,549.9 L196.0,549.9 Z" fill="#e7d6a3" stroke="none"/>
<path d="M227.4,516.1 L224.9,517.6 L223.9,519.5 L221.0,521.2 L221.6,522.9 L223.5,524.2 L225.2,525.0 L225.3,527.8 L226.0,529.0 L228.5,529.3 L232.9,531.6 L234.1,530.2 L235.4,527.9 L236.9,528.2 L238.1,529.3 L238.3,531.0 L240.1,531.9 L241.3,531.2 L241.5,529.1 L243.6,528.7 L246.8,529.6 L248.8,526.6 L248.4,523.8 L252.0,521.3 L251.1,519.3 L250.7,516.8 L253.5,512.9 L255.6,511.7 L253.4,511.5 L254.0,510.1 L251.0,509.0 L253.0,507.7 L254.9,507.7 L254.2,506.2 L255.6,502.5 L258.5,501.3 L261.7,501.3 L263.8,502.3 L265.7,501.8 L263.8,499.7 L265.6,498.7 L267.9,498.8 L269.3,500.2 L270.6,500.9 L271.6,499.5 L272.7,499.6 L272.5,497.8 L271.0,496.4 L267.3,496.5 L266.0,496.8 L262.6,496.5 L256.2,497.3 L254.2,498.1 L252.2,500.1 L251.0,502.8 L250.6,505.1 L246.7,511.5 L246.0,518.9 L244.0,520.9 L240.9,521.0 L239.1,519.7 L238.8,517.0 L236.0,515.9 L231.5,515.5 L227.4,516.1 Z" fill="#e7d6a3" stroke="none"/>
<path d="M209.9,524.1 L205.4,534.2 L205.1,537.2 L206.2,540.6 L208.6,543.5 L209.6,541.7 L209.9,538.8 L208.6,535.9 L209.5,534.5 L209.2,532.2 L211.5,530.8 L213.0,531.2 L213.7,529.2 L213.5,525.7 L214.4,523.4 L216.7,520.1 L219.5,518.7 L219.8,516.9 L217.8,516.9 L214.5,518.0 L211.5,520.3 L210.9,523.1 L209.9,524.1 Z" fill="#e7d6a3" stroke="none"/>
<path d="M487.4,433.9 L488.8,427.2 L487.9,420.7 L468.1,382.4 L472.3,373.1 L478.5,365.4 L482.9,357.4 L482.7,344.2 L478.8,334.2 L470.2,327.3 L458.0,323.9 L449.0,325.8 L443.1,324.5 L438.5,325.6 L436.4,331.5 L438.7,351.1 L453.8,380.3 L453.4,386.2 L454.6,392.0 L457.2,398.1 L464.3,408.6 L465.5,414.4 L463.9,421.1 L465.5,430.4 L471.6,437.5 L478.6,440.2 L484.6,438.3 L487.4,433.9 Z" fill="#4f8a3e" stroke="none"/>
<path d="M445.4,264.2 L439.5,273.5 L441.3,287.4 L447.2,296.6 L456.4,300.0 L466.8,296.9 L471.9,289.7 L472.2,281.2 L469.9,274.2 L464.7,267.6 L455.9,262.7 L452.6,260.9 L445.4,264.2 Z" fill="#4f8a3e" stroke="none"/>
<path d="M433.3,210.4 L428.7,217.9 L427.9,225.3 L431.3,235.6 L437.9,244.7 L441.6,252.1 L445.4,256.2 L452.4,255.7 L459.3,251.1 L463.2,243.6 L462.7,235.1 L442.1,209.9 L436.4,208.9 L433.3,210.4 Z" fill="#4f8a3e" stroke="none"/>
<path d="M228.2,84.1 L225.4,87.3 L223.5,91.8 L223.3,96.0 L224.5,99.5 L226.8,101.9 L229.6,102.9 L233.3,102.8 L236.4,100.4 L238.5,96.8 L238.7,93.0 L237.7,89.3 L236.0,86.3 L232.5,84.2 L228.2,84.1 Z" fill="#4f8a3e" stroke="none"/>
<path d="M222.1,118.0 L219.0,122.9 L217.7,131.4 L218.4,160.9 L221.7,174.7 L221.0,185.0 L216.5,190.4 L211.1,193.9 L207.2,201.3 L206.8,209.8 L210.7,219.7 L218.0,225.1 L222.7,230.6 L228.9,234.2 L236.3,234.2 L240.3,232.1 L244.6,226.5 L246.9,216.0 L247.3,205.9 L238.7,178.9 L242.7,143.5 L242.9,130.6 L240.9,122.8 L236.1,117.0 L230.7,115.0 L226.0,115.6 L222.1,118.0 Z" fill="#4f8a3e" stroke="none"/>
<path d="M205.3,233.3 L202.8,238.4 L204.6,249.0 L210.5,259.3 L216.4,265.2 L225.0,266.7 L232.9,263.0 L236.1,256.4 L234.6,249.3 L230.1,245.5 L225.2,242.6 L217.4,233.8 L214.6,231.7 L209.2,231.0 L205.3,233.3 Z" fill="#4f8a3e" stroke="none"/>
<path d="M221.2,300.7 L216.8,302.9 L214.4,307.4 L215.3,313.7 L218.6,318.7 L225.0,321.6 L232.1,320.1 L236.5,316.2 L237.3,310.8 L235.8,305.6 L231.2,301.6 L225.9,299.9 L221.2,300.7 Z" fill="#4f8a3e" stroke="none"/>
<path d="M258.0,864.0 L257.8,855.8 L251.8,849.4 L243.3,847.9 L237.3,851.6 L235.0,857.3 L235.9,863.0 L238.7,867.1 L243.0,870.0 L248.5,870.7 L253.7,868.4 L258.0,864.0 Z" fill="#4f8a3e" stroke="none"/>
<path d="M173.0,840.4 L189.2,839.0 L194.1,835.0 L196.3,828.0 L194.5,819.8 L189.8,814.7 L171.8,808.4 L164.3,810.8 L159.4,817.6 L158.3,823.1 L158.7,827.7 L166.9,837.8 L173.0,840.4 Z" fill="#4f8a3e" stroke="none"/>
<path d="M141.3,782.3 L136.5,781.7 L132.9,783.9 L133.4,788.5 L135.1,793.8 L140.0,800.1 L146.3,804.6 L147.7,805.1 L149.6,805.8 L156.2,804.8 L161.5,801.3 L162.9,797.3 L161.9,792.5 L158.7,788.8 L141.3,782.3 Z" fill="#4f8a3e" stroke="none"/>
<path d="M131.7,773.2 L136.3,771.8 L138.3,768.0 L137.9,764.1 L135.1,760.3 L131.3,758.4 L127.7,757.6 L123.6,758.5 L121.5,760.9 L120.9,763.3 L122.1,766.8 L124.3,769.9 L127.2,772.3 L131.7,773.2 Z" fill="#4f8a3e" stroke="none"/>
<path d="M315.0,-113.4 L307.3,-109.8 L302.2,-101.6 L301.6,-70.5 L298.5,-63.4 L296.9,-52.6 L301.4,-43.4 L311.5,-38.8 L321.7,-38.0 L329.2,-41.2 L334.7,-49.9 L339.4,-64.0 L341.8,-83.3 L344.1,-90.6 L354.5,-97.9 L359.0,-104.7 L358.1,-113.4 L352.8,-118.9 L343.1,-120.5 L337.8,-118.5 L332.1,-114.4 L327.6,-112.4 L321.7,-114.2 L315.0,-113.4 Z" fill="#2f7825" stroke="none"/>
<path d="M300.8,44.6 L295.0,57.2 L293.3,70.0 L294.8,81.1 L324.1,118.3 L328.7,117.8 L332.9,115.8 L334.6,107.1 L334.6,90.4 L339.0,71.6 L338.9,65.6 L337.0,58.0 L333.1,51.1 L327.5,45.1 L318.9,40.1 L312.4,39.3 L305.8,41.0 L300.8,44.6 Z" fill="#2f7825" stroke="none"/>
<path d="M123.5,673.1 L119.7,676.8 L115.2,683.2 L114.2,691.9 L116.2,720.2 L118.7,731.8 L124.1,738.0 L131.9,740.4 L161.6,739.0 L173.2,735.9 L179.2,728.7 L180.4,720.0 L178.4,710.7 L168.7,704.7 L165.6,701.0 L165.6,695.7 L166.8,689.4 L166.8,684.5 L164.9,678.7 L160.0,673.7 L154.2,671.9 L141.2,672.9 L131.5,671.7 L123.5,673.1 Z" fill="#2f7825" stroke="none"/>
<path d="M230.0,92.6 L270.0,574.8 L141.7,707.4" fill="none" stroke="#ffd64a" stroke-width="3.5" stroke-linecap="round" stroke-linejoin="round" opacity="0.95"/>
</svg>