<svg xmlns="http://www.w3.org/2000/svg" viewBox="0 0 318 800" preserveAspectRatio="xMidYMid meet">
<rect width="100%" height="100%" fill="#143018"/>
<path d="M334.0,174.0 L410.2,242.4 L421.4,232.6 L482.6,59.3 L417.3,-46.4 L403.0,-31.1 L321.5,152.0 L334.0,174.0 Z" fill="#0f2810" stroke="none"/>
<path d="M313.4,-160.1 L336.1,-188.3 L273.2,-255.9 L215.2,-168.5 L228.9,-145.7 L234.4,-125.6 L260.0,-92.1 L255.4,-29.8 L240.9,0.6 L259.9,63.5 L260.5,101.2 L251.7,166.3 L282.7,420.0 L365.3,416.5 L388.2,276.1 L276.5,240.5 L258.5,163.4 L313.4,-160.1 Z" fill="#0f2810" stroke="none"/>
<path d="M-30.6,536.5 L125.5,323.9 L119.5,318.0 L119.5,307.8 L122.5,294.7 L124.3,281.0 L124.9,266.7 L126.6,238.8 L123.7,227.4 L121.3,211.4 L117.7,196.5 L115.9,186.3 L112.4,176.2 L104.6,167.9 L96.3,163.1 L86.1,159.5 L77.8,157.2 L71.3,160.1 L63.5,167.3 L55.8,180.4 L51.6,192.9 L45.1,200.0 L37.9,191.7 L28.4,188.7 L18.3,188.1 L8.7,198.9 L14.1,204.8 L13.5,215.5 L21.2,228.6 L31.4,232.2 L36.1,241.7 L36.1,251.9 L26.0,260.8 L15.9,266.1 L6.3,273.3 L-2.0,281.6 L-5.0,290.6 L-5.0,303.7 L-3.8,316.8 L-8.0,324.9 L-14.8,342.9 L-16.5,363.3 L-19.4,384.2 L-21.5,399.4 L-30.0,401.9 L-29.8,413.2 L-29.2,427.4 L-44.3,438.9 L-49.0,451.4 L-45.2,467.9 L-39.3,470.2 L-36.6,479.7 L-35.5,485.4 L-37.0,490.2 L-41.7,493.1 L-48.3,491.6 L-54.1,489.1 L-51.1,504.8 L-41.3,517.8 L-30.6,536.5 Z" fill="#2b5a2a" stroke="none"/>
<path d="M-575.0,1404.1 L-583.9,1406.8 L-589.9,1405.6 L-595.1,1404.3 L-601.4,1399.2 L-610.1,1399.1 L-614.9,1403.5 L-620.5,1401.2 L-622.6,1392.2 L-624.7,1384.2 L-626.8,1380.0 L-630.4,1377.9 L-637.2,1379.4 L-631.3,1358.6 L-625.6,1339.2 L-620.2,1327.0 L-614.6,1319.3 L-609.2,1314.5 L-604.5,1305.6 L-598.5,1303.2 L-591.9,1301.1 L-582.7,1296.9 L-575.6,1292.2 L-564.2,1286.2 L-561.0,1282.6 L-559.5,1275.5 L-557.4,1263.6 L-557.4,1256.1 L-555.6,1246.6 L-552.3,1239.7 L-547.0,1232.9 L-536.3,1225.5 L-530.0,1217.4 L-525.5,1209.1 L-518.4,1202.8 L-509.8,1197.5 L-504.4,1193.9 L-496.4,1193.6 L-490.1,1190.9 L-483.9,1187.3 L-477.6,1181.4 L-474.0,1175.1 L-466.3,1167.4 L-459.4,1163.8 L-452.9,1162.0 L-444.5,1159.6 L-437.4,1154.3 L-432.3,1148.0 L-431.1,1139.7 L-430.8,1134.0 L-431.7,1130.1 L-441.3,1126.0 L-446.3,1122.4 L-446.9,1114.4 L-444.2,1107.2 L-442.8,1101.0 L-438.9,1095.9 L-430.5,1094.1 L-421.9,1090.8 L-418.3,1089.1 L-411.5,1086.7 L-406.1,1080.4 L-403.1,1073.3 L-402.8,1064.3 L-404.6,1058.4 L-408.8,1053.3 L-412.1,1050.0 L-416.3,1045.9 L-418.3,1039.3 L-424.0,1031.3 L-430.2,1029.2 L-437.7,1027.7 L-418.9,1017.9 L-416.5,1028.3 L-413.6,1035.2 L-409.1,1036.6 L-403.4,1035.8 L-395.4,1038.4 L-392.1,1040.8 L-384.4,1041.1 L-379.6,1039.9 L-375.4,1036.6 L-374.0,1031.6 L-370.4,1022.4 L-372.2,1009.5 L-371.3,1003.3 L-375.4,998.5 L-378.7,994.3 L-382.0,986.3 L-378.1,978.6 L-372.2,971.1 L-363.2,966.7 L-352.8,961.3 L-344.2,959.2 L-335.8,956.5 L-330.8,949.1 L-330.8,943.4 L-332.0,938.1 L-334.4,935.1 L-337.6,932.4 L-342.7,931.5 L-355.5,939.4 L-353.4,932.2 L-351.4,926.2 L-341.8,922.3 L-334.1,911.0 L-326.6,900.0 L-323.3,889.8 L-323.0,866.9 L-318.1,849.1 L-315.8,834.6 L-305.4,822.4 L-297.3,808.4 L-299.2,797.6 L-293.0,790.4 L-284.7,779.0 L-276.9,762.6 L-273.8,750.4 L-264.5,756.1 L-257.7,756.8 L-251.2,756.1 L-242.2,748.3 L-235.7,741.3 L-229.7,733.8 L-225.6,726.0 L-223.3,720.0 L-220.7,713.8 L-215.2,707.8 L-207.7,704.0 L-197.8,698.8 L-186.7,696.4 L-176.3,693.3 L-171.9,693.6 L-171.7,698.3 L-175.5,702.1 L-180.7,702.1 L-185.7,706.0 L-191.1,709.7 L-196.0,711.2 L-198.6,717.2 L-194.5,723.4 L-186.4,721.6 L-178.1,715.4 L-170.4,709.9 L-164.1,706.0 L-159.0,701.6 L-156.4,698.5 L-154.5,693.6 L-156.4,689.7 L-158.7,688.4 L-152.5,683.7 L-148.3,689.7 L-144.2,691.0 L-137.2,688.4 L-131.5,685.8 L-127.6,684.5 L-125.3,680.9 L-127.6,676.2 L-130.7,673.1 L-138.2,671.3 L-112.0,653.1 L-117.0,663.8 L-116.4,670.8 L-111.8,673.1 L-105.5,673.4 L-100.4,672.9 L-90.5,666.6 L-81.2,662.5 L-73.9,662.2 L-68.0,657.8 L-59.9,651.9 L-54.0,644.3 L-50.9,636.8 L-47.5,632.4 L-43.3,629.0 L-35.8,628.3 L-27.8,629.3 L-18.0,629.8 L-26.7,747.0 L-32.7,747.4 L-37.4,750.1 L-41.8,755.3 L-45.2,762.0 L-44.6,769.0 L-50.9,773.4 L-54.7,781.5 L-51.1,787.7 L-66.7,792.6 L-67.7,780.7 L-69.5,774.2 L-73.9,772.4 L-79.6,772.7 L-88.7,786.4 L-92.8,797.0 L-92.3,807.9 L-90.8,814.9 L-92.2,820.7 L-94.6,826.5 L-96.5,833.8 L-95.4,837.3 L-93.1,838.3 L-85.7,834.1 L-70.3,872.4 L-70.9,879.1 L-64.3,882.7 L-63.0,889.3 L-64.2,897.3 L-71.0,903.3 L-84.8,906.2 L-107.6,920.2 L-128.7,936.5 L-149.3,959.3 L-162.3,967.3 L-170.1,979.9 L-182.0,982.3 L-193.6,987.6 L-209.1,992.1 L-218.6,1000.4 L-229.4,1007.3 L-233.8,1011.4 L-240.1,1021.0 L-247.8,1032.9 L-256.8,1045.7 L-259.1,1057.6 L-267.2,1071.9 L-275.5,1085.6 L-280.6,1103.8 L-289.2,1120.5 L-295.2,1129.7 L-302.6,1135.0 L-310.1,1138.3 L-317.5,1139.5 L-316.3,1146.1 L-309.2,1149.3 L-306.2,1157.4 L-309.5,1167.2 L-323.2,1181.5 L-345.2,1187.7 L-354.1,1195.5 L-363.7,1204.7 L-370.5,1210.4 L-378.8,1211.6 L-388.1,1212.8 L-391.1,1217.8 L-392.5,1222.9 L-395.8,1225.6 L-402.7,1226.5 L-409.5,1229.1 L-413.1,1234.5 L-412.5,1242.3 L-414.6,1253.3 L-416.7,1259.8 L-421.4,1267.9 L-424.7,1273.8 L-431.0,1277.1 L-438.7,1281.3 L-443.2,1288.7 L-445.3,1293.8 L-457.2,1308.7 L-468.5,1321.5 L-475.9,1330.1 L-481.9,1337.8 L-489.6,1343.5 L-493.5,1349.2 L-498.9,1350.6 L-505.7,1351.8 L-507.2,1358.1 L-511.7,1360.2 L-518.8,1361.1 L-526.3,1366.4 L-527.2,1374.8 L-533.1,1378.4 L-549.7,1388.6 L-563.7,1397.2 L-575.0,1404.1 Z" fill="#2b5a2a" stroke="none"/>
<path d="M-30.6,536.5 L-27.2,543.4 L-27.5,549.2 L-29.9,555.7 L-32.3,561.5 L-35.7,568.4 L-36.1,571.8 L-32.1,579.2 L-32.0,585.2 L-32.7,592.6 L-36.8,597.8 L-29.2,595.7 L-22.7,596.4 L-17.6,600.9 L14.9,598.5 L18.4,592.8 L25.3,604.4 L34.4,615.0 L42.5,625.9 L46.0,634.7 L46.4,645.6 L45.6,657.3 L44.8,671.5 L42.2,681.5 L38.7,690.4 L36.6,700.9 L33.8,707.1 L30.8,712.8 L25.8,715.5 L21.6,709.4 L18.1,699.1 L15.8,689.2 L15.5,683.1 L16.3,674.9 L20.1,667.8 L21.9,661.8 L19.8,656.6 L15.9,654.1 L13.2,648.3 L13.0,643.0 L-18.0,629.8 L-26.7,747.0 L-24.4,746.4 L-22.4,747.5 L-21.7,752.1 L-22.4,779.8 L95.3,758.9 L119.2,710.4 L120.2,699.1 L123.7,693.2 L139.1,667.9 L145.6,656.3 L152.7,643.3 L163.7,632.3 L175.7,616.3 L185.9,599.9 L194.5,581.7 L198.2,570.4 L209.2,531.8 L211.6,514.7 L219.5,501.7 L223.9,494.8 L227.0,485.3 L224.2,478.1 L222.2,470.9 L223.9,462.3 L221.8,454.5 L221.5,438.1 L235.2,432.2 L249.2,437.0 L260.5,427.8 L268.4,421.0 L261.9,414.1 L259.5,398.0 L260.2,381.6 L261.5,370.7 L258.4,360.7 L253.0,352.2 L253.7,341.6 L253.0,332.7 L247.8,325.5 L245.1,320.4 L241.3,317.3 L233.1,314.2 L227.3,311.5 L224.6,303.6 L224.6,291.7 L224.9,281.7 L227.0,268.1 L233.8,258.8 L239.6,248.6 L242.0,236.9 L234.8,224.6 L235.2,202.7 L240.0,186.0 L243.1,171.9 L242.4,149.0 L248.2,135.7 L248.5,118.2 L248.2,106.6 L253.3,91.2 L254.3,75.8 L255.4,63.8 L249.2,56.0 L241.3,49.8 L235.9,45.7 L227.0,44.4 L221.8,47.1 L219.1,52.9 L221.5,60.8 L222.2,67.9 L222.2,73.8 L216.7,75.8 L211.5,70.6 L193.4,151.8 L202.0,154.8 L206.8,157.9 L211.2,165.1 L210.9,170.2 L207.1,173.0 L199.3,173.0 L194.5,176.0 L190.4,182.5 L189.0,192.1 L193.5,199.6 L197.9,210.2 L202.0,218.1 L198.2,231.4 L192.4,241.0 L185.2,255.4 L177.4,270.8 L172.6,276.6 L164.7,281.0 L161.3,291.7 L151.7,306.4 L143.2,315.6 L136.7,320.7 L125.5,323.9 L-30.6,536.5 Z" fill="#2b5a2a" stroke="none"/>
<path d="M-70.3,872.4 L-67.6,867.3 L-64.4,863.3 L-58.3,860.0 L-51.5,858.6 L-46.7,856.3 L-43.4,853.3 L-39.5,848.4 L-36.5,843.5 L-31.8,838.2 L-26.7,834.7 L-24.3,833.5 L-15.3,833.1 L-10.4,833.1 L-1.9,833.3 L9.3,833.3 L27.5,814.2 L67.8,791.0 L95.3,758.9 L-22.4,779.8 L-25.7,782.2 L-30.2,782.6 L-35.7,781.8 L-36.7,786.1 L-38.9,789.7 L-42.6,790.6 L-48.1,790.3 L-51.1,787.7 L-66.7,792.6 L-70.1,801.3 L-71.3,807.3 L-74.6,814.0 L-80.9,817.2 L-83.3,819.7 L-84.5,823.9 L-83.7,829.3 L-85.7,834.1 L-70.3,872.4 Z" fill="#2b5a2a" stroke="none"/>
<path d="M-160.7,213.0 L-150.1,224.0 L-149.0,225.1 L-146.2,228.1 L-142.6,229.6 L-131.6,227.9 L-115.9,224.0 L-98.2,220.4 L-90.0,218.9 L-83.3,216.5 L-70.7,222.8 L-54.6,226.7 L-47.9,227.1 L-46.8,236.1 L-49.5,243.2 L-51.5,252.2 L-44.8,260.1 L-34.2,263.2 L-29.1,263.6 L-22.4,254.2 L-15.3,244.8 L-12.6,240.1 L-12.2,233.4 L-15.3,226.3 L-20.4,220.4 L-24.4,218.1 L-13.0,210.2 L-3.5,203.5 L2.8,200.0 L8.7,198.9 L18.3,188.1 L6.7,184.3 L9.4,176.4 L21.2,168.2 L31.0,155.2 L38.9,144.6 L44.0,131.6 L50.7,120.2 L57.4,110.8 L61.7,103.7 L68.0,102.1 L80.6,102.6 L85.7,99.4 L91.8,103.3 L115.6,73.3 L105.3,68.4 L101.4,65.6 L105.7,59.7 L114.3,51.5 L121.8,48.3 L127.7,40.5 L133.6,38.1 L137.9,36.1 L141.9,31.8 L141.9,26.3 L139.5,19.6 L139.5,13.0 L143.4,8.2 L145.4,1.2 L146.2,-11.0 L149.3,-20.0 L152.5,-28.3 L157.6,-32.6 L163.9,-38.1 L169.8,-40.5 L177.6,-45.6 L181.2,-50.3 L195.3,-66.8 L201.2,-75.1 L206.3,-78.2 L211.0,-75.1 L223.2,-86.3 L221.2,-93.9 L225.2,-93.9 L229.5,-90.8 L236.6,-87.6 L244.8,-86.8 L248.0,-90.4 L249.5,-95.5 L246.0,-101.4 L239.7,-105.7 L229.5,-114.0 L224.0,-122.6 L221.2,-128.9 L213.8,-152.4 L209.4,-166.6 L202.8,-180.3 L196.1,-188.2 L191.8,-190.2 L183.9,-190.2 L175.7,-185.9 L169.0,-175.6 L165.4,-169.0 L158.0,-158.3 L151.3,-153.6 L140.3,-145.4 L134.8,-139.9 L133.6,-129.3 L131.3,-117.1 L121.0,-104.9 L108.9,-97.1 L101.4,-87.6 L94.7,-78.2 L82.1,-66.0 L63.3,-49.1 L50.7,-36.2 L33.0,-18.1 L23.6,-10.6 L15.3,0.4 L1.2,9.8 L-15.3,26.3 L-18.9,38.1 L-29.9,48.7 L-38.9,61.7 L-49.5,76.2 L-64.8,88.4 L-77.8,106.9 L-99.4,128.5 L-116.7,148.5 L-127.3,160.7 L-136.3,172.1 L-143.0,181.9 L-149.7,188.6 L-156.8,194.1 L-161.9,200.0 L-161.9,206.7 L-160.7,213.0 Z" fill="#2b5a2a" stroke="none"/>
<path d="M-64.2,311.8 L-59.3,314.0 L-53.4,316.1 L-48.5,317.3 L-44.0,313.4 L-40.2,307.5 L-38.9,303.8 L-38.7,300.4 L-38.9,298.5 L-41.4,295.3 L-44.6,294.0 L-49.7,293.7 L-53.8,293.7 L-57.1,297.3 L-60.1,301.0 L-61.8,304.8 L-64.2,311.8 Z" fill="#2b5a2a" stroke="none"/>
<path d="M-18.0,629.8 L-12.7,626.2 L-9.2,619.2 L-9.0,611.8 L-10.7,606.1 L-17.6,600.9 L14.9,598.5 L12.2,610.5 L13.7,616.0 L16.4,619.0 L18.9,624.5 L18.9,629.9 L17.9,635.4 L15.7,639.1 L13.0,643.0 L-18.0,629.8 Z" fill="#2b5a2a" stroke="none"/>
<path d="M115.6,73.3 L121.8,74.8 L125.2,79.5 L130.0,82.3 L136.0,83.0 L142.1,81.7 L148.3,77.8 L151.6,73.9 L153.8,67.2 L155.3,60.1 L159.6,54.5 L164.8,48.0 L167.4,42.1 L170.8,38.9 L177.7,36.7 L184.4,33.9 L188.1,29.6 L188.3,24.8 L186.4,18.8 L188.6,14.5 L192.4,8.9 L196.8,3.0 L200.2,0.0 L202.8,-4.1 L204.3,-9.5 L203.9,-13.0 L204.8,-17.9 L205.6,-21.2 L208.4,-29.8 L211.2,-35.0 L213.6,-42.1 L213.6,-48.8 L214.5,-60.7 L215.6,-67.9 L213.6,-72.4 L211.0,-75.1 L223.2,-86.3 L223.6,-82.3 L220.1,-77.8 L219.9,-74.8 L222.7,-72.2 L227.5,-68.2 L231.3,-64.4 L234.6,-58.6 L236.1,-52.3 L239.8,-47.5 L242.6,-40.2 L242.1,-33.3 L239.8,-26.6 L235.2,-19.0 L230.0,-10.6 L229.0,-4.7 L230.3,-0.9 L229.2,4.8 L225.5,11.2 L225.3,16.9 L223.3,22.0 L219.9,25.7 L216.4,34.1 L210.2,41.3 L206.1,49.5 L204.5,58.8 L207.3,66.1 L211.5,70.6 L193.4,151.8 L188.1,153.9 L182.3,159.3 L176.4,166.4 L170.2,172.2 L163.7,174.8 L157.4,174.2 L152.9,169.4 L148.1,164.0 L144.2,160.6 L133.2,154.9 L128.2,150.0 L123.5,143.5 L119.2,136.8 L115.7,130.1 L110.7,126.0 L107.1,124.0 L102.7,125.1 L98.4,128.2 L95.6,117.6 L97.1,112.2 L96.5,107.2 L91.8,103.3 L115.6,73.3 Z" fill="#2b5a2a" stroke="none"/>
<path d="M237.8,71.6 L170.7,475.9 L80.3,728.4" fill="none" stroke="#4e8b39" stroke-width="55.7" stroke-linecap="round" stroke-linejoin="round" opacity="0.85"/>
<path d="M376.2,158.0 L388.9,148.4 L397.7,129.8 L399.6,121.6 L399.0,106.1 L400.1,91.7 L404.1,78.7 L407.8,62.2 L407.3,59.8 L400.1,58.5 L390.0,67.0 L379.9,83.0 L365.8,105.3 L353.8,112.8 L348.2,126.1 L346.6,139.4 L376.2,158.0 Z" fill="#5a9540" stroke="none"/>
<path d="M-47.8,734.2 L-47.0,740.7 L-52.0,746.2 L-56.7,747.6 L-64.4,744.2 L-68.6,740.9 L-74.3,739.9 L-79.5,741.4 L-85.7,744.7 L-90.2,749.6 L-93.0,756.8 L-95.2,765.8 L-96.4,773.2 L-98.2,781.9 L-99.6,788.6 L-104.4,793.3 L-107.9,796.9 L-112.8,800.3 L-115.6,803.7 L-119.0,808.4 L-123.4,814.4 L-124.1,818.7 L-122.4,824.0 L-120.1,829.3 L-112.0,831.4 L-104.7,834.6 L-103.1,842.5 L-105.4,849.2 L-111.6,852.4 L-115.0,858.4 L-111.6,869.1 L-114.3,881.5 L-117.3,899.3 L-128.0,922.4 L-131.9,935.3 L-143.3,944.8 L-157.5,953.5 L-175.4,963.4 L-187.8,970.3 L-200.7,974.8 L-215.6,979.8 L-234.0,990.4 L-255.1,1002.6 L-268.2,1007.8 L-276.9,1016.5 L-283.9,1021.0 L-294.3,1024.7 L-299.7,1028.4 L-309.2,1036.6 L-319.4,1047.5 L-325.1,1058.5 L-327.8,1073.4 L-324.6,1081.6 L-320.8,1090.7 L-318.9,1101.2 L-319.9,1110.8 L-326.3,1120.5 L-338.0,1135.2 L-342.4,1143.1 L-343.4,1152.3 L-353.1,1168.9 L-371.7,1189.1 L-403.8,1219.8 L-414.9,1226.0 L-421.1,1235.0 L-429.8,1250.9 L-438.0,1261.3 L-449.4,1276.2 L-462.8,1286.6 L-470.8,1291.3 L-476.5,1298.8 L-484.2,1302.3 L-489.2,1299.8 L-496.9,1300.3 L-499.8,1303.0 L-502.8,1309.0 L-506.8,1313.7 L-509.0,1319.9 L-510.8,1326.4 L-516.2,1332.5 L-529.6,1343.7 L-546.5,1352.9 L-555.9,1357.1 L-562.9,1364.1 L-569.1,1371.3 L-577.8,1381.2 L-585.2,1386.7 L-588.5,1387.4 L-602.4,1383.5 L-608.8,1378.0 L-615.8,1370.5 L-616.3,1365.1 L-614.5,1353.7 L-608.8,1345.5 L-601.1,1337.8 L-595.7,1329.6 L-581.3,1320.9 L-573.6,1315.2 L-565.6,1307.7 L-561.4,1301.8 L-556.7,1298.5 L-552.2,1299.5 L-546.3,1301.8 L-538.3,1301.0 L-531.4,1295.6 L-525.7,1286.6 L-525.2,1278.2 L-524.9,1273.5 L-530.0,1268.3 L-531.4,1264.6 L-533.3,1260.3 L-532.7,1255.5 L-529.3,1250.1 L-524.1,1247.3 L-519.5,1243.1 L-511.0,1234.0 L-509.5,1226.8 L-505.3,1223.6 L-498.6,1222.6 L-497.1,1219.8 L-490.7,1217.1 L-485.9,1211.2 L-483.2,1205.7 L-472.5,1199.0 L-466.3,1190.3 L-457.6,1182.9 L-448.4,1172.7 L-431.6,1155.0 L-421.4,1146.6 L-414.9,1140.7 L-411.2,1133.9 L-411.7,1125.3 L-406.5,1117.8 L-399.5,1107.9 L-391.1,1098.9 L-387.4,1097.2 L-378.9,1094.5 L-374.5,1089.3 L-374.2,1077.1 L-376.5,1068.9 L-371.2,1046.8 L-370.0,1037.9 L-358.1,1015.0 L-346.9,999.6 L-337.7,985.2 L-326.8,973.5 L-320.9,963.1 L-320.4,955.4 L-322.2,945.3 L-323.5,937.0 L-239.5,902.5 L-234.8,904.5 L-230.3,903.9 L-225.4,900.7 L-224.0,896.0 L-225.5,891.5 L-227.0,879.6 L-221.1,882.2 L-217.1,890.9 L-211.8,899.3 L-208.6,902.2 L-204.8,902.1 L-203.2,898.5 L-204.2,891.9 L-204.4,883.9 L-203.1,877.2 L-204.9,866.5 L-210.9,857.4 L-267.6,800.1 L-246.0,781.1 L-224.4,765.1 L-200.2,744.8 L-172.9,721.0 L-158.2,704.5 L-147.9,696.3 L-135.7,689.9 L-120.6,687.3 L-107.7,692.9 L-100.3,694.6 L-88.6,693.7 L-84.2,689.7 L-79.7,681.7 L-77.1,674.6 L-73.6,668.7 L-67.1,664.4 L-60.4,663.3 L-51.1,664.0 L-46.0,665.3 L-42.1,665.5 L-31.6,677.7 L-27.0,684.5 L-24.4,694.9 L-26.1,702.4 L-31.8,708.9 L-42.3,715.5 L-51.1,724.1 L-51.6,729.7 L-47.8,734.2 Z" fill="#5a9540" stroke="none"/>
<path d="M52.3,676.1 L52.5,659.8 L52.6,634.0 L63.5,614.9 L66.1,615.5 L68.8,615.4 L71.7,614.8 L74.7,611.8 L78.1,607.5 L78.2,602.3 L75.4,597.7 L71.2,595.5 L65.5,594.1 L60.3,596.7 L62.5,559.6 L73.5,553.9 L81.0,546.6 L86.6,537.8 L88.5,531.1 L85.6,526.6 L77.9,524.1 L67.0,523.9 L56.4,525.8 L49.2,530.4 L42.7,537.1 L25.7,545.2 L-1.3,485.5 L-11.7,456.8 L-10.3,431.2 L-4.8,410.3 L3.5,383.3 L5.9,344.1 L12.3,313.3 L21.6,288.7 L41.8,257.3 L53.3,234.8 L61.1,199.1 L72.0,176.6 L85.1,169.4 L102.0,173.4 L108.6,189.5 L115.5,211.3 L120.4,244.5 L119.8,264.3 L112.6,289.5 L100.1,318.7 L69.6,377.3 L62.2,391.2 L53.1,395.9 L44.8,401.5 L37.5,415.9 L36.6,451.0 L34.9,464.8 L36.2,478.2 L41.0,485.4 L52.6,488.1 L71.8,483.0 L87.9,475.8 L109.1,461.6 L124.6,432.2 L134.7,409.0 L142.9,394.1 L150.0,387.6 L162.1,380.2 L169.1,372.3 L175.0,357.8 L179.1,336.8 L181.5,324.6 L186.8,313.9 L193.8,310.0 L201.4,310.1 L210.5,314.3 L218.2,320.8 L224.8,330.7 L229.9,351.4 L235.7,393.7 L235.6,407.5 L231.0,416.3 L218.6,427.1 L210.9,443.3 L211.3,458.6 L209.7,478.0 L201.6,509.0 L183.0,575.8 L157.5,625.0 L143.4,633.2 L133.4,633.7 L110.6,634.5 L96.5,637.2 L89.8,643.2 L87.7,652.8 L90.9,660.5 L96.2,666.9 L105.9,673.2 L111.6,678.7 L113.9,691.6 L113.8,699.8 L114.7,709.0 L114.2,720.1 L110.0,727.1 L106.1,734.6 L103.6,741.0 L99.5,745.9 L95.7,747.8 L90.7,747.0 L88.1,744.8 L84.6,745.3 L78.9,747.1 L76.0,749.9 L73.5,753.8 L66.8,759.8 L60.5,762.8 L53.2,763.9 L44.7,762.6 L41.4,759.4 L39.3,754.7 L36.8,747.2 L36.8,739.5 L38.2,735.3 L41.9,728.4 L51.1,722.0 L54.2,715.6 L52.5,709.8 L47.6,704.3 L44.2,698.5 L43.4,691.7 L45.7,685.1 L50.4,680.0 L52.3,676.1 Z" fill="#5a9540" stroke="none"/>
<path d="M63.5,614.9 L60.5,611.8 L58.4,607.7 L58.0,601.9 L60.3,596.7 L62.5,559.6 L55.0,562.5 L47.1,562.5 L42.2,556.8 L40.4,546.5 L42.7,537.1 L25.7,545.2 L39.0,581.2 L48.0,604.0 L51.0,617.1 L53.3,623.7 L52.6,634.0 L63.5,614.9 Z" fill="#5a9540" stroke="none"/>
<path d="M195.5,80.0 L196.5,70.7 L198.0,62.4 L195.7,54.3 L192.2,52.3 L183.2,57.1 L176.9,59.4 L169.4,63.1 L164.3,68.9 L162.1,73.7 L159.6,78.7 L155.5,83.7 L148.5,88.7 L144.0,90.2 L137.7,92.5 L128.4,94.1 L122.7,100.6 L122.4,106.3 L122.4,112.6 L123.1,118.9 L125.4,124.2 L127.4,130.2 L129.4,136.7 L132.3,145.0 L134.6,150.8 L137.8,155.3 L139.9,157.3 L146.9,161.4 L150.9,163.9 L153.4,167.9 L157.7,169.0 L161.8,169.2 L165.0,167.7 L168.5,164.9 L171.3,161.6 L174.1,156.4 L177.9,151.5 L181.5,148.3 L186.3,145.2 L190.3,140.5 L192.1,136.0 L194.5,130.6 L195.8,123.5 L196.5,118.6 L197.1,107.5 L196.5,99.3 L195.3,90.1 L195.5,80.0 Z" fill="#5a9540" stroke="none"/>
<path d="M-15.6,165.7 L-0.7,156.3 L9.2,148.3 L17.7,139.4 L29.6,127.0 L38.0,115.5 L45.5,104.6 L56.9,94.2 L70.8,82.8 L85.7,68.4 L100.1,55.0 L108.1,48.2 L115.6,42.9 L122.8,37.0 L126.1,33.1 L129.7,26.2 L131.0,17.4 L122.8,5.3 L121.5,-3.2 L124.4,-14.4 L134.3,-23.2 L146.1,-32.1 L160.5,-45.2 L169.3,-48.1 L176.9,-55.3 L183.1,-62.2 L188.6,-71.0 L192.9,-78.6 L202.1,-88.1 L209.3,-95.3 L212.6,-103.5 L214.2,-110.3 L214.8,-118.2 L212.6,-125.1 L209.9,-128.4 L208.3,-149.3 L208.0,-160.1 L203.7,-172.3 L199.1,-179.8 L190.3,-184.7 L184.1,-184.7 L177.2,-180.8 L172.3,-174.9 L170.0,-166.4 L165.4,-150.6 L165.4,-142.4 L161.1,-134.3 L156.5,-130.3 L148.0,-124.4 L139.2,-117.9 L134.3,-111.3 L129.3,-103.5 L120.5,-97.2 L112.3,-89.7 L103.8,-82.2 L93.6,-70.1 L76.3,-53.4 L67.8,-45.5 L57.6,-35.3 L43.2,-20.6 L31.1,-9.5 L21.2,1.0 L6.8,13.8 L-2.3,25.6 L-12.2,34.4 L-19.0,47.9 L-33.5,64.6 L-46.2,78.3 L-60.3,92.1 L-70.1,105.8 L-82.9,121.9 L-92.4,133.0 L-104.9,143.5 L-119.0,158.2 L-129.4,170.0 L-134.0,178.5 L-135.3,191.3 L-132.4,199.5 L-122.9,204.1 L-108.1,201.5 L-94.4,195.6 L-72.8,187.4 L-49.8,179.2 L-31.8,172.0 L-15.6,165.7 Z" fill="#5a9540" stroke="none"/>
<path d="M-38.4,716.0 L-40.2,716.9 L-41.0,718.3 L-42.1,719.6 L-43.9,720.4 L-45.9,721.5 L-47.8,722.7 L-49.5,724.8 L-49.2,727.2 L-48.2,729.5 L-47.0,731.0 L-45.0,731.7 L-42.4,730.9 L-40.5,730.5 L-39.0,730.9 L-37.6,731.5 L-36.4,731.0 L-34.9,729.6 L-34.8,727.6 L-34.6,726.0 L-34.0,723.8 L-33.2,722.7 L-33.1,720.9 L-33.1,719.3 L-33.9,718.0 L-35.0,716.8 L-36.5,716.1 L-38.4,716.0 Z" fill="#e7d6a3" stroke="none"/>
<path d="M-26.5,674.8 L-27.5,674.9 L-28.4,675.5 L-29.2,676.4 L-29.5,677.5 L-29.6,678.5 L-28.5,679.2 L-27.1,680.1 L-25.6,681.1 L-24.5,682.0 L-23.8,682.8 L-22.8,683.8 L-21.3,684.5 L-19.8,684.5 L-19.0,684.1 L-18.3,683.2 L-18.0,682.2 L-17.9,681.0 L-18.4,680.1 L-19.4,679.1 L-20.9,678.2 L-22.4,677.4 L-23.6,676.6 L-24.8,675.9 L-25.6,675.3 L-26.5,674.8 Z" fill="#e7d6a3" stroke="none"/>
<path d="M-44.7,653.9 L-46.9,653.7 L-48.8,654.0 L-50.9,654.7 L-51.8,656.1 L-51.7,658.4 L-49.4,659.6 L-46.4,660.0 L-44.3,660.0 L-42.7,659.8 L-41.7,658.5 L-41.7,656.6 L-42.4,655.2 L-43.4,654.3 L-44.7,653.9 Z" fill="#e7d6a3" stroke="none"/>
<path d="M43.7,412.4 L43.8,413.0 L43.9,413.7 L44.2,414.4 L44.6,415.1 L45.0,415.9 L45.4,416.4 L45.7,417.1 L45.7,418.0 L45.3,419.1 L44.7,419.9 L44.2,420.7 L43.6,421.7 L43.2,422.8 L42.9,423.9 L42.6,425.2 L42.9,426.0 L43.8,426.2 L44.6,426.2 L45.1,425.8 L45.5,424.9 L46.0,423.8 L46.4,423.0 L47.0,422.0 L47.5,421.3 L48.2,420.6 L48.9,419.8 L49.6,418.7 L49.8,417.7 L50.2,416.4 L50.4,414.7 L50.4,413.3 L50.4,412.1 L49.8,411.3 L49.0,410.8 L47.5,410.4 L46.2,410.2 L45.5,410.1 L44.9,410.1 L44.3,410.1 L43.8,410.4 L43.4,410.8 L43.3,411.4 L43.4,411.9 L43.7,412.4 Z" fill="#e7d6a3" stroke="none"/>
<path d="M59.1,393.4 L58.1,393.4 L57.2,393.6 L56.1,394.0 L55.8,394.9 L55.6,396.2 L54.7,396.5 L53.6,396.6 L51.9,397.1 L51.0,398.0 L50.5,399.2 L50.6,400.4 L50.9,401.8 L51.3,403.9 L51.5,405.1 L51.7,406.2 L52.0,407.2 L52.2,408.5 L52.2,409.5 L52.5,410.8 L53.5,411.2 L55.5,411.4 L57.6,411.3 L59.4,411.3 L62.4,410.9 L64.6,410.5 L67.0,410.2 L69.4,409.5 L70.9,408.7 L72.1,407.6 L73.3,406.1 L73.7,404.7 L74.2,403.4 L74.6,402.3 L74.8,400.3 L75.0,398.5 L75.2,396.7 L75.0,395.3 L74.3,394.3 L73.8,394.0 L73.2,393.9 L72.4,393.9 L71.8,394.3 L71.7,395.1 L71.2,396.2 L70.6,396.9 L69.1,397.1 L67.4,397.2 L65.5,396.9 L63.4,396.6 L62.2,396.2 L61.1,395.1 L60.5,394.4 L59.9,393.9 L59.1,393.4 Z" fill="#e7d6a3" stroke="none"/>
<path d="M125.8,-7.6 L126.3,-6.4 L126.7,-5.3 L126.6,-3.7 L125.6,-2.5 L125.2,-0.4 L125.2,2.7 L125.9,4.3 L127.5,4.4 L129.2,4.0 L131.3,2.5 L133.1,0.1 L135.0,-2.3 L136.2,-4.5 L136.4,-7.2 L135.5,-8.5 L134.1,-9.7 L133.3,-11.3 L133.8,-12.5 L134.6,-13.5 L135.0,-14.6 L134.3,-15.0 L133.0,-15.0 L131.7,-14.2 L130.2,-13.3 L129.0,-12.4 L127.6,-11.3 L126.4,-9.9 L125.8,-8.8 L125.8,-7.6 Z" fill="#e7d6a3" stroke="none"/>
<path d="M226.8,256.0 L229.2,259.7 L233.0,264.0 L233.2,271.7 L231.9,279.9 L229.8,277.0 L226.3,273.5 L222.3,268.5 L219.7,261.6 L221.8,257.0 L226.8,256.0 Z" fill="#e7d6a3" stroke="none"/>
<path d="M199.8,262.3 L199.2,265.5 L200.8,268.4 L207.5,268.2 L208.3,264.2 L208.3,261.3 L203.5,259.4 L199.8,262.3 Z" fill="#e7d6a3" stroke="none"/>
<path d="M237.7,460.2 L241.3,460.2 L242.0,455.0 L240.0,450.7 L235.1,450.7 L235.1,455.3 L237.7,460.2 Z" fill="#e7d6a3" stroke="none"/>
<path d="M227.9,452.9 L222.0,446.0 L219.4,437.8 L220.3,433.2 L227.5,430.0 L238.0,429.3 L243.9,429.6 L243.3,435.9 L247.2,440.1 L245.2,442.7 L230.2,437.2 L226.9,439.8 L229.5,449.0 L227.9,452.9 Z" fill="#e7d6a3" stroke="none"/>
<path d="M96.6,642.9 L98.4,644.3 L101.9,644.0 L103.8,641.7 L103.8,638.0 L101.0,636.5 L97.3,637.8 L96.7,640.4 L96.6,642.9 Z" fill="#e7d6a3" stroke="none"/>
<path d="M36.7,719.5 L40.6,720.6 L45.0,719.0 L48.0,717.6 L51.0,715.4 L51.2,712.8 L50.8,710.7 L49.4,709.6 L47.7,709.3 L45.8,709.7 L44.6,710.5 L43.1,711.8 L41.9,712.8 L39.7,713.0 L37.6,713.2 L36.4,714.1 L35.3,715.4 L35.1,717.2 L36.7,719.5 Z" fill="#e7d6a3" stroke="none"/>
<path d="M33.3,739.9 L36.5,737.5 L35.7,733.2 L33.6,729.0 L28.0,725.8 L27.0,733.0 L27.2,738.3 L28.6,739.9 L33.3,739.9 Z" fill="#e7d6a3" stroke="none"/>
<path d="M129.0,684.6 L131.2,682.7 L131.6,679.6 L132.8,677.4 L135.0,675.6 L136.5,673.6 L137.4,671.4 L136.4,670.0 L134.3,670.3 L132.3,672.1 L130.1,673.5 L129.3,675.7 L129.3,676.9 L128.6,678.9 L127.2,680.4 L126.4,681.8 L126.4,683.6 L127.3,684.6 L129.0,684.6 Z" fill="#e7d6a3" stroke="none"/>
<path d="M40.5,20.8 L41.8,18.9 L43.1,17.4 L44.9,15.8 L46.4,14.1 L46.6,11.8 L45.4,10.5 L43.9,9.9 L41.5,10.1 L39.3,11.2 L37.2,13.0 L35.2,13.8 L33.8,14.6 L33.1,15.9 L33.8,17.7 L34.6,19.0 L36.2,20.4 L36.9,21.0 L38.4,21.3 L40.5,20.8 Z" fill="#e7d6a3" stroke="none"/>
<path d="M92.3,35.0 L93.3,32.8 L95.4,30.7 L97.9,28.7 L99.1,26.9 L99.1,24.5 L99.0,22.8 L98.0,21.4 L95.9,20.9 L93.8,22.1 L91.5,24.4 L89.3,25.4 L87.9,26.4 L86.9,28.4 L86.6,30.3 L87.2,33.1 L87.6,34.3 L88.7,35.4 L89.8,35.8 L90.8,35.9 L92.3,35.0 Z" fill="#e7d6a3" stroke="none"/>
<path d="M70.0,232.1 L72.2,229.5 L73.1,228.3 L73.9,226.4 L74.3,224.2 L74.8,222.4 L74.9,220.1 L74.4,218.3 L73.8,216.8 L72.9,215.8 L71.4,215.9 L70.1,216.7 L68.3,216.9 L67.1,216.8 L66.5,217.7 L66.2,220.4 L65.6,221.5 L65.6,222.8 L66.0,224.6 L65.6,226.5 L64.8,228.0 L64.9,230.2 L65.5,231.7 L66.4,232.7 L67.9,232.9 L70.0,232.1 Z" fill="#e7d6a3" stroke="none"/>
<path d="M138.8,148.8 L139.8,150.4 L141.3,152.8 L141.8,154.3 L143.2,155.6 L145.2,155.9 L146.8,155.4 L147.0,153.7 L146.9,151.5 L146.3,149.4 L145.2,147.8 L144.6,145.5 L143.5,144.1 L142.3,143.4 L140.0,142.8 L138.0,143.2 L136.5,143.5 L135.7,145.0 L136.3,147.4 L138.8,148.8 Z" fill="#e7d6a3" stroke="none"/>
<path d="M165.4,364.6 L168.7,362.8 L171.0,360.0 L172.4,357.1 L173.4,353.5 L172.5,350.5 L170.5,349.2 L168.2,349.2 L166.8,350.2 L164.5,352.1 L162.2,352.5 L160.6,352.1 L159.3,352.0 L156.8,352.1 L156.0,353.0 L156.3,355.1 L155.8,357.7 L155.0,359.6 L154.5,361.3 L154.9,364.1 L156.3,365.3 L158.6,366.0 L162.1,365.6 L165.4,364.6 Z" fill="#e7d6a3" stroke="none"/>
<path d="M64.4,704.5 L66.2,703.1 L67.5,701.0 L68.7,700.0 L69.7,698.8 L70.6,696.7 L70.2,694.1 L69.3,691.7 L67.2,690.5 L64.6,689.8 L62.6,690.3 L60.2,692.1 L58.8,693.4 L58.1,695.5 L59.1,697.6 L59.9,698.8 L60.4,700.2 L60.7,701.5 L61.4,702.9 L62.4,704.1 L64.4,704.5 Z" fill="#e7d6a3" stroke="none"/>
<path d="M85.6,279.3 L87.8,280.8 L90.2,280.5 L92.3,279.0 L94.2,276.4 L94.6,274.8 L94.6,272.5 L94.1,270.6 L91.9,268.2 L89.1,267.1 L87.0,267.8 L85.5,268.2 L83.5,266.8 L80.7,267.1 L78.2,267.7 L76.1,269.2 L74.1,270.8 L73.1,272.0 L71.6,274.0 L70.7,276.0 L69.6,277.4 L68.6,279.7 L69.5,281.4 L70.8,282.6 L73.1,282.6 L74.8,282.5 L76.2,282.1 L77.0,281.1 L78.1,279.9 L79.6,279.5 L81.5,279.0 L83.1,278.0 L84.6,277.9 L85.6,279.3 Z" fill="#e7d6a3" stroke="none"/>
<path d="M103.2,266.5 L105.5,266.8 L106.9,265.4 L107.1,263.1 L108.2,261.4 L108.8,259.1 L108.4,256.8 L107.4,255.8 L105.5,255.2 L103.5,256.6 L102.0,258.2 L101.9,261.0 L102.3,263.2 L103.2,266.5 Z" fill="#e7d6a3" stroke="none"/>
<path d="M43.5,477.4 L44.9,477.3 L46.3,476.9 L47.2,475.3 L47.3,473.6 L48.3,471.8 L49.5,470.4 L51.4,468.6 L52.4,466.9 L53.0,464.6 L53.4,462.5 L53.8,460.2 L52.8,458.1 L51.6,457.2 L49.7,455.9 L49.2,455.0 L48.3,454.0 L47.1,454.0 L45.8,455.0 L45.1,456.1 L44.9,457.9 L44.4,459.4 L42.4,460.3 L40.4,461.2 L38.8,462.6 L38.2,464.7 L38.7,466.5 L39.7,468.3 L39.7,470.2 L40.1,473.0 L41.0,475.1 L41.9,476.3 L43.5,477.4 Z" fill="#e7d6a3" stroke="none"/>
<path d="M119.5,574.5 L118.9,570.9 L118.2,567.9 L116.6,565.9 L114.0,564.0 L111.0,563.6 L108.4,563.9 L105.9,564.6 L104.4,566.4 L104.6,568.9 L106.7,570.3 L110.2,571.0 L112.5,572.6 L113.9,574.0 L115.3,575.9 L116.5,576.9 L118.5,577.2 L119.5,574.5 Z" fill="#e7d6a3" stroke="none"/>
<path d="M-5.0,568.8 L-7.4,567.1 L-8.7,565.0 L-9.7,562.6 L-11.2,561.0 L-13.7,560.4 L-15.9,561.9 L-16.1,565.9 L-15.0,568.1 L-13.4,570.1 L-12.2,571.3 L-11.7,573.5 L-10.3,576.5 L-8.3,578.1 L-5.9,576.9 L-4.0,575.1 L-3.1,573.5 L-3.1,571.2 L-5.0,568.8 Z" fill="#e7d6a3" stroke="none"/>
<path d="M181.3,92.5 L183.7,90.3 L185.6,88.0 L186.9,85.5 L186.6,83.1 L185.3,80.2 L183.4,78.9 L182.2,78.1 L178.4,77.9 L175.6,80.6 L172.9,82.9 L172.4,86.1 L172.7,88.5 L173.3,91.5 L174.8,92.4 L178.0,92.9 L181.3,92.5 Z" fill="#e7d6a3" stroke="none"/>
<path d="M130.0,107.1 L132.6,107.3 L134.1,106.3 L135.5,104.8 L136.1,102.4 L135.8,100.8 L134.8,99.8 L133.5,98.8 L131.3,98.9 L129.6,99.5 L128.3,101.3 L128.2,102.7 L128.4,104.7 L128.6,105.7 L130.0,107.1 Z" fill="#e7d6a3" stroke="none"/>
<path d="M182.8,138.0 L183.1,135.7 L182.7,134.2 L181.7,132.3 L180.7,131.4 L178.9,131.3 L177.3,131.4 L175.0,133.1 L173.3,135.5 L171.9,138.1 L170.6,141.7 L170.5,144.9 L171.7,147.1 L172.9,147.8 L174.3,147.4 L175.7,146.0 L176.9,144.3 L178.6,143.3 L180.0,142.9 L180.5,141.6 L180.8,140.4 L181.7,139.2 L182.8,138.0 Z" fill="#e7d6a3" stroke="none"/>
<path d="M78.3,751.1 L80.3,750.3 L82.2,749.3 L83.3,748.2 L85.2,747.4 L86.5,746.7 L87.7,745.5 L87.5,743.8 L85.6,743.0 L83.1,743.2 L80.7,743.5 L78.5,744.2 L77.4,745.1 L76.3,746.4 L75.7,748.3 L75.9,749.5 L76.6,750.8 L78.3,751.1 Z" fill="#e7d6a3" stroke="none"/>
<path d="M-3.2,730.5 L-5.5,730.4 L-8.1,730.7 L-10.2,731.7 L-11.1,733.4 L-11.4,736.2 L-11.4,742.0 L-11.4,747.3 L-11.3,752.6 L-11.3,756.6 L-11.0,758.1 L-10.4,759.4 L-9.7,760.2 L-8.2,760.5 L-5.8,760.5 L-3.1,760.6 L-1.4,760.1 L-0.1,759.3 L0.7,757.6 L1.0,755.7 L1.0,750.5 L0.8,744.5 L0.6,739.6 L0.5,735.3 L0.1,733.4 L-0.3,731.9 L-1.5,730.8 L-3.2,730.5 Z" fill="#4f8a3e" stroke="none"/>
<path d="M3.2,683.8 L0.3,683.8 L-2.7,685.2 L-3.7,689.4 L-2.8,694.2 L-0.9,699.0 L1.5,703.2 L4.8,706.3 L8.2,707.3 L11.8,706.8 L13.7,705.2 L14.3,701.9 L13.0,696.2 L10.9,690.6 L9.2,687.0 L6.6,684.5 L3.2,683.8 Z" fill="#4f8a3e" stroke="none"/>
<path d="M6.5,652.2 L4.8,652.2 L2.2,653.8 L0.1,656.9 L-1.4,663.3 L-2.0,668.9 L-1.1,672.8 L1.1,674.2 L3.3,674.6 L6.7,674.5 L9.7,673.6 L11.5,671.5 L11.5,666.9 L11.4,662.4 L11.2,658.8 L10.5,655.7 L9.1,653.3 L6.5,652.2 Z" fill="#4f8a3e" stroke="none"/>
<path d="M-33.4,632.7 L-35.6,632.3 L-37.5,632.4 L-39.3,633.1 L-41.0,634.8 L-42.0,638.1 L-42.3,640.8 L-41.0,642.9 L-38.4,644.5 L-35.5,645.2 L-33.5,645.4 L-31.2,645.0 L-30.0,643.8 L-29.5,641.9 L-29.5,639.7 L-29.8,636.7 L-30.7,634.9 L-31.6,633.6 L-33.4,632.7 Z" fill="#4f8a3e" stroke="none"/>
<path d="M6.8,621.0 L5.0,621.3 L3.8,622.1 L2.3,625.0 L2.2,628.9 L2.7,631.7 L4.5,633.3 L6.9,634.0 L9.1,634.0 L11.3,633.0 L12.0,631.3 L12.1,628.8 L12.3,626.2 L11.7,624.2 L10.7,622.5 L8.8,621.3 L6.8,621.0 Z" fill="#4f8a3e" stroke="none"/>
<path d="M-46.5,298.2 L-48.3,297.7 L-50.7,297.7 L-53.1,299.2 L-55.6,303.0 L-57.5,306.3 L-58.0,308.8 L-56.9,310.4 L-53.6,312.0 L-50.0,312.6 L-47.7,312.2 L-46.0,310.8 L-44.4,309.1 L-43.1,306.8 L-42.7,303.8 L-43.0,301.0 L-44.1,299.4 L-46.5,298.2 Z" fill="#4f8a3e" stroke="none"/>
<path d="M-27.5,221.5 L-30.2,221.5 L-32.5,222.7 L-34.3,225.3 L-37.0,230.2 L-40.2,235.5 L-42.2,239.1 L-43.0,241.6 L-43.4,244.1 L-42.8,246.6 L-41.3,249.0 L-38.5,251.5 L-35.2,252.6 L-32.0,253.1 L-28.6,252.6 L-26.4,251.2 L-24.3,248.6 L-22.6,245.9 L-21.0,243.5 L-19.3,239.5 L-18.7,235.8 L-18.2,232.1 L-18.4,228.8 L-19.1,226.5 L-20.4,224.4 L-22.0,223.3 L-24.6,222.1 L-27.5,221.5 Z" fill="#4f8a3e" stroke="none"/>
<path d="M30.5,195.2 L26.6,194.6 L23.2,195.4 L20.5,197.4 L19.2,201.0 L19.4,204.6 L21.1,208.4 L23.5,210.3 L27.0,211.2 L30.7,211.1 L33.1,209.6 L34.7,206.6 L35.8,203.8 L36.1,201.1 L35.7,198.9 L33.8,196.9 L30.5,195.2 Z" fill="#4f8a3e" stroke="none"/>
<path d="M232.7,91.8 L235.2,93.4 L237.4,94.6 L239.5,94.5 L241.2,93.9 L242.7,91.9 L243.9,89.6 L244.9,84.2 L245.0,79.6 L244.8,74.4 L244.2,69.2 L242.5,66.9 L239.5,64.9 L236.6,64.9 L233.9,65.5 L231.6,67.6 L230.7,72.1 L230.3,79.4 L230.7,86.9 L232.7,91.8 Z" fill="#4f8a3e" stroke="none"/>
<path d="M197.7,194.7 L201.2,197.6 L204.9,197.4 L206.8,193.9 L208.7,188.3 L208.9,184.0 L205.5,181.9 L202.3,181.9 L199.6,185.1 L197.5,189.6 L197.7,194.7 Z" fill="#4f8a3e" stroke="none"/>
<path d="M229.1,184.2 L234.1,183.4 L236.0,178.9 L236.5,172.8 L232.8,170.1 L226.9,169.6 L223.7,174.6 L224.5,181.5 L229.1,184.2 Z" fill="#4f8a3e" stroke="none"/>
<path d="M191.8,284.6 L196.0,284.6 L199.2,282.4 L199.5,278.7 L196.5,275.8 L192.8,275.8 L190.7,276.6 L189.1,279.2 L188.6,281.9 L191.8,284.6 Z" fill="#4f8a3e" stroke="none"/>
<path d="M-18.9,507.4 L-16.9,501.0 L-20.5,499.4 L-25.8,501.4 L-25.4,507.4 L-22.1,509.5 L-18.9,507.4 Z" fill="#4f8a3e" stroke="none"/>
<path d="M-7.4,557.5 L-4.5,556.2 L-4.5,552.5 L-7.7,549.3 L-10.9,549.3 L-13.3,551.7 L-13.3,554.3 L-11.2,557.5 L-7.4,557.5 Z" fill="#4f8a3e" stroke="none"/>
<path d="M27.6,791.8 L13.3,778.5 L7.8,777.2 L-3.5,778.7 L-12.1,782.1 L-14.8,786.1 L-13.2,789.8 L2.8,802.8 L1.8,808.0 L-2.2,813.9 L-5.1,822.1 L-2.2,827.3 L3.9,829.6 L7.9,825.4 L27.3,803.9 L29.4,797.2 L27.6,791.8 Z" fill="#4f8a3e" stroke="none"/>
<path d="M200.2,24.1 L201.3,21.6 L202.0,19.1 L202.1,16.5 L200.2,13.9 L197.6,13.0 L195.3,13.8 L193.6,15.5 L192.7,19.3 L193.0,22.6 L193.5,24.8 L196.3,26.0 L198.7,25.6 L200.2,24.1 Z" fill="#4f8a3e" stroke="none"/>
<path d="M220.6,-21.7 L224.0,-19.4 L228.1,-19.1 L232.5,-20.7 L234.9,-23.4 L236.8,-26.5 L237.9,-29.6 L238.8,-33.7 L239.1,-37.1 L238.8,-39.6 L237.5,-42.4 L236.4,-45.3 L235.5,-47.6 L234.2,-50.8 L233.7,-54.6 L231.9,-58.9 L230.1,-61.3 L227.8,-63.4 L223.8,-63.8 L221.7,-62.0 L220.9,-58.0 L220.8,-52.8 L221.2,-45.6 L221.2,-39.4 L219.7,-34.0 L218.5,-29.9 L218.6,-26.9 L219.3,-23.9 L220.6,-21.7 Z" fill="#4f8a3e" stroke="none"/>
<path d="M91.5,184.1 L88.1,184.2 L85.8,185.5 L82.8,188.0 L80.6,191.4 L79.4,196.0 L78.5,201.3 L77.3,204.7 L76.5,208.6 L76.8,214.0 L76.9,218.4 L76.7,222.4 L76.7,226.8 L77.2,230.6 L78.5,234.2 L79.3,235.7 L81.6,238.9 L85.0,240.8 L88.8,241.6 L93.2,241.3 L96.1,240.0 L98.4,238.2 L100.1,236.3 L101.9,233.2 L104.1,228.1 L105.5,222.6 L105.8,217.5 L106.0,213.4 L106.2,207.1 L105.9,203.3 L105.0,199.3 L104.4,196.3 L102.7,191.9 L101.7,189.2 L99.8,187.1 L98.2,185.8 L95.3,184.6 L91.5,184.1 Z" fill="#2f7825" stroke="none"/>
<path d="M-62.2,728.6 L-58.1,727.6 L-53.6,723.3 L-49.4,718.8 L-45.8,713.7 L-42.2,708.1 L-39.6,703.5 L-37.9,697.3 L-36.3,692.9 L-36.5,687.3 L-37.5,682.7 L-39.1,677.5 L-42.2,673.5 L-45.7,670.1 L-50.1,668.5 L-55.1,667.2 L-60.3,667.5 L-64.6,668.2 L-69.2,670.6 L-72.8,674.1 L-75.9,679.0 L-78.1,684.7 L-81.1,690.6 L-83.7,694.9 L-85.4,698.9 L-85.8,704.5 L-84.5,709.7 L-81.7,713.4 L-80.2,717.0 L-77.4,722.0 L-74.6,724.7 L-71.8,726.6 L-68.9,728.0 L-65.9,728.6 L-62.2,728.6 Z" fill="#2f7825" stroke="none"/>
<path d="M154.3,105.4 L151.3,104.6 L148.1,104.5 L145.4,105.1 L142.7,106.4 L139.7,109.5 L136.4,118.9 L136.1,123.2 L137.1,127.3 L139.0,130.5 L141.7,133.8 L144.2,137.3 L147.7,141.4 L150.0,144.9 L150.8,148.9 L151.7,153.9 L153.2,156.4 L156.7,158.2 L159.3,158.9 L162.8,157.9 L164.8,156.7 L166.9,154.7 L168.4,152.5 L169.0,150.0 L169.4,147.2 L168.9,143.4 L169.2,139.8 L169.6,136.8 L170.5,133.6 L171.8,130.4 L173.5,127.4 L173.9,124.9 L173.9,123.0 L172.8,119.7 L171.4,116.6 L168.3,113.9 L163.2,110.7 L159.3,108.0 L154.3,105.4 Z" fill="#2f7825" stroke="none"/>
<path d="M62.4,747.1 L58.5,747.8 L53.6,747.6 L49.8,746.3 L47.5,744.0 L45.6,741.7 L44.1,738.7 L43.5,734.6 L44.1,730.1 L46.1,726.1 L48.7,723.3 L52.9,718.4 L57.0,714.0 L61.5,710.1 L67.2,705.3 L72.2,701.5 L76.3,696.6 L79.6,692.5 L82.8,690.0 L87.3,687.9 L92.1,687.1 L97.2,687.2 L100.2,688.2 L104.2,691.0 L107.3,694.6 L108.8,699.4 L109.4,705.3 L107.9,712.9 L105.6,718.5 L102.8,723.5 L99.7,728.1 L96.0,732.8 L93.0,735.4 L89.4,736.7 L85.8,736.9 L81.4,737.9 L75.7,739.9 L72.0,742.4 L67.0,745.5 L62.4,747.1 Z" fill="#2f7825" stroke="none"/>
<path d="M237.8,71.6 L170.7,475.9 L80.3,728.4" fill="none" stroke="#ffd64a" stroke-width="3.5" stroke-linecap="round" stroke-linejoin="round" opacity="0.95"/>
</svg>