<svg xmlns="http://www.w3.org/2000/svg" viewBox="0 0 800 600" preserveAspectRatio="xMidYMid slice">
<rect width="100%" height="100%" fill="#143018"/>
<path d="M553.3,74.8 L621.7,136.3 L631.7,127.5 L686.7,-28.2 L628.1,-123.1 L615.2,-109.4 L542.0,55.1 L553.3,74.8 Z" fill="#0f2810" stroke="none"/>
<path d="M534.8,-225.2 L555.1,-250.5 L498.6,-311.2 L446.6,-232.7 L458.8,-212.3 L463.8,-194.2 L486.8,-164.1 L482.7,-108.2 L469.6,-80.9 L486.7,-24.4 L487.3,9.5 L479.3,67.9 L507.2,295.8 L581.4,292.6 L601.9,166.5 L501.6,134.5 L485.4,65.3 L534.8,-225.2 Z" fill="#0f2810" stroke="none"/>
<path d="M-279.4,639.5 L-275.9,636.5 L-269.9,637.0 L-265.7,637.9 L-263.4,633.5 L-259.2,631.9 L-253.1,630.9 L-247.1,635.3 L-243.8,637.0 L-238.2,638.1 L-235.0,637.9 L-231.2,637.9 L-226.8,638.4 L-222.6,639.3 L-218.7,640.9 L-215.2,641.2 L-207.3,643.5 L-203.8,645.8 L-193.3,650.5 L-187.9,652.6 L-180.5,653.7 L-173.0,653.0 L-166.1,651.2 L-160.5,646.1 L-155.3,640.2 L-150.2,634.9 L-144.9,630.9 L-141.8,626.5 L-139.7,622.6 L-139.1,619.0 L-138.6,614.4 L-139.5,611.1 L-144.2,606.9 L-148.6,602.3 L-153.9,597.9 L-159.3,593.4 L-164.9,589.7 L-168.6,585.3 L-170.2,578.8 L-168.6,572.7 L-164.2,566.2 L-160.7,559.5 L-161.6,552.3 L-159.0,547.0 L-152.6,545.2 L-146.3,546.9 L-137.2,545.5 L-130.9,544.1 L-124.1,544.5 L-113.2,547.1 L-104.8,549.4 L-90.2,549.0 L-79.2,544.5 L-74.8,540.4 L-71.3,535.9 L-67.6,532.4 L-62.0,529.4 L-57.1,526.4 L-55.5,521.3 L-55.7,514.5 L-56.9,511.5 L-59.9,509.2 L-62.2,506.6 L-61.8,501.2 L-58.0,499.8 L-53.8,500.5 L-46.6,501.7 L-38.2,502.4 L-28.2,507.3 L-27.3,513.8 L-22.9,515.5 L-14.0,513.6 L-6.1,510.6 L0.2,509.9 L3.7,508.0 L4.4,503.1 L6.2,499.1 L9.7,495.7 L9.7,492.6 L9.5,489.4 L10.7,483.8 L11.6,479.6 L10.7,477.3 L6.5,478.2 L0.2,477.3 L-1.7,473.3 L-0.5,469.4 L1.3,465.8 L5.1,463.1 L11.6,460.7 L12.1,457.0 L10.9,453.1 L6.5,451.4 L1.1,454.2 L-4.9,457.0 L-4.7,430.7 L5.3,430.7 L12.3,430.5 L13.8,429.9 L16.3,428.0 L16.2,423.3 L14.6,417.7 L13.2,411.4 L11.1,409.0 L8.1,408.1 L16.7,395.3 L21.4,397.9 L23.9,396.2 L25.3,392.1 L26.0,385.5 L22.0,377.2 L25.3,369.6 L33.9,378.1 L37.9,381.1 L41.4,380.4 L47.0,373.2 L47.7,369.7 L42.8,367.6 L39.5,365.7 L33.9,359.4 L38.7,354.4 L45.6,348.5 L45.8,345.3 L61.2,333.1 L65.6,341.5 L71.9,344.3 L77.2,342.9 L86.6,340.1 L93.3,338.3 L98.7,339.0 L104.2,342.2 L107.5,346.9 L110.8,349.4 L114.0,349.4 L117.7,347.6 L122.2,346.4 L129.2,346.2 L129.6,340.1 L133.8,333.4 L136.8,327.8 L142.9,322.0 L148.5,319.4 L152.0,316.6 L153.1,312.2 L155.7,308.0 L162.0,305.7 L167.3,307.5 L170.4,309.4 L172.0,315.0 L170.8,319.6 L169.9,324.3 L173.4,330.1 L176.4,335.7 L180.1,337.8 L188.3,337.8 L192.0,343.9 L186.0,343.4 L179.4,344.8 L176.9,351.3 L177.1,357.1 L173.2,366.0 L167.8,372.0 L161.0,378.6 L153.8,383.9 L144.3,392.3 L137.3,398.8 L133.3,409.3 L128.7,421.1 L124.3,437.0 L122.2,448.2 L122.2,457.2 L121.7,461.9 L127.1,464.2 L135.0,463.5 L145.0,464.5 L148.9,468.0 L151.0,474.0 L152.4,483.8 L153.8,499.4 L132.7,512.7 L115.7,523.1 L112.3,516.5 L108.9,515.0 L101.7,516.4 L92.4,519.4 L83.5,522.7 L75.1,525.9 L68.4,529.2 L63.7,534.3 L55.8,535.9 L48.4,535.5 L36.7,544.5 L22.8,554.8 L15.1,561.3 L7.2,571.8 L2.3,578.3 L2.5,584.6 L7.4,592.5 L4.6,603.5 L-2.4,618.1 L-9.8,628.4 L-15.4,634.9 L-15.2,620.9 L-17.3,613.9 L-23.1,616.5 L-26.6,622.1 L-33.6,628.6 L-43.6,633.3 L-54.5,640.0 L-58.3,644.7 L-61.3,653.3 L-64.5,660.5 L-64.5,667.9 L-66.9,676.3 L-70.6,683.8 L-74.1,689.8 L-79.7,696.8 L-80.6,701.7 L-78.8,707.5 L-75.3,711.5 L-72.0,716.4 L-67.6,723.4 L-67.6,730.1 L-69.4,735.2 L-71.3,743.6 L-70.6,749.0 L-68.3,752.0 L-62.2,750.4 L-64.1,755.7 L-65.9,762.2 L-68.3,767.4 L-75.0,774.6 L-83.2,777.8 L-88.8,778.8 L-94.6,778.8 L-102.7,777.6 L-110.9,777.8 L-120.0,778.1 L-124.6,770.9 L-121.3,767.8 L-122.1,760.4 L-125.1,757.4 L-131.8,757.1 L-137.2,760.8 L-146.5,753.6 L-143.5,751.5 L-152.8,747.8 L-158.1,744.1 L-163.3,739.0 L-169.1,735.2 L-176.5,733.1 L-182.1,735.7 L-188.6,736.2 L-196.1,730.1 L-208.2,724.3 L-205.9,716.6 L-209.1,710.1 L-218.9,703.8 L-224.5,702.2 L-230.5,701.9 L-238.2,700.5 L-247.8,693.3 L-255.2,691.2 L-261.3,685.9 L-265.0,679.1 L-270.4,672.8 L-276.9,669.8 L-282.2,668.4 L-288.2,667.4 L-279.4,639.5 Z" fill="#2b5a2a" stroke="none"/>
<path d="M225.8,400.4 L366.0,209.5 L360.6,204.1 L360.6,195.0 L363.3,183.3 L364.9,171.0 L365.4,158.1 L367.0,133.0 L364.4,122.8 L362.2,108.4 L359.0,95.0 L357.4,85.9 L354.2,76.8 L347.3,69.3 L339.8,65.1 L330.7,61.9 L323.2,59.7 L317.3,62.4 L310.4,68.8 L303.4,80.6 L299.7,91.8 L293.8,98.2 L287.4,90.7 L278.8,88.1 L269.7,87.5 L261.1,97.2 L266.0,102.5 L265.4,112.1 L272.4,123.9 L281.5,127.1 L285.7,135.7 L285.7,144.8 L276.7,152.8 L267.6,157.6 L259.0,164.0 L251.5,171.5 L248.8,179.5 L248.8,191.3 L249.9,203.0 L246.1,210.3 L240.0,226.5 L238.5,244.8 L235.9,263.6 L234.0,277.2 L226.4,279.5 L226.5,289.7 L227.1,302.4 L213.5,312.7 L209.3,323.9 L212.7,338.7 L218.0,340.8 L220.5,349.3 L221.4,354.5 L220.1,358.8 L215.9,361.4 L210.0,360.1 L204.8,357.8 L207.4,371.9 L216.2,383.6 L225.8,400.4 Z" fill="#2b5a2a" stroke="none"/>
<path d="M-156.8,424.6 L-159.5,420.9 L-159.2,416.0 L-152.8,410.5 L-147.3,403.7 L-138.0,392.7 L-132.5,384.1 L-127.0,374.5 L-113.5,362.9 L-102.1,353.0 L-93.2,348.1 L-83.4,340.8 L-76.9,335.8 L-67.4,330.3 L-56.6,321.1 L-56.6,314.7 L-50.8,310.0 L-39.7,303.0 L-30.2,294.1 L-24.4,287.9 L-20.4,278.4 L-17.6,268.6 L-16.4,264.3 L-17.3,256.9 L-12.4,247.7 L-0.7,244.6 L9.4,241.8 L14.7,240.0 L17.3,238.2 L17.8,231.1 L16.7,224.4 L11.3,220.4 L4.4,215.9 L1.3,212.0 L0.7,208.4 L1.8,204.7 L4.3,202.1 L8.4,199.9 L12.9,200.2 L14.6,201.3 L17.8,206.8 L18.9,209.1 L21.6,211.0 L23.8,211.4 L28.1,213.1 L33.6,214.4 L38.2,215.0 L40.7,214.0 L43.4,212.0 L45.4,209.6 L46.5,205.6 L46.2,203.1 L43.4,200.5 L38.8,196.7 L35.9,193.9 L34.2,191.2 L31.4,186.1 L32.4,182.7 L33.0,179.0 L35.6,176.4 L39.0,174.9 L42.4,174.7 L44.5,174.6 L49.6,177.3 L52.3,181.5 L54.0,185.3 L52.8,190.7 L49.9,195.8 L49.4,199.3 L51.0,202.5 L54.3,204.1 L57.2,204.1 L59.6,202.2 L60.6,200.2 L63.2,197.5 L66.5,197.2 L68.0,198.4 L70.6,201.7 L74.1,203.4 L79.4,205.0 L82.4,205.6 L88.1,205.6 L91.3,204.2 L93.8,202.5 L94.3,199.6 L94.1,196.1 L96.1,193.5 L97.0,192.4 L98.7,187.9 L100.1,184.7 L106.1,186.5 L106.6,196.2 L106.7,208.1 L108.9,215.6 L108.7,223.0 L108.2,231.2 L108.2,239.4 L108.4,243.2 L108.2,245.8 L97.6,249.2 L91.0,248.4 L87.8,251.8 L84.9,256.9 L81.4,264.0 L82.3,268.6 L80.9,272.7 L76.3,274.7 L71.2,275.5 L66.8,275.3 L60.0,276.9 L54.9,276.6 L49.9,278.9 L47.1,280.2 L45.4,283.3 L46.2,286.1 L49.6,286.1 L52.6,286.2 L56.2,286.2 L59.2,287.3 L61.7,290.9 L62.2,294.2 L53.1,300.1 L51.1,297.9 L49.0,298.2 L48.0,300.4 L46.3,302.7 L46.8,305.1 L42.8,307.0 L41.6,303.9 L38.4,303.0 L34.4,305.0 L29.9,308.4 L27.0,311.1 L25.9,316.7 L23.8,319.1 L19.2,318.0 L15.8,320.5 L13.3,324.2 L12.6,328.3 L12.7,332.8 L14.4,336.2 L16.5,339.7 L12.9,343.7 L10.6,340.9 L7.9,342.0 L7.3,345.2 L9.0,348.7 L6.6,351.4 L4.4,348.0 L1.0,347.7 L-1.6,350.3 L-2.5,353.5 L-3.3,359.4 L-4.0,364.3 L-3.7,372.4 L-3.4,378.2 L-2.3,381.0 L-0.0,383.0 L3.0,383.2 L6.9,379.3 L13.9,382.9 L12.2,389.1 L13.5,393.6 L16.7,395.3 L8.1,408.1 L0.6,409.3 L-6.0,412.0 L-11.1,415.6 L-13.6,419.1 L-18.2,426.2 L-19.5,429.7 L-18.8,431.4 L-17.4,431.2 L-11.9,430.9 L-4.7,430.7 L-4.9,457.0 L-7.7,461.9 L-11.9,466.4 L-16.6,467.9 L-21.1,468.1 L-25.5,468.6 L-31.8,468.3 L-34.1,464.1 L-36.9,461.0 L-40.0,459.5 L-44.1,458.7 L-51.3,456.9 L-55.5,457.2 L-56.9,450.1 L-54.6,444.7 L-52.7,440.8 L-50.9,435.4 L-51.5,430.2 L-53.6,428.0 L-57.0,427.1 L-60.3,428.0 L-62.6,428.5 L-64.1,430.3 L-66.1,432.3 L-69.0,433.2 L-71.2,434.2 L-74.2,436.6 L-76.8,439.5 L-78.7,442.4 L-79.3,446.4 L-79.5,450.3 L-78.2,453.8 L-77.0,459.0 L-82.4,462.4 L-87.0,465.5 L-88.2,467.3 L-93.3,463.2 L-92.1,457.8 L-93.0,454.1 L-97.6,451.4 L-101.4,450.0 L-104.5,449.8 L-106.5,450.1 L-108.0,448.6 L-110.3,448.0 L-113.4,448.9 L-115.9,450.3 L-118.5,450.9 L-123.2,448.6 L-127.4,446.4 L-134.6,442.1 L-141.4,436.0 L-147.5,430.2 L-153.0,427.1 L-156.8,424.6 Z" fill="#2b5a2a" stroke="none"/>
<path d="M225.8,400.4 L228.9,406.6 L228.6,411.8 L226.4,417.7 L224.3,422.9 L221.2,429.0 L220.9,432.1 L224.5,438.7 L224.6,444.1 L223.9,450.8 L220.3,455.4 L227.1,453.6 L232.9,454.2 L237.5,458.2 L266.7,456.1 L269.9,450.9 L276.0,461.3 L284.2,470.9 L291.5,480.7 L294.6,488.6 L295.0,498.4 L294.2,508.9 L293.5,521.6 L291.2,530.6 L288.1,538.6 L286.2,548.1 L283.7,553.6 L280.9,558.7 L276.5,561.1 L272.7,555.7 L269.5,546.4 L267.5,537.5 L267.2,532.1 L267.9,524.6 L271.4,518.3 L273.0,512.9 L271.1,508.2 L267.6,506.0 L265.2,500.8 L264.9,496.1 L237.1,484.1 L229.3,589.4 L231.4,588.9 L233.2,589.9 L233.8,594.0 L233.2,618.9 L338.9,600.1 L360.4,556.5 L361.3,546.4 L364.4,541.2 L378.2,518.4 L384.0,508.0 L390.5,496.3 L400.3,486.5 L411.1,472.0 L420.3,457.3 L428.0,441.0 L431.3,430.9 L441.2,396.2 L443.3,380.8 L450.4,369.1 L454.4,363.0 L457.1,354.4 L454.7,347.9 L452.8,341.5 L454.4,333.8 L452.5,326.7 L452.2,312.0 L464.5,306.8 L477.1,311.1 L487.2,302.8 L494.3,296.6 L488.5,290.5 L486.3,276.0 L486.9,261.3 L488.2,251.5 L485.4,242.5 L480.5,234.9 L481.1,225.3 L480.5,217.4 L475.9,210.9 L473.4,206.3 L470.1,203.5 L462.7,200.8 L457.4,198.3 L455.0,191.3 L455.0,180.5 L455.3,171.6 L457.1,159.3 L463.3,151.0 L468.5,141.8 L470.7,131.3 L464.2,120.3 L464.5,100.6 L468.8,85.6 L471.6,73.0 L471.0,52.4 L476.2,40.4 L476.5,24.8 L476.2,14.3 L480.8,0.5 L481.7,-13.3 L482.6,-24.1 L477.1,-31.2 L470.1,-36.7 L465.1,-40.4 L457.1,-41.6 L452.5,-39.1 L450.1,-33.9 L452.2,-26.9 L452.8,-20.4 L452.8,-15.2 L447.9,-13.3 L443.3,-18.0 L427.0,54.9 L434.7,57.6 L439.0,60.4 L443.0,66.8 L442.7,71.5 L439.3,73.9 L432.3,73.9 L428.0,76.7 L424.3,82.5 L423.0,91.1 L427.0,97.9 L431.0,107.4 L434.7,114.5 L431.3,126.4 L426.1,135.0 L419.7,147.9 L412.6,161.8 L408.3,167.0 L401.2,171.0 L398.2,180.5 L389.6,193.7 L381.9,202.0 L376.0,206.6 L366.0,209.5 L225.8,400.4 Z" fill="#2b5a2a" stroke="none"/>
<path d="M190.1,702.0 L192.6,697.4 L195.5,693.9 L200.9,690.9 L207.1,689.7 L211.3,687.6 L214.3,684.9 L217.9,680.5 L220.5,676.1 L224.7,671.3 L229.3,668.2 L231.4,667.1 L239.6,666.7 L244.0,666.7 L251.6,666.9 L261.6,666.9 L278.0,649.8 L314.2,629.0 L338.9,600.1 L233.2,618.9 L230.2,621.0 L226.2,621.4 L221.2,620.7 L220.3,624.6 L218.4,627.8 L215.0,628.6 L210.1,628.3 L207.4,626.0 L193.4,630.4 L190.3,638.2 L189.3,643.6 L186.3,649.6 L180.6,652.5 L178.5,654.7 L177.5,658.5 L178.2,663.4 L176.3,667.7 L190.1,702.0 Z" fill="#2b5a2a" stroke="none"/>
<path d="M109.0,109.8 L118.5,119.7 L119.5,120.7 L122.0,123.4 L125.2,124.8 L135.1,123.2 L149.2,119.7 L165.1,116.5 L172.5,115.1 L178.5,113.0 L189.8,118.6 L204.3,122.2 L210.3,122.5 L211.3,130.6 L208.9,137.0 L207.1,145.1 L213.1,152.2 L222.6,155.0 L227.2,155.3 L233.2,146.9 L239.6,138.4 L242.0,134.2 L242.4,128.2 L239.6,121.8 L235.0,116.5 L231.4,114.4 L241.7,107.4 L250.1,101.4 L255.8,98.2 L261.1,97.2 L269.7,87.5 L259.3,84.1 L261.8,77.0 L272.4,69.6 L281.2,58.0 L288.3,48.4 L292.8,36.8 L298.8,26.5 L304.8,18.1 L308.7,11.7 L314.4,10.3 L325.7,10.7 L330.2,7.8 L335.8,11.3 L357.1,-15.6 L347.9,-20.0 L344.4,-22.5 L348.2,-27.8 L356.0,-35.2 L362.7,-38.0 L368.0,-45.1 L373.3,-47.2 L377.2,-49.0 L380.7,-52.9 L380.7,-57.8 L378.6,-63.8 L378.6,-69.8 L382.1,-74.0 L383.9,-80.4 L384.6,-91.3 L387.4,-99.4 L390.2,-106.8 L394.8,-110.7 L400.5,-115.7 L405.8,-117.8 L412.8,-122.4 L416.0,-126.6 L428.7,-141.4 L434.0,-148.8 L438.6,-151.7 L442.8,-148.9 L453.7,-158.9 L452.0,-165.8 L455.5,-165.8 L459.4,-162.9 L465.8,-160.1 L473.2,-159.4 L476.0,-162.6 L477.4,-167.2 L474.2,-172.5 L468.6,-176.3 L459.4,-183.8 L454.5,-191.5 L452.0,-197.2 L445.3,-218.3 L441.4,-231.0 L435.4,-243.4 L429.4,-250.4 L425.5,-252.2 L418.5,-252.2 L411.1,-248.3 L405.1,-239.2 L401.9,-233.2 L395.2,-223.6 L389.2,-219.4 L379.3,-212.0 L374.4,-207.0 L373.3,-197.5 L371.2,-186.6 L362.0,-175.7 L351.1,-168.6 L344.4,-160.1 L338.4,-151.7 L327.1,-140.7 L310.1,-125.5 L298.8,-113.9 L283.0,-97.7 L274.5,-91.0 L267.1,-81.1 L254.4,-72.6 L239.6,-57.8 L236.4,-47.2 L226.5,-37.7 L218.4,-26.0 L208.9,-13.0 L195.1,-2.0 L183.4,14.5 L164.0,33.9 L148.5,51.9 L139.0,62.9 L130.9,73.1 L124.9,81.9 L118.9,87.9 L112.5,92.9 L107.9,98.2 L107.9,104.2 L109.0,109.8 Z" fill="#2b5a2a" stroke="none"/>
<path d="M167.6,258.3 L165.4,256.8 L161.6,257.6 L158.2,259.1 L153.6,259.6 L148.7,257.3 L145.0,252.7 L144.4,248.5 L145.9,244.6 L149.2,241.6 L151.7,239.5 L153.3,236.7 L154.1,232.4 L154.5,228.2 L152.6,225.2 L148.3,223.8 L148.9,220.4 L152.0,213.7 L155.2,214.4 L157.7,213.2 L159.3,211.1 L161.4,207.2 L163.5,205.8 L167.2,204.5 L170.9,204.7 L175.5,206.3 L177.8,207.9 L180.4,208.6 L182.6,208.2 L176.4,215.5 L173.2,224.5 L170.7,233.8 L169.7,243.7 L168.4,254.3 L167.6,258.3 Z" fill="#2b5a2a" stroke="none"/>
<path d="M195.7,198.6 L200.1,200.6 L205.4,202.5 L209.8,203.6 L213.8,200.0 L217.2,194.7 L218.4,191.4 L218.6,188.4 L218.4,186.6 L216.1,183.8 L213.3,182.6 L208.7,182.4 L205.0,182.4 L202.0,185.6 L199.4,188.9 L197.8,192.3 L195.7,198.6 Z" fill="#2b5a2a" stroke="none"/>
<path d="M78.8,154.6 L81.3,153.7 L86.0,152.1 L88.1,147.2 L88.1,137.6 L83.4,135.1 L79.7,135.3 L69.7,143.2 L69.0,150.0 L72.7,152.0 L76.8,153.9 L78.8,154.6 Z" fill="#2b5a2a" stroke="none"/>
<path d="M13.9,382.9 L22.0,377.2 L25.3,369.6 L33.9,359.4 L38.7,354.4 L45.6,348.5 L45.8,345.3 L61.2,333.1 L69.3,326.1 L70.9,320.4 L68.0,310.8 L64.2,305.7 L62.2,294.2 L53.1,300.1 L54.1,307.1 L50.6,309.5 L46.8,305.1 L42.8,307.0 L43.1,317.8 L36.1,325.8 L31.6,327.1 L28.1,323.9 L25.9,316.7 L23.8,319.1 L25.4,327.4 L29.2,332.2 L30.0,337.6 L25.4,341.0 L21.2,341.6 L16.5,339.7 L12.9,343.7 L15.8,348.5 L15.8,352.5 L12.1,353.1 L9.0,348.7 L6.6,351.4 L10.7,360.8 L10.2,364.8 L8.6,373.9 L6.9,379.3 L13.9,382.9 Z" fill="#2b5a2a" stroke="none"/>
<path d="M237.1,484.1 L241.9,480.9 L245.0,474.7 L245.2,468.0 L243.7,462.9 L237.5,458.2 L266.7,456.1 L264.2,466.9 L265.6,471.8 L268.0,474.5 L270.3,479.4 L270.3,484.3 L269.4,489.2 L267.4,492.6 L264.9,496.1 L237.1,484.1 Z" fill="#2b5a2a" stroke="none"/>
<path d="M357.1,-15.6 L362.7,-14.3 L365.8,-10.0 L370.0,-7.5 L375.5,-6.9 L380.9,-8.1 L386.5,-11.6 L389.4,-15.0 L391.4,-21.1 L392.7,-27.5 L396.6,-32.5 L401.3,-38.3 L403.6,-43.6 L406.7,-46.5 L412.9,-48.4 L418.9,-51.0 L422.2,-54.8 L422.4,-59.1 L420.7,-64.5 L422.6,-68.4 L426.1,-73.5 L430.0,-78.7 L433.1,-81.4 L435.4,-85.1 L436.8,-90.0 L436.4,-93.1 L437.2,-97.5 L438.0,-100.5 L440.5,-108.2 L443.0,-112.9 L445.1,-119.3 L445.1,-125.3 L445.9,-136.0 L446.9,-142.4 L445.1,-146.4 L442.8,-148.9 L453.7,-158.9 L454.1,-155.4 L451.0,-151.3 L450.8,-148.6 L453.3,-146.3 L457.6,-142.7 L461.1,-139.3 L464.0,-134.0 L465.3,-128.4 L468.6,-124.1 L471.2,-117.5 L470.8,-111.3 L468.6,-105.3 L464.6,-98.5 L459.9,-90.9 L458.9,-85.7 L460.1,-82.2 L459.1,-77.2 L455.8,-71.3 L455.6,-66.3 L453.9,-61.6 L450.8,-58.3 L447.7,-50.8 L442.0,-44.4 L438.4,-37.0 L437.0,-28.6 L439.5,-22.0 L443.3,-18.0 L427.0,54.9 L422.2,56.8 L417.0,61.6 L411.8,68.0 L406.1,73.2 L400.3,75.6 L394.7,75.0 L390.6,70.7 L386.3,65.9 L382.8,62.8 L372.9,57.7 L368.5,53.3 L364.2,47.4 L360.3,41.4 L357.2,35.4 L352.8,31.7 L349.5,30.0 L345.6,30.9 L341.7,33.7 L339.2,24.1 L340.5,19.3 L340.0,14.8 L335.8,11.3 L357.1,-15.6 Z" fill="#2b5a2a" stroke="none"/>
<path d="M44.4,271.4 L51.7,268.0 L56.2,265.5 L62.6,262.1 L71.1,257.5 L76.3,253.1 L80.3,247.2 L83.8,241.2 L88.9,236.2 L91.7,230.6 L91.3,225.5 L88.9,219.8 L85.3,214.3 L79.4,208.3 L73.9,205.4 L68.2,204.7 L58.0,209.1 L52.5,212.3 L47.0,218.0 L42.4,223.6 L38.2,228.8 L35.2,229.8 L32.6,231.8 L29.3,235.2 L25.9,238.3 L21.1,241.5 L17.6,246.8 L11.5,250.8 L5.3,253.8 L3.0,258.0 L3.0,262.5 L4.6,265.8 L4.5,269.6 L1.9,271.9 L-0.2,274.4 L-2.6,275.5 L-5.4,277.1 L-7.8,277.8 L-9.7,278.4 L-12.3,280.6 L-13.6,283.4 L-15.6,288.9 L-18.2,293.7 L-22.1,298.8 L-26.8,303.8 L-30.8,307.2 L-36.4,312.2 L-43.7,318.5 L-50.1,323.6 L-56.8,328.7 L-66.9,335.1 L-77.5,343.8 L-88.4,354.9 L-99.2,364.7 L-109.2,374.7 L-119.5,384.7 L-127.5,392.2 L-133.7,399.8 L-138.2,407.7 L-141.8,415.8 L-142.0,422.0 L-141.1,427.0 L-138.8,431.3 L-135.0,436.0 L-131.2,438.7 L-126.1,440.3 L-119.5,441.0 L-112.3,441.2 L-105.2,441.0 L-98.2,439.6 L-90.7,436.9 L-83.5,433.6 L-75.6,428.6 L-66.6,423.1 L-58.5,420.0 L-49.6,417.0 L-41.8,414.2 L-33.5,410.3 L-26.5,404.5 L-20.7,398.0 L-16.0,391.1 L-12.8,383.8 L-9.9,374.3 L-8.5,364.1 L-6.0,349.8 L-3.2,341.4 L0.4,331.8 L3.7,323.7 L5.4,320.2 L6.6,318.7 L9.7,317.3 L14.3,315.3 L18.7,312.5 L22.4,309.5 L25.5,305.0 L28.0,301.0 L30.6,295.5 L32.3,289.4 L33.2,283.3 L33.8,279.8 L36.2,276.2 L40.1,273.8 L44.4,271.4 Z" fill="#5a9540" stroke="none"/>
<path d="M591.1,60.5 L602.6,51.9 L610.5,35.1 L612.1,27.7 L611.7,13.9 L612.6,1.0 L616.2,-10.7 L619.5,-25.5 L619.1,-27.7 L612.6,-28.9 L603.5,-21.2 L594.5,-6.9 L581.8,13.2 L571.0,19.9 L566.0,31.8 L564.6,43.7 L591.1,60.5 Z" fill="#5a9540" stroke="none"/>
<path d="M-229.7,683.9 L-238.1,681.8 L-246.6,679.7 L-253.1,679.8 L-259.6,677.4 L-263.2,672.3 L-265.3,667.8 L-265.2,663.7 L-264.1,659.7 L-259.6,655.5 L-254.2,653.1 L-250.2,652.1 L-243.6,651.7 L-236.1,651.6 L-230.0,649.4 L-227.7,647.3 L-221.0,644.3 L-216.1,644.6 L-212.0,646.1 L-208.2,648.7 L-200.6,651.8 L-188.7,655.6 L-183.5,661.0 L-173.8,664.0 L-163.6,663.5 L-157.9,660.9 L-151.9,657.3 L-143.0,651.5 L-138.4,644.8 L-131.4,637.5 L-126.9,631.2 L-121.3,628.2 L-118.3,625.1 L-116.6,622.4 L-115.2,619.4 L-115.9,617.1 L-117.5,614.0 L-118.6,611.1 L-121.2,607.4 L-124.1,602.4 L-129.9,594.3 L-138.8,583.3 L-144.8,573.8 L-145.1,568.1 L-143.1,563.3 L-140.4,558.3 L-134.8,555.6 L-129.2,554.4 L-124.0,553.9 L-117.7,555.5 L-111.3,558.0 L-102.6,560.6 L-97.2,564.7 L-93.2,569.7 L-86.6,573.6 L-84.3,574.3 L-82.8,574.7 L-81.3,574.0 L-78.0,572.1 L-74.1,569.2 L-67.3,562.4 L-62.4,556.7 L-57.7,551.3 L-52.7,546.4 L-44.6,540.9 L-33.9,534.7 L-19.9,528.1 L-6.5,522.5 L4.2,518.5 L8.1,517.7 L12.1,517.2 L15.9,516.8 L18.6,516.1 L21.1,514.8 L23.3,513.3 L25.7,511.1 L26.8,508.7 L27.3,506.2 L27.6,502.1 L27.9,497.1 L28.1,492.7 L28.5,486.1 L28.8,478.7 L29.1,472.2 L29.5,461.4 L30.3,452.6 L31.5,444.2 L33.4,435.5 L36.6,427.0 L40.4,420.3 L45.7,411.2 L51.3,401.3 L57.0,389.6 L60.9,381.2 L65.6,373.4 L72.0,366.6 L78.5,362.1 L85.6,358.1 L92.9,355.1 L101.0,354.5 L109.6,355.9 L115.4,357.0 L122.9,356.8 L129.1,356.2 L134.9,355.9 L141.6,357.1 L147.7,359.3 L152.1,362.1 L155.5,365.6 L157.1,368.8 L157.5,371.8 L156.7,374.9 L152.9,379.0 L148.2,383.8 L142.9,389.0 L137.6,395.2 L132.4,402.1 L128.2,409.9 L123.2,420.5 L119.8,430.2 L117.3,440.3 L114.8,449.7 L112.7,462.1 L110.9,475.7 L108.5,485.8 L105.5,493.1 L101.2,500.9 L95.4,508.3 L89.8,513.4 L81.0,518.5 L68.7,523.7 L57.2,527.3 L48.1,529.5 L41.0,531.8 L34.9,536.7 L29.2,542.6 L23.3,549.1 L16.6,556.8 L9.5,565.7 L0.8,576.3 L-5.9,583.3 L-12.5,588.0 L-20.9,592.5 L-28.2,596.6 L-37.4,601.4 L-45.5,606.4 L-51.3,611.6 L-55.8,618.2 L-61.1,627.8 L-65.9,635.8 L-71.5,644.0 L-78.7,651.9 L-86.1,658.8 L-93.6,665.7 L-99.3,671.2 L-105.7,676.6 L-112.3,681.7 L-118.5,686.2 L-126.1,691.1 L-132.8,695.8 L-140.4,705.1 L-151.7,712.9 L-160.2,713.9 L-171.4,714.1 L-177.4,711.7 L-186.3,706.3 L-195.6,700.7 L-203.3,695.3 L-209.0,692.0 L-215.1,689.0 L-229.7,683.9 Z" fill="#5a9540" stroke="none"/>
<path d="M300.2,525.7 L300.4,511.1 L300.5,487.9 L310.4,470.8 L312.7,471.4 L315.1,471.3 L317.7,470.7 L320.4,468.0 L323.4,464.1 L323.6,459.5 L321.0,455.4 L317.3,453.4 L312.2,452.1 L307.4,454.4 L309.4,421.2 L319.3,416.0 L326.0,409.4 L331.1,401.5 L332.8,395.5 L330.2,391.5 L323.3,389.3 L313.5,389.1 L304.0,390.8 L297.5,394.9 L291.6,400.9 L276.4,408.2 L252.1,354.5 L242.8,328.8 L244.1,305.8 L249.0,287.1 L256.4,262.8 L258.6,227.6 L264.4,199.9 L272.7,177.9 L290.9,149.7 L301.1,129.5 L308.2,97.4 L318.0,77.2 L329.7,70.7 L344.9,74.3 L350.9,88.8 L357.0,108.4 L361.4,138.2 L360.9,155.9 L354.4,178.6 L343.2,204.8 L315.8,257.4 L309.2,269.9 L301.0,274.1 L293.5,279.1 L286.9,292.1 L286.1,323.6 L284.7,336.0 L285.8,348.0 L290.2,354.5 L300.6,357.0 L317.8,352.3 L332.3,345.9 L351.3,333.1 L365.2,306.7 L374.3,285.9 L381.7,272.5 L388.0,266.7 L398.9,260.0 L405.1,252.9 L410.4,239.9 L414.1,221.0 L416.3,210.1 L421.0,200.5 L427.3,196.9 L434.2,197.1 L442.3,200.8 L449.3,206.7 L455.2,215.6 L459.7,234.1 L465.0,272.1 L464.9,284.5 L460.8,292.4 L449.6,302.1 L442.7,316.7 L443.1,330.4 L441.6,347.8 L434.4,375.7 L417.6,435.7 L394.7,479.9 L382.0,487.2 L373.1,487.7 L352.6,488.4 L339.9,490.8 L333.9,496.2 L332.1,504.8 L334.9,511.8 L339.7,517.5 L348.5,523.1 L353.5,528.1 L355.6,539.7 L355.5,547.0 L356.3,555.3 L355.8,565.3 L352.1,571.5 L348.6,578.3 L346.4,584.0 L342.7,588.4 L339.3,590.1 L334.7,589.4 L332.4,587.4 L329.3,587.9 L324.1,589.6 L321.6,592.0 L319.3,595.5 L313.3,600.9 L307.7,603.6 L301.1,604.6 L293.5,603.5 L290.5,600.6 L288.6,596.4 L286.4,589.6 L286.4,582.7 L287.6,579.0 L291.0,572.7 L299.2,567.0 L301.9,561.2 L300.4,556.0 L296.0,551.1 L293.0,545.8 L292.3,539.8 L294.3,533.8 L298.6,529.3 L300.2,525.7 Z" fill="#5a9540" stroke="none"/>
<path d="M310.4,470.8 L307.6,468.0 L305.8,464.3 L305.4,459.2 L307.4,454.4 L309.4,421.2 L302.7,423.7 L295.6,423.7 L291.2,418.6 L289.6,409.4 L291.6,400.9 L276.4,408.2 L288.3,440.5 L296.4,461.0 L299.1,472.8 L301.2,478.7 L300.5,487.9 L310.4,470.8 Z" fill="#5a9540" stroke="none"/>
<path d="M428.9,-9.6 L429.8,-18.0 L431.1,-25.4 L429.1,-32.6 L425.9,-34.4 L417.8,-30.1 L412.2,-28.1 L405.4,-24.7 L400.9,-19.6 L398.9,-15.3 L396.6,-10.8 L393.0,-6.2 L386.7,-1.7 L382.6,-0.4 L377.0,1.6 L368.6,3.1 L363.5,8.9 L363.2,14.1 L363.2,19.7 L363.9,25.3 L365.9,30.1 L367.7,35.5 L369.5,41.4 L372.1,48.8 L374.2,54.0 L377.0,58.0 L379.0,59.8 L385.2,63.5 L388.8,65.8 L391.0,69.3 L394.9,70.4 L398.6,70.5 L401.5,69.2 L404.6,66.6 L407.1,63.7 L409.6,59.1 L413.1,54.6 L416.3,51.8 L420.7,48.9 L424.2,44.8 L425.9,40.8 L427.9,35.8 L429.1,29.4 L429.7,25.1 L430.3,15.2 L429.7,7.7 L428.7,-0.5 L428.9,-9.6 Z" fill="#5a9540" stroke="none"/>
<path d="M239.3,67.4 L252.7,58.9 L261.6,51.8 L269.2,43.7 L279.9,32.6 L287.5,22.3 L294.2,12.5 L304.4,3.2 L316.9,-7.1 L330.3,-20.0 L343.2,-32.0 L350.3,-38.2 L357.1,-42.9 L363.6,-48.2 L366.5,-51.7 L369.8,-57.9 L370.9,-65.8 L363.6,-76.7 L362.4,-84.3 L365.1,-94.3 L373.9,-102.3 L384.5,-110.2 L397.4,-122.0 L405.4,-124.6 L412.1,-131.1 L417.7,-137.3 L422.7,-145.2 L426.5,-152.0 L434.8,-160.5 L441.2,-167.0 L444.2,-174.4 L445.7,-180.5 L446.3,-187.6 L444.2,-193.8 L441.8,-196.7 L440.4,-215.5 L440.1,-225.2 L436.2,-236.1 L432.1,-242.9 L424.2,-247.3 L418.6,-247.3 L412.4,-243.8 L408.0,-238.5 L405.9,-230.8 L401.8,-216.7 L401.8,-209.3 L398.0,-202.0 L393.9,-198.5 L386.2,-193.2 L378.3,-187.3 L373.9,-181.4 L369.5,-174.4 L361.5,-168.8 L354.2,-162.0 L346.5,-155.2 L337.4,-144.3 L321.8,-129.3 L314.2,-122.3 L305.0,-113.2 L292.1,-99.9 L281.2,-89.9 L272.4,-80.5 L259.4,-69.0 L251.2,-58.5 L242.4,-50.5 L236.2,-38.4 L223.3,-23.4 L211.8,-11.1 L199.1,1.3 L190.3,13.6 L178.8,28.0 L170.3,38.0 L159.1,47.4 L146.5,60.7 L137.1,71.3 L132.9,78.9 L131.8,90.4 L134.4,97.8 L143.0,101.9 L156.2,99.5 L168.5,94.2 L188.0,86.9 L208.6,79.5 L224.7,73.0 L239.3,67.4 Z" fill="#5a9540" stroke="none"/>
<path d="M218.8,561.6 L217.2,562.4 L216.5,563.7 L215.5,564.8 L213.9,565.6 L212.0,566.5 L210.3,567.6 L208.9,569.5 L209.1,571.6 L210.0,573.7 L211.1,575.1 L212.9,575.7 L215.2,574.9 L217.0,574.6 L218.3,575.0 L219.5,575.5 L220.6,575.1 L222.0,573.8 L222.0,572.0 L222.3,570.5 L222.8,568.6 L223.5,567.6 L223.6,566.0 L223.6,564.5 L222.9,563.4 L221.9,562.3 L220.5,561.7 L218.8,561.6 Z" fill="#e7d6a3" stroke="none"/>
<path d="M229.5,524.6 L228.6,524.7 L227.8,525.2 L227.1,526.0 L226.8,527.1 L226.8,527.9 L227.7,528.5 L229.0,529.3 L230.3,530.3 L231.3,531.1 L231.9,531.8 L232.8,532.7 L234.2,533.3 L235.5,533.3 L236.2,532.9 L236.8,532.1 L237.2,531.3 L237.2,530.1 L236.8,529.4 L235.9,528.5 L234.5,527.6 L233.2,526.9 L232.1,526.2 L231.0,525.6 L230.3,525.1 L229.5,524.6 Z" fill="#e7d6a3" stroke="none"/>
<path d="M213.1,505.8 L211.2,505.7 L209.5,506.0 L207.6,506.6 L206.7,507.8 L206.8,509.9 L209.0,510.9 L211.6,511.3 L213.5,511.3 L214.9,511.1 L215.9,510.0 L215.9,508.3 L215.2,507.0 L214.3,506.1 L213.1,505.8 Z" fill="#e7d6a3" stroke="none"/>
<path d="M194.6,507.9 L193.4,507.2 L192.3,506.6 L191.4,506.2 L190.2,505.8 L189.0,505.7 L188.3,506.0 L187.8,506.5 L188.0,507.2 L188.5,508.1 L189.7,509.5 L190.7,510.6 L191.9,511.2 L193.1,511.8 L194.5,511.9 L195.6,511.6 L196.1,510.8 L196.1,509.9 L195.7,508.8 L194.6,507.9 Z" fill="#e7d6a3" stroke="none"/>
<path d="M163.7,521.8 L165.1,522.1 L166.3,522.7 L167.7,522.9 L169.0,522.5 L170.6,523.1 L172.3,523.4 L174.0,523.4 L175.1,523.1 L176.2,522.8 L177.4,523.1 L177.9,524.2 L178.5,525.6 L178.9,526.8 L178.6,527.8 L178.0,528.5 L177.0,529.5 L176.3,530.7 L176.0,531.7 L175.0,532.1 L174.7,533.0 L175.0,533.8 L176.2,534.7 L176.3,535.8 L175.5,537.2 L174.5,538.4 L173.2,539.2 L172.0,539.4 L170.5,539.3 L169.2,538.7 L168.1,538.0 L167.4,537.2 L167.5,536.3 L167.8,535.1 L168.1,534.2 L168.2,532.9 L167.5,532.2 L166.2,531.1 L164.7,530.4 L163.4,529.5 L162.8,529.0 L162.8,527.8 L162.3,527.1 L161.4,526.6 L160.4,525.6 L160.4,524.7 L160.5,523.4 L161.4,522.6 L162.4,522.0 L163.7,521.8 Z" fill="#e7d6a3" stroke="none"/>
<path d="M292.5,288.9 L292.6,289.5 L292.7,290.1 L293.0,290.7 L293.4,291.4 L293.7,292.0 L294.1,292.5 L294.3,293.1 L294.4,294.0 L294.0,294.9 L293.5,295.7 L293.0,296.4 L292.5,297.3 L292.1,298.2 L291.8,299.2 L291.6,300.4 L291.8,301.1 L292.6,301.4 L293.4,301.3 L293.8,301.0 L294.2,300.2 L294.6,299.2 L295.0,298.4 L295.5,297.5 L296.0,296.9 L296.6,296.3 L297.2,295.6 L297.8,294.6 L298.1,293.7 L298.4,292.5 L298.5,291.0 L298.6,289.8 L298.5,288.7 L298.1,287.9 L297.4,287.5 L296.0,287.1 L294.8,286.9 L294.2,286.9 L293.6,286.9 L293.1,286.9 L292.6,287.1 L292.3,287.5 L292.2,288.0 L292.3,288.5 L292.5,288.9 Z" fill="#e7d6a3" stroke="none"/>
<path d="M306.3,271.9 L305.5,271.9 L304.7,272.1 L303.7,272.4 L303.5,273.2 L303.3,274.4 L302.4,274.7 L301.4,274.7 L299.9,275.2 L299.1,276.0 L298.7,277.1 L298.7,278.2 L299.0,279.4 L299.4,281.3 L299.6,282.4 L299.8,283.4 L300.0,284.3 L300.2,285.4 L300.2,286.4 L300.4,287.5 L301.3,287.9 L303.2,288.0 L305.0,287.9 L306.6,287.9 L309.3,287.6 L311.3,287.3 L313.4,287.0 L315.6,286.3 L317.0,285.6 L318.1,284.6 L319.1,283.3 L319.5,282.0 L320.0,280.9 L320.3,279.8 L320.5,278.1 L320.7,276.5 L320.9,274.9 L320.6,273.6 L320.0,272.7 L319.6,272.4 L319.0,272.3 L318.3,272.3 L317.8,272.6 L317.7,273.4 L317.3,274.4 L316.7,275.1 L315.4,275.2 L313.8,275.3 L312.1,275.0 L310.3,274.7 L309.2,274.3 L308.2,273.4 L307.7,272.8 L307.1,272.3 L306.3,271.9 Z" fill="#e7d6a3" stroke="none"/>
<path d="M107.2,331.0 L106.2,332.3 L105.6,334.8 L105.2,337.1 L105.0,339.6 L105.6,340.6 L107.0,341.1 L108.3,341.8 L109.0,342.8 L109.5,344.2 L110.6,344.9 L112.8,345.3 L114.4,345.3 L115.5,344.9 L116.2,343.8 L116.2,342.2 L115.5,340.9 L114.4,339.8 L113.8,338.9 L112.8,337.4 L112.2,335.5 L111.3,333.9 L110.7,332.6 L109.8,331.5 L108.7,331.0 L107.2,331.0 Z" fill="#e7d6a3" stroke="none"/>
<path d="M48.2,355.0 L46.4,355.4 L43.6,356.9 L42.0,359.2 L40.8,361.7 L40.7,363.0 L41.3,363.9 L42.4,364.4 L44.2,365.0 L45.3,365.8 L45.6,367.4 L45.5,370.0 L45.4,372.3 L45.0,373.8 L44.6,375.7 L45.3,377.1 L46.5,377.3 L47.7,376.8 L48.7,375.3 L49.3,373.8 L49.7,372.4 L49.9,370.8 L50.1,369.2 L50.3,367.7 L50.5,366.5 L50.8,365.1 L51.0,363.9 L51.2,362.4 L51.3,361.1 L51.3,359.7 L51.3,358.3 L51.2,356.9 L50.9,356.1 L50.4,355.2 L49.4,354.8 L48.2,355.0 Z" fill="#e7d6a3" stroke="none"/>
<path d="M366.3,-88.2 L366.7,-87.1 L367.1,-86.2 L367.0,-84.7 L366.1,-83.6 L365.8,-81.8 L365.8,-79.0 L366.4,-77.5 L367.8,-77.5 L369.4,-77.9 L371.2,-79.2 L372.9,-81.4 L374.5,-83.5 L375.6,-85.5 L375.8,-87.8 L375.0,-89.0 L373.7,-90.1 L373.0,-91.6 L373.5,-92.7 L374.2,-93.5 L374.5,-94.6 L373.9,-94.9 L372.8,-94.9 L371.6,-94.2 L370.2,-93.4 L369.1,-92.5 L367.9,-91.6 L366.8,-90.3 L366.3,-89.3 L366.3,-88.2 Z" fill="#e7d6a3" stroke="none"/>
<path d="M457.0,148.5 L459.2,151.8 L462.5,155.6 L462.8,162.6 L461.6,170.0 L459.7,167.3 L456.5,164.2 L453.0,159.7 L450.6,153.5 L452.5,149.4 L457.0,148.5 Z" fill="#e7d6a3" stroke="none"/>
<path d="M432.7,154.1 L432.2,157.0 L433.7,159.6 L439.6,159.4 L440.4,155.8 L440.4,153.2 L436.1,151.5 L432.7,154.1 Z" fill="#e7d6a3" stroke="none"/>
<path d="M466.8,331.9 L470.0,331.9 L470.6,327.2 L468.8,323.3 L464.4,323.3 L464.4,327.4 L466.8,331.9 Z" fill="#e7d6a3" stroke="none"/>
<path d="M458.0,325.3 L452.7,319.1 L450.3,311.8 L451.2,307.6 L457.7,304.7 L467.1,304.1 L472.4,304.4 L471.8,310.0 L475.3,313.8 L473.5,316.2 L460.0,311.2 L457.1,313.5 L459.4,321.8 L458.0,325.3 Z" fill="#e7d6a3" stroke="none"/>
<path d="M340.0,495.9 L341.7,497.2 L344.9,497.0 L346.5,494.9 L346.5,491.6 L344.0,490.2 L340.7,491.4 L340.1,493.7 L340.0,495.9 Z" fill="#e7d6a3" stroke="none"/>
<path d="M286.3,564.7 L289.8,565.7 L293.7,564.3 L296.5,563.1 L299.1,561.0 L299.3,558.7 L299.0,556.9 L297.7,555.9 L296.1,555.6 L294.4,555.9 L293.4,556.7 L292.0,557.8 L290.9,558.7 L289.0,558.9 L287.0,559.1 L286.0,559.9 L285.0,561.1 L284.9,562.7 L286.3,564.7 Z" fill="#e7d6a3" stroke="none"/>
<path d="M283.2,583.1 L286.1,580.9 L285.4,577.1 L283.5,573.3 L278.5,570.4 L277.5,576.8 L277.8,581.6 L278.9,583.1 L283.2,583.1 Z" fill="#e7d6a3" stroke="none"/>
<path d="M175.7,643.5 L180.3,639.9 L180.5,635.0 L175.9,632.5 L175.4,628.0 L179.7,622.5 L179.1,617.1 L175.0,615.4 L166.5,631.4 L166.5,636.5 L169.1,638.2 L173.1,637.2 L173.3,642.1 L175.7,643.5 Z" fill="#e7d6a3" stroke="none"/>
<path d="M369.2,533.4 L371.1,531.7 L371.5,528.9 L372.5,526.9 L374.5,525.3 L375.9,523.5 L376.7,521.6 L375.8,520.3 L373.9,520.5 L372.1,522.1 L370.1,523.4 L369.4,525.4 L369.4,526.5 L368.8,528.3 L367.5,529.6 L366.8,530.9 L366.8,532.5 L367.7,533.4 L369.2,533.4 Z" fill="#e7d6a3" stroke="none"/>
<path d="M289.7,-62.8 L290.8,-64.4 L292.0,-65.8 L293.6,-67.2 L294.9,-68.8 L295.2,-70.8 L294.0,-72.0 L292.7,-72.6 L290.6,-72.4 L288.6,-71.3 L286.7,-69.8 L284.9,-69.0 L283.7,-68.3 L283.0,-67.1 L283.7,-65.6 L284.3,-64.3 L285.8,-63.1 L286.5,-62.5 L287.8,-62.3 L289.7,-62.8 Z" fill="#e7d6a3" stroke="none"/>
<path d="M336.2,-50.0 L337.1,-51.9 L339.0,-53.9 L341.2,-55.6 L342.3,-57.3 L342.3,-59.4 L342.2,-61.0 L341.3,-62.2 L339.4,-62.7 L337.5,-61.5 L335.5,-59.5 L333.5,-58.6 L332.3,-57.8 L331.4,-56.0 L331.1,-54.2 L331.6,-51.7 L331.9,-50.6 L332.9,-49.6 L334.0,-49.3 L334.8,-49.2 L336.2,-50.0 Z" fill="#e7d6a3" stroke="none"/>
<path d="M316.2,127.0 L318.1,124.6 L319.0,123.6 L319.6,121.9 L320.1,120.0 L320.5,118.3 L320.6,116.2 L320.1,114.6 L319.6,113.3 L318.8,112.4 L317.4,112.5 L316.2,113.2 L314.6,113.3 L313.6,113.3 L313.0,114.1 L312.8,116.5 L312.2,117.5 L312.2,118.7 L312.6,120.3 L312.2,122.0 L311.5,123.4 L311.6,125.3 L312.2,126.7 L312.9,127.5 L314.3,127.8 L316.2,127.0 Z" fill="#e7d6a3" stroke="none"/>
<path d="M377.9,52.2 L378.9,53.7 L380.2,55.8 L380.7,57.1 L381.9,58.3 L383.7,58.6 L385.2,58.2 L385.3,56.6 L385.3,54.7 L384.7,52.7 L383.7,51.3 L383.1,49.2 L382.2,48.0 L381.1,47.4 L379.1,46.9 L377.3,47.2 L375.9,47.4 L375.1,48.8 L375.7,50.9 L377.9,52.2 Z" fill="#e7d6a3" stroke="none"/>
<path d="M401.8,246.0 L404.8,244.4 L406.8,241.9 L408.1,239.3 L409.0,236.1 L408.3,233.4 L406.4,232.2 L404.4,232.2 L403.1,233.1 L401.0,234.8 L399.0,235.2 L397.6,234.8 L396.4,234.7 L394.1,234.8 L393.4,235.6 L393.7,237.5 L393.2,239.8 L392.5,241.5 L392.0,243.0 L392.4,245.6 L393.7,246.6 L395.8,247.3 L398.8,246.9 L401.8,246.0 Z" fill="#e7d6a3" stroke="none"/>
<path d="M311.2,551.3 L312.7,550.0 L313.9,548.1 L315.0,547.2 L315.9,546.2 L316.7,544.2 L316.3,541.9 L315.6,539.7 L313.7,538.7 L311.4,538.1 L309.5,538.6 L307.4,540.1 L306.1,541.3 L305.5,543.2 L306.4,545.1 L307.1,546.2 L307.6,547.4 L307.8,548.6 L308.4,549.8 L309.3,550.9 L311.2,551.3 Z" fill="#e7d6a3" stroke="none"/>
<path d="M330.2,169.4 L332.2,170.7 L334.3,170.5 L336.2,169.1 L337.9,166.8 L338.2,165.3 L338.2,163.3 L337.8,161.6 L335.9,159.4 L333.3,158.5 L331.4,159.1 L330.0,159.4 L328.3,158.2 L325.8,158.5 L323.5,159.0 L321.6,160.3 L319.8,161.7 L318.9,162.9 L317.6,164.7 L316.8,166.5 L315.8,167.7 L314.9,169.7 L315.7,171.3 L316.9,172.4 L318.9,172.4 L320.5,172.3 L321.8,172.0 L322.4,171.0 L323.4,169.9 L324.8,169.6 L326.5,169.1 L327.9,168.3 L329.3,168.1 L330.2,169.4 Z" fill="#e7d6a3" stroke="none"/>
<path d="M346.0,158.0 L348.0,158.2 L349.3,156.9 L349.5,154.9 L350.5,153.3 L351.0,151.2 L350.6,149.2 L349.7,148.3 L348.0,147.8 L346.2,149.1 L345.0,150.5 L344.8,152.9 L345.2,155.0 L346.0,158.0 Z" fill="#e7d6a3" stroke="none"/>
<path d="M137.4,573.3 L138.4,574.4 L140.2,574.7 L141.1,573.9 L142.1,572.6 L142.4,571.2 L142.2,570.1 L141.3,568.7 L139.7,568.7 L138.4,569.5 L137.1,570.6 L137.0,571.9 L137.4,573.3 Z" fill="#e7d6a3" stroke="none"/>
<path d="M167.8,572.7 L169.6,573.5 L171.1,573.6 L172.6,572.9 L174.1,571.8 L174.7,570.1 L174.8,568.6 L174.6,566.9 L173.9,565.3 L172.9,563.9 L171.4,562.7 L170.5,562.5 L168.9,562.5 L167.8,562.8 L166.6,563.8 L165.5,565.7 L165.1,567.2 L164.7,568.4 L164.9,569.7 L165.6,571.0 L166.7,571.9 L167.8,572.7 Z" fill="#e7d6a3" stroke="none"/>
<path d="M292.3,347.3 L293.6,347.2 L294.9,346.9 L295.7,345.4 L295.8,343.9 L296.7,342.3 L297.8,341.0 L299.5,339.4 L300.3,337.9 L300.9,335.8 L301.3,334.0 L301.6,331.8 L300.8,330.0 L299.6,329.1 L297.9,328.0 L297.5,327.2 L296.7,326.3 L295.6,326.3 L294.5,327.2 L293.8,328.2 L293.6,329.8 L293.2,331.2 L291.4,331.9 L289.6,332.8 L288.2,334.1 L287.6,335.9 L288.1,337.5 L288.9,339.2 L288.9,340.8 L289.3,343.4 L290.1,345.3 L291.0,346.3 L292.3,347.3 Z" fill="#e7d6a3" stroke="none"/>
<path d="M360.6,434.5 L360.1,431.3 L359.5,428.6 L358.0,426.7 L355.7,425.1 L353.0,424.7 L350.7,425.0 L348.4,425.6 L347.1,427.3 L347.2,429.5 L349.2,430.7 L352.2,431.4 L354.3,432.8 L355.6,434.1 L356.9,435.8 L357.9,436.7 L359.7,436.9 L360.6,434.5 Z" fill="#e7d6a3" stroke="none"/>
<path d="M248.8,429.4 L246.7,427.8 L245.5,426.0 L244.6,423.9 L243.2,422.4 L241.0,421.9 L239.0,423.2 L238.9,426.8 L239.8,428.7 L241.3,430.6 L242.3,431.6 L242.8,433.6 L244.0,436.3 L245.9,437.7 L248.0,436.7 L249.7,435.1 L250.5,433.6 L250.5,431.5 L248.8,429.4 Z" fill="#e7d6a3" stroke="none"/>
<path d="M34.2,226.4 L37.8,226.7 L40.2,225.0 L40.9,222.9 L41.1,220.1 L40.1,218.7 L38.2,217.8 L36.4,218.1 L34.5,219.2 L33.5,221.3 L32.5,223.2 L32.9,224.6 L34.2,226.4 Z" fill="#e7d6a3" stroke="none"/>
<path d="M28.7,233.2 L29.9,230.7 L30.8,228.9 L30.7,226.4 L29.4,222.9 L27.4,220.5 L25.3,218.7 L22.7,217.5 L19.2,216.1 L16.3,216.0 L14.6,217.0 L13.7,219.5 L14.1,221.3 L15.5,225.0 L16.6,228.4 L16.6,230.3 L18.9,232.5 L22.1,234.0 L24.3,234.0 L26.2,234.1 L28.7,233.2 Z" fill="#e7d6a3" stroke="none"/>
<path d="M42.6,254.7 L42.7,252.5 L42.2,251.7 L40.7,251.7 L39.2,252.5 L37.8,253.8 L36.9,255.7 L36.4,257.9 L36.8,259.3 L37.6,260.6 L38.8,261.5 L40.0,261.9 L41.0,262.1 L42.1,261.6 L42.8,260.7 L43.0,259.3 L42.8,257.3 L42.6,254.7 Z" fill="#e7d6a3" stroke="none"/>
<path d="M416.1,1.7 L418.3,-0.4 L420.0,-2.4 L421.2,-4.6 L420.8,-6.8 L419.7,-9.4 L418.0,-10.6 L416.9,-11.3 L413.5,-11.5 L411.0,-9.0 L408.6,-7.0 L408.1,-4.1 L408.4,-1.9 L408.9,0.8 L410.2,1.6 L413.2,2.0 L416.1,1.7 Z" fill="#e7d6a3" stroke="none"/>
<path d="M370.0,14.8 L372.4,15.0 L373.7,14.0 L375.0,12.7 L375.5,10.5 L375.3,9.1 L374.4,8.2 L373.2,7.3 L371.2,7.4 L369.7,7.9 L368.5,9.6 L368.4,10.8 L368.6,12.6 L368.8,13.5 L370.0,14.8 Z" fill="#e7d6a3" stroke="none"/>
<path d="M417.5,42.5 L417.8,40.5 L417.4,39.1 L416.5,37.3 L415.5,36.6 L414.0,36.5 L412.6,36.6 L410.5,38.1 L408.9,40.2 L407.6,42.6 L406.5,45.8 L406.5,48.7 L407.5,50.7 L408.6,51.3 L409.8,51.0 L411.1,49.7 L412.2,48.1 L413.7,47.2 L414.9,46.9 L415.4,45.7 L415.7,44.6 L416.5,43.6 L417.5,42.5 Z" fill="#e7d6a3" stroke="none"/>
<path d="M323.6,593.2 L325.4,592.4 L327.1,591.5 L328.1,590.5 L329.8,589.8 L331.0,589.2 L332.1,588.1 L331.9,586.6 L330.2,585.9 L327.9,586.0 L325.8,586.3 L323.8,586.9 L322.8,587.7 L321.8,588.9 L321.3,590.6 L321.5,591.7 L322.1,592.9 L323.6,593.2 Z" fill="#e7d6a3" stroke="none"/>
<path d="M250.4,574.6 L248.4,574.6 L246.0,574.8 L244.2,575.7 L243.4,577.2 L243.1,579.8 L243.1,584.9 L243.1,589.7 L243.2,594.4 L243.2,598.0 L243.5,599.4 L244.0,600.5 L244.6,601.3 L246.0,601.6 L248.1,601.6 L250.5,601.6 L252.0,601.2 L253.2,600.4 L254.0,599.0 L254.2,597.2 L254.2,592.6 L254.0,587.2 L253.9,582.8 L253.7,578.9 L253.4,577.2 L253.1,575.9 L252.0,574.9 L250.4,574.6 Z" fill="#4f8a3e" stroke="none"/>
<path d="M256.2,532.7 L253.5,532.7 L250.9,534.0 L250.0,537.7 L250.8,542.0 L252.5,546.4 L254.6,550.1 L257.6,552.9 L260.7,553.7 L263.9,553.3 L265.6,551.9 L266.2,548.9 L265.0,543.8 L263.1,538.7 L261.6,535.6 L259.2,533.3 L256.2,532.7 Z" fill="#4f8a3e" stroke="none"/>
<path d="M259.2,504.3 L257.6,504.3 L255.3,505.7 L253.4,508.6 L252.0,514.2 L251.5,519.3 L252.4,522.8 L254.3,524.1 L256.3,524.4 L259.4,524.3 L262.0,523.5 L263.6,521.7 L263.6,517.5 L263.5,513.4 L263.4,510.2 L262.7,507.4 L261.5,505.3 L259.2,504.3 Z" fill="#4f8a3e" stroke="none"/>
<path d="M223.3,486.7 L221.4,486.4 L219.6,486.5 L218.0,487.1 L216.5,488.7 L215.6,491.6 L215.3,494.1 L216.5,495.9 L218.9,497.4 L221.4,498.0 L223.3,498.2 L225.3,497.8 L226.3,496.7 L226.8,495.0 L226.8,493.0 L226.5,490.3 L225.8,488.7 L225.0,487.6 L223.3,486.7 Z" fill="#4f8a3e" stroke="none"/>
<path d="M259.5,476.3 L257.8,476.5 L256.7,477.3 L255.4,479.9 L255.3,483.4 L255.8,485.9 L257.4,487.3 L259.5,488.0 L261.5,487.9 L263.4,487.1 L264.1,485.5 L264.2,483.3 L264.3,480.9 L263.8,479.1 L262.9,477.6 L261.2,476.6 L259.5,476.3 Z" fill="#4f8a3e" stroke="none"/>
<path d="M117.6,469.1 L117.3,471.5 L117.4,474.6 L118.9,477.0 L120.7,477.9 L122.9,477.9 L124.5,476.9 L125.4,474.9 L125.9,472.5 L125.9,470.0 L125.1,468.3 L123.9,467.7 L122.3,467.3 L120.7,467.0 L118.9,467.6 L117.6,469.1 Z" fill="#4f8a3e" stroke="none"/>
<path d="M166.3,310.2 L163.2,309.4 L160.4,309.4 L157.7,310.9 L156.7,313.4 L156.6,316.2 L158.6,318.4 L161.1,319.6 L163.9,320.0 L166.5,319.0 L168.1,317.3 L168.7,315.1 L168.5,313.1 L167.6,311.5 L166.3,310.2 Z" fill="#4f8a3e" stroke="none"/>
<path d="M159.8,242.7 L157.1,242.1 L154.4,242.2 L151.7,244.3 L150.7,247.2 L150.6,250.6 L152.2,254.0 L155.0,255.2 L158.1,255.3 L160.7,254.5 L162.6,252.7 L163.2,250.2 L163.5,247.6 L163.0,245.5 L161.8,243.9 L159.8,242.7 Z" fill="#4f8a3e" stroke="none"/>
<path d="M171.7,209.0 L169.7,208.0 L166.9,208.1 L164.8,209.2 L162.8,211.2 L160.5,214.5 L159.2,218.5 L158.4,223.3 L159.1,226.7 L160.7,229.3 L164.8,230.3 L168.2,230.3 L169.8,229.0 L170.6,226.1 L171.4,220.6 L171.9,217.4 L172.6,214.2 L173.1,211.7 L172.8,210.1 L171.7,209.0 Z" fill="#4f8a3e" stroke="none"/>
<path d="M211.6,186.4 L209.9,185.9 L207.7,185.9 L205.6,187.3 L203.3,190.7 L201.6,193.7 L201.2,195.9 L202.3,197.3 L205.1,198.8 L208.4,199.3 L210.5,198.9 L212.0,197.7 L213.5,196.2 L214.6,194.1 L215.0,191.4 L214.7,188.9 L213.7,187.4 L211.6,186.4 Z" fill="#4f8a3e" stroke="none"/>
<path d="M228.6,117.5 L226.2,117.5 L224.2,118.6 L222.5,120.9 L220.1,125.3 L217.2,130.0 L215.4,133.3 L214.7,135.5 L214.4,137.8 L214.8,140.1 L216.2,142.2 L218.8,144.5 L221.7,145.4 L224.6,145.9 L227.6,145.4 L229.6,144.1 L231.5,141.9 L233.0,139.4 L234.4,137.2 L235.9,133.6 L236.6,130.3 L237.0,127.0 L236.8,124.1 L236.2,121.9 L235.0,120.1 L233.6,119.1 L231.2,118.0 L228.6,117.5 Z" fill="#4f8a3e" stroke="none"/>
<path d="M280.7,93.9 L277.2,93.3 L274.2,94.1 L271.7,95.9 L270.6,99.1 L270.8,102.3 L272.3,105.7 L274.4,107.4 L277.6,108.3 L280.9,108.2 L283.0,106.8 L284.5,104.1 L285.5,101.6 L285.7,99.2 L285.4,97.2 L283.7,95.4 L280.7,93.9 Z" fill="#4f8a3e" stroke="none"/>
<path d="M10.3,201.7 L9.3,201.6 L8.1,201.7 L6.5,202.1 L4.1,203.8 L2.5,205.8 L2.0,207.7 L2.1,209.7 L2.8,211.6 L3.7,212.8 L5.3,213.4 L7.0,213.6 L9.2,213.1 L12.4,211.4 L13.9,209.4 L14.4,207.2 L14.1,205.0 L13.3,203.3 L12.5,202.5 L11.3,202.0 L10.3,201.7 Z" fill="#4f8a3e" stroke="none"/>
<path d="M34.7,187.0 L35.7,188.6 L37.0,190.5 L39.2,192.7 L41.4,193.9 L43.3,194.2 L44.9,193.9 L46.6,193.2 L47.9,192.0 L48.7,190.4 L49.0,187.8 L48.2,185.3 L47.0,183.0 L45.6,181.1 L44.2,180.0 L42.3,179.3 L40.3,179.2 L38.6,179.5 L37.1,180.1 L35.6,181.2 L34.7,182.6 L34.2,184.1 L34.2,185.6 L34.7,187.0 Z" fill="#4f8a3e" stroke="none"/>
<path d="M72.9,148.3 L74.2,149.3 L76.0,149.5 L78.2,148.8 L80.8,147.8 L83.2,146.4 L84.7,144.7 L85.5,143.1 L85.4,141.0 L84.3,139.3 L83.1,138.7 L81.1,138.7 L79.4,139.4 L78.1,140.1 L76.2,141.2 L74.6,142.4 L73.2,144.1 L72.3,145.7 L72.2,147.1 L72.9,148.3 Z" fill="#4f8a3e" stroke="none"/>
<path d="M142.5,108.2 L140.9,108.1 L139.4,108.5 L137.9,109.2 L136.7,109.9 L135.1,111.0 L133.8,112.3 L132.9,113.7 L133.0,115.0 L133.6,116.6 L134.8,117.6 L136.6,118.1 L138.2,117.8 L139.8,117.5 L141.2,116.9 L142.5,116.3 L143.7,115.5 L144.8,114.6 L145.4,113.6 L145.7,112.3 L145.6,110.8 L145.1,109.6 L144.0,108.6 L142.5,108.2 Z" fill="#4f8a3e" stroke="none"/>
<path d="M462.3,1.0 L464.5,2.4 L466.5,3.5 L468.4,3.4 L469.9,2.9 L471.2,1.1 L472.4,-1.0 L473.2,-5.8 L473.3,-9.9 L473.2,-14.6 L472.6,-19.3 L471.1,-21.4 L468.4,-23.1 L465.8,-23.2 L463.3,-22.6 L461.3,-20.8 L460.5,-16.7 L460.1,-10.1 L460.5,-3.3 L462.3,1.0 Z" fill="#4f8a3e" stroke="none"/>
<path d="M430.9,93.4 L434.0,96.0 L437.4,95.8 L439.0,92.7 L440.7,87.7 L440.9,83.9 L437.8,81.9 L435.0,81.9 L432.6,84.8 L430.7,88.9 L430.9,93.4 Z" fill="#4f8a3e" stroke="none"/>
<path d="M459.0,84.0 L463.6,83.3 L465.2,79.2 L465.7,73.7 L462.4,71.3 L457.1,70.8 L454.2,75.4 L454.9,81.6 L459.0,84.0 Z" fill="#4f8a3e" stroke="none"/>
<path d="M425.5,174.1 L429.3,174.1 L432.2,172.2 L432.4,168.9 L429.8,166.3 L426.5,166.3 L424.6,167.0 L423.1,169.4 L422.6,171.7 L425.5,174.1 Z" fill="#4f8a3e" stroke="none"/>
<path d="M236.3,374.3 L238.1,368.5 L234.9,367.0 L230.2,368.9 L230.5,374.3 L233.4,376.1 L236.3,374.3 Z" fill="#4f8a3e" stroke="none"/>
<path d="M246.6,419.3 L249.3,418.1 L249.3,414.7 L246.4,411.9 L243.5,411.9 L241.4,414.0 L241.4,416.4 L243.3,419.3 L246.6,419.3 Z" fill="#4f8a3e" stroke="none"/>
<path d="M278.1,629.6 L265.3,617.7 L260.3,616.6 L250.2,617.9 L242.5,620.9 L240.0,624.5 L241.5,627.8 L255.8,639.5 L254.9,644.2 L251.3,649.5 L248.8,656.9 L251.3,661.5 L256.8,663.6 L260.4,659.9 L277.8,640.5 L279.7,634.5 L278.1,629.6 Z" fill="#4f8a3e" stroke="none"/>
<path d="M433.1,-59.8 L434.1,-62.1 L434.7,-64.3 L434.8,-66.6 L433.1,-68.9 L430.7,-69.7 L428.7,-69.0 L427.2,-67.6 L426.3,-64.1 L426.6,-61.2 L427.1,-59.2 L429.6,-58.1 L431.7,-58.4 L433.1,-59.8 Z" fill="#4f8a3e" stroke="none"/>
<path d="M335.4,83.9 L332.4,84.0 L330.3,85.2 L327.6,87.4 L325.7,90.5 L324.7,94.6 L323.8,99.3 L322.7,102.4 L322.0,105.9 L322.3,110.8 L322.4,114.7 L322.2,118.3 L322.2,122.3 L322.6,125.7 L323.8,128.9 L324.5,130.2 L326.6,133.1 L329.7,134.8 L333.1,135.5 L337.0,135.3 L339.6,134.2 L341.7,132.5 L343.2,130.8 L344.8,128.0 L346.8,123.4 L348.0,118.5 L348.4,113.9 L348.5,110.2 L348.7,104.6 L348.5,101.2 L347.6,97.5 L347.1,94.9 L345.6,90.9 L344.6,88.5 L342.9,86.6 L341.5,85.5 L338.9,84.4 L335.4,83.9 Z" fill="#2f7825" stroke="none"/>
<path d="M197.5,572.9 L201.1,572.0 L205.2,568.1 L209.0,564.1 L212.2,559.5 L215.4,554.5 L217.7,550.4 L219.3,544.8 L220.7,540.8 L220.5,535.8 L219.6,531.7 L218.2,527.0 L215.4,523.4 L212.3,520.4 L208.3,518.9 L203.8,517.8 L199.2,518.0 L195.3,518.7 L191.2,520.9 L188.0,524.0 L185.1,528.3 L183.2,533.5 L180.5,538.8 L178.2,542.6 L176.6,546.2 L176.2,551.3 L177.4,555.9 L180.0,559.2 L181.3,562.5 L183.8,567.0 L186.3,569.4 L188.9,571.1 L191.4,572.4 L194.1,572.9 L197.5,572.9 Z" fill="#2f7825" stroke="none"/>
<path d="M43.3,247.8 L48.3,243.1 L52.2,240.3 L55.3,239.5 L58.6,239.3 L61.6,239.8 L69.5,240.8 L75.1,241.4 L79.0,240.4 L81.5,238.3 L83.2,235.0 L84.1,230.7 L83.6,227.2 L82.4,224.0 L80.9,221.0 L79.4,218.5 L76.6,216.0 L72.9,214.5 L67.8,214.1 L63.4,214.5 L58.6,215.8 L52.8,218.7 L48.2,221.0 L43.7,225.2 L41.8,227.7 L37.3,231.0 L33.6,233.7 L31.5,236.2 L29.6,238.5 L28.7,241.6 L28.4,245.3 L29.7,247.5 L32.7,249.6 L36.0,250.4 L39.6,249.8 L43.3,247.8 Z" fill="#2f7825" stroke="none"/>
<path d="M391.9,13.2 L389.2,12.5 L386.3,12.4 L383.9,13.0 L381.4,14.1 L378.8,16.9 L375.8,25.3 L375.5,29.2 L376.4,32.9 L378.1,35.8 L380.6,38.8 L382.8,41.8 L386.0,45.5 L388.0,48.7 L388.7,52.3 L389.6,56.8 L390.9,59.0 L394.0,60.7 L396.4,61.2 L399.5,60.4 L401.3,59.3 L403.1,57.5 L404.5,55.5 L405.1,53.3 L405.5,50.7 L405.0,47.3 L405.3,44.1 L405.6,41.4 L406.4,38.5 L407.6,35.7 L409.1,32.9 L409.5,30.7 L409.5,29.0 L408.5,26.0 L407.2,23.3 L404.4,20.8 L399.9,18.0 L396.4,15.6 L391.9,13.2 Z" fill="#2f7825" stroke="none"/>
<path d="M309.3,589.6 L305.9,590.1 L301.4,590.0 L298.1,588.8 L295.9,586.8 L294.3,584.6 L292.9,582.0 L292.4,578.3 L292.9,574.2 L294.7,570.7 L297.1,568.1 L300.9,563.8 L304.5,559.8 L308.6,556.3 L313.7,552.0 L318.2,548.6 L321.9,544.2 L324.8,540.5 L327.7,538.3 L331.7,536.4 L336.0,535.6 L340.6,535.7 L343.3,536.6 L346.9,539.2 L349.7,542.4 L351.0,546.7 L351.6,552.0 L350.2,558.8 L348.1,563.9 L345.6,568.3 L342.9,572.5 L339.5,576.7 L336.8,579.1 L333.6,580.2 L330.3,580.4 L326.4,581.3 L321.3,583.1 L317.9,585.3 L313.5,588.1 L309.3,589.6 Z" fill="#2f7825" stroke="none"/>
<path d="M466.9,-17.1 L406.6,346.0 L325.4,572.7" fill="none" stroke="#ffd64a" stroke-width="5" stroke-linecap="round" stroke-linejoin="round" opacity="0.95"/>
</svg>