<svg xmlns="http://www.w3.org/2000/svg" viewBox="0 0 800 305" preserveAspectRatio="xMidYMid meet">
<rect width="100%" height="100%" fill="#143018"/>
<path d="M731.4,236.4 L339.7,118.0 L68.6,69.0" fill="none" stroke="#4e8b39" stroke-width="53.3" stroke-linecap="round" stroke-linejoin="round" opacity="0.85"/>
<path d="M822.8,121.9 L957.3,119.8 L963.4,22.4 L954.3,-89.3 L932.6,-156.3 L911.8,-189.9 L900.5,-215.5 L898.2,-233.9 L881.9,-245.3 L869.0,-248.9 L854.0,-243.6 L834.8,-235.5 L820.3,-230.0 L806.6,-223.6 L773.7,-200.5 L716.3,-162.2 L694.8,-158.1 L683.3,-138.9 L677.5,-123.0 L712.9,-87.1 L727.4,-49.3 L767.0,27.3 L782.8,46.4 L794.6,76.8 L822.8,121.9 Z" fill="#5a9540" stroke="none"/>
<path d="M891.0,157.4 L894.6,208.0 L845.0,208.7 L840.1,160.1 L891.0,157.4 Z" fill="#5a9540" stroke="none"/>
<path d="M389.9,92.4 L388.9,91.9 L389.3,88.0 L393.3,80.9 L399.2,79.5 L402.9,75.5 L407.4,71.7 L408.5,69.9 L409.9,69.5 L410.8,68.5 L414.1,66.8 L420.3,64.6 L432.8,63.2 L435.4,62.1 L434.2,61.0 L435.6,59.2 L437.3,59.4 L439.1,60.4 L440.7,60.6 L442.2,60.1 L443.5,61.8 L445.5,63.0 L445.2,64.4 L443.4,64.7 L442.3,64.0 L441.0,66.2 L436.3,70.9 L434.1,78.2 L432.2,82.5 L430.8,83.2 L429.2,83.2 L425.7,84.6 L422.7,85.4 L419.5,86.6 L417.8,88.2 L415.0,88.4 L411.3,87.6 L409.0,88.2 L407.6,87.7 L405.1,90.0 L405.8,91.4 L398.3,94.0 L392.5,93.0 L389.9,92.4 Z" fill="#e7d6a3" stroke="none"/>
<path d="M152.1,38.9 L151.3,39.4 L150.7,40.4 L150.3,41.2 L151.0,42.4 L151.2,43.9 L151.8,45.0 L152.9,45.5 L154.3,46.0 L155.0,46.7 L155.7,47.0 L157.2,47.1 L159.0,47.7 L160.0,47.3 L161.2,47.4 L162.1,46.4 L163.3,46.2 L164.2,46.5 L164.6,47.6 L165.4,47.8 L166.3,46.5 L167.3,46.0 L168.5,46.3 L170.2,48.1 L172.0,49.5 L175.0,50.2 L178.2,50.6 L179.5,50.1 L180.9,49.2 L181.8,47.5 L183.0,47.0 L183.0,46.3 L183.3,45.7 L181.9,45.6 L182.3,44.6 L183.8,44.2 L184.8,44.8 L185.7,45.9 L187.0,44.9 L188.5,43.4 L188.5,42.6 L188.9,40.5 L191.3,41.9 L192.0,44.1 L192.9,44.9 L196.0,46.6 L196.9,47.9 L196.2,49.2 L197.2,50.1 L199.0,52.4 L201.2,54.0 L203.2,54.8 L206.4,55.1 L206.9,56.7 L208.4,57.5 L210.9,57.1 L213.4,58.0 L215.8,57.4 L217.7,56.1 L222.0,54.5 L223.5,53.7 L224.9,51.7 L225.2,48.5 L223.8,45.8 L221.9,43.0 L221.4,40.6 L219.5,39.3 L217.7,37.0 L214.8,37.3 L211.7,38.9 L209.7,38.7 L208.0,40.5 L206.0,40.9 L205.0,39.7 L204.7,38.3 L203.4,36.7 L201.9,35.6 L200.6,35.3 L199.2,36.1 L197.9,35.1 L196.6,35.0 L195.7,35.8 L194.5,35.5 L192.4,35.6 L190.4,36.0 L189.1,36.4 L187.3,38.2 L185.9,38.6 L184.8,39.1 L183.2,39.1 L181.5,39.1 L179.8,39.1 L178.0,39.2 L176.1,39.3 L174.8,39.8 L174.3,41.0 L173.4,42.3 L171.8,42.7 L170.3,42.5 L168.9,42.0 L167.8,41.3 L166.0,40.7 L165.0,39.7 L164.6,38.4 L163.3,37.8 L162.2,37.8 L160.9,38.3 L159.9,38.4 L159.2,37.7 L158.6,37.7 L157.5,38.1 L156.6,38.1 L155.0,38.0 L154.2,37.9 L153.6,38.6 L152.1,38.9 Z" fill="#e7d6a3" stroke="none"/>
<path d="M394.6,268.2 L392.5,267.7 L390.8,267.8 L389.4,267.9 L388.0,268.8 L387.4,270.4 L388.0,271.7 L388.0,273.0 L388.0,274.3 L390.3,277.3 L392.2,278.2 L393.6,281.1 L395.3,284.7 L397.6,289.6 L397.1,291.5 L398.1,292.7 L402.5,296.4 L404.0,297.9 L403.4,300.2 L403.9,302.4 L404.9,301.5 L406.8,302.2 L407.6,303.5 L407.5,305.5 L409.5,307.2 L411.7,308.2 L412.6,310.5 L414.4,311.7 L414.8,312.8 L416.4,314.2 L418.5,313.8 L416.0,308.4 L415.9,306.6 L417.5,306.3 L419.1,304.2 L418.0,301.3 L415.9,301.6 L415.1,295.3 L413.7,293.3 L412.7,292.9 L411.6,291.8 L409.1,291.0 L406.4,287.2 L404.9,283.8 L403.1,282.5 L402.1,281.6 L402.1,280.6 L401.9,279.6 L400.1,278.7 L399.0,277.3 L398.2,275.5 L398.7,274.1 L398.0,272.8 L396.5,271.1 L396.2,269.1 L394.6,268.2 Z" fill="#e7d6a3" stroke="none"/>
<path d="M585.1,259.8 L583.7,259.2 L582.8,259.8 L581.5,260.8 L580.7,261.6 L577.6,260.9 L572.7,264.5 L572.6,265.9 L572.7,269.4 L575.7,274.2 L587.6,274.7 L587.8,270.9 L588.5,269.7 L589.8,269.6 L590.3,268.7 L588.4,266.8 L588.0,265.6 L585.4,265.1 L584.6,264.3 L584.9,262.8 L585.6,260.5 L585.1,259.8 Z" fill="#e7d6a3" stroke="none"/>
<path d="M503.2,267.6 L502.8,265.6 L501.2,264.1 L499.4,262.8 L497.6,263.6 L497.5,265.2 L497.1,266.3 L495.8,266.4 L494.1,266.7 L493.6,268.3 L492.1,268.8 L490.6,269.5 L490.1,270.0 L490.2,270.9 L490.6,271.9 L491.1,272.0 L492.6,272.2 L495.1,271.5 L496.2,270.9 L497.2,270.8 L498.3,270.1 L499.7,269.1 L500.5,268.7 L502.2,268.4 L503.2,267.6 Z" fill="#e7d6a3" stroke="none"/>
<path d="M109.4,22.5 L108.0,23.7 L108.1,24.5 L108.8,25.1 L109.8,25.7 L110.5,26.3 L111.6,27.1 L112.4,28.1 L112.8,28.5 L113.4,29.0 L113.7,30.1 L114.2,30.5 L115.2,30.6 L116.5,30.5 L117.2,29.9 L118.6,28.9 L118.3,28.1 L117.6,27.6 L117.7,26.8 L116.8,26.2 L116.3,25.2 L115.4,25.0 L114.5,24.9 L113.6,25.0 L112.9,24.9 L112.3,24.6 L111.6,23.9 L111.0,23.7 L110.2,23.2 L109.4,22.5 Z" fill="#e7d6a3" stroke="none"/>
<path d="M103.9,36.5 L106.0,35.8 L107.7,35.2 L108.9,34.3 L109.5,33.6 L109.9,32.9 L110.0,32.2 L110.3,31.5 L109.6,31.0 L108.3,31.3 L107.4,30.9 L106.8,30.5 L106.8,29.9 L107.2,29.3 L106.5,28.8 L106.1,28.2 L105.6,28.0 L104.8,28.2 L104.1,27.8 L103.4,26.9 L103.4,25.6 L103.8,25.1 L104.2,24.6 L102.3,25.0 L100.9,25.0 L99.6,24.9 L98.2,24.9 L97.5,25.2 L96.9,25.9 L96.7,26.8 L97.3,27.6 L96.1,28.2 L95.8,29.4 L95.2,30.9 L94.9,31.9 L95.1,33.5 L96.3,33.3 L97.7,32.6 L98.8,33.5 L98.7,34.2 L99.5,35.1 L100.9,35.6 L102.2,36.2 L103.9,36.5 Z" fill="#e7d6a3" stroke="none"/>
<path d="M51.0,52.4 L52.8,53.2 L53.7,53.4 L55.9,52.3 L56.5,51.4 L57.0,50.1 L57.3,48.7 L55.3,48.6 L54.1,48.6 L52.5,49.4 L51.3,50.0 L50.4,50.5 L49.5,50.5 L47.6,50.5 L46.6,51.4 L45.4,51.6 L44.1,51.0 L43.0,51.3 L41.2,51.1 L40.5,52.6 L39.5,52.7 L38.2,52.6 L37.1,52.6 L36.3,52.9 L35.6,54.0 L34.5,55.2 L33.5,55.9 L32.4,55.6 L30.7,54.9 L29.9,54.0 L29.2,53.0 L28.7,51.8 L28.4,51.0 L27.4,50.2 L25.8,49.4 L25.2,50.0 L24.4,49.9 L23.1,49.9 L20.8,49.7 L19.7,49.5 L18.8,49.5 L17.8,49.5 L16.7,49.7 L15.8,49.4 L13.9,48.9 L12.5,49.0 L11.9,49.5 L10.4,49.8 L10.7,50.5 L12.2,50.8 L13.1,50.8 L14.4,51.1 L15.4,51.7 L16.3,52.8 L16.8,53.7 L17.7,54.7 L18.1,55.5 L18.3,56.3 L19.1,58.1 L19.8,56.6 L20.1,55.4 L21.2,54.7 L22.5,54.0 L23.5,55.2 L23.2,56.7 L24.4,56.8 L24.8,58.2 L24.5,59.0 L22.9,59.3 L22.3,60.7 L24.0,59.7 L25.0,60.4 L26.8,60.1 L29.0,59.8 L30.7,60.1 L32.3,60.4 L33.5,60.0 L34.5,60.2 L36.1,59.7 L36.5,59.2 L36.9,57.7 L36.4,56.3 L37.1,55.5 L38.4,55.3 L38.7,56.3 L39.5,56.8 L40.9,56.5 L41.9,56.1 L43.0,55.8 L44.5,55.2 L46.2,54.4 L48.0,54.4 L49.4,54.2 L50.2,53.3 L51.0,52.4 Z" fill="#e7d6a3" stroke="none"/>
<path d="M445.5,-1.3 L445.4,-3.5 L444.9,-6.0 L444.1,-7.9 L443.1,-9.8 L441.3,-11.3 L439.0,-12.0 L436.3,-12.7 L435.2,-12.5 L433.8,-11.9 L433.0,-10.9 L431.8,-9.6 L430.6,-10.0 L429.6,-11.0 L428.7,-11.3 L427.6,-10.7 L426.4,-9.9 L425.7,-8.4 L424.1,-8.1 L420.4,-8.2 L417.4,-8.9 L416.4,-10.9 L414.8,-12.3 L413.7,-13.5 L412.6,-14.6 L411.5,-15.0 L409.7,-14.8 L408.2,-13.5 L407.0,-13.3 L405.4,-12.2 L404.6,-10.4 L403.6,-8.8 L405.8,-8.7 L407.2,-7.4 L409.1,-6.7 L411.0,-6.3 L413.1,-5.3 L415.0,-3.4 L416.1,-1.3 L418.2,-0.8 L421.9,0.8 L424.4,1.8 L426.7,1.1 L428.8,1.5 L430.3,1.9 L432.4,1.8 L433.6,2.4 L435.3,3.3 L435.7,2.1 L433.6,1.0 L433.0,-0.0 L433.7,-0.9 L435.7,-1.1 L437.9,-0.9 L439.2,0.3 L440.6,1.5 L441.4,2.4 L442.8,2.1 L444.1,2.7 L445.7,2.9 L446.6,1.6 L445.5,-1.3 Z" fill="#e7d6a3" stroke="none"/>
<path d="M348.4,-52.3 L347.9,-53.0 L346.9,-53.3 L346.1,-54.0 L345.2,-53.9 L344.7,-53.0 L345.4,-52.2 L346.1,-51.4 L346.1,-50.7 L346.3,-49.9 L346.8,-49.1 L346.3,-48.2 L345.8,-47.2 L346.3,-46.4 L346.9,-45.8 L347.0,-44.7 L346.7,-44.1 L346.2,-42.9 L345.9,-41.9 L345.9,-41.2 L346.3,-40.1 L347.0,-39.8 L347.8,-39.3 L348.5,-38.6 L348.8,-37.7 L348.8,-37.0 L349.1,-36.3 L349.4,-35.6 L348.7,-34.2 L347.9,-33.3 L350.4,-30.2 L351.5,-31.5 L352.5,-32.1 L353.4,-32.5 L354.5,-32.6 L355.4,-32.5 L356.0,-31.6 L355.9,-30.2 L355.2,-29.5 L354.4,-29.2 L353.9,-28.5 L354.3,-27.0 L354.6,-25.6 L354.5,-24.4 L357.8,-21.0 L359.5,-21.5 L360.9,-21.6 L363.1,-21.4 L363.8,-20.5 L364.8,-20.0 L365.4,-18.7 L365.9,-17.6 L366.4,-16.5 L367.4,-15.7 L367.8,-15.2 L369.8,-15.1 L371.7,-15.0 L374.8,-14.6 L377.0,-14.5 L378.7,-14.3 L379.3,-15.1 L380.6,-14.5 L381.7,-14.4 L383.0,-14.3 L383.9,-14.0 L385.2,-14.2 L386.3,-13.5 L387.2,-13.5 L388.2,-13.0 L389.4,-13.2 L390.1,-12.8 L391.4,-12.4 L392.5,-12.5 L393.9,-12.2 L394.0,-13.6 L393.3,-13.8 L392.6,-14.4 L391.8,-14.5 L390.9,-14.4 L389.9,-15.1 L389.2,-15.7 L388.4,-16.0 L387.2,-16.5 L386.8,-17.3 L387.1,-18.1 L387.5,-18.6 L388.2,-19.3 L388.8,-19.4 L388.8,-20.6 L388.6,-21.6 L388.5,-22.6 L387.8,-23.2 L387.7,-24.0 L386.0,-23.8 L384.8,-23.9 L384.2,-24.4 L383.4,-24.6 L382.3,-25.1 L381.7,-26.1 L381.5,-27.2 L380.1,-27.5 L379.7,-28.3 L379.2,-28.9 L378.5,-29.5 L377.8,-30.0 L377.0,-29.9 L376.2,-30.1 L375.7,-30.9 L375.7,-31.9 L375.1,-32.2 L375.2,-30.6 L374.8,-29.9 L374.0,-30.0 L373.3,-29.4 L372.9,-29.1 L372.1,-28.9 L371.6,-28.5 L371.4,-27.7 L372.1,-27.1 L373.3,-27.0 L374.0,-26.5 L374.7,-25.5 L374.5,-24.0 L374.2,-22.9 L373.4,-22.9 L372.3,-22.7 L371.6,-22.2 L370.6,-21.4 L369.6,-21.7 L368.4,-21.8 L368.0,-23.8 L367.9,-24.5 L367.0,-24.9 L366.6,-25.8 L366.5,-26.9 L366.3,-28.2 L366.6,-29.2 L366.7,-30.4 L366.2,-31.2 L365.5,-31.5 L364.6,-31.4 L363.8,-32.1 L363.4,-32.5 L363.5,-33.4 L363.8,-34.1 L364.8,-34.9 L364.7,-35.8 L364.9,-36.7 L363.8,-36.8 L363.1,-37.4 L363.1,-38.8 L362.7,-39.6 L362.5,-40.5 L362.3,-41.3 L361.8,-41.9 L361.0,-42.1 L360.4,-42.7 L359.6,-41.6 L358.7,-40.8 L357.7,-41.4 L357.2,-42.0 L356.5,-42.3 L355.9,-42.7 L355.8,-43.5 L356.2,-44.2 L356.3,-45.8 L355.4,-46.3 L354.6,-45.6 L353.0,-45.8 L352.2,-46.8 L351.0,-47.3 L350.6,-49.3 L349.5,-49.5 L348.9,-50.2 L348.6,-51.2 L348.4,-52.3 Z" fill="#e7d6a3" stroke="none"/>
<path d="M347.9,-33.3 L347.1,-32.1 L345.6,-30.6 L345.8,-28.9 L345.2,-26.9 L345.1,-25.0 L345.2,-23.4 L346.4,-22.2 L347.4,-21.3 L348.1,-20.4 L349.4,-20.0 L350.9,-20.1 L351.9,-19.6 L353.1,-18.5 L356.5,-17.9 L357.6,-19.8 L357.8,-21.0 L354.5,-24.4 L352.8,-23.8 L351.5,-23.3 L350.2,-23.8 L348.9,-24.6 L348.3,-26.3 L349.0,-28.2 L350.4,-30.2 L347.9,-33.3 Z" fill="#e7d6a3" stroke="none"/>
<path d="M605.5,339.5 L603.5,338.4 L603.0,337.2 L602.1,336.0 L599.7,335.2 L599.1,336.9 L598.1,337.9 L597.4,339.6 L597.2,341.0 L596.6,342.0 L596.9,343.7 L597.9,344.3 L598.6,343.8 L600.6,344.7 L601.7,345.5 L602.5,346.2 L603.0,347.6 L604.4,347.6 L605.4,347.9 L606.2,348.9 L606.4,349.9 L607.2,350.9 L608.4,352.0 L609.3,351.8 L610.4,351.2 L611.7,351.7 L612.3,352.6 L613.5,353.3 L614.4,354.7 L615.9,354.7 L617.6,355.6 L618.4,353.9 L619.9,353.4 L621.4,354.4 L622.2,355.7 L623.3,356.4 L624.3,357.2 L625.2,358.3 L625.2,360.3 L627.0,361.3 L628.1,362.6 L629.6,363.1 L630.4,362.5 L629.4,360.5 L630.3,359.4 L631.3,358.3 L632.2,358.3 L633.6,358.1 L634.8,359.1 L636.7,359.1 L637.3,360.0 L637.4,361.2 L639.6,361.8 L640.5,363.4 L641.8,363.9 L643.1,363.3 L644.4,362.0 L645.6,360.9 L646.4,359.2 L646.4,357.9 L647.8,356.8 L648.6,355.6 L648.0,354.2 L646.7,353.4 L646.0,352.1 L644.4,350.9 L642.6,349.5 L641.1,349.0 L639.5,348.2 L637.7,347.7 L635.1,346.8 L633.4,346.9 L632.5,347.6 L629.6,347.1 L627.8,346.2 L626.0,345.4 L624.0,345.4 L620.3,344.5 L618.6,343.8 L616.6,343.8 L615.6,343.5 L613.9,342.7 L612.2,342.9 L611.3,342.2 L610.1,341.3 L609.0,340.9 L607.8,340.4 L605.5,339.5 Z" fill="#e7d6a3" stroke="none"/>
<path d="M837.3,148.5 L837.3,152.5 L883.9,150.4 L883.6,147.0 L837.3,148.5 Z" fill="#4f8a3e" stroke="none"/>
<path d="M734.9,155.5 L732.6,151.5 L729.9,148.7 L727.6,147.4 L724.3,146.9 L720.1,148.2 L714.5,150.0 L708.7,151.9 L705.0,152.8 L701.7,152.8 L698.6,153.5 L696.3,155.3 L695.1,157.7 L694.8,160.6 L695.1,164.6 L696.9,168.3 L698.9,170.3 L701.6,171.9 L705.2,173.6 L709.4,174.2 L713.5,174.1 L718.0,174.1 L723.6,172.9 L728.4,171.3 L731.7,169.6 L733.6,167.6 L735.1,165.1 L735.7,162.3 L735.7,159.5 L734.9,155.5 Z" fill="#4f8a3e" stroke="none"/>
<path d="M-3.1,-10.4 L-7.1,-8.4 L-10.7,-5.3 L-9.9,-2.6 L-4.1,-1.1 L1.9,-1.7 L7.3,-4.5 L12.8,-9.1 L15.0,-13.7 L14.9,-16.7 L11.0,-19.5 L7.3,-17.3 L4.8,-13.4 L2.3,-11.2 L-0.6,-10.7 L-3.1,-10.4 Z" fill="#4f8a3e" stroke="none"/>
<path d="M15.3,-26.7 L18.7,-33.1 L20.7,-37.6 L23.0,-41.7 L25.4,-45.7 L29.3,-48.3 L32.1,-47.3 L33.1,-44.9 L32.6,-41.5 L31.2,-37.3 L29.2,-33.6 L26.5,-29.4 L24.2,-25.2 L21.4,-22.1 L18.4,-22.3 L17.2,-23.1 L15.8,-25.7 L15.3,-26.7 Z" fill="#4f8a3e" stroke="none"/>
<path d="M-63.2,196.2 L-57.5,195.3 L-47.1,194.2 L-41.8,193.8 L-35.1,193.7 L-30.5,194.2 L-29.6,196.8 L-30.9,198.8 L-38.0,199.5 L-47.1,200.1 L-57.0,201.8 L-64.5,202.2 L-65.8,201.6 L-66.2,199.2 L-65.5,197.9 L-63.2,196.2 Z" fill="#4f8a3e" stroke="none"/>
<path d="M711.0,100.4 L707.6,105.4 L705.0,111.3 L705.5,115.9 L708.4,118.3 L715.6,118.5 L721.0,116.5 L722.1,110.0 L719.0,104.2 L713.9,101.1 L711.0,100.4 Z" fill="#4f8a3e" stroke="none"/>
<path d="M705.6,211.5 L700.0,206.7 L692.9,204.2 L690.1,206.1 L690.3,209.0 L691.4,212.0 L694.6,215.6 L698.9,219.1 L705.8,222.5 L708.8,222.4 L710.5,219.2 L710.3,216.8 L708.9,214.5 L705.6,211.5 Z" fill="#4f8a3e" stroke="none"/>
<path d="M676.3,185.3 L674.0,187.6 L674.4,190.5 L676.0,193.3 L679.5,196.1 L683.3,198.2 L688.0,198.5 L691.4,197.3 L692.6,194.7 L692.8,192.2 L691.7,189.0 L688.2,186.6 L682.0,185.1 L677.3,184.9 L676.3,185.3 Z" fill="#4f8a3e" stroke="none"/>
<path d="M726.1,226.3 L719.8,227.2 L717.2,231.4 L717.4,235.1 L720.0,238.3 L724.9,240.1 L728.4,240.9 L732.9,241.9 L736.9,241.4 L738.3,238.0 L738.0,235.0 L735.4,231.5 L732.2,229.6 L728.7,227.5 L726.1,226.3 Z" fill="#4f8a3e" stroke="none"/>
<path d="M33.0,75.0 L33.7,69.1 L38.8,63.9 L53.6,59.1 L62.9,55.1 L68.0,48.4 L73.0,45.7 L85.0,47.0 L97.1,47.0 L100.8,48.7 L103.2,50.7 L106.1,55.5 L107.8,62.7 L107.5,70.7 L104.9,73.6 L97.9,76.6 L87.6,78.7 L72.4,81.1 L58.1,83.8 L45.7,86.8 L39.2,85.4 L35.4,81.0 L33.0,75.0 Z" fill="#2f7825" stroke="none"/>
<path d="M804.2,160.4 L795.8,170.0 L790.6,184.8 L790.3,209.7 L792.1,227.0 L798.9,240.2 L808.5,244.5 L820.8,243.9 L833.4,238.1 L836.8,228.5 L836.5,215.9 L831.3,197.1 L832.2,180.7 L830.6,171.2 L827.3,164.1 L822.3,159.5 L811.9,157.9 L804.2,160.4 Z" fill="#2f7825" stroke="none"/>
<path d="M640.9,291.0 L636.8,289.9 L633.0,289.5 L630.3,290.1 L627.6,291.7 L623.0,296.5 L618.6,302.1 L614.9,307.5 L613.3,310.7 L612.0,315.4 L611.1,321.8 L611.3,327.1 L612.0,330.9 L614.3,334.1 L617.8,336.1 L622.4,337.0 L629.9,338.1 L636.7,339.7 L642.9,341.7 L648.8,343.3 L653.4,343.1 L658.3,341.8 L662.0,339.4 L666.0,335.8 L668.5,332.5 L670.9,328.3 L672.7,323.8 L673.6,318.5 L673.2,314.7 L671.8,312.4 L670.3,311.1 L667.9,309.6 L664.4,308.7 L659.0,306.9 L655.4,305.2 L652.7,302.8 L650.7,300.3 L648.7,297.8 L646.9,295.4 L644.5,293.0 L640.9,291.0 Z" fill="#2f7825" stroke="none"/>
<path d="M731.4,236.4 L339.7,118.0 L68.6,69.0" fill="none" stroke="#ffd64a" stroke-width="3.5" stroke-linecap="round" stroke-linejoin="round" opacity="0.95"/>
</svg>