<svg xmlns="http://www.w3.org/2000/svg" viewBox="0 0 800 600" preserveAspectRatio="xMidYMid slice">
<rect width="100%" height="100%" fill="#143018"/>
<path d="M815.3,281.4 L941.5,279.5 L947.2,188.1 L938.6,83.4 L918.2,20.6 L898.8,-10.9 L888.2,-34.9 L886.0,-52.2 L870.7,-62.9 L858.7,-66.3 L844.6,-61.3 L826.6,-53.7 L813.0,-48.5 L800.1,-42.5 L769.3,-20.8 L715.5,15.0 L695.3,18.9 L684.5,36.9 L679.1,51.8 L712.3,85.5 L725.9,121.0 L763.0,192.7 L777.8,210.6 L788.9,239.2 L815.3,281.4 Z" fill="#5a9540" stroke="none"/>
<path d="M455.3,625.9 L453.5,630.2 L454.8,634.8 L462.5,637.7 L476.2,635.9 L499.5,640.1 L508.1,639.5 L512.2,636.4 L514.3,631.8 L514.6,627.9 L512.9,624.5 L509.5,621.6 L505.8,620.8 L492.2,618.5 L486.8,619.3 L481.2,621.7 L476.4,625.5 L472.9,626.9 L464.9,627.4 L461.6,625.9 L458.6,625.0 L455.3,625.9 Z" fill="#2e5577" stroke="none"/>
<path d="M409.4,253.8 L408.5,253.3 L408.8,249.6 L412.6,243.0 L418.1,241.7 L421.5,238.0 L425.8,234.4 L426.8,232.7 L428.1,232.3 L429.0,231.4 L432.0,229.8 L437.9,227.7 L449.6,226.4 L452.0,225.4 L450.9,224.3 L452.2,222.7 L453.8,222.9 L455.5,223.8 L457.0,224.0 L458.5,223.6 L459.6,225.1 L461.5,226.2 L461.3,227.6 L459.6,227.9 L458.5,227.2 L457.3,229.3 L452.9,233.7 L450.9,240.5 L449.1,244.5 L447.7,245.2 L446.3,245.2 L442.9,246.5 L440.1,247.2 L437.2,248.4 L435.6,249.9 L432.9,250.1 L429.4,249.3 L427.3,249.9 L425.9,249.4 L423.6,251.6 L424.3,252.9 L417.3,255.3 L411.8,254.4 L409.4,253.8 Z" fill="#e7d6a3" stroke="none"/>
<path d="M186.4,203.6 L185.6,204.1 L185.0,205.1 L184.7,205.8 L185.3,207.0 L185.5,208.3 L186.1,209.4 L187.1,209.8 L188.5,210.3 L189.1,211.0 L189.8,211.2 L191.2,211.3 L192.8,211.9 L193.8,211.5 L194.9,211.6 L195.7,210.7 L196.9,210.5 L197.7,210.8 L198.1,211.8 L198.8,212.0 L199.7,210.7 L200.6,210.3 L201.7,210.5 L203.4,212.2 L205.1,213.5 L207.9,214.2 L210.9,214.6 L212.0,214.2 L213.4,213.3 L214.2,211.7 L215.4,211.3 L215.4,210.6 L215.6,210.0 L214.3,209.9 L214.8,209.0 L216.1,208.6 L217.1,209.2 L217.9,210.2 L219.1,209.2 L220.5,207.9 L220.5,207.1 L220.9,205.1 L223.1,206.4 L223.8,208.5 L224.7,209.2 L227.5,210.9 L228.4,212.1 L227.8,213.3 L228.7,214.1 L230.3,216.3 L232.4,217.8 L234.3,218.5 L237.3,218.8 L237.8,220.3 L239.2,221.1 L241.5,220.7 L243.9,221.6 L246.1,221.0 L247.9,219.7 L252.0,218.3 L253.4,217.5 L254.7,215.7 L254.9,212.7 L253.7,210.1 L251.9,207.5 L251.4,205.2 L249.6,204.0 L247.9,201.9 L245.2,202.1 L242.2,203.6 L240.4,203.5 L238.9,205.1 L236.9,205.5 L236.0,204.4 L235.7,203.1 L234.5,201.6 L233.1,200.5 L231.8,200.3 L230.6,201.0 L229.3,200.1 L228.1,200.0 L227.3,200.8 L226.2,200.5 L224.2,200.6 L222.3,200.9 L221.0,201.3 L219.4,203.0 L218.1,203.4 L217.0,203.8 L215.6,203.9 L213.9,203.8 L212.3,203.9 L210.7,203.9 L208.9,204.0 L207.7,204.5 L207.2,205.6 L206.3,206.8 L204.9,207.2 L203.4,207.0 L202.1,206.5 L201.1,205.9 L199.5,205.3 L198.5,204.4 L198.1,203.2 L196.9,202.6 L195.8,202.6 L194.7,203.1 L193.7,203.1 L193.1,202.5 L192.5,202.5 L191.5,202.9 L190.6,202.9 L189.1,202.8 L188.3,202.7 L187.8,203.4 L186.4,203.6 Z" fill="#e7d6a3" stroke="none"/>
<path d="M413.8,418.6 L411.9,418.2 L410.2,418.3 L409.0,418.4 L407.6,419.2 L407.1,420.8 L407.6,422.0 L407.6,423.2 L407.6,424.3 L409.7,427.2 L411.6,428.0 L412.9,430.7 L414.4,434.2 L416.6,438.7 L416.1,440.5 L417.1,441.6 L421.2,445.1 L422.6,446.5 L422.1,448.7 L422.5,450.7 L423.5,449.9 L425.3,450.5 L426.0,451.7 L425.9,453.6 L427.7,455.3 L429.8,456.2 L430.7,458.3 L432.4,459.5 L432.7,460.5 L434.3,461.8 L436.2,461.4 L433.9,456.3 L433.7,454.7 L435.3,454.4 L436.7,452.5 L435.7,449.7 L433.8,450.0 L433.1,444.1 L431.7,442.2 L430.8,441.8 L429.8,440.8 L427.4,440.0 L424.9,436.5 L423.5,433.3 L421.8,432.0 L420.8,431.3 L420.8,430.3 L420.7,429.3 L418.9,428.5 L418.0,427.2 L417.2,425.5 L417.7,424.2 L417.0,423.0 L415.6,421.4 L415.3,419.5 L413.8,418.6 Z" fill="#e7d6a3" stroke="none"/>
<path d="M592.4,410.8 L591.1,410.2 L590.3,410.8 L589.0,411.7 L588.3,412.4 L585.4,411.8 L580.8,415.2 L580.7,416.5 L580.8,419.8 L583.6,424.3 L594.7,424.8 L595.0,421.1 L595.6,420.1 L596.9,420.0 L597.3,419.1 L595.5,417.3 L595.1,416.2 L592.7,415.7 L591.9,415.0 L592.2,413.6 L592.9,411.5 L592.4,410.8 Z" fill="#e7d6a3" stroke="none"/>
<path d="M515.6,418.1 L515.2,416.2 L513.8,414.8 L512.0,413.6 L510.4,414.3 L510.3,415.8 L509.9,416.9 L508.7,417.0 L507.1,417.3 L506.6,418.8 L505.2,419.2 L503.8,419.9 L503.3,420.3 L503.4,421.2 L503.8,422.1 L504.3,422.3 L505.7,422.4 L508.0,421.7 L509.1,421.2 L510.0,421.1 L511.0,420.5 L512.4,419.5 L513.1,419.1 L514.7,418.9 L515.6,418.1 Z" fill="#e7d6a3" stroke="none"/>
<path d="M146.3,188.3 L145.0,189.4 L145.2,190.1 L145.8,190.7 L146.7,191.2 L147.4,191.8 L148.4,192.6 L149.2,193.5 L149.6,193.9 L150.1,194.4 L150.3,195.4 L150.8,195.7 L151.7,195.9 L153.0,195.7 L153.7,195.2 L154.9,194.2 L154.7,193.5 L154.0,193.0 L154.1,192.3 L153.3,191.7 L152.8,190.8 L152.0,190.6 L151.1,190.5 L150.3,190.6 L149.6,190.5 L149.1,190.2 L148.5,189.5 L147.9,189.4 L147.1,189.0 L146.3,188.3 Z" fill="#e7d6a3" stroke="none"/>
<path d="M515.3,-37.3 L514.8,-39.3 L514.2,-40.4 L513.5,-41.1 L512.6,-41.7 L511.7,-41.9 L510.5,-41.6 L509.4,-41.4 L508.7,-41.1 L508.0,-40.5 L507.6,-39.8 L506.9,-38.6 L506.6,-36.8 L506.2,-35.4 L505.9,-33.3 L506.6,-32.3 L506.9,-31.0 L506.8,-30.1 L506.2,-29.1 L505.4,-28.5 L505.4,-27.6 L505.3,-26.7 L505.1,-25.7 L504.6,-24.4 L505.7,-24.8 L506.8,-24.3 L507.1,-23.2 L507.9,-21.8 L508.4,-20.5 L508.1,-19.6 L507.4,-19.1 L506.5,-20.1 L505.8,-20.7 L505.0,-20.1 L504.7,-18.8 L504.6,-17.0 L504.2,-15.5 L503.7,-14.9 L503.4,-13.1 L503.0,-11.6 L502.4,-10.5 L502.4,-8.9 L501.8,-8.3 L501.8,-7.2 L501.8,-5.4 L503.0,-5.3 L504.3,-5.1 L505.6,-6.0 L506.3,-6.6 L506.4,-7.8 L507.5,-8.7 L508.2,-9.7 L510.2,-12.3 L511.2,-11.5 L512.5,-12.5 L512.7,-13.8 L513.3,-14.9 L513.0,-15.9 L511.8,-16.6 L510.4,-16.9 L509.9,-17.8 L510.9,-18.7 L511.5,-19.7 L511.6,-20.9 L511.0,-22.4 L511.6,-23.1 L512.8,-22.6 L513.2,-23.4 L513.5,-25.1 L513.8,-25.8 L513.3,-27.2 L513.0,-28.9 L513.2,-30.7 L514.0,-31.4 L514.9,-31.4 L516.0,-30.6 L517.4,-29.8 L517.9,-33.0 L517.4,-34.3 L516.2,-35.6 L515.3,-37.3 Z" fill="#e7d6a3" stroke="none"/>
<path d="M141.2,201.4 L143.2,200.7 L144.8,200.1 L145.9,199.3 L146.4,198.6 L146.8,198.0 L146.9,197.3 L147.2,196.7 L146.6,196.2 L145.3,196.5 L144.5,196.2 L143.9,195.8 L143.9,195.2 L144.3,194.6 L143.6,194.1 L143.2,193.6 L142.7,193.4 L142.1,193.6 L141.4,193.3 L140.7,192.4 L140.8,191.2 L141.1,190.7 L141.5,190.3 L139.7,190.6 L138.4,190.6 L137.1,190.5 L135.9,190.5 L135.2,190.8 L134.6,191.5 L134.4,192.3 L135.0,193.1 L133.9,193.6 L133.6,194.7 L133.0,196.1 L132.8,197.1 L132.9,198.6 L134.1,198.4 L135.4,197.8 L136.4,198.5 L136.3,199.2 L137.1,200.1 L138.4,200.5 L139.6,201.1 L141.2,201.4 Z" fill="#e7d6a3" stroke="none"/>
<path d="M91.6,216.3 L93.2,217.1 L94.1,217.3 L96.2,216.2 L96.7,215.4 L97.2,214.1 L97.5,212.8 L95.6,212.8 L94.5,212.8 L93.0,213.5 L91.9,214.0 L91.0,214.5 L90.2,214.5 L88.4,214.5 L87.5,215.4 L86.4,215.6 L85.2,215.0 L84.1,215.2 L82.4,215.1 L81.7,216.5 L80.8,216.6 L79.6,216.5 L78.5,216.5 L77.8,216.8 L77.2,217.8 L76.1,218.9 L75.2,219.6 L74.1,219.3 L72.6,218.7 L71.8,217.8 L71.1,216.9 L70.7,215.8 L70.4,214.9 L69.5,214.3 L68.0,213.5 L67.4,214.0 L66.6,214.0 L65.4,214.0 L63.2,213.8 L62.2,213.6 L61.3,213.6 L60.5,213.6 L59.4,213.7 L58.6,213.5 L56.8,213.0 L55.5,213.1 L54.9,213.6 L53.5,213.8 L53.8,214.5 L55.2,214.8 L56.1,214.8 L57.2,215.1 L58.2,215.6 L59.0,216.6 L59.5,217.5 L60.4,218.5 L60.7,219.2 L60.9,220.0 L61.6,221.6 L62.3,220.2 L62.6,219.1 L63.6,218.4 L64.9,217.8 L65.8,218.9 L65.5,220.3 L66.7,220.4 L67.0,221.8 L66.8,222.5 L65.3,222.7 L64.6,224.1 L66.3,223.1 L67.2,223.8 L68.9,223.5 L71.0,223.2 L72.6,223.5 L74.0,223.8 L75.2,223.4 L76.1,223.6 L77.6,223.2 L78.0,222.6 L78.3,221.3 L77.9,219.9 L78.5,219.2 L79.8,219.0 L80.0,219.9 L80.8,220.4 L82.1,220.1 L83.1,219.7 L84.1,219.5 L85.4,218.9 L87.1,218.1 L88.7,218.2 L90.1,218.0 L90.9,217.1 L91.6,216.3 Z" fill="#e7d6a3" stroke="none"/>
<path d="M274.8,63.6 L272.6,62.6 L272.1,61.5 L271.4,60.5 L270.3,59.8 L270.3,58.7 L269.5,58.4 L269.2,57.7 L269.6,56.7 L270.5,56.1 L271.2,55.3 L272.2,54.9 L273.3,54.6 L274.4,54.3 L275.0,54.3 L276.2,54.6 L276.8,55.2 L277.3,56.2 L278.2,57.1 L279.2,57.9 L280.3,58.7 L280.7,59.7 L280.8,60.5 L281.3,61.5 L281.6,61.9 L282.9,62.9 L281.5,63.5 L280.8,64.5 L280.8,65.6 L281.6,66.2 L282.4,66.7 L282.3,67.4 L282.0,67.9 L281.2,68.2 L279.5,67.1 L278.7,66.1 L278.5,65.4 L278.5,64.3 L278.3,63.4 L279.0,62.3 L278.9,61.6 L278.8,60.5 L278.2,59.3 L277.4,58.9 L276.4,58.8 L275.6,59.0 L274.8,59.7 L275.0,60.9 L274.8,62.2 L274.8,63.6 Z" fill="#e7d6a3" stroke="none"/>
<path d="M461.5,166.0 L461.4,163.8 L460.9,161.5 L460.2,159.8 L459.3,158.0 L457.6,156.6 L455.4,155.9 L452.9,155.2 L451.8,155.4 L450.5,156.0 L449.8,157.0 L448.7,158.1 L447.6,157.8 L446.6,156.8 L445.8,156.6 L444.7,157.1 L443.6,157.9 L442.9,159.3 L441.5,159.6 L438.0,159.5 L435.1,158.8 L434.2,157.0 L432.8,155.7 L431.7,154.5 L430.7,153.5 L429.6,153.1 L428.0,153.3 L426.5,154.5 L425.4,154.7 L423.9,155.7 L423.2,157.4 L422.2,158.9 L424.3,159.0 L425.6,160.2 L427.4,160.9 L429.2,161.2 L431.1,162.2 L432.9,164.0 L433.9,165.9 L435.9,166.4 L439.4,167.9 L441.8,168.9 L443.9,168.2 L445.9,168.6 L447.3,168.9 L449.2,168.9 L450.4,169.4 L452.0,170.2 L452.3,169.2 L450.4,168.1 L449.8,167.1 L450.5,166.3 L452.3,166.1 L454.4,166.3 L455.6,167.4 L456.9,168.6 L457.7,169.4 L459.0,169.1 L460.2,169.7 L461.7,169.9 L462.6,168.6 L461.5,166.0 Z" fill="#e7d6a3" stroke="none"/>
<path d="M489.6,104.2 L489.6,101.9 L490.2,99.9 L490.5,98.5 L489.8,96.9 L488.6,95.9 L488.0,95.1 L486.4,94.6 L485.1,94.3 L483.9,94.1 L482.7,94.3 L481.1,95.3 L480.3,96.3 L478.8,97.1 L477.6,97.5 L476.7,97.5 L475.8,97.4 L473.4,97.1 L472.2,96.1 L470.8,94.5 L469.8,93.2 L468.9,92.1 L467.7,91.0 L466.4,90.0 L464.9,90.3 L464.1,90.5 L462.9,90.0 L462.0,89.6 L460.4,88.6 L458.3,89.1 L456.8,89.8 L455.5,91.1 L454.7,92.0 L454.0,93.8 L453.6,94.9 L453.1,95.8 L452.7,96.7 L451.8,97.1 L450.7,98.1 L450.7,99.5 L451.4,100.5 L452.7,101.5 L454.7,102.0 L455.8,102.8 L456.7,103.4 L457.5,104.7 L459.2,105.8 L460.9,106.5 L461.9,107.0 L463.1,107.5 L465.7,109.0 L467.6,108.4 L469.1,109.0 L470.4,109.7 L471.6,111.3 L472.4,111.5 L474.0,111.7 L475.9,112.3 L477.8,112.7 L479.2,113.1 L480.2,113.6 L480.8,114.7 L482.3,116.4 L483.7,116.2 L485.0,116.1 L486.7,116.5 L488.0,115.5 L489.1,114.8 L490.2,115.1 L491.4,114.0 L492.4,113.9 L493.6,114.4 L495.4,113.7 L494.9,112.1 L494.8,110.7 L495.0,109.4 L494.9,108.0 L493.4,107.3 L492.6,106.6 L492.0,105.4 L491.0,104.8 L489.6,104.2 Z" fill="#e7d6a3" stroke="none"/>
<path d="M382.0,76.6 L382.7,78.6 L383.4,79.6 L384.4,79.8 L386.1,79.8 L387.4,79.2 L389.7,77.8 L391.5,76.2 L392.4,75.0 L393.1,74.1 L394.1,73.1 L395.5,72.8 L396.5,73.2 L397.4,73.8 L398.5,73.7 L399.4,73.1 L398.7,72.3 L397.5,71.3 L397.4,70.3 L397.2,69.4 L396.9,68.7 L395.5,68.7 L394.6,68.0 L393.3,67.3 L392.0,67.5 L391.2,67.1 L390.4,67.3 L389.3,67.9 L388.4,68.1 L387.5,67.8 L387.0,66.8 L386.4,66.2 L385.5,66.3 L384.7,66.3 L383.8,65.9 L382.9,66.2 L382.0,65.3 L380.9,65.1 L380.0,65.0 L378.4,65.6 L377.3,65.5 L376.4,64.9 L375.2,66.1 L375.5,67.2 L374.6,67.9 L373.4,68.0 L372.8,68.9 L372.2,70.1 L372.9,71.8 L373.4,72.7 L374.6,73.8 L375.8,74.4 L377.2,75.2 L378.3,76.1 L379.6,75.8 L381.0,76.1 L382.0,76.6 Z" fill="#e7d6a3" stroke="none"/>
<path d="M370.5,118.1 L370.0,117.4 L369.1,117.2 L368.3,116.5 L367.4,116.6 L367.0,117.5 L367.6,118.2 L368.3,119.0 L368.3,119.6 L368.5,120.4 L368.9,121.1 L368.5,121.9 L368.0,122.9 L368.5,123.6 L369.0,124.2 L369.2,125.2 L368.8,125.8 L368.4,126.9 L368.1,127.9 L368.1,128.6 L368.5,129.6 L369.2,129.8 L369.9,130.3 L370.6,131.0 L370.9,131.8 L370.8,132.5 L371.1,133.2 L371.4,133.8 L370.7,135.1 L370.0,136.0 L372.4,138.8 L373.4,137.6 L374.3,137.1 L375.1,136.7 L376.2,136.6 L377.0,136.7 L377.6,137.5 L377.5,138.8 L376.9,139.5 L376.1,139.8 L375.6,140.5 L376.0,141.8 L376.3,143.2 L376.2,144.2 L379.3,147.4 L380.9,147.0 L382.2,146.9 L384.2,147.1 L384.9,148.0 L385.8,148.4 L386.4,149.6 L386.8,150.6 L387.3,151.6 L388.2,152.5 L388.7,152.9 L390.6,153.0 L392.3,153.1 L395.2,153.5 L397.3,153.5 L398.8,153.8 L399.5,153.0 L400.6,153.6 L401.7,153.6 L402.9,153.7 L403.7,154.1 L405.0,153.9 L406.0,154.5 L406.8,154.5 L407.8,155.0 L408.9,154.7 L409.5,155.1 L410.8,155.5 L411.8,155.4 L413.2,155.7 L413.2,154.4 L412.6,154.2 L411.9,153.6 L411.2,153.6 L410.3,153.7 L409.4,153.0 L408.7,152.5 L408.0,152.1 L406.9,151.7 L406.5,150.9 L406.8,150.1 L407.2,149.7 L407.8,149.1 L408.3,149.0 L408.4,147.9 L408.2,146.9 L408.0,146.0 L407.4,145.4 L407.3,144.6 L405.8,144.8 L404.6,144.7 L404.1,144.2 L403.3,144.1 L402.2,143.6 L401.6,142.7 L401.5,141.7 L400.2,141.3 L399.8,140.6 L399.4,140.1 L398.7,139.5 L398.0,139.0 L397.3,139.1 L396.5,138.9 L396.1,138.1 L396.1,137.3 L395.5,136.9 L395.6,138.5 L395.2,139.1 L394.5,139.0 L393.8,139.6 L393.5,139.9 L392.7,140.0 L392.2,140.5 L392.1,141.2 L392.7,141.8 L393.8,141.9 L394.5,142.3 L395.1,143.3 L394.9,144.6 L394.6,145.7 L393.9,145.7 L392.8,145.9 L392.2,146.4 L391.3,147.1 L390.3,146.8 L389.3,146.7 L388.9,144.8 L388.8,144.2 L387.9,143.8 L387.5,143.0 L387.4,142.0 L387.2,140.7 L387.5,139.8 L387.6,138.7 L387.2,137.9 L386.5,137.6 L385.6,137.7 L384.9,137.1 L384.5,136.7 L384.7,135.9 L384.9,135.2 L385.8,134.4 L385.8,133.6 L385.9,132.7 L384.9,132.6 L384.3,132.1 L384.2,130.8 L383.9,130.0 L383.6,129.2 L383.5,128.4 L383.0,127.9 L382.2,127.7 L381.7,127.1 L380.9,128.2 L380.1,128.9 L379.2,128.4 L378.7,127.8 L378.1,127.5 L377.5,127.1 L377.4,126.4 L377.7,125.7 L377.9,124.2 L377.0,123.7 L376.2,124.4 L374.8,124.2 L374.1,123.3 L372.9,122.8 L372.5,121.0 L371.5,120.7 L370.9,120.1 L370.6,119.2 L370.5,118.1 Z" fill="#e7d6a3" stroke="none"/>
<path d="M370.0,136.0 L369.2,137.0 L367.9,138.5 L368.0,140.1 L367.5,141.9 L367.4,143.7 L367.5,145.2 L368.6,146.3 L369.5,147.2 L370.2,148.0 L371.4,148.4 L372.8,148.3 L373.8,148.8 L374.9,149.8 L378.1,150.4 L379.1,148.6 L379.3,147.4 L376.2,144.2 L374.6,144.9 L373.3,145.3 L372.1,144.8 L371.0,144.1 L370.4,142.5 L371.0,140.7 L372.4,138.8 L370.0,136.0 Z" fill="#e7d6a3" stroke="none"/>
<path d="M340.7,101.7 L342.4,100.2 L342.5,98.0 L343.2,96.8 L344.8,97.0 L346.2,97.6 L347.7,97.6 L349.1,98.2 L349.9,98.7 L350.4,99.6 L351.7,99.5 L352.6,99.9 L353.3,100.7 L354.3,101.5 L355.0,102.2 L354.3,102.7 L354.3,103.9 L355.1,104.5 L355.7,104.9 L356.2,105.7 L357.2,105.8 L357.9,105.9 L358.5,106.7 L359.2,107.3 L360.4,107.4 L361.3,107.9 L362.0,108.6 L362.4,109.4 L362.2,110.3 L361.2,110.2 L360.5,110.1 L359.7,109.9 L358.9,109.4 L358.2,109.1 L357.3,108.8 L356.2,107.9 L355.5,107.4 L354.6,107.3 L353.7,107.4 L352.1,107.3 L350.6,107.1 L349.7,106.7 L348.6,106.7 L347.5,106.4 L346.5,106.0 L345.1,105.6 L344.4,104.8 L343.5,104.7 L342.0,104.0 L341.2,102.9 L340.7,101.7 Z" fill="#e7d6a3" stroke="none"/>
<path d="M335.9,102.5 L334.8,101.2 L333.5,100.4 L332.5,99.8 L332.0,99.4 L331.5,98.6 L330.8,98.4 L330.0,97.7 L329.1,97.5 L328.1,97.4 L326.9,97.3 L325.8,97.0 L325.3,96.4 L324.8,95.1 L325.8,94.3 L326.4,95.5 L327.4,96.0 L328.5,95.8 L329.3,95.4 L329.3,94.3 L330.2,93.8 L331.2,94.2 L332.3,94.2 L332.9,93.9 L333.6,94.0 L334.8,95.4 L336.0,96.0 L337.0,95.7 L337.9,96.0 L338.7,97.7 L337.8,97.7 L337.4,98.7 L337.6,99.4 L336.8,100.1 L337.0,101.7 L335.9,102.5 Z" fill="#e7d6a3" stroke="none"/>
<path d="M324.5,62.0 L323.7,60.3 L322.1,59.3 L321.2,58.1 L320.0,55.7 L318.8,54.1 L317.6,52.8 L317.3,51.7 L316.3,50.2 L314.8,49.2 L313.4,48.3 L312.4,47.7 L311.6,46.3 L310.2,45.3 L308.8,44.3 L307.8,43.8 L307.4,42.8 L306.3,42.1 L305.1,41.2 L304.9,40.3 L304.0,39.5 L302.5,39.0 L302.5,40.3 L302.9,42.3 L302.4,43.4 L302.1,44.7 L302.9,45.5 L303.0,47.1 L304.1,48.2 L305.7,49.6 L307.4,51.2 L309.3,52.4 L310.7,53.7 L311.0,52.7 L312.1,52.5 L313.1,53.6 L313.9,55.6 L314.4,56.7 L315.2,58.3 L317.0,60.8 L317.9,62.8 L318.6,63.9 L319.8,66.5 L320.8,67.4 L321.6,65.3 L322.5,65.6 L323.4,66.2 L324.2,68.8 L324.9,70.1 L326.3,71.4 L327.8,72.5 L329.9,73.0 L331.5,73.4 L332.9,73.4 L334.3,73.1 L335.2,71.4 L335.5,69.9 L334.9,69.1 L334.1,68.8 L333.1,67.5 L331.8,67.1 L330.4,66.6 L329.2,66.0 L328.3,65.7 L327.4,65.2 L326.5,64.4 L325.3,63.6 L324.5,62.0 Z" fill="#e7d6a3" stroke="none"/>
<path d="M477.9,-33.6 L477.1,-34.4 L476.2,-34.7 L475.3,-34.6 L474.6,-34.0 L474.3,-32.4 L474.2,-31.4 L474.6,-29.1 L473.6,-27.7 L472.8,-25.8 L472.2,-23.7 L472.0,-21.3 L471.2,-19.2 L470.0,-16.9 L469.8,-14.7 L468.9,-13.3 L468.4,-12.1 L467.7,-10.7 L467.7,-9.2 L467.0,-8.0 L466.8,-6.9 L467.5,-5.7 L467.4,-4.7 L466.6,-4.1 L465.6,-3.6 L464.8,-2.2 L464.5,-1.3 L465.3,-0.7 L466.1,0.3 L467.2,0.3 L468.2,0.9 L469.2,0.8 L470.6,0.7 L471.4,-1.3 L471.0,-2.8 L471.0,-4.5 L471.2,-5.7 L472.0,-6.5 L473.5,-6.6 L473.7,-7.5 L474.9,-8.2 L475.6,-9.4 L475.9,-10.7 L475.2,-11.5 L475.5,-12.6 L476.4,-14.1 L477.1,-15.3 L477.6,-16.2 L477.8,-18.0 L478.5,-19.4 L478.2,-20.9 L478.8,-22.3 L478.5,-23.9 L478.5,-25.2 L479.2,-26.5 L479.7,-27.7 L479.5,-28.7 L479.4,-29.4 L478.8,-30.4 L478.9,-31.5 L478.9,-32.7 L477.9,-33.6 Z" fill="#e7d6a3" stroke="none"/>
<path d="M611.5,485.5 L609.6,484.5 L609.2,483.3 L608.3,482.2 L606.1,481.5 L605.5,483.0 L604.6,484.0 L603.9,485.6 L603.8,486.9 L603.2,487.8 L603.5,489.4 L604.4,490.0 L605.1,489.5 L607.0,490.4 L608.0,491.1 L608.7,491.8 L609.2,493.1 L610.5,493.1 L611.5,493.4 L612.2,494.3 L612.4,495.3 L613.1,496.2 L614.3,497.2 L615.1,497.1 L616.1,496.5 L617.3,496.9 L617.9,497.8 L619.1,498.4 L619.9,499.7 L621.3,499.8 L622.9,500.7 L623.7,499.1 L625.0,498.6 L626.5,499.5 L627.2,500.7 L628.2,501.3 L629.2,502.1 L630.1,503.2 L630.1,505.0 L631.7,505.9 L632.7,507.2 L634.2,507.7 L635.0,507.1 L634.0,505.2 L634.8,504.2 L635.8,503.2 L636.6,503.2 L637.9,502.9 L639.1,503.9 L640.8,503.9 L641.4,504.7 L641.5,505.8 L643.6,506.4 L644.4,508.0 L645.6,508.4 L646.8,507.8 L648.1,506.6 L649.1,505.5 L649.9,504.0 L649.9,502.8 L651.2,501.7 L652.0,500.7 L651.4,499.3 L650.2,498.6 L649.5,497.4 L648.1,496.2 L646.4,494.9 L644.9,494.4 L643.4,493.6 L641.7,493.2 L639.3,492.3 L637.8,492.4 L636.9,493.1 L634.1,492.6 L632.4,491.8 L630.8,491.0 L628.9,491.0 L625.4,490.2 L623.8,489.6 L622.0,489.5 L621.1,489.3 L619.5,488.5 L617.9,488.7 L617.0,488.1 L615.9,487.2 L614.8,486.8 L613.7,486.3 L611.5,485.5 Z" fill="#e7d6a3" stroke="none"/>
<path d="M209.2,64.0 L206.5,67.5 L203.3,73.1 L202.2,78.9 L203.9,82.0 L206.4,84.0 L210.4,87.0 L214.3,88.3 L217.4,87.4 L217.7,84.9 L215.2,82.5 L213.8,79.3 L215.8,74.3 L217.6,70.9 L218.5,67.9 L215.4,64.6 L211.7,62.2 L209.2,64.0 Z" fill="#4f8a3e" stroke="none"/>
<path d="M227.1,26.2 L223.6,27.3 L220.2,30.7 L220.4,34.4 L224.4,40.0 L226.4,40.5 L230.6,40.2 L233.2,38.5 L234.1,35.6 L234.2,31.9 L233.4,29.7 L230.8,27.7 L227.1,26.2 Z" fill="#4f8a3e" stroke="none"/>
<path d="M732.9,313.0 L730.7,309.2 L728.2,306.6 L726.1,305.4 L722.9,304.9 L719.1,306.1 L713.8,307.8 L708.3,309.6 L704.9,310.5 L701.8,310.5 L698.8,311.1 L696.7,312.8 L695.6,315.0 L695.3,317.8 L695.6,321.5 L697.3,324.9 L699.2,326.8 L701.6,328.4 L705.1,329.9 L708.9,330.5 L712.8,330.4 L717.0,330.4 L722.3,329.3 L726.8,327.7 L729.9,326.2 L731.6,324.3 L733.0,322.0 L733.7,319.3 L733.7,316.7 L732.9,313.0 Z" fill="#4f8a3e" stroke="none"/>
<path d="M88.4,77.6 L86.5,83.4 L84.9,87.1 L84.5,90.1 L87.3,92.8 L91.9,92.9 L94.3,89.5 L96.2,84.1 L96.9,79.4 L96.6,77.3 L94.3,76.2 L91.4,75.2 L89.3,75.8 L88.4,77.6 Z" fill="#4f8a3e" stroke="none"/>
<path d="M40.9,157.4 L37.1,159.3 L33.7,162.2 L34.5,164.8 L39.9,166.1 L45.6,165.5 L50.6,162.9 L55.8,158.6 L57.8,154.4 L57.7,151.5 L54.0,148.9 L50.6,150.9 L48.3,154.6 L45.9,156.7 L43.2,157.1 L40.9,157.4 Z" fill="#4f8a3e" stroke="none"/>
<path d="M58.1,142.1 L61.3,136.1 L63.2,131.9 L65.3,128.1 L67.5,124.3 L71.2,121.8 L73.9,122.8 L74.8,125.0 L74.3,128.2 L73.0,132.2 L71.2,135.6 L68.6,139.5 L66.5,143.5 L63.9,146.4 L61.0,146.3 L59.9,145.5 L58.6,143.0 L58.1,142.1 Z" fill="#4f8a3e" stroke="none"/>
<path d="M-15.5,351.1 L-10.2,350.3 L-0.4,349.3 L4.5,348.9 L10.8,348.8 L15.2,349.3 L16.0,351.7 L14.7,353.6 L8.2,354.2 L-0.4,354.8 L-9.7,356.4 L-16.7,356.8 L-17.9,356.2 L-18.3,354.0 L-17.7,352.7 L-15.5,351.1 Z" fill="#4f8a3e" stroke="none"/>
<path d="M710.5,261.3 L707.3,266.0 L704.9,271.5 L705.3,275.8 L708.1,278.1 L714.8,278.3 L719.9,276.4 L720.9,270.3 L718.0,264.9 L713.2,261.9 L710.5,261.3 Z" fill="#4f8a3e" stroke="none"/>
<path d="M705.4,365.5 L700.2,361.0 L693.5,358.6 L690.9,360.4 L691.1,363.1 L692.1,365.9 L695.1,369.3 L699.1,372.6 L705.6,375.8 L708.5,375.7 L710.0,372.7 L709.9,370.4 L708.5,368.3 L705.4,365.5 Z" fill="#4f8a3e" stroke="none"/>
<path d="M677.9,340.9 L675.8,343.1 L676.2,345.8 L677.7,348.4 L680.9,351.1 L684.5,353.0 L688.9,353.3 L692.1,352.2 L693.3,349.8 L693.4,347.4 L692.4,344.4 L689.1,342.1 L683.3,340.7 L678.9,340.5 L677.9,340.9 Z" fill="#4f8a3e" stroke="none"/>
<path d="M724.6,379.4 L718.7,380.2 L716.3,384.2 L716.5,387.6 L718.9,390.6 L723.5,392.3 L726.8,393.0 L731.0,394.0 L734.8,393.5 L736.1,390.3 L735.8,387.5 L733.3,384.3 L730.4,382.5 L727.1,380.5 L724.6,379.4 Z" fill="#4f8a3e" stroke="none"/>
<path d="M585.2,-76.9 L580.8,-70.5 L577.3,-65.7 L574.6,-62.0 L573.4,-58.4 L573.4,-56.6 L574.4,-55.1 L576.2,-54.9 L578.5,-55.6 L581.8,-58.8 L584.1,-62.1 L587.4,-66.3 L591.1,-69.9 L593.6,-73.2 L593.4,-77.7 L590.3,-79.4 L587.6,-78.6 L585.2,-76.9 Z" fill="#4f8a3e" stroke="none"/>
<path d="M549.2,-19.1 L545.3,-14.7 L542.2,-12.3 L542.1,-8.8 L544.0,-5.1 L546.9,-3.3 L552.1,-3.7 L555.7,-6.2 L558.8,-11.8 L560.1,-16.4 L560.4,-19.6 L560.0,-21.9 L553.4,-21.6 L549.7,-19.7 L549.2,-19.1 Z" fill="#4f8a3e" stroke="none"/>
<path d="M74.7,237.5 L75.3,232.0 L80.2,227.1 L94.0,222.6 L102.8,218.8 L107.5,212.5 L112.2,210.0 L123.5,211.3 L134.8,211.3 L138.3,212.8 L140.5,214.7 L143.3,219.2 L144.8,226.0 L144.6,233.4 L142.2,236.2 L135.6,239.0 L125.9,240.9 L111.7,243.2 L98.2,245.8 L86.6,248.5 L80.5,247.3 L77.0,243.1 L74.7,237.5 Z" fill="#2f7825" stroke="none"/>
<path d="M797.8,317.6 L790.0,326.5 L785.1,340.4 L784.8,363.8 L786.6,380.0 L792.9,392.4 L801.9,396.5 L813.4,395.9 L825.3,390.4 L828.5,381.4 L828.2,369.6 L823.3,352.0 L824.1,336.6 L822.7,327.7 L819.5,321.0 L814.9,316.7 L805.1,315.3 L797.8,317.6 Z" fill="#2f7825" stroke="none"/>
<path d="M644.7,440.0 L640.9,439.0 L637.4,438.7 L634.8,439.2 L632.3,440.7 L628.0,445.2 L623.9,450.4 L620.4,455.5 L618.8,458.5 L617.7,462.9 L616.8,468.9 L617.0,473.9 L617.7,477.5 L619.8,480.5 L623.0,482.3 L627.4,483.1 L634.4,484.2 L640.8,485.7 L646.6,487.5 L652.2,489.1 L656.5,488.9 L661.1,487.7 L664.5,485.4 L668.3,482.1 L670.6,478.9 L672.9,475.0 L674.6,470.8 L675.4,465.8 L675.0,462.3 L673.7,460.1 L672.3,458.8 L670.1,457.5 L666.8,456.6 L661.7,454.9 L658.4,453.4 L655.9,451.1 L654.0,448.7 L652.1,446.4 L650.4,444.1 L648.2,441.9 L644.7,440.0 Z" fill="#2f7825" stroke="none"/>
<path d="M495.3,-51.4 L492.0,-51.9 L489.0,-51.3 L485.7,-49.7 L483.7,-47.8 L482.7,-45.7 L481.9,-42.7 L481.6,-39.8 L481.9,-35.1 L482.2,-30.2 L482.7,-26.0 L482.1,-20.6 L480.8,-15.6 L478.6,-9.6 L476.3,-4.0 L474.5,-0.7 L473.7,2.2 L473.8,5.9 L475.2,8.7 L478.5,12.0 L482.8,14.1 L487.2,14.6 L491.9,13.7 L494.4,11.8 L495.8,9.9 L497.2,7.1 L497.9,1.2 L498.4,-5.3 L499.3,-12.1 L501.4,-21.8 L503.0,-31.1 L504.4,-37.6 L504.9,-41.5 L504.4,-44.0 L502.8,-46.7 L500.1,-49.3 L497.9,-50.7 L495.3,-51.4 Z" fill="#2f7825" stroke="none"/>
<path d="M300.0,49.7 L297.5,46.2 L295.5,42.4 L294.0,39.5 L291.3,35.9 L288.6,32.8 L286.4,30.7 L283.1,28.1 L279.8,27.0 L276.2,26.6 L273.9,27.1 L271.4,28.7 L270.5,30.8 L269.7,34.5 L269.4,39.5 L270.6,44.5 L272.0,47.3 L273.9,50.2 L277.0,53.2 L280.4,55.8 L283.3,58.8 L284.9,61.5 L287.4,64.9 L289.4,67.1 L292.2,69.5 L296.0,72.7 L299.9,75.9 L304.0,78.0 L308.4,78.8 L311.0,78.6 L313.4,77.2 L314.7,74.9 L315.2,72.3 L315.2,69.9 L314.1,66.0 L313.0,62.0 L311.5,59.4 L308.8,56.9 L306.1,55.3 L303.5,53.0 L300.0,49.7 Z" fill="#2f7825" stroke="none"/>
<path d="M729.7,388.8 L362.3,277.8 L108.0,231.8" fill="none" stroke="#ffd64a" stroke-width="5" stroke-linecap="round" stroke-linejoin="round" opacity="0.95"/>
</svg>