<svg xmlns="http://www.w3.org/2000/svg" viewBox="0 0 543 800" preserveAspectRatio="xMidYMid meet">
<rect width="100%" height="100%" fill="#143018"/>
<path d="M427.0,68.5 L423.6,70.7 L420.4,74.0 L419.0,77.6 L418.5,82.0 L419.4,86.3 L421.5,88.8 L423.9,90.2 L427.2,91.1 L429.4,91.2 L433.9,89.8 L437.4,87.2 L440.6,83.2 L442.8,77.4 L443.1,74.3 L442.9,71.0 L442.7,70.3 L441.7,68.2 L440.4,66.8 L439.3,66.1 L438.2,65.8 L436.5,65.7 L431.8,66.5 L427.0,68.5 Z" fill="#2b5a2a" stroke="none"/>
<path d="M83.4,716.6 L460.1,83.4" fill="none" stroke="#4e8b39" stroke-width="64.8" stroke-linecap="round" stroke-linejoin="round" opacity="0.85"/>
<path d="M466.9,58.8 L466.6,56.7 L466.9,54.4 L468.1,51.5 L468.9,47.0 L468.5,45.0 L467.6,43.5 L467.0,43.0 L466.2,42.5 L464.0,42.0 L462.4,42.2 L461.6,42.6 L461.0,43.4 L458.3,44.5 L455.6,47.5 L451.3,50.1 L448.3,50.8 L445.8,50.3 L443.7,49.3 L436.1,40.3 L431.8,36.9 L427.7,35.3 L423.5,35.9 L420.8,37.0 L387.8,58.0 L371.9,72.2 L343.6,92.9 L308.3,131.5 L291.4,151.9 L275.8,163.9 L263.1,179.7 L252.9,188.7 L223.7,225.3 L202.5,249.0 L186.3,271.7 L185.0,275.8 L181.8,302.4 L174.0,337.0 L173.6,346.8 L175.7,352.0 L177.3,354.5 L180.5,357.7 L195.8,365.8 L199.0,366.4 L202.5,366.0 L206.2,364.4 L207.5,363.5 L210.1,360.9 L212.6,356.1 L217.1,336.2 L227.5,307.6 L233.6,296.8 L248.8,275.6 L266.0,255.8 L296.8,222.5 L322.3,191.2 L341.7,171.7 L354.7,161.0 L386.8,141.6 L407.1,127.1 L431.4,113.7 L434.4,113.0 L429.4,108.9 L427.7,105.6 L426.3,100.1 L426.4,97.4 L427.0,94.5 L428.1,92.5 L428.8,91.7 L429.4,91.2 L427.2,91.1 L423.9,90.2 L421.5,88.8 L419.4,86.3 L418.5,82.0 L419.0,77.6 L420.4,74.0 L423.6,70.7 L427.0,68.5 L431.8,66.5 L436.5,65.7 L438.2,65.8 L439.3,66.1 L440.4,66.8 L441.7,68.2 L442.7,70.3 L442.9,71.0 L443.6,69.0 L444.2,67.6 L444.4,67.3 L447.6,63.1 L454.4,57.4 L457.4,56.6 L460.0,56.6 L466.9,58.8 Z" fill="#5a9540" stroke="none"/>
<path d="M311.2,515.5 L309.5,511.9 L308.1,509.4 L307.0,507.5 L303.8,501.9 L293.2,487.4 L288.2,479.0 L289.8,481.2 L298.6,487.5 L305.2,489.6 L309.0,489.8 L312.6,488.5 L315.5,486.2 L319.1,479.9 L320.0,476.9 L320.4,473.9 L319.4,467.8 L329.4,493.6 L332.3,507.4 L332.3,515.0 L330.0,518.7 L327.1,521.5 L324.4,523.4 L318.7,524.4 L313.0,520.4 L311.2,515.5 Z" fill="#5a9540" stroke="none"/>
<path d="M674.3,119.4 L681.9,121.1 L690.4,126.2 L699.3,140.5 L700.5,152.8 L694.2,170.6 L693.4,179.0 L694.2,190.4 L699.9,224.7 L704.7,243.9 L712.6,286.4 L717.0,324.8 L719.0,351.4 L723.6,385.7 L724.9,407.1 L722.2,433.7 L717.6,464.0 L711.0,492.1 L702.3,521.7 L693.7,546.7 L658.4,627.1 L653.1,635.4 L640.2,649.1 L632.2,653.7 L629.2,654.0 L617.6,652.9 L602.4,647.7 L591.0,641.5 L589.1,639.2 L587.0,635.1 L585.6,626.0 L586.7,621.7 L596.3,602.5 L604.9,580.3 L615.0,560.7 L627.7,539.3 L635.6,522.8 L660.8,485.8 L671.3,475.6 L673.5,471.3 L677.2,455.6 L682.5,442.5 L682.4,439.6 L681.5,436.8 L671.4,420.6 L664.4,405.9 L662.2,391.8 L666.4,353.7 L667.3,313.3 L666.0,265.6 L664.1,251.9 L654.0,214.9 L646.0,170.6 L645.6,160.4 L649.0,140.1 L651.1,135.5 L661.7,124.5 L665.9,121.9 L674.3,119.4 Z" fill="#5a9540" stroke="none"/>
<path d="M-113.7,793.9 L-118.7,798.1 L-122.6,802.6 L-127.0,808.4 L-134.3,814.8 L-139.6,819.6 L-146.9,827.1 L-149.9,831.0 L-151.0,836.3 L-149.4,840.8 L-145.5,844.7 L-141.8,847.5 L-137.1,850.0 L-131.2,850.5 L-124.0,848.9 L-111.7,845.3 L-102.8,843.3 L-88.8,838.6 L-76.6,836.0 L-60.4,832.1 L-41.4,826.3 L-25.5,822.4 L-10.5,816.8 L4.3,813.2 L19.1,811.2 L33.3,810.1 L51.2,810.6 L73.0,812.0 L86.9,815.7 L98.9,817.4 L113.7,818.8 L129.3,819.3 L148.6,818.7 L170.8,819.5 L198.7,816.8 L222.9,810.5 L234.5,805.9 L243.3,802.8 L248.9,800.4 L255.8,790.2 L259.3,783.8 L264.1,781.7 L268.2,781.5 L272.7,783.3 L271.1,777.5 L271.1,770.1 L273.7,764.7 L280.0,760.1 L272.0,753.6 L257.7,745.6 L250.5,743.0 L245.8,741.1 L239.9,741.0 L228.3,742.3 L214.9,743.5 L202.5,745.9 L189.5,748.2 L174.2,750.7 L160.1,753.2 L146.4,754.9 L130.4,756.5 L115.3,758.2 L98.9,758.5 L89.1,760.2 L81.3,761.3 L72.1,762.1 L65.4,764.6 L60.1,767.1 L52.9,769.9 L46.2,774.4 L41.1,779.1 L31.7,780.5 L24.4,778.0 L16.6,773.3 L10.5,768.8 L1.5,762.7 L-5.7,759.9 L-12.4,755.7 L-18.8,753.8 L-24.4,752.9 L-29.4,753.2 L-38.1,756.0 L-44.5,758.2 L-50.6,762.4 L-60.4,768.0 L-69.3,773.8 L-76.0,777.2 L-82.1,779.1 L-90.2,781.9 L-97.2,786.4 L-104.5,790.8 L-109.8,792.8 L-113.7,793.9 Z" fill="#5a9540" stroke="none"/>
<path d="M308.6,232.8 L343.4,183.4 L361.5,167.2 L381.1,158.9 L418.0,129.6 L473.1,99.5 L503.9,85.0 L509.8,84.6 L511.7,85.0 L514.0,85.9 L516.0,88.0 L519.5,93.7 L517.2,105.6 L502.7,149.0 L492.7,171.6 L466.2,208.4 L454.2,221.7 L452.5,225.5 L453.4,233.2 L454.4,236.3 L460.3,244.3 L462.8,246.3 L466.9,252.0 L471.6,266.6 L473.9,276.1 L469.0,298.3 L470.7,310.6 L479.0,346.0 L485.3,394.4 L486.6,417.1 L482.7,438.8 L476.1,453.1 L469.3,468.2 L465.0,475.6 L448.3,507.8 L441.8,517.1 L433.9,532.0 L427.2,559.5 L422.3,572.0 L412.7,584.4 L399.6,591.8 L394.9,591.4 L385.3,588.7 L380.4,585.1 L375.9,579.6 L373.9,574.6 L375.2,565.1 L376.3,563.2 L377.0,560.9 L381.3,556.2 L385.9,552.9 L387.6,550.5 L388.9,547.1 L389.2,542.6 L387.2,531.3 L384.8,525.8 L383.2,523.5 L376.5,502.2 L374.3,484.1 L375.1,479.8 L375.0,477.6 L383.1,459.5 L382.7,457.2 L382.9,455.5 L381.6,452.3 L381.9,447.7 L382.8,445.3 L383.3,420.9 L380.1,414.3 L368.9,407.5 L366.7,407.1 L364.5,406.0 L362.3,405.5 L358.8,405.6 L355.4,406.6 L335.1,420.4 L333.8,420.8 L331.8,420.1 L294.3,420.5 L280.0,418.4 L259.2,410.7 L249.0,404.6 L244.8,399.8 L242.0,393.7 L233.2,361.5 L231.0,348.4 L231.1,335.3 L236.7,312.9 L248.0,294.6 L260.0,279.7 L288.1,255.2 L308.6,232.8 Z" fill="#2e5577" stroke="none"/>
<path d="M290.8,831.6 L297.5,827.4 L326.8,826.5 L333.0,824.3 L335.5,822.2 L337.8,819.3 L338.4,818.0 L338.8,813.8 L337.0,809.4 L332.2,805.0 L323.1,800.3 L319.0,799.1 L291.6,796.5 L279.1,792.4 L276.0,790.6 L270.2,788.9 L267.1,789.1 L262.0,790.9 L253.7,803.1 L239.2,810.1 L236.9,816.8 L236.4,823.5 L238.5,828.0 L238.0,833.8 L241.1,836.6 L250.9,841.9 L260.1,841.6 L288.6,833.8 L290.8,831.6 Z" fill="#2e5577" stroke="none"/>
<path d="M242.0,443.9 L238.7,458.9 L242.0,470.1 L241.4,486.8 L246.5,507.5 L257.1,528.7 L257.6,543.7 L250.9,566.0 L256.0,585.6 L277.1,611.8 L283.3,636.9 L291.1,655.3 L306.2,665.3 L322.3,665.3 L331.3,655.9 L332.9,640.2 L323.5,605.1 L316.8,577.2 L310.6,534.8 L307.8,522.5 L289.4,496.9 L280.5,484.6 L272.7,463.9 L258.2,453.9 L251.5,446.1 L242.0,443.9 Z" fill="#2e5577" stroke="none"/>
<path d="M576.5,602.3 L578.7,601.4 L580.1,600.8 L582.1,600.2 L584.5,599.3 L585.6,597.5 L585.8,594.3 L585.5,592.0 L584.4,590.5 L583.0,589.4 L580.8,588.8 L578.1,588.6 L575.3,589.3 L572.7,590.9 L570.9,592.3 L569.8,593.8 L567.9,595.9 L566.7,597.7 L565.8,601.0 L565.9,603.5 L567.3,605.6 L570.1,607.0 L571.7,606.9 L573.0,606.0 L574.6,604.5 L576.5,602.3 Z" fill="#e7d6a3" stroke="none"/>
<path d="M481.4,691.6 L481.4,690.6 L481.6,689.5 L488.0,679.4 L490.8,676.8 L492.0,674.8 L492.3,673.6 L492.3,671.2 L490.0,666.7 L489.1,665.8 L486.6,665.0 L485.3,664.9 L483.3,665.6 L482.0,666.6 L477.8,676.7 L466.8,689.4 L465.7,690.1 L464.8,691.4 L464.3,692.4 L464.4,694.0 L465.1,696.5 L465.6,697.6 L469.9,702.2 L471.2,707.5 L472.2,708.8 L473.0,709.3 L473.9,709.3 L475.1,708.6 L476.3,706.8 L476.7,705.0 L476.4,702.7 L475.0,698.8 L475.1,697.5 L475.6,696.7 L476.6,696.7 L477.7,697.3 L478.7,698.2 L480.3,698.7 L481.6,698.7 L482.2,697.9 L482.6,696.3 L481.4,691.6 Z" fill="#e7d6a3" stroke="none"/>
<path d="M417.6,709.2 L416.4,710.1 L414.9,710.2 L413.5,710.0 L408.7,707.5 L406.8,705.4 L405.7,703.4 L404.7,697.2 L403.5,695.0 L401.3,692.9 L400.1,692.3 L398.9,692.1 L397.3,692.9 L395.1,695.7 L392.7,701.4 L390.7,712.4 L391.0,719.4 L392.1,722.2 L393.1,723.5 L394.4,723.9 L396.1,724.1 L398.6,723.3 L401.0,723.9 L402.0,724.5 L404.8,725.2 L406.8,724.6 L409.5,719.2 L411.0,718.3 L411.7,718.3 L412.7,718.6 L413.5,719.1 L414.3,720.1 L414.5,724.5 L415.1,725.8 L416.1,726.6 L417.1,726.9 L424.9,727.1 L427.4,726.2 L427.9,725.7 L428.2,724.8 L428.5,719.4 L428.8,718.5 L429.2,715.9 L427.2,712.4 L427.0,710.4 L427.3,706.4 L426.8,703.7 L423.1,698.9 L421.9,697.9 L418.8,696.2 L417.1,695.8 L415.1,696.0 L414.2,696.3 L412.4,698.0 L412.0,699.1 L412.0,700.8 L412.7,702.2 L417.7,707.1 L418.1,708.4 L417.6,709.2 Z" fill="#e7d6a3" stroke="none"/>
<path d="M402.4,751.9 L401.7,757.2 L402.4,762.5 L404.3,768.2 L406.8,770.7 L415.7,774.1 L418.6,772.6 L418.0,769.3 L414.6,764.8 L413.8,761.2 L413.6,756.6 L411.7,753.0 L408.3,750.7 L402.4,751.9 Z" fill="#e7d6a3" stroke="none"/>
<path d="M-22.1,852.7 L4.1,838.7 L22.3,838.7 L33.7,833.6 L30.7,825.2 L21.0,825.2 L-37.3,839.1 L-45.0,840.0 L-45.8,846.3 L-29.7,852.2 L-22.1,852.7 Z" fill="#e7d6a3" stroke="none"/>
<path d="M-12.8,743.8 L7.3,755.4 L11.5,752.4 L11.1,745.7 L-0.6,735.1 L-6.1,732.1 L-18.3,734.9 L-21.3,737.9 L-20.0,741.4 L-16.0,743.8 L-12.8,743.8 Z" fill="#e7d6a3" stroke="none"/>
<path d="M25.6,763.4 L22.1,760.7 L19.1,760.7 L17.6,763.9 L20.1,767.9 L24.4,770.8 L29.7,772.7 L34.3,771.0 L33.1,767.0 L30.3,764.1 L25.6,763.4 Z" fill="#e7d6a3" stroke="none"/>
<path d="M-56.8,730.0 L-61.0,732.6 L-62.7,736.4 L-60.4,741.7 L-54.3,743.6 L-48.1,742.7 L-43.7,739.5 L-45.2,736.0 L-50.0,734.5 L-53.0,731.9 L-56.8,730.0 Z" fill="#e7d6a3" stroke="none"/>
<path d="M277.6,733.3 L273.8,728.7 L272.5,726.4 L271.6,723.7 L270.8,722.8 L269.7,721.9 L268.4,721.4 L266.9,721.0 L265.5,721.3 L263.5,722.3 L260.9,724.1 L259.6,726.4 L259.0,728.6 L259.3,731.5 L259.7,733.3 L260.3,735.2 L260.9,736.7 L261.6,738.1 L263.1,739.5 L264.8,740.8 L266.6,742.1 L273.1,746.6 L276.4,749.0 L279.5,750.9 L281.3,751.8 L283.1,752.4 L284.2,752.5 L285.0,752.6 L285.8,752.7 L287.2,752.5 L288.2,752.3 L289.5,751.5 L290.5,750.8 L292.1,749.6 L293.3,748.0 L294.1,745.8 L293.9,743.1 L293.5,740.4 L291.7,737.6 L289.6,735.8 L285.9,735.3 L281.3,735.0 L277.6,733.3 Z" fill="#e7d6a3" stroke="none"/>
<path d="M508.5,590.7 L510.2,589.1 L512.9,588.7 L515.2,588.0 L516.8,587.0 L517.6,585.2 L517.5,583.0 L517.3,580.9 L516.8,578.8 L516.5,575.4 L516.2,572.7 L517.3,570.7 L518.4,569.6 L519.8,568.6 L522.1,567.4 L524.2,566.1 L525.8,564.2 L526.7,561.2 L527.2,557.7 L526.8,554.9 L525.7,553.3 L524.0,552.7 L522.0,552.4 L520.2,553.4 L518.1,555.7 L515.9,557.6 L514.0,559.4 L512.2,561.0 L510.7,562.8 L509.4,564.6 L508.9,567.5 L508.6,570.1 L508.5,572.4 L508.9,574.5 L509.1,576.0 L508.7,578.0 L507.4,579.9 L505.3,579.9 L503.1,580.2 L501.5,581.0 L500.0,582.2 L498.8,583.7 L497.2,586.4 L495.4,589.2 L493.9,591.6 L493.9,595.1 L495.4,598.3 L496.9,600.7 L499.3,602.8 L501.5,604.4 L504.3,605.6 L506.8,605.1 L508.8,603.5 L509.1,600.9 L508.1,597.7 L507.1,594.6 L507.8,592.4 L508.5,590.7 Z" fill="#e7d6a3" stroke="none"/>
<path d="M605.0,557.8 L606.1,556.8 L607.1,556.1 L608.1,555.3 L609.0,554.6 L610.2,553.5 L611.3,552.1 L612.4,550.5 L613.4,549.1 L614.3,547.5 L614.9,546.4 L615.6,545.1 L616.2,543.7 L616.7,542.4 L617.3,541.1 L617.9,539.4 L618.3,538.6 L618.5,537.9 L618.5,536.7 L618.3,535.9 L617.6,534.8 L616.5,533.9 L615.7,533.5 L614.3,533.4 L613.1,533.6 L612.1,533.8 L611.2,534.3 L610.3,534.8 L609.6,535.3 L608.9,536.0 L608.5,537.0 L608.4,538.3 L608.2,539.5 L607.9,541.0 L607.4,543.8 L606.9,544.7 L606.3,545.7 L605.9,546.5 L605.3,547.4 L604.2,548.2 L602.6,549.1 L601.0,549.7 L599.6,550.1 L597.9,550.7 L596.5,551.4 L595.6,551.8 L594.7,552.4 L593.9,553.0 L593.0,553.9 L592.0,554.6 L591.2,555.4 L590.6,556.1 L589.9,557.1 L589.2,558.2 L588.9,559.3 L588.7,560.7 L588.8,561.8 L589.0,563.2 L589.2,564.3 L589.9,565.2 L590.8,566.0 L591.9,566.8 L593.2,567.2 L594.5,567.4 L595.8,567.3 L597.2,566.4 L598.4,564.8 L599.4,562.9 L600.5,561.7 L601.7,560.3 L602.5,559.3 L604.1,558.4 L605.0,557.8 Z" fill="#e7d6a3" stroke="none"/>
<path d="M426.7,84.6 L426.5,83.3 L426.7,82.0 L427.3,81.0 L427.8,80.6 L429.9,79.9 L430.3,79.5 L430.9,79.2 L432.2,79.0 L433.0,79.2 L433.7,80.2 L433.9,81.9 L433.7,82.8 L433.0,84.5 L431.5,85.8 L429.8,86.4 L428.9,86.3 L427.6,85.7 L427.1,85.2 L426.7,84.6 Z" fill="#e7d6a3" stroke="none"/>
<path d="M476.7,59.4 L480.1,58.5 L481.2,57.6 L481.4,56.9 L481.5,56.2 L481.1,55.1 L480.6,54.6 L479.9,54.2 L477.6,54.1 L475.4,54.8 L474.3,55.8 L473.9,56.9 L473.8,57.4 L473.9,58.0 L474.3,59.0 L474.7,59.2 L475.1,59.4 L476.7,59.4 Z" fill="#e7d6a3" stroke="none"/>
<path d="M442.5,37.2 L443.2,35.8 L444.6,34.4 L446.3,33.4 L448.1,33.0 L450.0,33.1 L451.3,34.1 L452.3,35.5 L452.6,36.8 L452.1,38.8 L451.1,40.6 L449.4,42.3 L447.5,43.2 L445.5,43.1 L443.7,42.1 L442.6,40.7 L442.1,38.9 L442.5,37.2 Z" fill="#e7d6a3" stroke="none"/>
<path d="M325.7,751.2 L326.2,750.2 L326.4,749.1 L326.2,748.0 L325.6,747.1 L324.8,746.3 L323.7,745.8 L322.5,745.7 L321.3,746.1 L320.4,746.8 L319.7,747.8 L319.4,748.9 L319.5,750.1 L320.0,751.2 L320.8,752.0 L321.8,752.5 L322.9,752.7 L324.0,752.5 L325.0,752.0 L325.7,751.2 Z" fill="#e7d6a3" stroke="none"/>
<path d="M610.1,507.8 L609.6,506.7 L608.9,506.1 L607.8,505.6 L606.4,505.2 L604.7,504.9 L603.4,505.2 L601.3,506.5 L599.2,508.4 L598.5,509.1 L598.0,510.0 L597.7,510.9 L597.7,511.5 L597.8,512.5 L598.1,513.8 L598.8,514.6 L599.4,515.3 L600.1,515.8 L601.0,516.3 L601.7,516.3 L602.8,516.5 L603.9,516.2 L604.8,515.6 L607.6,512.1 L609.5,509.9 L610.1,507.8 Z" fill="#e7d6a3" stroke="none"/>
<path d="M514.3,48.9 L513.0,45.6 L512.2,41.8 L512.6,38.5 L513.4,36.3 L515.4,34.7 L517.9,34.1 L520.6,34.7 L522.8,36.7 L525.4,43.0 L527.8,56.1 L527.5,58.0 L525.9,58.8 L523.9,58.8 L521.6,58.0 L518.3,55.0 L514.3,48.9 Z" fill="#4f8a3e" stroke="none"/>
<path d="M599.6,105.6 L602.2,99.6 L604.0,98.4 L605.8,97.7 L608.3,97.9 L610.1,99.0 L610.9,101.0 L611.2,103.3 L610.3,109.7 L607.4,117.0 L604.6,119.0 L601.8,119.1 L600.2,118.3 L599.0,116.4 L598.7,113.6 L599.6,105.6 Z" fill="#4f8a3e" stroke="none"/>
<path d="M526.3,149.6 L531.1,135.4 L533.2,134.0 L534.9,134.0 L536.4,134.7 L537.1,136.2 L535.6,164.1 L534.1,166.7 L532.3,168.5 L530.3,169.0 L528.3,168.3 L526.9,166.9 L525.1,159.7 L526.3,149.6 Z" fill="#4f8a3e" stroke="none"/>
<path d="M503.0,227.5 L504.2,218.7 L505.7,215.2 L507.5,213.5 L509.1,212.8 L511.1,213.3 L513.2,215.2 L514.6,220.9 L514.5,225.3 L513.4,229.3 L511.3,232.7 L509.3,234.6 L506.8,235.2 L504.4,233.8 L503.3,231.0 L503.0,227.5 Z" fill="#4f8a3e" stroke="none"/>
<path d="M491.2,247.9 L490.5,246.1 L490.8,243.8 L491.8,241.6 L494.3,240.3 L497.0,240.7 L499.1,241.9 L500.4,244.0 L500.6,246.5 L499.9,248.9 L497.6,250.4 L494.9,250.5 L492.8,249.7 L491.2,247.9 Z" fill="#4f8a3e" stroke="none"/>
<path d="M375.0,791.7 L373.0,793.5 L371.6,795.7 L371.4,798.8 L373.2,809.5 L374.8,812.1 L377.5,813.5 L380.3,813.5 L382.2,812.9 L384.6,809.4 L384.3,800.1 L382.3,794.3 L380.7,792.4 L379.1,791.4 L377.4,791.1 L375.0,791.7 Z" fill="#4f8a3e" stroke="none"/>
<path d="M372.9,754.9 L370.5,754.2 L367.8,755.0 L366.0,756.4 L364.7,758.1 L364.2,760.3 L368.1,780.2 L369.0,782.3 L370.3,783.2 L372.1,783.9 L374.8,784.2 L376.9,783.5 L379.1,781.3 L379.6,779.5 L379.8,777.2 L375.6,758.1 L374.6,756.0 L372.9,754.9 Z" fill="#4f8a3e" stroke="none"/>
<path d="M587.5,713.0 L588.5,708.6 L586.1,705.0 L582.9,704.2 L579.8,705.7 L575.9,711.3 L575.1,718.8 L576.1,721.7 L578.5,723.0 L581.5,722.5 L583.9,721.0 L587.5,713.0 Z" fill="#4f8a3e" stroke="none"/>
<path d="M500.1,824.0 L496.9,824.2 L492.8,826.4 L490.4,829.3 L488.4,834.4 L488.7,838.6 L490.4,841.9 L493.5,843.2 L496.9,842.2 L501.5,838.8 L503.3,834.9 L503.7,832.0 L502.8,825.4 L500.1,824.0 Z" fill="#4f8a3e" stroke="none"/>
<path d="M368.5,732.9 L367.4,728.9 L366.4,724.8 L365.5,722.4 L364.3,720.0 L363.7,718.7 L362.7,717.2 L361.5,716.1 L360.0,715.2 L358.4,715.0 L356.5,715.2 L354.8,715.7 L353.3,716.8 L352.0,718.1 L351.1,719.5 L350.7,721.6 L350.7,723.9 L351.2,726.2 L352.8,732.7 L353.5,736.1 L354.3,739.2 L354.8,741.4 L355.4,743.1 L355.9,744.2 L356.4,745.2 L357.0,746.1 L357.9,746.9 L359.1,747.3 L360.4,747.6 L361.6,747.7 L362.8,747.7 L363.8,747.5 L364.7,747.2 L365.7,746.8 L366.6,746.3 L367.9,745.2 L368.7,744.4 L369.3,743.1 L369.5,741.6 L369.6,739.6 L369.0,736.5 L368.5,732.9 Z" fill="#4f8a3e" stroke="none"/>
<path d="M352.3,692.3 L350.1,692.7 L346.2,693.7 L341.9,695.1 L339.6,695.8 L337.7,697.5 L336.5,699.6 L336.0,701.9 L336.2,704.2 L337.0,706.0 L338.1,707.5 L339.4,708.8 L340.6,709.1 L342.8,709.3 L345.4,708.9 L348.7,708.1 L352.4,707.5 L355.8,707.0 L357.8,706.1 L359.8,704.8 L361.1,702.9 L361.9,700.9 L361.8,698.9 L361.1,696.7 L360.2,694.8 L358.9,693.2 L357.0,692.3 L355.4,692.0 L352.3,692.3 Z" fill="#4f8a3e" stroke="none"/>
<path d="M353.1,639.5 L351.1,640.4 L349.8,642.3 L348.8,645.4 L348.5,648.1 L349.2,650.9 L350.3,653.9 L351.9,655.1 L354.4,656.3 L356.4,656.4 L358.7,655.9 L360.6,654.7 L361.7,652.6 L361.7,650.5 L361.7,647.4 L361.3,644.7 L360.2,642.3 L359.2,640.6 L357.5,639.7 L355.3,639.3 L353.1,639.5 Z" fill="#4f8a3e" stroke="none"/>
<path d="M88.7,719.4 L92.6,715.3 L95.7,707.7 L97.4,700.7 L95.7,696.6 L92.9,692.9 L87.9,693.2 L83.7,695.4 L80.9,699.1 L79.8,705.2 L78.7,709.4 L78.7,713.9 L79.5,718.9 L81.8,720.8 L85.7,721.1 L88.7,719.4 Z" fill="#4f8a3e" stroke="none"/>
<path d="M106.0,597.5 L102.4,598.1 L99.1,603.1 L96.0,610.1 L93.2,620.1 L89.9,630.5 L88.7,639.7 L87.9,643.9 L89.3,646.6 L91.0,648.9 L94.3,650.8 L98.8,652.2 L102.4,652.5 L104.9,651.4 L106.0,648.6 L105.5,645.5 L102.7,641.6 L99.3,639.7 L97.7,636.3 L97.4,633.2 L99.3,628.5 L103.0,621.0 L104.9,616.0 L108.0,609.0 L108.8,604.5 L108.3,600.0 L106.0,597.5 Z" fill="#4f8a3e" stroke="none"/>
<path d="M142.3,498.7 L140.4,499.7 L138.8,501.9 L138.3,504.3 L138.2,506.6 L138.2,509.8 L139.1,511.5 L140.9,512.0 L143.1,510.9 L144.4,509.4 L145.2,507.5 L146.2,505.0 L146.5,502.1 L146.0,499.8 L144.6,498.9 L142.3,498.7 Z" fill="#4f8a3e" stroke="none"/>
<path d="M206.4,452.2 L205.2,451.2 L203.7,450.6 L202.2,450.5 L200.7,450.9 L199.4,451.8 L198.5,453.1 L198.0,454.6 L198.0,456.2 L198.6,457.6 L199.6,458.8 L200.9,459.6 L202.4,460.0 L204.0,459.8 L205.4,459.2 L206.5,458.0 L207.3,456.6 L207.5,455.1 L207.2,453.5 L206.4,452.2 Z" fill="#4f8a3e" stroke="none"/>
<path d="M577.7,23.0 L578.4,19.9 L578.9,17.4 L579.5,14.7 L580.2,12.5 L581.0,11.1 L582.4,10.1 L584.8,9.8 L587.2,10.3 L588.9,10.9 L589.8,12.0 L590.1,14.1 L589.8,16.4 L589.5,18.8 L588.8,21.6 L588.2,23.8 L587.1,25.4 L585.3,25.9 L583.5,25.9 L581.2,25.5 L579.7,24.7 L578.4,24.0 L577.7,23.0 Z" fill="#4f8a3e" stroke="none"/>
<path d="M473.6,95.9 L487.9,86.6 L491.5,82.7 L493.1,79.5 L492.6,74.4 L491.0,71.9 L489.2,70.1 L487.3,69.1 L471.0,64.4 L468.0,61.5 L466.9,58.8 L460.0,56.6 L457.4,56.6 L454.4,57.4 L447.6,63.1 L444.4,67.3 L443.6,69.0 L442.9,71.0 L443.1,74.3 L442.8,77.4 L440.6,83.2 L437.4,87.2 L433.9,89.8 L429.4,91.2 L428.8,91.7 L428.1,92.5 L427.0,94.5 L426.4,97.4 L426.3,100.1 L427.7,105.6 L429.4,108.9 L434.4,113.0 L440.0,111.7 L473.6,95.9 Z" fill="#2f7825" stroke="none"/>
<path d="M441.2,727.4 L444.4,726.0 L447.0,726.7 L450.3,729.1 L455.1,742.2 L459.1,773.7 L458.5,781.1 L456.9,785.9 L455.2,787.6 L450.1,789.9 L445.0,789.9 L442.2,788.8 L437.4,784.9 L425.5,763.1 L421.7,750.7 L422.2,747.2 L423.2,744.8 L425.5,741.8 L441.2,727.4 Z" fill="#2f7825" stroke="none"/>
<path d="M289.8,481.2 L298.6,487.5 L305.2,489.6 L309.0,489.8 L312.6,488.5 L315.5,486.2 L319.1,479.9 L320.0,476.9 L320.4,473.9 L319.4,467.8 L310.6,449.9 L288.9,434.5 L278.7,431.1 L269.4,430.2 L267.3,430.5 L264.2,431.8 L261.8,434.6 L260.4,437.5 L260.4,438.9 L260.8,441.1 L261.8,443.5 L263.7,446.4 L275.4,455.3 L279.7,460.8 L288.2,479.0 L289.8,481.2 Z" fill="#2f7825" stroke="none"/>
<path d="M280.0,760.1 L273.7,764.7 L271.1,770.1 L271.1,777.5 L272.7,783.3 L275.7,784.1 L281.0,786.9 L289.7,790.8 L299.5,792.5 L306.4,793.4 L316.5,794.5 L324.0,795.6 L330.7,797.8 L335.4,801.2 L338.2,802.5 L340.7,802.3 L343.1,800.5 L345.2,797.0 L346.3,789.5 L345.8,782.0 L343.6,775.9 L341.8,770.9 L339.3,767.1 L336.2,763.2 L330.4,759.4 L323.6,757.0 L319.1,756.0 L315.0,756.2 L309.3,757.6 L302.8,759.0 L297.3,760.8 L293.3,761.7 L288.8,762.2 L283.7,760.9 L280.0,760.1 Z" fill="#2f7825" stroke="none"/>
<path d="M83.4,716.6 L460.1,83.4" fill="none" stroke="#ffd64a" stroke-width="3.5" stroke-linecap="round" stroke-linejoin="round" opacity="0.95"/>
</svg>