<svg xmlns="http://www.w3.org/2000/svg" viewBox="0 0 800 600" preserveAspectRatio="xMidYMid slice">
<rect width="100%" height="100%" fill="#143018"/>
<path d="M750.5,165.3 L752.0,165.7 L754.3,164.9 L754.8,163.1 L752.7,161.4 L750.7,161.1 L749.3,162.2 L749.3,163.9 L750.5,165.3 Z" fill="#2b5a2a" stroke="none"/>
<path d="M755.8,155.3 L757.8,156.1 L760.9,156.4 L761.7,156.1 L762.3,155.3 L762.1,154.5 L758.2,152.4 L756.7,152.3 L756.0,152.4 L755.2,152.9 L754.9,153.8 L755.1,154.7 L755.8,155.3 Z" fill="#2b5a2a" stroke="none"/>
<path d="M757.7,145.0 L758.7,145.9 L761.1,146.3 L762.1,145.9 L762.5,144.8 L761.9,143.8 L760.9,143.1 L759.2,142.8 L758.1,143.1 L757.4,143.9 L757.7,145.0 Z" fill="#2b5a2a" stroke="none"/>
<path d="M766.5,142.3 L768.0,143.3 L768.6,143.5 L769.9,143.6 L770.7,143.2 L771.0,142.5 L771.0,141.9 L770.6,141.4 L770.0,140.9 L769.0,140.4 L767.4,140.3 L766.3,140.7 L766.1,140.9 L766.1,141.3 L766.1,141.8 L766.5,142.3 Z" fill="#2b5a2a" stroke="none"/>
<path d="M760.2,131.8 L760.5,132.8 L761.1,133.6 L763.1,134.4 L766.8,134.7 L768.3,134.4 L769.3,133.8 L769.6,132.9 L769.0,132.1 L768.0,131.2 L766.8,130.7 L763.3,130.3 L760.8,130.9 L760.2,131.8 Z" fill="#2b5a2a" stroke="none"/>
<path d="M755.5,125.4 L755.6,126.0 L756.4,126.8 L758.9,127.4 L760.4,127.3 L762.0,126.9 L762.3,126.4 L762.3,125.7 L760.3,124.8 L756.4,124.4 L755.6,124.8 L755.5,125.4 Z" fill="#2b5a2a" stroke="none"/>
<path d="M756.5,118.0 L755.9,118.6 L755.4,119.2 L755.7,120.1 L756.3,120.8 L758.1,121.3 L763.0,121.6 L763.8,121.4 L764.0,120.8 L764.0,119.9 L763.5,119.4 L762.2,118.7 L758.1,117.9 L756.5,118.0 Z" fill="#2b5a2a" stroke="none"/>
<path d="M519.1,44.4 L516.5,46.0 L514.1,48.6 L512.9,51.4 L512.6,54.8 L513.3,58.1 L514.9,60.0 L516.8,61.1 L519.3,61.8 L521.0,61.9 L524.5,60.7 L527.2,58.8 L529.6,55.7 L531.3,51.2 L531.6,48.8 L531.4,46.3 L531.2,45.7 L530.5,44.1 L529.5,43.1 L528.6,42.5 L527.8,42.2 L526.5,42.1 L522.9,42.8 L519.1,44.4 Z" fill="#2b5a2a" stroke="none"/>
<path d="M549.9,36.9 L549.7,35.3 L549.9,33.5 L550.9,31.2 L551.5,27.7 L551.1,26.2 L550.5,25.1 L550.0,24.7 L549.3,24.3 L547.7,23.9 L546.4,24.0 L545.9,24.4 L545.4,25.0 L543.3,25.8 L541.2,28.1 L537.9,30.2 L535.6,30.7 L533.7,30.3 L532.0,29.5 L526.2,22.6 L522.8,19.9 L519.7,18.8 L516.5,19.2 L514.4,20.1 L488.9,36.2 L476.6,47.2 L454.8,63.1 L427.6,93.0 L414.6,108.6 L402.5,117.9 L392.7,130.1 L384.9,137.1 L362.4,165.3 L346.0,183.5 L333.5,201.1 L332.5,204.2 L330.0,224.7 L324.0,251.4 L323.8,259.0 L325.3,263.0 L326.6,264.9 L329.0,267.4 L340.8,273.6 L343.3,274.1 L346.0,273.8 L348.9,272.6 L349.9,271.8 L351.9,269.8 L353.8,266.1 L357.3,250.8 L365.3,228.7 L370.0,220.4 L381.7,204.1 L394.9,188.8 L418.7,163.1 L438.4,139.0 L453.4,124.0 L463.4,115.7 L488.2,100.8 L503.8,89.5 L522.6,79.2 L524.9,78.7 L521.0,75.5 L519.7,73.0 L518.6,68.7 L518.7,66.7 L519.2,64.4 L520.0,62.9 L520.5,62.3 L521.0,61.9 L519.3,61.8 L516.8,61.1 L514.9,60.0 L513.3,58.1 L512.6,54.8 L512.9,51.4 L514.1,48.6 L516.5,46.0 L519.1,44.4 L522.9,42.8 L526.5,42.1 L527.8,42.2 L528.6,42.5 L529.5,43.1 L530.5,44.1 L531.2,45.7 L531.4,46.3 L532.0,44.7 L532.4,43.6 L532.6,43.4 L535.1,40.2 L540.3,35.8 L542.6,35.2 L544.6,35.2 L549.9,36.9 Z" fill="#5a9540" stroke="none"/>
<path d="M429.8,389.1 L428.5,386.3 L427.5,384.4 L426.6,382.9 L424.1,378.6 L416.0,367.4 L412.1,360.9 L413.4,362.6 L420.1,367.5 L425.2,369.1 L428.1,369.2 L431.0,368.3 L433.2,366.4 L435.9,361.6 L436.6,359.3 L436.9,357.0 L436.2,352.3 L443.9,372.2 L446.1,382.8 L446.1,388.7 L444.4,391.5 L442.1,393.7 L440.0,395.1 L435.6,395.9 L431.2,392.9 L429.8,389.1 Z" fill="#5a9540" stroke="none"/>
<path d="M709.9,83.6 L715.8,84.9 L722.3,88.8 L729.1,99.9 L730.1,109.3 L725.2,123.1 L724.6,129.6 L725.2,138.4 L729.6,164.8 L733.3,179.6 L739.4,212.4 L742.8,242.0 L744.4,262.5 L747.9,288.9 L748.9,305.5 L746.8,326.0 L743.2,349.4 L738.2,371.0 L731.5,393.9 L724.9,413.1 L697.6,475.1 L693.5,481.5 L683.6,492.1 L677.4,495.6 L675.1,495.9 L666.2,495.0 L654.4,491.0 L645.6,486.2 L644.2,484.5 L642.6,481.3 L641.5,474.3 L642.3,471.0 L649.7,456.2 L656.4,439.1 L664.1,423.9 L673.9,407.4 L680.0,394.7 L699.5,366.2 L707.6,358.3 L709.2,355.0 L712.1,342.9 L716.2,332.8 L716.1,330.6 L715.4,328.4 L707.6,315.9 L702.2,304.5 L700.5,293.6 L703.8,264.3 L704.4,233.1 L703.5,196.3 L702.0,185.8 L694.2,157.3 L688.0,123.1 L687.7,115.2 L690.3,99.6 L692.0,96.0 L700.1,87.5 L703.4,85.5 L709.9,83.6 Z" fill="#5a9540" stroke="none"/>
<path d="M102.2,603.8 L98.3,607.0 L95.3,610.5 L91.8,615.0 L86.2,619.9 L82.2,623.6 L76.6,629.4 L74.2,632.4 L73.3,636.5 L74.6,639.9 L77.6,642.9 L80.4,645.1 L84.1,647.0 L88.6,647.5 L94.2,646.2 L103.7,643.4 L110.6,641.9 L121.3,638.2 L130.8,636.3 L143.3,633.3 L157.9,628.8 L170.1,625.7 L181.8,621.4 L193.2,618.6 L204.6,617.1 L215.5,616.3 L229.3,616.7 L246.1,617.8 L256.8,620.6 L266.1,621.9 L277.5,622.9 L289.5,623.4 L304.4,622.9 L321.6,623.5 L343.0,621.5 L361.7,616.6 L370.7,613.0 L377.5,610.6 L381.8,608.8 L387.1,601.0 L389.8,596.0 L393.5,594.3 L396.7,594.2 L400.2,595.6 L398.9,591.1 L398.9,585.4 L400.9,581.3 L405.8,577.7 L399.6,572.7 L388.6,566.5 L383.1,564.5 L379.4,563.1 L374.8,563.0 L365.9,564.0 L355.6,564.9 L346.0,566.7 L335.9,568.6 L324.2,570.5 L313.3,572.4 L302.7,573.7 L290.4,575.0 L278.8,576.3 L266.1,576.5 L258.6,577.8 L252.5,578.6 L245.4,579.3 L240.3,581.2 L236.2,583.1 L230.6,585.3 L225.4,588.7 L221.6,592.4 L214.3,593.5 L208.6,591.5 L202.6,587.9 L197.9,584.4 L191.0,579.7 L185.4,577.5 L180.3,574.3 L175.3,572.8 L171.0,572.2 L167.1,572.4 L160.5,574.5 L155.5,576.3 L150.8,579.5 L143.3,583.8 L136.4,588.3 L131.2,590.9 L126.5,592.4 L120.2,594.5 L114.9,598.0 L109.3,601.4 L105.2,602.9 L102.2,603.8 Z" fill="#5a9540" stroke="none"/>
<path d="M427.8,171.0 L454.6,133.0 L468.7,120.5 L483.7,114.0 L512.2,91.5 L554.7,68.3 L578.4,57.1 L583.0,56.8 L584.5,57.0 L586.2,57.8 L587.8,59.4 L590.5,63.8 L588.7,73.0 L577.6,106.4 L569.8,123.8 L549.4,152.3 L540.1,162.5 L538.8,165.4 L539.5,171.3 L540.3,173.7 L544.8,179.9 L546.8,181.5 L549.9,185.8 L553.5,197.1 L555.3,204.4 L551.5,221.6 L552.8,231.0 L559.2,258.3 L564.1,295.7 L565.1,313.2 L562.1,329.9 L557.0,340.9 L551.8,352.6 L548.4,358.3 L535.6,383.1 L530.5,390.3 L524.5,401.8 L519.3,423.0 L515.5,432.6 L508.1,442.2 L498.0,447.9 L494.4,447.6 L487.0,445.5 L483.2,442.7 L479.8,438.5 L478.2,434.7 L479.2,427.3 L480.1,425.8 L480.6,424.1 L483.9,420.5 L487.5,417.9 L488.8,416.1 L489.8,413.5 L490.0,410.0 L488.5,401.2 L486.6,397.0 L485.3,395.2 L480.2,378.8 L478.5,364.8 L479.1,361.6 L479.0,359.9 L485.3,345.9 L485.0,344.1 L485.1,342.8 L484.1,340.3 L484.4,336.8 L485.1,334.9 L485.4,316.1 L483.0,311.0 L474.3,305.8 L472.6,305.5 L470.9,304.7 L469.2,304.2 L466.5,304.3 L463.9,305.1 L448.3,315.7 L447.3,316.0 L445.7,315.5 L416.8,315.8 L405.8,314.2 L389.8,308.3 L381.9,303.5 L378.7,299.8 L376.4,295.2 L369.7,270.3 L368.0,260.2 L368.1,250.1 L372.4,232.9 L381.1,218.7 L390.4,207.2 L412.0,188.3 L427.8,171.0 Z" fill="#2e5577" stroke="none"/>
<path d="M414.1,632.8 L419.2,629.6 L441.8,629.0 L446.6,627.2 L448.6,625.6 L450.4,623.4 L450.9,622.4 L451.1,619.2 L449.7,615.7 L446.1,612.3 L439.0,608.7 L435.9,607.8 L414.7,605.8 L405.1,602.6 L402.7,601.3 L398.2,600.0 L395.8,600.1 L391.9,601.5 L385.5,610.9 L374.3,616.3 L372.5,621.4 L372.2,626.6 L373.8,630.1 L373.4,634.5 L375.8,636.7 L383.3,640.8 L390.4,640.6 L412.4,634.6 L414.1,632.8 Z" fill="#2e5577" stroke="none"/>
<path d="M376.5,333.8 L373.9,345.4 L376.5,354.0 L376.0,366.9 L379.9,382.9 L388.1,399.2 L388.5,410.8 L383.4,428.0 L387.2,443.1 L403.6,463.3 L408.3,482.7 L414.3,496.9 L426.0,504.6 L438.4,504.6 L445.3,497.3 L446.6,485.3 L439.3,458.2 L434.1,436.7 L429.4,404.0 L427.2,394.5 L413.0,374.7 L406.2,365.2 L400.1,349.3 L388.9,341.6 L383.8,335.5 L376.5,333.8 Z" fill="#2e5577" stroke="none"/>
<path d="M634.5,456.0 L636.1,455.3 L637.2,454.8 L638.8,454.4 L640.6,453.7 L641.5,452.3 L641.6,449.8 L641.4,448.1 L640.6,446.9 L639.5,446.0 L637.8,445.6 L635.7,445.5 L633.5,446.0 L631.5,447.2 L630.1,448.3 L629.3,449.4 L627.8,451.1 L626.9,452.5 L626.2,455.0 L626.3,457.0 L627.3,458.6 L629.5,459.6 L630.8,459.6 L631.7,458.9 L633.0,457.7 L634.5,456.0 Z" fill="#e7d6a3" stroke="none"/>
<path d="M561.1,524.9 L561.1,524.1 L561.3,523.3 L566.2,515.5 L568.3,513.4 L569.2,512.0 L569.5,511.0 L569.5,509.1 L567.7,505.7 L567.0,505.0 L565.1,504.3 L564.1,504.3 L562.6,504.8 L561.5,505.6 L558.4,513.4 L549.8,523.2 L549.0,523.8 L548.3,524.7 L547.9,525.5 L548.0,526.7 L548.5,528.7 L548.9,529.5 L552.2,533.1 L553.2,537.1 L554.0,538.2 L554.6,538.5 L555.3,538.6 L556.2,538.0 L557.2,536.6 L557.5,535.2 L557.3,533.5 L556.2,530.5 L556.2,529.4 L556.7,528.8 L557.4,528.9 L558.2,529.3 L559.0,530.0 L560.2,530.4 L561.2,530.3 L561.7,529.8 L562.0,528.5 L561.1,524.9 Z" fill="#e7d6a3" stroke="none"/>
<path d="M511.9,538.5 L511.0,539.1 L509.8,539.2 L508.7,539.0 L505.0,537.2 L503.6,535.5 L502.7,534.0 L501.9,529.2 L501.0,527.5 L499.3,525.9 L498.4,525.5 L497.5,525.3 L496.2,525.9 L494.6,528.1 L492.7,532.4 L491.1,541.0 L491.3,546.4 L492.2,548.5 L493.0,549.5 L494.0,549.8 L495.3,550.0 L497.3,549.3 L499.1,549.8 L499.9,550.2 L502.1,550.8 L503.6,550.4 L505.7,546.2 L506.8,545.5 L507.3,545.5 L508.1,545.7 L508.8,546.1 L509.3,546.9 L509.5,550.2 L509.9,551.2 L510.7,551.8 L511.5,552.1 L517.5,552.3 L519.5,551.6 L519.9,551.2 L520.1,550.5 L520.3,546.3 L520.5,545.7 L520.8,543.6 L519.3,540.9 L519.1,539.4 L519.3,536.3 L519.0,534.2 L516.1,530.5 L515.2,529.8 L512.9,528.4 L511.5,528.1 L510.0,528.2 L509.3,528.5 L507.9,529.8 L507.6,530.7 L507.6,532.0 L508.1,533.1 L512.0,536.8 L512.3,537.8 L511.9,538.5 Z" fill="#e7d6a3" stroke="none"/>
<path d="M500.1,571.4 L499.7,575.5 L500.1,579.6 L501.6,584.0 L503.6,585.9 L510.4,588.5 L512.7,587.4 L512.2,584.8 L509.6,581.4 L509.0,578.6 L508.8,575.0 L507.3,572.2 L504.7,570.4 L500.1,571.4 Z" fill="#e7d6a3" stroke="none"/>
<path d="M172.8,649.1 L193.0,638.3 L207.0,638.3 L215.8,634.4 L213.5,627.9 L206.0,627.9 L161.0,638.7 L155.2,639.3 L154.5,644.2 L166.9,648.8 L172.8,649.1 Z" fill="#e7d6a3" stroke="none"/>
<path d="M179.9,565.1 L195.4,574.1 L198.7,571.8 L198.4,566.6 L189.4,558.4 L185.2,556.2 L175.7,558.3 L173.4,560.6 L174.4,563.3 L177.5,565.1 L179.9,565.1 Z" fill="#e7d6a3" stroke="none"/>
<path d="M209.6,580.3 L206.8,578.2 L204.6,578.2 L203.4,580.6 L205.4,583.7 L208.6,586.0 L212.7,587.5 L216.3,586.2 L215.3,583.1 L213.2,580.8 L209.6,580.3 Z" fill="#e7d6a3" stroke="none"/>
<path d="M146.0,554.5 L142.8,556.5 L141.5,559.4 L143.3,563.5 L148.0,565.0 L152.7,564.3 L156.1,561.9 L155.0,559.1 L151.2,557.9 L149.0,556.0 L146.0,554.5 Z" fill="#e7d6a3" stroke="none"/>
<path d="M403.9,557.0 L401.0,553.5 L400.0,551.7 L399.3,549.7 L398.7,548.9 L397.8,548.2 L396.8,547.8 L395.7,547.6 L394.6,547.8 L393.1,548.6 L391.0,549.9 L390.0,551.7 L389.5,553.4 L389.8,555.6 L390.1,557.0 L390.6,558.5 L391.0,559.7 L391.6,560.8 L392.7,561.8 L394.0,562.8 L395.5,563.8 L400.4,567.3 L403.0,569.1 L405.4,570.6 L406.8,571.3 L408.1,571.8 L409.0,571.9 L409.6,571.9 L410.3,572.0 L411.3,571.9 L412.1,571.7 L413.1,571.1 L413.9,570.5 L415.1,569.6 L416.0,568.4 L416.6,566.7 L416.5,564.6 L416.2,562.5 L414.8,560.3 L413.2,559.0 L410.3,558.6 L406.8,558.4 L403.9,557.0 Z" fill="#e7d6a3" stroke="none"/>
<path d="M582.0,447.1 L583.3,445.9 L585.4,445.5 L587.2,445.0 L588.4,444.2 L589.0,442.8 L589.0,441.1 L588.8,439.5 L588.4,437.9 L588.2,435.2 L587.9,433.2 L588.8,431.6 L589.6,430.8 L590.7,430.0 L592.5,429.1 L594.1,428.1 L595.3,426.6 L596.1,424.3 L596.4,421.6 L596.1,419.5 L595.3,418.2 L594.0,417.8 L592.4,417.5 L591.0,418.3 L589.4,420.1 L587.7,421.5 L586.2,422.9 L584.8,424.2 L583.7,425.6 L582.7,426.9 L582.3,429.2 L582.1,431.2 L582.0,433.0 L582.3,434.6 L582.5,435.8 L582.2,437.3 L581.1,438.8 L579.6,438.8 L577.8,439.0 L576.6,439.6 L575.4,440.5 L574.5,441.7 L573.3,443.7 L571.9,445.9 L570.8,447.8 L570.7,450.5 L571.9,452.9 L573.0,454.7 L574.9,456.4 L576.6,457.7 L578.8,458.6 L580.7,458.2 L582.2,456.9 L582.4,454.9 L581.7,452.5 L581.0,450.1 L581.5,448.4 L582.0,447.1 Z" fill="#e7d6a3" stroke="none"/>
<path d="M656.4,421.7 L657.3,420.9 L658.1,420.4 L658.8,419.8 L659.5,419.2 L660.4,418.4 L661.3,417.3 L662.2,416.1 L662.9,415.0 L663.6,413.8 L664.0,412.9 L664.6,411.9 L665.1,410.8 L665.5,409.8 L665.9,408.8 L666.4,407.5 L666.7,406.9 L666.8,406.3 L666.8,405.4 L666.7,404.8 L666.1,404.0 L665.3,403.3 L664.7,402.9 L663.6,402.9 L662.7,403.0 L661.9,403.2 L661.2,403.6 L660.5,404.0 L660.0,404.4 L659.4,404.9 L659.1,405.7 L659.0,406.7 L658.9,407.6 L658.6,408.8 L658.2,410.9 L657.9,411.6 L657.4,412.3 L657.1,413.0 L656.6,413.7 L655.8,414.3 L654.6,415.0 L653.3,415.5 L652.3,415.8 L651.0,416.2 L649.9,416.7 L649.2,417.1 L648.5,417.6 L647.9,418.0 L647.2,418.7 L646.4,419.2 L645.8,419.8 L645.3,420.4 L644.8,421.1 L644.3,422.0 L644.0,422.9 L643.9,423.9 L643.9,424.8 L644.1,425.9 L644.3,426.7 L644.8,427.4 L645.5,428.0 L646.3,428.6 L647.3,429.0 L648.4,429.1 L649.4,429.0 L650.4,428.3 L651.3,427.1 L652.1,425.6 L652.9,424.7 L653.9,423.6 L654.5,422.9 L655.7,422.1 L656.4,421.7 Z" fill="#e7d6a3" stroke="none"/>
<path d="M518.9,56.8 L518.8,55.8 L518.9,54.7 L519.4,54.0 L519.8,53.7 L521.4,53.2 L521.7,52.8 L522.1,52.6 L523.1,52.5 L523.7,52.6 L524.3,53.3 L524.4,54.7 L524.3,55.4 L523.8,56.7 L522.6,57.7 L521.3,58.1 L520.6,58.1 L519.6,57.6 L519.2,57.2 L518.9,56.8 Z" fill="#e7d6a3" stroke="none"/>
<path d="M557.4,37.3 L560.1,36.6 L561.0,35.9 L561.1,35.4 L561.1,34.9 L560.8,34.0 L560.5,33.6 L559.9,33.3 L558.2,33.3 L556.5,33.8 L555.6,34.5 L555.3,35.4 L555.2,35.8 L555.3,36.2 L555.6,37.0 L555.9,37.2 L556.3,37.3 L557.4,37.3 Z" fill="#e7d6a3" stroke="none"/>
<path d="M531.1,20.2 L531.7,19.1 L532.7,18.0 L534.0,17.3 L535.4,17.0 L536.9,17.1 L537.9,17.8 L538.7,18.9 L538.9,19.9 L538.5,21.4 L537.7,22.8 L536.4,24.1 L535.0,24.8 L533.4,24.7 L532.0,24.0 L531.2,22.9 L530.8,21.5 L531.1,20.2 Z" fill="#e7d6a3" stroke="none"/>
<path d="M441.0,570.9 L441.4,570.1 L441.5,569.2 L441.4,568.4 L441.0,567.7 L440.3,567.1 L439.4,566.7 L438.5,566.6 L437.7,566.9 L436.9,567.4 L436.4,568.2 L436.2,569.1 L436.3,570.0 L436.6,570.8 L437.3,571.5 L438.0,571.9 L438.9,572.0 L439.7,571.9 L440.4,571.5 L441.0,570.9 Z" fill="#e7d6a3" stroke="none"/>
<path d="M676.9,374.8 L673.0,376.6 L668.6,379.7 L665.7,382.6 L664.8,384.9 L666.0,386.8 L668.1,387.5 L670.2,386.7 L671.7,384.7 L673.0,383.6 L675.4,383.1 L678.7,382.9 L680.8,381.9 L682.3,380.8 L682.9,378.4 L683.6,376.6 L682.9,374.0 L681.6,373.3 L680.2,373.1 L678.5,374.0 L676.9,374.8 Z" fill="#e7d6a3" stroke="none"/>
<path d="M660.3,383.1 L660.0,382.3 L659.4,381.8 L658.6,381.4 L657.5,381.1 L656.2,380.9 L655.2,381.1 L653.6,382.1 L652.0,383.6 L651.4,384.2 L651.0,384.8 L650.8,385.5 L650.8,386.0 L650.8,386.8 L651.1,387.8 L651.6,388.4 L652.1,388.9 L652.7,389.3 L653.3,389.7 L653.9,389.7 L654.7,389.9 L655.6,389.6 L656.3,389.2 L658.4,386.5 L659.9,384.7 L660.3,383.1 Z" fill="#e7d6a3" stroke="none"/>
<path d="M701.8,352.4 L701.4,352.0 L700.8,352.0 L700.1,352.2 L699.7,352.4 L699.4,352.6 L698.8,353.0 L698.4,353.3 L697.8,353.8 L697.4,354.2 L697.2,354.6 L696.9,355.1 L696.6,355.5 L696.2,356.0 L695.6,356.5 L694.9,357.2 L694.4,357.8 L694.2,358.4 L694.3,359.0 L694.6,359.5 L695.2,360.1 L695.7,360.2 L696.6,360.2 L697.4,359.8 L698.3,359.5 L699.2,358.9 L700.2,358.2 L700.6,357.8 L701.0,357.3 L701.4,357.0 L701.9,356.5 L702.5,355.8 L702.7,355.2 L702.8,354.4 L702.8,353.5 L702.4,352.9 L701.8,352.4 Z" fill="#e7d6a3" stroke="none"/>
<path d="M683.3,358.7 L683.7,357.7 L683.6,356.5 L683.3,355.5 L682.6,354.6 L681.6,353.9 L680.5,353.6 L679.3,353.8 L678.3,354.2 L677.4,355.1 L676.9,356.1 L676.7,357.3 L677.0,358.4 L677.6,359.4 L678.5,360.1 L679.5,360.5 L680.6,360.6 L681.7,360.3 L682.6,359.6 L683.3,358.7 Z" fill="#e7d6a3" stroke="none"/>
<path d="M691.3,347.3 L691.8,346.8 L692.2,346.1 L692.3,345.1 L692.0,344.4 L691.5,344.0 L690.9,343.9 L690.4,344.4 L689.8,345.1 L689.3,346.0 L689.4,346.8 L689.5,347.7 L690.0,348.0 L690.5,348.0 L691.0,347.7 L691.3,347.3 Z" fill="#e7d6a3" stroke="none"/>
<path d="M707.3,333.9 L706.9,333.7 L706.4,333.4 L705.9,333.4 L705.5,333.5 L704.8,334.3 L704.2,335.3 L703.5,336.5 L702.7,337.7 L701.8,338.9 L701.3,339.9 L701.2,340.2 L701.2,340.6 L701.5,341.1 L702.5,341.4 L703.4,341.3 L704.6,341.1 L705.3,340.5 L705.8,339.6 L706.3,338.3 L706.9,337.4 L707.2,336.2 L707.6,335.5 L707.9,335.0 L707.9,334.5 L707.7,334.2 L707.3,333.9 Z" fill="#e7d6a3" stroke="none"/>
<path d="M690.1,327.1 L689.7,326.7 L689.1,326.5 L688.3,326.8 L687.6,327.2 L686.9,328.0 L686.6,328.7 L686.7,329.4 L687.0,329.8 L687.6,330.3 L688.3,330.5 L688.9,330.3 L689.5,329.8 L690.0,329.2 L690.3,328.3 L690.3,327.5 L690.1,327.1 Z" fill="#e7d6a3" stroke="none"/>
<path d="M586.4,29.2 L585.4,26.7 L584.9,23.8 L585.1,21.2 L585.8,19.5 L587.3,18.3 L589.3,17.8 L591.3,18.3 L593.0,19.8 L595.0,24.7 L596.9,34.8 L596.6,36.2 L595.4,36.9 L593.9,36.9 L592.1,36.2 L589.5,33.9 L586.4,29.2 Z" fill="#4f8a3e" stroke="none"/>
<path d="M652.3,73.0 L654.2,68.4 L655.7,67.4 L657.0,66.9 L659.0,67.0 L660.3,67.8 L661.0,69.4 L661.2,71.1 L660.5,76.1 L658.3,81.8 L656.1,83.3 L654.0,83.4 L652.7,82.8 L651.8,81.3 L651.6,79.1 L652.3,73.0 Z" fill="#4f8a3e" stroke="none"/>
<path d="M595.7,106.9 L599.4,95.9 L601.1,94.9 L602.4,94.9 L603.5,95.4 L604.1,96.5 L602.9,118.1 L601.8,120.0 L600.3,121.5 L598.8,121.9 L597.3,121.3 L596.2,120.2 L594.8,114.7 L595.7,106.9 Z" fill="#4f8a3e" stroke="none"/>
<path d="M577.8,166.9 L578.7,160.2 L579.9,157.5 L581.2,156.2 L582.5,155.6 L584.0,156.0 L585.7,157.5 L586.7,161.9 L586.6,165.3 L585.8,168.4 L584.2,171.0 L582.6,172.5 L580.7,172.9 L578.9,171.8 L578.0,169.6 L577.8,166.9 Z" fill="#4f8a3e" stroke="none"/>
<path d="M568.6,182.7 L568.1,181.3 L568.3,179.5 L569.2,177.9 L571.0,176.8 L573.1,177.1 L574.7,178.1 L575.7,179.7 L575.9,181.6 L575.4,183.5 L573.6,184.6 L571.5,184.7 L569.9,184.1 L568.6,182.7 Z" fill="#4f8a3e" stroke="none"/>
<path d="M479.0,602.1 L477.5,603.5 L476.4,605.2 L476.3,607.5 L477.7,615.8 L478.9,617.8 L481.0,618.9 L483.1,618.9 L484.6,618.4 L486.4,615.7 L486.2,608.5 L484.7,604.1 L483.5,602.6 L482.2,601.9 L480.9,601.6 L479.0,602.1 Z" fill="#4f8a3e" stroke="none"/>
<path d="M477.4,573.7 L475.6,573.2 L473.5,573.8 L472.1,574.9 L471.1,576.2 L470.7,577.9 L473.7,593.2 L474.4,594.8 L475.4,595.6 L476.8,596.1 L478.9,596.3 L480.5,595.8 L482.2,594.1 L482.6,592.7 L482.7,590.9 L479.5,576.2 L478.8,574.6 L477.4,573.7 Z" fill="#4f8a3e" stroke="none"/>
<path d="M642.9,541.4 L643.7,538.0 L641.8,535.2 L639.4,534.6 L637.0,535.8 L633.9,540.1 L633.4,545.9 L634.1,548.1 L636.0,549.1 L638.3,548.7 L640.1,547.6 L642.9,541.4 Z" fill="#4f8a3e" stroke="none"/>
<path d="M575.5,627.0 L573.1,627.2 L569.9,628.8 L568.0,631.1 L566.5,635.0 L566.7,638.2 L568.0,640.8 L570.5,641.8 L573.1,641.0 L576.6,638.4 L578.0,635.4 L578.3,633.2 L577.6,628.1 L575.5,627.0 Z" fill="#4f8a3e" stroke="none"/>
<path d="M474.0,556.8 L473.2,553.7 L472.4,550.5 L471.7,548.6 L470.8,546.8 L470.3,545.8 L469.5,544.6 L468.6,543.8 L467.5,543.1 L466.2,542.9 L464.8,543.1 L463.5,543.5 L462.3,544.3 L461.3,545.4 L460.6,546.4 L460.3,548.0 L460.3,549.8 L460.7,551.5 L461.9,556.6 L462.5,559.2 L463.1,561.6 L463.5,563.3 L463.9,564.6 L464.3,565.4 L464.7,566.2 L465.1,566.9 L465.8,567.5 L466.8,567.8 L467.8,568.1 L468.7,568.2 L469.6,568.1 L470.4,568.0 L471.1,567.8 L471.8,567.4 L472.6,567.0 L473.6,566.2 L474.2,565.6 L474.7,564.6 L474.8,563.5 L474.9,561.9 L474.4,559.5 L474.0,556.8 Z" fill="#4f8a3e" stroke="none"/>
<path d="M461.5,525.4 L459.9,525.7 L456.9,526.5 L453.5,527.6 L451.7,528.1 L450.3,529.4 L449.4,531.0 L449.0,532.8 L449.1,534.6 L449.8,536.0 L450.6,537.1 L451.6,538.1 L452.5,538.4 L454.2,538.5 L456.2,538.2 L458.7,537.6 L461.6,537.1 L464.2,536.7 L465.7,536.1 L467.3,535.0 L468.4,533.6 L468.9,532.0 L468.8,530.5 L468.4,528.8 L467.6,527.4 L466.6,526.1 L465.2,525.4 L464.0,525.2 L461.5,525.4 Z" fill="#4f8a3e" stroke="none"/>
<path d="M462.1,484.7 L460.6,485.4 L459.6,486.8 L458.8,489.3 L458.6,491.3 L459.1,493.5 L460.0,495.8 L461.2,496.8 L463.1,497.7 L464.7,497.8 L466.5,497.3 L467.9,496.4 L468.8,494.8 L468.7,493.2 L468.7,490.8 L468.5,488.7 L467.6,486.8 L466.9,485.5 L465.6,484.9 L463.8,484.6 L462.1,484.7 Z" fill="#4f8a3e" stroke="none"/>
<path d="M258.3,546.4 L261.3,543.1 L263.6,537.3 L264.9,531.9 L263.6,528.7 L261.5,525.9 L257.6,526.1 L254.4,527.9 L252.2,530.7 L251.4,535.4 L250.5,538.6 L250.5,542.1 L251.2,545.9 L252.9,547.4 L255.9,547.7 L258.3,546.4 Z" fill="#4f8a3e" stroke="none"/>
<path d="M271.6,452.3 L268.8,452.8 L266.2,456.7 L263.9,462.0 L261.7,469.8 L259.1,477.7 L258.3,484.8 L257.6,488.1 L258.7,490.2 L260.0,491.9 L262.6,493.4 L266.0,494.5 L268.8,494.7 L270.7,493.9 L271.6,491.7 L271.2,489.4 L269.0,486.3 L266.4,484.8 L265.1,482.2 L264.9,479.9 L266.4,476.2 L269.2,470.4 L270.7,466.5 L273.1,461.2 L273.8,457.7 L273.3,454.3 L271.6,452.3 Z" fill="#4f8a3e" stroke="none"/>
<path d="M299.6,376.1 L298.1,376.9 L296.9,378.6 L296.5,380.4 L296.4,382.2 L296.4,384.6 L297.1,386.0 L298.5,386.4 L300.2,385.5 L301.2,384.4 L301.8,382.9 L302.6,381.0 L302.8,378.7 L302.4,377.0 L301.3,376.3 L299.6,376.1 Z" fill="#4f8a3e" stroke="none"/>
<path d="M349.0,340.2 L348.1,339.5 L346.9,339.0 L345.7,338.9 L344.6,339.3 L343.6,340.0 L342.9,340.9 L342.5,342.1 L342.6,343.3 L343.0,344.4 L343.7,345.4 L344.8,346.0 L346.0,346.3 L347.2,346.1 L348.3,345.6 L349.1,344.8 L349.7,343.7 L349.8,342.5 L349.6,341.3 L349.0,340.2 Z" fill="#4f8a3e" stroke="none"/>
<path d="M635.4,9.2 L635.9,6.8 L636.3,5.0 L636.8,2.8 L637.3,1.1 L637.9,0.1 L639.0,-0.7 L640.9,-0.9 L642.7,-0.5 L644.0,-0.0 L644.7,0.8 L644.9,2.4 L644.7,4.1 L644.4,6.0 L643.9,8.2 L643.5,9.8 L642.6,11.1 L641.2,11.5 L639.8,11.5 L638.1,11.1 L636.9,10.6 L635.9,10.1 L635.4,9.2 Z" fill="#4f8a3e" stroke="none"/>
<path d="M541.0,-94.4 L543.2,-98.3 L545.4,-100.4 L547.4,-101.3 L549.0,-101.5 L552.0,-102.9 L554.4,-106.4 L555.7,-107.4 L560.7,-109.4 L565.1,-109.8 L570.1,-109.1 L574.9,-107.4 L576.0,-106.6 L577.3,-105.1 L578.4,-102.9 L578.7,-100.9 L577.2,-97.0 L574.1,-84.6 L571.2,-69.4 L567.5,-64.8 L559.3,-62.9 L552.0,-64.6 L547.7,-69.5 L542.3,-82.2 L540.1,-86.0 L539.9,-88.7 L541.0,-94.4 Z" fill="#2f7825" stroke="none"/>
<path d="M555.1,65.5 L566.1,58.3 L568.9,55.3 L570.1,52.8 L569.7,48.9 L568.5,46.9 L567.1,45.6 L565.6,44.8 L553.1,41.2 L550.8,39.0 L549.9,36.9 L544.6,35.2 L542.6,35.2 L540.3,35.8 L535.1,40.2 L532.6,43.4 L532.0,44.7 L531.4,46.3 L531.6,48.8 L531.3,51.2 L529.6,55.7 L527.2,58.8 L524.5,60.7 L521.0,61.9 L520.5,62.3 L520.0,62.9 L519.2,64.4 L518.7,66.7 L518.6,68.7 L519.7,73.0 L521.0,75.5 L524.9,78.7 L529.2,77.7 L555.1,65.5 Z" fill="#2f7825" stroke="none"/>
<path d="M530.1,552.5 L532.5,551.4 L534.6,551.9 L537.1,553.8 L540.9,563.9 L543.9,588.2 L543.5,593.9 L542.2,597.6 L540.9,599.0 L536.9,600.7 L533.0,600.7 L530.9,599.9 L527.1,596.8 L518.0,580.0 L515.1,570.5 L515.4,567.7 L516.2,565.9 L518.0,563.6 L530.1,552.5 Z" fill="#2f7825" stroke="none"/>
<path d="M413.4,362.6 L420.1,367.5 L425.2,369.1 L428.1,369.2 L431.0,368.3 L433.2,366.4 L435.9,361.6 L436.6,359.3 L436.9,357.0 L436.2,352.3 L429.3,338.5 L412.6,326.6 L404.8,324.0 L397.6,323.3 L396.0,323.5 L393.6,324.5 L391.7,326.7 L390.7,328.9 L390.7,330.0 L391.0,331.7 L391.7,333.6 L393.2,335.8 L402.2,342.7 L405.5,346.9 L412.1,360.9 L413.4,362.6 Z" fill="#2f7825" stroke="none"/>
<path d="M405.8,577.7 L400.9,581.3 L398.9,585.4 L398.9,591.1 L400.2,595.6 L402.5,596.3 L406.6,598.4 L413.2,601.4 L420.8,602.7 L426.1,603.4 L433.9,604.2 L439.7,605.1 L444.9,606.8 L448.5,609.4 L450.7,610.4 L452.6,610.2 L454.4,608.9 L456.1,606.2 L456.9,600.4 L456.5,594.6 L454.8,589.9 L453.5,586.0 L451.5,583.1 L449.2,580.1 L444.6,577.2 L439.4,575.3 L435.9,574.5 L432.8,574.7 L428.4,575.8 L423.3,576.9 L419.1,578.3 L416.0,579.0 L412.6,579.3 L408.6,578.4 L405.8,577.7 Z" fill="#2f7825" stroke="none"/>
<path d="M254.1,544.2 L544.7,55.8" fill="none" stroke="#ffd64a" stroke-width="5" stroke-linecap="round" stroke-linejoin="round" opacity="0.95"/>
</svg>