<svg xmlns="http://www.w3.org/2000/svg" viewBox="0 0 800 600" preserveAspectRatio="xMidYMid slice">
<rect width="100%" height="100%" fill="#143018"/>
<path d="M551.7,79.1 L573.5,56.6 L594.3,33.9 L611.6,7.8 L625.2,-12.1 L633.2,-20.6 L642.3,-22.9 L654.6,-21.3 L668.3,-15.6 L677.2,-11.4 L683.1,-8.4 L688.6,-4.0 L693.3,5.5 L698.7,14.3 L713.9,30.7 L725.8,46.1 L734.2,61.0 L736.4,70.8 L737.9,79.3 L750.8,76.5 L747.5,68.6 L742.0,53.6 L735.9,37.2 L732.8,22.2 L732.4,8.9 L732.9,-5.1 L735.8,-16.6 L741.5,-27.6 L746.7,-34.7 L753.1,-41.2 L758.4,-46.9 L763.7,-52.2 L768.1,-54.8 L772.1,-56.4 L777.1,-56.2 L798.9,-53.7 L813.4,-47.7 L802.0,-56.0 L793.5,-57.5 L776.3,-59.3 L774.7,-61.0 L774.5,-63.6 L775.5,-66.3 L775.5,-70.3 L775.3,-74.1 L773.3,-78.9 L771.0,-82.6 L767.9,-85.6 L764.6,-87.0 L760.2,-86.2 L755.5,-82.5 L748.1,-74.3 L740.2,-66.6 L732.5,-60.7 L724.2,-56.0 L716.8,-51.1 L709.8,-44.6 L703.9,-40.4 L698.0,-38.5 L692.1,-39.0 L687.0,-41.0 L680.7,-47.2 L673.4,-53.8 L666.6,-56.0 L658.1,-55.3 L649.1,-53.6 L639.4,-50.6 L630.6,-52.8 L620.4,-61.0 L610.6,-67.9 L593.5,-77.0 L582.1,-78.6 L570.2,-76.0 L561.9,-70.5 L556.7,-65.6 L552.3,-67.5 L548.9,-64.8 L552.8,-59.8 L554.2,-52.9 L552.5,-48.0 L550.0,-43.7 L547.3,-40.4 L542.6,-35.9 L536.9,-31.0 L532.3,-24.3 L526.3,-12.9 L509.7,1.6 L507.0,17.0 L501.0,29.4 L487.3,47.7 L469.2,65.5 L444.1,87.4 L425.0,104.6 L402.6,124.9 L389.1,132.7 L371.9,140.5 L354.3,141.6 L326.0,144.0 L303.1,145.9 L288.3,150.6 L276.0,159.1 L267.1,165.7 L260.7,170.7 L250.7,176.5 L243.5,177.8 L247.0,186.1 L249.6,197.4 L272.7,201.9 L286.3,205.9 L307.7,211.3 L328.9,208.1 L339.7,205.5 L345.9,206.4 L349.8,210.1 L360.2,208.8 L363.8,203.8 L368.8,198.9 L375.1,197.1 L382.6,197.6 L387.0,201.5 L392.0,206.1 L396.9,209.6 L403.8,210.0 L407.2,208.2 L410.7,201.5 L412.3,196.7 L419.0,190.9 L427.6,185.6 L441.6,179.3 L460.1,170.8 L473.9,163.5 L485.1,154.5 L496.2,140.6 L513.8,119.0 L532.4,100.5 L551.7,79.1 Z" fill="#2b5a2a" stroke="none"/>
<path d="M349.3,-23.2 L341.1,-20.2 L332.7,-15.9 L322.5,-9.1 L308.4,1.3 L300.8,5.2 L283.6,8.3 L270.1,5.7 L257.6,2.2 L246.3,-1.9 L234.8,-6.4 L220.4,-9.2 L207.0,-9.1 L196.7,-3.4 L188.3,2.7 L181.9,8.4 L173.8,17.6 L163.3,26.2 L155.8,30.9 L149.6,36.5 L138.2,47.8 L127.8,55.5 L125.5,56.8 L117.7,58.5 L111.5,60.0 L107.7,62.5 L105.9,65.7 L106.6,71.2 L103.0,73.9 L100.5,73.9 L95.9,73.6 L92.0,74.6 L88.9,76.3 L84.0,81.4 L83.5,90.2 L85.7,98.3 L86.9,104.5 L88.8,119.3 L93.8,116.2 L97.7,111.6 L100.7,110.3 L103.2,109.4 L109.2,108.1 L116.4,105.0 L127.7,100.5 L136.8,97.2 L146.1,94.6 L155.5,90.7 L165.9,84.5 L172.3,78.7 L178.5,73.6 L188.2,67.4 L195.0,61.6 L206.2,54.6 L213.2,52.6 L217.6,53.5 L229.9,59.2 L242.7,70.1 L248.6,76.1 L257.3,79.1 L271.7,80.2 L281.9,78.3 L289.8,73.5 L297.2,68.8 L303.5,60.7 L310.0,54.9 L316.5,51.5 L325.6,51.9 L331.1,53.7 L339.1,54.8 L344.1,55.3 L348.7,56.2 L352.1,57.5 L356.1,57.7 L366.9,54.7 L377.2,52.1 L386.0,50.5 L392.0,47.7 L397.7,42.7 L414.3,23.5 L422.2,13.5 L431.9,3.4 L441.3,-5.4 L458.1,-14.7 L473.2,-18.7 L485.4,-20.4 L492.9,-21.8 L500.8,-25.8 L506.7,-31.6 L507.7,-35.2 L507.1,-42.5 L506.3,-48.8 L507.8,-52.8 L510.2,-55.8 L519.5,-61.7 L532.0,-70.0 L547.5,-80.0 L552.9,-84.0 L561.7,-91.8 L567.8,-97.9 L575.9,-103.3 L585.8,-110.0 L592.0,-115.5 L596.8,-121.0 L608.5,-129.4 L623.5,-134.5 L605.7,-161.2 L596.4,-153.2 L587.4,-144.1 L561.1,-130.3 L549.4,-121.5 L535.6,-109.4 L528.1,-102.0 L520.9,-97.5 L510.4,-93.2 L500.9,-90.0 L486.6,-86.6 L477.3,-82.3 L465.8,-74.6 L452.0,-64.6 L444.2,-60.1 L434.2,-55.2 L421.7,-52.9 L412.3,-53.4 L405.5,-53.6 L401.4,-54.1 L389.8,-50.6 L383.6,-47.5 L376.7,-40.4 L371.2,-36.3 L367.3,-31.5 L364.8,-27.4 L361.2,-24.9 L355.7,-24.6 L349.3,-23.2 Z" fill="#2b5a2a" stroke="none"/>
<path d="M-11.5,339.5 L-14.1,337.6 L-30.2,326.6 L-40.6,315.8 L-42.7,309.2 L-42.5,297.0 L-51.2,291.0 L-56.2,298.8 L-62.9,301.2 L-78.8,298.2 L-89.3,302.9 L-96.4,303.7 L-111.1,305.5 L-121.8,306.4 L-130.2,310.2 L-136.5,319.7 L-142.1,333.8 L-148.6,347.1 L-150.9,353.1 L-151.7,360.2 L-151.5,367.8 L-150.0,375.4 L-139.1,384.7 L-121.9,389.8 L-108.0,393.1 L-99.2,392.2 L-90.6,386.2 L-80.3,392.2 L-57.9,397.4 L-41.0,393.8 L-36.4,398.9 L-28.8,403.5 L-17.6,405.6 L-4.6,404.5 L9.0,405.8 L28.5,410.0 L46.4,413.3 L61.5,421.8 L77.3,426.3 L89.0,427.0 L96.8,442.4 L114.4,442.3 L123.4,430.6 L128.0,432.4 L132.7,432.1 L149.7,431.9 L163.2,433.6 L178.5,436.9 L190.3,437.9 L224.5,438.7 L262.9,462.6 L281.3,454.5 L293.4,456.9 L314.0,462.7 L331.7,468.6 L355.5,481.8 L369.6,484.9 L381.6,482.9 L412.0,493.9 L421.2,497.5 L431.6,497.9 L432.0,485.6 L431.3,476.9 L426.6,471.6 L423.9,464.4 L424.4,455.9 L424.9,442.7 L424.4,436.4 L424.6,430.4 L421.5,429.1 L414.7,427.4 L407.2,421.1 L403.7,414.7 L401.4,409.6 L398.2,406.4 L393.3,404.4 L384.7,406.2 L378.9,410.0 L373.2,409.1 L360.6,396.3 L355.7,395.1 L352.0,390.9 L336.4,381.4 L308.3,375.9 L300.0,385.8 L294.0,381.2 L269.9,377.1 L246.6,373.0 L230.6,372.4 L216.1,371.2 L209.6,370.7 L200.4,370.3 L193.8,370.6 L187.9,371.9 L156.4,357.0 L128.6,366.0 L108.6,360.1 L87.1,356.2 L74.7,355.4 L67.5,356.1 L61.0,358.8 L55.8,355.1 L40.3,347.8 L28.3,356.7 L25.5,353.5 L19.3,334.4 L5.6,333.3 L-11.5,339.5 Z" fill="#2b5a2a" stroke="none"/>
<path d="M793.4,106.6 L793.0,101.4 L791.9,97.2 L789.0,92.8 L785.5,89.8 L781.1,87.7 L773.5,87.8 L765.9,87.5 L761.9,86.5 L758.0,84.8 L755.3,82.2 L750.8,76.5 L737.9,79.3 L737.7,85.6 L734.9,93.5 L730.2,101.1 L726.3,108.7 L724.0,120.0 L722.9,127.6 L722.3,135.3 L721.6,143.9 L721.7,151.8 L722.1,159.0 L723.1,167.6 L723.5,176.0 L723.3,181.8 L720.7,196.4 L725.8,198.1 L733.8,185.7 L738.6,180.8 L746.5,177.9 L752.0,177.1 L759.7,177.3 L768.2,176.6 L771.9,171.3 L774.6,169.0 L783.0,162.0 L813.5,158.3 L811.7,147.0 L801.7,143.9 L790.8,142.4 L796.3,138.4 L800.6,129.8 L801.5,120.6 L800.8,114.2 L793.4,106.6 Z" fill="#2b5a2a" stroke="none"/>
<path d="M110.7,474.3 L100.6,473.4 L88.0,471.4 L76.2,468.8 L63.2,465.8 L55.3,467.9 L36.0,473.7 L28.7,479.4 L23.3,482.1 L13.4,480.3 L1.8,480.6 L-16.0,481.1 L-31.9,483.1 L-50.9,481.6 L-64.1,478.8 L-75.0,474.8 L-81.1,472.2 L-83.9,469.9 L-85.8,466.0 L-88.1,462.3 L-90.2,459.9 L-93.1,459.1 L-96.7,460.0 L-99.0,461.6 L-102.2,463.3 L-109.3,463.2 L-119.1,460.5 L-123.2,459.4 L-125.9,457.4 L-129.8,454.1 L-131.4,450.2 L-132.4,447.9 L-134.2,445.6 L-137.7,444.2 L-142.0,444.7 L-146.1,446.2 L-149.2,449.0 L-151.5,452.0 L-153.5,453.0 L-157.9,452.3 L-164.9,449.8 L-172.6,445.0 L-178.8,439.8 L-184.6,436.0 L-192.2,433.6 L-208.7,431.2 L-220.9,428.4 L-230.3,423.9 L-241.0,415.7 L-247.4,408.9 L-252.0,400.9 L-255.6,393.2 L-257.8,390.6 L-260.6,388.3 L-263.5,387.2 L-268.2,386.6 L-271.5,388.4 L-274.4,391.2 L-277.9,393.2 L-281.6,393.2 L-284.6,391.1 L-288.0,386.8 L-291.1,383.0 L-297.9,370.8 L-300.3,364.2 L-301.7,356.7 L-299.6,353.5 L-296.8,350.6 L-295.1,347.1 L-295.0,342.8 L-295.5,340.0 L-298.8,337.7 L-302.1,337.4 L-305.6,338.6 L-308.3,341.3 L-309.2,345.2 L-308.7,348.7 L-306.4,354.0 L-304.2,363.2 L-300.8,371.9 L-294.4,384.3 L-289.2,393.4 L-282.9,403.6 L-276.3,416.3 L-271.0,425.5 L-264.8,436.9 L-260.3,446.1 L-252.6,450.2 L-246.9,453.1 L-237.5,454.6 L-230.4,456.6 L-225.4,457.8 L-219.5,462.0 L-217.3,468.7 L-215.6,478.5 L-218.0,482.8 L-221.9,484.7 L-227.3,486.3 L-238.0,486.4 L-229.1,498.1 L-217.6,498.5 L-194.6,498.7 L-173.0,498.2 L-146.0,498.3 L-131.0,499.3 L-112.0,502.4 L-92.1,509.2 L-68.5,517.8 L-58.5,521.8 L-53.8,528.9 L-50.2,541.1 L-49.2,547.7 L-44.3,553.1 L-34.7,558.0 L-16.6,559.2 L12.8,557.8 L32.5,558.3 L48.1,559.3 L59.0,558.0 L66.8,555.3 L72.6,554.3 L81.6,553.7 L91.2,553.8 L103.4,554.4 L117.6,556.3 L129.4,559.2 L141.4,565.4 L158.4,571.5 L184.4,581.7 L190.8,583.2 L199.4,585.1 L209.6,586.0 L236.2,585.1 L249.8,585.7 L267.9,587.6 L280.2,590.4 L288.5,592.5 L293.1,591.5 L298.9,587.0 L305.8,588.1 L326.1,586.6 L331.1,580.9 L337.1,575.4 L337.3,567.6 L337.3,566.6 L339.9,561.4 L341.9,553.3 L345.5,546.4 L342.3,535.1 L337.9,525.3 L334.4,520.7 L327.3,516.3 L320.1,514.5 L314.4,513.5 L306.0,511.3 L298.0,508.6 L288.6,506.4 L279.7,505.7 L264.8,504.1 L253.2,504.8 L242.0,505.4 L227.5,505.5 L208.3,502.1 L188.9,496.7 L177.7,494.1 L162.8,490.3 L154.0,487.2 L140.5,482.4 L124.1,477.3 L110.7,474.3 Z" fill="#2b5a2a" stroke="none"/>
<path d="M380.4,249.8 L349.8,260.5 L331.2,259.5 L261.7,264.0 L236.7,266.8 L227.8,266.1 L221.1,263.4 L216.9,258.6 L215.4,251.1 L213.1,245.2 L209.2,243.7 L204.1,243.9 L200.3,246.6 L197.5,253.5 L194.9,261.4 L190.0,265.9 L183.0,267.4 L175.8,267.0 L170.9,263.7 L168.0,261.2 L164.6,258.8 L160.2,257.2 L155.5,256.6 L152.6,257.1 L150.2,258.7 L148.6,261.4 L147.6,264.6 L148.1,268.1 L149.4,273.5 L149.0,276.9 L148.2,279.5 L144.8,283.3 L140.5,286.5 L135.8,289.0 L133.8,301.1 L141.7,299.4 L152.3,297.6 L163.0,297.1 L174.9,297.5 L186.2,298.4 L193.4,301.7 L195.9,305.0 L197.7,315.6 L201.0,328.5 L208.3,337.6 L226.8,343.4 L252.1,346.4 L318.3,352.5 L343.0,351.4 L349.1,346.7 L364.4,354.6 L378.8,354.6 L392.0,349.7 L431.5,353.2 L444.6,356.0 L456.8,355.5 L465.5,355.8 L478.7,358.4 L486.2,362.8 L496.8,364.9 L505.4,363.5 L512.5,365.9 L538.3,375.7 L553.1,379.5 L563.2,379.0 L572.6,382.3 L590.4,387.7 L600.1,390.3 L610.6,397.3 L625.4,407.4 L649.1,417.5 L674.0,423.6 L693.0,434.7 L720.5,429.0 L727.3,426.2 L744.7,417.8 L769.4,407.2 L796.6,392.9 L813.3,376.7 L835.3,350.1 L855.3,325.3 L867.5,309.1 L873.1,297.8 L875.5,284.2 L868.2,250.6 L864.0,242.8 L857.8,238.8 L849.8,236.7 L840.6,237.2 L828.2,241.3 L815.6,248.3 L805.3,257.2 L798.0,267.7 L794.0,274.3 L787.7,276.7 L779.9,275.2 L775.5,280.4 L767.7,292.8 L761.6,299.7 L757.2,302.5 L743.3,313.5 L738.6,320.1 L726.4,323.6 L709.5,321.3 L702.9,321.5 L692.8,326.0 L683.2,330.2 L672.6,334.4 L663.9,338.2 L659.7,336.8 L653.6,329.5 L649.4,312.3 L648.2,302.7 L645.4,299.2 L635.3,297.3 L617.4,299.4 L608.8,303.2 L605.7,299.9 L601.0,297.8 L594.9,295.4 L583.2,293.1 L538.2,282.0 L502.6,276.7 L497.7,275.5 L492.4,265.4 L484.0,264.8 L482.2,268.9 L479.6,269.7 L465.4,271.2 L441.5,267.1 L413.5,263.2 L387.2,258.5 L380.4,249.8 Z" fill="#2b5a2a" stroke="none"/>
<path d="M-14.0,274.6 L-16.6,280.1 L-19.8,283.4 L-22.7,286.5 L-25.1,290.6 L-26.3,294.7 L-24.1,301.1 L-21.0,304.6 L-12.4,312.5 L-6.6,316.8 L0.6,319.2 L8.7,319.2 L22.2,319.2 L36.2,320.1 L46.8,321.7 L55.5,321.6 L59.3,320.0 L67.0,316.8 L80.7,312.6 L91.2,310.5 L103.4,308.3 L112.8,306.9 L121.3,304.6 L133.8,301.1 L135.8,289.0 L130.7,291.3 L119.4,294.4 L101.6,300.3 L93.2,302.7 L81.8,302.6 L73.7,299.5 L65.3,292.2 L52.8,289.7 L37.1,290.1 L26.7,291.6 L16.3,294.5 L9.9,294.8 L5.6,294.8 L-0.5,293.4 L-5.4,290.0 L-6.5,286.1 L-6.4,281.3 L-4.7,276.3 L-10.7,274.7 L-14.0,274.6 Z" fill="#2b5a2a" stroke="none"/>
<path d="M76.5,6.0 L78.5,9.6 L77.9,15.6 L74.3,23.4 L72.8,29.4 L73.4,36.3 L78.2,43.2 L85.0,43.8 L98.2,38.0 L113.0,25.9 L126.1,16.7 L133.4,11.7 L143.0,10.3 L152.3,3.2 L163.2,-7.0 L169.7,-14.5 L169.0,-21.4 L165.1,-29.1 L156.1,-34.1 L145.9,-33.5 L134.0,-28.3 L128.6,-22.9 L123.0,-15.0 L119.4,-10.1 L110.9,-6.4 L101.7,-3.7 L93.2,-4.9 L87.5,-4.3 L79.8,0.7 L76.5,6.0 Z" fill="#2b5a2a" stroke="none"/>
<path d="M352.4,621.9 L348.6,621.5 L345.7,621.6 L343.1,622.6 L341.2,624.8 L338.2,628.9 L335.4,635.7 L334.0,640.6 L334.4,643.8 L336.4,647.4 L339.8,649.4 L343.6,650.1 L346.9,649.3 L349.8,647.9 L352.1,644.5 L354.6,639.5 L356.9,635.1 L358.3,632.6 L360.1,630.7 L356.7,628.1 L354.4,624.2 L352.4,621.9 Z" fill="#2b5a2a" stroke="none"/>
<path d="M7.8,246.2 L12.9,244.2 L17.2,244.0 L24.4,243.9 L28.3,242.6 L31.1,239.7 L34.2,237.5 L40.4,235.6 L45.5,234.5 L52.8,233.8 L56.3,232.5 L58.8,230.7 L60.3,226.4 L61.9,223.6 L69.5,218.2 L79.1,211.9 L86.8,206.0 L94.8,199.6 L99.6,196.2 L103.8,194.9 L114.9,194.2 L129.7,192.5 L140.4,190.6 L151.6,188.1 L161.4,185.7 L170.3,185.2 L182.4,187.0 L192.2,190.4 L197.4,193.4 L202.8,199.3 L206.6,205.4 L210.4,209.6 L215.4,210.8 L218.0,211.3 L210.5,231.2 L207.4,238.0 L205.6,240.0 L204.1,243.9 L209.2,243.7 L212.6,235.0 L217.3,222.6 L221.4,211.9 L225.1,205.4 L230.3,201.2 L236.3,200.2 L243.5,199.8 L237.7,180.3 L211.3,179.9 L192.8,179.4 L174.2,178.0 L161.9,177.3 L153.8,175.0 L145.1,173.2 L135.5,174.0 L122.7,176.7 L114.7,178.1 L105.7,180.0 L99.2,182.2 L96.3,185.9 L96.0,192.5 L91.3,197.4 L82.9,203.9 L75.2,209.4 L66.3,215.5 L58.4,219.0 L54.5,219.2 L49.4,220.3 L45.8,221.9 L41.4,225.5 L40.3,227.7 L36.5,229.3 L33.5,229.8 L29.7,229.9 L22.4,231.7 L15.0,235.1 L7.8,246.2 Z" fill="#2b5a2a" stroke="none"/>
<path d="M370.8,632.1 L377.8,631.3 L381.7,628.8 L385.3,625.2 L386.0,621.6 L385.6,617.1 L385.1,611.9 L385.1,605.2 L389.6,601.6 L398.0,600.5 L401.2,602.6 L403.3,608.5 L405.5,615.9 L408.3,620.7 L414.4,624.3 L421.4,628.2 L427.3,633.2 L431.8,639.1 L435.1,645.2 L440.0,648.8 L449.1,653.2 L462.3,655.4 L474.3,657.5 L484.3,660.4 L498.4,666.3 L512.0,674.5 L527.2,682.7 L539.4,689.2 L546.7,693.7 L556.8,694.7 L545.4,700.4 L512.7,682.2 L502.4,675.8 L490.4,669.0 L472.5,665.0 L460.2,663.4 L443.6,661.7 L431.4,662.0 L414.1,656.5 L405.1,651.8 L399.6,650.6 L393.7,662.4 L391.5,674.7 L390.6,683.8 L391.3,690.1 L382.1,685.2 L385.5,679.4 L387.2,671.7 L388.0,664.2 L391.2,654.9 L393.7,645.4 L370.8,632.1 Z" fill="#2b5a2a" stroke="none"/>
<path d="M490.8,493.1 L494.0,500.9 L501.7,506.3 L509.0,508.1 L513.8,507.2 L516.4,504.9 L516.7,501.3 L514.4,497.7 L507.8,493.1 L501.7,490.4 L497.9,490.0 L490.8,493.1 Z" fill="#2b5a2a" stroke="none"/>
<path d="M549.8,570.3 L551.2,576.8 L555.7,581.2 L560.3,583.6 L569.1,587.2 L580.6,594.1 L585.2,597.3 L591.8,600.5 L595.3,609.7 L595.9,619.1 L596.8,630.7 L603.2,648.4 L607.8,656.2 L614.3,664.1 L619.4,672.7 L621.8,680.5 L622.5,689.6 L621.8,692.8 L620.4,695.0 L626.9,696.1 L632.0,698.6 L630.2,690.0 L628.3,681.8 L625.7,672.5 L620.1,664.2 L615.8,658.4 L613.0,656.2 L611.5,654.0 L609.8,649.4 L621.9,639.7 L629.5,641.0 L635.0,640.2 L640.1,636.8 L643.1,633.0 L643.9,628.8 L644.3,625.2 L643.3,622.1 L638.1,617.3 L631.2,614.2 L624.4,609.9 L619.2,606.5 L611.4,598.7 L609.2,593.2 L607.5,586.9 L603.3,580.3 L596.7,576.9 L590.8,575.0 L584.5,573.3 L579.4,572.2 L577.4,570.9 L578.5,562.6 L585.9,548.8 L600.0,529.4 L608.7,518.4 L614.4,511.6 L621.7,506.9 L611.9,501.6 L610.2,509.9 L597.2,525.0 L585.1,541.6 L577.6,554.3 L574.0,561.5 L571.9,563.5 L566.4,562.4 L561.5,562.8 L547.7,562.4 L549.8,570.3 Z" fill="#2b5a2a" stroke="none"/>
<path d="M82.1,639.1 L82.8,642.7 L91.0,633.4 L100.2,624.0 L108.7,615.0 L116.6,607.0 L121.8,606.5 L127.5,605.0 L131.9,601.7 L135.6,598.7 L156.9,592.8 L170.2,589.4 L182.4,585.9 L190.8,583.2 L184.4,581.7 L171.9,585.4 L159.2,589.0 L149.6,591.6 L139.3,594.3 L133.9,595.6 L130.1,594.5 L126.2,594.7 L121.5,595.9 L118.3,597.4 L115.3,600.2 L113.7,604.9 L82.1,639.1 Z" fill="#2b5a2a" stroke="none"/>
<path d="M-3.3,312.7 L-5.0,311.4 L-5.6,309.7 L-5.6,307.5 L-4.7,305.6 L-2.9,304.0 L-0.5,302.4 L2.4,301.6 L5.2,302.1 L7.0,303.4 L7.9,304.9 L8.4,307.0 L8.2,309.5 L6.9,311.6 L5.4,312.7 L3.6,313.3 L1.7,313.7 L-1.2,313.5 L-3.3,312.7 Z" fill="#5a9540" stroke="none"/>
<path d="M219.4,383.4 L245.7,386.0 L268.5,387.2 L279.8,387.7 L286.2,388.1 L291.4,388.8 L294.6,390.2 L297.5,392.3 L299.2,394.8 L300.2,397.3 L301.0,399.6 L302.3,401.1 L306.2,402.8 L310.6,404.6 L316.2,406.0 L321.4,407.3 L326.7,407.7 L333.9,407.9 L339.2,408.5 L345.3,409.6 L348.8,410.6 L352.7,412.0 L356.4,414.0 L359.8,417.2 L362.9,421.3 L366.8,426.4 L371.3,430.7 L377.2,433.9 L388.0,439.1 L389.9,441.4 L391.2,444.4 L391.1,448.4 L389.3,454.4 L386.6,459.6 L380.4,469.3 L377.6,472.2 L373.8,475.3 L370.8,476.6 L367.1,477.2 L363.0,476.6 L359.4,475.2 L354.9,472.8 L348.5,467.2 L345.2,464.7 L339.7,461.7 L305.8,452.0 L299.0,450.6 L290.0,449.4 L282.7,448.5 L278.8,448.0 L276.2,446.9 L274.3,444.6 L273.1,441.9 L271.6,439.4 L267.7,435.6 L264.9,431.2 L258.5,429.5 L251.3,426.2 L242.7,425.3 L234.0,426.2 L225.0,428.6 L218.9,429.2 L210.6,428.8 L198.8,428.6 L189.6,429.0 L183.6,429.3 L173.9,427.5 L163.6,425.8 L156.5,424.4 L145.1,423.9 L137.1,424.9 L131.0,425.2 L127.6,424.7 L121.7,423.1 L117.8,421.5 L108.4,417.8 L107.2,417.5 L89.5,414.4 L72.8,411.0 L47.4,404.3 L11.1,397.1 L-8.1,395.0 L-23.4,395.2 L-32.7,393.3 L-39.9,387.9 L-43.0,383.4 L-45.7,380.6 L-62.8,372.5 L-65.6,371.9 L-68.4,372.3 L-72.2,373.1 L-74.9,373.1 L-77.3,372.4 L-81.2,371.2 L-84.4,370.9 L-86.4,371.5 L-88.9,373.5 L-90.8,375.6 L-92.5,379.3 L-95.0,385.1 L-97.8,387.9 L-101.3,389.7 L-105.4,389.7 L-110.5,388.7 L-121.8,385.4 L-130.9,381.5 L-136.5,378.0 L-140.5,374.2 L-143.3,369.8 L-145.5,364.0 L-146.3,358.5 L-145.8,353.8 L-144.5,350.3 L-135.2,329.7 L-132.4,323.9 L-129.9,319.2 L-126.4,315.1 L-122.3,313.1 L-117.1,311.6 L-113.7,311.1 L-109.4,311.8 L-105.2,313.5 L-102.2,314.9 L-98.0,315.6 L-94.3,315.0 L-82.7,311.5 L-76.7,309.9 L-69.1,310.0 L-60.2,312.9 L-52.3,317.0 L-39.6,328.6 L-19.1,343.2 L-6.1,351.0 L2.8,355.6 L16.6,357.8 L22.0,358.9 L24.9,360.8 L28.1,364.4 L30.4,366.8 L33.5,368.2 L46.4,366.0 L50.9,366.6 L55.9,367.7 L58.2,367.7 L63.3,366.1 L67.7,365.5 L72.3,365.8 L76.9,366.7 L88.2,370.6 L95.5,371.9 L106.6,372.6 L116.6,372.8 L125.3,372.5 L129.8,372.8 L133.2,373.7 L137.1,377.8 L141.9,385.5 L146.3,387.8 L154.1,389.1 L159.3,389.5 L161.9,388.6 L164.3,386.5 L167.0,383.8 L169.0,382.3 L172.5,380.9 L176.8,381.1 L178.8,381.7 L182.1,383.7 L185.1,385.1 L187.2,383.3 L189.6,382.5 L195.2,381.8 L219.4,383.4 Z" fill="#5a9540" stroke="none"/>
<path d="M503.0,-34.0 L498.4,-39.1 L497.5,-39.9 L496.1,-40.7 L494.7,-40.2 L492.6,-38.7 L491.1,-37.3 L490.2,-36.3 L489.9,-34.6 L491.1,-32.9 L494.6,-28.4 L495.6,-27.7 L497.6,-27.1 L499.2,-28.1 L502.6,-30.5 L503.3,-31.7 L503.2,-32.7 L503.0,-34.0 Z" fill="#5a9540" stroke="none"/>
<path d="M133.2,-17.1 L131.1,-15.5 L129.4,-13.7 L128.2,-11.6 L127.9,-8.7 L131.1,-4.3 L137.3,3.9 L140.3,6.3 L143.2,6.3 L146.1,4.1 L150.7,-0.6 L160.7,-10.3 L164.7,-14.5 L165.9,-16.9 L165.9,-19.2 L164.9,-21.4 L163.0,-24.1 L160.5,-26.1 L159.0,-27.6 L156.8,-28.5 L154.9,-28.0 L152.7,-26.4 L146.3,-20.8 L145.0,-19.8 L141.9,-19.7 L139.0,-19.6 L137.0,-19.1 L135.4,-18.3 L133.2,-17.1 Z" fill="#5a9540" stroke="none"/>
<path d="M499.6,492.4 L498.0,492.4 L496.4,492.9 L495.4,493.8 L494.6,495.4 L494.9,497.2 L495.9,499.1 L497.4,500.7 L500.2,502.6 L502.8,504.0 L506.2,505.5 L509.0,506.0 L511.5,505.5 L513.1,504.2 L513.5,502.2 L512.8,500.2 L511.1,498.5 L509.1,497.2 L506.9,495.8 L504.6,494.5 L502.4,493.6 L499.6,492.4 Z" fill="#5a9540" stroke="none"/>
<path d="M89.0,22.4 L97.7,16.1 L106.0,9.4 L114.1,3.6 L118.1,0.8 L120.1,-0.4 L121.9,-0.2 L124.1,1.9 L127.5,6.3 L128.4,7.9 L128.4,10.2 L126.7,12.1 L118.1,18.4 L103.8,28.6 L95.7,34.2 L91.7,36.9 L89.5,38.3 L86.3,38.8 L84.2,37.3 L82.1,34.4 L81.4,30.8 L83.2,27.7 L85.6,25.3 L89.0,22.4 Z" fill="#5a9540" stroke="none"/>
<path d="M236.0,-64.6 L229.2,-68.6 L222.7,-76.9 L221.2,-85.6 L221.8,-96.5 L227.7,-100.2 L234.5,-100.2 L241.3,-96.5 L243.2,-87.5 L244.1,-75.4 L242.9,-69.4 L240.1,-64.9 L236.0,-64.6 Z" fill="#2e5577" stroke="none"/>
<path d="M202.8,-24.6 L199.1,-32.9 L195.8,-39.7 L191.2,-44.3 L187.2,-50.8 L187.0,-54.5 L189.3,-60.0 L193.5,-62.4 L198.0,-61.8 L202.6,-59.8 L213.8,-52.8 L226.3,-45.7 L229.6,-38.7 L229.3,-29.9 L227.9,-24.0 L225.4,-19.4 L220.2,-17.1 L216.0,-16.3 L211.3,-17.7 L206.0,-20.5 L202.8,-24.6 Z" fill="#2e5577" stroke="none"/>
<path d="M656.8,196.0 L656.4,191.3 L654.4,167.9 L647.3,154.6 L644.0,144.7 L635.1,127.1 L633.5,119.9 L633.7,115.5 L642.5,106.0 L648.7,102.5 L664.1,105.2 L677.6,110.6 L688.7,123.3 L704.6,143.3 L712.9,163.7 L714.6,175.9 L708.6,185.1 L701.3,191.5 L696.5,193.9 L683.6,194.4 L677.8,195.4 L671.2,197.3 L667.2,200.1 L663.4,201.7 L659.6,200.1 L656.8,196.0 Z" fill="#2e5577" stroke="none"/>
<path d="M277.4,532.7 L276.2,533.1 L275.6,533.7 L274.9,534.1 L274.1,534.6 L273.9,535.0 L273.8,535.7 L273.6,536.2 L273.2,536.6 L272.6,536.8 L271.6,536.7 L270.5,536.5 L269.6,536.5 L269.0,536.6 L268.6,537.1 L268.2,538.0 L267.6,538.7 L267.1,539.1 L266.3,539.2 L265.6,539.3 L265.1,539.9 L265.0,540.3 L265.3,540.7 L265.7,541.2 L266.4,541.4 L266.9,541.3 L267.7,540.8 L268.6,540.6 L269.5,540.8 L270.4,540.9 L271.0,540.9 L271.7,540.4 L272.2,540.1 L272.7,540.1 L273.7,540.3 L274.4,540.6 L275.4,541.2 L275.9,541.1 L276.4,540.5 L277.0,540.2 L277.7,540.3 L278.5,541.1 L279.1,541.8 L279.8,542.2 L280.4,542.2 L281.0,542.0 L281.6,542.0 L282.4,542.4 L283.0,542.8 L283.6,543.0 L284.3,542.7 L285.1,542.6 L286.3,542.6 L287.1,542.9 L287.5,543.5 L287.9,544.4 L288.2,545.0 L288.7,545.2 L289.0,545.2 L289.6,545.0 L290.2,544.7 L290.5,544.3 L290.9,544.0 L291.5,543.6 L291.9,543.3 L292.1,543.0 L292.5,542.4 L293.0,541.8 L293.4,541.3 L293.7,540.4 L294.5,540.4 L295.2,540.8 L296.0,541.0 L296.6,541.1 L297.2,540.9 L297.5,540.5 L298.1,538.6 L298.4,537.7 L299.1,536.8 L299.1,536.1 L299.5,535.4 L299.9,535.0 L300.0,534.6 L299.5,534.1 L298.9,533.6 L298.3,533.4 L297.6,533.6 L297.1,533.8 L296.8,534.3 L296.5,534.7 L295.9,535.0 L295.1,535.1 L294.3,535.2 L293.4,535.4 L292.6,535.7 L291.8,536.1 L291.1,536.6 L290.5,537.0 L289.7,537.1 L288.7,537.0 L287.5,536.6 L286.7,536.3 L285.5,536.0 L284.6,535.7 L283.5,535.1 L282.8,535.0 L282.0,535.1 L281.2,535.1 L280.6,534.9 L280.3,534.0 L279.7,533.2 L279.1,532.9 L278.2,533.0 L277.4,532.7 Z" fill="#e7d6a3" stroke="none"/>
<path d="M558.5,649.2 L550.9,667.3 L557.7,673.9 L564.0,673.9 L569.3,679.7 L572.9,678.1 L573.2,674.1 L568.2,672.8 L567.7,669.2 L563.0,668.6 L560.1,666.5 L561.1,653.4 L558.5,649.2 Z" fill="#e7d6a3" stroke="none"/>
<path d="M747.0,127.5 L745.8,127.6 L744.7,128.6 L744.0,129.5 L743.1,129.7 L742.5,129.6 L742.0,129.0 L741.2,128.9 L740.4,129.7 L739.5,129.4 L738.8,128.7 L738.4,128.4 L737.8,128.3 L737.5,129.1 L736.0,135.9 L738.3,138.7 L739.2,140.0 L739.9,140.3 L741.7,140.5 L742.5,139.7 L743.8,138.6 L745.0,139.3 L746.0,138.1 L746.7,136.6 L747.7,134.4 L748.3,133.7 L748.9,133.0 L747.5,132.9 L746.7,131.5 L746.6,129.7 L746.7,128.9 L748.5,127.3 L747.0,127.5 Z" fill="#e7d6a3" stroke="none"/>
<path d="M743.0,151.8 L742.4,152.1 L741.9,152.8 L741.7,153.9 L741.0,155.0 L740.6,155.7 L739.2,156.8 L738.7,157.5 L736.4,157.9 L735.6,159.1 L735.2,160.7 L735.3,163.1 L735.7,165.7 L735.5,166.3 L735.8,167.1 L736.5,166.9 L737.2,166.6 L738.1,166.8 L738.8,166.9 L739.1,166.2 L740.4,165.2 L740.7,164.4 L741.2,162.7 L741.4,161.1 L742.4,159.9 L743.1,158.1 L744.2,157.1 L744.5,155.8 L743.7,154.7 L744.0,153.0 L744.8,151.5 L743.0,151.8 Z" fill="#e7d6a3" stroke="none"/>
<path d="M124.1,65.3 L123.9,63.9 L122.9,63.5 L122.1,63.3 L121.1,63.0 L120.0,62.8 L119.1,63.2 L118.4,63.7 L117.3,63.8 L116.3,62.7 L115.3,62.7 L114.0,62.9 L113.3,63.3 L112.8,64.0 L112.2,64.6 L111.5,64.9 L111.0,65.8 L111.0,67.0 L110.7,67.8 L110.3,68.8 L110.3,69.7 L110.7,70.4 L112.0,70.1 L113.5,69.2 L113.9,68.6 L113.9,67.9 L114.7,67.1 L115.7,67.0 L116.8,67.8 L117.9,68.2 L119.6,67.8 L120.4,67.0 L120.9,66.5 L121.7,66.2 L122.8,66.4 L123.6,66.3 L124.1,65.3 Z" fill="#e7d6a3" stroke="none"/>
<path d="M379.4,506.4 L380.3,504.9 L380.6,503.7 L381.0,501.8 L380.0,499.9 L378.8,498.5 L377.7,497.9 L376.8,498.1 L375.9,498.2 L375.0,496.8 L374.0,496.4 L373.1,496.7 L372.3,497.2 L370.8,497.1 L370.0,497.3 L369.5,498.1 L369.3,499.1 L369.6,500.1 L370.9,500.6 L372.1,501.5 L372.2,502.4 L373.0,502.6 L374.2,502.5 L375.6,503.2 L375.8,504.6 L375.8,505.9 L375.9,507.2 L377.1,507.4 L377.8,507.2 L378.7,507.3 L379.4,506.4 Z" fill="#e7d6a3" stroke="none"/>
<path d="M748.9,108.6 L748.5,107.8 L748.5,106.8 L747.8,106.1 L747.4,106.5 L747.2,107.4 L747.2,109.2 L746.7,111.1 L745.9,112.7 L744.9,113.6 L743.7,113.9 L742.2,113.5 L740.1,112.9 L739.0,113.1 L738.4,113.5 L737.7,114.1 L736.9,114.6 L736.7,115.3 L736.5,116.5 L737.0,117.0 L737.6,118.1 L737.7,119.1 L738.3,120.0 L739.4,120.7 L739.8,121.9 L740.5,122.2 L741.0,121.7 L741.7,122.1 L742.6,122.5 L743.7,122.1 L744.4,122.7 L745.6,122.7 L745.9,122.1 L745.3,120.9 L745.3,119.6 L745.7,118.9 L746.9,118.5 L747.7,118.1 L748.0,117.7 L747.7,116.8 L747.5,115.8 L748.1,114.7 L748.8,114.2 L749.0,113.3 L749.1,112.2 L749.0,111.3 L748.8,110.6 L748.7,109.4 L748.9,108.6 Z" fill="#e7d6a3" stroke="none"/>
<path d="M258.2,432.5 L256.9,434.9 L256.2,436.3 L256.4,437.8 L256.4,439.7 L256.8,441.4 L256.7,442.6 L256.3,443.2 L255.3,444.2 L254.4,444.8 L253.9,445.3 L253.9,447.2 L254.5,448.5 L254.1,449.6 L254.6,450.7 L255.4,451.7 L256.3,452.3 L257.7,452.6 L258.8,453.3 L260.0,453.6 L260.9,453.2 L262.2,453.6 L262.8,454.6 L263.9,455.2 L265.8,454.6 L266.2,453.8 L266.9,453.0 L266.8,452.1 L266.5,450.7 L265.5,449.6 L264.7,448.6 L263.7,447.8 L262.5,447.1 L261.9,446.9 L261.0,445.0 L261.5,443.5 L261.8,442.2 L262.2,441.0 L263.1,439.3 L263.6,438.1 L263.6,437.0 L264.1,436.1 L264.6,435.0 L264.4,434.0 L263.7,433.3 L262.3,432.8 L261.2,432.7 L259.4,432.4 L258.2,432.5 Z" fill="#e7d6a3" stroke="none"/>
<path d="M271.4,441.7 L271.0,440.3 L270.1,439.6 L269.4,439.3 L268.5,439.4 L267.7,439.9 L267.0,440.6 L266.8,441.5 L266.3,442.1 L265.7,442.4 L265.2,443.3 L265.5,444.4 L266.1,445.3 L267.0,445.9 L268.1,446.5 L269.3,446.7 L270.4,446.3 L271.3,445.5 L272.2,444.6 L272.1,443.2 L271.4,441.7 Z" fill="#e7d6a3" stroke="none"/>
<path d="M245.6,428.8 L244.2,428.8 L243.0,429.6 L242.2,431.3 L242.1,432.7 L242.7,434.6 L243.2,435.7 L243.9,436.6 L244.2,437.9 L243.8,439.0 L243.2,439.7 L242.2,439.8 L242.3,440.9 L243.0,442.0 L243.5,442.6 L244.2,443.3 L244.9,443.8 L245.9,444.0 L246.9,443.9 L247.6,444.4 L248.4,444.8 L249.4,444.7 L250.1,443.8 L250.3,442.6 L249.8,441.4 L249.3,440.1 L249.4,438.9 L249.3,437.6 L249.8,436.7 L250.5,435.9 L251.7,435.0 L252.6,434.5 L253.0,433.4 L252.7,431.9 L252.3,430.7 L252.0,429.5 L251.4,428.5 L251.0,427.9 L249.7,427.4 L248.2,427.5 L247.0,427.9 L246.3,428.5 L245.6,428.8 Z" fill="#e7d6a3" stroke="none"/>
<path d="M578.3,-8.3 L577.9,-8.6 L577.2,-9.0 L576.4,-8.8 L575.8,-8.6 L575.3,-8.0 L575.0,-7.6 L574.5,-7.5 L573.8,-7.6 L573.3,-7.3 L572.4,-6.7 L571.9,-5.9 L571.5,-5.2 L571.2,-4.4 L571.5,-3.5 L571.8,-2.7 L572.2,-2.1 L572.9,-1.6 L573.5,-1.6 L574.4,-2.0 L575.1,-1.8 L575.7,-1.0 L576.2,-0.4 L577.0,-0.3 L578.0,-0.6 L578.7,-0.9 L579.1,-1.4 L579.5,-1.9 L579.4,-2.4 L579.0,-2.8 L578.3,-3.2 L578.0,-4.0 L577.9,-4.7 L578.2,-5.2 L578.8,-5.8 L579.2,-6.0 L579.4,-6.5 L579.4,-7.0 L579.3,-7.7 L578.9,-8.0 L578.3,-8.3 Z" fill="#e7d6a3" stroke="none"/>
<path d="M592.9,-11.6 L592.3,-12.4 L591.6,-11.9 L591.0,-11.5 L589.9,-11.2 L589.0,-11.0 L588.3,-10.8 L587.5,-10.8 L586.8,-10.7 L586.3,-10.2 L586.0,-9.5 L586.1,-8.9 L585.6,-8.6 L585.1,-8.2 L585.1,-7.6 L585.4,-6.9 L585.4,-6.3 L585.7,-5.8 L586.6,-5.5 L587.4,-5.2 L588.3,-5.1 L589.1,-5.0 L590.1,-5.0 L590.8,-4.7 L591.3,-4.3 L591.9,-4.0 L592.4,-3.6 L592.8,-3.3 L593.4,-3.3 L594.2,-3.6 L595.4,-3.6 L596.4,-3.9 L597.2,-3.8 L597.7,-4.2 L598.2,-4.4 L598.5,-5.2 L597.6,-6.0 L597.0,-6.9 L597.0,-7.5 L597.3,-8.3 L597.4,-9.0 L596.6,-10.1 L596.4,-10.7 L595.8,-11.1 L595.2,-11.3 L594.0,-11.3 L592.9,-11.6 Z" fill="#e7d6a3" stroke="none"/>
<path d="M114.0,434.6 L113.1,434.2 L112.6,433.6 L112.3,432.9 L112.2,432.1 L112.2,431.3 L112.3,430.7 L112.8,430.1 L113.6,429.7 L114.5,429.7 L115.4,429.8 L116.1,429.5 L116.9,429.0 L117.0,428.0 L117.2,427.0 L116.8,425.9 L116.9,425.2 L117.3,424.2 L117.8,423.7 L118.6,423.7 L119.3,423.8 L120.1,424.5 L120.3,425.1 L121.1,425.6 L121.9,425.8 L122.7,425.9 L122.9,426.7 L123.1,427.4 L122.8,428.2 L121.8,429.0 L121.1,429.0 L119.8,429.5 L119.0,430.0 L118.5,430.8 L117.9,431.9 L117.4,432.5 L116.9,433.1 L116.3,433.9 L115.9,434.2 L114.9,434.6 L114.0,434.6 Z" fill="#e7d6a3" stroke="none"/>
<path d="M643.9,336.0 L643.9,335.3 L643.9,334.9 L643.1,334.5 L642.1,334.6 L641.4,334.9 L640.8,335.5 L640.7,336.1 L640.4,336.8 L640.2,337.4 L639.9,337.8 L639.7,338.4 L639.8,338.8 L640.2,339.1 L641.1,339.3 L641.6,339.8 L642.1,340.4 L642.6,340.7 L643.4,340.7 L643.8,340.4 L644.5,340.2 L645.1,339.8 L645.8,339.4 L646.4,339.3 L646.5,338.8 L646.8,338.3 L647.0,337.9 L646.8,337.4 L646.4,337.1 L645.9,336.7 L645.0,336.4 L644.2,336.4 L643.9,336.0 Z" fill="#e7d6a3" stroke="none"/>
<path d="M577.0,372.3 L578.4,372.1 L579.1,371.5 L579.4,370.8 L579.3,369.9 L577.6,369.7 L576.1,369.6 L574.8,369.1 L573.5,368.4 L572.5,368.1 L571.3,368.2 L570.1,368.0 L568.5,367.5 L567.0,367.2 L565.8,367.2 L565.2,367.4 L564.2,368.7 L564.3,369.8 L565.4,370.0 L567.3,370.2 L568.3,371.5 L567.6,372.8 L568.0,374.0 L568.8,374.5 L570.6,373.7 L571.4,372.9 L572.8,373.4 L573.7,374.5 L575.1,375.0 L576.1,374.4 L576.4,373.6 L577.0,372.3 Z" fill="#e7d6a3" stroke="none"/>
<path d="M695.3,361.2 L693.9,360.0 L692.9,358.3 L692.2,356.7 L690.6,356.3 L690.0,357.3 L689.1,358.5 L689.7,360.1 L691.2,361.7 L692.6,362.6 L695.1,363.6 L696.8,364.6 L698.7,365.7 L700.2,367.1 L701.8,367.9 L703.2,368.3 L704.7,368.0 L706.2,367.9 L707.7,368.4 L709.3,368.4 L710.4,367.5 L710.1,366.1 L709.1,364.9 L707.9,363.7 L707.7,362.3 L705.9,361.7 L704.3,362.3 L702.1,362.6 L700.6,362.4 L699.1,361.4 L697.5,360.9 L695.3,361.2 Z" fill="#e7d6a3" stroke="none"/>
<path d="M373.1,273.9 L371.4,273.1 L370.0,273.0 L368.0,273.1 L366.7,273.9 L365.6,274.6 L364.2,274.7 L362.6,273.5 L361.2,273.2 L360.0,273.4 L359.0,274.0 L358.9,275.3 L360.3,276.1 L361.7,276.8 L362.8,277.2 L364.8,277.7 L365.9,278.2 L367.4,278.6 L368.1,279.9 L368.9,281.1 L369.8,281.7 L371.0,282.3 L373.6,282.3 L376.2,282.0 L377.5,282.5 L379.6,283.0 L381.4,282.7 L382.8,282.0 L382.8,280.9 L382.5,279.7 L382.4,278.6 L383.8,278.1 L384.9,277.3 L385.3,275.8 L385.2,274.2 L384.7,273.3 L382.8,273.2 L381.6,273.9 L380.2,274.2 L378.9,273.3 L377.3,272.6 L376.0,272.7 L374.8,273.1 L373.1,273.9 Z" fill="#e7d6a3" stroke="none"/>
<path d="M573.6,-27.8 L572.0,-28.5 L570.7,-27.9 L569.7,-27.0 L568.0,-26.5 L566.4,-25.7 L564.8,-24.7 L563.2,-23.3 L561.9,-22.3 L561.0,-21.6 L559.0,-21.4 L558.0,-21.5 L557.3,-21.0 L556.8,-19.5 L558.0,-18.2 L559.3,-17.5 L561.3,-16.5 L562.8,-16.1 L564.6,-16.6 L566.5,-16.8 L567.9,-18.3 L569.8,-19.0 L572.4,-19.7 L574.4,-20.1 L575.3,-22.0 L576.3,-23.5 L577.7,-24.0 L578.4,-25.0 L577.8,-25.9 L577.5,-27.2 L576.5,-27.8 L575.2,-28.0 L573.6,-27.8 Z" fill="#e7d6a3" stroke="none"/>
<path d="M109.0,425.2 L107.9,424.4 L107.6,422.7 L107.7,420.8 L107.8,419.1 L107.3,418.2 L106.6,417.8 L105.1,417.8 L104.0,418.7 L103.5,420.0 L103.5,421.7 L104.0,422.8 L104.7,423.9 L105.2,424.6 L105.1,425.2 L104.7,426.0 L103.0,426.3 L102.1,426.5 L101.5,426.9 L101.4,427.7 L101.6,428.4 L102.1,429.3 L102.2,430.0 L102.1,431.0 L101.6,431.7 L100.4,432.5 L99.5,432.7 L98.7,433.0 L98.0,433.7 L97.7,434.4 L96.9,435.5 L96.8,436.6 L97.6,437.0 L98.7,437.8 L99.8,437.9 L101.0,437.5 L101.3,436.7 L102.1,435.9 L103.0,435.3 L103.8,434.8 L104.7,434.6 L105.6,434.8 L106.2,435.3 L106.5,435.9 L107.5,435.6 L108.3,435.0 L108.8,433.9 L108.8,432.9 L108.4,432.2 L107.8,431.6 L107.6,430.9 L107.7,429.7 L108.4,428.8 L108.9,428.2 L109.3,427.2 L109.2,426.0 L109.0,425.2 Z" fill="#e7d6a3" stroke="none"/>
<path d="M636.5,331.0 L635.4,330.9 L634.5,330.6 L634.0,330.2 L633.7,329.4 L633.6,328.6 L633.4,328.2 L633.0,327.9 L632.5,327.9 L631.7,327.9 L631.1,328.0 L630.7,328.2 L630.2,328.7 L629.9,329.2 L629.6,329.6 L629.1,329.7 L628.6,329.8 L628.2,330.1 L627.9,330.4 L627.6,330.7 L627.3,330.8 L626.6,331.0 L626.2,331.3 L626.0,331.8 L626.4,332.4 L627.1,332.8 L628.1,333.1 L628.6,333.4 L629.2,333.9 L629.6,334.3 L630.2,334.7 L631.0,334.9 L631.9,334.9 L632.7,334.9 L633.3,335.2 L633.6,335.6 L633.7,336.3 L634.0,337.2 L634.5,337.3 L635.0,337.5 L635.8,337.2 L636.3,336.9 L636.2,336.3 L635.9,335.7 L635.9,335.3 L636.2,334.7 L636.9,334.6 L637.9,334.1 L638.1,333.6 L638.4,333.1 L638.3,332.5 L637.7,331.7 L637.5,331.3 L636.5,331.0 Z" fill="#e7d6a3" stroke="none"/>
<path d="M313.8,576.4 L313.2,577.1 L312.5,577.4 L311.7,577.6 L311.1,577.4 L310.6,576.8 L309.9,577.2 L309.0,577.5 L307.9,577.6 L307.5,577.2 L306.7,577.0 L306.1,576.9 L305.5,577.0 L304.7,577.3 L304.4,577.8 L304.3,578.3 L305.4,578.4 L306.1,578.7 L307.2,579.4 L308.0,580.1 L308.7,580.7 L309.5,581.0 L310.9,581.7 L311.6,581.6 L312.2,581.2 L313.1,581.2 L314.0,581.6 L315.3,582.0 L316.0,582.6 L316.8,582.7 L317.4,582.7 L318.2,583.1 L319.0,583.2 L319.8,583.1 L320.3,582.9 L320.8,582.5 L321.4,582.5 L321.9,583.1 L322.6,583.6 L323.1,583.7 L323.6,583.4 L323.5,582.7 L323.0,582.0 L322.6,581.4 L322.4,580.9 L322.1,580.2 L322.4,579.3 L322.7,578.8 L323.4,578.5 L324.2,578.7 L324.7,578.9 L325.6,579.3 L326.7,579.4 L327.7,579.2 L328.3,578.8 L328.5,578.1 L328.3,577.5 L327.6,577.0 L327.0,576.8 L326.0,576.3 L325.7,575.8 L325.6,575.2 L325.2,574.6 L324.4,574.6 L323.6,574.6 L323.3,574.8 L322.9,575.4 L322.5,575.9 L322.0,576.0 L321.3,575.6 L320.8,575.5 L319.9,575.7 L319.1,575.7 L318.0,575.9 L317.7,576.4 L317.5,577.0 L317.3,577.4 L316.7,577.7 L315.9,577.8 L315.2,577.5 L314.3,576.9 L313.8,576.4 Z" fill="#e7d6a3" stroke="none"/>
<path d="M161.8,379.1 L160.5,379.7 L159.7,380.1 L158.7,381.3 L157.8,381.3 L156.9,381.6 L156.3,382.4 L156.1,383.5 L156.1,385.0 L156.8,386.4 L157.6,387.5 L158.3,387.9 L159.1,387.8 L160.1,387.7 L161.2,387.5 L161.8,386.6 L162.0,385.4 L162.5,384.6 L163.3,383.6 L163.5,382.7 L164.0,382.1 L165.0,381.5 L165.8,380.8 L166.5,380.2 L166.5,379.3 L165.2,379.4 L164.6,378.9 L164.0,378.0 L163.6,377.5 L162.9,377.6 L162.4,378.2 L161.8,379.1 Z" fill="#e7d6a3" stroke="none"/>
<path d="M312.6,386.4 L310.8,386.4 L309.9,385.3 L309.7,384.1 L309.6,382.8 L309.5,381.8 L308.9,381.3 L308.1,381.1 L307.1,381.4 L306.3,382.0 L306.3,383.3 L305.9,384.2 L305.2,384.6 L304.2,384.8 L303.8,385.7 L303.8,386.6 L304.8,387.5 L305.7,388.2 L305.9,389.4 L305.2,390.3 L304.4,390.7 L303.3,390.6 L301.6,390.8 L301.2,392.1 L300.6,393.7 L301.5,394.3 L302.2,395.4 L302.4,396.6 L302.9,397.6 L302.9,398.3 L302.2,399.1 L301.6,399.7 L302.8,400.4 L303.9,401.0 L304.7,400.8 L305.4,400.2 L305.9,399.5 L306.5,397.8 L306.5,396.7 L306.2,395.7 L307.8,394.7 L309.6,394.7 L310.9,394.7 L312.1,395.1 L313.6,395.5 L314.6,394.7 L315.6,394.4 L315.8,393.4 L315.5,392.6 L314.0,393.0 L313.0,392.3 L312.3,391.9 L311.5,392.0 L310.8,392.4 L310.5,393.2 L309.8,393.5 L308.9,393.0 L309.1,391.7 L309.8,389.8 L311.0,388.9 L312.7,388.8 L314.1,388.8 L315.4,388.8 L316.7,388.4 L317.6,389.3 L318.1,390.2 L318.8,391.1 L319.8,391.7 L320.8,392.1 L321.4,393.2 L321.5,394.2 L320.9,394.8 L320.4,395.8 L319.5,396.0 L318.7,396.1 L317.9,396.9 L317.3,397.7 L316.4,398.1 L314.7,398.1 L313.5,398.1 L312.3,398.4 L311.6,398.8 L310.7,399.7 L310.3,401.0 L311.0,402.5 L311.7,403.3 L312.5,403.6 L313.6,402.8 L315.1,402.8 L316.7,403.0 L318.2,401.7 L319.3,400.6 L320.1,400.9 L320.7,402.0 L320.9,403.1 L320.9,403.8 L320.4,404.6 L320.7,405.2 L321.7,405.2 L322.6,405.1 L323.1,404.3 L323.4,403.5 L324.2,403.1 L325.1,403.5 L325.6,404.7 L326.8,405.6 L327.5,405.5 L328.2,405.1 L328.6,404.1 L328.7,403.5 L328.2,403.0 L327.5,402.3 L326.8,401.3 L326.4,400.6 L326.5,399.2 L327.1,398.4 L328.2,398.5 L329.8,398.7 L330.7,398.3 L331.6,397.1 L332.1,396.1 L332.9,395.5 L334.0,395.1 L334.6,395.6 L335.7,396.6 L336.7,398.1 L337.4,399.2 L338.5,399.3 L340.2,399.2 L341.0,399.0 L341.4,398.2 L341.1,397.0 L341.5,396.0 L342.3,395.3 L343.6,395.1 L344.8,395.3 L345.5,396.1 L346.0,397.4 L346.8,398.0 L347.9,397.9 L348.7,397.8 L349.5,398.1 L350.4,398.8 L350.7,399.8 L351.8,399.4 L352.7,398.0 L353.4,396.8 L353.4,395.8 L352.6,395.3 L352.2,394.8 L351.4,394.0 L350.4,393.4 L350.0,393.0 L348.3,392.5 L347.6,392.4 L346.6,392.2 L345.4,392.0 L344.7,391.3 L343.7,391.1 L343.0,391.3 L342.0,391.8 L341.2,392.0 L340.1,391.7 L339.4,390.8 L338.6,390.6 L337.3,390.4 L335.5,389.8 L334.6,389.5 L333.5,389.4 L332.8,389.6 L332.3,390.2 L332.0,391.1 L331.4,391.7 L331.0,392.7 L330.7,393.4 L330.1,393.7 L328.8,393.4 L328.2,392.8 L327.6,392.2 L327.9,390.9 L327.5,389.6 L326.7,388.5 L325.8,388.1 L324.4,388.1 L323.6,388.3 L322.7,388.8 L321.9,388.1 L322.1,387.3 L321.4,387.5 L320.5,387.2 L319.5,385.8 L320.3,384.5 L321.3,384.0 L322.0,383.8 L322.2,382.8 L322.7,382.4 L322.7,381.9 L322.1,381.5 L321.1,381.7 L319.8,381.7 L318.8,382.2 L318.3,383.6 L317.8,384.3 L317.0,384.9 L315.9,384.9 L315.5,384.5 L315.1,384.2 L314.6,384.4 L314.0,385.0 L313.7,385.8 L313.2,386.2 L312.6,386.4 Z" fill="#e7d6a3" stroke="none"/>
<path d="M145.5,379.6 L144.4,378.7 L143.7,377.8 L143.1,375.9 L142.9,374.8 L142.7,373.6 L142.8,372.7 L143.8,371.5 L144.0,369.8 L142.8,369.3 L141.7,368.7 L140.6,368.5 L139.3,368.8 L138.1,368.8 L137.4,369.3 L136.7,370.0 L136.3,371.5 L136.2,372.6 L136.7,373.9 L137.4,375.2 L137.2,376.0 L136.3,376.4 L135.8,376.8 L135.8,377.9 L136.0,378.9 L136.4,380.0 L137.0,380.3 L138.2,379.7 L138.9,380.3 L139.5,381.3 L140.0,382.2 L140.5,383.1 L141.4,383.7 L142.3,383.7 L143.6,383.5 L144.6,384.1 L145.2,385.1 L146.2,386.0 L147.4,386.9 L148.9,387.2 L150.0,387.7 L150.9,387.5 L151.2,386.7 L150.8,385.6 L151.1,384.7 L150.8,383.9 L150.2,383.2 L149.6,382.7 L148.8,381.2 L147.5,380.8 L146.9,380.4 L145.5,379.6 Z" fill="#e7d6a3" stroke="none"/>
<path d="M361.8,343.1 L360.4,343.0 L359.6,342.2 L359.1,341.9 L358.3,341.8 L356.8,342.3 L355.7,342.7 L354.6,343.0 L354.0,344.9 L354.3,346.0 L355.2,346.8 L356.3,347.2 L357.2,348.1 L358.3,348.6 L359.2,349.0 L360.0,350.0 L361.3,351.3 L362.5,351.7 L363.6,351.7 L364.7,351.0 L365.1,350.0 L364.6,349.1 L364.0,348.1 L363.8,347.3 L364.4,346.5 L365.3,346.5 L367.1,346.0 L369.5,346.2 L370.6,346.8 L372.3,348.0 L373.1,349.0 L373.5,349.8 L374.1,351.0 L374.4,351.9 L375.6,352.6 L376.7,352.5 L377.6,351.6 L377.9,350.7 L377.6,349.9 L377.1,349.0 L377.0,347.7 L377.3,346.5 L377.6,345.7 L377.5,344.6 L377.9,343.8 L377.3,343.0 L375.5,342.9 L374.4,342.5 L374.6,341.8 L375.3,341.1 L376.5,340.6 L376.9,340.2 L376.9,339.4 L376.3,339.0 L375.1,338.7 L373.8,338.5 L373.2,338.3 L372.0,337.9 L370.8,337.9 L369.3,338.1 L367.6,338.8 L366.8,340.0 L366.6,340.8 L366.2,341.5 L365.5,341.9 L364.1,342.2 L363.1,342.4 L361.8,343.1 Z" fill="#e7d6a3" stroke="none"/>
<path d="M154.5,362.7 L153.8,362.5 L152.4,363.1 L151.8,363.9 L151.4,364.8 L151.3,365.8 L150.8,366.4 L149.7,367.0 L149.8,368.0 L150.4,368.5 L151.3,368.8 L151.5,369.9 L151.2,371.0 L150.8,371.8 L150.6,372.6 L150.0,373.3 L149.5,373.7 L149.1,374.2 L149.7,374.7 L150.6,375.4 L151.8,376.2 L152.8,376.7 L153.8,376.6 L154.9,376.2 L155.1,375.3 L155.4,374.1 L155.7,373.3 L156.7,372.5 L157.8,372.3 L158.6,372.4 L159.2,372.4 L159.6,371.8 L160.5,371.0 L161.5,371.2 L162.2,371.7 L162.8,372.4 L163.3,373.4 L164.0,374.1 L164.9,374.1 L166.2,374.4 L167.5,374.6 L168.1,375.5 L168.7,376.0 L169.7,376.6 L170.4,377.0 L171.3,377.7 L172.2,378.0 L173.4,378.4 L175.0,379.2 L176.0,380.1 L177.8,380.1 L179.0,380.1 L180.2,381.0 L181.6,381.8 L182.6,381.9 L183.4,381.9 L184.0,381.0 L183.9,380.2 L183.5,379.3 L182.5,379.0 L182.1,378.6 L181.4,377.9 L180.8,377.2 L180.5,376.6 L180.8,375.6 L181.0,374.9 L180.3,374.2 L179.3,374.1 L177.9,374.4 L176.8,374.7 L175.4,374.9 L174.5,374.9 L173.5,374.7 L172.7,374.1 L172.6,373.1 L172.2,371.7 L172.0,370.1 L171.6,368.9 L170.7,368.3 L169.9,368.5 L169.2,369.1 L168.4,369.6 L167.5,369.8 L166.7,369.2 L165.5,367.6 L164.8,366.4 L163.7,365.9 L162.9,365.9 L161.7,366.4 L161.1,366.6 L160.5,367.0 L160.0,367.4 L158.7,368.2 L157.9,367.7 L156.9,367.3 L156.7,366.6 L156.1,365.8 L156.3,364.8 L155.7,363.8 L155.2,363.2 L154.5,362.7 Z" fill="#e7d6a3" stroke="none"/>
<path d="M795.1,284.3 L793.8,283.7 L793.1,283.4 L792.2,283.2 L791.4,283.3 L791.0,283.6 L790.7,284.0 L790.4,284.7 L791.0,285.4 L791.8,285.9 L792.2,286.3 L792.8,286.3 L793.3,286.0 L793.9,285.8 L794.6,285.7 L795.2,285.6 L795.5,285.2 L795.5,284.7 L795.1,284.3 Z" fill="#e7d6a3" stroke="none"/>
<path d="M784.5,284.0 L783.1,283.2 L782.7,282.5 L782.2,282.2 L781.3,282.4 L780.6,283.0 L779.7,283.6 L779.0,284.3 L778.5,285.0 L778.6,286.0 L779.0,286.6 L779.9,287.3 L781.1,287.5 L782.4,287.6 L783.9,287.5 L784.7,287.6 L785.4,287.8 L786.2,287.6 L786.9,287.3 L787.5,287.3 L788.0,288.1 L788.8,288.4 L789.6,288.3 L789.8,287.5 L789.4,286.7 L788.7,286.0 L787.7,285.4 L786.8,285.1 L785.3,284.7 L784.5,284.0 Z" fill="#e7d6a3" stroke="none"/>
<path d="M358.6,330.1 L357.5,329.3 L356.5,328.6 L355.6,328.2 L353.6,328.2 L351.7,328.2 L350.5,328.6 L350.3,330.2 L349.7,331.7 L349.5,332.9 L350.1,334.5 L351.9,333.3 L353.0,333.5 L353.9,334.3 L354.4,335.7 L354.9,337.0 L355.3,337.5 L356.1,337.7 L357.2,337.5 L358.1,337.8 L359.5,337.1 L360.4,337.5 L361.5,337.3 L362.3,336.7 L362.6,335.1 L363.7,334.6 L365.1,333.5 L365.2,332.3 L364.2,331.5 L363.4,331.0 L362.3,331.0 L361.5,331.4 L360.0,330.9 L358.6,330.1 Z" fill="#e7d6a3" stroke="none"/>
<path d="M367.2,264.4 L367.3,263.0 L367.8,261.7 L368.0,260.3 L367.9,259.1 L366.9,259.5 L366.0,260.1 L365.1,260.4 L364.5,261.4 L363.6,261.8 L362.8,263.2 L362.5,264.4 L361.4,264.4 L360.4,263.9 L359.9,263.1 L359.1,262.8 L358.3,263.2 L357.6,263.8 L357.2,264.7 L356.5,265.7 L355.7,265.5 L355.1,265.4 L354.3,265.8 L354.6,266.8 L354.4,267.7 L354.3,268.5 L354.5,269.1 L355.6,268.8 L356.4,268.7 L357.8,269.0 L357.7,268.3 L359.3,268.0 L360.8,267.4 L361.3,266.9 L362.4,267.4 L363.7,267.3 L364.2,266.3 L364.7,265.6 L365.8,265.7 L366.6,266.5 L367.3,266.6 L368.4,266.9 L369.7,266.9 L370.2,266.1 L369.8,265.4 L368.3,265.1 L367.2,264.4 Z" fill="#e7d6a3" stroke="none"/>
<path d="M382.9,261.9 L383.1,260.2 L383.1,258.9 L383.1,257.4 L381.8,256.9 L380.6,255.6 L379.7,255.3 L378.4,255.1 L376.9,254.9 L375.9,255.8 L375.0,257.2 L373.8,257.6 L372.5,258.5 L372.3,259.3 L372.0,260.4 L372.2,261.8 L373.5,262.3 L374.6,263.1 L375.3,263.8 L375.8,264.7 L376.0,266.7 L378.3,266.0 L379.9,266.4 L381.1,266.7 L382.2,265.9 L383.2,265.3 L382.9,264.2 L383.9,262.8 L382.9,261.9 Z" fill="#e7d6a3" stroke="none"/>
<path d="M761.0,311.7 L761.0,310.4 L760.6,309.8 L759.4,310.2 L757.8,310.5 L757.1,310.6 L755.7,310.3 L755.0,310.3 L753.8,310.4 L752.6,309.8 L751.4,309.8 L750.7,310.7 L750.6,311.9 L751.0,312.8 L751.3,313.9 L750.6,315.2 L750.2,316.2 L750.2,317.7 L750.4,318.3 L750.3,319.7 L749.7,320.5 L749.4,321.7 L749.6,322.2 L750.0,322.9 L750.5,323.5 L751.4,323.5 L752.2,323.1 L752.8,322.6 L752.9,321.9 L752.9,320.5 L753.1,319.6 L754.2,318.3 L755.2,318.2 L755.8,317.6 L757.2,316.8 L758.4,316.7 L759.1,316.0 L759.7,315.0 L758.9,314.4 L758.6,313.8 L758.5,313.0 L758.5,312.2 L759.3,311.9 L761.0,311.7 Z" fill="#e7d6a3" stroke="none"/>
<path d="M804.6,268.6 L803.8,269.2 L802.8,270.0 L801.9,270.7 L801.8,271.3 L801.5,271.9 L800.5,272.5 L799.8,272.9 L799.2,274.2 L798.5,274.8 L797.9,275.7 L798.2,276.8 L798.4,277.7 L798.1,278.3 L797.7,278.8 L797.5,279.6 L796.6,280.1 L797.0,280.7 L797.8,281.2 L798.1,282.1 L798.7,282.4 L799.5,282.6 L800.0,282.2 L800.8,281.7 L800.2,281.1 L800.0,280.2 L800.6,279.6 L801.3,278.7 L801.3,277.7 L801.6,276.5 L802.3,276.2 L803.1,275.9 L804.1,275.3 L805.1,275.5 L805.7,275.7 L806.5,276.0 L807.1,275.7 L806.7,274.9 L806.2,274.5 L805.9,273.9 L805.6,272.9 L806.7,272.3 L807.0,271.7 L806.5,270.7 L807.3,270.2 L807.5,269.3 L807.3,268.6 L806.6,268.1 L805.5,268.2 L804.6,268.6 Z" fill="#e7d6a3" stroke="none"/>
<path d="M45.1,358.1 L44.5,356.9 L43.4,355.9 L42.8,354.3 L42.7,353.2 L42.0,352.0 L41.1,351.7 L39.9,351.7 L39.3,352.9 L39.3,353.9 L39.2,354.8 L38.8,355.3 L38.0,355.5 L37.5,354.7 L37.0,353.9 L36.4,353.8 L35.5,354.0 L34.6,354.8 L34.6,355.9 L35.5,356.4 L36.6,356.9 L38.2,357.5 L40.0,358.0 L40.7,358.4 L41.4,358.8 L41.6,359.7 L42.0,360.9 L42.7,361.9 L42.0,362.3 L40.9,362.8 L39.1,363.3 L36.9,363.9 L35.5,363.5 L34.5,362.0 L33.7,361.4 L33.1,360.3 L32.6,359.7 L32.0,359.2 L31.0,359.3 L30.5,360.3 L30.3,361.1 L30.3,362.0 L30.7,362.8 L30.0,363.8 L29.3,364.3 L29.7,365.1 L31.3,364.6 L32.1,365.0 L32.5,366.1 L33.4,366.6 L34.5,366.5 L35.5,366.0 L36.6,366.0 L37.2,366.6 L37.8,366.8 L38.8,366.7 L39.4,366.0 L39.7,365.4 L40.3,365.0 L41.2,364.9 L41.9,365.4 L42.8,365.2 L43.6,364.3 L44.5,363.9 L46.4,363.9 L47.9,363.7 L49.6,363.6 L50.5,363.9 L51.5,364.5 L53.2,365.0 L54.2,365.6 L55.1,366.4 L56.3,366.9 L57.4,367.0 L58.0,366.7 L58.1,366.0 L57.3,365.3 L56.8,363.5 L56.5,362.3 L56.1,361.1 L55.4,360.1 L54.1,359.8 L53.0,359.9 L51.8,359.9 L50.9,359.9 L49.9,359.6 L49.2,359.9 L48.5,360.2 L47.6,360.4 L46.4,359.6 L45.9,358.8 L45.1,358.1 Z" fill="#e7d6a3" stroke="none"/>
<path d="M17.4,348.8 L15.4,348.9 L14.1,348.5 L13.9,347.0 L14.1,345.8 L15.3,344.2 L16.2,342.9 L16.1,341.5 L15.6,339.5 L13.9,338.9 L13.1,337.5 L11.9,337.0 L10.2,336.7 L9.1,336.7 L8.3,337.3 L8.6,338.6 L9.9,339.5 L10.9,340.4 L11.0,341.9 L10.9,342.7 L10.1,343.3 L9.0,343.5 L8.6,345.1 L8.6,347.1 L8.2,348.1 L7.7,349.2 L6.6,349.7 L5.4,349.5 L3.8,349.0 L2.8,348.0 L2.3,346.6 L2.8,345.5 L3.2,344.5 L3.2,343.0 L2.4,341.9 L1.8,340.6 L1.4,339.2 L0.1,339.0 L-0.3,340.1 L-0.7,341.1 L-1.4,341.7 L-2.6,341.5 L-3.4,340.9 L-3.5,339.5 L-5.3,339.8 L-6.3,339.8 L-6.9,340.9 L-7.0,342.5 L-6.3,343.7 L-5.4,344.4 L-4.4,345.5 L-3.6,346.7 L-2.9,347.6 L-2.3,348.4 L-1.0,348.8 L-0.1,349.4 L0.6,350.5 L1.1,351.6 L2.1,352.0 L3.0,352.6 L4.0,353.6 L5.1,353.7 L6.4,352.9 L7.8,352.1 L8.4,351.4 L9.6,351.1 L10.5,352.6 L10.9,353.9 L11.4,354.6 L12.4,354.6 L13.5,353.7 L16.9,352.7 L17.4,350.5 L17.4,348.8 Z" fill="#e7d6a3" stroke="none"/>
<path d="M344.4,572.0 L345.5,572.8 L346.2,573.6 L346.4,574.3 L346.8,574.9 L347.5,575.1 L348.3,575.2 L348.9,575.2 L349.3,576.4 L348.9,576.8 L348.7,577.5 L348.5,578.6 L348.1,579.2 L347.5,579.9 L346.9,580.3 L346.7,580.8 L346.4,581.4 L346.5,582.3 L347.2,581.8 L348.3,580.4 L349.1,579.4 L349.8,578.6 L350.7,578.5 L351.4,577.7 L351.4,577.0 L351.4,576.2 L352.1,576.1 L352.7,576.0 L353.1,576.8 L354.2,577.1 L355.2,577.1 L356.4,577.2 L358.1,577.3 L358.7,577.4 L360.4,577.5 L361.5,577.8 L362.1,578.2 L362.5,578.6 L363.2,578.4 L362.7,577.4 L361.3,576.9 L360.1,576.7 L359.5,576.2 L359.1,575.7 L358.2,575.7 L357.2,575.6 L356.3,575.0 L355.9,574.2 L356.1,573.7 L356.5,573.0 L355.4,572.4 L354.4,572.0 L354.7,573.2 L354.5,573.8 L354.1,574.1 L353.2,574.2 L351.8,573.7 L351.2,572.6 L350.9,572.0 L350.3,571.3 L350.5,570.3 L351.1,570.0 L351.8,569.9 L352.5,570.3 L353.7,571.6 L353.4,570.2 L353.9,569.3 L354.3,568.4 L353.7,567.6 L352.7,567.7 L351.4,567.8 L350.4,567.3 L349.6,567.0 L349.2,566.3 L348.9,565.8 L348.1,565.6 L347.1,565.5 L346.8,565.0 L345.6,566.8 L346.4,567.6 L346.1,568.3 L346.1,569.2 L346.5,570.2 L346.2,570.8 L345.7,571.1 L344.9,571.2 L344.4,572.0 Z" fill="#e7d6a3" stroke="none"/>
<path d="M92.2,535.9 L91.0,534.2 L90.7,532.1 L89.9,531.3 L89.9,530.1 L88.5,529.7 L86.9,529.0 L85.4,528.5 L84.3,528.0 L82.5,526.7 L81.0,526.9 L80.6,528.5 L81.2,530.1 L80.8,531.5 L80.9,533.2 L81.6,534.8 L81.5,535.9 L80.9,537.9 L81.7,539.1 L83.3,537.9 L85.3,539.3 L85.1,537.5 L85.2,535.8 L84.3,534.6 L84.1,533.4 L84.5,531.2 L86.8,531.3 L87.7,532.7 L88.6,534.1 L89.8,535.4 L90.4,537.5 L90.7,539.4 L90.0,540.3 L90.8,541.9 L92.4,542.2 L93.8,542.9 L97.0,544.5 L97.0,543.2 L99.5,542.8 L101.5,543.4 L102.4,543.7 L103.3,541.8 L105.5,542.4 L104.6,540.9 L104.9,539.9 L103.0,538.0 L100.0,538.2 L99.0,537.4 L98.3,538.7 L96.9,538.5 L94.6,538.0 L92.2,535.9 Z" fill="#e7d6a3" stroke="none"/>
<path d="M27.0,466.2 L26.3,467.6 L25.5,468.9 L25.0,470.0 L24.3,470.4 L25.2,471.7 L25.2,473.3 L24.5,474.7 L23.7,475.9 L22.6,476.2 L21.0,476.5 L19.9,476.9 L19.4,478.3 L19.0,479.9 L21.1,481.0 L22.9,481.4 L24.5,480.5 L26.8,479.4 L27.8,478.7 L28.2,477.7 L28.4,476.9 L29.1,476.6 L30.1,476.1 L30.7,475.6 L31.5,474.9 L31.3,473.7 L31.8,472.8 L32.6,472.1 L34.4,472.3 L35.6,472.0 L36.4,471.4 L37.0,470.1 L36.7,469.4 L36.0,468.3 L35.9,467.4 L36.0,466.5 L36.0,465.3 L36.7,464.6 L38.0,464.4 L39.1,464.7 L40.0,465.1 L40.6,465.6 L41.1,465.6 L41.8,465.0 L42.1,463.8 L42.1,463.0 L41.4,462.2 L41.5,461.6 L41.3,460.2 L41.9,459.5 L41.6,458.5 L41.7,457.5 L42.6,456.7 L43.0,455.9 L41.8,455.1 L41.0,453.9 L40.5,452.7 L40.6,451.0 L39.6,450.1 L38.4,449.7 L37.5,449.6 L36.2,449.9 L35.7,450.6 L35.2,451.5 L35.0,452.4 L36.0,452.8 L36.5,453.7 L36.3,454.6 L35.6,455.1 L35.1,455.4 L35.3,456.0 L35.9,456.6 L36.6,457.1 L37.6,457.6 L38.1,458.7 L38.1,459.5 L37.7,460.7 L36.4,461.7 L35.3,462.9 L34.6,463.6 L33.7,463.9 L32.9,464.1 L32.3,465.0 L31.3,465.4 L30.6,465.7 L29.0,465.8 L27.0,466.2 Z" fill="#e7d6a3" stroke="none"/>
<path d="M393.0,510.0 L392.1,509.3 L391.7,508.4 L391.8,507.3 L390.4,507.0 L388.6,507.1 L387.2,507.5 L386.6,508.0 L386.0,508.4 L385.6,509.3 L386.4,509.9 L387.7,510.1 L388.5,510.5 L388.7,511.3 L388.5,512.4 L388.2,513.6 L389.3,513.5 L390.1,513.8 L391.0,514.3 L391.3,514.9 L391.5,515.6 L392.2,516.2 L393.0,515.5 L393.9,515.0 L395.2,514.7 L396.8,515.0 L397.5,515.1 L398.6,515.5 L399.3,516.4 L399.8,517.6 L400.7,518.4 L401.8,518.9 L402.9,518.8 L403.6,519.2 L404.2,519.9 L404.4,520.9 L405.0,521.5 L406.9,521.7 L408.7,521.4 L409.7,521.2 L410.4,520.4 L410.8,519.8 L410.7,519.2 L411.4,519.1 L412.0,518.7 L412.3,518.0 L412.2,517.1 L411.7,516.0 L411.0,515.0 L409.8,514.6 L408.5,514.4 L407.6,513.8 L407.1,513.1 L406.4,512.4 L405.9,512.0 L404.9,511.9 L404.2,512.1 L403.4,512.7 L402.4,513.0 L401.8,512.5 L401.1,511.9 L400.3,511.8 L399.2,511.9 L398.1,512.0 L396.9,511.9 L396.2,511.1 L395.5,510.2 L394.2,510.3 L393.0,510.0 Z" fill="#e7d6a3" stroke="none"/>
<path d="M787.4,143.6 L786.5,142.5 L786.4,141.4 L785.5,140.8 L784.4,140.4 L783.6,140.8 L782.8,141.9 L782.2,142.9 L782.5,143.9 L782.3,144.7 L782.4,145.5 L782.5,146.7 L782.5,147.9 L782.3,148.5 L781.7,149.1 L780.8,149.5 L780.2,149.5 L779.3,150.1 L778.6,150.5 L776.8,151.3 L777.6,151.7 L777.8,152.6 L777.4,153.5 L776.9,153.9 L776.5,156.0 L775.3,156.9 L774.3,157.6 L772.5,157.6 L771.7,156.9 L771.0,156.7 L770.4,157.3 L769.5,157.4 L768.8,158.0 L768.6,158.9 L768.3,159.8 L767.5,160.3 L766.7,160.1 L766.0,160.4 L765.6,160.8 L764.9,160.9 L763.7,160.9 L763.2,161.9 L763.3,162.8 L762.7,163.3 L762.1,163.9 L761.8,164.5 L763.6,164.7 L765.7,163.2 L766.8,162.5 L767.6,162.0 L768.4,161.7 L769.4,161.6 L770.5,161.2 L771.2,161.4 L772.0,161.5 L773.2,161.1 L774.7,161.1 L775.8,160.3 L776.8,160.2 L777.7,159.7 L778.7,158.9 L779.3,158.4 L780.5,158.1 L781.9,158.1 L783.0,157.6 L784.1,157.7 L784.8,157.8 L785.6,157.3 L786.7,156.8 L787.8,156.5 L788.8,156.9 L789.7,157.6 L790.9,157.3 L792.3,157.0 L793.3,156.6 L794.6,156.7 L795.8,156.8 L796.9,156.3 L799.0,155.7 L800.7,156.0 L802.2,156.1 L803.8,156.4 L804.8,156.9 L806.0,156.9 L806.8,156.6 L807.8,156.1 L808.6,155.5 L809.1,154.3 L808.7,153.2 L808.4,152.2 L807.7,151.4 L807.2,150.1 L806.2,149.6 L804.8,149.0 L804.7,150.3 L804.2,151.1 L802.8,151.4 L801.9,151.0 L800.2,150.3 L799.6,149.3 L799.3,148.0 L797.8,147.7 L796.8,147.7 L795.4,147.6 L794.1,147.7 L793.4,148.2 L792.8,149.4 L792.1,150.2 L791.5,150.7 L791.2,151.8 L790.5,152.6 L789.7,153.3 L788.4,153.2 L787.8,154.0 L787.3,154.7 L786.6,154.6 L785.5,155.7 L784.6,156.1 L783.7,156.3 L782.8,156.3 L781.7,155.8 L781.1,154.9 L781.0,152.6 L782.1,151.4 L783.2,150.6 L784.2,150.0 L784.7,148.9 L785.3,148.0 L786.0,147.4 L787.2,146.7 L787.8,146.0 L788.1,145.1 L787.4,143.6 Z" fill="#e7d6a3" stroke="none"/>
<path d="M796.8,290.2 L796.3,289.5 L795.7,289.8 L795.4,289.9 L794.4,290.2 L794.0,290.2 L793.0,290.3 L792.5,290.5 L792.2,291.3 L791.8,291.9 L791.3,292.4 L791.0,292.8 L791.0,293.3 L791.0,293.9 L791.2,294.7 L791.6,295.2 L792.3,295.6 L793.3,295.8 L794.3,296.1 L795.5,296.6 L796.1,296.9 L796.7,297.2 L797.2,297.1 L797.4,296.6 L797.7,296.4 L798.3,295.9 L798.1,295.1 L797.7,294.9 L797.0,294.8 L796.3,294.6 L795.7,294.2 L795.5,293.8 L795.8,293.4 L796.1,293.0 L796.1,292.7 L795.9,292.3 L795.6,291.7 L795.6,291.2 L795.9,290.6 L796.8,290.2 Z" fill="#e7d6a3" stroke="none"/>
<path d="M646.8,329.9 L645.4,330.0 L644.8,329.7 L644.4,328.8 L644.1,327.9 L644.4,326.8 L644.0,326.1 L643.6,325.4 L643.1,324.9 L642.9,324.0 L642.5,322.9 L642.9,321.8 L644.2,321.2 L645.4,321.0 L646.1,321.2 L646.9,321.0 L647.7,320.3 L648.7,320.1 L649.6,320.8 L650.2,321.5 L650.3,322.3 L650.6,323.0 L650.8,323.8 L650.6,324.4 L650.1,325.0 L649.8,325.5 L649.6,326.2 L649.6,327.1 L649.8,328.1 L650.5,328.7 L650.4,329.2 L649.4,329.9 L646.8,329.9 Z" fill="#e7d6a3" stroke="none"/>
<path d="M450.7,334.6 L449.5,333.7 L448.4,333.7 L447.6,334.0 L447.5,334.8 L448.2,335.7 L448.4,336.7 L448.4,337.7 L448.2,338.5 L447.7,339.3 L447.4,340.2 L447.2,341.1 L447.7,341.6 L448.5,341.9 L448.7,343.0 L448.7,343.5 L449.2,343.9 L449.6,344.3 L450.2,345.1 L450.1,345.8 L449.5,346.2 L448.6,346.7 L447.9,347.1 L447.5,347.7 L447.2,348.6 L447.4,349.3 L448.1,349.8 L448.8,349.4 L449.6,349.1 L450.4,349.1 L451.0,349.4 L451.8,349.3 L452.3,348.7 L452.9,348.2 L454.0,348.4 L454.7,348.9 L454.9,349.8 L456.0,349.6 L456.7,349.0 L456.9,348.2 L457.0,347.4 L457.0,346.8 L456.1,346.3 L455.3,346.0 L454.7,345.5 L454.1,345.3 L454.1,344.2 L454.5,343.9 L455.0,343.2 L455.1,342.5 L454.7,341.6 L454.1,341.4 L453.1,341.3 L452.2,341.4 L451.5,340.9 L451.1,340.2 L451.0,339.4 L451.1,338.7 L451.6,337.9 L452.2,337.4 L452.7,337.2 L453.4,337.5 L454.0,337.9 L454.5,338.1 L455.4,337.9 L455.8,337.2 L456.3,336.4 L456.6,335.7 L456.7,335.1 L456.1,334.5 L455.4,334.6 L454.8,334.1 L454.3,333.6 L453.3,333.9 L452.7,334.4 L451.7,334.8 L450.7,334.6 Z" fill="#e7d6a3" stroke="none"/>
<path d="M447.5,315.3 L448.5,315.1 L449.2,315.0 L449.4,315.5 L449.5,316.3 L450.0,316.7 L450.7,316.8 L451.5,316.8 L452.1,317.5 L452.9,317.6 L453.9,317.6 L454.6,317.4 L455.2,317.3 L455.9,317.3 L456.0,318.0 L455.6,318.7 L455.5,319.6 L455.2,320.2 L454.9,320.9 L454.2,321.2 L453.1,321.0 L452.2,320.6 L451.5,320.4 L450.8,320.5 L450.3,320.9 L449.9,321.6 L450.3,322.2 L451.0,322.8 L451.3,323.4 L451.7,324.2 L452.3,324.8 L453.1,325.2 L453.6,325.8 L454.0,326.3 L454.6,326.5 L454.6,327.6 L454.2,328.8 L453.0,329.4 L452.1,329.2 L451.9,328.4 L451.7,327.5 L451.0,327.2 L450.4,326.6 L450.0,325.9 L449.7,325.1 L448.8,324.9 L448.1,325.1 L447.2,325.0 L446.4,325.2 L445.7,325.0 L445.2,323.8 L444.9,322.8 L444.8,321.9 L445.1,320.9 L445.7,320.3 L446.2,319.7 L445.7,319.1 L444.9,318.5 L444.4,317.7 L444.6,316.7 L445.0,316.0 L445.7,315.5 L446.3,315.7 L446.9,315.7 L447.5,315.3 Z" fill="#e7d6a3" stroke="none"/>
<path d="M490.6,340.5 L489.2,339.6 L488.6,338.7 L487.9,337.4 L487.1,336.6 L486.2,336.6 L485.2,337.2 L484.5,337.9 L484.5,338.9 L485.2,339.6 L485.9,340.5 L486.7,341.3 L487.3,342.3 L487.4,343.1 L487.5,344.1 L487.1,344.9 L486.4,345.2 L485.2,344.9 L483.8,343.8 L482.9,343.4 L481.8,343.7 L481.2,344.5 L481.5,345.3 L482.4,345.8 L483.1,346.7 L483.7,347.0 L484.6,347.4 L485.6,347.7 L486.7,348.3 L487.6,349.2 L488.7,350.0 L489.3,350.9 L489.7,351.7 L490.3,352.5 L490.3,353.2 L490.4,354.5 L490.3,355.5 L489.9,355.9 L489.1,356.7 L487.9,357.4 L487.4,357.9 L487.7,358.8 L488.3,360.1 L488.6,361.3 L489.3,361.9 L490.6,361.5 L491.8,360.5 L492.3,359.9 L492.2,358.0 L492.6,357.1 L493.3,356.8 L494.6,356.8 L495.3,357.1 L496.0,357.1 L496.5,356.8 L497.2,356.5 L497.2,355.8 L496.0,355.6 L495.4,355.2 L495.3,354.3 L495.5,353.1 L495.6,351.5 L493.9,351.6 L492.8,351.1 L492.5,350.1 L491.9,349.1 L491.3,348.5 L490.5,347.5 L490.9,346.2 L491.3,345.3 L491.2,344.1 L491.2,343.1 L490.3,342.8 L489.8,342.5 L489.5,341.4 L490.6,340.5 Z" fill="#e7d6a3" stroke="none"/>
<path d="M498.8,345.4 L497.2,344.5 L497.0,343.7 L496.8,342.5 L495.9,340.8 L496.6,339.2 L496.4,338.3 L495.7,337.3 L496.1,336.0 L495.9,334.3 L495.8,333.3 L494.8,332.7 L494.5,331.8 L494.6,330.9 L495.0,330.3 L495.8,329.8 L496.6,329.9 L496.9,330.6 L497.8,331.0 L499.6,330.4 L499.5,331.7 L499.8,332.4 L500.2,333.9 L500.8,334.8 L501.0,336.2 L501.5,336.9 L501.5,338.1 L500.6,339.2 L500.3,340.2 L500.5,341.4 L501.3,341.7 L502.8,342.0 L503.6,341.4 L504.4,340.1 L505.2,339.3 L506.0,338.8 L506.9,338.6 L508.2,339.0 L508.2,340.1 L507.4,340.9 L506.6,341.5 L506.1,342.6 L506.2,343.8 L506.7,344.4 L506.3,345.4 L504.9,345.6 L504.2,346.0 L503.9,346.9 L504.4,347.5 L505.6,348.4 L505.4,349.5 L504.0,349.2 L502.9,349.2 L502.4,349.8 L502.3,350.8 L502.4,351.7 L503.6,351.8 L504.7,352.5 L505.8,354.0 L504.8,354.6 L503.5,354.9 L502.2,354.9 L501.7,354.2 L500.9,352.9 L499.4,353.0 L498.8,352.7 L498.2,351.4 L497.9,350.2 L498.2,349.2 L499.2,348.7 L499.7,347.8 L499.9,346.8 L499.5,346.1 L498.8,345.4 Z" fill="#e7d6a3" stroke="none"/>
<path d="M591.6,374.7 L590.5,373.4 L589.1,373.5 L587.5,372.7 L586.7,372.1 L585.2,371.9 L585.0,373.0 L584.8,374.2 L583.5,374.9 L583.1,375.9 L583.6,376.7 L584.9,377.0 L585.4,378.2 L586.0,378.9 L586.8,379.3 L587.5,379.5 L588.6,379.1 L589.6,379.3 L590.6,379.7 L591.1,380.5 L591.1,381.6 L591.6,382.6 L593.0,382.5 L594.1,382.3 L595.2,383.0 L596.3,383.4 L597.2,382.6 L599.6,382.2 L601.2,382.4 L602.2,381.8 L602.7,380.7 L603.0,379.5 L602.3,378.6 L600.9,378.1 L599.7,377.6 L598.1,377.2 L597.3,376.4 L595.7,376.0 L594.8,375.4 L593.5,375.2 L591.6,374.7 Z" fill="#e7d6a3" stroke="none"/>
<path d="M615.9,316.3 L615.0,316.3 L614.4,315.8 L613.9,314.8 L613.1,314.1 L612.4,313.8 L611.7,313.9 L611.1,314.6 L610.6,315.6 L610.2,317.0 L610.4,318.7 L610.7,320.2 L611.4,320.9 L612.3,321.5 L613.2,321.7 L614.2,320.8 L614.8,321.0 L615.5,321.6 L616.0,322.2 L616.6,322.2 L617.3,322.0 L618.0,322.1 L618.6,322.5 L619.0,324.2 L618.8,325.5 L619.0,326.4 L619.6,327.2 L620.7,328.3 L621.4,328.7 L622.4,328.0 L623.2,327.2 L624.1,326.6 L624.2,326.0 L623.9,325.2 L623.5,324.5 L624.5,324.3 L625.0,323.7 L624.7,323.0 L623.6,323.0 L622.3,322.7 L621.1,322.6 L620.9,322.0 L621.1,321.1 L621.6,320.4 L620.6,320.3 L620.1,319.3 L620.0,318.3 L620.5,317.5 L621.5,316.8 L622.3,316.3 L622.6,315.4 L621.2,315.1 L620.1,315.3 L619.4,315.5 L619.0,316.2 L618.4,316.8 L617.6,316.7 L616.9,316.1 L615.9,316.3 Z" fill="#e7d6a3" stroke="none"/>
<path d="M630.9,314.7 L629.6,314.0 L628.9,312.9 L628.0,312.3 L627.6,311.7 L626.5,310.9 L626.0,311.6 L626.9,313.0 L627.3,314.9 L627.4,316.7 L628.2,317.5 L629.3,318.3 L629.6,319.4 L629.5,321.0 L629.7,321.9 L630.3,322.0 L631.5,321.7 L632.0,320.8 L633.1,319.1 L633.7,318.0 L634.1,317.3 L636.0,317.4 L637.3,317.6 L638.1,317.1 L638.9,316.4 L640.1,316.0 L641.4,315.9 L642.6,315.6 L643.9,314.5 L641.2,314.8 L639.5,315.1 L638.1,314.8 L637.5,313.8 L637.3,312.9 L637.5,311.9 L638.8,311.0 L640.3,310.1 L642.2,309.3 L642.0,308.1 L641.2,307.6 L640.2,307.8 L639.2,308.4 L638.4,309.4 L637.7,310.2 L637.1,311.0 L636.1,311.4 L635.2,311.8 L634.8,313.1 L634.1,314.2 L633.3,314.9 L631.9,315.0 L630.9,314.7 Z" fill="#e7d6a3" stroke="none"/>
<path d="M776.8,309.9 L774.9,309.0 L774.4,308.0 L773.9,307.0 L772.8,306.9 L771.5,307.4 L771.1,308.3 L770.9,309.4 L770.8,310.4 L770.1,311.2 L768.8,312.2 L767.7,313.3 L767.4,314.5 L767.9,315.5 L768.7,316.7 L768.8,318.0 L768.7,319.0 L768.3,319.7 L766.7,320.1 L765.4,320.5 L764.7,319.8 L764.0,319.1 L763.4,319.0 L762.8,319.9 L761.9,319.7 L761.1,319.9 L761.1,321.1 L760.8,321.5 L760.0,321.8 L758.8,322.0 L758.2,322.2 L758.7,323.2 L758.7,324.3 L758.0,325.3 L756.9,326.1 L756.2,326.9 L756.3,327.7 L756.9,328.0 L758.4,327.9 L759.4,327.6 L760.7,327.6 L761.6,328.6 L762.3,329.7 L763.8,329.6 L765.5,328.4 L767.7,327.1 L768.7,326.2 L769.9,324.4 L771.2,322.9 L772.2,321.5 L773.1,320.2 L773.9,319.6 L774.9,319.5 L775.9,318.8 L777.2,317.2 L779.3,316.4 L780.1,315.6 L781.0,315.2 L782.3,313.9 L783.6,313.6 L784.6,313.6 L785.8,312.8 L786.8,312.5 L788.0,312.3 L788.6,311.2 L789.3,310.8 L791.0,310.1 L791.8,309.4 L794.0,308.5 L794.4,307.6 L795.4,307.0 L796.5,306.1 L797.8,305.6 L799.0,303.9 L799.3,302.8 L800.9,301.9 L801.4,301.4 L800.2,301.2 L798.5,301.3 L797.2,301.4 L796.2,301.8 L795.8,302.1 L795.4,302.9 L794.8,304.2 L794.2,304.8 L793.1,305.6 L792.1,305.7 L791.4,306.5 L790.7,306.8 L789.9,306.7 L789.1,307.0 L788.4,307.4 L787.5,308.2 L786.3,308.4 L784.7,308.9 L783.8,309.6 L782.6,310.4 L781.2,310.4 L780.5,310.5 L779.6,311.1 L778.8,312.4 L777.8,312.9 L777.1,313.3 L776.1,313.3 L775.4,312.9 L774.8,312.7 L774.4,312.0 L774.7,311.2 L775.3,310.6 L776.1,310.4 L776.8,309.9 Z" fill="#e7d6a3" stroke="none"/>
<path d="M700.0,415.2 L699.1,414.2 L697.1,414.5 L695.8,415.5 L695.1,416.4 L694.3,417.2 L692.8,416.9 L691.7,416.1 L690.7,415.4 L690.2,413.3 L689.0,413.4 L688.6,412.8 L687.2,412.0 L686.0,412.4 L684.8,412.6 L683.9,412.6 L683.0,413.2 L682.2,413.3 L681.5,413.8 L680.9,414.7 L681.0,415.5 L681.2,416.8 L682.3,417.4 L683.8,416.8 L685.2,417.1 L686.5,418.0 L686.9,419.4 L686.8,420.5 L686.7,422.0 L687.7,422.9 L688.0,423.9 L686.9,424.4 L686.8,425.8 L687.9,425.4 L688.7,425.7 L689.3,426.6 L689.5,427.2 L690.1,428.2 L691.3,428.2 L692.9,427.8 L693.2,426.7 L693.3,425.6 L692.8,424.7 L692.1,424.3 L690.8,423.9 L689.8,423.4 L689.9,422.4 L689.6,421.1 L689.8,419.6 L691.1,419.6 L692.0,420.1 L692.6,421.6 L693.2,422.4 L693.8,422.9 L695.3,422.8 L696.5,422.8 L697.2,423.9 L697.3,424.9 L698.3,425.6 L698.9,426.4 L700.0,426.6 L702.1,426.9 L703.3,426.5 L705.1,428.1 L707.2,430.1 L708.5,428.9 L710.0,429.0 L709.0,427.8 L708.7,426.6 L708.8,425.0 L710.6,425.6 L712.3,427.0 L713.8,427.9 L716.0,428.3 L716.0,427.7 L716.0,426.4 L714.7,425.4 L714.2,424.3 L714.2,423.0 L715.3,422.5 L715.7,421.6 L717.0,421.5 L717.9,421.2 L717.7,420.1 L716.9,419.5 L717.3,418.4 L718.6,417.9 L719.6,417.2 L720.2,416.8 L719.3,415.5 L717.8,415.3 L716.3,414.5 L715.5,413.4 L714.9,412.4 L713.5,412.7 L712.6,412.7 L711.1,411.7 L709.7,412.1 L704.5,412.5 L702.5,415.6 L700.0,415.2 Z" fill="#e7d6a3" stroke="none"/>
<path d="M29.0,314.9 L27.3,313.1 L26.4,310.7 L25.8,308.3 L26.7,305.2 L30.5,302.5 L33.6,302.2 L36.9,303.7 L37.9,305.1 L38.7,307.1 L38.9,309.0 L38.7,310.8 L36.9,312.9 L35.5,314.3 L33.8,315.4 L31.5,315.9 L29.0,314.9 Z" fill="#4f8a3e" stroke="none"/>
<path d="M46.7,311.6 L46.4,308.3 L47.3,305.3 L49.8,303.0 L52.1,301.9 L55.0,301.7 L57.9,302.6 L59.8,303.9 L61.3,306.2 L62.1,309.1 L61.6,311.9 L60.2,314.1 L58.5,315.7 L54.7,317.1 L51.7,317.7 L49.4,316.8 L47.5,314.5 L46.7,311.6 Z" fill="#4f8a3e" stroke="none"/>
<path d="M20.6,240.1 L20.3,238.5 L20.9,237.0 L21.8,235.4 L23.2,234.0 L25.4,233.5 L26.9,233.8 L28.0,234.7 L28.8,236.8 L27.1,239.4 L25.3,240.6 L23.6,241.0 L21.7,241.0 L20.6,240.1 Z" fill="#4f8a3e" stroke="none"/>
<path d="M45.3,231.4 L44.6,230.5 L44.3,229.5 L44.5,227.6 L45.7,225.7 L47.3,224.3 L49.8,223.1 L51.8,222.2 L54.5,222.3 L56.2,223.5 L57.2,225.4 L56.9,227.8 L55.9,229.2 L52.5,230.6 L49.5,231.4 L47.4,231.8 L45.3,231.4 Z" fill="#4f8a3e" stroke="none"/>
<path d="M154.7,273.4 L152.4,271.4 L150.5,267.8 L150.3,264.1 L152.2,261.1 L155.4,258.9 L159.4,258.8 L163.9,260.5 L167.1,263.7 L168.1,268.0 L166.9,271.7 L165.3,274.1 L162.7,275.4 L159.4,275.9 L157.0,275.1 L154.7,273.4 Z" fill="#4f8a3e" stroke="none"/>
<path d="M205.9,259.2 L203.6,257.9 L201.8,255.2 L201.1,252.2 L201.7,248.9 L203.4,247.1 L206.5,246.1 L210.1,247.5 L212.1,249.3 L213.2,251.5 L213.5,254.8 L212.4,257.6 L208.9,259.1 L205.9,259.2 Z" fill="#4f8a3e" stroke="none"/>
<path d="M103.0,193.0 L101.0,191.7 L99.7,189.6 L99.9,187.0 L101.4,185.3 L103.8,184.4 L108.4,183.1 L113.6,182.4 L117.1,182.9 L118.6,184.2 L119.6,186.8 L118.9,189.4 L115.1,191.7 L110.7,192.5 L106.5,192.8 L103.0,193.0 Z" fill="#4f8a3e" stroke="none"/>
<path d="M136.5,186.1 L134.9,184.1 L134.2,181.8 L135.2,180.0 L137.2,178.8 L139.7,177.9 L144.4,177.6 L147.9,178.1 L151.1,179.5 L153.2,181.5 L153.4,183.6 L151.4,185.7 L148.5,187.1 L144.4,188.3 L139.8,187.6 L136.5,186.1 Z" fill="#4f8a3e" stroke="none"/>
<path d="M210.2,205.1 L207.7,202.9 L207.4,198.6 L209.5,196.1 L212.6,194.5 L216.5,194.4 L218.7,195.0 L221.3,197.6 L222.2,200.7 L221.5,203.5 L219.3,205.2 L217.0,206.3 L212.6,206.0 L210.2,205.1 Z" fill="#4f8a3e" stroke="none"/>
<path d="M556.7,579.9 L554.9,578.0 L553.8,575.3 L553.3,573.2 L553.8,570.3 L555.0,568.0 L557.2,566.2 L559.9,565.3 L562.5,565.1 L564.9,565.8 L567.3,567.1 L569.4,568.5 L571.2,571.1 L571.6,573.5 L571.1,576.3 L570.3,578.5 L568.6,581.0 L566.9,582.5 L564.1,582.9 L561.3,582.5 L558.6,581.3 L556.7,579.9 Z" fill="#4f8a3e" stroke="none"/>
<path d="M589.3,596.5 L586.7,594.9 L584.8,593.0 L583.3,590.8 L582.3,587.7 L582.1,585.8 L582.6,583.9 L583.9,581.6 L585.8,579.6 L587.9,578.3 L590.6,578.1 L593.0,578.9 L598.2,581.5 L600.6,583.2 L602.4,584.8 L603.4,587.1 L603.5,589.5 L602.7,591.8 L601.2,593.9 L599.7,595.3 L597.9,596.4 L594.9,597.2 L592.1,597.3 L589.3,596.5 Z" fill="#4f8a3e" stroke="none"/>
<path d="M617.7,627.1 L615.1,625.6 L613.9,624.2 L613.2,621.8 L613.8,618.8 L615.1,615.9 L617.0,613.2 L618.5,612.0 L620.5,611.6 L622.7,611.8 L624.2,612.7 L625.7,613.7 L626.8,615.7 L627.2,617.3 L627.2,619.6 L626.4,621.9 L625.6,623.7 L623.4,626.1 L621.7,627.1 L620.0,627.4 L617.7,627.1 Z" fill="#4f8a3e" stroke="none"/>
<path d="M636.9,636.0 L634.5,636.8 L631.8,636.7 L629.5,635.5 L627.6,633.4 L626.8,630.9 L626.8,628.5 L627.3,626.4 L629.0,623.5 L631.2,621.2 L632.6,620.4 L634.5,620.2 L636.6,620.7 L639.1,622.3 L640.4,624.0 L641.3,626.1 L641.4,628.2 L640.7,630.7 L639.8,632.8 L638.5,634.5 L636.9,636.0 Z" fill="#4f8a3e" stroke="none"/>
<path d="M414.0,654.5 L407.3,651.2 L405.2,648.4 L404.6,645.6 L404.2,640.2 L405.8,634.3 L408.1,630.2 L411.5,628.1 L415.6,628.7 L421.7,631.6 L426.5,635.3 L430.0,639.8 L432.5,645.3 L434.1,651.0 L433.5,654.9 L431.2,657.2 L426.9,658.5 L421.2,656.9 L414.0,654.5 Z" fill="#4f8a3e" stroke="none"/>
<path d="M389.9,634.6 L388.5,631.8 L388.0,628.1 L388.2,624.4 L388.5,619.0 L387.3,613.1 L387.8,608.6 L389.3,605.5 L392.4,603.7 L395.4,603.4 L398.5,604.7 L400.5,608.8 L400.5,612.4 L399.1,618.9 L397.2,626.5 L395.9,630.3 L394.5,633.6 L393.2,634.9 L391.4,635.3 L389.9,634.6 Z" fill="#4f8a3e" stroke="none"/>
<path d="M346.4,645.7 L344.2,646.1 L341.7,645.4 L339.9,643.1 L339.0,640.1 L339.3,637.4 L341.4,631.5 L343.1,629.0 L345.1,627.3 L348.3,626.1 L351.0,627.0 L353.1,628.6 L354.4,630.5 L354.6,632.4 L354.6,634.0 L354.1,635.7 L351.5,640.7 L349.4,644.1 L346.4,645.7 Z" fill="#4f8a3e" stroke="none"/>
<path d="M394.6,421.9 L391.7,422.6 L389.1,422.9 L386.9,422.6 L384.6,421.5 L382.9,419.5 L381.8,417.4 L381.9,415.1 L383.0,412.9 L384.3,411.4 L386.2,410.2 L388.6,409.3 L390.8,409.2 L392.9,409.6 L394.7,410.2 L396.1,411.3 L397.4,413.1 L397.9,414.9 L397.9,416.9 L397.7,418.6 L397.3,420.0 L396.2,421.0 L394.6,421.9 Z" fill="#4f8a3e" stroke="none"/>
<path d="M402.8,206.1 L404.6,205.2 L405.4,203.8 L405.2,201.6 L403.9,199.6 L402.7,198.7 L399.9,197.9 L398.1,198.6 L396.7,200.7 L396.8,202.2 L397.4,203.7 L398.6,205.3 L400.9,206.2 L402.8,206.1 Z" fill="#4f8a3e" stroke="none"/>
<path d="M569.7,-54.0 L568.5,-47.2 L569.6,-39.4 L574.7,-33.5 L588.5,-24.4 L600.5,-20.8 L608.9,-23.5 L613.9,-29.5 L615.1,-36.2 L612.8,-43.0 L606.0,-48.7 L595.9,-54.0 L585.1,-62.5 L580.4,-64.4 L573.0,-61.0 L569.7,-54.0 Z" fill="#2f7825" stroke="none"/>
<path d="M308.7,570.7 L302.6,569.6 L296.7,566.1 L294.1,558.7 L294.2,553.3 L296.3,548.6 L303.1,541.4 L307.2,532.4 L310.5,529.1 L313.5,527.6 L317.9,527.2 L323.3,528.1 L328.5,532.6 L331.6,538.3 L333.8,547.6 L334.1,557.9 L331.3,564.1 L324.7,568.3 L308.7,570.7 Z" fill="#2f7825" stroke="none"/>
<path d="M750.7,163.2 L750.1,155.4 L749.2,150.1 L747.8,145.9 L747.2,142.3 L747.6,139.7 L749.4,136.6 L750.5,134.5 L751.3,132.3 L751.8,129.6 L752.4,123.3 L753.5,118.3 L755.5,114.9 L759.0,111.7 L762.2,111.2 L765.0,111.6 L767.0,112.4 L769.4,114.3 L771.2,116.5 L772.9,120.8 L774.0,124.3 L774.7,130.8 L775.3,137.5 L776.1,142.5 L775.6,146.3 L774.5,148.8 L773.5,150.6 L768.5,153.9 L763.8,157.7 L760.2,160.6 L757.4,163.3 L755.3,165.0 L753.2,165.2 L751.4,165.0 L750.7,163.2 Z" fill="#2f7825" stroke="none"/>
<path d="M116.8,92.0 L110.1,96.8 L106.6,97.7 L103.3,97.5 L99.1,94.7 L97.7,92.5 L97.1,89.9 L97.7,86.5 L99.8,81.8 L103.2,77.6 L109.1,74.1 L117.2,71.1 L123.7,69.8 L129.2,69.7 L132.4,70.7 L135.0,73.5 L136.2,76.7 L135.8,79.3 L134.7,81.5 L133.1,83.6 L126.2,86.1 L120.3,89.3 L116.8,92.0 Z" fill="#2f7825" stroke="none"/>
<path d="M-17.0,290.5 L400.0,309.5 L818.1,300.0" fill="none" stroke="#ffd64a" stroke-width="5" stroke-linecap="round" stroke-linejoin="round" opacity="0.95"/>
</svg>