<svg xmlns="http://www.w3.org/2000/svg" viewBox="0 0 800 237" preserveAspectRatio="xMidYMid meet">
<rect width="100%" height="100%" fill="#143018"/>
<path d="M525.4,-65.0 L543.6,-83.7 L560.8,-102.5 L575.1,-124.2 L586.5,-140.6 L593.1,-147.8 L600.7,-149.7 L610.9,-148.3 L622.2,-143.6 L629.6,-140.1 L634.6,-137.6 L639.1,-133.9 L643.0,-126.1 L647.5,-118.7 L660.1,-105.2 L670.0,-92.3 L677.0,-80.0 L678.8,-71.8 L680.0,-64.8 L690.8,-67.1 L688.0,-73.7 L683.4,-86.1 L678.3,-99.7 L675.8,-112.2 L675.5,-123.2 L675.8,-134.8 L678.2,-144.4 L683.0,-153.5 L687.3,-159.4 L692.6,-164.9 L697.0,-169.6 L701.4,-174.0 L705.1,-176.1 L708.4,-177.5 L712.5,-177.3 L730.7,-175.2 L742.7,-170.2 L733.2,-177.1 L726.2,-178.4 L711.9,-179.8 L710.6,-181.2 L710.4,-183.4 L711.2,-185.7 L711.2,-189.0 L711.0,-192.1 L709.4,-196.2 L707.5,-199.2 L704.9,-201.7 L702.2,-202.8 L698.5,-202.2 L694.6,-199.1 L688.5,-192.3 L682.0,-185.9 L675.5,-181.0 L668.6,-177.1 L662.5,-173.1 L656.7,-167.6 L651.8,-164.2 L646.9,-162.6 L642.0,-163.0 L637.8,-164.7 L632.5,-169.8 L626.4,-175.3 L620.8,-177.1 L613.8,-176.5 L606.3,-175.1 L598.3,-172.7 L591.0,-174.4 L582.4,-181.2 L574.3,-187.0 L560.1,-194.5 L550.6,-195.9 L540.8,-193.7 L533.9,-189.1 L529.6,-185.1 L525.9,-186.6 L523.1,-184.4 L526.3,-180.3 L527.5,-174.5 L526.1,-170.5 L524.0,-166.9 L521.8,-164.1 L517.9,-160.4 L513.2,-156.4 L509.3,-150.8 L504.4,-141.3 L490.6,-129.3 L488.3,-116.5 L483.4,-106.2 L472.0,-91.0 L457.0,-76.2 L436.2,-58.1 L420.3,-43.8 L401.7,-27.0 L390.5,-20.5 L376.2,-14.0 L361.6,-13.1 L338.1,-11.1 L319.1,-9.5 L306.8,-5.6 L296.6,1.4 L289.2,6.9 L283.9,11.0 L275.6,15.9 L269.6,17.0 L272.5,23.8 L274.7,33.2 L293.9,37.0 L305.1,40.3 L322.9,44.8 L340.5,42.1 L349.5,39.9 L354.6,40.7 L357.9,43.8 L366.5,42.7 L369.5,38.5 L373.6,34.5 L378.9,33.0 L385.0,33.4 L388.7,36.6 L392.9,40.5 L397.0,43.3 L402.7,43.7 L405.5,42.2 L408.4,36.6 L409.8,32.6 L415.3,27.8 L422.4,23.4 L434.1,18.2 L449.4,11.1 L460.9,5.1 L470.1,-2.4 L479.4,-13.9 L494.0,-31.8 L509.4,-47.2 L525.4,-65.0 Z" fill="#2b5a2a" stroke="none"/>
<path d="M864.1,159.0 L861.2,169.2 L858.5,173.7 L850.4,176.0 L842.2,183.5 L837.3,191.2 L832.4,197.6 L802.6,195.9 L782.6,217.0 L771.9,258.5 L775.3,310.1 L781.5,332.0 L779.6,373.3 L771.9,391.9 L771.0,407.5 L770.1,425.0 L778.1,489.4 L779.6,503.6 L778.9,508.7 L777.1,512.8 L770.3,517.7 L774.2,520.3 L774.3,522.0 L770.6,529.2 L774.7,540.9 L788.9,556.1 L799.1,561.1 L821.9,563.5 L826.0,576.8 L833.5,589.5 L840.5,601.7 L845.5,611.4 L844.8,617.5 L841.6,621.8 L837.5,625.1 L845.2,628.8 L849.9,633.8 L859.3,638.2 L868.5,640.1 L882.2,638.7 L885.1,635.9 L894.5,629.1 L909.0,614.1 L910.5,604.0 L907.5,593.1 L901.0,580.7 L896.0,574.8 L888.3,570.1 L881.5,566.2 L876.8,563.0 L869.4,555.0 L857.9,531.6 L851.7,516.9 L851.1,501.5 L844.3,475.8 L840.2,462.8 L840.8,447.4 L840.2,434.1 L839.9,422.3 L841.1,410.8 L843.4,397.2 L844.3,387.7 L845.3,373.7 L848.1,361.6 L853.8,346.8 L857.8,337.8 L864.0,328.4 L873.9,313.5 L879.9,303.1 L882.6,293.1 L882.9,287.0 L882.4,281.3 L880.3,276.1 L877.3,271.4 L875.2,266.9 L872.6,260.5 L871.7,253.5 L872.4,246.5 L875.9,234.7 L886.5,214.9 L888.9,201.3 L874.1,185.2 L871.5,180.1 L868.0,174.2 L870.2,163.4 L873.1,152.2 L875.2,139.9 L878.8,129.0 L884.1,119.7 L888.7,112.1 L892.9,106.6 L897.6,102.5 L903.5,100.0 L909.5,99.4 L917.7,98.8 L925.4,99.1 L892.7,81.5 L888.2,85.6 L880.7,87.2 L875.5,92.0 L873.2,96.8 L874.1,103.9 L877.8,113.6 L877.2,118.7 L874.8,124.2 L871.2,132.0 L868.4,138.7 L865.7,149.5 L864.1,159.0 Z" fill="#2b5a2a" stroke="none"/>
<path d="M357.4,-149.9 L350.6,-147.4 L343.7,-143.8 L335.2,-138.2 L323.5,-129.6 L317.2,-126.3 L302.9,-123.8 L291.7,-125.9 L281.3,-128.8 L271.9,-132.2 L262.4,-136.0 L250.4,-138.3 L239.3,-138.2 L230.8,-133.4 L223.7,-128.4 L218.5,-123.7 L211.7,-116.0 L203.0,-108.8 L196.8,-105.0 L191.7,-100.4 L182.2,-91.0 L173.6,-84.5 L171.6,-83.5 L165.2,-82.1 L160.1,-80.8 L156.8,-78.8 L155.4,-76.1 L155.9,-71.6 L153.0,-69.2 L150.9,-69.2 L147.1,-69.5 L143.8,-68.7 L141.3,-67.3 L137.2,-63.1 L136.8,-55.7 L138.6,-49.1 L139.6,-43.9 L141.2,-31.6 L145.3,-34.1 L148.6,-38.0 L151.1,-39.1 L153.2,-39.8 L158.1,-40.9 L164.1,-43.4 L173.5,-47.2 L181.0,-50.0 L188.7,-52.1 L196.6,-55.4 L205.2,-60.5 L210.5,-65.3 L215.6,-69.5 L223.7,-74.6 L229.4,-79.5 L238.6,-85.3 L244.4,-87.0 L248.1,-86.2 L258.3,-81.5 L269.0,-72.5 L273.9,-67.4 L281.1,-65.0 L293.0,-64.0 L301.5,-65.6 L308.0,-69.6 L314.2,-73.5 L319.4,-80.3 L324.8,-85.1 L330.2,-87.9 L337.7,-87.6 L342.4,-86.1 L349.0,-85.1 L353.1,-84.7 L356.9,-84.0 L359.8,-82.9 L363.0,-82.7 L372.0,-85.3 L380.6,-87.3 L387.9,-88.7 L392.9,-91.0 L397.6,-95.2 L411.4,-111.1 L417.9,-119.5 L426.0,-127.8 L433.8,-135.1 L447.7,-142.9 L460.3,-146.1 L470.4,-147.6 L476.6,-148.7 L483.2,-152.0 L488.1,-156.9 L488.9,-159.9 L488.4,-165.9 L487.8,-171.2 L489.0,-174.5 L491.0,-176.9 L498.8,-181.9 L509.1,-188.8 L522.0,-197.0 L526.5,-200.3 L533.8,-206.9 L538.8,-211.9 L545.5,-216.4 L553.7,-222.0 L558.9,-226.5 L562.9,-231.1 L572.6,-238.1 L585.1,-242.3 L570.3,-264.4 L562.5,-257.8 L555.1,-250.3 L533.3,-238.8 L523.6,-231.5 L512.1,-221.4 L505.9,-215.3 L499.9,-211.6 L491.2,-208.0 L483.3,-205.4 L471.4,-202.5 L463.7,-198.9 L454.2,-192.5 L442.7,-184.2 L436.2,-180.5 L427.9,-176.5 L417.5,-174.6 L409.7,-175.0 L404.0,-175.2 L400.7,-175.5 L391.1,-172.7 L385.9,-170.1 L380.2,-164.1 L375.6,-160.8 L372.4,-156.8 L370.3,-153.3 L367.4,-151.3 L362.7,-151.0 L357.4,-149.9 Z" fill="#2b5a2a" stroke="none"/>
<path d="M86.4,-192.4 L95.0,-192.8 L102.8,-192.0 L107.8,-191.0 L111.8,-191.6 L120.7,-197.3 L128.5,-201.6 L134.1,-203.9 L142.8,-207.5 L146.3,-210.0 L150.7,-215.5 L157.0,-221.7 L163.6,-227.0 L169.1,-232.0 L173.2,-235.8 L176.1,-239.9 L177.3,-245.2 L177.1,-249.0 L174.1,-251.6 L170.4,-252.7 L166.2,-251.8 L162.5,-248.3 L158.7,-244.4 L128.8,-227.0 L107.8,-218.4 L93.8,-216.2 L84.8,-216.5 L75.6,-219.1 L63.7,-224.9 L56.4,-226.1 L48.6,-226.6 L39.7,-226.1 L28.4,-224.7 L16.1,-221.9 L5.7,-218.8 L-6.8,-214.9 L-18.5,-211.3 L-29.8,-207.0 L-37.7,-204.0 L-42.7,-201.4 L-49.3,-196.8 L-54.6,-193.1 L-59.8,-190.9 L-70.8,-186.9 L-79.5,-177.4 L-98.9,-171.1 L-100.3,-160.4 L-108.7,-150.6 L-114.8,-144.5 L-124.3,-128.4 L-134.6,-109.4 L-147.4,-95.3 L-161.6,-84.2 L-179.4,-72.7 L-192.3,-65.9 L-197.1,-59.8 L-202.7,-55.3 L-208.0,-52.7 L-211.1,-51.3 L-215.9,-49.5 L-221.9,-48.2 L-234.5,-47.4 L-246.6,-48.6 L-254.1,-51.1 L-258.5,-57.1 L-261.3,-63.7 L-263.0,-69.8 L-266.6,-79.2 L-270.7,-86.5 L-275.3,-92.3 L-280.8,-97.1 L-284.2,-100.5 L-286.1,-103.3 L-289.8,-105.7 L-294.4,-107.3 L-299.9,-107.6 L-304.9,-107.3 L-310.7,-108.4 L-314.6,-109.4 L-318.6,-109.2 L-321.9,-107.8 L-327.6,-104.6 L-334.7,-99.9 L-338.0,-95.0 L-339.8,-89.9 L-341.1,-85.4 L-342.2,-79.1 L-342.2,-72.1 L-342.1,-67.7 L-337.9,-59.2 L-331.1,-55.0 L-324.5,-44.0 L-318.0,-33.9 L-313.1,-25.4 L-310.1,-21.2 L-307.9,-16.4 L-305.3,-9.1 L-304.6,-5.0 L-308.3,1.6 L-303.1,5.3 L-299.1,-0.1 L-294.0,2.0 L-286.2,1.5 L-276.3,-3.1 L-269.5,4.7 L-259.6,2.1 L-254.1,2.8 L-245.9,4.0 L-232.0,1.3 L-220.3,0.3 L-209.1,-1.1 L-187.7,-6.5 L-168.2,-15.0 L-155.3,-22.5 L-149.1,-30.3 L-137.9,-37.1 L-121.1,-44.2 L-111.0,-49.8 L-97.3,-57.9 L-84.1,-71.9 L-72.4,-85.6 L-63.0,-99.0 L-49.3,-110.5 L-41.4,-118.1 L-34.3,-122.8 L-28.6,-126.8 L-23.0,-130.6 L-19.9,-132.8 L-16.0,-135.6 L-13.9,-137.2 L-12.1,-138.5 L-8.7,-140.9 L-5.3,-142.5 L0.0,-144.9 L3.9,-146.9 L7.3,-148.9 L9.8,-150.8 L17.1,-137.0 L44.8,-134.3 L56.1,-145.6 L32.8,-152.5 L40.0,-158.0 L58.0,-174.3 L80.2,-189.1 L86.4,-192.4 Z" fill="#2b5a2a" stroke="none"/>
<path d="M-173.8,28.3 L-191.7,31.0 L-208.9,34.5 L-221.1,38.9 L-226.8,40.1 L-232.8,40.8 L-239.8,40.8 L-245.7,41.0 L-252.9,38.4 L-267.2,40.5 L-279.6,44.3 L-288.4,49.9 L-295.2,57.5 L-298.0,66.3 L-289.3,92.1 L-296.0,97.7 L-308.2,106.8 L-311.2,108.7 L-315.1,109.7 L-320.9,111.6 L-343.8,102.4 L-340.7,107.0 L-321.8,114.2 L-320.5,118.1 L-318.8,120.5 L-316.2,122.1 L-309.8,120.1 L-308.6,115.8 L-306.1,109.7 L-301.2,105.1 L-295.7,101.3 L-289.1,97.8 L-285.9,97.4 L-283.7,100.4 L-280.7,104.1 L-274.5,107.6 L-265.2,109.1 L-249.8,108.0 L-218.4,100.6 L-186.7,93.6 L-146.1,90.1 L-127.6,87.3 L-119.0,84.6 L-112.5,80.2 L-105.9,76.2 L-99.8,74.6 L-91.4,74.4 L-79.8,75.0 L-72.0,75.8 L-64.7,76.2 L-57.1,76.4 L-51.1,75.3 L-47.7,73.2 L-43.6,70.0 L-39.9,68.4 L-35.4,67.7 L-27.7,67.4 L-13.2,64.8 L-2.8,61.2 L9.2,60.4 L19.5,60.6 L27.7,61.6 L36.1,63.4 L39.6,64.1 L47.0,63.7 L53.1,58.5 L55.6,48.7 L58.3,38.4 L61.7,24.6 L60.5,10.3 L56.2,-1.9 L50.7,-9.0 L44.3,-13.4 L36.9,-17.1 L29.1,-18.9 L17.6,-16.8 L6.9,-11.9 L-3.9,-4.4 L-19.1,10.4 L-33.1,20.8 L-41.9,25.0 L-52.3,27.4 L-61.0,28.2 L-70.3,28.9 L-75.8,28.7 L-84.1,27.1 L-85.9,23.8 L-88.4,19.1 L-88.8,13.3 L-95.1,14.8 L-96.2,20.5 L-97.4,24.2 L-102.3,25.2 L-127.6,26.9 L-148.7,26.7 L-173.8,28.3 Z" fill="#2b5a2a" stroke="none"/>
<path d="M57.9,151.2 L55.8,149.6 L42.4,140.5 L33.7,131.5 L32.0,126.1 L32.2,115.9 L24.9,111.0 L20.9,117.4 L15.3,119.4 L2.0,116.9 L-6.6,120.8 L-12.6,121.5 L-24.8,123.0 L-33.6,123.7 L-40.7,126.9 L-45.8,134.7 L-50.5,146.5 L-55.9,157.5 L-57.8,162.5 L-58.5,168.4 L-58.3,174.7 L-57.0,181.0 L-48.0,188.7 L-33.7,193.0 L-22.2,195.7 L-14.9,195.0 L-7.8,190.0 L0.8,195.0 L19.4,199.3 L33.4,196.3 L37.3,200.6 L43.6,204.3 L52.8,206.1 L63.6,205.1 L75.0,206.2 L91.1,209.7 L106.0,212.4 L118.6,219.5 L131.6,223.3 L141.3,223.8 L147.8,236.6 L162.5,236.6 L169.9,226.9 L173.7,228.3 L177.6,228.1 L191.7,227.9 L202.9,229.4 L215.6,232.1 L225.4,232.9 L253.9,233.5 L285.7,253.4 L301.0,246.7 L311.0,248.6 L328.1,253.5 L342.8,258.4 L362.6,269.4 L374.3,271.9 L384.2,270.3 L409.5,279.4 L417.1,282.3 L425.7,282.7 L426.1,272.5 L425.5,265.2 L421.6,260.8 L419.3,254.9 L419.8,247.8 L420.2,236.9 L419.8,231.7 L419.9,226.6 L417.4,225.6 L411.7,224.1 L405.5,219.0 L402.6,213.7 L400.7,209.4 L398.0,206.8 L393.9,205.1 L386.8,206.6 L382.0,209.8 L377.3,209.0 L366.8,198.3 L362.8,197.3 L359.6,193.9 L346.8,186.0 L323.4,181.4 L316.5,189.7 L311.5,185.8 L291.5,182.4 L272.2,179.0 L258.9,178.5 L246.9,177.5 L241.4,177.1 L233.8,176.8 L228.3,177.0 L223.4,178.1 L197.3,165.7 L174.2,173.2 L157.6,168.3 L139.8,165.1 L129.4,164.4 L123.5,164.9 L118.1,167.2 L113.8,164.1 L101.0,158.1 L90.9,165.5 L88.7,162.9 L83.5,147.0 L72.2,146.1 L57.9,151.2 Z" fill="#2b5a2a" stroke="none"/>
<path d="M726.1,-42.1 L725.7,-46.5 L724.9,-50.0 L722.5,-53.6 L719.5,-56.1 L715.9,-57.8 L709.6,-57.8 L703.2,-58.0 L700.0,-58.8 L696.7,-60.2 L694.5,-62.4 L690.8,-67.1 L680.0,-64.8 L679.9,-59.5 L677.5,-53.0 L673.6,-46.7 L670.4,-40.4 L668.5,-31.0 L667.5,-24.7 L667.1,-18.3 L666.5,-11.1 L666.6,-4.6 L666.9,1.4 L667.7,8.5 L668.1,15.5 L667.9,20.3 L665.8,32.4 L669.9,33.8 L676.6,23.5 L680.6,19.4 L687.1,17.1 L691.7,16.4 L698.1,16.6 L705.2,16.0 L708.3,11.5 L710.5,9.6 L717.5,3.9 L742.8,0.8 L741.3,-8.6 L733.0,-11.2 L723.9,-12.4 L728.5,-15.8 L732.1,-22.9 L732.8,-30.5 L732.2,-35.9 L726.1,-42.1 Z" fill="#2b5a2a" stroke="none"/>
<path d="M159.4,263.1 L151.0,262.3 L140.5,260.7 L130.7,258.5 L120.0,256.0 L113.3,257.8 L97.4,262.6 L91.3,267.4 L86.8,269.6 L78.6,268.1 L69.0,268.3 L54.2,268.8 L41.0,270.4 L25.2,269.2 L14.3,266.9 L5.2,263.5 L0.2,261.3 L-2.1,259.5 L-3.8,256.2 L-5.7,253.1 L-7.4,251.1 L-9.8,250.5 L-12.8,251.2 L-14.7,252.6 L-17.3,253.9 L-23.2,253.9 L-31.4,251.7 L-34.8,250.8 L-37.1,249.1 L-40.3,246.3 L-41.6,243.1 L-42.5,241.2 L-44.0,239.3 L-46.8,238.1 L-50.4,238.6 L-53.8,239.8 L-56.4,242.1 L-58.3,244.6 L-60.0,245.4 L-63.6,244.9 L-69.4,242.8 L-75.8,238.8 L-81.0,234.5 L-85.7,231.3 L-92.0,229.3 L-105.8,227.3 L-115.9,225.0 L-123.7,221.3 L-132.6,214.5 L-137.9,208.8 L-141.7,202.2 L-144.7,195.8 L-146.5,193.6 L-148.9,191.7 L-151.3,190.8 L-155.2,190.3 L-158.0,191.8 L-160.3,194.1 L-163.2,195.8 L-166.3,195.8 L-168.8,194.0 L-171.6,190.5 L-174.2,187.3 L-179.9,177.2 L-181.9,171.7 L-183.0,165.5 L-181.3,162.8 L-178.9,160.4 L-177.5,157.5 L-177.4,154.0 L-177.8,151.6 L-180.6,149.7 L-183.3,149.5 L-186.2,150.4 L-188.5,152.7 L-189.2,156.0 L-188.8,158.8 L-186.9,163.2 L-185.1,170.9 L-182.2,178.1 L-176.9,188.4 L-172.6,195.9 L-167.4,204.4 L-161.9,214.9 L-157.5,222.6 L-152.4,232.1 L-148.6,239.7 L-142.3,243.1 L-137.5,245.5 L-129.7,246.8 L-123.8,248.4 L-119.7,249.4 L-114.7,252.9 L-112.9,258.5 L-111.5,266.6 L-113.5,270.1 L-116.7,271.7 L-121.2,273.1 L-130.1,273.2 L-122.7,282.9 L-113.2,283.2 L-94.1,283.3 L-76.1,283.0 L-53.7,283.0 L-41.3,283.9 L-25.5,286.5 L-9.0,292.0 L10.6,299.2 L18.9,302.5 L22.8,308.4 L25.8,318.6 L26.6,324.1 L30.7,328.5 L38.7,332.6 L53.7,333.5 L78.1,332.4 L94.4,332.8 L107.4,333.7 L116.4,332.6 L122.9,330.4 L127.8,329.6 L135.2,329.0 L143.2,329.1 L153.3,329.6 L165.1,331.2 L174.9,333.6 L184.8,338.7 L198.9,343.8 L220.5,352.3 L225.9,353.5 L233.0,355.1 L241.5,355.8 L263.6,355.1 L274.8,355.6 L289.9,357.2 L300.1,359.5 L307.0,361.2 L310.8,360.4 L315.6,356.6 L321.4,357.6 L338.2,356.3 L342.3,351.6 L347.3,347.0 L347.5,340.6 L347.5,339.7 L349.6,335.4 L351.3,328.6 L354.3,322.9 L351.6,313.5 L347.9,305.5 L345.0,301.7 L339.1,297.9 L333.2,296.5 L328.5,295.6 L321.5,293.8 L314.9,291.6 L307.1,289.8 L299.6,289.2 L287.3,287.9 L277.6,288.4 L268.4,288.9 L256.3,289.0 L240.4,286.2 L224.3,281.7 L215.0,279.5 L202.7,276.4 L195.3,273.8 L184.1,269.8 L170.5,265.6 L159.4,263.1 Z" fill="#2b5a2a" stroke="none"/>
<path d="M383.3,76.8 L357.8,85.6 L342.4,84.8 L284.7,88.5 L264.0,90.9 L256.6,90.3 L251.0,88.0 L247.5,84.1 L246.3,77.8 L244.4,72.9 L241.1,71.7 L236.9,71.9 L233.7,74.1 L231.4,79.8 L229.3,86.3 L225.2,90.1 L219.4,91.3 L213.4,91.0 L209.3,88.3 L207.0,86.2 L204.1,84.2 L200.4,82.8 L196.6,82.4 L194.2,82.8 L192.1,84.1 L190.8,86.4 L190.0,89.1 L190.4,91.9 L191.5,96.4 L191.1,99.2 L190.5,101.4 L187.7,104.5 L184.1,107.2 L180.2,109.3 L178.5,119.3 L185.1,117.9 L193.9,116.4 L202.8,116.0 L212.7,116.3 L222.1,117.1 L228.0,119.8 L230.1,122.6 L231.5,131.4 L234.3,142.0 L240.4,149.6 L255.7,154.4 L276.7,156.9 L331.7,162.0 L352.2,161.0 L357.2,157.2 L369.9,163.7 L381.9,163.8 L392.9,159.7 L425.7,162.6 L436.6,164.9 L446.7,164.5 L453.9,164.7 L464.8,166.9 L471.1,170.6 L479.8,172.3 L487.1,171.1 L492.9,173.1 L514.3,181.3 L526.6,184.4 L535.0,184.0 L542.8,186.7 L557.6,191.2 L565.6,193.4 L574.4,199.2 L586.7,207.6 L606.3,216.0 L627.0,221.0 L642.8,230.2 L665.6,225.5 L671.2,223.2 L685.7,216.2 L706.1,207.4 L728.8,195.5 L742.6,182.1 L760.9,160.0 L777.5,139.4 L787.6,125.9 L792.3,116.6 L794.2,105.3 L788.2,77.4 L784.7,70.9 L779.5,67.6 L772.9,65.8 L765.2,66.3 L755.0,69.7 L744.5,75.5 L736.0,82.9 L729.9,91.6 L726.6,97.1 L721.3,99.0 L714.9,97.9 L711.2,102.2 L704.8,112.5 L699.7,118.1 L696.0,120.5 L684.5,129.6 L680.6,135.1 L670.5,138.0 L656.4,136.1 L651.0,136.3 L642.6,140.0 L634.6,143.5 L625.8,147.0 L618.6,150.1 L615.1,148.9 L610.0,142.9 L606.5,128.7 L605.6,120.7 L603.2,117.7 L594.8,116.2 L580.0,117.9 L572.8,121.1 L570.3,118.3 L566.4,116.6 L561.3,114.6 L551.6,112.7 L514.3,103.5 L484.7,99.1 L480.7,98.0 L476.2,89.7 L469.3,89.2 L467.8,92.6 L465.6,93.3 L453.9,94.5 L434.0,91.1 L410.7,87.9 L388.9,84.0 L383.3,76.8 Z" fill="#2b5a2a" stroke="none"/>
<path d="M837.3,66.6 L839.5,59.7 L840.8,52.2 L842.4,44.4 L843.4,39.9 L847.9,26.9 L852.1,15.9 L855.5,4.2 L858.3,-4.9 L860.1,-11.8 L860.2,-16.6 L858.1,-20.6 L854.2,-23.2 L850.9,-22.1 L848.0,-20.0 L845.1,-16.5 L843.1,-12.0 L840.3,2.4 L837.1,12.8 L833.1,20.3 L831.0,27.6 L829.3,35.0 L826.9,41.0 L821.6,46.6 L817.1,52.8 L815.3,58.1 L813.9,65.3 L810.8,87.5 L808.5,101.7 L807.8,108.6 L808.3,114.6 L809.6,118.2 L812.4,121.2 L816.0,122.1 L820.0,120.6 L823.4,118.2 L825.7,112.6 L829.8,101.5 L832.7,92.8 L834.1,85.7 L835.4,77.4 L837.3,66.6 Z" fill="#2b5a2a" stroke="none"/>
<path d="M55.8,97.3 L53.7,101.9 L51.0,104.7 L48.6,107.2 L46.7,110.6 L45.6,114.0 L47.5,119.4 L50.1,122.2 L57.2,128.8 L62.0,132.3 L68.0,134.4 L74.7,134.4 L85.9,134.4 L97.5,135.1 L106.3,136.4 L113.5,136.3 L116.7,135.0 L123.1,132.4 L134.4,128.9 L143.2,127.1 L153.3,125.3 L161.1,124.1 L168.2,122.2 L178.5,119.3 L180.2,109.3 L176.0,111.2 L166.6,113.7 L151.8,118.7 L144.8,120.7 L135.4,120.6 L128.6,118.0 L121.7,112.0 L111.3,109.9 L98.2,110.2 L89.7,111.4 L81.0,113.9 L75.6,114.1 L72.1,114.1 L67.1,112.9 L63.0,110.1 L62.1,106.8 L62.2,102.9 L63.5,98.7 L58.6,97.4 L55.8,97.3 Z" fill="#2b5a2a" stroke="none"/>
<path d="M74.0,73.8 L78.1,72.1 L81.8,71.9 L87.7,71.8 L90.9,70.8 L93.3,68.4 L95.9,66.5 L101.0,65.0 L105.2,64.0 L111.3,63.5 L114.2,62.4 L116.2,60.9 L117.5,57.3 L118.8,55.0 L125.1,50.5 L133.1,45.3 L139.5,40.4 L146.2,35.1 L150.2,32.2 L153.6,31.2 L162.9,30.6 L175.1,29.2 L184.0,27.6 L193.3,25.5 L201.5,23.5 L208.8,23.1 L218.9,24.6 L227.0,27.4 L231.4,30.0 L235.8,34.8 L239.0,39.9 L242.1,43.3 L246.3,44.4 L248.4,44.8 L242.2,61.3 L239.6,66.9 L238.2,68.6 L236.9,71.9 L241.1,71.7 L243.9,64.4 L247.9,54.2 L251.3,45.3 L254.3,39.9 L258.6,36.4 L263.6,35.6 L269.6,35.2 L264.8,19.1 L242.9,18.7 L227.6,18.3 L212.1,17.1 L201.9,16.6 L195.2,14.6 L188.0,13.2 L180.0,13.8 L169.3,16.1 L162.6,17.2 L155.2,18.8 L149.8,20.6 L147.4,23.7 L147.2,29.2 L143.2,33.2 L136.3,38.6 L129.9,43.2 L122.5,48.3 L116.0,51.2 L112.7,51.3 L108.5,52.2 L105.5,53.6 L101.8,56.6 L100.9,58.4 L97.8,59.7 L95.3,60.1 L92.1,60.2 L86.1,61.7 L79.9,64.6 L74.0,73.8 Z" fill="#2b5a2a" stroke="none"/>
<path d="M53.4,110.5 L399.5,126.3 L746.6,118.4" fill="none" stroke="#4e8b39" stroke-width="41.5" stroke-linecap="round" stroke-linejoin="round" opacity="0.85"/>
<path d="M64.7,129.0 L63.3,127.8 L62.8,126.5 L62.8,124.6 L63.6,123.1 L65.1,121.7 L67.1,120.4 L69.5,119.8 L71.8,120.1 L73.3,121.2 L74.0,122.5 L74.5,124.2 L74.2,126.3 L73.2,128.1 L71.9,128.9 L70.4,129.4 L68.9,129.8 L66.5,129.6 L64.7,129.0 Z" fill="#5a9540" stroke="none"/>
<path d="M249.6,187.6 L271.5,189.8 L290.4,190.8 L299.7,191.2 L305.0,191.6 L309.3,192.1 L312.0,193.3 L314.5,195.0 L315.9,197.1 L316.7,199.2 L317.3,201.1 L318.4,202.4 L321.7,203.7 L325.3,205.3 L329.9,206.4 L334.2,207.5 L338.7,207.8 L344.6,208.0 L349.0,208.4 L354.1,209.4 L357.0,210.2 L360.3,211.4 L363.3,213.1 L366.2,215.7 L368.7,219.1 L371.9,223.4 L375.7,226.9 L380.6,229.5 L389.6,233.9 L391.1,235.8 L392.2,238.3 L392.2,241.6 L390.6,246.6 L388.4,250.9 L383.3,258.9 L380.9,261.3 L377.8,263.9 L375.2,265.0 L372.2,265.5 L368.8,265.0 L365.8,263.9 L362.1,261.9 L356.8,257.2 L354.0,255.1 L349.4,252.7 L321.4,244.6 L315.7,243.4 L308.2,242.4 L302.1,241.7 L298.9,241.3 L296.7,240.4 L295.2,238.5 L294.1,236.2 L292.9,234.1 L289.7,231.0 L287.4,227.3 L282.1,225.9 L276.1,223.1 L268.9,222.5 L261.7,223.2 L254.3,225.2 L249.2,225.7 L242.3,225.4 L232.5,225.2 L224.9,225.5 L219.9,225.8 L211.8,224.3 L203.3,222.8 L197.4,221.7 L187.9,221.3 L181.3,222.1 L176.2,222.3 L173.4,221.9 L168.5,220.6 L165.2,219.2 L157.5,216.2 L156.5,216.0 L141.8,213.4 L127.9,210.6 L106.8,205.0 L76.6,199.0 L60.8,197.2 L48.1,197.4 L40.3,195.9 L34.3,191.4 L31.8,187.6 L29.5,185.3 L15.3,178.6 L13.0,178.1 L10.7,178.4 L7.6,179.1 L5.3,179.1 L3.3,178.5 L0.1,177.5 L-2.6,177.3 L-4.3,177.8 L-6.3,179.4 L-7.9,181.2 L-9.3,184.2 L-11.4,189.0 L-13.7,191.3 L-16.6,192.8 L-20.1,192.8 L-24.3,192.0 L-33.6,189.3 L-41.2,186.1 L-45.8,183.2 L-49.2,180.0 L-51.5,176.3 L-53.3,171.6 L-54.0,166.9 L-53.5,163.1 L-52.5,160.2 L-44.8,143.0 L-42.4,138.3 L-40.4,134.3 L-37.5,131.0 L-34.1,129.3 L-29.7,128.1 L-26.9,127.7 L-23.4,128.2 L-19.8,129.6 L-17.4,130.8 L-13.9,131.4 L-10.9,130.8 L-1.1,127.9 L3.8,126.6 L10.1,126.7 L17.5,129.1 L24.1,132.5 L34.6,142.1 L51.6,154.3 L62.4,160.8 L69.8,164.5 L81.3,166.4 L85.7,167.3 L88.1,168.9 L90.8,171.8 L92.7,173.9 L95.3,175.1 L106.0,173.2 L109.7,173.7 L113.8,174.6 L115.8,174.6 L120.0,173.3 L123.7,172.8 L127.5,173.0 L131.3,173.8 L140.7,177.0 L146.7,178.1 L156.0,178.7 L164.2,178.9 L171.5,178.6 L175.2,178.9 L178.0,179.6 L181.3,183.0 L185.3,189.4 L189.0,191.3 L195.4,192.4 L199.7,192.7 L201.8,192.0 L203.9,190.2 L206.1,188.0 L207.7,186.7 L210.6,185.6 L214.2,185.7 L215.9,186.3 L218.7,187.9 L221.1,189.1 L222.8,187.6 L224.8,186.9 L229.5,186.3 L249.6,187.6 Z" fill="#5a9540" stroke="none"/>
<path d="M612.7,32.1 L612.4,28.2 L610.7,8.8 L604.8,-2.3 L602.1,-10.5 L594.7,-25.1 L593.3,-31.1 L593.5,-34.8 L600.9,-42.6 L606.0,-45.5 L618.8,-43.3 L630.0,-38.8 L639.1,-28.3 L652.4,-11.7 L659.3,5.3 L660.6,15.4 L655.7,23.0 L649.7,28.4 L645.6,30.4 L635.0,30.8 L630.2,31.6 L624.7,33.2 L621.4,35.4 L618.2,36.8 L615.0,35.5 L612.7,32.1 Z" fill="#2e5577" stroke="none"/>
<path d="M-3.5,178.7 L-4.5,179.2 L-4.8,180.7 L-6.2,181.2 L-6.6,182.4 L-7.0,183.0 L-7.6,183.6 L-7.7,184.2 L-7.4,184.8 L-6.9,184.8 L-6.4,184.6 L-5.5,184.5 L-4.7,184.7 L-3.2,185.1 L-2.3,185.7 L-2.0,186.8 L-2.3,187.7 L-3.3,188.8 L-3.8,189.6 L-3.8,190.3 L-3.5,190.8 L-2.4,191.2 L-1.1,191.4 L-0.2,191.5 L1.2,191.7 L2.3,191.8 L3.1,191.5 L3.7,190.9 L4.3,190.1 L5.0,189.8 L5.7,190.0 L6.3,190.5 L6.6,191.3 L6.7,192.3 L6.7,193.1 L6.9,193.7 L7.6,194.1 L8.4,194.2 L9.5,194.1 L10.3,193.9 L10.8,193.6 L10.8,193.1 L10.8,192.7 L10.8,191.8 L11.3,190.9 L12.2,190.0 L12.8,189.8 L13.3,189.5 L14.3,189.2 L15.6,188.8 L16.7,188.8 L17.3,189.0 L17.9,189.1 L18.5,189.4 L19.0,189.5 L19.7,189.5 L20.4,189.9 L20.8,190.6 L21.2,191.2 L21.5,191.8 L22.1,192.2 L22.7,192.3 L23.2,192.0 L23.8,191.6 L24.5,191.3 L25.1,191.4 L26.0,192.0 L26.4,192.5 L26.8,192.8 L27.4,192.8 L28.5,192.3 L29.8,191.8 L30.4,191.4 L30.8,190.9 L30.9,189.9 L30.7,188.4 L30.2,187.3 L29.7,186.5 L29.0,186.2 L28.1,186.1 L27.5,186.2 L27.1,186.5 L26.8,187.1 L26.5,187.6 L25.8,188.0 L25.0,188.3 L24.3,188.0 L23.9,187.7 L23.5,186.9 L23.4,186.3 L23.6,185.3 L23.8,184.9 L23.8,184.4 L23.4,183.9 L22.7,183.7 L22.1,183.8 L21.8,184.0 L21.6,184.5 L21.4,185.0 L20.9,185.3 L20.4,185.2 L19.8,184.8 L19.2,184.6 L18.2,184.2 L16.8,184.0 L15.9,183.7 L15.6,183.3 L15.7,182.6 L15.6,181.9 L15.5,180.9 L15.1,180.2 L14.7,179.8 L14.3,179.7 L13.9,179.9 L13.1,179.7 L12.0,179.6 L11.5,179.8 L11.1,180.0 L10.6,180.1 L10.1,180.8 L10.0,181.4 L10.4,182.0 L10.6,182.5 L11.1,182.9 L11.5,183.3 L11.7,184.2 L11.6,184.8 L11.1,185.2 L10.6,185.4 L10.0,185.4 L9.5,185.4 L9.0,185.4 L8.4,185.8 L7.8,186.1 L7.1,186.1 L6.2,185.9 L5.5,185.4 L4.7,185.0 L4.3,184.2 L4.3,182.9 L4.2,181.8 L3.4,181.3 L2.9,181.4 L2.2,182.1 L1.3,181.8 L0.7,181.1 L0.0,180.3 L-1.0,178.9 L-2.4,178.5 L-3.5,178.7 Z" fill="#e7d6a3" stroke="none"/>
<path d="M687.6,-24.8 L686.5,-24.7 L685.7,-23.9 L685.1,-23.2 L684.4,-22.9 L683.8,-23.1 L683.4,-23.5 L682.8,-23.6 L682.1,-22.9 L681.4,-23.2 L680.8,-23.8 L680.4,-24.0 L679.9,-24.1 L679.7,-23.4 L678.4,-17.8 L680.3,-15.5 L681.1,-14.4 L681.7,-14.2 L683.2,-14.0 L683.9,-14.7 L684.9,-15.6 L685.9,-15.0 L686.7,-16.0 L687.3,-17.2 L688.2,-19.1 L688.7,-19.7 L689.2,-20.3 L688.0,-20.3 L687.4,-21.4 L687.3,-23.0 L687.3,-23.7 L688.9,-25.0 L687.6,-24.8 Z" fill="#e7d6a3" stroke="none"/>
<path d="M684.3,-4.6 L683.8,-4.3 L683.3,-3.8 L683.2,-2.8 L682.6,-2.0 L682.3,-1.3 L681.1,-0.5 L680.7,0.1 L678.8,0.5 L678.1,1.5 L677.8,2.8 L677.9,4.8 L678.2,6.9 L678.1,7.4 L678.3,8.0 L678.9,7.9 L679.4,7.7 L680.2,7.9 L680.7,7.9 L681.0,7.3 L682.1,6.5 L682.4,5.9 L682.8,4.5 L682.9,3.1 L683.7,2.1 L684.3,0.6 L685.2,-0.2 L685.5,-1.3 L684.8,-2.2 L685.1,-3.6 L685.8,-4.9 L684.3,-4.6 Z" fill="#e7d6a3" stroke="none"/>
<path d="M689.2,-40.5 L688.8,-41.1 L688.8,-41.9 L688.3,-42.6 L687.9,-42.2 L687.7,-41.5 L687.7,-40.0 L687.3,-38.4 L686.7,-37.0 L685.8,-36.3 L684.8,-36.1 L683.6,-36.4 L681.9,-36.9 L680.9,-36.7 L680.4,-36.4 L679.8,-35.9 L679.2,-35.5 L679.0,-34.9 L678.9,-33.9 L679.3,-33.5 L679.8,-32.6 L679.9,-31.8 L680.4,-31.0 L681.2,-30.4 L681.6,-29.4 L682.2,-29.2 L682.6,-29.6 L683.2,-29.3 L683.9,-28.9 L684.8,-29.3 L685.4,-28.7 L686.4,-28.8 L686.7,-29.2 L686.2,-30.3 L686.2,-31.4 L686.5,-32.0 L687.5,-32.3 L688.2,-32.6 L688.4,-32.9 L688.1,-33.7 L688.0,-34.5 L688.5,-35.4 L689.0,-35.8 L689.2,-36.6 L689.3,-37.5 L689.2,-38.3 L689.1,-38.8 L689.0,-39.8 L689.2,-40.5 Z" fill="#e7d6a3" stroke="none"/>
<path d="M281.8,228.4 L280.7,230.4 L280.1,231.6 L280.3,232.8 L280.3,234.4 L280.7,235.8 L280.6,236.8 L280.2,237.3 L279.4,238.1 L278.6,238.6 L278.2,239.0 L278.3,240.6 L278.8,241.7 L278.4,242.6 L278.8,243.5 L279.5,244.3 L280.2,244.8 L281.4,245.1 L282.3,245.7 L283.3,245.9 L284.1,245.6 L285.1,245.9 L285.6,246.7 L286.5,247.3 L288.1,246.7 L288.4,246.0 L289.0,245.4 L289.0,244.7 L288.7,243.5 L287.9,242.6 L287.2,241.8 L286.4,241.1 L285.4,240.5 L284.9,240.3 L284.1,238.8 L284.6,237.5 L284.8,236.5 L285.1,235.4 L285.9,234.1 L286.3,233.1 L286.3,232.1 L286.7,231.4 L287.2,230.5 L287.0,229.7 L286.3,229.0 L285.2,228.7 L284.3,228.6 L282.8,228.3 L281.8,228.4 Z" fill="#e7d6a3" stroke="none"/>
<path d="M292.8,236.1 L292.4,234.9 L291.7,234.3 L291.1,234.0 L290.3,234.1 L289.7,234.5 L289.1,235.2 L288.9,235.9 L288.5,236.4 L288.0,236.6 L287.7,237.4 L287.9,238.3 L288.3,239.0 L289.1,239.5 L290.0,240.0 L291.0,240.2 L292.0,239.8 L292.7,239.2 L293.4,238.4 L293.4,237.2 L292.8,236.1 Z" fill="#e7d6a3" stroke="none"/>
<path d="M271.3,225.3 L270.1,225.4 L269.2,226.0 L268.5,227.4 L268.4,228.6 L269.0,230.1 L269.4,231.1 L270.0,231.8 L270.1,232.9 L269.9,233.8 L269.4,234.4 L268.6,234.5 L268.6,235.4 L269.2,236.3 L269.6,236.8 L270.1,237.4 L270.7,237.8 L271.6,237.9 L272.5,237.8 L273.0,238.3 L273.7,238.6 L274.5,238.5 L275.1,237.8 L275.2,236.8 L274.9,235.8 L274.5,234.7 L274.5,233.7 L274.5,232.6 L274.8,231.9 L275.4,231.2 L276.4,230.5 L277.1,230.0 L277.5,229.1 L277.2,227.9 L276.9,226.9 L276.7,225.9 L276.2,225.1 L275.8,224.6 L274.8,224.2 L273.5,224.3 L272.5,224.6 L271.9,225.1 L271.3,225.3 Z" fill="#e7d6a3" stroke="none"/>
<path d="M716.9,-28.3 L716.4,-28.6 L715.9,-28.7 L715.5,-28.4 L715.5,-28.0 L715.7,-27.7 L715.5,-27.3 L715.3,-26.8 L715.0,-26.3 L714.8,-25.9 L714.4,-25.5 L713.9,-25.0 L713.4,-24.8 L713.0,-24.7 L712.7,-24.3 L712.5,-23.9 L712.7,-23.5 L713.0,-23.3 L713.4,-23.0 L713.8,-22.8 L714.0,-22.3 L714.0,-21.8 L713.6,-21.3 L713.1,-21.0 L712.7,-20.4 L712.5,-19.9 L712.7,-19.3 L713.0,-18.8 L713.4,-18.5 L713.5,-17.6 L713.9,-17.6 L714.2,-18.2 L714.8,-18.3 L715.4,-18.5 L715.7,-19.1 L716.0,-19.5 L716.6,-19.6 L717.2,-19.6 L717.8,-19.9 L718.4,-20.2 L718.7,-20.5 L719.5,-20.7 L720.7,-23.1 L723.7,-24.5 L724.8,-29.2 L721.6,-28.5 L719.5,-26.7 L719.1,-27.1 L719.0,-27.6 L718.8,-28.0 L718.8,-28.4 L718.8,-28.8 L718.6,-29.1 L718.2,-29.2 L717.7,-29.0 L717.6,-28.6 L717.3,-28.4 L716.9,-28.3 Z" fill="#e7d6a3" stroke="none"/>
<path d="M162.1,230.2 L161.4,229.8 L160.9,229.3 L160.7,228.7 L160.6,228.0 L160.6,227.4 L160.7,226.9 L161.1,226.4 L161.7,226.1 L162.5,226.1 L163.3,226.2 L163.8,225.9 L164.5,225.5 L164.6,224.7 L164.8,223.8 L164.5,222.9 L164.5,222.3 L164.8,221.5 L165.2,221.1 L165.9,221.1 L166.5,221.2 L167.1,221.8 L167.3,222.2 L168.0,222.7 L168.7,222.8 L169.3,222.9 L169.5,223.6 L169.7,224.2 L169.4,224.8 L168.6,225.5 L168.0,225.5 L166.9,225.9 L166.2,226.3 L165.9,227.0 L165.3,227.9 L165.0,228.4 L164.5,228.9 L164.0,229.5 L163.6,229.9 L162.9,230.2 L162.1,230.2 Z" fill="#e7d6a3" stroke="none"/>
<path d="M602.0,148.3 L602.0,147.7 L602.0,147.4 L601.3,147.1 L600.5,147.1 L599.9,147.4 L599.4,147.9 L599.3,148.4 L599.1,149.0 L598.9,149.5 L598.6,149.8 L598.5,150.3 L598.6,150.6 L598.9,150.8 L599.6,151.1 L600.1,151.4 L600.5,151.9 L600.9,152.2 L601.5,152.2 L601.9,152.0 L602.5,151.8 L602.9,151.5 L603.6,151.1 L604.0,151.1 L604.1,150.6 L604.4,150.2 L604.5,149.8 L604.4,149.5 L604.0,149.2 L603.6,148.9 L602.9,148.6 L602.3,148.6 L602.0,148.3 Z" fill="#e7d6a3" stroke="none"/>
<path d="M52.2,184.1 L53.1,184.2 L53.6,184.5 L54.1,184.4 L54.6,184.5 L55.2,184.5 L56.0,184.3 L56.6,184.3 L56.7,185.0 L57.1,185.5 L57.7,186.4 L58.0,186.8 L58.1,187.3 L57.9,187.7 L57.5,187.8 L56.4,187.6 L55.6,187.2 L55.0,187.0 L54.4,186.7 L53.9,186.6 L53.3,186.4 L52.3,186.9 L52.0,187.2 L51.6,187.4 L51.2,187.4 L50.6,187.1 L50.1,186.5 L50.1,185.8 L49.9,185.2 L49.5,184.6 L49.4,183.8 L49.5,183.0 L49.9,182.4 L50.5,182.1 L51.2,182.2 L51.7,182.4 L52.1,182.8 L52.1,183.4 L52.2,184.1 Z" fill="#e7d6a3" stroke="none"/>
<path d="M546.4,178.4 L547.6,178.3 L548.2,177.7 L548.4,177.2 L548.4,176.4 L546.9,176.2 L545.7,176.2 L544.6,175.8 L543.5,175.2 L542.7,174.9 L541.7,175.1 L540.7,174.9 L539.4,174.4 L538.2,174.2 L537.2,174.2 L536.6,174.4 L535.8,175.4 L535.9,176.4 L536.8,176.5 L538.4,176.6 L539.2,177.7 L538.7,178.9 L538.9,179.8 L539.7,180.2 L541.2,179.6 L541.8,178.9 L542.9,179.3 L543.7,180.3 L544.9,180.7 L545.7,180.2 L545.9,179.5 L546.4,178.4 Z" fill="#e7d6a3" stroke="none"/>
<path d="M644.7,169.2 L643.5,168.2 L642.7,166.8 L642.1,165.5 L640.8,165.2 L640.3,165.9 L639.5,167.0 L640.0,168.3 L641.2,169.6 L642.4,170.4 L644.5,171.2 L645.9,172.1 L647.4,172.9 L648.7,174.1 L650.1,174.8 L651.2,175.1 L652.5,174.9 L653.7,174.7 L654.9,175.2 L656.3,175.2 L657.2,174.4 L656.9,173.3 L656.1,172.2 L655.1,171.3 L654.9,170.1 L653.5,169.6 L652.2,170.1 L650.3,170.4 L649.0,170.2 L647.8,169.4 L646.5,168.9 L644.7,169.2 Z" fill="#e7d6a3" stroke="none"/>
<path d="M377.2,96.7 L375.8,96.1 L374.7,96.0 L372.9,96.1 L371.9,96.8 L371.0,97.3 L369.8,97.4 L368.5,96.4 L367.3,96.2 L366.3,96.3 L365.5,96.8 L365.4,97.9 L366.5,98.5 L367.7,99.2 L368.6,99.5 L370.3,99.9 L371.2,100.3 L372.5,100.6 L373.0,101.7 L373.7,102.8 L374.4,103.2 L375.5,103.7 L377.6,103.7 L379.8,103.4 L380.8,103.9 L382.5,104.3 L384.1,104.0 L385.2,103.5 L385.2,102.6 L385.0,101.5 L384.9,100.7 L386.1,100.3 L387.0,99.6 L387.3,98.4 L387.2,97.0 L386.8,96.3 L385.2,96.2 L384.3,96.7 L383.1,97.0 L382.0,96.2 L380.7,95.7 L379.6,95.8 L378.6,96.1 L377.2,96.7 Z" fill="#e7d6a3" stroke="none"/>
<path d="M157.9,222.4 L157.0,221.7 L156.8,220.3 L156.8,218.7 L156.9,217.3 L156.6,216.5 L155.9,216.2 L154.7,216.2 L153.8,216.9 L153.3,218.0 L153.3,219.5 L153.8,220.4 L154.4,221.2 L154.8,221.9 L154.7,222.4 L154.4,223.0 L153.0,223.3 L152.3,223.4 L151.7,223.8 L151.6,224.4 L151.8,225.0 L152.2,225.8 L152.3,226.4 L152.3,227.2 L151.8,227.8 L150.8,228.4 L150.1,228.6 L149.4,228.8 L148.9,229.4 L148.5,230.0 L147.9,230.9 L147.9,231.8 L148.5,232.2 L149.4,232.8 L150.3,232.9 L151.3,232.6 L151.6,231.9 L152.3,231.3 L152.9,230.8 L153.6,230.3 L154.4,230.2 L155.1,230.3 L155.6,230.8 L155.9,231.2 L156.7,231.0 L157.4,230.4 L157.8,229.6 L157.8,228.7 L157.5,228.1 L156.9,227.7 L156.8,227.1 L156.8,226.1 L157.4,225.3 L157.8,224.8 L158.2,224.0 L158.2,223.0 L157.9,222.4 Z" fill="#e7d6a3" stroke="none"/>
<path d="M595.8,144.2 L594.9,144.1 L594.2,143.8 L593.8,143.5 L593.5,142.8 L593.4,142.2 L593.3,141.8 L593.0,141.6 L592.5,141.6 L591.9,141.6 L591.3,141.6 L591.0,141.9 L590.6,142.3 L590.4,142.7 L590.1,143.0 L589.7,143.0 L589.3,143.1 L588.9,143.4 L588.7,143.6 L588.4,143.9 L588.2,144.0 L587.7,144.1 L587.3,144.4 L587.1,144.8 L587.4,145.3 L588.0,145.6 L588.8,145.9 L589.3,146.1 L589.8,146.5 L590.1,146.9 L590.6,147.2 L591.3,147.4 L592.0,147.4 L592.7,147.4 L593.2,147.6 L593.4,147.9 L593.5,148.5 L593.8,149.3 L594.2,149.4 L594.6,149.6 L595.3,149.3 L595.7,149.0 L595.6,148.6 L595.4,148.1 L595.3,147.7 L595.6,147.2 L596.2,147.1 L597.0,146.8 L597.2,146.3 L597.4,145.9 L597.3,145.4 L596.8,144.7 L596.6,144.4 L595.8,144.2 Z" fill="#e7d6a3" stroke="none"/>
<path d="M29.2,164.9 L28.2,164.7 L27.5,164.8 L27.0,165.6 L26.8,166.4 L26.7,167.2 L27.0,168.0 L27.7,168.4 L28.9,168.4 L30.1,168.0 L30.8,168.1 L31.5,168.7 L31.9,169.4 L32.4,169.6 L33.3,170.6 L33.9,171.0 L34.5,171.1 L35.0,170.8 L35.6,170.8 L36.5,170.9 L37.2,170.9 L38.1,170.9 L38.8,170.6 L39.1,170.3 L39.2,169.8 L39.7,169.4 L40.2,169.1 L40.6,168.7 L40.7,168.4 L40.6,168.1 L40.3,167.7 L40.0,167.7 L39.7,167.7 L39.1,168.0 L38.5,168.3 L38.2,168.2 L37.7,168.0 L37.4,168.0 L37.1,168.0 L36.4,167.8 L36.1,167.5 L35.8,167.4 L34.9,167.3 L34.3,167.0 L34.0,166.6 L33.4,166.4 L32.9,166.5 L32.5,166.9 L32.0,166.7 L31.5,166.2 L31.2,166.0 L30.9,165.6 L30.3,165.2 L29.2,164.9 Z" fill="#e7d6a3" stroke="none"/>
<path d="M201.8,184.1 L200.7,184.6 L200.0,184.9 L199.2,185.9 L198.5,185.9 L197.7,186.2 L197.3,186.8 L197.1,187.8 L197.1,189.0 L197.6,190.1 L198.3,191.1 L198.9,191.4 L199.5,191.3 L200.4,191.2 L201.3,191.0 L201.8,190.3 L202.0,189.3 L202.4,188.6 L203.0,187.8 L203.2,187.0 L203.7,186.6 L204.4,186.0 L205.1,185.5 L205.7,185.0 L205.7,184.2 L204.6,184.3 L204.1,183.9 L203.6,183.1 L203.3,182.7 L202.7,182.8 L202.3,183.3 L201.8,184.1 Z" fill="#e7d6a3" stroke="none"/>
<path d="M326.9,190.1 L325.5,190.2 L324.7,189.2 L324.6,188.2 L324.5,187.1 L324.4,186.3 L323.9,185.9 L323.2,185.7 L322.4,186.0 L321.7,186.5 L321.8,187.5 L321.4,188.3 L320.8,188.7 L320.0,188.8 L319.7,189.6 L319.7,190.3 L320.5,191.0 L321.3,191.6 L321.4,192.6 L320.8,193.4 L320.1,193.7 L319.2,193.6 L317.9,193.8 L317.5,194.8 L317.0,196.2 L317.8,196.7 L318.3,197.6 L318.5,198.6 L318.9,199.5 L318.9,200.0 L318.4,200.6 L317.9,201.1 L318.8,201.7 L319.7,202.3 L320.4,202.1 L321.0,201.6 L321.4,201.0 L321.9,199.6 L321.9,198.7 L321.7,197.8 L323.0,197.0 L324.5,197.0 L325.6,197.1 L326.5,197.4 L327.8,197.7 L328.6,197.1 L329.5,196.8 L329.6,195.9 L329.4,195.3 L328.2,195.6 L327.3,195.0 L326.7,194.7 L326.1,194.7 L325.5,195.1 L325.3,195.8 L324.7,196.0 L323.9,195.6 L324.1,194.5 L324.6,192.9 L325.6,192.2 L327.1,192.1 L328.2,192.1 L329.3,192.1 L330.3,191.8 L331.1,192.6 L331.5,193.3 L332.1,194.0 L332.9,194.6 L333.8,194.9 L334.3,195.8 L334.4,196.6 L333.8,197.1 L333.4,197.9 L332.7,198.1 L332.0,198.2 L331.4,198.9 L330.8,199.5 L330.1,199.9 L328.7,199.9 L327.7,199.9 L326.7,200.1 L326.1,200.4 L325.4,201.2 L325.1,202.3 L325.6,203.5 L326.2,204.1 L326.9,204.4 L327.8,203.8 L329.1,203.8 L330.4,203.9 L331.7,202.8 L332.5,201.9 L333.2,202.2 L333.7,203.1 L333.9,204.0 L333.8,204.6 L333.5,205.2 L333.7,205.7 L334.5,205.7 L335.3,205.6 L335.7,205.0 L335.9,204.3 L336.6,204.0 L337.3,204.3 L337.8,205.3 L338.7,206.0 L339.4,206.0 L339.9,205.6 L340.3,204.9 L340.3,204.3 L339.9,203.9 L339.3,203.3 L338.7,202.5 L338.4,201.9 L338.5,200.7 L339.0,200.1 L339.9,200.2 L341.2,200.3 L342.0,200.0 L342.7,199.0 L343.1,198.2 L343.8,197.7 L344.7,197.4 L345.2,197.8 L346.1,198.6 L347.0,199.8 L347.5,200.7 L348.4,200.9 L349.8,200.8 L350.5,200.6 L350.9,199.9 L350.6,198.9 L350.9,198.1 L351.7,197.5 L352.7,197.3 L353.7,197.6 L354.2,198.2 L354.7,199.2 L355.3,199.7 L356.3,199.7 L356.9,199.6 L357.6,199.9 L358.3,200.4 L358.6,201.2 L359.5,200.9 L360.3,199.8 L360.8,198.8 L360.8,198.0 L360.2,197.6 L359.8,197.1 L359.2,196.4 L358.4,195.9 L358.0,195.6 L356.6,195.2 L356.0,195.2 L355.2,194.9 L354.2,194.8 L353.6,194.2 L352.8,194.1 L352.2,194.2 L351.4,194.7 L350.7,194.7 L349.8,194.5 L349.2,193.8 L348.5,193.6 L347.5,193.4 L346.0,192.9 L345.2,192.7 L344.3,192.7 L343.8,192.8 L343.3,193.3 L343.1,194.0 L342.6,194.5 L342.3,195.3 L342.0,195.9 L341.5,196.2 L340.4,196.0 L339.9,195.5 L339.5,194.9 L339.7,193.9 L339.4,192.8 L338.7,191.8 L337.9,191.6 L336.8,191.5 L336.1,191.7 L335.4,192.1 L334.7,191.5 L334.9,190.9 L334.3,191.1 L333.5,190.8 L332.7,189.6 L333.4,188.6 L334.2,188.2 L334.7,188.0 L335.0,187.1 L335.4,186.8 L335.4,186.4 L334.8,186.1 L334.0,186.2 L333.0,186.3 L332.1,186.6 L331.7,187.8 L331.3,188.4 L330.6,188.8 L329.7,188.9 L329.4,188.5 L329.1,188.3 L328.6,188.5 L328.1,189.0 L327.9,189.6 L327.4,190.0 L326.9,190.1 Z" fill="#e7d6a3" stroke="none"/>
<path d="M188.3,184.5 L187.3,183.8 L186.8,183.0 L186.3,181.4 L186.1,180.5 L185.9,179.5 L186.0,178.8 L186.8,177.8 L187.0,176.3 L186.0,176.0 L185.1,175.4 L184.2,175.3 L183.1,175.5 L182.1,175.6 L181.5,175.9 L181.0,176.5 L180.6,177.8 L180.5,178.7 L181.0,179.8 L181.5,180.8 L181.4,181.5 L180.6,181.8 L180.2,182.2 L180.2,183.0 L180.3,183.9 L180.7,184.8 L181.2,185.1 L182.2,184.6 L182.7,185.1 L183.3,185.9 L183.7,186.6 L184.1,187.4 L184.8,187.9 L185.6,187.9 L186.7,187.7 L187.5,188.3 L188.0,189.0 L188.8,189.8 L189.8,190.5 L191.1,190.8 L192.0,191.2 L192.7,191.1 L193.0,190.4 L192.6,189.4 L192.9,188.7 L192.7,188.0 L192.1,187.5 L191.7,187.0 L191.0,185.8 L189.9,185.5 L189.4,185.2 L188.3,184.5 Z" fill="#e7d6a3" stroke="none"/>
<path d="M367.8,154.2 L366.6,154.1 L366.0,153.4 L365.6,153.2 L364.9,153.1 L363.7,153.5 L362.7,153.8 L361.8,154.1 L361.3,155.7 L361.5,156.6 L362.4,157.3 L363.2,157.6 L364.0,158.4 L364.9,158.7 L365.7,159.1 L366.3,160.0 L367.4,161.0 L368.4,161.3 L369.3,161.4 L370.2,160.8 L370.5,160.0 L370.1,159.1 L369.6,158.3 L369.5,157.7 L370.0,157.0 L370.7,157.0 L372.2,156.6 L374.2,156.8 L375.1,157.3 L376.5,158.3 L377.2,159.1 L377.5,159.8 L378.0,160.8 L378.2,161.5 L379.3,162.1 L380.2,162.0 L380.9,161.2 L381.2,160.5 L380.9,159.8 L380.5,159.1 L380.5,158.0 L380.7,157.0 L380.9,156.3 L380.8,155.5 L381.1,154.8 L380.6,154.1 L379.2,154.0 L378.2,153.7 L378.5,153.1 L379.0,152.6 L380.0,152.1 L380.3,151.8 L380.3,151.1 L379.9,150.8 L378.8,150.5 L377.7,150.4 L377.3,150.2 L376.3,149.8 L375.3,149.9 L374.0,150.0 L372.6,150.6 L372.0,151.6 L371.8,152.2 L371.5,152.8 L370.9,153.2 L369.7,153.5 L368.9,153.6 L367.8,154.2 Z" fill="#e7d6a3" stroke="none"/>
<path d="M195.7,170.4 L195.2,170.3 L194.0,170.8 L193.5,171.4 L193.2,172.2 L193.0,173.0 L192.6,173.6 L191.8,174.0 L191.8,174.9 L192.3,175.2 L193.1,175.6 L193.2,176.4 L192.9,177.4 L192.6,178.0 L192.5,178.7 L192.0,179.2 L191.6,179.6 L191.2,180.0 L191.7,180.4 L192.5,181.0 L193.5,181.7 L194.3,182.0 L195.2,182.0 L196.0,181.7 L196.2,180.9 L196.5,180.0 L196.8,179.2 L197.5,178.6 L198.4,178.4 L199.1,178.5 L199.7,178.5 L200.0,178.0 L200.7,177.4 L201.5,177.5 L202.1,177.9 L202.6,178.5 L203.0,179.4 L203.6,179.9 L204.3,180.0 L205.4,180.1 L206.5,180.3 L207.0,181.1 L207.5,181.5 L208.3,182.0 L208.9,182.3 L209.7,182.9 L210.4,183.1 L211.4,183.5 L212.7,184.2 L213.6,184.9 L215.1,184.9 L216.0,184.9 L217.1,185.6 L218.2,186.3 L219.0,186.4 L219.7,186.4 L220.2,185.7 L220.1,185.0 L219.8,184.3 L218.9,184.0 L218.6,183.6 L218.0,183.1 L217.6,182.5 L217.3,182.0 L217.6,181.1 L217.7,180.6 L217.2,180.0 L216.3,179.9 L215.1,180.2 L214.3,180.4 L213.1,180.6 L212.3,180.6 L211.5,180.4 L210.9,179.9 L210.7,179.1 L210.4,177.9 L210.2,176.6 L209.9,175.6 L209.2,175.1 L208.5,175.3 L207.9,175.8 L207.3,176.2 L206.5,176.4 L205.9,175.9 L204.9,174.5 L204.2,173.6 L203.4,173.1 L202.7,173.1 L201.7,173.5 L201.2,173.7 L200.7,174.0 L200.3,174.4 L199.2,175.0 L198.6,174.6 L197.7,174.3 L197.5,173.7 L197.1,173.0 L197.2,172.2 L196.8,171.4 L196.3,170.8 L195.7,170.4 Z" fill="#e7d6a3" stroke="none"/>
<path d="M727.5,105.4 L726.4,104.9 L725.8,104.7 L725.1,104.5 L724.5,104.5 L724.1,104.8 L723.8,105.1 L723.6,105.7 L724.1,106.3 L724.7,106.7 L725.1,107.0 L725.6,107.1 L726.0,106.8 L726.5,106.6 L727.1,106.5 L727.6,106.4 L727.8,106.2 L727.8,105.7 L727.5,105.4 Z" fill="#e7d6a3" stroke="none"/>
<path d="M718.7,105.1 L717.6,104.5 L717.2,103.9 L716.8,103.6 L716.1,103.8 L715.5,104.3 L714.7,104.8 L714.2,105.4 L713.7,106.0 L713.8,106.8 L714.1,107.3 L714.8,107.9 L715.9,108.0 L716.9,108.1 L718.2,108.1 L718.9,108.2 L719.5,108.3 L720.1,108.1 L720.7,107.9 L721.2,107.9 L721.6,108.5 L722.3,108.8 L722.9,108.7 L723.1,108.1 L722.8,107.4 L722.2,106.8 L721.4,106.3 L720.6,106.1 L719.4,105.7 L718.7,105.1 Z" fill="#e7d6a3" stroke="none"/>
<path d="M365.1,143.4 L364.2,142.7 L363.4,142.2 L362.7,141.8 L361.0,141.8 L359.4,141.8 L358.4,142.2 L358.3,143.5 L357.7,144.7 L357.6,145.7 L358.1,147.1 L359.6,146.1 L360.5,146.2 L361.2,146.9 L361.6,148.1 L362.1,149.1 L362.4,149.6 L363.1,149.7 L364.0,149.6 L364.8,149.8 L365.9,149.2 L366.7,149.5 L367.6,149.3 L368.2,148.9 L368.5,147.6 L369.4,147.1 L370.5,146.2 L370.6,145.2 L369.8,144.6 L369.2,144.1 L368.3,144.1 L367.6,144.4 L366.3,144.1 L365.1,143.4 Z" fill="#e7d6a3" stroke="none"/>
<path d="M372.3,88.9 L372.3,87.7 L372.8,86.6 L373.0,85.4 L372.9,84.5 L372.0,84.8 L371.3,85.3 L370.6,85.6 L370.0,86.3 L369.3,86.7 L368.7,87.9 L368.4,88.9 L367.4,88.9 L366.6,88.4 L366.2,87.8 L365.6,87.5 L364.9,87.8 L364.3,88.3 L364.0,89.1 L363.4,90.0 L362.7,89.8 L362.2,89.7 L361.6,90.1 L361.8,90.9 L361.7,91.6 L361.6,92.3 L361.8,92.7 L362.6,92.5 L363.3,92.4 L364.5,92.7 L364.4,92.1 L365.7,91.8 L367.0,91.3 L367.4,91.0 L368.3,91.3 L369.4,91.3 L369.8,90.4 L370.3,89.8 L371.1,90.0 L371.8,90.6 L372.3,90.7 L373.2,90.9 L374.4,90.9 L374.8,90.3 L374.5,89.7 L373.2,89.4 L372.3,88.9 Z" fill="#e7d6a3" stroke="none"/>
<path d="M385.3,86.8 L385.5,85.3 L385.5,84.3 L385.5,83.1 L384.4,82.6 L383.4,81.6 L382.7,81.3 L381.6,81.1 L380.4,81.0 L379.5,81.7 L378.8,82.9 L377.7,83.2 L376.7,83.9 L376.5,84.6 L376.3,85.5 L376.4,86.7 L377.5,87.1 L378.5,87.8 L379.0,88.4 L379.4,89.1 L379.6,90.7 L381.5,90.2 L382.9,90.5 L383.8,90.7 L384.7,90.1 L385.5,89.6 L385.3,88.7 L386.1,87.5 L385.3,86.8 Z" fill="#e7d6a3" stroke="none"/>
<path d="M699.2,128.2 L699.2,127.1 L698.9,126.5 L697.9,126.9 L696.5,127.1 L696.0,127.2 L694.8,127.0 L694.2,126.9 L693.2,127.1 L692.2,126.5 L691.2,126.5 L690.7,127.3 L690.6,128.3 L690.9,129.1 L691.1,130.0 L690.6,131.0 L690.2,131.9 L690.2,133.1 L690.4,133.6 L690.3,134.8 L689.8,135.5 L689.6,136.5 L689.8,136.9 L690.1,137.4 L690.5,137.9 L691.2,137.9 L691.9,137.6 L692.4,137.2 L692.5,136.6 L692.5,135.5 L692.6,134.6 L693.5,133.6 L694.4,133.5 L694.9,133.0 L696.0,132.3 L697.0,132.3 L697.6,131.7 L698.1,130.9 L697.4,130.3 L697.2,129.8 L697.1,129.2 L697.1,128.5 L697.8,128.3 L699.2,128.2 Z" fill="#e7d6a3" stroke="none"/>
<path d="M735.4,92.4 L734.8,92.8 L733.9,93.5 L733.2,94.1 L733.1,94.6 L732.8,95.1 L732.0,95.6 L731.4,96.0 L730.9,97.0 L730.4,97.5 L729.8,98.2 L730.1,99.2 L730.3,99.9 L730.0,100.4 L729.7,100.8 L729.5,101.5 L728.8,101.9 L729.0,102.4 L729.8,102.8 L730.0,103.5 L730.5,103.8 L731.2,104.0 L731.6,103.6 L732.2,103.2 L731.7,102.7 L731.6,102.0 L732.1,101.4 L732.7,100.8 L732.6,99.9 L732.9,98.9 L733.4,98.7 L734.1,98.4 L735.0,97.9 L735.8,98.1 L736.3,98.2 L736.9,98.5 L737.4,98.2 L737.1,97.6 L736.7,97.2 L736.4,96.8 L736.2,96.0 L737.1,95.4 L737.4,94.9 L736.9,94.1 L737.6,93.7 L737.8,92.9 L737.6,92.4 L737.0,91.9 L736.1,92.0 L735.4,92.4 Z" fill="#e7d6a3" stroke="none"/>
<path d="M104.9,166.6 L104.4,165.7 L103.5,164.8 L103.0,163.5 L102.9,162.6 L102.3,161.6 L101.5,161.3 L100.6,161.3 L100.1,162.3 L100.1,163.2 L100.0,163.9 L99.7,164.3 L99.0,164.5 L98.6,163.8 L98.2,163.2 L97.7,163.1 L96.9,163.2 L96.2,163.9 L96.2,164.8 L96.9,165.2 L97.9,165.7 L99.2,166.1 L100.6,166.6 L101.3,166.9 L101.9,167.2 L102.0,168.0 L102.4,169.0 L102.9,169.8 L102.4,170.2 L101.4,170.6 L100.0,171.0 L98.1,171.5 L97.0,171.2 L96.1,169.9 L95.5,169.4 L95.0,168.4 L94.5,168.0 L94.0,167.5 L93.2,167.7 L92.8,168.5 L92.6,169.2 L92.6,169.9 L93.0,170.6 L92.3,171.4 L91.8,171.8 L92.1,172.5 L93.4,172.0 L94.1,172.3 L94.4,173.3 L95.2,173.7 L96.1,173.6 L97.0,173.2 L97.8,173.2 L98.3,173.7 L98.9,173.9 L99.7,173.7 L100.2,173.2 L100.4,172.7 L100.9,172.4 L101.6,172.3 L102.2,172.7 L103.0,172.5 L103.7,171.8 L104.4,171.4 L106.0,171.4 L107.2,171.3 L108.6,171.2 L109.4,171.5 L110.2,172.0 L111.6,172.4 L112.5,172.9 L113.2,173.5 L114.2,174.0 L115.1,174.1 L115.7,173.7 L115.7,173.2 L115.1,172.6 L114.6,171.1 L114.4,170.1 L114.1,169.2 L113.5,168.3 L112.4,168.0 L111.5,168.1 L110.5,168.2 L109.7,168.2 L108.9,167.9 L108.3,168.1 L107.7,168.4 L107.0,168.6 L106.0,167.9 L105.6,167.2 L104.9,166.6 Z" fill="#e7d6a3" stroke="none"/>
<path d="M81.9,158.9 L80.3,159.0 L79.1,158.7 L79.0,157.5 L79.2,156.4 L80.1,155.1 L80.9,154.0 L80.8,152.9 L80.4,151.2 L79.0,150.7 L78.4,149.5 L77.4,149.1 L76.0,148.8 L75.1,148.9 L74.4,149.4 L74.6,150.5 L75.7,151.2 L76.5,152.0 L76.6,153.2 L76.5,153.9 L75.9,154.3 L74.9,154.5 L74.6,155.9 L74.6,157.5 L74.3,158.4 L73.8,159.2 L73.0,159.7 L71.9,159.5 L70.6,159.1 L69.8,158.3 L69.4,157.1 L69.8,156.2 L70.2,155.3 L70.2,154.1 L69.5,153.2 L68.9,152.1 L68.6,151.0 L67.6,150.8 L67.2,151.7 L66.9,152.5 L66.3,153.1 L65.3,152.9 L64.7,152.4 L64.5,151.2 L63.1,151.4 L62.2,151.5 L61.8,152.4 L61.7,153.7 L62.3,154.6 L63.0,155.3 L63.9,156.2 L64.5,157.2 L65.1,158.0 L65.6,158.6 L66.7,158.9 L67.4,159.4 L68.0,160.3 L68.4,161.3 L69.2,161.6 L70.0,162.0 L70.8,162.9 L71.7,163.0 L72.8,162.3 L74.0,161.6 L74.4,161.1 L75.5,160.8 L76.2,162.0 L76.5,163.2 L76.9,163.8 L77.7,163.8 L78.7,163.0 L81.5,162.2 L81.9,160.3 L81.9,158.9 Z" fill="#e7d6a3" stroke="none"/>
<path d="M89.9,256.4 L89.3,257.5 L88.7,258.6 L88.2,259.5 L87.6,259.9 L88.4,260.9 L88.4,262.3 L87.8,263.4 L87.1,264.4 L86.2,264.7 L84.9,264.9 L84.0,265.3 L83.6,266.4 L83.2,267.8 L85.0,268.7 L86.4,269.0 L87.8,268.2 L89.7,267.3 L90.5,266.7 L90.9,265.9 L91.1,265.3 L91.6,265.0 L92.5,264.6 L93.0,264.2 L93.6,263.6 L93.5,262.6 L93.9,261.9 L94.5,261.3 L96.0,261.4 L97.0,261.2 L97.7,260.7 L98.2,259.6 L97.9,259.1 L97.3,258.2 L97.3,257.4 L97.4,256.6 L97.3,255.7 L98.0,255.0 L99.0,254.9 L99.9,255.1 L100.6,255.5 L101.2,255.9 L101.6,255.9 L102.1,255.4 L102.4,254.4 L102.4,253.7 L101.8,253.1 L101.9,252.5 L101.8,251.4 L102.2,250.8 L102.0,250.0 L102.1,249.1 L102.8,248.5 L103.2,247.9 L102.1,247.2 L101.5,246.2 L101.1,245.1 L101.2,243.8 L100.3,243.0 L99.4,242.7 L98.6,242.6 L97.5,242.8 L97.1,243.4 L96.7,244.1 L96.5,244.9 L97.4,245.2 L97.7,246.0 L97.6,246.7 L97.0,247.1 L96.6,247.4 L96.7,247.9 L97.3,248.4 L97.9,248.8 L98.6,249.2 L99.1,250.1 L99.1,250.8 L98.7,251.8 L97.7,252.7 L96.7,253.7 L96.2,254.2 L95.4,254.5 L94.8,254.7 L94.3,255.3 L93.5,255.7 L92.9,256.0 L91.5,256.1 L89.9,256.4 Z" fill="#e7d6a3" stroke="none"/>
<path d="M721.1,-11.4 L720.4,-12.4 L720.3,-13.2 L719.5,-13.8 L718.6,-14.1 L717.9,-13.8 L717.3,-12.8 L716.8,-12.0 L717.0,-11.2 L716.9,-10.5 L717.0,-9.8 L717.0,-8.9 L717.0,-7.8 L716.9,-7.3 L716.4,-6.9 L715.6,-6.5 L715.2,-6.5 L714.4,-6.0 L713.8,-5.7 L712.3,-5.0 L713.0,-4.7 L713.1,-3.9 L712.8,-3.2 L712.4,-2.9 L712.0,-1.2 L711.1,-0.4 L710.3,0.2 L708.8,0.2 L708.1,-0.4 L707.5,-0.5 L707.0,-0.0 L706.3,0.0 L705.7,0.5 L705.5,1.3 L705.3,2.0 L704.6,2.4 L703.9,2.2 L703.4,2.5 L703.1,2.8 L702.4,3.0 L701.5,2.9 L701.0,3.8 L701.1,4.5 L700.6,5.0 L700.1,5.4 L699.9,6.0 L701.3,6.1 L703.1,4.9 L704.0,4.2 L704.7,3.9 L705.3,3.6 L706.2,3.5 L707.1,3.1 L707.7,3.3 L708.4,3.5 L709.4,3.1 L710.5,3.1 L711.5,2.4 L712.3,2.3 L713.0,1.9 L713.9,1.3 L714.4,0.9 L715.4,0.6 L716.5,0.6 L717.5,0.2 L718.4,0.3 L719.0,0.3 L719.6,-0.1 L720.5,-0.5 L721.4,-0.7 L722.3,-0.4 L723.0,0.2 L724.0,-0.0 L725.2,-0.3 L726.0,-0.7 L727.1,-0.6 L728.1,-0.4 L729.0,-0.9 L730.7,-1.4 L732.1,-1.1 L733.4,-1.0 L734.8,-0.8 L735.6,-0.4 L736.5,-0.4 L737.2,-0.6 L738.1,-1.0 L738.7,-1.5 L739.1,-2.5 L738.8,-3.5 L738.5,-4.3 L738.0,-5.0 L737.6,-6.1 L736.7,-6.4 L735.6,-6.9 L735.5,-5.8 L735.1,-5.2 L733.9,-5.0 L733.2,-5.3 L731.7,-5.9 L731.2,-6.7 L731.0,-7.8 L729.7,-8.0 L728.9,-8.1 L727.7,-8.1 L726.7,-8.0 L726.1,-7.6 L725.6,-6.6 L725.0,-6.0 L724.5,-5.5 L724.3,-4.6 L723.7,-3.9 L723.0,-3.4 L721.9,-3.4 L721.4,-2.8 L721.0,-2.2 L720.4,-2.3 L719.6,-1.4 L718.8,-1.0 L718.1,-0.9 L717.3,-0.9 L716.4,-1.3 L715.9,-2.0 L715.8,-3.9 L716.7,-5.0 L717.7,-5.6 L718.4,-6.1 L718.8,-7.0 L719.4,-7.7 L719.9,-8.3 L720.9,-8.9 L721.5,-9.4 L721.7,-10.2 L721.1,-11.4 Z" fill="#e7d6a3" stroke="none"/>
<path d="M695.9,-46.1 L696.5,-45.5 L697.0,-45.2 L698.3,-45.5 L699.0,-45.4 L699.2,-45.0 L699.4,-44.6 L699.7,-44.4 L700.1,-44.5 L700.8,-44.8 L701.1,-44.5 L701.6,-44.0 L702.0,-43.5 L702.0,-43.1 L701.7,-42.8 L701.2,-42.4 L700.9,-42.1 L701.0,-41.9 L701.6,-42.1 L702.6,-42.2 L703.4,-42.0 L704.2,-41.9 L705.0,-41.6 L705.9,-41.2 L706.3,-40.8 L706.6,-40.4 L706.8,-39.9 L706.9,-39.4 L707.2,-39.3 L707.8,-39.2 L708.2,-39.0 L708.3,-38.5 L708.5,-37.8 L708.8,-37.5 L709.2,-37.6 L709.6,-37.8 L710.2,-37.8 L710.6,-37.7 L711.2,-37.7 L712.0,-37.3 L712.3,-36.6 L712.5,-36.2 L712.7,-35.4 L712.7,-34.9 L712.4,-34.2 L712.4,-33.6 L712.4,-33.0 L712.3,-32.7 L712.1,-32.5 L711.4,-32.5 L711.0,-32.5 L710.6,-32.4 L710.4,-31.9 L710.6,-31.6 L711.2,-31.4 L712.0,-31.6 L712.5,-31.7 L712.8,-32.2 L713.3,-32.6 L713.6,-33.2 L713.8,-33.7 L714.1,-34.2 L714.7,-34.4 L715.2,-34.2 L715.8,-34.1 L716.2,-34.2 L716.5,-34.5 L716.1,-34.8 L715.4,-35.0 L714.9,-35.1 L714.4,-35.4 L714.1,-35.8 L713.8,-36.2 L713.3,-36.6 L713.3,-37.0 L713.4,-37.7 L713.4,-38.2 L713.1,-38.4 L712.4,-38.6 L712.1,-39.0 L712.0,-39.4 L712.0,-40.2 L712.0,-40.8 L711.9,-41.0 L711.5,-41.2 L711.2,-41.0 L711.4,-40.3 L711.3,-39.9 L710.9,-39.6 L710.4,-39.7 L710.1,-40.0 L709.7,-40.5 L709.4,-40.8 L709.3,-41.2 L708.9,-41.6 L708.5,-41.6 L707.6,-41.7 L707.0,-42.1 L706.7,-42.4 L706.1,-42.6 L705.4,-42.8 L705.0,-43.1 L704.2,-43.4 L703.8,-43.9 L703.5,-44.4 L703.1,-45.0 L702.9,-45.8 L702.6,-46.4 L701.8,-46.6 L701.6,-47.0 L701.1,-47.3 L700.8,-47.8 L700.3,-48.3 L699.7,-49.1 L698.4,-50.3 L696.7,-49.5 L695.7,-47.9 L695.9,-46.1 Z" fill="#e7d6a3" stroke="none"/>
<path d="M728.9,110.3 L728.5,109.7 L728.0,110.0 L727.8,110.0 L726.9,110.3 L726.6,110.3 L725.8,110.4 L725.4,110.5 L725.1,111.2 L724.8,111.7 L724.3,112.1 L724.1,112.4 L724.1,112.8 L724.1,113.4 L724.3,114.0 L724.6,114.4 L725.2,114.8 L726.0,114.9 L726.9,115.1 L727.8,115.6 L728.3,115.8 L728.8,116.1 L729.3,116.0 L729.5,115.6 L729.7,115.4 L730.2,115.0 L730.0,114.3 L729.7,114.2 L729.1,114.1 L728.5,113.9 L728.0,113.6 L727.8,113.3 L728.1,112.9 L728.3,112.6 L728.3,112.3 L728.2,112.0 L728.0,111.5 L727.9,111.1 L728.2,110.6 L728.9,110.3 Z" fill="#e7d6a3" stroke="none"/>
<path d="M604.4,143.2 L603.3,143.3 L602.8,143.1 L602.4,142.3 L602.1,141.5 L602.4,140.6 L602.1,140.0 L601.8,139.5 L601.3,139.1 L601.1,138.3 L600.8,137.4 L601.2,136.5 L602.2,136.0 L603.2,135.9 L603.9,136.0 L604.5,135.8 L605.2,135.3 L606.0,135.1 L606.7,135.6 L607.2,136.3 L607.3,136.9 L607.5,137.5 L607.7,138.1 L607.5,138.6 L607.1,139.2 L606.9,139.6 L606.8,140.1 L606.8,140.9 L606.8,141.7 L607.4,142.2 L607.4,142.7 L606.5,143.2 L604.4,143.2 Z" fill="#e7d6a3" stroke="none"/>
<path d="M441.6,147.2 L440.6,146.4 L439.7,146.4 L439.0,146.6 L438.9,147.3 L439.6,148.0 L439.7,148.9 L439.7,149.7 L439.5,150.3 L439.1,151.0 L438.9,151.8 L438.7,152.6 L439.1,153.0 L439.8,153.2 L439.9,154.1 L440.0,154.5 L440.3,154.8 L440.7,155.2 L441.2,155.8 L441.1,156.4 L440.6,156.8 L439.9,157.2 L439.3,157.5 L438.9,158.0 L438.7,158.7 L438.9,159.3 L439.5,159.8 L440.0,159.5 L440.7,159.2 L441.4,159.2 L441.8,159.4 L442.5,159.3 L443.0,158.8 L443.4,158.5 L444.4,158.6 L444.9,159.0 L445.1,159.8 L446.0,159.6 L446.6,159.1 L446.7,158.5 L446.8,157.8 L446.8,157.2 L446.1,156.8 L445.4,156.6 L445.0,156.2 L444.4,156.0 L444.4,155.1 L444.7,154.8 L445.2,154.3 L445.3,153.7 L445.0,153.0 L444.4,152.8 L443.6,152.7 L442.8,152.8 L442.3,152.4 L441.9,151.8 L441.8,151.1 L442.0,150.5 L442.4,149.9 L442.8,149.5 L443.2,149.3 L443.8,149.5 L444.3,149.8 L444.8,150.0 L445.5,149.8 L445.8,149.3 L446.2,148.6 L446.5,148.0 L446.6,147.6 L446.1,147.1 L445.5,147.1 L445.0,146.7 L444.6,146.3 L443.8,146.6 L443.2,146.9 L442.4,147.3 L441.6,147.2 Z" fill="#e7d6a3" stroke="none"/>
<path d="M439.0,131.1 L439.7,131.0 L440.3,130.8 L440.5,131.2 L440.6,131.9 L441.1,132.3 L441.6,132.4 L442.3,132.3 L442.8,132.9 L443.4,133.0 L444.2,133.0 L444.8,132.9 L445.4,132.8 L445.9,132.8 L446.0,133.4 L445.7,134.0 L445.6,134.7 L445.3,135.1 L445.1,135.8 L444.5,136.0 L443.6,135.9 L442.9,135.5 L442.3,135.4 L441.7,135.4 L441.2,135.8 L441.0,136.4 L441.2,136.9 L441.8,137.4 L442.1,137.9 L442.4,138.5 L442.9,139.0 L443.6,139.4 L444.0,139.8 L444.4,140.3 L444.9,140.4 L444.8,141.3 L444.5,142.3 L443.5,142.9 L442.8,142.7 L442.6,142.0 L442.4,141.2 L441.9,141.0 L441.3,140.5 L441.1,139.9 L440.8,139.2 L440.1,139.1 L439.4,139.2 L438.7,139.2 L438.0,139.3 L437.4,139.2 L437.0,138.2 L436.8,137.4 L436.7,136.6 L437.0,135.8 L437.5,135.2 L437.9,134.7 L437.5,134.2 L436.8,133.8 L436.4,133.1 L436.5,132.3 L436.9,131.7 L437.5,131.2 L438.0,131.4 L438.4,131.5 L439.0,131.1 Z" fill="#e7d6a3" stroke="none"/>
<path d="M474.7,152.1 L473.5,151.3 L473.1,150.5 L472.5,149.4 L471.8,148.8 L471.1,148.8 L470.3,149.3 L469.6,149.9 L469.7,150.7 L470.2,151.3 L470.8,152.0 L471.5,152.7 L472.0,153.5 L472.1,154.2 L472.1,155.0 L471.8,155.7 L471.3,156.0 L470.2,155.6 L469.1,154.7 L468.3,154.5 L467.4,154.6 L467.0,155.3 L467.2,156.0 L467.9,156.4 L468.5,157.2 L469.0,157.5 L469.8,157.8 L470.6,158.0 L471.5,158.5 L472.3,159.2 L473.1,159.9 L473.6,160.7 L474.0,161.4 L474.4,162.0 L474.5,162.6 L474.6,163.7 L474.5,164.5 L474.1,164.8 L473.5,165.5 L472.5,166.0 L472.1,166.5 L472.3,167.2 L472.8,168.3 L473.1,169.3 L473.6,169.8 L474.7,169.4 L475.7,168.6 L476.1,168.1 L476.1,166.6 L476.4,165.9 L477.0,165.6 L478.1,165.6 L478.6,165.9 L479.2,165.8 L479.6,165.6 L480.2,165.3 L480.2,164.8 L479.2,164.6 L478.7,164.2 L478.6,163.5 L478.8,162.5 L478.9,161.2 L477.5,161.2 L476.5,160.8 L476.3,160.0 L475.8,159.2 L475.3,158.6 L474.7,157.8 L475.0,156.8 L475.3,156.0 L475.2,155.0 L475.3,154.2 L474.4,154.0 L474.1,153.7 L473.8,152.8 L474.7,152.1 Z" fill="#e7d6a3" stroke="none"/>
<path d="M481.5,156.1 L480.2,155.4 L480.0,154.7 L479.9,153.7 L479.1,152.3 L479.7,151.0 L479.5,150.2 L479.0,149.3 L479.3,148.3 L479.2,146.9 L479.1,146.1 L478.2,145.6 L477.9,144.8 L478.1,144.0 L478.4,143.5 L479.1,143.2 L479.7,143.2 L480.0,143.8 L480.7,144.1 L482.2,143.6 L482.1,144.8 L482.4,145.3 L482.7,146.5 L483.2,147.3 L483.3,148.5 L483.7,149.1 L483.8,150.0 L483.0,150.9 L482.8,151.8 L482.9,152.7 L483.6,153.0 L484.8,153.3 L485.5,152.8 L486.2,151.7 L486.8,151.0 L487.5,150.6 L488.3,150.5 L489.3,150.8 L489.3,151.7 L488.7,152.4 L488.0,152.8 L487.6,153.8 L487.7,154.7 L488.1,155.3 L487.8,156.1 L486.6,156.3 L486.0,156.6 L485.8,157.4 L486.2,157.8 L487.2,158.6 L487.0,159.5 L485.8,159.2 L485.0,159.3 L484.6,159.8 L484.4,160.6 L484.6,161.3 L485.5,161.4 L486.5,162.0 L487.3,163.2 L486.5,163.7 L485.4,164.0 L484.4,164.0 L483.9,163.4 L483.3,162.3 L482.0,162.4 L481.5,162.2 L481.1,161.1 L480.8,160.0 L481.0,159.3 L481.8,158.8 L482.3,158.1 L482.5,157.3 L482.1,156.6 L481.5,156.1 Z" fill="#e7d6a3" stroke="none"/>
<path d="M558.6,180.4 L557.7,179.3 L556.5,179.4 L555.2,178.8 L554.5,178.3 L553.2,178.1 L553.1,179.0 L552.9,180.0 L551.9,180.6 L551.5,181.4 L552.0,182.1 L553.0,182.3 L553.4,183.4 L553.9,183.9 L554.6,184.2 L555.2,184.4 L556.1,184.1 L556.9,184.3 L557.7,184.5 L558.2,185.2 L558.1,186.1 L558.6,187.0 L559.7,186.9 L560.7,186.7 L561.5,187.3 L562.5,187.7 L563.2,187.0 L565.2,186.6 L566.5,186.8 L567.4,186.3 L567.8,185.4 L568.0,184.4 L567.5,183.7 L566.3,183.3 L565.3,182.8 L563.9,182.5 L563.3,181.9 L562.0,181.5 L561.2,181.0 L560.1,180.8 L558.6,180.4 Z" fill="#e7d6a3" stroke="none"/>
<path d="M578.7,131.9 L578.0,131.9 L577.5,131.5 L577.1,130.7 L576.4,130.1 L575.8,129.9 L575.3,130.0 L574.7,130.6 L574.3,131.3 L574.1,132.5 L574.2,133.9 L574.4,135.2 L575.0,135.8 L575.7,136.3 L576.5,136.4 L577.3,135.6 L577.9,135.9 L578.4,136.3 L578.8,136.9 L579.3,136.9 L579.9,136.7 L580.5,136.7 L581.0,137.1 L581.3,138.5 L581.2,139.6 L581.3,140.3 L581.8,141.0 L582.8,141.9 L583.3,142.2 L584.1,141.6 L584.8,141.0 L585.6,140.5 L585.6,140.0 L585.4,139.4 L585.0,138.8 L585.9,138.6 L586.3,138.0 L586.0,137.5 L585.1,137.5 L584.1,137.2 L583.0,137.2 L582.9,136.7 L583.0,135.9 L583.5,135.3 L582.6,135.2 L582.2,134.4 L582.2,133.6 L582.6,132.9 L583.4,132.4 L584.0,131.9 L584.3,131.2 L583.1,130.9 L582.2,131.1 L581.7,131.3 L581.3,131.9 L580.8,132.3 L580.2,132.2 L579.6,131.8 L578.7,131.9 Z" fill="#e7d6a3" stroke="none"/>
<path d="M591.2,130.6 L590.1,130.0 L589.6,129.1 L588.8,128.6 L588.4,128.1 L587.6,127.4 L587.1,128.0 L587.9,129.2 L588.2,130.8 L588.3,132.3 L589.0,133.0 L589.8,133.6 L590.1,134.5 L590.0,135.9 L590.2,136.6 L590.7,136.7 L591.7,136.4 L592.1,135.7 L593.0,134.2 L593.5,133.3 L593.9,132.8 L595.4,132.9 L596.5,133.1 L597.2,132.6 L597.8,132.1 L598.8,131.7 L599.9,131.6 L600.9,131.4 L602.0,130.4 L599.7,130.7 L598.3,130.9 L597.2,130.7 L596.7,129.9 L596.5,129.1 L596.7,128.3 L597.7,127.5 L599.0,126.8 L600.6,126.1 L600.4,125.1 L599.8,124.7 L598.9,124.8 L598.0,125.4 L597.4,126.2 L596.9,126.9 L596.4,127.6 L595.5,127.9 L594.8,128.2 L594.4,129.3 L593.9,130.2 L593.2,130.8 L592.0,130.8 L591.2,130.6 Z" fill="#e7d6a3" stroke="none"/>
<path d="M712.3,126.6 L710.8,125.9 L710.3,125.1 L709.9,124.2 L709.0,124.1 L708.0,124.6 L707.6,125.3 L707.4,126.2 L707.3,127.1 L706.7,127.7 L705.7,128.6 L704.8,129.5 L704.5,130.4 L704.9,131.3 L705.6,132.2 L705.7,133.3 L705.6,134.2 L705.2,134.7 L703.9,135.1 L702.9,135.4 L702.3,134.8 L701.7,134.3 L701.2,134.2 L700.7,134.9 L699.9,134.8 L699.3,134.9 L699.3,136.0 L699.0,136.3 L698.4,136.5 L697.4,136.6 L696.8,136.8 L697.3,137.6 L697.3,138.5 L696.7,139.4 L695.8,140.1 L695.2,140.7 L695.3,141.4 L695.8,141.7 L697.1,141.6 L697.8,141.4 L698.9,141.4 L699.7,142.2 L700.3,143.1 L701.6,143.0 L702.9,142.0 L704.8,140.9 L705.6,140.1 L706.6,138.7 L707.7,137.4 L708.5,136.3 L709.2,135.2 L709.9,134.7 L710.8,134.6 L711.5,134.0 L712.6,132.7 L714.4,132.0 L715.0,131.3 L715.8,131.0 L716.9,129.9 L717.9,129.7 L718.8,129.7 L719.8,129.0 L720.6,128.8 L721.6,128.6 L722.1,127.7 L722.7,127.3 L724.1,126.8 L724.7,126.2 L726.6,125.4 L726.9,124.7 L727.8,124.2 L728.6,123.5 L729.7,123.1 L730.8,121.7 L731.0,120.8 L732.3,119.9 L732.7,119.6 L731.8,119.4 L730.3,119.5 L729.3,119.6 L728.4,119.9 L728.1,120.2 L727.7,120.8 L727.3,121.9 L726.8,122.4 L725.8,123.0 L725.0,123.2 L724.4,123.8 L723.9,124.0 L723.2,124.0 L722.5,124.2 L722.0,124.5 L721.2,125.2 L720.2,125.4 L718.9,125.8 L718.1,126.4 L717.2,127.0 L716.0,127.1 L715.4,127.1 L714.7,127.7 L714.0,128.7 L713.2,129.2 L712.6,129.5 L711.7,129.5 L711.1,129.1 L710.7,129.0 L710.3,128.4 L710.6,127.7 L711.1,127.2 L711.7,127.0 L712.3,126.6 Z" fill="#e7d6a3" stroke="none"/>
<path d="M648.5,214.0 L647.8,213.2 L646.2,213.4 L645.1,214.3 L644.5,215.1 L643.9,215.7 L642.6,215.5 L641.7,214.8 L640.9,214.2 L640.4,212.5 L639.4,212.6 L639.1,212.0 L637.9,211.4 L636.9,211.7 L635.9,211.9 L635.2,211.9 L634.5,212.4 L633.8,212.5 L633.2,212.9 L632.7,213.6 L632.8,214.3 L633.0,215.3 L633.9,215.8 L635.1,215.4 L636.2,215.6 L637.4,216.4 L637.7,217.5 L637.6,218.4 L637.5,219.7 L638.3,220.4 L638.6,221.2 L637.7,221.7 L637.6,222.8 L638.5,222.5 L639.2,222.7 L639.6,223.5 L639.8,224.0 L640.4,224.8 L641.3,224.8 L642.7,224.5 L642.9,223.6 L643.0,222.7 L642.6,221.9 L642.0,221.6 L640.9,221.2 L640.1,220.8 L640.2,220.0 L640.0,219.0 L640.1,217.7 L641.1,217.7 L641.9,218.1 L642.4,219.3 L642.9,220.1 L643.4,220.4 L644.7,220.4 L645.6,220.3 L646.2,221.3 L646.3,222.1 L647.2,222.6 L647.7,223.3 L648.5,223.5 L650.3,223.7 L651.3,223.5 L652.8,224.7 L654.6,226.4 L655.6,225.4 L656.9,225.5 L656.1,224.5 L655.8,223.5 L655.8,222.2 L657.4,222.7 L658.8,223.9 L660.0,224.6 L661.9,224.9 L661.9,224.4 L661.8,223.3 L660.7,222.5 L660.3,221.6 L660.4,220.5 L661.2,220.1 L661.6,219.3 L662.7,219.3 L663.4,219.0 L663.3,218.1 L662.6,217.6 L663.0,216.7 L664.0,216.3 L664.8,215.7 L665.3,215.4 L664.5,214.3 L663.4,214.1 L662.1,213.4 L661.5,212.6 L660.9,211.7 L659.8,211.9 L659.0,212.0 L657.8,211.2 L656.6,211.5 L652.3,211.8 L650.7,214.4 L648.5,214.0 Z" fill="#e7d6a3" stroke="none"/>
<path d="M53.4,115.6 L52.0,114.9 L50.8,113.5 L50.4,111.7 L50.6,110.2 L51.3,108.9 L52.2,108.2 L53.9,108.1 L55.7,108.9 L57.3,110.2 L58.0,111.0 L58.1,112.4 L57.7,114.0 L56.7,114.9 L55.3,115.6 L53.4,115.6 Z" fill="#4f8a3e" stroke="none"/>
<path d="M91.5,130.8 L90.2,129.3 L89.4,127.3 L88.9,125.3 L89.6,122.7 L92.8,120.5 L95.3,120.2 L98.1,121.5 L98.9,122.7 L99.6,124.3 L99.8,125.9 L99.6,127.4 L98.1,129.1 L96.9,130.3 L95.5,131.2 L93.6,131.6 L91.5,130.8 Z" fill="#4f8a3e" stroke="none"/>
<path d="M106.2,128.1 L106.0,125.3 L106.7,122.8 L108.8,120.9 L110.7,120.0 L113.1,119.8 L115.5,120.6 L117.1,121.7 L118.3,123.5 L119.0,125.9 L118.6,128.3 L117.5,130.2 L116.0,131.5 L112.9,132.6 L110.4,133.1 L108.4,132.3 L106.9,130.5 L106.2,128.1 Z" fill="#4f8a3e" stroke="none"/>
<path d="M84.6,68.7 L84.3,67.4 L84.8,66.1 L85.5,64.8 L86.7,63.6 L88.5,63.2 L89.8,63.5 L90.8,64.2 L91.3,66.0 L90.0,68.1 L88.5,69.1 L87.1,69.4 L85.5,69.4 L84.6,68.7 Z" fill="#4f8a3e" stroke="none"/>
<path d="M105.1,61.5 L104.5,60.7 L104.3,59.9 L104.4,58.3 L105.4,56.7 L106.7,55.6 L108.8,54.6 L110.5,53.9 L112.7,53.9 L114.1,54.9 L114.9,56.5 L114.7,58.5 L113.9,59.7 L111.0,60.8 L108.6,61.5 L106.9,61.8 L105.1,61.5 Z" fill="#4f8a3e" stroke="none"/>
<path d="M195.9,96.3 L194.0,94.7 L192.4,91.7 L192.2,88.6 L193.8,86.1 L196.5,84.3 L199.8,84.2 L203.5,85.6 L206.2,88.3 L207.0,91.9 L206.1,94.9 L204.7,96.9 L202.5,98.0 L199.8,98.4 L197.8,97.8 L195.9,96.3 Z" fill="#4f8a3e" stroke="none"/>
<path d="M238.4,84.5 L236.5,83.4 L235.0,81.2 L234.4,78.7 L234.9,76.0 L236.3,74.5 L238.9,73.7 L241.9,74.9 L243.5,76.3 L244.5,78.2 L244.7,80.9 L243.8,83.2 L240.9,84.4 L238.4,84.5 Z" fill="#4f8a3e" stroke="none"/>
<path d="M153.0,29.6 L151.3,28.5 L150.2,26.8 L150.4,24.6 L151.7,23.2 L153.6,22.5 L157.5,21.3 L161.8,20.8 L164.7,21.2 L165.9,22.3 L166.8,24.4 L166.2,26.6 L163.0,28.5 L159.4,29.2 L155.9,29.5 L153.0,29.6 Z" fill="#4f8a3e" stroke="none"/>
<path d="M180.8,23.9 L179.5,22.2 L178.9,20.3 L179.7,18.8 L181.3,17.8 L183.4,17.1 L187.3,16.8 L190.3,17.2 L192.9,18.3 L194.7,20.1 L194.8,21.8 L193.1,23.5 L190.8,24.7 L187.3,25.7 L183.5,25.1 L180.8,23.9 Z" fill="#4f8a3e" stroke="none"/>
<path d="M241.9,39.6 L239.9,37.8 L239.6,34.2 L241.4,32.1 L244.0,30.9 L247.2,30.7 L249.0,31.2 L251.2,33.4 L252.0,36.0 L251.3,38.3 L249.5,39.7 L247.6,40.6 L244.0,40.4 L241.9,39.6 Z" fill="#4f8a3e" stroke="none"/>
<path d="M395.0,219.6 L392.6,220.2 L390.5,220.5 L388.7,220.2 L386.8,219.3 L385.3,217.6 L384.4,215.9 L384.5,214.0 L385.4,212.1 L386.5,210.9 L388.1,209.9 L390.1,209.1 L391.9,209.1 L393.6,209.4 L395.1,209.9 L396.3,210.8 L397.4,212.3 L397.8,213.8 L397.8,215.5 L397.7,216.9 L397.2,218.0 L396.3,218.8 L395.0,219.6 Z" fill="#4f8a3e" stroke="none"/>
<path d="M812.4,115.8 L810.6,113.7 L809.9,111.3 L810.0,109.5 L810.4,108.1 L811.6,106.7 L813.3,105.5 L815.3,105.1 L816.4,105.1 L817.8,105.6 L819.3,106.4 L820.6,107.7 L821.2,109.6 L821.2,111.7 L820.7,113.6 L819.3,115.6 L817.6,116.4 L814.9,116.8 L812.4,115.8 Z" fill="#4f8a3e" stroke="none"/>
<path d="M817.9,94.6 L815.6,93.3 L814.1,90.5 L814.2,87.7 L815.4,84.7 L816.7,83.1 L818.7,81.6 L821.8,81.1 L825.3,80.8 L827.7,81.4 L829.8,83.3 L830.7,85.6 L830.9,87.9 L830.7,90.1 L829.4,92.4 L827.6,93.8 L823.5,94.8 L820.6,95.0 L817.9,94.6 Z" fill="#4f8a3e" stroke="none"/>
<path d="M828.1,64.2 L824.1,64.5 L820.3,63.8 L818.5,61.9 L817.6,59.1 L818.3,55.1 L820.8,52.1 L824.7,50.4 L828.3,49.9 L831.8,50.5 L834.1,51.5 L835.6,53.1 L835.7,56.4 L833.9,60.1 L831.6,62.3 L828.1,64.2 Z" fill="#4f8a3e" stroke="none"/>
<path d="M835.6,32.3 L834.0,30.1 L833.8,27.5 L834.4,24.3 L836.1,20.3 L839.0,16.1 L841.2,14.3 L843.7,13.5 L845.6,13.9 L846.7,16.2 L846.9,19.1 L845.8,23.9 L843.8,28.0 L841.5,31.5 L838.4,32.8 L835.6,32.3 Z" fill="#4f8a3e" stroke="none"/>
<path d="M-12.6,254.8 L-13.1,255.3 L-13.2,256.6 L-12.9,258.1 L-12.3,259.2 L-11.4,260.0 L-9.7,260.4 L-8.5,260.2 L-7.6,259.5 L-6.9,258.4 L-6.5,257.1 L-6.9,256.0 L-7.5,254.8 L-8.6,254.0 L-9.7,253.7 L-11.1,253.9 L-12.1,254.4 L-12.6,254.8 Z" fill="#4f8a3e" stroke="none"/>
<path d="M401.8,40.4 L403.3,39.7 L404.0,38.6 L403.8,36.7 L402.7,35.1 L401.7,34.3 L399.5,33.6 L398.0,34.3 L396.7,36.0 L396.9,37.2 L397.4,38.4 L398.4,39.8 L400.2,40.5 L401.8,40.4 Z" fill="#4f8a3e" stroke="none"/>
<path d="M13.0,28.5 L0.6,22.2 L-2.1,17.3 L-2.3,13.7 L-0.3,9.4 L3.3,6.5 L7.8,4.4 L13.6,3.4 L17.0,3.1 L19.8,3.8 L24.1,5.5 L26.3,6.6 L28.2,8.0 L31.6,11.3 L33.2,13.5 L33.9,15.5 L34.5,17.9 L34.6,20.4 L34.2,22.5 L33.4,24.6 L32.4,26.5 L30.9,28.2 L28.2,30.5 L25.5,31.5 L22.7,31.9 L19.5,31.1 L13.0,28.5 Z" fill="#2f7825" stroke="none"/>
<path d="M-31.7,173.0 L-35.5,168.2 L-39.5,160.2 L-41.8,153.0 L-42.1,145.1 L-39.6,139.6 L-37.0,135.7 L-33.1,133.0 L-28.7,132.1 L-25.0,132.8 L-21.8,133.9 L-18.0,135.4 L-15.7,137.0 L-14.6,139.7 L-12.6,145.1 L-11.0,150.4 L-9.2,155.0 L-6.9,158.5 L-4.8,162.0 L-3.6,167.0 L-4.5,170.5 L-6.5,173.7 L-9.9,177.0 L-15.0,178.3 L-20.1,178.3 L-24.1,177.4 L-28.2,176.1 L-31.7,173.0 Z" fill="#2f7825" stroke="none"/>
<path d="M739.8,129.6 L736.6,123.4 L734.3,117.3 L733.5,111.4 L734.4,107.5 L737.1,102.9 L740.1,100.5 L744.1,99.5 L749.1,100.5 L753.8,102.0 L757.5,103.1 L761.0,104.9 L763.1,107.4 L765.0,111.7 L764.9,116.7 L763.3,123.0 L760.3,127.4 L756.5,131.7 L753.0,133.9 L749.5,134.2 L746.0,134.0 L742.3,132.7 L739.8,129.6 Z" fill="#2f7825" stroke="none"/>
<path d="M690.6,4.9 L690.2,-1.6 L689.4,-6.0 L688.3,-9.5 L687.7,-12.5 L688.1,-14.7 L689.5,-17.2 L690.5,-19.0 L691.2,-20.8 L691.5,-23.0 L692.1,-28.3 L693.0,-32.4 L694.7,-35.2 L697.6,-37.9 L700.2,-38.4 L702.5,-38.0 L704.2,-37.3 L706.2,-35.7 L707.7,-33.9 L709.1,-30.3 L710.0,-27.5 L710.6,-22.0 L711.1,-16.5 L711.8,-12.3 L711.3,-9.2 L710.4,-7.1 L709.6,-5.6 L705.4,-2.9 L701.5,0.3 L698.6,2.7 L696.2,5.0 L694.4,6.3 L692.8,6.5 L691.2,6.3 L690.6,4.9 Z" fill="#2f7825" stroke="none"/>
<path d="M53.4,110.5 L399.5,126.3 L746.6,118.4" fill="none" stroke="#ffd64a" stroke-width="3.5" stroke-linecap="round" stroke-linejoin="round" opacity="0.95"/>
</svg>