<svg xmlns="http://www.w3.org/2000/svg" viewBox="0 0 800 600" preserveAspectRatio="xMidYMid slice">
<rect width="100%" height="100%" fill="#143018"/>
<path d="M223.0,583.7 L223.8,584.6 L225.0,594.5 L224.1,595.8 L210.6,596.0 L199.7,597.9 L189.1,602.3 L174.9,602.8 L163.7,604.2 L160.9,601.8 L160.3,598.3 L161.6,594.2 L165.7,590.5 L167.9,590.1 L172.4,590.1 L178.2,591.7 L182.9,592.3 L188.8,590.9 L194.4,587.0 L199.4,582.4 L202.7,579.5 L204.3,578.9 L208.9,580.2 L212.1,581.6 L217.6,582.7 L223.0,583.7 Z" fill="#0f2810" stroke="none"/>
<path d="M585.2,533.4 L584.5,569.5 L572.7,571.1 L553.9,559.6 L544.1,551.0 L537.4,549.4 L525.6,561.5 L508.3,574.2 L499.1,575.3 L491.6,573.4 L473.2,576.1 L472.5,571.3 L486.7,560.1 L498.1,558.1 L505.5,545.9 L521.9,535.4 L535.2,528.6 L563.7,529.4 L585.2,533.4 Z" fill="#0f2810" stroke="none"/>
<path d="M290.1,594.3 L285.5,599.4 L288.8,606.5 L296.0,608.2 L305.2,603.6 L313.2,594.7 L322.4,589.3 L332.9,588.9 L343.4,585.1 L348.4,576.3 L342.9,569.6 L335.0,567.5 L324.5,566.6 L314.8,565.4 L307.7,568.3 L301.0,577.1 L300.2,585.1 L296.4,590.1 L290.1,594.3 Z" fill="#0f2810" stroke="none"/>
<path d="M374.2,568.7 L367.0,572.3 L364.0,578.1 L364.5,583.9 L370.1,588.9 L382.0,589.7 L393.3,591.1 L409.3,596.4 L423.7,595.0 L435.3,592.2 L442.3,587.0 L445.6,579.8 L444.5,574.2 L436.7,576.2 L427.6,580.9 L416.0,580.9 L405.2,580.3 L393.3,575.3 L385.5,570.1 L374.2,568.7 Z" fill="#0f2810" stroke="none"/>
<path d="M143.1,550.1 L141.2,548.7 L138.4,551.5 L132.9,557.5 L132.0,561.1 L134.3,568.1 L137.1,573.4 L141.4,577.0 L144.2,581.1 L145.1,591.4 L152.9,590.8 L152.1,581.2 L148.2,568.4 L145.0,559.5 L143.1,550.1 Z" fill="#2b5a2a" stroke="none"/>
<path d="M145.2,594.1 L153.3,592.5 L152.9,599.5 L152.2,604.8 L150.6,608.2 L148.3,610.5 L146.6,609.8 L145.6,602.3 L145.2,594.1 Z" fill="#2b5a2a" stroke="none"/>
<path d="M691.2,578.6 L773.3,618.0 L789.1,675.7 L761.9,682.1 L746.4,688.9 L730.6,705.5 L710.3,711.8 L702.6,717.4 L691.2,680.0 L680.3,658.4 L688.1,626.4 L682.6,601.0 L681.5,580.9 L691.2,578.6 Z" fill="#2b5a2a" stroke="none"/>
<path d="M461.0,497.5 L457.4,524.4 L466.7,524.3 L472.8,524.0 L481.9,523.1 L488.4,522.3 L492.5,522.0 L493.9,521.7 L495.8,515.9 L498.5,507.2 L499.4,505.3 L497.1,506.1 L493.3,508.7 L489.5,510.3 L483.6,511.7 L479.0,512.1 L474.4,512.1 L470.7,510.0 L466.7,506.3 L464.1,503.4 L462.3,498.5 L461.0,497.5 Z" fill="#2b5a2a" stroke="none"/>
<path d="M453.8,551.2 L453.9,539.7 L469.6,538.1 L489.6,536.2 L487.1,547.3 L485.4,554.4 L484.7,553.0 L484.2,550.4 L482.2,547.9 L478.5,545.6 L475.2,544.4 L473.0,543.8 L470.6,543.4 L466.3,543.4 L461.9,543.7 L459.5,544.4 L458.0,545.3 L456.2,546.8 L455.2,549.1 L454.3,553.1 L453.8,551.2 Z" fill="#2b5a2a" stroke="none"/>
<path d="M57.6,88.1 L57.3,109.6 L57.1,119.4 L56.9,132.4 L56.3,147.2 L55.9,161.0 L55.9,169.0 L55.8,176.1 L55.3,185.1 L55.3,191.2 L55.9,199.1 L56.7,206.7 L57.1,212.5 L57.3,218.7 L57.5,225.8 L57.7,232.6 L57.8,239.4 L57.8,244.2 L57.8,249.0 L57.6,253.7 L57.5,258.4 L57.5,261.1 L57.3,265.1 L57.3,269.6 L57.3,274.6 L57.2,279.0 L57.1,283.2 L57.1,286.7 L57.2,291.3 L57.2,296.3 L57.4,304.8 L57.4,309.9 L57.3,314.3 L57.1,319.8 L56.9,324.9 L56.8,329.1 L56.6,333.9 L56.7,336.1 L56.9,340.1 L56.8,344.6 L56.9,348.7 L56.8,353.4 L56.9,359.3 L56.7,366.1 L56.7,369.9 L56.8,374.0 L56.6,378.6 L56.5,382.7 L56.3,386.2 L56.2,389.9 L56.2,393.6 L56.1,397.2 L55.8,400.9 L55.6,404.0 L55.3,407.5 L55.4,410.9 L55.5,414.2 L55.5,419.3 L56.0,422.3 L56.5,424.0 L57.7,426.3 L59.8,429.0 L61.7,431.0 L63.0,432.5 L64.8,434.1 L67.6,436.5 L69.4,437.8 L70.8,438.6 L72.8,439.4 L74.9,440.1 L77.1,440.5 L78.7,440.5 L80.3,440.0 L82.7,439.1 L85.5,437.6 L87.7,436.4 L90.5,434.3 L93.0,431.8 L94.5,429.7 L95.6,427.5 L97.3,424.1 L98.6,419.5 L99.1,415.4 L99.6,409.1 L101.0,389.0 L101.0,385.9 L100.8,375.1 L100.1,368.1 L100.1,363.2 L100.4,360.8 L101.1,358.5 L102.2,356.1 L103.8,352.4 L104.5,349.7 L105.1,346.7 L105.4,343.8 L106.0,340.2 L107.9,332.9 L108.4,330.3 L108.7,328.1 L108.8,326.5 L109.0,323.9 L109.0,321.9 L108.5,319.5 L108.0,316.8 L107.8,314.3 L107.7,311.8 L107.7,309.5 L108.0,306.4 L108.7,304.1 L109.2,302.2 L109.5,300.1 L109.8,297.9 L110.3,295.3 L110.6,292.3 L110.8,290.0 L111.1,288.0 L111.5,284.7 L111.9,281.7 L112.4,278.9 L113.3,276.3 L114.5,273.3 L115.4,271.6 L116.4,270.3 L117.9,268.5 L119.7,267.1 L121.2,266.3 L122.8,265.7 L124.3,265.3 L125.6,265.0 L127.0,264.8 L128.3,264.8 L129.6,264.8 L130.8,265.0 L132.0,265.1 L133.6,265.7 L134.8,266.4 L136.3,267.5 L137.5,268.6 L138.7,269.7 L140.0,271.6 L141.7,273.6 L143.2,276.3 L144.1,278.6 L144.8,281.7 L145.6,284.9 L146.1,287.3 L146.7,290.3 L147.4,293.6 L148.1,297.2 L148.7,300.3 L149.1,302.3 L149.4,304.1 L150.0,306.3 L150.5,309.5 L150.9,312.0 L151.3,315.6 L151.4,319.1 L151.5,321.9 L151.6,324.9 L151.6,328.1 L151.9,330.2 L152.1,332.5 L152.3,335.0 L152.5,337.2 L152.8,339.2 L153.3,342.1 L154.0,345.5 L154.5,348.1 L155.2,350.9 L155.5,353.7 L155.7,356.3 L155.7,359.4 L155.4,361.8 L154.9,365.6 L154.5,368.5 L154.2,371.8 L154.2,373.8 L154.0,376.4 L153.9,379.3 L153.8,383.0 L153.8,386.0 L153.7,388.4 L153.7,390.5 L153.6,393.4 L153.6,396.1 L153.5,398.9 L153.5,401.5 L153.5,404.4 L153.8,408.0 L153.8,410.4 L154.1,412.8 L154.6,415.1 L155.2,416.7 L156.4,419.1 L157.3,421.1 L158.4,422.7 L159.8,424.5 L161.3,426.0 L163.5,427.3 L166.0,428.3 L170.6,429.8 L175.0,430.6 L181.2,430.9 L183.0,430.5 L184.7,429.7 L186.6,428.3 L188.7,426.2 L190.8,421.0 L191.8,415.2 L192.2,408.0 L192.5,397.1 L192.3,379.9 L194.4,373.9 L197.4,367.5 L198.3,364.2 L197.9,351.9 L195.7,331.9 L192.5,311.6 L190.9,294.6 L188.0,281.4 L181.7,265.6 L176.4,256.5 L174.9,252.5 L170.1,232.4 L165.2,213.7 L160.2,195.2 L158.6,189.9 L157.7,185.7 L156.1,178.3 L155.3,173.7 L152.5,163.5 L150.6,159.6 L149.3,157.6 L147.9,154.0 L146.9,149.5 L136.6,155.0 L130.4,152.7 L126.4,146.5 L125.6,136.1 L121.9,119.6 L118.4,114.1 L114.5,108.8 L107.5,103.4 L104.0,100.7 L95.7,96.2 L91.0,93.6 L87.3,92.6 L85.9,92.2 L74.9,89.5 L57.6,88.1 Z" fill="#5a9540" stroke="none"/>
<path d="M79.2,466.0 L77.4,465.0 L75.7,464.2 L73.9,463.3 L72.0,462.3 L70.2,461.9 L68.1,462.0 L66.4,462.6 L64.9,463.6 L63.9,465.1 L63.4,466.4 L63.0,467.8 L63.3,469.9 L63.5,471.7 L63.7,473.2 L64.0,474.8 L64.3,476.3 L64.5,478.0 L64.7,479.4 L65.1,482.6 L65.6,485.7 L66.1,488.5 L66.5,492.0 L66.8,494.0 L67.3,497.3 L68.1,501.5 L68.8,505.6 L69.6,508.9 L70.3,512.1 L70.9,514.7 L71.5,517.7 L72.0,520.5 L73.0,523.0 L74.1,525.2 L75.7,526.5 L77.4,527.0 L79.5,527.1 L82.0,527.0 L84.4,527.2 L87.6,527.3 L90.4,527.3 L92.8,527.4 L95.0,527.5 L97.7,527.7 L100.5,527.6 L102.7,527.0 L104.5,526.6 L105.9,526.0 L107.4,524.9 L108.7,523.7 L109.3,522.9 L109.4,520.7 L108.7,518.8 L108.1,516.2 L108.0,514.1 L107.7,511.9 L107.2,509.5 L106.9,507.3 L106.6,504.2 L105.9,500.4 L105.5,497.4 L105.2,495.0 L104.8,493.0 L104.4,490.0 L103.8,486.7 L103.3,483.3 L102.7,480.7 L102.3,477.7 L102.0,475.1 L101.8,472.5 L101.3,469.4 L100.5,467.8 L99.3,466.8 L98.2,466.4 L96.6,466.1 L95.2,466.4 L93.4,466.8 L91.7,467.2 L90.2,467.4 L88.2,467.4 L85.9,467.3 L84.3,467.1 L82.4,467.0 L80.8,466.4 L79.2,466.0 Z" fill="#5a9540" stroke="none"/>
<path d="M179.3,471.3 L178.5,470.7 L177.4,469.7 L175.6,468.5 L174.1,467.4 L172.6,466.4 L171.1,465.3 L169.4,464.1 L168.1,463.5 L167.0,463.2 L164.8,463.2 L163.1,463.5 L161.6,464.1 L160.7,464.7 L159.5,465.5 L158.9,466.8 L158.3,468.5 L157.9,470.2 L157.6,472.9 L157.5,475.3 L157.6,478.3 L157.6,480.6 L157.5,483.4 L157.6,486.8 L157.8,491.8 L157.9,497.8 L158.1,503.1 L158.3,508.6 L158.3,513.1 L158.4,516.6 L158.4,519.4 L158.5,522.1 L158.5,523.3 L159.1,524.2 L159.8,524.7 L160.3,525.3 L161.9,525.3 L163.4,525.4 L164.9,525.3 L166.7,525.2 L168.4,525.2 L170.6,525.3 L172.2,525.4 L173.9,525.6 L175.6,525.6 L177.0,525.8 L178.7,526.0 L180.6,526.5 L182.4,526.7 L183.7,526.5 L184.9,526.1 L185.6,525.2 L186.2,523.6 L186.3,521.5 L186.4,519.1 L186.3,516.2 L186.4,512.6 L186.6,508.8 L186.7,503.7 L186.8,499.2 L187.0,494.1 L187.2,489.4 L187.3,485.6 L187.3,483.6 L187.2,482.1 L186.6,480.5 L185.1,477.9 L184.3,476.6 L183.0,475.1 L181.6,473.6 L180.4,472.5 L179.3,471.3 Z" fill="#5a9540" stroke="none"/>
<path d="M213.8,876.4 L220.1,876.3 L224.0,875.8 L228.2,872.9 L231.4,868.4 L233.0,858.4 L235.1,845.5 L237.5,829.1 L240.4,813.3 L244.2,795.2 L249.4,775.0 L252.9,761.7 L253.1,756.8 L251.4,751.0 L250.6,743.2 L252.1,735.7 L256.2,724.7 L257.4,720.3 L255.8,714.5 L254.0,708.7 L253.2,700.9 L253.2,697.3 L256.5,684.0 L258.1,670.5 L259.5,652.9 L260.9,639.2 L262.5,622.4 L264.3,606.0 L264.9,602.0 L269.1,590.8 L271.9,582.5 L271.8,575.8 L269.0,570.0 L265.3,565.7 L260.2,563.2 L256.3,562.7 L251.9,563.8 L247.6,565.8 L244.7,569.4 L243.5,572.9 L243.7,579.4 L245.8,585.9 L246.2,590.3 L245.0,600.6 L243.0,611.1 L240.8,621.4 L239.3,626.7 L237.4,631.9 L236.6,637.1 L233.9,643.6 L233.0,651.4 L231.9,661.7 L230.7,671.0 L228.3,677.5 L224.0,682.9 L217.4,686.3 L210.3,690.2 L204.3,696.3 L200.5,703.1 L199.0,711.7 L199.1,720.0 L199.3,727.9 L202.2,736.5 L206.6,747.6 L210.2,757.5 L212.2,765.4 L211.9,775.3 L209.2,781.7 L203.5,787.9 L201.7,792.0 L202.5,805.9 L202.7,820.9 L202.7,839.0 L202.4,854.6 L202.6,865.9 L204.2,871.6 L207.1,874.1 L210.5,876.0 L213.8,876.4 Z" fill="#5a9540" stroke="none"/>
<path d="M467.8,569.7 L474.7,564.3 L483.3,558.0 L485.1,554.8 L485.0,551.3 L483.3,548.2 L480.1,545.8 L474.2,543.6 L469.4,542.9 L462.7,543.1 L458.6,544.2 L455.3,547.2 L454.1,551.6 L454.9,566.9 L454.7,574.1 L452.5,582.1 L450.3,586.3 L443.4,596.1 L434.7,606.8 L428.9,614.2 L426.1,620.1 L423.2,630.5 L420.4,641.5 L416.9,653.5 L411.8,667.1 L406.4,680.2 L400.8,692.4 L396.3,702.8 L393.4,708.8 L390.5,716.2 L387.3,721.8 L383.6,726.8 L382.2,741.0 L380.6,753.9 L377.7,769.1 L376.5,778.9 L376.6,782.1 L379.3,785.9 L385.5,788.5 L391.3,789.4 L397.7,789.1 L403.2,787.5 L404.8,785.7 L409.5,774.3 L415.2,762.2 L420.9,751.1 L427.2,741.2 L431.8,730.0 L436.1,716.7 L441.7,699.6 L446.4,684.3 L451.3,667.7 L456.9,649.1 L460.3,636.5 L460.1,629.1 L462.0,626.9 L463.8,624.9 L464.1,622.9 L462.7,617.7 L462.5,607.4 L462.7,604.8 L465.0,599.9 L469.2,594.1 L469.5,591.5 L468.8,587.8 L465.4,580.7 L464.5,575.8 L465.5,572.4 L467.8,569.7 Z" fill="#5a9540" stroke="none"/>
<path d="M628.7,492.3 L628.6,494.2 L628.3,496.1 L627.4,497.7 L626.0,498.9 L623.8,499.7 L620.9,500.3 L618.1,500.5 L615.7,500.0 L612.7,498.8 L611.4,497.7 L609.7,496.1 L608.3,494.8 L609.1,497.4 L609.5,499.5 L609.0,503.2 L608.6,505.0 L609.6,508.0 L610.1,509.6 L609.9,512.6 L609.5,515.1 L612.5,521.7 L613.9,523.8 L616.8,525.5 L619.3,526.8 L621.4,529.6 L622.8,532.3 L623.7,536.5 L624.4,546.0 L625.0,559.9 L625.3,577.5 L625.2,584.1 L625.9,589.4 L627.8,595.0 L630.6,602.2 L632.1,606.6 L633.4,614.2 L633.7,622.8 L633.0,638.6 L632.1,658.7 L630.4,683.3 L629.7,696.0 L629.4,705.5 L629.2,711.3 L628.9,718.7 L629.6,721.0 L631.0,722.3 L632.8,723.5 L635.3,724.5 L639.3,728.3 L641.1,732.3 L641.6,737.0 L640.8,740.7 L637.1,744.4 L633.7,746.5 L630.4,750.0 L628.7,751.5 L626.1,752.3 L622.5,752.8 L619.6,755.4 L615.1,766.8 L607.3,791.8 L602.8,805.4 L598.2,813.7 L588.2,826.0 L582.4,833.8 L579.8,839.4 L579.7,844.3 L580.7,848.3 L582.8,852.0 L587.3,855.6 L592.4,858.3 L598.7,860.3 L603.7,860.7 L610.5,858.1 L618.1,851.7 L633.1,832.0 L646.8,813.2 L658.4,792.2 L670.3,766.6 L676.6,752.2 L678.4,741.6 L679.1,731.0 L679.0,728.0 L676.2,720.8 L672.1,712.1 L670.0,706.5 L667.7,694.3 L665.1,679.2 L662.6,663.9 L660.9,648.9 L661.4,636.3 L661.8,630.9 L660.9,626.4 L658.4,619.2 L652.9,608.5 L644.0,596.8 L638.9,586.0 L639.0,581.0 L641.1,577.0 L644.8,572.5 L649.8,568.3 L652.5,563.4 L653.2,557.4 L652.0,543.2 L650.7,536.9 L647.1,530.3 L642.3,522.0 L638.5,513.3 L634.1,509.0 L631.1,504.0 L630.0,497.8 L628.7,492.3 Z" fill="#5a9540" stroke="none"/>
<path d="M814.3,372.5 L812.1,375.9 L811.8,378.7 L811.9,382.7 L812.1,384.0 L814.3,386.0 L816.3,387.2 L818.4,387.7 L820.0,387.4 L822.0,388.4 L824.0,391.5 L824.6,394.5 L824.5,398.9 L822.6,412.1 L821.9,416.7 L821.1,418.3 L819.3,419.8 L818.0,420.5 L816.3,420.5 L813.3,420.3 L811.8,420.3 L810.2,420.9 L809.3,422.3 L806.5,427.5 L805.6,429.7 L805.4,432.0 L805.6,433.2 L807.5,436.8 L809.1,438.1 L810.9,438.7 L813.2,438.5 L816.1,437.9 L818.6,438.0 L821.0,438.9 L822.7,441.4 L822.8,444.2 L822.8,450.4 L823.5,455.0 L823.8,464.7 L823.8,473.7 L823.6,475.6 L822.8,476.8 L821.8,477.6 L820.6,477.9 L817.3,478.2 L814.5,479.4 L812.6,481.9 L812.1,485.0 L812.7,489.5 L814.1,495.5 L815.9,497.1 L817.5,498.0 L819.7,498.4 L822.9,498.2 L825.2,498.6 L826.9,500.2 L827.6,503.4 L828.5,513.8 L829.3,519.3 L830.0,532.1 L831.1,541.3 L833.2,554.7 L834.4,565.2 L835.0,572.1 L835.9,582.6 L837.0,592.2 L837.9,599.3 L837.1,601.9 L834.9,603.5 L832.2,604.2 L827.8,604.8 L819.8,604.9 L809.2,605.6 L806.0,605.7 L803.7,604.6 L801.7,601.6 L800.8,597.8 L798.5,584.1 L795.2,567.4 L790.3,551.2 L783.1,532.9 L773.9,512.2 L772.2,508.3 L771.9,505.1 L772.6,502.3 L773.5,499.2 L775.0,496.0 L777.0,491.8 L777.9,487.9 L776.5,484.4 L773.4,480.3 L773.9,477.5 L780.2,463.4 L784.0,455.8 L785.6,451.6 L785.8,448.3 L783.3,434.5 L782.8,425.0 L786.5,416.5 L790.5,412.3 L794.1,410.5 L798.4,409.0 L800.6,407.0 L800.9,403.6 L798.9,396.0 L796.9,394.1 L793.4,392.8 L785.4,383.7 L785.2,382.0 L786.3,379.7 L790.3,373.2 L792.1,369.9 L794.1,364.9 L794.1,368.5 L794.8,370.8 L796.5,372.4 L799.4,373.7 L801.8,374.3 L804.5,374.8 L807.4,374.8 L810.6,374.6 L812.3,373.8 L814.3,372.5 Z" fill="#5a9540" stroke="none"/>
<path d="M109.7,571.1 L109.0,568.7 L108.3,567.2 L108.5,565.5 L109.0,564.1 L109.4,562.8 L111.8,558.6 L113.9,554.8 L113.9,554.0 L113.1,552.9 L111.9,552.0 L110.6,551.4 L108.6,550.8 L106.2,550.2 L102.9,549.6 L100.2,549.2 L95.1,548.4 L90.7,547.6 L88.2,547.2 L87.3,547.1 L86.1,547.5 L84.2,548.1 L81.7,549.2 L78.8,550.9 L77.4,552.1 L76.5,553.3 L76.1,554.7 L75.8,556.2 L76.1,557.3 L76.9,558.0 L77.7,558.1 L79.5,557.7 L81.4,557.4 L83.6,557.6 L85.7,558.3 L87.1,559.6 L87.6,560.8 L87.1,563.1 L86.5,565.0 L85.9,566.3 L85.6,567.1 L85.0,570.3 L85.8,568.6 L87.1,566.8 L89.6,566.0 L92.3,565.5 L95.0,565.6 L99.1,565.9 L103.1,567.1 L106.3,568.1 L108.5,569.9 L109.7,571.1 Z" fill="#5a9540" stroke="none"/>
<path d="M273.4,402.4 L272.8,404.2 L272.1,405.0 L270.7,406.0 L268.3,407.2 L266.3,407.8 L264.3,408.0 L262.2,408.2 L260.6,408.1 L259.3,407.7 L257.9,407.2 L256.5,406.2 L255.7,403.8 L255.6,407.3 L255.8,410.0 L255.3,413.4 L254.8,416.5 L254.7,419.6 L255.0,421.3 L256.8,423.3 L259.1,425.3 L260.8,426.8 L262.3,428.4 L262.8,430.6 L262.7,434.1 L261.2,442.8 L259.7,448.5 L259.5,454.3 L259.3,458.8 L259.8,460.2 L260.5,461.4 L263.3,461.8 L267.7,461.8 L279.3,461.6 L284.5,461.7 L286.3,461.3 L287.3,460.3 L287.7,459.4 L290.5,443.8 L290.9,439.3 L289.8,437.1 L288.1,435.2 L285.7,432.9 L284.5,431.4 L284.0,429.0 L283.4,418.6 L282.6,417.3 L281.6,416.4 L279.5,415.6 L277.4,414.1 L275.2,411.4 L273.7,407.9 L273.3,405.3 L273.4,402.4 Z" fill="#5a9540" stroke="none"/>
<path d="M243.1,484.5 L285.3,483.5 L279.6,540.8 L243.7,542.3 L243.1,484.5 Z" fill="#5a9540" stroke="none"/>
<path d="M107.9,395.3 L107.3,395.3 L106.5,395.2 L105.4,395.6 L104.9,396.3 L104.4,397.0 L104.2,398.0 L104.1,398.9 L104.1,399.7 L104.0,400.3 L104.1,400.9 L104.1,401.5 L104.1,401.9 L104.2,402.3 L104.4,402.7 L104.6,403.2 L104.7,403.5 L104.8,403.9 L104.9,404.5 L104.8,405.4 L104.8,406.3 L104.8,407.2 L105.0,407.9 L105.0,408.6 L105.1,409.2 L105.2,409.8 L105.1,410.7 L105.0,411.4 L104.8,412.1 L104.6,412.7 L104.4,413.3 L104.2,414.0 L104.0,414.5 L103.7,414.9 L103.5,415.6 L103.4,416.3 L103.4,417.0 L103.2,417.6 L103.1,418.2 L102.9,418.7 L102.7,419.3 L102.4,419.9 L102.3,420.4 L102.1,421.0 L101.9,421.8 L101.7,422.4 L101.6,423.0 L101.5,423.6 L101.7,424.0 L101.8,424.5 L102.1,424.8 L102.5,425.2 L102.8,425.5 L103.2,425.7 L103.6,425.9 L104.1,426.0 L104.6,426.1 L105.0,426.1 L105.4,426.2 L105.9,426.1 L106.2,426.0 L106.7,425.9 L107.0,425.6 L107.2,425.4 L107.4,425.1 L107.7,424.7 L107.9,424.4 L108.2,424.0 L108.5,423.6 L108.8,423.4 L109.2,423.2 L109.5,423.1 L110.1,422.9 L110.4,422.8 L110.8,422.6 L111.0,422.5 L111.3,422.3 L111.5,422.2 L111.7,422.0 L111.9,421.7 L112.1,421.4 L112.3,420.8 L112.4,420.7 L112.7,420.4 L112.9,420.2 L113.0,419.9 L113.0,419.5 L113.1,418.9 L113.1,418.5 L113.1,417.9 L113.1,417.6 L113.1,417.2 L113.3,417.0 L113.4,416.7 L113.6,416.5 L113.8,416.3 L114.1,416.0 L114.3,415.8 L114.6,415.5 L114.8,415.2 L115.0,415.0 L115.2,414.7 L115.3,414.4 L115.3,414.1 L115.3,413.7 L115.5,413.2 L115.5,412.7 L115.5,412.2 L115.5,411.7 L115.4,411.3 L115.4,410.9 L115.4,410.4 L115.3,409.8 L115.3,409.4 L115.3,408.9 L115.3,408.4 L115.2,407.7 L115.1,407.2 L114.8,406.8 L114.6,406.4 L114.4,405.9 L114.2,405.3 L114.0,404.8 L113.8,404.4 L113.7,403.9 L113.7,403.6 L113.7,403.1 L113.8,402.7 L113.8,401.9 L113.8,401.2 L113.8,400.6 L113.7,399.9 L113.6,399.3 L113.6,398.9 L113.5,398.3 L113.3,397.9 L113.0,397.3 L112.8,396.9 L112.4,396.5 L111.9,396.2 L111.3,396.0 L110.2,395.6 L109.6,395.5 L109.0,395.4 L108.5,395.3 L107.9,395.3 Z" fill="#e7d6a3" stroke="none"/>
<path d="M146.7,382.1 L145.8,381.9 L144.8,382.1 L144.2,382.1 L143.6,382.3 L142.9,382.5 L142.4,382.8 L142.1,383.2 L142.0,383.6 L141.7,384.1 L141.5,384.5 L141.2,385.1 L141.0,385.7 L140.7,386.1 L140.3,386.5 L140.0,387.3 L139.7,388.1 L139.5,388.9 L139.3,389.6 L139.2,390.4 L138.9,390.9 L138.5,391.6 L138.1,392.0 L137.6,392.4 L137.2,392.8 L136.6,393.3 L136.2,393.7 L135.5,394.2 L134.9,394.6 L134.4,395.0 L133.9,395.4 L133.3,395.9 L133.0,396.6 L133.0,397.3 L133.0,398.2 L133.1,398.8 L133.2,399.4 L133.6,400.1 L134.0,400.6 L134.3,400.9 L134.8,401.3 L135.2,401.9 L135.6,402.3 L136.0,402.8 L136.2,403.4 L136.5,403.9 L136.7,404.3 L137.1,404.7 L137.6,405.0 L138.2,405.1 L138.7,405.1 L139.2,405.2 L139.7,405.1 L140.2,404.9 L140.6,404.5 L141.0,404.2 L141.8,403.8 L142.4,403.6 L142.8,403.5 L143.3,403.6 L143.8,403.7 L144.2,403.8 L144.7,403.8 L145.1,403.7 L145.5,403.5 L145.9,403.4 L146.3,403.1 L146.6,402.7 L146.8,402.3 L147.1,401.9 L147.2,401.6 L147.3,401.1 L147.4,400.8 L147.5,400.4 L147.4,400.0 L147.5,399.6 L147.6,399.2 L147.5,398.9 L147.4,398.4 L147.3,397.9 L147.2,397.4 L147.2,397.1 L147.2,396.7 L147.1,396.2 L147.1,395.6 L147.1,395.1 L147.2,394.6 L147.3,393.8 L147.6,393.3 L147.9,392.7 L148.4,392.0 L148.6,391.3 L148.8,390.6 L148.9,390.3 L149.0,389.6 L149.1,389.1 L149.1,388.5 L149.1,388.2 L149.2,387.8 L149.2,387.3 L149.2,386.8 L149.2,386.4 L149.2,385.9 L149.2,385.4 L149.2,384.9 L149.2,384.3 L149.2,383.9 L149.0,383.4 L148.8,383.2 L148.5,382.8 L148.2,382.5 L147.9,382.4 L147.6,382.3 L147.2,382.1 L146.7,382.1 Z" fill="#e7d6a3" stroke="none"/>
<path d="M131.0,327.4 L130.5,327.4 L129.6,327.1 L128.7,326.5 L127.9,326.0 L127.3,325.6 L126.6,325.6 L125.8,325.3 L124.9,325.1 L124.1,325.2 L123.6,325.5 L122.6,325.9 L122.0,326.1 L121.7,326.8 L121.5,327.5 L121.2,328.3 L120.7,329.0 L120.6,329.5 L120.3,330.2 L119.8,330.7 L119.5,331.3 L119.2,332.1 L118.9,332.9 L118.7,333.9 L118.3,334.5 L118.0,335.1 L117.5,335.7 L117.0,336.1 L116.5,336.6 L116.1,337.1 L115.4,337.6 L115.0,338.0 L114.5,338.5 L114.0,338.8 L113.6,339.3 L113.3,339.6 L113.2,340.0 L112.8,340.4 L112.7,340.9 L112.5,341.4 L112.4,341.9 L112.2,342.4 L112.1,343.0 L112.0,343.4 L112.1,343.9 L112.3,344.4 L112.7,345.0 L113.1,345.6 L113.8,346.0 L114.3,346.3 L114.7,346.4 L115.2,346.5 L115.8,346.5 L116.3,346.5 L116.9,346.5 L117.4,346.7 L117.9,346.6 L118.5,346.4 L118.9,346.3 L119.3,346.1 L119.7,345.9 L120.0,346.0 L120.6,345.9 L120.9,345.8 L121.4,345.9 L121.9,346.1 L122.2,346.2 L122.6,346.4 L123.1,346.5 L123.5,346.8 L123.9,346.9 L124.3,346.8 L124.6,346.9 L124.9,347.0 L125.1,346.9 L125.5,346.5 L125.9,346.0 L126.2,345.7 L126.7,345.4 L127.1,345.1 L127.5,344.8 L127.9,344.5 L128.3,344.3 L128.7,344.1 L129.0,343.8 L129.4,343.6 L129.7,343.6 L130.2,343.5 L130.4,343.6 L130.8,343.5 L131.0,343.2 L131.2,343.0 L131.5,342.9 L131.9,342.8 L132.3,342.7 L132.8,342.9 L133.2,343.0 L133.6,343.0 L134.0,343.0 L134.6,343.0 L135.1,343.0 L135.6,343.0 L136.1,343.0 L136.6,342.9 L137.1,342.8 L137.4,342.7 L137.8,342.7 L138.1,342.5 L138.4,342.2 L138.7,341.9 L138.8,341.5 L138.8,341.1 L138.9,340.8 L139.0,340.2 L139.0,340.0 L139.2,339.6 L139.4,339.2 L139.4,338.7 L139.7,337.8 L139.7,337.3 L139.6,336.9 L139.7,336.5 L139.7,336.0 L139.7,335.5 L139.6,335.1 L139.4,334.8 L139.3,334.6 L139.1,334.2 L138.8,334.0 L138.6,333.6 L138.3,333.3 L138.0,333.1 L137.6,332.8 L137.2,332.5 L136.9,332.2 L136.6,331.7 L136.5,331.4 L136.3,331.1 L136.1,330.7 L136.0,330.5 L135.5,330.1 L135.2,329.7 L134.8,329.4 L134.4,329.1 L133.9,328.8 L133.5,328.6 L133.0,328.3 L132.6,328.1 L132.1,327.9 L131.7,327.7 L131.3,327.5 L131.0,327.4 Z" fill="#e7d6a3" stroke="none"/>
<path d="M115.2,357.9 L114.7,357.6 L114.3,357.4 L113.9,357.0 L113.5,356.8 L113.0,356.5 L112.4,356.2 L112.2,356.2 L111.8,356.1 L111.3,355.7 L110.9,355.6 L110.2,355.5 L109.8,355.4 L109.4,355.4 L108.9,355.6 L108.5,355.8 L108.0,356.0 L107.5,356.3 L107.1,356.5 L106.7,356.9 L106.4,357.3 L106.1,357.6 L105.8,358.1 L105.6,358.7 L105.4,359.2 L105.3,359.7 L105.4,360.4 L105.5,361.0 L105.6,361.5 L105.7,362.0 L105.9,362.6 L106.0,363.3 L106.0,363.9 L106.0,364.7 L106.0,365.2 L106.0,365.8 L106.1,366.3 L106.4,366.8 L106.7,367.2 L107.3,367.5 L107.8,367.7 L108.4,368.0 L109.0,368.2 L109.6,368.5 L110.3,368.7 L111.0,368.9 L111.6,369.2 L112.1,369.6 L112.6,370.1 L113.0,370.4 L113.4,371.0 L113.7,371.6 L113.9,372.0 L114.3,372.5 L114.6,373.0 L115.1,373.6 L115.5,374.1 L115.9,374.6 L116.5,375.3 L117.0,375.6 L117.4,375.8 L117.9,376.0 L118.7,376.0 L119.7,375.9 L120.3,375.7 L120.9,375.5 L121.3,375.2 L121.9,374.9 L122.7,374.3 L123.3,373.8 L123.9,373.2 L124.2,372.5 L124.4,371.9 L124.8,371.4 L125.0,370.7 L125.4,370.4 L126.0,369.9 L126.3,369.4 L126.7,368.9 L127.3,368.3 L127.6,367.9 L128.1,367.4 L128.5,367.0 L128.9,366.4 L129.2,365.9 L129.6,365.4 L129.9,365.0 L130.5,364.1 L130.9,363.7 L131.4,363.4 L132.0,363.2 L132.6,363.3 L133.3,363.5 L133.7,363.8 L134.5,364.1 L135.5,364.4 L136.4,364.8 L137.3,365.1 L138.3,365.3 L139.2,365.6 L140.2,365.9 L141.3,365.7 L142.1,365.5 L142.8,365.4 L143.3,365.1 L143.8,364.6 L144.4,364.2 L144.8,363.9 L145.3,363.7 L146.2,363.5 L147.1,363.3 L147.7,362.8 L148.3,362.4 L148.7,361.9 L149.1,361.3 L149.3,360.4 L149.4,359.9 L149.3,359.4 L149.4,359.1 L149.3,358.8 L149.1,358.4 L149.0,357.8 L149.0,357.3 L148.9,356.6 L148.5,356.0 L147.9,355.5 L147.2,355.4 L146.7,355.3 L146.0,355.1 L145.5,354.9 L144.9,354.9 L144.3,355.0 L143.6,354.9 L143.0,354.7 L142.1,354.8 L141.3,354.9 L140.9,355.1 L140.6,355.3 L140.2,355.4 L139.8,355.6 L139.5,355.6 L138.9,355.7 L138.5,355.6 L138.0,355.4 L137.4,355.1 L136.9,354.9 L136.5,354.8 L136.0,354.6 L135.4,354.5 L135.0,354.4 L134.5,354.3 L134.0,354.3 L133.4,354.2 L132.9,354.2 L132.3,354.2 L131.8,354.4 L131.2,354.5 L130.7,354.7 L130.2,355.0 L129.7,355.2 L129.1,355.5 L128.5,355.8 L128.1,356.2 L127.7,356.4 L127.2,356.7 L126.5,356.8 L125.8,357.0 L125.2,356.9 L124.6,356.8 L123.9,356.7 L123.3,356.6 L122.8,356.6 L122.4,356.8 L121.8,356.8 L121.2,357.0 L120.0,357.1 L119.3,357.3 L118.4,357.4 L117.4,357.7 L116.5,357.8 L115.9,357.9 L115.2,357.9 Z" fill="#e7d6a3" stroke="none"/>
<path d="M207.8,369.8 L207.2,369.3 L206.4,369.1 L205.6,368.6 L204.8,368.3 L204.4,368.4 L203.6,368.4 L202.8,368.4 L202.0,368.6 L201.3,369.2 L200.8,369.7 L200.6,370.6 L200.4,371.5 L200.2,372.3 L200.1,373.1 L199.8,373.9 L199.6,374.6 L199.3,375.3 L198.8,376.1 L198.3,376.9 L198.1,377.4 L197.9,377.7 L197.6,378.1 L197.3,378.6 L197.1,379.0 L196.9,379.4 L196.6,379.8 L196.3,380.4 L196.2,380.9 L196.0,381.3 L195.9,381.8 L195.8,382.3 L195.6,382.9 L195.5,383.6 L195.4,385.1 L195.5,386.1 L195.5,387.3 L195.5,388.4 L195.4,389.3 L195.4,390.3 L195.4,391.5 L195.3,392.6 L195.3,393.6 L195.2,394.7 L195.3,395.7 L195.4,396.2 L195.5,396.8 L195.6,397.5 L195.7,398.0 L195.7,398.6 L195.7,399.1 L195.7,400.3 L195.7,401.2 L195.6,402.0 L195.6,402.5 L195.7,402.8 L195.7,403.4 L195.6,404.1 L195.7,404.7 L195.7,405.3 L195.8,405.9 L195.9,406.4 L196.1,406.8 L196.3,407.1 L196.5,407.3 L196.7,407.4 L197.0,407.4 L197.2,407.5 L197.7,407.8 L198.3,408.0 L198.9,408.2 L199.4,408.0 L199.9,407.7 L200.4,407.4 L201.0,407.3 L201.4,407.0 L201.9,406.6 L202.3,406.3 L202.6,406.1 L203.1,405.9 L203.5,405.8 L204.0,405.7 L204.5,405.6 L204.9,405.4 L205.3,405.2 L205.7,404.9 L206.0,404.5 L206.4,404.2 L206.5,403.4 L206.8,402.9 L206.9,402.3 L206.9,401.8 L206.7,401.3 L206.6,400.8 L206.5,400.6 L206.2,400.3 L205.8,399.9 L205.4,399.4 L205.1,398.9 L204.9,398.5 L204.8,397.8 L204.8,397.1 L204.7,396.5 L204.9,396.1 L204.9,395.8 L204.9,395.3 L204.9,394.9 L204.9,394.3 L204.7,393.7 L204.5,393.1 L204.4,392.4 L204.1,391.7 L204.0,390.9 L204.1,389.9 L204.5,389.2 L205.0,388.5 L205.6,387.9 L205.9,387.3 L206.3,386.7 L206.4,386.1 L206.6,385.2 L206.7,384.2 L206.8,383.2 L206.9,382.3 L206.9,381.3 L206.7,380.3 L206.6,379.4 L206.6,378.3 L206.8,377.4 L207.2,376.7 L207.5,376.0 L207.9,375.2 L208.1,374.1 L208.3,373.0 L208.5,372.1 L208.5,371.2 L208.2,370.5 L207.8,369.8 Z" fill="#e7d6a3" stroke="none"/>
<path d="M119.8,559.1 L118.8,558.6 L117.9,558.1 L116.9,558.0 L116.5,557.9 L116.3,557.6 L115.3,557.4 L114.3,558.0 L113.7,558.6 L113.3,559.5 L112.7,560.5 L112.4,561.5 L112.2,562.7 L111.7,563.5 L111.3,564.7 L111.0,565.5 L110.9,566.5 L111.5,567.2 L112.1,568.1 L113.0,568.7 L113.9,569.3 L114.7,570.1 L115.3,570.7 L116.0,571.5 L116.7,572.3 L117.4,573.2 L118.0,574.2 L118.5,575.3 L119.0,576.5 L119.3,577.8 L119.6,579.0 L119.6,580.3 L119.5,581.8 L119.3,583.2 L119.2,584.6 L118.9,585.7 L118.8,586.6 L118.9,587.2 L119.4,587.6 L120.0,587.9 L120.8,588.1 L121.6,588.3 L122.5,588.1 L123.3,587.8 L123.8,587.2 L124.1,586.4 L124.2,585.4 L124.4,584.2 L124.5,583.1 L124.5,581.8 L124.5,580.8 L124.7,579.6 L125.0,578.7 L125.6,577.8 L126.2,577.1 L127.0,576.4 L127.8,575.6 L128.7,574.8 L129.0,573.5 L128.9,572.2 L128.8,571.0 L128.5,569.9 L128.2,568.8 L128.1,567.9 L127.8,567.3 L127.2,566.6 L126.6,566.2 L125.8,565.7 L125.2,565.2 L124.6,564.5 L124.2,563.7 L123.7,562.9 L123.2,562.1 L122.7,561.5 L122.3,560.7 L121.9,560.2 L121.3,559.9 L120.5,559.6 L119.8,559.1 Z" fill="#e7d6a3" stroke="none"/>
<path d="M196.4,211.8 L196.8,210.2 L196.9,209.2 L196.2,208.3 L194.8,207.8 L193.1,207.8 L192.0,208.3 L191.5,209.0 L191.0,209.3 L190.5,210.6 L190.8,212.2 L191.3,213.7 L191.5,215.1 L191.5,216.6 L192.0,217.5 L192.2,218.0 L193.1,218.6 L194.2,218.8 L195.6,218.7 L196.4,218.4 L197.5,217.1 L197.5,215.4 L197.1,214.1 L196.7,213.6 L196.6,212.8 L196.4,211.8 Z" fill="#e7d6a3" stroke="none"/>
<path d="M215.4,225.8 L212.2,225.4 L210.0,225.2 L209.1,225.9 L208.8,227.5 L208.8,229.1 L208.8,230.6 L209.4,231.5 L210.4,231.9 L211.7,232.3 L214.9,232.4 L217.0,231.9 L218.8,231.4 L219.3,231.3 L220.9,231.4 L221.9,232.1 L222.6,232.4 L224.0,232.3 L225.8,232.5 L228.8,232.7 L231.4,232.6 L232.3,231.7 L232.8,230.3 L232.9,228.7 L232.2,227.4 L231.1,226.1 L230.5,225.0 L229.9,223.9 L229.5,223.5 L227.9,223.4 L225.9,223.4 L224.4,223.5 L223.0,224.0 L221.1,224.4 L220.0,224.4 L218.5,224.8 L216.9,225.6 L215.4,225.8 Z" fill="#e7d6a3" stroke="none"/>
<path d="M251.3,223.6 L250.9,221.3 L251.4,219.3 L250.8,217.5 L250.0,216.3 L248.7,215.8 L247.4,215.0 L246.5,213.8 L245.3,212.7 L244.9,212.5 L243.3,212.3 L242.0,212.3 L240.9,212.7 L240.3,213.1 L240.2,215.5 L239.0,217.8 L238.1,219.7 L238.5,220.8 L239.4,222.3 L240.7,223.7 L242.5,225.1 L244.1,226.5 L244.6,226.7 L246.1,226.8 L248.0,226.8 L249.5,226.1 L250.8,225.1 L251.3,224.4 L251.3,223.6 Z" fill="#e7d6a3" stroke="none"/>
<path d="M251.5,206.8 L251.1,204.4 L250.6,203.0 L249.2,202.1 L247.8,200.9 L247.1,199.2 L247.1,198.5 L246.1,197.5 L244.3,196.3 L239.9,196.5 L238.6,197.4 L237.9,198.4 L237.8,199.7 L238.8,201.9 L239.3,203.9 L239.7,205.9 L239.8,206.6 L240.5,207.3 L241.8,207.4 L243.6,207.4 L244.9,207.6 L246.7,208.7 L247.6,209.4 L248.6,209.6 L249.9,209.2 L250.8,208.4 L251.2,207.9 L251.5,206.8 Z" fill="#e7d6a3" stroke="none"/>
<path d="M280.1,368.9 L279.6,367.5 L279.6,366.1 L278.9,365.6 L277.2,365.6 L275.6,366.3 L273.9,367.0 L273.3,367.3 L271.2,367.1 L269.0,366.8 L268.1,366.5 L267.1,366.5 L266.6,367.0 L266.2,367.6 L266.0,368.4 L266.0,369.6 L266.1,370.6 L266.9,371.2 L268.0,371.4 L269.9,371.4 L271.5,371.5 L272.8,371.6 L274.6,371.7 L275.9,372.3 L277.4,372.6 L278.3,372.2 L279.4,371.3 L280.2,370.5 L280.3,369.9 L280.4,369.4 L280.1,368.9 Z" fill="#e7d6a3" stroke="none"/>
<path d="M291.3,407.9 L290.2,404.8 L289.6,404.1 L288.4,402.7 L288.1,401.7 L288.3,398.8 L287.4,396.9 L286.4,395.4 L285.7,394.6 L285.5,392.1 L285.4,389.6 L285.8,387.6 L285.2,385.4 L283.7,385.0 L281.6,385.4 L280.9,385.9 L280.6,386.9 L280.9,388.9 L280.9,391.7 L280.9,395.3 L280.1,397.2 L279.2,398.7 L278.8,399.8 L278.6,402.1 L278.1,403.6 L277.0,404.8 L276.1,405.9 L275.9,406.7 L276.2,408.2 L277.8,411.4 L279.2,413.2 L280.2,414.1 L281.4,414.5 L283.8,414.4 L286.5,413.8 L288.1,413.6 L292.7,413.5 L294.9,412.6 L296.0,411.6 L296.3,410.5 L295.8,409.7 L294.6,408.9 L293.1,408.6 L291.9,408.4 L291.3,407.9 Z" fill="#e7d6a3" stroke="none"/>
<path d="M297.4,425.2 L296.5,424.3 L295.7,423.1 L294.6,422.5 L293.3,422.7 L292.0,423.0 L290.4,422.8 L289.6,422.7 L287.7,423.5 L287.4,424.3 L287.2,425.4 L287.4,427.0 L287.0,428.3 L286.6,429.0 L286.6,430.5 L287.3,431.8 L288.2,432.6 L289.8,432.9 L292.4,432.3 L293.5,432.0 L294.9,432.2 L297.3,433.0 L298.3,433.3 L299.5,433.2 L300.2,432.6 L300.3,431.2 L300.8,430.0 L300.7,427.8 L300.6,426.4 L300.2,425.9 L299.0,425.5 L298.1,425.5 L297.4,425.2 Z" fill="#e7d6a3" stroke="none"/>
<path d="M256.5,458.4 L255.9,455.0 L255.8,452.9 L256.3,450.8 L255.8,446.5 L256.6,444.2 L258.1,438.7 L258.0,435.1 L259.0,431.7 L258.5,429.7 L257.8,428.9 L253.8,427.8 L252.8,426.7 L251.4,423.4 L249.9,421.8 L247.1,422.7 L245.1,424.9 L243.8,426.1 L242.5,426.7 L242.2,428.0 L243.1,430.3 L245.2,432.3 L245.8,433.5 L245.6,434.8 L245.6,435.4 L247.4,437.0 L248.0,438.5 L248.5,442.1 L248.7,447.2 L249.1,451.0 L248.2,452.7 L246.2,453.8 L242.6,455.7 L242.5,456.6 L243.6,460.5 L245.2,462.4 L246.4,462.3 L250.2,460.6 L251.6,460.1 L253.6,460.1 L255.3,459.5 L256.5,458.4 Z" fill="#e7d6a3" stroke="none"/>
<path d="M234.6,629.1 L235.7,626.7 L235.9,624.0 L235.3,621.9 L234.3,621.1 L233.1,620.8 L231.8,620.7 L231.0,621.5 L230.1,622.7 L229.7,623.3 L229.6,625.2 L229.2,626.4 L228.2,627.4 L227.1,628.3 L226.2,629.9 L225.5,631.4 L225.8,633.1 L226.1,634.0 L227.3,635.3 L228.7,636.6 L229.2,637.4 L230.9,637.9 L231.9,638.1 L232.7,637.8 L233.4,636.6 L233.9,635.4 L233.8,634.0 L233.7,632.2 L233.7,631.0 L234.1,630.1 L234.6,629.1 Z" fill="#e7d6a3" stroke="none"/>
<path d="M472.8,618.6 L473.5,616.6 L473.7,614.3 L473.4,612.8 L473.5,612.1 L475.0,609.8 L475.6,606.4 L476.1,604.4 L475.3,602.0 L473.9,601.2 L472.5,601.3 L468.9,602.9 L467.0,604.1 L466.7,605.9 L466.8,608.0 L466.8,610.4 L465.8,611.7 L465.9,614.6 L466.1,617.5 L466.8,618.8 L468.8,619.3 L471.4,619.3 L472.8,618.6 Z" fill="#e7d6a3" stroke="none"/>
<path d="M470.0,642.4 L470.4,641.5 L471.2,638.6 L472.1,636.9 L472.8,635.9 L473.3,633.6 L472.8,631.3 L471.4,630.6 L469.3,630.6 L467.2,629.7 L465.9,628.8 L464.9,628.7 L463.5,629.8 L462.9,632.0 L463.4,634.1 L463.6,636.9 L463.8,639.9 L464.4,641.8 L466.2,643.3 L467.3,643.4 L468.8,643.1 L470.0,642.4 Z" fill="#e7d6a3" stroke="none"/>
<path d="M490.0,430.2 L489.8,428.0 L489.1,426.3 L486.5,424.7 L485.1,423.9 L483.7,423.8 L481.3,426.7 L481.1,428.4 L481.5,431.4 L481.0,436.4 L480.8,436.8 L481.0,437.7 L481.9,438.6 L482.9,439.2 L484.1,439.1 L485.1,437.9 L487.3,434.0 L488.4,432.3 L489.3,431.4 L490.0,430.2 Z" fill="#e7d6a3" stroke="none"/>
<path d="M520.7,446.3 L521.4,443.5 L520.9,442.1 L520.6,440.4 L520.7,438.0 L521.0,434.5 L520.5,433.2 L518.7,432.1 L516.6,431.7 L514.6,431.8 L512.3,432.7 L511.0,433.4 L510.4,434.6 L509.9,436.8 L510.1,439.9 L511.5,443.7 L511.2,446.7 L511.0,449.2 L511.2,450.2 L512.3,450.8 L513.5,450.8 L515.0,450.0 L517.4,448.3 L519.4,447.3 L520.7,446.3 Z" fill="#e7d6a3" stroke="none"/>
<path d="M518.6,413.2 L521.6,408.4 L521.7,404.4 L522.3,402.3 L522.5,400.4 L521.5,397.9 L521.3,395.7 L522.1,392.9 L522.1,390.9 L519.6,388.0 L517.2,386.2 L515.8,385.6 L514.1,385.7 L512.1,387.2 L511.6,389.2 L515.2,394.8 L517.2,399.3 L517.3,400.7 L516.7,403.9 L516.7,408.9 L516.5,412.2 L516.9,412.9 L517.8,413.2 L518.6,413.2 Z" fill="#e7d6a3" stroke="none"/>
<path d="M280.8,253.0 L283.4,255.5 L285.4,255.8 L286.8,256.0 L288.6,255.6 L290.0,256.4 L292.7,257.2 L294.9,256.1 L296.5,253.7 L296.4,251.9 L295.0,250.5 L292.8,249.4 L291.2,248.5 L289.3,246.3 L286.6,245.3 L285.1,244.2 L284.0,241.9 L282.1,240.2 L281.1,240.1 L275.6,244.7 L275.7,248.2 L276.7,249.3 L278.4,251.8 L279.7,252.7 L280.8,253.0 Z" fill="#e7d6a3" stroke="none"/>
<path d="M320.0,272.1 L320.7,269.8 L321.3,268.8 L321.0,266.3 L320.0,265.1 L318.4,263.5 L316.9,261.7 L316.1,261.1 L314.4,261.0 L312.2,261.8 L310.1,264.0 L307.6,265.3 L307.1,267.2 L307.0,268.7 L311.0,272.6 L311.6,273.8 L313.7,278.7 L314.4,278.9 L315.8,279.9 L316.8,280.3 L318.1,280.5 L319.5,279.6 L320.7,278.2 L321.1,276.1 L320.3,274.4 L319.6,273.1 L320.0,272.1 Z" fill="#e7d6a3" stroke="none"/>
<path d="M281.1,212.4 L281.9,209.7 L282.6,208.8 L285.2,207.7 L287.3,205.4 L289.3,204.2 L291.9,203.2 L292.7,201.9 L292.4,199.3 L291.4,197.9 L289.3,197.0 L287.9,196.0 L287.0,194.6 L285.4,193.9 L283.1,194.0 L280.2,195.1 L278.9,198.0 L277.3,200.1 L275.3,201.2 L273.4,203.2 L269.9,205.0 L268.5,207.5 L268.8,209.1 L270.0,210.5 L271.9,211.2 L274.3,211.2 L276.4,212.6 L277.7,213.6 L278.8,214.0 L280.2,213.4 L281.1,212.4 Z" fill="#e7d6a3" stroke="none"/>
<path d="M338.4,224.8 L340.6,223.8 L342.9,221.0 L343.9,218.5 L344.0,216.8 L344.6,215.6 L345.0,213.9 L344.3,212.9 L342.7,211.8 L341.2,211.5 L339.9,212.3 L338.8,214.4 L337.9,216.5 L336.6,217.8 L335.4,218.0 L333.5,217.9 L332.6,218.3 L332.0,219.3 L332.4,222.1 L333.7,223.0 L335.6,223.9 L338.4,224.8 Z" fill="#e7d6a3" stroke="none"/>
<path d="M351.6,233.1 L351.0,229.4 L351.1,227.6 L352.3,225.5 L352.8,223.9 L353.5,222.4 L354.0,221.7 L354.2,220.6 L353.8,219.1 L352.5,218.3 L351.3,218.0 L349.8,217.9 L349.1,218.2 L348.5,219.7 L348.0,221.8 L347.4,223.6 L346.8,225.1 L345.4,225.9 L344.0,226.4 L344.2,228.7 L345.0,229.7 L346.1,230.3 L346.7,231.1 L346.9,232.0 L347.7,233.7 L349.1,234.4 L350.3,234.4 L351.2,234.0 L351.6,233.1 Z" fill="#e7d6a3" stroke="none"/>
<path d="M359.4,235.3 L361.1,234.0 L361.8,232.6 L361.8,230.3 L361.3,228.6 L360.7,226.7 L359.8,225.5 L358.8,224.9 L357.6,224.7 L356.7,225.9 L356.5,227.3 L356.6,228.2 L356.6,229.9 L356.1,231.2 L355.5,231.9 L355.5,233.1 L356.3,234.1 L357.3,235.0 L358.3,235.3 L359.4,235.3 Z" fill="#e7d6a3" stroke="none"/>
<path d="M646.5,500.3 L645.7,499.9 L644.6,499.9 L643.0,500.0 L641.6,499.8 L640.4,498.5 L639.0,497.1 L637.8,496.4 L636.4,497.2 L635.4,498.1 L634.5,499.0 L633.9,499.6 L634.0,501.4 L634.7,502.8 L635.2,504.2 L635.4,504.7 L635.1,505.3 L635.2,506.3 L635.8,507.0 L636.5,508.0 L637.5,509.2 L638.6,509.7 L639.1,509.8 L641.1,509.6 L642.6,509.3 L644.7,509.0 L646.1,509.1 L646.8,508.8 L647.8,508.1 L648.4,507.7 L648.6,505.7 L648.3,504.3 L647.3,502.3 L646.9,501.2 L646.5,500.3 Z" fill="#e7d6a3" stroke="none"/>
<path d="M606.6,520.8 L607.3,520.4 L608.0,519.6 L608.0,518.7 L606.9,516.1 L606.7,515.3 L606.9,513.9 L607.5,512.0 L607.6,509.4 L606.5,508.1 L605.9,507.8 L603.7,507.5 L601.2,507.9 L599.5,508.7 L598.3,510.0 L597.3,511.9 L597.3,513.5 L598.1,515.3 L598.3,516.8 L598.3,517.9 L598.8,518.7 L599.4,519.2 L600.8,519.5 L601.8,519.5 L603.3,520.1 L604.9,520.7 L606.6,520.8 Z" fill="#e7d6a3" stroke="none"/>
<path d="M603.1,504.2 L605.2,503.4 L606.2,502.6 L606.7,501.4 L606.3,499.2 L605.8,497.4 L605.1,496.7 L603.2,496.0 L601.9,495.9 L600.6,496.2 L599.7,497.2 L598.9,498.3 L597.8,499.4 L596.3,500.1 L595.2,500.2 L593.7,500.5 L592.8,500.9 L592.5,501.5 L592.8,502.9 L593.2,504.2 L593.6,505.1 L593.5,506.5 L593.7,507.0 L593.9,507.5 L594.3,508.0 L594.8,508.2 L595.7,508.3 L596.2,507.3 L597.2,506.0 L598.8,504.7 L599.8,504.3 L601.2,504.3 L602.2,504.3 L603.1,504.2 Z" fill="#e7d6a3" stroke="none"/>
<path d="M596.1,495.1 L597.6,493.1 L597.8,492.3 L597.7,491.4 L596.2,488.4 L595.1,486.1 L594.9,483.3 L594.8,481.3 L594.2,480.1 L593.4,479.5 L592.4,479.5 L591.2,479.8 L590.2,481.0 L589.9,482.9 L589.9,485.4 L590.4,487.8 L590.2,489.2 L589.1,490.9 L588.8,493.6 L589.1,495.9 L589.7,497.2 L590.7,497.8 L591.5,497.9 L593.9,495.9 L594.6,495.3 L596.1,495.1 Z" fill="#e7d6a3" stroke="none"/>
<path d="M789.0,407.1 L795.2,408.1 L796.7,407.5 L797.1,407.5 L798.6,406.4 L799.1,405.5 L799.5,403.4 L797.7,401.5 L797.1,397.5 L796.1,396.7 L792.6,395.5 L789.2,394.8 L788.2,393.9 L787.6,391.8 L785.3,387.9 L784.4,387.3 L783.3,385.6 L780.8,384.7 L779.1,385.2 L777.9,385.9 L777.0,388.2 L776.8,389.3 L776.1,392.1 L776.4,393.6 L779.3,395.5 L782.8,398.2 L783.1,399.2 L783.2,400.1 L785.9,403.1 L787.2,405.5 L789.0,407.1 Z" fill="#e7d6a3" stroke="none"/>
<path d="M780.2,365.1 L782.6,365.7 L784.4,364.9 L785.8,364.0 L788.0,363.3 L791.0,362.3 L792.4,358.3 L792.4,355.2 L793.7,352.5 L793.9,349.4 L793.1,347.9 L791.6,347.5 L789.6,348.0 L788.0,349.5 L787.0,351.3 L786.2,353.4 L785.8,355.0 L784.9,356.3 L782.8,356.5 L780.6,357.9 L779.5,358.9 L779.1,361.0 L779.1,362.8 L779.3,364.2 L780.2,365.1 Z" fill="#e7d6a3" stroke="none"/>
<path d="M678.3,230.5 L677.6,227.8 L676.3,225.9 L675.1,225.1 L674.2,225.2 L672.8,226.3 L672.5,228.3 L672.6,230.8 L672.9,232.9 L674.1,235.1 L675.8,237.6 L677.0,238.6 L678.1,238.7 L678.9,238.3 L679.7,237.5 L680.6,236.4 L681.0,235.1 L681.0,234.5 L680.1,232.7 L679.0,231.8 L678.3,230.5 Z" fill="#e7d6a3" stroke="none"/>
<path d="M654.4,243.9 L652.4,242.7 L650.3,242.9 L649.2,244.4 L648.4,246.1 L647.6,247.5 L647.6,248.3 L647.9,249.1 L649.4,249.7 L651.1,250.3 L652.6,250.7 L654.0,250.8 L655.2,250.5 L656.6,249.6 L657.0,247.9 L656.7,246.2 L655.5,244.7 L654.4,243.9 Z" fill="#e7d6a3" stroke="none"/>
<path d="M645.4,232.5 L645.0,230.4 L643.7,228.9 L641.7,228.6 L639.8,229.7 L638.3,231.2 L637.8,232.1 L637.2,233.8 L638.0,237.0 L637.9,238.0 L637.8,238.5 L638.6,239.6 L640.6,240.4 L642.4,240.5 L644.3,239.7 L645.4,238.2 L646.3,236.9 L646.8,235.1 L646.4,233.7 L645.4,232.5 Z" fill="#e7d6a3" stroke="none"/>
<path d="M631.9,206.3 L632.8,205.8 L635.4,200.8 L634.6,198.6 L633.3,197.8 L631.7,197.6 L629.5,198.1 L628.0,199.1 L627.7,200.2 L627.5,202.3 L627.5,203.8 L628.1,205.3 L629.9,206.8 L631.0,206.9 L631.5,206.7 L631.9,206.3 Z" fill="#e7d6a3" stroke="none"/>
<path d="M330.1,93.9 L330.6,92.0 L331.3,90.9 L331.3,88.5 L329.8,86.7 L328.0,86.1 L326.3,86.8 L324.7,88.2 L323.7,89.1 L322.0,89.3 L320.4,89.9 L319.6,91.5 L320.1,94.2 L322.1,96.7 L323.0,98.9 L323.1,99.9 L324.8,101.4 L325.5,101.9 L327.9,101.4 L330.5,99.6 L331.5,98.1 L331.1,96.0 L330.1,93.9 Z" fill="#e7d6a3" stroke="none"/>
<path d="M353.7,90.8 L356.4,92.9 L358.1,93.8 L359.9,94.1 L361.2,93.5 L363.3,91.8 L364.4,90.3 L365.6,88.0 L366.5,87.0 L367.0,85.2 L365.7,81.4 L364.3,79.0 L362.7,77.5 L360.9,77.1 L358.2,77.4 L356.8,77.7 L354.5,79.3 L354.7,80.1 L354.7,81.9 L355.5,84.3 L353.5,88.0 L353.4,89.6 L353.7,90.8 Z" fill="#e7d6a3" stroke="none"/>
<path d="M342.0,72.2 L343.6,72.3 L345.5,71.6 L346.5,70.3 L347.6,67.6 L348.5,65.7 L348.6,64.1 L347.4,62.1 L346.5,60.7 L345.2,59.6 L343.9,57.2 L342.4,54.1 L340.5,51.6 L338.7,49.5 L337.0,48.1 L334.7,47.3 L331.0,46.1 L328.7,44.6 L327.2,43.6 L325.2,43.0 L323.9,42.9 L322.4,43.5 L321.6,44.4 L321.2,46.2 L321.1,48.1 L321.8,49.3 L322.7,49.9 L326.4,51.3 L327.9,52.1 L329.9,53.2 L332.7,55.9 L334.7,58.2 L336.9,59.4 L338.0,60.5 L338.5,62.7 L338.6,64.3 L339.2,66.1 L339.9,67.3 L340.2,69.3 L341.1,71.2 L342.0,72.2 Z" fill="#e7d6a3" stroke="none"/>
<path d="M449.0,173.6 L453.3,172.2 L458.3,172.9 L459.3,172.3 L459.7,170.8 L458.9,168.6 L458.9,166.5 L459.6,164.5 L459.1,162.2 L456.8,160.9 L452.1,160.7 L450.2,160.3 L446.7,161.9 L444.8,161.5 L442.6,160.2 L440.5,160.3 L438.3,160.8 L434.8,160.5 L431.9,162.1 L430.8,163.6 L430.8,165.8 L431.0,167.3 L432.7,168.4 L434.2,169.0 L438.3,169.0 L440.4,169.2 L442.6,170.5 L444.2,171.9 L449.0,173.6 Z" fill="#e7d6a3" stroke="none"/>
<path d="M483.3,190.4 L486.4,194.0 L487.2,194.8 L488.3,195.1 L493.5,196.4 L499.3,193.9 L500.8,190.6 L502.0,186.7 L502.1,185.4 L501.0,183.8 L498.6,182.8 L496.1,181.9 L495.0,181.7 L492.0,182.0 L489.9,181.4 L485.5,177.8 L483.1,176.2 L480.5,175.1 L479.4,175.0 L476.1,177.5 L476.2,179.2 L475.6,181.0 L474.6,183.0 L475.2,185.4 L476.4,187.4 L478.2,188.7 L481.4,189.5 L483.3,190.4 Z" fill="#e7d6a3" stroke="none"/>
<path d="M387.6,197.9 L390.8,197.0 L394.7,196.6 L397.2,195.3 L398.6,192.5 L399.6,191.6 L403.6,190.7 L404.5,190.0 L404.3,186.6 L403.0,184.7 L402.1,184.0 L399.9,184.2 L398.8,184.2 L397.4,182.7 L396.0,182.0 L394.2,182.4 L392.8,184.0 L392.2,184.5 L389.8,185.4 L386.8,188.0 L385.5,188.5 L384.2,188.2 L382.1,186.5 L380.1,186.0 L378.3,187.0 L377.5,187.8 L377.5,189.3 L378.7,191.3 L380.8,192.9 L382.3,194.4 L382.9,195.4 L384.3,196.7 L386.2,197.8 L387.6,197.9 Z" fill="#e7d6a3" stroke="none"/>
<path d="M393.0,158.0 L394.6,159.5 L395.2,160.8 L394.4,163.0 L393.8,164.2 L392.6,165.1 L391.2,165.4 L389.7,164.2 L387.8,163.3 L385.7,162.5 L383.9,162.6 L382.5,162.7 L381.1,161.8 L380.0,160.0 L378.7,157.7 L378.2,155.2 L379.2,153.8 L381.2,153.0 L382.9,152.9 L384.9,153.7 L386.8,153.7 L388.2,153.1 L389.5,153.1 L391.0,154.3 L391.5,155.9 L392.1,157.2 L393.0,158.0 Z" fill="#e7d6a3" stroke="none"/>
<path d="M242.1,386.9 L241.0,387.5 L240.0,388.0 L239.4,388.8 L239.1,389.9 L239.4,391.0 L239.7,392.2 L240.0,393.8 L240.2,394.9 L240.2,395.5 L240.1,396.2 L239.8,396.8 L239.5,397.3 L239.1,397.9 L239.2,398.5 L239.2,399.2 L239.5,400.6 L239.7,401.3 L239.9,402.2 L240.2,402.7 L240.4,403.3 L240.5,404.1 L240.4,404.9 L240.3,405.8 L240.1,406.6 L240.0,407.8 L240.3,408.7 L240.6,409.4 L241.0,410.0 L241.5,410.4 L242.1,410.8 L242.9,411.3 L243.7,411.4 L244.4,411.6 L245.4,411.9 L246.1,412.3 L247.1,412.5 L247.9,412.5 L248.9,412.5 L249.8,412.3 L250.9,412.1 L251.6,411.9 L252.3,411.5 L252.5,410.9 L252.6,410.1 L252.5,409.1 L251.8,408.2 L251.6,407.5 L251.3,406.4 L251.3,405.4 L251.2,404.7 L251.0,403.8 L250.9,403.0 L250.6,402.3 L250.0,401.9 L249.4,401.5 L248.9,401.1 L248.6,400.6 L248.3,399.8 L248.2,399.0 L248.2,398.3 L248.4,397.4 L248.4,396.5 L248.1,395.6 L247.8,394.8 L247.5,394.0 L247.2,393.4 L246.9,392.8 L246.8,391.9 L246.7,391.0 L246.5,389.9 L246.2,388.9 L245.6,387.6 L244.9,387.1 L243.9,386.6 L243.0,386.6 L242.1,386.9 Z" fill="#e7d6a3" stroke="none"/>
<path d="M621.4,317.0 L625.8,307.4 L636.7,312.4 L632.3,322.0 L621.4,317.0 Z" fill="#4f8a3e" stroke="none"/>
<path d="M663.1,330.8 L684.1,342.8 L690.4,331.7 L669.4,319.8 L663.1,330.8 Z" fill="#4f8a3e" stroke="none"/>
<path d="M692.8,345.6 L698.7,335.7 L712.2,343.7 L706.4,353.6 L692.8,345.6 Z" fill="#4f8a3e" stroke="none"/>
<path d="M767.0,334.4 L779.1,338.0 L775.7,349.5 L763.5,345.8 L767.0,334.4 Z" fill="#4f8a3e" stroke="none"/>
<path d="M515.2,349.9 L512.1,360.1 L522.8,363.4 L526.0,353.2 L515.2,349.9 Z" fill="#4f8a3e" stroke="none"/>
<path d="M537.6,356.9 L535.3,364.9 L540.5,366.9 L543.2,358.4 L540.1,357.6 L537.6,356.9 Z" fill="#4f8a3e" stroke="none"/>
<path d="M556.0,368.7 L586.1,381.3 L582.9,388.8 L552.9,376.3 L556.0,368.7 Z" fill="#4f8a3e" stroke="none"/>
<path d="M590.6,392.8 L593.9,385.7 L612.8,393.7 L609.7,401.2 L599.6,396.9 L590.6,392.8 Z" fill="#4f8a3e" stroke="none"/>
<path d="M621.0,398.2 L616.9,407.5 L631.8,413.9 L635.8,404.6 L621.0,398.2 Z" fill="#4f8a3e" stroke="none"/>
<path d="M567.7,398.9 L560.9,432.4 L569.7,434.2 L576.5,400.7 L567.7,398.9 Z" fill="#4f8a3e" stroke="none"/>
<path d="M128.7,580.4 L128.3,604.6 L139.9,604.8 L140.3,580.5 L128.7,580.4 Z" fill="#4f8a3e" stroke="none"/>
<path d="M343.0,363.6 L342.2,376.8 L353.8,377.5 L354.6,364.3 L343.0,363.6 Z" fill="#4f8a3e" stroke="none"/>
<path d="M339.7,402.5 L339.1,417.0 L352.1,417.5 L352.7,403.0 L339.7,402.5 Z" fill="#4f8a3e" stroke="none"/>
<path d="M338.2,424.2 L336.0,463.9 L349.8,464.6 L352.0,425.0 L338.2,424.2 Z" fill="#4f8a3e" stroke="none"/>
<path d="M535.8,555.3 L533.7,566.7 L543.4,568.5 L545.5,557.0 L535.8,555.3 Z" fill="#4f8a3e" stroke="none"/>
<path d="M374.8,597.2 L372.3,607.9 L380.9,609.9 L383.4,599.2 L374.8,597.2 Z" fill="#4f8a3e" stroke="none"/>
<path d="M367.6,477.4 L376.3,479.2 L374.1,489.6 L365.4,487.7 L367.6,477.4 Z" fill="#4f8a3e" stroke="none"/>
<path d="M596.0,356.3 L598.5,346.8 L608.4,349.4 L605.9,358.9 L596.0,356.3 Z" fill="#4f8a3e" stroke="none"/>
<path d="M590.2,289.6 L599.0,295.1 L595.2,301.0 L586.4,295.4 L590.2,289.6 Z" fill="#4f8a3e" stroke="none"/>
<path d="M752.5,266.9 L751.2,279.7 L745.9,279.4 L740.1,279.5 L736.7,278.4 L732.8,274.9 L729.0,272.2 L725.5,271.2 L717.5,270.2 L718.6,255.8 L730.4,256.8 L737.9,259.3 L743.0,264.8 L744.9,265.7 L752.5,266.9 Z" fill="#4f8a3e" stroke="none"/>
<path d="M43.9,210.0 L48.6,209.0 L50.5,216.1 L45.5,217.4 L43.9,210.0 Z" fill="#4f8a3e" stroke="none"/>
<path d="M85.4,61.6 L65.7,62.0 L59.2,71.4 L58.1,80.9 L57.6,88.1 L74.9,89.5 L85.9,92.2 L85.4,61.6 Z" fill="#4f8a3e" stroke="none"/>
<path d="M107.5,103.4 L114.5,108.8 L118.4,114.1 L121.9,119.6 L125.6,136.1 L126.4,146.5 L130.4,152.7 L136.6,155.0 L146.9,149.5 L144.9,145.2 L142.2,138.5 L138.4,127.7 L135.8,117.2 L133.8,107.2 L132.0,94.3 L129.5,84.0 L125.7,75.6 L116.9,68.3 L108.3,65.3 L107.5,103.4 Z" fill="#4f8a3e" stroke="none"/>
<path d="M159.3,49.0 L158.2,41.4 L157.4,34.8 L157.8,28.9 L159.5,25.2 L161.3,23.5 L164.0,22.3 L167.6,23.0 L173.1,27.8 L184.2,39.9 L192.0,48.4 L195.8,55.0 L197.5,60.6 L196.5,68.5 L193.2,72.9 L188.0,76.0 L181.4,76.0 L175.0,73.5 L168.1,67.7 L164.0,62.8 L161.5,57.0 L159.3,49.0 Z" fill="#2f7825" stroke="none"/>
<path d="M105.8,74.4 L105.5,76.6 L105.5,78.4 L105.6,79.9 L105.3,81.5 L104.9,82.8 L104.2,84.2 L102.9,85.1 L101.0,85.7 L99.5,85.9 L97.9,85.6 L96.7,85.0 L95.5,84.3 L94.5,83.6 L93.9,82.8 L93.0,81.4 L92.7,79.8 L92.7,78.5 L92.7,76.7 L92.7,75.2 L92.9,73.6 L92.7,72.0 L92.9,70.4 L92.9,68.9 L93.4,67.6 L93.9,66.3 L94.7,65.2 L95.5,64.4 L96.3,64.0 L97.4,63.6 L98.6,63.3 L99.8,63.3 L101.2,63.7 L102.2,64.3 L103.4,65.1 L104.5,66.0 L105.3,67.2 L105.5,68.6 L105.6,70.1 L105.8,71.8 L105.8,73.1 L105.8,74.4 Z" fill="#2f7825" stroke="none"/>
<path d="M179.6,551.2 L178.9,551.1 L178.1,550.9 L177.4,550.6 L176.6,550.4 L176.0,550.3 L175.4,550.2 L174.9,550.2 L173.9,550.4 L173.3,550.4 L172.4,550.5 L171.7,550.8 L171.1,551.1 L170.6,551.5 L170.3,551.9 L170.0,552.4 L169.7,553.2 L169.6,553.7 L169.5,554.3 L169.3,555.1 L169.2,555.8 L169.0,556.6 L168.6,557.3 L168.4,557.9 L168.1,558.5 L167.8,559.2 L167.4,560.2 L167.2,561.8 L167.2,562.9 L167.2,564.1 L167.4,565.2 L167.5,566.4 L167.5,567.6 L167.4,568.8 L167.3,570.4 L167.3,571.9 L167.3,573.4 L167.3,574.6 L167.5,575.9 L167.9,576.9 L168.3,577.9 L168.9,578.9 L169.5,579.8 L170.3,580.9 L171.1,581.8 L171.8,582.5 L172.7,583.2 L173.5,583.9 L174.1,584.4 L174.8,585.0 L175.7,585.6 L177.0,586.1 L177.8,586.4 L179.0,586.8 L180.0,587.1 L181.2,587.4 L182.5,587.3 L183.8,587.2 L184.8,586.8 L185.9,586.3 L187.0,585.9 L188.1,585.2 L189.2,584.4 L190.3,583.3 L191.1,582.2 L191.8,581.2 L192.4,579.9 L192.8,578.9 L193.1,577.3 L193.1,575.8 L193.0,574.2 L192.6,572.7 L192.4,571.6 L191.7,570.1 L191.2,568.8 L190.3,567.1 L189.7,565.7 L189.0,564.2 L188.2,562.6 L187.6,561.2 L186.8,559.6 L186.0,558.2 L185.0,557.0 L184.0,555.8 L183.2,554.4 L182.3,553.2 L181.9,552.4 L181.1,551.7 L180.5,551.4 L180.0,551.3 L179.6,551.2 Z" fill="#2f7825" stroke="none"/>
<path d="M234.2,199.9 L230.8,198.8 L228.2,198.4 L225.1,198.0 L220.8,197.2 L215.5,196.4 L212.7,195.5 L210.7,194.8 L208.5,193.9 L207.0,192.4 L205.9,191.8 L204.5,191.4 L203.4,191.6 L202.2,192.0 L201.5,192.9 L201.1,194.7 L200.9,196.5 L200.7,198.8 L200.5,201.1 L200.3,204.5 L200.1,207.8 L200.5,211.5 L200.9,215.2 L201.4,218.1 L202.0,220.0 L202.9,221.2 L203.9,222.1 L205.1,222.6 L206.0,222.8 L207.2,222.6 L208.6,222.1 L210.4,221.8 L212.5,221.9 L214.8,221.7 L217.0,221.3 L219.0,220.7 L220.7,220.1 L222.2,219.8 L224.9,219.4 L227.7,219.5 L230.5,219.6 L232.0,219.7 L233.5,219.4 L234.4,218.2 L235.3,216.3 L236.1,214.1 L236.3,212.3 L236.1,209.2 L235.8,206.1 L235.3,203.4 L234.9,202.0 L234.2,199.9 Z" fill="#2f7825" stroke="none"/>
<path d="M276.6,390.9 L276.8,388.4 L276.8,386.5 L276.8,384.3 L276.7,381.6 L276.4,379.8 L276.0,378.5 L275.1,377.5 L273.5,376.5 L271.8,375.7 L270.0,375.4 L267.9,375.1 L265.2,374.8 L262.4,374.5 L260.2,374.3 L258.0,374.2 L256.3,374.4 L255.0,374.9 L253.9,375.9 L252.9,376.9 L252.4,378.4 L251.9,380.1 L251.7,381.6 L251.5,384.2 L251.6,386.7 L251.8,388.7 L252.0,391.0 L252.3,393.0 L252.8,395.1 L253.5,396.9 L254.2,399.5 L255.0,401.8 L255.7,403.8 L256.5,406.2 L257.9,407.2 L259.3,407.7 L260.6,408.1 L262.2,408.2 L264.3,408.0 L266.3,407.8 L268.3,407.2 L270.7,406.0 L272.1,405.0 L272.8,404.2 L273.4,402.4 L274.3,400.0 L275.3,397.4 L276.1,394.5 L276.4,392.3 L276.6,390.9 Z" fill="#2f7825" stroke="none"/>
<path d="M505.9,383.5 L507.2,385.8 L508.4,388.2 L509.4,390.0 L510.3,391.9 L511.3,393.7 L512.5,395.4 L513.3,396.7 L514.0,397.8 L514.5,398.9 L514.7,400.7 L514.6,402.9 L514.4,405.2 L514.1,408.1 L513.6,410.6 L512.9,413.1 L512.1,416.0 L511.0,419.0 L509.9,421.5 L508.9,422.7 L508.7,423.0 L506.6,423.8 L504.4,424.3 L502.5,424.2 L499.8,423.7 L496.2,423.0 L493.4,422.1 L490.4,421.3 L488.3,420.0 L486.4,418.7 L485.1,417.0 L484.6,415.5 L484.5,413.3 L484.8,410.1 L485.2,407.2 L485.6,403.3 L486.3,400.8 L487.2,398.5 L488.6,396.3 L490.7,394.5 L493.6,392.2 L496.2,389.7 L497.7,387.4 L499.3,384.9 L502.0,383.4 L504.3,383.0 L505.9,383.5 Z" fill="#2f7825" stroke="none"/>
<path d="M611.4,497.7 L612.7,498.8 L615.7,500.0 L618.1,500.5 L620.9,500.3 L623.8,499.7 L626.0,498.9 L627.4,497.7 L628.3,496.1 L628.6,494.2 L628.7,492.3 L628.6,489.8 L628.5,487.7 L628.1,485.9 L627.6,483.3 L626.8,481.2 L625.8,478.6 L624.7,476.3 L623.3,473.7 L621.9,471.7 L620.6,470.5 L619.4,469.7 L618.1,469.1 L616.3,468.4 L614.6,467.9 L612.7,467.8 L611.0,467.8 L609.3,468.0 L607.4,468.6 L605.6,469.4 L604.2,470.2 L602.9,471.4 L601.6,472.9 L600.5,474.6 L599.6,476.4 L598.9,478.3 L598.6,480.3 L598.5,482.6 L598.7,484.5 L599.2,486.4 L599.9,488.0 L600.8,489.5 L601.4,490.3 L603.1,491.5 L605.0,492.6 L606.6,493.6 L608.3,494.8 L609.7,496.1 L611.4,497.7 Z" fill="#2f7825" stroke="none"/>
<path d="M796.5,372.4 L794.8,370.8 L794.1,368.5 L794.1,364.9 L794.7,362.6 L795.7,359.3 L797.1,354.7 L797.8,350.7 L798.1,348.6 L797.6,345.7 L797.3,343.6 L798.4,341.6 L799.7,339.7 L801.4,338.1 L803.5,336.6 L805.1,335.7 L806.5,335.6 L807.9,335.9 L809.6,336.6 L810.9,337.3 L811.9,338.0 L812.7,338.7 L813.9,340.4 L814.9,341.9 L816.0,343.5 L817.1,344.8 L818.4,346.1 L820.6,347.3 L822.9,347.7 L823.7,347.9 L825.0,348.7 L826.1,349.6 L826.5,350.2 L826.7,351.3 L826.8,352.8 L826.9,353.9 L826.9,355.0 L826.7,355.8 L826.1,356.8 L825.2,357.8 L824.4,358.8 L823.5,360.2 L822.7,361.5 L822.2,362.9 L821.9,363.9 L821.8,365.4 L821.8,366.9 L821.8,368.3 L821.6,369.6 L820.6,370.6 L820.1,371.1 L818.7,371.5 L817.2,371.7 L815.5,372.0 L814.3,372.5 L812.3,373.8 L810.6,374.6 L807.4,374.8 L804.5,374.8 L801.8,374.3 L799.4,373.7 L796.5,372.4 Z" fill="#2f7825" stroke="none"/>
<path d="M331.4,82.9 L333.4,82.2 L335.0,81.6 L336.2,81.1 L337.5,80.6 L337.8,80.4 L338.4,80.1 L339.2,79.6 L339.9,79.2 L340.0,78.7 L340.1,77.6 L340.1,77.1 L339.9,76.2 L339.4,74.2 L339.3,73.8 L338.1,71.9 L337.2,69.7 L336.3,67.3 L335.7,65.3 L335.0,63.6 L334.6,62.8 L333.7,61.5 L332.4,60.2 L330.7,58.5 L328.9,56.9 L327.3,55.9 L326.3,55.3 L325.3,54.7 L323.7,53.9 L322.2,53.2 L320.5,52.3 L319.6,51.6 L318.7,50.2 L318.1,49.6 L317.4,49.1 L316.2,49.3 L314.7,49.7 L313.3,50.5 L312.2,51.3 L310.9,52.4 L310.0,53.6 L309.1,54.9 L308.3,56.0 L307.6,57.1 L307.3,57.7 L307.3,58.8 L307.4,60.5 L307.5,62.2 L307.8,64.0 L308.1,66.3 L308.4,68.1 L309.1,69.8 L309.9,71.5 L310.9,73.1 L312.2,75.1 L313.8,77.4 L315.0,78.9 L316.1,80.4 L317.5,82.2 L319.3,84.1 L320.3,85.3 L321.2,85.8 L321.9,85.8 L323.1,85.0 L325.4,83.7 L327.0,83.2 L328.8,83.2 L330.3,83.2 L330.8,83.1 L331.4,82.9 Z" fill="#2f7825" stroke="none"/>
<path d="M659.9,168.5 L659.8,168.4 L656.3,165.6 L651.5,165.1 L646.9,166.8 L643.2,170.3 L642.0,174.1 L642.1,181.5 L643.1,189.3 L643.2,195.5 L641.8,201.0 L640.7,206.4 L641.5,211.2 L643.7,217.4 L646.4,223.4 L650.1,231.3 L652.7,235.7 L656.2,237.8 L660.7,239.2 L664.9,236.9 L666.9,232.8 L668.6,226.2 L669.0,219.8 L668.9,216.8 L670.7,215.1 L673.7,213.5 L677.3,213.2 L681.3,213.6 L686.4,211.9 L688.9,208.1 L690.5,203.8 L691.8,199.9 L692.5,194.6 L691.8,190.2 L691.1,185.4 L689.0,181.1 L686.0,177.4 L683.1,174.1 L681.1,171.8 L678.8,170.5 L676.6,170.7 L673.5,171.9 L668.3,171.5 L663.2,170.4 L659.9,168.5 Z" fill="#2f7825" stroke="none"/>
<path d="M108.5,569.9 L106.3,568.1 L103.1,567.1 L99.1,565.9 L95.0,565.6 L92.3,565.5 L89.6,566.0 L87.1,566.8 L85.8,568.6 L85.0,570.3 L83.8,572.1 L82.5,574.2 L81.5,576.0 L80.4,577.6 L79.8,579.5 L79.5,581.5 L79.4,583.4 L79.4,585.2 L79.3,587.2 L79.3,588.9 L79.4,590.2 L79.5,591.4 L80.0,592.5 L80.7,593.6 L81.4,594.2 L82.3,594.7 L83.3,595.2 L84.6,595.4 L86.5,595.6 L88.8,595.8 L91.3,596.0 L93.7,596.1 L96.6,596.2 L99.8,596.3 L103.1,596.3 L106.1,596.2 L108.1,596.0 L109.2,595.6 L111.0,594.6 L112.4,593.0 L113.2,591.2 L114.0,588.8 L114.8,586.3 L115.4,583.5 L115.6,581.5 L115.3,579.4 L114.6,576.8 L113.8,575.3 L112.5,573.9 L111.1,572.4 L109.7,571.1 L108.5,569.9 Z" fill="#2f7825" stroke="none"/>
<path d="M626.3,407.8 L356.2,282.6 L217.5,208.0" fill="none" stroke="#ffd64a" stroke-width="5" stroke-linecap="round" stroke-linejoin="round" opacity="0.95"/>
</svg>