<svg xmlns="http://www.w3.org/2000/svg" viewBox="0 0 800 489" preserveAspectRatio="xMidYMid meet">
<rect width="100%" height="100%" fill="#143018"/>
<path d="M458.1,526.9 L452.9,566.8 L466.7,566.8 L475.7,566.2 L489.3,564.9 L498.9,563.7 L505.1,563.3 L507.1,562.8 L510.0,554.3 L514.0,541.3 L515.4,538.4 L511.9,539.6 L506.3,543.5 L500.6,545.8 L491.8,548.0 L484.9,548.6 L478.1,548.6 L472.7,545.4 L466.7,539.9 L462.8,535.5 L460.2,528.3 L458.1,526.9 Z" fill="#2b5a2a" stroke="none"/>
<path d="M704.3,393.3 L302.1,206.8 L95.7,95.8" fill="none" stroke="#4e8b39" stroke-width="74.4" stroke-linecap="round" stroke-linejoin="round" opacity="0.85"/>
<path d="M-142.4,-82.7 L-142.8,-50.8 L-143.2,-36.2 L-143.4,-16.8 L-144.4,5.2 L-144.9,25.8 L-145.0,37.7 L-145.1,48.3 L-145.8,61.7 L-145.8,70.8 L-145.0,82.5 L-143.8,93.9 L-143.1,102.4 L-142.8,111.7 L-142.5,122.3 L-142.3,132.4 L-142.1,142.5 L-142.0,149.7 L-142.1,156.9 L-142.4,163.8 L-142.6,170.8 L-142.6,174.9 L-142.8,180.7 L-142.8,187.5 L-142.8,194.9 L-142.9,201.5 L-143.1,207.8 L-143.2,212.9 L-143.0,219.8 L-142.9,227.2 L-142.6,239.9 L-142.7,247.5 L-142.9,254.0 L-143.1,262.2 L-143.4,269.8 L-143.6,276.0 L-143.9,283.2 L-143.7,286.6 L-143.5,292.4 L-143.6,299.2 L-143.5,305.3 L-143.5,312.2 L-143.5,321.1 L-143.7,331.2 L-143.7,336.8 L-143.6,342.9 L-143.8,349.7 L-144.0,355.9 L-144.3,361.1 L-144.4,366.6 L-144.5,372.1 L-144.6,377.4 L-145.1,383.0 L-145.4,387.6 L-145.8,392.9 L-145.7,397.8 L-145.6,402.8 L-145.5,410.3 L-144.8,414.8 L-144.0,417.4 L-142.2,420.7 L-139.1,424.8 L-136.4,427.8 L-134.3,430.0 L-131.7,432.4 L-127.5,436.0 L-124.9,437.8 L-122.7,439.0 L-119.8,440.4 L-116.6,441.4 L-113.3,441.9 L-111.0,442.0 L-108.5,441.2 L-105.0,439.9 L-100.9,437.7 L-97.6,435.8 L-93.5,432.7 L-89.7,429.0 L-87.5,425.8 L-85.8,422.5 L-83.3,417.5 L-81.4,410.7 L-80.6,404.6 L-79.8,395.2 L-77.7,365.3 L-77.7,360.6 L-78.2,344.6 L-79.1,334.2 L-79.1,326.9 L-78.7,323.2 L-77.6,319.9 L-75.9,316.2 L-73.7,310.8 L-72.6,306.8 L-71.7,302.3 L-71.3,297.9 L-70.3,292.6 L-67.4,281.7 L-66.8,277.8 L-66.2,274.5 L-66.2,272.3 L-65.8,268.4 L-65.9,265.3 L-66.5,261.7 L-67.3,257.8 L-67.6,254.0 L-67.9,250.3 L-67.7,246.9 L-67.4,242.2 L-66.2,238.8 L-65.6,236.1 L-65.1,232.9 L-64.6,229.6 L-63.9,225.7 L-63.5,221.4 L-63.1,217.9 L-62.8,214.9 L-62.2,210.0 L-61.6,205.5 L-60.8,201.3 L-59.5,197.5 L-57.7,193.1 L-56.3,190.5 L-54.8,188.5 L-52.6,185.9 L-50.0,183.8 L-47.7,182.6 L-45.4,181.7 L-43.1,181.1 L-41.2,180.7 L-39.1,180.4 L-37.1,180.3 L-35.2,180.4 L-33.4,180.6 L-31.6,180.9 L-29.2,181.7 L-27.4,182.7 L-25.2,184.4 L-23.4,186.1 L-21.7,187.6 L-19.7,190.4 L-17.1,193.5 L-14.9,197.5 L-13.6,201.0 L-12.5,205.5 L-11.4,210.3 L-10.6,213.9 L-9.8,218.4 L-8.7,223.2 L-7.7,228.6 L-6.8,233.3 L-6.2,236.1 L-5.7,238.9 L-4.9,242.2 L-4.0,247.0 L-3.4,250.6 L-3.0,256.0 L-2.8,261.2 L-2.6,265.4 L-2.5,269.8 L-2.4,274.5 L-2.0,277.8 L-1.7,281.2 L-1.4,284.9 L-1.0,288.2 L-0.6,291.1 L0.0,295.5 L1.1,300.5 L1.9,304.3 L2.9,308.5 L3.4,312.7 L3.6,316.5 L3.7,321.1 L3.3,324.7 L2.5,330.4 L1.9,334.7 L1.4,339.7 L1.4,342.7 L1.2,346.5 L1.0,350.8 L0.8,356.3 L0.8,360.8 L0.6,364.4 L0.6,367.5 L0.5,371.8 L0.5,375.9 L0.4,380.0 L0.4,383.9 L0.3,388.1 L0.8,393.6 L0.9,397.2 L1.2,400.7 L2.1,404.2 L2.9,406.5 L4.8,410.1 L6.1,413.0 L7.7,415.4 L9.8,418.1 L11.9,420.4 L15.3,422.3 L19.0,423.8 L25.9,426.1 L32.4,427.1 L41.6,427.6 L44.3,427.0 L46.8,425.8 L49.7,423.7 L52.8,420.7 L56.0,412.9 L57.4,404.3 L57.9,393.5 L58.4,377.3 L58.2,351.7 L61.3,342.7 L65.8,333.3 L67.1,328.3 L66.5,310.1 L63.1,280.3 L58.4,250.0 L56.1,224.7 L51.8,205.0 L42.3,181.6 L34.5,168.0 L32.2,162.0 L25.1,132.2 L17.8,104.3 L10.4,76.7 L7.9,68.8 L6.6,62.6 L4.3,51.5 L3.0,44.7 L-1.1,29.5 L-4.0,23.8 L-5.8,20.8 L-8.0,15.3 L-9.5,8.7 L-24.8,17.0 L-34.1,13.4 L-40.0,4.2 L-41.2,-11.2 L-46.6,-35.8 L-51.8,-44.0 L-57.7,-51.9 L-68.2,-60.0 L-73.4,-64.0 L-85.7,-70.7 L-92.7,-74.6 L-98.2,-76.1 L-100.3,-76.6 L-116.7,-80.7 L-142.4,-82.7 Z" fill="#5a9540" stroke="none"/>
<path d="M38.8,487.8 L37.6,486.9 L36.0,485.5 L33.3,483.5 L31.0,482.0 L28.9,480.5 L26.6,478.8 L24.0,477.1 L22.1,476.2 L20.5,475.8 L17.2,475.7 L14.6,476.2 L12.4,477.0 L11.1,478.0 L9.3,479.2 L8.4,481.2 L7.5,483.6 L7.0,486.1 L6.4,490.2 L6.4,493.8 L6.4,498.2 L6.4,501.6 L6.4,505.8 L6.4,510.9 L6.8,518.2 L7.0,527.2 L7.2,535.1 L7.5,543.3 L7.5,550.1 L7.7,555.2 L7.6,559.4 L7.9,563.4 L7.9,565.2 L8.8,566.6 L9.8,567.3 L10.6,568.1 L12.9,568.1 L15.1,568.4 L17.4,568.1 L20.1,568.1 L22.5,568.1 L25.9,568.1 L28.2,568.3 L30.7,568.7 L33.3,568.7 L35.3,568.9 L37.9,569.3 L40.7,569.9 L43.4,570.2 L45.4,570.0 L47.1,569.4 L48.1,568.0 L49.1,565.6 L49.3,562.6 L49.3,558.9 L49.3,554.6 L49.4,549.3 L49.7,543.6 L49.7,536.0 L49.9,529.4 L50.2,521.7 L50.6,514.7 L50.8,509.0 L50.7,506.1 L50.5,503.8 L49.7,501.5 L47.4,497.6 L46.2,495.7 L44.2,493.4 L42.2,491.2 L40.5,489.5 L38.8,487.8 Z" fill="#5a9540" stroke="none"/>
<path d="M707.9,519.1 L707.7,521.9 L707.3,524.7 L706.0,527.1 L703.8,528.9 L700.6,530.1 L696.3,531.0 L692.1,531.3 L688.5,530.5 L684.0,528.7 L682.1,527.0 L679.5,524.8 L677.4,522.7 L678.7,526.7 L679.2,529.8 L678.5,535.3 L678.0,538.0 L679.4,542.4 L680.1,544.7 L679.9,549.2 L679.3,553.0 L683.8,562.9 L685.8,566.0 L690.2,568.4 L693.8,570.4 L697.0,574.6 L699.1,578.6 L700.4,584.9 L701.5,599.0 L702.4,619.6 L702.9,645.9 L702.6,655.8 L703.6,663.6 L706.5,671.9 L710.7,682.6 L712.9,689.2 L714.9,700.6 L715.4,713.3 L714.2,736.9 L712.9,766.8 L710.3,803.4 L709.3,822.3 L708.9,836.5 L708.7,845.0 L708.2,856.1 L709.2,859.5 L711.3,861.5 L714.0,863.3 L717.6,864.8 L723.7,870.5 L726.3,876.3 L727.0,883.3 L725.9,888.8 L720.3,894.4 L715.3,897.5 L710.4,902.7 L707.8,905.0 L704.0,906.1 L698.6,906.9 L694.4,910.8 L687.6,927.7 L676.0,965.0 L669.3,985.1 L662.5,997.5 L647.5,1015.9 L638.8,1027.4 L635.1,1035.8 L634.9,1043.2 L636.4,1049.1 L639.5,1054.6 L646.2,1060.0 L653.9,1064.0 L663.1,1066.9 L670.6,1067.5 L680.8,1063.7 L692.1,1054.1 L714.4,1024.8 L734.8,996.9 L752.1,965.5 L769.8,927.4 L779.2,906.0 L781.8,890.2 L782.9,874.4 L782.7,869.9 L778.6,859.2 L772.5,846.4 L769.3,837.9 L766.0,819.7 L762.0,797.4 L758.3,774.6 L755.9,752.2 L756.5,733.4 L757.1,725.4 L755.9,718.7 L752.0,708.0 L743.9,692.0 L730.6,674.6 L723.0,658.6 L723.2,651.0 L726.3,645.1 L731.9,638.4 L739.3,632.2 L743.3,624.9 L744.3,615.9 L742.6,594.9 L740.6,585.4 L735.3,575.7 L728.1,563.3 L722.4,550.3 L715.9,543.9 L711.4,536.5 L709.7,527.3 L707.9,519.1 Z" fill="#5a9540" stroke="none"/>
<path d="M178.8,385.2 L178.0,387.9 L176.9,389.0 L174.9,390.6 L171.2,392.3 L168.3,393.2 L165.3,393.5 L162.2,393.9 L159.8,393.7 L157.8,393.1 L155.8,392.3 L153.7,390.8 L152.5,387.3 L152.4,392.5 L152.8,396.5 L152.0,401.5 L151.2,406.2 L151.0,410.8 L151.5,413.4 L154.2,416.3 L157.7,419.3 L160.2,421.6 L162.3,423.9 L163.2,427.2 L162.9,432.4 L160.7,445.4 L158.6,453.8 L158.2,462.5 L157.9,469.2 L158.6,471.3 L159.6,473.1 L163.8,473.7 L170.4,473.6 L187.6,473.3 L195.4,473.4 L198.2,472.9 L199.5,471.4 L200.2,470.0 L204.4,446.8 L204.9,440.2 L203.3,436.9 L200.7,434.0 L197.2,430.6 L195.5,428.4 L194.7,424.8 L193.8,409.3 L192.5,407.3 L191.1,406.1 L187.9,404.9 L184.8,402.7 L181.6,398.7 L179.4,393.4 L178.8,389.6 L178.8,385.2 Z" fill="#5a9540" stroke="none"/>
<path d="M133.7,507.4 L196.7,506.0 L188.1,591.2 L134.7,593.6 L133.7,507.4 Z" fill="#5a9540" stroke="none"/>
<path d="M-67.5,374.6 L-68.4,374.6 L-69.6,374.5 L-71.2,375.0 L-72.0,376.1 L-72.7,377.1 L-73.0,378.7 L-73.1,379.9 L-73.2,381.2 L-73.3,382.0 L-73.2,383.0 L-73.2,383.8 L-73.2,384.5 L-73.1,385.1 L-72.7,385.6 L-72.4,386.3 L-72.2,386.9 L-72.1,387.4 L-71.9,388.3 L-72.1,389.6 L-72.2,391.0 L-72.1,392.3 L-71.9,393.5 L-71.8,394.4 L-71.7,395.3 L-71.6,396.3 L-71.7,397.6 L-71.8,398.6 L-72.1,399.6 L-72.4,400.5 L-72.7,401.5 L-73.1,402.5 L-73.3,403.3 L-73.8,403.8 L-74.1,404.9 L-74.2,405.9 L-74.3,406.9 L-74.5,407.8 L-74.6,408.7 L-74.9,409.4 L-75.3,410.3 L-75.6,411.2 L-75.8,412.1 L-76.1,412.9 L-76.5,414.0 L-76.7,414.9 L-76.9,415.9 L-77.0,416.8 L-76.7,417.3 L-76.5,418.1 L-76.1,418.6 L-75.6,419.1 L-75.1,419.6 L-74.6,419.9 L-73.9,420.2 L-73.2,420.4 L-72.5,420.5 L-71.8,420.5 L-71.2,420.6 L-70.5,420.6 L-70.0,420.4 L-69.4,420.2 L-68.9,419.8 L-68.5,419.5 L-68.2,419.0 L-67.8,418.4 L-67.4,418.0 L-67.1,417.3 L-66.6,416.8 L-66.2,416.5 L-65.6,416.1 L-65.1,416.0 L-64.3,415.8 L-63.7,415.5 L-63.3,415.3 L-62.8,415.2 L-62.4,414.9 L-62.1,414.7 L-61.9,414.3 L-61.6,413.9 L-61.2,413.5 L-60.9,412.7 L-60.8,412.4 L-60.4,412.0 L-60.1,411.7 L-59.9,411.2 L-59.9,410.6 L-59.8,409.7 L-59.8,409.1 L-59.8,408.4 L-59.7,407.9 L-59.7,407.3 L-59.5,406.9 L-59.3,406.5 L-59.0,406.2 L-58.7,405.9 L-58.3,405.4 L-57.9,405.1 L-57.5,404.6 L-57.2,404.3 L-57.0,404.0 L-56.6,403.5 L-56.5,403.1 L-56.5,402.6 L-56.4,402.0 L-56.3,401.3 L-56.2,400.5 L-56.2,399.8 L-56.2,399.1 L-56.3,398.5 L-56.3,397.9 L-56.3,397.2 L-56.5,396.3 L-56.5,395.7 L-56.5,394.8 L-56.5,394.1 L-56.7,393.1 L-56.8,392.4 L-57.2,391.8 L-57.5,391.1 L-57.8,390.4 L-58.1,389.5 L-58.5,388.8 L-58.8,388.1 L-58.9,387.5 L-58.8,387.0 L-58.8,386.2 L-58.7,385.6 L-58.7,384.4 L-58.7,383.4 L-58.7,382.6 L-58.9,381.6 L-59.0,380.6 L-59.0,380.0 L-59.2,379.2 L-59.5,378.6 L-59.9,377.6 L-60.2,377.0 L-60.8,376.4 L-61.6,376.0 L-62.4,375.7 L-64.1,375.1 L-65.0,375.0 L-65.8,374.7 L-66.7,374.6 L-67.5,374.6 Z" fill="#e7d6a3" stroke="none"/>
<path d="M-9.8,355.0 L-11.1,354.8 L-12.6,355.0 L-13.5,355.0 L-14.4,355.2 L-15.4,355.5 L-16.2,356.0 L-16.6,356.6 L-16.8,357.3 L-17.1,358.0 L-17.5,358.6 L-17.9,359.5 L-18.3,360.3 L-18.6,360.9 L-19.2,361.5 L-19.7,362.7 L-20.2,363.9 L-20.5,365.1 L-20.7,366.1 L-20.9,367.3 L-21.4,368.1 L-21.9,369.1 L-22.6,369.7 L-23.2,370.3 L-23.9,371.0 L-24.7,371.7 L-25.4,372.3 L-26.4,372.9 L-27.3,373.6 L-28.0,374.3 L-28.9,374.9 L-29.7,375.5 L-30.1,376.6 L-30.2,377.7 L-30.1,378.9 L-29.9,379.9 L-29.9,380.8 L-29.3,381.8 L-28.7,382.5 L-28.2,383.0 L-27.5,383.6 L-26.8,384.4 L-26.2,385.1 L-25.7,385.8 L-25.4,386.6 L-25.0,387.5 L-24.6,388.1 L-24.0,388.6 L-23.3,389.0 L-22.4,389.3 L-21.7,389.2 L-20.9,389.4 L-20.1,389.2 L-19.4,388.9 L-18.8,388.4 L-18.2,387.9 L-17.0,387.3 L-16.2,386.9 L-15.5,386.9 L-14.9,387.1 L-14.1,387.1 L-13.5,387.3 L-12.8,387.3 L-12.1,387.2 L-11.5,386.9 L-10.9,386.6 L-10.3,386.2 L-9.9,385.6 L-9.5,385.1 L-9.2,384.5 L-9.1,384.0 L-8.9,383.3 L-8.7,382.8 L-8.6,382.2 L-8.7,381.6 L-8.5,381.0 L-8.4,380.5 L-8.5,379.9 L-8.7,379.2 L-8.9,378.5 L-8.9,377.8 L-9.0,377.4 L-9.1,376.8 L-9.1,376.0 L-9.2,375.1 L-9.2,374.4 L-9.0,373.6 L-8.8,372.5 L-8.4,371.7 L-7.9,370.7 L-7.2,369.7 L-6.9,368.7 L-6.6,367.7 L-6.4,367.2 L-6.3,366.2 L-6.2,365.4 L-6.2,364.5 L-6.1,364.1 L-6.1,363.4 L-6.0,362.7 L-6.0,361.9 L-6.1,361.3 L-6.0,360.6 L-6.0,360.0 L-6.1,359.1 L-6.0,358.2 L-6.1,357.6 L-6.4,357.0 L-6.7,356.6 L-7.1,356.1 L-7.5,355.6 L-8.0,355.4 L-8.4,355.2 L-9.0,355.0 L-9.8,355.0 Z" fill="#e7d6a3" stroke="none"/>
<path d="M-33.1,273.6 L-33.9,273.6 L-35.2,273.1 L-36.5,272.3 L-37.7,271.5 L-38.7,270.9 L-39.6,270.8 L-40.9,270.4 L-42.2,270.1 L-43.4,270.2 L-44.2,270.7 L-45.6,271.4 L-46.5,271.6 L-47.0,272.7 L-47.2,273.7 L-47.7,274.9 L-48.4,275.9 L-48.7,276.7 L-49.0,277.7 L-49.8,278.5 L-50.2,279.4 L-50.6,280.5 L-51.1,281.8 L-51.5,283.3 L-52.0,284.2 L-52.5,285.0 L-53.2,285.9 L-53.9,286.5 L-54.7,287.3 L-55.3,287.9 L-56.3,288.8 L-56.9,289.4 L-57.7,290.1 L-58.4,290.5 L-59.0,291.2 L-59.5,291.8 L-59.7,292.3 L-60.2,293.0 L-60.4,293.6 L-60.7,294.4 L-60.8,295.2 L-61.1,295.9 L-61.3,296.8 L-61.4,297.3 L-61.2,298.1 L-60.9,298.9 L-60.3,299.8 L-59.8,300.6 L-58.7,301.3 L-58.0,301.6 L-57.4,301.9 L-56.6,302.0 L-55.7,302.0 L-55.0,302.0 L-54.0,302.0 L-53.4,302.2 L-52.6,302.1 L-51.8,301.9 L-51.2,301.7 L-50.5,301.5 L-49.9,301.1 L-49.6,301.3 L-48.6,301.1 L-48.1,300.9 L-47.5,301.1 L-46.7,301.4 L-46.2,301.6 L-45.6,301.8 L-44.9,302.0 L-44.2,302.4 L-43.7,302.5 L-43.1,302.4 L-42.6,302.6 L-42.2,302.8 L-41.8,302.5 L-41.3,302.0 L-40.7,301.3 L-40.2,300.8 L-39.5,300.3 L-38.9,299.9 L-38.3,299.4 L-37.7,299.0 L-37.2,298.7 L-36.5,298.3 L-36.1,298.0 L-35.5,297.7 L-35.0,297.6 L-34.4,297.6 L-34.0,297.6 L-33.5,297.5 L-33.1,297.1 L-32.8,296.8 L-32.4,296.6 L-31.8,296.4 L-31.2,296.3 L-30.5,296.6 L-29.8,296.7 L-29.3,296.7 L-28.7,296.7 L-27.7,296.7 L-27.0,296.8 L-26.2,296.7 L-25.5,296.7 L-24.8,296.6 L-24.0,296.4 L-23.6,296.3 L-23.0,296.4 L-22.6,296.0 L-22.1,295.6 L-21.7,295.1 L-21.5,294.6 L-21.5,294.0 L-21.4,293.5 L-21.2,292.7 L-21.1,292.2 L-20.9,291.7 L-20.7,291.2 L-20.6,290.4 L-20.2,289.1 L-20.2,288.3 L-20.3,287.7 L-20.2,287.1 L-20.2,286.3 L-20.2,285.7 L-20.3,285.0 L-20.6,284.6 L-20.8,284.3 L-21.1,283.7 L-21.5,283.3 L-21.8,282.8 L-22.2,282.4 L-22.7,282.0 L-23.3,281.6 L-23.9,281.1 L-24.3,280.6 L-24.8,280.0 L-25.0,279.5 L-25.2,279.1 L-25.5,278.5 L-25.7,278.1 L-26.4,277.5 L-26.8,277.0 L-27.4,276.5 L-28.1,276.1 L-28.8,275.7 L-29.4,275.3 L-30.1,274.9 L-30.7,274.6 L-31.4,274.2 L-32.1,274.0 L-32.6,273.7 L-33.1,273.6 Z" fill="#e7d6a3" stroke="none"/>
<path d="M-56.6,319.0 L-57.3,318.5 L-57.9,318.1 L-58.6,317.7 L-59.1,317.2 L-59.9,316.9 L-60.7,316.4 L-61.1,316.4 L-61.6,316.2 L-62.4,315.7 L-63.1,315.5 L-64.0,315.3 L-64.7,315.3 L-65.3,315.3 L-66.1,315.5 L-66.7,315.8 L-67.4,316.1 L-68.1,316.5 L-68.7,316.9 L-69.3,317.5 L-69.7,318.1 L-70.2,318.5 L-70.6,319.2 L-70.9,320.1 L-71.2,320.9 L-71.3,321.7 L-71.3,322.6 L-71.1,323.6 L-70.9,324.3 L-70.7,325.1 L-70.5,325.9 L-70.4,327.1 L-70.3,327.9 L-70.3,329.1 L-70.4,329.9 L-70.3,330.8 L-70.2,331.5 L-69.7,332.2 L-69.2,332.8 L-68.4,333.3 L-67.7,333.6 L-66.7,334.0 L-65.9,334.3 L-65.0,334.7 L-64.0,335.1 L-62.9,335.3 L-61.9,335.8 L-61.2,336.4 L-60.5,337.1 L-59.9,337.6 L-59.4,338.5 L-58.9,339.3 L-58.5,340.0 L-58.0,340.8 L-57.5,341.5 L-56.9,342.3 L-56.2,343.1 L-55.6,343.8 L-54.6,344.8 L-53.9,345.3 L-53.3,345.7 L-52.6,346.0 L-51.4,346.0 L-50.0,345.8 L-49.0,345.5 L-48.2,345.2 L-47.5,344.8 L-46.6,344.2 L-45.4,343.4 L-44.5,342.6 L-43.7,341.8 L-43.3,340.7 L-42.9,339.8 L-42.4,339.0 L-42.0,338.0 L-41.5,337.6 L-40.6,336.7 L-40.0,336.1 L-39.5,335.4 L-38.7,334.4 L-38.1,333.9 L-37.4,333.1 L-36.9,332.5 L-36.3,331.6 L-35.8,330.9 L-35.1,330.1 L-34.7,329.5 L-33.9,328.3 L-33.2,327.6 L-32.5,327.1 L-31.6,326.9 L-30.8,327.0 L-29.7,327.3 L-29.0,327.7 L-27.9,328.2 L-26.4,328.7 L-25.1,329.2 L-23.7,329.7 L-22.3,330.0 L-20.9,330.4 L-19.4,330.9 L-17.7,330.6 L-16.5,330.3 L-15.5,330.1 L-14.8,329.7 L-14.1,329.0 L-13.2,328.3 L-12.6,327.9 L-11.8,327.5 L-10.6,327.3 L-9.1,327.0 L-8.2,326.3 L-7.4,325.6 L-6.8,324.9 L-6.2,324.0 L-5.9,322.7 L-5.8,322.0 L-5.9,321.3 L-5.7,320.8 L-5.8,320.3 L-6.2,319.8 L-6.3,318.8 L-6.3,318.1 L-6.5,317.1 L-7.1,316.1 L-7.9,315.4 L-8.9,315.2 L-9.7,315.0 L-10.7,314.8 L-11.6,314.4 L-12.4,314.4 L-13.4,314.6 L-14.3,314.5 L-15.2,314.2 L-16.6,314.4 L-17.7,314.5 L-18.4,314.8 L-18.8,315.1 L-19.4,315.2 L-20.0,315.5 L-20.5,315.6 L-21.3,315.6 L-22.0,315.5 L-22.7,315.2 L-23.5,314.8 L-24.3,314.5 L-25.0,314.3 L-25.7,314.0 L-26.5,313.9 L-27.1,313.8 L-27.9,313.7 L-28.6,313.6 L-29.5,313.4 L-30.3,313.4 L-31.2,313.5 L-32.0,313.7 L-32.8,313.9 L-33.6,314.2 L-34.4,314.6 L-35.1,315.0 L-35.9,315.3 L-36.8,315.9 L-37.4,316.4 L-38.1,316.7 L-38.8,317.1 L-39.8,317.3 L-40.8,317.6 L-41.7,317.4 L-42.6,317.3 L-43.7,317.2 L-44.5,317.1 L-45.3,317.1 L-45.9,317.3 L-46.8,317.4 L-47.8,317.6 L-49.5,317.8 L-50.6,318.1 L-51.8,318.2 L-53.4,318.6 L-54.7,318.8 L-55.6,318.9 L-56.6,319.0 Z" fill="#e7d6a3" stroke="none"/>
<path d="M81.2,336.7 L80.3,335.9 L79.1,335.6 L78.0,334.8 L76.7,334.4 L76.1,334.6 L74.9,334.6 L73.8,334.6 L72.5,335.0 L71.5,335.8 L70.8,336.6 L70.5,337.8 L70.2,339.2 L69.9,340.4 L69.8,341.6 L69.4,342.8 L68.9,343.9 L68.5,344.8 L67.8,346.1 L67.1,347.3 L66.8,348.0 L66.5,348.4 L66.0,349.0 L65.6,349.8 L65.3,350.4 L65.0,350.9 L64.5,351.6 L64.2,352.4 L64.0,353.1 L63.7,353.8 L63.5,354.6 L63.3,355.3 L63.1,356.2 L62.9,357.3 L62.8,359.4 L62.9,360.9 L62.9,362.7 L62.9,364.3 L62.8,365.7 L62.7,367.2 L62.7,369.0 L62.6,370.6 L62.5,372.0 L62.5,373.8 L62.5,375.2 L62.7,376.0 L62.9,376.9 L63.0,377.9 L63.2,378.7 L63.2,379.5 L63.3,380.3 L63.2,382.1 L63.2,383.5 L63.1,384.7 L63.1,385.3 L63.2,385.8 L63.2,386.7 L63.1,387.8 L63.3,388.7 L63.3,389.5 L63.4,390.4 L63.6,391.2 L63.8,391.7 L64.0,392.1 L64.4,392.6 L64.7,392.7 L65.1,392.6 L65.4,392.8 L66.2,393.2 L67.0,393.6 L67.9,393.8 L68.7,393.5 L69.4,393.1 L70.2,392.7 L71.1,392.5 L71.7,392.0 L72.4,391.5 L73.0,391.0 L73.5,390.7 L74.2,390.5 L74.9,390.3 L75.6,390.1 L76.4,390.0 L76.9,389.8 L77.5,389.3 L78.1,388.9 L78.6,388.4 L79.1,387.9 L79.4,386.7 L79.7,386.0 L79.8,385.0 L79.8,384.3 L79.6,383.6 L79.5,382.9 L79.3,382.5 L78.9,382.1 L78.2,381.5 L77.7,380.8 L77.2,380.0 L76.9,379.4 L76.7,378.3 L76.7,377.3 L76.6,376.4 L76.9,375.8 L76.9,375.3 L76.9,374.7 L76.9,374.1 L76.9,373.2 L76.6,372.3 L76.3,371.3 L76.1,370.2 L75.8,369.2 L75.6,368.0 L75.7,366.6 L76.3,365.5 L77.0,364.5 L77.9,363.6 L78.4,362.7 L78.9,361.8 L79.2,361.0 L79.4,359.6 L79.6,358.1 L79.7,356.6 L79.8,355.2 L79.8,353.9 L79.6,352.4 L79.5,350.9 L79.4,349.3 L79.7,348.1 L80.3,347.0 L80.8,345.9 L81.3,344.7 L81.7,343.1 L82.0,341.5 L82.2,340.1 L82.3,338.7 L81.8,337.6 L81.2,336.7 Z" fill="#e7d6a3" stroke="none"/>
<path d="M64.2,101.4 L64.8,99.1 L65.0,97.6 L63.9,96.2 L61.9,95.5 L59.3,95.5 L57.7,96.3 L57.0,97.3 L56.2,97.8 L55.5,99.6 L55.9,102.1 L56.7,104.3 L57.0,106.4 L57.0,108.5 L57.6,109.9 L57.9,110.7 L59.3,111.5 L61.0,111.9 L63.0,111.7 L64.3,111.2 L65.9,109.4 L65.9,106.8 L65.3,104.8 L64.7,104.1 L64.6,102.9 L64.2,101.4 Z" fill="#e7d6a3" stroke="none"/>
<path d="M92.6,122.2 L87.8,121.7 L84.5,121.4 L83.1,122.5 L82.8,124.8 L82.7,127.2 L82.8,129.4 L83.6,130.7 L85.0,131.4 L87.0,132.0 L91.8,132.1 L94.9,131.4 L97.7,130.7 L98.3,130.5 L100.8,130.7 L102.3,131.6 L103.2,132.2 L105.4,131.9 L108.0,132.3 L112.6,132.6 L116.4,132.5 L117.7,131.1 L118.4,129.0 L118.7,126.6 L117.6,124.7 L115.9,122.8 L115.0,121.0 L114.1,119.4 L113.5,118.8 L111.1,118.7 L108.1,118.7 L105.9,118.9 L103.8,119.6 L101.0,120.1 L99.4,120.1 L97.2,120.9 L94.8,122.0 L92.6,122.2 Z" fill="#e7d6a3" stroke="none"/>
<path d="M145.9,119.0 L145.4,115.6 L146.2,112.7 L145.3,110.0 L144.0,108.1 L142.1,107.4 L140.1,106.2 L138.8,104.5 L137.1,102.7 L136.5,102.5 L134.1,102.2 L132.1,102.3 L130.5,102.7 L129.6,103.4 L129.4,106.9 L127.7,110.4 L126.4,113.3 L126.9,114.9 L128.3,117.1 L130.2,119.1 L132.9,121.3 L135.2,123.3 L136.0,123.7 L138.3,123.8 L141.1,123.8 L143.3,122.7 L145.2,121.2 L145.9,120.1 L145.9,119.0 Z" fill="#e7d6a3" stroke="none"/>
<path d="M146.3,94.0 L145.7,90.4 L145.0,88.4 L142.8,87.0 L140.7,85.2 L139.8,82.7 L139.7,81.6 L138.2,80.2 L135.6,78.4 L129.0,78.7 L127.0,79.9 L126.0,81.5 L125.9,83.4 L127.4,86.7 L128.2,89.7 L128.7,92.7 L128.9,93.8 L129.9,94.7 L131.9,94.9 L134.5,94.9 L136.5,95.2 L139.1,96.8 L140.5,97.9 L142.0,98.2 L144.0,97.5 L145.2,96.3 L145.8,95.7 L146.3,94.0 Z" fill="#e7d6a3" stroke="none"/>
<path d="M188.9,335.4 L188.1,333.3 L188.1,331.2 L187.1,330.4 L184.6,330.5 L182.2,331.4 L179.7,332.6 L178.7,332.9 L175.7,332.6 L172.3,332.2 L171.0,331.8 L169.5,331.8 L168.7,332.5 L168.2,333.4 L167.8,334.6 L167.8,336.4 L168.0,337.9 L169.2,338.8 L170.9,339.0 L173.7,339.1 L176.1,339.2 L177.9,339.3 L180.6,339.6 L182.6,340.4 L184.8,340.9 L186.2,340.3 L187.8,338.9 L188.9,337.6 L189.2,336.8 L189.2,336.1 L188.9,335.4 Z" fill="#e7d6a3" stroke="none"/>
<path d="M205.6,393.4 L203.9,388.8 L203.1,387.7 L201.3,385.7 L200.7,384.2 L201.1,379.8 L199.7,377.1 L198.2,374.8 L197.3,373.6 L196.9,369.8 L196.8,366.2 L197.4,363.2 L196.5,359.8 L194.2,359.2 L191.1,359.8 L190.1,360.7 L189.7,362.2 L190.0,365.1 L190.0,369.3 L190.0,374.6 L188.9,377.5 L187.5,379.6 L187.0,381.3 L186.6,384.8 L185.9,387.0 L184.2,388.8 L182.9,390.4 L182.6,391.5 L183.0,393.9 L185.4,398.7 L187.5,401.3 L189.0,402.7 L190.8,403.2 L194.3,403.1 L198.4,402.2 L200.8,401.9 L207.6,401.7 L210.8,400.4 L212.5,399.0 L213.0,397.2 L212.2,396.1 L210.4,394.8 L208.2,394.4 L206.5,394.1 L205.6,393.4 Z" fill="#e7d6a3" stroke="none"/>
<path d="M214.6,419.1 L213.3,417.8 L212.1,416.0 L210.4,415.1 L208.5,415.5 L206.6,415.9 L204.2,415.6 L203.0,415.5 L200.2,416.7 L199.7,417.8 L199.5,419.5 L199.8,421.8 L199.2,423.8 L198.5,424.7 L198.5,427.1 L199.6,429.0 L200.9,430.2 L203.3,430.5 L207.2,429.7 L208.8,429.3 L210.8,429.6 L214.5,430.8 L215.9,431.3 L217.7,431.1 L218.8,430.2 L218.9,428.0 L219.7,426.3 L219.6,423.0 L219.5,420.9 L218.8,420.2 L216.9,419.6 L215.6,419.6 L214.6,419.1 Z" fill="#e7d6a3" stroke="none"/>
<path d="M153.8,468.6 L152.9,463.5 L152.7,460.4 L153.4,457.3 L152.7,450.8 L153.9,447.4 L156.1,439.2 L155.9,433.9 L157.5,428.8 L156.7,425.9 L155.6,424.7 L149.7,423.0 L148.2,421.4 L146.1,416.5 L143.9,414.1 L139.7,415.4 L136.8,418.7 L134.9,420.5 L132.9,421.5 L132.5,423.3 L133.8,426.7 L136.9,429.7 L137.8,431.6 L137.5,433.4 L137.5,434.3 L140.1,436.7 L141.1,438.9 L141.8,444.4 L142.1,451.9 L142.8,457.5 L141.3,460.1 L138.3,461.8 L133.1,464.6 L132.9,466.0 L134.6,471.7 L136.9,474.5 L138.7,474.4 L144.3,471.8 L146.4,471.2 L149.4,471.1 L151.9,470.2 L153.8,468.6 Z" fill="#e7d6a3" stroke="none"/>
<path d="M501.3,426.6 L501.1,423.3 L500.0,420.8 L496.2,418.4 L494.0,417.3 L491.9,417.0 L488.4,421.3 L488.1,423.9 L488.7,428.4 L488.0,435.8 L487.7,436.5 L488.0,437.7 L489.3,439.1 L490.7,440.0 L492.5,439.8 L494.1,438.1 L497.4,432.3 L498.9,429.8 L500.3,428.4 L501.3,426.6 Z" fill="#e7d6a3" stroke="none"/>
<path d="M547.1,450.6 L548.1,446.5 L547.4,444.3 L546.9,441.7 L547.1,438.2 L547.6,432.9 L546.8,431.0 L544.1,429.4 L540.9,428.8 L537.9,428.9 L534.5,430.3 L532.6,431.4 L531.7,433.2 L530.9,436.5 L531.2,441.0 L533.4,446.6 L533.0,451.2 L532.7,454.8 L532.9,456.3 L534.5,457.3 L536.4,457.3 L538.6,456.1 L542.1,453.5 L545.2,452.0 L547.1,450.6 Z" fill="#e7d6a3" stroke="none"/>
<path d="M544.0,401.2 L548.4,394.1 L548.5,388.1 L549.5,385.1 L549.7,382.2 L548.3,378.6 L548.0,375.2 L549.1,371.1 L549.2,368.1 L545.4,363.8 L541.9,361.1 L539.7,360.2 L537.3,360.4 L534.2,362.6 L533.6,365.6 L538.8,373.9 L541.9,380.5 L542.1,382.7 L541.1,387.4 L541.1,394.9 L540.8,399.8 L541.4,400.8 L542.7,401.3 L544.0,401.2 Z" fill="#e7d6a3" stroke="none"/>
<path d="M190.0,162.8 L193.8,166.4 L196.8,167.0 L198.8,167.2 L201.5,166.7 L203.6,167.8 L207.6,169.0 L210.9,167.3 L213.3,163.8 L213.1,161.2 L211.0,159.1 L207.8,157.5 L205.4,156.1 L202.5,152.8 L198.6,151.4 L196.3,149.7 L194.7,146.2 L191.8,143.7 L190.3,143.6 L182.1,150.4 L182.4,155.6 L183.8,157.2 L186.3,161.0 L188.2,162.3 L190.0,162.8 Z" fill="#e7d6a3" stroke="none"/>
<path d="M248.3,191.2 L249.3,187.8 L250.2,186.4 L249.7,182.5 L248.2,180.7 L245.9,178.4 L243.7,175.7 L242.5,174.9 L240.0,174.7 L236.7,176.0 L233.6,179.1 L229.9,181.1 L229.0,183.9 L229.0,186.1 L234.8,191.9 L235.8,193.7 L238.9,201.0 L239.9,201.3 L242.1,202.8 L243.5,203.4 L245.4,203.7 L247.6,202.4 L249.3,200.3 L249.8,197.2 L248.8,194.6 L247.6,192.8 L248.3,191.2 Z" fill="#e7d6a3" stroke="none"/>
<path d="M190.3,102.3 L191.5,98.3 L192.6,97.0 L196.5,95.4 L199.6,92.0 L202.5,90.1 L206.4,88.7 L207.6,86.7 L207.2,82.8 L205.7,80.7 L202.5,79.4 L200.5,77.9 L199.1,75.8 L196.7,74.8 L193.3,74.9 L188.9,76.6 L187.0,81.0 L184.6,84.0 L181.7,85.6 L178.9,88.7 L173.7,91.3 L171.6,95.0 L172.0,97.5 L173.8,99.5 L176.7,100.5 L180.3,100.6 L183.4,102.6 L185.2,104.1 L186.9,104.7 L189.0,103.8 L190.3,102.3 Z" fill="#e7d6a3" stroke="none"/>
<path d="M275.7,120.8 L278.9,119.3 L282.4,115.2 L283.8,111.5 L284.0,108.8 L284.9,107.2 L285.5,104.6 L284.5,103.1 L282.0,101.5 L279.9,101.1 L277.9,102.1 L276.3,105.3 L274.9,108.4 L273.0,110.3 L271.2,110.7 L268.4,110.5 L267.0,111.1 L266.2,112.6 L266.7,116.8 L268.7,118.0 L271.5,119.4 L275.7,120.8 Z" fill="#e7d6a3" stroke="none"/>
<path d="M295.3,133.1 L294.4,127.7 L294.6,125.0 L296.3,121.9 L297.0,119.5 L298.2,117.3 L298.9,116.2 L299.2,114.6 L298.6,112.3 L296.7,111.1 L294.9,110.7 L292.7,110.5 L291.5,110.9 L290.8,113.1 L290.0,116.4 L289.0,119.1 L288.1,121.2 L286.1,122.5 L283.9,123.2 L284.2,126.6 L285.4,128.1 L287.1,129.0 L288.0,130.1 L288.3,131.5 L289.6,134.0 L291.6,135.1 L293.4,135.1 L294.7,134.5 L295.3,133.1 Z" fill="#e7d6a3" stroke="none"/>
<path d="M306.9,136.4 L309.5,134.5 L310.5,132.4 L310.5,129.0 L309.8,126.5 L308.9,123.7 L307.5,121.9 L306.1,120.9 L304.2,120.7 L302.9,122.4 L302.6,124.5 L302.8,125.9 L302.7,128.4 L302.0,130.3 L301.2,131.3 L301.1,133.1 L302.3,134.6 L303.7,135.9 L305.2,136.4 L306.9,136.4 Z" fill="#e7d6a3" stroke="none"/>
<path d="M734.3,531.0 L733.2,530.3 L731.5,530.3 L729.1,530.5 L727.0,530.2 L725.3,528.3 L723.2,526.2 L721.5,525.2 L719.4,526.4 L717.8,527.7 L716.5,529.0 L715.6,529.9 L715.7,532.5 L716.7,534.7 L717.6,536.8 L717.8,537.6 L717.3,538.4 L717.5,539.8 L718.4,540.9 L719.5,542.4 L721.0,544.2 L722.6,545.0 L723.3,545.1 L726.3,544.8 L728.6,544.4 L731.7,544.0 L733.8,544.1 L734.8,543.7 L736.3,542.5 L737.1,542.0 L737.5,539.1 L737.0,536.9 L735.6,533.9 L734.9,532.3 L734.3,531.0 Z" fill="#e7d6a3" stroke="none"/>
<path d="M674.9,561.5 L676.0,560.9 L677.0,559.6 L677.1,558.4 L675.3,554.5 L675.0,553.3 L675.4,551.3 L676.3,548.4 L676.5,544.5 L674.8,542.5 L673.8,542.1 L670.6,541.6 L666.9,542.2 L664.4,543.4 L662.6,545.5 L661.2,548.2 L661.1,550.7 L662.4,553.3 L662.6,555.5 L662.6,557.1 L663.4,558.3 L664.3,559.1 L666.3,559.5 L667.8,559.5 L670.1,560.4 L672.5,561.4 L674.9,561.5 Z" fill="#e7d6a3" stroke="none"/>
<path d="M669.7,536.8 L672.8,535.6 L674.3,534.3 L675.1,532.7 L674.5,529.3 L673.8,526.7 L672.7,525.7 L669.9,524.5 L668.0,524.5 L666.1,524.9 L664.7,526.3 L663.5,528.0 L661.8,529.7 L659.6,530.7 L657.9,530.8 L655.7,531.2 L654.4,531.9 L653.9,532.8 L654.3,534.8 L655.0,536.8 L655.5,538.1 L655.4,540.2 L655.7,541.0 L656.0,541.7 L656.6,542.4 L657.3,542.7 L658.7,542.8 L659.5,541.4 L661.0,539.4 L663.4,537.6 L664.8,536.9 L666.9,536.9 L668.4,536.9 L669.7,536.8 Z" fill="#e7d6a3" stroke="none"/>
<path d="M659.3,523.2 L661.5,520.3 L661.9,519.1 L661.7,517.7 L659.4,513.2 L657.9,509.8 L657.6,505.7 L657.4,502.7 L656.4,500.8 L655.3,500.0 L653.8,500.0 L652.0,500.5 L650.6,502.2 L650.2,505.1 L650.2,508.7 L650.8,512.3 L650.5,514.5 L648.9,517.0 L648.4,521.1 L648.8,524.5 L649.8,526.3 L651.3,527.2 L652.5,527.4 L656.0,524.4 L657.2,523.5 L659.3,523.2 Z" fill="#e7d6a3" stroke="none"/>
<path d="M781.7,129.2 L780.7,125.2 L778.8,122.5 L777.0,121.3 L775.6,121.3 L773.5,123.0 L773.0,126.0 L773.2,129.8 L773.7,132.8 L775.4,136.1 L778.0,139.8 L779.7,141.3 L781.4,141.5 L782.6,140.8 L783.8,139.7 L785.0,138.1 L785.8,136.2 L785.7,135.2 L784.4,132.6 L782.8,131.2 L781.7,129.2 Z" fill="#e7d6a3" stroke="none"/>
<path d="M746.1,149.2 L743.1,147.5 L740.0,147.7 L738.3,149.9 L737.1,152.4 L736.0,154.6 L736.0,155.8 L736.5,157.0 L738.7,157.8 L741.2,158.7 L743.5,159.3 L745.5,159.5 L747.2,159.1 L749.4,157.7 L750.0,155.3 L749.6,152.7 L747.8,150.4 L746.1,149.2 Z" fill="#e7d6a3" stroke="none"/>
<path d="M732.8,132.3 L732.1,129.2 L730.2,126.9 L727.2,126.4 L724.4,128.1 L722.1,130.3 L721.5,131.7 L720.5,134.3 L721.6,138.9 L721.6,140.4 L721.4,141.2 L722.5,142.8 L725.5,144.1 L728.2,144.1 L731.1,142.9 L732.7,140.8 L734.1,138.8 L734.8,136.2 L734.1,134.1 L732.8,132.3 Z" fill="#e7d6a3" stroke="none"/>
<path d="M712.7,93.2 L714.0,92.5 L717.9,85.0 L716.6,81.8 L714.6,80.5 L712.3,80.4 L709.0,81.1 L706.9,82.5 L706.4,84.1 L706.1,87.3 L706.1,89.5 L707.0,91.8 L709.7,94.0 L711.2,94.2 L712.0,93.9 L712.7,93.2 Z" fill="#e7d6a3" stroke="none"/>
<path d="M263.3,-74.1 L264.1,-77.0 L265.2,-78.5 L265.0,-82.2 L262.9,-84.8 L260.2,-85.6 L257.6,-84.6 L255.3,-82.5 L253.8,-81.3 L251.3,-81.0 L248.9,-80.1 L247.6,-77.6 L248.4,-73.7 L251.5,-69.9 L252.7,-66.6 L252.9,-65.1 L255.5,-62.9 L256.5,-62.2 L260.1,-62.9 L263.9,-65.7 L265.4,-67.9 L264.8,-71.0 L263.3,-74.1 Z" fill="#e7d6a3" stroke="none"/>
<path d="M440.3,44.5 L446.8,42.5 L454.1,43.6 L455.7,42.6 L456.3,40.4 L455.1,37.2 L455.0,34.0 L456.1,31.0 L455.3,27.6 L451.9,25.7 L444.9,25.4 L442.1,24.8 L436.9,27.2 L434.0,26.6 L430.8,24.7 L427.7,24.8 L424.4,25.6 L419.1,25.1 L414.8,27.4 L413.2,29.7 L413.3,33.0 L413.5,35.2 L416.1,36.8 L418.2,37.7 L424.4,37.8 L427.4,38.0 L430.7,39.9 L433.2,42.0 L440.3,44.5 Z" fill="#e7d6a3" stroke="none"/>
<path d="M491.4,69.6 L495.9,74.9 L497.1,76.1 L498.8,76.6 L506.6,78.5 L515.3,74.8 L517.5,69.9 L519.2,64.1 L519.3,62.1 L517.8,59.8 L514.1,58.2 L510.5,56.9 L508.8,56.7 L504.4,57.1 L501.3,56.1 L494.6,50.9 L491.1,48.5 L487.2,46.7 L485.5,46.6 L480.6,50.4 L480.8,52.8 L479.9,55.6 L478.5,58.6 L479.3,62.1 L481.2,65.1 L483.8,67.0 L488.6,68.3 L491.4,69.6 Z" fill="#e7d6a3" stroke="none"/>
<path d="M348.9,80.8 L353.7,79.5 L359.4,78.8 L363.2,76.9 L365.3,72.7 L366.8,71.4 L372.7,70.1 L374.1,68.9 L373.8,64.0 L371.8,61.1 L370.6,60.1 L367.2,60.3 L365.5,60.4 L363.6,58.1 L361.4,57.1 L358.7,57.6 L356.7,60.0 L355.7,60.8 L352.2,62.2 L347.8,65.9 L345.7,66.7 L343.9,66.3 L340.7,63.8 L337.8,63.0 L335.0,64.5 L333.9,65.8 L333.9,68.0 L335.6,70.9 L338.7,73.3 L341.0,75.5 L341.9,77.0 L343.9,78.9 L346.8,80.6 L348.9,80.8 Z" fill="#e7d6a3" stroke="none"/>
<path d="M357.0,21.3 L359.3,23.6 L360.2,25.5 L359.1,28.8 L358.1,30.6 L356.4,31.9 L354.2,32.3 L352.0,30.6 L349.2,29.3 L346.0,28.0 L343.4,28.3 L341.3,28.4 L339.2,27.1 L337.5,24.4 L335.6,20.8 L335.0,17.2 L336.4,15.1 L339.3,13.8 L341.9,13.7 L344.8,15.0 L347.6,14.9 L349.8,14.1 L351.7,14.1 L354.0,15.8 L354.7,18.3 L355.7,20.1 L357.0,21.3 Z" fill="#e7d6a3" stroke="none"/>
<path d="M132.2,362.1 L130.6,363.0 L129.2,363.8 L128.2,365.0 L127.9,366.6 L128.2,368.3 L128.7,370.1 L129.2,372.4 L129.4,374.1 L129.4,374.9 L129.3,376.0 L128.8,376.9 L128.3,377.7 L127.9,378.5 L128.0,379.4 L128.0,380.5 L128.3,382.5 L128.7,383.6 L129.0,384.9 L129.4,385.7 L129.8,386.6 L129.9,387.7 L129.8,388.9 L129.6,390.3 L129.3,391.4 L129.2,393.2 L129.6,394.5 L130.1,395.7 L130.6,396.5 L131.5,397.2 L132.3,397.7 L133.5,398.4 L134.7,398.7 L135.8,398.9 L137.2,399.4 L138.3,399.9 L139.7,400.3 L141.0,400.2 L142.5,400.2 L143.8,400.0 L145.4,399.7 L146.5,399.3 L147.5,398.8 L147.8,397.9 L147.9,396.7 L147.7,395.2 L146.8,393.9 L146.5,392.8 L145.9,391.2 L145.9,389.7 L145.8,388.7 L145.6,387.3 L145.4,386.1 L145.0,385.1 L144.1,384.5 L143.2,383.8 L142.4,383.2 L141.9,382.6 L141.5,381.3 L141.4,380.1 L141.3,379.2 L141.6,377.8 L141.6,376.4 L141.2,375.0 L140.8,373.9 L140.4,372.7 L139.9,371.8 L139.4,370.9 L139.4,369.6 L139.1,368.2 L138.9,366.7 L138.3,365.1 L137.5,363.2 L136.5,362.4 L135.0,361.8 L133.6,361.8 L132.2,362.1 Z" fill="#e7d6a3" stroke="none"/>
<path d="M697.0,258.1 L703.6,243.7 L719.7,251.1 L713.1,265.5 L697.0,258.1 Z" fill="#4f8a3e" stroke="none"/>
<path d="M759.0,278.7 L790.3,296.5 L799.7,280.0 L768.4,262.2 L759.0,278.7 Z" fill="#4f8a3e" stroke="none"/>
<path d="M803.3,300.7 L812.0,285.9 L832.2,297.8 L823.5,312.5 L803.3,300.7 Z" fill="#4f8a3e" stroke="none"/>
<path d="M538.9,307.0 L534.2,322.2 L550.2,327.2 L555.0,312.0 L538.9,307.0 Z" fill="#4f8a3e" stroke="none"/>
<path d="M572.3,317.4 L568.9,329.4 L576.6,332.3 L580.6,319.8 L576.0,318.5 L572.3,317.4 Z" fill="#4f8a3e" stroke="none"/>
<path d="M599.7,335.1 L644.4,353.8 L639.7,365.0 L595.0,346.3 L599.7,335.1 Z" fill="#4f8a3e" stroke="none"/>
<path d="M651.2,370.9 L656.0,360.3 L684.2,372.2 L679.6,383.5 L664.6,377.0 L651.2,370.9 Z" fill="#4f8a3e" stroke="none"/>
<path d="M696.3,378.9 L690.3,392.8 L712.4,402.4 L718.4,388.4 L696.3,378.9 Z" fill="#4f8a3e" stroke="none"/>
<path d="M617.1,380.0 L606.9,429.9 L620.0,432.6 L630.2,382.6 L617.1,380.0 Z" fill="#4f8a3e" stroke="none"/>
<path d="M282.6,327.4 L281.3,347.1 L298.5,348.2 L299.8,328.5 L282.6,327.4 Z" fill="#4f8a3e" stroke="none"/>
<path d="M277.5,385.3 L276.7,407.0 L296.1,407.7 L296.9,386.1 L277.5,385.3 Z" fill="#4f8a3e" stroke="none"/>
<path d="M275.3,417.7 L272.0,476.7 L292.7,477.9 L296.0,418.8 L275.3,417.7 Z" fill="#4f8a3e" stroke="none"/>
<path d="M319.1,496.8 L332.1,499.6 L328.8,515.0 L315.9,512.2 L319.1,496.8 Z" fill="#4f8a3e" stroke="none"/>
<path d="M659.2,316.6 L662.9,302.5 L677.6,306.3 L673.9,320.5 L659.2,316.6 Z" fill="#4f8a3e" stroke="none"/>
<path d="M650.5,217.2 L663.6,225.4 L658.0,234.2 L644.9,226.0 L650.5,217.2 Z" fill="#4f8a3e" stroke="none"/>
<path d="M892.1,183.4 L890.3,202.5 L882.3,202.2 L873.7,202.3 L868.6,200.5 L862.8,195.4 L857.1,191.4 L852.0,189.8 L840.1,188.4 L841.7,166.9 L859.2,168.5 L870.4,172.2 L878.0,180.3 L880.9,181.6 L892.1,183.4 Z" fill="#4f8a3e" stroke="none"/>
<path d="M-68.2,-60.0 L-57.7,-51.9 L-51.8,-44.0 L-46.6,-35.8 L-41.2,-11.2 L-40.0,4.2 L-34.1,13.4 L-24.8,17.0 L-9.5,8.7 L-12.4,2.2 L-16.5,-7.7 L-22.1,-23.8 L-25.9,-39.4 L-29.0,-54.3 L-31.6,-73.5 L-35.4,-88.8 L-41.1,-101.3 L-54.2,-112.3 L-67.0,-116.6 L-68.2,-60.0 Z" fill="#4f8a3e" stroke="none"/>
<path d="M120.6,83.8 L115.5,82.0 L111.6,81.5 L107.0,80.9 L100.6,79.8 L92.7,78.5 L88.5,77.1 L85.5,76.1 L82.2,74.7 L80.1,72.6 L78.4,71.6 L76.3,71.1 L74.6,71.3 L72.8,72.0 L71.9,73.3 L71.3,76.0 L70.9,78.7 L70.6,82.1 L70.3,85.5 L70.0,90.6 L69.8,95.5 L70.4,101.0 L71.0,106.5 L71.7,110.7 L72.6,113.6 L73.9,115.4 L75.4,116.7 L77.2,117.5 L78.5,117.8 L80.3,117.5 L82.4,116.8 L85.0,116.3 L88.3,116.4 L91.7,116.1 L95.0,115.6 L97.9,114.7 L100.4,113.9 L102.6,113.4 L106.6,112.8 L110.8,112.9 L115.0,113.0 L117.3,113.2 L119.4,112.7 L120.9,111.0 L122.2,108.2 L123.4,104.8 L123.6,102.2 L123.4,97.6 L122.9,93.0 L122.1,89.0 L121.6,86.8 L120.6,83.8 Z" fill="#2f7825" stroke="none"/>
<path d="M183.7,368.0 L183.9,364.4 L184.0,361.5 L183.9,358.2 L183.8,354.3 L183.3,351.6 L182.7,349.7 L181.4,348.1 L179.1,346.6 L176.5,345.5 L173.9,344.9 L170.7,344.5 L166.6,344.0 L162.5,343.6 L159.2,343.3 L155.9,343.2 L153.4,343.5 L151.6,344.3 L149.8,345.7 L148.4,347.3 L147.6,349.5 L146.9,352.0 L146.5,354.2 L146.3,358.2 L146.5,361.8 L146.7,364.9 L147.1,368.2 L147.5,371.2 L148.2,374.3 L149.2,377.0 L150.3,380.9 L151.5,384.3 L152.5,387.3 L153.7,390.8 L155.8,392.3 L157.8,393.1 L159.8,393.7 L162.2,393.9 L165.3,393.5 L168.3,393.2 L171.2,392.3 L174.9,390.6 L176.9,389.0 L178.0,387.9 L178.8,385.2 L180.2,381.6 L181.8,377.8 L182.9,373.4 L183.4,370.2 L183.7,368.0 Z" fill="#2f7825" stroke="none"/>
<path d="M525.0,357.0 L527.0,360.4 L528.7,364.0 L530.2,366.7 L531.5,369.6 L533.1,372.3 L534.8,374.8 L536.0,376.8 L537.1,378.4 L537.8,380.0 L538.2,382.7 L538.0,386.0 L537.7,389.4 L537.2,393.7 L536.5,397.4 L535.5,401.1 L534.2,405.5 L532.6,409.9 L530.9,413.7 L529.6,415.4 L529.2,415.9 L526.1,417.1 L522.7,417.8 L520.0,417.7 L515.9,416.9 L510.6,415.8 L506.5,414.6 L502.0,413.4 L498.9,411.4 L496.0,409.5 L494.1,406.9 L493.4,404.7 L493.2,401.4 L493.6,396.7 L494.3,392.3 L494.7,386.6 L495.8,382.9 L497.1,379.4 L499.3,376.1 L502.4,373.4 L506.8,370.0 L510.7,366.4 L512.9,362.9 L515.3,359.1 L519.2,356.9 L522.7,356.3 L525.0,357.0 Z" fill="#2f7825" stroke="none"/>
<path d="M682.1,527.0 L684.0,528.7 L688.5,530.5 L692.1,531.3 L696.3,531.0 L700.6,530.1 L703.8,528.9 L706.0,527.1 L707.3,524.7 L707.7,521.9 L707.9,519.1 L707.6,515.3 L707.5,512.2 L707.0,509.5 L706.1,505.6 L705.0,502.5 L703.5,498.7 L702.0,495.3 L699.9,491.3 L697.8,488.4 L695.8,486.5 L693.9,485.4 L692.1,484.5 L689.5,483.5 L686.8,482.8 L684.0,482.6 L681.4,482.5 L679.0,482.9 L676.2,483.8 L673.5,485.0 L671.4,486.2 L669.4,487.9 L667.5,490.1 L665.8,492.7 L664.5,495.4 L663.5,498.2 L663.1,501.2 L663.0,504.6 L663.2,507.5 L664.0,510.3 L665.0,512.7 L666.4,514.9 L667.3,516.1 L669.8,517.9 L672.6,519.5 L675.0,520.9 L677.4,522.7 L679.5,524.8 L682.1,527.0 Z" fill="#2f7825" stroke="none"/>
<path d="M754.2,36.9 L754.2,36.8 L749.0,32.7 L741.7,31.9 L735.0,34.5 L729.4,39.7 L727.7,45.4 L727.8,56.3 L729.2,67.9 L729.4,77.1 L727.3,85.4 L725.7,93.4 L726.8,100.5 L730.2,109.8 L734.3,118.7 L739.8,130.5 L743.5,137.0 L748.7,140.1 L755.5,142.2 L761.7,138.8 L764.7,132.7 L767.3,122.8 L767.9,113.4 L767.7,108.9 L770.4,106.3 L774.9,104.0 L780.2,103.5 L786.2,104.1 L793.8,101.5 L797.4,95.9 L799.8,89.5 L801.8,83.7 L802.9,75.9 L801.8,69.2 L800.7,62.1 L797.6,55.7 L793.1,50.2 L788.8,45.4 L785.9,41.9 L782.5,40.0 L779.1,40.3 L774.5,42.1 L766.8,41.5 L759.3,39.7 L754.2,36.9 Z" fill="#2f7825" stroke="none"/>
<path d="M704.3,393.3 L302.1,206.8 L95.7,95.8" fill="none" stroke="#ffd64a" stroke-width="3.5" stroke-linecap="round" stroke-linejoin="round" opacity="0.95"/>
</svg>