<svg xmlns="http://www.w3.org/2000/svg" viewBox="0 0 339 800" preserveAspectRatio="xMidYMid meet">
<rect width="100%" height="100%" fill="#143018"/>
<path d="M-569.9,328.8 L-519.1,324.5 L-488.3,365.3 L-412.9,465.0 L-137.4,829.6 L-113.5,861.2 L-92.6,881.2 L-84.5,885.1 L-78.0,891.0 L-63.1,878.9 L-64.1,874.0 L-71.5,875.9 L-85.7,865.3 L-90.9,856.1 L-72.3,836.7 L-42.7,827.1 L-408.5,338.7 L-451.2,279.9 L-608.4,294.8 L-734.6,423.1 L-772.9,480.9 L-895.6,665.1 L-1064.7,857.8 L-746.9,1260.6 L-952.1,1540.3 L-925.5,1597.4 L-920.7,1607.6 L-916.2,1608.7 L-911.3,1608.6 L-906.8,1607.7 L-896.6,1600.5 L-889.2,1586.7 L-877.6,1527.8 L-805.9,1409.0 L-758.9,1350.7 L-726.8,1346.9 L-677.1,1400.1 L-623.3,1448.2 L-597.5,1452.7 L-575.1,1452.7 L-549.4,1422.4 L-754.4,1171.5 L-858.6,1028.1 L-816.0,977.6 L-878.8,1013.5 L-985.2,881.3 L-981.8,834.2 L-904.5,746.9 L-856.3,692.0 L-766.7,548.5 L-786.9,522.8 L-769.0,495.9 L-679.3,606.8 L-279.5,1142.1 L-244.6,1091.9 L-235.7,1071.8 L-314.0,965.9 L-529.7,674.4 L-644.5,525.0 L-682.0,467.3 L-692.2,472.9 L-693.3,427.9 L-569.9,328.8 Z" fill="#0f2810" stroke="none"/>
<path d="M118.9,76.3 L104.3,499.7 L234.8,723.7" fill="none" stroke="#4e8b39" stroke-width="59.3" stroke-linecap="round" stroke-linejoin="round" opacity="0.85"/>
<path d="M348.4,610.8 L324.1,629.8 L323.1,631.8 L318.8,639.0 L313.1,646.1 L306.6,650.9 L299.7,653.1 L290.1,653.7 L283.2,653.4 L274.5,654.2 L266.9,655.6 L259.9,657.5 L256.6,659.5 L249.4,667.4 L242.3,674.1 L235.0,680.4 L228.3,685.7 L220.4,692.3 L213.7,699.2 L207.3,708.0 L192.3,731.8 L193.7,733.1 L199.1,730.7 L206.0,719.4 L212.2,708.9 L217.4,702.1 L234.1,687.6 L241.5,681.3 L251.5,671.3 L258.9,663.6 L263.7,660.1 L269.7,658.5 L277.9,658.0 L287.3,657.3 L296.1,657.6 L304.8,656.1 L310.6,652.9 L314.3,649.7 L316.7,646.8 L320.0,641.4 L322.5,637.3 L325.7,633.0 L333.9,626.7 L350.7,613.6 L348.4,610.8 Z" fill="#2e5577" stroke="none"/>
<path d="M189.0,745.4 L194.1,743.2 L192.7,747.7 L190.6,752.0 L188.3,760.5 L187.2,765.8 L185.1,772.0 L181.5,777.9 L178.8,780.7 L174.6,782.5 L170.9,782.8 L165.4,781.7 L161.7,780.1 L157.6,778.6 L154.2,776.9 L150.9,776.4 L148.7,776.1 L145.8,776.6 L142.4,779.0 L135.5,785.2 L132.4,780.2 L142.1,773.3 L145.1,772.1 L148.3,771.3 L151.7,771.4 L154.9,772.2 L158.6,773.6 L165.5,776.1 L168.1,776.4 L171.2,776.6 L174.6,776.4 L176.3,774.6 L178.1,772.1 L182.3,765.4 L184.8,760.9 L185.8,757.3 L186.9,752.0 L188.0,748.3 L189.0,745.4 Z" fill="#2e5577" stroke="none"/>
<path d="M385.1,589.9 L387.3,592.0 L405.1,590.8 L414.3,590.6 L419.4,591.2 L424.1,590.1 L427.8,587.7 L432.7,586.0 L442.8,586.2 L448.9,586.8 L455.5,588.6 L459.5,590.9 L471.2,595.8 L477.2,594.2 L480.6,588.0 L483.4,579.3 L485.3,574.2 L486.8,567.1 L488.2,559.6 L490.9,552.4 L492.4,547.3 L494.0,542.9 L495.6,538.5 L498.9,534.5 L497.3,531.8 L493.4,534.6 L490.3,539.6 L486.2,551.7 L483.2,560.9 L480.7,571.8 L478.2,580.8 L476.3,587.6 L474.8,591.2 L473.4,592.3 L471.0,592.2 L467.6,590.4 L461.0,587.0 L454.1,584.1 L449.4,583.4 L446.7,583.0 L442.8,582.7 L436.2,582.7 L430.2,583.0 L427.2,584.3 L425.0,585.7 L423.1,586.9 L420.8,587.6 L417.2,587.3 L414.1,587.2 L408.5,587.7 L398.6,588.0 L392.3,588.5 L385.1,589.9 Z" fill="#2e5577" stroke="none"/>
<path d="M128.0,783.7 L130.5,788.4 L126.1,790.7 L120.4,795.1 L114.0,799.5 L111.7,801.2 L110.8,805.7 L110.5,812.8 L109.9,818.6 L108.8,822.0 L103.6,830.9 L100.1,834.6 L96.1,838.1 L88.7,842.1 L87.3,838.9 L92.6,835.4 L97.0,832.4 L101.6,827.6 L105.6,821.1 L106.7,817.5 L107.5,813.8 L107.5,809.2 L107.9,804.3 L108.8,801.1 L110.5,798.9 L115.1,795.1 L119.5,791.2 L123.9,787.5 L128.0,783.7 Z" fill="#2e5577" stroke="none"/>
<path d="M14.6,119.8 L13.3,119.8 L12.1,120.1 L10.8,120.9 L10.2,122.3 L10.1,124.2 L11.1,125.5 L13.1,126.6 L15.1,126.6 L16.9,125.3 L17.3,124.2 L17.4,123.1 L17.1,122.2 L16.5,121.1 L15.7,120.4 L14.6,119.8 Z" fill="#e7d6a3" stroke="none"/>
<path d="M38.3,176.1 L36.1,176.8 L34.7,178.8 L34.8,180.2 L35.4,181.5 L36.6,182.3 L37.9,182.7 L39.6,182.5 L40.9,181.4 L41.3,179.4 L40.9,177.6 L39.8,176.6 L38.3,176.1 Z" fill="#e7d6a3" stroke="none"/>
<path d="M17.1,212.6 L15.6,212.8 L14.3,213.4 L13.3,214.6 L13.1,216.4 L13.1,218.0 L14.0,219.5 L15.4,220.6 L16.9,220.9 L18.1,220.4 L18.9,219.7 L19.5,219.0 L20.0,217.9 L20.3,216.9 L20.3,216.1 L20.1,215.2 L19.7,214.2 L18.9,213.3 L17.1,212.6 Z" fill="#e7d6a3" stroke="none"/>
<path d="M7.7,284.3 L4.9,285.2 L3.2,287.9 L3.4,290.6 L4.5,292.3 L6.3,293.2 L8.4,293.4 L10.5,292.7 L12.1,291.1 L12.6,289.6 L12.4,287.2 L10.6,285.2 L7.7,284.3 Z" fill="#e7d6a3" stroke="none"/>
<path d="M12.6,307.0 L10.2,307.1 L8.5,308.8 L7.7,310.9 L8.0,312.7 L9.3,314.2 L11.4,315.2 L13.4,315.3 L15.1,314.5 L16.4,313.2 L17.0,310.4 L16.4,308.9 L15.3,307.6 L12.6,307.0 Z" fill="#e7d6a3" stroke="none"/>
<path d="M21.5,-6.4 L20.3,-6.8 L19.4,-6.8 L18.1,-6.5 L17.1,-5.5 L16.7,-4.7 L16.6,-3.8 L16.7,-2.8 L17.0,-1.9 L17.7,-1.2 L18.8,-0.8 L19.8,-0.6 L21.2,-1.0 L22.3,-2.2 L22.5,-3.3 L22.7,-4.4 L22.3,-5.5 L21.5,-6.4 Z" fill="#e7d6a3" stroke="none"/>
<path d="M356.8,562.2 L357.2,560.8 L357.0,559.5 L356.4,558.3 L355.4,557.4 L354.2,556.9 L352.8,556.9 L351.5,557.4 L350.5,558.3 L349.9,559.5 L349.8,560.8 L350.2,562.2 L351.0,563.2 L352.1,564.0 L353.5,564.2 L354.8,564.0 L356.0,563.2 L356.8,562.2 Z" fill="#e7d6a3" stroke="none"/>
<path d="M256.3,94.0 L257.4,93.1 L259.1,92.5 L260.8,92.2 L262.1,92.5 L263.1,93.2 L263.7,93.9 L263.9,95.1 L263.5,96.3 L262.4,97.5 L261.3,99.0 L260.7,100.7 L260.5,102.8 L260.6,104.6 L260.8,105.9 L261.7,107.1 L261.8,108.7 L261.2,110.1 L260.3,111.0 L258.7,111.5 L256.9,111.2 L255.8,110.2 L254.9,108.6 L254.4,106.8 L254.2,104.3 L254.1,102.4 L254.5,99.5 L255.0,97.1 L255.5,95.1 L256.3,94.0 Z" fill="#e7d6a3" stroke="none"/>
<path d="M364.6,323.3 L364.6,322.1 L365.2,321.1 L366.6,320.4 L368.0,320.5 L369.3,321.2 L369.8,322.3 L369.7,323.9 L368.9,324.8 L367.3,325.4 L365.8,325.1 L364.9,324.3 L364.6,323.3 Z" fill="#e7d6a3" stroke="none"/>
<path d="M318.5,131.4 L317.8,131.2 L317.2,130.7 L316.7,130.1 L316.4,129.4 L316.4,128.5 L316.7,127.7 L317.2,127.1 L318.0,126.6 L318.8,126.5 L319.6,126.6 L320.4,127.0 L320.9,127.6 L321.3,128.4 L321.3,129.2 L321.1,130.0 L320.7,130.6 L320.1,131.1 L319.3,131.4 L318.5,131.4 Z" fill="#e7d6a3" stroke="none"/>
<path d="M288.1,207.6 L286.6,207.0 L285.4,205.9 L284.7,204.6 L284.4,203.1 L284.6,201.7 L285.3,200.3 L286.3,199.2 L287.7,198.6 L289.2,198.3 L290.6,198.6 L292.0,199.3 L293.0,200.4 L293.6,201.9 L293.7,203.4 L293.3,205.0 L292.4,206.3 L291.2,207.2 L289.6,207.7 L288.1,207.6 Z" fill="#e7d6a3" stroke="none"/>
<path d="M262.8,748.3 L263.7,746.6 L266.2,745.0 L269.6,743.7 L273.9,742.9 L277.2,742.5 L279.6,743.0 L280.9,743.7 L281.2,745.1 L281.0,746.8 L279.9,748.2 L278.3,749.3 L275.8,749.6 L273.8,749.0 L272.4,748.1 L271.0,748.0 L269.5,748.6 L268.2,750.1 L267.0,750.9 L265.0,751.2 L263.6,750.8 L262.9,749.7 L262.8,748.3 Z" fill="#e7d6a3" stroke="none"/>
<path d="M151.8,468.4 L152.7,467.1 L154.3,466.5 L155.8,466.6 L157.0,467.1 L157.8,468.1 L158.0,469.5 L157.6,470.6 L156.9,471.6 L155.3,472.1 L153.5,472.1 L152.4,471.3 L151.7,470.1 L151.8,468.4 Z" fill="#e7d6a3" stroke="none"/>
<path d="M159.2,447.1 L159.8,445.6 L160.9,444.5 L162.9,444.1 L164.5,444.5 L165.5,445.2 L165.7,446.9 L165.3,448.5 L163.7,449.8 L162.2,450.3 L160.6,450.1 L159.5,449.1 L159.1,447.9 L159.2,447.1 Z" fill="#e7d6a3" stroke="none"/>
<path d="M138.9,374.3 L136.9,374.0 L135.2,374.8 L133.4,376.2 L132.6,377.9 L132.5,379.7 L133.1,381.6 L134.0,382.9 L135.3,384.1 L137.1,385.1 L138.6,385.5 L140.2,385.2 L141.8,383.9 L142.9,382.2 L143.3,380.6 L143.2,379.0 L142.7,377.2 L141.8,375.9 L140.2,374.8 L138.9,374.3 Z" fill="#e7d6a3" stroke="none"/>
<path d="M258.9,409.1 L256.2,409.4 L254.0,410.3 L252.9,411.8 L252.1,413.8 L252.8,416.3 L254.0,417.7 L255.4,418.1 L258.1,418.3 L260.5,417.5 L262.1,416.5 L263.2,415.4 L263.6,414.2 L263.5,412.6 L263.0,411.2 L262.0,410.1 L260.4,409.4 L258.9,409.1 Z" fill="#e7d6a3" stroke="none"/>
<path d="M296.7,448.4 L297.2,450.0 L296.7,451.2 L295.6,452.8 L294.0,453.7 L292.4,454.0 L290.6,453.6 L288.8,452.7 L288.1,451.2 L287.7,449.6 L288.2,447.9 L289.3,446.6 L290.6,445.8 L292.2,445.6 L293.6,445.6 L295.1,446.1 L296.1,447.1 L296.7,448.4 Z" fill="#e7d6a3" stroke="none"/>
<path d="M336.8,238.4 L337.7,237.7 L338.7,237.3 L339.9,237.3 L340.8,237.6 L341.7,238.3 L342.3,239.1 L342.6,240.1 L342.5,241.2 L342.2,242.2 L341.5,243.0 L340.6,243.6 L339.6,243.8 L338.6,243.8 L337.5,243.3 L336.7,242.6 L336.1,241.6 L336.0,240.5 L336.2,239.4 L336.8,238.4 Z" fill="#e7d6a3" stroke="none"/>
<path d="M317.0,94.4 L317.4,93.4 L317.3,92.4 L316.9,91.4 L316.3,90.7 L315.4,90.2 L314.4,90.0 L313.5,90.1 L312.6,90.5 L311.9,91.2 L311.5,92.1 L311.3,93.0 L311.5,94.0 L311.9,94.9 L312.7,95.5 L313.6,96.0 L314.6,96.1 L315.6,95.8 L316.4,95.2 L317.0,94.4 Z" fill="#e7d6a3" stroke="none"/>
<path d="M288.8,43.7 L287.4,42.6 L285.8,42.5 L283.8,43.0 L282.1,44.3 L281.4,46.4 L281.5,48.3 L281.9,50.0 L283.4,51.6 L285.2,52.7 L287.3,52.8 L289.3,51.9 L290.3,50.3 L290.7,48.3 L290.6,46.3 L289.7,44.7 L288.8,43.7 Z" fill="#e7d6a3" stroke="none"/>
<path d="M296.4,289.6 L298.6,289.9 L300.8,291.1 L302.2,292.8 L302.7,295.1 L302.0,297.7 L300.4,299.2 L298.3,299.7 L296.9,299.4 L295.0,298.6 L293.8,297.5 L292.6,295.6 L292.4,293.4 L293.2,291.3 L294.3,290.1 L296.4,289.6 Z" fill="#e7d6a3" stroke="none"/>
<path d="M279.9,837.3 L279.2,838.1 L278.9,839.2 L278.7,840.3 L278.0,841.3 L276.8,842.1 L275.4,842.2 L274.2,841.9 L272.8,841.0 L271.8,839.8 L271.3,838.2 L271.0,836.3 L271.4,834.3 L272.3,832.3 L273.5,831.4 L275.1,830.7 L276.9,830.4 L278.5,830.8 L279.5,831.8 L280.3,833.0 L280.8,834.4 L280.9,835.5 L280.8,836.4 L279.9,837.3 Z" fill="#e7d6a3" stroke="none"/>
<path d="M16.3,783.6 L19.3,784.9 L22.4,784.1 L23.4,780.3 L22.5,769.7 L20.6,754.8 L21.8,747.7 L23.3,744.9 L25.6,740.8 L26.1,734.5 L25.3,729.7 L21.9,721.7 L15.6,692.4 L12.5,686.4 L2.3,687.4 L-4.8,690.6 L-6.2,697.3 L-6.1,704.0 L-5.6,710.7 L-3.3,718.3 L-0.5,725.4 L2.3,734.7 L5.1,742.5 L6.2,752.0 L7.7,757.8 L9.2,764.3 L10.8,771.3 L12.0,776.8 L14.0,780.5 L16.3,783.6 Z" fill="#4f8a3e" stroke="none"/>
<path d="M-41.1,578.7 L-41.1,598.2 L-38.2,601.0 L-34.4,602.8 L-28.3,599.7 L-28.1,584.5 L-28.1,579.1 L-34.4,577.1 L-41.1,578.7 Z" fill="#4f8a3e" stroke="none"/>
<path d="M89.5,275.7 L87.8,273.3 L85.3,271.6 L82.4,270.8 L79.7,271.0 L77.1,272.1 L75.0,273.9 L73.6,276.3 L73.0,279.0 L73.3,281.7 L74.4,284.2 L76.2,286.3 L78.6,287.7 L81.3,288.2 L84.3,287.8 L86.9,286.5 L89.0,284.3 L90.2,281.5 L90.4,278.6 L89.5,275.7 Z" fill="#4f8a3e" stroke="none"/>
<path d="M189.7,224.4 L184.0,226.1 L181.9,232.8 L181.6,240.6 L182.0,243.1 L184.8,245.8 L188.5,244.9 L192.8,239.1 L194.7,232.4 L195.3,229.3 L195.0,225.8 L189.7,224.4 Z" fill="#4f8a3e" stroke="none"/>
<path d="M255.2,572.7 L251.3,578.4 L251.3,586.2 L252.9,591.2 L259.7,594.6 L264.1,590.7 L264.1,581.7 L261.3,575.0 L255.2,572.7 Z" fill="#4f8a3e" stroke="none"/>
<path d="M297.6,613.9 L292.3,621.0 L285.2,628.1 L281.6,634.4 L283.4,640.6 L289.6,644.6 L297.6,644.2 L306.5,634.4 L307.4,628.6 L313.2,619.7 L319.0,614.8 L327.9,609.9 L334.1,601.5 L335.4,594.4 L329.2,589.9 L323.0,585.5 L317.7,583.7 L313.7,579.7 L310.1,577.0 L305.2,580.6 L303.4,585.0 L303.0,593.5 L303.9,603.2 L303.7,603.6 L297.6,613.9 Z" fill="#4f8a3e" stroke="none"/>
<path d="M381.3,658.6 L375.5,659.1 L372.8,662.6 L375.0,668.4 L379.5,669.3 L384.4,667.9 L385.7,662.6 L381.3,658.6 Z" fill="#4f8a3e" stroke="none"/>
<path d="M180.2,70.1 L182.5,71.0 L184.5,72.7 L185.9,74.7 L186.0,77.8 L184.8,80.9 L182.7,82.1 L180.6,82.7 L178.0,82.1 L175.9,80.8 L174.8,79.6 L174.5,76.3 L175.4,73.6 L176.2,71.9 L177.8,70.6 L180.2,70.1 Z" fill="#4f8a3e" stroke="none"/>
<path d="M170.1,93.0 L188.6,85.9 L189.6,116.7 L188.5,121.6 L186.0,125.4 L182.3,129.5 L179.0,130.3 L175.5,128.8 L170.1,93.0 Z" fill="#4f8a3e" stroke="none"/>
<path d="M198.3,130.8 L200.1,133.3 L200.6,137.6 L199.4,144.7 L198.4,149.3 L198.2,153.6 L198.7,157.2 L176.6,182.9 L178.7,176.4 L178.1,171.0 L178.3,163.7 L179.2,156.9 L179.5,151.1 L181.3,147.6 L185.2,144.0 L186.6,141.6 L187.9,137.6 L188.9,134.3 L191.1,132.3 L194.2,131.1 L198.3,130.8 Z" fill="#4f8a3e" stroke="none"/>
<path d="M121.3,64.2 L123.7,65.3 L127.3,68.0 L129.5,70.8 L131.5,74.8 L132.2,80.4 L131.8,86.4 L130.0,90.5 L127.4,95.8 L124.3,97.8 L121.1,98.6 L116.8,97.4 L115.0,95.8 L112.6,90.8 L111.6,86.6 L111.1,82.1 L111.3,78.2 L112.0,74.5 L113.6,70.7 L114.8,68.3 L116.5,65.9 L118.0,64.9 L121.3,64.2 Z" fill="#4f8a3e" stroke="none"/>
<path d="M116.9,103.3 L127.2,102.8 L130.7,108.4 L134.7,113.4 L135.7,116.0 L134.7,124.8 L134.2,130.7 L135.0,138.4 L133.8,145.5 L114.5,144.7 L113.5,138.0 L112.4,133.6 L111.7,130.4 L116.3,108.5 L116.9,103.3 Z" fill="#4f8a3e" stroke="none"/>
<path d="M286.3,530.7 L283.4,530.1 L281.2,532.9 L281.0,539.2 L282.9,543.7 L286.6,547.8 L288.5,549.1 L290.3,548.7 L292.3,547.9 L293.0,545.7 L292.4,541.6 L290.9,538.0 L288.9,534.3 L286.3,530.7 Z" fill="#4f8a3e" stroke="none"/>
<path d="M286.7,600.9 L284.6,600.1 L281.3,600.4 L276.5,604.9 L274.0,607.9 L272.7,611.3 L271.8,614.6 L270.6,617.8 L271.5,620.2 L273.4,621.0 L275.8,619.5 L281.7,614.3 L285.6,610.8 L286.8,608.5 L287.2,605.6 L287.7,603.4 L286.7,600.9 Z" fill="#4f8a3e" stroke="none"/>
<path d="M94.1,-33.2 L86.8,-34.8 L79.1,-33.6 L75.7,-27.7 L73.0,-19.9 L74.7,-12.2 L78.8,-4.5 L82.2,0.0 L85.7,1.5 L89.8,1.9 L92.2,0.3 L95.6,-2.3 L97.4,-6.1 L98.6,-11.0 L99.2,-14.4 L99.5,-20.0 L97.9,-25.9 L96.4,-30.3 L94.1,-33.2 Z" fill="#4f8a3e" stroke="none"/>
<path d="M100.4,-52.6 L97.9,-45.0 L91.3,-40.9 L80.7,-36.5 L70.2,-33.2 L66.5,-33.7 L61.9,-36.8 L55.5,-48.0 L52.9,-56.4 L50.2,-61.7 L50.0,-67.0 L51.9,-69.7 L60.4,-74.7 L67.8,-77.3 L75.3,-78.5 L80.1,-80.2 L84.3,-83.0 L89.3,-84.2 L93.3,-82.9 L95.3,-80.7 L97.6,-76.9 L100.2,-67.6 L101.8,-58.4 L100.4,-52.6 Z" fill="#4f8a3e" stroke="none"/>
<path d="M32.9,844.9 L29.9,844.8 L24.8,846.0 L21.9,847.8 L21.1,852.5 L22.0,857.1 L25.4,860.6 L33.7,867.4 L57.4,887.4 L61.5,890.1 L65.2,890.7 L68.5,890.0 L70.9,888.6 L72.8,884.9 L76.0,877.7 L76.0,875.7 L72.2,872.6 L63.8,867.4 L58.8,864.0 L57.3,863.6 L55.0,863.4 L52.7,862.8 L49.6,860.3 L48.4,858.9 L48.2,857.7 L48.9,856.6 L38.2,847.3 L35.8,845.7 L32.9,844.9 Z" fill="#4f8a3e" stroke="none"/>
<path d="M108.0,165.8 L103.8,169.9 L100.3,175.2 L98.0,179.5 L97.4,182.3 L97.2,185.0 L97.9,187.4 L99.5,190.2 L101.7,192.4 L105.0,193.4 L108.7,193.9 L111.4,194.2 L114.1,194.2 L116.4,192.9 L117.2,190.8 L117.5,186.2 L118.2,181.2 L120.0,173.7 L121.4,168.6 L108.0,165.8 Z" fill="#4f8a3e" stroke="none"/>
<path d="M92.2,253.8 L90.5,251.4 L88.0,249.7 L85.1,249.0 L82.4,249.2 L79.8,250.2 L77.7,252.0 L76.3,254.4 L75.7,257.1 L76.0,259.8 L77.1,262.4 L78.9,264.4 L81.3,265.8 L84.0,266.3 L87.0,265.9 L89.7,264.6 L91.7,262.4 L92.9,259.7 L93.1,256.7 L92.2,253.8 Z" fill="#4f8a3e" stroke="none"/>
<path d="M52.7,613.2 L47.7,614.3 L43.4,616.0 L41.2,621.1 L40.4,626.1 L40.6,632.6 L41.2,637.9 L42.0,643.5 L41.5,650.2 L38.7,657.5 L37.6,664.8 L38.7,671.8 L39.8,678.2 L44.3,682.7 L51.0,686.0 L61.1,686.0 L70.1,685.2 L78.5,683.5 L86.9,682.1 L94.1,678.2 L96.4,670.6 L97.2,662.2 L94.4,653.6 L89.9,647.1 L85.5,641.2 L80.7,636.5 L75.9,630.3 L71.5,626.1 L67.0,622.2 L62.5,618.0 L57.5,614.6 L52.7,613.2 Z" fill="#2f7825" stroke="none"/>
<path d="M-19.5,-53.4 L-21.4,-50.9 L-22.9,-46.8 L-23.8,-42.9 L-25.4,-35.2 L-26.6,-32.0 L-29.1,-27.9 L-32.5,-24.9 L-36.1,-20.5 L-38.2,-16.7 L-39.9,-12.1 L-40.2,-8.0 L-39.4,-3.0 L-37.2,1.5 L-33.1,7.2 L-29.9,10.9 L-27.0,15.3 L-24.0,19.0 L-20.7,21.6 L-16.0,23.2 L-10.6,23.6 L-5.5,23.7 L0.5,22.5 L6.2,20.0 L8.4,16.8 L9.8,11.5 L10.9,7.2 L11.9,1.9 L12.8,-3.6 L13.1,-8.5 L12.8,-13.7 L11.9,-19.3 L10.6,-24.0 L8.4,-29.8 L4.5,-36.5 L2.8,-40.7 L0.3,-45.2 L-2.6,-49.4 L-7.1,-53.5 L-11.2,-55.3 L-15.3,-55.9 L-17.5,-55.0 L-19.5,-53.4 Z" fill="#2f7825" stroke="none"/>
<path d="M288.5,705.9 L284.5,703.0 L277.2,701.0 L268.0,700.3 L259.2,701.3 L251.6,703.1 L242.4,706.6 L234.1,710.8 L228.8,715.6 L224.5,722.3 L224.0,728.1 L224.8,733.6 L226.3,738.5 L229.3,742.3 L234.5,746.3 L239.7,748.9 L246.1,750.1 L251.0,750.1 L255.5,748.6 L259.5,746.0 L262.9,742.4 L266.4,740.5 L271.3,739.2 L277.6,738.5 L283.1,736.2 L288.4,732.3 L290.8,728.0 L293.3,723.5 L294.3,719.1 L293.7,714.4 L291.9,709.9 L288.5,705.9 Z" fill="#2f7825" stroke="none"/>
<path d="M63.5,139.2 L62.8,136.8 L62.2,135.0 L60.6,132.8 L58.1,131.4 L55.6,130.4 L52.0,128.2 L49.7,126.1 L46.4,123.6 L44.7,121.3 L42.7,118.8 L39.0,116.6 L34.8,116.9 L29.5,119.2 L23.6,124.8 L18.1,131.7 L11.4,142.2 L7.1,150.4 L7.0,154.8 L7.7,159.1 L9.6,164.2 L13.0,168.4 L18.4,171.3 L25.5,171.9 L31.9,170.6 L37.3,169.1 L45.4,164.6 L50.8,160.1 L57.6,154.0 L61.0,149.2 L63.7,144.1 L63.8,141.3 L63.5,139.2 Z" fill="#2f7825" stroke="none"/>
<path d="M342.1,540.4 L346.0,542.6 L348.7,545.9 L351.7,548.8 L354.8,550.2 L358.6,551.5 L363.8,553.6 L369.0,556.1 L371.7,560.1 L373.1,564.0 L374.3,568.3 L376.6,572.0 L379.8,573.5 L383.5,573.7 L386.7,572.4 L388.9,570.0 L390.2,567.1 L390.4,563.6 L390.1,559.9 L389.5,556.6 L388.1,552.5 L386.3,549.1 L383.9,545.9 L380.6,543.0 L377.2,539.7 L374.2,536.8 L372.3,533.5 L369.5,530.1 L365.2,526.9 L361.7,524.9 L357.7,523.9 L354.6,523.5 L350.9,522.5 L345.1,519.7 L342.5,518.2 L339.2,515.2 L336.7,514.0 L333.9,512.6 L330.8,512.4 L327.6,513.3 L325.7,514.5 L324.3,517.1 L323.4,521.5 L324.6,526.2 L330.1,532.9 L333.9,536.2 L335.9,537.7 L342.1,540.4 Z" fill="#2f7825" stroke="none"/>
<path d="M245.2,-18.5 L250.4,-21.1 L256.7,-20.8 L261.3,-19.3 L265.4,-17.2 L271.3,-12.0 L275.3,-6.2 L278.9,1.9 L280.6,8.0 L281.1,17.9 L279.9,31.1 L277.3,38.8 L274.6,44.9 L270.7,49.7 L266.5,52.8 L261.3,53.6 L254.0,52.2 L247.4,49.7 L244.3,47.3 L242.4,42.1 L240.0,28.6 L238.4,17.8 L236.4,9.1 L235.5,1.1 L235.7,-4.8 L237.4,-9.8 L241.0,-14.2 L245.2,-18.5 Z" fill="#2f7825" stroke="none"/>
<path d="M232.7,814.1 L207.3,825.6 L202.2,829.8 L198.3,834.9 L196.4,839.4 L195.6,845.0 L196.2,850.2 L198.8,859.1 L206.7,879.8 L209.4,882.8 L213.4,885.2 L218.8,887.9 L223.6,888.2 L228.6,887.2 L232.2,884.8 L252.2,855.2 L254.7,849.1 L256.0,842.0 L255.7,831.7 L252.2,821.1 L247.6,815.7 L243.0,813.7 L238.7,813.1 L232.7,814.1 Z" fill="#2f7825" stroke="none"/>
<path d="M118.9,76.3 L104.3,499.7 L234.8,723.7" fill="none" stroke="#ffd64a" stroke-width="3.5" stroke-linecap="round" stroke-linejoin="round" opacity="0.95"/>
</svg>