<svg xmlns="http://www.w3.org/2000/svg" viewBox="0 0 800 600" preserveAspectRatio="xMidYMid slice">
<rect width="100%" height="100%" fill="#143018"/>
<path d="M565.2,449.1 L544.7,465.1 L543.9,466.8 L540.3,472.8 L535.5,478.8 L530.0,482.8 L524.2,484.7 L516.1,485.2 L510.3,485.0 L502.9,485.6 L496.5,486.8 L490.7,488.4 L487.9,490.1 L481.8,496.7 L475.8,502.4 L469.6,507.7 L464.1,512.2 L457.4,517.7 L451.7,523.6 L446.3,531.0 L433.7,551.1 L434.9,552.1 L439.4,550.1 L445.2,540.6 L450.5,531.7 L454.8,526.0 L468.9,513.8 L475.1,508.5 L483.6,500.1 L489.8,493.6 L493.8,490.6 L498.9,489.2 L505.8,488.8 L513.8,488.3 L521.1,488.5 L528.4,487.2 L533.3,484.6 L536.5,481.8 L538.5,479.4 L541.3,474.9 L543.4,471.4 L546.1,467.8 L552.9,462.5 L567.2,451.4 L565.2,449.1 Z" fill="#2e5577" stroke="none"/>
<path d="M430.9,562.5 L435.2,560.7 L434.0,564.4 L432.3,568.0 L430.3,575.2 L429.4,579.6 L427.6,584.9 L424.6,589.9 L422.3,592.2 L418.8,593.7 L415.7,594.0 L411.0,593.1 L407.9,591.8 L404.5,590.4 L401.6,589.1 L398.8,588.6 L396.9,588.3 L394.5,588.8 L391.7,590.8 L385.8,596.0 L383.2,591.8 L391.4,586.0 L393.9,584.9 L396.6,584.3 L399.5,584.4 L402.2,585.1 L405.3,586.3 L411.1,588.3 L413.3,588.6 L415.9,588.7 L418.7,588.6 L420.2,587.1 L421.7,585.0 L425.3,579.3 L427.3,575.5 L428.2,572.5 L429.1,568.1 L430.0,564.9 L430.9,562.5 Z" fill="#2e5577" stroke="none"/>
<path d="M596.1,431.5 L598.0,433.2 L613.0,432.2 L620.7,432.0 L625.0,432.5 L629.0,431.6 L632.1,429.6 L636.2,428.1 L644.8,428.3 L649.9,428.8 L655.5,430.4 L658.8,432.3 L668.7,436.4 L673.7,435.1 L676.6,429.9 L679.0,422.6 L680.5,418.3 L681.8,412.2 L683.0,405.9 L685.2,399.8 L686.6,395.6 L687.9,391.9 L689.2,388.2 L692.0,384.8 L690.7,382.5 L687.3,384.9 L684.8,389.1 L681.3,399.3 L678.8,407.1 L676.6,416.2 L674.5,423.8 L673.0,429.5 L671.7,432.6 L670.5,433.5 L668.5,433.4 L665.6,431.9 L660.0,429.0 L654.2,426.5 L650.3,426.0 L648.1,425.6 L644.7,425.4 L639.2,425.4 L634.2,425.7 L631.6,426.7 L629.7,427.9 L628.2,428.9 L626.2,429.5 L623.2,429.3 L620.6,429.2 L615.8,429.6 L607.5,429.9 L602.2,430.3 L596.1,431.5 Z" fill="#2e5577" stroke="none"/>
<path d="M696.4,378.8 L697.7,380.4 L723.8,361.6 L722.4,359.1 L696.4,378.8 Z" fill="#2e5577" stroke="none"/>
<path d="M379.5,594.8 L381.6,598.7 L377.9,600.7 L373.1,604.3 L367.7,608.0 L365.8,609.5 L365.1,613.3 L364.8,619.2 L364.2,624.1 L363.3,627.0 L359.0,634.5 L356.0,637.6 L352.6,640.6 L346.4,644.0 L345.2,641.2 L349.7,638.3 L353.4,635.8 L357.3,631.7 L360.6,626.3 L361.6,623.2 L362.3,620.1 L362.3,616.2 L362.6,612.1 L363.4,609.4 L364.8,607.6 L368.6,604.3 L372.3,601.0 L376.1,597.9 L379.5,594.8 Z" fill="#2e5577" stroke="none"/>
<path d="M291.6,666.2 L294.5,666.4 L281.1,690.0 L279.2,688.8 L291.6,666.2 Z" fill="#2e5577" stroke="none"/>
<path d="M283.9,35.4 L282.8,35.4 L281.9,35.6 L280.7,36.3 L280.3,37.5 L280.2,39.1 L281.0,40.2 L282.7,41.1 L284.4,41.1 L285.9,40.0 L286.2,39.1 L286.3,38.1 L286.1,37.4 L285.5,36.4 L284.9,35.8 L283.9,35.4 Z" fill="#e7d6a3" stroke="none"/>
<path d="M303.9,82.8 L302.0,83.4 L300.9,85.0 L301.0,86.2 L301.5,87.3 L302.5,88.0 L303.6,88.4 L305.0,88.2 L306.1,87.3 L306.5,85.6 L306.2,84.1 L305.2,83.2 L303.9,82.8 Z" fill="#e7d6a3" stroke="none"/>
<path d="M286.1,113.6 L284.8,113.8 L283.7,114.2 L282.9,115.2 L282.7,116.8 L282.7,118.1 L283.5,119.4 L284.7,120.3 L285.9,120.5 L286.9,120.1 L287.6,119.6 L288.1,119.0 L288.6,118.0 L288.7,117.2 L288.8,116.5 L288.6,115.8 L288.3,114.9 L287.6,114.2 L286.1,113.6 Z" fill="#e7d6a3" stroke="none"/>
<path d="M278.2,174.0 L275.8,174.7 L274.4,177.0 L274.5,179.3 L275.4,180.8 L277.0,181.5 L278.7,181.6 L280.5,181.1 L281.8,179.7 L282.3,178.4 L282.1,176.4 L280.6,174.7 L278.2,174.0 Z" fill="#e7d6a3" stroke="none"/>
<path d="M282.3,193.1 L280.3,193.2 L278.8,194.6 L278.2,196.4 L278.4,197.9 L279.5,199.2 L281.3,200.0 L282.9,200.1 L284.4,199.4 L285.5,198.3 L286.0,195.9 L285.5,194.7 L284.5,193.6 L282.3,193.1 Z" fill="#e7d6a3" stroke="none"/>
<path d="M289.8,-71.0 L288.8,-71.3 L288.0,-71.3 L286.9,-71.1 L286.0,-70.2 L285.7,-69.5 L285.7,-68.7 L285.7,-67.9 L286.0,-67.2 L286.5,-66.6 L287.5,-66.2 L288.4,-66.1 L289.5,-66.4 L290.4,-67.4 L290.6,-68.3 L290.8,-69.3 L290.5,-70.2 L289.8,-71.0 Z" fill="#e7d6a3" stroke="none"/>
<path d="M572.3,408.1 L572.6,407.0 L572.5,405.8 L572.0,404.8 L571.1,404.0 L570.1,403.6 L568.9,403.6 L567.8,404.0 L567.0,404.8 L566.5,405.8 L566.4,407.0 L566.7,408.1 L567.4,409.0 L568.4,409.6 L569.5,409.8 L570.6,409.6 L571.6,409.0 L572.3,408.1 Z" fill="#e7d6a3" stroke="none"/>
<path d="M678.6,541.0 L676.7,541.5 L675.8,543.1 L675.7,545.4 L676.4,547.5 L677.2,549.2 L678.6,549.9 L681.4,550.1 L682.7,549.7 L683.6,548.6 L684.3,546.6 L684.1,545.1 L683.4,543.6 L681.0,541.5 L678.6,541.0 Z" fill="#e7d6a3" stroke="none"/>
<path d="M695.0,530.0 L694.2,528.4 L692.9,527.4 L691.0,527.3 L689.2,527.9 L688.2,529.3 L687.9,531.1 L688.4,532.7 L690.5,534.9 L693.8,536.7 L696.8,537.9 L699.1,538.7 L701.3,538.6 L702.4,537.3 L701.6,535.7 L699.0,533.8 L696.7,532.0 L695.0,530.0 Z" fill="#e7d6a3" stroke="none"/>
<path d="M700.3,549.8 L698.7,549.1 L696.9,549.1 L695.8,550.1 L695.0,552.4 L695.5,554.0 L696.8,555.2 L698.8,555.7 L701.0,555.1 L702.3,553.5 L702.0,551.1 L700.3,549.8 Z" fill="#e7d6a3" stroke="none"/>
<path d="M487.6,13.6 L488.5,12.8 L490.0,12.3 L491.4,12.1 L492.5,12.4 L493.3,13.0 L493.8,13.5 L494.0,14.5 L493.7,15.6 L492.8,16.6 L491.8,17.9 L491.3,19.3 L491.1,21.0 L491.2,22.6 L491.4,23.6 L492.1,24.7 L492.3,26.1 L491.8,27.2 L491.0,27.9 L489.6,28.4 L488.1,28.2 L487.2,27.3 L486.4,25.9 L486.0,24.4 L485.8,22.3 L485.8,20.7 L486.1,18.3 L486.5,16.2 L486.9,14.6 L487.6,13.6 Z" fill="#e7d6a3" stroke="none"/>
<path d="M660.9,497.6 L660.7,496.4 L661.6,494.9 L663.3,494.3 L664.7,494.5 L666.0,495.2 L666.4,496.6 L665.9,497.8 L664.4,498.7 L662.6,498.8 L661.5,498.3 L660.9,497.6 Z" fill="#e7d6a3" stroke="none"/>
<path d="M666.2,486.1 L666.2,484.8 L666.9,483.4 L668.4,482.6 L670.1,482.8 L671.3,483.6 L672.4,485.0 L672.3,486.7 L671.7,488.1 L670.5,488.6 L668.9,488.5 L667.3,487.7 L666.2,486.1 Z" fill="#e7d6a3" stroke="none"/>
<path d="M641.6,476.7 L642.3,474.7 L644.0,473.5 L645.7,473.1 L647.3,473.3 L648.6,474.2 L649.2,475.5 L649.2,477.2 L648.3,478.4 L646.8,479.4 L645.2,479.8 L643.2,479.3 L642.0,478.1 L641.6,476.7 Z" fill="#e7d6a3" stroke="none"/>
<path d="M604.6,216.3 L603.7,216.0 L602.8,215.5 L602.2,214.7 L601.9,213.7 L601.9,212.7 L602.3,211.8 L602.9,211.0 L603.8,210.5 L604.8,210.2 L605.8,210.3 L606.7,210.8 L607.4,211.5 L607.8,212.4 L608.0,213.4 L607.8,214.3 L607.3,215.2 L606.5,215.9 L605.6,216.2 L604.6,216.3 Z" fill="#e7d6a3" stroke="none"/>
<path d="M578.9,206.8 L578.9,205.8 L579.3,205.0 L580.5,204.4 L581.8,204.5 L582.8,205.1 L583.2,206.0 L583.2,207.3 L582.4,208.1 L581.2,208.6 L579.9,208.4 L579.1,207.7 L578.9,206.8 Z" fill="#e7d6a3" stroke="none"/>
<path d="M540.0,45.1 L539.4,45.0 L538.9,44.6 L538.5,44.0 L538.3,43.4 L538.3,42.7 L538.5,42.1 L539.0,41.5 L539.6,41.1 L540.3,41.0 L541.0,41.1 L541.6,41.4 L542.1,42.0 L542.3,42.6 L542.4,43.3 L542.2,43.9 L541.8,44.5 L541.3,44.9 L540.7,45.1 L540.0,45.1 Z" fill="#e7d6a3" stroke="none"/>
<path d="M514.4,109.3 L513.1,108.8 L512.2,107.9 L511.5,106.8 L511.3,105.6 L511.5,104.3 L512.0,103.2 L512.9,102.3 L514.0,101.7 L515.3,101.5 L516.5,101.8 L517.6,102.4 L518.5,103.3 L519.0,104.5 L519.2,105.8 L518.8,107.1 L518.1,108.2 L517.0,109.0 L515.7,109.4 L514.4,109.3 Z" fill="#e7d6a3" stroke="none"/>
<path d="M493.1,564.9 L493.9,563.5 L496.0,562.2 L498.8,561.1 L502.4,560.3 L505.3,560.1 L507.2,560.4 L508.3,561.1 L508.6,562.3 L508.4,563.7 L507.5,564.9 L506.1,565.8 L504.0,566.1 L502.3,565.5 L501.2,564.8 L500.0,564.7 L498.7,565.2 L497.6,566.4 L496.6,567.1 L494.9,567.4 L493.8,567.0 L493.2,566.1 L493.1,564.9 Z" fill="#e7d6a3" stroke="none"/>
<path d="M399.6,329.1 L400.3,328.0 L401.6,327.5 L402.9,327.6 L403.9,328.0 L404.6,328.9 L404.8,330.0 L404.4,330.9 L403.8,331.8 L402.5,332.2 L401.0,332.2 L400.1,331.5 L399.4,330.5 L399.6,329.1 Z" fill="#e7d6a3" stroke="none"/>
<path d="M405.8,311.1 L406.3,309.9 L407.2,309.0 L408.9,308.6 L410.2,308.9 L411.1,309.6 L411.3,311.0 L411.0,312.3 L409.6,313.4 L408.3,313.9 L407.0,313.6 L406.0,312.8 L405.7,311.8 L405.8,311.1 Z" fill="#e7d6a3" stroke="none"/>
<path d="M388.7,249.8 L387.0,249.5 L385.6,250.2 L384.1,251.4 L383.4,252.8 L383.3,254.4 L383.8,255.9 L384.6,257.1 L385.7,258.1 L387.1,258.9 L388.4,259.2 L389.8,259.0 L391.1,257.9 L392.1,256.4 L392.4,255.1 L392.3,253.8 L391.9,252.3 L391.1,251.1 L389.8,250.2 L388.7,249.8 Z" fill="#e7d6a3" stroke="none"/>
<path d="M489.8,279.1 L487.5,279.4 L485.6,280.2 L484.8,281.4 L484.1,283.1 L484.7,285.2 L485.7,286.3 L486.9,286.7 L489.2,286.8 L491.1,286.2 L492.5,285.4 L493.4,284.5 L493.8,283.4 L493.6,282.0 L493.3,280.9 L492.4,280.0 L491.1,279.4 L489.8,279.1 Z" fill="#e7d6a3" stroke="none"/>
<path d="M521.7,312.3 L522.0,313.6 L521.7,314.6 L520.7,315.9 L519.3,316.7 L518.0,317.0 L516.5,316.6 L515.0,315.9 L514.4,314.6 L514.1,313.2 L514.5,311.8 L515.4,310.7 L516.5,310.1 L517.8,309.9 L519.0,309.9 L520.3,310.3 L521.2,311.1 L521.7,312.3 Z" fill="#e7d6a3" stroke="none"/>
<path d="M555.4,135.3 L556.2,134.7 L557.1,134.4 L558.0,134.4 L558.8,134.7 L559.5,135.2 L560.0,135.9 L560.3,136.8 L560.3,137.6 L560.0,138.5 L559.4,139.2 L558.7,139.7 L557.8,139.9 L556.9,139.8 L556.1,139.5 L555.3,138.8 L554.9,138.0 L554.7,137.1 L554.9,136.1 L555.4,135.3 Z" fill="#e7d6a3" stroke="none"/>
<path d="M538.8,14.0 L539.0,13.1 L539.0,12.3 L538.7,11.5 L538.1,10.8 L537.4,10.4 L536.6,10.2 L535.8,10.4 L535.0,10.7 L534.5,11.3 L534.1,12.0 L533.9,12.8 L534.1,13.6 L534.5,14.3 L535.1,14.9 L535.9,15.3 L536.7,15.4 L537.6,15.1 L538.3,14.7 L538.8,14.0 Z" fill="#e7d6a3" stroke="none"/>
<path d="M515.0,-28.8 L513.8,-29.6 L512.5,-29.8 L510.8,-29.3 L509.4,-28.2 L508.8,-26.5 L508.8,-24.8 L509.2,-23.4 L510.4,-22.1 L512.0,-21.2 L513.7,-21.1 L515.4,-21.8 L516.3,-23.2 L516.6,-24.8 L516.5,-26.6 L515.8,-27.9 L515.0,-28.8 Z" fill="#e7d6a3" stroke="none"/>
<path d="M521.4,178.4 L523.2,178.7 L525.1,179.7 L526.3,181.2 L526.7,183.1 L526.1,185.2 L524.7,186.5 L523.0,186.9 L521.8,186.7 L520.2,186.1 L519.2,185.1 L518.2,183.5 L518.1,181.6 L518.7,179.9 L519.6,178.9 L521.4,178.4 Z" fill="#e7d6a3" stroke="none"/>
<path d="M507.5,639.9 L506.9,640.5 L506.6,641.5 L506.5,642.4 L505.9,643.3 L504.9,644.0 L503.7,644.1 L502.7,643.8 L501.5,643.1 L500.7,642.0 L500.2,640.6 L500.0,639.1 L500.3,637.4 L501.1,635.7 L502.1,634.9 L503.5,634.3 L505.0,634.1 L506.3,634.5 L507.1,635.3 L507.8,636.3 L508.3,637.5 L508.3,638.4 L508.3,639.2 L507.5,639.9 Z" fill="#e7d6a3" stroke="none"/>
<path d="M462.3,686.5 L463.8,686.6 L465.5,687.1 L466.7,687.8 L467.6,689.3 L467.6,691.0 L467.4,692.0 L466.3,693.3 L464.7,694.2 L463.0,694.8 L461.2,695.0 L459.7,694.8 L458.2,694.3 L456.9,693.2 L456.1,692.0 L455.9,690.1 L456.6,688.6 L458.3,687.2 L460.0,686.6 L462.3,686.5 Z" fill="#e7d6a3" stroke="none"/>
<path d="M285.4,594.7 L287.9,595.8 L290.6,595.1 L291.4,591.9 L290.6,583.0 L289.0,570.4 L290.0,564.4 L291.3,562.1 L293.2,558.6 L293.6,553.3 L293.0,549.2 L290.1,542.5 L284.8,517.8 L282.2,512.7 L273.6,513.6 L267.6,516.3 L266.4,522.0 L266.6,527.6 L267.0,533.2 L268.9,539.6 L271.3,545.6 L273.6,553.5 L276.0,560.0 L276.9,568.0 L278.2,572.9 L279.4,578.4 L280.7,584.3 L281.8,588.9 L283.4,592.1 L285.4,594.7 Z" fill="#4f8a3e" stroke="none"/>
<path d="M237.0,422.1 L237.0,438.4 L239.5,440.8 L242.7,442.3 L247.8,439.7 L248.0,426.9 L248.0,422.4 L242.7,420.7 L237.0,422.1 Z" fill="#4f8a3e" stroke="none"/>
<path d="M347.1,166.7 L345.6,164.7 L343.5,163.3 L341.1,162.6 L338.8,162.8 L336.6,163.7 L334.9,165.2 L333.7,167.2 L333.2,169.5 L333.4,171.8 L334.3,173.9 L335.9,175.6 L337.9,176.8 L340.2,177.3 L342.7,176.9 L344.9,175.8 L346.6,174.0 L347.6,171.6 L347.8,169.1 L347.1,166.7 Z" fill="#4f8a3e" stroke="none"/>
<path d="M431.5,123.5 L426.7,125.0 L424.9,130.6 L424.6,137.1 L425.0,139.3 L427.4,141.5 L430.5,140.8 L434.1,135.9 L435.7,130.2 L436.2,127.6 L435.9,124.7 L431.5,123.5 Z" fill="#4f8a3e" stroke="none"/>
<path d="M486.7,417.0 L483.4,421.7 L483.4,428.3 L484.8,432.6 L490.4,435.4 L494.2,432.1 L494.2,424.6 L491.9,418.9 L486.7,417.0 Z" fill="#4f8a3e" stroke="none"/>
<path d="M522.4,451.7 L517.9,457.7 L512.0,463.7 L509.0,468.9 L510.5,474.2 L515.7,477.6 L522.4,477.2 L529.9,468.9 L530.7,464.1 L535.6,456.6 L540.4,452.5 L547.9,448.3 L553.2,441.2 L554.3,435.2 L549.0,431.5 L543.8,427.7 L539.3,426.2 L535.9,422.8 L532.9,420.6 L528.8,423.6 L527.3,427.3 L526.9,434.5 L527.7,442.7 L527.5,443.0 L522.4,451.7 Z" fill="#4f8a3e" stroke="none"/>
<path d="M592.9,489.4 L588.0,489.7 L585.8,492.7 L587.6,497.6 L591.4,498.3 L595.5,497.2 L596.6,492.7 L592.9,489.4 Z" fill="#4f8a3e" stroke="none"/>
<path d="M423.5,-6.5 L425.5,-5.8 L427.1,-4.3 L428.3,-2.6 L428.3,-0.0 L427.4,2.6 L425.6,3.6 L423.9,4.1 L421.6,3.6 L419.9,2.5 L419.0,1.5 L418.7,-1.3 L419.4,-3.5 L420.1,-5.0 L421.4,-6.1 L423.5,-6.5 Z" fill="#4f8a3e" stroke="none"/>
<path d="M414.9,12.7 L430.6,6.8 L431.4,32.7 L430.5,36.9 L428.4,40.1 L425.2,43.6 L422.5,44.2 L419.6,43.0 L414.9,12.7 Z" fill="#4f8a3e" stroke="none"/>
<path d="M438.8,44.6 L440.3,46.8 L440.7,50.4 L439.6,56.3 L438.8,60.2 L438.6,63.8 L439.1,66.9 L420.5,88.6 L422.2,83.1 L421.7,78.5 L421.9,72.3 L422.6,66.7 L422.9,61.7 L424.4,58.8 L427.7,55.8 L428.9,53.7 L430.0,50.4 L430.8,47.6 L432.7,45.9 L435.3,44.9 L438.8,44.6 Z" fill="#4f8a3e" stroke="none"/>
<path d="M373.8,-11.5 L375.9,-10.6 L378.9,-8.3 L380.8,-5.9 L382.4,-2.6 L383.0,2.1 L382.7,7.2 L381.2,10.7 L379.0,15.1 L376.4,16.8 L373.7,17.5 L370.1,16.5 L368.6,15.1 L366.5,10.9 L365.7,7.4 L365.2,3.6 L365.4,0.3 L366.0,-2.8 L367.3,-6.0 L368.4,-8.0 L369.8,-10.1 L371.1,-10.9 L373.8,-11.5 Z" fill="#4f8a3e" stroke="none"/>
<path d="M370.1,21.5 L378.9,21.0 L381.8,25.8 L385.1,30.0 L386.0,32.2 L385.2,39.6 L384.7,44.5 L385.4,51.1 L384.4,57.0 L368.1,56.3 L367.3,50.7 L366.4,47.0 L365.8,44.3 L369.6,25.8 L370.1,21.5 Z" fill="#4f8a3e" stroke="none"/>
<path d="M512.9,381.6 L510.5,381.1 L508.6,383.4 L508.4,388.7 L510.0,392.5 L513.2,396.0 L514.8,397.1 L516.3,396.8 L517.9,396.0 L518.5,394.2 L518.0,390.8 L516.8,387.7 L515.1,384.6 L512.9,381.6 Z" fill="#4f8a3e" stroke="none"/>
<path d="M513.2,440.7 L511.4,440.1 L508.7,440.3 L504.6,444.1 L502.5,446.6 L501.5,449.5 L500.7,452.3 L499.6,455.0 L500.4,457.0 L502.0,457.7 L504.0,456.4 L509.0,452.0 L512.3,449.1 L513.3,447.1 L513.7,444.7 L514.0,442.8 L513.2,440.7 Z" fill="#4f8a3e" stroke="none"/>
<path d="M351.0,-93.5 L344.8,-94.9 L338.3,-93.9 L335.4,-88.9 L333.2,-82.3 L334.6,-75.8 L338.1,-69.3 L340.9,-65.6 L343.8,-64.3 L347.4,-63.9 L349.3,-65.3 L352.2,-67.5 L353.8,-70.7 L354.7,-74.8 L355.3,-77.7 L355.5,-82.4 L354.1,-87.4 L352.9,-91.1 L351.0,-93.5 Z" fill="#4f8a3e" stroke="none"/>
<path d="M356.3,-109.9 L354.1,-103.5 L348.6,-100.0 L339.7,-96.3 L330.8,-93.5 L327.7,-94.0 L323.8,-96.6 L318.4,-106.0 L316.2,-113.1 L314.0,-117.6 L313.8,-122.0 L315.4,-124.3 L322.6,-128.5 L328.8,-130.7 L335.1,-131.7 L339.1,-133.2 L342.7,-135.5 L346.9,-136.5 L350.2,-135.4 L352.0,-133.5 L353.9,-130.4 L356.1,-122.5 L357.5,-114.8 L356.3,-109.9 Z" fill="#4f8a3e" stroke="none"/>
<path d="M276.5,657.1 L273.8,659.3 L271.2,663.0 L270.8,668.3 L272.1,672.4 L274.0,675.5 L276.2,676.7 L279.0,676.0 L281.3,673.2 L282.2,671.5 L282.9,667.9 L282.9,664.0 L282.3,660.9 L280.5,657.9 L278.7,657.0 L276.5,657.1 Z" fill="#4f8a3e" stroke="none"/>
<path d="M299.4,646.3 L296.8,646.2 L292.5,647.2 L290.1,648.7 L289.4,652.8 L290.2,656.6 L293.0,659.6 L300.0,665.3 L320.0,682.1 L323.5,684.4 L326.6,684.9 L329.4,684.3 L331.4,683.2 L333.0,680.0 L335.7,673.9 L335.7,672.3 L332.5,669.7 L325.4,665.3 L321.2,662.4 L320.0,662.1 L318.0,661.9 L316.1,661.4 L313.5,659.3 L312.4,658.1 L312.3,657.1 L312.9,656.2 L303.9,648.3 L301.8,647.0 L299.4,646.3 Z" fill="#4f8a3e" stroke="none"/>
<path d="M384.5,691.1 L386.9,691.5 L389.0,692.7 L390.0,695.0 L389.5,697.5 L388.4,699.0 L386.1,700.0 L382.9,699.5 L381.0,697.6 L379.5,694.9 L379.6,692.7 L381.8,691.3 L384.5,691.1 Z" fill="#4f8a3e" stroke="none"/>
<path d="M729.8,412.8 L724.7,412.5 L711.5,420.6 L711.5,422.4 L740.7,450.3 L742.8,451.1 L746.2,450.7 L748.5,449.2 L750.1,446.8 L750.6,443.2 L749.5,438.8 L747.7,434.9 L733.3,416.9 L729.8,412.8 Z" fill="#4f8a3e" stroke="none"/>
<path d="M728.5,405.8 L734.7,403.7 L738.4,401.2 L739.3,397.6 L727.6,382.1 L725.0,381.3 L722.2,382.2 L717.7,385.6 L715.7,387.6 L716.9,391.2 L728.5,405.8 Z" fill="#4f8a3e" stroke="none"/>
<path d="M661.3,335.9 L659.7,333.9 L657.4,332.6 L654.9,332.1 L652.5,332.5 L650.4,333.5 L648.8,335.2 L647.7,337.2 L647.3,339.6 L647.6,341.9 L648.7,344.0 L650.3,345.7 L652.4,346.8 L654.9,347.2 L657.5,346.7 L659.7,345.4 L661.4,343.4 L662.2,340.9 L662.2,338.3 L661.3,335.9 Z" fill="#4f8a3e" stroke="none"/>
<path d="M362.7,74.1 L359.1,77.6 L356.2,82.0 L354.2,85.7 L353.7,88.0 L353.6,90.3 L354.1,92.3 L355.5,94.7 L357.3,96.5 L360.1,97.3 L363.3,97.8 L365.5,98.1 L367.8,98.0 L369.7,96.9 L370.4,95.2 L370.7,91.3 L371.3,87.1 L372.8,80.8 L374.0,76.4 L362.7,74.1 Z" fill="#4f8a3e" stroke="none"/>
<path d="M349.4,148.3 L347.9,146.2 L345.8,144.8 L343.4,144.2 L341.1,144.4 L338.9,145.3 L337.2,146.8 L336.0,148.8 L335.4,151.0 L335.7,153.4 L336.6,155.5 L338.2,157.2 L340.2,158.4 L342.5,158.8 L345.0,158.5 L347.2,157.3 L348.9,155.5 L349.9,153.2 L350.1,150.7 L349.4,148.3 Z" fill="#4f8a3e" stroke="none"/>
<path d="M316.1,451.1 L311.8,452.1 L308.3,453.5 L306.4,457.7 L305.7,462.0 L305.9,467.4 L306.4,471.9 L307.1,476.6 L306.6,482.3 L304.3,488.4 L303.3,494.5 L304.3,500.4 L305.2,505.9 L309.0,509.6 L314.6,512.5 L323.1,512.5 L330.7,511.8 L337.8,510.3 L344.9,509.2 L351.0,505.9 L352.9,499.5 L353.6,492.4 L351.2,485.1 L347.4,479.7 L343.7,474.7 L339.7,470.7 L335.6,465.5 L331.9,462.0 L328.1,458.7 L324.3,455.1 L320.1,452.3 L316.1,451.1 Z" fill="#2f7825" stroke="none"/>
<path d="M255.2,-110.6 L253.6,-108.5 L252.4,-105.0 L251.6,-101.8 L250.3,-95.2 L249.2,-92.5 L247.2,-89.1 L244.3,-86.6 L241.2,-82.9 L239.5,-79.6 L238.1,-75.8 L237.8,-72.3 L238.5,-68.1 L240.3,-64.3 L243.7,-59.5 L246.5,-56.4 L248.9,-52.7 L251.4,-49.5 L254.2,-47.3 L258.2,-46.0 L262.8,-45.7 L267.1,-45.6 L272.1,-46.6 L276.9,-48.7 L278.8,-51.4 L279.9,-55.9 L280.9,-59.5 L281.7,-64.0 L282.5,-68.6 L282.7,-72.8 L282.5,-77.1 L281.7,-81.9 L280.6,-85.8 L278.7,-90.6 L275.5,-96.3 L274.1,-99.9 L271.9,-103.7 L269.5,-107.2 L265.7,-110.7 L262.2,-112.2 L258.8,-112.7 L256.9,-111.9 L255.2,-110.6 Z" fill="#2f7825" stroke="none"/>
<path d="M514.7,529.2 L511.3,526.7 L505.2,525.0 L497.5,524.5 L490.0,525.3 L483.6,526.9 L475.9,529.8 L468.9,533.3 L464.5,537.4 L460.8,543.1 L460.4,547.9 L461.1,552.6 L462.4,556.7 L464.9,559.9 L469.2,563.3 L473.6,565.4 L479.1,566.5 L483.1,566.4 L486.9,565.2 L490.3,563.0 L493.1,559.9 L496.1,558.3 L500.3,557.3 L505.6,556.6 L510.2,554.7 L514.7,551.4 L516.7,547.8 L518.7,544.1 L519.6,540.3 L519.1,536.4 L517.6,532.6 L514.7,529.2 Z" fill="#2f7825" stroke="none"/>
<path d="M325.2,51.7 L324.6,49.7 L324.1,48.2 L322.7,46.3 L320.6,45.2 L318.5,44.3 L315.5,42.5 L313.6,40.7 L310.8,38.6 L309.4,36.7 L307.7,34.5 L304.6,32.7 L301.0,32.9 L296.5,34.8 L291.5,39.6 L286.9,45.4 L281.3,54.2 L277.7,61.1 L277.6,64.8 L278.2,68.5 L279.8,72.8 L282.6,76.3 L287.2,78.8 L293.1,79.3 L298.5,78.2 L303.1,76.9 L309.9,73.1 L314.5,69.3 L320.2,64.2 L323.1,60.1 L325.3,55.9 L325.4,53.5 L325.2,51.7 Z" fill="#2f7825" stroke="none"/>
<path d="M559.9,389.8 L563.2,391.6 L565.4,394.4 L568.0,396.8 L570.6,398.0 L573.8,399.1 L578.1,400.9 L582.5,403.0 L584.8,406.4 L586.0,409.6 L587.0,413.3 L588.9,416.3 L591.7,417.7 L594.8,417.8 L597.4,416.7 L599.3,414.7 L600.4,412.2 L600.6,409.3 L600.3,406.2 L599.8,403.4 L598.7,399.9 L597.2,397.1 L595.1,394.4 L592.4,392.0 L589.5,389.2 L586.9,386.7 L585.3,383.9 L583.0,381.1 L579.4,378.4 L576.4,376.7 L573.1,375.8 L570.4,375.5 L567.3,374.7 L562.5,372.3 L560.3,371.0 L557.5,368.6 L555.4,367.5 L553.0,366.4 L550.3,366.2 L547.7,366.9 L546.1,367.9 L544.9,370.1 L544.1,373.8 L545.2,377.8 L549.8,383.5 L553.0,386.2 L554.6,387.5 L559.9,389.8 Z" fill="#2f7825" stroke="none"/>
<path d="M478.3,-81.1 L482.6,-83.4 L488.0,-83.1 L491.8,-81.8 L495.3,-80.0 L500.3,-75.7 L503.6,-70.8 L506.7,-64.0 L508.1,-58.8 L508.5,-50.5 L507.5,-39.4 L505.3,-32.9 L503.0,-27.7 L499.7,-23.7 L496.2,-21.1 L491.8,-20.4 L485.7,-21.6 L480.1,-23.7 L477.5,-25.7 L475.9,-30.1 L473.9,-41.5 L472.5,-50.6 L470.8,-57.9 L470.1,-64.6 L470.2,-69.6 L471.7,-73.8 L474.7,-77.5 L478.3,-81.1 Z" fill="#2f7825" stroke="none"/>
<path d="M467.7,620.4 L446.3,630.1 L442.1,633.6 L438.7,637.9 L437.1,641.7 L436.5,646.4 L437.0,650.8 L439.1,658.3 L445.8,675.7 L448.1,678.3 L451.5,680.3 L456.0,682.5 L460.0,682.8 L464.3,682.0 L467.3,680.0 L484.2,655.0 L486.3,649.9 L487.3,643.9 L487.1,635.2 L484.2,626.2 L480.2,621.7 L476.4,620.1 L472.8,619.6 L467.7,620.4 Z" fill="#2f7825" stroke="none"/>
<path d="M655.6,440.8 L660.2,443.5 L665.9,447.0 L670.9,450.8 L675.1,455.0 L677.3,458.8 L678.5,463.7 L677.8,469.0 L674.5,472.4 L670.6,473.0 L665.8,472.1 L661.6,470.5 L656.2,468.5 L652.2,468.2 L645.3,468.2 L640.0,468.7 L636.9,469.3 L633.0,467.8 L630.1,465.7 L627.4,462.1 L625.7,456.9 L624.7,451.5 L625.3,446.7 L627.9,442.3 L630.9,440.0 L633.4,438.8 L638.6,437.5 L644.8,437.9 L649.3,438.6 L655.6,440.8 Z" fill="#2f7825" stroke="none"/>
<path d="M371.8,-1.3 L359.5,355.5 L469.5,544.2" fill="none" stroke="#ffd64a" stroke-width="5" stroke-linecap="round" stroke-linejoin="round" opacity="0.95"/>
</svg>