<svg xmlns="http://www.w3.org/2000/svg" viewBox="0 0 800 304" preserveAspectRatio="xMidYMid meet">
<rect width="100%" height="100%" fill="#143018"/>
<path d="M26.0,145.9 L33.3,142.4 L47.6,144.1 L54.0,141.5 L57.9,134.9 L65.0,131.2 L72.8,130.5 L89.4,131.9 L104.6,131.8 L135.9,138.9 L144.2,133.9 L174.9,121.2 L203.9,120.6 L231.0,126.2 L264.8,138.9 L278.6,144.1 L294.5,144.1 L331.0,143.0 L370.0,157.6 L390.5,172.8 L417.7,198.4 L459.1,222.7 L491.2,245.8 L506.3,259.0 L508.8,271.1 L528.8,271.3 L541.9,280.7 L545.9,297.5 L546.3,318.9 L538.3,336.7 L527.4,341.8 L512.1,345.2 L488.7,336.2 L484.8,321.2 L471.8,308.7 L462.0,300.3 L455.7,292.3 L450.3,287.0 L440.3,283.5 L435.3,278.6 L434.0,274.0 L427.5,264.8 L420.6,262.5 L416.5,256.5 L408.5,254.1 L403.5,247.1 L393.7,242.8 L389.3,239.4 L386.7,230.0 L382.6,224.2 L377.0,220.9 L368.7,215.5 L357.8,210.8 L346.6,209.0 L337.9,206.6 L326.1,204.2 L312.9,203.2 L301.3,206.5 L291.0,205.8 L283.3,197.2 L279.8,193.1 L269.7,191.1 L243.8,187.3 L220.5,180.6 L195.1,170.2 L173.9,167.6 L166.6,158.5 L158.3,158.2 L150.7,162.7 L145.1,166.3 L104.0,161.1 L96.7,166.3 L86.8,168.3 L68.3,172.1 L42.6,170.5 L30.2,169.5 L24.3,161.3 L26.0,145.9 Z" fill="#2b5a2a" stroke="none"/>
<path d="M499.4,210.2 L499.3,202.4 L505.1,197.2 L512.8,194.1 L531.8,205.7 L549.3,219.5 L564.1,224.9 L608.8,267.9 L608.9,299.5 L612.8,331.4 L620.0,345.2 L629.1,346.8 L638.7,343.2 L647.4,341.2 L660.5,351.9 L677.1,361.5 L692.7,375.1 L724.9,385.1 L749.4,384.3 L760.8,384.4 L774.8,387.6 L795.6,391.7 L810.5,391.4 L829.1,400.7 L833.3,408.8 L834.0,422.3 L832.4,432.5 L819.6,445.1 L806.3,454.2 L786.9,460.6 L770.3,452.5 L759.4,438.4 L708.5,442.4 L702.0,445.4 L677.6,445.9 L662.3,442.8 L651.3,432.3 L643.3,416.0 L633.5,398.9 L624.6,388.3 L618.4,374.2 L610.0,354.5 L591.2,328.3 L578.1,324.4 L570.3,315.1 L577.1,303.9 L591.7,283.5 L585.3,272.5 L571.7,258.9 L554.7,241.3 L547.0,248.2 L520.4,226.7 L507.3,217.3 L499.4,210.2 Z" fill="#2b5a2a" stroke="none"/>
<path d="M838.6,405.5 L842.6,411.3 L854.9,412.3 L859.8,410.7 L861.1,396.4 L862.5,376.6 L863.8,363.4 L866.3,346.4 L868.9,335.1 L872.0,325.7 L870.9,315.2 L870.1,306.1 L872.0,296.4 L876.3,282.6 L876.1,264.1 L876.8,255.4 L879.2,246.0 L875.6,225.9 L866.9,196.7 L857.4,147.7 L870.4,123.4 L877.1,95.4 L867.7,62.2 L854.4,48.6 L843.8,39.3 L826.6,25.0 L809.3,13.5 L786.6,-6.0 L765.1,-26.8 L753.9,-44.2 L745.4,-60.4 L727.8,-76.1 L715.3,-89.9 L702.0,-113.4 L686.6,-145.7 L674.4,-173.8 L666.8,-193.4 L660.1,-197.7 L651.1,-199.2 L639.8,-198.2 L628.6,-190.8 L615.4,-168.6 L615.5,-142.1 L619.3,-128.1 L628.7,-109.6 L632.8,-92.8 L648.3,-77.2 L674.4,-65.6 L674.6,-51.7 L686.1,-36.8 L703.8,-23.3 L715.3,-13.3 L725.1,-1.9 L733.1,12.8 L737.6,21.4 L745.2,29.7 L768.7,48.7 L781.5,60.8 L786.4,72.6 L791.5,95.4 L799.0,115.9 L807.0,132.0 L820.8,160.5 L831.6,169.6 L845.2,174.6 L847.4,184.6 L841.3,194.0 L837.2,214.5 L839.7,270.2 L839.9,330.6 L837.5,360.5 L837.2,388.8 L838.6,405.5 Z" fill="#2b5a2a" stroke="none"/>
<path d="M665.5,-326.7 L673.9,-337.3 L681.5,-341.9 L688.6,-341.4 L693.1,-338.2 L695.1,-329.0 L687.5,-317.5 L675.8,-304.1 L663.7,-290.5 L648.6,-273.1 L637.8,-260.3 L621.9,-239.1 L593.1,-208.1 L579.9,-181.5 L564.7,-158.2 L548.4,-134.4 L537.3,-111.7 L522.8,-80.7 L508.8,-63.8 L486.0,-52.8 L462.3,-38.0 L444.1,-28.7 L422.0,-23.2 L411.6,-19.9 L401.7,-31.7 L388.8,-37.9 L376.0,-42.9 L365.6,-44.6 L358.4,-53.9 L358.9,-66.8 L362.3,-81.1 L384.4,-93.8 L417.4,-100.2 L440.2,-107.0 L454.9,-123.3 L460.0,-131.7 L468.9,-141.3 L476.5,-149.5 L492.6,-171.4 L516.5,-197.9 L535.8,-212.8 L554.5,-232.3 L575.7,-251.8 L583.9,-257.2 L598.4,-259.6 L616.3,-273.3 L651.5,-310.2 L658.7,-319.5 L665.5,-326.7 Z" fill="#2b5a2a" stroke="none"/>
<path d="M423.5,14.0 L419.6,19.9 L418.2,24.9 L422.8,32.3 L446.3,43.9 L462.9,52.2 L486.3,63.7 L515.4,76.8 L538.4,91.8 L561.1,105.0 L570.7,114.9 L603.8,139.7 L618.7,144.0 L643.1,152.3 L656.0,157.4 L666.4,158.4 L675.0,153.7 L682.3,146.9 L681.0,136.6 L673.7,129.4 L664.7,121.5 L660.6,106.4 L656.6,96.9 L650.6,93.1 L644.2,86.5 L636.2,81.9 L628.6,78.5 L620.3,71.8 L609.1,66.1 L600.3,59.7 L592.2,56.9 L579.9,59.2 L567.3,68.0 L554.8,72.0 L522.0,59.5 L509.9,54.1 L466.5,32.7 L434.7,16.6 L428.8,13.5 L423.5,14.0 Z" fill="#2b5a2a" stroke="none"/>
<path d="M714.0,220.1 L731.7,226.7 L753.0,235.9 L758.9,242.5 L757.8,250.6 L752.2,259.4 L744.5,261.2 L733.5,257.2 L719.9,249.5 L712.6,243.9 L704.5,240.6 L689.4,238.4 L672.1,232.6 L648.2,219.3 L622.5,207.6 L605.2,196.2 L597.2,187.7 L587.6,182.9 L563.4,174.4 L556.5,176.9 L548.6,182.6 L537.1,197.7 L520.0,185.5 L494.2,169.7 L474.9,163.9 L435.7,140.2 L397.8,121.4 L375.7,112.5 L368.8,98.4 L351.5,100.9 L321.7,103.3 L266.7,91.5 L242.0,89.4 L230.5,79.0 L187.4,82.1 L176.2,91.5 L151.4,95.0 L111.1,97.2 L79.7,101.7 L48.5,105.8 L27.9,90.0 L13.2,77.4 L11.7,69.7 L22.2,53.7 L25.7,44.8 L34.8,36.3 L42.7,27.6 L51.8,21.7 L68.5,14.0 L77.3,11.5 L90.1,12.3 L96.4,15.3 L103.9,20.8 L110.7,24.2 L131.0,28.8 L164.8,40.3 L176.5,31.3 L186.3,27.5 L230.7,29.6 L275.9,44.3 L315.0,51.3 L355.9,52.8 L374.5,57.2 L410.1,73.5 L441.9,84.2 L471.2,94.3 L488.7,90.7 L508.6,99.5 L530.2,108.7 L539.1,115.1 L561.3,150.2 L571.6,156.4 L597.5,165.1 L620.0,175.3 L642.7,185.5 L690.6,207.6 L701.6,213.1 L714.0,220.1 Z" fill="#2b5a2a" stroke="none"/>
<path d="M742.9,246.9 L426.7,103.3 L366.0,85.0 L231.9,56.8 L171.2,61.0 L57.1,61.0" fill="none" stroke="#4e8b39" stroke-width="44.4" stroke-linecap="round" stroke-linejoin="round" opacity="0.85"/>
<path d="M238.8,139.0 L231.1,136.7 L220.1,135.5 L210.6,137.4 L203.4,140.8 L200.6,143.8 L198.2,149.5 L198.5,155.3 L200.6,162.3 L205.2,168.7 L211.7,172.5 L222.4,177.4 L256.5,184.9 L271.1,187.6 L281.4,190.0 L289.5,193.9 L302.6,198.6 L313.6,200.5 L324.2,201.4 L337.5,202.3 L349.6,204.9 L362.4,208.3 L373.6,213.7 L383.2,218.6 L391.3,226.0 L395.0,232.5 L397.3,236.8 L402.5,242.5 L412.2,249.1 L425.5,259.1 L433.9,266.6 L439.2,273.3 L443.0,277.3 L450.0,282.1 L460.9,290.3 L467.9,298.0 L472.8,303.1 L475.3,306.3 L478.1,307.5 L480.2,307.5 L482.2,307.1 L483.9,306.9 L486.7,307.3 L489.7,308.3 L493.8,309.3 L496.5,310.2 L498.9,311.6 L502.2,315.3 L504.5,318.4 L505.6,321.4 L506.6,326.8 L507.9,332.3 L509.0,334.1 L510.2,335.2 L511.6,335.9 L513.5,336.7 L515.8,337.1 L518.1,336.9 L519.8,336.3 L521.9,334.6 L522.8,332.7 L523.7,330.9 L524.3,328.9 L525.1,326.3 L525.6,324.2 L525.9,322.3 L526.4,319.6 L526.8,317.4 L527.9,316.2 L530.0,315.0 L532.0,313.0 L534.6,308.7 L537.5,303.4 L538.6,300.0 L539.1,296.7 L539.2,294.0 L538.0,289.7 L537.1,287.2 L535.3,283.8 L533.8,282.0 L531.5,280.6 L526.3,278.7 L520.0,277.2 L515.6,275.9 L510.9,275.5 L500.2,275.2 L498.2,275.1 L495.5,275.2 L493.0,274.5 L490.4,273.1 L487.4,270.9 L485.7,268.1 L483.8,265.5 L481.9,261.7 L480.2,260.2 L478.1,259.0 L475.0,257.0 L472.5,254.2 L472.0,252.2 L471.7,249.2 L472.1,245.7 L471.4,242.4 L470.3,239.7 L467.9,236.6 L464.4,233.7 L461.9,231.0 L458.6,229.2 L454.9,227.2 L446.7,222.6 L440.6,219.1 L433.2,214.9 L425.4,209.8 L420.4,207.0 L413.6,202.1 L407.3,197.0 L403.5,193.9 L399.5,189.5 L391.9,182.0 L386.2,176.1 L380.6,172.3 L377.2,169.9 L373.3,166.8 L366.9,162.8 L357.8,159.2 L350.5,156.2 L342.3,153.2 L337.7,151.8 L332.4,150.4 L327.0,149.7 L320.6,149.9 L313.5,150.1 L307.9,150.1 L299.1,150.6 L291.9,151.4 L287.3,151.5 L284.3,151.3 L279.7,150.6 L274.9,149.7 L270.1,147.8 L266.3,146.0 L262.4,145.1 L259.4,144.2 L253.7,143.2 L246.6,141.7 L238.8,139.0 Z" fill="#5a9540" stroke="none"/>
<path d="M665.2,-179.2 L666.9,-173.1 L669.9,-165.1 L673.2,-158.7 L676.4,-151.2 L679.4,-144.4 L679.5,-141.4 L679.0,-139.6 L676.4,-138.2 L673.6,-136.8 L669.2,-137.0 L663.8,-136.5 L660.6,-135.8 L657.3,-133.9 L655.7,-130.9 L655.0,-127.9 L655.0,-125.4 L656.4,-123.2 L658.3,-122.6 L663.1,-123.7 L667.1,-124.0 L670.4,-124.0 L673.4,-123.5 L675.9,-120.9 L677.4,-117.6 L679.4,-115.6 L683.1,-114.4 L687.6,-113.7 L691.3,-113.0 L693.4,-111.1 L696.9,-106.0 L704.4,-91.6 L709.9,-81.8 L717.8,-72.7 L727.1,-62.5 L730.9,-57.6 L734.2,-52.0 L735.8,-47.3 L736.7,-41.3 L737.6,-35.9 L739.0,-31.5 L745.1,-25.4 L765.4,-7.1 L775.4,1.6 L785.1,7.4 L791.1,12.9 L795.0,18.6 L797.7,23.6 L802.1,29.5 L808.8,33.9 L815.7,34.6 L821.3,34.3 L824.9,33.8 L829.4,35.1 L836.4,40.4 L841.9,45.5 L848.2,50.9 L855.0,56.7 L858.9,60.4 L861.3,64.2 L862.9,70.2 L864.3,78.4 L864.8,87.2 L863.4,97.9 L862.6,110.3 L861.3,114.9 L855.9,123.8 L849.9,132.6 L843.1,141.9 L838.7,144.8 L833.3,145.2 L827.9,143.3 L822.4,137.1 L813.8,121.5 L811.7,116.3 L812.4,110.3 L814.5,105.2 L817.7,101.2 L818.9,96.6 L818.0,93.3 L814.7,89.5 L810.0,87.0 L804.9,84.9 L800.3,82.8 L796.5,79.5 L793.1,71.7 L790.2,64.6 L786.7,58.3 L783.7,54.6 L778.4,50.2 L773.9,47.7 L768.3,44.2 L762.8,38.5 L758.6,32.9 L756.9,30.6 L754.2,28.9 L750.9,27.1 L746.7,22.4 L739.5,12.4 L733.2,1.4 L729.5,-6.2 L725.8,-10.4 L719.0,-17.8 L710.0,-26.0 L700.2,-34.1 L693.7,-39.0 L686.7,-42.3 L682.7,-46.2 L679.9,-50.6 L679.2,-53.7 L679.9,-57.2 L681.1,-60.0 L680.9,-63.2 L679.5,-65.6 L677.3,-68.8 L671.0,-72.8 L664.1,-76.5 L660.4,-77.6 L656.8,-78.8 L650.6,-81.6 L643.3,-87.2 L636.2,-97.4 L634.7,-107.7 L632.2,-113.6 L629.4,-118.2 L626.1,-121.7 L624.5,-126.6 L624.3,-131.2 L623.5,-136.8 L621.4,-144.7 L618.4,-151.3 L618.2,-157.3 L619.1,-163.8 L621.9,-171.1 L626.3,-178.3 L631.2,-184.5 L635.9,-190.1 L640.6,-192.9 L646.2,-194.4 L651.3,-194.4 L656.6,-193.0 L661.8,-189.2 L664.1,-183.9 L665.2,-179.2 Z" fill="#5a9540" stroke="none"/>
<path d="M571.2,75.4 L574.5,71.4 L577.7,69.2 L583.5,66.5 L589.3,65.0 L593.1,64.6 L597.4,65.7 L601.9,67.5 L605.7,70.3 L613.0,75.3 L623.6,81.2 L631.0,84.5 L639.0,89.0 L646.1,93.5 L650.2,97.0 L653.0,100.5 L655.7,104.2 L657.3,109.2 L659.0,114.7 L659.2,118.0 L660.9,122.8 L664.3,126.6 L667.8,129.8 L669.4,132.5 L671.1,136.1 L671.3,139.3 L670.5,142.3 L669.6,144.6 L668.1,146.7 L665.6,147.9 L662.7,148.4 L659.7,148.5 L656.2,147.6 L651.1,145.4 L645.3,143.1 L642.1,142.2 L637.5,141.3 L632.0,140.0 L627.5,137.6 L623.4,134.2 L621.7,131.2 L621.2,128.6 L621.5,124.4 L623.0,121.0 L625.6,117.4 L625.7,114.8 L624.3,112.2 L620.4,110.3 L615.9,109.0 L614.4,109.5 L613.4,110.5 L612.5,113.5 L612.5,115.3 L611.7,117.6 L610.5,119.2 L608.6,120.4 L607.1,121.4 L603.3,121.2 L598.3,118.1 L594.4,113.8 L591.3,110.9 L581.9,102.9 L574.1,95.9 L569.5,90.1 L567.7,86.6 L566.8,84.0 L567.3,81.5 L569.6,77.9 L571.2,75.4 Z" fill="#5a9540" stroke="none"/>
<path d="M507.9,115.2 L513.0,118.6 L518.4,122.1 L525.8,125.1 L533.5,128.4 L539.5,134.0 L544.4,142.4 L546.8,150.3 L547.5,155.2 L545.8,158.5 L543.3,159.6 L538.1,160.6 L529.7,159.8 L523.7,159.4 L509.7,161.9 L496.7,163.3 L489.3,163.3 L477.3,160.1 L463.9,152.2 L444.1,139.1 L428.3,129.8 L411.3,121.7 L390.7,113.5 L378.7,109.3 L375.8,107.2 L375.2,104.4 L376.6,101.7 L377.3,99.5 L377.5,95.8 L376.8,93.6 L374.7,92.2 L372.4,92.0 L369.0,91.6 L365.4,92.1 L361.5,93.4 L355.6,95.2 L340.3,97.3 L324.3,97.4 L317.8,96.9 L310.3,94.9 L299.1,92.7 L280.7,88.8 L264.3,85.7 L259.0,85.2 L248.0,85.0 L238.1,83.7 L237.1,82.7 L236.9,81.0 L234.9,75.9 L233.6,73.9 L231.7,72.3 L228.4,72.3 L224.5,72.5 L211.7,72.6 L206.0,72.9 L201.4,72.8 L196.4,73.2 L192.5,74.5 L189.0,76.5 L185.7,79.4 L180.2,84.1 L174.8,87.1 L166.3,89.5 L150.0,89.1 L136.0,87.8 L122.4,86.5 L110.3,84.6 L98.8,82.8 L92.3,80.9 L87.4,78.4 L84.6,75.8 L80.5,72.9 L77.4,71.4 L72.9,70.8 L69.5,71.3 L64.6,72.8 L59.9,75.3 L55.0,78.9 L51.1,82.0 L48.6,83.6 L45.2,84.6 L41.1,84.5 L37.0,83.7 L33.8,81.8 L30.6,78.2 L28.1,74.3 L26.0,70.0 L25.7,67.5 L25.8,64.7 L26.9,61.6 L29.7,59.4 L34.9,56.4 L38.4,54.2 L41.9,50.1 L46.5,46.5 L48.6,45.9 L50.1,46.4 L51.5,46.9 L53.4,46.9 L54.9,46.2 L56.2,45.1 L56.6,43.6 L57.7,43.0 L59.9,43.2 L62.1,43.0 L65.9,41.8 L67.3,40.1 L68.0,37.1 L69.2,35.9 L70.9,34.8 L71.5,32.8 L72.0,30.9 L73.8,29.8 L77.2,29.0 L83.0,29.0 L105.4,33.9 L126.2,37.7 L140.0,41.0 L152.0,44.2 L157.3,45.9 L162.1,47.3 L166.0,47.5 L170.3,45.9 L173.5,44.1 L176.0,41.7 L177.0,37.8 L177.6,35.1 L179.3,33.4 L182.8,32.3 L194.7,32.4 L206.1,32.9 L215.4,33.2 L230.7,35.5 L253.8,42.5 L271.2,47.8 L281.7,51.1 L286.5,52.6 L292.9,52.9 L302.7,53.9 L312.0,55.9 L318.2,57.2 L330.9,57.2 L354.0,57.3 L361.0,57.9 L368.0,60.0 L372.9,63.2 L378.8,66.9 L388.3,70.9 L396.4,74.3 L407.2,78.7 L416.3,82.2 L422.8,83.9 L429.2,85.1 L436.5,86.6 L442.3,89.3 L446.5,92.1 L451.0,95.5 L456.5,97.6 L461.9,98.5 L465.9,99.7 L468.9,100.6 L472.2,101.0 L475.4,101.0 L478.2,101.0 L480.5,101.0 L484.7,102.2 L493.6,107.0 L501.2,111.3 L507.9,115.2 Z" fill="#5a9540" stroke="none"/>
<path d="M69.8,75.1 L65.7,76.3 L60.3,79.1 L56.0,82.6 L50.9,86.1 L47.3,87.6 L43.5,88.1 L38.5,87.4 L32.6,85.7 L26.8,83.4 L23.5,83.2 L19.5,82.2 L15.8,77.9 L12.6,80.5 L15.0,84.9 L18.9,88.8 L23.2,91.8 L28.7,97.9 L37.9,106.8 L45.8,113.4 L51.1,117.0 L55.7,119.5 L60.4,120.1 L64.5,119.6 L71.3,116.8 L75.6,116.1 L80.8,116.5 L86.3,115.8 L90.1,113.5 L91.7,110.0 L93.1,104.1 L92.9,99.9 L91.5,94.2 L88.3,89.5 L86.1,86.1 L84.8,82.7 L83.0,79.7 L81.0,77.6 L78.2,76.3 L74.7,75.4 L69.8,75.1 Z" fill="#2e5577" stroke="none"/>
<path d="M638.5,336.2 L644.1,339.6 L645.9,335.6 L646.3,330.4 L643.2,325.9 L638.7,325.5 L636.3,327.0 L632.9,325.3 L628.9,323.9 L623.1,328.0 L622.6,331.5 L619.7,331.3 L616.1,333.3 L619.3,340.5 L623.1,342.3 L627.3,343.2 L632.5,342.5 L636.3,341.4 L638.5,336.2 Z" fill="#2e5577" stroke="none"/>
<path d="M588.2,337.3 L592.6,339.4 L593.3,342.5 L590.4,345.6 L587.3,345.2 L584.6,349.4 L584.6,353.0 L582.6,357.7 L578.8,359.9 L572.1,362.2 L565.3,362.4 L560.2,362.4 L557.3,361.1 L556.4,358.4 L556.8,355.2 L561.3,354.4 L567.1,353.5 L571.6,349.2 L574.3,344.1 L576.3,340.3 L579.9,337.6 L584.4,336.4 L588.2,337.3 Z" fill="#2e5577" stroke="none"/>
<path d="M541.9,326.2 L541.7,328.0 L541.2,329.2 L540.6,329.5 L539.8,329.5 L539.0,329.5 L538.4,329.7 L537.8,330.4 L537.2,330.9 L537.1,331.5 L536.9,332.1 L536.4,332.7 L535.9,333.2 L535.2,333.3 L534.5,333.1 L533.7,332.9 L533.1,332.6 L532.7,331.8 L532.6,331.0 L532.7,330.2 L532.9,329.4 L532.9,328.7 L532.6,328.1 L532.1,327.4 L531.8,326.9 L531.4,326.6 L530.5,326.4 L529.0,326.3 L528.0,326.2 L527.2,326.0 L526.7,325.4 L526.3,324.5 L526.3,323.6 L526.4,322.9 L526.7,321.8 L527.1,321.4 L527.3,320.5 L527.1,319.2 L527.2,317.9 L527.9,317.0 L528.5,316.4 L529.3,315.9 L529.7,315.8 L530.5,315.8 L531.0,316.0 L531.5,316.4 L532.0,316.6 L532.7,316.5 L533.3,316.8 L533.7,317.2 L534.0,317.7 L534.2,318.3 L534.1,319.1 L533.9,319.5 L533.8,320.2 L534.0,320.8 L534.5,321.2 L534.9,321.3 L535.6,321.2 L536.3,321.1 L536.9,321.2 L537.4,321.5 L538.0,322.1 L538.5,322.7 L538.9,323.3 L539.0,323.9 L539.1,324.4 L539.4,324.6 L540.0,324.6 L540.5,324.5 L540.9,324.8 L541.3,325.2 L541.9,326.2 Z" fill="#e7d6a3" stroke="none"/>
<path d="M494.6,329.7 L495.1,330.8 L496.0,330.9 L496.9,331.0 L497.6,331.5 L498.1,332.0 L498.6,332.7 L498.6,333.8 L498.6,334.8 L498.7,335.6 L499.1,336.3 L499.8,336.7 L500.5,336.9 L501.1,337.0 L501.6,337.3 L502.2,338.0 L502.5,338.9 L503.4,339.5 L504.1,339.8 L505.6,339.8 L506.4,339.4 L507.3,338.4 L507.5,337.2 L507.4,335.8 L506.9,335.1 L506.2,334.6 L505.4,334.0 L505.0,333.5 L505.3,333.2 L505.6,332.5 L505.8,331.3 L505.6,330.4 L505.4,329.5 L504.5,328.9 L503.6,328.4 L502.5,327.7 L501.7,327.3 L501.7,326.7 L502.1,325.1 L502.4,324.1 L503.1,323.4 L503.8,322.5 L504.2,321.6 L504.1,321.0 L503.4,320.0 L502.4,319.2 L501.5,319.2 L501.2,319.4 L500.0,319.7 L499.5,319.6 L498.8,319.9 L497.7,319.9 L497.0,320.0 L496.4,320.4 L496.3,321.2 L496.0,322.1 L495.3,322.4 L494.1,322.5 L493.4,322.9 L492.9,323.5 L492.3,324.6 L492.3,325.4 L492.5,326.3 L492.5,327.1 L493.4,327.9 L494.0,328.1 L494.6,328.7 L494.6,329.7 Z" fill="#e7d6a3" stroke="none"/>
<path d="M480.5,313.5 L480.6,312.4 L480.8,311.6 L480.8,310.7 L480.8,309.6 L481.0,308.9 L481.7,308.5 L482.4,308.1 L483.5,307.7 L484.3,307.9 L485.0,308.2 L486.1,309.1 L486.4,309.6 L486.7,309.8 L487.5,309.7 L488.1,309.7 L489.0,310.0 L489.6,310.7 L489.9,311.7 L490.2,312.4 L490.9,313.0 L491.5,313.3 L492.2,313.1 L493.0,312.3 L494.1,311.8 L495.2,311.8 L496.2,312.1 L496.9,312.8 L497.4,314.1 L497.6,315.7 L497.5,316.8 L497.2,317.8 L496.5,318.3 L495.9,318.7 L495.4,318.9 L494.7,319.0 L494.0,318.6 L493.5,318.8 L493.0,319.2 L492.9,319.8 L492.5,320.4 L491.6,321.0 L490.5,321.1 L489.5,320.7 L488.5,320.3 L488.2,319.5 L487.9,318.7 L487.8,318.1 L487.3,317.6 L486.6,317.0 L485.6,316.3 L484.6,316.4 L483.9,316.6 L483.1,316.6 L482.2,315.8 L481.2,315.1 L480.6,314.5 L480.5,313.5 Z" fill="#e7d6a3" stroke="none"/>
<path d="M491.9,252.4 L493.1,252.7 L494.1,253.1 L495.5,254.2 L496.2,254.9 L496.9,255.6 L498.2,256.2 L498.8,257.5 L499.0,259.5 L498.8,260.5 L498.4,261.8 L498.2,262.9 L498.4,263.8 L498.4,264.8 L498.2,265.3 L497.0,265.4 L496.0,265.2 L495.3,264.8 L494.6,264.6 L494.2,264.8 L493.9,265.1 L493.9,265.9 L494.0,267.2 L494.0,268.1 L493.5,268.7 L492.6,268.9 L491.4,269.0 L490.7,268.6 L489.4,267.7 L488.4,266.8 L488.0,265.9 L488.0,265.0 L488.4,263.9 L488.2,263.1 L487.7,262.6 L486.9,262.4 L485.8,262.0 L485.4,261.5 L485.0,260.7 L484.9,260.0 L485.1,258.9 L485.4,258.0 L485.4,257.1 L485.0,256.3 L484.3,255.9 L483.8,255.4 L483.2,255.3 L482.3,255.5 L481.4,255.8 L480.2,255.9 L479.5,255.6 L478.7,255.0 L478.0,254.3 L477.6,254.0 L477.0,254.0 L476.1,254.0 L475.4,253.7 L474.7,253.2 L474.2,252.0 L474.2,251.0 L474.5,249.7 L474.9,249.1 L475.5,248.7 L476.3,248.6 L477.4,248.6 L478.4,248.8 L479.5,248.9 L480.2,248.5 L481.0,247.9 L481.8,247.6 L482.6,247.5 L483.3,247.7 L483.9,248.0 L484.3,248.6 L484.4,249.2 L484.4,249.7 L484.8,250.1 L485.4,250.1 L485.9,249.9 L486.9,249.1 L487.9,248.5 L488.6,248.2 L489.5,248.4 L490.2,248.8 L490.9,249.5 L491.2,250.2 L491.0,250.9 L491.0,251.5 L491.2,252.0 L491.9,252.4 Z" fill="#e7d6a3" stroke="none"/>
<path d="M748.8,37.6 L749.1,37.3 L749.2,36.8 L749.4,36.3 L749.8,36.1 L750.3,36.0 L750.8,35.9 L751.1,35.7 L751.2,35.2 L751.1,34.7 L750.9,33.9 L751.1,33.1 L751.8,32.3 L752.5,31.9 L753.1,31.6 L753.6,31.6 L754.5,32.2 L755.2,32.8 L755.9,33.6 L756.1,34.0 L756.1,34.9 L756.1,35.6 L756.1,36.3 L756.3,36.8 L757.2,37.4 L757.9,37.9 L758.6,38.2 L759.2,38.7 L759.6,39.1 L759.8,39.6 L759.9,40.7 L759.9,41.5 L759.5,42.0 L758.9,42.6 L758.2,43.3 L757.9,43.9 L757.3,44.6 L756.6,44.9 L756.1,45.0 L755.4,44.9 L754.7,44.5 L754.1,44.2 L753.6,44.0 L752.9,44.1 L752.5,44.6 L751.8,45.0 L751.2,45.4 L750.4,45.7 L749.4,45.5 L748.4,45.1 L747.9,44.6 L747.6,43.8 L747.4,43.2 L747.1,42.9 L746.5,42.7 L746.0,42.5 L745.5,42.1 L745.1,41.5 L745.0,40.7 L745.3,39.8 L745.7,38.9 L746.2,38.3 L746.5,38.0 L747.1,37.8 L747.6,37.9 L748.0,38.0 L748.5,37.9 L748.8,37.6 Z" fill="#e7d6a3" stroke="none"/>
<path d="M772.6,55.7 L772.0,55.2 L771.6,54.6 L771.1,54.1 L770.9,53.5 L771.0,52.8 L771.4,52.3 L772.0,51.8 L772.6,51.5 L773.4,50.9 L773.7,50.5 L774.2,50.2 L774.9,50.3 L775.8,50.5 L776.4,50.7 L776.6,51.1 L777.2,52.5 L777.5,53.0 L778.0,53.2 L778.6,53.6 L778.8,54.0 L778.8,54.6 L778.7,55.2 L778.6,55.6 L778.8,56.3 L779.2,56.8 L779.7,57.4 L780.1,57.6 L781.3,57.8 L782.4,57.9 L782.9,58.3 L783.6,59.0 L784.3,59.3 L784.8,59.9 L785.0,60.6 L784.9,61.7 L784.7,62.4 L784.7,62.8 L785.2,63.6 L786.0,64.5 L786.3,64.8 L786.2,65.4 L786.0,66.6 L786.1,67.6 L786.4,68.2 L787.0,68.6 L787.7,69.0 L787.9,69.4 L788.0,70.2 L788.3,70.7 L788.7,71.0 L789.4,71.1 L790.3,71.1 L791.0,71.5 L791.5,72.3 L791.5,73.4 L791.4,74.2 L791.2,74.8 L790.3,75.7 L789.7,76.2 L789.2,76.9 L788.6,77.4 L787.9,77.8 L787.1,77.8 L786.1,77.6 L785.4,77.1 L784.8,76.7 L784.1,76.4 L783.5,76.1 L783.0,75.4 L782.9,74.6 L782.8,73.6 L782.8,72.8 L782.3,72.0 L781.8,71.7 L781.3,71.3 L780.8,70.8 L780.7,70.4 L780.6,69.4 L780.7,68.7 L780.5,67.9 L780.2,67.5 L780.3,66.8 L780.4,65.7 L780.1,64.9 L779.4,64.1 L778.7,63.9 L777.9,63.9 L777.1,63.9 L776.6,63.7 L776.2,63.2 L775.8,62.5 L775.8,62.0 L775.7,61.4 L775.3,61.0 L774.7,60.6 L774.4,60.3 L774.1,59.2 L773.9,58.4 L773.6,57.9 L772.9,57.5 L772.6,57.2 L772.6,56.5 L772.6,55.7 Z" fill="#e7d6a3" stroke="none"/>
<path d="M799.3,95.3 L799.1,94.5 L798.6,93.5 L798.3,92.6 L798.3,91.6 L798.8,90.7 L799.6,89.9 L800.7,89.5 L801.2,89.4 L802.3,89.7 L803.3,90.2 L803.8,90.5 L804.1,91.1 L804.5,91.3 L805.1,91.6 L805.6,91.3 L805.8,91.0 L806.3,90.7 L806.8,90.5 L807.4,90.4 L808.1,90.2 L808.6,89.9 L809.5,90.1 L810.3,90.4 L810.9,91.2 L811.8,92.2 L811.8,93.0 L811.9,94.1 L811.9,94.6 L812.5,94.9 L813.4,95.1 L814.1,95.2 L814.5,95.4 L815.1,95.9 L815.5,96.7 L815.5,97.3 L815.3,97.9 L814.9,98.6 L814.6,99.3 L814.5,100.3 L814.5,101.2 L813.9,101.8 L813.0,102.2 L812.1,102.4 L810.9,102.6 L809.5,102.5 L808.2,102.2 L807.4,101.8 L807.3,101.3 L807.0,100.2 L806.8,99.4 L806.1,98.5 L805.2,98.0 L804.5,97.7 L803.8,97.8 L803.3,97.9 L802.5,97.7 L802.0,97.2 L801.3,97.0 L800.5,96.9 L799.6,96.3 L799.3,95.3 Z" fill="#e7d6a3" stroke="none"/>
<path d="M830.1,32.1 L830.3,33.4 L830.9,34.3 L832.4,35.3 L834.2,36.5 L836.3,37.3 L837.7,38.3 L838.6,39.5 L839.1,40.9 L840.4,42.2 L841.4,42.9 L842.8,42.7 L843.8,43.0 L844.7,43.7 L845.0,44.6 L845.3,45.7 L846.3,46.6 L846.7,47.2 L847.4,47.5 L848.4,47.5 L848.9,48.0 L849.6,49.2 L850.6,50.6 L852.4,51.2 L853.8,52.2 L854.4,53.3 L854.9,54.8 L856.1,55.5 L857.3,56.3 L858.8,56.7 L860.1,56.5 L861.7,55.3 L862.0,54.3 L861.8,52.9 L862.1,52.0 L862.5,51.5 L862.8,50.7 L862.6,49.5 L861.9,48.8 L861.0,47.7 L860.8,46.9 L861.2,45.8 L861.3,44.9 L860.9,43.9 L860.1,43.5 L859.0,42.8 L857.6,42.8 L856.0,43.2 L854.7,43.5 L853.9,43.9 L853.0,43.5 L852.6,42.9 L853.1,41.5 L852.9,39.9 L852.1,38.9 L850.6,38.5 L850.1,38.3 L849.7,37.1 L848.9,35.8 L847.8,35.5 L847.0,35.4 L846.0,35.8 L845.1,35.9 L844.1,35.8 L843.1,35.2 L842.8,34.5 L843.1,33.5 L843.0,32.6 L842.4,31.7 L841.4,30.8 L840.6,30.3 L839.3,29.9 L838.8,29.3 L837.8,27.5 L837.0,26.8 L835.7,26.8 L834.0,27.1 L832.4,26.9 L830.9,27.1 L830.1,27.5 L829.1,28.8 L828.9,30.0 L829.8,31.3 L830.1,32.1 Z" fill="#e7d6a3" stroke="none"/>
<path d="M404.5,-45.5 L405.3,-46.2 L405.7,-47.2 L406.4,-48.0 L407.4,-48.2 L408.3,-47.9 L409.3,-48.0 L410.3,-48.8 L411.3,-49.5 L412.5,-49.5 L413.6,-48.4 L414.5,-47.6 L416.5,-47.0 L418.6,-46.2 L420.3,-45.5 L421.2,-44.2 L421.8,-43.0 L421.0,-41.5 L420.8,-40.4 L421.0,-39.3 L421.4,-38.3 L421.4,-37.4 L420.6,-36.3 L420.2,-35.4 L419.0,-34.8 L418.1,-34.0 L416.7,-33.9 L415.8,-34.3 L414.6,-35.0 L413.7,-35.9 L413.9,-37.4 L414.5,-38.3 L414.7,-39.4 L414.2,-40.3 L413.2,-40.2 L411.9,-39.8 L410.9,-39.2 L410.1,-38.7 L408.8,-38.6 L407.9,-39.3 L407.0,-39.8 L406.4,-41.2 L405.4,-41.4 L404.5,-41.7 L403.9,-42.7 L403.6,-43.8 L403.9,-44.7 L404.5,-45.5 Z" fill="#e7d6a3" stroke="none"/>
<path d="M426.8,-33.5 L426.6,-34.6 L427.4,-35.6 L427.9,-36.6 L428.5,-37.8 L429.7,-38.1 L431.0,-37.6 L432.4,-36.9 L433.3,-36.9 L434.6,-37.8 L435.5,-38.4 L435.3,-39.6 L435.5,-40.9 L436.1,-41.6 L437.0,-41.7 L437.7,-41.5 L438.5,-42.1 L439.6,-42.1 L441.2,-41.7 L441.9,-40.9 L442.8,-40.3 L443.2,-39.6 L442.8,-38.3 L442.7,-37.1 L442.8,-35.9 L442.9,-34.3 L442.8,-33.5 L441.6,-33.0 L440.9,-32.6 L440.5,-31.6 L440.1,-30.9 L439.1,-30.8 L437.8,-31.1 L437.1,-31.6 L436.4,-31.7 L435.6,-31.2 L435.1,-30.5 L433.8,-30.3 L433.0,-29.7 L432.7,-28.9 L432.6,-28.0 L431.7,-27.5 L429.8,-27.0 L428.9,-27.7 L427.7,-28.8 L426.5,-29.2 L426.2,-30.7 L426.6,-31.6 L427.1,-32.5 L426.8,-33.5 Z" fill="#e7d6a3" stroke="none"/>
<path d="M614.2,117.2 L614.5,116.3 L614.5,115.4 L614.0,113.9 L614.1,112.9 L614.7,111.9 L615.3,111.3 L616.3,110.9 L618.0,111.6 L619.1,112.1 L620.4,112.5 L621.2,113.0 L621.5,113.6 L622.3,113.8 L623.3,114.3 L623.7,115.0 L623.7,116.5 L623.6,117.5 L622.9,118.7 L622.3,119.2 L621.7,119.2 L621.1,119.4 L620.8,119.8 L620.8,120.9 L620.3,121.4 L619.7,121.9 L619.5,122.7 L619.7,123.5 L620.1,124.3 L620.4,125.1 L620.4,125.8 L620.1,126.7 L619.5,127.7 L618.7,128.1 L617.0,128.3 L615.8,127.6 L615.2,127.3 L614.8,126.3 L614.7,125.5 L614.2,125.0 L612.6,124.5 L612.0,123.8 L611.6,122.2 L611.0,121.1 L611.0,120.5 L611.4,119.8 L612.1,119.5 L613.4,119.3 L614.1,118.6 L614.2,117.9 L614.2,117.2 Z" fill="#e7d6a3" stroke="none"/>
<path d="M608.5,101.2 L608.2,100.2 L607.7,99.4 L607.2,99.0 L607.0,98.3 L607.2,97.5 L607.8,96.5 L608.6,96.0 L609.4,95.8 L610.1,95.9 L610.7,96.3 L611.5,96.3 L612.4,95.9 L613.2,95.3 L614.1,95.2 L615.2,95.5 L615.9,96.2 L616.3,97.0 L616.4,98.3 L616.0,99.4 L615.5,99.8 L614.7,100.1 L614.0,100.4 L613.3,101.3 L612.9,102.0 L612.4,102.6 L611.4,102.9 L610.4,103.0 L609.4,102.8 L608.8,102.1 L608.5,101.2 Z" fill="#e7d6a3" stroke="none"/>
<path d="M48.9,39.3 L48.7,37.2 L49.4,35.9 L50.4,35.6 L51.2,34.9 L51.4,33.4 L52.5,31.8 L54.0,30.8 L55.7,31.0 L56.9,32.0 L57.7,33.1 L58.6,33.2 L60.0,32.9 L60.7,32.5 L60.8,31.4 L60.5,30.0 L61.5,29.2 L62.9,28.5 L64.1,28.5 L65.1,27.5 L66.0,26.5 L67.0,26.6 L68.6,27.1 L69.4,28.6 L69.6,30.7 L70.0,31.6 L69.8,33.3 L69.6,34.2 L68.6,34.9 L67.4,35.3 L66.3,36.1 L66.4,37.3 L66.1,38.8 L65.1,39.5 L64.4,40.9 L62.9,41.6 L61.0,41.5 L60.0,42.0 L58.7,42.2 L57.3,41.4 L56.2,41.8 L55.2,43.0 L54.5,44.5 L53.8,45.6 L52.3,45.9 L51.3,45.0 L50.5,42.6 L50.6,41.3 L50.0,40.7 L48.9,39.3 Z" fill="#e7d6a3" stroke="none"/>
<path d="M99.5,51.4 L99.3,50.5 L99.4,49.3 L99.6,48.0 L100.7,46.8 L101.6,46.2 L103.0,46.4 L104.7,46.7 L105.9,46.7 L106.4,46.3 L106.8,45.5 L107.5,45.2 L108.9,45.3 L110.1,45.6 L110.7,46.1 L111.3,47.3 L111.4,48.5 L111.2,49.6 L110.8,50.9 L110.8,51.9 L110.9,53.2 L111.3,54.1 L111.5,55.1 L111.5,55.8 L111.1,56.8 L110.3,57.5 L109.6,58.2 L108.6,58.3 L107.3,58.3 L106.6,57.9 L105.8,57.9 L104.8,58.1 L104.0,57.7 L103.2,56.7 L102.7,56.1 L102.7,55.4 L103.0,54.7 L103.2,54.0 L102.9,53.2 L102.5,52.9 L101.6,52.7 L100.6,51.9 L99.5,51.4 Z" fill="#e7d6a3" stroke="none"/>
<path d="M159.6,40.9 L159.2,39.9 L159.4,39.0 L159.9,37.8 L160.6,37.0 L161.5,36.5 L162.7,36.2 L163.6,36.3 L164.5,36.6 L165.1,36.3 L164.9,35.7 L164.2,35.1 L164.3,34.2 L164.7,33.1 L166.0,32.4 L167.3,31.9 L168.4,31.8 L169.8,31.9 L170.4,32.1 L171.1,32.9 L171.8,34.3 L171.5,35.6 L171.5,36.4 L171.9,37.0 L172.6,37.1 L173.3,37.3 L173.6,38.2 L174.2,40.4 L174.1,41.0 L173.5,42.0 L172.8,42.6 L172.0,43.2 L170.8,43.2 L169.7,42.8 L168.6,42.9 L167.6,43.3 L166.9,43.7 L166.6,44.4 L165.8,45.1 L164.3,45.6 L163.5,46.1 L162.6,46.0 L161.5,45.2 L160.8,44.8 L160.2,43.9 L159.9,43.2 L160.1,42.6 L160.2,42.0 L160.0,41.2 L159.6,40.9 Z" fill="#e7d6a3" stroke="none"/>
<path d="M192.9,79.3 L193.1,78.3 L193.7,77.6 L195.0,76.9 L196.3,76.1 L197.1,76.0 L198.4,76.2 L199.9,76.6 L200.2,77.7 L200.9,79.0 L201.5,79.3 L202.7,79.6 L203.3,79.4 L204.0,78.9 L204.6,78.3 L205.1,78.2 L206.2,78.5 L207.2,79.0 L207.8,79.6 L208.4,80.4 L209.3,80.8 L210.0,81.6 L210.3,82.5 L210.3,83.9 L209.9,84.9 L209.1,85.7 L208.2,86.0 L207.0,86.5 L206.4,87.2 L206.0,88.1 L206.2,89.2 L206.2,90.0 L205.9,90.6 L205.9,91.6 L205.8,92.3 L205.4,93.0 L203.9,93.3 L202.5,93.3 L201.1,93.0 L200.0,92.4 L199.5,91.5 L199.2,90.8 L199.3,89.7 L199.5,88.5 L199.7,87.7 L199.3,86.5 L198.8,85.8 L198.1,85.7 L196.0,86.1 L194.5,86.2 L193.6,85.5 L193.1,84.9 L192.8,84.1 L193.2,83.0 L193.6,82.2 L193.9,81.4 L193.0,80.5 L192.9,79.3 Z" fill="#e7d6a3" stroke="none"/>
<path d="M214.8,80.9 L215.2,79.4 L215.4,77.9 L215.9,77.2 L217.8,76.0 L219.0,75.5 L220.4,75.4 L221.2,75.9 L222.3,77.2 L223.1,78.2 L223.7,78.8 L224.4,78.7 L225.7,78.0 L226.3,77.5 L226.7,76.4 L227.2,75.6 L227.5,75.0 L229.5,74.4 L230.9,74.4 L231.9,74.9 L232.7,75.8 L233.1,77.1 L233.6,78.0 L234.2,78.8 L234.4,79.9 L233.9,81.1 L233.3,81.7 L232.6,81.9 L231.1,82.1 L229.8,82.3 L229.3,83.1 L228.7,84.7 L228.1,85.7 L227.4,86.4 L226.3,86.8 L225.1,87.1 L223.6,86.5 L222.6,85.7 L222.0,84.7 L221.8,83.7 L221.2,83.2 L220.4,83.2 L219.6,83.9 L218.6,84.6 L217.7,84.8 L216.7,84.5 L215.8,83.5 L215.2,82.3 L214.8,80.9 Z" fill="#e7d6a3" stroke="none"/>
<path d="M364.7,98.7 L364.2,97.6 L364.4,96.1 L365.2,94.4 L366.5,93.9 L367.9,93.6 L369.5,93.9 L370.2,94.6 L370.8,94.6 L371.8,94.3 L372.8,94.0 L373.7,94.0 L374.8,94.6 L375.5,95.5 L375.9,96.6 L376.0,98.2 L375.7,99.4 L374.9,100.3 L373.5,101.0 L372.8,101.4 L372.6,102.4 L372.9,103.6 L373.0,104.2 L372.9,105.2 L373.3,105.8 L373.2,106.7 L372.5,107.6 L372.0,108.2 L370.9,108.4 L369.7,108.1 L369.1,107.5 L368.6,106.8 L367.7,106.6 L366.9,106.9 L366.0,106.7 L365.2,106.6 L364.2,106.7 L363.8,106.0 L363.6,104.9 L363.0,103.7 L362.7,102.0 L363.0,101.4 L363.6,100.9 L364.3,100.2 L365.0,100.0 L365.1,99.3 L364.7,98.7 Z" fill="#e7d6a3" stroke="none"/>
<path d="M454.5,89.4 L456.6,87.8 L457.0,86.7 L457.6,86.1 L458.8,85.6 L459.9,85.4 L460.7,85.7 L462.0,86.7 L462.7,87.0 L463.4,87.9 L463.4,89.1 L463.7,89.7 L464.8,90.1 L465.8,90.4 L466.6,90.5 L467.4,89.9 L468.1,88.7 L468.5,87.8 L469.4,87.3 L470.8,87.3 L472.0,87.3 L473.2,87.7 L474.1,88.8 L474.8,89.6 L474.8,90.8 L474.4,91.9 L474.0,92.8 L474.1,93.4 L474.6,93.9 L475.5,94.5 L476.5,95.0 L477.0,95.6 L477.1,96.9 L477.0,98.0 L476.4,98.6 L475.5,99.1 L474.1,99.7 L473.3,99.8 L472.0,99.6 L471.2,98.9 L470.0,98.7 L468.5,99.1 L467.4,98.8 L466.3,98.2 L465.3,97.1 L463.7,96.4 L461.8,96.0 L460.0,95.5 L459.2,95.6 L458.4,96.1 L456.8,96.0 L455.8,95.5 L454.8,94.6 L454.7,93.4 L454.2,92.6 L453.7,91.8 L453.7,90.8 L454.0,90.1 L454.5,89.4 Z" fill="#e7d6a3" stroke="none"/>
<path d="M805.6,27.3 L806.7,30.4 L808.1,31.7 L811.0,32.7 L813.5,33.4 L817.1,33.4 L820.1,31.7 L820.6,29.9 L820.2,27.2 L818.3,25.7 L815.9,26.2 L814.5,27.2 L811.7,27.8 L810.7,25.5 L808.0,25.1 L805.6,27.3 Z" fill="#e7d6a3" stroke="none"/>
<path d="M45.9,154.8 L45.2,167.1 L33.0,166.4 L33.7,154.1 L45.9,154.8 Z" fill="#4f8a3e" stroke="none"/>
<path d="M88.5,141.0 L86.7,153.9 L68.7,151.4 L70.5,138.5 L88.5,141.0 Z" fill="#4f8a3e" stroke="none"/>
<path d="M136.3,145.9 L134.7,158.8 L101.5,154.6 L103.1,141.7 L136.3,145.9 Z" fill="#4f8a3e" stroke="none"/>
<path d="M187.3,131.2 L185.6,141.3 L175.1,139.5 L176.8,129.5 L187.3,131.2 Z" fill="#4f8a3e" stroke="none"/>
<path d="M444.5,25.2 L439.2,35.4 L428.0,29.6 L433.3,19.4 L444.5,25.2 Z" fill="#4f8a3e" stroke="none"/>
<path d="M467.4,35.9 L461.9,46.9 L445.0,38.4 L450.6,27.4 L467.4,35.9 Z" fill="#4f8a3e" stroke="none"/>
<path d="M489.6,46.2 L484.2,57.2 L467.8,49.2 L473.2,38.2 L489.6,46.2 Z" fill="#4f8a3e" stroke="none"/>
<path d="M507.4,54.4 L501.9,66.1 L490.3,60.5 L495.8,48.9 L507.4,54.4 Z" fill="#4f8a3e" stroke="none"/>
<path d="M587.8,309.8 L582.8,317.5 L576.1,313.2 L581.0,305.5 L587.8,309.8 Z" fill="#4f8a3e" stroke="none"/>
<path d="M583.5,247.0 L575.2,255.6 L588.5,268.4 L596.8,259.8 L583.5,247.0 Z" fill="#4f8a3e" stroke="none"/>
<path d="M565.3,229.3 L557.8,237.1 L571.2,250.0 L578.7,242.3 L565.3,229.3 Z" fill="#4f8a3e" stroke="none"/>
<path d="M533.9,216.5 L525.5,225.7 L536.6,235.9 L545.1,226.8 L533.9,216.5 Z" fill="#4f8a3e" stroke="none"/>
<path d="M524.2,208.8 L516.4,217.6 L508.0,210.2 L515.8,201.3 L524.2,208.8 Z" fill="#4f8a3e" stroke="none"/>
<path d="M541.0,181.4 L535.0,189.6 L525.8,182.9 L531.8,174.7 L541.0,181.4 Z" fill="#4f8a3e" stroke="none"/>
<path d="M603.6,186.8 L608.3,175.2 L591.1,168.4 L586.4,179.9 L603.6,186.8 Z" fill="#4f8a3e" stroke="none"/>
<path d="M640.0,209.1 L644.9,198.4 L628.2,190.7 L623.3,201.4 L640.0,209.1 Z" fill="#4f8a3e" stroke="none"/>
<path d="M682.6,227.1 L687.1,216.1 L672.6,210.2 L668.1,221.2 L682.6,227.1 Z" fill="#4f8a3e" stroke="none"/>
<path d="M750.4,244.5 L745.7,254.8 L732.4,248.7 L737.2,238.4 L750.4,244.5 Z" fill="#4f8a3e" stroke="none"/>
<path d="M722.6,231.4 L717.9,241.7 L704.6,235.6 L709.4,225.3 L722.6,231.4 Z" fill="#4f8a3e" stroke="none"/>
<path d="M509.1,329.5 L508.8,327.3 L508.5,325.2 L508.2,322.1 L506.8,318.7 L505.3,315.6 L504.3,313.2 L503.2,311.6 L502.7,309.6 L502.7,308.1 L503.1,306.2 L503.8,304.0 L504.9,302.8 L506.5,301.3 L509.0,299.2 L512.3,297.5 L515.6,295.2 L518.1,293.4 L521.2,290.9 L524.4,289.6 L527.3,289.4 L529.9,290.3 L532.3,291.6 L534.2,293.7 L535.2,296.0 L535.1,298.5 L534.9,301.4 L534.3,303.4 L533.3,305.2 L531.4,307.5 L529.7,309.7 L526.9,312.3 L525.7,314.5 L524.9,318.0 L524.2,322.2 L523.7,325.9 L523.2,329.1 L522.6,330.7 L522.0,332.0 L520.9,333.8 L519.2,335.4 L517.7,335.9 L515.2,336.0 L513.1,335.3 L511.1,334.2 L509.8,332.5 L509.1,329.5 Z" fill="#2f7825" stroke="none"/>
<path d="M624.5,124.4 L625.3,121.6 L627.2,118.4 L628.9,116.5 L630.8,115.5 L632.7,115.0 L635.7,115.7 L639.6,117.6 L643.2,119.5 L646.8,121.5 L649.5,122.4 L652.7,123.3 L655.1,124.0 L657.7,125.0 L660.2,126.6 L663.6,129.1 L665.9,131.1 L667.7,132.8 L668.9,134.7 L669.3,137.3 L668.9,139.6 L667.9,141.4 L667.0,142.6 L665.3,144.0 L662.9,145.1 L660.9,145.2 L658.4,145.2 L655.7,143.8 L652.8,142.2 L649.7,140.5 L644.7,138.2 L641.4,137.2 L636.6,136.1 L631.9,134.1 L628.2,131.9 L626.1,130.0 L624.4,127.6 L624.5,124.4 Z" fill="#2f7825" stroke="none"/>
<path d="M36.8,66.2 L39.1,64.4 L40.6,62.3 L42.0,60.0 L43.2,56.7 L44.9,53.0 L46.1,51.2 L48.0,49.6 L50.9,48.6 L53.5,48.2 L56.9,47.7 L60.4,47.2 L64.4,46.4 L67.6,46.1 L70.6,46.4 L72.9,47.5 L75.2,49.2 L77.1,51.6 L78.0,53.6 L78.4,56.9 L78.0,59.9 L77.3,62.2 L75.9,64.3 L73.7,66.1 L71.2,67.4 L67.9,68.3 L64.0,69.2 L61.2,69.9 L57.8,71.4 L55.8,72.5 L53.6,74.7 L51.7,76.6 L49.7,78.3 L47.6,80.0 L44.9,81.2 L41.7,81.6 L38.8,80.6 L35.9,78.5 L34.6,75.8 L33.9,72.3 L34.8,69.0 L36.8,66.2 Z" fill="#2f7825" stroke="none"/>
<path d="M742.9,246.9 L426.7,103.3 L366.0,85.0 L231.9,56.8 L171.2,61.0 L57.1,61.0" fill="none" stroke="#ffd64a" stroke-width="3.5" stroke-linecap="round" stroke-linejoin="round" opacity="0.95"/>
</svg>