<svg xmlns="http://www.w3.org/2000/svg" viewBox="0 0 800 600" preserveAspectRatio="xMidYMid slice">
<rect width="100%" height="100%" fill="#143018"/>
<path d="M54.9,349.6 L63.1,345.6 L79.2,347.5 L86.4,344.7 L90.8,337.2 L98.8,333.0 L107.6,332.3 L126.3,333.8 L143.4,333.7 L178.6,341.7 L187.9,336.0 L222.6,321.7 L255.3,321.1 L285.7,327.4 L323.8,341.7 L339.4,347.6 L357.2,347.5 L398.3,346.3 L442.3,362.7 L465.3,379.9 L496.0,408.7 L542.6,436.0 L578.8,462.0 L595.8,476.9 L598.6,490.6 L621.1,490.8 L635.9,501.4 L640.3,520.3 L640.8,544.4 L631.8,564.4 L619.5,570.1 L602.3,574.0 L575.9,563.9 L571.6,546.9 L557.0,532.9 L545.9,523.4 L538.8,514.5 L532.7,508.4 L521.5,504.5 L515.8,499.0 L514.4,493.8 L507.1,483.5 L499.3,480.9 L494.6,474.1 L485.6,471.4 L480.0,463.6 L469.0,458.7 L464.0,454.9 L461.1,444.3 L456.5,437.7 L450.2,434.1 L440.8,428.0 L428.5,422.6 L415.9,420.6 L406.2,417.9 L392.8,415.3 L378.0,414.1 L364.9,417.8 L353.3,417.1 L344.6,407.3 L340.6,402.7 L329.4,400.5 L300.2,396.2 L273.9,388.7 L245.3,376.9 L221.4,374.0 L213.2,363.8 L203.9,363.4 L195.4,368.5 L189.0,372.6 L142.7,366.7 L134.5,372.5 L123.3,374.8 L102.5,379.1 L73.5,377.3 L59.7,376.2 L52.9,367.0 L54.9,349.6 Z" fill="#2b5a2a" stroke="none"/>
<path d="M588.0,422.0 L587.9,413.3 L594.4,407.3 L603.1,403.9 L624.5,416.9 L644.2,432.4 L660.9,438.5 L711.1,487.0 L711.3,522.5 L715.7,558.5 L723.8,574.1 L734.1,575.8 L744.9,571.7 L754.7,569.5 L769.4,581.6 L788.1,592.4 L805.7,607.7 L842.0,619.0 L869.5,618.1 L882.4,618.2 L898.2,621.8 L921.5,626.4 L938.3,626.0 L959.3,636.5 L964.0,645.6 L964.8,660.8 L963.0,672.3 L948.6,686.5 L933.6,696.7 L911.8,704.0 L893.0,694.8 L880.8,679.0 L823.5,683.5 L816.2,686.9 L788.6,687.4 L771.4,683.9 L759.0,672.1 L750.0,653.8 L739.0,634.5 L729.0,622.6 L722.0,606.6 L712.5,584.5 L691.4,555.0 L676.6,550.6 L667.9,540.1 L675.5,527.5 L691.9,504.5 L684.7,492.1 L669.4,476.8 L650.3,457.0 L641.6,464.8 L611.6,440.5 L596.9,430.0 L588.0,422.0 Z" fill="#2b5a2a" stroke="none"/>
<path d="M775.0,-182.6 L784.5,-194.5 L793.1,-199.8 L801.1,-199.2 L806.1,-195.6 L808.4,-185.3 L799.8,-172.3 L786.7,-157.2 L773.0,-141.9 L756.0,-122.2 L743.8,-107.9 L725.9,-83.9 L693.5,-49.1 L678.7,-19.1 L661.5,7.2 L643.2,33.9 L630.7,59.5 L614.3,94.4 L598.6,113.4 L572.9,125.8 L546.2,142.5 L525.7,153.0 L500.9,159.2 L489.1,162.8 L477.9,149.5 L463.4,142.6 L449.0,137.0 L437.3,135.0 L429.2,124.5 L429.8,110.0 L433.7,93.9 L458.4,79.6 L495.6,72.4 L521.4,64.8 L537.8,46.4 L543.7,36.9 L553.7,26.2 L562.2,17.0 L580.3,-7.8 L607.3,-37.6 L629.0,-54.3 L650.1,-76.3 L673.9,-98.2 L683.2,-104.4 L699.5,-107.1 L719.7,-122.5 L759.3,-164.0 L767.4,-174.5 L775.0,-182.6 Z" fill="#2b5a2a" stroke="none"/>
<path d="M502.5,201.1 L498.1,207.6 L496.5,213.3 L501.8,221.6 L528.2,234.8 L546.9,244.0 L573.2,257.0 L606.0,271.7 L631.9,288.6 L657.5,303.5 L668.3,314.6 L705.5,342.6 L722.3,347.5 L749.9,356.8 L764.4,362.6 L776.1,363.6 L785.7,358.3 L794.0,350.7 L792.5,339.2 L784.2,331.0 L774.1,322.0 L769.5,305.1 L765.1,294.4 L758.2,290.2 L751.0,282.7 L742.1,277.5 L733.5,273.7 L724.2,266.1 L711.5,259.8 L701.6,252.4 L692.5,249.4 L678.7,252.0 L664.4,261.8 L650.4,266.3 L613.5,252.3 L599.8,246.1 L550.9,222.1 L515.1,204.0 L508.5,200.5 L502.5,201.1 Z" fill="#2b5a2a" stroke="none"/>
<path d="M829.7,433.1 L849.6,440.5 L873.6,450.9 L880.2,458.3 L878.9,467.4 L872.7,477.4 L864.0,479.4 L851.6,474.9 L836.3,466.2 L828.0,460.0 L818.9,456.3 L802.0,453.8 L782.5,447.2 L755.6,432.3 L726.6,419.0 L707.2,406.2 L698.1,396.7 L687.3,391.3 L660.1,381.7 L652.2,384.5 L643.4,390.9 L630.5,407.9 L611.2,394.2 L582.2,376.3 L560.4,369.9 L516.3,343.1 L473.6,322.0 L448.7,312.0 L440.9,296.1 L421.5,298.9 L387.9,301.6 L326.0,288.3 L298.2,286.0 L285.2,274.2 L236.6,277.8 L224.0,288.3 L196.1,292.2 L150.7,294.7 L115.4,299.8 L80.2,304.4 L57.0,286.6 L40.5,272.4 L38.7,263.8 L50.6,245.8 L54.5,235.7 L64.8,226.2 L73.7,216.3 L83.9,209.7 L102.8,201.1 L112.7,198.2 L127.1,199.2 L134.1,202.5 L142.6,208.6 L150.2,212.5 L173.1,217.7 L211.2,230.6 L224.4,220.6 L235.5,216.2 L285.4,218.6 L336.3,235.2 L380.3,243.0 L426.4,244.8 L447.3,249.7 L487.4,268.0 L523.2,280.1 L556.3,291.5 L576.0,287.4 L598.3,297.3 L622.7,307.7 L632.7,314.9 L657.7,354.4 L669.2,361.4 L698.4,371.2 L723.8,382.6 L749.4,394.2 L803.3,419.0 L815.8,425.2 L829.7,433.1 Z" fill="#2b5a2a" stroke="none"/>
<path d="M448.1,-91.0 L391.3,-77.6 L360.6,-70.4 L337.7,-65.5 L323.7,-61.6 L299.2,-54.4 L295.5,-48.3 L284.0,-49.2 L279.7,-67.3 L291.1,-79.5 L322.8,-80.6 L350.1,-87.0 L354.6,-90.3 L369.5,-95.7 L394.4,-102.8 L421.7,-110.0 L438.6,-114.9 L443.3,-114.9 L445.8,-111.7 L447.6,-107.2 L449.2,-102.7 L450.1,-97.6 L450.1,-94.1 L448.1,-91.0 Z" fill="#2b5a2a" stroke="none"/>
<path d="M294.6,341.8 L285.9,339.3 L273.4,337.9 L262.8,340.1 L254.7,343.8 L251.5,347.2 L248.8,353.7 L249.2,360.2 L251.5,368.1 L256.7,375.2 L264.0,379.5 L276.0,385.1 L314.5,393.5 L330.9,396.5 L342.5,399.3 L351.6,403.6 L366.4,408.9 L378.8,411.1 L390.6,412.1 L405.6,413.1 L419.3,416.1 L433.7,419.8 L446.3,425.9 L457.2,431.5 L466.3,439.7 L470.4,447.0 L473.0,452.0 L478.9,458.3 L489.7,465.8 L504.8,477.0 L514.2,485.5 L520.2,493.0 L524.5,497.6 L532.4,502.9 L544.6,512.2 L552.5,520.9 L558.1,526.6 L560.8,530.2 L564.0,531.6 L566.3,531.5 L568.7,531.1 L570.6,530.8 L573.7,531.3 L577.1,532.4 L581.6,533.6 L584.7,534.6 L587.4,536.2 L591.2,540.4 L593.7,543.8 L594.9,547.2 L596.1,553.3 L597.6,559.5 L598.8,561.5 L600.1,562.8 L601.8,563.6 L603.9,564.4 L606.5,564.9 L609.0,564.7 L611.0,564.0 L613.3,562.0 L614.4,560.0 L615.4,557.9 L616.1,555.7 L617.0,552.7 L617.5,550.3 L617.9,548.2 L618.4,545.2 L618.9,542.8 L620.1,541.4 L622.4,540.0 L624.7,537.8 L627.6,532.9 L630.9,526.9 L632.1,523.2 L632.7,519.4 L632.8,516.3 L631.4,511.5 L630.4,508.7 L628.4,504.9 L626.7,502.9 L624.1,501.2 L618.2,499.1 L611.2,497.5 L606.3,496.0 L600.9,495.6 L588.9,495.2 L586.6,495.0 L583.5,495.2 L580.8,494.4 L577.8,492.8 L574.5,490.3 L572.5,487.2 L570.4,484.2 L568.2,480.0 L566.4,478.3 L564.0,477.0 L560.5,474.7 L557.7,471.5 L557.1,469.2 L556.8,465.9 L557.2,462.0 L556.5,458.2 L555.2,455.2 L552.6,451.7 L548.6,448.5 L545.7,445.5 L542.1,443.4 L537.9,441.2 L528.7,436.0 L521.8,432.0 L513.4,427.3 L504.7,421.5 L499.0,418.3 L491.4,412.9 L484.3,407.1 L480.0,403.6 L475.5,398.7 L466.9,390.2 L460.5,383.6 L454.2,379.3 L450.3,376.7 L445.9,373.1 L438.8,368.6 L428.6,364.5 L420.3,361.2 L411.0,357.8 L405.9,356.2 L399.9,354.6 L393.8,353.8 L386.7,354.1 L378.7,354.4 L372.4,354.4 L362.4,354.8 L354.3,355.8 L349.2,355.9 L345.7,355.6 L340.5,354.8 L335.1,353.8 L329.8,351.7 L325.5,349.7 L321.1,348.6 L317.8,347.7 L311.3,346.5 L303.3,344.8 L294.6,341.8 Z" fill="#5a9540" stroke="none"/>
<path d="M434.9,124.9 L434.2,123.2 L433.7,120.2 L434.4,117.4 L435.9,112.9 L437.4,108.7 L439.1,105.1 L441.3,102.8 L444.4,100.4 L447.4,99.4 L450.0,99.2 L452.8,100.2 L456.3,100.8 L460.6,101.0 L465.1,101.0 L468.8,100.9 L471.7,101.0 L474.3,101.1 L476.8,102.1 L479.0,103.5 L481.0,105.0 L483.5,106.2 L487.6,106.4 L491.2,105.7 L498.4,103.1 L506.8,98.9 L512.7,95.0 L515.5,91.5 L519.8,89.3 L525.8,89.2 L530.9,90.9 L535.1,94.3 L538.6,98.9 L540.8,102.8 L543.2,108.9 L546.2,117.0 L546.9,120.9 L547.6,128.3 L547.0,131.8 L545.4,134.5 L541.6,137.9 L536.7,139.7 L531.6,140.0 L525.9,138.6 L522.3,136.4 L518.0,135.5 L514.2,136.6 L509.8,138.3 L505.9,137.7 L503.1,135.5 L499.3,132.0 L493.6,129.4 L489.7,128.3 L486.7,128.2 L484.4,129.6 L481.0,131.8 L477.8,133.8 L475.2,134.9 L470.5,135.0 L467.3,134.1 L463.4,132.7 L460.0,131.2 L456.8,129.5 L454.1,128.3 L449.9,128.6 L445.0,128.3 L440.6,128.0 L437.5,126.7 L434.9,124.9 Z" fill="#5a9540" stroke="none"/>
<path d="M644.5,-63.0 L650.4,-67.6 L656.3,-70.2 L666.7,-70.8 L673.0,-68.9 L677.3,-66.2 L679.7,-62.5 L680.5,-56.9 L678.9,-49.5 L675.7,-43.3 L670.4,-33.5 L665.6,-24.7 L662.7,-16.2 L658.9,-4.5 L652.0,7.8 L644.0,17.9 L634.2,31.8 L627.8,42.9 L621.1,56.3 L610.2,74.6 L598.5,87.7 L587.6,97.3 L575.6,107.9 L568.6,114.3 L565.2,116.5 L562.2,113.8 L559.1,107.9 L554.5,103.1 L552.1,97.8 L551.9,91.4 L548.1,84.0 L545.7,76.0 L546.8,64.0 L545.7,56.0 L543.3,51.2 L543.3,47.2 L546.8,43.2 L563.3,23.2 L572.1,15.0 L576.1,13.7 L579.6,12.9 L582.5,9.7 L584.6,4.9 L585.7,-1.5 L587.0,-9.0 L588.4,-15.9 L592.6,-21.5 L600.6,-27.1 L608.3,-31.4 L617.6,-38.0 L632.6,-49.7 L644.5,-63.0 Z" fill="#5a9540" stroke="none"/>
<path d="M668.9,270.2 L672.6,265.7 L676.2,263.2 L682.7,260.1 L689.3,258.5 L693.5,258.0 L698.4,259.3 L703.4,261.3 L707.7,264.5 L716.0,270.0 L727.9,276.7 L736.2,280.4 L745.3,285.5 L753.2,290.6 L757.8,294.5 L761.0,298.4 L764.0,302.7 L765.9,308.3 L767.7,314.5 L768.0,318.2 L769.9,323.6 L773.6,327.9 L777.7,331.4 L779.5,334.5 L781.4,338.6 L781.5,342.2 L780.7,345.6 L779.7,348.1 L778.0,350.5 L775.2,351.8 L771.9,352.4 L768.5,352.6 L764.6,351.5 L758.8,349.0 L752.3,346.4 L748.7,345.4 L743.5,344.4 L737.3,342.9 L732.2,340.2 L727.7,336.4 L725.7,333.0 L725.2,330.1 L725.5,325.3 L727.1,321.5 L730.1,317.5 L730.2,314.6 L728.6,311.7 L724.3,309.5 L719.2,308.0 L717.5,308.6 L716.4,309.7 L715.3,313.1 L715.3,315.1 L714.4,317.7 L713.1,319.5 L711.0,320.9 L709.2,322.0 L705.0,321.7 L699.4,318.3 L694.9,313.4 L691.4,310.1 L680.9,301.1 L672.1,293.2 L666.9,286.7 L664.9,282.8 L663.9,279.9 L664.4,277.1 L667.1,272.9 L668.9,270.2 Z" fill="#5a9540" stroke="none"/>
<path d="M597.6,315.0 L603.3,318.8 L609.4,322.7 L617.7,326.1 L626.4,329.8 L633.1,336.2 L638.7,345.6 L641.4,354.5 L642.2,360.1 L640.2,363.8 L637.5,365.0 L631.5,366.2 L622.1,365.2 L615.4,364.8 L599.6,367.6 L585.0,369.1 L576.7,369.1 L563.1,365.6 L548.1,356.7 L525.7,341.9 L508.0,331.4 L488.8,322.3 L465.5,313.1 L452.1,308.3 L448.8,306.0 L448.2,302.8 L449.7,299.8 L450.5,297.3 L450.7,293.1 L449.9,290.7 L447.5,289.1 L445.0,288.8 L441.2,288.5 L437.1,289.0 L432.7,290.4 L426.1,292.5 L408.8,294.8 L390.8,295.0 L383.5,294.4 L375.0,292.1 L362.4,289.7 L341.7,285.3 L323.3,281.7 L317.3,281.3 L304.9,281.0 L293.7,279.5 L292.6,278.4 L292.4,276.5 L290.1,270.7 L288.7,268.5 L286.5,266.7 L282.8,266.7 L278.4,266.9 L264.1,267.0 L257.6,267.4 L252.4,267.3 L246.8,267.7 L242.4,269.1 L238.5,271.4 L234.7,274.6 L228.6,280.0 L222.5,283.3 L212.9,286.0 L194.5,285.6 L178.8,284.2 L163.5,282.7 L149.8,280.5 L136.9,278.5 L129.6,276.3 L124.0,273.6 L120.9,270.6 L116.2,267.4 L112.8,265.7 L107.6,265.0 L103.8,265.6 L98.4,267.3 L93.1,270.1 L87.6,274.2 L83.2,277.6 L80.3,279.4 L76.5,280.5 L71.9,280.4 L67.3,279.5 L63.7,277.4 L60.0,273.3 L57.2,269.0 L54.9,264.1 L54.5,261.3 L54.6,258.1 L55.9,254.7 L59.1,252.1 L64.9,248.8 L68.8,246.3 L72.8,241.7 L78.0,237.7 L80.4,236.9 L82.0,237.6 L83.6,238.0 L85.7,238.0 L87.5,237.3 L88.9,236.1 L89.3,234.4 L90.6,233.7 L93.1,233.9 L95.5,233.7 L99.8,232.3 L101.4,230.4 L102.1,227.0 L103.5,225.7 L105.4,224.5 L106.1,222.3 L106.7,220.1 L108.7,218.8 L112.5,218.0 L119.0,218.0 L144.3,223.5 L167.7,227.8 L183.3,231.5 L196.7,235.0 L202.7,236.9 L208.1,238.5 L212.5,238.8 L217.4,236.9 L221.0,234.9 L223.8,232.3 L224.9,227.8 L225.6,224.9 L227.5,222.9 L231.4,221.6 L244.8,221.8 L257.7,222.3 L268.1,222.7 L285.4,225.3 L311.4,233.1 L331.0,239.1 L342.8,242.9 L348.3,244.5 L355.4,244.9 L366.4,246.0 L377.0,248.2 L384.0,249.7 L398.3,249.7 L424.2,249.8 L432.1,250.5 L440.0,252.8 L445.6,256.5 L452.2,260.6 L462.9,265.1 L472.0,268.9 L484.2,273.9 L494.4,277.8 L501.7,279.8 L509.0,281.1 L517.2,282.7 L523.7,285.8 L528.4,288.9 L533.5,292.9 L539.7,295.2 L545.8,296.2 L550.3,297.5 L553.7,298.6 L557.4,299.1 L561.0,299.0 L564.1,299.1 L566.7,299.1 L571.4,300.3 L581.5,305.7 L590.0,310.6 L597.6,315.0 Z" fill="#5a9540" stroke="none"/>
<path d="M104.2,269.8 L99.6,271.2 L93.5,274.4 L88.7,278.3 L83.0,282.2 L78.8,283.9 L74.6,284.5 L68.9,283.7 L62.3,281.8 L55.8,279.2 L52.0,279.0 L47.6,277.9 L43.4,273.0 L39.8,275.9 L42.5,280.9 L46.9,285.3 L51.7,288.6 L57.9,295.5 L68.3,305.6 L77.1,313.0 L83.2,317.0 L88.4,319.8 L93.6,320.5 L98.2,319.9 L105.9,316.8 L110.7,316.0 L116.6,316.5 L122.8,315.7 L127.0,313.1 L128.8,309.2 L130.5,302.5 L130.2,297.7 L128.6,291.4 L125.1,286.1 L122.6,282.3 L121.1,278.4 L119.1,275.0 L116.8,272.7 L113.6,271.2 L109.7,270.1 L104.2,269.8 Z" fill="#2e5577" stroke="none"/>
<path d="M228.5,24.6 L224.2,19.5 L219.5,13.5 L215.5,8.1 L212.6,5.8 L209.4,3.9 L204.2,4.1 L199.3,6.5 L196.0,8.1 L191.2,9.3 L183.5,9.3 L178.1,9.1 L172.1,7.5 L166.0,4.6 L163.0,2.7 L158.7,0.6 L154.9,-0.1 L149.0,0.3 L144.3,1.1 L138.9,1.8 L132.1,5.1 L129.0,8.9 L126.0,12.1 L122.9,11.9 L120.6,12.9 L118.7,17.1 L119.8,20.9 L122.2,23.7 L126.0,25.1 L129.3,24.9 L131.8,22.5 L132.6,18.9 L131.1,14.8 L129.8,13.6 L132.5,10.0 L135.9,7.2 L139.7,5.5 L145.1,4.4 L149.8,3.6 L155.4,4.1 L160.1,5.8 L163.5,8.4 L167.2,9.8 L168.8,11.7 L171.5,12.9 L174.0,15.9 L176.8,17.6 L180.6,18.3 L185.3,18.5 L189.8,17.6 L193.8,17.8 L197.1,20.8 L199.7,24.2 L203.2,26.3 L207.9,25.3 L211.3,26.7 L216.2,28.6 L219.9,28.9 L223.5,28.4 L226.3,29.2 L228.5,24.6 Z" fill="#2e5577" stroke="none"/>
<path d="M540.8,70.8 L539.4,73.8 L536.7,77.1 L533.8,80.2 L531.2,81.2 L527.3,82.0 L523.6,81.0 L519.5,78.6 L516.1,76.9 L511.3,75.9 L505.0,77.1 L499.2,79.3 L494.9,82.1 L489.1,84.1 L482.0,86.8 L476.2,89.8 L470.8,93.3 L464.8,96.9 L461.0,97.7 L455.6,97.5 L450.1,96.3 L445.4,96.5 L440.3,98.2 L434.3,101.6 L430.8,104.1 L427.3,104.4 L424.6,102.5 L423.8,100.6 L422.7,96.2 L422.2,90.3 L424.6,86.0 L430.4,79.3 L437.8,73.6 L444.3,70.8 L450.1,70.8 L455.5,70.3 L462.3,67.1 L467.9,64.8 L477.9,63.7 L484.7,63.0 L491.8,60.8 L497.3,56.9 L503.0,53.4 L509.0,50.6 L514.9,49.1 L520.6,49.0 L527.4,49.2 L531.9,50.6 L537.5,53.3 L540.5,57.4 L541.8,61.4 L541.9,65.5 L540.8,70.8 Z" fill="#2e5577" stroke="none"/>
<path d="M688.0,565.2 L693.0,567.4 L693.7,571.0 L690.5,574.5 L686.9,574.0 L683.9,578.8 L683.9,582.8 L681.7,588.1 L677.4,590.6 L669.8,593.1 L662.3,593.4 L656.5,593.4 L653.2,591.9 L652.2,588.9 L652.7,585.3 L657.7,584.3 L664.3,583.3 L669.3,578.5 L672.3,572.7 L674.6,568.4 L678.6,565.4 L683.7,564.1 L688.0,565.2 Z" fill="#2e5577" stroke="none"/>
<path d="M246.6,34.9 L254.2,35.4 L259.6,34.7 L264.8,37.0 L275.5,41.3 L283.5,37.5 L293.1,38.1 L303.7,45.5 L312.2,53.5 L317.1,58.5 L309.6,62.0 L300.4,54.9 L294.0,48.1 L287.5,46.3 L283.3,45.8 L276.7,48.3 L268.8,51.1 L259.6,50.2 L250.9,48.4 L243.3,43.5 L243.7,39.2 L246.6,34.9 Z" fill="#2e5577" stroke="none"/>
<path d="M484.6,-9.7 L485.4,-11.1 L487.5,-11.9 L489.1,-12.3 L489.7,-14.0 L491.7,-16.1 L493.2,-17.4 L494.9,-18.0 L496.9,-17.3 L498.8,-15.7 L499.2,-14.0 L498.1,-11.9 L495.6,-11.7 L494.7,-10.4 L495.2,-9.1 L494.5,-7.7 L494.8,-6.4 L496.2,-5.2 L496.0,-3.1 L494.4,-2.1 L492.4,-1.3 L490.9,-1.1 L489.1,-2.0 L487.5,-2.7 L486.2,-2.3 L484.6,-2.6 L482.9,-3.1 L483.0,-5.1 L483.9,-6.0 L484.9,-7.4 L484.9,-8.7 L484.6,-9.7 Z" fill="#e7d6a3" stroke="none"/>
<path d="M497.0,-30.9 L499.8,-33.0 L501.5,-35.0 L502.6,-35.0 L504.3,-35.4 L505.4,-37.1 L507.4,-37.9 L508.0,-39.1 L508.3,-40.5 L511.0,-41.5 L512.9,-42.2 L514.1,-41.6 L515.0,-40.4 L514.7,-38.5 L516.0,-38.0 L516.6,-37.2 L516.3,-35.0 L515.7,-33.0 L514.4,-31.9 L512.5,-31.9 L510.9,-32.4 L509.7,-31.8 L509.6,-30.7 L508.2,-29.3 L508.2,-27.8 L509.2,-25.3 L508.1,-24.3 L505.9,-23.0 L504.5,-22.4 L502.7,-22.7 L501.3,-22.9 L500.7,-23.3 L499.6,-24.7 L498.2,-25.5 L497.2,-25.5 L495.9,-26.4 L495.6,-28.4 L497.0,-30.9 Z" fill="#e7d6a3" stroke="none"/>
<path d="M393.2,-21.0 L394.7,-22.0 L396.5,-22.8 L399.1,-23.1 L400.2,-22.7 L401.0,-21.0 L404.1,-20.5 L405.8,-20.6 L407.2,-21.7 L408.4,-22.3 L409.9,-21.9 L411.3,-21.8 L412.5,-23.0 L413.2,-25.1 L413.0,-27.0 L412.5,-28.2 L411.1,-28.9 L409.5,-28.7 L408.3,-29.1 L408.0,-29.8 L407.7,-31.0 L407.0,-31.8 L406.0,-32.7 L405.8,-34.1 L404.7,-35.6 L403.3,-36.3 L401.8,-36.3 L400.4,-35.7 L400.2,-34.6 L399.4,-33.9 L398.4,-33.8 L397.0,-34.2 L395.7,-34.1 L394.0,-33.5 L393.2,-32.7 L393.0,-31.2 L392.6,-29.2 L391.7,-27.8 L390.3,-27.3 L389.2,-26.8 L387.9,-25.7 L387.5,-24.3 L388.1,-22.6 L389.1,-21.5 L390.6,-21.1 L391.8,-20.9 L393.2,-21.0 Z" fill="#e7d6a3" stroke="none"/>
<path d="M191.1,-13.0 L191.8,-14.0 L193.3,-14.8 L194.7,-15.0 L196.5,-15.6 L197.9,-16.2 L198.2,-17.0 L197.7,-18.0 L196.7,-19.7 L195.6,-21.5 L195.1,-23.2 L195.3,-25.5 L196.6,-26.4 L198.6,-26.6 L200.6,-26.5 L202.1,-25.9 L203.0,-24.9 L203.5,-24.3 L204.7,-24.2 L206.1,-23.5 L206.7,-22.2 L206.7,-21.1 L206.1,-20.0 L205.5,-19.1 L205.0,-17.5 L204.3,-16.4 L203.9,-15.2 L204.2,-14.3 L204.8,-13.7 L205.0,-12.8 L204.7,-11.1 L203.6,-10.2 L202.8,-9.1 L201.3,-9.1 L199.7,-9.0 L198.6,-8.4 L198.0,-7.5 L197.7,-6.4 L196.2,-5.6 L194.4,-5.4 L193.2,-5.4 L192.1,-6.1 L191.3,-8.1 L190.3,-8.8 L189.6,-9.7 L189.8,-11.1 L190.3,-11.9 L191.1,-13.0 Z" fill="#e7d6a3" stroke="none"/>
<path d="M206.2,-39.0 L208.0,-39.3 L209.3,-39.9 L209.6,-41.5 L208.8,-43.0 L208.3,-44.1 L209.5,-45.2 L210.7,-45.5 L212.7,-45.6 L214.5,-45.4 L215.8,-44.3 L216.7,-44.0 L218.7,-43.5 L219.8,-42.8 L219.9,-41.2 L219.7,-39.9 L218.7,-39.0 L217.5,-38.2 L216.1,-38.2 L214.7,-37.8 L213.9,-36.5 L214.0,-35.0 L214.6,-33.6 L214.8,-32.7 L214.5,-32.1 L213.4,-31.6 L212.7,-31.8 L211.8,-32.3 L210.9,-32.1 L210.0,-31.5 L208.9,-30.6 L207.8,-30.2 L207.0,-30.8 L206.1,-31.9 L205.4,-33.5 L204.6,-35.3 L204.7,-36.8 L205.3,-38.0 L206.2,-39.0 Z" fill="#e7d6a3" stroke="none"/>
<path d="M635.8,552.6 L635.6,554.6 L635.0,556.0 L634.4,556.3 L633.5,556.3 L632.6,556.3 L631.9,556.6 L631.2,557.3 L630.5,557.9 L630.4,558.6 L630.3,559.3 L629.6,560.0 L629.1,560.5 L628.3,560.6 L627.5,560.3 L626.6,560.2 L626.0,559.8 L625.5,558.9 L625.4,558.0 L625.5,557.1 L625.8,556.2 L625.8,555.4 L625.3,554.7 L624.8,553.9 L624.4,553.4 L624.0,553.0 L623.0,552.8 L621.3,552.8 L620.2,552.6 L619.3,552.4 L618.7,551.7 L618.3,550.7 L618.3,549.7 L618.4,548.9 L618.8,547.7 L619.2,547.2 L619.4,546.2 L619.2,544.7 L619.3,543.3 L620.1,542.3 L620.7,541.6 L621.7,541.0 L622.1,540.9 L623.0,540.9 L623.6,541.2 L624.1,541.6 L624.7,541.8 L625.5,541.7 L626.1,542.0 L626.7,542.4 L627.0,543.0 L627.1,543.7 L627.1,544.6 L626.8,545.1 L626.7,545.9 L626.9,546.5 L627.5,547.0 L628.0,547.1 L628.8,547.0 L629.6,546.8 L630.2,547.0 L630.8,547.4 L631.5,548.0 L632.1,548.7 L632.4,549.4 L632.6,550.0 L632.7,550.6 L633.1,550.8 L633.7,550.8 L634.3,550.7 L634.7,551.0 L635.2,551.5 L635.8,552.6 Z" fill="#e7d6a3" stroke="none"/>
<path d="M582.6,556.5 L583.1,557.7 L584.1,557.9 L585.1,558.0 L586.0,558.6 L586.6,559.1 L587.0,559.9 L587.1,561.1 L587.1,562.2 L587.2,563.2 L587.6,564.0 L588.5,564.4 L589.3,564.7 L589.9,564.8 L590.4,565.1 L591.2,565.9 L591.5,566.9 L592.5,567.5 L593.2,567.9 L595.0,567.9 L595.8,567.4 L596.9,566.4 L597.2,565.0 L597.0,563.4 L596.4,562.6 L595.7,562.1 L594.8,561.4 L594.3,560.9 L594.6,560.5 L594.9,559.7 L595.1,558.4 L595.0,557.3 L594.7,556.3 L593.7,555.7 L592.7,555.1 L591.5,554.3 L590.6,553.8 L590.6,553.2 L591.0,551.4 L591.4,550.3 L592.1,549.4 L592.9,548.5 L593.4,547.4 L593.3,546.7 L592.5,545.6 L591.4,544.7 L590.3,544.7 L590.0,544.9 L588.7,545.3 L588.1,545.2 L587.3,545.5 L586.1,545.5 L585.3,545.7 L584.6,546.1 L584.5,547.0 L584.1,547.9 L583.3,548.3 L582.0,548.4 L581.2,548.9 L580.7,549.5 L580.0,550.8 L580.0,551.7 L580.2,552.7 L580.3,553.6 L581.2,554.5 L581.9,554.8 L582.5,555.4 L582.6,556.5 Z" fill="#e7d6a3" stroke="none"/>
<path d="M566.7,538.3 L566.8,537.1 L567.1,536.1 L567.0,535.2 L567.1,533.9 L567.3,533.2 L568.0,532.7 L568.8,532.2 L570.1,531.8 L571.0,532.0 L571.8,532.3 L573.0,533.3 L573.3,533.9 L573.7,534.2 L574.6,534.1 L575.3,534.1 L576.3,534.3 L577.0,535.2 L577.3,536.3 L577.6,537.1 L578.4,537.7 L579.1,538.1 L579.9,537.9 L580.8,537.0 L582.0,536.4 L583.3,536.4 L584.4,536.7 L585.2,537.5 L585.8,539.0 L586.0,540.8 L585.9,542.0 L585.5,543.1 L584.7,543.7 L584.1,544.2 L583.5,544.4 L582.7,544.5 L582.0,544.1 L581.3,544.3 L580.8,544.7 L580.6,545.4 L580.3,546.1 L579.2,546.8 L578.0,546.9 L576.9,546.5 L575.7,545.9 L575.3,545.1 L575.1,544.1 L575.0,543.5 L574.4,542.9 L573.6,542.3 L572.4,541.5 L571.3,541.6 L570.6,541.8 L569.7,541.8 L568.6,540.9 L567.4,540.1 L566.8,539.4 L566.7,538.3 Z" fill="#e7d6a3" stroke="none"/>
<path d="M579.5,469.5 L580.8,469.8 L582.0,470.3 L583.6,471.5 L584.4,472.3 L585.2,473.1 L586.7,473.7 L587.4,475.2 L587.6,477.5 L587.3,478.6 L586.9,480.0 L586.6,481.3 L586.9,482.3 L586.9,483.4 L586.6,484.1 L585.3,484.2 L584.1,483.9 L583.4,483.4 L582.6,483.3 L582.1,483.5 L581.8,483.8 L581.8,484.7 L581.9,486.2 L581.9,487.2 L581.3,487.8 L580.4,488.0 L578.9,488.2 L578.2,487.8 L576.7,486.7 L575.6,485.8 L575.1,484.7 L575.2,483.7 L575.6,482.5 L575.4,481.5 L574.8,481.0 L573.9,480.8 L572.7,480.4 L572.2,479.7 L571.8,478.8 L571.7,478.0 L571.9,476.8 L572.2,475.8 L572.2,474.8 L571.8,473.8 L571.0,473.4 L570.4,472.9 L569.8,472.7 L568.8,473.0 L567.7,473.3 L566.4,473.5 L565.6,473.1 L564.7,472.5 L563.9,471.6 L563.4,471.3 L562.7,471.3 L561.8,471.3 L560.9,471.0 L560.2,470.4 L559.6,469.0 L559.7,467.9 L559.9,466.5 L560.4,465.7 L561.1,465.3 L562.0,465.2 L563.2,465.3 L564.4,465.4 L565.6,465.5 L566.4,465.1 L567.3,464.4 L568.1,464.1 L569.0,464.0 L569.9,464.2 L570.6,464.5 L571.0,465.2 L571.2,465.9 L571.2,466.5 L571.6,466.9 L572.2,467.0 L572.8,466.7 L573.9,465.8 L575.0,465.1 L575.9,464.8 L576.8,465.0 L577.7,465.5 L578.4,466.2 L578.8,467.0 L578.6,467.8 L578.5,468.5 L578.7,469.0 L579.5,469.5 Z" fill="#e7d6a3" stroke="none"/>
<path d="M481.1,134.1 L482.0,133.2 L482.5,132.1 L483.3,131.2 L484.4,131.0 L485.4,131.3 L486.5,131.2 L487.7,130.3 L488.7,129.6 L490.1,129.6 L491.3,130.8 L492.4,131.6 L494.6,132.4 L497.0,133.2 L498.9,134.1 L499.9,135.5 L500.6,136.8 L499.7,138.5 L499.5,139.7 L499.6,141.0 L500.1,142.2 L500.1,143.1 L499.3,144.4 L498.8,145.4 L497.4,146.1 L496.4,146.9 L494.9,147.1 L493.9,146.7 L492.5,145.8 L491.5,144.8 L491.7,143.1 L492.4,142.2 L492.6,141.0 L492.0,139.9 L490.9,140.0 L489.5,140.5 L488.4,141.1 L487.4,141.7 L486.0,141.8 L484.9,141.0 L484.0,140.5 L483.3,138.9 L482.2,138.6 L481.2,138.3 L480.4,137.2 L480.1,135.9 L480.4,134.9 L481.1,134.1 Z" fill="#e7d6a3" stroke="none"/>
<path d="M506.2,147.5 L506.0,146.3 L506.9,145.2 L507.5,144.0 L508.2,142.7 L509.6,142.4 L511.0,142.9 L512.5,143.8 L513.6,143.7 L515.1,142.7 L516.0,142.1 L515.8,140.7 L516.0,139.2 L516.7,138.4 L517.8,138.3 L518.5,138.5 L519.4,137.9 L520.7,137.9 L522.4,138.3 L523.3,139.2 L524.3,139.8 L524.7,140.7 L524.3,142.2 L524.1,143.5 L524.2,144.8 L524.4,146.7 L524.2,147.6 L522.9,148.2 L522.2,148.6 L521.7,149.7 L521.2,150.5 L520.1,150.6 L518.6,150.3 L517.9,149.6 L517.0,149.5 L516.2,150.1 L515.5,150.9 L514.1,151.1 L513.2,151.8 L512.9,152.7 L512.8,153.7 L511.8,154.3 L509.6,154.9 L508.6,154.0 L507.2,152.8 L505.9,152.4 L505.6,150.7 L506.0,149.7 L506.5,148.7 L506.2,147.5 Z" fill="#e7d6a3" stroke="none"/>
<path d="M476.4,96.4 L478.2,95.0 L479.6,94.3 L480.9,94.3 L481.7,95.4 L482.8,95.7 L483.9,95.3 L484.6,94.4 L484.9,93.4 L485.8,92.6 L487.5,91.8 L488.4,91.4 L489.3,90.1 L490.7,89.2 L491.8,88.7 L493.1,88.7 L494.2,89.1 L495.6,89.5 L497.0,88.8 L498.3,87.2 L499.5,86.4 L501.2,86.1 L502.4,85.6 L503.8,85.7 L504.7,86.3 L505.3,88.2 L505.3,90.4 L505.3,92.0 L504.6,92.6 L503.9,93.1 L503.2,93.5 L501.9,93.7 L500.8,94.6 L500.0,95.8 L499.8,97.0 L499.4,97.9 L498.2,98.3 L496.9,98.6 L494.8,98.4 L493.8,98.1 L492.8,97.3 L491.2,97.7 L489.9,98.5 L488.9,100.2 L488.4,100.7 L487.1,101.1 L486.7,102.6 L485.9,103.8 L484.3,104.4 L483.0,104.5 L481.5,104.0 L480.9,102.6 L480.3,101.6 L479.2,101.1 L478.1,101.1 L477.0,100.1 L476.2,99.0 L475.8,97.5 L476.4,96.4 Z" fill="#e7d6a3" stroke="none"/>
<path d="M590.8,45.7 L592.3,45.0 L593.2,44.3 L593.7,43.4 L594.1,42.3 L594.9,41.5 L595.8,41.1 L597.3,41.7 L598.8,42.3 L599.8,43.3 L599.7,44.7 L599.6,46.3 L600.4,47.6 L600.6,49.2 L600.3,50.5 L599.5,51.0 L598.6,51.4 L597.6,52.6 L596.5,52.7 L595.4,52.2 L594.2,52.1 L592.6,52.0 L591.2,51.1 L590.3,49.7 L589.9,48.2 L589.9,46.5 L590.8,45.7 Z" fill="#e7d6a3" stroke="none"/>
<path d="M574.1,-7.4 L574.2,-9.4 L574.9,-11.3 L576.7,-13.5 L578.0,-14.5 L579.2,-14.5 L580.1,-14.0 L580.7,-13.1 L580.7,-12.2 L581.4,-11.4 L582.6,-11.3 L583.8,-10.3 L584.7,-9.7 L584.6,-8.1 L584.3,-7.0 L583.1,-6.1 L581.8,-5.5 L580.9,-4.5 L580.7,-3.4 L580.8,-1.8 L580.2,-0.9 L579.7,0.0 L579.8,0.9 L580.3,2.0 L580.9,4.2 L580.4,6.4 L579.7,7.4 L577.6,8.3 L576.6,8.5 L575.7,7.5 L575.3,6.5 L575.2,5.2 L574.6,4.5 L573.6,4.4 L572.4,3.7 L571.5,3.5 L570.2,4.0 L568.9,4.7 L568.1,4.7 L566.4,4.0 L565.3,2.8 L565.3,0.4 L565.8,-1.2 L567.4,-2.6 L568.9,-3.3 L570.5,-3.0 L571.6,-2.4 L572.8,-2.6 L573.5,-3.7 L574.0,-4.5 L574.4,-5.9 L574.1,-7.4 Z" fill="#e7d6a3" stroke="none"/>
<path d="M717.3,317.3 L717.6,316.3 L717.6,315.2 L717.1,313.6 L717.2,312.5 L717.9,311.3 L718.5,310.6 L719.7,310.2 L721.5,310.9 L722.8,311.5 L724.2,311.9 L725.2,312.5 L725.5,313.2 L726.4,313.4 L727.6,313.9 L728.0,314.8 L728.0,316.4 L727.9,317.6 L727.1,319.0 L726.4,319.5 L725.7,319.5 L725.1,319.7 L724.7,320.2 L724.7,321.5 L724.2,322.0 L723.5,322.6 L723.2,323.4 L723.5,324.3 L723.9,325.3 L724.3,326.2 L724.3,326.9 L724.0,328.0 L723.2,329.1 L722.3,329.5 L720.4,329.7 L719.0,329.0 L718.4,328.7 L718.0,327.5 L717.8,326.6 L717.3,326.0 L715.5,325.5 L714.8,324.7 L714.3,322.9 L713.7,321.6 L713.6,321.0 L714.1,320.2 L715.0,319.8 L716.3,319.6 L717.1,318.9 L717.2,318.1 L717.3,317.3 Z" fill="#e7d6a3" stroke="none"/>
<path d="M710.9,299.3 L710.5,298.1 L710.0,297.3 L709.3,296.7 L709.1,296.0 L709.4,295.0 L710.1,294.0 L710.9,293.4 L711.8,293.1 L712.7,293.3 L713.3,293.7 L714.2,293.7 L715.2,293.3 L716.1,292.6 L717.2,292.5 L718.4,292.8 L719.2,293.7 L719.6,294.5 L719.7,295.9 L719.3,297.2 L718.8,297.7 L717.9,298.0 L717.0,298.4 L716.3,299.3 L715.9,300.2 L715.2,300.8 L714.1,301.2 L713.0,301.3 L711.8,301.1 L711.2,300.2 L710.9,299.3 Z" fill="#e7d6a3" stroke="none"/>
<path d="M80.6,229.5 L80.4,227.2 L81.3,225.6 L82.4,225.3 L83.2,224.6 L83.4,222.9 L84.7,221.1 L86.4,220.0 L88.3,220.2 L89.7,221.3 L90.6,222.5 L91.6,222.7 L93.2,222.3 L94.0,221.9 L94.1,220.7 L93.7,219.0 L94.8,218.2 L96.5,217.4 L97.8,217.4 L98.9,216.2 L99.9,215.1 L101.0,215.2 L102.8,215.8 L103.7,217.5 L103.9,219.8 L104.5,220.9 L104.3,222.8 L103.9,223.8 L102.8,224.6 L101.5,225.0 L100.2,225.9 L100.4,227.3 L100.0,229.0 L98.9,229.7 L98.1,231.3 L96.4,232.1 L94.3,232.0 L93.2,232.6 L91.7,232.8 L90.1,231.9 L88.9,232.4 L87.8,233.7 L87.0,235.4 L86.2,236.6 L84.5,237.0 L83.4,235.9 L82.4,233.3 L82.6,231.8 L82.0,231.1 L80.6,229.5 Z" fill="#e7d6a3" stroke="none"/>
<path d="M137.7,243.1 L137.4,242.1 L137.6,240.7 L137.7,239.3 L139.0,238.0 L140.1,237.3 L141.6,237.5 L143.6,237.9 L144.9,237.9 L145.5,237.4 L145.9,236.5 L146.6,236.2 L148.3,236.3 L149.6,236.7 L150.3,237.2 L150.9,238.5 L151.0,239.9 L150.8,241.1 L150.4,242.6 L150.3,243.8 L150.4,245.2 L151.0,246.2 L151.2,247.3 L151.2,248.2 L150.7,249.2 L149.8,250.1 L149.1,250.8 L147.9,250.9 L146.5,250.9 L145.7,250.5 L144.7,250.5 L143.6,250.7 L142.7,250.3 L141.8,249.1 L141.3,248.4 L141.3,247.7 L141.6,246.9 L141.8,246.1 L141.5,245.2 L141.0,244.8 L140.0,244.6 L138.8,243.8 L137.7,243.1 Z" fill="#e7d6a3" stroke="none"/>
<path d="M205.3,231.3 L204.9,230.2 L205.1,229.2 L205.6,227.8 L206.4,227.0 L207.4,226.4 L208.8,226.1 L209.9,226.2 L210.8,226.5 L211.5,226.1 L211.3,225.5 L210.5,224.8 L210.6,223.8 L211.1,222.5 L212.6,221.7 L214.0,221.2 L215.3,221.1 L216.8,221.2 L217.5,221.4 L218.3,222.3 L219.1,223.9 L218.7,225.4 L218.7,226.3 L219.2,227.0 L220.0,227.0 L220.7,227.3 L221.1,228.3 L221.8,230.8 L221.7,231.5 L221.0,232.6 L220.2,233.3 L219.3,233.9 L218.0,233.9 L216.7,233.4 L215.5,233.6 L214.4,234.0 L213.6,234.5 L213.3,235.3 L212.3,236.0 L210.6,236.6 L209.7,237.1 L208.7,237.1 L207.5,236.1 L206.6,235.7 L206.0,234.7 L205.6,233.9 L205.9,233.2 L206.1,232.6 L205.8,231.7 L205.3,231.3 Z" fill="#e7d6a3" stroke="none"/>
<path d="M242.8,274.6 L243.0,273.4 L243.8,272.7 L245.2,271.8 L246.7,271.0 L247.5,270.9 L249.0,271.1 L250.7,271.6 L251.1,272.7 L251.8,274.2 L252.5,274.6 L253.8,274.9 L254.6,274.7 L255.3,274.1 L256.0,273.4 L256.6,273.3 L257.8,273.7 L259.0,274.2 L259.6,274.9 L260.3,275.8 L261.3,276.3 L262.1,277.2 L262.4,278.1 L262.4,279.7 L261.9,280.8 L261.1,281.7 L260.1,282.1 L258.7,282.7 L258.0,283.5 L257.6,284.4 L257.8,285.7 L257.8,286.6 L257.5,287.3 L257.5,288.4 L257.4,289.2 L256.9,290.0 L255.2,290.3 L253.6,290.4 L252.0,290.0 L250.9,289.3 L250.2,288.3 L250.0,287.5 L250.0,286.2 L250.3,284.9 L250.4,284.1 L250.0,282.6 L249.5,281.9 L248.7,281.8 L246.3,282.2 L244.6,282.3 L243.6,281.5 L243.0,280.9 L242.7,279.9 L243.2,278.7 L243.7,277.8 L243.9,277.0 L243.0,275.9 L242.8,274.6 Z" fill="#e7d6a3" stroke="none"/>
<path d="M267.5,276.4 L267.9,274.7 L268.2,273.0 L268.8,272.2 L270.8,270.9 L272.2,270.3 L273.8,270.2 L274.7,270.8 L276.0,272.2 L276.8,273.4 L277.5,274.0 L278.3,273.9 L279.7,273.1 L280.4,272.5 L280.9,271.3 L281.4,270.4 L281.8,269.7 L284.0,269.1 L285.6,269.0 L286.8,269.6 L287.7,270.7 L288.2,272.1 L288.7,273.2 L289.3,274.0 L289.6,275.3 L289.0,276.5 L288.4,277.3 L287.5,277.5 L285.9,277.7 L284.3,278.0 L283.9,278.9 L283.2,280.6 L282.4,281.7 L281.6,282.6 L280.4,283.0 L279.1,283.3 L277.4,282.6 L276.2,281.8 L275.6,280.7 L275.4,279.5 L274.7,279.0 L273.8,279.0 L272.9,279.8 L271.8,280.6 L270.7,280.8 L269.6,280.4 L268.6,279.3 L267.9,277.9 L267.5,276.4 Z" fill="#e7d6a3" stroke="none"/>
<path d="M436.3,296.4 L435.8,295.2 L436.0,293.5 L436.9,291.6 L438.3,291.0 L439.9,290.7 L441.7,291.0 L442.5,291.8 L443.2,291.8 L444.3,291.5 L445.4,291.1 L446.4,291.2 L447.6,291.8 L448.5,292.8 L448.9,294.1 L449.1,295.9 L448.7,297.3 L447.8,298.2 L446.2,299.0 L445.5,299.5 L445.2,300.6 L445.6,301.9 L445.6,302.7 L445.6,303.7 L446.0,304.4 L445.9,305.4 L445.1,306.5 L444.6,307.1 L443.3,307.3 L441.9,307.0 L441.3,306.3 L440.7,305.5 L439.7,305.4 L438.8,305.6 L437.8,305.4 L436.8,305.3 L435.8,305.4 L435.3,304.6 L435.0,303.4 L434.3,302.0 L434.1,300.2 L434.4,299.4 L435.1,298.9 L435.9,298.2 L436.6,297.9 L436.8,297.1 L436.3,296.4 Z" fill="#e7d6a3" stroke="none"/>
<path d="M537.5,286.0 L539.8,284.1 L540.2,282.9 L540.9,282.2 L542.3,281.6 L543.5,281.5 L544.5,281.8 L545.8,282.9 L546.7,283.3 L547.4,284.3 L547.5,285.6 L547.8,286.3 L549.0,286.7 L550.2,287.1 L551.1,287.2 L552.0,286.5 L552.8,285.2 L553.2,284.2 L554.2,283.6 L555.7,283.6 L557.1,283.6 L558.4,284.0 L559.5,285.3 L560.3,286.2 L560.2,287.5 L559.9,288.8 L559.3,289.8 L559.5,290.4 L560.1,291.0 L561.1,291.7 L562.2,292.2 L562.7,292.9 L562.9,294.4 L562.7,295.7 L562.0,296.3 L561.1,296.9 L559.5,297.5 L558.6,297.6 L557.2,297.4 L556.2,296.6 L554.9,296.4 L553.2,296.8 L551.9,296.5 L550.8,295.9 L549.6,294.6 L547.8,293.8 L545.7,293.3 L543.6,292.8 L542.7,292.9 L541.8,293.5 L540.0,293.3 L538.8,292.8 L537.8,291.8 L537.6,290.5 L537.1,289.6 L536.6,288.7 L536.5,287.6 L536.9,286.7 L537.5,286.0 Z" fill="#e7d6a3" stroke="none"/>
<path d="M352.1,-71.6 L339.5,-68.3 L336.5,-79.7 L349.1,-83.0 L352.1,-71.6 Z" fill="#4f8a3e" stroke="none"/>
<path d="M378.2,-78.3 L360.0,-73.7 L356.5,-87.5 L374.6,-92.2 L378.2,-78.3 Z" fill="#4f8a3e" stroke="none"/>
<path d="M387.1,-81.4 L411.6,-88.0 L408.1,-101.4 L383.5,-94.9 L387.1,-81.4 Z" fill="#4f8a3e" stroke="none"/>
<path d="M439.3,-110.3 L423.4,-106.0 L427.1,-91.9 L443.1,-96.2 L439.3,-110.3 Z" fill="#4f8a3e" stroke="none"/>
<path d="M195.9,82.4 L216.6,75.7 L212.0,61.7 L191.4,68.4 L195.9,82.4 Z" fill="#4f8a3e" stroke="none"/>
<path d="M185.5,85.7 L164.7,92.4 L160.4,78.7 L181.2,72.0 L185.5,85.7 Z" fill="#4f8a3e" stroke="none"/>
<path d="M148.5,97.6 L131.9,103.2 L127.4,89.7 L144.0,84.1 L148.5,97.6 Z" fill="#4f8a3e" stroke="none"/>
<path d="M105.5,111.6 L119.8,107.3 L115.7,93.9 L101.5,98.2 L105.5,111.6 Z" fill="#4f8a3e" stroke="none"/>
<path d="M77.3,359.6 L76.5,373.4 L62.7,372.6 L63.5,358.8 L77.3,359.6 Z" fill="#4f8a3e" stroke="none"/>
<path d="M125.2,344.0 L123.2,358.6 L102.9,355.8 L105.0,341.2 L125.2,344.0 Z" fill="#4f8a3e" stroke="none"/>
<path d="M179.1,349.6 L177.3,364.1 L139.9,359.4 L141.7,344.9 L179.1,349.6 Z" fill="#4f8a3e" stroke="none"/>
<path d="M236.5,333.0 L234.6,344.4 L222.8,342.4 L224.7,331.0 L236.5,333.0 Z" fill="#4f8a3e" stroke="none"/>
<path d="M526.1,213.6 L520.2,225.1 L507.6,218.6 L513.5,207.1 L526.1,213.6 Z" fill="#4f8a3e" stroke="none"/>
<path d="M552.0,225.7 L545.8,238.0 L526.8,228.5 L533.0,216.1 L552.0,225.7 Z" fill="#4f8a3e" stroke="none"/>
<path d="M576.9,237.3 L570.8,249.7 L552.4,240.7 L558.5,228.3 L576.9,237.3 Z" fill="#4f8a3e" stroke="none"/>
<path d="M597.0,246.6 L590.9,259.7 L577.7,253.4 L583.9,240.4 L597.0,246.6 Z" fill="#4f8a3e" stroke="none"/>
<path d="M687.5,534.2 L682.0,542.9 L674.3,538.0 L679.9,529.3 L687.5,534.2 Z" fill="#4f8a3e" stroke="none"/>
<path d="M682.7,463.4 L673.4,473.1 L688.3,487.5 L697.7,477.9 L682.7,463.4 Z" fill="#4f8a3e" stroke="none"/>
<path d="M662.2,443.5 L653.8,452.2 L668.9,466.8 L677.3,458.1 L662.2,443.5 Z" fill="#4f8a3e" stroke="none"/>
<path d="M626.9,429.1 L617.4,439.4 L629.9,451.0 L639.4,440.6 L626.9,429.1 Z" fill="#4f8a3e" stroke="none"/>
<path d="M615.9,420.4 L607.1,430.3 L597.6,422.0 L606.4,412.0 L615.9,420.4 Z" fill="#4f8a3e" stroke="none"/>
<path d="M634.8,389.6 L628.1,398.8 L617.8,391.2 L624.5,382.0 L634.8,389.6 Z" fill="#4f8a3e" stroke="none"/>
<path d="M705.4,395.7 L710.6,382.6 L691.2,374.9 L686.0,387.9 L705.4,395.7 Z" fill="#4f8a3e" stroke="none"/>
<path d="M746.3,420.8 L751.9,408.7 L733.0,400.1 L727.5,412.1 L746.3,420.8 Z" fill="#4f8a3e" stroke="none"/>
<path d="M281.2,56.1 L291.9,51.9 L295.9,62.3 L285.0,66.9 L281.2,56.1 Z" fill="#4f8a3e" stroke="none"/>
<path d="M148.5,-32.8 L151.7,-32.4 L156.5,-31.6 L158.6,-31.7 L162.4,-32.2 L168.4,-33.5 L173.1,-34.7 L176.7,-35.2 L180.8,-34.7 L183.3,-33.9 L185.7,-32.8 L188.3,-29.6 L189.6,-25.6 L190.0,-21.8 L189.6,-17.6 L188.2,-13.8 L186.8,-12.2 L184.6,-10.2 L182.4,-9.1 L179.7,-8.1 L177.2,-7.8 L175.1,-8.3 L172.5,-9.6 L169.3,-11.4 L165.8,-12.9 L162.6,-14.1 L159.3,-14.7 L156.0,-14.6 L148.4,-13.4 L143.2,-12.9 L138.6,-12.7 L134.9,-13.1 L133.0,-14.2 L131.1,-16.1 L130.6,-18.3 L130.4,-21.0 L130.7,-24.4 L132.1,-27.6 L133.9,-30.1 L135.8,-31.8 L138.6,-32.9 L141.7,-33.2 L144.9,-33.1 L148.5,-32.8 Z" fill="#2f7825" stroke="none"/>
<path d="M598.9,556.3 L598.6,553.9 L598.3,551.5 L597.9,547.9 L596.3,544.2 L594.7,540.7 L593.5,538.0 L592.3,536.2 L591.7,534.0 L591.7,532.2 L592.2,530.1 L593.0,527.7 L594.1,526.2 L596.0,524.5 L598.8,522.2 L602.5,520.3 L606.2,517.7 L609.0,515.6 L612.6,512.9 L616.2,511.4 L619.4,511.2 L622.4,512.2 L625.1,513.7 L627.2,516.1 L628.3,518.7 L628.2,521.5 L628.0,524.7 L627.3,526.9 L626.1,529.0 L624.1,531.6 L622.1,534.1 L619.0,537.0 L617.6,539.5 L616.7,543.4 L615.9,548.2 L615.4,552.3 L614.8,555.9 L614.1,557.7 L613.4,559.1 L612.2,561.2 L610.3,562.9 L608.6,563.6 L605.8,563.7 L603.4,562.9 L601.2,561.6 L599.7,559.7 L598.9,556.3 Z" fill="#2f7825" stroke="none"/>
<path d="M451.7,102.8 L456.7,103.4 L459.8,103.5 L464.1,103.4 L468.4,103.1 L471.9,103.7 L474.7,105.1 L477.4,107.3 L479.8,110.3 L481.9,114.1 L482.8,117.5 L483.0,120.2 L482.6,123.5 L481.7,126.1 L480.2,128.3 L478.0,130.5 L475.6,132.1 L472.9,132.7 L470.0,132.5 L467.1,131.8 L464.1,130.1 L461.6,128.4 L459.0,127.2 L454.6,125.8 L449.5,124.2 L445.3,122.2 L442.4,119.2 L440.4,115.1 L439.7,111.8 L440.1,108.4 L441.4,105.9 L443.3,103.8 L445.3,102.5 L447.5,102.0 L449.6,102.2 L451.7,102.8 Z" fill="#2f7825" stroke="none"/>
<path d="M728.9,325.4 L729.8,322.3 L731.9,318.6 L733.9,316.5 L735.9,315.3 L738.1,314.8 L741.5,315.5 L745.9,317.7 L749.9,319.9 L753.9,322.0 L757.0,323.1 L760.7,324.1 L763.4,324.9 L766.3,326.1 L769.1,327.9 L772.9,330.6 L775.5,332.9 L777.5,334.8 L778.9,337.0 L779.3,339.8 L778.9,342.4 L777.8,344.5 L776.7,345.9 L774.8,347.4 L772.2,348.6 L769.9,348.7 L767.1,348.7 L764.0,347.2 L760.8,345.4 L757.3,343.5 L751.7,340.9 L747.9,339.7 L742.4,338.5 L737.2,336.2 L733.0,333.8 L730.6,331.7 L728.8,329.0 L728.9,325.4 Z" fill="#2f7825" stroke="none"/>
<path d="M67.1,259.8 L69.7,257.8 L71.3,255.5 L72.9,252.9 L74.2,249.2 L76.2,244.9 L77.5,242.9 L79.6,241.2 L82.9,240.0 L85.8,239.5 L89.7,239.0 L93.6,238.4 L98.1,237.6 L101.8,237.1 L105.1,237.5 L107.7,238.8 L110.3,240.7 L112.4,243.3 L113.5,245.6 L113.9,249.4 L113.5,252.8 L112.6,255.4 L111.1,257.6 L108.6,259.7 L105.8,261.2 L102.1,262.2 L97.6,263.2 L94.5,264.0 L90.7,265.7 L88.4,267.0 L85.9,269.3 L83.9,271.5 L81.6,273.5 L79.2,275.3 L76.2,276.7 L72.6,277.2 L69.3,276.0 L66.1,273.7 L64.5,270.6 L63.8,266.7 L64.8,263.0 L67.1,259.8 Z" fill="#2f7825" stroke="none"/>
<path d="M862.2,463.3 L506.1,301.6 L437.7,281.0 L286.8,249.3 L218.4,254.0 L89.9,254.0" fill="none" stroke="#ffd64a" stroke-width="5" stroke-linecap="round" stroke-linejoin="round" opacity="0.95"/>
</svg>