<svg xmlns="http://www.w3.org/2000/svg" viewBox="0 0 800 600" preserveAspectRatio="xMidYMid slice">
<rect width="100%" height="100%" fill="#143018"/>
<path d="M812.7,566.5 L806.0,564.1 L800.2,556.9 L798.3,548.3 L798.3,539.7 L798.3,530.1 L796.8,514.3 L793.0,484.5 L791.1,460.1 L790.6,439.5 L788.7,397.3 L788.2,375.7 L789.2,356.5 L788.7,336.9 L788.7,293.7 L794.0,271.2 L800.2,257.3 L804.0,242.5 L808.4,227.1 L815.1,211.8 L831.4,188.8 L839.0,178.2 L845.3,167.2 L852.5,153.3 L856.3,142.7 L857.7,127.9 L858.2,123.6 L862.5,128.4 L865.5,128.5 L871.2,128.8 L879.8,123.6 L888.4,114.0 L889.8,107.3 L890.8,98.6 L891.3,91.9 L890.8,87.6 L895.6,90.0 L900.4,89.5 L904.7,89.5 L909.5,91.9 L914.3,94.8 L918.1,97.7 L919.6,103.0 L916.7,109.2 L912.4,117.3 L908.5,125.0 L906.1,136.0 L899.9,149.5 L895.6,160.5 L891.3,173.4 L884.1,184.9 L871.6,197.4 L862.5,211.8 L848.6,229.0 L842.9,239.1 L836.6,254.0 L835.7,271.2 L835.2,305.2 L832.8,330.7 L830.9,345.7 L828.5,378.1 L826.8,404.7 L827.0,413.8 L826.6,436.8 L825.4,452.9 L825.1,472.1 L826.3,484.5 L829.0,498.7 L832.1,522.2 L834.5,535.1 L835.0,544.5 L834.2,551.9 L832.8,557.2 L829.9,561.0 L825.4,563.6 L819.1,566.0 L812.7,566.5 Z" fill="#5a9540" stroke="none"/>
<path d="M652.0,175.9 L657.8,175.0 L661.9,176.1 L667.1,178.6 L671.3,181.9 L675.1,187.7 L676.5,196.8 L675.4,203.1 L673.2,208.6 L671.3,215.5 L670.4,222.7 L669.6,233.7 L669.9,242.5 L669.9,257.9 L671.0,269.2 L672.9,282.1 L679.8,306.6 L680.9,317.7 L681.2,325.4 L680.1,334.7 L680.1,346.8 L680.1,358.1 L681.7,373.0 L683.1,401.1 L684.2,421.7 L683.9,450.9 L685.6,470.2 L687.8,491.4 L689.4,498.0 L691.1,504.3 L691.1,510.4 L691.9,522.2 L693.8,532.4 L696.3,542.3 L699.1,552.5 L701.0,562.4 L702.1,569.6 L703.5,575.4 L706.5,582.0 L709.5,591.9 L713.7,600.1 L715.3,608.4 L715.9,614.5 L715.0,618.6 L712.0,623.0 L706.2,624.9 L701.6,625.5 L697.7,625.2 L691.9,622.2 L688.3,619.4 L686.7,615.8 L687.0,611.4 L687.2,607.0 L684.8,601.0 L683.1,596.6 L680.4,591.1 L677.1,586.7 L672.6,578.1 L669.1,568.8 L663.3,550.9 L658.9,531.6 L655.9,515.6 L654.2,501.0 L653.9,480.1 L652.5,462.2 L651.7,433.0 L651.7,415.7 L650.9,398.1 L646.8,374.1 L645.1,356.8 L644.3,345.7 L645.9,330.9 L642.4,308.3 L634.4,281.0 L630.5,255.2 L629.4,239.2 L629.4,228.2 L630.0,211.7 L631.1,204.0 L634.4,194.9 L640.2,186.1 L643.7,180.5 L647.6,178.1 L652.0,175.9 Z" fill="#5a9540" stroke="none"/>
<path d="M560.0,781.0 L555.1,778.3 L550.7,772.8 L549.6,766.2 L550.7,757.3 L555.6,750.2 L561.7,740.3 L567.2,730.9 L577.1,714.4 L583.2,699.0 L588.1,685.2 L592.5,664.3 L591.4,652.2 L590.3,634.5 L587.0,615.3 L579.3,591.0 L571.1,570.1 L555.6,539.3 L538.0,508.4 L518.4,478.7 L512.1,469.2 L505.6,460.3 L501.8,454.2 L500.1,451.3 L498.6,448.4 L497.4,444.5 L496.5,440.7 L495.8,436.9 L495.4,434.6 L494.8,432.3 L493.9,430.1 L492.5,427.9 L500.5,422.5 L501.8,424.4 L503.4,426.2 L505.1,427.9 L507.1,429.3 L508.8,430.4 L511.1,431.5 L519.3,435.4 L526.6,437.6 L531.0,440.1 L539.4,444.9 L545.2,452.1 L550.3,458.7 L558.6,471.7 L565.9,484.8 L569.9,495.7 L577.9,515.7 L584.8,530.6 L596.0,551.3 L605.1,567.3 L619.3,589.8 L629.8,606.6 L637.5,624.0 L641.8,634.5 L644.4,645.8 L644.4,658.5 L642.2,678.5 L636.7,694.5 L629.8,707.9 L623.3,719.2 L616.4,732.6 L610.9,743.9 L604.0,753.3 L598.6,759.1 L596.4,764.2 L591.7,771.5 L584.1,778.0 L580.4,780.2 L574.6,781.7 L567.3,782.4 L560.0,781.0 Z" fill="#5a9540" stroke="none"/>
<path d="M279.6,264.6 L267.7,275.4 L243.9,284.8 L206.4,286.0 L184.9,280.9 L160.8,275.0 L141.3,275.4 L136.5,277.1 L126.8,277.8 L116.0,284.8 L101.5,301.3 L92.8,301.2 L92.8,288.9 L87.7,283.3 L80.1,279.8 L41.7,285.5 L35.0,287.0 L30.3,291.9 L26.5,309.3 L21.0,312.1 L18.7,321.5 L12.5,320.2 L5.4,318.6 L7.6,309.3 L5.4,305.6 L5.2,303.1 L5.6,291.7 L-0.1,279.5 L-12.9,272.4 L-35.6,272.1 L-49.7,276.0 L-67.7,281.9 L-85.1,276.5 L-109.7,266.0 L-115.2,258.2 L-125.5,254.0 L-139.1,256.0 L-152.5,256.0 L-161.4,248.2 L-167.8,235.3 L-180.0,224.4 L-197.8,224.2 L-230.8,223.9 L-259.6,224.3 L-297.3,233.3 L-322.6,229.3 L-338.8,216.5 L-333.1,209.6 L-292.3,191.0 L-249.7,175.8 L-205.7,167.9 L-178.9,165.5 L-150.8,170.6 L-125.0,180.7 L-87.9,193.0 L-33.0,205.9 L8.3,224.0 L61.4,229.7 L95.4,224.2 L127.7,223.0 L162.0,219.8 L198.5,223.0 L233.4,230.1 L256.7,227.5 L265.6,236.8 L274.6,249.1 L279.6,264.6 Z" fill="#2e5577" stroke="none"/>
<path d="M-4.5,363.7 L5.4,318.6 L12.5,320.2 L18.7,321.5 L8.7,366.5 L3.1,365.3 L-4.5,363.7 Z" fill="#2e5577" stroke="none"/>
<path d="M509.1,392.4 L508.5,390.2 L506.6,387.8 L505.2,385.3 L506.3,382.5 L508.0,380.6 L510.7,379.8 L512.9,380.0 L515.1,382.0 L515.9,384.7 L516.5,388.0 L518.2,389.7 L520.1,388.0 L523.4,389.4 L524.8,391.6 L524.2,394.4 L523.1,396.3 L519.8,396.6 L517.1,394.4 L514.3,394.9 L512.4,396.8 L510.4,395.7 L509.1,392.4 Z" fill="#e7d6a3" stroke="none"/>
<path d="M510.4,426.6 L508.5,425.5 L506.9,423.0 L507.4,420.2 L510.2,418.3 L512.9,418.3 L515.9,419.4 L519.2,420.2 L519.5,417.8 L520.4,415.6 L519.0,413.6 L517.3,411.4 L517.9,408.7 L519.5,406.8 L522.8,406.8 L525.6,406.2 L528.3,406.8 L531.4,408.4 L533.0,411.2 L533.0,414.2 L531.6,416.7 L528.3,417.2 L525.9,417.2 L525.9,419.7 L526.1,422.2 L525.0,424.7 L522.6,425.2 L519.8,426.0 L517.9,427.4 L515.7,428.8 L512.9,428.2 L510.4,426.6 Z" fill="#e7d6a3" stroke="none"/>
<path d="M358.1,188.7 L354.8,186.2 L352.6,183.5 L351.8,180.7 L354.0,179.9 L356.2,179.1 L356.5,176.9 L354.8,175.2 L352.9,173.9 L352.9,171.7 L353.7,168.9 L355.4,167.0 L357.0,164.5 L360.1,162.8 L363.1,160.6 L366.7,160.6 L370.0,160.4 L372.4,160.6 L374.4,163.4 L373.5,166.7 L370.5,168.6 L367.5,170.5 L365.0,172.5 L363.6,175.5 L363.1,178.8 L361.4,181.6 L361.4,184.0 L361.1,186.5 L360.9,189.0 L358.1,188.7 Z" fill="#e7d6a3" stroke="none"/>
<path d="M407.6,164.8 L407.8,162.6 L408.5,159.8 L410.9,158.1 L412.8,158.1 L415.2,160.3 L416.9,161.7 L418.8,160.7 L420.7,159.3 L422.4,158.1 L424.6,158.6 L425.8,160.7 L426.7,163.8 L426.5,166.0 L426.0,168.6 L423.1,169.8 L421.0,171.5 L417.4,171.7 L414.8,171.3 L412.4,170.1 L410.0,168.4 L408.3,167.0 L407.6,164.8 Z" fill="#e7d6a3" stroke="none"/>
<path d="M478.7,439.3 L475.6,439.5 L473.0,437.1 L471.6,434.0 L468.9,432.3 L465.8,431.6 L464.8,429.0 L464.8,425.8 L466.8,424.4 L466.8,422.3 L466.8,419.6 L468.0,417.0 L469.9,416.3 L472.3,416.7 L473.7,419.9 L474.2,423.4 L475.4,425.8 L477.8,427.3 L479.2,428.7 L481.6,428.5 L483.8,429.9 L486.4,430.9 L487.8,432.8 L488.8,435.0 L488.8,437.4 L486.4,439.0 L482.3,439.0 L478.7,439.3 Z" fill="#e7d6a3" stroke="none"/>
<path d="M747.4,165.9 L744.7,188.5 L759.6,191.2 L762.3,168.1 L747.4,165.9 Z" fill="#4f8a3e" stroke="none"/>
<path d="M750.7,134.0 L748.5,156.0 L763.4,157.6 L765.1,135.1 L750.7,134.0 Z" fill="#4f8a3e" stroke="none"/>
<path d="M756.3,107.5 L754.6,124.6 L770.0,126.8 L771.7,109.2 L756.3,107.5 Z" fill="#4f8a3e" stroke="none"/>
<path d="M644.5,-28.1 L644.5,-11.1 L660.7,-10.7 L660.3,-28.4 L644.5,-28.1 Z" fill="#4f8a3e" stroke="none"/>
<path d="M633.0,14.8 L631.3,18.3 L631.1,22.3 L633.0,25.0 L635.3,26.7 L639.1,25.4 L641.8,22.9 L642.2,20.4 L641.4,17.3 L639.1,14.4 L635.9,13.1 L633.0,14.8 Z" fill="#4f8a3e" stroke="none"/>
<path d="M410.6,410.6 L413.7,430.1 L425.7,428.2 L422.7,408.7 L410.6,410.6 Z" fill="#4f8a3e" stroke="none"/>
<path d="M395.6,371.1 L399.0,394.2 L423.1,390.6 L419.6,367.6 L395.6,371.1 Z" fill="#4f8a3e" stroke="none"/>
<path d="M388.6,338.1 L390.4,358.8 L414.1,356.8 L411.5,336.5 L388.6,338.1 Z" fill="#4f8a3e" stroke="none"/>
<path d="M368.4,298.4 L366.2,300.3 L365.5,304.1 L366.2,308.5 L368.4,310.7 L371.9,312.6 L375.3,314.2 L379.4,314.2 L382.6,312.0 L384.8,309.5 L384.8,305.0 L383.9,302.2 L381.0,299.7 L378.2,297.7 L375.3,296.8 L371.9,297.1 L368.4,298.4 Z" fill="#4f8a3e" stroke="none"/>
<path d="M469.9,94.0 L456.9,167.7 L465.7,169.3 L478.8,95.6 L469.9,94.0 Z" fill="#4f8a3e" stroke="none"/>
<path d="M250.7,-89.8 L266.6,-87.3 L265.9,-60.7 L249.5,-62.0 L250.1,-74.8 L250.7,-89.8 Z" fill="#4f8a3e" stroke="none"/>
<path d="M492.5,427.9 L490.2,426.9 L487.6,426.1 L484.0,424.3 L481.5,422.4 L479.4,419.7 L478.1,416.5 L477.6,413.1 L477.9,409.7 L478.2,408.3 L478.7,406.9 L479.4,405.6 L480.5,404.4 L482.6,402.4 L484.9,400.5 L486.8,398.5 L488.3,396.6 L489.8,394.3 L490.9,391.8 L491.7,390.3 L492.8,388.9 L493.9,387.8 L495.5,386.7 L497.3,386.3 L499.2,386.2 L501.1,387.0 L502.9,388.1 L505.2,390.1 L507.0,392.1 L508.4,394.2 L509.4,396.4 L510.5,399.2 L511.1,402.0 L510.9,404.2 L510.4,406.3 L508.7,409.1 L507.0,411.0 L505.5,412.5 L503.7,414.5 L501.4,417.4 L500.8,418.6 L500.4,419.9 L500.3,421.2 L500.5,422.5 L492.5,427.9 Z" fill="#2f7825" stroke="none"/>
<path d="M366.1,189.8 L365.0,186.8 L365.0,183.5 L365.6,179.6 L367.2,176.3 L369.1,174.4 L371.6,171.7 L374.4,169.4 L378.8,166.4 L381.3,164.2 L384.3,162.8 L386.8,161.2 L390.1,159.3 L393.4,158.2 L396.7,158.2 L399.2,158.2 L402.5,159.5 L404.1,162.0 L404.1,164.5 L404.1,166.7 L403.3,168.6 L400.8,170.3 L397.2,171.4 L394.5,173.6 L392.8,176.0 L391.2,178.8 L390.3,181.0 L389.2,183.8 L387.9,186.2 L386.5,188.2 L384.0,190.1 L381.3,191.7 L378.5,192.3 L375.7,193.1 L372.7,193.4 L370.5,193.4 L368.0,191.7 L366.1,189.8 Z" fill="#2f7825" stroke="none"/>
<path d="M310.5,-95.3 L305.2,-94.0 L302.3,-91.8 L298.5,-89.3 L294.7,-86.1 L292.2,-81.4 L291.6,-77.3 L292.5,-73.8 L293.8,-68.4 L294.1,-64.6 L297.3,-58.9 L300.1,-57.3 L307.4,-54.8 L313.1,-56.4 L317.5,-60.2 L322.6,-65.2 L324.8,-71.9 L325.1,-75.4 L325.1,-80.1 L324.1,-84.5 L320.0,-88.3 L318.8,-91.5 L314.3,-93.7 L310.5,-95.3 Z" fill="#2f7825" stroke="none"/>
<path d="M418.9,420.5 L382.3,179.5" fill="none" stroke="#ffd64a" stroke-width="5" stroke-linecap="round" stroke-linejoin="round" opacity="0.95"/>
</svg>