<svg xmlns="http://www.w3.org/2000/svg" viewBox="0 0 618 800" preserveAspectRatio="xMidYMid meet">
<rect width="100%" height="100%" fill="#143018"/>
<path d="M348.8,660.9 L269.7,139.1" fill="none" stroke="#4e8b39" stroke-width="108.2" stroke-linecap="round" stroke-linejoin="round" opacity="0.85"/>
<path d="M654.4,1441.1 L643.6,1435.2 L634.1,1423.3 L631.7,1409.0 L634.1,1389.9 L644.8,1374.4 L657.9,1353.0 L669.8,1332.7 L691.3,1296.9 L704.4,1263.6 L715.1,1233.8 L724.7,1188.5 L722.3,1162.2 L719.9,1124.1 L712.7,1082.4 L696.1,1029.9 L678.2,984.7 L644.8,917.9 L606.7,851.1 L564.2,786.9 L550.5,766.3 L536.6,746.9 L528.3,733.9 L524.6,727.5 L521.4,721.2 L518.8,712.9 L516.9,704.4 L515.4,696.3 L514.3,691.4 L513.1,686.4 L511.2,681.6 L508.1,676.8 L525.4,665.1 L528.3,669.3 L531.8,673.1 L535.5,676.7 L539.7,679.8 L543.5,682.2 L548.5,684.6 L566.1,693.0 L582.0,697.9 L591.5,703.3 L609.6,713.6 L622.2,729.3 L633.2,743.5 L651.3,771.8 L667.0,800.1 L675.6,823.7 L692.9,866.9 L707.9,899.2 L732.2,944.0 L751.9,978.6 L782.6,1027.4 L805.4,1063.5 L821.9,1101.2 L831.3,1124.1 L836.8,1148.4 L836.8,1176.0 L832.1,1219.2 L820.3,1253.8 L805.4,1282.9 L791.2,1307.3 L776.3,1336.4 L764.5,1360.8 L749.6,1381.2 L737.8,1393.8 L733.0,1404.8 L722.8,1420.6 L706.3,1434.7 L698.4,1439.4 L685.8,1442.6 L670.1,1444.1 L654.4,1441.1 Z" fill="#5a9540" stroke="none"/>
<path d="M47.4,323.3 L21.5,346.8 L-29.9,367.1 L-111.1,369.6 L-157.7,358.6 L-209.9,345.9 L-251.9,346.8 L-262.4,350.3 L-283.5,352.0 L-306.7,367.1 L-338.2,402.9 L-357.0,402.6 L-356.9,375.9 L-368.0,363.8 L-384.5,356.3 L-467.5,368.5 L-482.2,371.8 L-492.3,382.4 L-500.6,420.1 L-512.4,426.3 L-517.4,446.6 L-530.8,443.8 L-546.1,440.3 L-541.4,420.1 L-546.2,412.2 L-546.6,406.8 L-545.6,381.9 L-558.1,355.7 L-585.8,340.2 L-634.9,339.6 L-665.5,348.0 L-704.4,360.8 L-742.0,349.2 L-795.4,326.5 L-807.2,309.6 L-829.4,300.5 L-859.0,304.8 L-888.0,304.8 L-907.3,287.9 L-921.0,260.0 L-947.6,236.3 L-985.9,235.9 L-1057.4,235.4 L-1119.8,236.1 L-1201.4,255.6 L-1256.0,247.1 L-1291.2,219.3 L-1278.8,204.3 L-1190.6,164.1 L-1098.2,131.2 L-1003.1,114.1 L-945.1,108.9 L-884.2,120.0 L-828.4,141.8 L-748.1,168.3 L-629.2,196.4 L-539.9,235.5 L-425.0,247.8 L-351.4,236.0 L-281.4,233.3 L-207.1,226.5 L-128.2,233.3 L-52.6,248.8 L-2.1,243.1 L17.0,263.1 L36.4,289.8 L47.4,323.3 Z" fill="#2e5577" stroke="none"/>
<path d="M544.0,600.1 L542.8,595.3 L538.6,589.9 L535.7,584.6 L538.0,578.7 L541.6,574.5 L547.6,572.7 L552.3,573.3 L557.1,577.4 L558.9,583.4 L560.1,590.6 L563.7,594.1 L567.8,590.6 L575.0,593.5 L578.0,598.3 L576.8,604.3 L574.4,608.4 L567.2,609.0 L561.3,604.3 L555.3,605.5 L551.2,609.6 L547.0,607.2 L544.0,600.1 Z" fill="#e7d6a3" stroke="none"/>
<path d="M547.0,674.0 L542.8,671.6 L539.2,666.2 L540.4,660.3 L546.4,656.1 L552.3,656.1 L558.9,658.5 L566.0,660.3 L566.7,654.9 L568.4,650.1 L565.5,646.0 L561.9,641.2 L563.1,635.2 L566.7,631.1 L573.8,631.1 L579.8,629.9 L585.7,631.1 L592.3,634.7 L595.9,640.6 L595.9,647.2 L592.9,652.5 L585.7,653.7 L580.4,653.7 L580.4,659.1 L581.0,664.5 L578.6,669.8 L573.2,671.0 L567.2,672.8 L563.1,675.8 L558.3,678.8 L552.3,677.6 L547.0,674.0 Z" fill="#e7d6a3" stroke="none"/>
<path d="M217.3,159.1 L210.1,153.8 L205.4,147.8 L203.6,141.9 L208.4,140.1 L213.1,138.3 L213.7,133.5 L210.1,129.9 L206.0,127.0 L206.0,122.2 L207.8,116.2 L211.3,112.0 L214.9,106.7 L221.5,103.1 L228.0,98.3 L235.8,98.3 L242.9,97.8 L248.3,98.3 L252.5,104.3 L250.7,111.4 L244.1,115.6 L237.5,119.8 L232.2,124.0 L229.2,130.5 L228.0,137.7 L224.5,143.6 L224.5,149.0 L223.8,154.4 L223.3,159.7 L217.3,159.1 Z" fill="#e7d6a3" stroke="none"/>
<path d="M324.3,107.4 L324.8,102.7 L326.4,96.5 L331.6,92.8 L335.7,92.8 L340.9,97.5 L344.5,100.6 L348.7,98.5 L352.8,95.4 L356.5,92.8 L361.1,93.9 L363.7,98.5 L365.8,105.3 L365.3,110.0 L364.2,115.7 L358.0,118.2 L353.4,121.9 L345.6,122.4 L339.9,121.4 L334.7,118.8 L329.5,115.2 L325.9,112.0 L324.3,107.4 Z" fill="#e7d6a3" stroke="none"/>
<path d="M478.4,701.5 L471.6,702.0 L465.9,696.8 L462.8,690.0 L457.1,686.4 L450.4,684.8 L448.3,679.1 L448.3,672.4 L452.4,669.3 L452.4,664.6 L452.4,658.9 L455.0,653.2 L459.2,651.7 L464.4,652.7 L467.5,659.4 L468.5,667.2 L471.1,672.4 L476.3,675.5 L479.4,678.6 L484.6,678.1 L489.2,681.2 L495.0,683.3 L498.1,687.5 L500.1,692.1 L500.1,697.3 L495.0,700.9 L486.1,700.9 L478.4,701.5 Z" fill="#e7d6a3" stroke="none"/>
<path d="M330.9,639.4 L337.5,681.6 L363.7,677.4 L357.0,635.2 L330.9,639.4 Z" fill="#4f8a3e" stroke="none"/>
<path d="M298.4,553.9 L305.8,603.9 L357.9,596.2 L350.5,546.2 L298.4,553.9 Z" fill="#4f8a3e" stroke="none"/>
<path d="M283.3,482.4 L287.2,527.3 L338.6,523.0 L332.8,479.0 L283.3,482.4 Z" fill="#4f8a3e" stroke="none"/>
<path d="M239.5,396.5 L234.7,400.6 L233.3,408.8 L234.7,418.4 L239.5,423.2 L247.0,427.3 L254.5,430.7 L263.5,430.7 L270.3,425.9 L275.1,420.5 L275.1,410.9 L273.0,404.7 L266.9,399.2 L260.7,395.1 L254.5,393.1 L247.0,393.8 L239.5,396.5 Z" fill="#4f8a3e" stroke="none"/>
<path d="M459.2,-45.9 L431.0,113.7 L450.2,117.1 L478.5,-42.5 L459.2,-45.9 Z" fill="#4f8a3e" stroke="none"/>
<path d="M508.1,676.8 L503.1,674.6 L497.5,672.9 L489.7,669.0 L484.3,665.0 L479.8,659.1 L476.9,652.1 L476.0,644.7 L476.5,637.3 L477.3,634.3 L478.4,631.3 L479.9,628.6 L482.1,625.9 L486.8,621.6 L491.6,617.5 L495.8,613.2 L499.0,609.1 L502.2,604.1 L504.7,598.7 L506.5,595.4 L508.9,592.3 L511.3,589.9 L514.6,587.7 L518.6,586.9 L522.6,586.7 L526.7,588.2 L530.7,590.6 L535.6,595.0 L539.5,599.2 L542.6,603.9 L544.8,608.7 L547.1,614.7 L548.4,620.8 L547.9,625.5 L546.9,630.2 L543.2,636.2 L539.5,640.2 L536.3,643.6 L532.4,647.8 L527.4,654.2 L526.1,656.8 L525.2,659.6 L524.9,662.3 L525.4,665.1 L508.1,676.8 Z" fill="#2f7825" stroke="none"/>
<path d="M234.6,161.5 L232.2,155.0 L232.2,147.8 L233.4,139.5 L237.0,132.3 L241.1,128.1 L246.5,122.2 L252.5,117.4 L262.0,110.9 L267.4,106.1 L273.9,103.1 L279.3,99.5 L286.4,95.4 L293.6,93.0 L300.7,93.0 L306.1,93.0 L313.2,96.0 L316.8,101.3 L316.8,106.7 L316.8,111.4 L315.0,115.6 L309.7,119.2 L301.9,121.6 L296.0,126.3 L292.4,131.7 L288.8,137.7 L287.0,142.4 L284.6,148.4 L281.7,153.8 L278.7,157.9 L273.3,162.1 L267.4,165.7 L261.4,166.9 L255.4,168.7 L248.9,169.2 L244.1,169.2 L238.7,165.7 L234.6,161.5 Z" fill="#2f7825" stroke="none"/>
<path d="M348.8,660.9 L269.7,139.1" fill="none" stroke="#ffd64a" stroke-width="3.5" stroke-linecap="round" stroke-linejoin="round" opacity="0.95"/>
</svg>