<svg xmlns="http://www.w3.org/2000/svg" viewBox="0 0 800 600" preserveAspectRatio="xMidYMid slice">
<rect width="100%" height="100%" fill="#143018"/>
<path d="M379.0,-176.8 L372.2,-142.4 L372.7,-104.5 L380.7,-61.2 L369.9,-50.7 L387.9,-0.7 L403.9,20.2 L413.8,57.2 L435.2,83.7 L481.8,104.4 L506.0,151.1 L531.6,158.5 L494.4,67.4 L445.0,-37.0 L404.5,-129.2 L379.0,-176.8 Z" fill="#0f2810" stroke="none"/>
<path d="M541.3,181.1 L530.6,218.2 L514.4,238.0 L539.2,301.3 L536.7,337.6 L560.2,383.6 L576.9,432.3 L621.7,473.2 L674.3,483.7 L626.1,375.5 L541.3,181.1 Z" fill="#0f2810" stroke="none"/>
<path d="M626.5,215.0 L661.4,268.5 L670.9,269.4 L673.0,256.4 L662.1,248.7 L630.3,195.1 L635.1,174.6 L649.8,165.6 L689.9,230.0 L713.9,277.5 L760.9,353.3 L753.3,382.2 L727.9,393.2 L710.3,370.6 L684.9,394.1 L642.2,292.2 L639.8,272.0 L615.6,222.6 L626.5,215.0 Z" fill="#0f2810" stroke="none"/>
<path d="M133.0,-4.0 L129.6,-4.7 L126.6,-4.3 L123.7,-1.8 L121.5,-0.0 L119.8,1.5 L118.3,3.6 L116.4,5.4 L114.9,7.6 L113.4,11.4 L112.0,15.9 L112.0,18.5 L112.7,21.1 L114.3,24.5 L117.0,27.4 L120.6,28.6 L123.5,29.2 L126.9,28.7 L129.4,27.7 L134.1,24.7 L140.3,23.9 L138.3,21.5 L136.4,17.3 L137.7,11.6 L137.7,6.7 L139.3,5.3 L137.6,1.8 L133.0,-4.0 Z" fill="#5a9540" stroke="none"/>
<path d="M278.7,9.2 L279.1,21.9 L278.3,25.0 L277.7,27.9 L277.2,31.4 L276.8,35.2 L276.8,38.1 L276.9,41.5 L277.5,43.8 L278.7,46.2 L280.7,49.7 L283.8,51.7 L286.1,51.8 L291.9,49.9 L299.8,47.8 L302.9,41.2 L300.5,32.5 L300.7,27.0 L294.8,27.4 L291.5,26.9 L286.6,25.0 L283.9,20.3 L282.7,17.8 L281.9,16.2 L280.3,12.7 L278.7,9.2 Z" fill="#5a9540" stroke="none"/>
<path d="M378.0,242.1 L373.4,242.5 L368.8,244.0 L366.0,245.8 L363.7,248.6 L362.6,250.5 L360.8,253.7 L360.4,260.4 L361.0,270.2 L362.4,284.1 L366.2,302.2 L370.9,320.3 L375.2,336.1 L378.4,348.9 L383.1,360.3 L387.7,370.4 L391.9,377.5 L397.6,385.6 L402.8,393.1 L408.8,403.2 L414.9,413.9 L419.9,424.3 L424.2,435.4 L427.9,448.2 L430.2,458.9 L433.5,476.4 L435.2,492.3 L438.3,507.1 L442.0,523.2 L447.2,535.5 L455.0,548.7 L461.1,559.2 L464.0,564.9 L465.6,574.2 L468.4,570.6 L474.2,567.0 L479.7,564.9 L485.8,562.7 L491.6,563.6 L495.6,565.0 L497.7,567.9 L495.5,561.7 L493.3,555.6 L487.2,536.9 L484.4,529.3 L481.6,520.8 L476.5,506.2 L474.3,501.2 L471.8,495.4 L464.9,480.5 L459.8,466.7 L456.1,460.0 L453.4,455.4 L453.1,450.5 L452.8,444.5 L453.6,441.1 L454.3,437.4 L454.9,428.3 L455.2,422.8 L455.1,419.7 L454.6,416.6 L454.0,412.1 L452.3,408.2 L450.6,404.6 L448.1,400.8 L446.5,398.5 L445.3,396.8 L442.6,393.4 L439.6,389.5 L435.5,383.9 L433.2,381.3 L430.7,378.4 L426.0,373.0 L423.7,370.3 L421.5,367.2 L418.8,363.6 L417.4,361.7 L416.1,359.7 L413.8,355.9 L411.5,352.1 L410.0,348.8 L408.7,345.0 L408.0,341.1 L407.6,337.2 L407.1,333.4 L406.5,328.6 L405.9,323.2 L405.4,317.9 L405.3,314.4 L405.8,310.7 L406.6,303.7 L406.6,300.4 L405.6,290.7 L404.4,285.7 L402.8,281.0 L401.2,276.2 L397.2,265.4 L395.4,261.0 L393.9,256.9 L391.4,252.6 L388.4,249.2 L381.5,243.7 L378.0,242.1 Z" fill="#5a9540" stroke="none"/>
<path d="M32.4,62.6 L21.4,67.6 L15.4,74.7 L15.4,84.6 L17.5,94.6 L25.0,104.5 L36.3,118.7 L83.9,175.5 L89.6,180.8 L96.7,190.0 L101.6,204.9 L104.8,223.0 L103.1,240.4 L102.4,257.8 L103.4,270.2 L106.6,280.9 L114.8,286.9 L124.7,295.8 L141.7,305.0 L158.1,312.8 L173.3,321.3 L185.8,327.0 L198.5,336.2 L207.1,343.0 L215.9,346.5 L220.9,344.1 L222.3,339.1 L220.5,334.8 L215.9,329.8 L209.5,323.5 L198.5,313.2 L192.9,307.1 L182.2,300.4 L172.3,296.1 L162.7,290.8 L152.4,286.2 L139.6,281.5 L133.3,278.0 L129.3,274.1 L126.7,265.6 L124.0,257.8 L121.0,245.3 L121.5,234.3 L123.5,225.5 L129.1,210.6 L133.7,197.6 L133.7,192.7 L130.3,186.6 L125.0,178.3 L123.5,175.3 L122.0,172.9 L120.3,170.8 L118.8,168.4 L117.3,166.2 L113.5,160.5 L108.1,150.2 L100.3,139.7 L89.7,126.7 L78.3,110.8 L69.5,98.1 L63.1,87.9 L55.5,75.1 L50.2,68.3 L45.0,63.4 L39.9,62.0 L32.4,62.6 Z" fill="#5a9540" stroke="none"/>
<path d="M184.4,-25.5 L181.4,-27.4 L177.6,-27.5 L173.9,-23.9 L171.7,-19.3 L168.9,-15.5 L165.1,-12.5 L171.5,-8.5 L175.5,-2.7 L174.3,7.1 L162.9,22.8 L151.9,28.5 L155.3,34.8 L155.1,39.8 L156.5,45.3 L160.5,49.9 L166.1,51.4 L172.4,50.8 L176.9,48.8 L178.6,42.7 L184.1,39.9 L193.6,35.3 L199.8,27.6 L200.6,21.9 L199.8,16.4 L187.7,7.5 L189.4,3.1 L193.6,-2.1 L195.4,-8.5 L192.4,-17.5 L184.4,-25.5 Z" fill="#5a9540" stroke="none"/>
<path d="M344.0,400.8 L340.3,404.2 L337.8,406.3 L337.7,411.5 L339.8,417.3 L346.8,421.3 L351.4,420.9 L355.9,418.5 L357.5,413.9 L357.3,407.0 L355.3,402.3 L350.0,400.2 L344.0,400.8 Z" fill="#e7d6a3" stroke="none"/>
<path d="M297.1,367.6 L295.6,369.0 L294.5,371.0 L295.9,374.2 L297.5,374.9 L302.1,377.4 L303.5,379.3 L305.9,382.1 L307.5,383.8 L309.0,385.1 L311.9,386.3 L313.2,385.3 L313.8,383.7 L313.2,381.6 L311.4,379.4 L308.8,377.0 L306.7,376.7 L306.2,376.0 L305.8,375.2 L305.6,374.0 L304.5,373.1 L303.1,372.6 L301.8,371.7 L301.2,370.8 L299.9,369.4 L297.1,367.6 Z" fill="#e7d6a3" stroke="none"/>
<path d="M270.2,359.6 L266.5,361.4 L267.0,364.0 L278.9,367.8 L280.4,366.0 L279.5,362.8 L270.2,359.6 Z" fill="#e7d6a3" stroke="none"/>
<path d="M224.9,357.4 L222.3,358.7 L220.7,360.7 L218.8,363.7 L217.9,365.9 L218.4,368.4 L219.9,369.5 L222.4,370.0 L229.4,367.1 L238.8,370.5 L241.8,369.7 L242.4,367.2 L242.1,364.6 L237.5,361.3 L234.9,359.4 L231.6,357.7 L229.1,356.8 L224.9,357.4 Z" fill="#e7d6a3" stroke="none"/>
<path d="M148.4,376.9 L148.7,380.1 L146.4,380.6 L143.8,379.1 L140.7,380.3 L141.0,383.8 L142.9,385.6 L145.2,386.5 L146.7,389.3 L148.7,391.2 L154.1,393.3 L159.1,393.8 L161.0,392.5 L161.1,390.3 L160.4,386.9 L160.8,384.9 L164.6,384.2 L169.3,383.5 L174.4,382.5 L174.5,379.6 L172.7,377.4 L166.1,376.8 L162.4,379.0 L157.1,376.1 L152.7,375.5 L150.2,375.8 L148.4,376.9 Z" fill="#e7d6a3" stroke="none"/>
<path d="M21.4,123.3 L18.4,125.2 L17.7,130.7 L20.7,136.4 L24.4,139.0 L28.4,139.3 L33.8,144.3 L40.0,146.9 L47.4,153.9 L51.2,153.6 L51.9,152.1 L50.8,148.5 L39.4,139.7 L36.8,134.5 L29.8,127.3 L21.4,123.3 Z" fill="#e7d6a3" stroke="none"/>
<path d="M153.0,-31.3 L147.9,-30.4 L144.6,-25.0 L146.2,-21.9 L144.3,-20.5 L139.8,-19.2 L137.9,-13.9 L137.0,-7.7 L142.0,-3.6 L147.5,-2.7 L149.2,-5.6 L148.5,-8.8 L150.4,-10.3 L149.2,-14.7 L151.7,-17.0 L153.6,-16.0 L157.3,-17.7 L160.0,-25.5 L158.1,-29.0 L153.0,-31.3 Z" fill="#e7d6a3" stroke="none"/>
<path d="M136.8,27.5 L135.4,29.6 L134.1,30.4 L133.4,32.8 L133.7,34.7 L133.8,36.1 L133.2,37.8 L133.0,39.3 L133.6,41.0 L134.8,41.9 L137.5,41.8 L138.9,42.6 L139.8,43.8 L142.6,43.8 L143.9,44.0 L145.8,44.5 L147.5,44.2 L148.8,42.8 L148.0,41.0 L148.6,39.3 L150.1,38.0 L151.3,36.5 L151.7,34.4 L151.6,32.8 L149.8,32.0 L146.5,32.3 L141.3,29.8 L138.9,27.2 L136.8,27.5 Z" fill="#e7d6a3" stroke="none"/>
<path d="M207.9,306.9 L205.0,307.6 L206.6,311.6 L211.4,314.5 L212.9,311.6 L207.9,306.9 Z" fill="#e7d6a3" stroke="none"/>
<path d="M219.5,316.9 L217.5,316.8 L215.6,316.8 L214.7,319.6 L216.9,322.9 L219.4,321.9 L221.4,320.1 L220.4,318.4 L219.5,316.9 Z" fill="#e7d6a3" stroke="none"/>
<path d="M224.9,323.3 L223.2,323.9 L222.1,325.0 L221.0,326.9 L222.1,328.8 L223.6,330.1 L225.7,329.0 L226.8,327.5 L226.1,324.5 L224.9,323.3 Z" fill="#e7d6a3" stroke="none"/>
<path d="M229.4,330.4 L226.3,330.8 L225.1,332.7 L227.8,335.3 L230.4,334.7 L231.1,331.8 L229.4,330.4 Z" fill="#e7d6a3" stroke="none"/>
<path d="M153.6,196.8 L151.8,197.8 L150.0,199.1 L149.9,200.5 L149.8,202.1 L147.3,201.8 L145.8,202.8 L144.5,204.4 L144.9,205.6 L145.2,206.7 L144.1,207.6 L142.9,208.4 L141.3,213.2 L143.5,217.0 L145.8,217.4 L147.9,216.5 L148.8,214.4 L148.6,211.5 L150.8,211.5 L152.0,210.2 L153.2,209.0 L154.3,206.8 L156.3,205.3 L157.2,204.7 L157.9,203.7 L158.2,202.8 L158.5,201.2 L158.1,198.9 L156.7,197.8 L153.6,196.8 Z" fill="#e7d6a3" stroke="none"/>
<path d="M270.2,15.4 L266.8,12.5 L262.3,13.7 L261.4,16.9 L265.1,22.5 L261.4,27.1 L262.2,30.4 L264.8,32.5 L268.1,31.6 L269.5,24.2 L270.8,19.5 L270.2,15.4 Z" fill="#e7d6a3" stroke="none"/>
<path d="M318.3,11.0 L314.5,12.5 L312.3,17.2 L314.4,21.2 L316.4,26.3 L320.9,32.2 L326.3,31.9 L329.0,26.3 L327.9,22.7 L325.2,22.1 L324.7,18.5 L322.7,14.4 L320.6,14.1 L319.9,11.8 L318.3,11.0 Z" fill="#e7d6a3" stroke="none"/>
<path d="M306.9,-20.2 L304.7,-17.0 L305.6,-10.4 L304.0,-4.4 L306.3,2.9 L309.3,6.1 L312.5,4.8 L313.8,0.8 L311.2,-2.8 L311.6,-6.6 L314.1,-9.4 L314.1,-17.5 L311.3,-20.3 L306.9,-20.2 Z" fill="#e7d6a3" stroke="none"/>
<path d="M289.4,-35.8 L287.3,-35.9 L285.4,-34.2 L285.9,-30.4 L291.8,-29.4 L298.6,-27.3 L300.8,-28.9 L300.8,-31.3 L295.4,-36.8 L294.3,-36.2 L294.6,-33.7 L293.2,-32.8 L290.2,-33.7 L289.4,-35.8 Z" fill="#e7d6a3" stroke="none"/>
<path d="M277.9,-23.5 L275.4,-25.9 L271.3,-24.0 L269.0,-19.4 L269.4,-14.7 L272.9,-12.8 L275.3,-15.0 L275.0,-18.6 L277.9,-23.5 Z" fill="#e7d6a3" stroke="none"/>
<path d="M463.2,450.3 L457.9,450.9 L455.8,454.2 L458.2,457.5 L463.9,460.5 L465.9,464.1 L465.5,467.9 L465.9,471.9 L467.9,477.7 L471.5,481.7 L478.8,483.1 L482.3,480.7 L483.5,472.8 L480.8,466.5 L480.8,462.0 L479.4,459.6 L477.3,458.7 L471.6,455.4 L467.6,452.6 L463.2,450.3 Z" fill="#e7d6a3" stroke="none"/>
<path d="M506.7,535.8 L503.6,538.0 L501.4,543.4 L502.1,546.6 L504.5,548.9 L507.0,550.8 L507.6,554.9 L509.6,555.8 L513.4,553.6 L515.4,544.8 L514.5,539.1 L511.3,535.9 L506.7,535.8 Z" fill="#e7d6a3" stroke="none"/>
<path d="M452.1,564.8 L450.1,564.9 L448.0,566.3 L445.9,569.3 L444.0,570.4 L442.5,572.1 L441.6,574.7 L444.8,580.9 L446.7,582.5 L448.9,583.6 L451.5,583.0 L454.2,580.3 L458.3,576.6 L459.6,573.3 L459.8,570.1 L458.8,568.2 L456.7,566.8 L454.8,565.2 L452.1,564.8 Z" fill="#e7d6a3" stroke="none"/>
<path d="M500.8,556.6 L499.5,557.2 L499.4,558.6 L499.3,560.1 L502.7,568.1 L503.3,573.0 L502.1,577.4 L503.3,581.1 L506.2,582.4 L508.0,581.7 L508.9,581.0 L509.9,580.0 L511.1,578.8 L512.3,577.9 L513.1,576.9 L514.7,574.9 L514.7,573.5 L514.3,572.4 L513.5,571.6 L512.0,570.4 L511.6,568.3 L510.6,567.2 L509.9,566.0 L508.1,565.3 L503.8,558.6 L503.1,557.8 L502.5,556.9 L500.8,556.6 Z" fill="#e7d6a3" stroke="none"/>
<path d="M117.7,317.6 L116.0,316.4 L114.1,316.4 L112.2,317.0 L110.7,318.0 L109.2,319.2 L108.3,320.9 L107.8,322.6 L108.9,324.3 L110.7,325.0 L112.3,326.5 L113.9,328.0 L115.7,328.1 L117.5,327.8 L119.6,327.7 L121.5,328.3 L123.2,329.2 L125.4,329.9 L127.5,330.4 L129.3,330.7 L131.3,330.2 L133.1,329.8 L135.1,329.0 L137.0,328.1 L137.9,326.5 L138.5,324.4 L138.9,322.6 L138.5,320.6 L137.9,318.8 L137.1,317.1 L135.7,316.1 L134.0,315.3 L132.4,314.6 L130.3,314.0 L128.5,313.9 L126.7,314.0 L125.0,314.3 L123.2,314.4 L121.5,315.5 L119.9,316.4 L117.7,317.6 Z" fill="#e7d6a3" stroke="none"/>
<path d="M63.2,306.3 L61.4,307.3 L59.7,307.6 L58.5,308.9 L58.0,310.7 L56.7,312.1 L55.5,313.4 L53.6,313.9 L51.6,314.4 L50.0,315.5 L48.2,316.7 L47.5,318.5 L46.4,319.9 L45.2,321.3 L44.1,322.9 L43.9,324.7 L44.3,326.8 L45.7,328.1 L47.5,328.3 L49.3,328.0 L50.9,327.1 L52.8,325.9 L54.5,325.0 L55.4,323.4 L56.5,322.0 L58.2,321.0 L59.5,319.8 L61.2,318.6 L62.6,317.6 L64.1,316.4 L65.3,314.9 L66.8,313.7 L68.1,312.4 L68.4,310.4 L67.7,308.8 L67.0,306.7 L65.2,306.3 L63.2,306.3 Z" fill="#e7d6a3" stroke="none"/>
<path d="M160.0,261.1 L157.5,260.4 L155.3,262.1 L153.8,264.3 L154.2,266.9 L156.4,268.6 L159.0,269.3 L161.1,267.8 L162.2,265.4 L160.0,261.1 Z" fill="#e7d6a3" stroke="none"/>
<path d="M165.4,267.4 L168.0,267.7 L170.6,268.1 L173.4,267.4 L176.0,268.5 L178.2,270.5 L179.0,273.3 L178.0,276.1 L176.0,278.0 L173.6,276.9 L172.3,274.6 L169.5,275.6 L167.0,275.9 L165.0,274.1 L163.7,271.8 L163.5,269.6 L165.4,267.4 Z" fill="#e7d6a3" stroke="none"/>
<path d="M192.6,229.0 L188.8,230.5 L186.6,231.6 L185.3,234.0 L184.7,236.8 L184.0,239.4 L183.1,242.0 L182.5,245.0 L182.9,247.4 L183.4,250.2 L185.5,252.3 L191.1,251.5 L193.7,250.6 L196.5,248.9 L198.3,246.7 L199.6,244.3 L200.6,242.0 L201.9,239.6 L203.6,237.6 L203.2,235.1 L202.1,232.7 L200.8,230.3 L198.7,228.8 L197.0,227.9 L192.6,229.0 Z" fill="#e7d6a3" stroke="none"/>
<path d="M118.3,120.1 L117.1,119.2 L115.0,118.8 L112.6,119.9 L111.5,120.8 L110.8,122.4 L110.6,124.3 L110.7,125.9 L110.2,127.8 L109.4,129.3 L108.9,130.7 L108.1,132.4 L107.8,134.6 L108.4,136.5 L109.6,138.4 L111.3,140.5 L112.5,141.3 L114.1,142.5 L115.1,144.0 L115.4,145.7 L115.8,147.9 L116.8,149.5 L118.4,150.8 L120.3,151.1 L122.1,149.9 L122.2,148.8 L123.3,146.9 L125.0,145.3 L125.3,143.9 L124.7,141.9 L124.0,141.1 L122.7,140.1 L121.5,139.3 L120.7,137.8 L119.7,136.1 L119.0,134.5 L119.2,132.8 L120.7,131.8 L121.6,129.7 L121.8,127.6 L121.5,125.1 L121.1,122.8 L120.1,120.9 L119.4,120.1 L118.3,120.1 Z" fill="#e7d6a3" stroke="none"/>
<path d="M82.5,351.3 L80.5,349.9 L79.2,349.1 L76.9,348.4 L74.5,349.3 L72.5,350.3 L71.1,352.1 L69.8,353.5 L69.4,355.8 L69.9,357.8 L71.2,359.6 L73.2,360.4 L76.2,360.4 L78.5,359.5 L79.9,358.4 L81.6,357.9 L83.3,357.9 L86.1,359.6 L87.6,361.3 L90.3,363.2 L92.5,364.3 L95.2,366.5 L96.6,367.8 L99.4,368.4 L101.3,367.5 L102.4,365.9 L102.8,363.5 L102.7,361.3 L102.0,359.7 L100.8,357.9 L99.5,355.3 L99.0,353.3 L97.6,351.1 L96.2,349.3 L94.6,348.2 L92.8,347.2 L90.9,346.7 L88.4,346.1 L85.8,345.4 L84.3,346.2 L83.5,347.4 L84.0,348.6 L84.0,350.2 L82.5,351.3 Z" fill="#e7d6a3" stroke="none"/>
<path d="M535.6,586.7 L535.6,579.0 L537.2,573.2 L541.0,571.9 L544.6,574.5 L547.2,582.8 L547.5,598.0 L550.7,639.2 L549.4,644.4 L545.2,647.6 L541.4,647.6 L536.8,645.7 L534.9,642.1 L533.9,638.3 L533.6,624.1 L534.9,618.0 L536.2,610.9 L535.6,595.7 L535.6,586.7 Z" fill="#4f8a3e" stroke="none"/>
<path d="M296.9,312.1 L296.0,311.5 L294.2,311.0 L291.7,311.2 L290.0,312.2 L289.1,313.2 L287.9,315.3 L287.0,318.6 L286.9,321.7 L287.3,323.8 L288.0,325.7 L289.9,328.3 L292.4,329.2 L294.9,329.2 L296.4,328.2 L297.7,327.2 L299.4,324.6 L300.4,321.3 L300.2,319.2 L299.9,317.0 L299.1,314.9 L298.4,313.5 L296.9,312.1 Z" fill="#4f8a3e" stroke="none"/>
<path d="M287.5,245.4 L285.2,246.6 L283.6,248.6 L282.8,253.6 L283.4,263.8 L283.1,275.9 L283.1,288.0 L286.7,293.5 L289.3,294.1 L291.9,293.6 L296.0,285.0 L295.9,274.4 L295.5,259.9 L295.2,252.9 L294.3,248.9 L293.4,246.5 L289.8,245.5 L287.5,245.4 Z" fill="#4f8a3e" stroke="none"/>
<path d="M318.1,-58.3 L314.5,-56.7 L313.6,-52.9 L314.6,-47.9 L317.1,-46.1 L321.3,-47.1 L323.8,-50.3 L322.5,-56.4 L318.1,-58.3 Z" fill="#4f8a3e" stroke="none"/>
<path d="M320.7,-13.3 L318.6,-10.1 L319.2,-3.8 L321.3,1.1 L323.5,5.8 L325.6,9.6 L328.5,15.6 L333.2,16.5 L334.9,12.1 L326.9,-9.0 L324.0,-12.5 L320.7,-13.3 Z" fill="#4f8a3e" stroke="none"/>
<path d="M433.5,605.2 L432.0,605.2 L430.5,606.2 L429.7,607.5 L428.9,610.2 L429.9,613.5 L431.6,617.6 L433.6,621.1 L434.9,623.5 L436.4,625.7 L437.4,627.4 L439.0,629.0 L441.0,633.3 L443.4,639.7 L445.1,643.3 L448.8,650.3 L450.8,656.2 L452.7,662.1 L455.6,669.5 L457.8,674.8 L460.7,679.4 L463.7,680.9 L466.9,680.6 L469.3,678.5 L470.0,676.5 L470.1,674.8 L469.8,672.9 L468.5,670.3 L467.2,667.9 L462.6,661.2 L459.6,654.0 L453.4,639.4 L448.7,629.6 L443.7,621.8 L440.4,616.0 L436.4,609.6 L433.5,605.2 Z" fill="#4f8a3e" stroke="none"/>
<path d="M171.5,-8.5 L165.1,-12.5 L160.0,-13.1 L155.1,-10.4 L152.0,-1.3 L147.5,3.6 L145.5,5.7 L142.1,6.3 L139.3,5.3 L137.7,6.7 L137.7,11.6 L136.4,17.3 L138.3,21.5 L140.3,23.9 L143.0,27.3 L151.9,28.5 L162.9,22.8 L174.3,7.1 L175.5,-2.7 L171.5,-8.5 Z" fill="#2f7825" stroke="none"/>
<path d="M240.5,286.1 L235.1,287.3 L232.5,288.8 L229.9,290.2 L228.7,292.3 L227.8,294.5 L227.8,296.9 L229.1,301.2 L230.5,304.0 L234.1,309.6 L236.1,314.0 L237.8,318.4 L239.2,321.8 L241.5,326.7 L244.1,330.8 L246.5,333.6 L251.8,336.9 L256.6,337.6 L261.7,336.8 L264.4,335.3 L266.0,333.3 L268.0,329.1 L269.3,323.9 L268.5,318.8 L267.1,313.7 L266.6,309.8 L264.3,302.4 L259.4,295.7 L254.2,291.7 L247.7,287.5 L244.5,286.6 L240.5,286.1 Z" fill="#2f7825" stroke="none"/>
<path d="M288.2,-25.8 L284.4,-24.5 L281.7,-22.5 L279.8,-19.4 L278.2,-16.2 L276.8,-12.8 L275.9,-8.7 L275.4,-4.9 L275.4,-1.2 L276.1,2.6 L277.6,5.8 L278.7,9.2 L280.3,12.7 L281.9,16.2 L282.7,17.8 L283.9,20.3 L286.6,25.0 L291.5,26.9 L294.8,27.4 L300.7,27.0 L302.0,24.5 L303.4,22.1 L304.6,20.1 L305.3,16.3 L305.2,13.6 L304.7,11.0 L303.1,5.2 L301.8,1.0 L301.8,-3.7 L302.7,-7.7 L302.5,-11.2 L302.2,-14.3 L301.3,-18.0 L299.4,-21.2 L295.7,-24.0 L291.4,-25.8 L288.2,-25.8 Z" fill="#2f7825" stroke="none"/>
<path d="M483.0,641.9 L479.8,642.9 L476.4,644.6 L474.6,647.8 L474.6,651.2 L475.7,654.2 L477.3,658.1 L478.7,662.4 L479.1,669.3 L478.7,674.4 L477.5,679.4 L474.8,683.5 L470.0,686.9 L465.9,688.6 L462.2,690.5 L458.4,693.6 L454.9,697.5 L453.3,700.6 L450.7,705.3 L449.9,711.3 L449.7,715.8 L450.1,720.3 L451.2,723.5 L453.3,726.5 L455.8,729.1 L458.9,730.9 L461.7,731.2 L464.3,730.4 L468.4,727.9 L473.1,725.1 L477.2,722.1 L480.2,718.7 L482.9,715.4 L485.9,711.2 L488.7,706.3 L490.7,702.2 L492.9,697.7 L493.4,693.9 L493.7,690.4 L494.0,685.2 L495.0,681.4 L496.7,678.2 L498.8,674.4 L500.2,671.3 L501.8,666.2 L502.7,661.2 L503.0,656.8 L503.2,652.1 L502.5,648.3 L501.3,645.7 L499.5,643.8 L497.3,642.3 L494.3,641.4 L490.0,640.9 L487.1,641.4 L483.0,641.9 Z" fill="#2f7825" stroke="none"/>
<path d="M468.4,570.6 L474.2,567.0 L479.7,564.9 L485.8,562.7 L491.6,563.6 L495.6,565.0 L497.7,567.9 L498.0,570.1 L497.7,571.8 L498.0,574.9 L498.2,578.8 L499.1,581.8 L500.4,585.3 L501.5,589.0 L501.9,592.4 L500.9,594.9 L499.1,597.4 L497.2,599.4 L493.7,601.0 L489.8,602.0 L484.1,602.6 L480.8,602.5 L476.9,602.2 L473.9,601.9 L470.2,601.1 L466.0,599.4 L463.0,596.9 L460.4,593.9 L458.4,591.2 L458.5,587.3 L459.1,584.2 L461.1,580.6 L463.3,577.2 L465.6,574.2 L468.4,570.6 Z" fill="#2f7825" stroke="none"/>
<path d="M68.0,316.4 L64.2,319.5 L62.2,321.6 L59.9,323.0 L57.9,324.7 L55.7,327.6 L54.0,330.6 L53.8,334.6 L54.9,338.8 L58.0,342.4 L62.4,345.1 L66.8,345.5 L71.3,345.0 L77.7,344.3 L82.9,343.9 L88.7,344.4 L94.4,345.6 L98.2,347.4 L101.5,346.3 L104.5,344.7 L107.6,342.2 L109.4,338.3 L108.7,334.2 L105.2,328.3 L102.6,326.4 L99.0,323.9 L95.8,321.8 L93.2,319.2 L90.0,316.9 L86.7,314.9 L83.0,313.4 L79.0,313.2 L75.6,313.6 L72.4,314.3 L68.0,316.4 Z" fill="#2f7825" stroke="none"/>
<path d="M530.6,542.2 L526.9,542.9 L523.0,544.3 L519.9,546.7 L518.4,549.1 L516.8,552.9 L516.3,556.1 L516.6,559.1 L517.5,562.0 L518.8,563.6 L520.2,565.4 L523.4,566.2 L527.3,565.4 L531.0,563.3 L534.0,560.8 L536.6,558.0 L538.9,555.9 L540.2,551.5 L539.1,548.3 L537.0,544.9 L534.7,543.1 L530.6,542.2 Z" fill="#2f7825" stroke="none"/>
<path d="M317.4,-52.0 L402.4,368.2 L482.6,583.8" fill="none" stroke="#ffd64a" stroke-width="5" stroke-linecap="round" stroke-linejoin="round" opacity="0.95"/>
</svg>