<svg xmlns="http://www.w3.org/2000/svg" viewBox="0 0 307 800" preserveAspectRatio="xMidYMid meet">
<rect width="100%" height="100%" fill="#143018"/>
<path d="M84.0,-329.6 L115.8,-344.5 L127.5,-316.0 L106.3,-298.4 L120.3,-275.3 L146.2,-272.7 L185.2,-176.8 L208.2,-135.4 L273.3,10.6 L317.2,106.1 L347.8,164.9 L406.8,257.8 L412.3,275.0 L383.0,285.8 L371.8,239.5 L356.7,228.3 L338.5,240.2 L357.4,267.8 L371.8,293.2 L354.0,316.4 L308.8,208.1 L257.2,99.9 L202.2,-21.3 L155.7,-118.0 L124.1,-198.9 L76.8,-292.5 L84.0,-329.6 Z" fill="#0f2810" stroke="none"/>
<path d="M-7.2,-350.3 L-7.4,-334.0 L-0.5,-284.2 L-10.2,-260.4 L-35.3,-234.0 L-72.1,-219.6 L-90.1,-203.1 L-83.8,-191.8 L18.5,-213.1 L44.0,-207.3 L66.9,-160.0 L92.8,-94.5 L99.1,-59.4 L90.9,-14.0 L96.9,44.4 L110.9,50.7 L111.6,27.7 L105.1,-17.6 L115.9,-63.4 L107.8,-93.7 L110.1,-118.7 L61.4,-225.8 L32.9,-278.0 L-7.2,-350.3 Z" fill="#0f2810" stroke="none"/>
<path d="M131.8,-63.3 L124.7,-27.3 L125.1,12.3 L133.5,57.7 L122.2,68.7 L141.1,120.9 L157.8,142.9 L168.1,181.6 L190.6,209.3 L239.3,230.9 L264.7,279.8 L291.5,287.6 L252.5,192.3 L200.8,83.0 L158.4,-13.5 L131.8,-63.3 Z" fill="#0f2810" stroke="none"/>
<path d="M301.6,311.2 L290.4,350.1 L273.4,370.8 L299.4,437.0 L296.8,475.1 L321.4,523.1 L338.9,574.1 L385.7,616.9 L440.8,627.9 L390.4,514.7 L301.6,311.2 Z" fill="#0f2810" stroke="none"/>
<path d="M67.3,67.3 L156.3,507.0 L240.2,732.7" fill="none" stroke="#4e8b39" stroke-width="52.3" stroke-linecap="round" stroke-linejoin="round" opacity="0.85"/>
<path d="M26.8,131.3 L27.2,144.7 L26.3,147.8 L25.7,150.9 L25.2,154.5 L24.8,158.5 L24.8,161.6 L24.9,165.2 L25.5,167.6 L26.7,170.1 L28.9,173.7 L32.1,175.8 L34.5,175.9 L40.6,174.0 L48.8,171.7 L52.0,164.9 L49.6,155.7 L49.8,150.0 L43.7,150.4 L40.2,149.9 L35.0,147.9 L32.2,143.0 L30.9,140.4 L30.1,138.6 L28.4,135.0 L26.8,131.3 Z" fill="#5a9540" stroke="none"/>
<path d="M130.6,375.1 L125.9,375.5 L121.1,377.1 L118.1,378.9 L115.7,381.9 L114.6,383.9 L112.7,387.2 L112.3,394.3 L112.9,404.5 L114.3,419.1 L118.4,438.0 L123.2,456.9 L127.7,473.4 L131.1,486.9 L136.0,498.8 L140.9,509.4 L145.2,516.8 L151.2,525.2 L156.6,533.1 L163.0,543.7 L169.3,554.9 L174.5,565.8 L179.0,577.3 L182.9,590.8 L185.4,602.0 L188.7,620.3 L190.6,636.9 L193.8,652.4 L197.7,669.2 L203.1,682.1 L211.3,695.9 L217.7,707.0 L220.7,712.9 L222.4,722.6 L225.3,718.8 L231.3,715.1 L237.1,712.9 L243.5,710.6 L249.6,711.5 L253.7,713.0 L256.0,716.0 L253.7,709.5 L251.4,703.1 L244.9,683.6 L242.0,675.6 L239.1,666.7 L233.7,651.5 L231.5,646.2 L228.9,640.1 L221.7,624.6 L216.3,610.2 L212.5,603.1 L209.7,598.3 L209.3,593.2 L209.0,586.9 L209.8,583.3 L210.5,579.5 L211.2,569.9 L211.5,564.2 L211.4,561.0 L210.9,557.7 L210.2,553.0 L208.5,548.9 L206.7,545.2 L204.1,541.2 L202.4,538.8 L201.1,537.0 L198.3,533.5 L195.1,529.4 L190.9,523.5 L188.5,520.7 L185.9,517.7 L181.0,512.1 L178.5,509.2 L176.2,506.0 L173.3,502.2 L171.9,500.2 L170.6,498.1 L168.1,494.2 L165.8,490.2 L164.2,486.7 L162.9,482.8 L162.1,478.7 L161.6,474.7 L161.2,470.6 L160.5,465.6 L159.9,460.0 L159.4,454.4 L159.2,450.8 L159.8,446.9 L160.6,439.6 L160.7,436.1 L159.6,425.9 L158.3,420.8 L156.7,415.8 L155.0,410.7 L150.8,399.4 L148.9,394.9 L147.3,390.5 L144.7,386.1 L141.6,382.5 L134.4,376.8 L130.6,375.1 Z" fill="#5a9540" stroke="none"/>
<path d="M-230.9,187.3 L-242.5,192.4 L-248.8,199.9 L-248.8,210.3 L-246.5,220.7 L-238.8,231.1 L-226.9,245.9 L-177.1,305.4 L-171.2,310.9 L-163.7,320.6 L-158.5,336.2 L-155.2,355.1 L-157.0,373.3 L-157.8,391.5 L-156.7,404.5 L-153.3,415.7 L-144.8,422.0 L-134.4,431.3 L-116.6,440.9 L-99.5,449.1 L-83.5,458.0 L-70.5,463.9 L-57.1,473.6 L-48.2,480.7 L-38.9,484.4 L-33.7,481.8 L-32.2,476.6 L-34.1,472.1 L-38.9,466.9 L-45.6,460.2 L-57.1,449.5 L-63.1,443.1 L-74.2,436.1 L-84.6,431.6 L-94.6,426.1 L-105.4,421.2 L-118.8,416.3 L-125.4,412.7 L-129.5,408.6 L-132.3,399.7 L-135.2,391.5 L-138.2,378.4 L-137.7,366.9 L-135.7,357.7 L-129.8,342.1 L-124.9,328.5 L-124.9,323.4 L-128.5,317.0 L-134.1,308.3 L-135.7,305.2 L-137.3,302.7 L-139.0,300.4 L-140.6,298.0 L-142.1,295.7 L-146.2,289.6 L-151.8,278.9 L-160.0,267.9 L-171.0,254.3 L-183.0,237.7 L-192.2,224.4 L-198.9,213.7 L-206.8,200.4 L-212.4,193.2 L-217.8,188.1 L-223.2,186.6 L-230.9,187.3 Z" fill="#5a9540" stroke="none"/>
<path d="M95.1,541.2 L91.3,544.8 L88.6,546.9 L88.5,552.4 L90.8,558.5 L98.1,562.6 L102.8,562.2 L107.6,559.7 L109.3,554.8 L109.0,547.6 L107.0,542.7 L101.4,540.6 L95.1,541.2 Z" fill="#e7d6a3" stroke="none"/>
<path d="M46.0,506.4 L44.5,507.9 L43.3,510.0 L44.8,513.3 L46.4,514.1 L51.3,516.7 L52.7,518.7 L55.2,521.6 L56.9,523.4 L58.5,524.8 L61.5,526.0 L62.9,525.0 L63.5,523.2 L62.8,521.1 L61.0,518.8 L58.3,516.3 L56.1,515.9 L55.6,515.2 L55.2,514.3 L54.9,513.1 L53.7,512.2 L52.3,511.6 L51.0,510.8 L50.3,509.7 L49.0,508.3 L46.0,506.4 Z" fill="#e7d6a3" stroke="none"/>
<path d="M17.8,498.1 L14.0,499.9 L14.5,502.6 L27.0,506.6 L28.5,504.8 L27.6,501.4 L17.8,498.1 Z" fill="#e7d6a3" stroke="none"/>
<path d="M-29.5,495.7 L-32.3,497.1 L-33.9,499.2 L-35.9,502.4 L-36.8,504.7 L-36.3,507.2 L-34.7,508.5 L-32.1,508.9 L-24.8,505.9 L-15.0,509.4 L-11.9,508.7 L-11.2,506.0 L-11.6,503.3 L-16.3,499.8 L-19.1,497.9 L-22.5,496.1 L-25.1,495.2 L-29.5,495.7 Z" fill="#e7d6a3" stroke="none"/>
<path d="M-47.3,442.9 L-50.3,443.7 L-48.6,447.8 L-43.6,450.8 L-42.1,447.8 L-47.3,442.9 Z" fill="#e7d6a3" stroke="none"/>
<path d="M-35.2,453.4 L-37.3,453.2 L-39.2,453.2 L-40.2,456.2 L-38.0,459.6 L-35.3,458.6 L-33.2,456.7 L-34.3,454.9 L-35.2,453.4 Z" fill="#e7d6a3" stroke="none"/>
<path d="M-29.5,460.1 L-31.3,460.7 L-32.5,461.9 L-33.6,463.8 L-32.5,465.8 L-30.9,467.2 L-28.6,466.0 L-27.5,464.4 L-28.3,461.3 L-29.5,460.1 Z" fill="#e7d6a3" stroke="none"/>
<path d="M-24.8,467.5 L-28.1,467.9 L-29.3,469.9 L-26.5,472.6 L-23.8,472.0 L-23.0,469.0 L-24.8,467.5 Z" fill="#e7d6a3" stroke="none"/>
<path d="M17.9,137.9 L14.4,134.8 L9.6,136.0 L8.7,139.4 L12.5,145.3 L8.7,150.1 L9.5,153.6 L12.2,155.7 L15.7,154.8 L17.1,147.0 L18.5,142.1 L17.9,137.9 Z" fill="#e7d6a3" stroke="none"/>
<path d="M68.2,133.3 L64.3,134.8 L62.0,139.7 L64.1,144.0 L66.2,149.3 L71.0,155.4 L76.6,155.1 L79.4,149.3 L78.3,145.5 L75.4,144.9 L74.9,141.1 L72.8,136.8 L70.7,136.5 L69.9,134.0 L68.2,133.3 Z" fill="#e7d6a3" stroke="none"/>
<path d="M56.3,100.6 L54.0,104.0 L54.9,110.9 L53.3,117.1 L55.7,124.7 L58.8,128.1 L62.1,126.7 L63.5,122.6 L60.7,118.8 L61.2,114.8 L63.8,111.9 L63.8,103.4 L60.9,100.5 L56.3,100.6 Z" fill="#e7d6a3" stroke="none"/>
<path d="M38.0,84.3 L35.7,84.2 L33.7,86.0 L34.4,89.9 L40.5,91.0 L47.6,93.1 L49.9,91.5 L49.9,89.0 L44.2,83.3 L43.1,83.8 L43.5,86.5 L42.0,87.4 L38.8,86.4 L38.0,84.3 Z" fill="#e7d6a3" stroke="none"/>
<path d="M25.9,97.2 L23.3,94.6 L19.0,96.6 L16.6,101.5 L17.1,106.3 L20.7,108.3 L23.2,106.0 L22.9,102.2 L25.9,97.2 Z" fill="#e7d6a3" stroke="none"/>
<path d="M219.9,593.0 L214.4,593.6 L212.1,597.0 L214.7,600.5 L220.6,603.6 L222.6,607.5 L222.3,611.4 L222.6,615.5 L224.7,621.7 L228.6,625.8 L236.2,627.3 L239.8,624.7 L241.1,616.5 L238.3,609.9 L238.3,605.3 L236.9,602.8 L234.7,601.7 L228.7,598.3 L224.5,595.4 L219.9,593.0 Z" fill="#e7d6a3" stroke="none"/>
<path d="M265.4,682.4 L262.2,684.7 L259.9,690.4 L260.5,693.8 L263.1,696.2 L265.7,698.2 L266.3,702.4 L268.5,703.4 L272.4,701.1 L274.5,691.9 L273.5,685.9 L270.2,682.6 L265.4,682.4 Z" fill="#e7d6a3" stroke="none"/>
<path d="M208.3,712.7 L206.1,712.9 L203.9,714.4 L201.7,717.5 L199.7,718.7 L198.2,720.4 L197.3,723.2 L200.6,729.7 L202.6,731.3 L204.9,732.4 L207.6,731.9 L210.4,729.0 L214.7,725.2 L216.1,721.7 L216.3,718.3 L215.2,716.3 L213.1,714.9 L211.1,713.2 L208.3,712.7 Z" fill="#e7d6a3" stroke="none"/>
<path d="M259.2,704.2 L257.9,704.9 L257.7,706.3 L257.7,707.8 L261.2,716.2 L261.8,721.4 L260.6,726.0 L261.8,729.8 L264.9,731.2 L266.7,730.4 L267.7,729.7 L268.7,728.7 L270.0,727.5 L271.2,726.5 L272.1,725.5 L273.7,723.4 L273.7,721.9 L273.4,720.8 L272.5,719.9 L270.9,718.6 L270.6,716.5 L269.5,715.3 L268.7,714.0 L266.9,713.3 L262.4,706.4 L261.7,705.4 L261.0,704.6 L259.2,704.2 Z" fill="#e7d6a3" stroke="none"/>
<path d="M295.6,735.7 L295.6,727.6 L297.3,721.6 L301.3,720.2 L305.0,722.9 L307.7,731.7 L308.1,747.5 L311.4,790.7 L310.1,796.1 L305.7,799.5 L301.7,799.5 L296.9,797.4 L294.9,793.7 L293.9,789.7 L293.6,774.8 L294.9,768.4 L296.3,761.0 L295.6,745.2 L295.6,735.7 Z" fill="#4f8a3e" stroke="none"/>
<path d="M45.8,448.4 L44.9,447.7 L43.0,447.2 L40.3,447.4 L38.6,448.4 L37.6,449.5 L36.4,451.7 L35.5,455.2 L35.3,458.4 L35.8,460.6 L36.5,462.5 L38.4,465.3 L41.1,466.2 L43.8,466.2 L45.3,465.2 L46.6,464.1 L48.4,461.4 L49.5,458.0 L49.3,455.7 L49.0,453.4 L48.2,451.3 L47.4,449.8 L45.8,448.4 Z" fill="#4f8a3e" stroke="none"/>
<path d="M36.0,378.6 L33.6,379.8 L31.9,381.9 L31.1,387.1 L31.7,397.8 L31.4,410.5 L31.4,423.1 L35.1,428.9 L37.8,429.5 L40.6,429.0 L44.9,420.0 L44.8,408.9 L44.4,393.7 L44.0,386.4 L43.1,382.2 L42.2,379.6 L38.3,378.7 L36.0,378.6 Z" fill="#4f8a3e" stroke="none"/>
<path d="M68.0,60.7 L64.2,62.4 L63.3,66.4 L64.4,71.6 L66.9,73.5 L71.4,72.5 L74.0,69.1 L72.6,62.7 L68.0,60.7 Z" fill="#4f8a3e" stroke="none"/>
<path d="M70.7,107.8 L68.5,111.2 L69.2,117.8 L71.3,122.9 L73.6,127.8 L75.9,131.8 L78.9,138.1 L83.8,139.0 L85.6,134.4 L77.2,112.3 L74.2,108.6 L70.7,107.8 Z" fill="#4f8a3e" stroke="none"/>
<path d="M188.7,755.1 L187.2,755.0 L185.7,756.1 L184.8,757.5 L184.0,760.4 L185.0,763.8 L186.8,768.1 L188.9,771.7 L190.3,774.2 L191.8,776.5 L192.9,778.3 L194.5,780.0 L196.6,784.5 L199.2,791.2 L200.9,794.9 L204.8,802.3 L206.9,808.5 L208.9,814.6 L211.9,822.4 L214.2,827.9 L217.3,832.7 L220.4,834.3 L223.7,834.0 L226.2,831.8 L227.0,829.7 L227.1,827.9 L226.7,826.0 L225.4,823.2 L224.0,820.7 L219.2,813.6 L216.1,806.2 L209.6,790.9 L204.7,780.6 L199.4,772.4 L196.0,766.4 L191.8,759.7 L188.7,755.1 Z" fill="#4f8a3e" stroke="none"/>
<path d="M-13.2,421.1 L-18.8,422.4 L-21.6,423.9 L-24.3,425.5 L-25.5,427.6 L-26.5,429.9 L-26.5,432.5 L-25.2,436.9 L-23.7,439.9 L-19.9,445.7 L-17.8,450.4 L-16.0,454.9 L-14.6,458.5 L-12.2,463.6 L-9.4,467.9 L-7.0,470.8 L-1.4,474.3 L3.6,475.0 L9.0,474.2 L11.8,472.6 L13.5,470.5 L15.5,466.1 L16.9,460.7 L16.1,455.3 L14.6,450.0 L14.1,446.0 L11.7,438.2 L6.5,431.2 L1.1,427.0 L-5.7,422.6 L-9.0,421.7 L-13.2,421.1 Z" fill="#2f7825" stroke="none"/>
<path d="M36.7,94.7 L32.7,96.0 L29.9,98.2 L27.9,101.5 L26.2,104.8 L24.8,108.3 L23.8,112.6 L23.3,116.6 L23.3,120.5 L24.1,124.4 L25.7,127.8 L26.8,131.3 L28.4,135.0 L30.1,138.6 L30.9,140.4 L32.2,143.0 L35.0,147.9 L40.2,149.9 L43.7,150.4 L49.8,150.0 L51.1,147.3 L52.6,144.8 L53.9,142.8 L54.6,138.8 L54.5,136.0 L54.0,133.3 L52.3,127.2 L50.9,122.8 L51.0,117.9 L51.8,113.7 L51.7,110.0 L51.4,106.7 L50.4,102.9 L48.4,99.6 L44.6,96.6 L40.1,94.7 L36.7,94.7 Z" fill="#2f7825" stroke="none"/>
<path d="M240.6,793.4 L237.2,794.6 L233.7,796.3 L231.7,799.7 L231.7,803.3 L232.9,806.4 L234.6,810.4 L236.1,815.0 L236.5,822.2 L236.1,827.4 L234.9,832.7 L232.0,837.0 L227.0,840.6 L222.7,842.3 L218.8,844.4 L214.8,847.6 L211.2,851.6 L209.5,855.0 L206.8,859.8 L206.0,866.1 L205.8,870.8 L206.2,875.5 L207.3,878.9 L209.5,882.1 L212.1,884.7 L215.4,886.6 L218.3,886.9 L221.0,886.1 L225.3,883.5 L230.2,880.5 L234.5,877.4 L237.7,873.9 L240.5,870.4 L243.6,866.0 L246.6,860.9 L248.6,856.6 L250.9,851.9 L251.5,847.9 L251.7,844.2 L252.1,838.8 L253.2,834.8 L254.9,831.5 L257.1,827.5 L258.6,824.3 L260.2,818.9 L261.1,813.7 L261.5,809.1 L261.8,804.1 L261.0,800.2 L259.7,797.5 L257.8,795.5 L255.5,793.9 L252.4,793.0 L247.9,792.4 L244.8,792.9 L240.6,793.4 Z" fill="#2f7825" stroke="none"/>
<path d="M225.3,718.8 L231.3,715.1 L237.1,712.9 L243.5,710.6 L249.6,711.5 L253.7,713.0 L256.0,716.0 L256.3,718.3 L256.0,720.1 L256.3,723.4 L256.5,727.4 L257.4,730.6 L258.8,734.3 L259.9,738.1 L260.4,741.7 L259.3,744.3 L257.5,747.0 L255.4,749.0 L251.7,750.6 L247.6,751.7 L241.7,752.4 L238.3,752.3 L234.2,751.9 L231.0,751.6 L227.2,750.7 L222.8,749.0 L219.6,746.4 L216.9,743.3 L214.8,740.4 L214.9,736.4 L215.6,733.1 L217.7,729.3 L219.9,725.7 L222.4,722.6 L225.3,718.8 Z" fill="#2f7825" stroke="none"/>
<path d="M290.4,689.1 L286.5,689.9 L282.5,691.3 L279.2,693.9 L277.6,696.3 L276.0,700.3 L275.4,703.7 L275.8,706.8 L276.7,709.8 L278.1,711.6 L279.5,713.4 L282.8,714.2 L286.9,713.5 L290.8,711.2 L293.9,708.6 L296.7,705.7 L299.1,703.5 L300.4,698.9 L299.3,695.5 L297.1,692.0 L294.7,690.0 L290.4,689.1 Z" fill="#2f7825" stroke="none"/>
<path d="M67.3,67.3 L156.3,507.0 L240.2,732.7" fill="none" stroke="#ffd64a" stroke-width="3.5" stroke-linecap="round" stroke-linejoin="round" opacity="0.95"/>
</svg>