<svg xmlns="http://www.w3.org/2000/svg" viewBox="0 0 311 800" preserveAspectRatio="xMidYMid meet">
<rect width="100%" height="100%" fill="#143018"/>
<path d="M339.0,703.9 L356.1,693.9 L388.0,748.3 L377.6,752.7 L361.1,742.6 L339.0,703.9 Z" fill="#0f2810" stroke="none"/>
<path d="M354.9,45.0 L350.4,49.2 L348.4,55.5 L354.7,58.3 L363.5,57.1 L372.1,52.8 L376.4,46.6 L373.4,43.6 L368.7,40.5 L362.3,40.8 L354.9,45.0 Z" fill="#0f2810" stroke="none"/>
<path d="M312.7,-13.8 L304.0,-7.0 L302.0,-2.2 L305.3,-0.2 L312.2,-1.7 L318.1,-6.0 L320.0,-11.1 L317.6,-13.4 L312.7,-13.8 Z" fill="#0f2810" stroke="none"/>
<path d="M132.3,727.3 L132.8,721.6 L132.5,720.1 L131.8,719.0 L130.9,718.3 L129.8,718.0 L128.9,718.3 L127.9,719.0 L127.2,719.9 L126.9,720.7 L126.9,721.4 L126.8,725.1 L126.6,726.6 L124.6,731.6 L124.7,733.2 L125.1,734.6 L125.8,735.6 L126.8,736.2 L128.2,736.6 L129.8,736.5 L131.1,735.9 L132.0,735.1 L132.7,734.0 L133.0,732.9 L133.0,731.6 L132.4,729.5 L132.2,728.5 L132.3,727.3 Z" fill="#2b5a2a" stroke="none"/>
<path d="M161.9,70.0 L149.4,730.0" fill="none" stroke="#4e8b39" stroke-width="54.5" stroke-linecap="round" stroke-linejoin="round" opacity="0.85"/>
<path d="M238.5,-131.6 L230.7,-132.0 L225.5,-130.2 L222.1,-126.9 L219.8,-121.6 L217.8,-106.4 L216.1,-87.7 L213.2,-33.7 L213.5,-23.1 L217.5,1.8 L218.1,4.2 L219.1,5.9 L221.8,6.8 L225.4,7.0 L230.0,6.1 L235.6,4.4 L239.6,1.7 L244.6,-4.3 L245.9,-8.5 L247.5,-67.6 L250.2,-124.6 L249.9,-127.0 L248.7,-128.6 L246.9,-130.0 L243.7,-130.8 L238.5,-131.6 Z" fill="#5a9540" stroke="none"/>
<path d="M264.2,53.7 L262.7,54.8 L262.1,55.9 L261.8,56.9 L261.6,58.3 L262.0,59.3 L262.7,60.0 L263.9,60.4 L264.9,60.3 L265.6,59.9 L266.7,58.6 L267.5,57.2 L267.7,55.9 L267.8,54.5 L267.7,53.6 L267.2,52.8 L266.6,52.5 L265.7,52.4 L265.0,52.8 L264.2,53.7 Z" fill="#e7d6a3" stroke="none"/>
<path d="M319.0,72.1 L318.1,73.2 L317.6,74.4 L317.6,75.9 L318.0,77.4 L318.9,78.6 L320.1,79.2 L321.2,79.4 L322.5,79.3 L323.7,78.6 L324.4,77.5 L324.7,76.4 L324.6,75.0 L324.1,73.9 L323.3,72.7 L322.7,72.2 L321.7,71.8 L320.3,71.7 L319.0,72.1 Z" fill="#e7d6a3" stroke="none"/>
<path d="M306.2,89.3 L305.2,90.4 L304.8,92.1 L304.6,93.4 L305.1,94.5 L306.3,95.6 L307.6,95.8 L309.3,95.5 L310.7,94.6 L311.3,93.4 L311.8,92.2 L311.9,90.9 L311.4,89.6 L310.5,88.8 L309.4,88.4 L307.7,88.4 L306.5,88.8 L306.2,89.3 Z" fill="#e7d6a3" stroke="none"/>
<path d="M287.7,212.2 L287.0,212.2 L286.1,212.4 L285.0,213.5 L284.6,214.7 L284.8,216.1 L285.5,217.6 L286.7,218.3 L288.4,218.9 L291.4,219.0 L294.5,218.7 L296.5,218.1 L297.7,217.3 L298.6,215.9 L299.1,214.8 L299.0,213.9 L298.2,213.0 L297.1,212.4 L295.9,212.4 L294.8,212.8 L293.2,213.2 L291.9,213.1 L290.2,212.8 L289.0,212.4 L287.7,212.2 Z" fill="#e7d6a3" stroke="none"/>
<path d="M265.1,220.2 L264.4,220.8 L263.4,222.3 L263.1,223.5 L263.8,225.1 L264.9,226.5 L266.2,227.1 L268.3,227.3 L272.3,226.8 L274.1,226.1 L275.3,225.1 L275.9,223.7 L276.3,222.6 L276.1,221.2 L274.9,220.2 L273.9,219.8 L272.9,219.6 L271.7,219.7 L270.5,220.1 L269.6,220.3 L267.4,220.2 L265.8,220.1 L265.1,220.2 Z" fill="#e7d6a3" stroke="none"/>
<path d="M288.4,303.2 L287.2,303.7 L286.2,304.7 L285.2,306.1 L285.0,307.3 L285.2,308.5 L285.7,309.5 L286.4,310.2 L287.2,310.4 L288.3,310.3 L288.9,309.9 L290.4,309.1 L291.8,308.6 L293.4,307.8 L294.4,307.2 L295.0,306.1 L294.8,305.1 L294.3,304.4 L292.7,303.3 L291.2,302.8 L289.7,302.8 L288.4,303.2 Z" fill="#e7d6a3" stroke="none"/>
<path d="M287.9,337.4 L287.3,338.0 L287.0,339.0 L287.2,340.7 L287.8,341.9 L289.1,342.7 L290.4,342.9 L292.4,342.9 L293.8,342.6 L295.1,342.1 L295.8,341.5 L296.1,340.2 L296.2,339.2 L295.5,338.3 L294.1,337.1 L291.8,336.2 L290.2,336.1 L289.2,336.4 L288.5,336.7 L287.9,337.4 Z" fill="#e7d6a3" stroke="none"/>
<path d="M295.8,379.3 L295.1,379.9 L294.6,380.9 L294.7,382.4 L294.8,383.3 L295.4,384.1 L296.5,384.6 L298.2,384.8 L300.6,384.8 L301.6,384.4 L302.5,383.6 L303.0,382.5 L303.4,381.2 L303.1,380.0 L302.1,378.9 L300.9,378.4 L299.3,378.3 L297.7,378.6 L295.8,379.3 Z" fill="#e7d6a3" stroke="none"/>
<path d="M355.7,353.7 L354.8,354.4 L354.3,355.3 L354.0,356.3 L354.1,357.4 L354.5,358.4 L355.2,359.2 L356.1,359.7 L357.1,359.9 L358.2,359.8 L359.2,359.3 L360.0,358.5 L360.5,357.5 L360.6,356.4 L360.3,355.3 L359.7,354.4 L358.8,353.7 L357.8,353.4 L356.7,353.4 L355.7,353.7 Z" fill="#e7d6a3" stroke="none"/>
<path d="M359.5,368.2 L358.7,367.7 L357.7,367.3 L356.7,367.4 L355.8,367.7 L355.0,368.4 L354.5,369.2 L354.3,370.2 L354.4,371.2 L354.8,372.1 L355.5,372.8 L356.4,373.2 L357.4,373.3 L358.3,373.1 L359.2,372.7 L359.8,371.9 L360.2,371.0 L360.3,370.1 L360.0,369.1 L359.5,368.2 Z" fill="#e7d6a3" stroke="none"/>
<path d="M113.9,435.8 L113.1,435.9 L112.1,436.6 L110.7,438.5 L109.5,441.0 L109.3,443.1 L109.7,445.0 L110.6,446.4 L111.4,446.9 L112.6,446.9 L113.7,446.5 L115.3,445.7 L117.0,444.6 L118.5,443.9 L122.0,443.0 L122.6,442.3 L122.6,441.1 L122.2,440.3 L117.0,437.4 L115.7,436.6 L114.8,435.9 L113.9,435.8 Z" fill="#e7d6a3" stroke="none"/>
<path d="M178.4,465.2 L177.4,466.5 L176.5,467.5 L174.2,468.9 L173.1,469.9 L172.6,471.1 L172.8,472.2 L173.7,473.5 L175.4,474.3 L177.2,474.5 L179.4,474.1 L180.8,473.4 L181.6,472.6 L182.3,471.4 L183.3,469.2 L183.5,467.7 L183.3,466.4 L182.7,465.2 L181.8,464.7 L180.6,464.6 L179.3,464.7 L178.4,465.2 Z" fill="#e7d6a3" stroke="none"/>
<path d="M166.1,485.1 L164.4,485.9 L163.1,486.9 L162.7,488.2 L162.6,489.4 L163.2,490.7 L164.9,492.3 L166.2,492.8 L167.5,492.9 L169.0,492.2 L170.3,491.1 L171.0,489.7 L171.2,488.3 L170.9,487.0 L170.3,485.9 L168.9,485.1 L167.6,484.8 L166.1,485.1 Z" fill="#e7d6a3" stroke="none"/>
<path d="M147.5,651.7 L146.5,656.4 L145.9,658.1 L144.9,660.5 L144.3,661.8 L144.5,663.0 L145.4,664.3 L146.3,664.9 L147.2,665.0 L148.0,664.4 L152.5,657.4 L154.1,653.8 L154.4,652.6 L154.3,651.4 L153.6,649.9 L152.4,649.4 L151.0,649.3 L149.5,649.8 L148.2,650.7 L147.5,651.7 Z" fill="#e7d6a3" stroke="none"/>
<path d="M156.1,681.1 L155.2,682.1 L154.8,683.5 L154.9,684.6 L155.4,685.6 L157.2,686.9 L158.7,687.5 L160.2,687.3 L161.9,686.4 L162.9,684.9 L163.1,683.3 L162.9,682.0 L161.9,680.6 L160.7,680.0 L159.2,679.8 L157.7,680.2 L156.1,681.1 Z" fill="#e7d6a3" stroke="none"/>
<path d="M175.6,713.1 L174.7,713.0 L173.8,713.3 L172.7,714.5 L172.2,716.8 L171.8,719.4 L170.8,723.4 L169.3,726.7 L166.8,732.2 L166.4,734.5 L166.6,736.1 L167.4,737.6 L168.3,738.1 L169.7,738.0 L170.9,737.4 L171.8,736.3 L172.2,734.6 L172.2,730.3 L172.4,728.5 L173.2,725.9 L176.5,716.1 L176.7,715.1 L176.5,714.4 L176.2,713.7 L175.6,713.1 Z" fill="#e7d6a3" stroke="none"/>
<path d="M-54.3,125.3 L-55.0,126.2 L-55.2,127.4 L-55.3,128.5 L-55.0,129.4 L-54.5,130.4 L-50.0,132.7 L-49.0,132.7 L-48.1,132.5 L-47.4,132.2 L-46.8,131.7 L-46.5,130.9 L-46.6,130.1 L-47.2,129.1 L-50.4,125.6 L-51.2,125.0 L-52.1,124.7 L-53.2,124.9 L-54.3,125.3 Z" fill="#e7d6a3" stroke="none"/>
<path d="M16.9,162.3 L15.7,163.3 L15.0,164.7 L15.0,166.4 L15.7,167.4 L16.9,167.9 L18.6,167.6 L19.4,166.6 L20.2,164.6 L20.0,163.6 L19.6,162.8 L19.0,162.3 L17.8,162.0 L16.9,162.3 Z" fill="#e7d6a3" stroke="none"/>
<path d="M1.8,178.6 L2.8,177.1 L4.1,174.7 L4.9,173.8 L5.7,173.4 L6.7,173.5 L7.1,174.2 L7.2,175.0 L7.1,176.1 L6.3,177.2 L3.2,180.9 L-0.1,184.2 L-1.0,185.2 L-1.7,186.3 L-2.4,188.6 L-3.2,189.8 L-4.6,190.7 L-6.3,191.3 L-7.6,190.9 L-9.0,190.0 L-9.8,189.0 L-10.4,187.7 L-10.3,186.5 L-9.7,185.3 L-8.9,184.4 L-7.6,183.9 L-4.2,183.1 L-2.0,182.3 L-0.2,181.1 L1.0,179.8 L1.8,178.6 Z" fill="#e7d6a3" stroke="none"/>
<path d="M-34.7,196.2 L-35.1,197.0 L-35.1,197.9 L-34.7,199.2 L-33.4,201.4 L-31.8,203.5 L-29.9,204.5 L-28.2,205.0 L-26.5,205.1 L-24.9,204.9 L-23.7,204.4 L-22.9,203.6 L-22.2,202.6 L-21.2,200.0 L-20.5,199.3 L-18.7,197.3 L-17.9,196.5 L-17.7,195.5 L-17.8,194.6 L-18.2,193.8 L-19.2,193.4 L-20.4,193.6 L-21.2,194.1 L-21.9,194.9 L-22.5,195.9 L-22.7,197.4 L-23.1,198.5 L-23.8,199.8 L-24.6,200.6 L-25.6,201.1 L-26.5,201.2 L-27.6,201.0 L-28.6,200.5 L-29.7,199.4 L-31.5,196.4 L-31.8,195.9 L-32.2,195.6 L-33.2,195.4 L-34.1,195.7 L-34.7,196.2 Z" fill="#e7d6a3" stroke="none"/>
<path d="M41.3,330.3 L40.6,330.6 L40.0,331.1 L39.5,332.1 L39.4,333.4 L39.6,334.9 L39.7,336.0 L39.3,338.2 L39.3,339.9 L39.3,340.5 L39.6,341.0 L40.4,341.3 L41.5,341.3 L42.0,340.9 L42.1,340.0 L42.4,337.7 L42.8,336.3 L43.8,333.8 L44.0,332.4 L43.8,331.2 L43.2,330.6 L42.0,330.2 L41.3,330.3 Z" fill="#e7d6a3" stroke="none"/>
<path d="M10.3,300.3 L9.6,301.0 L9.5,302.1 L9.8,303.4 L10.3,304.2 L11.2,304.8 L12.6,305.3 L14.5,305.6 L15.9,305.3 L16.9,304.6 L17.7,303.7 L17.6,302.5 L16.4,301.4 L15.7,300.8 L14.4,300.1 L13.2,299.9 L11.7,299.8 L10.3,300.3 Z" fill="#e7d6a3" stroke="none"/>
<path d="M-44.9,444.3 L-45.5,445.1 L-45.6,446.4 L-45.1,447.2 L-44.4,447.6 L-43.3,447.6 L-39.2,446.6 L-35.5,445.4 L-31.9,443.8 L-24.5,441.9 L-23.0,441.3 L-22.1,440.3 L-21.8,439.0 L-21.9,437.9 L-22.5,437.2 L-23.3,436.8 L-24.4,436.7 L-26.6,437.2 L-28.1,437.8 L-32.6,440.4 L-34.9,441.4 L-43.7,443.7 L-44.9,444.3 Z" fill="#e7d6a3" stroke="none"/>
<path d="M-51.9,468.1 L-49.4,466.7 L-44.7,464.9 L-42.0,464.2 L-40.2,464.4 L-38.7,465.2 L-37.7,466.4 L-37.1,467.8 L-36.8,469.1 L-36.9,470.4 L-37.8,471.5 L-40.0,473.0 L-53.4,477.8 L-55.0,478.1 L-56.3,476.7 L-57.1,474.7 L-56.9,472.9 L-55.8,471.1 L-54.6,469.9 L-51.9,468.1 Z" fill="#e7d6a3" stroke="none"/>
<path d="M57.0,781.4 L62.7,800.2 L37.9,807.7 L32.2,788.9 L57.0,781.4 Z" fill="#4f8a3e" stroke="none"/>
<path d="M81.8,761.5 L86.7,775.2 L106.4,768.2 L101.5,754.5 L81.8,761.5 Z" fill="#4f8a3e" stroke="none"/>
<path d="M75.2,807.9 L77.8,816.4 L91.9,812.1 L89.3,803.6 L75.2,807.9 Z" fill="#4f8a3e" stroke="none"/>
<path d="M213.8,2.8 L207.5,1.3 L204.4,14.8 L210.7,16.3 L213.8,2.8 Z" fill="#4f8a3e" stroke="none"/>
<path d="M247.7,9.3 L234.7,8.3 L232.0,42.9 L245.0,43.9 L247.7,9.3 Z" fill="#4f8a3e" stroke="none"/>
<path d="M219.1,60.2 L215.9,76.6 L224.1,78.1 L227.2,61.7 L219.1,60.2 Z" fill="#4f8a3e" stroke="none"/>
<path d="M218.2,111.1 L209.1,109.6 L206.9,122.5 L216.1,124.0 L218.2,111.1 Z" fill="#4f8a3e" stroke="none"/>
<path d="M196.5,138.9 L194.6,138.4 L193.7,138.7 L192.4,139.8 L187.0,149.6 L186.7,151.3 L187.0,153.1 L188.1,154.7 L189.6,155.2 L192.0,154.8 L193.7,153.6 L195.1,151.3 L197.7,142.9 L198.0,141.4 L197.7,140.1 L196.5,138.9 Z" fill="#4f8a3e" stroke="none"/>
<path d="M374.9,3.3 L359.4,0.7 L355.3,25.3 L370.7,27.9 L374.9,3.3 Z" fill="#4f8a3e" stroke="none"/>
<path d="M281.6,711.2 L282.9,724.9 L305.5,722.7 L304.2,709.0 L281.6,711.2 Z" fill="#4f8a3e" stroke="none"/>
<path d="M297.7,630.9 L298.7,640.5 L307.8,639.5 L306.8,630.0 L297.7,630.9 Z" fill="#4f8a3e" stroke="none"/>
<path d="M279.5,652.4 L280.3,668.6 L304.8,667.3 L303.9,651.1 L279.5,652.4 Z" fill="#4f8a3e" stroke="none"/>
<path d="M357.7,427.4 L349.8,436.0 L342.3,445.5 L340.4,454.3 L339.8,463.9 L341.4,479.4 L336.5,483.4 L380.3,531.6 L385.6,526.5 L401.5,531.6 L406.4,532.2 L410.2,530.5 L418.6,515.7 L419.6,512.7 L419.4,509.6 L417.5,506.2 L409.7,502.7 L403.9,499.3 L394.7,489.8 L377.8,469.7 L373.4,462.7 L371.7,457.7 L369.0,438.0 L366.0,429.4 L363.8,426.3 L361.0,425.7 L357.7,427.4 Z" fill="#4f8a3e" stroke="none"/>
<path d="M158.4,63.0 L157.3,77.8 L166.0,78.4 L167.1,63.7 L158.4,63.0 Z" fill="#4f8a3e" stroke="none"/>
<path d="M176.5,95.5 L167.5,95.0 L166.8,107.5 L175.9,108.0 L176.5,95.5 Z" fill="#4f8a3e" stroke="none"/>
<path d="M176.4,124.6 L167.7,124.0 L165.8,150.0 L174.6,150.6 L176.4,124.6 Z" fill="#4f8a3e" stroke="none"/>
<path d="M188.4,174.2 L170.0,172.4 L166.9,204.1 L185.3,205.9 L188.4,174.2 Z" fill="#4f8a3e" stroke="none"/>
<path d="M-38.0,5.6 L-59.5,30.4 L-45.6,42.4 L-35.5,30.8 L-30.2,35.4 L-18.8,22.3 L-38.0,5.6 Z" fill="#4f8a3e" stroke="none"/>
<path d="M371.1,-56.9 L362.1,-54.6 L356.2,-51.5 L354.0,-49.3 L351.3,-45.1 L349.3,-41.6 L348.6,-38.2 L349.3,-33.6 L350.7,-30.0 L353.2,-27.2 L355.8,-25.9 L359.6,-25.8 L363.5,-26.3 L369.1,-28.0 L374.2,-28.7 L379.8,-28.3 L384.8,-27.3 L388.9,-28.0 L393.4,-29.4 L395.8,-31.4 L400.8,-37.8 L403.0,-43.2 L402.7,-47.7 L401.2,-50.9 L398.8,-54.0 L395.0,-56.7 L391.2,-58.1 L387.5,-58.8 L379.9,-58.3 L371.1,-56.9 Z" fill="#2f7825" stroke="none"/>
<path d="M354.1,638.0 L348.7,641.3 L344.9,645.2 L342.8,650.0 L342.8,656.1 L346.5,663.1 L352.1,666.7 L357.1,667.7 L363.8,667.5 L371.3,664.9 L378.4,660.2 L383.9,653.9 L385.4,650.3 L385.6,646.2 L384.6,641.5 L382.1,637.8 L377.8,634.5 L372.9,633.2 L367.6,633.1 L361.2,635.4 L354.1,638.0 Z" fill="#2f7825" stroke="none"/>
<path d="M252.6,646.2 L249.8,643.1 L246.6,641.3 L242.5,640.1 L239.1,640.3 L226.4,644.3 L224.0,646.3 L222.0,649.9 L220.3,654.9 L219.7,659.5 L221.1,663.8 L225.5,672.5 L225.9,674.5 L225.1,677.6 L216.4,708.9 L211.8,731.3 L212.5,737.9 L214.4,743.2 L217.7,744.4 L221.3,742.7 L236.4,726.9 L241.8,717.4 L251.8,684.5 L253.9,681.3 L256.4,677.7 L258.6,673.8 L259.3,668.1 L258.3,660.6 L254.9,650.3 L252.6,646.2 Z" fill="#2f7825" stroke="none"/>
<path d="M279.6,36.2 L275.4,38.4 L271.1,43.7 L268.9,53.1 L269.2,61.6 L272.5,69.9 L279.5,78.9 L285.8,83.1 L293.4,85.1 L300.5,83.8 L305.3,81.0 L309.7,76.5 L312.6,69.4 L314.1,64.2 L314.2,57.7 L312.9,51.8 L310.7,46.6 L306.8,41.8 L301.9,38.1 L297.0,36.1 L291.9,35.3 L285.6,34.8 L279.6,36.2 Z" fill="#2f7825" stroke="none"/>
<path d="M142.2,709.0 L139.2,711.1 L137.0,714.2 L135.9,718.1 L136.1,725.8 L137.4,734.4 L137.8,740.3 L140.3,746.6 L144.2,751.0 L148.1,753.5 L152.1,754.5 L156.5,753.2 L160.2,750.7 L161.7,747.8 L161.4,744.1 L159.6,737.9 L159.2,732.9 L160.9,724.0 L162.0,719.1 L161.6,715.7 L158.5,711.3 L152.8,707.8 L148.8,707.0 L145.8,707.2 L142.2,709.0 Z" fill="#2f7825" stroke="none"/>
<path d="M26.9,303.2 L25.0,308.6 L25.4,311.9 L27.4,314.3 L30.1,315.8 L34.5,316.0 L37.4,315.2 L42.8,313.3 L70.4,304.0 L73.4,302.2 L75.7,300.0 L76.8,297.7 L77.6,294.6 L77.4,290.8 L76.4,287.7 L73.8,285.4 L70.6,282.6 L68.6,279.4 L66.9,275.3 L64.4,272.7 L61.6,270.7 L58.2,270.2 L55.1,270.2 L51.9,271.3 L47.4,274.7 L30.8,295.8 L26.9,303.2 Z" fill="#2f7825" stroke="none"/>
<path d="M161.9,70.0 L149.4,730.0" fill="none" stroke="#ffd64a" stroke-width="3.5" stroke-linecap="round" stroke-linejoin="round" opacity="0.95"/>
</svg>