<svg xmlns="http://www.w3.org/2000/svg" viewBox="0 0 800 600" preserveAspectRatio="xMidYMid slice">
<rect width="100%" height="100%" fill="#143018"/>
<path d="M568.8,579.0 L584.5,569.7 L613.7,619.7 L604.2,623.8 L589.0,614.5 L568.8,579.0 Z" fill="#0f2810" stroke="none"/>
<path d="M621.3,546.7 L623.4,551.1 L653.4,613.3 L633.4,612.1 L603.0,557.6 L621.3,546.7 Z" fill="#0f2810" stroke="none"/>
<path d="M23.2,138.8 L11.1,149.2 L3.6,159.4 L-2.0,169.1 L-4.6,177.3 L-10.6,186.1 L-10.2,190.6 L-5.5,196.3 L0.5,198.9 L12.3,193.9 L17.3,188.4 L17.7,183.4 L23.0,174.3 L25.1,169.6 L21.6,165.7 L20.9,159.6 L28.0,153.7 L31.1,149.9 L30.8,144.8 L30.3,143.4 L23.2,138.8 Z" fill="#0f2810" stroke="none"/>
<path d="M583.3,-25.9 L579.2,-22.0 L577.4,-16.2 L583.2,-13.7 L591.3,-14.7 L599.1,-18.7 L603.1,-24.3 L600.3,-27.2 L596.0,-30.0 L590.1,-29.7 L583.3,-25.9 Z" fill="#0f2810" stroke="none"/>
<path d="M544.6,-79.8 L536.6,-73.6 L534.8,-69.2 L537.8,-67.3 L544.2,-68.8 L549.5,-72.7 L551.3,-77.3 L549.1,-79.5 L544.6,-79.8 Z" fill="#0f2810" stroke="none"/>
<path d="M666.1,17.5 L637.4,-3.6 L625.7,-11.3 L610.8,-6.2 L608.3,13.1 L615.9,109.9 L619.9,211.8 L618.1,226.7 L628.8,229.2 L640.5,237.2 L805.1,101.2 L768.0,79.3 L743.3,71.7 L706.1,45.8 L666.1,17.5 Z" fill="#2b5a2a" stroke="none"/>
<path d="M379.0,600.4 L379.5,595.2 L379.2,593.8 L378.5,592.8 L377.7,592.2 L376.7,591.9 L375.9,592.1 L375.0,592.8 L374.4,593.6 L374.1,594.4 L374.0,595.0 L374.0,598.4 L373.8,599.8 L372.0,604.4 L372.1,605.9 L372.4,607.1 L373.1,608.0 L374.0,608.6 L375.3,608.9 L376.7,608.8 L377.9,608.4 L378.7,607.6 L379.4,606.6 L379.7,605.5 L379.7,604.4 L379.1,602.5 L379.0,601.5 L379.0,600.4 Z" fill="#2b5a2a" stroke="none"/>
<path d="M600.7,504.8 L599.3,505.1 L598.4,505.4 L597.9,506.3 L597.7,507.3 L597.9,508.1 L598.5,508.7 L599.5,509.4 L600.7,509.7 L601.7,509.4 L603.9,507.6 L605.2,506.9 L607.2,506.1 L608.2,505.5 L608.4,504.4 L608.1,503.5 L607.2,502.9 L606.4,502.7 L605.5,502.6 L604.4,503.1 L601.5,504.6 L600.7,504.8 Z" fill="#e7d6a3" stroke="none"/>
<path d="M618.2,489.6 L617.8,490.4 L617.6,491.5 L617.8,492.4 L618.5,493.2 L619.7,494.0 L620.7,494.1 L621.5,493.8 L622.7,492.5 L623.9,491.5 L624.9,491.1 L625.9,491.1 L627.2,491.0 L628.2,490.3 L628.6,489.3 L628.4,488.1 L627.8,487.2 L626.9,486.8 L625.9,486.8 L624.9,487.4 L623.8,488.0 L619.8,488.8 L618.9,489.1 L618.2,489.6 Z" fill="#e7d6a3" stroke="none"/>
<path d="M656.2,478.6 L655.6,479.7 L655.4,481.0 L655.7,482.4 L656.6,483.5 L657.7,484.3 L658.8,484.4 L659.5,484.1 L660.2,483.5 L661.0,482.6 L662.1,480.9 L663.3,478.7 L666.1,476.1 L667.6,474.2 L667.7,473.0 L667.3,472.4 L666.6,471.9 L665.9,471.9 L664.9,472.4 L664.3,473.0 L663.2,474.9 L662.6,475.5 L660.3,477.2 L659.5,477.6 L658.1,477.6 L657.2,477.8 L656.2,478.6 Z" fill="#e7d6a3" stroke="none"/>
<path d="M651.0,462.2 L649.6,463.0 L648.9,464.0 L648.8,465.2 L649.1,466.1 L649.8,466.9 L650.8,467.3 L651.9,467.2 L654.8,465.4 L655.3,464.6 L655.6,463.8 L655.4,462.9 L654.7,462.3 L653.9,462.0 L652.4,461.9 L651.0,462.2 Z" fill="#e7d6a3" stroke="none"/>
<path d="M663.8,453.4 L663.4,454.0 L663.0,454.9 L662.6,456.9 L662.6,459.0 L663.0,460.0 L663.6,460.7 L664.4,461.0 L665.2,461.0 L665.8,460.9 L666.3,460.5 L666.7,460.0 L667.0,459.2 L667.0,458.4 L666.6,457.2 L666.5,456.5 L666.5,454.2 L666.4,453.7 L665.9,453.0 L665.1,452.8 L664.5,452.9 L663.8,453.4 Z" fill="#e7d6a3" stroke="none"/>
<path d="M769.6,396.5 L767.4,398.5 L766.7,399.7 L766.4,400.8 L766.9,401.8 L768.0,402.5 L769.5,402.5 L771.0,401.6 L774.4,396.8 L777.4,393.1 L778.1,392.1 L778.4,391.1 L778.5,390.2 L778.0,389.3 L777.4,388.9 L776.3,388.8 L774.5,389.3 L773.1,390.4 L772.0,391.9 L770.7,394.9 L769.6,396.5 Z" fill="#e7d6a3" stroke="none"/>
<path d="M500.1,-17.9 L498.7,-16.9 L498.1,-15.9 L497.9,-14.9 L497.7,-13.7 L498.1,-12.7 L498.7,-12.1 L499.8,-11.7 L500.7,-11.8 L501.4,-12.1 L502.4,-13.4 L503.1,-14.7 L503.3,-15.8 L503.4,-17.2 L503.3,-18.0 L502.9,-18.7 L502.2,-19.0 L501.4,-19.0 L500.8,-18.7 L500.1,-17.9 Z" fill="#e7d6a3" stroke="none"/>
<path d="M550.4,-1.0 L549.6,0.1 L549.1,1.1 L549.1,2.5 L549.5,3.9 L550.3,5.0 L551.4,5.5 L552.4,5.7 L553.6,5.6 L554.7,5.0 L555.4,4.0 L555.6,3.0 L555.5,1.7 L555.0,0.7 L554.3,-0.4 L553.8,-0.9 L552.8,-1.3 L551.6,-1.3 L550.4,-1.0 Z" fill="#e7d6a3" stroke="none"/>
<path d="M538.6,14.8 L537.7,15.8 L537.4,17.4 L537.2,18.6 L537.6,19.6 L538.8,20.6 L539.9,20.8 L541.5,20.5 L542.7,19.7 L543.3,18.6 L543.8,17.5 L543.8,16.3 L543.4,15.1 L542.6,14.4 L541.6,14.0 L540.1,14.0 L538.9,14.3 L538.6,14.8 Z" fill="#e7d6a3" stroke="none"/>
<path d="M521.7,127.6 L521.0,127.6 L520.2,127.8 L519.2,128.8 L518.8,129.9 L519.0,131.2 L519.6,132.5 L520.8,133.2 L522.3,133.8 L525.1,133.9 L527.9,133.6 L529.8,133.0 L530.8,132.3 L531.7,131.0 L532.1,130.0 L532.0,129.1 L531.3,128.3 L530.3,127.8 L529.2,127.8 L528.2,128.1 L526.7,128.5 L525.5,128.5 L524.0,128.1 L522.9,127.8 L521.7,127.6 Z" fill="#e7d6a3" stroke="none"/>
<path d="M500.9,134.9 L500.2,135.5 L499.4,136.9 L499.1,138.0 L499.7,139.5 L500.7,140.7 L501.9,141.3 L503.9,141.5 L507.5,141.0 L509.1,140.4 L510.3,139.5 L510.9,138.2 L511.2,137.2 L511.0,135.9 L509.9,135.0 L509.0,134.6 L508.0,134.5 L506.9,134.5 L505.9,134.9 L505.0,135.1 L503.0,135.0 L501.6,134.8 L500.9,134.9 Z" fill="#e7d6a3" stroke="none"/>
<path d="M522.3,211.1 L521.2,211.6 L520.3,212.5 L519.4,213.8 L519.2,214.9 L519.3,216.0 L519.8,216.9 L520.5,217.6 L521.2,217.8 L522.2,217.7 L522.8,217.3 L524.1,216.6 L525.4,216.1 L526.9,215.4 L527.8,214.8 L528.4,213.8 L528.2,212.9 L527.7,212.3 L526.3,211.3 L524.8,210.8 L523.5,210.7 L522.3,211.1 Z" fill="#e7d6a3" stroke="none"/>
<path d="M521.8,242.5 L521.3,243.1 L521.0,244.0 L521.2,245.5 L521.8,246.7 L522.9,247.4 L524.1,247.6 L526.0,247.6 L527.3,247.4 L528.4,246.9 L529.1,246.3 L529.4,245.1 L529.4,244.2 L528.8,243.4 L527.6,242.2 L525.4,241.4 L523.9,241.3 L523.0,241.6 L522.4,241.9 L521.8,242.5 Z" fill="#e7d6a3" stroke="none"/>
<path d="M529.1,281.0 L528.5,281.5 L528.0,282.5 L528.0,283.9 L528.2,284.7 L528.8,285.4 L529.8,285.9 L531.3,286.1 L533.5,286.1 L534.4,285.7 L535.2,284.9 L535.7,283.9 L536.0,282.8 L535.8,281.6 L534.9,280.6 L533.7,280.2 L532.3,280.1 L530.8,280.4 L529.1,281.0 Z" fill="#e7d6a3" stroke="none"/>
<path d="M595.1,242.6 L596.4,241.9 L597.5,240.7 L597.9,239.9 L597.9,238.9 L597.6,237.8 L596.7,237.1 L595.5,236.5 L594.7,236.4 L593.4,236.7 L592.7,237.0 L591.8,238.0 L591.2,239.0 L591.2,240.1 L591.4,241.3 L592.0,242.2 L593.2,242.7 L594.3,242.9 L595.1,242.6 Z" fill="#e7d6a3" stroke="none"/>
<path d="M584.1,257.5 L583.3,258.1 L582.7,259.0 L582.5,259.9 L582.6,260.9 L582.9,261.8 L583.6,262.5 L584.4,263.0 L585.4,263.2 L586.4,263.1 L587.3,262.7 L588.0,261.9 L588.5,261.0 L588.6,260.0 L588.3,259.0 L587.8,258.1 L586.9,257.5 L586.0,257.2 L585.0,257.2 L584.1,257.5 Z" fill="#e7d6a3" stroke="none"/>
<path d="M587.5,270.9 L586.8,270.3 L585.9,270.0 L585.0,270.1 L584.1,270.4 L583.4,271.0 L583.0,271.8 L582.8,272.7 L582.9,273.6 L583.3,274.4 L583.9,275.0 L584.7,275.4 L585.6,275.5 L586.5,275.3 L587.3,274.9 L587.8,274.2 L588.2,273.4 L588.3,272.5 L588.0,271.6 L587.5,270.9 Z" fill="#e7d6a3" stroke="none"/>
<path d="M362.2,332.8 L361.4,332.9 L360.5,333.6 L359.2,335.3 L358.1,337.6 L357.9,339.6 L358.3,341.3 L359.1,342.6 L359.9,343.1 L361.0,343.1 L362.0,342.7 L363.4,342.0 L365.0,340.9 L366.3,340.3 L369.6,339.5 L370.1,338.8 L370.1,337.7 L369.7,337.0 L365.0,334.4 L363.8,333.6 L362.9,333.0 L362.2,332.8 Z" fill="#e7d6a3" stroke="none"/>
<path d="M421.3,359.9 L420.4,361.0 L419.6,361.9 L417.5,363.3 L416.4,364.1 L416.1,365.2 L416.2,366.3 L417.0,367.4 L418.6,368.2 L420.2,368.4 L422.2,368.1 L423.5,367.4 L424.3,366.7 L424.9,365.6 L425.8,363.5 L426.0,362.2 L425.8,361.0 L425.3,359.9 L424.4,359.4 L423.4,359.3 L422.1,359.4 L421.3,359.9 Z" fill="#e7d6a3" stroke="none"/>
<path d="M410.1,378.1 L408.5,378.8 L407.3,379.8 L406.9,381.0 L406.8,382.1 L407.3,383.2 L408.9,384.7 L410.1,385.2 L411.3,385.2 L412.7,384.6 L413.9,383.6 L414.6,382.4 L414.7,381.1 L414.5,379.9 L413.9,378.8 L412.6,378.1 L411.4,377.9 L410.1,378.1 Z" fill="#e7d6a3" stroke="none"/>
<path d="M392.9,531.0 L392.0,535.3 L391.5,536.9 L390.6,539.1 L390.1,540.3 L390.2,541.4 L391.0,542.6 L391.9,543.2 L392.7,543.2 L393.5,542.7 L397.5,536.2 L399.0,532.9 L399.3,531.9 L399.2,530.7 L398.6,529.4 L397.4,528.9 L396.2,528.8 L394.9,529.3 L393.6,530.1 L392.9,531.0 Z" fill="#e7d6a3" stroke="none"/>
<path d="M400.8,558.0 L400.0,558.9 L399.7,560.2 L399.8,561.3 L400.2,562.2 L401.9,563.4 L403.3,563.9 L404.6,563.7 L406.2,562.9 L407.1,561.5 L407.3,560.0 L407.1,558.9 L406.2,557.6 L405.1,557.0 L403.7,556.9 L402.4,557.2 L400.8,558.0 Z" fill="#e7d6a3" stroke="none"/>
<path d="M418.8,587.4 L417.9,587.3 L417.1,587.5 L416.1,588.7 L415.6,590.8 L415.2,593.2 L414.3,596.8 L413.0,599.9 L410.7,604.9 L410.3,607.0 L410.5,608.5 L411.3,609.9 L412.1,610.3 L413.4,610.2 L414.5,609.7 L415.3,608.7 L415.7,607.1 L415.6,603.2 L415.8,601.5 L416.6,599.1 L419.6,590.2 L419.8,589.3 L419.6,588.6 L419.3,587.9 L418.8,587.4 Z" fill="#e7d6a3" stroke="none"/>
<path d="M207.8,47.8 L207.1,48.7 L206.9,49.8 L206.8,50.8 L207.1,51.6 L207.6,52.5 L211.7,54.6 L212.6,54.6 L213.5,54.5 L214.1,54.2 L214.6,53.8 L214.9,53.0 L214.8,52.2 L214.3,51.4 L211.3,48.1 L210.6,47.6 L209.7,47.3 L208.8,47.4 L207.8,47.8 Z" fill="#e7d6a3" stroke="none"/>
<path d="M273.1,81.8 L272.0,82.7 L271.4,84.0 L271.3,85.6 L272.0,86.5 L273.2,86.9 L274.6,86.7 L275.4,85.8 L276.1,83.9 L276.0,83.0 L275.6,82.3 L275.0,81.8 L273.9,81.6 L273.1,81.8 Z" fill="#e7d6a3" stroke="none"/>
<path d="M259.2,96.8 L260.1,95.4 L261.4,93.2 L262.1,92.4 L262.8,92.0 L263.7,92.1 L264.1,92.7 L264.2,93.4 L264.1,94.5 L263.4,95.5 L260.6,98.9 L257.5,101.9 L256.7,102.8 L256.0,103.9 L255.4,105.9 L254.7,107.0 L253.4,107.9 L251.8,108.4 L250.6,108.1 L249.4,107.2 L248.6,106.3 L248.1,105.1 L248.1,104.1 L248.7,102.9 L249.4,102.1 L250.6,101.6 L253.7,100.9 L255.8,100.2 L257.4,99.0 L258.5,97.8 L259.2,96.8 Z" fill="#e7d6a3" stroke="none"/>
<path d="M225.8,112.9 L225.4,113.7 L225.4,114.5 L225.7,115.6 L227.0,117.7 L228.4,119.6 L230.1,120.5 L231.7,121.0 L233.3,121.1 L234.7,121.0 L235.8,120.5 L236.6,119.8 L237.2,118.8 L238.2,116.4 L238.7,115.8 L240.4,113.9 L241.2,113.2 L241.4,112.3 L241.3,111.4 L240.9,110.7 L240.0,110.4 L238.8,110.5 L238.1,111.0 L237.5,111.7 L237.0,112.7 L236.8,114.0 L236.4,115.1 L235.8,116.2 L235.0,117.0 L234.1,117.5 L233.2,117.6 L232.3,117.4 L231.4,116.9 L230.3,115.9 L228.7,113.1 L228.4,112.6 L228.0,112.4 L227.1,112.2 L226.3,112.5 L225.8,112.9 Z" fill="#e7d6a3" stroke="none"/>
<path d="M133.5,199.8 L133.0,200.6 L133.0,201.5 L133.2,202.3 L134.3,204.7 L135.9,208.9 L136.5,209.9 L137.1,210.5 L137.8,210.7 L138.5,210.5 L139.1,210.0 L139.7,209.4 L139.9,208.6 L139.8,207.0 L139.1,204.7 L137.8,201.7 L136.0,199.3 L135.2,198.9 L134.3,199.1 L133.5,199.8 Z" fill="#e7d6a3" stroke="none"/>
<path d="M171.8,235.5 L170.1,237.5 L169.4,238.9 L169.3,240.3 L169.8,241.6 L170.3,242.3 L171.3,242.5 L171.9,242.1 L172.5,241.7 L173.3,240.4 L174.4,239.2 L175.3,238.5 L177.9,237.3 L178.8,236.7 L179.3,235.8 L179.4,234.9 L179.1,234.2 L178.4,233.4 L177.4,233.2 L176.4,233.3 L175.6,233.5 L174.5,233.8 L173.0,234.6 L171.8,235.5 Z" fill="#e7d6a3" stroke="none"/>
<path d="M153.4,286.9 L152.7,288.1 L152.2,289.4 L152.3,290.7 L152.7,292.0 L153.7,292.5 L155.0,292.2 L155.9,291.2 L157.4,288.2 L157.5,287.3 L157.2,286.5 L156.8,286.0 L156.4,285.7 L155.4,285.7 L154.5,286.0 L153.4,286.9 Z" fill="#e7d6a3" stroke="none"/>
<path d="M104.5,287.1 L104.1,287.8 L104.0,288.5 L104.1,289.4 L104.5,290.4 L105.2,290.7 L106.0,290.7 L106.7,290.2 L107.5,289.7 L108.8,289.5 L111.3,289.3 L112.2,288.9 L112.6,288.3 L112.6,287.3 L112.3,286.5 L111.6,285.9 L110.9,285.7 L110.1,285.7 L109.3,286.0 L108.6,286.3 L107.8,286.4 L106.8,286.5 L105.9,286.6 L105.2,286.8 L104.5,287.1 Z" fill="#e7d6a3" stroke="none"/>
<path d="M295.5,236.0 L294.8,236.3 L294.3,236.8 L293.8,237.6 L293.8,238.9 L294.0,240.2 L294.1,241.2 L293.7,243.3 L293.6,244.8 L293.7,245.4 L294.0,245.8 L294.7,246.1 L295.6,246.1 L296.1,245.8 L296.3,244.9 L296.5,242.8 L296.9,241.5 L297.8,239.3 L297.9,238.0 L297.8,236.9 L297.2,236.3 L296.2,236.0 L295.5,236.0 Z" fill="#e7d6a3" stroke="none"/>
<path d="M267.0,208.5 L266.4,209.2 L266.3,210.2 L266.6,211.4 L267.1,212.0 L267.9,212.6 L269.2,213.0 L270.9,213.3 L272.2,213.1 L273.1,212.5 L273.8,211.6 L273.8,210.5 L272.7,209.5 L272.0,209.0 L270.8,208.3 L269.7,208.1 L268.3,208.0 L267.0,208.5 Z" fill="#e7d6a3" stroke="none"/>
<path d="M216.4,340.7 L215.9,341.4 L215.7,342.6 L216.2,343.4 L216.8,343.7 L217.9,343.7 L221.6,342.8 L225.0,341.6 L228.3,340.2 L235.1,338.4 L236.5,337.9 L237.3,337.0 L237.6,335.8 L237.5,334.8 L237.0,334.2 L236.2,333.8 L235.2,333.7 L233.2,334.1 L231.8,334.7 L227.7,337.1 L225.5,338.0 L217.5,340.2 L216.4,340.7 Z" fill="#e7d6a3" stroke="none"/>
<path d="M210.0,362.5 L212.2,361.2 L216.6,359.5 L219.0,358.9 L220.7,359.1 L222.1,359.9 L223.0,360.9 L223.6,362.2 L223.8,363.5 L223.7,364.7 L222.9,365.6 L220.9,367.0 L208.6,371.5 L207.2,371.6 L205.9,370.4 L205.2,368.6 L205.3,366.9 L206.4,365.2 L207.5,364.1 L210.0,362.5 Z" fill="#e7d6a3" stroke="none"/>
<path d="M195.3,331.3 L192.2,331.1 L190.9,331.3 L189.7,332.0 L189.4,332.8 L189.4,333.7 L189.7,334.7 L190.8,335.5 L197.0,338.4 L198.9,338.4 L200.5,337.6 L201.4,336.7 L201.7,335.3 L201.0,333.5 L199.7,332.6 L197.7,331.8 L195.3,331.3 Z" fill="#e7d6a3" stroke="none"/>
<path d="M172.7,331.8 L171.4,332.2 L170.5,333.6 L170.2,334.9 L170.6,336.6 L171.7,338.3 L172.9,338.9 L174.1,338.8 L175.2,338.1 L176.1,337.0 L176.3,335.7 L175.6,334.2 L174.8,333.0 L173.9,332.0 L172.7,331.8 Z" fill="#e7d6a3" stroke="none"/>
<path d="M113.7,421.4 L114.9,420.9 L115.8,421.0 L116.9,421.7 L117.2,422.5 L117.3,423.3 L117.1,424.4 L113.1,431.6 L111.9,432.2 L110.6,432.3 L109.5,432.0 L108.7,431.1 L108.3,429.6 L108.5,428.0 L112.1,422.8 L113.7,421.4 Z" fill="#e7d6a3" stroke="none"/>
<path d="M67.5,453.3 L68.6,452.1 L70.0,451.4 L71.9,451.5 L73.0,452.4 L73.6,453.7 L73.4,455.1 L72.8,456.2 L71.7,457.2 L70.1,457.9 L68.5,458.0 L67.1,457.5 L66.4,456.8 L66.4,454.9 L67.5,453.3 Z" fill="#e7d6a3" stroke="none"/>
<path d="M39.7,469.8 L39.5,470.9 L39.7,471.7 L40.4,472.4 L41.3,472.5 L42.7,472.3 L45.2,471.8 L46.2,471.4 L47.8,470.7 L48.5,470.1 L48.7,469.2 L48.6,468.2 L47.7,467.2 L46.1,466.9 L44.1,467.0 L42.9,467.3 L41.4,468.0 L40.5,468.7 L39.7,469.8 Z" fill="#e7d6a3" stroke="none"/>
<path d="M309.9,650.0 L315.1,667.4 L292.4,674.3 L287.2,656.9 L309.9,650.0 Z" fill="#4f8a3e" stroke="none"/>
<path d="M332.7,631.8 L337.2,644.4 L355.3,638.0 L350.8,625.4 L332.7,631.8 Z" fill="#4f8a3e" stroke="none"/>
<path d="M326.6,674.5 L329.0,682.2 L341.9,678.3 L339.5,670.5 L326.6,674.5 Z" fill="#4f8a3e" stroke="none"/>
<path d="M453.8,-64.6 L448.1,-65.9 L445.2,-53.5 L451.0,-52.2 L453.8,-64.6 Z" fill="#4f8a3e" stroke="none"/>
<path d="M484.9,-58.6 L473.0,-59.5 L470.6,-27.7 L482.5,-26.8 L484.9,-58.6 Z" fill="#4f8a3e" stroke="none"/>
<path d="M458.7,-11.9 L455.8,3.1 L463.3,4.6 L466.2,-10.5 L458.7,-11.9 Z" fill="#4f8a3e" stroke="none"/>
<path d="M457.9,34.8 L449.5,33.5 L447.5,45.3 L455.9,46.7 L457.9,34.8 Z" fill="#4f8a3e" stroke="none"/>
<path d="M438.0,60.4 L436.2,59.9 L435.4,60.2 L434.2,61.1 L429.2,70.2 L429.0,71.7 L429.2,73.4 L430.2,74.9 L431.6,75.3 L433.8,75.0 L435.3,73.9 L436.7,71.8 L439.1,64.0 L439.3,62.7 L439.0,61.4 L438.0,60.4 Z" fill="#4f8a3e" stroke="none"/>
<path d="M601.7,-64.1 L587.5,-66.5 L583.7,-44.0 L597.9,-41.6 L601.7,-64.1 Z" fill="#4f8a3e" stroke="none"/>
<path d="M516.1,585.6 L517.2,598.2 L538.0,596.2 L536.8,583.7 L516.1,585.6 Z" fill="#4f8a3e" stroke="none"/>
<path d="M530.9,511.9 L531.8,520.7 L540.1,519.9 L539.2,511.1 L530.9,511.9 Z" fill="#4f8a3e" stroke="none"/>
<path d="M514.1,531.7 L514.9,546.5 L537.3,545.3 L536.5,530.5 L514.1,531.7 Z" fill="#4f8a3e" stroke="none"/>
<path d="M763.3,78.6 L741.1,84.1 L746.0,107.3 L769.0,102.0 L763.3,78.6 Z" fill="#4f8a3e" stroke="none"/>
<path d="M585.9,325.2 L578.6,333.0 L571.7,341.7 L570.0,349.8 L569.5,358.6 L571.0,372.9 L566.4,376.5 L606.6,420.8 L611.5,416.2 L626.1,420.8 L630.6,421.3 L634.1,419.8 L641.8,406.2 L642.7,403.5 L642.5,400.6 L640.8,397.5 L633.6,394.3 L628.3,391.2 L619.8,382.4 L604.3,363.9 L600.3,357.5 L598.7,353.0 L596.2,334.8 L593.5,326.9 L591.5,324.1 L588.9,323.6 L585.9,325.2 Z" fill="#4f8a3e" stroke="none"/>
<path d="M403.0,-9.3 L402.0,4.3 L410.0,4.9 L411.0,-8.7 L403.0,-9.3 Z" fill="#4f8a3e" stroke="none"/>
<path d="M419.6,20.5 L411.3,20.0 L410.7,31.5 L419.0,32.0 L419.6,20.5 Z" fill="#4f8a3e" stroke="none"/>
<path d="M419.5,47.3 L411.5,46.7 L409.8,70.5 L417.8,71.1 L419.5,47.3 Z" fill="#4f8a3e" stroke="none"/>
<path d="M430.5,92.8 L413.6,91.1 L410.8,120.2 L427.7,121.8 L430.5,92.8 Z" fill="#4f8a3e" stroke="none"/>
<path d="M222.8,-62.0 L203.0,-39.3 L215.7,-28.2 L225.0,-38.9 L229.9,-34.7 L240.4,-46.7 L222.8,-62.0 Z" fill="#4f8a3e" stroke="none"/>
<path d="M200.2,-36.8 L185.8,-21.1 L198.2,-9.8 L212.5,-25.5 L200.2,-36.8 Z" fill="#4f8a3e" stroke="none"/>
<path d="M181.3,7.8 L174.9,15.7 L184.8,23.7 L191.2,15.9 L181.3,7.8 Z" fill="#4f8a3e" stroke="none"/>
<path d="M106.3,173.9 L95.0,179.6 L97.9,185.4 L109.2,179.7 L106.3,173.9 Z" fill="#4f8a3e" stroke="none"/>
<path d="M76.0,206.2 L62.4,214.4 L66.2,220.7 L79.8,212.5 L76.0,206.2 Z" fill="#4f8a3e" stroke="none"/>
<path d="M85.3,354.3 L86.0,361.9 L72.4,363.7 L66.7,364.3 L63.6,366.5 L58.6,368.7 L55.8,366.9 L54.9,363.4 L57.9,358.7 L64.0,355.1 L77.2,354.2 L85.3,354.3 Z" fill="#4f8a3e" stroke="none"/>
<path d="M36.0,349.9 L35.8,356.1 L43.5,356.9 L44.5,350.4 L36.0,349.9 Z" fill="#4f8a3e" stroke="none"/>
<path d="M582.6,518.5 L577.7,521.5 L574.1,525.1 L572.3,529.5 L572.3,535.1 L575.6,541.5 L580.8,544.8 L585.4,545.8 L591.5,545.6 L598.4,543.2 L604.9,538.9 L610.0,533.0 L611.4,529.8 L611.5,525.9 L610.6,521.7 L608.3,518.2 L604.4,515.3 L599.8,514.1 L595.0,514.0 L589.1,516.1 L582.6,518.5 Z" fill="#2f7825" stroke="none"/>
<path d="M489.4,525.9 L486.9,523.1 L483.9,521.5 L480.2,520.4 L477.1,520.5 L465.4,524.3 L463.2,526.1 L461.4,529.4 L459.8,534.0 L459.2,538.2 L460.5,542.2 L464.6,550.1 L464.9,551.9 L464.2,554.8 L456.3,583.6 L452.0,604.1 L452.7,610.1 L454.4,615.0 L457.4,616.1 L460.7,614.6 L474.5,600.1 L479.5,591.3 L488.7,561.1 L490.7,558.2 L493.0,554.9 L494.9,551.3 L495.6,546.1 L494.7,539.2 L491.6,529.7 L489.4,525.9 Z" fill="#2f7825" stroke="none"/>
<path d="M514.2,-33.9 L510.4,-31.9 L506.4,-27.0 L504.4,-18.5 L504.7,-10.7 L507.7,-3.0 L514.1,5.3 L520.0,9.2 L526.9,10.9 L533.4,9.8 L537.8,7.2 L541.9,3.1 L544.5,-3.5 L545.9,-8.2 L546.0,-14.2 L544.8,-19.6 L542.7,-24.3 L539.2,-28.8 L534.7,-32.2 L530.2,-34.1 L525.5,-34.8 L519.8,-35.2 L514.2,-33.9 Z" fill="#2f7825" stroke="none"/>
<path d="M600.2,241.3 L595.0,248.1 L592.5,252.8 L590.0,266.7 L590.1,271.0 L591.5,274.4 L593.2,275.9 L596.1,277.7 L599.3,277.8 L603.3,276.2 L606.1,273.2 L611.6,264.1 L615.6,254.9 L616.3,249.0 L615.2,245.0 L612.5,241.7 L609.2,239.3 L606.8,238.3 L604.0,239.0 L600.2,241.3 Z" fill="#2f7825" stroke="none"/>
<path d="M388.1,583.7 L385.4,585.6 L383.3,588.4 L382.3,592.0 L382.5,599.1 L383.7,606.9 L384.1,612.4 L386.4,618.1 L389.9,622.2 L393.5,624.5 L397.2,625.4 L401.2,624.2 L404.6,621.9 L406.0,619.2 L405.7,615.8 L404.1,610.2 L403.7,605.5 L405.3,597.4 L406.3,592.9 L406.0,589.7 L403.1,585.7 L397.9,582.6 L394.2,581.8 L391.4,582.0 L388.1,583.7 Z" fill="#2f7825" stroke="none"/>
<path d="M102.3,297.8 L98.3,302.6 L95.5,307.6 L94.5,311.7 L94.5,315.9 L95.0,318.5 L96.2,322.9 L99.3,327.9 L103.6,331.3 L108.3,332.8 L113.1,333.0 L117.5,331.7 L121.8,329.7 L125.4,326.8 L128.7,323.3 L131.2,319.0 L131.9,314.7 L132.3,310.8 L131.4,304.6 L129.6,300.5 L126.6,295.7 L123.4,293.1 L119.7,292.0 L116.5,291.7 L113.4,292.0 L109.0,293.6 L105.4,295.6 L102.3,297.8 Z" fill="#2f7825" stroke="none"/>
<path d="M282.2,211.2 L280.5,216.1 L280.9,219.1 L282.8,221.4 L285.2,222.7 L289.2,222.9 L292.0,222.2 L296.9,220.4 L322.2,211.9 L325.0,210.2 L327.1,208.2 L328.1,206.1 L328.8,203.2 L328.6,199.8 L327.7,196.9 L325.3,194.8 L322.4,192.2 L320.5,189.3 L319.0,185.5 L316.7,183.2 L314.2,181.4 L311.0,180.9 L308.2,180.9 L305.2,181.9 L301.1,185.0 L285.9,204.3 L282.2,211.2 Z" fill="#2f7825" stroke="none"/>
<path d="M406.2,-2.9 L394.7,602.9" fill="none" stroke="#ffd64a" stroke-width="5" stroke-linecap="round" stroke-linejoin="round" opacity="0.95"/>
</svg>