<svg xmlns="http://www.w3.org/2000/svg" viewBox="0 0 800 315" preserveAspectRatio="xMidYMid meet">
<rect width="100%" height="100%" fill="#143018"/>
<path d="M534.4,-512.8 L533.6,-507.5 L534.7,-494.8 L533.7,-487.7 L530.0,-479.7 L516.3,-463.1 L500.6,-449.3 L492.2,-437.2 L488.1,-432.6 L473.8,-423.6 L444.7,-411.7 L426.7,-403.0 L415.1,-395.9 L407.7,-390.5 L397.1,-381.7 L385.1,-368.8 L380.5,-361.4 L376.9,-352.8 L375.1,-345.7 L373.0,-335.7 L372.6,-320.4 L371.4,-309.1 L367.0,-300.5 L349.0,-277.8 L342.5,-268.4 L336.1,-260.3 L331.0,-256.6 L323.3,-251.9 L320.7,-249.0 L324.1,-244.5 L328.7,-241.7 L326.2,-237.4 L323.7,-239.3 L320.3,-243.6 L317.0,-246.4 L314.2,-246.4 L305.6,-242.3 L291.5,-234.2 L274.7,-225.6 L247.7,-209.2 L239.3,-203.1 L231.3,-196.5 L216.9,-182.8 L211.5,-175.4 L208.6,-168.5 L206.2,-161.0 L206.0,-154.2 L208.0,-149.5 L214.5,-146.8 L225.4,-146.9 L237.1,-151.0 L246.9,-156.1 L254.3,-161.7 L260.1,-166.9 L268.7,-172.9 L276.7,-177.8 L292.3,-184.5 L302.2,-190.4 L310.2,-196.6 L323.7,-184.3 L310.8,-168.8 L302.1,-156.8 L298.5,-149.0 L290.8,-131.2 L298.3,-125.4 L300.2,-128.9 L302.0,-135.7 L308.4,-150.4 L323.9,-172.2 L331.5,-181.7 L337.9,-187.8 L345.8,-192.2 L353.2,-194.9 L381.8,-201.1 L387.7,-203.9 L391.4,-206.6 L400.8,-215.6 L401.3,-217.9 L400.9,-218.7 L399.1,-218.2 L394.8,-215.5 L386.7,-211.8 L371.1,-206.2 L341.4,-198.6 L336.7,-196.2 L330.4,-191.1 L324.0,-184.7 L310.6,-196.9 L317.7,-203.5 L329.3,-217.5 L334.4,-224.5 L335.5,-228.9 L334.8,-230.6 L327.3,-236.4 L329.7,-241.1 L337.5,-234.9 L340.2,-233.4 L345.2,-231.9 L356.3,-234.9 L364.0,-240.4 L375.3,-246.3 L380.2,-247.7 L386.4,-248.4 L391.2,-247.4 L395.6,-244.2 L400.2,-238.3 L404.3,-234.6 L408.8,-229.4 L413.2,-226.4 L421.3,-223.2 L445.5,-219.3 L452.0,-217.4 L457.8,-213.9 L469.3,-205.1 L472.9,-200.0 L480.9,-178.2 L483.4,-176.2 L487.6,-175.6 L493.4,-177.6 L522.4,-192.7 L531.5,-179.6 L511.6,-169.4 L493.9,-159.3 L478.3,-148.9 L473.2,-143.8 L469.5,-136.7 L468.9,-132.7 L469.1,-127.9 L470.1,-124.2 L472.0,-121.9 L474.7,-119.9 L479.1,-118.1 L484.9,-117.4 L494.6,-118.0 L519.6,-122.9 L526.2,-125.1 L533.3,-130.3 L551.6,-146.8 L556.2,-144.0 L545.6,-135.3 L525.6,-113.5 L514.2,-105.5 L509.2,-99.5 L509.4,-98.5 L519.4,-101.3 L524.2,-103.0 L532.6,-108.2 L539.6,-116.0 L542.8,-120.7 L551.6,-131.6 L557.2,-136.4 L571.7,-146.0 L585.2,-153.0 L589.1,-156.4 L595.8,-165.4 L598.5,-170.0 L599.8,-174.4 L599.9,-180.4 L599.3,-182.1 L598.1,-182.7 L595.1,-181.2 L585.2,-168.2 L580.8,-163.3 L562.0,-148.2 L556.6,-144.5 L552.1,-147.4 L571.0,-161.9 L582.7,-174.1 L592.5,-186.8 L594.3,-190.3 L594.9,-193.2 L594.2,-196.3 L592.8,-199.0 L590.2,-201.4 L586.8,-203.3 L582.6,-203.8 L578.3,-202.8 L532.3,-179.7 L523.0,-193.0 L532.3,-197.4 L539.6,-201.6 L545.0,-204.9 L546.0,-206.6 L538.0,-211.2 L526.2,-219.3 L523.4,-219.8 L520.0,-218.8 L516.4,-218.8 L514.2,-219.9 L512.0,-221.5 L508.6,-227.1 L508.7,-229.1 L510.5,-231.3 L517.5,-235.2 L520.5,-235.9 L523.8,-235.2 L527.0,-231.2 L528.9,-225.8 L527.7,-224.3 L525.9,-223.3 L526.6,-221.3 L529.3,-220.3 L547.3,-208.8 L549.4,-208.1 L552.3,-208.4 L563.8,-214.7 L578.0,-220.9 L594.1,-227.1 L616.1,-233.5 L627.5,-235.6 L628.3,-231.9 L622.1,-225.5 L620.2,-222.6 L618.9,-219.5 L617.4,-208.9 L617.7,-206.0 L618.9,-203.8 L621.1,-200.7 L625.0,-197.6 L648.4,-188.4 L660.1,-185.1 L685.7,-178.9 L686.5,-176.6 L686.6,-172.2 L687.7,-168.3 L690.5,-165.9 L692.0,-162.0 L691.3,-156.0 L692.4,-150.5 L700.2,-125.1 L700.7,-119.9 L699.8,-114.4 L697.1,-109.8 L693.1,-105.1 L678.9,-85.2 L673.4,-79.4 L662.8,-71.4 L656.9,-68.9 L648.8,-68.1 L637.1,-67.7 L616.0,-65.5 L588.3,-60.7 L547.6,-49.3 L538.8,-46.1 L524.2,-39.8 L526.0,-34.6 L528.5,-30.6 L532.5,-27.8 L536.2,-26.3 L542.9,-25.4 L565.2,-23.7 L575.1,-24.0 L584.6,-24.5 L593.7,-26.5 L619.1,-33.9 L626.0,-35.3 L657.7,-33.5 L665.4,-34.4 L693.2,-39.8 L697.0,-39.8 L697.3,-31.0 L698.1,-25.0 L701.4,-12.9 L706.0,-2.0 L712.8,5.8 L715.3,11.5 L728.4,18.2 L741.7,28.0 L748.7,33.6 L751.6,36.8 L758.2,41.7 L772.3,49.5 L774.2,67.3 L775.5,84.4 L777.6,98.3 L776.6,104.9 L772.6,109.3 L767.1,113.8 L759.9,117.9 L742.5,125.4 L726.6,131.5 L705.7,138.5 L697.4,139.6 L688.8,142.3 L679.3,147.5 L671.6,148.4 L667.9,144.7 L664.0,134.2 L658.9,131.1 L653.3,129.8 L640.5,132.7 L619.7,138.5 L569.0,156.5 L557.7,161.4 L547.8,168.0 L528.3,174.4 L517.5,177.3 L508.6,187.6 L499.7,195.0 L487.7,206.7 L446.8,219.0 L417.4,227.1 L403.8,224.0 L385.8,226.3 L367.8,230.7 L344.4,233.5 L272.5,246.7 L267.9,253.3 L265.4,258.5 L265.3,263.6 L267.2,272.9 L219.6,280.2 L204.8,281.5 L186.8,286.8 L164.3,262.1 L174.8,254.9 L181.2,248.9 L183.2,242.9 L183.2,235.8 L180.6,231.1 L178.0,228.5 L168.3,224.5 L143.8,229.1 L144.7,235.9 L143.7,238.8 L142.6,239.9 L138.9,241.9 L136.9,242.4 L118.5,245.7 L117.1,245.8 L107.9,243.8 L106.6,242.6 L89.1,247.0 L83.0,249.4 L64.0,254.1 L61.1,242.6 L71.9,224.8 L71.7,217.3 L64.6,194.0 L59.3,178.3 L49.4,141.9 L41.2,115.8 L36.1,108.9 L30.5,106.1 L23.8,104.4 L12.1,106.4 L5.5,104.0 L-3.2,98.7 L-7.4,94.5 L-10.8,78.6 L20.1,58.6 L45.8,3.7 L45.8,6.3 L46.6,8.4 L52.5,16.2 L62.0,-3.6 L66.8,-0.9 L73.2,2.8 L64.3,21.9 L70.9,22.4 L77.9,21.0 L80.4,19.0 L82.7,16.2 L88.3,7.8 L89.6,4.0 L89.1,0.6 L87.1,-1.9 L75.4,-9.6 L80.4,-17.3 L83.2,-15.5 L88.0,-12.8 L92.5,-11.5 L96.8,-11.8 L101.8,-13.1 L105.7,-16.0 L108.8,-20.3 L111.4,-25.6 L114.6,-35.4 L114.8,-42.6 L115.7,-50.5 L119.1,-61.9 L139.2,-55.6 L139.8,-52.8 L142.1,-47.1 L146.5,-41.8 L150.4,-38.1 L155.7,-34.9 L160.3,-32.9 L165.6,-31.4 L171.5,-30.4 L176.7,-30.5 L184.5,-32.2 L190.0,-35.6 L191.7,-37.5 L192.0,-39.3 L248.3,-49.2 L250.3,-47.4 L252.1,-47.6 L254.1,-48.7 L255.8,-50.7 L257.1,-53.3 L258.0,-56.2 L259.8,-72.6 L263.6,-81.1 L277.3,-101.0 L290.1,-116.2 L294.9,-121.2 L287.9,-126.9 L282.9,-119.9 L277.0,-112.8 L264.4,-96.1 L258.3,-86.9 L254.0,-78.9 L247.8,-61.2 L247.1,-54.3 L248.0,-49.6 L192.0,-39.9 L191.4,-42.9 L190.0,-44.4 L187.6,-45.5 L183.2,-46.3 L168.9,-47.0 L165.3,-47.6 L157.9,-51.1 L155.1,-54.2 L147.7,-75.4 L145.6,-78.6 L143.5,-79.4 L141.3,-79.1 L139.4,-77.2 L137.9,-73.2 L137.7,-62.8 L139.0,-56.3 L119.4,-62.6 L124.5,-73.4 L129.7,-82.7 L130.0,-84.9 L128.7,-86.2 L125.5,-86.9 L116.7,-92.1 L114.8,-93.4 L113.3,-93.4 L111.8,-92.3 L91.0,-65.1 L85.4,-71.8 L91.1,-77.7 L100.2,-88.7 L115.9,-111.7 L132.7,-144.8 L145.2,-173.0 L148.9,-183.0 L149.2,-187.7 L148.9,-193.5 L147.2,-197.7 L146.6,-202.4 L151.7,-215.3 L152.4,-219.8 L151.7,-225.1 L149.1,-227.8 L144.8,-228.4 L139.5,-227.1 L136.3,-223.8 L124.2,-204.8 L121.9,-199.5 L120.5,-193.8 L116.7,-189.2 L115.5,-184.6 L110.6,-144.6 L101.2,-120.6 L88.9,-112.9 L81.7,-110.7 L77.3,-110.2 L73.1,-110.5 L70.5,-111.1 L67.4,-112.7 L65.5,-114.7 L59.6,-119.9 L56.9,-129.8 L55.5,-140.0 L58.8,-149.9 L56.6,-151.0 L54.1,-151.0 L51.8,-150.0 L50.1,-147.6 L49.1,-143.4 L48.5,-135.8 L47.6,-107.1 L36.3,-107.9 L38.1,-136.4 L36.8,-152.0 L35.4,-201.0 L34.6,-209.1 L32.5,-210.1 L30.9,-209.2 L30.2,-207.6 L30.4,-121.6 L30.8,-111.1 L31.9,-105.0 L34.9,-97.6 L43.4,-80.5 L52.7,-64.0 L56.5,-61.5 L61.6,-60.5 L67.6,-61.5 L73.5,-64.1 L84.8,-71.1 L90.4,-64.3 L78.5,-49.0 L71.4,-37.6 L68.7,-30.3 L68.8,-26.4 L71.4,-22.6 L76.1,-19.7 L78.3,-18.5 L73.2,-10.8 L61.2,-20.7 L58.7,-21.7 L56.7,-20.9 L50.6,-10.4 L46.6,-0.9 L45.8,2.6 L19.9,58.4 L-10.9,78.2 L-13.4,74.7 L-17.1,72.9 L-27.8,72.6 L-35.7,75.0 L-38.7,58.5 L-58.8,62.3 L-67.9,35.8 L-68.6,30.6 L-62.1,27.8 L-63.2,1.7 L-61.3,-11.1 L-58.7,-21.4 L-58.5,-27.0 L-60.1,-32.5 L-64.9,-38.4 L-70.6,-73.5 L-72.0,-92.9 L-70.5,-120.1 L-71.3,-129.4 L-72.8,-137.8 L-77.1,-144.0 L-84.2,-147.3 L-99.0,-147.3 L-105.5,-147.8 L-106.5,-157.9 L-103.6,-158.1 L-103.3,-167.0 L-86.1,-169.7 L-82.2,-168.3 L-77.2,-169.2 L-72.5,-170.9 L-68.0,-176.1 L-66.2,-182.3 L-66.0,-188.2 L-67.7,-203.9 L-70.2,-218.2 L-73.5,-230.2 L-79.3,-242.5 L-80.7,-257.5 L-82.7,-267.0 L-82.9,-274.1 L-78.1,-282.1 L-79.6,-298.2 L-83.3,-302.3 L-87.5,-305.1 L-80.3,-333.2 L-74.5,-331.5 L-71.6,-339.4 L-71.6,-350.4 L-68.0,-364.3 L-60.6,-388.9 L-53.4,-399.5 L-47.0,-401.4 L-41.5,-405.7 L-36.2,-416.2 L-29.3,-436.8 L-27.4,-450.9 L-33.3,-482.3 L-28.8,-497.3 L-36.2,-508.4 L-38.6,-516.7 L-49.4,-519.4 L-59.9,-521.0 L-72.6,-524.6 L-78.3,-529.2 L-89.4,-529.0 L-94.1,-524.6 L-101.1,-524.2 L-133.1,-523.9 L-135.3,-527.0 L-139.6,-529.4 L-157.1,-535.4 L-162.1,-533.3 L-168.3,-534.4 L-189.1,-545.9 L-203.7,-557.7 L-195.4,-566.0 L-195.6,-572.3 L-199.7,-577.3 L-203.5,-580.2 L-209.7,-581.4 L-213.8,-580.9 L-222.4,-577.5 L-232.0,-583.3 L-243.0,-595.2 L-262.2,-619.8 L-279.5,-649.7 L-274.7,-655.2 L-271.3,-661.0 L-269.9,-665.5 L-269.2,-674.8 L-271.1,-681.8 L-274.2,-686.6 L-277.8,-688.5 L-282.1,-689.4 L-289.7,-689.9 L-298.4,-702.1 L-297.4,-710.7 L-292.1,-719.3 L-281.8,-731.5 L-274.2,-739.7 L-271.3,-741.4 L-247.9,-750.9 L-243.8,-754.8 L-243.3,-759.5 L-245.8,-766.7 L-255.2,-775.2 L-238.5,-783.6 L-214.3,-757.7 L-207.0,-753.7 L-201.4,-754.0 L-197.4,-756.7 L-187.8,-749.4 L-187.3,-742.4 L-185.5,-735.9 L-179.8,-728.2 L-168.5,-715.9 L-156.4,-703.9 L-146.4,-698.5 L-116.9,-684.4 L-102.4,-671.3 L-91.5,-659.0 L-79.4,-647.4 L-68.2,-638.7 L-55.9,-630.3 L-48.7,-627.1 L-41.0,-626.2 L-30.8,-627.1 L-14.3,-627.7 L-8.5,-625.9 L-2.3,-622.2 L6.1,-618.8 L12.3,-620.0 L16.8,-622.1 L21.8,-627.4 L25.2,-636.9 L27.7,-651.4 L29.0,-669.6 L27.5,-701.3 L26.1,-714.7 L23.4,-719.9 L20.2,-724.5 L14.9,-727.8 L5.1,-732.0 L-1.3,-737.4 L7.4,-740.4 L31.8,-742.1 L40.3,-742.1 L45.1,-742.7 L47.1,-746.2 L46.8,-771.3 L42.0,-771.7 L32.3,-771.1 L29.4,-770.1 L21.3,-764.2 L9.9,-764.1 L7.9,-763.1 L6.2,-759.2 L4.5,-748.7 L4.6,-742.8 L5.2,-741.5 L6.7,-740.7 L-1.5,-737.8 L-12.5,-747.5 L-22.1,-750.7 L-37.9,-752.6 L-52.9,-752.3 L-69.8,-750.8 L-83.0,-748.4 L-116.3,-738.2 L-123.6,-737.7 L-133.2,-740.0 L-156.5,-753.0 L-168.1,-758.2 L-177.0,-759.4 L-183.7,-756.3 L-187.4,-750.6 L-196.4,-757.5 L-194.4,-764.2 L-195.3,-771.8 L-197.3,-777.6 L-200.3,-783.2 L-208.5,-791.5 L-223.5,-803.3 L-241.9,-815.8 L-246.3,-818.1 L-251.2,-819.7 L-254.7,-819.7 L-258.0,-818.8 L-260.0,-817.4 L-260.9,-814.8 L-259.1,-809.4 L-254.4,-800.8 L-247.2,-792.1 L-238.9,-784.5 L-256.1,-776.0 L-288.6,-799.3 L-303.2,-811.9 L-308.9,-820.1 L-316.3,-832.1 L-319.9,-834.9 L-318.9,-843.1 L-315.1,-847.4 L-310.1,-849.3 L-304.3,-850.2 L-298.9,-848.3 L-293.3,-847.4 L-257.0,-846.4 L-236.6,-844.0 L-226.8,-843.5 L-219.9,-846.1 L-207.0,-853.0 L-196.7,-859.5 L-186.1,-864.3 L-178.0,-865.7 L-170.6,-866.2 L-156.0,-863.1 L-148.1,-863.1 L-128.2,-869.5 L-117.4,-873.6 L-106.2,-876.0 L-90.3,-881.7 L-61.4,-890.4 L-59.0,-890.1 L-51.8,-886.8 L-49.2,-880.3 L-45.3,-876.0 L-41.5,-872.9 L-36.7,-870.5 L-20.4,-870.0 L10.0,-870.7 L33.4,-870.0 L2.8,-864.0 L-19.2,-860.9 L-31.4,-858.3 L-35.3,-856.1 L-37.9,-853.0 L-37.2,-839.1 L-34.1,-807.8 L-34.3,-788.5 L-32.4,-781.6 L-28.2,-776.2 L-21.1,-773.4 L-11.6,-772.5 L-0.8,-773.9 L20.3,-781.1 L29.3,-788.8 L38.2,-800.7 L48.0,-812.9 L54.5,-822.0 L59.7,-828.0 L65.3,-837.1 L69.8,-842.1 L74.6,-845.7 L80.3,-847.2 L86.1,-846.4 L93.0,-843.8 L98.8,-844.3 L122.0,-851.8 L124.7,-853.7 L125.0,-857.1 L122.5,-859.8 L131.9,-862.2 L133.5,-856.5 L135.7,-854.8 L140.0,-853.0 L144.2,-853.2 L149.0,-850.7 L155.0,-842.9 L156.2,-825.6 L156.3,-799.2 L158.7,-778.8 L160.5,-775.2 L162.7,-775.2 L164.6,-776.6 L166.5,-758.9 L161.9,-756.6 L160.3,-754.4 L159.8,-747.6 L161.1,-744.1 L162.7,-742.5 L165.5,-743.2 L167.7,-744.7 L170.7,-734.2 L167.9,-734.6 L165.8,-734.2 L164.2,-732.1 L159.5,-710.0 L151.1,-679.1 L149.4,-664.7 L149.1,-646.7 L150.2,-623.3 L154.8,-583.5 L154.9,-560.8 L150.3,-513.9 L147.2,-495.4 L144.3,-488.6 L139.3,-483.0 L119.7,-464.6 L117.2,-462.0 L114.3,-457.8 L112.6,-451.1 L107.2,-421.1 L106.0,-410.2 L106.0,-405.3 L107.7,-402.0 L111.0,-400.2 L117.5,-398.5 L124.1,-400.1 L131.9,-405.6 L166.9,-451.5 L186.2,-470.3 L194.4,-477.0 L203.2,-483.0 L210.0,-490.7 L234.0,-521.7 L237.3,-534.7 L241.4,-540.5 L252.8,-549.2 L275.0,-568.3 L284.7,-569.9 L295.5,-570.8 L292.7,-566.5 L283.6,-566.7 L281.2,-563.1 L279.8,-558.8 L270.8,-545.9 L266.8,-539.3 L251.0,-524.6 L235.3,-503.3 L227.4,-491.7 L224.0,-485.7 L226.3,-481.2 L234.0,-477.8 L258.5,-459.2 L265.7,-449.5 L277.9,-427.3 L284.2,-423.2 L288.9,-423.6 L297.0,-429.2 L316.1,-445.1 L345.3,-468.5 L358.1,-482.4 L378.4,-506.1 L385.4,-515.9 L390.3,-524.3 L395.6,-532.2 L403.8,-540.5 L404.0,-544.0 L399.9,-550.8 L384.4,-570.7 L378.7,-581.2 L371.5,-606.4 L362.0,-623.6 L359.6,-626.6 L356.3,-632.5 L354.4,-638.0 L397.5,-652.4 L412.1,-652.1 L422.5,-653.6 L441.5,-658.1 L457.4,-660.9 L483.0,-664.4 L492.8,-666.9 L499.9,-670.7 L551.7,-707.1 L553.2,-705.8 L612.6,-750.8 L621.7,-758.4 L628.6,-761.7 L633.6,-761.6 L629.4,-757.3 L601.7,-737.3 L610.5,-726.1 L607.8,-724.1 L615.5,-713.6 L620.7,-717.3 L623.5,-720.5 L627.0,-721.5 L630.0,-719.9 L632.2,-717.2 L634.6,-709.0 L634.1,-699.8 L634.4,-694.8 L636.3,-690.8 L640.3,-687.0 L645.0,-683.9 L650.9,-681.3 L659.1,-671.4 L661.1,-665.9 L660.6,-654.3 L657.6,-643.9 L657.5,-640.4 L661.3,-636.2 L658.6,-630.0 L653.1,-625.3 L636.5,-613.0 L622.1,-598.5 L615.5,-593.9 L608.1,-587.4 L601.1,-578.4 L592.4,-564.5 L586.3,-549.5 L584.2,-540.8 L580.9,-534.0 L576.2,-530.7 L565.9,-527.7 L552.2,-528.7 L545.1,-526.5 L539.5,-524.1 L536.4,-522.4 L534.3,-519.2 L534.4,-512.8 Z" fill="#2b5a2a" stroke="none"/>
<path d="M69.0,246.0 L578.4,125.2 L731.0,69.1" fill="none" stroke="#4e8b39" stroke-width="53.6" stroke-linecap="round" stroke-linejoin="round" opacity="0.85"/>
<path d="M190.8,7.0 L189.8,1.5 L192.0,-3.5 L197.5,-7.7 L217.4,-15.0 L238.0,-21.5 L278.2,-33.4 L288.0,-36.9 L310.2,-42.7 L338.3,-51.3 L365.2,-56.7 L378.3,-59.8 L389.7,-64.0 L408.0,-69.8 L419.2,-72.5 L427.2,-72.1 L436.2,-72.7 L443.6,-75.6 L455.3,-84.1 L460.6,-89.1 L466.2,-91.8 L473.6,-94.3 L487.3,-97.0 L495.4,-97.5 L514.3,-96.0 L527.7,-99.9 L547.2,-107.5 L555.0,-109.8 L564.2,-115.0 L579.8,-131.2 L589.1,-137.2 L596.0,-137.8 L601.3,-137.3 L613.1,-134.4 L620.7,-133.6 L625.4,-134.8 L631.2,-115.3 L626.9,-113.6 L622.9,-109.3 L618.5,-103.0 L615.7,-97.5 L612.9,-95.5 L585.4,-87.2 L561.9,-80.8 L544.8,-74.8 L519.3,-66.7 L494.5,-59.9 L472.7,-53.2 L456.0,-47.5 L430.1,-41.8 L402.8,-33.5 L383.5,-26.9 L366.6,-20.5 L334.9,-5.9 L326.7,-1.3 L308.0,4.4 L285.4,9.5 L242.1,17.4 L204.8,26.4 L200.9,25.2 L196.7,21.8 L192.1,9.7 L190.8,7.0 Z" fill="#5a9540" stroke="none"/>
<path d="M56.3,18.0 L35.4,49.4 L40.9,47.8 L59.2,19.4 L56.3,18.0 Z" fill="#5a9540" stroke="none"/>
<path d="M264.2,199.5 L264.4,189.9 L265.8,184.3 L271.4,179.2 L278.9,176.8 L289.4,174.4 L311.4,171.4 L333.7,167.1 L358.3,161.2 L379.3,156.9 L399.7,151.3 L413.6,148.9 L430.5,147.0 L449.3,145.6 L464.6,142.2 L474.5,139.5 L490.4,132.2 L504.6,127.1 L518.5,123.4 L543.8,118.0 L573.5,109.4 L599.0,100.8 L626.4,92.8 L652.4,83.4 L667.5,79.4 L682.2,76.4 L691.6,74.0 L701.6,68.0 L700.6,69.9 L699.1,72.1 L698.4,75.0 L698.5,80.1 L699.8,83.9 L700.6,87.2 L701.7,91.0 L702.7,93.3 L703.3,94.3 L705.4,97.4 L707.0,98.5 L708.8,98.9 L713.3,97.9 L717.4,97.0 L690.5,107.6 L680.1,112.6 L669.3,115.9 L636.1,124.4 L619.4,129.3 L597.2,136.5 L568.2,147.8 L559.3,154.8 L551.8,158.3 L537.9,159.1 L514.5,157.5 L504.0,159.9 L496.8,165.0 L488.2,170.1 L461.4,182.9 L453.6,184.8 L447.7,185.4 L433.5,185.1 L421.7,188.0 L396.5,199.6 L379.0,206.3 L346.3,212.7 L330.2,215.1 L316.5,214.1 L301.2,215.4 L283.2,218.4 L273.6,214.9 L267.9,208.2 L264.9,202.4 L264.2,199.5 Z" fill="#5a9540" stroke="none"/>
<path d="M9.4,-1.0 L11.2,2.7 L-16.5,4.8 L-14.9,1.6 L-14.5,-4.2 L-14.5,-10.2 L-16.3,-16.5 L-19.3,-21.1 L-32.5,-31.2 L-41.2,-39.3 L-45.1,-48.0 L-50.6,-62.7 L-50.6,-67.0 L-45.8,-92.8 L-36.8,-153.2 L-28.0,-190.9 L-27.5,-198.3 L-28.5,-222.7 L-32.0,-258.4 L-34.1,-271.6 L-34.5,-277.7 L-34.2,-282.0 L-32.9,-286.3 L-30.2,-289.9 L-19.6,-296.6 L-16.1,-300.3 L-14.1,-304.2 L-14.1,-307.8 L-15.5,-312.9 L-17.5,-317.0 L-32.7,-340.9 L-38.5,-351.8 L-43.3,-362.4 L-45.5,-370.6 L-46.3,-377.7 L-44.7,-382.8 L-41.8,-387.3 L-35.9,-391.2 L-30.2,-393.7 L-25.1,-394.6 L-13.2,-394.7 L-10.6,-395.1 L-4.8,-396.2 L0.1,-395.8 L4.3,-393.6 L8.0,-390.4 L11.0,-384.9 L13.5,-375.6 L18.1,-348.2 L19.2,-329.8 L23.5,-289.8 L24.0,-276.7 L22.5,-272.4 L13.5,-264.8 L10.0,-258.7 L6.4,-247.6 L5.2,-240.6 L5.1,-225.1 L13.0,-172.3 L13.5,-145.7 L12.9,-135.5 L11.0,-127.1 L8.4,-119.3 L5.5,-115.1 L-1.9,-109.6 L-8.4,-102.4 L-14.3,-94.6 L-22.0,-82.5 L-25.1,-73.6 L-23.9,-65.6 L-21.8,-62.0 L-17.6,-59.8 L-2.8,-55.8 L2.3,-53.5 L8.9,-49.3 L11.9,-44.8 L14.1,-40.5 L15.8,-35.6 L16.0,-31.1 L15.6,-26.3 L9.6,-7.7 L9.4,-1.0 Z" fill="#5a9540" stroke="none"/>
<path d="M142.2,126.9 L148.2,127.5 L154.7,125.2 L161.2,117.5 L164.8,108.3 L165.0,100.7 L167.9,94.3 L173.8,88.8 L184.6,84.2 L268.6,70.4 L292.0,67.9 L340.1,67.3 L392.0,63.5 L421.9,59.7 L433.9,56.6 L451.9,50.1 L475.9,42.8 L501.1,35.9 L546.3,26.5 L587.9,15.8 L594.2,17.0 L598.6,19.6 L600.9,22.6 L601.9,24.6 L602.8,30.2 L602.8,35.9 L599.6,41.1 L595.4,45.5 L584.3,49.7 L525.3,67.3 L499.0,73.3 L491.4,76.5 L474.1,86.5 L450.0,91.5 L430.7,97.8 L415.9,102.0 L404.2,104.5 L397.1,104.7 L366.7,98.9 L360.4,99.1 L354.6,100.1 L342.0,107.7 L312.5,123.8 L305.2,126.7 L296.6,127.1 L287.4,126.7 L280.5,127.1 L269.6,130.2 L265.0,129.8 L262.5,127.5 L261.2,124.0 L260.8,119.0 L258.3,110.4 L255.0,105.1 L249.3,102.6 L244.9,101.8 L238.8,101.8 L233.4,104.1 L230.3,109.1 L231.3,122.3 L230.3,128.6 L227.3,136.1 L223.4,142.6 L220.2,146.2 L216.7,148.0 L211.4,148.5 L192.8,146.8 L179.0,147.0 L168.3,148.9 L151.6,149.9 L150.1,141.2 L148.4,136.5 L147.6,132.8 L145.9,130.3 L142.2,126.9 Z" fill="#5a9540" stroke="none"/>
<path d="M427.0,194.2 L425.3,194.8 L423.6,196.2 L423.2,198.4 L423.9,209.0 L424.8,211.6 L425.7,212.5 L427.7,213.4 L431.8,213.6 L434.7,213.3 L437.3,211.6 L438.1,209.5 L436.2,204.1 L435.5,200.8 L434.3,198.6 L431.4,196.6 L429.5,194.1 L427.0,194.2 Z" fill="#e7d6a3" stroke="none"/>
<path d="M425.4,135.0 L420.2,135.9 L418.1,135.0 L416.2,135.4 L415.2,137.3 L415.3,140.7 L417.3,143.4 L419.3,143.2 L420.9,142.1 L424.9,142.6 L426.2,142.5 L427.3,140.8 L427.3,137.8 L426.5,136.2 L425.4,135.0 Z" fill="#e7d6a3" stroke="none"/>
<path d="M455.4,131.4 L454.4,131.6 L452.7,132.6 L450.6,133.3 L448.5,133.2 L446.7,133.7 L445.2,134.8 L444.7,136.3 L444.8,137.6 L445.3,139.0 L446.3,140.3 L447.8,141.1 L448.7,141.1 L451.4,140.1 L455.1,139.9 L456.5,140.2 L457.4,139.9 L458.4,139.1 L458.7,135.8 L458.4,133.8 L457.2,132.3 L455.4,131.4 Z" fill="#e7d6a3" stroke="none"/>
<path d="M475.1,132.5 L473.9,132.2 L472.5,129.3 L472.2,127.0 L472.6,126.2 L473.4,125.4 L477.1,125.0 L479.8,123.6 L481.4,123.5 L482.5,124.0 L483.6,128.7 L482.7,130.0 L481.2,130.7 L477.9,131.5 L476.3,132.4 L475.1,132.5 Z" fill="#e7d6a3" stroke="none"/>
<path d="M498.9,122.5 L497.9,121.9 L496.9,118.1 L497.8,116.3 L499.3,115.7 L501.9,115.9 L503.3,115.4 L504.2,114.7 L505.9,113.9 L507.1,114.6 L508.3,116.5 L508.7,119.8 L507.8,121.0 L506.2,121.4 L502.7,121.5 L500.7,122.3 L498.9,122.5 Z" fill="#e7d6a3" stroke="none"/>
<path d="M528.5,116.2 L527.0,115.5 L524.9,112.2 L525.4,110.0 L527.0,109.2 L529.7,108.7 L532.9,107.7 L534.3,107.9 L535.6,109.5 L536.4,111.4 L536.6,113.3 L535.6,114.6 L534.6,115.1 L532.3,115.0 L528.5,116.2 Z" fill="#e7d6a3" stroke="none"/>
<path d="M503.4,188.5 L501.3,188.1 L500.2,187.2 L499.8,185.6 L500.4,183.0 L501.2,181.0 L501.2,178.3 L501.8,176.0 L501.7,168.8 L502.7,167.5 L504.2,166.9 L506.9,166.6 L509.9,167.8 L511.4,171.3 L513.7,173.0 L513.9,174.1 L513.7,175.9 L512.2,179.7 L510.5,181.8 L509.2,181.7 L508.1,182.2 L506.3,185.2 L506.1,187.3 L505.2,188.1 L503.4,188.5 Z" fill="#e7d6a3" stroke="none"/>
<path d="M480.8,182.0 L478.5,182.1 L476.3,182.9 L475.4,183.8 L474.5,185.4 L474.1,187.0 L474.8,189.1 L476.7,193.1 L478.5,194.6 L480.7,195.8 L482.0,195.7 L483.8,194.7 L485.2,193.3 L484.8,191.7 L485.8,187.7 L485.2,186.2 L481.8,183.5 L480.8,182.0 Z" fill="#e7d6a3" stroke="none"/>
<path d="M329.5,19.3 L327.9,16.7 L327.5,14.3 L328.9,11.9 L331.5,9.0 L334.5,4.7 L335.5,1.1 L337.1,-0.9 L339.3,-1.2 L341.2,-0.8 L341.9,3.7 L345.6,5.9 L346.5,7.3 L346.8,9.8 L345.6,13.0 L343.4,15.2 L340.1,16.6 L335.5,21.9 L333.5,21.9 L331.6,21.1 L329.5,19.3 Z" fill="#e7d6a3" stroke="none"/>
<path d="M359.3,-4.9 L358.3,-8.0 L359.3,-10.4 L361.6,-12.1 L364.8,-13.2 L367.9,-13.1 L370.3,-12.1 L371.8,-9.5 L371.2,-6.6 L369.5,-4.5 L366.8,-3.4 L364.3,-2.8 L361.2,-3.2 L359.3,-4.9 Z" fill="#e7d6a3" stroke="none"/>
<path d="M396.2,-19.3 L396.8,-22.4 L396.9,-25.0 L398.2,-26.9 L400.1,-27.8 L403.8,-27.2 L404.9,-25.6 L406.1,-22.8 L406.4,-18.5 L406.2,-16.2 L405.4,-14.6 L403.3,-13.9 L401.3,-13.8 L399.4,-14.3 L398.0,-15.2 L396.7,-16.4 L396.2,-19.3 Z" fill="#e7d6a3" stroke="none"/>
<path d="M19.8,27.2 L19.6,23.1 L20.1,20.7 L21.8,18.6 L24.8,17.9 L28.0,18.7 L28.7,20.6 L28.3,24.3 L26.4,28.7 L21.3,29.7 L20.3,29.3 L19.8,27.2 Z" fill="#e7d6a3" stroke="none"/>
<path d="M18.1,10.4 L18.4,6.4 L19.6,4.7 L22.0,3.3 L24.8,3.4 L26.6,4.6 L27.5,6.3 L27.5,8.7 L26.7,12.8 L25.3,13.8 L21.6,13.7 L18.8,12.0 L18.1,10.4 Z" fill="#e7d6a3" stroke="none"/>
<path d="M15.8,-1.7 L15.3,-3.5 L15.1,-6.3 L16.0,-9.5 L18.0,-11.4 L24.7,-11.5 L26.4,-11.0 L27.4,-9.8 L27.2,-8.1 L25.4,-2.4 L24.0,-1.1 L21.4,-1.1 L17.1,-0.6 L15.8,-1.7 Z" fill="#e7d6a3" stroke="none"/>
<path d="M21.5,-15.1 L19.4,-15.9 L18.4,-17.3 L18.7,-20.9 L19.7,-24.7 L20.7,-27.0 L22.3,-27.6 L25.9,-27.9 L27.6,-27.4 L28.4,-26.0 L28.9,-23.9 L27.4,-19.1 L27.6,-17.1 L27.3,-15.5 L25.5,-14.6 L23.8,-14.6 L21.5,-15.1 Z" fill="#e7d6a3" stroke="none"/>
<path d="M-34.8,6.0 L-35.6,1.4 L-35.2,-3.2 L-34.7,-5.3 L-32.8,-8.6 L-31.8,-14.4 L-30.7,-16.5 L-28.3,-17.9 L-25.8,-17.9 L-23.1,-17.1 L-21.7,-14.9 L-21.1,-10.8 L-20.3,-7.2 L-20.7,-3.3 L-21.6,-0.9 L-22.0,0.9 L-23.4,3.2 L-24.5,6.0 L-24.7,8.7 L-25.4,10.3 L-26.7,11.0 L-30.0,11.2 L-31.7,10.4 L-34.8,6.0 Z" fill="#e7d6a3" stroke="none"/>
<path d="M158.1,171.0 L156.7,167.5 L155.6,163.1 L154.2,158.9 L154.6,156.7 L155.9,155.5 L160.2,154.3 L166.1,154.1 L169.4,154.2 L171.1,155.6 L172.4,161.2 L174.3,165.1 L178.5,169.5 L180.6,170.6 L185.0,175.0 L186.2,177.5 L186.5,179.7 L184.9,181.8 L181.9,183.9 L179.4,184.6 L175.9,183.1 L172.0,179.8 L163.5,174.7 L158.1,171.0 Z" fill="#e7d6a3" stroke="none"/>
<path d="M182.1,167.9 L179.7,163.2 L178.1,158.6 L178.1,155.1 L179.7,152.9 L182.5,151.8 L185.7,151.8 L189.0,152.3 L192.3,153.2 L195.9,153.4 L197.8,154.1 L199.0,155.2 L200.2,157.6 L201.9,164.7 L201.0,168.5 L199.6,170.3 L190.6,173.9 L188.9,173.9 L186.8,171.9 L183.7,169.9 L182.1,167.9 Z" fill="#e7d6a3" stroke="none"/>
<path d="M143.6,118.5 L141.4,114.1 L138.9,110.3 L136.8,107.6 L133.3,104.7 L132.4,103.6 L132.8,101.7 L134.8,100.0 L136.6,99.3 L138.8,100.5 L141.8,104.0 L151.9,112.5 L155.0,114.4 L155.1,116.4 L154.0,119.1 L152.4,121.4 L149.7,122.9 L147.6,123.1 L145.9,122.9 L144.8,121.6 L143.6,118.5 Z" fill="#e7d6a3" stroke="none"/>
<path d="M126.1,98.4 L129.3,96.2 L132.7,94.8 L135.7,94.3 L139.9,95.5 L143.2,97.5 L145.7,99.4 L153.6,106.4 L156.7,107.4 L158.1,106.4 L158.7,102.8 L158.8,98.8 L157.6,96.4 L155.5,94.1 L150.5,91.5 L143.6,88.3 L139.4,87.1 L135.5,86.6 L131.7,87.1 L127.3,88.3 L124.5,89.6 L122.2,92.1 L121.7,96.0 L122.4,97.7 L123.4,98.7 L125.1,99.5 L126.1,98.4 Z" fill="#e7d6a3" stroke="none"/>
<path d="M232.8,148.7 L236.1,141.7 L237.3,138.1 L237.6,135.0 L238.9,133.4 L241.0,133.0 L245.1,134.9 L246.3,136.3 L245.8,138.0 L242.6,142.3 L241.2,144.8 L241.0,147.0 L241.3,149.1 L244.2,152.7 L244.4,154.5 L243.9,156.1 L240.7,158.2 L238.3,161.1 L236.4,161.5 L234.9,161.2 L234.0,160.3 L234.1,156.8 L233.1,154.8 L230.3,152.3 L229.6,151.2 L232.8,148.7 Z" fill="#e7d6a3" stroke="none"/>
<path d="M241.7,124.9 L242.1,122.2 L242.1,119.9 L240.5,115.9 L240.9,113.3 L242.0,110.9 L244.2,108.9 L246.8,107.6 L249.8,107.6 L251.8,108.4 L253.1,110.4 L254.9,117.7 L255.5,121.7 L255.5,125.1 L254.6,127.7 L252.4,129.4 L250.0,130.6 L248.0,131.1 L246.2,131.0 L244.3,130.2 L242.9,128.9 L241.7,124.9 Z" fill="#e7d6a3" stroke="none"/>
<path d="M256.5,152.5 L255.4,150.0 L253.5,148.4 L252.2,146.9 L251.7,145.1 L252.8,143.4 L254.7,142.9 L256.5,142.0 L259.8,139.4 L261.4,139.4 L262.9,140.5 L264.4,142.8 L265.1,145.7 L265.2,148.4 L265.0,150.2 L264.0,151.7 L259.4,153.9 L257.6,154.0 L256.5,152.5 Z" fill="#e7d6a3" stroke="none"/>
<path d="M276.9,149.1 L275.8,144.7 L275.8,141.9 L276.4,138.8 L277.3,136.4 L278.9,134.9 L281.5,133.9 L285.8,134.6 L290.0,134.0 L291.7,134.7 L293.0,136.6 L293.9,138.8 L292.2,142.3 L288.9,145.3 L285.8,147.8 L281.3,149.6 L278.5,150.0 L276.9,149.1 Z" fill="#e7d6a3" stroke="none"/>
<path d="M484.6,90.9 L485.8,87.8 L486.9,85.8 L488.5,84.6 L490.0,83.9 L492.9,84.5 L494.4,86.0 L494.7,88.3 L493.8,90.8 L492.5,92.5 L491.2,93.4 L487.1,94.3 L485.4,93.9 L484.2,93.1 L483.9,92.0 L484.6,90.9 Z" fill="#e7d6a3" stroke="none"/>
<path d="M504.0,88.3 L503.0,86.6 L503.1,84.6 L504.5,82.4 L507.2,80.6 L509.7,79.8 L512.1,80.8 L513.4,82.3 L514.2,83.8 L514.7,85.6 L512.9,87.3 L510.3,88.5 L507.7,89.2 L505.1,89.5 L504.0,88.3 Z" fill="#e7d6a3" stroke="none"/>
<path d="M677.3,68.3 L676.3,66.3 L676.6,63.9 L678.2,61.3 L679.9,59.3 L681.1,58.6 L683.2,59.3 L684.6,60.8 L685.1,62.0 L683.7,67.7 L682.8,68.6 L681.0,69.5 L678.8,69.5 L677.3,68.3 Z" fill="#e7d6a3" stroke="none"/>
<path d="M689.7,57.2 L688.3,56.1 L688.1,54.6 L689.2,51.6 L690.8,49.9 L693.3,48.7 L694.9,48.9 L696.2,50.2 L697.4,52.7 L697.9,55.6 L697.2,57.1 L694.6,58.4 L692.2,58.2 L689.7,57.2 Z" fill="#e7d6a3" stroke="none"/>
<path d="M424.4,-22.0 L423.4,-24.1 L422.6,-26.8 L421.0,-30.4 L421.4,-32.9 L423.2,-34.6 L425.8,-35.0 L428.0,-33.3 L430.8,-25.3 L430.5,-23.1 L429.5,-21.5 L427.8,-20.9 L426.0,-20.9 L424.4,-22.0 Z" fill="#e7d6a3" stroke="none"/>
<path d="M333.5,59.2 L332.0,56.8 L332.4,53.9 L332.3,51.0 L333.6,49.6 L336.9,48.7 L340.4,48.0 L342.7,48.0 L344.6,49.5 L346.7,52.7 L347.0,55.4 L346.2,57.5 L344.4,58.9 L341.7,58.8 L338.7,59.2 L335.0,60.1 L333.5,59.2 Z" fill="#e7d6a3" stroke="none"/>
<path d="M372.6,58.8 L376.0,59.7 L377.6,58.8 L378.9,56.0 L378.8,51.7 L377.2,48.5 L375.5,47.0 L373.4,46.4 L370.6,46.8 L366.8,48.1 L365.7,49.1 L365.9,55.1 L366.4,57.9 L367.1,59.3 L372.6,58.8 Z" fill="#e7d6a3" stroke="none"/>
<path d="M409.0,54.2 L407.4,50.6 L407.1,45.4 L408.1,42.8 L411.4,40.3 L414.0,39.3 L416.1,39.7 L417.2,41.1 L417.6,46.2 L417.2,52.2 L416.3,53.7 L414.7,54.7 L411.5,55.1 L409.0,54.2 Z" fill="#e7d6a3" stroke="none"/>
<path d="M423.0,51.2 L421.9,49.1 L421.4,46.2 L422.4,44.5 L421.2,36.7 L421.9,34.2 L424.3,33.0 L428.6,33.0 L431.1,33.4 L432.3,34.9 L432.3,37.5 L431.2,42.2 L431.2,48.4 L430.8,50.6 L429.7,52.1 L426.5,53.2 L423.9,52.6 L423.0,51.2 Z" fill="#e7d6a3" stroke="none"/>
<path d="M462.5,34.4 L461.2,31.3 L459.2,27.9 L459.9,24.6 L459.4,21.6 L458.2,18.8 L459.0,15.7 L462.7,12.3 L464.7,12.3 L467.1,12.8 L469.3,14.5 L470.0,16.3 L469.1,21.9 L469.6,24.8 L472.2,28.3 L472.0,30.8 L470.0,33.2 L466.5,35.0 L464.0,35.3 L462.5,34.4 Z" fill="#e7d6a3" stroke="none"/>
<path d="M132.4,214.0 L113.7,217.7 L118.5,245.7 L136.9,242.4 L132.4,214.0 Z" fill="#4f8a3e" stroke="none"/>
<path d="M769.0,-29.6 L712.7,-14.9 L713.8,-11.2 L714.6,-8.5 L715.5,-5.4 L771.1,-20.8 L769.0,-29.6 Z" fill="#4f8a3e" stroke="none"/>
<path d="M55.4,41.1 L56.9,47.1 L57.7,50.4 L59.4,57.3 L84.7,49.3 L79.9,33.4 L55.4,41.1 Z" fill="#4f8a3e" stroke="none"/>
<path d="M73.2,2.8 L69.1,0.4 L66.8,-0.9 L62.0,-3.6 L52.5,16.2 L56.3,18.0 L59.2,19.4 L64.3,21.9 L73.2,2.8 Z" fill="#4f8a3e" stroke="none"/>
<path d="M76.1,-19.7 L87.3,-37.7 L89.0,-36.7 L91.5,-35.2 L94.1,-33.6 L83.2,-15.5 L80.4,-17.3 L78.3,-18.5 L76.1,-19.7 Z" fill="#4f8a3e" stroke="none"/>
<path d="M93.7,-50.4 L96.4,-48.7 L99.0,-47.1 L102.2,-45.1 L109.8,-58.3 L106.1,-60.5 L104.0,-61.7 L101.2,-63.4 L93.7,-50.4 Z" fill="#4f8a3e" stroke="none"/>
<path d="M31.2,50.5 L34.2,63.6 L48.0,59.7 L46.0,53.4 L45.0,50.4 L44.0,47.0 L40.9,47.8 L35.4,49.4 L31.2,50.5 Z" fill="#4f8a3e" stroke="none"/>
<path d="M61.1,242.6 L80.2,238.3 L83.0,249.4 L64.0,254.1 L61.1,242.6 Z" fill="#4f8a3e" stroke="none"/>
<path d="M89.1,247.0 L88.3,244.1 L86.2,235.8 L104.0,231.6 L106.6,242.6 L89.1,247.0 Z" fill="#4f8a3e" stroke="none"/>
<path d="M142.7,221.2 L143.8,229.1 L168.3,224.5 L166.8,216.5 L142.7,221.2 Z" fill="#4f8a3e" stroke="none"/>
<path d="M730.7,53.3 L734.2,53.8 L738.2,55.3 L741.8,57.6 L743.9,60.5 L745.8,63.5 L746.5,66.7 L746.8,73.6 L746.3,79.2 L742.8,87.1 L739.0,90.2 L735.8,91.9 L732.2,93.1 L728.6,94.7 L717.4,97.0 L713.3,97.9 L708.8,98.9 L707.0,98.5 L705.4,97.4 L703.3,94.3 L702.7,93.3 L701.7,91.0 L700.6,87.2 L699.8,83.9 L698.5,80.1 L698.4,75.0 L699.1,72.1 L700.6,69.9 L701.6,68.0 L711.8,59.9 L719.5,56.0 L724.9,54.5 L730.7,53.3 Z" fill="#2f7825" stroke="none"/>
<path d="M-19.1,54.7 L-22.1,51.3 L-23.3,40.0 L-21.6,18.7 L-19.5,9.6 L-16.5,4.8 L11.2,2.7 L13.8,7.7 L13.6,15.0 L14.8,23.0 L16.4,37.2 L17.5,43.1 L17.5,46.9 L16.9,49.9 L15.4,52.1 L11.0,53.2 L-14.5,56.3 L-19.1,54.7 Z" fill="#2f7825" stroke="none"/>
<path d="M124.6,107.2 L59.5,115.4 L51.3,116.9 L50.7,120.4 L53.4,135.5 L55.7,146.0 L57.6,157.1 L59.9,164.6 L61.4,172.5 L64.1,174.6 L72.5,171.7 L98.8,164.0 L109.1,161.2 L124.6,156.4 L146.6,150.8 L151.6,149.9 L150.1,141.2 L148.4,136.5 L147.6,132.8 L145.9,130.3 L142.2,126.9 L138.8,125.0 L131.9,115.2 L130.2,111.9 L128.1,109.5 L124.6,107.2 Z" fill="#2f7825" stroke="none"/>
<path d="M69.0,246.0 L578.4,125.2 L731.0,69.1" fill="none" stroke="#ffd64a" stroke-width="3.5" stroke-linecap="round" stroke-linejoin="round" opacity="0.95"/>
</svg>