<svg xmlns="http://www.w3.org/2000/svg" viewBox="0 0 747 800" preserveAspectRatio="xMidYMid meet">
<rect width="100%" height="100%" fill="#143018"/>
<path d="M661.8,84.9 L226.0,459.7 L84.9,715.1" fill="none" stroke="#4e8b39" stroke-width="66.0" stroke-linecap="round" stroke-linejoin="round" opacity="0.85"/>
<path d="M-366.4,805.6 L-286.9,640.6 L-287.1,639.4 L-285.3,629.8 L-279.7,606.9 L-273.4,584.2 L-267.5,564.9 L-263.1,554.9 L-258.2,547.9 L-252.0,542.6 L-246.3,537.6 L-242.7,531.6 L-241.3,523.1 L-242.0,513.1 L-244.0,503.6 L-242.6,492.8 L-237.6,480.3 L-230.6,464.2 L-224.8,449.6 L-220.5,434.1 L-214.9,419.7 L-204.9,399.0 L-195.7,384.3 L-189.2,372.9 L-179.3,351.5 L-167.6,323.4 L-155.5,292.4 L-145.6,262.9 L-136.9,240.2 L-131.4,232.9 L-123.9,226.7 L-117.4,222.7 L-112.5,218.7 L-109.5,213.9 L-107.0,206.3 L-107.6,191.1 L-107.0,176.0 L-103.6,157.9 L-98.8,143.2 L-89.0,118.8 L-79.0,95.2 L-68.7,68.8 L-62.9,59.5 L-55.9,48.2 L-50.1,45.0 L-42.9,40.8 L-38.5,35.1 L-36.7,29.0 L-36.7,22.5 L-32.1,32.4 L-26.6,34.7 L-18.4,33.5 L-21.6,35.4 L-23.8,40.0 L-24.8,46.4 L-23.5,54.5 L-20.8,67.0 L-21.9,77.0 L-26.7,90.1 L-33.1,105.1 L-39.0,117.2 L-47.5,137.2 L-56.5,155.9 L-64.8,169.8 L-71.6,179.5 L-76.9,186.5 L-79.6,194.1 L-79.1,199.4 L-76.0,207.4 L-72.2,216.1 L-70.3,222.6 L-70.3,231.9 L-72.9,241.9 L-80.8,257.1 L-88.2,270.1 L-98.4,288.5 L-103.1,296.9 L-108.1,306.3 L-119.4,328.5 L-130.5,353.9 L-139.6,372.8 L-148.6,388.6 L-157.6,401.5 L-170.0,416.1 L-177.9,425.8 L-183.7,434.3 L-186.5,440.8 L-187.8,451.4 L-187.4,467.5 L-186.0,477.1 L-185.0,484.1 L-185.8,489.1 L-189.3,495.4 L-193.3,500.9 L-197.3,512.1 L-198.9,526.6 L-200.7,545.1 L-205.2,560.6 L-218.9,589.3 L-225.7,603.3 L-235.5,622.0 L-243.8,637.8 L-250.4,647.7 L-257.2,654.3 L-264.7,658.6 L-270.7,659.0 L-276.8,656.7 L-282.1,652.8 L-285.7,646.6 L-286.0,644.8 L-363.8,806.9 L-366.4,805.6 Z" fill="#5a9540" stroke="none"/>
<path d="M426.4,-53.5 L426.1,-61.8 L432.0,-62.6 L444.9,-66.6 L451.4,-71.3 L455.4,-76.5 L459.1,-87.3 L464.0,-91.5 L469.7,-94.4 L490.2,-98.5 L511.6,-102.0 L525.2,-104.1 L535.2,-105.8 L547.7,-108.6 L562.4,-111.4 L569.6,-112.7 L586.8,-117.6 L602.7,-121.6 L616.1,-123.8 L631.8,-125.3 L646.5,-126.3 L653.8,-127.5 L666.7,-132.5 L677.0,-138.2 L690.7,-147.7 L718.4,-164.8 L725.0,-168.0 L733.2,-169.1 L743.0,-167.6 L760.8,-164.7 L772.4,-163.4 L786.0,-161.9 L793.5,-160.9 L809.8,-156.0 L827.2,-149.1 L832.7,-146.3 L836.6,-141.3 L838.7,-135.9 L838.2,-128.7 L835.7,-122.9 L831.4,-118.8 L826.3,-116.5 L815.6,-113.8 L795.2,-111.3 L781.8,-108.7 L768.6,-106.1 L758.4,-105.3 L749.8,-108.2 L744.2,-112.1 L737.6,-115.1 L731.9,-115.5 L724.9,-114.5 L718.2,-112.6 L710.9,-109.9 L700.0,-105.7 L691.9,-102.2 L684.9,-99.2 L676.0,-97.2 L667.1,-95.7 L661.3,-95.8 L655.1,-98.2 L648.4,-100.1 L643.7,-100.4 L637.1,-99.2 L631.0,-96.7 L626.3,-93.6 L622.7,-89.3 L618.9,-84.5 L613.2,-78.2 L608.2,-75.3 L588.4,-70.1 L558.3,-62.2 L522.0,-52.1 L495.8,-45.7 L477.4,-41.5 L467.2,-41.1 L457.2,-43.8 L448.9,-47.8 L442.4,-49.8 L436.8,-50.4 L430.8,-49.7 L426.0,-48.3 L423.8,-46.9 L426.4,-53.5 Z" fill="#5a9540" stroke="none"/>
<path d="M-200.0,733.7 L-204.6,727.5 L-202.7,723.4 L-202.1,716.8 L-203.0,707.2 L-203.2,702.2 L-201.1,696.6 L-194.6,688.9 L-187.0,684.4 L-178.5,681.6 L-171.9,676.7 L-168.3,669.4 L-166.4,659.6 L-166.6,650.2 L-167.2,641.7 L-164.5,633.0 L-151.3,608.4 L-140.8,587.9 L-132.0,568.3 L-122.9,547.4 L-115.9,532.0 L-108.5,520.2 L-101.8,513.1 L-93.7,508.2 L-87.4,506.1 L-82.2,505.4 L-76.8,503.4 L-71.3,499.2 L-68.2,493.3 L-67.0,489.0 L-68.0,479.7 L-71.1,461.4 L-74.9,443.9 L-73.9,436.8 L-68.7,422.4 L-58.0,393.3 L-50.5,370.9 L-38.7,338.7 L-29.1,310.8 L-22.9,292.7 L-15.9,278.4 L-8.9,269.7 L4.5,260.0 L12.9,255.4 L19.5,254.1 L26.9,254.5 L31.4,257.2 L34.4,262.2 L35.4,269.1 L29.4,289.9 L23.4,310.0 L17.0,333.0 L14.1,344.1 L11.7,358.0 L6.5,374.7 L1.1,397.2 L-6.1,424.3 L-10.8,433.7 L-16.1,441.7 L-23.0,448.1 L-27.1,452.5 L-30.4,458.9 L-32.1,466.1 L-32.8,472.7 L-33.4,481.4 L-33.9,490.5 L-36.6,503.0 L-41.6,514.9 L-48.3,524.5 L-57.1,533.2 L-64.4,540.3 L-72.6,544.6 L-80.7,549.5 L-84.3,553.6 L-88.8,563.5 L-96.2,582.7 L-105.2,608.3 L-113.6,632.1 L-122.5,654.7 L-130.0,673.0 L-135.4,685.4 L-140.0,696.1 L-146.2,708.0 L-151.3,716.1 L-155.5,720.9 L-161.6,725.0 L-170.0,727.7 L-177.6,730.0 L-182.2,732.1 L-188.0,735.4 L-191.5,738.8 L-192.8,743.4 L-193.6,746.6 L-200.0,733.7 Z" fill="#5a9540" stroke="none"/>
<path d="M160.0,153.6 L152.0,155.2 L152.4,160.2 L151.9,166.2 L149.9,171.1 L147.0,174.9 L142.5,178.1 L137.3,181.1 L131.5,184.3 L128.2,188.9 L126.3,195.3 L125.2,206.2 L124.2,220.4 L123.0,235.2 L121.8,250.6 L120.0,262.2 L117.9,274.7 L115.5,284.8 L112.7,298.1 L109.6,315.3 L107.3,329.9 L106.7,343.9 L106.0,359.6 L106.1,369.0 L104.9,377.1 L102.3,385.5 L99.2,393.8 L94.7,403.4 L91.0,410.1 L87.1,413.8 L82.1,416.9 L76.3,419.8 L71.7,424.5 L66.4,433.4 L59.9,450.7 L53.5,465.8 L47.4,478.7 L40.0,493.4 L32.1,509.3 L25.8,522.8 L22.1,533.1 L19.6,544.3 L16.5,556.6 L13.3,568.1 L10.4,578.9 L8.0,593.0 L8.5,597.2 L11.9,602.5 L16.0,605.4 L20.0,607.5 L25.0,608.1 L32.6,608.2 L38.1,606.6 L42.9,603.5 L48.0,597.5 L54.2,586.9 L64.9,567.4 L70.9,552.2 L77.8,538.2 L85.5,524.0 L93.2,511.4 L100.6,499.8 L108.9,487.8 L116.8,475.8 L119.5,467.9 L120.3,457.9 L122.1,443.4 L124.3,434.8 L125.7,429.9 L128.6,419.0 L130.5,415.1 L133.9,409.4 L138.0,404.3 L141.1,400.9 L144.3,395.1 L145.5,390.5 L145.2,382.6 L144.0,374.1 L142.3,366.3 L140.9,357.6 L140.6,350.9 L141.8,347.4 L145.1,341.6 L147.7,337.1 L151.1,332.1 L154.8,325.4 L157.9,317.6 L159.7,310.2 L163.1,294.8 L166.2,283.5 L168.8,272.7 L171.6,265.3 L174.9,255.0 L178.6,243.7 L179.9,239.6 L180.3,234.6 L178.9,228.6 L177.8,224.3 L175.6,220.4 L173.9,216.0 L173.2,209.9 L172.6,203.5 L173.3,196.5 L175.1,187.5 L174.6,183.2 L172.9,178.8 L170.6,173.2 L168.7,166.4 L167.4,161.8 L167.3,157.2 L168.2,153.1 L169.7,149.6 L160.0,153.6 Z" fill="#5a9540" stroke="none"/>
<path d="M773.0,164.7 L764.3,167.0 L760.0,171.4 L756.2,177.7 L752.7,195.9 L748.8,214.6 L742.8,234.6 L735.1,259.0 L726.0,280.8 L716.8,296.7 L706.6,311.6 L692.5,327.2 L678.5,342.1 L669.2,355.0 L664.3,364.8 L661.7,375.5 L662.5,384.9 L666.8,393.1 L672.6,400.3 L680.5,405.3 L690.0,408.9 L697.7,407.1 L703.4,402.4 L709.1,396.0 L713.9,387.6 L714.7,377.3 L714.2,366.6 L713.7,359.3 L714.9,352.5 L717.0,346.9 L719.7,342.6 L723.0,339.5 L726.2,337.5 L730.5,335.5 L734.0,334.3 L739.2,332.0 L743.4,329.1 L750.6,321.8 L755.7,314.8 L761.1,307.2 L766.4,297.7 L771.0,285.9 L779.4,267.3 L785.8,248.1 L788.0,238.0 L790.7,227.5 L794.4,213.2 L798.2,201.0 L800.4,191.9 L799.9,183.8 L794.9,176.4 L786.7,170.4 L781.4,167.1 L777.3,165.4 L773.0,164.7 Z" fill="#5a9540" stroke="none"/>
<path d="M588.0,506.4 L587.6,511.5 L585.8,515.1 L582.4,518.7 L578.3,521.4 L575.5,522.0 L584.0,523.7 L590.3,526.9 L591.8,531.6 L592.0,534.2 L593.9,530.7 L597.3,526.9 L603.9,523.1 L610.6,519.7 L616.5,516.5 L625.3,509.1 L631.6,502.3 L637.9,495.2 L642.6,488.4 L647.9,478.9 L652.6,469.7 L654.5,462.7 L655.0,454.9 L654.1,451.7 L651.2,448.4 L645.3,444.8 L639.2,441.7 L633.5,440.3 L627.9,439.3 L622.1,439.2 L616.7,441.6 L612.4,445.8 L606.9,453.5 L601.1,463.0 L596.3,471.0 L592.0,478.5 L589.1,485.5 L587.7,491.7 L587.5,498.5 L587.8,503.4 L588.0,506.4 Z" fill="#5a9540" stroke="none"/>
<path d="M443.4,534.9 L440.0,541.1 L439.4,546.4 L442.6,550.8 L455.6,558.2 L468.1,564.8 L485.1,573.3 L503.7,582.7 L511.0,586.6 L515.4,584.7 L519.4,579.8 L520.7,573.6 L518.2,569.0 L512.9,563.7 L506.0,559.1 L489.6,551.8 L475.4,544.3 L457.6,535.7 L451.6,532.8 L447.3,532.6 L443.4,534.9 Z" fill="#5a9540" stroke="none"/>
<path d="M888.0,640.2 L878.2,652.8 L862.7,671.5 L850.6,685.3 L837.5,701.6 L833.8,709.0 L826.0,725.1 L818.3,732.9 L810.5,730.1 L802.0,728.3 L797.7,729.4 L792.1,730.9 L787.1,732.1 L783.2,734.5 L780.1,737.2 L778.1,741.3 L777.6,733.6 L775.1,730.0 L765.7,728.0 L772.7,726.3 L776.5,723.2 L779.5,718.3 L781.5,712.0 L781.5,704.6 L782.5,696.5 L785.5,689.1 L794.2,679.2 L804.6,668.9 L817.3,655.1 L830.1,641.0 L843.9,625.1 L857.3,608.8 L868.5,595.5 L883.5,578.1 L896.3,561.8 L904.0,552.6 L914.2,545.5 L927.9,538.1 L933.5,535.8 L938.5,531.1 L941.5,525.6 L942.6,519.8 L942.9,511.8 L943.9,504.7 L947.2,497.9 L958.9,483.7 L968.0,471.8 L975.3,461.5 L983.3,448.9 L990.0,436.7 L994.4,425.6 L998.9,412.3 L1003.8,395.0 L1007.7,379.2 L1012.0,363.3 L1017.3,344.2 L1022.2,326.4 L1027.4,305.5 L1031.9,285.9 L1035.4,270.8 L1038.9,254.0 L1043.2,236.9 L1046.8,218.7 L1050.9,198.5 L1054.3,181.8 L1059.6,163.1 L1063.9,150.3 L1071.8,132.4 L1077.5,125.0 L1084.2,123.0 L1092.6,124.6 L1099.3,128.4 L1103.9,135.8 L1105.2,148.3 L1104.8,162.2 L1103.4,179.2 L1101.1,196.8 L1098.0,211.8 L1094.8,231.5 L1093.2,250.7 L1092.5,271.0 L1092.0,295.0 L1085.6,307.5 L1074.4,321.2 L1065.4,330.8 L1059.1,341.2 L1056.3,350.1 L1053.5,364.0 L1049.1,374.7 L1042.3,383.4 L1038.3,391.2 L1036.7,398.7 L1036.9,405.4 L1037.5,414.3 L1037.5,425.9 L1035.0,439.8 L1029.1,453.2 L1021.5,466.1 L1014.2,475.4 L1003.3,487.9 L991.3,505.6 L982.4,517.9 L975.8,527.7 L963.7,545.8 L950.0,563.2 L935.2,582.6 L926.0,593.6 L912.4,611.6 L901.6,624.0 L894.9,632.2 L888.0,640.2 Z" fill="#5a9540" stroke="none"/>
<path d="M112.1,668.5 L108.1,676.2 L105.6,679.8 L103.5,682.0 L99.7,683.0 L109.2,683.2 L115.5,685.9 L120.0,690.4 L121.1,687.2 L124.0,683.5 L128.5,680.4 L132.9,678.2 L138.5,676.7 L145.5,674.5 L152.6,671.2 L156.7,668.8 L162.2,663.1 L165.4,656.8 L169.8,646.6 L174.3,635.7 L178.1,625.1 L182.2,614.6 L189.2,600.0 L195.4,588.2 L201.7,579.4 L207.6,569.5 L218.4,550.8 L223.9,541.8 L226.3,535.0 L229.3,529.0 L234.1,516.2 L239.2,501.4 L246.4,482.4 L250.7,472.5 L256.8,455.2 L261.7,441.0 L265.9,429.2 L269.5,424.1 L274.5,419.2 L281.0,414.3 L289.3,409.1 L295.7,405.8 L301.1,403.1 L305.6,398.4 L314.8,387.5 L325.6,373.7 L336.3,361.0 L345.9,349.6 L357.9,337.3 L371.4,325.4 L385.1,313.7 L399.3,302.7 L420.4,287.2 L431.2,279.3 L440.5,270.7 L442.3,264.4 L442.4,257.3 L440.4,251.8 L437.5,247.6 L432.9,243.3 L428.4,241.1 L424.0,239.8 L418.7,240.1 L411.2,242.3 L402.9,246.8 L391.1,254.8 L381.3,262.3 L372.1,269.3 L362.9,276.7 L353.0,283.8 L343.3,290.0 L329.6,299.9 L318.1,308.3 L306.4,316.1 L299.3,322.6 L292.7,332.2 L288.6,342.2 L286.1,350.4 L283.9,359.6 L281.5,367.1 L278.7,372.4 L273.8,377.2 L268.2,380.3 L260.3,383.1 L253.8,386.5 L247.6,390.7 L240.4,395.3 L232.1,404.5 L226.2,414.3 L220.9,423.8 L214.5,435.0 L208.9,443.5 L201.0,455.0 L195.6,464.8 L192.1,474.0 L190.0,483.2 L189.5,492.3 L189.2,501.8 L188.6,511.2 L186.7,517.8 L182.7,525.3 L177.9,532.2 L171.5,540.2 L165.8,546.0 L160.0,551.3 L155.1,557.7 L148.8,568.0 L144.9,578.6 L141.0,592.7 L138.8,603.9 L135.0,616.3 L129.2,631.8 L123.4,643.8 L119.4,654.0 L115.2,661.9 L112.1,668.5 Z" fill="#5a9540" stroke="none"/>
<path d="M139.3,494.6 L124.8,511.4 L118.0,518.5 L112.4,527.5 L107.9,538.3 L103.2,551.7 L95.4,561.1 L84.9,576.7 L77.4,589.4 L69.7,602.2 L58.5,630.2 L59.2,640.7 L68.2,646.1 L75.8,645.7 L89.6,636.9 L104.2,635.8 L112.1,633.1 L120.6,624.5 L124.6,617.1 L125.4,604.3 L123.5,592.1 L121.4,579.7 L127.5,561.6 L135.3,546.7 L147.9,542.1 L155.0,536.6 L163.0,527.6 L172.1,514.3 L171.0,504.4 L165.3,499.6 L156.3,497.3 L147.5,495.4 L139.3,494.6 Z" fill="#2e5577" stroke="none"/>
<path d="M303.0,145.8 L292.4,156.0 L285.4,170.4 L284.5,187.7 L287.5,198.6 L296.4,205.7 L308.2,206.0 L324.6,204.0 L340.2,201.9 L351.3,195.8 L356.2,187.0 L357.5,173.5 L354.0,167.1 L342.4,157.1 L334.3,152.1 L318.7,148.5 L309.8,146.4 L303.0,145.8 Z" fill="#2e5577" stroke="none"/>
<path d="M780.5,579.7 L789.0,579.1 L803.6,581.6 L816.4,584.6 L816.0,578.1 L813.1,572.2 L806.6,564.5 L798.0,553.8 L789.4,543.5 L783.9,534.3 L778.8,545.4 L776.9,556.3 L780.5,579.7 Z" fill="#2e5577" stroke="none"/>
<path d="M775.6,581.7 L766.3,593.8 L762.0,608.3 L760.4,625.9 L757.0,633.0 L746.2,637.6 L737.1,634.4 L728.5,627.4 L722.8,621.2 L715.7,620.9 L708.6,622.5 L696.8,621.5 L685.3,617.3 L676.6,615.3 L666.9,616.0 L656.7,616.3 L646.7,612.6 L628.6,603.1 L618.5,601.8 L604.0,598.3 L591.5,591.3 L587.8,585.7 L590.5,578.0 L594.7,572.2 L601.5,573.8 L614.0,575.1 L622.9,572.1 L633.6,564.5 L642.1,552.7 L647.9,543.8 L659.6,513.1 L673.6,482.8 L685.9,452.2 L718.5,474.2 L744.2,475.9 L756.3,464.3 L770.9,447.6 L777.8,407.7 L810.7,403.7 L791.9,459.2 L784.4,482.9 L781.5,507.9 L779.5,522.1 L781.0,530.5 L774.5,545.8 L773.4,557.2 L775.6,581.7 Z" fill="#2e5577" stroke="none"/>
<path d="M-51.6,188.9 L-53.0,190.2 L-53.3,192.4 L-55.5,193.4 L-58.7,193.3 L-61.4,191.9 L-63.3,190.6 L-65.2,191.2 L-68.1,193.2 L-70.4,194.6 L-71.2,197.4 L-70.7,200.2 L-68.9,202.7 L-67.7,206.4 L-65.8,210.6 L-62.5,212.9 L-59.2,213.5 L-55.2,211.3 L-52.8,208.5 L-50.5,204.9 L-48.5,202.2 L-45.4,200.5 L-43.9,199.5 L-43.2,197.1 L-43.5,193.4 L-43.5,190.2 L-44.9,188.9 L-46.2,188.3 L-49.1,188.5 L-51.0,188.6 L-51.6,188.9 Z" fill="#e7d6a3" stroke="none"/>
<path d="M-2.8,39.3 L-5.4,40.3 L-8.2,39.8 L-10.0,38.4 L-11.2,37.3 L-14.6,38.8 L-16.9,39.8 L-16.1,41.7 L-15.4,43.7 L-16.1,45.8 L-17.8,47.7 L-17.7,49.2 L-16.1,50.2 L-14.2,50.9 L-12.7,52.2 L-10.1,52.8 L-8.0,53.9 L-6.5,55.8 L-4.9,58.1 L-2.8,59.4 L-0.5,59.3 L1.0,57.6 L1.6,55.9 L1.3,53.8 L1.9,51.8 L3.6,50.5 L4.5,49.0 L4.7,47.4 L3.9,45.4 L4.3,43.2 L5.3,40.8 L4.9,38.8 L3.8,36.9 L3.0,36.2 L0.8,36.2 L-0.8,36.7 L-1.7,38.1 L-2.0,38.6 L-2.8,39.3 Z" fill="#e7d6a3" stroke="none"/>
<path d="M-50.6,7.2 L-52.3,7.5 L-53.9,9.0 L-54.9,11.7 L-56.0,14.5 L-56.0,16.9 L-55.5,19.7 L-55.7,22.7 L-57.1,25.2 L-59.3,26.4 L-61.3,28.0 L-62.1,29.2 L-61.9,31.8 L-59.9,34.9 L-58.7,35.9 L-54.9,37.5 L-53.5,37.6 L-51.0,36.7 L-48.3,36.5 L-46.2,35.3 L-43.9,33.0 L-43.1,31.1 L-42.2,29.1 L-41.9,25.6 L-43.0,22.7 L-43.1,21.0 L-44.8,17.9 L-44.9,14.7 L-43.9,13.4 L-43.7,11.4 L-44.7,10.2 L-46.6,10.2 L-48.6,9.5 L-49.5,8.0 L-50.6,7.2 Z" fill="#e7d6a3" stroke="none"/>
<path d="M429.1,-44.9 L426.0,-41.9 L425.8,-39.2 L424.7,-36.2 L423.9,-34.2 L424.5,-32.0 L425.2,-30.8 L426.5,-29.9 L428.6,-29.3 L429.9,-27.9 L432.5,-27.7 L436.3,-28.9 L440.0,-30.3 L443.5,-30.1 L447.2,-29.4 L452.3,-28.7 L454.4,-30.0 L455.4,-32.0 L454.9,-36.5 L454.3,-37.3 L450.7,-39.8 L448.2,-39.7 L445.1,-40.2 L442.8,-41.6 L438.9,-44.5 L437.4,-44.3 L434.4,-43.3 L432.1,-42.9 L430.7,-43.8 L429.8,-44.8 L429.1,-44.9 Z" fill="#e7d6a3" stroke="none"/>
<path d="M163.5,-42.0 L158.9,-42.0 L156.7,-42.4 L154.5,-40.6 L153.7,-37.8 L154.2,-35.3 L153.8,-32.1 L155.3,-28.9 L157.1,-28.2 L160.2,-28.3 L163.7,-27.0 L166.5,-28.1 L171.4,-27.9 L172.9,-28.2 L175.6,-31.4 L175.8,-32.3 L174.1,-34.9 L173.6,-38.6 L171.5,-40.2 L169.5,-41.7 L167.5,-41.6 L165.2,-41.6 L163.5,-42.0 Z" fill="#e7d6a3" stroke="none"/>
<path d="M136.3,-37.6 L134.9,-35.7 L134.1,-32.8 L132.4,-29.9 L130.1,-27.6 L127.6,-26.3 L124.7,-25.7 L122.2,-22.7 L120.5,-20.5 L120.9,-18.0 L123.3,-16.8 L125.1,-14.9 L127.2,-14.7 L132.0,-15.7 L136.4,-17.9 L140.8,-20.4 L143.6,-21.4 L145.5,-21.7 L146.1,-22.6 L144.8,-24.6 L145.8,-26.0 L147.5,-28.7 L147.2,-30.0 L145.7,-32.0 L145.5,-35.0 L145.6,-38.1 L144.4,-38.9 L143.3,-38.8 L141.1,-38.1 L139.5,-38.5 L137.6,-38.2 L136.3,-37.6 Z" fill="#e7d6a3" stroke="none"/>
<path d="M-18.5,453.5 L-19.4,454.8 L-22.3,457.4 L-22.9,461.4 L-24.0,464.7 L-24.1,467.3 L-22.3,469.2 L-21.9,473.9 L-23.1,475.4 L-24.3,477.1 L-24.5,478.4 L-22.8,481.0 L-22.1,483.0 L-21.9,486.3 L-20.1,487.3 L-17.3,487.6 L-15.1,484.2 L-14.1,483.0 L-11.7,482.9 L-10.2,481.8 L-8.5,473.8 L-10.0,469.3 L-9.1,466.7 L-6.0,462.6 L-5.9,460.9 L-7.0,455.0 L-11.3,454.0 L-16.4,452.9 L-18.5,453.5 Z" fill="#e7d6a3" stroke="none"/>
<path d="M141.0,422.6 L135.5,424.4 L132.5,430.2 L132.2,433.7 L130.8,437.6 L130.5,443.1 L130.0,445.4 L127.3,450.5 L128.7,458.0 L131.6,459.1 L138.2,460.1 L140.9,458.9 L141.3,455.3 L142.2,452.1 L140.1,447.9 L139.6,445.4 L140.5,443.6 L144.1,441.3 L144.2,437.4 L144.5,429.4 L143.4,424.2 L142.6,423.1 L141.0,422.6 Z" fill="#e7d6a3" stroke="none"/>
<path d="M85.4,371.8 L82.9,373.7 L82.0,376.2 L80.9,379.8 L78.7,383.4 L78.6,388.4 L77.9,391.1 L76.4,393.1 L74.8,394.4 L72.3,397.9 L72.4,400.8 L73.8,402.6 L75.9,404.4 L76.4,405.3 L78.1,406.1 L79.8,406.3 L82.3,407.4 L84.3,406.9 L85.6,405.5 L86.3,402.6 L87.9,400.6 L88.8,397.8 L91.1,394.9 L92.9,389.3 L93.6,383.2 L94.3,381.8 L94.3,378.5 L94.9,375.8 L94.2,372.7 L93.0,371.8 L90.8,370.5 L89.1,371.2 L87.5,371.8 L85.4,371.8 Z" fill="#e7d6a3" stroke="none"/>
<path d="M150.6,350.1 L148.6,351.3 L147.4,353.6 L147.1,358.6 L149.3,361.6 L149.2,367.9 L151.0,370.3 L152.0,372.8 L158.6,372.8 L160.3,371.3 L160.8,368.8 L160.9,365.8 L160.4,363.5 L159.0,363.3 L158.5,361.9 L158.6,356.8 L160.5,354.5 L160.4,353.6 L159.8,352.9 L159.2,351.2 L157.9,350.1 L155.6,349.9 L152.1,349.8 L150.6,350.1 Z" fill="#e7d6a3" stroke="none"/>
<path d="M178.8,200.1 L178.8,202.0 L180.2,206.9 L179.9,212.0 L179.8,214.7 L180.5,216.9 L184.5,219.6 L185.9,219.8 L187.4,218.6 L191.7,216.9 L193.8,211.6 L194.2,207.3 L196.2,205.3 L197.1,202.8 L196.1,201.0 L195.5,196.9 L194.3,195.6 L192.2,194.6 L189.7,193.8 L187.9,193.6 L186.3,193.7 L184.9,195.1 L182.5,195.6 L181.2,197.2 L179.8,198.8 L178.8,200.1 Z" fill="#e7d6a3" stroke="none"/>
<path d="M128.9,143.3 L127.3,145.4 L125.7,148.0 L126.2,151.3 L126.7,155.2 L128.0,156.6 L129.0,158.5 L129.3,161.1 L128.1,164.4 L129.0,166.9 L130.7,169.3 L130.8,172.3 L132.0,173.1 L136.4,173.9 L138.1,173.6 L139.7,172.2 L141.9,169.8 L144.2,168.9 L145.2,167.8 L145.8,166.5 L146.8,162.8 L147.8,160.7 L148.1,158.4 L147.4,156.5 L146.2,155.2 L144.1,154.1 L141.9,153.3 L140.0,152.5 L138.6,150.8 L137.8,148.2 L136.5,144.9 L135.3,143.3 L132.7,143.0 L130.4,143.1 L128.9,143.3 Z" fill="#e7d6a3" stroke="none"/>
<path d="M173.9,155.2 L172.4,156.6 L171.4,158.1 L171.0,161.0 L171.2,164.1 L172.0,167.4 L173.3,169.1 L176.9,171.3 L179.4,171.8 L181.9,171.3 L183.8,170.2 L187.2,166.2 L188.5,163.9 L188.2,162.5 L187.4,160.5 L185.9,158.5 L183.7,158.3 L181.3,157.8 L179.6,156.8 L178.8,155.8 L177.8,155.1 L176.1,154.9 L174.7,155.0 L173.9,155.2 Z" fill="#e7d6a3" stroke="none"/>
<path d="M181.2,135.5 L179.9,136.7 L178.8,139.0 L179.0,143.7 L178.4,145.5 L178.3,147.2 L178.8,148.9 L179.8,149.8 L182.5,150.7 L184.1,151.6 L185.6,152.0 L187.3,151.6 L190.0,149.0 L190.1,146.5 L189.5,145.1 L189.7,143.9 L189.3,142.4 L188.1,141.3 L187.0,140.0 L187.1,138.8 L186.6,137.4 L185.7,136.5 L184.3,135.9 L182.5,135.4 L181.2,135.5 Z" fill="#e7d6a3" stroke="none"/>
<path d="M451.0,21.4 L446.5,23.6 L442.9,27.3 L441.6,31.3 L442.1,35.2 L443.6,37.9 L446.8,39.9 L451.9,42.1 L454.6,41.9 L456.8,42.5 L460.2,42.9 L462.4,41.6 L464.2,38.6 L464.6,36.8 L464.6,30.9 L465.2,27.4 L464.3,24.5 L463.6,22.8 L461.9,21.5 L460.3,20.8 L458.6,21.3 L456.4,21.1 L453.5,20.7 L451.0,21.4 Z" fill="#e7d6a3" stroke="none"/>
<path d="M475.5,24.4 L473.0,27.5 L472.7,29.4 L472.8,32.9 L471.7,36.3 L472.6,40.5 L475.2,43.8 L479.0,45.2 L485.1,44.6 L486.9,45.4 L488.8,46.0 L491.3,46.1 L494.8,47.9 L496.3,48.3 L498.9,47.6 L501.7,45.4 L502.7,43.5 L502.7,39.8 L501.8,39.0 L499.9,37.6 L498.3,35.1 L496.4,33.8 L493.1,33.7 L489.9,31.8 L489.2,29.8 L486.6,26.3 L485.3,24.9 L482.8,23.9 L480.2,23.6 L476.8,23.7 L475.5,24.4 Z" fill="#e7d6a3" stroke="none"/>
<path d="M493.0,13.5 L492.7,15.2 L494.3,21.0 L496.4,22.2 L501.7,24.4 L505.6,25.0 L508.6,27.8 L512.2,30.2 L516.0,31.9 L519.6,33.0 L522.9,35.8 L528.4,36.1 L530.4,34.3 L532.8,33.3 L533.0,30.8 L535.0,28.2 L534.9,26.6 L533.9,25.4 L530.2,21.9 L529.1,18.7 L528.2,16.9 L526.3,15.4 L523.6,14.7 L519.5,13.9 L516.8,13.8 L514.9,14.5 L512.7,14.5 L511.1,14.2 L508.9,12.9 L505.6,11.6 L500.8,9.7 L498.4,9.9 L496.2,10.8 L494.7,11.8 L493.9,12.4 L493.0,13.5 Z" fill="#e7d6a3" stroke="none"/>
<path d="M472.8,110.7 L469.2,111.8 L465.6,112.9 L464.1,114.4 L464.1,117.8 L465.7,119.7 L469.9,122.1 L474.4,123.9 L478.2,124.9 L480.5,127.2 L485.3,129.6 L487.6,129.6 L490.6,130.4 L491.6,129.4 L494.1,124.9 L494.4,122.8 L493.7,120.9 L492.6,119.6 L490.8,118.7 L487.6,117.7 L484.8,118.2 L482.4,117.3 L480.4,115.1 L478.2,113.3 L476.6,112.2 L475.5,110.9 L474.2,110.7 L472.8,110.7 Z" fill="#e7d6a3" stroke="none"/>
<path d="M555.4,90.9 L552.1,94.6 L548.6,97.4 L546.6,98.4 L544.5,98.6 L542.2,100.2 L541.3,101.6 L540.7,107.1 L542.6,109.9 L546.0,111.0 L550.4,112.8 L553.7,113.4 L556.3,114.7 L558.2,114.6 L560.0,113.5 L561.3,111.9 L563.0,108.2 L563.8,106.7 L564.4,104.7 L564.0,103.2 L562.7,100.7 L562.5,98.7 L562.4,96.7 L563.2,94.7 L563.2,93.0 L562.5,91.7 L560.5,90.7 L556.6,90.6 L555.4,90.9 Z" fill="#e7d6a3" stroke="none"/>
<path d="M578.1,79.6 L573.9,81.6 L571.2,87.2 L572.1,95.4 L571.2,102.1 L575.4,105.8 L579.1,105.0 L581.7,98.8 L581.4,94.3 L583.0,91.2 L584.8,90.2 L586.0,88.3 L586.5,86.6 L584.0,83.9 L584.2,80.6 L582.7,79.6 L580.4,79.3 L578.1,79.6 Z" fill="#e7d6a3" stroke="none"/>
<path d="M699.0,22.2 L690.7,22.0 L690.0,22.5 L690.0,25.2 L689.4,26.8 L688.1,28.5 L687.0,29.7 L686.9,31.6 L687.8,33.2 L689.4,34.1 L690.9,34.4 L693.9,34.4 L695.6,34.5 L697.1,34.9 L698.1,35.3 L699.4,36.5 L701.2,37.6 L702.9,37.9 L706.2,38.0 L708.2,37.5 L709.7,37.0 L710.3,36.6 L711.4,36.3 L712.4,35.5 L713.8,34.1 L714.0,33.2 L714.0,32.1 L713.5,27.4 L713.2,25.6 L712.5,24.4 L711.4,24.0 L709.4,24.0 L706.9,24.1 L704.4,24.0 L701.7,23.8 L699.7,22.7 L699.0,22.2 Z" fill="#e7d6a3" stroke="none"/>
<path d="M655.6,-16.4 L655.5,-10.4 L656.2,-9.5 L658.8,-9.4 L661.8,-8.3 L663.9,-7.0 L667.2,-6.7 L668.9,-5.5 L671.9,-3.6 L673.7,-0.8 L676.0,1.5 L678.0,1.6 L680.9,0.9 L682.6,-0.3 L683.1,-1.5 L683.0,-2.9 L682.3,-4.5 L681.4,-5.9 L680.5,-7.2 L680.2,-8.5 L680.5,-11.0 L681.8,-12.1 L683.5,-13.6 L684.5,-15.6 L684.7,-17.6 L684.4,-19.1 L683.6,-19.8 L682.1,-20.5 L680.7,-20.7 L679.0,-20.5 L675.8,-20.6 L674.7,-19.9 L670.4,-19.9 L669.2,-19.2 L667.5,-18.4 L665.0,-18.4 L661.5,-18.5 L660.2,-18.5 L658.4,-18.0 L656.5,-17.3 L655.6,-16.4 Z" fill="#e7d6a3" stroke="none"/>
<path d="M731.3,343.7 L727.0,347.6 L725.7,353.8 L726.3,355.2 L729.4,355.7 L732.3,357.7 L734.1,357.7 L735.8,356.4 L738.4,352.9 L741.8,351.4 L743.7,351.8 L746.5,351.4 L748.0,349.8 L749.1,346.6 L751.4,339.1 L750.9,337.9 L748.6,336.7 L745.6,336.8 L743.0,338.7 L739.4,341.2 L735.6,343.5 L731.3,343.7 Z" fill="#e7d6a3" stroke="none"/>
<path d="M599.4,532.0 L597.5,536.1 L598.7,540.0 L600.8,541.0 L603.0,542.6 L606.9,542.3 L610.5,543.0 L612.8,538.2 L612.6,535.0 L615.8,528.2 L614.0,526.3 L610.5,526.6 L607.7,528.3 L605.6,530.3 L604.1,531.7 L601.2,531.8 L599.4,532.0 Z" fill="#e7d6a3" stroke="none"/>
<path d="M590.2,550.0 L585.6,556.0 L585.6,559.7 L587.0,561.2 L588.1,563.8 L589.3,564.3 L590.9,564.3 L594.4,561.8 L597.9,562.5 L599.5,562.3 L605.0,557.9 L605.5,555.7 L604.0,551.8 L601.1,551.2 L596.8,549.5 L594.6,550.0 L592.6,550.3 L590.2,550.0 Z" fill="#e7d6a3" stroke="none"/>
<path d="M552.6,509.6 L551.2,511.7 L545.7,515.7 L544.4,518.4 L542.1,520.5 L543.0,524.5 L543.9,525.6 L546.1,525.9 L547.8,526.8 L549.1,526.6 L553.4,524.0 L555.8,521.9 L557.5,520.7 L561.4,519.1 L562.0,518.2 L562.3,516.6 L563.0,515.6 L564.5,514.8 L566.6,514.2 L569.1,514.1 L570.8,514.7 L572.2,516.0 L574.2,516.5 L576.3,515.1 L577.7,514.8 L579.2,514.7 L580.0,514.2 L581.3,511.4 L581.0,509.6 L580.2,507.2 L579.5,504.8 L577.5,503.8 L573.6,502.5 L569.6,501.9 L567.8,501.6 L566.3,501.0 L564.5,501.1 L563.2,501.4 L561.6,502.1 L558.7,502.6 L556.8,503.8 L555.6,505.0 L555.1,507.8 L552.6,509.6 Z" fill="#e7d6a3" stroke="none"/>
<path d="M668.3,624.9 L668.3,626.7 L666.4,629.9 L666.5,631.2 L668.3,633.2 L669.8,634.2 L671.1,636.4 L672.0,638.7 L675.0,639.2 L676.0,639.6 L677.1,639.4 L678.2,638.0 L678.1,635.9 L678.3,634.4 L680.1,632.5 L681.1,632.3 L682.3,630.5 L682.4,629.2 L682.0,627.1 L680.7,625.9 L679.7,625.3 L677.7,625.3 L675.9,625.0 L673.7,624.2 L672.6,623.6 L671.5,623.8 L670.5,624.3 L670.0,624.8 L668.8,624.7 L668.3,624.9 Z" fill="#e7d6a3" stroke="none"/>
<path d="M664.1,652.0 L663.8,653.2 L664.2,655.7 L663.6,656.5 L660.9,657.6 L660.2,658.5 L659.9,661.6 L658.9,663.1 L657.5,664.1 L657.2,666.4 L658.1,668.7 L660.1,670.2 L661.9,671.7 L663.1,671.9 L664.4,671.5 L665.1,670.9 L665.5,668.6 L667.3,666.8 L668.7,665.2 L670.1,663.1 L674.2,660.2 L675.2,660.0 L676.7,659.0 L677.1,657.7 L677.1,655.0 L676.4,654.0 L675.6,653.2 L674.4,652.6 L672.0,652.4 L671.3,652.3 L670.0,652.1 L667.4,652.1 L666.6,651.8 L665.5,651.9 L664.7,651.9 L664.1,652.0 Z" fill="#e7d6a3" stroke="none"/>
<path d="M672.6,673.4 L672.4,675.9 L673.1,677.7 L673.2,679.4 L674.0,681.0 L674.9,681.7 L675.6,681.9 L679.4,682.1 L680.7,683.0 L681.9,684.1 L683.0,684.0 L684.9,682.4 L685.4,681.7 L685.8,680.4 L686.0,679.6 L686.1,678.0 L685.2,676.9 L684.4,675.5 L683.8,673.9 L683.9,672.7 L684.4,671.9 L684.1,671.1 L684.0,670.0 L683.7,668.8 L682.9,667.9 L681.8,667.2 L680.8,666.9 L679.3,667.6 L678.4,668.8 L677.6,670.4 L676.6,671.3 L674.9,672.2 L673.4,672.8 L672.6,673.4 Z" fill="#e7d6a3" stroke="none"/>
<path d="M785.1,737.9 L782.4,742.3 L782.9,744.3 L783.9,746.6 L783.6,749.1 L780.8,752.5 L780.1,754.2 L780.5,756.7 L780.6,759.4 L784.7,761.4 L786.9,761.3 L789.8,759.4 L791.0,758.3 L791.3,757.2 L791.2,753.8 L793.5,750.3 L796.4,747.7 L799.1,747.0 L800.5,746.9 L803.0,746.1 L803.7,744.8 L804.3,741.9 L804.0,740.9 L802.0,739.3 L801.0,738.3 L800.6,737.3 L800.5,736.5 L799.6,735.4 L798.2,735.2 L796.3,736.1 L794.0,736.3 L791.1,735.6 L788.5,736.9 L786.7,737.2 L785.1,737.9 Z" fill="#e7d6a3" stroke="none"/>
<path d="M710.0,748.6 L709.1,750.4 L709.3,752.4 L711.8,754.8 L712.6,756.1 L714.5,756.7 L716.7,757.0 L718.0,757.6 L719.3,757.2 L720.5,756.2 L721.2,754.8 L721.1,752.6 L721.1,750.8 L721.9,747.6 L721.4,746.3 L720.3,744.9 L718.8,743.3 L717.2,742.7 L715.4,743.4 L712.7,745.6 L711.3,747.1 L710.0,748.6 Z" fill="#e7d6a3" stroke="none"/>
<path d="M744.0,713.3 L742.9,715.0 L742.8,717.5 L742.4,719.1 L739.5,723.2 L739.4,724.4 L740.4,726.0 L740.8,728.0 L741.9,728.9 L744.0,728.7 L746.4,727.7 L747.4,726.4 L748.1,724.7 L749.5,724.4 L751.4,724.2 L752.8,723.2 L753.1,721.4 L752.5,719.6 L752.1,717.4 L751.5,716.0 L750.4,714.3 L750.5,712.9 L749.9,712.0 L748.9,711.8 L748.4,713.1 L747.1,713.9 L745.8,713.8 L744.7,713.1 L744.0,713.3 Z" fill="#e7d6a3" stroke="none"/>
<path d="M762.0,698.4 L761.4,700.2 L761.2,703.2 L759.8,706.7 L758.3,708.5 L757.4,709.4 L758.5,712.5 L759.3,715.3 L760.9,718.3 L762.9,719.8 L763.5,721.5 L766.1,721.8 L766.9,720.7 L767.8,719.3 L769.3,718.8 L770.7,718.9 L773.8,717.5 L774.5,715.9 L776.6,712.2 L777.0,709.5 L776.0,708.5 L773.3,706.8 L771.4,705.1 L770.0,703.5 L769.3,701.3 L766.8,699.8 L764.2,698.2 L762.9,698.1 L762.0,698.4 Z" fill="#e7d6a3" stroke="none"/>
<path d="M438.8,657.5 L437.4,659.3 L436.8,661.0 L437.3,663.1 L438.4,665.1 L441.3,665.2 L442.8,666.0 L443.5,667.4 L443.6,669.6 L442.8,671.8 L443.2,673.4 L444.0,674.2 L446.0,674.0 L449.5,674.6 L451.9,673.0 L454.2,672.0 L455.6,669.0 L456.5,668.2 L458.2,667.6 L459.1,666.6 L458.8,665.0 L457.7,663.3 L456.4,662.3 L454.5,661.5 L452.5,660.6 L450.7,661.0 L448.8,660.6 L447.3,659.8 L446.4,658.7 L445.0,656.7 L440.6,656.8 L438.8,657.5 Z" fill="#e7d6a3" stroke="none"/>
<path d="M482.4,644.8 L480.4,647.5 L479.9,649.6 L480.3,650.7 L484.0,654.6 L485.5,656.2 L488.4,656.6 L490.5,655.4 L494.1,652.7 L495.5,652.5 L497.7,653.4 L500.9,653.1 L502.9,653.8 L504.1,653.5 L505.5,651.8 L507.0,649.8 L506.8,646.9 L507.2,644.1 L505.9,642.8 L505.8,641.7 L503.6,640.7 L501.7,640.6 L500.7,641.6 L499.2,642.0 L497.0,641.3 L495.6,640.0 L494.7,638.0 L493.7,635.9 L489.7,634.9 L486.1,634.7 L484.4,636.5 L482.4,638.6 L482.7,639.7 L483.6,641.5 L483.3,643.1 L482.4,644.8 Z" fill="#e7d6a3" stroke="none"/>
<path d="M515.1,302.5 L512.3,303.6 L509.0,303.6 L506.9,305.9 L506.5,308.7 L506.8,311.6 L509.3,313.2 L510.7,314.2 L512.2,316.0 L514.0,316.6 L517.6,316.5 L520.4,315.5 L523.7,315.4 L527.4,315.5 L530.1,314.7 L532.9,313.0 L534.3,311.9 L536.1,309.2 L536.2,307.0 L535.1,303.6 L535.5,302.1 L535.2,300.6 L534.1,299.9 L531.8,300.1 L529.1,300.0 L525.7,300.8 L524.3,303.5 L522.8,304.6 L520.8,305.2 L518.6,304.9 L516.6,303.4 L515.1,302.5 Z" fill="#e7d6a3" stroke="none"/>
<path d="M622.0,215.3 L619.2,217.1 L617.7,219.0 L616.2,220.5 L616.2,222.8 L617.9,224.3 L619.9,224.9 L622.6,225.3 L629.0,224.9 L630.2,223.7 L631.3,222.2 L632.0,218.9 L631.7,217.7 L630.7,216.5 L629.3,215.0 L627.5,215.2 L625.6,215.5 L623.6,215.3 L622.0,215.3 Z" fill="#e7d6a3" stroke="none"/>
<path d="M651.1,220.6 L650.2,222.4 L648.2,223.9 L648.2,227.2 L647.4,230.4 L648.8,232.9 L651.0,234.1 L653.4,233.5 L656.1,231.8 L656.5,230.4 L656.5,227.8 L658.2,225.3 L658.4,223.6 L657.0,222.2 L655.7,221.2 L654.3,220.1 L652.2,220.0 L651.1,220.6 Z" fill="#e7d6a3" stroke="none"/>
<path d="M694.6,170.3 L693.6,171.3 L692.7,172.6 L690.7,173.8 L690.0,175.9 L689.1,178.2 L687.9,179.5 L686.3,180.2 L684.9,180.3 L682.6,181.3 L679.4,182.7 L677.6,184.0 L677.3,185.3 L677.5,188.0 L679.6,189.3 L680.8,191.5 L681.9,191.9 L683.9,191.2 L687.2,190.9 L687.9,190.5 L689.5,188.7 L691.0,188.5 L694.5,188.5 L696.6,188.6 L698.6,187.5 L700.6,186.3 L703.2,183.6 L703.4,181.8 L702.7,180.4 L703.1,178.7 L704.3,176.5 L704.5,175.0 L703.4,173.2 L701.4,172.9 L699.4,171.9 L698.2,170.5 L697.4,169.6 L695.7,169.6 L694.6,170.3 Z" fill="#e7d6a3" stroke="none"/>
<path d="M648.0,156.2 L646.4,160.1 L643.9,162.9 L643.0,164.9 L640.8,167.1 L639.5,168.7 L638.7,170.1 L638.1,171.6 L638.3,172.7 L639.2,173.3 L640.2,173.1 L641.5,173.0 L642.5,173.9 L643.9,175.7 L646.0,175.9 L649.2,176.1 L650.9,176.6 L652.9,176.6 L654.6,176.1 L655.5,174.5 L657.0,172.2 L657.9,169.9 L658.5,166.6 L657.4,165.1 L656.2,164.5 L655.5,163.4 L655.3,161.7 L655.9,160.2 L657.0,159.0 L657.3,157.7 L658.7,156.1 L659.7,153.9 L660.4,150.1 L659.7,148.7 L658.8,146.8 L657.8,146.4 L656.1,146.5 L654.7,146.2 L653.6,145.7 L652.2,146.3 L650.9,147.8 L650.0,150.0 L648.3,151.7 L648.4,154.9 L648.0,156.2 Z" fill="#e7d6a3" stroke="none"/>
<path d="M267.6,334.1 L265.6,336.0 L264.6,339.8 L264.0,341.8 L264.8,344.2 L266.8,347.0 L265.9,350.0 L264.7,352.7 L260.9,354.8 L260.0,355.7 L259.6,358.1 L260.7,359.8 L260.7,365.5 L261.7,367.1 L269.3,368.7 L271.6,367.6 L273.0,365.2 L273.8,363.3 L275.1,361.5 L275.4,358.7 L276.2,357.0 L275.7,354.6 L276.4,352.4 L276.9,349.3 L279.9,346.3 L280.7,343.3 L280.7,340.4 L280.0,337.0 L277.7,335.8 L276.1,334.0 L271.8,333.3 L269.0,333.6 L267.6,334.1 Z" fill="#e7d6a3" stroke="none"/>
<path d="M281.2,421.0 L277.7,425.0 L275.7,428.0 L275.6,430.3 L276.8,432.1 L279.0,433.5 L281.8,432.4 L283.1,432.2 L285.3,432.3 L286.3,431.5 L287.0,430.3 L287.7,428.0 L289.8,426.0 L291.8,424.7 L294.6,423.8 L296.4,422.5 L298.2,420.2 L297.6,418.1 L296.4,415.5 L294.2,414.7 L293.0,414.3 L289.5,415.5 L287.1,416.9 L286.4,418.3 L285.2,419.6 L283.5,420.6 L282.1,420.7 L281.2,421.0 Z" fill="#e7d6a3" stroke="none"/>
<path d="M98.1,653.3 L96.9,656.2 L95.1,658.4 L94.1,659.5 L93.9,660.9 L94.8,662.4 L94.8,664.3 L93.8,666.9 L92.6,668.3 L93.0,669.7 L91.9,673.9 L92.5,675.4 L94.8,678.3 L96.4,679.1 L98.4,679.1 L102.6,677.5 L103.4,675.6 L103.7,673.7 L103.2,672.0 L103.5,669.6 L104.9,667.8 L106.5,666.6 L108.1,666.0 L108.7,664.4 L109.6,661.7 L109.9,659.8 L109.4,658.2 L108.4,657.1 L107.1,655.6 L106.2,654.5 L105.1,653.3 L103.3,652.3 L101.2,652.0 L99.5,652.5 L98.7,652.8 L98.1,653.3 Z" fill="#e7d6a3" stroke="none"/>
<path d="M74.6,680.0 L72.2,682.8 L72.0,683.8 L72.7,685.4 L72.7,686.8 L71.4,689.5 L69.4,692.5 L69.2,695.2 L70.6,696.7 L73.3,698.3 L76.0,697.4 L77.2,694.7 L78.3,691.3 L81.1,688.3 L82.3,687.4 L82.4,686.2 L82.1,684.9 L82.1,682.8 L82.2,681.6 L80.9,680.0 L77.4,679.8 L74.6,680.0 Z" fill="#e7d6a3" stroke="none"/>
<path d="M125.5,686.9 L124.9,688.4 L124.7,689.7 L126.1,692.3 L126.3,695.2 L127.5,696.6 L129.2,699.3 L130.1,699.8 L132.1,699.4 L134.2,698.3 L137.3,697.6 L139.7,696.1 L145.1,696.4 L147.8,694.2 L149.7,693.1 L150.6,691.9 L151.5,686.9 L151.5,685.1 L150.2,683.4 L148.7,682.2 L147.1,681.2 L144.6,681.2 L142.4,682.4 L140.9,683.9 L138.5,684.1 L136.4,683.7 L133.6,683.9 L131.0,682.9 L129.8,683.8 L128.9,684.7 L127.0,685.9 L125.5,686.9 Z" fill="#e7d6a3" stroke="none"/>
<path d="M128.8,707.9 L126.6,709.5 L125.9,711.0 L126.4,712.9 L126.5,718.1 L127.5,719.1 L128.9,719.4 L131.0,718.2 L134.2,718.2 L135.3,718.3 L137.8,716.9 L138.0,715.6 L140.5,713.3 L141.3,712.8 L142.4,711.5 L143.0,708.6 L144.1,706.8 L143.9,704.8 L143.1,703.7 L141.9,702.8 L140.4,702.3 L137.6,702.5 L134.5,703.0 L131.8,703.8 L130.2,705.3 L129.5,706.8 L128.8,707.9 Z" fill="#e7d6a3" stroke="none"/>
<path d="M-53.9,-61.9 L-46.8,-50.2 L-21.8,-65.1 L-29.9,-77.4 L-53.9,-61.9 Z" fill="#4f8a3e" stroke="none"/>
<path d="M55.8,-3.2 L48.3,30.1 L58.7,33.4 L66.0,-0.5 L55.8,-3.2 Z" fill="#4f8a3e" stroke="none"/>
<path d="M69.5,21.3 L67.5,40.0 L90.8,43.0 L93.0,24.0 L69.5,21.3 Z" fill="#4f8a3e" stroke="none"/>
<path d="M105.9,26.1 L104.8,41.2 L133.0,44.5 L134.2,29.4 L105.9,26.1 Z" fill="#4f8a3e" stroke="none"/>
<path d="M70.6,50.5 L62.1,76.2 L76.8,80.6 L84.7,54.8 L70.6,50.5 Z" fill="#4f8a3e" stroke="none"/>
<path d="M59.8,83.5 L52.4,107.3 L73.0,114.5 L80.7,90.0 L59.8,83.5 Z" fill="#4f8a3e" stroke="none"/>
<path d="M-34.6,727.5 L-41.9,745.2 L-30.6,749.8 L-23.4,732.1 L-34.6,727.5 Z" fill="#4f8a3e" stroke="none"/>
<path d="M-23.1,694.4 L-13.8,697.7 L-9.9,687.6 L-19.5,684.3 L-23.1,694.4 Z" fill="#4f8a3e" stroke="none"/>
<path d="M165.7,56.0 L165.8,67.7 L185.3,67.1 L184.8,55.2 L165.7,56.0 Z" fill="#4f8a3e" stroke="none"/>
<path d="M206.9,67.3 L208.6,81.0 L220.5,80.2 L218.8,66.4 L206.9,67.3 Z" fill="#4f8a3e" stroke="none"/>
<path d="M766.7,622.6 L756.7,647.3 L766.2,651.8 L776.5,626.5 L766.7,622.6 Z" fill="#4f8a3e" stroke="none"/>
<path d="M780.2,585.2 L768.9,611.9 L784.8,618.8 L796.3,591.0 L780.2,585.2 Z" fill="#4f8a3e" stroke="none"/>
<path d="M796.9,521.6 L805.4,523.9 L810.6,507.3 L802.5,505.3 L796.9,521.6 Z" fill="#4f8a3e" stroke="none"/>
<path d="M743.5,842.5 L750.6,830.6 L765.9,839.4 L759.9,852.1 L743.5,842.5 Z" fill="#4f8a3e" stroke="none"/>
<path d="M719.4,828.2 L727.7,815.6 L740.8,824.4 L733.1,837.1 L719.4,828.2 Z" fill="#4f8a3e" stroke="none"/>
<path d="M693.3,815.5 L710.0,825.8 L721.7,807.8 L705.1,797.3 L693.3,815.5 Z" fill="#4f8a3e" stroke="none"/>
<path d="M669.3,799.6 L684.5,809.4 L696.6,790.5 L682.1,781.2 L669.3,799.6 Z" fill="#4f8a3e" stroke="none"/>
<path d="M647.9,782.3 L660.3,790.1 L673.4,771.0 L660.9,763.0 L647.9,782.3 Z" fill="#4f8a3e" stroke="none"/>
<path d="M621.2,769.3 L634.2,778.2 L644.7,764.1 L631.9,755.4 L621.2,769.3 Z" fill="#4f8a3e" stroke="none"/>
<path d="M164.1,737.7 L170.9,744.6 L187.3,727.0 L180.1,721.0 L164.1,737.7 Z" fill="#4f8a3e" stroke="none"/>
<path d="M219.7,710.7 L243.6,681.7 L254.5,689.6 L230.2,720.1 L219.7,710.7 Z" fill="#4f8a3e" stroke="none"/>
<path d="M278.2,663.1 L291.4,671.8 L305.7,651.3 L291.9,643.1 L278.2,663.1 Z" fill="#4f8a3e" stroke="none"/>
<path d="M315.4,664.7 L326.2,671.3 L343.9,639.9 L333.0,634.0 L315.4,664.7 Z" fill="#4f8a3e" stroke="none"/>
<path d="M361.3,544.6 L368.1,549.3 L375.8,539.7 L368.7,534.9 L361.3,544.6 Z" fill="#4f8a3e" stroke="none"/>
<path d="M647.5,86.6 L654.1,96.6 L668.9,87.6 L661.8,77.4 L647.5,86.6 Z" fill="#4f8a3e" stroke="none"/>
<path d="M609.0,110.8 L639.4,89.6 L647.5,100.9 L616.7,122.8 L609.0,110.8 Z" fill="#4f8a3e" stroke="none"/>
<path d="M595.2,118.7 L602.5,127.6 L581.1,144.1 L573.7,134.3 L595.2,118.7 Z" fill="#4f8a3e" stroke="none"/>
<path d="M528.7,160.9 L553.7,140.5 L563.7,151.9 L539.0,172.6 L528.7,160.9 Z" fill="#4f8a3e" stroke="none"/>
<path d="M502.1,168.7 L509.0,176.3 L500.1,184.5 L493.1,176.6 L502.1,168.7 Z" fill="#4f8a3e" stroke="none"/>
<path d="M450.0,200.1 L458.0,206.5 L449.4,217.0 L441.2,209.9 L450.0,200.1 Z" fill="#4f8a3e" stroke="none"/>
<path d="M-31.4,-11.1 L-33.3,-8.2 L-35.3,-1.7 L-37.4,4.4 L-38.2,9.3 L-38.1,14.6 L-36.4,21.5 L-33.0,26.8 L-28.2,30.0 L-22.0,31.9 L-14.0,31.2 L-7.7,30.6 L-1.2,29.1 L5.6,26.8 L10.4,24.2 L13.8,21.0 L15.6,16.8 L15.0,11.6 L12.7,7.0 L8.9,2.4 L5.9,-2.8 L2.5,-7.0 L-2.0,-10.9 L-4.8,-13.5 L-9.6,-15.1 L-13.5,-16.2 L-17.3,-16.5 L-21.9,-16.6 L-26.4,-15.8 L-29.1,-13.8 L-31.4,-11.1 Z" fill="#2f7825" stroke="none"/>
<path d="M402.4,-75.8 L397.2,-73.6 L391.7,-67.8 L386.5,-60.0 L380.5,-52.2 L373.1,-40.1 L369.1,-30.0 L367.1,-19.0 L368.1,-15.7 L370.1,-13.0 L374.4,-12.3 L382.8,-13.9 L390.3,-14.9 L395.5,-14.8 L402.9,-15.1 L408.0,-17.2 L412.8,-21.0 L415.7,-25.0 L417.8,-32.2 L421.1,-42.9 L423.0,-47.9 L424.2,-51.9 L424.4,-57.4 L422.3,-62.5 L417.3,-68.8 L413.5,-72.3 L410.1,-75.0 L406.4,-76.1 L404.2,-76.2 L402.4,-75.8 Z" fill="#2f7825" stroke="none"/>
<path d="M80.8,-45.0 L85.1,-53.5 L88.8,-60.7 L93.9,-67.3 L99.1,-71.0 L104.5,-72.9 L112.1,-72.9 L116.5,-71.6 L122.6,-68.0 L128.1,-62.7 L131.6,-55.3 L132.5,-48.3 L131.1,-41.1 L126.9,-34.2 L120.4,-27.2 L113.5,-21.5 L105.4,-18.4 L97.5,-16.9 L91.9,-16.8 L87.7,-18.9 L84.0,-23.6 L81.3,-29.9 L80.3,-34.4 L80.1,-39.4 L80.3,-42.8 L80.8,-45.0 Z" fill="#2f7825" stroke="none"/>
<path d="M162.6,150.9 L167.7,147.7 L171.9,143.3 L175.1,135.3 L176.0,129.1 L176.0,122.2 L175.5,116.1 L174.5,110.7 L171.9,106.6 L167.0,102.3 L162.2,99.5 L157.3,97.2 L151.8,95.4 L146.4,94.9 L141.6,95.9 L137.7,98.2 L135.2,102.5 L134.1,107.0 L133.3,112.3 L133.2,117.6 L133.6,124.3 L134.4,129.8 L136.5,134.6 L139.3,139.3 L142.5,143.3 L146.5,147.2 L151.6,150.3 L155.4,151.4 L159.6,151.4 L162.6,150.9 Z" fill="#2f7825" stroke="none"/>
<path d="M544.8,534.1 L541.9,538.8 L540.9,544.1 L541.7,548.7 L543.8,552.0 L546.5,554.2 L551.2,556.6 L558.5,559.9 L562.5,561.6 L567.0,562.4 L570.7,562.3 L574.4,560.8 L578.1,557.3 L584.0,550.8 L588.1,544.9 L589.8,540.0 L590.6,535.7 L590.5,531.7 L589.5,528.6 L587.4,526.5 L585.0,525.2 L580.2,523.8 L575.9,522.9 L571.3,523.0 L567.2,523.4 L563.7,524.1 L559.7,525.5 L554.6,528.0 L549.8,530.6 L547.2,532.1 L544.8,534.1 Z" fill="#2f7825" stroke="none"/>
<path d="M683.8,642.0 L683.3,648.5 L684.9,656.4 L686.8,663.2 L689.8,672.4 L693.3,679.4 L696.2,682.8 L701.3,687.1 L706.5,689.7 L711.5,690.6 L718.0,690.5 L724.2,688.4 L729.1,684.8 L732.5,679.1 L733.4,674.4 L733.5,668.3 L732.8,661.8 L731.7,655.0 L730.5,649.4 L728.3,644.6 L726.1,641.0 L723.5,638.3 L720.2,635.7 L716.5,633.0 L712.2,630.9 L706.9,629.1 L702.2,628.5 L698.2,628.6 L695.0,629.5 L691.4,631.5 L688.5,634.3 L686.2,637.1 L684.6,639.6 L683.8,642.0 Z" fill="#2f7825" stroke="none"/>
<path d="M740.6,737.6 L734.7,741.3 L731.9,744.6 L729.1,750.9 L728.2,756.4 L728.7,761.8 L730.5,766.1 L733.7,769.3 L738.5,771.5 L743.8,772.3 L749.7,772.1 L755.4,770.8 L760.7,768.4 L765.2,765.2 L769.5,760.8 L772.8,756.0 L775.1,750.8 L776.2,744.6 L776.3,739.8 L775.9,735.8 L774.4,733.0 L771.7,730.5 L767.8,729.2 L763.6,728.5 L758.7,729.2 L754.4,730.1 L750.8,731.8 L747.2,733.7 L743.4,735.9 L740.6,737.6 Z" fill="#2f7825" stroke="none"/>
<path d="M431.4,637.3 L432.3,640.7 L434.9,644.5 L439.3,648.1 L447.6,652.3 L453.0,655.1 L458.0,657.5 L463.5,658.0 L467.3,657.0 L471.0,653.8 L473.3,649.5 L474.6,643.4 L475.3,636.7 L474.6,632.5 L473.0,627.7 L470.0,624.2 L464.9,620.3 L459.9,617.7 L455.6,617.0 L450.4,616.5 L446.1,617.1 L441.8,618.5 L438.3,620.6 L435.3,623.7 L433.4,626.6 L432.1,629.9 L431.2,633.5 L431.4,637.3 Z" fill="#2f7825" stroke="none"/>
<path d="M666.0,150.2 L665.7,156.3 L666.3,165.2 L668.5,172.0 L672.2,174.6 L677.4,174.4 L683.9,171.9 L693.0,165.8 L699.1,160.9 L704.9,156.4 L707.9,150.6 L709.3,144.2 L709.1,139.1 L707.6,134.0 L705.4,130.6 L702.2,126.9 L698.5,124.0 L694.3,122.5 L689.0,122.4 L684.3,123.1 L680.0,124.9 L675.9,128.1 L673.3,131.4 L671.1,135.4 L669.1,139.4 L667.7,143.4 L666.6,146.7 L666.0,150.2 Z" fill="#2f7825" stroke="none"/>
<path d="M92.4,685.3 L87.9,687.8 L84.6,691.7 L81.5,696.0 L77.6,702.1 L74.8,708.1 L73.6,713.6 L73.8,720.0 L74.8,726.0 L76.2,730.8 L79.1,734.8 L83.1,739.2 L88.6,742.3 L94.1,743.5 L98.3,743.1 L102.8,741.5 L106.9,738.3 L110.4,734.2 L114.9,726.7 L117.7,721.6 L120.0,715.9 L121.2,711.7 L122.5,707.1 L122.2,702.8 L121.2,699.0 L119.3,694.7 L117.4,691.5 L114.9,688.5 L112.5,686.4 L109.5,685.1 L106.8,684.2 L102.7,683.9 L99.3,683.9 L96.4,684.2 L94.4,684.7 L92.4,685.3 Z" fill="#2f7825" stroke="none"/>
<path d="M696.8,-23.9 L693.9,-19.7 L692.6,-15.7 L692.0,-9.8 L691.5,-3.9 L691.3,0.7 L691.6,4.4 L692.3,6.3 L694.1,10.3 L697.0,14.0 L701.1,17.3 L708.2,19.8 L713.5,20.7 L719.3,20.3 L725.4,18.3 L729.4,16.0 L733.7,12.6 L737.8,8.0 L740.0,4.1 L741.5,-1.3 L741.7,-6.6 L741.7,-12.4 L739.5,-18.3 L737.6,-21.8 L734.9,-25.2 L731.3,-27.7 L726.8,-29.3 L721.4,-30.7 L715.5,-30.8 L710.5,-30.3 L705.5,-28.6 L700.5,-26.5 L696.8,-23.9 Z" fill="#2f7825" stroke="none"/>
<path d="M661.8,84.9 L226.0,459.7 L84.9,715.1" fill="none" stroke="#ffd64a" stroke-width="3.5" stroke-linecap="round" stroke-linejoin="round" opacity="0.95"/>
</svg>