<svg xmlns="http://www.w3.org/2000/svg" viewBox="0 0 800 600" preserveAspectRatio="xMidYMid slice">
<rect width="100%" height="100%" fill="#143018"/>
<path d="M-123.4,592.1 L-63.2,467.1 L-63.4,466.2 L-62.0,458.9 L-57.7,441.7 L-53.0,424.5 L-48.5,409.8 L-45.2,402.2 L-41.4,396.9 L-36.8,392.9 L-32.5,389.2 L-29.7,384.6 L-28.6,378.2 L-29.2,370.6 L-30.7,363.4 L-29.6,355.2 L-25.9,345.7 L-20.6,333.6 L-16.2,322.5 L-12.9,310.8 L-8.7,299.8 L-1.1,284.2 L5.8,273.0 L10.8,264.4 L18.3,248.2 L27.1,226.9 L36.3,203.4 L43.8,181.1 L50.4,163.9 L54.6,158.3 L60.2,153.7 L65.2,150.7 L68.8,147.7 L71.1,144.0 L73.1,138.2 L72.6,126.7 L73.1,115.3 L75.6,101.6 L79.3,90.4 L86.7,71.9 L94.3,54.1 L102.0,34.1 L106.4,27.0 L111.7,18.5 L116.1,16.1 L121.6,12.9 L124.9,8.6 L126.3,4.0 L126.3,-0.9 L129.8,6.6 L133.9,8.3 L140.2,7.4 L137.7,8.8 L136.1,12.3 L135.3,17.2 L136.2,23.3 L138.3,32.7 L137.5,40.3 L133.9,50.3 L129.0,61.6 L124.5,70.8 L118.1,85.9 L111.3,100.1 L105.0,110.6 L99.8,117.9 L95.8,123.2 L93.8,129.0 L94.2,133.0 L96.6,139.1 L99.4,145.6 L100.9,150.6 L100.9,157.6 L98.8,165.2 L92.9,176.7 L87.3,186.5 L79.6,200.5 L76.0,206.8 L72.2,214.0 L63.6,230.8 L55.2,250.0 L48.4,264.3 L41.5,276.3 L34.7,286.1 L25.3,297.2 L19.4,304.5 L15.0,310.9 L12.8,315.8 L11.9,323.9 L12.2,336.0 L13.2,343.4 L14.0,348.6 L13.3,352.4 L10.7,357.1 L7.7,361.4 L4.7,369.9 L3.5,380.8 L2.1,394.8 L-1.3,406.5 L-11.7,428.3 L-16.8,438.9 L-24.2,453.1 L-30.5,465.1 L-35.6,472.6 L-40.7,477.5 L-46.4,480.8 L-50.9,481.1 L-55.5,479.3 L-59.5,476.4 L-62.3,471.7 L-62.6,470.4 L-121.4,593.1 L-123.4,592.1 Z" fill="#5a9540" stroke="none"/>
<path d="M477.0,-58.5 L476.7,-64.8 L481.2,-65.4 L491.0,-68.4 L495.9,-72.0 L499.0,-76.0 L501.8,-84.1 L505.5,-87.3 L509.8,-89.5 L525.3,-92.6 L541.5,-95.2 L551.8,-96.8 L559.4,-98.2 L568.8,-100.2 L580.0,-102.4 L585.5,-103.4 L598.4,-107.1 L610.5,-110.1 L620.7,-111.7 L632.5,-112.9 L643.7,-113.7 L649.2,-114.6 L659.0,-118.3 L666.8,-122.7 L677.2,-129.9 L698.2,-142.8 L703.2,-145.2 L709.3,-146.0 L716.8,-144.9 L730.2,-142.7 L739.1,-141.7 L749.3,-140.6 L755.0,-139.9 L767.4,-136.1 L780.6,-130.9 L784.7,-128.8 L787.6,-125.0 L789.2,-121.0 L788.9,-115.5 L786.9,-111.0 L783.7,-108.0 L779.9,-106.3 L771.8,-104.2 L756.3,-102.3 L746.2,-100.3 L736.1,-98.4 L728.4,-97.7 L721.9,-99.9 L717.7,-102.9 L712.6,-105.2 L708.4,-105.4 L703.1,-104.7 L698.0,-103.3 L692.5,-101.2 L684.2,-98.1 L678.1,-95.4 L672.8,-93.1 L666.0,-91.6 L659.3,-90.5 L654.9,-90.5 L650.2,-92.4 L645.1,-93.8 L641.5,-94.1 L636.5,-93.2 L632.0,-91.2 L628.4,-88.9 L625.7,-85.6 L622.8,-82.0 L618.5,-77.2 L614.7,-75.0 L599.7,-71.1 L576.9,-65.1 L549.4,-57.5 L529.5,-52.6 L515.6,-49.4 L507.9,-49.1 L500.3,-51.2 L494.1,-54.2 L489.1,-55.7 L484.8,-56.2 L480.3,-55.7 L476.7,-54.6 L475.0,-53.5 L477.0,-58.5 Z" fill="#5a9540" stroke="none"/>
<path d="M2.6,537.7 L-0.9,533.0 L0.5,529.9 L1.0,524.9 L0.3,517.6 L0.2,513.8 L1.7,509.6 L6.7,503.8 L12.5,500.3 L18.9,498.2 L23.9,494.5 L26.6,489.0 L28.1,481.5 L27.9,474.4 L27.5,468.0 L29.5,461.4 L39.5,442.8 L47.4,427.3 L54.1,412.4 L61.0,396.5 L66.3,384.9 L71.9,376.0 L77.0,370.6 L83.1,366.9 L87.9,365.3 L91.9,364.8 L95.9,363.3 L100.1,360.1 L102.4,355.6 L103.3,352.3 L102.6,345.3 L100.2,331.4 L97.3,318.2 L98.1,312.8 L102.0,301.9 L110.2,279.8 L115.8,262.9 L124.7,238.5 L132.1,217.4 L136.8,203.6 L142.0,192.8 L147.3,186.3 L157.5,178.9 L163.8,175.5 L168.8,174.4 L174.4,174.7 L177.8,176.8 L180.1,180.6 L180.9,185.8 L176.3,201.6 L171.8,216.8 L166.9,234.2 L164.8,242.6 L163.0,253.2 L159.0,265.8 L154.9,282.8 L149.4,303.3 L145.9,310.5 L141.9,316.5 L136.7,321.4 L133.6,324.7 L131.0,329.5 L129.7,335.0 L129.3,340.0 L128.8,346.6 L128.4,353.5 L126.3,362.9 L122.6,371.9 L117.5,379.3 L110.8,385.8 L105.3,391.2 L99.1,394.5 L93.0,398.1 L90.3,401.2 L86.8,408.8 L81.2,423.3 L74.4,442.7 L68.1,460.7 L61.3,477.8 L55.6,491.7 L51.6,501.1 L48.1,509.2 L43.4,518.2 L39.5,524.3 L36.3,528.0 L31.7,531.1 L25.3,533.1 L19.6,534.9 L16.1,536.5 L11.7,539.0 L9.1,541.5 L8.0,545.0 L7.5,547.5 L2.6,537.7 Z" fill="#5a9540" stroke="none"/>
<path d="M275.3,98.4 L269.2,99.5 L269.5,103.3 L269.1,107.9 L267.6,111.6 L265.4,114.4 L262.0,116.9 L258.1,119.1 L253.7,121.6 L251.2,125.1 L249.7,129.9 L248.9,138.2 L248.1,148.9 L247.3,160.1 L246.3,171.8 L245.0,180.5 L243.4,190.0 L241.5,197.7 L239.4,207.8 L237.1,220.8 L235.3,231.8 L234.9,242.4 L234.3,254.3 L234.4,261.4 L233.6,267.6 L231.5,274.0 L229.2,280.2 L225.8,287.5 L223.0,292.6 L220.1,295.4 L216.3,297.7 L211.9,299.9 L208.3,303.5 L204.4,310.2 L199.5,323.4 L194.6,334.7 L190.0,344.6 L184.3,355.7 L178.4,367.7 L173.6,377.9 L170.8,385.8 L168.9,394.3 L166.6,403.5 L164.1,412.2 L162.0,420.4 L160.1,431.1 L160.5,434.3 L163.1,438.3 L166.2,440.5 L169.2,442.0 L173.0,442.6 L178.8,442.6 L182.9,441.4 L186.6,439.1 L190.4,434.5 L195.1,426.5 L203.2,411.7 L207.8,400.2 L213.0,389.6 L218.8,378.9 L224.6,369.3 L230.3,360.5 L236.5,351.4 L242.5,342.4 L244.6,336.4 L245.2,328.8 L246.5,317.8 L248.2,311.3 L249.3,307.5 L251.5,299.3 L252.9,296.4 L255.4,292.1 L258.6,288.2 L260.9,285.6 L263.3,281.2 L264.3,277.8 L264.1,271.8 L263.1,265.3 L261.9,259.4 L260.8,252.8 L260.6,247.7 L261.5,245.1 L264.0,240.7 L266.0,237.3 L268.5,233.5 L271.3,228.5 L273.7,222.5 L275.0,216.9 L277.6,205.3 L280.0,196.7 L281.9,188.5 L284.0,182.9 L286.5,175.1 L289.3,166.6 L290.3,163.5 L290.6,159.6 L289.5,155.1 L288.7,151.9 L287.1,148.9 L285.8,145.6 L285.2,141.0 L284.8,136.1 L285.3,130.8 L286.7,124.0 L286.3,120.7 L285.0,117.4 L283.2,113.2 L281.8,108.0 L280.9,104.5 L280.8,101.0 L281.4,97.9 L282.6,95.3 L275.3,98.4 Z" fill="#5a9540" stroke="none"/>
<path d="M739.5,106.7 L732.9,108.5 L729.6,111.8 L726.8,116.5 L724.1,130.4 L721.1,144.5 L716.6,159.7 L710.7,178.2 L703.9,194.6 L696.9,206.7 L689.2,218.0 L678.5,229.8 L667.9,241.1 L660.9,250.9 L657.2,258.2 L655.2,266.4 L655.8,273.5 L659.0,279.7 L663.5,285.2 L669.4,289.0 L676.6,291.6 L682.4,290.3 L686.8,286.8 L691.1,281.9 L694.7,275.5 L695.4,267.8 L694.9,259.7 L694.6,254.1 L695.5,249.0 L697.0,244.7 L699.1,241.5 L701.6,239.1 L704.0,237.6 L707.3,236.1 L709.9,235.2 L713.9,233.5 L717.1,231.2 L722.5,225.7 L726.4,220.4 L730.5,214.6 L734.5,207.5 L737.9,198.5 L744.4,184.5 L749.1,169.9 L750.8,162.3 L752.9,154.3 L755.7,143.5 L758.6,134.2 L760.2,127.3 L759.9,121.2 L756.0,115.6 L749.8,111.1 L745.8,108.6 L742.8,107.3 L739.5,106.7 Z" fill="#5a9540" stroke="none"/>
<path d="M599.4,365.5 L599.1,369.4 L597.8,372.1 L595.1,374.8 L592.0,376.9 L589.9,377.3 L596.4,378.7 L601.1,381.1 L602.3,384.6 L602.4,386.6 L603.9,383.9 L606.4,381.1 L611.5,378.1 L616.5,375.6 L621.0,373.1 L627.6,367.6 L632.4,362.4 L637.2,357.0 L640.7,351.9 L644.8,344.7 L648.3,337.7 L649.8,332.4 L650.1,326.5 L649.4,324.1 L647.3,321.6 L642.8,318.9 L638.2,316.5 L633.9,315.5 L629.6,314.7 L625.2,314.6 L621.1,316.5 L617.9,319.6 L613.7,325.5 L609.3,332.6 L605.6,338.7 L602.4,344.4 L600.2,349.7 L599.2,354.4 L599.0,359.6 L599.2,363.2 L599.4,365.5 Z" fill="#5a9540" stroke="none"/>
<path d="M489.9,387.1 L487.3,391.8 L486.9,395.8 L489.3,399.1 L499.1,404.8 L508.5,409.8 L521.5,416.2 L535.5,423.3 L541.1,426.2 L544.4,424.8 L547.4,421.1 L548.4,416.4 L546.5,412.9 L542.5,408.9 L537.3,405.5 L524.9,399.9 L514.1,394.2 L500.7,387.7 L496.0,385.5 L492.8,385.4 L489.9,387.1 Z" fill="#5a9540" stroke="none"/>
<path d="M239.0,488.3 L236.0,494.1 L234.1,496.9 L232.4,498.5 L229.6,499.2 L236.8,499.5 L241.5,501.5 L244.9,504.8 L245.8,502.4 L248.0,499.7 L251.4,497.3 L254.7,495.6 L259.0,494.5 L264.3,492.8 L269.6,490.3 L272.8,488.5 L276.9,484.2 L279.3,479.4 L282.7,471.7 L286.1,463.4 L288.9,455.4 L292.1,447.4 L297.4,436.4 L302.1,427.5 L306.8,420.8 L311.3,413.3 L319.4,399.1 L323.7,392.3 L325.5,387.2 L327.7,382.7 L331.4,372.9 L335.2,361.7 L340.7,347.3 L344.0,339.9 L348.5,326.8 L352.3,316.0 L355.4,307.1 L358.2,303.2 L362.0,299.5 L366.9,295.8 L373.2,291.8 L378.0,289.4 L382.1,287.3 L385.5,283.7 L392.5,275.4 L400.7,265.0 L408.8,255.4 L416.1,246.8 L425.1,237.5 L435.3,228.4 L445.7,219.5 L456.5,211.3 L472.4,199.5 L480.6,193.6 L487.7,187.0 L489.1,182.2 L489.1,176.9 L487.6,172.7 L485.4,169.5 L482.0,166.2 L478.5,164.6 L475.2,163.6 L471.1,163.9 L465.5,165.5 L459.2,168.9 L450.3,175.0 L442.8,180.7 L435.8,186.0 L428.9,191.6 L421.4,196.9 L414.0,201.6 L403.7,209.2 L395.0,215.5 L386.1,221.4 L380.7,226.3 L375.8,233.6 L372.7,241.2 L370.7,247.4 L369.1,254.3 L367.3,260.0 L365.1,264.0 L361.5,267.7 L357.2,270.0 L351.2,272.2 L346.3,274.7 L341.6,277.9 L336.1,281.4 L329.8,288.3 L325.4,295.8 L321.3,303.0 L316.5,311.4 L312.3,317.9 L306.3,326.6 L302.2,334.0 L299.5,341.0 L297.9,348.0 L297.6,354.9 L297.4,362.0 L296.9,369.2 L295.5,374.1 L292.4,379.8 L288.8,385.1 L284.0,391.1 L279.6,395.5 L275.2,399.5 L271.5,404.4 L266.7,412.2 L263.8,420.2 L260.9,430.9 L259.2,439.4 L256.3,448.7 L251.9,460.5 L247.6,469.6 L244.5,477.3 L241.4,483.3 L239.0,488.3 Z" fill="#5a9540" stroke="none"/>
<path d="M259.5,356.5 L248.6,369.3 L243.4,374.7 L239.2,381.5 L235.8,389.7 L232.2,399.9 L226.3,406.9 L218.4,418.8 L212.7,428.4 L206.9,438.1 L198.4,459.2 L198.9,467.2 L205.7,471.3 L211.5,471.0 L222.0,464.3 L233.0,463.5 L239.0,461.5 L245.4,454.9 L248.4,449.4 L249.0,439.7 L247.6,430.4 L246.0,421.0 L250.6,407.3 L256.5,396.0 L266.1,392.5 L271.5,388.4 L277.5,381.5 L284.4,371.5 L283.6,364.0 L279.3,360.4 L272.4,358.6 L265.8,357.2 L259.5,356.5 Z" fill="#2e5577" stroke="none"/>
<path d="M383.6,92.4 L375.5,100.1 L370.2,111.0 L369.5,124.2 L371.8,132.4 L378.6,137.8 L387.5,138.0 L399.9,136.5 L411.7,134.9 L420.1,130.3 L423.8,123.6 L424.8,113.4 L422.2,108.5 L413.4,101.0 L407.3,97.2 L395.4,94.5 L388.7,92.9 L383.6,92.4 Z" fill="#2e5577" stroke="none"/>
<path d="M745.2,421.0 L751.6,420.6 L762.7,422.4 L772.4,424.7 L772.0,419.8 L769.9,415.4 L765.0,409.5 L758.4,401.4 L751.9,393.6 L747.8,386.7 L743.9,395.0 L742.4,403.3 L745.2,421.0 Z" fill="#2e5577" stroke="none"/>
<path d="M741.5,422.5 L734.4,431.7 L731.1,442.7 L729.9,456.0 L727.3,461.4 L719.2,464.9 L712.3,462.5 L705.8,457.1 L701.5,452.5 L696.1,452.2 L690.7,453.4 L681.8,452.7 L673.1,449.5 L666.4,448.0 L659.2,448.5 L651.4,448.8 L643.8,445.9 L630.1,438.8 L622.5,437.8 L611.5,435.2 L602.1,429.8 L599.2,425.6 L601.3,419.7 L604.4,415.4 L609.6,416.5 L619.1,417.6 L625.8,415.3 L633.9,409.5 L640.4,400.6 L644.8,393.9 L653.6,370.6 L664.2,347.6 L673.5,324.5 L698.2,341.1 L717.7,342.4 L726.8,333.6 L737.9,321.0 L743.1,290.8 L768.0,287.7 L753.8,329.8 L748.1,347.7 L745.9,366.7 L744.4,377.4 L745.5,383.7 L740.6,395.4 L739.8,404.0 L741.5,422.5 Z" fill="#2e5577" stroke="none"/>
<path d="M21.8,316.5 L20.0,317.6 L19.6,319.3 L19.7,321.2 L18.7,323.3 L18.9,324.7 L19.1,326.9 L18.4,329.9 L18.9,332.6 L18.5,335.7 L19.0,337.8 L20.6,340.5 L23.2,343.0 L25.9,343.2 L28.5,343.8 L30.9,341.4 L31.6,339.6 L31.1,335.5 L29.5,334.2 L28.4,331.9 L29.0,329.3 L30.7,327.7 L32.0,326.4 L33.6,324.2 L33.7,322.4 L32.3,320.3 L31.8,317.9 L29.5,316.6 L27.7,317.0 L25.8,318.1 L23.3,317.5 L21.8,316.5 Z" fill="#e7d6a3" stroke="none"/>
<path d="M56.5,124.2 L55.4,126.0 L54.3,127.9 L52.6,129.2 L51.5,130.5 L51.3,132.1 L51.9,133.8 L52.9,135.6 L53.6,137.7 L54.6,138.9 L56.0,139.5 L57.4,140.7 L58.7,143.4 L59.8,144.9 L62.0,145.4 L63.9,144.7 L65.3,142.9 L65.8,140.3 L66.7,138.3 L67.1,135.0 L66.2,133.7 L64.4,134.0 L62.4,133.9 L60.8,132.4 L60.3,130.3 L61.0,128.4 L61.9,127.2 L61.8,126.1 L60.7,125.2 L59.7,124.0 L57.7,124.0 L56.5,124.2 Z" fill="#e7d6a3" stroke="none"/>
<path d="M115.0,125.1 L113.9,126.0 L113.7,127.7 L112.0,128.5 L109.6,128.4 L107.5,127.3 L106.1,126.4 L104.7,126.8 L102.5,128.3 L100.8,129.4 L100.1,131.5 L100.5,133.6 L101.9,135.5 L102.8,138.3 L104.3,141.5 L106.8,143.2 L109.2,143.7 L112.3,142.0 L114.1,139.9 L115.9,137.2 L117.3,135.1 L119.7,133.8 L120.9,133.1 L121.3,131.3 L121.2,128.4 L121.1,126.1 L120.1,125.0 L119.1,124.6 L116.9,124.8 L115.4,124.8 L115.0,125.1 Z" fill="#e7d6a3" stroke="none"/>
<path d="M151.9,11.8 L150.0,12.5 L147.8,12.1 L146.5,11.1 L145.6,10.3 L143.0,11.4 L141.3,12.1 L141.8,13.6 L142.4,15.1 L141.9,16.6 L140.6,18.1 L140.7,19.3 L141.9,20.0 L143.3,20.6 L144.4,21.5 L146.5,22.0 L148.0,22.8 L149.1,24.2 L150.3,26.0 L151.9,27.0 L153.7,26.9 L154.8,25.6 L155.3,24.3 L155.0,22.7 L155.5,21.2 L156.8,20.2 L157.5,19.1 L157.6,17.9 L157.1,16.4 L157.4,14.7 L158.1,12.9 L157.8,11.4 L157.0,9.9 L156.4,9.4 L154.7,9.4 L153.5,9.8 L152.8,10.8 L152.6,11.2 L151.9,11.8 Z" fill="#e7d6a3" stroke="none"/>
<path d="M476.1,-81.7 L474.0,-80.7 L471.7,-80.0 L470.1,-78.4 L469.6,-77.1 L470.1,-75.6 L473.8,-73.9 L474.3,-72.6 L474.9,-71.4 L477.1,-70.4 L478.6,-69.6 L480.6,-69.9 L482.1,-71.5 L485.4,-72.5 L488.0,-72.5 L490.6,-74.1 L491.9,-76.4 L491.9,-78.4 L491.3,-79.7 L491.2,-81.1 L490.8,-82.0 L489.9,-83.3 L489.5,-84.0 L488.6,-84.7 L486.5,-85.5 L485.0,-85.1 L483.8,-84.0 L482.0,-82.6 L480.4,-82.0 L478.5,-81.7 L477.4,-81.9 L476.1,-81.7 Z" fill="#e7d6a3" stroke="none"/>
<path d="M479.0,-52.0 L476.7,-49.8 L476.6,-47.7 L475.7,-45.4 L475.1,-43.9 L475.5,-42.2 L476.1,-41.3 L477.0,-40.6 L478.7,-40.2 L479.7,-39.1 L481.6,-39.0 L484.5,-39.9 L487.3,-41.0 L489.9,-40.8 L492.8,-40.3 L496.6,-39.8 L498.2,-40.7 L499.0,-42.2 L498.6,-45.6 L498.1,-46.3 L495.4,-48.2 L493.5,-48.0 L491.1,-48.4 L489.4,-49.5 L486.5,-51.7 L485.3,-51.5 L483.0,-50.8 L481.3,-50.5 L480.2,-51.2 L479.5,-51.9 L479.0,-52.0 Z" fill="#e7d6a3" stroke="none"/>
<path d="M248.3,-84.2 L246.0,-81.2 L244.7,-78.4 L244.9,-77.1 L246.5,-76.1 L248.8,-74.7 L251.6,-74.3 L254.7,-73.1 L257.6,-73.2 L258.2,-73.6 L259.5,-76.2 L261.3,-76.9 L262.7,-77.3 L263.6,-78.4 L263.4,-80.4 L261.0,-82.6 L260.8,-83.4 L259.9,-84.1 L257.5,-84.1 L254.9,-84.2 L253.0,-85.1 L251.4,-85.2 L249.9,-84.8 L248.3,-84.2 Z" fill="#e7d6a3" stroke="none"/>
<path d="M283.0,-71.8 L281.8,-69.8 L281.0,-68.1 L281.4,-66.9 L282.4,-66.5 L283.9,-66.0 L284.6,-65.2 L285.1,-64.3 L285.2,-62.6 L285.9,-61.7 L287.1,-61.4 L291.4,-63.9 L291.7,-65.1 L291.4,-66.5 L289.8,-69.3 L287.7,-72.4 L286.7,-72.3 L285.5,-72.0 L284.2,-72.1 L283.0,-71.8 Z" fill="#e7d6a3" stroke="none"/>
<path d="M277.9,-49.8 L274.4,-49.8 L272.8,-50.1 L271.1,-48.7 L270.5,-46.6 L270.9,-44.8 L270.6,-42.3 L271.7,-39.9 L273.1,-39.4 L275.4,-39.4 L278.1,-38.5 L280.2,-39.3 L283.8,-39.1 L285.0,-39.4 L287.1,-41.8 L287.2,-42.5 L286.0,-44.4 L285.5,-47.2 L283.9,-48.4 L282.4,-49.6 L280.9,-49.5 L279.2,-49.5 L277.9,-49.8 Z" fill="#e7d6a3" stroke="none"/>
<path d="M257.3,-46.5 L256.2,-45.1 L255.6,-42.9 L254.4,-40.6 L252.6,-38.9 L250.7,-37.9 L248.5,-37.5 L246.6,-35.2 L245.3,-33.5 L245.6,-31.6 L247.5,-30.7 L248.8,-29.3 L250.4,-29.1 L254.1,-29.9 L257.4,-31.5 L260.7,-33.5 L262.8,-34.2 L264.3,-34.4 L264.7,-35.1 L263.7,-36.6 L264.5,-37.7 L265.8,-39.7 L265.6,-40.7 L264.4,-42.2 L264.3,-44.5 L264.4,-46.8 L263.4,-47.5 L262.6,-47.4 L261.0,-46.9 L259.7,-47.2 L258.3,-47.0 L257.3,-46.5 Z" fill="#e7d6a3" stroke="none"/>
<path d="M86.9,322.3 L83.8,325.4 L83.8,327.4 L84.8,330.2 L84.7,332.7 L83.1,335.3 L83.5,337.2 L83.5,339.5 L84.8,340.4 L86.2,340.7 L86.8,343.2 L86.4,345.9 L86.5,347.4 L85.5,348.5 L87.1,351.6 L89.9,353.1 L91.3,353.3 L92.6,353.7 L94.0,353.2 L96.7,347.6 L96.3,346.4 L94.6,342.4 L95.5,338.9 L94.6,334.4 L94.0,333.3 L93.7,331.7 L93.4,325.9 L91.2,323.1 L89.0,322.2 L86.9,322.3 Z" fill="#e7d6a3" stroke="none"/>
<path d="M140.0,325.4 L139.4,326.5 L137.2,328.4 L136.7,331.5 L135.9,334.0 L135.8,335.9 L137.2,337.3 L137.5,340.9 L136.6,342.1 L135.7,343.3 L135.5,344.3 L136.8,346.3 L137.3,347.8 L137.5,350.3 L138.9,351.1 L141.0,351.3 L142.6,348.7 L143.4,347.8 L145.2,347.7 L146.4,346.9 L147.7,340.8 L146.5,337.4 L147.2,335.4 L149.5,332.3 L149.6,331.0 L148.8,326.6 L145.5,325.8 L141.7,325.0 L140.0,325.4 Z" fill="#e7d6a3" stroke="none"/>
<path d="M103.6,398.1 L101.9,399.5 L100.1,400.2 L97.3,400.9 L96.1,402.0 L95.4,403.8 L94.2,406.4 L94.2,409.8 L95.3,410.7 L97.6,410.7 L98.8,409.4 L99.9,408.6 L101.4,408.7 L103.0,409.2 L104.4,408.2 L105.5,406.7 L107.5,406.1 L108.8,405.5 L110.5,403.6 L110.6,401.1 L109.8,398.3 L108.3,396.5 L106.3,396.4 L104.6,397.3 L103.6,398.1 Z" fill="#e7d6a3" stroke="none"/>
<path d="M260.8,302.0 L256.7,303.4 L254.4,307.8 L254.2,310.4 L253.1,313.4 L252.9,317.6 L252.5,319.3 L250.4,323.2 L251.5,328.9 L253.7,329.7 L258.8,330.5 L260.8,329.6 L261.1,326.8 L261.8,324.4 L260.2,321.2 L259.8,319.3 L260.5,317.9 L263.2,316.2 L263.3,313.3 L263.5,307.2 L262.7,303.3 L262.0,302.4 L260.8,302.0 Z" fill="#e7d6a3" stroke="none"/>
<path d="M218.7,263.6 L216.8,265.0 L216.2,266.9 L215.4,269.6 L213.7,272.3 L213.6,276.1 L213.1,278.2 L211.9,279.7 L210.7,280.7 L208.8,283.4 L208.9,285.5 L210.0,286.9 L211.6,288.2 L211.9,289.0 L213.2,289.6 L214.5,289.7 L216.4,290.5 L217.9,290.2 L218.9,289.1 L219.4,286.9 L220.7,285.4 L221.4,283.3 L223.1,281.1 L224.4,276.8 L224.9,272.2 L225.5,271.1 L225.5,268.7 L225.9,266.6 L225.4,264.3 L224.5,263.6 L222.8,262.6 L221.6,263.1 L220.3,263.6 L218.7,263.6 Z" fill="#e7d6a3" stroke="none"/>
<path d="M268.1,247.1 L266.6,248.0 L265.7,249.8 L265.5,253.6 L267.1,255.9 L267.1,260.6 L268.5,262.5 L269.2,264.4 L274.2,264.4 L275.5,263.2 L275.9,261.3 L275.9,259.0 L275.6,257.3 L274.5,257.2 L274.1,256.1 L274.2,252.2 L275.6,250.4 L275.5,249.8 L275.1,249.3 L274.6,248.0 L273.7,247.2 L271.9,247.0 L269.3,246.9 L268.1,247.1 Z" fill="#e7d6a3" stroke="none"/>
<path d="M289.5,133.6 L289.5,135.0 L290.5,138.7 L290.3,142.6 L290.2,144.6 L290.8,146.2 L293.8,148.3 L294.9,148.5 L296.0,147.5 L299.3,146.2 L300.9,142.3 L301.2,139.0 L302.7,137.5 L303.4,135.6 L302.6,134.2 L302.1,131.1 L301.2,130.2 L299.6,129.4 L297.7,128.8 L296.3,128.6 L295.2,128.7 L294.1,129.7 L292.3,130.1 L291.3,131.3 L290.3,132.6 L289.5,133.6 Z" fill="#e7d6a3" stroke="none"/>
<path d="M251.7,90.5 L250.5,92.1 L249.3,94.1 L249.6,96.6 L250.0,99.5 L251.0,100.6 L251.8,102.0 L252.0,104.0 L251.1,106.5 L251.8,108.4 L253.1,110.3 L253.1,112.5 L254.0,113.1 L257.4,113.7 L258.7,113.5 L259.8,112.4 L261.6,110.6 L263.3,109.9 L264.0,109.1 L264.5,108.1 L265.2,105.3 L266.0,103.7 L266.2,101.9 L265.7,100.5 L264.8,99.5 L263.2,98.7 L261.5,98.1 L260.1,97.5 L259.0,96.2 L258.5,94.2 L257.5,91.7 L256.5,90.5 L254.6,90.3 L252.8,90.4 L251.7,90.5 Z" fill="#e7d6a3" stroke="none"/>
<path d="M285.8,99.5 L284.7,100.6 L283.9,101.7 L283.6,104.0 L283.7,106.3 L284.4,108.7 L285.3,110.0 L288.1,111.7 L289.9,112.1 L291.9,111.7 L293.2,110.9 L295.8,107.9 L296.8,106.2 L296.6,105.0 L296.0,103.5 L294.9,102.0 L293.2,101.9 L291.4,101.5 L290.1,100.8 L289.5,100.0 L288.7,99.5 L287.5,99.3 L286.4,99.4 L285.8,99.5 Z" fill="#e7d6a3" stroke="none"/>
<path d="M291.3,84.6 L290.4,85.5 L289.5,87.2 L289.7,90.8 L289.2,92.2 L289.1,93.5 L289.5,94.8 L290.2,95.5 L292.3,96.1 L293.5,96.8 L294.6,97.1 L295.9,96.8 L298.0,94.8 L298.1,93.0 L297.6,91.9 L297.7,91.0 L297.5,89.9 L296.5,89.0 L295.7,88.1 L295.8,87.1 L295.4,86.1 L294.7,85.3 L293.6,84.9 L292.3,84.6 L291.3,84.6 Z" fill="#e7d6a3" stroke="none"/>
<path d="M495.6,-1.8 L492.2,-0.1 L489.5,2.7 L488.5,5.7 L488.8,8.7 L490.0,10.7 L492.5,12.2 L496.3,13.9 L498.4,13.7 L500.0,14.2 L502.6,14.5 L504.2,13.5 L505.7,11.3 L505.9,9.9 L505.9,5.4 L506.3,2.7 L505.7,0.5 L505.2,-0.7 L503.9,-1.7 L502.6,-2.3 L501.4,-1.9 L499.7,-2.0 L497.6,-2.3 L495.6,-1.8 Z" fill="#e7d6a3" stroke="none"/>
<path d="M514.1,0.4 L512.3,2.8 L512.0,4.2 L512.2,6.9 L511.3,9.5 L512.0,12.7 L513.9,15.2 L516.8,16.2 L521.4,15.8 L522.8,16.3 L524.3,16.8 L526.2,16.9 L528.8,18.3 L530.0,18.6 L531.9,18.0 L534.0,16.4 L534.8,14.9 L534.8,12.2 L534.1,11.5 L532.6,10.5 L531.5,8.6 L530.0,7.6 L527.5,7.5 L525.1,6.1 L524.6,4.5 L522.6,1.9 L521.6,0.9 L519.7,0.1 L517.7,-0.1 L515.2,-0.0 L514.1,0.4 Z" fill="#e7d6a3" stroke="none"/>
<path d="M527.4,-7.7 L527.2,-6.5 L528.5,-2.1 L530.0,-1.2 L534.0,0.5 L537.0,1.0 L539.3,3.0 L542.0,4.8 L544.9,6.2 L547.6,7.0 L550.1,9.1 L554.2,9.3 L555.7,8.0 L557.6,7.2 L557.7,5.4 L559.3,3.3 L559.2,2.1 L558.4,1.2 L555.6,-1.4 L554.8,-3.8 L554.1,-5.2 L552.6,-6.3 L550.6,-6.9 L547.5,-7.5 L545.4,-7.6 L544.1,-7.0 L542.3,-7.0 L541.1,-7.2 L539.4,-8.3 L537.0,-9.2 L533.3,-10.6 L531.5,-10.5 L529.8,-9.8 L528.7,-9.1 L528.1,-8.6 L527.4,-7.7 Z" fill="#e7d6a3" stroke="none"/>
<path d="M512.1,65.8 L509.4,66.7 L506.7,67.5 L505.5,68.6 L505.6,71.2 L506.8,72.7 L509.9,74.5 L513.3,75.9 L516.3,76.6 L518.0,78.3 L521.6,80.1 L523.3,80.1 L525.6,80.7 L526.3,80.0 L528.2,76.6 L528.5,75.0 L528.0,73.5 L527.1,72.5 L525.8,71.9 L523.3,71.1 L521.2,71.5 L519.4,70.8 L517.9,69.1 L516.3,67.8 L515.0,67.0 L514.2,66.0 L513.2,65.8 L512.1,65.8 Z" fill="#e7d6a3" stroke="none"/>
<path d="M574.7,50.8 L572.2,53.7 L569.5,55.8 L568.0,56.5 L566.5,56.7 L564.7,57.9 L564.0,58.9 L563.6,63.1 L565.0,65.3 L567.6,66.0 L570.9,67.4 L573.4,67.9 L575.4,68.8 L576.8,68.8 L578.2,68.0 L579.1,66.8 L580.5,63.9 L581.1,62.8 L581.5,61.3 L581.2,60.1 L580.3,58.3 L580.1,56.7 L580.0,55.2 L580.6,53.7 L580.6,52.4 L580.1,51.4 L578.5,50.7 L575.6,50.6 L574.7,50.8 Z" fill="#e7d6a3" stroke="none"/>
<path d="M591.9,42.3 L588.7,43.8 L586.6,48.0 L587.4,54.3 L586.7,59.4 L589.8,62.1 L592.7,61.5 L594.6,56.8 L594.4,53.4 L595.6,51.1 L596.9,50.3 L597.8,48.9 L598.2,47.6 L596.3,45.5 L596.5,43.0 L595.4,42.3 L593.6,42.1 L591.9,42.3 Z" fill="#e7d6a3" stroke="none"/>
<path d="M707.9,242.3 L704.7,245.3 L703.7,249.9 L704.1,251.0 L706.5,251.4 L708.7,252.9 L710.1,252.9 L711.3,252.0 L713.3,249.3 L715.9,248.1 L717.3,248.4 L719.4,248.1 L720.5,246.9 L721.4,244.5 L723.2,238.8 L722.8,237.9 L721.0,237.0 L718.7,237.1 L716.8,238.5 L714.1,240.4 L711.2,242.2 L707.9,242.3 Z" fill="#e7d6a3" stroke="none"/>
<path d="M608.0,384.9 L606.6,388.0 L607.5,391.0 L609.1,391.7 L610.7,392.9 L613.7,392.7 L616.4,393.3 L618.2,389.6 L618.0,387.2 L620.4,382.0 L619.0,380.6 L616.4,380.8 L614.3,382.1 L612.7,383.6 L611.6,384.7 L609.3,384.7 L608.0,384.9 Z" fill="#e7d6a3" stroke="none"/>
<path d="M601.0,398.5 L597.6,403.1 L597.6,405.9 L598.7,407.0 L599.5,409.0 L600.4,409.4 L601.6,409.4 L604.2,407.4 L606.9,408.0 L608.1,407.9 L612.3,404.5 L612.7,402.9 L611.5,399.9 L609.3,399.4 L606.0,398.1 L604.4,398.6 L602.9,398.8 L601.0,398.5 Z" fill="#e7d6a3" stroke="none"/>
<path d="M572.6,367.9 L571.5,369.5 L567.4,372.5 L566.4,374.6 L564.6,376.2 L565.3,379.2 L566.0,380.1 L567.6,380.3 L568.9,381.0 L569.9,380.8 L573.1,378.9 L575.0,377.3 L576.3,376.4 L579.2,375.1 L579.7,374.4 L579.9,373.3 L580.5,372.5 L581.6,371.9 L583.2,371.4 L585.0,371.4 L586.4,371.8 L587.4,372.8 L588.9,373.2 L590.5,372.1 L591.6,371.9 L592.7,371.8 L593.3,371.4 L594.3,369.3 L594.1,367.9 L593.5,366.1 L592.9,364.3 L591.4,363.5 L588.4,362.6 L585.5,362.1 L584.1,361.9 L582.9,361.4 L581.6,361.5 L580.6,361.8 L579.4,362.3 L577.2,362.6 L575.7,363.5 L574.8,364.5 L574.5,366.6 L572.6,367.9 Z" fill="#e7d6a3" stroke="none"/>
<path d="M660.2,455.3 L660.2,456.6 L658.8,459.1 L658.9,460.0 L660.2,461.5 L661.3,462.3 L662.3,464.0 L663.0,465.7 L665.3,466.1 L666.0,466.4 L666.9,466.3 L667.7,465.2 L667.6,463.6 L667.7,462.5 L669.2,461.0 L669.9,460.8 L670.8,459.5 L670.9,458.5 L670.6,456.9 L669.6,456.0 L668.8,455.6 L667.3,455.5 L666.0,455.3 L664.3,454.7 L663.4,454.3 L662.6,454.4 L661.8,454.8 L661.5,455.2 L660.6,455.1 L660.2,455.3 Z" fill="#e7d6a3" stroke="none"/>
<path d="M657.0,475.8 L656.8,476.7 L657.1,478.6 L656.6,479.2 L654.6,480.0 L654.0,480.7 L653.8,483.0 L653.0,484.2 L652.0,484.9 L651.8,486.7 L652.5,488.5 L654.0,489.6 L655.4,490.7 L656.3,490.8 L657.2,490.6 L657.8,490.1 L658.0,488.4 L659.4,487.0 L660.5,485.8 L661.5,484.2 L664.7,482.0 L665.4,481.8 L666.6,481.1 L666.8,480.1 L666.9,478.1 L666.3,477.3 L665.7,476.7 L664.8,476.3 L663.0,476.1 L662.4,476.0 L661.5,475.8 L659.5,475.9 L658.9,475.6 L658.0,475.7 L657.5,475.7 L657.0,475.8 Z" fill="#e7d6a3" stroke="none"/>
<path d="M663.4,492.0 L663.3,493.9 L663.8,495.2 L663.9,496.5 L664.5,497.8 L665.2,498.3 L665.7,498.4 L668.6,498.6 L669.6,499.2 L670.5,500.1 L671.4,500.0 L672.7,498.8 L673.2,498.3 L673.5,497.3 L673.6,496.7 L673.7,495.5 L673.0,494.6 L672.4,493.6 L671.9,492.4 L672.0,491.5 L672.4,490.9 L672.2,490.3 L672.1,489.4 L671.9,488.5 L671.3,487.9 L670.4,487.3 L669.7,487.1 L668.5,487.6 L667.8,488.5 L667.2,489.7 L666.5,490.4 L665.2,491.1 L664.0,491.6 L663.4,492.0 Z" fill="#e7d6a3" stroke="none"/>
<path d="M691.8,548.9 L691.1,550.3 L691.2,551.8 L693.1,553.6 L693.8,554.6 L695.2,555.0 L696.8,555.3 L697.9,555.8 L698.8,555.5 L699.7,554.7 L700.3,553.7 L700.2,552.0 L700.1,550.6 L700.8,548.2 L700.4,547.2 L699.6,546.1 L698.4,545.0 L697.2,544.5 L695.9,545.0 L693.8,546.7 L692.7,547.8 L691.8,548.9 Z" fill="#e7d6a3" stroke="none"/>
<path d="M717.5,522.2 L716.7,523.5 L716.6,525.4 L716.3,526.6 L714.1,529.7 L714.1,530.6 L714.8,531.9 L715.1,533.4 L715.9,534.0 L717.5,533.8 L719.3,533.1 L720.1,532.1 L720.6,530.9 L721.7,530.6 L723.1,530.5 L724.2,529.7 L724.4,528.3 L724.0,526.9 L723.6,525.3 L723.2,524.3 L722.4,523.0 L722.4,521.9 L722.0,521.3 L721.2,521.1 L720.8,522.1 L719.9,522.7 L718.9,522.6 L718.1,522.1 L717.5,522.2 Z" fill="#e7d6a3" stroke="none"/>
<path d="M731.2,510.9 L730.7,512.3 L730.6,514.6 L729.5,517.2 L728.3,518.5 L727.7,519.2 L728.5,521.6 L729.1,523.8 L730.3,526.0 L731.8,527.1 L732.3,528.4 L734.2,528.6 L734.9,527.8 L735.6,526.7 L736.7,526.4 L737.8,526.5 L740.1,525.4 L740.6,524.2 L742.2,521.4 L742.5,519.3 L741.8,518.6 L739.7,517.3 L738.3,516.0 L737.2,514.8 L736.7,513.1 L734.8,512.0 L732.8,510.8 L731.8,510.7 L731.2,510.9 Z" fill="#e7d6a3" stroke="none"/>
<path d="M486.4,479.9 L485.3,481.3 L484.8,482.6 L485.3,484.2 L486.1,485.7 L488.2,485.8 L489.4,486.4 L490.0,487.4 L490.1,489.1 L489.4,490.8 L489.8,492.0 L490.3,492.6 L491.8,492.4 L494.5,492.9 L496.3,491.7 L498.0,491.0 L499.1,488.7 L499.8,488.0 L501.1,487.6 L501.8,486.8 L501.6,485.6 L500.7,484.3 L499.7,483.6 L498.3,483.0 L496.8,482.3 L495.4,482.6 L493.9,482.3 L492.8,481.7 L492.2,480.9 L491.1,479.3 L487.7,479.4 L486.4,479.9 Z" fill="#e7d6a3" stroke="none"/>
<path d="M519.4,470.3 L517.9,472.4 L517.5,473.9 L517.8,474.8 L520.6,477.8 L521.8,479.0 L524.0,479.2 L525.6,478.4 L528.2,476.3 L529.3,476.2 L531.0,476.8 L533.4,476.6 L534.9,477.2 L535.8,476.9 L536.9,475.6 L538.0,474.1 L537.9,472.0 L538.2,469.8 L537.2,468.8 L537.1,468.0 L535.5,467.2 L534.1,467.2 L533.2,467.9 L532.1,468.2 L530.5,467.7 L529.4,466.7 L528.7,465.2 L528.0,463.6 L524.9,462.8 L522.2,462.6 L520.9,464.0 L519.4,465.6 L519.6,466.4 L520.3,467.8 L520.1,469.1 L519.4,470.3 Z" fill="#e7d6a3" stroke="none"/>
<path d="M544.2,211.1 L542.1,211.9 L539.6,212.0 L538.0,213.7 L537.7,215.8 L537.9,218.0 L539.8,219.2 L540.8,219.9 L542.0,221.3 L543.4,221.8 L546.1,221.7 L548.2,221.0 L550.7,220.9 L553.5,221.0 L555.6,220.3 L557.6,219.0 L558.7,218.2 L560.1,216.1 L560.2,214.5 L559.3,211.9 L559.6,210.8 L559.4,209.6 L558.6,209.1 L556.8,209.3 L554.8,209.2 L552.2,209.8 L551.1,211.8 L550.0,212.7 L548.5,213.2 L546.8,212.9 L545.3,211.8 L544.2,211.1 Z" fill="#e7d6a3" stroke="none"/>
<path d="M625.1,145.0 L623.0,146.4 L621.9,147.9 L620.7,149.0 L620.8,150.8 L622.0,151.8 L623.6,152.3 L625.6,152.6 L630.4,152.4 L631.4,151.4 L632.2,150.3 L632.7,147.8 L632.5,146.9 L631.7,146.0 L630.6,144.9 L629.3,145.0 L627.9,145.2 L626.4,145.0 L625.1,145.0 Z" fill="#e7d6a3" stroke="none"/>
<path d="M647.2,149.1 L646.5,150.4 L644.9,151.5 L645.0,154.1 L644.4,156.5 L645.5,158.3 L647.1,159.3 L648.9,158.8 L650.9,157.6 L651.3,156.5 L651.2,154.5 L652.6,152.6 L652.7,151.3 L651.6,150.3 L650.7,149.5 L649.6,148.7 L648.0,148.6 L647.2,149.1 Z" fill="#e7d6a3" stroke="none"/>
<path d="M680.1,111.0 L679.3,111.8 L678.7,112.7 L677.2,113.7 L676.6,115.2 L676.0,116.9 L675.0,118.0 L673.8,118.5 L672.8,118.5 L671.1,119.3 L668.6,120.4 L667.2,121.4 L667.0,122.4 L667.1,124.4 L668.7,125.4 L669.7,127.0 L670.5,127.4 L672.0,126.8 L674.5,126.6 L675.0,126.3 L676.3,124.9 L677.4,124.7 L680.0,124.7 L681.6,124.8 L683.2,124.0 L684.7,123.1 L686.6,121.1 L686.8,119.7 L686.3,118.6 L686.5,117.3 L687.5,115.7 L687.6,114.6 L686.8,113.1 L685.3,112.9 L683.7,112.2 L682.8,111.1 L682.2,110.5 L680.9,110.5 L680.1,111.0 Z" fill="#e7d6a3" stroke="none"/>
<path d="M644.8,100.3 L643.6,103.2 L641.7,105.3 L641.0,106.9 L639.4,108.5 L638.4,109.8 L637.8,110.8 L637.3,112.0 L637.5,112.8 L638.2,113.3 L638.9,113.1 L639.9,113.0 L640.6,113.7 L641.7,115.0 L643.3,115.2 L645.7,115.4 L647.0,115.8 L648.5,115.7 L649.8,115.3 L650.5,114.1 L651.7,112.4 L652.3,110.7 L652.8,108.2 L651.9,107.1 L651.0,106.6 L650.5,105.8 L650.4,104.5 L650.8,103.4 L651.6,102.4 L651.9,101.4 L652.9,100.2 L653.7,98.5 L654.2,95.7 L653.7,94.6 L653.0,93.2 L652.2,92.9 L651.0,92.9 L649.9,92.7 L649.0,92.4 L648.0,92.8 L647.0,94.0 L646.3,95.6 L645.0,96.9 L645.1,99.3 L644.8,100.3 Z" fill="#e7d6a3" stroke="none"/>
<path d="M356.7,235.0 L355.2,236.4 L354.4,239.4 L354.0,240.9 L354.6,242.7 L356.1,244.8 L355.5,247.1 L354.5,249.1 L351.7,250.7 L351.0,251.4 L350.6,253.2 L351.5,254.5 L351.5,258.8 L352.3,260.1 L358.0,261.2 L359.8,260.4 L360.8,258.6 L361.4,257.1 L362.4,255.8 L362.7,253.7 L363.2,252.3 L362.9,250.6 L363.4,248.9 L363.8,246.6 L366.0,244.3 L366.7,242.0 L366.7,239.8 L366.1,237.2 L364.4,236.3 L363.1,234.9 L359.9,234.4 L357.8,234.7 L356.7,235.0 Z" fill="#e7d6a3" stroke="none"/>
<path d="M367.0,300.8 L364.4,303.8 L362.9,306.1 L362.8,307.9 L363.7,309.3 L365.4,310.3 L367.5,309.5 L368.5,309.4 L370.1,309.4 L370.9,308.8 L371.4,307.8 L372.0,306.1 L373.6,304.6 L375.1,303.7 L377.2,303.0 L378.5,302.0 L379.9,300.2 L379.5,298.6 L378.5,296.7 L376.8,296.1 L376.0,295.8 L373.3,296.7 L371.5,297.7 L371.0,298.8 L370.0,299.8 L368.8,300.5 L367.7,300.7 L367.0,300.8 Z" fill="#e7d6a3" stroke="none"/>
<path d="M228.4,476.7 L227.5,478.9 L226.1,480.7 L225.3,481.5 L225.2,482.6 L225.9,483.7 L225.9,485.1 L225.1,487.1 L224.2,488.2 L224.5,489.2 L223.7,492.3 L224.2,493.5 L225.9,495.7 L227.1,496.3 L228.6,496.3 L231.7,495.1 L232.3,493.7 L232.6,492.3 L232.2,491.0 L232.5,489.1 L233.5,487.7 L234.7,486.9 L236.0,486.4 L236.4,485.2 L237.1,483.2 L237.3,481.7 L236.9,480.5 L236.2,479.6 L235.2,478.5 L234.5,477.6 L233.6,476.8 L232.3,476.0 L230.7,475.8 L229.4,476.1 L228.8,476.4 L228.4,476.7 Z" fill="#e7d6a3" stroke="none"/>
<path d="M210.6,497.0 L208.8,499.1 L208.6,499.9 L209.1,501.1 L209.1,502.1 L208.1,504.2 L206.7,506.5 L206.5,508.5 L207.6,509.6 L209.6,510.8 L211.6,510.1 L212.5,508.1 L213.3,505.6 L215.5,503.3 L216.4,502.6 L216.5,501.7 L216.2,500.7 L216.3,499.1 L216.3,498.2 L215.4,497.0 L212.7,496.8 L210.6,497.0 Z" fill="#e7d6a3" stroke="none"/>
<path d="M249.1,502.2 L248.6,503.3 L248.5,504.3 L249.6,506.3 L249.7,508.5 L250.6,509.6 L251.9,511.6 L252.6,512.0 L254.1,511.7 L255.7,510.9 L258.1,510.3 L259.9,509.2 L263.9,509.4 L266.0,507.8 L267.5,506.9 L268.2,506.0 L268.8,502.2 L268.8,500.8 L267.8,499.5 L266.7,498.7 L265.5,497.9 L263.6,497.9 L261.9,498.8 L260.8,500.0 L259.0,500.1 L257.4,499.8 L255.2,499.9 L253.3,499.2 L252.4,499.8 L251.7,500.5 L250.3,501.5 L249.1,502.2 Z" fill="#e7d6a3" stroke="none"/>
<path d="M251.6,518.1 L250.0,519.4 L249.4,520.5 L249.8,521.9 L249.9,525.8 L250.7,526.6 L251.7,526.8 L253.3,525.9 L255.7,525.9 L256.6,526.0 L258.4,524.9 L258.6,523.9 L260.5,522.2 L261.1,521.8 L261.9,520.8 L262.4,518.6 L263.2,517.3 L263.0,515.8 L262.5,515.0 L261.6,514.2 L260.4,513.9 L258.3,514.0 L255.9,514.4 L253.9,515.0 L252.7,516.1 L252.1,517.3 L251.6,518.1 Z" fill="#e7d6a3" stroke="none"/>
<path d="M196.3,-20.4 L190.7,4.8 L198.5,7.3 L204.0,-18.4 L196.3,-20.4 Z" fill="#4f8a3e" stroke="none"/>
<path d="M206.7,-1.9 L205.2,12.3 L222.9,14.6 L224.5,0.2 L206.7,-1.9 Z" fill="#4f8a3e" stroke="none"/>
<path d="M234.3,1.8 L233.5,13.2 L254.8,15.7 L255.7,4.3 L234.3,1.8 Z" fill="#4f8a3e" stroke="none"/>
<path d="M207.5,20.2 L201.1,39.7 L212.2,43.1 L218.2,23.5 L207.5,20.2 Z" fill="#4f8a3e" stroke="none"/>
<path d="M199.3,45.3 L193.7,63.3 L209.3,68.7 L215.2,50.2 L199.3,45.3 Z" fill="#4f8a3e" stroke="none"/>
<path d="M86.5,585.1 L98.0,591.2 L109.7,566.8 L97.8,561.1 L86.5,585.1 Z" fill="#4f8a3e" stroke="none"/>
<path d="M127.9,533.0 L122.3,546.4 L130.9,549.9 L136.3,536.4 L127.9,533.0 Z" fill="#4f8a3e" stroke="none"/>
<path d="M136.6,507.9 L143.6,510.4 L146.6,502.7 L139.3,500.2 L136.6,507.9 Z" fill="#4f8a3e" stroke="none"/>
<path d="M279.6,24.4 L279.7,33.3 L294.4,32.8 L294.0,23.8 L279.6,24.4 Z" fill="#4f8a3e" stroke="none"/>
<path d="M310.8,33.0 L312.0,43.3 L321.0,42.7 L319.8,32.3 L310.8,33.0 Z" fill="#4f8a3e" stroke="none"/>
<path d="M734.7,453.5 L727.1,472.3 L734.3,475.6 L742.1,456.5 L734.7,453.5 Z" fill="#4f8a3e" stroke="none"/>
<path d="M744.9,425.2 L736.4,445.4 L748.4,450.6 L757.1,429.6 L744.9,425.2 Z" fill="#4f8a3e" stroke="none"/>
<path d="M757.6,377.1 L764.0,378.8 L767.9,366.2 L761.8,364.7 L757.6,377.1 Z" fill="#4f8a3e" stroke="none"/>
<path d="M775.9,318.5 L782.0,321.3 L786.8,311.0 L780.6,308.5 L775.9,318.5 Z" fill="#4f8a3e" stroke="none"/>
<path d="M661.0,587.5 L672.5,595.0 L681.6,580.7 L670.7,573.6 L661.0,587.5 Z" fill="#4f8a3e" stroke="none"/>
<path d="M644.8,574.5 L654.1,580.4 L664.1,565.9 L654.6,559.8 L644.8,574.5 Z" fill="#4f8a3e" stroke="none"/>
<path d="M624.5,564.6 L634.4,571.3 L642.3,560.7 L632.6,554.1 L624.5,564.6 Z" fill="#4f8a3e" stroke="none"/>
<path d="M278.4,540.7 L283.5,545.9 L296.0,532.6 L290.5,528.0 L278.4,540.7 Z" fill="#4f8a3e" stroke="none"/>
<path d="M320.5,520.3 L338.6,498.3 L346.8,504.2 L328.4,527.3 L320.5,520.3 Z" fill="#4f8a3e" stroke="none"/>
<path d="M364.7,484.2 L374.7,490.8 L385.6,475.2 L375.2,469.0 L364.7,484.2 Z" fill="#4f8a3e" stroke="none"/>
<path d="M392.9,485.4 L401.1,490.4 L414.5,466.6 L406.3,462.2 L392.9,485.4 Z" fill="#4f8a3e" stroke="none"/>
<path d="M427.7,394.4 L432.9,398.0 L438.6,390.8 L433.3,387.1 L427.7,394.4 Z" fill="#4f8a3e" stroke="none"/>
<path d="M644.5,47.6 L649.4,55.2 L660.6,48.3 L655.3,40.6 L644.5,47.6 Z" fill="#4f8a3e" stroke="none"/>
<path d="M615.3,65.9 L638.3,49.8 L644.4,58.4 L621.1,75.0 L615.3,65.9 Z" fill="#4f8a3e" stroke="none"/>
<path d="M604.8,71.9 L610.4,78.7 L594.2,91.1 L588.5,83.7 L604.8,71.9 Z" fill="#4f8a3e" stroke="none"/>
<path d="M554.4,103.8 L573.4,88.4 L581.0,97.1 L562.3,112.7 L554.4,103.8 Z" fill="#4f8a3e" stroke="none"/>
<path d="M534.3,109.8 L539.6,115.5 L532.8,121.7 L527.5,115.7 L534.3,109.8 Z" fill="#4f8a3e" stroke="none"/>
<path d="M494.9,133.6 L500.9,138.4 L494.4,146.4 L488.2,141.0 L494.9,133.6 Z" fill="#4f8a3e" stroke="none"/>
<path d="M130.3,-26.4 L128.9,-24.2 L127.3,-19.3 L125.7,-14.7 L125.1,-10.9 L125.2,-6.9 L126.5,-1.7 L129.1,2.3 L132.7,4.8 L137.4,6.2 L143.5,5.6 L148.2,5.2 L153.1,4.0 L158.3,2.3 L161.9,0.3 L164.5,-2.1 L165.9,-5.3 L165.4,-9.2 L163.7,-12.7 L160.8,-16.2 L158.6,-20.2 L156.0,-23.3 L152.5,-26.2 L150.4,-28.2 L146.8,-29.4 L143.8,-30.2 L140.9,-30.5 L137.5,-30.6 L134.1,-30.0 L132.0,-28.4 L130.3,-26.4 Z" fill="#2f7825" stroke="none"/>
<path d="M458.8,-75.4 L454.9,-73.8 L450.7,-69.3 L446.8,-63.4 L442.2,-57.6 L436.6,-48.3 L433.6,-40.7 L432.1,-32.4 L432.9,-29.9 L434.4,-27.8 L437.6,-27.3 L443.9,-28.5 L449.6,-29.3 L453.6,-29.2 L459.2,-29.4 L463.1,-31.0 L466.7,-33.9 L468.9,-36.9 L470.5,-42.4 L473.0,-50.5 L474.4,-54.2 L475.3,-57.3 L475.5,-61.4 L473.9,-65.3 L470.1,-70.1 L467.2,-72.7 L464.7,-74.8 L461.8,-75.7 L460.2,-75.7 L458.8,-75.4 Z" fill="#2f7825" stroke="none"/>
<path d="M215.3,-52.1 L218.5,-58.5 L221.3,-64.0 L225.2,-69.0 L229.2,-71.8 L233.2,-73.2 L239.0,-73.2 L242.3,-72.2 L246.9,-69.5 L251.1,-65.5 L253.7,-59.9 L254.4,-54.6 L253.4,-49.1 L250.2,-43.9 L245.3,-38.6 L240.0,-34.3 L233.9,-32.0 L227.9,-30.8 L223.7,-30.7 L220.5,-32.3 L217.7,-35.8 L215.7,-40.6 L214.9,-44.0 L214.7,-47.9 L214.9,-50.4 L215.3,-52.1 Z" fill="#2f7825" stroke="none"/>
<path d="M277.2,96.3 L281.1,93.9 L284.3,90.6 L286.6,84.5 L287.4,79.8 L287.3,74.5 L287.0,69.9 L286.2,65.9 L284.3,62.8 L280.6,59.5 L276.9,57.3 L273.2,55.6 L269.1,54.3 L264.9,53.9 L261.3,54.6 L258.3,56.4 L256.5,59.6 L255.6,63.0 L255.1,67.1 L254.9,71.1 L255.3,76.1 L255.9,80.3 L257.5,83.9 L259.5,87.5 L262.0,90.5 L265.0,93.5 L268.9,95.9 L271.7,96.7 L274.9,96.7 L277.2,96.3 Z" fill="#2f7825" stroke="none"/>
<path d="M566.6,386.5 L564.5,390.1 L563.7,394.1 L564.3,397.6 L565.9,400.0 L568.0,401.7 L571.5,403.6 L577.0,406.0 L580.1,407.3 L583.5,407.9 L586.3,407.8 L589.1,406.8 L591.9,404.1 L596.4,399.1 L599.4,394.7 L600.8,391.0 L601.3,387.7 L601.3,384.7 L600.6,382.4 L599.0,380.7 L597.1,379.7 L593.4,378.7 L590.2,378.0 L586.7,378.1 L583.6,378.4 L581.0,378.9 L578.0,380.0 L574.1,381.9 L570.4,383.8 L568.5,385.0 L566.6,386.5 Z" fill="#2f7825" stroke="none"/>
<path d="M672.0,468.2 L671.6,473.2 L672.8,479.2 L674.2,484.3 L676.5,491.2 L679.1,496.5 L681.3,499.1 L685.2,502.4 L689.2,504.3 L692.9,505.0 L697.8,504.9 L702.5,503.3 L706.3,500.6 L708.8,496.3 L709.5,492.7 L709.6,488.2 L709.1,483.2 L708.2,478.1 L707.3,473.8 L705.7,470.2 L703.9,467.5 L702.0,465.4 L699.5,463.4 L696.7,461.4 L693.5,459.8 L689.4,458.4 L685.9,458.0 L682.8,458.1 L680.4,458.8 L677.7,460.3 L675.5,462.4 L673.7,464.5 L672.5,466.4 L672.0,468.2 Z" fill="#2f7825" stroke="none"/>
<path d="M715.0,540.6 L710.5,543.4 L708.4,545.9 L706.2,550.7 L705.6,554.8 L706.0,558.9 L707.3,562.2 L709.7,564.6 L713.3,566.3 L717.4,566.9 L721.8,566.7 L726.2,565.8 L730.2,564.0 L733.6,561.5 L736.9,558.2 L739.3,554.5 L741.0,550.6 L741.9,545.9 L742.0,542.3 L741.7,539.2 L740.5,537.1 L738.5,535.3 L735.5,534.3 L732.3,533.8 L728.7,534.3 L725.4,535.0 L722.6,536.2 L719.9,537.6 L717.1,539.3 L715.0,540.6 Z" fill="#2f7825" stroke="none"/>
<path d="M480.8,464.7 L481.5,467.2 L483.5,470.1 L486.8,472.9 L493.1,476.0 L497.2,478.1 L500.9,479.9 L505.1,480.3 L508.0,479.6 L510.8,477.2 L512.5,473.9 L513.5,469.3 L514.0,464.2 L513.5,461.0 L512.3,457.4 L510.0,454.7 L506.1,451.8 L502.4,449.8 L499.1,449.2 L495.2,448.9 L491.9,449.4 L488.6,450.4 L486.0,452.0 L483.7,454.4 L482.3,456.5 L481.3,459.1 L480.7,461.8 L480.8,464.7 Z" fill="#2f7825" stroke="none"/>
<path d="M658.5,95.8 L658.2,100.3 L658.7,107.1 L660.3,112.3 L663.2,114.2 L667.0,114.1 L672.0,112.2 L678.9,107.6 L683.5,103.9 L687.9,100.4 L690.2,96.1 L691.2,91.2 L691.1,87.4 L690.0,83.5 L688.3,80.9 L685.8,78.1 L683.0,75.9 L679.9,74.8 L675.9,74.7 L672.3,75.2 L669.0,76.6 L666.0,79.0 L664.0,81.6 L662.3,84.6 L660.8,87.6 L659.7,90.6 L658.9,93.1 L658.5,95.8 Z" fill="#2f7825" stroke="none"/>
<path d="M224.1,501.0 L220.7,502.9 L218.2,505.8 L215.8,509.1 L212.9,513.7 L210.7,518.3 L209.8,522.5 L210.0,527.3 L210.7,531.8 L211.8,535.5 L213.9,538.5 L217.0,541.8 L221.2,544.2 L225.4,545.1 L228.6,544.8 L231.9,543.6 L235.0,541.1 L237.7,538.0 L241.1,532.4 L243.2,528.5 L244.9,524.2 L245.9,521.0 L246.9,517.5 L246.7,514.3 L245.9,511.4 L244.5,508.1 L243.0,505.7 L241.1,503.4 L239.2,501.8 L237.0,500.8 L235.0,500.2 L231.9,500.0 L229.2,499.9 L227.1,500.2 L225.5,500.5 L224.1,501.0 Z" fill="#2f7825" stroke="none"/>
<path d="M655.2,46.3 L325.2,330.1 L218.4,523.6" fill="none" stroke="#ffd64a" stroke-width="5" stroke-linecap="round" stroke-linejoin="round" opacity="0.95"/>
</svg>