<svg xmlns="http://www.w3.org/2000/svg" viewBox="0 0 800 600" preserveAspectRatio="xMidYMid slice">
<rect width="100%" height="100%" fill="#143018"/>
<path d="M305.8,27.0 L289.6,23.9 L272.4,41.1 L269.3,52.1 L277.6,67.8 L288.1,80.3 L291.2,98.6 L286.0,116.3 L298.5,154.9 L319.4,181.5 L378.9,242.1 L413.3,308.4 L443.1,386.7 L461.9,439.9 L475.5,463.9 L492.7,480.1 L548.0,507.3 L569.4,510.4 L580.4,502.6 L582.5,493.2 L564.2,467.6 L523.0,429.5 L513.9,405.2 L525.0,374.8 L541.5,356.1 L571.0,342.8 L587.7,328.7 L595.5,304.2 L591.3,281.2 L575.1,266.6 L557.4,259.3 L515.6,248.0 L472.5,215.8 L452.1,187.3 L441.0,130.9 L438.4,84.5 L436.4,68.8 L429.6,56.3 L427.8,55.1 L419.9,48.6 L410.1,40.2 L391.9,28.1 L378.4,26.0 L365.8,34.3 L347.6,49.0 L335.6,54.7 L325.6,51.0 L305.8,27.0 Z" fill="#2e5577" stroke="none"/>
<path d="M888.2,133.1 L859.5,163.4 L832.9,183.2 L801.0,195.2 L750.9,201.5 L699.8,211.9 L673.7,213.5 L653.3,225.0 L639.2,239.1 L636.1,265.7 L643.9,299.6 L659.0,314.8 L688.8,321.0 L705.5,330.4 L710.7,343.5 L714.2,357.2 L721.2,364.3 L730.5,366.4 L755.6,356.0 L782.8,353.9 L792.7,346.6 L799.4,336.7 L807.3,325.2 L822.4,278.2 L831.9,259.3 L839.7,243.8 L849.1,230.7 L893.9,175.4 L918.5,140.4 L926.3,126.5 L940.4,101.3 L968.6,72.0 L977.7,66.7 L987.4,61.1 L992.1,45.4 L985.8,17.2 L976.4,4.2 L967.5,2.6 L958.1,13.6 L925.3,66.3 L888.2,133.1 Z" fill="#2e5577" stroke="none"/>
<path d="M-93.4,-44.1 L-107.0,-37.8 L-121.6,-20.6 L-128.9,-6.5 L-131.5,11.8 L-126.8,29.5 L-107.0,53.6 L-98.6,72.4 L-90.3,123.0 L-81.9,168.4 L-77.7,206.5 L-81.4,239.4 L-88.7,289.0 L-80.8,310.4 L-62.1,340.1 L-54.2,369.9 L-42.8,382.9 L-19.8,390.8 L-10.4,394.4 L4.6,408.9 L16.1,442.5 L20.5,458.7 L29.1,459.6 L38.6,453.0 L38.9,431.1 L39.8,396.3 L34.8,357.6 L24.9,331.3 L11.3,306.9 L-13.4,279.0 L-28.9,248.3 L-38.8,232.7 L-41.9,213.7 L-28.3,191.6 L-42.9,163.7 L-55.9,135.8 L-62.8,87.6 L-57.5,29.6 L-62.2,-1.4 L-68.5,-21.1 L-81.9,-40.4 L-93.4,-44.1 Z" fill="#2e5577" stroke="none"/>
<path d="M761.9,399.2 L760.1,400.5 L759.2,401.6 L758.9,403.9 L759.4,405.3 L760.9,406.1 L762.1,406.4 L763.7,405.8 L765.3,404.8 L766.5,402.4 L766.3,401.7 L765.3,400.4 L764.2,399.6 L761.9,399.2 Z" fill="#e7d6a3" stroke="none"/>
<path d="M706.7,412.4 L704.4,414.2 L704.2,415.0 L704.3,417.8 L706.5,421.2 L711.6,425.0 L714.6,426.1 L718.4,425.9 L721.2,424.2 L722.7,422.4 L724.0,422.5 L725.1,420.5 L724.0,418.8 L722.4,417.5 L720.5,417.0 L718.9,419.3 L717.7,419.8 L715.9,419.7 L714.6,418.6 L713.8,416.9 L709.6,413.2 L707.9,412.3 L706.7,412.4 Z" fill="#e7d6a3" stroke="none"/>
<path d="M738.6,418.2 L736.7,415.1 L734.0,413.9 L731.4,412.0 L729.1,412.0 L727.1,412.6 L725.6,413.6 L724.6,414.0 L722.4,415.9 L719.0,415.8 L716.0,413.7 L714.4,410.4 L712.8,409.5 L709.2,408.1 L708.1,406.8 L707.9,404.9 L708.4,402.7 L709.1,401.2 L711.1,399.7 L712.2,399.6 L713.9,400.5 L715.6,400.7 L717.1,401.3 L723.0,407.9 L730.2,408.6 L731.9,409.0 L733.2,410.0 L735.2,410.9 L739.4,410.8 L741.5,411.1 L743.2,411.8 L744.3,412.5 L745.1,414.2 L745.0,415.1 L744.0,417.0 L743.2,417.8 L741.8,418.7 L740.3,418.7 L738.6,418.2 Z" fill="#e7d6a3" stroke="none"/>
<path d="M749.2,359.4 L737.6,363.9 L736.1,365.0 L734.4,367.3 L734.9,369.9 L738.0,372.9 L740.7,374.0 L745.6,374.2 L751.9,371.4 L753.9,368.3 L757.4,364.8 L760.3,363.4 L764.7,363.6 L768.6,365.8 L771.5,366.7 L775.4,366.8 L780.1,365.9 L783.0,359.9 L784.9,359.6 L785.6,359.1 L785.5,358.3 L784.5,356.7 L783.2,356.7 L781.1,357.2 L778.4,355.9 L778.3,355.3 L759.2,356.1 L754.2,357.4 L750.8,358.5 L749.2,359.4 Z" fill="#e7d6a3" stroke="none"/>
<path d="M712.3,353.9 L714.2,357.2 L715.3,359.7 L718.5,363.9 L722.9,366.4 L728.1,366.4 L727.3,369.4 L724.9,371.3 L724.1,372.7 L722.5,373.7 L719.5,373.5 L715.2,375.1 L713.9,377.9 L712.3,379.9 L709.8,380.8 L707.7,380.1 L705.6,378.8 L707.4,368.7 L705.7,363.8 L706.3,360.4 L707.4,357.1 L709.2,354.4 L712.3,353.9 Z" fill="#e7d6a3" stroke="none"/>
<path d="M399.8,31.2 L410.1,40.2 L419.9,48.6 L427.8,55.1 L431.5,51.1 L431.1,48.0 L432.7,46.0 L432.1,45.1 L428.8,44.0 L427.0,41.6 L425.2,40.1 L422.6,37.1 L418.0,34.6 L417.6,33.9 L410.7,29.2 L408.3,26.4 L405.5,25.7 L403.4,25.6 L401.1,26.2 L399.7,27.8 L399.6,29.9 L399.8,31.2 Z" fill="#e7d6a3" stroke="none"/>
<path d="M353.5,23.5 L353.9,26.1 L353.5,27.4 L353.7,28.5 L354.8,29.7 L356.3,29.7 L357.7,28.6 L359.2,22.8 L360.1,21.9 L362.3,21.5 L363.7,21.6 L366.6,23.9 L367.9,25.6 L369.1,27.9 L370.0,28.7 L370.4,30.5 L366.7,32.7 L362.0,35.2 L355.7,37.5 L352.8,35.8 L348.5,30.7 L345.7,27.7 L344.8,25.2 L345.1,22.4 L345.6,20.5 L346.2,19.8 L350.0,19.9 L351.3,20.7 L353.5,23.5 Z" fill="#e7d6a3" stroke="none"/>
<path d="M507.7,131.5 L503.3,137.2 L501.2,139.0 L500.6,140.0 L502.9,142.0 L504.3,142.8 L505.0,144.5 L510.5,147.5 L513.7,148.1 L517.2,147.7 L518.3,147.1 L518.6,145.6 L520.3,143.8 L520.1,143.0 L519.1,141.5 L517.5,140.7 L514.3,137.6 L513.2,135.8 L511.9,134.3 L509.8,132.6 L507.7,131.5 Z" fill="#e7d6a3" stroke="none"/>
<path d="M527.8,153.5 L526.0,152.6 L524.0,152.1 L522.4,152.1 L521.7,154.1 L521.4,156.7 L524.2,158.8 L526.5,158.4 L529.9,161.1 L530.4,162.0 L530.1,165.3 L529.2,167.4 L529.1,169.9 L528.7,172.4 L529.1,173.2 L530.3,174.8 L532.0,175.7 L537.6,176.9 L540.7,178.5 L543.4,180.2 L545.4,180.8 L548.0,182.6 L549.6,182.7 L549.4,181.1 L549.8,179.0 L550.2,178.2 L549.6,176.3 L547.8,173.6 L547.2,171.3 L543.3,168.2 L540.7,165.6 L540.5,162.1 L537.8,160.3 L536.0,159.4 L534.9,158.0 L534.5,155.5 L532.6,152.7 L531.4,152.4 L529.7,152.7 L527.8,153.5 Z" fill="#e7d6a3" stroke="none"/>
<path d="M501.9,222.2 L499.4,222.0 L497.3,222.3 L495.7,223.2 L494.6,225.2 L494.6,226.9 L496.0,229.2 L500.2,232.6 L503.9,235.2 L506.9,237.1 L508.7,237.6 L510.1,237.3 L511.3,236.1 L511.7,234.3 L511.3,231.9 L510.6,229.9 L509.1,227.2 L508.1,225.7 L506.0,224.6 L504.1,223.1 L501.9,222.2 Z" fill="#e7d6a3" stroke="none"/>
<path d="M579.0,219.3 L580.5,221.3 L582.3,225.8 L584.2,227.7 L585.6,227.9 L586.3,226.8 L585.8,221.6 L583.5,218.2 L581.1,215.8 L578.5,214.5 L574.0,212.8 L569.8,211.5 L568.2,211.7 L567.4,212.7 L567.2,215.3 L568.1,216.9 L569.8,217.8 L572.1,218.1 L574.3,218.8 L577.5,219.0 L579.0,219.3 Z" fill="#e7d6a3" stroke="none"/>
<path d="M537.8,508.4 L535.7,506.4 L534.4,506.7 L532.5,508.2 L532.6,511.2 L533.9,513.6 L535.8,515.6 L539.2,517.3 L544.5,519.3 L548.9,519.4 L550.3,518.0 L550.7,515.3 L550.0,512.9 L548.3,511.5 L546.7,510.8 L545.3,511.6 L543.3,510.8 L541.4,509.7 L537.8,508.4 Z" fill="#e7d6a3" stroke="none"/>
<path d="M462.2,496.0 L461.1,496.0 L459.5,497.1 L457.7,497.6 L456.4,498.6 L456.1,500.0 L457.7,501.7 L459.0,506.2 L458.0,507.3 L455.6,508.3 L454.3,510.2 L452.9,510.3 L450.3,509.1 L447.6,506.6 L446.0,504.1 L443.0,499.8 L440.2,499.7 L439.0,500.6 L437.6,501.2 L436.3,501.4 L434.9,500.9 L433.6,499.4 L432.9,497.8 L433.3,496.3 L435.2,494.1 L438.1,491.4 L438.5,490.6 L439.5,481.4 L438.9,479.6 L439.5,477.6 L440.4,476.7 L441.0,473.9 L442.0,473.5 L443.0,473.7 L444.0,474.7 L444.6,476.3 L446.0,476.7 L446.7,477.9 L446.9,479.7 L446.4,481.6 L446.4,483.0 L446.8,483.8 L447.6,484.2 L448.5,485.2 L448.1,486.0 L446.1,486.9 L444.8,487.3 L443.5,492.1 L448.7,493.0 L450.7,493.0 L454.1,494.3 L455.7,493.8 L457.2,493.0 L459.1,491.3 L463.4,489.0 L466.0,489.5 L467.3,490.7 L468.7,491.2 L470.7,492.8 L471.3,496.5 L472.1,497.7 L472.0,499.5 L471.6,501.1 L473.1,501.2 L473.9,500.6 L475.0,501.2 L476.4,502.4 L476.4,503.7 L476.2,504.5 L474.8,504.2 L473.9,504.7 L473.1,505.5 L471.9,505.8 L470.3,505.4 L468.2,505.7 L466.1,504.4 L463.9,502.7 L463.6,501.0 L464.3,497.8 L463.9,496.7 L462.2,496.0 Z" fill="#e7d6a3" stroke="none"/>
<path d="M394.2,422.4 L392.1,424.6 L391.2,428.3 L391.9,434.5 L394.4,436.8 L395.7,438.3 L399.3,438.7 L401.9,437.0 L402.7,434.8 L403.0,431.8 L403.4,430.1 L403.7,427.8 L404.9,426.6 L405.5,424.7 L404.3,423.1 L402.8,422.0 L400.5,421.5 L398.6,421.3 L398.2,421.1 L396.4,421.3 L394.2,422.4 Z" fill="#e7d6a3" stroke="none"/>
<path d="M371.8,376.1 L369.0,380.0 L368.3,382.8 L370.4,386.0 L368.6,391.7 L368.6,394.3 L368.9,395.4 L370.0,395.6 L370.5,394.6 L372.8,393.5 L374.6,390.9 L376.1,388.3 L378.2,386.2 L377.4,385.4 L377.1,384.2 L377.8,382.9 L379.4,381.7 L380.1,380.9 L380.9,379.5 L380.9,377.5 L380.0,371.7 L379.7,370.7 L380.1,369.4 L380.2,366.9 L379.9,365.6 L379.2,364.0 L378.0,363.2 L376.6,363.4 L374.4,364.1 L372.8,365.1 L371.8,366.7 L370.8,367.9 L370.7,369.5 L371.6,373.6 L371.8,375.1 L371.8,376.1 Z" fill="#e7d6a3" stroke="none"/>
<path d="M296.1,290.8 L299.2,292.3 L300.0,293.9 L299.5,295.7 L297.4,295.8 L295.5,295.3 L294.2,293.0 L294.2,291.5 L294.8,290.9 L296.1,290.8 Z" fill="#e7d6a3" stroke="none"/>
<path d="M311.1,307.0 L309.4,308.1 L308.8,308.8 L308.5,310.1 L309.1,311.2 L311.1,312.4 L312.7,312.2 L313.6,311.3 L313.5,310.0 L312.2,309.2 L312.5,308.1 L312.2,307.3 L311.1,307.0 Z" fill="#e7d6a3" stroke="none"/>
<path d="M313.9,314.2 L316.8,316.2 L320.5,317.2 L323.4,318.4 L324.7,319.4 L324.7,320.5 L323.8,321.2 L321.9,321.6 L320.1,321.2 L319.0,320.3 L317.5,320.2 L316.0,320.4 L313.6,320.0 L312.2,319.1 L310.9,317.8 L310.4,316.6 L310.4,315.3 L312.1,314.5 L313.9,314.2 Z" fill="#e7d6a3" stroke="none"/>
<path d="M324.8,297.2 L324.3,298.7 L322.8,299.5 L321.3,298.9 L320.3,298.0 L320.1,297.0 L320.8,295.7 L321.0,294.0 L320.8,292.4 L321.0,291.2 L322.3,290.2 L324.4,289.9 L328.0,289.7 L329.9,290.0 L331.2,291.0 L332.2,293.2 L332.9,296.1 L333.5,300.3 L333.6,302.9 L333.1,309.2 L334.7,314.1 L334.9,316.6 L334.8,318.4 L332.2,318.7 L330.6,318.4 L329.8,317.9 L330.0,315.3 L329.5,313.7 L328.2,313.1 L326.1,312.4 L323.6,312.2 L323.1,311.2 L322.6,309.6 L321.8,309.0 L317.2,309.2 L314.3,307.7 L312.5,306.3 L311.2,305.9 L310.0,306.1 L306.8,307.8 L305.0,307.9 L303.5,307.6 L302.2,305.9 L301.4,304.0 L301.5,302.5 L301.8,301.4 L302.8,299.7 L304.0,298.9 L310.2,299.1 L312.5,296.6 L315.5,292.4 L316.0,292.4 L316.4,292.9 L316.5,294.2 L315.6,300.0 L315.8,301.3 L316.6,302.7 L318.1,304.0 L320.6,304.1 L322.6,303.9 L324.8,302.9 L326.3,301.3 L326.4,299.1 L326.0,297.4 L324.8,297.2 Z" fill="#e7d6a3" stroke="none"/>
<path d="M637.0,452.2 L633.1,452.9 L630.2,458.7 L631.8,468.6 L635.7,479.0 L639.4,481.1 L643.3,480.9 L644.8,475.6 L640.1,467.6 L638.8,456.9 L637.0,452.2 Z" fill="#4f8a3e" stroke="none"/>
<path d="M618.5,428.7 L616.9,430.9 L616.2,434.7 L618.0,439.6 L620.7,442.3 L622.9,442.1 L624.9,440.9 L625.4,437.7 L623.8,431.6 L620.9,429.1 L618.5,428.7 Z" fill="#4f8a3e" stroke="none"/>
<path d="M609.2,365.3 L606.1,369.3 L605.7,373.9 L606.5,378.4 L609.2,380.5 L612.3,380.5 L616.0,377.6 L616.4,372.5 L615.2,367.2 L612.9,365.1 L609.2,365.3 Z" fill="#4f8a3e" stroke="none"/>
<path d="M606.2,312.9 L602.5,306.5 L600.2,306.6 L596.9,319.7 L601.2,323.3 L604.4,322.9 L606.8,320.9 L608.1,317.6 L606.2,312.9 Z" fill="#4f8a3e" stroke="none"/>
<path d="M303.6,-25.9 L300.9,-23.6 L299.4,-18.1 L304.7,2.7 L307.6,2.8 L310.4,0.8 L309.3,-13.2 L309.2,-20.9 L307.6,-24.3 L303.6,-25.9 Z" fill="#4f8a3e" stroke="none"/>
<path d="M317.1,13.0 L313.6,13.3 L311.6,15.6 L312.2,21.8 L316.8,27.1 L320.8,28.0 L323.9,25.5 L322.7,20.6 L320.6,14.9 L317.1,13.0 Z" fill="#4f8a3e" stroke="none"/>
<path d="M329.3,36.2 L325.5,36.2 L324.6,38.9 L326.3,43.4 L329.5,46.7 L333.3,46.2 L334.7,44.5 L334.1,39.7 L329.3,36.2 Z" fill="#4f8a3e" stroke="none"/>
<path d="M277.7,75.9 L274.5,77.9 L273.4,84.4 L275.6,91.5 L279.6,93.6 L283.2,91.9 L284.6,84.9 L282.2,78.9 L277.7,75.9 Z" fill="#4f8a3e" stroke="none"/>
<path d="M282.7,141.1 L279.4,140.0 L275.9,141.9 L275.1,146.7 L280.3,159.7 L285.4,167.6 L289.9,169.0 L293.2,166.0 L292.4,161.6 L286.2,145.9 L282.7,141.1 Z" fill="#4f8a3e" stroke="none"/>
<path d="M293.0,210.2 L289.1,210.4 L287.2,212.5 L286.2,215.9 L288.9,220.8 L294.1,222.9 L297.3,220.2 L298.6,214.8 L296.2,211.8 L293.0,210.2 Z" fill="#4f8a3e" stroke="none"/>
<path d="M598.8,418.9 L600.9,415.3 L601.6,411.3 L599.0,403.6 L595.1,400.5 L590.3,399.0 L586.4,401.5 L585.0,405.6 L586.8,410.7 L589.4,414.6 L593.8,419.0 L598.8,418.9 Z" fill="#4f8a3e" stroke="none"/>
<path d="M628.5,399.4 L631.4,396.4 L632.1,393.0 L631.4,388.9 L629.6,386.3 L625.3,385.2 L621.6,386.3 L619.3,390.0 L619.1,393.9 L620.9,397.4 L624.1,399.4 L628.5,399.4 Z" fill="#4f8a3e" stroke="none"/>
<path d="M568.9,393.5 L571.9,390.2 L571.9,383.8 L570.1,380.3 L564.1,379.6 L559.1,384.2 L560.0,389.3 L563.2,393.0 L568.9,393.5 Z" fill="#4f8a3e" stroke="none"/>
<path d="M731.6,510.5 L725.9,513.1 L723.3,518.1 L723.0,527.0 L727.8,540.3 L735.7,555.5 L744.3,566.9 L755.0,572.0 L766.4,570.4 L770.2,565.0 L773.7,557.4 L770.9,547.9 L753.1,530.8 L743.9,518.4 L739.8,513.4 L731.6,510.5 Z" fill="#2f7825" stroke="none"/>
<path d="M745.4,401.6 L737.3,404.1 L731.3,404.5 L724.7,403.5 L719.8,397.9 L716.2,392.4 L715.2,388.9 L715.7,384.4 L717.9,380.7 L723.2,377.6 L731.1,377.4 L736.4,378.0 L744.1,380.0 L751.7,380.4 L757.3,381.6 L760.8,383.7 L762.3,385.2 L763.2,386.9 L762.3,391.0 L757.0,396.6 L745.4,401.6 Z" fill="#2f7825" stroke="none"/>
<path d="M358.2,-3.9 L356.9,-0.7 L356.6,5.0 L359.4,10.5 L363.6,15.3 L372.4,20.4 L377.1,20.8 L383.6,20.9 L390.8,18.6 L391.2,12.8 L386.5,2.7 L380.6,-0.6 L374.6,-5.0 L367.5,-5.9 L362.7,-5.6 L358.2,-3.9 Z" fill="#2f7825" stroke="none"/>
<path d="M489.6,492.3 L489.9,496.1 L490.8,500.0 L491.7,507.6 L492.4,510.7 L492.5,513.9 L494.5,518.7 L498.7,521.4 L503.0,523.6 L510.6,524.7 L516.8,523.9 L521.3,521.3 L524.0,517.7 L523.6,512.0 L522.4,508.1 L520.2,504.5 L510.9,498.2 L505.6,494.1 L501.9,492.0 L497.6,490.7 L494.3,489.0 L490.7,490.5 L489.6,492.3 Z" fill="#2f7825" stroke="none"/>
<path d="M303.6,-15.6 L348.5,250.8 L447.5,455.4 L499.0,507.7" fill="none" stroke="#ffd64a" stroke-width="5" stroke-linecap="round" stroke-linejoin="round" opacity="0.95"/>
</svg>