<svg xmlns="http://www.w3.org/2000/svg" viewBox="0 0 398 800" preserveAspectRatio="xMidYMid meet">
<rect width="100%" height="100%" fill="#143018"/>
<path d="M78.9,78.9 L134.0,405.8 L255.5,656.9 L318.7,721.1" fill="none" stroke="#4e8b39" stroke-width="61.4" stroke-linecap="round" stroke-linejoin="round" opacity="0.85"/>
<path d="M81.6,131.2 L61.7,127.3 L40.5,148.5 L36.7,161.9 L47.0,181.1 L59.8,196.5 L63.6,218.9 L57.2,240.7 L72.6,288.1 L98.2,320.8 L171.2,395.1 L213.5,476.5 L250.0,572.6 L273.1,637.9 L289.8,667.4 L310.9,687.2 L378.8,720.5 L405.1,724.4 L418.5,714.8 L421.1,703.3 L398.7,671.9 L348.1,625.1 L337.0,595.3 L350.6,558.0 L370.8,535.0 L407.0,518.8 L427.5,501.4 L437.1,471.3 L432.0,443.1 L412.1,425.2 L390.3,416.2 L339.1,402.3 L286.2,362.8 L261.1,327.8 L247.5,258.7 L244.3,201.6 L241.8,182.4 L233.4,167.1 L231.3,165.6 L221.6,157.7 L209.5,147.3 L187.3,132.5 L170.6,129.9 L155.2,140.1 L132.8,158.1 L118.1,165.1 L105.9,160.6 L81.6,131.2 Z" fill="#2e5577" stroke="none"/>
<path d="M480.8,-494.8 L440.0,-486.1 L432.2,-445.3 L447.8,-368.6 L428.3,-333.7 L433.2,-286.1 L420.6,-248.2 L443.9,-195.8 L428.3,-164.7 L420.6,-77.3 L460.4,-34.6 L456.5,10.1 L499.2,36.3 L494.4,68.3 L563.3,148.9 L593.4,133.4 L624.5,89.7 L538.1,-2.5 L510.9,-78.3 L461.4,-89.9 L505.0,-125.9 L516.7,-240.4 L592.4,-367.6 L633.2,-392.9 L673.0,-407.5 L698.3,-448.2 L761.4,-416.2 L816.8,-427.8 L873.1,-399.7 L908.0,-413.3 L918.7,-434.6 L909.0,-454.1 L926.5,-485.1 L917.7,-514.3 L868.2,-520.1 L843.0,-500.7 L827.4,-519.1 L759.5,-499.7 L680.8,-494.8 L646.8,-456.0 L610.9,-496.8 L579.8,-497.7 L526.4,-478.3 L480.8,-494.8 Z" fill="#2e5577" stroke="none"/>
<path d="M197.0,136.2 L209.5,147.3 L221.6,157.7 L231.3,165.6 L235.9,160.7 L235.3,156.9 L237.3,154.4 L236.5,153.3 L232.5,152.0 L230.3,149.1 L228.0,147.3 L224.9,143.5 L219.3,140.4 L218.8,139.6 L210.3,133.8 L207.4,130.4 L203.9,129.5 L201.3,129.4 L198.5,130.1 L196.8,132.1 L196.6,134.7 L197.0,136.2 Z" fill="#e7d6a3" stroke="none"/>
<path d="M140.1,126.9 L140.6,130.0 L140.1,131.6 L140.3,132.9 L141.7,134.4 L143.5,134.5 L145.3,133.1 L147.2,126.0 L148.3,124.8 L150.8,124.4 L152.6,124.6 L156.1,127.3 L157.8,129.4 L159.3,132.2 L160.3,133.2 L160.8,135.4 L156.3,138.2 L150.5,141.2 L142.7,144.0 L139.3,141.9 L133.9,135.6 L130.5,132.0 L129.4,128.9 L129.8,125.5 L130.4,123.2 L131.1,122.3 L135.8,122.4 L137.4,123.4 L140.1,126.9 Z" fill="#e7d6a3" stroke="none"/>
<path d="M329.4,259.4 L324.0,266.4 L321.4,268.5 L320.6,269.7 L323.5,272.2 L325.2,273.2 L326.0,275.3 L332.8,279.0 L336.7,279.7 L341.0,279.2 L342.4,278.5 L342.8,276.7 L344.8,274.5 L344.6,273.5 L343.3,271.7 L341.4,270.6 L337.4,266.9 L336.2,264.7 L334.5,262.8 L331.9,260.7 L329.4,259.4 Z" fill="#e7d6a3" stroke="none"/>
<path d="M354.0,286.3 L351.8,285.3 L349.4,284.7 L347.4,284.6 L346.5,287.1 L346.2,290.3 L349.5,292.9 L352.4,292.4 L356.6,295.7 L357.2,296.8 L356.8,300.8 L355.7,303.4 L355.6,306.5 L355.1,309.6 L355.6,310.6 L357.1,312.5 L359.1,313.6 L366.0,315.1 L369.9,317.0 L373.2,319.1 L375.7,319.9 L378.8,322.1 L380.8,322.3 L380.5,320.3 L381.0,317.6 L381.5,316.7 L380.8,314.4 L378.6,311.1 L377.8,308.2 L373.0,304.4 L369.9,301.2 L369.6,296.9 L366.3,294.7 L364.1,293.6 L362.7,291.8 L362.2,288.9 L359.9,285.4 L358.4,285.0 L356.4,285.4 L354.0,286.3 Z" fill="#e7d6a3" stroke="none"/>
<path d="M322.3,370.7 L319.2,370.4 L316.5,370.8 L314.6,371.9 L313.2,374.3 L313.2,376.5 L315.0,379.3 L320.1,383.4 L324.7,386.7 L328.4,388.9 L330.5,389.5 L332.3,389.2 L333.8,387.7 L334.3,385.6 L333.8,382.6 L332.9,380.2 L331.1,376.8 L329.8,375.0 L327.3,373.6 L324.9,371.7 L322.3,370.7 Z" fill="#e7d6a3" stroke="none"/>
<path d="M416.8,367.2 L418.7,369.5 L420.9,375.1 L423.2,377.5 L424.9,377.6 L425.8,376.3 L425.2,370.0 L422.4,365.8 L419.4,362.8 L416.2,361.2 L410.7,359.1 L405.6,357.6 L403.6,357.8 L402.6,359.1 L402.3,362.2 L403.5,364.1 L405.5,365.3 L408.4,365.7 L411.0,366.6 L415.0,366.8 L416.8,367.2 Z" fill="#e7d6a3" stroke="none"/>
<path d="M366.3,721.9 L363.7,719.5 L362.1,719.9 L359.8,721.7 L359.9,725.4 L361.5,728.3 L363.8,730.8 L368.0,732.8 L374.5,735.3 L379.9,735.4 L381.6,733.7 L382.1,730.3 L381.2,727.5 L379.2,725.8 L377.2,724.9 L375.5,725.8 L373.1,724.9 L370.8,723.6 L366.3,721.9 Z" fill="#e7d6a3" stroke="none"/>
<path d="M273.6,706.7 L272.2,706.7 L270.2,708.1 L268.0,708.7 L266.4,709.9 L266.1,711.7 L267.9,713.7 L269.5,719.3 L268.4,720.6 L265.5,721.8 L263.8,724.1 L262.1,724.3 L258.9,722.8 L255.6,719.7 L253.7,716.6 L249.9,711.3 L246.5,711.3 L245.0,712.4 L243.4,713.1 L241.7,713.3 L240.0,712.8 L238.4,710.9 L237.5,708.9 L238.1,707.1 L240.4,704.4 L243.9,701.0 L244.4,700.0 L245.6,688.8 L244.9,686.5 L245.6,684.1 L246.8,683.0 L247.5,679.6 L248.7,679.1 L249.9,679.4 L251.1,680.6 L251.9,682.6 L253.6,683.1 L254.5,684.5 L254.7,686.7 L254.1,689.0 L254.1,690.8 L254.6,691.8 L255.6,692.3 L256.7,693.5 L256.2,694.4 L253.7,695.6 L252.1,696.1 L250.5,701.9 L256.9,703.1 L259.4,703.0 L263.5,704.6 L265.5,704.0 L267.4,703.1 L269.7,701.0 L275.0,698.2 L278.2,698.7 L279.8,700.3 L281.4,700.8 L283.9,702.8 L284.6,707.3 L285.6,708.7 L285.6,710.9 L285.1,713.0 L286.9,713.1 L287.9,712.3 L289.2,713.0 L291.0,714.6 L291.0,716.1 L290.6,717.2 L289.0,716.8 L287.8,717.4 L286.8,718.4 L285.4,718.7 L283.5,718.2 L280.8,718.6 L278.3,717.1 L275.6,714.9 L275.2,712.9 L276.1,709.0 L275.6,707.6 L273.6,706.7 Z" fill="#e7d6a3" stroke="none"/>
<path d="M190.1,616.4 L187.4,619.0 L186.4,623.6 L187.2,631.3 L190.3,634.0 L191.9,635.9 L196.3,636.3 L199.5,634.3 L200.5,631.6 L200.8,627.9 L201.3,625.8 L201.7,623.1 L203.1,621.6 L204.0,619.2 L202.4,617.3 L200.6,615.9 L197.7,615.3 L195.5,615.0 L195.0,614.8 L192.8,615.0 L190.1,616.4 Z" fill="#e7d6a3" stroke="none"/>
<path d="M162.5,559.6 L159.1,564.4 L158.2,567.8 L160.9,571.7 L158.7,578.7 L158.7,581.9 L159.0,583.3 L160.4,583.5 L161.0,582.3 L163.8,580.9 L166.0,577.8 L167.9,574.5 L170.4,572.0 L169.5,571.0 L169.1,569.6 L170.0,567.9 L171.8,566.5 L172.7,565.5 L173.7,563.8 L173.7,561.3 L172.6,554.1 L172.2,552.9 L172.7,551.3 L172.8,548.2 L172.5,546.7 L171.6,544.7 L170.1,543.7 L168.4,544.0 L165.7,544.8 L163.8,546.1 L162.5,548.1 L161.3,549.6 L161.2,551.4 L162.3,556.5 L162.6,558.4 L162.5,559.6 Z" fill="#e7d6a3" stroke="none"/>
<path d="M69.7,454.9 L73.5,456.7 L74.4,458.7 L73.9,460.9 L71.3,461.0 L68.9,460.4 L67.3,457.6 L67.3,455.8 L68.0,454.9 L69.7,454.9 Z" fill="#e7d6a3" stroke="none"/>
<path d="M88.1,474.8 L86.0,476.1 L85.2,477.0 L84.9,478.5 L85.7,479.9 L88.0,481.4 L90.1,481.2 L91.2,480.0 L91.0,478.4 L89.4,477.5 L89.8,476.1 L89.4,475.1 L88.1,474.8 Z" fill="#e7d6a3" stroke="none"/>
<path d="M91.5,483.6 L95.0,486.0 L99.5,487.3 L103.2,488.7 L104.8,490.0 L104.7,491.4 L103.7,492.2 L101.4,492.7 L99.1,492.1 L97.7,491.1 L95.9,491.0 L94.1,491.2 L91.1,490.7 L89.4,489.6 L87.8,488.0 L87.2,486.6 L87.2,484.9 L89.3,484.0 L91.5,483.6 Z" fill="#e7d6a3" stroke="none"/>
<path d="M104.9,462.8 L104.3,464.5 L102.4,465.5 L100.6,464.9 L99.4,463.8 L99.1,462.5 L99.9,460.9 L100.2,458.8 L100.0,456.9 L100.2,455.3 L101.8,454.2 L104.4,453.7 L108.8,453.6 L111.2,453.9 L112.7,455.2 L114.0,457.9 L114.8,461.4 L115.6,466.5 L115.7,469.8 L115.0,477.5 L117.0,483.5 L117.3,486.5 L117.2,488.7 L113.9,489.1 L111.9,488.7 L111.0,488.1 L111.3,484.9 L110.7,483.0 L109.0,482.2 L106.5,481.4 L103.4,481.1 L102.8,480.0 L102.1,477.9 L101.1,477.2 L95.5,477.5 L92.0,475.6 L89.7,474.0 L88.2,473.3 L86.7,473.7 L82.8,475.7 L80.6,475.9 L78.7,475.5 L77.2,473.3 L76.1,471.1 L76.3,469.2 L76.7,467.8 L77.9,465.8 L79.3,464.8 L87.0,465.1 L89.7,462.0 L93.4,456.9 L94.1,456.8 L94.5,457.4 L94.7,459.1 L93.6,466.2 L93.8,467.8 L94.8,469.5 L96.7,471.1 L99.8,471.2 L102.2,471.0 L104.8,469.8 L106.8,467.7 L106.9,465.1 L106.3,463.0 L104.9,462.8 Z" fill="#e7d6a3" stroke="none"/>
<path d="M453.9,546.2 L450.1,551.2 L449.6,556.9 L450.6,562.4 L453.9,564.9 L457.7,564.9 L462.3,561.4 L462.8,555.1 L461.2,548.6 L458.4,546.0 L453.9,546.2 Z" fill="#4f8a3e" stroke="none"/>
<path d="M450.3,482.0 L445.6,474.1 L442.9,474.3 L438.8,490.3 L444.1,494.8 L448.1,494.3 L450.9,491.9 L452.5,487.7 L450.3,482.0 Z" fill="#4f8a3e" stroke="none"/>
<path d="M78.9,66.2 L75.6,69.0 L73.6,75.8 L80.3,101.3 L83.8,101.5 L87.3,98.9 L85.9,81.8 L85.7,72.3 L83.8,68.2 L78.9,66.2 Z" fill="#4f8a3e" stroke="none"/>
<path d="M95.4,113.9 L91.1,114.3 L88.6,117.2 L89.4,124.8 L95.0,131.2 L99.9,132.4 L103.8,129.3 L102.2,123.2 L99.7,116.2 L95.4,113.9 Z" fill="#4f8a3e" stroke="none"/>
<path d="M110.4,142.5 L105.7,142.5 L104.6,145.8 L106.7,151.2 L110.6,155.3 L115.3,154.7 L117.0,152.6 L116.2,146.8 L110.4,142.5 Z" fill="#4f8a3e" stroke="none"/>
<path d="M47.0,191.1 L43.1,193.6 L41.8,201.6 L44.5,210.3 L49.3,212.9 L53.8,210.7 L55.6,202.2 L52.6,194.8 L47.0,191.1 Z" fill="#4f8a3e" stroke="none"/>
<path d="M53.2,271.2 L49.2,269.8 L44.9,272.2 L43.9,278.0 L50.3,294.0 L56.5,303.7 L62.0,305.4 L66.1,301.7 L65.1,296.3 L57.5,277.0 L53.2,271.2 Z" fill="#4f8a3e" stroke="none"/>
<path d="M65.9,356.0 L61.0,356.2 L58.7,358.7 L57.5,363.0 L60.8,369.0 L67.2,371.5 L71.1,368.2 L72.7,361.6 L69.8,357.9 L65.9,356.0 Z" fill="#4f8a3e" stroke="none"/>
<path d="M441.1,612.0 L443.7,607.7 L444.6,602.7 L441.3,593.4 L436.6,589.5 L430.7,587.7 L425.9,590.8 L424.2,595.7 L426.4,602.0 L429.6,606.8 L435.0,612.3 L441.1,612.0 Z" fill="#4f8a3e" stroke="none"/>
<path d="M404.4,581.0 L408.1,576.8 L408.1,569.0 L405.9,564.7 L398.5,563.8 L392.5,569.4 L393.6,575.8 L397.5,580.3 L404.4,581.0 Z" fill="#4f8a3e" stroke="none"/>
<path d="M145.9,93.2 L144.3,97.1 L143.8,104.1 L147.3,110.8 L152.5,116.8 L163.3,123.1 L169.0,123.5 L177.0,123.7 L185.8,120.8 L186.4,113.7 L180.6,101.3 L173.4,97.3 L166.0,91.9 L157.2,90.7 L151.4,91.2 L145.9,93.2 Z" fill="#2f7825" stroke="none"/>
<path d="M307.1,702.2 L307.4,706.9 L308.6,711.6 L309.7,720.9 L310.6,724.8 L310.6,728.7 L313.1,734.5 L318.3,737.9 L323.6,740.6 L332.9,741.9 L340.5,740.9 L346.0,737.8 L349.4,733.4 L348.9,726.3 L347.4,721.5 L344.7,717.2 L333.3,709.4 L326.7,704.4 L322.3,701.8 L317.0,700.2 L312.9,698.2 L308.5,699.9 L307.1,702.2 Z" fill="#2f7825" stroke="none"/>
<path d="M78.9,78.9 L134.0,405.8 L255.5,656.9 L318.7,721.1" fill="none" stroke="#ffd64a" stroke-width="3.5" stroke-linecap="round" stroke-linejoin="round" opacity="0.95"/>
</svg>