<svg xmlns="http://www.w3.org/2000/svg" viewBox="0 0 800 464" preserveAspectRatio="xMidYMid meet">
<rect width="100%" height="100%" fill="#143018"/>
<path d="M715.7,-228.3 L889.9,-130.1 L935.1,-145.5 L970.5,-65.9 L1123.6,-29.0 L1104.6,26.5 L1119.7,151.9 L1035.1,183.0 L1012.2,287.0 L982.9,282.2 L954.9,259.7 L1017.7,137.4 L969.0,-31.6 L918.1,-75.1 L767.7,-96.6 L705.1,-90.2 L664.9,-129.3 L563.2,15.9 L471.7,-18.5 L392.9,-54.0 L414.0,-79.1 L342.1,-172.6 L436.0,-262.9 L537.5,-387.5 L609.5,-335.7 L684.2,-291.7 L729.8,-306.3 L715.7,-228.3 Z" fill="#0f2810" stroke="none"/>
<path d="M829.2,482.0 L773.0,490.6 L754.0,461.2 L697.7,471.6 L672.4,467.8 L663.8,457.1 L637.9,449.3 L603.0,439.0 L567.7,427.6 L526.5,428.1 L494.0,437.6 L459.2,452.5 L434.5,457.0 L396.1,453.9 L376.1,453.6 L363.3,459.3 L340.7,478.3 L239.0,526.6 L179.2,554.2 L165.0,559.5 L151.7,560.7 L146.9,556.7 L145.3,550.8 L147.0,542.3 L120.6,498.5 L71.3,527.1 L51.9,541.1 L31.7,541.3 L16.7,549.1 L1.4,563.3 L-26.3,576.0 L-40.3,580.0 L-38.8,595.0 L-27.6,601.2 L-9.3,594.8 L10.9,582.8 L31.9,587.0 L48.1,590.0 L73.1,592.7 L70.1,605.2 L70.3,625.7 L63.6,648.9 L59.9,672.2 L64.1,689.7 L75.1,706.2 L83.3,711.2 L93.3,734.9 L144.3,724.9 L248.6,701.7 L298.6,670.7 L368.4,645.3 L404.4,627.3 L432.4,623.1 L491.2,617.9 L514.4,588.0 L550.6,576.5 L580.8,558.0 L611.0,549.3 L638.2,548.3 L655.2,536.5 L702.4,525.8 L732.9,521.6 L750.8,526.3 L767.3,524.8 L779.5,519.6 L844.0,507.6 L847.7,505.1 L847.5,492.6 L841.7,482.9 L829.2,482.0 Z" fill="#2b5a2a" stroke="none"/>
<path d="M120.6,498.5 L151.4,475.6 L175.7,458.6 L186.2,444.8 L205.4,426.0 L244.5,386.1 L278.0,358.4 L328.8,308.4 L357.0,285.2 L416.1,267.9 L460.0,250.1 L521.2,241.8 L579.2,232.7 L631.0,248.3 L666.8,266.1 L732.3,282.4 L783.1,315.7 L832.0,360.8 L855.6,385.8 L851.9,403.9 L861.4,423.9 L845.1,439.8 L815.4,446.7 L769.7,450.3 L762.0,450.7 L754.3,453.2 L748.4,459.5 L741.3,455.9 L736.0,452.6 L728.8,450.6 L722.9,443.8 L695.9,431.6 L676.2,419.1 L651.7,402.8 L639.5,400.6 L630.3,407.1 L626.8,415.7 L626.1,425.6 L628.8,435.5 L570.8,417.9 L589.5,397.6 L596.5,374.4 L596.1,343.9 L596.7,338.3 L602.5,328.1 L609.3,316.8 L612.2,310.0 L610.9,306.4 L607.5,305.6 L603.2,310.3 L599.5,315.9 L593.9,324.1 L589.6,329.8 L584.7,337.2 L584.9,351.4 L584.3,361.6 L580.2,374.7 L571.0,379.4 L501.9,401.1 L450.8,415.5 L415.6,429.0 L366.3,445.6 L340.6,452.9 L321.8,468.5 L292.8,472.8 L258.0,471.0 L244.2,461.2 L220.3,478.6 L196.0,495.2 L167.7,515.5 L147.0,542.3 L120.6,498.5 Z" fill="#2b5a2a" stroke="none"/>
<path d="M1387.9,425.5 L1390.4,401.3 L1408.5,335.0 L1329.3,349.6 L1198.7,356.7 L1074.4,360.2 L970.3,344.1 L908.4,302.1 L825.8,228.9 L787.8,193.3 L768.9,180.0 L746.3,159.9 L727.2,146.7 L677.1,123.9 L477.5,63.3 L311.5,1.0 L232.7,24.8 L148.5,216.5 L139.8,223.3 L148.4,243.7 L110.9,268.7 L58.8,285.1 L43.2,301.2 L26.0,334.8 L22.1,373.1 L35.8,413.0 L69.0,436.5 L98.7,442.7 L131.2,439.6 L159.4,420.8 L182.4,391.1 L193.4,362.6 L196.5,330.9 L200.5,316.1 L213.4,307.6 L233.2,304.2 L256.9,287.3 L266.6,272.2 L271.3,232.0 L276.1,225.5 L289.5,221.9 L304.1,214.0 L316.3,193.2 L326.8,180.3 L336.7,175.0 L356.2,175.9 L421.6,185.4 L436.0,193.7 L440.7,206.6 L438.5,218.5 L427.9,233.2 L407.2,253.9 L395.1,264.9 L357.0,285.2 L416.1,267.9 L460.0,250.1 L521.2,241.8 L579.2,232.7 L631.0,248.3 L666.8,266.1 L732.3,282.4 L783.1,315.7 L832.0,360.8 L855.6,385.8 L851.9,403.9 L861.4,423.9 L845.1,439.8 L815.4,446.7 L769.7,450.3 L889.9,452.3 L906.8,456.1 L916.2,463.7 L919.8,476.5 L920.0,492.7 L912.6,561.2 L915.3,573.5 L920.8,584.5 L930.0,592.0 L931.9,598.0 L925.2,603.8 L916.9,607.2 L925.4,625.6 L939.3,650.6 L949.2,666.3 L957.4,687.6 L962.9,698.9 L973.6,705.0 L1007.6,708.5 L1000.0,669.6 L1004.7,661.3 L1028.1,640.1 L1046.1,617.5 L1063.3,585.9 L1076.5,567.3 L1093.7,577.2 L1101.5,587.4 L1104.4,599.0 L1104.3,610.4 L1100.1,616.0 L1082.9,624.5 L1094.0,657.6 L1110.4,650.9 L1117.8,676.0 L1165.9,644.5 L1154.2,611.0 L1143.1,566.9 L1143.7,532.9 L1226.3,528.5 L1284.3,508.8 L1302.2,484.0 L1313.8,450.0 L1327.4,426.2 L1343.7,415.9 L1369.2,413.5 L1378.5,418.3 L1387.9,425.5 Z" fill="#2b5a2a" stroke="none"/>
<path d="M697.3,151.0 L300.9,102.8 L102.7,361.3" fill="none" stroke="#4e8b39" stroke-width="79.9" stroke-linecap="round" stroke-linejoin="round" opacity="0.85"/>
<path d="M143.0,639.3 L147.3,645.2 L150.9,655.3 L150.5,664.4 L146.3,674.7 L139.9,681.8 L131.1,688.0 L121.8,692.3 L112.4,694.2 L97.6,693.0 L87.0,690.8 L79.4,686.8 L73.3,679.2 L70.9,671.7 L68.1,677.0 L67.7,681.7 L72.4,691.8 L79.0,697.9 L87.6,697.7 L95.4,695.3 L102.7,696.6 L113.0,701.2 L130.6,704.1 L143.8,704.6 L163.0,699.9 L176.0,690.7 L185.4,679.1 L196.6,669.8 L210.1,661.2 L221.8,648.6 L229.8,633.7 L239.2,616.2 L244.7,604.9 L251.2,595.1 L258.8,588.2 L265.1,587.6 L273.4,592.1 L277.3,599.1 L277.8,603.6 L275.0,612.2 L273.1,618.7 L273.6,627.2 L274.4,633.5 L275.7,637.9 L279.1,640.0 L283.8,639.3 L292.0,636.5 L316.6,627.8 L343.4,618.2 L369.2,609.9 L397.5,600.5 L425.1,589.5 L438.7,584.3 L445.2,578.5 L449.2,567.7 L454.7,562.7 L462.3,560.5 L469.7,561.9 L475.8,566.2 L482.0,567.0 L497.3,565.5 L512.6,560.5 L524.8,556.0 L538.1,548.1 L558.9,535.2 L575.4,523.3 L583.8,517.6 L591.2,516.2 L597.7,517.8 L604.1,520.1 L608.3,521.9 L614.1,521.3 L621.3,517.6 L626.7,511.5 L629.1,500.3 L629.3,492.6 L625.2,485.8 L621.2,482.2 L615.3,479.0 L605.1,477.3 L589.8,478.5 L571.6,481.2 L542.5,485.5 L503.8,490.3 L473.9,495.2 L445.9,501.5 L426.2,508.2 L402.4,519.9 L384.7,530.8 L367.2,542.7 L346.2,557.3 L327.5,569.3 L318.8,572.8 L311.0,574.4 L301.3,572.2 L289.7,567.1 L274.3,560.8 L261.7,557.6 L249.9,557.1 L237.4,560.4 L209.2,572.8 L190.5,582.8 L176.7,591.0 L161.8,601.9 L153.3,608.9 L148.9,612.8 L147.9,616.7 L148.7,620.8 L152.8,626.5 L157.3,633.4 L159.6,638.1 L159.7,642.6 L155.4,646.8 L151.0,646.6 L143.0,639.3 Z" fill="#5a9540" stroke="none"/>
<path d="M633.9,263.3 L621.4,257.3 L599.2,251.3 L578.7,250.1 L556.0,249.6 L535.8,252.3 L506.1,260.1 L478.1,272.1 L445.7,286.8 L424.0,299.0 L402.2,311.8 L394.0,324.2 L391.7,339.5 L396.2,353.7 L403.5,369.2 L413.0,379.9 L424.2,387.1 L445.9,382.4 L477.6,372.9 L510.6,363.4 L536.8,356.9 L561.3,351.4 L569.7,346.0 L580.0,329.7 L596.9,304.3 L607.7,294.8 L615.9,293.5 L624.9,294.8 L635.6,295.5 L642.4,289.5 L643.9,280.5 L641.1,271.1 L633.9,263.3 Z" fill="#5a9540" stroke="none"/>
<path d="M137.8,344.4 L140.6,332.6 L145.0,320.1 L149.8,313.8 L159.6,312.1 L174.4,312.0 L187.0,308.2 L198.2,297.7 L207.4,287.6 L213.8,275.5 L216.2,268.1 L216.7,261.5 L215.8,255.8 L212.6,252.3 L207.1,252.2 L200.4,254.7 L191.3,258.6 L184.4,263.3 L179.1,268.2 L170.5,272.9 L160.4,279.4 L153.0,281.6 L142.8,282.2 L136.4,285.3 L124.3,291.0 L115.4,295.2 L112.8,298.5 L112.8,304.3 L108.5,310.2 L104.3,315.2 L103.0,321.5 L99.2,328.3 L137.8,344.4 Z" fill="#5a9540" stroke="none"/>
<path d="M234.0,104.4 L209.4,131.2 L189.8,159.5 L181.1,180.9 L177.5,204.4 L178.6,220.4 L191.3,225.4 L216.7,221.4 L234.4,212.8 L257.3,201.5 L266.3,181.9 L274.6,159.1 L280.5,143.9 L289.9,136.6 L309.1,135.2 L343.9,134.5 L362.0,134.8 L395.3,138.8 L435.2,146.1 L469.3,153.7 L488.8,158.0 L501.2,158.0 L509.1,150.8 L509.9,140.3 L503.3,128.3 L493.2,110.9 L484.1,101.8 L471.1,93.2 L447.9,81.5 L421.1,68.5 L397.2,59.1 L371.4,52.2 L356.9,47.5 L338.8,43.5 L317.8,47.5 L302.9,52.6 L282.6,63.4 L269.2,73.9 L255.8,85.5 L234.0,104.4 Z" fill="#5a9540" stroke="none"/>
<path d="M675.8,327.9 L672.3,328.9 L669.8,331.5 L668.7,334.5 L669.1,337.8 L670.7,340.5 L674.9,343.6 L679.7,345.4 L683.9,344.4 L686.1,341.6 L686.9,338.2 L686.0,334.3 L683.8,331.5 L679.2,329.3 L675.8,327.9 Z" fill="#e7d6a3" stroke="none"/>
<path d="M661.0,343.3 L658.5,344.3 L656.5,346.6 L655.0,349.4 L653.3,351.9 L651.5,355.4 L651.9,358.8 L653.7,361.1 L656.6,362.3 L660.7,361.5 L663.4,360.4 L665.6,360.4 L667.3,361.5 L669.5,363.0 L672.2,364.0 L676.2,363.1 L679.0,361.1 L680.3,358.2 L680.2,356.0 L678.7,354.9 L676.4,354.1 L673.2,353.6 L670.2,352.0 L667.5,349.9 L665.1,347.3 L664.3,345.6 L663.0,343.5 L661.0,343.3 Z" fill="#e7d6a3" stroke="none"/>
<path d="M740.3,339.4 L745.8,337.3 L750.4,338.4 L753.8,340.1 L757.4,340.4 L760.0,340.9 L762.5,342.4 L764.5,344.7 L767.8,346.3 L769.0,348.9 L767.9,352.1 L766.3,354.7 L764.5,355.7 L761.7,355.7 L759.0,353.9 L755.7,353.8 L753.0,352.4 L750.0,351.0 L747.8,348.0 L746.2,346.1 L743.4,345.2 L740.4,344.1 L739.7,341.5 L740.3,339.4 Z" fill="#e7d6a3" stroke="none"/>
<path d="M715.3,382.9 L711.9,381.2 L709.2,382.9 L708.8,387.1 L710.7,390.3 L714.4,391.7 L717.7,393.6 L720.1,396.3 L722.9,399.3 L725.4,399.5 L727.5,397.2 L727.5,394.4 L726.1,392.3 L723.1,390.5 L721.0,389.8 L718.2,386.6 L715.3,382.9 Z" fill="#e7d6a3" stroke="none"/>
<path d="M767.2,209.6 L765.3,210.9 L765.5,213.7 L767.4,216.6 L770.5,218.7 L773.7,220.6 L776.4,223.3 L781.7,224.8 L786.7,225.7 L792.6,224.2 L794.0,223.2 L795.0,221.2 L795.5,218.6 L793.5,216.6 L791.0,215.3 L787.6,215.2 L784.0,216.0 L781.0,215.9 L778.2,215.2 L775.6,213.6 L772.4,211.2 L769.6,209.9 L767.2,209.6 Z" fill="#e7d6a3" stroke="none"/>
<path d="M782.5,253.0 L779.9,255.2 L778.8,258.5 L779.8,262.3 L782.1,265.9 L785.1,267.0 L788.4,266.5 L790.5,263.1 L791.5,260.1 L791.3,256.5 L789.4,254.2 L786.5,252.9 L782.5,253.0 Z" fill="#e7d6a3" stroke="none"/>
<path d="M770.6,266.2 L767.1,267.0 L765.8,270.0 L767.2,273.2 L770.1,275.3 L775.2,277.2 L778.8,276.7 L781.1,273.6 L781.0,270.1 L778.8,267.4 L774.0,265.9 L770.6,266.2 Z" fill="#e7d6a3" stroke="none"/>
<path d="M743.4,260.5 L742.4,262.7 L742.4,265.8 L744.9,268.9 L748.9,270.7 L752.3,271.0 L754.6,269.7 L755.7,267.1 L755.8,264.6 L754.3,262.8 L752.1,261.4 L749.0,260.1 L746.5,259.7 L743.4,260.5 Z" fill="#e7d6a3" stroke="none"/>
<path d="M303.7,148.5 L295.3,149.7 L292.8,152.5 L293.6,156.5 L296.6,160.2 L301.6,160.6 L306.4,158.4 L308.7,156.1 L308.6,151.4 L306.6,148.8 L303.7,148.5 Z" fill="#e7d6a3" stroke="none"/>
<path d="M284.4,183.8 L279.3,186.6 L276.9,190.5 L276.6,197.8 L278.0,205.1 L281.5,210.3 L286.5,210.9 L293.1,208.7 L299.3,206.4 L301.2,203.3 L300.4,199.4 L297.6,197.7 L294.4,196.9 L291.9,194.7 L290.1,191.4 L289.0,187.5 L287.3,184.9 L284.4,183.8 Z" fill="#e7d6a3" stroke="none"/>
<path d="M219.0,225.9 L208.0,226.7 L199.7,228.8 L191.2,232.7 L185.9,237.1 L184.8,239.5 L185.5,242.2 L186.8,245.3 L187.3,248.9 L188.7,251.0 L192.2,250.6 L194.4,248.4 L196.2,242.7 L198.1,236.9 L200.8,234.5 L205.1,233.8 L210.5,236.4 L217.2,238.9 L220.9,238.6 L222.8,235.0 L222.3,228.0 L221.0,226.1 L219.0,225.9 Z" fill="#e7d6a3" stroke="none"/>
<path d="M174.2,245.7 L169.5,246.8 L165.4,251.0 L165.2,254.7 L166.7,258.2 L166.5,263.1 L168.5,264.7 L171.2,263.8 L173.6,261.1 L177.3,258.7 L179.9,257.7 L179.8,255.5 L178.7,250.2 L176.8,247.0 L174.2,245.7 Z" fill="#e7d6a3" stroke="none"/>
<path d="M150.8,255.1 L147.5,257.0 L143.0,258.8 L139.1,262.2 L138.5,266.9 L142.5,272.7 L150.0,276.0 L154.8,275.2 L158.4,273.2 L158.4,271.3 L156.5,268.3 L156.7,264.8 L157.7,261.4 L156.9,257.8 L153.9,255.4 L150.8,255.1 Z" fill="#e7d6a3" stroke="none"/>
<path d="M114.8,275.9 L111.3,278.1 L107.6,280.5 L103.8,281.2 L99.9,279.9 L96.0,279.6 L93.2,281.2 L92.0,284.0 L92.5,286.6 L94.4,289.7 L94.4,292.9 L93.1,295.9 L91.6,299.2 L91.4,301.8 L93.4,304.6 L97.3,305.3 L101.7,304.6 L105.2,303.8 L106.1,301.8 L106.3,298.2 L107.8,294.4 L110.9,291.5 L115.0,289.5 L120.1,289.0 L122.6,287.7 L124.6,285.0 L125.2,281.4 L124.5,278.5 L122.4,276.4 L118.8,274.6 L114.8,275.9 Z" fill="#e7d6a3" stroke="none"/>
<path d="M94.9,312.8 L93.3,315.9 L94.4,319.9 L97.5,321.1 L99.9,318.9 L100.0,315.1 L98.1,313.1 L94.9,312.8 Z" fill="#e7d6a3" stroke="none"/>
<path d="M153.1,317.1 L151.4,320.4 L150.6,323.8 L148.8,326.6 L149.3,330.6 L151.0,333.7 L153.9,334.2 L156.1,333.3 L157.2,329.4 L159.0,326.6 L160.9,324.1 L161.3,321.1 L160.1,318.0 L156.7,316.5 L153.1,317.1 Z" fill="#e7d6a3" stroke="none"/>
<path d="M164.1,334.3 L161.7,335.0 L159.1,337.4 L156.5,342.1 L154.6,344.7 L151.5,347.0 L148.8,348.7 L145.7,350.6 L144.1,353.2 L143.0,356.7 L142.2,360.7 L142.1,364.3 L144.3,365.9 L147.1,364.4 L148.8,360.3 L152.4,355.8 L155.6,353.2 L158.7,353.0 L161.5,352.3 L167.8,349.5 L170.8,347.4 L171.3,345.0 L171.3,342.3 L169.9,339.0 L167.5,335.8 L164.1,334.3 Z" fill="#e7d6a3" stroke="none"/>
<path d="M230.6,263.7 L228.3,266.3 L227.2,269.6 L227.2,273.5 L227.4,278.6 L226.2,282.2 L223.4,284.9 L219.5,288.3 L214.5,292.0 L213.3,294.3 L213.1,296.7 L214.6,298.8 L218.1,299.4 L224.2,298.4 L232.4,295.5 L239.0,291.5 L244.1,286.8 L251.2,281.4 L257.9,273.6 L260.4,267.9 L260.2,263.3 L257.2,260.8 L253.1,260.1 L246.2,260.5 L238.8,261.5 L233.5,262.1 L230.6,263.7 Z" fill="#e7d6a3" stroke="none"/>
<path d="M840.8,486.3 L844.3,503.4 L776.8,517.0 L773.4,500.0 L840.8,486.3 Z" fill="#4f8a3e" stroke="none"/>
<path d="M727.0,472.3 L713.1,475.4 L715.2,484.7 L729.1,481.6 L727.0,472.3 Z" fill="#4f8a3e" stroke="none"/>
<path d="M656.8,461.3 L638.2,468.1 L641.5,477.1 L660.1,470.3 L656.8,461.3 Z" fill="#4f8a3e" stroke="none"/>
<path d="M118.0,511.1 L126.3,525.3 L66.0,560.3 L57.7,546.1 L118.0,511.1 Z" fill="#4f8a3e" stroke="none"/>
<path d="M259.0,409.2 L236.8,420.1 L241.5,429.6 L263.7,418.8 L259.0,409.2 Z" fill="#4f8a3e" stroke="none"/>
<path d="M830.9,400.7 L812.5,415.7 L829.7,433.6 L841.6,420.1 L838.8,407.9 L835.2,401.7 L830.9,400.7 Z" fill="#4f8a3e" stroke="none"/>
<path d="M671.1,122.6 L646.0,123.0 L646.2,137.8 L671.3,137.4 L671.1,122.6 Z" fill="#4f8a3e" stroke="none"/>
<path d="M536.9,144.1 L534.4,156.4 L543.6,158.3 L546.1,146.0 L536.9,144.1 Z" fill="#4f8a3e" stroke="none"/>
<path d="M725.7,337.9 L719.0,338.0 L713.3,343.4 L710.9,350.9 L712.6,360.9 L716.2,369.2 L721.9,377.1 L728.1,384.5 L732.5,388.2 L735.8,395.3 L739.9,399.8 L746.8,403.9 L756.4,403.5 L764.5,399.3 L770.2,391.2 L770.0,382.6 L768.5,374.8 L766.4,369.2 L763.2,367.1 L757.0,365.7 L749.0,360.9 L740.4,355.4 L734.6,348.0 L729.6,340.4 L725.7,337.9 Z" fill="#2f7825" stroke="none"/>
<path d="M699.9,189.9 L691.6,195.1 L685.8,202.1 L684.1,210.0 L685.4,220.7 L692.8,230.7 L702.4,238.7 L714.5,243.3 L732.2,241.3 L742.3,236.5 L750.3,227.6 L753.7,216.2 L751.3,207.3 L744.4,200.0 L733.7,194.3 L723.8,191.4 L713.3,189.3 L706.9,189.2 L699.9,189.9 Z" fill="#2f7825" stroke="none"/>
<path d="M137.8,344.4 L99.2,328.3 L91.0,333.9 L85.0,340.1 L81.6,347.3 L79.7,354.1 L78.3,362.5 L77.1,371.5 L78.5,380.1 L84.4,387.7 L94.4,393.2 L104.2,393.7 L110.8,390.2 L117.9,386.4 L126.2,383.6 L130.6,377.1 L132.4,367.2 L134.5,356.9 L137.8,344.4 Z" fill="#2f7825" stroke="none"/>
<path d="M697.3,151.0 L300.9,102.8 L102.7,361.3" fill="none" stroke="#ffd64a" stroke-width="3.5" stroke-linecap="round" stroke-linejoin="round" opacity="0.95"/>
</svg>