<svg xmlns="http://www.w3.org/2000/svg" viewBox="0 0 800 600" preserveAspectRatio="xMidYMid slice">
<rect width="100%" height="100%" fill="#143018"/>
<path d="M618.6,29.4 L727.7,90.8 L755.9,81.2 L778.1,131.0 L873.9,154.1 L862.0,188.8 L871.4,267.3 L818.5,286.8 L804.2,351.8 L785.9,348.8 L768.3,334.8 L807.6,258.2 L777.1,152.4 L745.3,125.2 L651.2,111.8 L612.0,115.8 L586.8,91.3 L523.2,182.2 L465.9,160.6 L416.6,138.5 L429.8,122.7 L384.9,64.2 L443.6,7.7 L507.1,-70.3 L552.2,-37.8 L598.9,-10.3 L627.5,-19.5 L618.6,29.4 Z" fill="#0f2810" stroke="none"/>
<path d="M460.7,532.3 L457.6,533.3 L457.0,534.6 L457.6,535.8 L458.8,535.6 L460.4,534.4 L461.4,533.7 L461.6,532.8 L460.7,532.3 Z" fill="#2b5a2a" stroke="none"/>
<path d="M689.7,473.8 L654.5,479.2 L642.6,460.8 L607.4,467.3 L591.5,465.0 L586.1,458.3 L570.0,453.4 L548.1,447.0 L526.0,439.8 L500.2,440.1 L479.9,446.1 L458.1,455.4 L442.6,458.2 L418.6,456.3 L406.1,456.1 L398.1,459.6 L384.0,471.6 L320.3,501.8 L282.9,519.0 L274.0,522.3 L265.7,523.1 L262.7,520.6 L261.7,516.9 L262.8,511.6 L246.2,484.2 L215.4,502.1 L203.2,510.8 L190.6,511.0 L181.2,515.8 L171.7,524.7 L154.3,532.7 L145.5,535.2 L146.5,544.6 L153.5,548.5 L164.9,544.4 L177.6,536.9 L190.7,539.6 L200.8,541.5 L216.5,543.2 L214.6,551.0 L214.8,563.8 L210.5,578.3 L208.2,592.9 L210.9,603.9 L217.8,614.2 L222.9,617.3 L229.2,632.1 L261.0,625.9 L326.3,611.3 L357.6,592.0 L401.3,576.0 L423.8,564.8 L441.3,562.1 L478.1,558.9 L492.7,540.2 L515.3,533.0 L534.2,521.4 L553.1,516.0 L570.2,515.3 L580.8,508.0 L610.3,501.3 L629.4,498.6 L640.6,501.6 L650.9,500.7 L658.6,497.4 L698.9,489.9 L701.2,488.3 L701.1,480.5 L697.5,474.4 L689.7,473.8 Z" fill="#2b5a2a" stroke="none"/>
<path d="M246.2,484.2 L265.5,469.9 L280.7,459.2 L287.3,450.6 L299.3,438.8 L323.8,413.9 L344.7,396.5 L376.5,365.2 L394.2,350.7 L431.2,339.9 L458.6,328.8 L496.9,323.5 L533.2,317.9 L565.7,327.6 L588.0,338.7 L629.0,349.0 L660.8,369.8 L691.4,398.0 L706.2,413.7 L703.9,425.0 L709.8,437.5 L699.6,447.5 L681.0,451.8 L652.4,454.1 L647.6,454.3 L642.8,455.8 L639.1,459.8 L634.6,457.5 L631.3,455.4 L626.8,454.2 L623.1,450.0 L606.2,442.3 L593.9,434.5 L578.6,424.3 L570.9,422.9 L565.2,427.0 L563.0,432.3 L562.5,438.5 L564.2,444.7 L528.0,433.8 L539.7,421.0 L544.0,406.5 L543.8,387.5 L544.1,384.0 L547.8,377.6 L552.0,370.5 L553.9,366.2 L553.0,364.0 L550.9,363.5 L548.2,366.4 L545.9,369.9 L542.4,375.1 L539.7,378.6 L536.7,383.3 L536.8,392.1 L536.4,398.5 L533.8,406.7 L528.1,409.7 L484.8,423.2 L452.9,432.3 L430.9,440.7 L400.0,451.1 L383.9,455.6 L372.1,465.4 L354.0,468.1 L332.2,467.0 L323.6,460.9 L308.6,471.7 L293.4,482.2 L275.7,494.9 L262.8,511.6 L246.2,484.2 Z" fill="#2b5a2a" stroke="none"/>
<path d="M1039.3,438.5 L1040.8,423.4 L1052.2,381.9 L1002.6,391.0 L920.9,395.4 L843.1,397.6 L778.0,387.6 L739.2,361.3 L687.5,315.5 L663.7,293.2 L651.9,284.9 L637.8,272.3 L625.9,264.1 L594.5,249.8 L469.6,211.9 L365.7,172.9 L316.4,187.7 L263.7,307.7 L258.2,312.0 L263.6,324.7 L240.1,340.4 L207.6,350.7 L197.8,360.7 L187.0,381.7 L184.6,405.7 L193.1,430.7 L213.9,445.4 L232.6,449.3 L252.9,447.3 L270.5,435.6 L284.9,417.0 L291.8,399.1 L293.7,379.3 L296.2,370.0 L304.3,364.7 L316.7,362.6 L331.5,352.0 L337.6,342.6 L340.6,317.4 L343.5,313.4 L351.9,311.1 L361.1,306.2 L368.7,293.1 L375.3,285.1 L381.5,281.7 L393.7,282.3 L434.6,288.2 L443.6,293.5 L446.5,301.5 L445.2,309.0 L438.6,318.2 L425.6,331.1 L418.0,338.0 L394.2,350.7 L431.2,339.9 L458.6,328.8 L496.9,323.5 L533.2,317.9 L565.7,327.6 L588.0,338.7 L629.0,349.0 L660.8,369.8 L691.4,398.0 L706.2,413.7 L703.9,425.0 L709.8,437.5 L699.6,447.5 L681.0,451.8 L652.4,454.1 L727.6,455.3 L738.2,457.6 L744.1,462.4 L746.4,470.4 L746.5,480.5 L741.8,523.4 L743.5,531.1 L746.9,538.0 L752.7,542.7 L753.9,546.5 L749.8,550.1 L744.5,552.2 L749.8,563.7 L758.6,579.4 L764.8,589.2 L769.9,602.5 L773.3,609.6 L780.0,613.4 L801.3,615.6 L796.5,591.2 L799.5,586.1 L814.1,572.8 L825.4,558.6 L836.2,538.9 L844.4,527.2 L855.2,533.4 L860.0,539.8 L861.9,547.1 L861.8,554.2 L859.2,557.7 L848.4,563.0 L855.4,583.8 L865.6,579.5 L870.3,595.3 L900.3,575.6 L893.0,554.6 L886.1,527.0 L886.5,505.7 L938.1,503.0 L974.4,490.7 L985.7,475.1 L992.9,453.8 L1001.4,439.0 L1011.6,432.5 L1027.6,431.0 L1033.4,434.0 L1039.3,438.5 Z" fill="#2b5a2a" stroke="none"/>
<path d="M260.2,572.3 L263.0,576.0 L265.2,582.3 L264.9,588.0 L262.3,594.5 L258.3,598.9 L252.8,602.8 L247.0,605.4 L241.1,606.7 L231.9,605.9 L225.2,604.5 L220.5,602.0 L216.6,597.2 L215.1,592.6 L213.4,595.9 L213.1,598.8 L216.1,605.2 L220.2,608.9 L225.6,608.8 L230.4,607.4 L235.0,608.2 L241.5,611.0 L252.5,612.8 L260.7,613.2 L272.8,610.2 L280.9,604.5 L286.8,597.2 L293.8,591.4 L302.2,586.0 L309.6,578.1 L314.6,568.8 L320.5,557.9 L323.9,550.8 L328.0,544.6 L332.7,540.3 L336.7,539.9 L341.8,542.8 L344.3,547.1 L344.6,549.9 L342.8,555.3 L341.7,559.4 L342.0,564.7 L342.5,568.7 L343.3,571.4 L345.4,572.7 L348.4,572.3 L353.5,570.6 L368.9,565.1 L385.7,559.1 L401.8,553.9 L419.5,548.0 L436.8,541.1 L445.3,537.9 L449.4,534.2 L451.9,527.5 L455.3,524.3 L460.1,523.0 L464.7,523.9 L468.5,526.5 L472.4,527.0 L481.9,526.1 L491.5,523.0 L499.2,520.2 L507.5,515.2 L520.5,507.2 L530.8,499.7 L536.1,496.1 L540.7,495.3 L544.8,496.3 L548.8,497.7 L551.4,498.8 L555.0,498.5 L559.6,496.1 L562.9,492.3 L564.4,485.3 L564.5,480.5 L562.0,476.2 L559.5,474.0 L555.8,472.0 L549.4,470.9 L539.8,471.7 L528.5,473.4 L510.2,476.1 L486.0,479.1 L467.3,482.1 L449.8,486.0 L437.5,490.3 L422.6,497.6 L411.5,504.4 L400.5,511.8 L387.4,521.0 L375.7,528.5 L370.2,530.7 L365.4,531.7 L359.3,530.3 L352.0,527.1 L342.4,523.2 L334.5,521.2 L327.1,520.9 L319.3,522.9 L301.7,530.7 L290.0,536.9 L281.3,542.1 L272.0,548.9 L266.7,553.3 L264.0,555.7 L263.3,558.2 L263.8,560.7 L266.4,564.3 L269.2,568.6 L270.6,571.5 L270.7,574.4 L268.0,577.0 L265.2,576.9 L260.2,572.3 Z" fill="#5a9540" stroke="none"/>
<path d="M567.4,337.0 L559.6,333.3 L545.7,329.5 L532.9,328.7 L518.7,328.4 L506.0,330.1 L487.5,335.0 L470.0,342.5 L449.6,351.7 L436.1,359.4 L422.5,367.3 L417.3,375.1 L415.9,384.7 L418.7,393.6 L423.3,403.3 L429.2,410.0 L436.2,414.5 L449.8,411.5 L469.6,405.6 L490.3,399.7 L506.7,395.6 L522.0,392.2 L527.3,388.7 L533.7,378.6 L544.3,362.6 L551.0,356.7 L556.2,355.9 L561.8,356.7 L568.5,357.2 L572.7,353.4 L573.7,347.8 L572.0,341.9 L567.4,337.0 Z" fill="#5a9540" stroke="none"/>
<path d="M257.0,387.7 L258.7,380.4 L261.5,372.6 L264.5,368.6 L270.6,367.5 L279.9,367.5 L287.8,365.1 L294.8,358.6 L300.5,352.2 L304.5,344.6 L306.1,340.0 L306.4,335.9 L305.8,332.3 L303.8,330.1 L300.4,330.1 L296.2,331.7 L290.4,334.1 L286.2,337.0 L282.8,340.1 L277.4,343.0 L271.1,347.1 L266.5,348.4 L260.1,348.9 L256.1,350.7 L248.5,354.4 L243.0,357.0 L241.3,359.1 L241.3,362.7 L238.6,366.3 L236.0,369.5 L235.2,373.4 L232.8,377.7 L257.0,387.7 Z" fill="#5a9540" stroke="none"/>
<path d="M317.2,237.6 L301.8,254.3 L289.6,272.0 L284.1,285.4 L281.8,300.2 L282.5,310.1 L290.5,313.3 L306.3,310.8 L317.5,305.4 L331.7,298.3 L337.4,286.1 L342.6,271.8 L346.3,262.3 L352.2,257.7 L364.2,256.8 L385.9,256.4 L397.3,256.6 L418.2,259.1 L443.1,263.6 L464.4,268.4 L476.7,271.1 L484.4,271.1 L489.4,266.6 L489.8,260.0 L485.7,252.5 L479.4,241.6 L473.7,236.0 L465.5,230.5 L451.0,223.3 L434.3,215.1 L419.3,209.2 L403.2,204.9 L394.1,202.0 L382.8,199.4 L369.6,202.0 L360.3,205.1 L347.6,211.9 L339.2,218.5 L330.8,225.8 L317.2,237.6 Z" fill="#5a9540" stroke="none"/>
<path d="M256.2,635.1 L254.9,635.9 L254.0,637.6 L253.7,639.4 L253.6,641.5 L254.4,643.2 L255.6,644.3 L257.3,644.8 L259.0,645.0 L260.6,644.7 L261.9,643.9 L262.5,643.1 L262.4,642.0 L261.7,641.4 L261.1,640.7 L261.0,639.9 L261.2,639.0 L261.6,638.2 L261.9,637.1 L261.6,636.0 L260.9,635.4 L259.9,635.0 L258.2,634.9 L257.0,634.9 L256.2,635.1 Z" fill="#e7d6a3" stroke="none"/>
<path d="M513.1,581.8 L512.1,580.4 L511.7,579.2 L511.7,578.0 L512.0,576.7 L512.8,576.0 L514.1,575.7 L515.6,575.6 L516.8,575.0 L517.8,573.9 L518.6,572.5 L519.4,571.7 L520.6,571.1 L522.1,571.0 L523.2,571.3 L524.4,572.0 L525.2,573.1 L525.5,574.1 L525.3,575.3 L524.6,576.6 L524.0,577.4 L523.7,578.3 L523.8,579.8 L524.1,581.0 L524.8,581.9 L525.9,582.6 L526.7,583.3 L527.0,584.2 L527.0,585.1 L526.3,586.3 L525.2,587.6 L524.3,589.0 L523.9,590.0 L523.9,591.2 L524.5,592.3 L525.5,593.2 L526.9,594.5 L527.7,595.6 L528.0,596.5 L527.7,597.7 L526.8,598.5 L525.7,599.1 L524.0,599.5 L522.5,599.6 L521.1,599.7 L520.2,599.5 L518.9,598.8 L517.7,597.8 L516.8,596.6 L516.2,594.3 L516.0,593.4 L516.0,590.8 L515.9,588.2 L515.5,586.5 L515.3,585.7 L514.9,584.5 L514.6,583.7 L514.1,582.9 L513.7,582.3 L513.1,581.8 Z" fill="#e7d6a3" stroke="none"/>
<path d="M619.0,560.1 L617.6,561.1 L616.9,562.3 L616.9,563.5 L617.2,564.4 L617.7,565.3 L617.8,566.4 L617.8,567.6 L618.3,569.1 L619.2,570.1 L620.7,570.7 L622.5,571.4 L624.6,571.9 L626.6,572.3 L628.7,572.4 L630.2,572.4 L632.1,572.8 L633.9,572.7 L635.5,572.4 L636.7,571.9 L638.0,571.6 L639.1,571.9 L640.2,572.1 L641.9,572.4 L644.0,572.9 L645.5,573.0 L647.0,573.0 L648.5,573.2 L650.6,573.4 L652.2,573.2 L653.4,572.9 L654.5,572.3 L655.2,571.4 L655.3,569.9 L654.7,568.7 L653.9,567.2 L652.6,566.1 L651.5,565.8 L649.0,565.5 L647.4,565.5 L644.6,565.4 L641.8,565.5 L640.0,565.4 L638.5,565.2 L637.4,564.8 L636.5,564.1 L635.8,563.1 L635.2,562.2 L634.5,561.5 L633.5,560.7 L632.3,560.1 L631.3,559.6 L629.6,559.1 L628.4,559.1 L627.0,559.2 L626.0,559.3 L624.5,559.1 L623.1,559.0 L621.5,559.2 L620.3,559.5 L619.0,560.1 Z" fill="#e7d6a3" stroke="none"/>
<path d="M601.9,638.4 L600.6,639.5 L599.8,640.9 L599.6,642.8 L599.6,644.7 L600.6,646.1 L602.0,646.7 L603.6,646.9 L606.1,646.7 L609.4,646.4 L611.7,645.7 L613.5,644.0 L615.4,641.8 L617.2,640.5 L618.7,639.9 L620.4,639.6 L622.0,640.0 L624.1,640.7 L626.1,641.2 L627.8,641.3 L630.0,640.7 L631.6,639.6 L633.5,637.5 L635.2,634.5 L636.7,631.6 L637.4,629.6 L637.5,627.8 L637.3,626.3 L636.6,625.0 L635.6,624.0 L634.2,623.7 L633.0,623.7 L631.4,624.2 L629.1,625.9 L628.0,626.7 L626.4,627.4 L624.7,628.1 L622.5,628.2 L620.6,628.2 L617.8,628.3 L615.9,628.3 L613.8,629.0 L611.8,629.5 L609.8,630.7 L607.8,632.0 L606.5,633.4 L605.1,634.8 L603.2,637.0 L601.9,638.4 Z" fill="#e7d6a3" stroke="none"/>
<path d="M522.4,674.1 L520.1,673.0 L517.1,672.1 L514.5,671.7 L512.7,672.2 L512.1,673.6 L512.4,675.1 L513.9,677.1 L517.0,678.4 L520.4,679.1 L522.5,678.9 L523.7,677.0 L523.2,675.2 L522.4,674.1 Z" fill="#e7d6a3" stroke="none"/>
<path d="M464.5,528.2 L461.8,527.8 L458.1,528.7 L455.8,530.9 L454.4,532.0 L453.4,534.9 L453.2,536.7 L452.9,537.7 L454.5,539.7 L457.7,541.0 L460.3,541.8 L461.0,541.9 L461.6,541.0 L462.5,539.8 L464.1,539.4 L465.8,539.5 L466.9,538.8 L466.7,537.9 L465.9,536.8 L466.1,535.4 L467.1,534.4 L469.1,533.7 L469.4,532.0 L468.3,530.7 L466.7,530.1 L465.7,528.5 L464.5,528.2 Z" fill="#e7d6a3" stroke="none"/>
<path d="M340.2,545.5 L337.6,545.1 L335.6,546.4 L335.3,549.0 L334.2,550.6 L332.3,551.6 L331.1,553.8 L331.7,556.0 L333.8,556.7 L335.8,556.9 L337.3,557.9 L339.8,557.4 L340.7,556.0 L341.6,554.5 L342.9,553.3 L343.5,551.4 L343.5,549.4 L342.9,547.2 L341.6,546.2 L340.2,545.5 Z" fill="#e7d6a3" stroke="none"/>
<path d="M328.0,564.0 L331.1,564.5 L334.0,565.6 L336.4,566.0 L338.0,565.5 L340.2,564.9 L341.4,565.6 L341.6,567.2 L341.2,568.7 L339.6,570.3 L338.6,571.3 L338.0,573.3 L337.3,575.0 L336.1,575.9 L334.2,575.8 L332.2,575.0 L330.2,573.7 L328.6,573.7 L326.3,574.3 L324.7,574.0 L323.2,573.1 L322.7,570.9 L323.4,568.6 L324.6,566.5 L326.2,564.8 L328.0,564.0 Z" fill="#e7d6a3" stroke="none"/>
<path d="M318.5,583.0 L319.9,583.8 L321.7,585.0 L323.7,584.7 L326.4,583.7 L328.4,581.9 L330.3,580.9 L332.0,580.7 L333.1,582.1 L332.5,583.6 L331.5,584.7 L329.2,586.3 L327.4,588.2 L327.0,590.1 L327.1,592.1 L326.1,592.8 L324.2,593.0 L322.8,592.6 L320.8,591.3 L319.2,590.7 L316.8,591.3 L314.8,592.6 L313.8,593.9 L311.5,594.1 L310.5,592.8 L310.5,591.2 L311.5,590.0 L313.8,589.4 L315.5,588.4 L316.2,586.6 L316.3,585.0 L316.3,583.8 L317.0,583.0 L318.5,583.0 Z" fill="#e7d6a3" stroke="none"/>
<path d="M291.2,594.9 L289.0,598.0 L286.7,602.1 L285.0,604.5 L282.4,606.9 L279.1,608.8 L276.5,610.3 L275.2,611.4 L275.2,613.1 L276.8,614.3 L279.3,614.1 L281.5,614.1 L283.7,615.0 L286.3,615.4 L288.4,613.8 L290.8,611.4 L293.8,609.2 L297.5,607.7 L298.8,605.1 L299.4,601.7 L299.4,598.3 L297.8,595.4 L295.6,593.8 L292.8,593.8 L291.2,594.9 Z" fill="#e7d6a3" stroke="none"/>
<path d="M261.5,561.7 L262.4,561.7 L263.4,561.9 L264.8,563.5 L266.6,566.2 L268.2,569.0 L269.2,570.7 L269.6,571.6 L269.6,572.3 L269.2,573.1 L268.2,574.1 L267.0,574.6 L265.7,574.5 L264.8,574.0 L264.2,573.3 L263.0,571.7 L261.2,569.6 L259.9,568.1 L258.8,566.8 L258.6,566.0 L258.7,565.1 L259.8,563.4 L260.8,562.2 L261.5,561.7 Z" fill="#e7d6a3" stroke="none"/>
<path d="M258.9,552.7 L257.0,553.3 L255.3,554.6 L253.8,556.5 L252.0,558.0 L250.0,560.1 L249.0,561.8 L249.0,563.4 L250.4,565.1 L252.6,565.8 L254.8,565.4 L256.4,564.0 L258.3,561.9 L260.2,559.3 L261.6,557.1 L261.9,555.0 L261.4,553.3 L260.3,552.7 L258.9,552.7 Z" fill="#e7d6a3" stroke="none"/>
<path d="M593.6,377.4 L591.5,378.0 L589.9,379.7 L589.2,381.6 L589.5,383.6 L590.5,385.3 L593.1,387.2 L596.1,388.4 L598.7,387.8 L600.1,386.0 L600.6,383.9 L600.1,381.5 L598.6,379.7 L595.8,378.3 L593.6,377.4 Z" fill="#e7d6a3" stroke="none"/>
<path d="M584.4,387.1 L582.8,387.7 L581.6,389.1 L580.6,390.9 L579.6,392.4 L578.4,394.6 L578.7,396.8 L579.8,398.2 L581.6,399.0 L584.2,398.5 L585.9,397.7 L587.3,397.8 L588.3,398.5 L589.7,399.4 L591.4,400.0 L593.9,399.5 L595.6,398.2 L596.5,396.4 L596.4,395.0 L595.5,394.3 L594.0,393.8 L592.0,393.5 L590.2,392.5 L588.5,391.2 L587.0,389.6 L586.4,388.5 L585.7,387.2 L584.4,387.1 Z" fill="#e7d6a3" stroke="none"/>
<path d="M634.0,384.6 L637.4,383.3 L640.3,384.0 L642.5,385.0 L644.7,385.3 L646.3,385.5 L647.9,386.5 L649.2,387.9 L651.2,389.0 L652.0,390.6 L651.3,392.6 L650.3,394.2 L649.2,394.8 L647.4,394.8 L645.7,393.7 L643.7,393.6 L642.0,392.7 L640.1,391.9 L638.7,390.0 L637.7,388.8 L636.0,388.2 L634.1,387.6 L633.7,385.9 L634.0,384.6 Z" fill="#e7d6a3" stroke="none"/>
<path d="M618.4,411.9 L616.2,410.8 L614.5,411.9 L614.3,414.5 L615.5,416.5 L617.8,417.4 L619.9,418.5 L621.4,420.2 L623.1,422.1 L624.7,422.2 L626.0,420.8 L626.0,419.1 L625.1,417.7 L623.3,416.6 L622.0,416.2 L620.2,414.2 L618.4,411.9 Z" fill="#e7d6a3" stroke="none"/>
<path d="M650.8,303.4 L649.6,304.2 L649.8,306.0 L651.0,307.8 L652.9,309.1 L654.9,310.3 L656.6,312.0 L660.0,312.9 L663.1,313.4 L666.7,312.5 L667.6,311.9 L668.3,310.7 L668.6,309.0 L667.3,307.8 L665.8,307.0 L663.6,306.9 L661.4,307.4 L659.5,307.4 L657.8,306.9 L656.1,305.9 L654.1,304.4 L652.4,303.6 L650.8,303.4 Z" fill="#e7d6a3" stroke="none"/>
<path d="M660.4,330.6 L658.8,331.9 L658.1,334.0 L658.7,336.4 L660.2,338.6 L662.1,339.3 L664.1,339.0 L665.4,336.9 L666.0,335.0 L665.9,332.8 L664.7,331.3 L662.9,330.5 L660.4,330.6 Z" fill="#e7d6a3" stroke="none"/>
<path d="M653.0,338.8 L650.8,339.3 L650.0,341.2 L650.9,343.2 L652.7,344.5 L655.9,345.7 L658.1,345.4 L659.6,343.5 L659.5,341.3 L658.1,339.6 L655.1,338.6 L653.0,338.8 Z" fill="#e7d6a3" stroke="none"/>
<path d="M635.9,335.3 L635.3,336.6 L635.3,338.6 L636.9,340.5 L639.4,341.6 L641.5,341.8 L643.0,341.0 L643.7,339.4 L643.7,337.8 L642.8,336.7 L641.4,335.8 L639.5,335.0 L637.9,334.7 L635.9,335.3 Z" fill="#e7d6a3" stroke="none"/>
<path d="M360.8,265.2 L355.5,265.9 L354.0,267.7 L354.5,270.1 L356.4,272.5 L359.5,272.7 L362.5,271.3 L364.0,269.9 L363.9,267.0 L362.6,265.3 L360.8,265.2 Z" fill="#e7d6a3" stroke="none"/>
<path d="M348.8,287.3 L345.5,289.0 L344.0,291.5 L343.8,296.0 L344.7,300.6 L346.9,303.8 L350.0,304.2 L354.2,302.9 L358.1,301.4 L359.2,299.4 L358.8,297.0 L357.0,296.0 L355.0,295.4 L353.4,294.1 L352.3,292.0 L351.6,289.6 L350.5,287.9 L348.8,287.3 Z" fill="#e7d6a3" stroke="none"/>
<path d="M307.8,313.6 L300.9,314.1 L295.7,315.4 L290.4,317.8 L287.1,320.6 L286.4,322.1 L286.8,323.8 L287.7,325.8 L288.0,328.0 L288.8,329.3 L291.0,329.0 L292.4,327.7 L293.6,324.1 L294.7,320.5 L296.4,319.0 L299.1,318.6 L302.5,320.2 L306.6,321.8 L309.0,321.6 L310.2,319.3 L309.9,314.9 L309.1,313.7 L307.8,313.6 Z" fill="#e7d6a3" stroke="none"/>
<path d="M279.8,326.0 L276.8,326.7 L274.2,329.3 L274.1,331.7 L275.1,333.8 L275.0,336.9 L276.2,337.9 L277.9,337.3 L279.4,335.6 L281.7,334.1 L283.4,333.5 L283.3,332.1 L282.6,328.8 L281.4,326.8 L279.8,326.0 Z" fill="#e7d6a3" stroke="none"/>
<path d="M265.1,331.9 L263.1,333.1 L260.2,334.2 L257.8,336.3 L257.4,339.2 L259.9,342.9 L264.6,344.9 L267.6,344.5 L269.9,343.2 L269.9,342.0 L268.7,340.2 L268.8,337.9 L269.5,335.8 L269.0,333.6 L267.0,332.0 L265.1,331.9 Z" fill="#e7d6a3" stroke="none"/>
<path d="M242.6,344.9 L240.4,346.2 L238.1,347.7 L235.7,348.2 L233.3,347.4 L230.9,347.2 L229.1,348.2 L228.3,350.0 L228.6,351.6 L229.8,353.5 L229.8,355.5 L229.0,357.4 L228.1,359.5 L228.0,361.1 L229.2,362.9 L231.6,363.3 L234.4,362.9 L236.6,362.4 L237.1,361.1 L237.3,358.8 L238.2,356.5 L240.2,354.6 L242.7,353.4 L245.9,353.1 L247.5,352.3 L248.7,350.6 L249.1,348.3 L248.7,346.5 L247.4,345.2 L245.1,344.1 L242.6,344.9 Z" fill="#e7d6a3" stroke="none"/>
<path d="M230.1,368.0 L229.1,369.9 L229.8,372.4 L231.8,373.1 L233.3,371.8 L233.3,369.4 L232.2,368.2 L230.1,368.0 Z" fill="#e7d6a3" stroke="none"/>
<path d="M266.6,370.7 L265.5,372.8 L265.0,374.8 L263.8,376.6 L264.2,379.1 L265.3,381.1 L267.0,381.4 L268.4,380.8 L269.1,378.4 L270.3,376.6 L271.4,375.1 L271.7,373.1 L271.0,371.2 L268.8,370.3 L266.6,370.7 Z" fill="#e7d6a3" stroke="none"/>
<path d="M273.5,381.5 L272.0,381.9 L270.3,383.4 L268.7,386.3 L267.5,387.9 L265.5,389.4 L263.8,390.4 L261.9,391.6 L261.0,393.2 L260.2,395.5 L259.7,397.9 L259.7,400.2 L261.1,401.2 L262.8,400.2 L263.8,397.7 L266.1,394.9 L268.2,393.2 L270.1,393.1 L271.8,392.7 L275.8,391.0 L277.7,389.6 L278.0,388.1 L278.0,386.4 L277.1,384.4 L275.6,382.4 L273.5,381.5 Z" fill="#e7d6a3" stroke="none"/>
<path d="M31.2,156.7 L36.0,157.5 L37.1,159.6 L37.0,163.0 L34.8,166.1 L30.7,167.9 L27.0,167.7 L22.5,168.7 L18.3,169.0 L15.5,166.9 L15.3,163.6 L18.3,159.4 L20.5,157.4 L24.4,156.5 L28.3,156.2 L31.2,156.7 Z" fill="#e7d6a3" stroke="none"/>
<path d="M315.1,337.2 L313.6,338.9 L312.9,340.9 L312.9,343.4 L313.1,346.6 L312.3,348.8 L310.6,350.5 L308.1,352.7 L305.0,355.0 L304.2,356.4 L304.1,357.9 L305.1,359.2 L307.3,359.6 L311.0,359.0 L316.2,357.1 L320.3,354.6 L323.5,351.7 L328.0,348.3 L332.2,343.5 L333.7,339.9 L333.6,337.0 L331.7,335.5 L329.2,335.0 L324.8,335.3 L320.2,335.9 L316.9,336.2 L315.1,337.2 Z" fill="#e7d6a3" stroke="none"/>
<path d="M389.2,678.9 L459.4,678.6 L459.4,689.6 L389.2,689.8 L389.2,678.9 Z" fill="#4f8a3e" stroke="none"/>
<path d="M466.7,679.8 L478.6,679.9 L478.5,689.9 L466.5,689.8 L466.7,679.8 Z" fill="#4f8a3e" stroke="none"/>
<path d="M696.9,476.6 L699.1,487.2 L656.9,495.7 L654.7,485.1 L696.9,476.6 Z" fill="#4f8a3e" stroke="none"/>
<path d="M625.7,467.8 L617.0,469.7 L618.3,475.6 L627.0,473.6 L625.7,467.8 Z" fill="#4f8a3e" stroke="none"/>
<path d="M581.8,460.9 L570.1,465.2 L572.2,470.8 L583.9,466.5 L581.8,460.9 Z" fill="#4f8a3e" stroke="none"/>
<path d="M166.7,527.6 L151.8,535.7 L155.9,543.3 L170.8,535.2 L166.7,527.6 Z" fill="#4f8a3e" stroke="none"/>
<path d="M244.6,492.1 L249.8,500.9 L212.0,522.9 L206.9,514.0 L244.6,492.1 Z" fill="#4f8a3e" stroke="none"/>
<path d="M332.8,428.3 L318.9,435.1 L321.9,441.1 L335.8,434.3 L332.8,428.3 Z" fill="#4f8a3e" stroke="none"/>
<path d="M690.7,423.0 L679.2,432.4 L690.0,443.6 L697.4,435.2 L695.7,427.5 L693.4,423.6 L690.7,423.0 Z" fill="#4f8a3e" stroke="none"/>
<path d="M590.7,249.0 L575.0,249.2 L575.1,258.5 L590.9,258.2 L590.7,249.0 Z" fill="#4f8a3e" stroke="none"/>
<path d="M506.8,262.4 L505.2,270.1 L510.9,271.3 L512.5,263.6 L506.8,262.4 Z" fill="#4f8a3e" stroke="none"/>
<path d="M59.6,110.5 L62.7,110.3 L65.4,112.0 L66.2,116.0 L67.0,119.8 L66.7,123.0 L65.2,125.5 L62.1,127.3 L58.5,128.2 L55.2,127.8 L52.1,124.6 L50.6,119.1 L50.5,116.1 L51.6,113.6 L53.4,111.9 L57.3,110.7 L59.6,110.5 Z" fill="#4f8a3e" stroke="none"/>
<path d="M646.5,576.5 L641.1,575.8 L633.7,575.2 L629.8,575.5 L626.7,576.5 L625.4,578.4 L624.3,581.3 L623.9,585.9 L624.4,590.8 L626.0,596.0 L629.5,601.1 L635.1,605.5 L641.6,609.3 L647.8,611.6 L656.2,613.3 L662.2,613.4 L669.9,611.6 L675.0,609.2 L677.7,607.2 L679.5,602.8 L678.3,595.7 L675.7,589.8 L674.2,585.0 L672.4,580.8 L670.2,577.5 L667.5,576.2 L663.9,575.3 L658.2,575.5 L651.6,576.9 L646.5,576.5 Z" fill="#2f7825" stroke="none"/>
<path d="M257.5,569.9 L255.4,568.9 L251.4,568.9 L245.7,569.7 L239.5,570.4 L231.0,572.5 L222.4,576.8 L218.9,580.2 L216.9,583.3 L215.8,587.3 L215.1,592.6 L216.6,597.2 L220.5,602.0 L225.2,604.5 L231.9,605.9 L241.1,606.7 L247.0,605.4 L252.8,602.8 L258.3,598.9 L262.3,594.5 L264.9,588.0 L265.2,582.3 L263.0,576.0 L260.2,572.3 L257.5,569.9 Z" fill="#2f7825" stroke="none"/>
<path d="M624.9,383.7 L620.7,383.8 L617.1,387.1 L615.6,391.8 L616.7,398.1 L618.9,403.2 L622.5,408.2 L626.4,412.8 L629.2,415.2 L631.2,419.6 L633.8,422.4 L638.1,425.0 L644.1,424.8 L649.2,422.1 L652.7,417.0 L652.6,411.6 L651.7,406.8 L650.4,403.2 L648.3,402.0 L644.4,401.1 L639.5,398.1 L634.1,394.6 L630.5,390.0 L627.3,385.3 L624.9,383.7 Z" fill="#2f7825" stroke="none"/>
<path d="M608.7,291.1 L603.5,294.3 L599.9,298.7 L598.8,303.7 L599.7,310.4 L604.3,316.6 L610.3,321.6 L617.9,324.5 L629.0,323.2 L635.3,320.3 L640.3,314.7 L642.4,307.5 L640.9,302.0 L636.6,297.4 L629.9,293.8 L623.7,292.0 L617.1,290.7 L613.1,290.6 L608.7,291.1 Z" fill="#2f7825" stroke="none"/>
<path d="M257.0,387.7 L232.8,377.7 L227.7,381.2 L223.9,385.1 L221.8,389.6 L220.6,393.8 L219.8,399.1 L219.0,404.7 L219.9,410.1 L223.5,414.8 L229.8,418.3 L236.0,418.6 L240.1,416.4 L244.6,414.0 L249.7,412.3 L252.5,408.2 L253.6,402.0 L254.9,395.6 L257.0,387.7 Z" fill="#2f7825" stroke="none"/>
<path d="M36.0,119.1 L42.1,121.4 L45.2,124.0 L47.3,128.6 L48.4,133.8 L47.5,140.2 L45.0,144.1 L40.7,147.8 L36.1,149.9 L31.7,150.2 L26.1,149.4 L23.1,148.6 L19.2,146.2 L16.1,141.3 L16.0,135.6 L16.4,129.8 L20.1,123.4 L23.8,120.6 L28.8,119.1 L31.9,118.6 L36.0,119.1 Z" fill="#2f7825" stroke="none"/>
<path d="M122.2,570.4 L119.2,567.4 L115.8,565.2 L111.3,563.9 L106.1,564.0 L100.6,565.7 L96.2,568.4 L92.2,572.9 L89.9,577.2 L85.6,586.4 L81.3,596.0 L79.4,600.6 L78.8,604.0 L80.2,607.0 L84.6,608.4 L92.8,608.2 L102.9,607.1 L113.3,604.6 L119.2,601.7 L122.7,598.4 L125.3,593.3 L126.4,587.8 L125.9,580.5 L124.5,574.6 L122.2,570.4 Z" fill="#2f7825" stroke="none"/>
<path d="M607.1,266.7 L359.1,236.6 L235.0,398.3" fill="none" stroke="#ffd64a" stroke-width="5" stroke-linecap="round" stroke-linejoin="round" opacity="0.95"/>
</svg>