<svg xmlns="http://www.w3.org/2000/svg" viewBox="0 0 611 800" preserveAspectRatio="xMidYMid meet">
<rect width="100%" height="100%" fill="#143018"/>
<path d="M-65.3,866.3 L-87.2,869.6 L-100.3,843.4 L-84.2,810.6 L-47.4,814.2 L-38.0,798.5 L-4.1,772.7 L39.7,763.6 L69.9,753.7 L125.7,732.6 L173.4,716.2 L181.1,737.7 L180.3,774.9 L158.8,786.5 L142.5,784.3 L166.5,776.7 L175.2,765.4 L169.8,745.7 L146.8,748.3 L128.2,758.5 L123.1,784.0 L126.4,796.4 L119.5,801.1 L115.8,766.1 L103.5,765.7 L88.1,777.1 L78.7,792.3 L67.0,806.9 L34.2,808.4 L13.8,827.7 L-4.1,841.5 L-65.3,866.3 Z" fill="#0f2810" stroke="none"/>
<path d="M193.1,742.8 L191.6,724.2 L221.2,682.6 L225.2,734.4 L228.5,779.2 L228.5,816.8 L210.2,819.7 L203.7,809.5 L211.3,785.8 L209.9,754.5 L193.1,742.8 Z" fill="#0f2810" stroke="none"/>
<path d="M107.2,432.2 L135.2,407.8 L150.2,437.0 L154.6,453.0 L134.5,460.3 L107.2,432.2 Z" fill="#0f2810" stroke="none"/>
<path d="M430.5,662.6 L188.1,154.3 L180.1,137.4" fill="none" stroke="#4e8b39" stroke-width="106.8" stroke-linecap="round" stroke-linejoin="round" opacity="0.85"/>
<path d="M306.4,585.7 L315.2,594.2 L322.7,608.9 L337.1,619.2 L343.6,624.3 L348.5,634.3 L353.1,644.8 L354.2,654.9 L355.4,666.2 L357.0,679.0 L360.5,693.2 L362.1,730.6 L366.3,753.9 L374.3,788.3 L379.9,804.4 L387.5,819.4 L389.4,824.2 L389.2,829.9 L390.2,837.8 L393.7,851.2 L405.6,882.7 L428.5,924.3 L458.6,973.4 L477.2,1001.8 L482.9,1009.7 L487.1,1018.1 L489.1,1029.7 L487.3,1040.8 L483.6,1050.9 L473.7,1059.2 L461.5,1061.8 L450.6,1058.1 L441.9,1052.8 L429.8,1033.8 L399.2,981.9 L363.0,929.7 L324.0,856.1 L309.6,815.7 L299.5,773.9 L297.2,740.0 L297.6,726.4 L296.8,708.2 L297.5,685.1 L295.8,667.7 L295.5,647.5 L296.1,633.0 L295.3,612.6 L292.0,594.7 L296.5,586.1 L306.4,585.7 Z" fill="#5a9540" stroke="none"/>
<path d="M-696.6,770.4 L-706.4,764.2 L-712.3,755.4 L-715.9,749.0 L-720.8,745.9 L-732.9,742.0 L-749.4,738.4 L-763.1,727.6 L-768.5,707.3 L-770.8,679.4 L-772.1,667.3 L-761.0,649.5 L-740.4,636.4 L-718.3,630.9 L-696.6,630.9 L-683.5,635.3 L-667.7,649.8 L-654.9,662.1 L-647.9,675.0 L-643.3,690.0 L-638.3,700.4 L-634.5,705.0 L-632.1,707.5 L-627.8,709.4 L-623.8,710.2 L-620.6,711.4 L-617.9,712.5 L-613.4,715.9 L-609.5,718.6 L-608.9,721.7 L-608.4,724.4 L-606.8,726.4 L-603.0,727.3 L-599.6,727.9 L-597.6,728.8 L-596.9,731.1 L-595.6,733.3 L-594.1,734.8 L-591.4,735.7 L-587.5,736.1 L-583.5,736.7 L-580.2,739.3 L-577.5,741.9 L-575.5,744.9 L-571.1,745.6 L-566.6,748.2 L-559.2,758.0 L-551.2,764.2 L-543.7,770.9 L-537.1,776.5 L-534.4,780.4 L-533.6,786.5 L-531.8,790.5 L-528.1,792.5 L-521.9,793.2 L-513.4,793.3 L-496.3,798.9 L-454.4,822.5 L-400.7,849.0 L-342.6,876.7 L-286.7,901.6 L-225.0,927.4 L-160.6,939.5 L-111.9,942.6 L-80.0,941.3 L-60.1,941.5 L-41.0,942.4 L-33.6,946.5 L-27.4,949.3 L-22.4,948.2 L-20.0,945.6 L-17.6,941.7 L-18.9,937.2 L-5.5,937.0 L22.7,936.3 L50.5,944.3 L63.7,955.8 L76.2,967.3 L86.4,974.4 L93.8,980.5 L111.1,984.0 L112.6,988.3 L115.2,991.8 L120.0,992.9 L123.7,992.9 L127.6,990.0 L128.0,984.8 L127.8,980.1 L139.1,986.6 L155.3,994.4 L167.5,999.6 L182.6,1003.9 L189.8,1006.3 L190.4,1010.0 L191.7,1013.9 L193.8,1016.0 L196.7,1017.5 L203.9,1014.6 L205.2,1010.2 L227.4,1028.0 L242.4,1047.3 L269.8,1072.5 L286.6,1094.2 L306.1,1127.2 L318.0,1146.5 L322.4,1160.7 L322.6,1173.5 L322.4,1189.3 L311.0,1197.3 L273.2,1190.5 L243.5,1174.3 L219.3,1160.7 L193.3,1149.1 L172.1,1147.3 L159.6,1146.6 L160.1,1143.4 L159.9,1139.8 L158.2,1136.2 L155.8,1134.5 L151.5,1132.8 L146.5,1131.4 L141.1,1127.6 L135.4,1124.3 L130.4,1119.3 L130.6,1114.3 L130.4,1111.1 L128.8,1106.6 L126.0,1103.2 L118.7,1096.5 L109.7,1094.8 L95.3,1095.1 L84.6,1095.1 L72.6,1094.7 L59.5,1092.4 L48.6,1087.6 L42.5,1085.5 L44.7,1083.3 L46.0,1078.6 L44.1,1074.4 L40.3,1070.6 L34.3,1070.4 L29.7,1070.6 L24.8,1067.4 L21.0,1063.0 L18.4,1057.6 L20.5,1055.3 L23.3,1051.6 L22.1,1046.4 L19.9,1042.1 L17.0,1039.5 L0.2,1036.9 L-31.9,1031.9 L-100.8,1023.0 L-160.8,1006.1 L-200.0,992.9 L-262.0,975.5 L-285.9,971.4 L-297.9,972.6 L-305.5,974.0 L-314.4,975.2 L-328.4,976.8 L-326.4,973.0 L-326.6,969.4 L-327.3,966.7 L-329.9,960.2 L-341.4,950.8 L-356.7,940.9 L-401.4,917.8 L-465.7,881.9 L-514.9,857.0 L-549.7,838.6 L-571.1,828.4 L-590.0,819.8 L-599.7,814.5 L-593.3,813.0 L-590.4,810.3 L-589.3,807.6 L-589.5,802.1 L-590.7,798.8 L-594.4,794.3 L-604.8,788.6 L-614.4,781.3 L-635.2,770.2 L-646.5,766.6 L-660.3,764.8 L-670.4,766.9 L-685.7,771.3 L-696.6,770.4 Z" fill="#5a9540" stroke="none"/>
<path d="M-373.8,728.6 L-392.0,722.0 L-406.2,699.1 L-404.4,677.9 L-382.5,660.5 L-352.2,654.3 L-325.3,655.3 L-285.9,644.4 L-253.3,629.8 L-243.6,624.0 L-229.2,618.4 L-216.0,618.0 L-204.6,623.4 L-191.9,629.6 L-178.8,635.6 L-167.8,643.8 L-157.3,650.0 L-147.6,655.0 L-131.6,652.0 L-109.9,644.1 L-89.9,641.7 L-62.9,652.0 L-35.6,655.6 L-3.6,649.2 L22.4,642.2 L55.9,629.1 L75.5,634.1 L93.9,636.3 L104.7,635.4 L113.9,633.3 L120.6,626.6 L127.3,613.8 L132.5,595.1 L142.7,577.6 L149.4,567.8 L161.9,563.1 L176.9,563.3 L188.4,564.6 L201.4,561.3 L215.7,557.4 L224.6,560.0 L229.3,569.1 L235.8,581.7 L239.1,591.7 L241.0,600.1 L240.8,610.1 L230.0,621.3 L214.4,635.4 L194.2,653.0 L177.3,670.1 L165.0,679.6 L147.4,682.5 L124.3,683.1 L102.1,681.2 L75.7,681.6 L50.1,689.4 L-11.8,704.1 L-46.7,716.1 L-67.3,727.3 L-80.3,735.8 L-87.9,741.8 L-90.5,746.6 L-101.1,750.9 L-112.0,750.3 L-126.0,746.4 L-144.5,736.6 L-186.5,730.4 L-265.8,728.8 L-337.7,729.3 L-373.8,728.6 Z" fill="#5a9540" stroke="none"/>
<path d="M143.3,249.4 L139.2,232.8 L136.6,218.0 L130.7,204.6 L122.5,190.5 L118.4,181.4 L119.4,172.7 L127.9,164.5 L136.6,157.6 L142.4,149.1 L141.6,131.1 L137.4,112.5 L140.9,97.5 L155.2,87.6 L164.5,81.5 L178.4,81.7 L187.7,82.1 L196.4,88.0 L208.1,106.0 L219.6,123.1 L233.0,144.6 L241.9,159.7 L246.0,171.6 L248.8,186.4 L249.9,197.7 L246.7,205.7 L241.5,216.9 L233.9,223.7 L230.8,230.6 L230.8,237.3 L225.8,243.6 L215.9,247.1 L185.3,252.3 L149.6,256.2 L143.3,249.4 Z" fill="#5a9540" stroke="none"/>
<path d="M313.4,720.7 L313.4,716.5 L315.6,712.9 L319.6,711.8 L324.0,713.9 L326.2,718.2 L325.7,721.6 L324.6,724.8 L323.0,726.9 L320.6,727.7 L316.5,726.6 L313.4,720.7 Z" fill="#e7d6a3" stroke="none"/>
<path d="M333.8,695.4 L332.7,691.4 L334.3,686.6 L338.0,684.8 L343.3,684.5 L346.4,687.7 L347.7,692.1 L347.7,695.1 L345.3,698.0 L343.2,699.6 L339.4,699.8 L336.4,699.8 L333.8,695.4 Z" fill="#e7d6a3" stroke="none"/>
<path d="M-85.0,745.4 L-83.3,741.7 L-80.0,739.3 L-75.8,738.9 L-69.6,739.3 L-67.6,742.0 L-67.2,746.6 L-67.0,750.3 L-68.6,751.9 L-70.5,753.5 L-73.7,754.5 L-78.1,754.7 L-81.9,753.6 L-84.6,750.7 L-85.0,745.4 Z" fill="#e7d6a3" stroke="none"/>
<path d="M88.4,650.7 L88.4,648.0 L89.1,645.8 L90.9,644.1 L94.2,643.1 L97.1,643.0 L99.3,643.6 L100.7,645.4 L101.4,648.2 L101.3,650.1 L100.7,651.9 L99.1,653.4 L97.1,654.5 L94.0,654.9 L92.3,654.9 L90.3,653.7 L88.4,650.7 Z" fill="#e7d6a3" stroke="none"/>
<path d="M99.6,622.7 L99.9,620.1 L100.8,618.1 L103.6,616.5 L106.3,615.8 L108.8,616.2 L110.9,617.8 L112.1,620.2 L112.4,622.8 L112.2,624.7 L110.7,626.6 L108.7,627.4 L105.9,628.1 L103.5,627.9 L100.8,625.9 L99.6,622.7 Z" fill="#e7d6a3" stroke="none"/>
<path d="M162.7,655.4 L162.7,652.4 L163.6,649.8 L165.7,647.9 L168.4,647.3 L171.0,647.5 L173.8,650.2 L174.4,653.2 L173.7,656.0 L173.3,657.6 L171.5,659.1 L169.2,659.7 L166.7,659.5 L164.5,658.3 L162.7,655.4 Z" fill="#e7d6a3" stroke="none"/>
<path d="M161.8,194.3 L161.7,190.7 L162.6,187.8 L164.4,185.9 L167.5,185.4 L171.1,186.4 L173.2,189.2 L174.0,191.9 L174.1,193.9 L173.0,196.4 L171.3,197.8 L169.1,198.5 L165.2,198.1 L161.8,194.3 Z" fill="#e7d6a3" stroke="none"/>
<path d="M184.1,207.5 L184.3,203.9 L185.0,200.5 L188.0,198.7 L192.8,198.7 L196.7,200.9 L197.7,205.7 L197.3,208.0 L195.8,211.2 L193.8,212.6 L189.7,213.3 L186.3,211.9 L184.1,207.5 Z" fill="#e7d6a3" stroke="none"/>
<path d="M231.0,168.8 L234.7,168.2 L237.7,168.8 L239.8,171.3 L239.9,174.3 L238.9,177.1 L237.9,179.4 L235.3,180.7 L232.4,180.6 L230.4,178.9 L229.0,176.0 L228.8,173.6 L229.2,171.0 L231.0,168.8 Z" fill="#e7d6a3" stroke="none"/>
<path d="M0.5,110.6 L90.8,124.5 L89.1,145.8 L-4.1,130.6 L0.5,110.6 Z" fill="#4f8a3e" stroke="none"/>
<path d="M-97.5,227.8 L-52.2,219.1 L-47.2,241.2 L-91.7,250.1 L-97.5,227.8 Z" fill="#4f8a3e" stroke="none"/>
<path d="M82.4,373.6 L112.8,378.2 L110.6,395.8 L81.5,392.1 L82.4,373.6 Z" fill="#4f8a3e" stroke="none"/>
<path d="M-166.6,367.7 L-38.3,387.1 L-40.6,400.8 L-169.5,382.7 L-166.6,367.7 Z" fill="#4f8a3e" stroke="none"/>
<path d="M412.1,638.9 L429.1,632.5 L441.7,662.4 L423.5,668.5 L412.1,638.9 Z" fill="#4f8a3e" stroke="none"/>
<path d="M387.0,601.4 L415.9,588.0 L431.7,619.8 L402.6,632.6 L387.0,601.4 Z" fill="#4f8a3e" stroke="none"/>
<path d="M352.8,565.5 L402.3,544.5 L418.6,578.1 L369.7,600.1 L352.8,565.5 Z" fill="#4f8a3e" stroke="none"/>
<path d="M364.9,508.7 L380.9,501.5 L394.5,527.0 L377.7,534.4 L364.9,508.7 Z" fill="#4f8a3e" stroke="none"/>
<path d="M296.9,494.2 L308.9,488.8 L319.8,512.6 L308.4,517.8 L296.9,494.2 Z" fill="#4f8a3e" stroke="none"/>
<path d="M321.8,618.5 L326.8,623.4 L331.1,630.7 L333.4,638.3 L334.8,649.9 L330.5,660.1 L328.4,667.9 L326.2,676.6 L323.8,680.5 L320.6,684.1 L316.4,685.6 L311.8,685.9 L308.5,685.0 L306.9,682.6 L306.0,678.9 L306.0,674.9 L306.7,669.2 L308.1,659.5 L307.6,650.3 L306.3,641.8 L305.1,633.8 L305.5,628.1 L307.9,623.8 L312.1,619.9 L316.4,618.1 L321.8,618.5 Z" fill="#2f7825" stroke="none"/>
<path d="M117.7,641.4 L122.9,629.1 L132.4,615.3 L142.7,603.6 L154.4,593.6 L171.7,588.3 L191.6,584.4 L205.3,585.4 L214.2,588.7 L222.4,597.0 L223.9,608.5 L223.8,615.8 L221.4,620.0 L217.4,623.6 L208.8,627.5 L198.0,629.8 L186.0,632.5 L172.3,636.4 L163.0,641.6 L156.3,647.7 L152.4,651.0 L145.7,653.3 L136.2,654.1 L128.6,653.8 L121.3,649.6 L117.7,641.4 Z" fill="#2f7825" stroke="none"/>
<path d="M162.1,163.9 L153.3,145.1 L147.3,127.1 L147.7,113.5 L155.7,102.7 L166.4,96.8 L180.5,96.7 L188.1,103.6 L192.9,113.6 L195.4,125.3 L200.9,138.6 L207.4,151.9 L212.2,161.0 L214.7,169.4 L213.5,177.6 L209.8,185.1 L203.8,188.9 L195.1,190.3 L184.7,188.9 L174.3,180.1 L162.1,163.9 Z" fill="#2f7825" stroke="none"/>
<path d="M430.5,662.6 L188.1,154.3 L180.1,137.4" fill="none" stroke="#ffd64a" stroke-width="3.5" stroke-linecap="round" stroke-linejoin="round" opacity="0.95"/>
</svg>