<svg xmlns="http://www.w3.org/2000/svg" viewBox="0 0 800 600" preserveAspectRatio="xMidYMid slice">
<rect width="100%" height="100%" fill="#143018"/>
<path d="M49.0,490.3 L49.7,487.7 L56.7,488.4 L54.5,492.8 L49.0,490.3 Z" fill="#0f2810" stroke="none"/>
<path d="M179.6,378.9 L178.3,373.0 L177.8,369.3 L178.0,365.7 L181.5,363.3 L184.3,364.8 L190.2,376.0 L189.1,379.7 L185.2,381.0 L179.6,378.9 Z" fill="#0f2810" stroke="none"/>
<path d="M245.5,557.1 L235.3,558.6 L229.1,546.3 L236.6,531.0 L253.9,532.7 L258.3,525.3 L274.1,513.2 L294.6,509.0 L308.8,504.4 L334.9,494.5 L357.2,486.8 L360.8,496.9 L360.4,514.3 L350.4,519.7 L342.7,518.7 L354.0,515.1 L358.0,509.8 L355.5,500.6 L344.7,501.8 L336.1,506.6 L333.7,518.5 L335.2,524.3 L332.0,526.5 L330.2,510.2 L324.5,510.0 L317.3,515.3 L312.9,522.4 L307.4,529.3 L292.1,530.0 L282.5,539.0 L274.1,545.5 L245.5,557.1 Z" fill="#0f2810" stroke="none"/>
<path d="M366.4,499.3 L365.7,490.6 L379.5,471.1 L381.4,495.3 L382.9,516.3 L382.9,533.9 L374.4,535.2 L371.4,530.5 L374.9,519.4 L374.3,504.7 L366.4,499.3 Z" fill="#0f2810" stroke="none"/>
<path d="M326.2,353.9 L339.3,342.5 L346.3,356.2 L348.4,363.7 L339.0,367.1 L326.2,353.9 Z" fill="#0f2810" stroke="none"/>
<path d="M168.9,217.7 L165.7,205.5 L168.6,202.1 L182.7,202.0 L189.5,204.1 L200.1,211.4 L215.5,223.5 L213.2,226.8 L208.2,232.9 L208.2,238.8 L199.4,235.1 L194.3,220.6 L181.8,223.0 L168.9,217.7 Z" fill="#0f2810" stroke="none"/>
<path d="M-61.5,236.8 L-60.9,229.7 L-59.4,222.2 L-62.4,218.5 L-68.8,212.2 L-65.3,207.3 L-59.2,207.3 L-53.4,210.8 L-48.9,212.0 L-37.0,208.6 L-27.7,209.2 L-22.9,209.9 L-15.9,203.8 L-8.8,199.1 L-4.0,203.6 L-0.1,208.8 L8.1,212.4 L15.0,217.4 L22.6,216.7 L32.7,217.7 L35.0,229.6 L42.2,233.8 L44.2,242.6 L31.1,245.5 L25.0,242.5 L21.7,237.0 L17.0,236.8 L15.7,242.9 L12.4,246.3 L1.8,248.0 L-3.7,246.6 L-7.8,242.2 L-10.6,240.3 L-13.2,234.4 L-17.8,231.7 L-21.6,234.5 L-19.4,239.3 L-27.2,240.7 L-28.3,236.0 L-28.4,233.4 L-34.6,229.0 L-36.0,233.1 L-34.2,237.3 L-37.6,238.4 L-51.3,237.9 L-61.5,236.8 Z" fill="#0f2810" stroke="none"/>
<path d="M47.4,231.0 L48.0,224.9 L55.8,219.4 L71.9,222.3 L74.2,224.1 L72.8,230.0 L72.5,235.0 L70.6,237.7 L57.6,236.9 L52.8,237.0 L47.4,231.0 Z" fill="#0f2810" stroke="none"/>
<path d="M61.9,105.9 L63.5,99.5 L67.3,95.5 L73.6,98.0 L75.4,103.1 L76.3,108.3 L69.6,110.7 L61.9,105.9 Z" fill="#0f2810" stroke="none"/>
<path d="M83.8,97.6 L80.9,88.9 L84.1,88.0 L90.9,91.6 L96.8,95.8 L94.1,99.2 L91.4,99.7 L83.8,97.6 Z" fill="#0f2810" stroke="none"/>
<path d="M419.4,425.7 L423.5,429.7 L427.0,436.6 L433.8,441.4 L436.9,443.8 L439.1,448.5 L441.3,453.4 L441.8,458.1 L442.4,463.4 L443.1,469.4 L444.7,476.0 L445.5,493.6 L447.5,504.5 L451.2,520.6 L453.8,528.1 L457.4,535.1 L458.3,537.4 L458.2,540.0 L458.6,543.7 L460.3,550.0 L465.8,564.7 L476.5,584.2 L490.6,607.2 L499.4,620.4 L502.0,624.2 L504.0,628.1 L504.9,633.5 L504.1,638.7 L502.4,643.4 L497.7,647.3 L492.0,648.5 L486.9,646.8 L482.8,644.3 L477.2,635.4 L462.8,611.2 L445.9,586.7 L427.7,552.3 L420.9,533.4 L416.2,513.8 L415.1,497.9 L415.3,491.6 L414.9,483.1 L415.3,472.2 L414.5,464.1 L414.3,454.7 L414.6,447.9 L414.3,438.4 L412.7,429.9 L414.8,426.0 L419.4,425.7 Z" fill="#5a9540" stroke="none"/>
<path d="M-49.9,512.2 L-54.5,509.3 L-57.3,505.2 L-59.0,502.2 L-61.3,500.7 L-66.9,498.9 L-74.7,497.2 L-81.0,492.1 L-83.6,482.6 L-84.7,469.6 L-85.3,463.9 L-80.1,455.6 L-70.4,449.5 L-60.1,446.9 L-49.9,446.9 L-43.8,449.0 L-36.4,455.7 L-30.4,461.5 L-27.1,467.5 L-25.0,474.5 L-22.6,479.4 L-20.9,481.6 L-19.7,482.7 L-17.7,483.6 L-15.9,484.0 L-14.4,484.5 L-13.1,485.1 L-11.0,486.7 L-9.2,487.9 L-8.9,489.4 L-8.6,490.6 L-7.9,491.6 L-6.1,492.0 L-4.5,492.3 L-3.6,492.7 L-3.3,493.8 L-2.7,494.8 L-2.0,495.5 L-0.7,495.9 L1.1,496.1 L3.0,496.4 L4.6,497.6 L5.8,498.8 L6.7,500.2 L8.8,500.6 L10.9,501.8 L14.4,506.4 L18.1,509.3 L21.6,512.4 L24.7,515.1 L26.0,516.9 L26.3,519.7 L27.2,521.6 L28.9,522.5 L31.8,522.8 L35.8,522.9 L43.8,525.5 L63.4,536.6 L88.5,548.9 L115.7,561.9 L141.9,573.6 L170.8,585.7 L200.9,591.3 L223.7,592.8 L238.6,592.1 L247.9,592.2 L256.9,592.6 L260.3,594.6 L263.2,595.9 L265.6,595.4 L266.7,594.2 L267.8,592.3 L267.2,590.2 L273.5,590.1 L286.7,589.8 L299.7,593.6 L305.8,598.9 L311.7,604.3 L316.5,607.7 L319.9,610.5 L328.0,612.1 L328.8,614.1 L330.0,615.8 L332.2,616.3 L333.9,616.3 L335.7,615.0 L336.0,612.5 L335.9,610.3 L341.1,613.3 L348.7,617.0 L354.4,619.4 L361.5,621.5 L364.9,622.6 L365.2,624.3 L365.7,626.1 L366.7,627.1 L368.1,627.8 L371.5,626.5 L372.1,624.4 L382.4,632.7 L389.5,641.7 L402.3,653.6 L410.1,663.7 L419.3,679.1 L424.8,688.2 L426.9,694.8 L427.0,700.8 L426.9,708.2 L421.6,711.9 L403.9,708.8 L390.0,701.2 L378.7,694.8 L366.5,689.4 L356.6,688.5 L350.7,688.2 L351.0,686.7 L350.9,685.0 L350.1,683.3 L348.9,682.6 L346.9,681.8 L344.6,681.1 L342.1,679.4 L339.4,677.8 L337.1,675.4 L337.2,673.1 L337.1,671.6 L336.3,669.5 L335.0,667.9 L331.6,664.8 L327.4,664.0 L320.6,664.1 L315.6,664.1 L310.0,663.9 L303.9,662.8 L298.8,660.6 L295.9,659.6 L297.0,658.6 L297.6,656.4 L296.7,654.5 L294.9,652.7 L292.1,652.6 L290.0,652.7 L287.7,651.2 L285.9,649.1 L284.7,646.6 L285.7,645.5 L286.9,643.8 L286.4,641.3 L285.4,639.3 L284.0,638.1 L276.1,636.9 L261.1,634.5 L228.9,630.4 L200.8,622.5 L182.4,616.3 L153.4,608.2 L142.2,606.2 L136.6,606.8 L133.1,607.4 L128.9,608.0 L122.4,608.8 L123.3,607.0 L123.2,605.3 L122.9,604.0 L121.7,601.0 L116.3,596.6 L109.1,591.9 L88.2,581.2 L58.1,564.4 L35.1,552.7 L18.8,544.1 L8.8,539.3 L-0.0,535.3 L-4.6,532.8 L-1.6,532.1 L-0.2,530.8 L0.3,529.6 L0.2,527.0 L-0.4,525.5 L-2.1,523.3 L-7.0,520.7 L-11.5,517.3 L-21.2,512.1 L-26.5,510.4 L-33.0,509.5 L-37.7,510.6 L-44.8,512.6 L-49.9,512.2 Z" fill="#5a9540" stroke="none"/>
<path d="M101.1,492.6 L92.6,489.5 L86.0,478.8 L86.8,468.9 L97.0,460.7 L111.2,457.8 L123.8,458.3 L142.2,453.2 L157.5,446.4 L162.0,443.7 L168.8,441.0 L175.0,440.9 L180.3,443.4 L186.2,446.3 L192.4,449.1 L197.5,453.0 L202.4,455.9 L207.0,458.2 L214.5,456.8 L224.6,453.1 L234.0,451.9 L246.6,456.8 L259.4,458.5 L274.4,455.4 L286.5,452.2 L302.2,446.0 L311.4,448.4 L320.0,449.4 L325.1,449.0 L329.3,448.0 L332.5,444.9 L335.6,438.9 L338.0,430.2 L342.8,421.9 L345.9,417.4 L351.8,415.2 L358.8,415.2 L364.2,415.9 L370.3,414.3 L377.0,412.5 L381.1,413.7 L383.4,418.0 L386.4,423.9 L387.9,428.5 L388.8,432.5 L388.7,437.2 L383.7,442.4 L376.4,449.0 L366.9,457.2 L359.0,465.2 L353.3,469.7 L345.0,471.0 L334.2,471.3 L323.8,470.4 L311.5,470.6 L299.5,474.3 L270.5,481.2 L254.2,486.7 L244.5,492.0 L238.5,496.0 L234.9,498.8 L233.7,501.0 L228.7,503.1 L223.7,502.8 L217.1,500.9 L208.4,496.4 L188.8,493.4 L151.7,492.7 L118.0,492.9 L101.1,492.6 Z" fill="#5a9540" stroke="none"/>
<path d="M343.1,268.4 L341.2,260.6 L340.0,253.7 L337.2,247.4 L333.4,240.8 L331.4,236.6 L331.9,232.5 L335.9,228.6 L340.0,225.4 L342.7,221.4 L342.3,213.0 L340.4,204.3 L342.0,197.3 L348.7,192.6 L353.0,189.8 L359.5,189.9 L363.9,190.1 L367.9,192.9 L373.4,201.3 L378.8,209.3 L385.1,219.3 L389.2,226.4 L391.2,232.0 L392.5,238.9 L393.0,244.2 L391.5,247.9 L389.0,253.2 L385.5,256.3 L384.1,259.6 L384.1,262.7 L381.7,265.7 L377.1,267.3 L362.8,269.7 L346.0,271.5 L343.1,268.4 Z" fill="#5a9540" stroke="none"/>
<path d="M2.9,300.6 L-17.6,298.9 L-56.8,298.7 L-75.9,297.1 L-100.8,291.5 L-106.5,290.1 L-105.3,288.4 L-104.8,286.6 L-105.4,284.6 L-106.5,283.5 L-108.9,283.3 L-111.7,278.9 L-118.3,268.0 L-125.1,261.3 L-137.1,251.0 L-152.7,242.4 L-165.5,235.5 L-178.0,230.9 L-185.8,227.1 L-187.9,225.4 L-186.4,224.4 L-185.1,222.9 L-184.3,220.7 L-184.8,218.8 L-184.9,216.8 L-183.8,213.6 L-182.8,211.6 L-181.2,210.7 L-180.0,209.6 L-179.7,207.5 L-179.8,205.1 L-179.9,203.8 L-177.7,201.1 L-176.2,199.3 L-174.8,198.8 L-173.6,197.5 L-172.8,195.3 L-171.4,192.3 L-164.9,196.5 L-156.8,202.7 L-144.0,214.6 L-131.1,223.9 L-115.2,232.4 L-95.5,242.8 L-84.7,246.6 L-77.8,247.6 L-73.6,247.5 L-72.9,249.5 L-71.5,251.0 L-69.8,251.4 L-66.9,250.5 L-65.7,249.8 L-65.1,248.3 L-64.8,246.1 L-64.9,244.7 L-62.2,245.4 L-60.4,248.0 L-59.0,249.5 L-56.5,250.7 L-54.6,250.5 L-50.9,250.2 L-43.2,251.1 L-33.5,253.1 L-3.8,268.0 L18.5,272.7 L47.2,277.2 L61.4,280.6 L71.0,297.3 L67.7,307.0 L62.7,309.4 L52.7,310.4 L28.0,306.0 L2.9,300.6 Z" fill="#5a9540" stroke="none"/>
<path d="M128.2,182.4 L109.3,171.2 L98.4,165.2 L86.2,164.4 L79.1,164.6 L55.8,156.0 L3.1,139.3 L-43.9,127.4 L-81.2,116.5 L-91.8,107.4 L-96.5,101.5 L-104.6,97.3 L-118.7,97.4 L-133.4,98.8 L-147.3,97.4 L-199.2,84.1 L-231.3,75.2 L-258.3,64.4 L-266.9,62.1 L-278.6,62.3 L-287.7,65.0 L-294.4,68.0 L-303.2,70.3 L-316.2,68.7 L-324.7,61.1 L-334.0,46.8 L-337.3,36.3 L-339.3,23.0 L-332.9,15.2 L-326.8,10.1 L-315.8,8.6 L-306.9,10.5 L-294.1,20.5 L-286.0,29.6 L-273.6,33.9 L-257.3,39.7 L-222.0,51.6 L-201.5,58.7 L-173.8,66.9 L-162.5,69.1 L-147.4,69.8 L-142.1,70.3 L-141.3,72.5 L-140.5,73.9 L-138.6,75.2 L-136.2,75.2 L-134.0,74.6 L-132.3,73.3 L-131.2,71.6 L-131.2,69.6 L-131.2,67.6 L-113.2,74.6 L-94.3,81.0 L-62.1,92.4 L-26.6,103.7 L11.4,113.2 L59.1,127.1 L101.3,140.3 L130.4,152.8 L143.0,157.4 L148.0,162.2 L150.6,166.6 L151.3,171.7 L150.0,177.0 L148.0,180.2 L145.1,184.3 L138.2,185.1 L128.2,182.4 Z" fill="#5a9540" stroke="none"/>
<path d="M422.7,488.9 L422.7,486.9 L423.7,485.3 L425.6,484.8 L427.7,485.7 L428.7,487.7 L428.4,489.3 L427.9,490.8 L427.2,491.8 L426.1,492.2 L424.1,491.7 L422.7,488.9 Z" fill="#e7d6a3" stroke="none"/>
<path d="M432.2,477.1 L431.7,475.2 L432.5,473.0 L434.2,472.1 L436.7,472.0 L438.1,473.5 L438.7,475.5 L438.7,476.9 L437.6,478.3 L436.7,479.0 L434.9,479.1 L433.5,479.1 L432.2,477.1 Z" fill="#e7d6a3" stroke="none"/>
<path d="M344.9,684.9 L345.8,683.5 L347.4,683.4 L349.2,684.0 L350.1,685.9 L349.9,687.4 L349.4,688.3 L348.5,689.0 L347.7,689.4 L346.3,689.0 L345.6,688.3 L344.9,686.9 L344.9,684.9 Z" fill="#e7d6a3" stroke="none"/>
<path d="M332.1,669.4 L333.3,668.9 L334.3,668.9 L335.5,669.6 L336.1,671.2 L336.4,672.5 L335.8,673.6 L335.0,674.3 L334.0,674.4 L332.8,673.8 L332.1,673.0 L331.8,671.6 L331.6,670.2 L332.1,669.4 Z" fill="#e7d6a3" stroke="none"/>
<path d="M292.3,653.8 L293.7,653.6 L295.4,654.1 L296.2,655.5 L296.5,657.1 L296.2,658.2 L295.4,659.1 L294.9,659.7 L293.7,659.7 L292.7,659.0 L291.8,657.8 L291.4,656.3 L291.5,655.1 L292.3,653.8 Z" fill="#e7d6a3" stroke="none"/>
<path d="M281.3,639.6 L282.8,639.3 L284.1,639.6 L285.3,640.9 L285.8,642.4 L285.6,643.8 L285.3,644.6 L284.2,645.1 L283.1,645.2 L282.2,644.8 L281.3,644.2 L280.6,642.4 L280.5,641.1 L280.7,640.3 L281.3,639.6 Z" fill="#e7d6a3" stroke="none"/>
<path d="M365.8,623.7 L366.0,622.6 L366.5,621.8 L367.5,621.3 L368.7,621.4 L369.5,621.8 L370.2,622.7 L370.4,623.6 L370.4,624.7 L370.2,625.8 L369.6,626.5 L368.5,626.9 L367.5,626.5 L366.6,625.8 L366.2,625.0 L365.8,623.7 Z" fill="#e7d6a3" stroke="none"/>
<path d="M331.1,609.8 L332.6,609.9 L333.6,610.4 L334.4,611.6 L334.6,612.7 L334.3,614.2 L333.6,614.9 L332.9,615.2 L332.0,615.2 L330.9,614.6 L330.2,613.5 L329.9,612.4 L329.7,611.3 L330.2,610.2 L331.1,609.8 Z" fill="#e7d6a3" stroke="none"/>
<path d="M261.7,590.7 L261.9,589.9 L262.6,589.4 L263.8,589.4 L264.7,589.6 L265.4,590.0 L265.8,590.6 L265.8,591.5 L265.8,592.4 L265.6,593.5 L265.3,594.0 L264.5,594.6 L263.8,594.6 L263.0,594.4 L262.0,593.8 L261.6,592.9 L261.5,591.7 L261.7,590.7 Z" fill="#e7d6a3" stroke="none"/>
<path d="M172.3,446.2 L172.2,444.8 L172.7,443.7 L173.7,442.9 L175.2,442.9 L176.5,443.2 L177.2,443.8 L177.6,445.3 L177.3,446.6 L176.8,447.6 L175.2,448.0 L174.0,447.8 L173.0,447.3 L172.3,446.2 Z" fill="#e7d6a3" stroke="none"/>
<path d="M186.5,452.4 L186.9,450.6 L188.5,449.4 L190.6,449.6 L191.6,450.5 L192.2,451.9 L192.2,453.4 L191.5,454.5 L190.5,454.9 L188.9,454.8 L187.3,454.2 L186.5,452.4 Z" fill="#e7d6a3" stroke="none"/>
<path d="M196.8,460.1 L197.1,458.7 L198.4,457.4 L200.6,457.1 L202.5,458.2 L203.2,459.8 L202.6,461.2 L202.2,462.2 L201.0,462.9 L199.5,462.9 L198.5,462.8 L197.4,461.8 L196.8,460.1 Z" fill="#e7d6a3" stroke="none"/>
<path d="M236.3,500.5 L237.1,498.8 L238.6,497.6 L240.6,497.5 L243.5,497.6 L244.4,498.9 L244.6,501.0 L244.7,502.7 L243.9,503.5 L243.0,504.3 L241.6,504.7 L239.5,504.8 L237.7,504.3 L236.4,503.0 L236.3,500.5 Z" fill="#e7d6a3" stroke="none"/>
<path d="M317.4,456.1 L317.4,454.9 L317.7,453.9 L318.6,453.1 L320.1,452.6 L321.5,452.6 L322.5,452.9 L323.2,453.7 L323.5,455.0 L323.5,455.9 L323.2,456.7 L322.4,457.4 L321.5,457.9 L320.0,458.1 L319.2,458.1 L318.3,457.6 L317.4,456.1 Z" fill="#e7d6a3" stroke="none"/>
<path d="M322.6,443.1 L322.8,441.8 L323.2,440.9 L324.5,440.2 L325.8,439.8 L327.0,440.0 L327.9,440.8 L328.5,441.9 L328.6,443.1 L328.5,444.0 L327.9,444.9 L326.9,445.3 L325.6,445.6 L324.5,445.5 L323.2,444.6 L322.6,443.1 Z" fill="#e7d6a3" stroke="none"/>
<path d="M352.2,458.4 L352.2,457.0 L352.6,455.7 L353.6,454.9 L354.9,454.6 L356.1,454.7 L357.4,455.9 L357.7,457.3 L357.3,458.7 L357.2,459.4 L356.3,460.1 L355.2,460.4 L354.0,460.3 L353.0,459.7 L352.2,458.4 Z" fill="#e7d6a3" stroke="none"/>
<path d="M351.8,242.6 L351.7,240.9 L352.1,239.6 L353.0,238.6 L354.4,238.4 L356.1,238.9 L357.1,240.2 L357.5,241.5 L357.5,242.4 L357.0,243.6 L356.2,244.2 L355.2,244.6 L353.3,244.4 L351.8,242.6 Z" fill="#e7d6a3" stroke="none"/>
<path d="M362.2,248.8 L362.3,247.1 L362.6,245.5 L364.0,244.6 L366.3,244.7 L368.1,245.7 L368.6,247.9 L368.4,249.0 L367.7,250.5 L366.7,251.2 L364.8,251.5 L363.2,250.8 L362.2,248.8 Z" fill="#e7d6a3" stroke="none"/>
<path d="M384.1,230.7 L385.9,230.4 L387.3,230.7 L388.3,231.8 L388.3,233.2 L387.9,234.5 L387.4,235.6 L386.2,236.2 L384.8,236.2 L383.8,235.4 L383.2,234.0 L383.1,232.9 L383.3,231.7 L384.1,230.7 Z" fill="#e7d6a3" stroke="none"/>
<path d="M276.3,203.4 L318.6,209.9 L317.7,219.9 L274.1,212.8 L276.3,203.4 Z" fill="#4f8a3e" stroke="none"/>
<path d="M230.4,258.2 L251.6,254.2 L254.0,264.5 L233.1,268.7 L230.4,258.2 Z" fill="#4f8a3e" stroke="none"/>
<path d="M314.6,326.5 L328.8,328.7 L327.8,336.9 L314.2,335.1 L314.6,326.5 Z" fill="#4f8a3e" stroke="none"/>
<path d="M198.1,323.7 L258.1,332.8 L257.0,339.2 L196.7,330.7 L198.1,323.7 Z" fill="#4f8a3e" stroke="none"/>
<path d="M17.8,441.2 L19.0,435.3 L28.3,437.1 L27.2,442.7 L17.8,441.2 Z" fill="#4f8a3e" stroke="none"/>
<path d="M468.9,450.6 L476.9,447.6 L482.7,461.6 L474.2,464.5 L468.9,450.6 Z" fill="#4f8a3e" stroke="none"/>
<path d="M457.1,433.1 L470.7,426.8 L478.1,441.7 L464.5,447.7 L457.1,433.1 Z" fill="#4f8a3e" stroke="none"/>
<path d="M441.2,416.3 L464.3,406.5 L471.9,422.2 L449.0,432.5 L441.2,416.3 Z" fill="#4f8a3e" stroke="none"/>
<path d="M446.8,389.7 L454.3,386.3 L460.7,398.3 L452.8,401.8 L446.8,389.7 Z" fill="#4f8a3e" stroke="none"/>
<path d="M415.0,382.9 L420.6,380.4 L425.7,391.5 L420.4,394.0 L415.0,382.9 Z" fill="#4f8a3e" stroke="none"/>
<path d="M176.3,182.9 L179.6,174.0 L188.7,177.1 L185.7,185.7 L176.3,182.9 Z" fill="#4f8a3e" stroke="none"/>
<path d="M426.6,441.1 L429.0,443.4 L431.0,446.8 L432.1,450.4 L432.7,455.8 L430.7,460.6 L429.7,464.2 L428.7,468.3 L427.6,470.1 L426.1,471.8 L424.1,472.5 L421.9,472.6 L420.4,472.2 L419.6,471.1 L419.2,469.3 L419.2,467.5 L419.6,464.8 L420.2,460.3 L420.0,456.0 L419.4,452.0 L418.8,448.2 L419.0,445.6 L420.1,443.6 L422.1,441.8 L424.1,440.9 L426.6,441.1 Z" fill="#2f7825" stroke="none"/>
<path d="M331.1,451.8 L333.6,446.0 L338.0,439.6 L342.8,434.1 L348.3,429.4 L356.4,427.0 L365.7,425.2 L372.1,425.6 L376.3,427.1 L380.1,431.0 L380.8,436.4 L380.8,439.8 L379.7,441.8 L377.8,443.5 L373.8,445.3 L368.7,446.4 L363.1,447.6 L356.7,449.5 L352.3,451.9 L349.2,454.8 L347.4,456.3 L344.2,457.4 L339.8,457.8 L336.2,457.6 L332.8,455.6 L331.1,451.8 Z" fill="#2f7825" stroke="none"/>
<path d="M351.9,228.4 L347.8,219.6 L345.0,211.2 L345.2,204.8 L348.9,199.7 L353.9,197.0 L360.5,196.9 L364.1,200.1 L366.3,204.8 L367.5,210.3 L370.1,216.5 L373.1,222.7 L375.3,227.0 L376.5,230.9 L375.9,234.8 L374.2,238.3 L371.4,240.1 L367.3,240.7 L362.5,240.1 L357.6,236.0 L351.9,228.4 Z" fill="#2f7825" stroke="none"/>
<path d="M477.5,461.7 L364.1,223.9 L360.3,216.0" fill="none" stroke="#ffd64a" stroke-width="5" stroke-linecap="round" stroke-linejoin="round" opacity="0.95"/>
</svg>