<svg xmlns="http://www.w3.org/2000/svg" viewBox="0 0 433 800" preserveAspectRatio="xMidYMid meet">
<rect width="100%" height="100%" fill="#143018"/>
<path d="M354.7,722.1 L211.6,277.9 L77.9,77.9" fill="none" stroke="#4e8b39" stroke-width="60.6" stroke-linecap="round" stroke-linejoin="round" opacity="0.85"/>
<path d="M539.5,12.2 L532.1,18.4 L525.4,24.3 L518.8,31.5 L512.9,42.3 L514.9,56.7 L522.4,74.3 L527.8,89.6 L530.0,98.9 L528.1,114.4 L536.1,134.5 L540.6,138.2 L545.2,143.7 L545.4,151.3 L544.5,159.4 L545.0,169.7 L546.1,177.6 L553.1,187.7 L562.1,194.9 L575.5,203.2 L585.0,211.5 L595.0,216.0 L603.2,223.2 L606.5,230.1 L605.2,242.4 L605.2,259.4 L604.2,269.9 L604.7,280.1 L605.7,287.6 L608.1,298.4 L610.4,308.9 L609.1,322.2 L607.8,334.3 L607.8,345.6 L606.0,355.6 L603.9,364.1 L600.4,376.6 L600.4,387.7 L600.4,405.6 L599.6,418.7 L600.6,430.8 L601.9,443.1 L604.5,455.4 L611.1,465.9 L620.1,478.3 L628.6,487.8 L635.8,499.0 L642.2,511.9 L647.3,528.6 L647.3,539.8 L645.5,545.5 L644.0,550.6 L642.2,555.0 L639.9,559.4 L637.1,564.5 L633.5,569.6 L628.3,574.0 L622.7,577.8 L611.4,582.7 L603.7,585.5 L596.0,585.8 L588.0,584.8 L580.1,583.5 L572.6,582.2 L563.4,583.7 L552.6,584.2 L542.9,584.2 L531.6,581.2 L521.1,579.6 L508.5,574.7 L493.4,569.1 L488.5,566.8 L482.3,564.2 L474.4,560.9 L468.5,558.1 L459.0,553.7 L447.9,548.0 L439.2,544.7 L431.0,543.7 L417.4,547.3 L413.5,550.4 L407.4,558.8 L404.8,563.4 L403.5,574.0 L403.3,581.9 L403.5,589.1 L404.6,596.3 L406.1,603.0 L407.6,609.9 L411.0,614.5 L415.1,616.6 L419.7,618.9 L422.3,622.2 L425.3,629.9 L427.1,638.4 L428.9,646.1 L432.0,653.5 L442.5,666.9 L452.8,676.1 L458.7,681.0 L464.4,685.9 L470.8,691.8 L479.0,698.9 L490.8,706.1 L499.0,711.0 L505.7,714.6 L511.3,716.9 L517.5,717.7 L522.9,717.2 L532.4,718.5 L539.3,721.0 L544.4,725.1 L550.3,734.9 L553.9,740.8 L555.6,747.2 L556.8,751.5 L557.7,755.0 L557.8,757.5 L557.9,759.1 L557.9,762.1 L557.3,765.7 L556.2,770.1 L554.9,774.5 L552.9,778.5 L551.9,783.0 L550.7,786.5 L549.1,790.4 L547.8,794.0 L545.0,798.0 L541.8,802.4 L540.0,804.9 L539.5,810.2 L539.2,816.6 L540.5,823.4 L542.0,831.0 L543.3,838.0 L544.0,843.1 L544.4,849.5 L545.0,855.2 L545.4,861.3 L545.7,867.1 L546.1,876.9 L546.7,884.1 L546.0,890.0 L545.0,894.7 L544.6,899.3 L542.9,906.2 L544.3,912.3 L547.6,919.5 L549.5,921.9 L558.5,929.2 L576.5,943.1 L585.2,948.5 L595.3,952.4 L611.0,958.1 L623.5,961.5 L633.8,963.9 L647.9,967.3 L664.1,968.1 L674.9,967.9 L696.9,961.7 L705.5,954.3 L714.5,940.5 L720.3,932.6 L732.7,913.3 L736.5,907.6 L740.2,903.7 L747.6,890.9 L750.8,881.9 L752.3,874.9 L752.5,870.3 L752.6,862.6 L752.6,821.9 L752.6,806.7 L754.5,787.7 L760.8,776.5 L770.1,767.9 L779.0,760.8 L789.1,751.1 L799.2,739.6 L806.4,714.3 L807.6,707.3 L808.3,699.5 L809.0,692.1 L809.4,684.5 L806.7,679.2 L800.4,667.7 L796.8,660.9 L793.8,655.5 L787.6,648.2 L782.8,643.1 L780.6,637.1 L778.3,630.7 L777.7,624.2 L775.8,616.2 L775.3,609.9 L775.4,597.1 L774.4,588.7 L773.1,579.3 L770.8,570.3 L766.8,555.2 L763.0,547.6 L761.8,538.6 L762.2,519.4 L765.7,499.7 L767.7,487.4 L765.9,473.2 L765.7,459.3 L764.7,447.4 L763.2,432.9 L760.8,419.7 L758.6,409.2 L756.7,399.0 L754.4,390.5 L753.0,382.6 L749.6,366.1 L747.3,358.2 L745.0,351.1 L741.5,344.4 L737.1,337.8 L733.2,332.4 L729.6,325.3 L725.9,309.4 L724.9,300.7 L721.2,292.1 L718.2,283.9 L714.8,276.5 L710.9,265.5 L709.5,255.3 L708.6,246.1 L707.9,238.8 L703.8,231.2 L698.9,224.0 L694.1,216.4 L690.6,214.3 L686.5,212.5 L681.2,209.9 L676.8,205.8 L672.6,198.4 L664.1,177.7 L659.7,164.4 L656.5,153.5 L652.6,146.0 L648.3,136.1 L643.9,128.6 L633.7,114.4 L629.3,107.5 L624.5,99.2 L621.8,93.2 L613.0,77.3 L608.6,69.7 L603.6,59.6 L602.0,51.3 L597.8,44.4 L594.6,37.9 L591.9,32.6 L588.6,28.1 L585.6,23.9 L581.3,19.8 L576.8,15.8 L573.8,12.8 L569.5,10.1 L565.3,8.4 L561.7,8.2 L558.7,8.7 L552.9,9.1 L546.7,9.6 L539.5,12.2 Z" fill="#2e5577" stroke="none"/>
<path d="M264.7,305.6 L262.9,305.3 L260.3,305.5 L258.7,306.3 L256.6,308.4 L255.2,311.7 L255.8,315.7 L257.5,318.9 L260.0,321.7 L263.7,323.5 L265.9,324.4 L268.7,325.6 L269.9,327.1 L269.6,329.5 L270.1,332.4 L271.3,335.7 L273.7,337.3 L275.2,337.5 L277.0,337.5 L279.6,336.5 L281.8,334.5 L283.1,332.4 L283.8,329.6 L282.9,326.1 L281.1,324.7 L278.5,324.4 L277.6,324.3 L276.7,323.6 L275.9,321.0 L274.8,318.7 L272.9,317.3 L270.3,315.4 L268.7,314.6 L267.9,313.0 L268.1,309.6 L267.4,307.1 L264.7,305.6 Z" fill="#e7d6a3" stroke="none"/>
<path d="M412.1,15.0 L410.3,15.6 L409.4,16.6 L408.2,18.5 L408.1,20.1 L408.4,21.5 L409.6,23.7 L412.0,24.8 L413.8,26.1 L415.0,26.2 L416.7,25.3 L419.0,24.3 L420.1,24.5 L421.5,25.0 L423.0,25.9 L424.5,26.4 L426.7,26.3 L428.9,25.8 L430.8,24.7 L431.4,22.7 L431.7,20.7 L431.4,18.5 L430.1,16.6 L428.6,15.2 L426.7,14.2 L423.2,13.3 L420.5,12.9 L418.4,13.2 L417.4,14.7 L416.8,15.7 L414.3,15.7 L412.1,15.0 Z" fill="#e7d6a3" stroke="none"/>
<path d="M341.9,-26.4 L340.1,-26.4 L338.4,-25.9 L337.0,-24.9 L336.6,-23.1 L337.3,-21.5 L337.8,-20.2 L337.7,-18.4 L337.0,-17.2 L336.9,-15.4 L337.0,-13.8 L338.2,-11.9 L339.8,-11.6 L341.7,-10.9 L343.2,-9.7 L344.7,-8.2 L346.6,-6.9 L348.6,-6.1 L350.6,-6.0 L352.4,-6.2 L354.1,-7.2 L355.2,-8.5 L355.7,-9.5 L356.1,-11.2 L355.8,-12.2 L355.0,-13.1 L355.2,-14.4 L356.3,-15.1 L357.0,-16.8 L356.4,-18.4 L355.2,-19.8 L354.1,-20.1 L352.8,-19.7 L351.3,-19.7 L350.0,-20.8 L349.0,-22.6 L347.3,-23.9 L345.8,-24.6 L344.0,-25.6 L341.9,-26.4 Z" fill="#e7d6a3" stroke="none"/>
<path d="M303.9,-2.2 L302.5,-1.4 L301.3,0.1 L301.2,1.9 L301.4,3.2 L301.3,4.9 L302.1,6.0 L303.4,6.4 L304.6,6.2 L305.6,6.0 L306.7,6.0 L307.7,6.3 L308.8,7.3 L309.8,7.9 L310.6,8.3 L311.7,9.0 L313.1,9.0 L314.1,8.7 L316.2,8.6 L317.6,9.1 L319.3,9.3 L321.0,9.1 L321.8,8.2 L322.1,7.8 L322.7,6.4 L322.8,4.9 L322.6,3.5 L321.9,2.7 L320.5,2.1 L319.0,2.0 L317.7,1.6 L316.9,1.3 L316.5,0.2 L315.4,-1.1 L313.2,-1.3 L312.2,-0.8 L310.8,0.3 L309.4,0.4 L308.0,-0.2 L307.2,-1.1 L306.5,-2.1 L304.8,-2.4 L303.9,-2.2 Z" fill="#e7d6a3" stroke="none"/>
<path d="M464.5,237.7 L462.0,239.4 L460.6,241.9 L460.1,243.2 L459.9,245.0 L460.6,246.5 L462.6,249.1 L465.7,252.1 L468.8,256.6 L470.4,259.5 L471.7,262.0 L472.5,264.3 L472.7,265.4 L473.0,266.5 L474.1,268.0 L475.4,268.8 L476.9,269.1 L479.5,268.7 L481.6,268.1 L483.6,267.0 L485.3,264.6 L486.2,261.8 L485.7,259.1 L484.1,256.3 L481.6,253.8 L479.0,252.6 L475.4,251.5 L473.9,249.8 L473.8,247.8 L474.7,246.3 L475.5,245.1 L475.9,243.5 L475.8,242.1 L475.4,240.9 L473.4,238.9 L471.3,237.5 L469.9,236.8 L468.0,236.6 L466.2,236.9 L464.5,237.7 Z" fill="#e7d6a3" stroke="none"/>
<path d="M95.2,785.9 L93.5,784.0 L92.7,781.7 L93.0,779.2 L94.0,776.1 L95.7,773.6 L97.1,772.5 L98.9,772.4 L101.1,773.1 L104.7,773.1 L109.2,772.8 L112.0,773.7 L112.8,775.1 L112.7,777.0 L112.8,778.6 L113.4,781.9 L112.6,783.0 L110.5,783.3 L109.1,784.0 L108.1,784.8 L107.0,785.3 L105.2,785.5 L104.5,784.7 L103.3,783.3 L102.0,782.5 L101.1,782.5 L100.2,783.7 L99.4,784.7 L98.3,785.7 L96.9,786.1 L95.2,785.9 Z" fill="#e7d6a3" stroke="none"/>
<path d="M373.6,-52.6 L372.8,-54.2 L372.0,-55.6 L370.5,-56.6 L368.5,-57.5 L366.5,-58.3 L364.4,-58.9 L362.7,-59.8 L360.7,-60.7 L358.6,-60.5 L357.0,-59.7 L355.8,-58.2 L355.0,-56.4 L354.4,-54.2 L354.5,-52.3 L355.7,-50.6 L357.0,-49.6 L359.1,-48.6 L362.1,-47.8 L363.6,-46.5 L365.5,-44.6 L367.2,-43.2 L368.4,-43.1 L370.2,-43.5 L371.3,-43.8 L371.9,-44.0 L372.6,-43.4 L372.9,-41.8 L373.4,-40.0 L374.4,-39.3 L376.4,-38.7 L378.0,-38.7 L380.1,-39.6 L381.4,-40.6 L382.5,-42.7 L383.0,-45.1 L383.0,-46.7 L382.3,-48.0 L381.7,-49.2 L380.5,-50.3 L379.0,-51.0 L377.6,-51.2 L376.1,-51.3 L374.8,-51.7 L373.6,-52.6 Z" fill="#e7d6a3" stroke="none"/>
<path d="M103.8,50.6 L102.7,50.4 L101.6,49.5 L101.1,49.0 L100.0,48.6 L98.7,48.6 L97.8,48.8 L96.9,48.8 L95.9,49.0 L95.1,49.1 L94.4,49.5 L93.3,49.5 L92.1,49.2 L90.9,49.0 L89.8,49.1 L87.9,49.5 L86.9,50.4 L86.2,51.2 L85.7,52.5 L86.0,54.2 L86.6,55.4 L87.4,56.1 L88.6,56.9 L89.3,57.3 L89.9,58.5 L90.6,59.9 L91.1,60.9 L91.9,61.5 L93.3,62.1 L94.8,62.2 L96.5,61.7 L98.2,61.3 L99.7,60.3 L100.2,59.6 L101.1,58.9 L102.0,58.6 L103.2,59.2 L104.4,59.2 L105.7,58.8 L107.0,58.0 L107.8,56.6 L108.3,54.9 L108.5,53.5 L108.4,52.5 L107.8,51.2 L106.8,50.5 L105.2,50.5 L103.8,50.6 Z" fill="#e7d6a3" stroke="none"/>
<path d="M120.6,72.2 L118.9,71.4 L117.4,71.2 L116.4,71.3 L115.2,71.8 L113.9,72.3 L112.6,73.3 L111.3,73.9 L109.7,74.9 L109.1,75.9 L109.2,77.4 L110.3,77.9 L111.1,78.7 L111.5,79.7 L111.3,80.9 L110.8,81.7 L110.5,82.9 L110.8,84.3 L111.4,85.7 L112.7,86.2 L113.5,86.8 L113.9,87.5 L114.5,89.0 L115.2,90.2 L115.7,91.1 L116.9,91.5 L118.3,91.8 L119.9,91.2 L120.4,90.3 L120.9,89.9 L121.5,89.5 L122.3,89.9 L123.5,90.2 L124.9,90.3 L126.2,89.7 L126.9,88.8 L127.4,87.3 L127.3,85.9 L127.1,84.4 L126.7,83.4 L125.6,82.8 L124.4,82.2 L123.0,81.2 L122.6,79.9 L122.6,77.7 L122.8,76.8 L122.7,75.3 L122.3,74.2 L121.6,73.1 L120.6,72.2 Z" fill="#e7d6a3" stroke="none"/>
<path d="M202.9,637.8 L202.6,634.8 L202.3,632.3 L201.1,630.1 L199.5,628.9 L197.3,628.7 L195.6,629.8 L192.6,631.8 L191.6,634.5 L190.7,637.6 L190.4,641.0 L190.9,644.0 L192.3,647.7 L193.8,650.0 L194.1,650.5 L195.6,651.6 L197.7,651.9 L200.0,651.6 L202.9,652.6 L205.2,653.7 L206.6,654.5 L208.2,655.4 L208.3,657.1 L208.0,658.7 L206.9,659.6 L205.3,661.2 L204.6,662.2 L204.7,663.8 L206.1,664.7 L208.1,665.1 L209.5,665.6 L211.1,666.0 L211.8,667.1 L212.2,668.4 L213.2,670.0 L214.6,670.6 L215.7,670.7 L217.3,670.1 L218.5,669.0 L219.4,667.8 L220.7,666.7 L221.9,666.1 L223.0,666.0 L224.0,665.3 L225.1,663.4 L225.4,661.0 L225.3,658.9 L224.3,657.4 L222.7,656.8 L220.5,656.3 L219.0,656.0 L218.1,655.9 L217.4,655.3 L216.8,654.2 L216.8,652.9 L217.5,651.2 L219.6,646.6 L220.3,645.1 L219.6,643.5 L218.8,642.3 L217.1,641.6 L215.4,641.5 L212.2,641.6 L207.4,642.3 L205.9,642.2 L204.7,642.0 L203.9,641.2 L203.2,639.9 L202.9,637.8 Z" fill="#e7d6a3" stroke="none"/>
<path d="M-58.1,738.9 L-56.1,738.8 L-53.6,738.0 L-50.9,738.7 L-49.5,740.8 L-49.2,743.5 L-49.4,745.9 L-49.2,747.5 L-48.5,749.0 L-47.4,750.3 L-47.0,751.4 L-47.0,752.7 L-46.4,753.8 L-45.8,755.0 L-45.7,756.6 L-46.4,758.5 L-46.8,760.1 L-46.3,761.4 L-44.9,762.5 L-43.8,763.9 L-43.7,766.7 L-44.4,770.4 L-45.9,773.7 L-48.0,775.3 L-50.0,776.2 L-52.5,776.2 L-54.9,775.2 L-58.0,773.2 L-60.2,771.2 L-61.3,768.6 L-62.3,765.1 L-62.0,761.4 L-61.1,758.3 L-59.2,756.7 L-58.2,755.5 L-58.0,753.6 L-58.6,752.4 L-59.9,751.3 L-61.7,750.2 L-62.9,749.1 L-63.4,746.6 L-63.3,743.5 L-62.6,741.3 L-61.4,739.4 L-59.9,738.7 L-58.1,738.9 Z" fill="#e7d6a3" stroke="none"/>
<path d="M398.9,628.2 L411.7,641.7 L417.3,636.4 L404.9,623.7 L398.9,628.2 Z" fill="#4f8a3e" stroke="none"/>
<path d="M482.1,479.0 L494.6,477.3 L491.0,452.6 L478.6,454.1 L482.1,479.0 Z" fill="#4f8a3e" stroke="none"/>
<path d="M466.7,403.4 L480.0,400.6 L486.6,428.9 L472.0,430.6 L466.7,403.4 Z" fill="#4f8a3e" stroke="none"/>
<path d="M170.9,-40.1 L163.9,-31.2 L198.9,-1.6 L206.2,-11.3 L186.4,-27.5 L170.9,-40.1 Z" fill="#4f8a3e" stroke="none"/>
<path d="M230.9,7.2 L221.9,16.9 L247.0,37.8 L256.4,27.1 L244.1,18.0 L230.9,7.2 Z" fill="#4f8a3e" stroke="none"/>
<path d="M382.6,797.0 L371.8,799.9 L363.3,770.4 L374.0,766.4 L382.6,797.0 Z" fill="#4f8a3e" stroke="none"/>
<path d="M261.8,32.2 L276.1,44.1 L268.3,54.2 L253.9,42.5 L261.8,32.2 Z" fill="#4f8a3e" stroke="none"/>
<path d="M-1.8,421.3 L8.8,414.3 L20.0,430.9 L9.6,438.7 L-1.8,421.3 Z" fill="#4f8a3e" stroke="none"/>
<path d="M-25.3,348.3 L-15.6,342.5 L-3.6,361.6 L-13.4,368.8 L-25.3,348.3 Z" fill="#4f8a3e" stroke="none"/>
<path d="M-18.5,283.1 L-7.6,278.8 L1.4,301.6 L-9.0,306.1 L-18.5,283.1 Z" fill="#4f8a3e" stroke="none"/>
<path d="M-36.6,197.1 L-25.4,192.8 L-15.9,216.0 L-27.5,221.4 L-36.6,197.1 Z" fill="#4f8a3e" stroke="none"/>
<path d="M347.3,714.6 L356.6,711.6 L364.7,735.0 L354.7,738.0 L347.3,714.6 Z" fill="#4f8a3e" stroke="none"/>
<path d="M345.5,670.1 L356.9,666.6 L360.1,679.1 L349.3,682.8 L345.5,670.1 Z" fill="#4f8a3e" stroke="none"/>
<path d="M333.7,604.8 L346.3,600.3 L353.1,618.1 L340.0,623.2 L333.7,604.8 Z" fill="#4f8a3e" stroke="none"/>
<path d="M331.8,549.9 L346.3,542.9 L353.3,557.6 L339.3,565.2 L331.8,549.9 Z" fill="#4f8a3e" stroke="none"/>
<path d="M338.7,475.7 L347.5,469.4 L352.8,476.8 L343.9,483.7 L338.7,475.7 Z" fill="#4f8a3e" stroke="none"/>
<path d="M332.3,-36.5 L333.9,-34.5 L335.1,-30.9 L334.9,-27.3 L335.6,-23.6 L336.1,-20.1 L335.9,-18.6 L335.3,-17.6 L335.0,-15.2 L335.5,-13.2 L335.6,-10.3 L335.3,-8.3 L334.6,-5.7 L333.6,-4.0 L332.2,-3.1 L330.0,-2.1 L327.4,-1.8 L322.1,-2.5 L316.9,-3.6 L309.0,-4.8 L301.5,-4.6 L295.5,-4.9 L289.4,-7.7 L284.9,-11.8 L283.0,-17.2 L282.9,-22.6 L284.5,-27.4 L287.2,-31.5 L293.5,-35.3 L300.2,-37.1 L308.8,-38.0 L316.6,-38.5 L321.1,-38.6 L325.8,-38.3 L328.7,-37.8 L330.5,-37.2 L332.3,-36.5 Z" fill="#2f7825" stroke="none"/>
<path d="M92.6,799.3 L101.5,816.7 L104.2,821.7 L107.3,828.1 L113.3,835.6 L116.8,836.5 L120.2,836.2 L126.1,833.5 L129.0,830.4 L130.6,826.3 L128.8,815.0 L124.7,804.9 L119.4,792.3 L115.1,789.1 L110.6,788.3 L101.7,789.5 L97.2,790.0 L94.5,791.8 L92.6,795.0 L92.1,797.1 L92.6,799.3 Z" fill="#2f7825" stroke="none"/>
<path d="M104.0,70.9 L98.3,66.9 L93.1,64.6 L88.3,61.1 L84.6,56.9 L81.0,54.0 L76.2,51.8 L72.0,50.0 L68.0,49.5 L63.4,49.5 L58.4,51.8 L54.9,54.0 L53.2,57.0 L52.1,60.7 L52.6,66.9 L54.6,72.5 L59.4,79.0 L63.8,83.7 L68.7,89.8 L74.9,97.3 L78.8,101.8 L84.2,105.6 L89.2,106.4 L94.3,104.8 L99.7,100.9 L104.5,95.9 L107.5,91.8 L108.4,87.8 L109.3,84.1 L108.1,79.3 L106.6,74.9 L104.0,70.9 Z" fill="#2f7825" stroke="none"/>
<path d="M354.7,722.1 L211.6,277.9 L77.9,77.9" fill="none" stroke="#ffd64a" stroke-width="3.5" stroke-linecap="round" stroke-linejoin="round" opacity="0.95"/>
</svg>