<svg xmlns="http://www.w3.org/2000/svg" viewBox="0 0 800 600" preserveAspectRatio="xMidYMid slice">
<rect width="100%" height="100%" fill="#143018"/>
<path d="M667.9,14.3 L661.7,19.4 L656.2,24.2 L650.7,30.2 L645.8,39.1 L647.5,51.0 L653.7,65.4 L658.1,78.1 L660.0,85.7 L658.4,98.5 L665.0,115.1 L668.8,118.2 L672.5,122.7 L672.7,129.0 L671.9,135.7 L672.3,144.1 L673.2,150.6 L679.1,159.0 L686.5,165.0 L697.5,171.7 L705.3,178.6 L713.6,182.3 L720.3,188.3 L723.1,194.0 L722.0,204.1 L722.0,218.1 L721.2,226.8 L721.6,235.2 L722.4,241.4 L724.4,250.3 L726.3,258.9 L725.2,270.0 L724.1,279.9 L724.1,289.2 L722.7,297.5 L721.0,304.5 L718.0,314.8 L718.0,323.9 L718.0,338.7 L717.4,349.5 L718.2,359.5 L719.3,369.6 L721.4,379.8 L726.9,388.5 L734.3,398.6 L741.3,406.5 L747.2,415.8 L752.5,426.3 L756.7,440.1 L756.7,449.4 L755.3,454.1 L754.0,458.3 L752.5,461.9 L750.6,465.5 L748.3,469.7 L745.3,474.0 L741.1,477.6 L736.4,480.8 L727.1,484.8 L720.8,487.1 L714.4,487.3 L707.8,486.5 L701.3,485.4 L695.1,484.3 L687.5,485.6 L678.6,486.0 L670.6,486.0 L661.3,483.5 L652.6,482.2 L642.2,478.2 L629.8,473.6 L625.7,471.7 L620.7,469.5 L614.1,466.8 L609.2,464.5 L601.4,460.9 L592.3,456.2 L585.1,453.4 L578.3,452.6 L567.1,455.6 L563.9,458.1 L558.9,465.1 L556.7,468.9 L555.7,477.6 L555.5,484.1 L555.7,490.1 L556.5,496.0 L557.8,501.5 L559.1,507.2 L561.8,511.0 L565.2,512.7 L569.0,514.6 L571.1,517.4 L573.7,523.7 L575.1,530.7 L576.6,537.0 L579.2,543.2 L587.8,554.2 L596.3,561.8 L601.2,565.8 L605.8,569.9 L611.1,574.7 L617.9,580.6 L627.6,586.6 L634.4,590.6 L639.9,593.5 L644.6,595.5 L649.6,596.1 L654.1,595.7 L661.9,596.7 L667.6,598.8 L671.9,602.2 L676.7,610.3 L679.7,615.1 L681.1,620.4 L682.1,624.0 L682.8,626.9 L682.9,628.9 L683.0,630.3 L683.0,632.7 L682.5,635.7 L681.6,639.3 L680.5,642.9 L678.9,646.3 L678.1,650.0 L677.1,652.9 L675.8,656.1 L674.7,659.0 L672.4,662.3 L669.7,665.9 L668.2,668.0 L667.8,672.4 L667.5,677.7 L668.6,683.3 L669.8,689.5 L671.0,695.4 L671.5,699.6 L671.8,704.8 L672.4,709.5 L672.7,714.5 L673.0,719.4 L673.3,727.4 L673.8,733.3 L673.2,738.2 L672.4,742.0 L672.1,745.9 L670.6,751.6 L671.8,756.6 L674.5,762.5 L676.1,764.5 L683.5,770.6 L698.4,782.0 L705.5,786.4 L713.8,789.6 L726.8,794.4 L737.1,797.2 L745.6,799.2 L757.2,802.0 L770.6,802.6 L779.5,802.5 L797.7,797.4 L804.7,791.3 L812.1,779.9 L816.9,773.4 L827.2,757.4 L830.3,752.7 L833.3,749.5 L839.4,738.9 L842.1,731.5 L843.4,725.8 L843.5,722.0 L843.6,715.6 L843.6,682.1 L843.6,669.5 L845.1,653.8 L850.3,644.6 L858.0,637.5 L865.4,631.7 L873.7,623.7 L882.0,614.2 L887.9,593.3 L888.9,587.5 L889.5,581.1 L890.1,575.0 L890.4,568.7 L888.2,564.3 L883.0,554.8 L880.0,549.3 L877.6,544.8 L872.5,538.8 L868.5,534.6 L866.6,529.6 L864.7,524.4 L864.3,519.0 L862.7,512.4 L862.3,507.2 L862.4,496.7 L861.5,489.7 L860.5,482.0 L858.6,474.5 L855.2,462.1 L852.2,455.9 L851.2,448.4 L851.5,432.5 L854.4,416.4 L856.0,406.1 L854.5,394.5 L854.4,383.0 L853.5,373.2 L852.3,361.3 L850.3,350.3 L848.5,341.7 L846.9,333.3 L845.1,326.3 L843.9,319.7 L841.1,306.2 L839.2,299.6 L837.3,293.8 L834.4,288.2 L830.8,282.8 L827.6,278.3 L824.6,272.5 L821.6,259.4 L820.7,252.2 L817.6,245.1 L815.2,238.4 L812.4,232.2 L809.2,223.2 L808.0,214.7 L807.3,207.2 L806.7,201.2 L803.3,194.9 L799.3,188.9 L795.3,182.7 L792.4,180.9 L789.1,179.5 L784.7,177.3 L781.1,173.9 L777.5,167.8 L770.6,150.8 L766.9,139.8 L764.3,130.8 L761.1,124.7 L757.6,116.5 L753.9,110.2 L745.5,98.6 L741.8,92.9 L737.9,86.0 L735.7,81.1 L728.4,67.9 L724.8,61.7 L720.7,53.4 L719.4,46.5 L715.9,40.8 L713.3,35.4 L711.1,31.1 L708.3,27.4 L705.8,23.9 L702.3,20.6 L698.5,17.2 L696.1,14.7 L692.6,12.6 L689.1,11.1 L686.2,11.0 L683.7,11.4 L678.9,11.7 L673.8,12.1 L667.9,14.3 Z" fill="#2e5577" stroke="none"/>
<path d="M441.1,256.3 L439.7,256.0 L437.5,256.2 L436.2,256.8 L434.5,258.5 L433.3,261.3 L433.8,264.5 L435.2,267.2 L437.3,269.5 L440.4,271.0 L442.2,271.8 L444.5,272.7 L445.4,274.0 L445.2,276.0 L445.6,278.4 L446.6,281.1 L448.6,282.4 L449.9,282.6 L451.3,282.6 L453.5,281.7 L455.3,280.1 L456.4,278.3 L456.9,276.0 L456.2,273.1 L454.7,272.0 L452.6,271.8 L451.8,271.7 L451.1,271.1 L450.4,268.9 L449.5,267.0 L447.9,265.9 L445.8,264.3 L444.5,263.7 L443.8,262.3 L444.0,259.5 L443.4,257.5 L441.1,256.3 Z" fill="#e7d6a3" stroke="none"/>
<path d="M643.7,599.0 L642.8,598.8 L641.4,598.9 L640.8,599.5 L640.4,600.4 L640.6,601.7 L641.1,602.7 L641.9,603.8 L643.1,604.7 L644.0,605.2 L644.8,605.8 L645.5,606.1 L646.3,606.1 L647.2,605.8 L647.8,605.0 L648.4,604.1 L649.1,603.3 L649.9,603.2 L650.3,603.6 L650.7,604.3 L651.4,604.8 L652.8,605.0 L654.1,604.7 L654.7,604.4 L655.4,604.2 L656.3,604.4 L657.1,604.9 L657.9,605.0 L658.9,605.0 L659.7,604.4 L660.0,603.4 L659.7,602.4 L658.9,601.4 L657.7,600.4 L656.4,599.6 L654.4,599.5 L652.7,599.5 L651.3,599.4 L650.0,599.5 L648.7,599.6 L647.1,599.6 L645.9,599.5 L644.8,599.3 L643.7,599.0 Z" fill="#e7d6a3" stroke="none"/>
<path d="M562.7,16.6 L561.3,17.1 L560.5,17.9 L559.5,19.5 L559.5,20.8 L559.7,21.9 L560.7,23.7 L562.7,24.6 L564.2,25.8 L565.1,25.8 L566.5,25.1 L568.4,24.2 L569.3,24.4 L570.5,24.8 L571.8,25.5 L573.0,26.0 L574.8,25.9 L576.6,25.5 L578.1,24.5 L578.7,22.9 L578.9,21.2 L578.7,19.5 L577.6,17.9 L576.3,16.7 L574.8,16.0 L571.9,15.2 L569.7,14.9 L567.9,15.1 L567.1,16.3 L566.6,17.1 L564.5,17.1 L562.7,16.6 Z" fill="#e7d6a3" stroke="none"/>
<path d="M504.8,-17.5 L503.3,-17.6 L502.0,-17.2 L500.8,-16.4 L500.5,-14.9 L501.1,-13.5 L501.5,-12.4 L501.4,-11.0 L500.8,-10.0 L500.7,-8.5 L500.8,-7.2 L501.8,-5.6 L503.1,-5.3 L504.7,-4.8 L505.9,-3.8 L507.2,-2.6 L508.7,-1.5 L510.4,-0.8 L512.0,-0.7 L513.5,-0.9 L514.9,-1.7 L515.8,-2.8 L516.2,-3.6 L516.6,-5.1 L516.3,-5.9 L515.7,-6.6 L515.8,-7.7 L516.7,-8.2 L517.3,-9.7 L516.8,-11.0 L515.8,-12.1 L514.9,-12.4 L513.8,-12.1 L512.6,-12.1 L511.5,-13.0 L510.7,-14.4 L509.3,-15.5 L508.1,-16.1 L506.6,-16.9 L504.8,-17.5 Z" fill="#e7d6a3" stroke="none"/>
<path d="M473.5,2.4 L472.3,3.0 L471.4,4.2 L471.3,5.8 L471.5,6.8 L471.4,8.2 L472.0,9.2 L473.1,9.4 L474.1,9.3 L474.9,9.1 L475.8,9.1 L476.7,9.4 L477.6,10.2 L478.3,10.7 L479.0,11.1 L479.9,11.6 L481.1,11.6 L481.9,11.3 L483.7,11.3 L484.8,11.7 L486.2,11.9 L487.6,11.7 L488.3,10.9 L488.5,10.7 L489.0,9.5 L489.1,8.2 L488.9,7.1 L488.4,6.4 L487.2,5.9 L485.9,5.9 L484.9,5.5 L484.2,5.3 L483.9,4.3 L483.0,3.3 L481.2,3.1 L480.4,3.6 L479.2,4.4 L478.0,4.5 L476.9,4.0 L476.2,3.3 L475.7,2.5 L474.3,2.3 L473.5,2.4 Z" fill="#e7d6a3" stroke="none"/>
<path d="M606.0,200.2 L603.9,201.7 L602.7,203.7 L602.3,204.8 L602.1,206.2 L602.7,207.5 L604.4,209.7 L607.0,212.1 L609.5,215.8 L610.9,218.3 L611.9,220.3 L612.5,222.2 L612.7,223.0 L613.0,224.0 L613.9,225.3 L614.9,225.9 L616.2,226.2 L618.3,225.8 L620.1,225.3 L621.7,224.4 L623.2,222.5 L623.9,220.1 L623.4,217.9 L622.1,215.6 L620.1,213.5 L618.0,212.6 L615.0,211.6 L613.7,210.2 L613.6,208.6 L614.4,207.3 L615.0,206.3 L615.4,205.0 L615.2,203.9 L614.9,202.8 L613.3,201.2 L611.6,200.0 L610.4,199.5 L608.8,199.3 L607.3,199.6 L606.0,200.2 Z" fill="#e7d6a3" stroke="none"/>
<path d="M700.4,426.8 L698.9,427.4 L698.0,428.0 L697.1,428.8 L696.2,429.8 L695.4,430.9 L694.4,432.3 L693.8,433.6 L693.5,435.3 L694.0,436.6 L694.6,437.4 L696.0,437.7 L697.7,437.8 L698.9,438.3 L699.9,439.4 L700.4,440.8 L700.5,441.8 L699.9,443.3 L699.3,444.8 L698.3,446.3 L697.2,449.1 L697.0,451.1 L697.6,452.4 L698.4,453.1 L700.5,454.1 L703.0,454.6 L705.3,454.3 L706.8,453.5 L707.7,451.9 L708.5,449.7 L708.3,448.3 L707.5,446.8 L707.3,445.1 L707.6,444.3 L708.0,443.5 L708.9,442.9 L709.7,441.3 L709.7,439.9 L709.1,438.6 L707.1,437.3 L706.0,436.3 L705.4,435.1 L706.0,434.1 L707.4,434.1 L708.7,434.0 L709.5,433.2 L710.1,431.0 L709.6,428.4 L708.1,427.0 L706.2,426.3 L704.0,426.3 L702.1,426.5 L700.4,426.8 Z" fill="#e7d6a3" stroke="none"/>
<path d="M301.4,652.3 L300.0,650.8 L299.4,648.9 L299.6,646.8 L300.4,644.2 L301.8,642.2 L302.9,641.3 L304.4,641.2 L306.2,641.8 L309.2,641.8 L312.9,641.5 L315.3,642.3 L315.9,643.5 L315.8,645.0 L315.9,646.4 L316.4,649.1 L315.7,650.0 L314.0,650.2 L312.8,650.8 L312.0,651.4 L311.1,651.9 L309.7,652.0 L309.0,651.4 L308.1,650.2 L307.0,649.5 L306.2,649.5 L305.5,650.5 L304.9,651.4 L304.0,652.2 L302.8,652.5 L301.4,652.3 Z" fill="#e7d6a3" stroke="none"/>
<path d="M504.2,-49.2 L501.2,-49.2 L500.0,-49.7 L498.9,-50.3 L497.0,-51.2 L494.4,-51.6 L492.1,-51.5 L490.3,-50.3 L489.4,-48.6 L489.5,-46.7 L489.9,-44.4 L490.6,-42.7 L492.1,-41.7 L493.9,-40.9 L495.9,-40.6 L498.4,-40.6 L500.6,-40.8 L502.5,-40.6 L503.7,-40.1 L505.2,-39.4 L506.5,-39.3 L508.6,-39.9 L509.6,-40.9 L510.6,-42.4 L510.8,-44.4 L510.7,-45.7 L510.4,-46.7 L509.7,-47.7 L508.2,-48.5 L506.5,-49.1 L504.2,-49.2 Z" fill="#e7d6a3" stroke="none"/>
<path d="M531.0,-39.2 L530.3,-40.5 L529.7,-41.7 L528.4,-42.5 L526.8,-43.2 L525.1,-43.9 L523.4,-44.4 L522.0,-45.1 L520.3,-45.9 L518.6,-45.7 L517.3,-45.1 L516.3,-43.8 L515.6,-42.3 L515.1,-40.5 L515.3,-38.9 L516.2,-37.6 L517.3,-36.7 L519.1,-35.9 L521.5,-35.2 L522.8,-34.1 L524.3,-32.6 L525.7,-31.5 L526.7,-31.4 L528.2,-31.7 L529.1,-31.9 L529.6,-32.1 L530.2,-31.6 L530.4,-30.3 L530.9,-28.8 L531.7,-28.2 L533.3,-27.7 L534.6,-27.7 L536.4,-28.5 L537.4,-29.3 L538.4,-31.0 L538.8,-33.0 L538.8,-34.3 L538.2,-35.4 L537.6,-36.4 L536.7,-37.3 L535.4,-37.8 L534.3,-38.0 L533.1,-38.1 L532.0,-38.4 L531.0,-39.2 Z" fill="#e7d6a3" stroke="none"/>
<path d="M308.4,45.9 L307.6,45.7 L306.6,45.0 L306.3,44.6 L305.4,44.3 L304.3,44.3 L303.5,44.4 L302.7,44.5 L302.0,44.6 L301.3,44.7 L300.7,45.0 L299.8,45.0 L298.8,44.8 L297.9,44.6 L296.9,44.7 L295.4,45.0 L294.6,45.7 L294.0,46.5 L293.5,47.5 L293.8,48.9 L294.3,49.9 L294.9,50.5 L295.9,51.1 L296.5,51.5 L297.0,52.4 L297.6,53.6 L298.0,54.4 L298.7,54.9 L299.8,55.4 L301.0,55.5 L302.4,55.1 L303.9,54.7 L305.1,53.9 L305.5,53.4 L306.2,52.8 L307.0,52.5 L308.0,53.0 L309.0,53.0 L310.0,52.7 L311.1,52.1 L311.8,50.9 L312.2,49.5 L312.4,48.3 L312.3,47.5 L311.8,46.4 L311.0,45.9 L309.7,45.8 L308.4,45.9 Z" fill="#e7d6a3" stroke="none"/>
<path d="M322.4,63.7 L320.9,63.1 L319.7,62.9 L318.9,63.0 L317.9,63.4 L316.8,63.8 L315.7,64.7 L314.6,65.2 L313.4,66.0 L312.8,66.8 L312.9,68.0 L313.8,68.4 L314.5,69.1 L314.8,69.9 L314.7,70.9 L314.3,71.6 L314.0,72.5 L314.2,73.8 L314.7,74.9 L315.8,75.3 L316.4,75.8 L316.8,76.3 L317.3,77.6 L317.9,78.6 L318.3,79.3 L319.3,79.7 L320.4,79.9 L321.7,79.4 L322.1,78.7 L322.6,78.3 L323.1,78.0 L323.7,78.3 L324.7,78.6 L325.9,78.7 L327.0,78.2 L327.6,77.5 L327.9,76.2 L327.8,75.1 L327.7,73.8 L327.3,73.0 L326.5,72.5 L325.5,72.0 L324.3,71.1 L324.0,70.1 L324.0,68.3 L324.1,67.6 L324.1,66.3 L323.7,65.4 L323.2,64.5 L322.4,63.7 Z" fill="#e7d6a3" stroke="none"/>
<path d="M390.2,530.2 L389.9,527.8 L389.7,525.7 L388.7,523.9 L387.4,522.8 L385.6,522.7 L384.2,523.6 L381.7,525.3 L380.9,527.5 L380.1,530.0 L379.9,532.8 L380.3,535.4 L381.4,538.4 L382.7,540.3 L382.9,540.7 L384.2,541.6 L385.9,541.8 L387.8,541.6 L390.2,542.5 L392.1,543.3 L393.3,544.0 L394.6,544.7 L394.6,546.2 L394.4,547.5 L393.5,548.2 L392.2,549.5 L391.6,550.3 L391.7,551.6 L392.9,552.4 L394.5,552.7 L395.7,553.1 L397.0,553.5 L397.6,554.3 L397.9,555.4 L398.7,556.7 L399.9,557.3 L400.8,557.4 L402.1,556.9 L403.0,555.9 L403.8,555.0 L404.9,554.1 L405.9,553.5 L406.8,553.5 L407.6,552.9 L408.5,551.3 L408.8,549.4 L408.7,547.6 L407.9,546.4 L406.5,545.9 L404.7,545.5 L403.5,545.3 L402.8,545.1 L402.2,544.6 L401.7,543.8 L401.7,542.7 L402.2,541.2 L404.0,537.5 L404.5,536.2 L404.0,534.9 L403.3,533.9 L401.9,533.4 L400.5,533.2 L397.9,533.4 L393.9,533.9 L392.6,533.8 L391.7,533.7 L391.0,533.0 L390.5,531.9 L390.2,530.2 Z" fill="#e7d6a3" stroke="none"/>
<path d="M164.7,357.2 L166.9,357.8 L169.1,359.9 L170.1,362.3 L170.3,364.9 L170.1,367.2 L169.2,369.3 L169.1,370.8 L169.8,372.0 L171.2,373.1 L172.3,373.8 L172.9,374.4 L173.1,375.9 L173.0,377.8 L172.6,379.0 L171.6,380.3 L171.2,381.0 L170.9,381.9 L170.7,383.3 L170.5,385.0 L169.9,386.0 L168.3,386.6 L165.9,387.1 L164.1,387.2 L162.1,387.2 L160.4,386.5 L158.9,385.2 L158.3,384.2 L158.2,382.9 L158.4,381.3 L158.9,380.3 L159.9,379.7 L160.8,379.6 L162.0,379.9 L163.3,380.2 L164.4,380.0 L165.1,379.4 L165.4,378.6 L165.2,377.3 L164.4,375.8 L163.3,374.2 L162.3,373.3 L161.1,372.6 L160.2,372.2 L160.4,371.2 L161.2,370.2 L162.1,369.2 L162.8,367.9 L163.2,366.8 L162.5,365.6 L161.8,363.9 L161.8,362.5 L161.8,360.8 L162.3,359.5 L162.9,358.4 L163.7,357.7 L164.7,357.2 Z" fill="#e7d6a3" stroke="none"/>
<path d="M131.4,378.3 L132.7,377.7 L134.2,377.5 L135.5,378.0 L136.2,378.9 L136.6,379.3 L137.1,379.6 L137.9,379.3 L138.7,378.9 L139.3,378.6 L140.7,378.8 L142.2,379.6 L143.0,380.4 L143.2,381.5 L143.2,382.2 L142.9,382.8 L142.2,383.3 L142.0,383.9 L142.4,384.5 L143.1,385.4 L143.6,386.0 L144.0,387.1 L144.0,391.2 L143.9,393.0 L143.0,393.8 L142.1,393.9 L140.9,394.0 L140.0,393.7 L138.9,393.1 L138.0,392.0 L137.3,390.6 L136.5,388.9 L135.8,387.5 L135.3,386.8 L134.6,386.7 L133.6,387.3 L132.6,387.6 L131.4,387.4 L130.6,387.2 L129.8,386.4 L129.5,385.5 L129.8,384.4 L130.3,383.3 L130.8,382.9 L131.0,382.2 L130.7,381.1 L130.4,380.3 L130.6,379.4 L131.4,378.3 Z" fill="#e7d6a3" stroke="none"/>
<path d="M175.0,613.6 L176.6,613.5 L178.6,612.9 L180.9,613.4 L182.0,615.2 L182.3,617.4 L182.1,619.3 L182.3,620.7 L182.9,621.9 L183.8,623.0 L184.1,623.9 L184.1,625.0 L184.6,625.9 L185.1,626.9 L185.2,628.2 L184.6,629.8 L184.2,631.1 L184.7,632.2 L185.8,633.0 L186.8,634.2 L186.8,636.5 L186.3,639.6 L185.0,642.3 L183.3,643.7 L181.6,644.4 L179.6,644.4 L177.5,643.5 L175.0,641.8 L173.2,640.2 L172.3,638.1 L171.5,635.2 L171.7,632.2 L172.5,629.6 L174.0,628.3 L174.9,627.3 L175.0,625.7 L174.5,624.7 L173.4,623.8 L172.0,622.9 L171.0,622.0 L170.5,620.0 L170.7,617.4 L171.2,615.6 L172.2,614.0 L173.4,613.4 L175.0,613.6 Z" fill="#e7d6a3" stroke="none"/>
<path d="M551.9,522.3 L562.4,533.5 L567.0,529.0 L556.8,518.6 L551.9,522.3 Z" fill="#4f8a3e" stroke="none"/>
<path d="M660.2,479.1 L674.8,480.8 L675.3,467.2 L659.8,466.5 L660.2,479.1 Z" fill="#4f8a3e" stroke="none"/>
<path d="M645.6,426.5 L658.1,426.4 L659.7,447.4 L647.3,448.3 L645.6,426.5 Z" fill="#4f8a3e" stroke="none"/>
<path d="M620.5,399.2 L630.8,397.8 L627.8,377.5 L617.6,378.7 L620.5,399.2 Z" fill="#4f8a3e" stroke="none"/>
<path d="M607.8,336.9 L618.8,334.6 L624.2,357.9 L612.2,359.3 L607.8,336.9 Z" fill="#4f8a3e" stroke="none"/>
<path d="M316.4,-63.6 L310.8,-56.7 L330.0,-41.7 L335.5,-49.1 L325.7,-56.5 L316.4,-63.6 Z" fill="#4f8a3e" stroke="none"/>
<path d="M363.8,-28.9 L358.0,-21.5 L386.9,2.9 L393.0,-5.1 L376.6,-18.5 L363.8,-28.9 Z" fill="#4f8a3e" stroke="none"/>
<path d="M413.3,10.1 L405.9,18.1 L426.6,35.4 L434.3,26.6 L424.2,19.0 L413.3,10.1 Z" fill="#4f8a3e" stroke="none"/>
<path d="M62.8,238.6 L58.5,268.5 L69.6,269.6 L72.8,239.7 L62.8,238.6 Z" fill="#4f8a3e" stroke="none"/>
<path d="M73.7,300.5 L69.8,317.4 L79.6,320.1 L83.9,302.7 L73.7,300.5 Z" fill="#4f8a3e" stroke="none"/>
<path d="M538.4,661.5 L529.5,663.9 L522.5,639.5 L531.4,636.3 L538.4,661.5 Z" fill="#4f8a3e" stroke="none"/>
<path d="M438.8,30.8 L450.5,40.6 L444.2,48.9 L432.3,39.2 L438.8,30.8 Z" fill="#4f8a3e" stroke="none"/>
<path d="M221.3,351.6 L230.1,345.9 L239.4,359.6 L230.8,366.0 L221.3,351.6 Z" fill="#4f8a3e" stroke="none"/>
<path d="M202.0,291.5 L210.0,286.7 L219.9,302.5 L211.8,308.4 L202.0,291.5 Z" fill="#4f8a3e" stroke="none"/>
<path d="M207.6,237.6 L216.6,234.1 L224.1,253.0 L215.4,256.6 L207.6,237.6 Z" fill="#4f8a3e" stroke="none"/>
<path d="M192.6,166.8 L201.9,163.2 L209.8,182.4 L200.2,186.8 L192.6,166.8 Z" fill="#4f8a3e" stroke="none"/>
<path d="M509.3,593.5 L517.0,591.1 L523.6,610.4 L515.4,612.9 L509.3,593.5 Z" fill="#4f8a3e" stroke="none"/>
<path d="M507.9,556.8 L517.2,553.9 L519.9,564.3 L511.0,567.3 L507.9,556.8 Z" fill="#4f8a3e" stroke="none"/>
<path d="M498.1,503.0 L508.5,499.3 L514.1,514.0 L503.3,518.2 L498.1,503.0 Z" fill="#4f8a3e" stroke="none"/>
<path d="M496.5,457.7 L508.5,451.9 L514.2,464.1 L502.7,470.3 L496.5,457.7 Z" fill="#4f8a3e" stroke="none"/>
<path d="M502.2,396.5 L509.5,391.3 L513.8,397.5 L506.5,403.1 L502.2,396.5 Z" fill="#4f8a3e" stroke="none"/>
<path d="M81.7,410.8 L89.2,413.7 L86.6,423.6 L78.4,420.5 L81.7,410.8 Z" fill="#4f8a3e" stroke="none"/>
<path d="M71.2,321.3 L81.1,324.4 L72.7,357.7 L61.8,354.8 L71.2,321.3 Z" fill="#4f8a3e" stroke="none"/>
<path d="M67.3,207.9 L69.2,203.0 L71.6,198.6 L73.9,196.1 L76.7,194.9 L79.2,194.9 L82.1,196.0 L85.2,198.9 L91.3,204.9 L98.8,212.6 L106.6,217.6 L112.9,222.2 L119.5,225.7 L126.4,229.2 L130.3,232.4 L132.0,236.1 L131.8,240.2 L130.6,243.1 L128.1,245.8 L124.3,248.6 L120.1,250.2 L114.6,251.7 L109.6,251.2 L106.1,248.8 L103.1,245.7 L96.8,241.0 L91.7,237.9 L85.9,233.8 L82.0,230.4 L78.6,227.9 L74.9,225.3 L71.5,222.8 L68.5,219.8 L66.9,217.3 L66.4,214.7 L66.4,211.4 L67.3,207.9 Z" fill="#2f7825" stroke="none"/>
<path d="M496.9,-25.9 L498.2,-24.2 L499.3,-21.2 L499.1,-18.3 L499.7,-15.2 L500.1,-12.4 L499.9,-11.1 L499.4,-10.3 L499.2,-8.4 L499.5,-6.7 L499.6,-4.3 L499.4,-2.6 L498.9,-0.5 L498.0,0.9 L496.8,1.6 L495.0,2.5 L492.9,2.7 L488.5,2.1 L484.2,1.2 L477.7,0.2 L471.5,0.4 L466.6,0.1 L461.6,-2.2 L457.8,-5.5 L456.2,-10.0 L456.2,-14.5 L457.5,-18.4 L459.7,-21.8 L464.9,-24.9 L470.5,-26.4 L477.6,-27.1 L484.0,-27.6 L487.7,-27.6 L491.5,-27.4 L494.0,-27.0 L495.5,-26.5 L496.9,-25.9 Z" fill="#2f7825" stroke="none"/>
<path d="M713.9,466.5 L712.1,463.6 L710.2,460.7 L709.3,456.5 L709.6,452.7 L710.0,448.5 L710.6,445.0 L711.1,440.8 L711.7,435.8 L711.9,431.9 L711.9,427.2 L711.1,424.1 L710.6,421.5 L711.6,418.8 L713.2,417.4 L716.8,415.1 L719.9,414.3 L726.6,413.5 L730.8,413.7 L733.8,415.2 L736.3,418.4 L738.9,425.3 L740.4,432.2 L742.4,440.4 L743.6,447.6 L743.3,452.6 L742.3,456.3 L740.5,460.7 L737.1,463.5 L733.3,466.3 L730.4,468.1 L726.9,469.4 L723.3,469.9 L719.6,470.0 L717.0,469.1 L713.9,466.5 Z" fill="#2f7825" stroke="none"/>
<path d="M299.2,663.4 L306.6,677.8 L308.8,681.9 L311.3,687.1 L316.3,693.3 L319.2,694.1 L322.0,693.8 L326.9,691.6 L329.3,689.0 L330.6,685.7 L329.1,676.3 L325.7,668.0 L321.3,657.6 L317.8,655.0 L314.1,654.3 L306.7,655.4 L303.0,655.8 L300.8,657.2 L299.2,659.8 L298.8,661.6 L299.2,663.4 Z" fill="#2f7825" stroke="none"/>
<path d="M308.7,62.7 L304.0,59.4 L299.6,57.5 L295.7,54.6 L292.7,51.1 L289.7,48.7 L285.7,46.9 L282.2,45.5 L279.0,45.0 L275.1,45.0 L271.0,46.9 L268.1,48.7 L266.7,51.2 L265.9,54.2 L266.2,59.4 L267.9,64.0 L271.9,69.4 L275.5,73.2 L279.6,78.3 L284.6,84.4 L287.9,88.1 L292.3,91.3 L296.4,92.0 L300.6,90.7 L305.1,87.4 L309.0,83.3 L311.5,80.0 L312.3,76.6 L313.0,73.6 L312.0,69.6 L310.8,66.0 L308.7,62.7 Z" fill="#2f7825" stroke="none"/>
<path d="M657.8,605.8 L654.5,606.0 L650.1,606.1 L647.9,606.7 L646.4,607.8 L645.6,609.9 L645.2,612.5 L645.8,617.1 L646.6,622.0 L648.6,632.0 L650.0,641.0 L652.3,645.8 L653.1,649.4 L655.1,653.4 L657.5,655.0 L659.9,656.2 L662.5,656.8 L665.4,656.1 L668.3,654.9 L671.7,651.6 L673.6,648.9 L674.5,646.0 L675.5,643.0 L677.7,639.6 L679.1,637.0 L680.6,633.7 L681.3,630.6 L681.3,627.5 L680.6,623.9 L679.8,620.9 L678.5,617.5 L677.1,613.8 L675.5,611.0 L673.6,608.9 L671.1,607.3 L669.1,606.2 L667.2,605.3 L664.6,604.6 L661.8,604.8 L659.8,605.6 L657.8,605.8 Z" fill="#2f7825" stroke="none"/>
<path d="M131.8,342.7 L135.5,337.6 L139.6,334.3 L144.1,331.1 L148.1,329.7 L152.3,329.5 L156.2,329.5 L160.6,330.9 L162.7,332.4 L164.5,334.5 L165.9,336.9 L166.3,339.1 L165.6,343.0 L164.8,346.9 L162.7,350.5 L161.6,354.6 L161.2,359.2 L160.3,363.9 L158.5,370.1 L155.8,374.0 L153.7,377.2 L148.8,379.4 L145.9,379.4 L144.0,379.6 L138.6,378.0 L136.6,377.1 L134.2,375.1 L132.5,372.8 L130.9,370.6 L129.9,366.0 L129.8,359.7 L129.5,354.2 L130.3,348.1 L131.8,342.7 Z" fill="#2f7825" stroke="none"/>
<path d="M515.4,599.7 L397.4,233.4 L287.2,68.5" fill="none" stroke="#ffd64a" stroke-width="5" stroke-linecap="round" stroke-linejoin="round" opacity="0.95"/>
</svg>