<svg xmlns="http://www.w3.org/2000/svg" viewBox="0 0 456 800" preserveAspectRatio="xMidYMid meet">
<rect width="100%" height="100%" fill="#143018"/>
<path d="M-66.5,365.6 L-59.0,360.4 L-48.7,357.2 L-37.4,355.6 L-26.1,356.8 L-15.7,360.4 L-6.0,367.2 L1.1,374.9 L7.2,380.1 L19.8,377.8 L24.3,371.4 L27.6,362.0 L27.6,352.6 L26.3,343.0 L20.4,337.1 L15.3,324.2 L12.7,309.7 L11.4,298.7 L6.9,289.3 L-2.2,281.6 L-14.5,275.8 L-28.0,268.6 L-39.6,258.6 L-45.8,253.1 L-58.7,252.8 L-57.4,237.3 L-57.4,215.9 L-44.8,217.6 L-31.3,219.5 L-18.3,222.1 L-7.3,224.0 L0.1,227.9 L6.9,232.4 L10.8,238.3 L15.6,240.2 L21.7,239.2 L25.6,235.7 L28.2,227.6 L29.2,217.0 L25.9,205.6 L20.8,198.2 L11.4,192.7 L-2.2,185.3 L-8.3,180.1 L-21.9,172.7 L-30.1,168.4 L-27.9,163.9 L-22.5,154.6 L-15.8,145.9 L-7.6,140.2 L1.9,139.9 L15.4,145.6 L27.0,150.1 L35.4,149.2 L43.0,144.2 L53.7,133.2 L68.3,116.6 L81.0,104.2 L119.4,70.5 L139.8,81.5 L162.6,95.0 L186.3,107.6 L202.9,114.6 L209.1,117.2 L224.7,125.7 L230.1,135.9 L226.9,183.5 L216.1,188.0 L193.2,197.3 L184.0,202.8 L178.8,213.5 L174.7,229.1 L171.6,258.7 L166.3,278.1 L157.8,293.5 L149.2,318.4 L145.5,342.1 L142.7,371.5 L141.0,404.6 L139.0,443.0 L139.5,451.2 L141.0,483.0 L142.7,512.4 L147.2,543.0 L152.1,569.6 L156.1,598.1 L157.0,619.8 L155.8,649.6 L154.5,678.2 L150.8,702.7 L143.5,725.9 L134.9,746.7 L124.3,772.5 L114.5,795.7 L110.8,819.0 L108.4,846.8 L106.7,883.1 L102.7,913.3 L99.0,930.5 L92.0,949.3 L85.5,967.2 L79.8,987.7 L80.1,1003.3 L84.2,1024.4 L86.3,1055.2 L88.2,1061.9 L93.9,1077.4 L93.2,1087.8 L87.4,1118.1 L67.7,1159.9 L53.1,1182.6 L35.7,1190.4 L15.5,1190.2 L-5.7,1176.2 L-11.2,1158.1 L-9.1,1127.3 L-3.3,1115.6 L3.0,1091.3 L3.6,1100.4 L6.9,1105.3 L13.3,1104.6 L18.2,1101.1 L23.7,1094.9 L26.6,1084.0 L28.5,1071.0 L29.2,1061.0 L34.3,1056.5 L35.9,1050.7 L37.2,1040.7 L37.6,1025.8 L37.2,1016.1 L37.2,1004.1 L37.6,990.9 L40.8,981.2 L43.7,972.5 L47.9,966.0 L49.8,954.7 L49.8,945.4 L45.6,930.2 L41.4,917.9 L34.3,905.3 L22.7,891.7 L9.8,881.7 L-0.2,874.0 L-8.6,858.1 L-15.1,839.1 L-18.0,820.0 L-19.0,798.0 L-19.9,768.6 L-19.9,747.0 L-19.3,729.2 L-19.0,707.3 L-18.0,691.0 L-19.9,676.5 L-21.6,663.2 L-19.6,648.7 L-16.1,629.7 L-12.8,616.4 L-9.0,601.9 L-2.8,592.0 L2.7,581.4 L4.6,571.7 L6.2,564.2 L11.1,553.3 L14.6,542.9 L17.9,530.7 L19.8,520.0 L19.8,512.9 L16.2,506.1 L10.8,501.9 L5.3,500.6 L-1.5,500.3 L-9.6,502.9 L-12.8,510.3 L-13.8,524.2 L-16.1,539.4 L-19.0,553.9 L-25.1,569.1 L-35.8,582.1 L-45.5,590.5 L-50.0,601.4 L-53.9,618.9 L-57.4,633.1 L-63.9,647.3 L-69.0,660.2 L-75.8,669.5 L-82.3,679.5 L-86.5,688.0 L-91.0,700.2 L-98.8,712.2 L-112.3,732.0 L-121.4,747.2 L-127.5,759.1 L-138.5,779.5 L-156.3,804.4 L-169.9,821.5 L-181.5,836.3 L-194.7,851.2 L-205.1,863.5 L-212.5,874.2 L-225.4,904.7 L-230.9,918.6 L-238.3,929.2 L-248.7,939.9 L-267.4,948.6 L-288.7,956.3 L-304.9,964.7 L-322.3,976.4 L-331.4,984.5 L-337.8,995.4 L-342.0,1009.0 L-360.9,999.5 L-394.1,981.6 L-411.6,969.4 L-428.8,957.4 L-465.2,924.5 L-454.2,907.7 L-445.8,889.9 L-442.7,888.1 L-438.2,886.1 L-434.8,883.0 L-434.1,880.8 L-418.5,879.1 L-404.8,872.3 L-389.8,859.1 L-379.2,846.2 L-370.7,833.8 L-358.6,812.4 L-351.3,790.8 L-341.9,767.2 L-332.5,747.2 L-320.9,728.5 L-310.6,710.7 L-297.6,681.6 L-286.0,643.2 L-276.0,608.3 L-262.7,572.7 L-254.0,548.2 L-242.4,530.4 L-227.2,515.4 L-212.6,503.4 L-201.0,495.6 L-178.8,487.8 L-156.8,478.7 L-134.8,469.0 L-118.7,457.7 L-114.2,453.5 L-102.1,441.7 L-89.5,428.8 L-82.4,417.3 L-77.7,403.2 L-73.4,387.7 L-70.9,370.0 L-66.5,365.6 Z" fill="#2b5a2a" stroke="none"/>
<path d="M-392.7,527.8 L-380.5,514.5 L-372.0,497.4 L-368.3,487.8 L-361.2,483.0 L-351.5,484.1 L-346.7,488.9 L-334.9,488.9 L-313.7,484.8 L-298.5,481.9 L-289.2,472.6 L-257.3,463.3 L-222.8,450.3 L-197.5,435.8 L-176.8,422.5 L-150.0,406.2 L-134.5,387.6 L-129.4,355.7 L-128.0,333.8 L-112.4,316.7 L-106.1,278.1 L-101.2,236.5 L-99.8,209.8 L-95.7,190.9 L-82.7,173.1 L-63.8,164.9 L-47.8,163.8 L-30.1,168.4 L-27.9,163.9 L-22.5,154.6 L-15.8,145.9 L-7.6,140.2 L1.9,139.9 L15.4,145.6 L27.0,150.1 L35.4,149.2 L43.0,144.2 L53.7,133.2 L68.3,116.6 L81.0,104.2 L119.4,70.5 L105.9,56.2 L97.3,41.1 L93.7,25.0 L92.9,8.3 L93.7,3.6 L100.6,-9.2 L105.3,-15.9 L113.0,-22.6 L93.9,-20.9 L103.7,-34.3 L115.9,-47.9 L111.6,-52.2 L104.3,-60.7 L88.7,-76.7 L71.7,-93.0 L52.8,-104.1 L36.4,-106.8 L12.3,-99.3 L-6.3,-84.9 L-25.2,-63.0 L-37.8,-40.0 L-51.9,-8.4 L-80.1,28.3 L-97.5,42.4 L-126.1,67.7 L-159.5,91.4 L-239.7,180.2 L-261.2,200.3 L-270.5,226.2 L-283.1,259.7 L-308.4,293.0 L-325.8,313.5 L-362.8,356.9 L-381.0,371.0 L-396.2,400.7 L-404.7,424.4 L-415.5,442.2 L-431.1,452.2 L-444.8,458.2 L-452.9,475.6 L-448.1,503.8 L-443.7,520.2 L-437.4,528.7 L-429.9,530.2 L-411.8,530.2 L-392.7,527.8 Z" fill="#2b5a2a" stroke="none"/>
<path d="M113.0,-22.6 L108.9,-13.4 L108.9,-2.5 L109.8,15.2 L113.8,20.3 L122.5,18.6 L136.4,13.5 L151.7,9.2 L170.5,4.1 L192.5,1.1 L208.6,-1.9 L218.2,-6.4 L228.5,-13.0 L235.3,-20.4 L243.0,-25.3 L256.4,-28.1 L271.1,-29.4 L281.1,-35.1 L289.9,-47.7 L297.0,-60.3 L298.5,-78.2 L297.5,-92.0 L301.3,-109.7 L311.5,-122.9 L316.4,-132.1 L327.0,-139.4 L344.6,-139.6 L363.2,-136.6 L379.8,-133.4 L395.6,-127.0 L407.1,-119.5 L413.9,-110.1 L421.4,-94.4 L423.5,-76.5 L426.1,-63.7 L435.0,-55.8 L458.9,-45.4 L499.4,-47.0 L536.5,-52.6 L553.3,-56.9 L564.0,-63.2 L574.4,-74.1 L577.9,-83.9 L575.3,-103.1 L571.7,-126.5 L574.7,-140.6 L572.7,-145.3 L563.8,-146.8 L549.7,-146.8 L515.2,-146.8 L481.1,-144.7 L453.8,-144.7 L429.1,-146.6 L413.5,-151.7 L401.8,-158.7 L393.3,-169.4 L388.2,-182.2 L386.5,-192.8 L392.2,-204.8 L402.4,-213.1 L412.9,-220.5 L419.7,-231.2 L422.0,-241.4 L425.0,-249.8 L432.9,-255.9 L446.1,-261.9 L461.5,-263.6 L472.1,-267.9 L477.9,-274.3 L478.6,-284.6 L487.1,-285.5 L509.3,-287.4 L526.9,-291.8 L538.4,-297.4 L551.9,-301.4 L562.1,-307.7 L566.7,-310.6 L583.8,-320.1 L610.9,-330.9 L600.9,-321.8 L598.3,-313.5 L600.4,-304.7 L609.0,-299.2 L619.2,-298.8 L631.6,-300.0 L651.2,-300.3 L667.4,-294.9 L677.6,-293.7 L694.3,-295.4 L715.0,-299.8 L726.5,-305.6 L741.6,-311.3 L755.9,-313.3 L771.2,-313.7 L784.5,-316.9 L807.3,-322.0 L824.7,-323.5 L843.3,-326.3 L858.0,-326.3 L872.5,-322.0 L882.3,-316.5 L885.1,-304.5 L884.0,-277.2 L882.1,-238.4 L879.7,-185.2 L879.3,-131.7 L877.8,-91.2 L876.7,-31.7 L876.5,-10.0 L858.4,7.2 L833.5,28.4 L802.9,37.0 L759.6,45.6 L715.5,52.5 L678.8,56.6 L650.2,60.3 L617.5,64.8 L585.7,70.9 L555.0,73.8 L530.1,74.2 L505.2,77.0 L468.1,81.5 L434.2,84.4 L397.8,86.0 L362.7,85.2 L331.2,84.4 L318.6,84.5 L304.0,88.1 L269.0,98.9 L209.1,117.2 L202.9,114.6 L186.3,107.6 L162.6,95.0 L139.8,81.5 L119.4,70.5 L105.9,56.2 L97.3,41.1 L93.7,25.0 L92.9,8.3 L93.7,3.6 L100.6,-9.2 L105.3,-15.9 L113.0,-22.6 Z" fill="#2b5a2a" stroke="none"/>
<path d="M134.7,102.6 L321.3,553.1 L319.2,697.4" fill="none" stroke="#4e8b39" stroke-width="79.8" stroke-linecap="round" stroke-linejoin="round" opacity="0.85"/>
<path d="M509.3,561.7 L508.1,575.0 L512.7,586.6 L521.7,594.0 L535.0,596.3 L551.2,590.1 L567.1,579.3 L590.9,554.3 L623.7,522.0 L660.9,484.1 L699.7,445.8 L732.6,412.1 L762.0,382.6 L787.0,357.8 L806.0,339.6 L823.8,321.5 L840.5,303.1 L851.6,289.5 L857.0,278.4 L854.4,263.1 L848.2,251.5 L837.4,245.6 L826.6,245.6 L813.9,253.5 L792.4,274.2 L766.3,302.2 L730.6,339.1 L697.1,372.2 L669.1,399.1 L635.7,433.5 L600.8,470.9 L568.5,502.3 L538.2,530.9 L522.1,547.4 L509.3,561.7 Z" fill="#5a9540" stroke="none"/>
<path d="M226.6,528.2 L224.7,526.3 L223.0,523.6 L222.0,522.3 L220.9,521.6 L219.3,522.0 L218.4,523.9 L216.5,526.9 L213.0,528.5 L211.7,529.0 L211.5,530.7 L212.3,532.2 L215.1,533.3 L218.0,535.7 L219.3,539.0 L220.1,547.3 L219.7,550.9 L217.4,553.6 L212.3,554.5 L204.4,555.0 L201.2,555.8 L198.5,557.5 L196.0,557.8 L193.0,556.5 L190.7,554.7 L188.0,552.3 L186.5,549.1 L187.0,545.6 L187.8,543.0 L189.5,540.4 L192.6,538.6 L195.3,537.0 L195.6,535.0 L195.8,533.6 L195.1,532.0 L194.1,530.9 L192.0,531.2 L189.9,531.8 L187.2,532.5 L184.4,532.3 L182.6,532.2 L180.7,531.0 L179.4,528.0 L179.4,523.2 L181.1,517.7 L183.8,511.7 L185.5,508.6 L189.3,505.7 L191.6,503.3 L191.8,500.0 L193.0,497.5 L193.0,495.0 L192.0,492.0 L191.4,488.0 L190.1,484.5 L190.1,481.2 L191.1,478.2 L193.0,474.6 L195.8,473.2 L198.7,473.2 L201.8,474.5 L205.4,476.9 L209.0,477.9 L213.0,476.7 L214.8,474.8 L215.1,472.3 L212.1,470.9 L209.2,469.2 L206.5,466.3 L205.0,462.3 L204.6,459.1 L205.6,455.0 L207.3,451.9 L208.8,448.2 L209.2,444.2 L209.6,440.7 L211.1,439.4 L213.6,438.7 L215.7,438.8 L217.2,439.9 L217.6,442.3 L217.4,445.8 L218.4,447.9 L220.1,449.4 L223.0,448.9 L224.9,446.8 L225.8,443.5 L227.8,442.1 L229.5,441.0 L229.5,439.2 L228.3,437.4 L228.1,435.8 L228.7,434.2 L232.7,430.8 L236.9,426.4 L240.9,422.2 L244.2,417.8 L246.3,416.8 L248.2,416.7 L249.9,417.1 L251.8,418.5 L254.3,422.1 L256.8,425.8 L259.9,430.6 L261.6,432.5 L263.5,433.3 L265.2,432.5 L266.9,431.1 L267.1,428.9 L267.1,427.3 L266.6,425.9 L265.8,424.3 L263.9,423.7 L262.5,422.2 L262.2,419.7 L262.7,416.2 L264.1,413.3 L265.8,411.8 L267.5,411.4 L269.2,412.1 L270.4,414.0 L271.9,417.0 L271.9,421.5 L272.3,426.6 L274.6,431.2 L275.0,436.5 L273.1,443.4 L269.8,448.2 L264.5,449.7 L259.7,450.0 L256.2,448.2 L254.3,444.7 L254.5,440.5 L253.9,437.9 L252.6,435.5 L250.9,435.0 L249.2,435.2 L247.8,436.5 L246.9,437.8 L246.3,439.5 L245.7,441.3 L244.8,442.8 L242.3,445.1 L238.8,446.6 L236.4,447.2 L235.0,448.3 L234.1,449.3 L233.7,450.9 L234.4,452.8 L236.0,455.8 L237.3,457.7 L237.5,459.8 L237.3,462.7 L237.1,466.0 L237.5,468.9 L238.1,471.9 L239.0,475.5 L238.8,479.4 L237.5,483.4 L236.4,484.4 L234.8,485.1 L233.5,485.6 L232.0,484.9 L228.9,483.6 L224.3,484.3 L222.0,485.3 L220.1,488.0 L219.3,490.2 L218.8,492.6 L219.3,495.0 L220.1,496.3 L221.3,496.8 L223.7,496.3 L225.8,495.3 L227.8,494.9 L229.9,494.9 L232.7,496.5 L234.1,500.4 L234.6,505.0 L235.2,508.6 L235.0,511.8 L234.6,513.9 L234.8,516.6 L237.1,519.6 L237.7,522.1 L237.5,524.8 L233.3,530.1 L230.6,530.4 L226.6,528.2 Z" fill="#e7d6a3" stroke="none"/>
<path d="M191.4,62.5 L194.4,62.4 L197.1,64.2 L201.9,65.2 L206.7,65.6 L211.3,65.4 L213.2,65.7 L214.7,66.9 L216.6,70.2 L217.4,73.0 L216.8,77.0 L217.6,80.1 L218.9,85.5 L217.6,90.1 L214.5,93.7 L210.1,96.1 L206.5,96.1 L203.6,95.6 L201.1,94.0 L198.1,91.5 L196.0,91.5 L192.7,91.4 L188.9,90.9 L185.3,90.1 L182.6,87.8 L180.1,83.8 L180.3,80.3 L182.6,78.5 L184.7,79.7 L187.4,81.6 L190.6,81.4 L192.9,78.9 L193.3,76.1 L191.0,74.3 L186.2,74.7 L182.6,74.7 L180.5,73.6 L180.9,70.7 L183.5,67.3 L187.0,63.7 L191.4,62.5 Z" fill="#e7d6a3" stroke="none"/>
<path d="M301.9,435.4 L304.2,437.2 L306.9,439.2 L308.8,442.6 L311.3,446.7 L314.4,448.6 L319.1,451.9 L321.8,455.4 L324.1,459.0 L325.1,462.0 L325.1,465.1 L325.1,467.6 L326.0,470.4 L325.8,473.8 L325.3,476.1 L322.2,478.2 L317.4,478.9 L312.1,478.8 L307.7,477.8 L304.0,475.5 L301.6,471.9 L298.7,468.8 L296.6,466.8 L295.8,464.7 L297.2,462.8 L298.3,460.8 L298.5,458.6 L296.8,457.7 L293.3,458.1 L287.8,458.4 L284.0,458.2 L281.9,457.7 L280.7,455.4 L280.7,452.1 L282.1,449.1 L283.4,446.6 L284.5,444.2 L286.5,441.2 L287.6,437.6 L287.0,434.7 L285.5,432.6 L285.3,430.2 L286.5,427.7 L288.9,426.7 L291.4,426.5 L293.1,428.7 L295.6,431.1 L298.9,433.0 L301.9,435.4 Z" fill="#e7d6a3" stroke="none"/>
<path d="M522.6,457.3 L522.6,454.3 L525.3,452.1 L530.5,452.8 L532.4,458.2 L533.0,466.0 L532.2,470.0 L529.5,472.0 L525.5,472.6 L520.9,473.3 L519.2,475.7 L517.5,477.9 L514.0,478.0 L510.6,479.4 L507.0,478.9 L504.1,476.9 L502.6,473.9 L503.3,470.7 L504.9,466.5 L504.7,462.7 L504.1,459.8 L506.2,457.4 L507.9,454.8 L511.4,453.9 L513.5,453.5 L515.4,455.5 L515.4,457.8 L515.4,459.7 L516.1,461.5 L517.9,461.6 L521.1,459.4 L522.6,457.3 Z" fill="#e7d6a3" stroke="none"/>
<path d="M236.3,-0.2 L234.0,2.4 L231.3,5.4 L227.8,7.8 L226.6,10.7 L226.6,14.0 L228.0,16.0 L230.1,18.0 L233.0,19.9 L235.8,20.6 L238.6,20.7 L240.9,20.4 L244.1,19.5 L244.9,17.9 L245.2,15.2 L245.5,13.3 L246.4,11.3 L248.2,10.1 L250.5,9.5 L253.4,9.0 L255.2,7.6 L256.5,4.6 L257.0,1.3 L256.2,-2.3 L254.5,-4.6 L252.4,-5.6 L248.7,-6.4 L245.3,-6.4 L242.3,-5.9 L239.9,-4.8 L238.1,-2.6 L236.3,-0.2 Z" fill="#e7d6a3" stroke="none"/>
<path d="M250.2,63.5 L251.3,60.2 L252.2,56.2 L253.1,52.7 L254.3,49.9 L256.1,47.8 L259.0,46.4 L261.7,46.4 L264.9,46.8 L268.2,47.9 L269.9,50.0 L269.5,52.1 L267.7,54.1 L266.1,55.9 L266.3,57.6 L267.6,58.4 L270.0,58.2 L271.6,57.0 L273.7,55.9 L276.1,56.6 L277.9,58.9 L278.4,62.2 L277.2,66.3 L274.9,70.0 L274.1,71.3 L272.4,75.0 L270.6,78.0 L269.3,80.7 L267.9,82.4 L265.6,82.4 L264.2,81.2 L263.2,79.8 L261.4,78.9 L259.0,78.6 L256.6,79.4 L253.6,80.0 L251.0,80.2 L248.4,79.1 L245.9,77.9 L244.3,75.2 L243.7,71.9 L244.6,69.2 L245.8,67.2 L247.6,65.6 L249.1,64.7 L250.2,63.5 Z" fill="#e7d6a3" stroke="none"/>
<path d="M429.6,-5.8 L426.6,-6.6 L422.9,-7.0 L419.7,-6.5 L417.3,-5.8 L415.4,-3.4 L414.8,-0.6 L414.9,3.7 L415.0,6.1 L415.1,8.5 L415.3,10.8 L416.3,12.6 L417.7,14.2 L419.6,15.6 L421.7,16.0 L424.5,15.7 L426.6,14.9 L428.4,13.9 L430.1,13.1 L432.0,13.6 L434.1,14.1 L435.5,14.1 L437.5,13.1 L440.2,11.8 L442.4,10.7 L444.5,10.1 L447.1,10.0 L450.4,10.3 L452.5,11.7 L453.7,14.2 L455.2,15.9 L457.0,16.7 L459.8,17.0 L462.4,16.3 L465.1,14.5 L468.3,12.3 L470.2,10.3 L471.6,8.5 L472.4,6.6 L472.8,4.4 L472.9,2.0 L472.1,-1.0 L470.2,-3.4 L467.2,-4.9 L464.2,-5.7 L460.7,-6.1 L456.1,-6.4 L452.8,-6.5 L449.4,-6.2 L445.6,-5.6 L442.0,-5.2 L438.9,-4.8 L436.1,-4.9 L433.3,-5.1 L429.6,-5.8 Z" fill="#e7d6a3" stroke="none"/>
<path d="M329.6,-60.4 L333.0,-59.5 L335.0,-60.7 L334.7,-63.6 L333.1,-65.5 L334.8,-68.1 L336.6,-69.7 L338.8,-70.1 L340.7,-68.6 L344.3,-68.6 L346.7,-65.6 L347.7,-61.6 L346.9,-58.2 L344.9,-55.5 L342.4,-52.7 L339.3,-51.3 L334.2,-51.5 L329.8,-49.4 L325.9,-47.5 L320.6,-48.5 L318.2,-50.1 L317.4,-53.1 L314.9,-57.0 L315.7,-61.9 L317.0,-65.6 L318.0,-67.8 L321.2,-68.4 L323.9,-69.2 L326.7,-69.0 L327.9,-67.7 L327.3,-65.1 L326.1,-62.5 L327.3,-60.9 L329.6,-60.4 Z" fill="#e7d6a3" stroke="none"/>
<path d="M-79.6,516.4 L-84.5,519.6 L-87.8,523.0 L-90.4,527.0 L-92.9,531.8 L-93.8,536.0 L-93.3,539.9 L-91.4,543.0 L-88.1,545.5 L-83.8,545.9 L-79.3,543.8 L-76.0,540.9 L-70.3,538.2 L-66.3,537.4 L-63.0,538.2 L-60.6,539.9 L-62.2,543.8 L-62.0,547.4 L-60.5,552.1 L-59.9,556.0 L-56.9,558.7 L-48.2,557.9 L-40.6,553.7 L-35.4,550.3 L-32.3,547.7 L-31.0,543.8 L-36.2,540.9 L-41.2,535.9 L-45.5,533.4 L-51.3,531.4 L-57.8,528.5 L-62.8,525.8 L-67.5,521.2 L-72.7,520.0 L-75.7,517.8 L-79.6,516.4 Z" fill="#e7d6a3" stroke="none"/>
<path d="M106.8,682.3 L101.7,679.6 L96.4,678.2 L91.4,678.5 L87.2,679.0 L83.6,678.5 L80.6,679.9 L78.4,682.6 L77.9,686.4 L78.6,689.8 L78.7,692.4 L77.0,694.4 L73.4,697.1 L73.9,700.3 L75.7,702.6 L79.3,700.7 L82.1,698.8 L85.2,698.1 L89.4,699.2 L95.4,701.5 L101.1,702.5 L104.7,701.4 L108.7,701.4 L114.2,703.6 L119.7,702.3 L123.7,700.3 L126.8,697.6 L128.5,693.4 L128.1,689.8 L125.2,687.8 L119.3,686.1 L114.2,684.8 L110.6,683.8 L106.8,682.3 Z" fill="#e7d6a3" stroke="none"/>
<path d="M32.6,561.1 L27.0,564.1 L23.8,566.7 L21.0,569.3 L19.6,572.5 L19.6,574.9 L21.6,577.6 L23.5,579.4 L26.7,581.8 L30.7,584.4 L33.2,588.2 L35.9,590.6 L39.3,591.7 L41.4,590.8 L43.7,589.9 L45.1,587.7 L46.5,585.7 L49.8,582.7 L53.1,581.0 L57.2,579.4 L58.5,578.9 L61.7,577.1 L64.0,573.2 L65.8,569.4 L66.5,567.1 L67.0,565.6 L65.6,560.2 L64.8,557.8 L61.7,556.1 L59.9,556.8 L57.8,557.8 L53.5,560.1 L49.2,562.8 L45.7,564.7 L41.9,567.3 L40.6,567.1 L38.9,564.6 L36.1,562.1 L32.6,561.1 Z" fill="#e7d6a3" stroke="none"/>
<path d="M31.1,284.9 L26.9,287.4 L24.1,290.7 L22.3,293.9 L22.5,298.1 L23.5,301.7 L23.9,303.2 L26.0,303.8 L26.5,307.0 L26.0,310.5 L25.4,313.2 L25.7,317.5 L25.9,320.8 L26.7,323.0 L27.2,326.0 L31.1,330.0 L34.5,330.4 L39.8,331.1 L43.5,333.0 L49.6,335.5 L53.2,335.2 L55.3,333.0 L55.3,329.3 L54.0,324.8 L52.8,320.8 L52.5,316.9 L49.6,313.9 L46.8,312.3 L43.9,310.3 L41.6,310.1 L39.1,312.3 L36.7,312.3 L35.5,310.5 L35.0,308.8 L36.7,307.3 L39.5,306.0 L40.8,303.6 L39.9,297.5 L39.4,292.4 L38.2,288.9 L37.2,286.1 L35.6,284.7 L31.1,284.9 Z" fill="#e7d6a3" stroke="none"/>
<path d="M113.6,277.6 L121.2,276.9 L127.9,277.5 L132.6,282.0 L135.8,286.2 L137.1,290.0 L136.0,294.3 L137.3,298.3 L135.3,303.2 L129.9,305.6 L124.8,305.7 L119.4,303.4 L115.8,301.1 L114.0,299.5 L113.5,296.9 L112.5,293.7 L109.5,292.5 L107.3,289.5 L106.9,285.4 L107.4,282.6 L110.1,279.4 L113.6,277.6 Z" fill="#e7d6a3" stroke="none"/>
<path d="M131.3,248.3 L125.9,244.2 L120.6,241.9 L115.3,241.0 L109.4,240.9 L105.0,242.3 L102.3,244.5 L100.8,247.4 L100.9,249.3 L101.0,250.1 L102.1,253.4 L103.6,256.4 L104.7,257.5 L107.9,257.5 L111.4,257.7 L112.7,260.2 L113.8,262.9 L115.1,266.2 L118.1,267.8 L123.2,267.5 L128.0,265.5 L131.0,262.8 L132.8,260.4 L134.5,256.4 L133.9,250.8 L131.3,248.3 Z" fill="#e7d6a3" stroke="none"/>
<path d="M57.4,227.4 L62.7,225.7 L65.7,224.8 L70.7,224.8 L74.8,223.3 L78.1,220.0 L81.1,217.4 L81.3,214.3 L80.6,211.6 L79.4,208.9 L77.0,207.4 L74.5,206.6 L71.0,209.5 L67.8,211.1 L66.1,209.7 L65.5,207.8 L66.2,206.3 L68.7,205.4 L70.1,204.0 L69.5,201.2 L66.7,199.0 L62.5,198.2 L58.6,198.3 L56.0,199.8 L54.6,202.2 L57.0,204.8 L55.8,207.0 L52.6,209.0 L49.9,211.6 L47.2,214.0 L45.6,217.3 L45.4,220.4 L46.0,223.8 L48.8,225.9 L53.3,227.5 L57.4,227.4 Z" fill="#e7d6a3" stroke="none"/>
<path d="M343.9,577.8 L339.4,579.0 L337.1,582.3 L335.0,586.6 L333.3,590.5 L329.7,595.5 L328.7,599.9 L328.9,605.3 L331.2,611.1 L337.3,614.8 L345.9,611.4 L352.3,607.9 L357.0,604.6 L360.9,602.3 L366.0,599.3 L369.3,593.6 L371.2,589.0 L372.7,584.9 L371.2,579.5 L370.0,577.2 L366.5,574.3 L360.8,574.4 L356.0,576.0 L352.0,578.3 L347.6,577.9 L343.9,577.8 Z" fill="#e7d6a3" stroke="none"/>
<path d="M291.6,722.7 L289.0,722.2 L285.8,723.8 L284.3,727.0 L284.2,730.9 L285.8,734.7 L289.7,738.9 L293.9,742.6 L297.6,744.8 L301.6,746.3 L305.0,746.4 L306.9,744.5 L307.8,742.0 L307.4,739.4 L306.5,737.0 L305.1,735.1 L302.6,734.3 L299.9,733.9 L298.0,732.8 L296.5,731.7 L295.1,729.5 L294.0,726.7 L293.2,724.1 L291.6,722.7 Z" fill="#e7d6a3" stroke="none"/>
<path d="M315.3,729.7 L313.7,731.7 L311.7,733.3 L310.8,735.1 L311.7,737.1 L313.7,738.8 L316.6,739.5 L319.8,738.7 L323.0,736.1 L326.4,732.6 L329.0,729.7 L331.2,726.7 L332.0,723.8 L333.4,720.3 L334.7,717.9 L336.7,715.1 L338.7,711.8 L339.2,709.0 L338.2,706.3 L336.8,704.4 L334.2,703.2 L331.6,703.3 L329.2,705.4 L327.2,708.9 L325.3,711.8 L324.2,714.8 L323.1,718.2 L321.9,720.6 L320.1,723.6 L318.3,726.3 L315.3,729.7 Z" fill="#e7d6a3" stroke="none"/>
<path d="M300.9,655.9 L297.4,657.5 L295.3,661.4 L295.7,664.5 L297.4,668.4 L299.3,672.6 L300.2,676.8 L299.8,680.2 L298.4,684.2 L297.0,687.7 L295.2,691.9 L292.7,695.3 L291.1,698.5 L287.6,702.3 L286.3,706.6 L285.2,710.8 L285.0,714.5 L286.5,716.6 L289.0,717.5 L291.9,717.5 L294.2,716.2 L295.3,713.3 L296.8,710.5 L300.0,707.2 L303.6,703.6 L305.5,699.7 L306.0,696.3 L306.7,692.7 L307.9,689.4 L309.4,686.4 L310.8,682.8 L311.8,678.5 L312.1,672.7 L311.3,667.7 L311.4,663.5 L311.5,660.3 L309.3,657.5 L307.5,655.5 L303.3,655.0 L300.9,655.9 Z" fill="#e7d6a3" stroke="none"/>
<path d="M239.9,691.9 L244.6,689.9 L248.5,687.7 L250.4,684.6 L250.8,681.4 L257.3,680.0 L263.3,679.4 L267.1,679.4 L270.1,677.3 L270.3,674.2 L268.6,669.5 L268.2,665.3 L267.7,662.2 L266.5,658.9 L264.8,658.9 L263.5,660.9 L262.7,662.6 L260.0,662.6 L258.9,661.0 L258.6,658.5 L260.0,654.9 L262.3,650.7 L265.0,644.7 L267.9,638.8 L268.4,634.0 L267.7,628.3 L265.2,626.2 L261.6,624.8 L255.5,627.0 L251.1,630.9 L247.5,635.1 L246.7,638.9 L246.7,642.6 L247.8,646.0 L244.5,646.6 L241.6,647.4 L238.0,650.0 L235.8,653.7 L234.5,657.9 L236.5,662.6 L238.3,665.9 L240.2,667.7 L242.4,669.8 L241.6,672.9 L239.5,675.6 L235.9,676.6 L233.7,678.5 L232.7,681.0 L233.9,685.2 L235.6,688.7 L237.6,690.2 L239.9,691.9 Z" fill="#e7d6a3" stroke="none"/>
<path d="M-52.8,130.4 L-51.2,128.7 L-48.1,128.4 L-45.5,130.7 L-44.1,134.5 L-43.7,138.9 L-45.2,141.2 L-48.2,141.5 L-50.4,140.4 L-51.1,138.2 L-51.6,135.2 L-52.8,130.4 Z" fill="#e7d6a3" stroke="none"/>
<path d="M-77.7,110.5 L-74.9,109.0 L-72.5,108.7 L-69.4,109.9 L-68.3,111.0 L-68.2,112.8 L-69.1,115.9 L-69.7,119.8 L-69.2,122.0 L-67.6,122.9 L-65.8,121.0 L-64.6,118.7 L-62.1,117.9 L-60.3,116.9 L-57.0,116.7 L-54.7,117.7 L-54.2,122.1 L-55.0,124.7 L-54.4,127.1 L-55.8,130.4 L-54.4,134.2 L-54.1,137.8 L-55.2,142.3 L-58.1,144.1 L-61.0,142.9 L-63.1,142.1 L-64.9,139.5 L-66.3,137.3 L-68.3,136.2 L-70.4,137.3 L-71.9,137.8 L-73.7,139.4 L-74.4,141.0 L-77.1,141.9 L-79.0,141.9 L-80.0,139.9 L-82.1,136.1 L-83.6,134.4 L-85.1,132.5 L-85.6,131.0 L-85.1,129.2 L-84.5,127.6 L-83.5,126.0 L-83.2,123.9 L-83.2,122.5 L-81.6,121.2 L-79.9,120.3 L-78.4,119.1 L-78.1,117.5 L-79.3,115.1 L-79.2,112.7 L-77.7,110.5 Z" fill="#e7d6a3" stroke="none"/>
<path d="M-23.3,92.3 L-26.2,90.1 L-29.1,90.9 L-31.8,92.7 L-33.9,95.6 L-36.0,98.2 L-36.0,101.1 L-34.9,104.8 L-33.3,106.6 L-30.9,108.6 L-27.6,109.2 L-24.5,108.4 L-21.9,108.4 L-19.4,108.9 L-16.4,110.5 L-14.8,108.9 L-14.3,107.0 L-12.9,104.8 L-9.9,103.4 L-8.7,101.8 L-8.0,99.9 L-8.5,97.4 L-9.6,95.2 L-11.7,93.2 L-14.3,92.0 L-17.2,90.8 L-20.1,90.5 L-21.5,92.7 L-23.3,92.3 Z" fill="#e7d6a3" stroke="none"/>
<path d="M212.3,202.6 L215.9,212.5 L219.2,222.3 L225.3,220.2 L231.6,218.1 L228.2,208.3 L225.1,198.5 L218.8,200.6 L212.3,202.6 Z" fill="#4f8a3e" stroke="none"/>
<path d="M175.1,140.4 L189.2,178.2 L208.6,170.9 L194.5,133.2 L175.1,140.4 Z" fill="#4f8a3e" stroke="none"/>
<path d="M133.3,110.9 L137.3,121.1 L141.9,133.1 L151.3,129.4 L160.8,125.8 L156.2,113.1 L151.3,100.4 L140.2,95.1 L129.1,89.9 L120.3,92.6 L124.1,102.7 L127.9,112.8 L133.3,110.9 Z" fill="#4f8a3e" stroke="none"/>
<path d="M321.1,772.8 L333.5,785.0 L314.6,804.1 L302.3,792.0 L321.1,772.8 Z" fill="#4f8a3e" stroke="none"/>
<path d="M288.2,115.6 L276.4,196.0 L308.3,224.4 L347.8,275.0 L379.7,333.9 L425.4,409.4 L462.2,467.0 L475.3,428.9 L462.9,393.3 L400.9,289.7 L378.1,242.2 L362.4,186.3 L357.7,120.5 L288.2,115.6 Z" fill="#4f8a3e" stroke="none"/>
<path d="M-15.9,227.7 L2.6,234.3 L-4.5,254.3 L-23.0,247.7 L-15.9,227.7 Z" fill="#4f8a3e" stroke="none"/>
<path d="M1.3,153.5 L-5.6,168.0 L34.3,187.0 L41.2,172.6 L1.3,153.5 Z" fill="#4f8a3e" stroke="none"/>
<path d="M44.4,93.7 L52.8,96.7 L41.6,127.8 L33.2,124.8 L44.4,93.7 Z" fill="#4f8a3e" stroke="none"/>
<path d="M410.9,682.0 L423.5,694.7 L463.3,655.3 L450.7,642.5 L410.9,682.0 Z" fill="#4f8a3e" stroke="none"/>
<path d="M503.6,624.1 L513.7,633.8 L527.8,619.0 L517.7,609.3 L503.6,624.1 Z" fill="#4f8a3e" stroke="none"/>
<path d="M541.1,410.9 L541.6,405.0 L541.1,399.2 L537.9,392.8 L533.6,387.8 L529.9,385.4 L525.5,383.8 L518.9,383.6 L512.8,384.5 L506.6,387.7 L501.3,391.6 L497.6,396.1 L496.2,399.4 L496.1,402.8 L497.6,407.5 L498.8,412.8 L499.2,419.4 L497.8,424.4 L495.4,427.4 L493.8,430.7 L493.2,435.0 L494.2,439.5 L496.1,442.7 L499.2,445.5 L505.8,448.0 L512.6,447.5 L519.7,446.1 L525.7,443.5 L529.8,440.6 L532.6,436.8 L535.3,430.0 L537.8,424.0 L539.9,416.8 L541.1,410.9 Z" fill="#2f7825" stroke="none"/>
<path d="M171.4,30.6 L166.1,32.0 L161.6,34.1 L158.6,35.8 L155.8,38.0 L153.9,40.3 L152.8,42.6 L151.3,46.2 L151.0,48.5 L151.8,51.3 L152.8,53.5 L155.9,56.0 L158.0,56.8 L166.1,56.3 L174.2,55.7 L181.6,55.1 L189.2,55.6 L198.4,55.8 L206.1,56.8 L212.0,55.4 L215.9,53.1 L219.4,49.7 L221.3,46.5 L222.0,41.8 L221.8,38.6 L219.7,35.0 L215.2,32.2 L209.0,31.1 L201.8,29.6 L193.5,28.8 L187.5,28.6 L181.1,29.1 L176.5,29.7 L171.4,30.6 Z" fill="#2f7825" stroke="none"/>
<path d="M318.5,-102.4 L315.1,-96.9 L312.6,-91.3 L310.8,-86.3 L310.4,-80.1 L313.1,-75.8 L316.7,-73.9 L321.9,-73.9 L328.8,-74.8 L335.7,-74.8 L343.2,-73.9 L348.6,-71.8 L355.0,-68.0 L359.4,-66.1 L364.8,-67.4 L368.4,-70.9 L370.3,-74.5 L370.9,-77.6 L370.0,-81.7 L367.2,-85.2 L363.8,-89.7 L361.3,-93.0 L358.7,-97.6 L356.6,-101.1 L352.3,-104.7 L346.0,-107.2 L338.6,-108.7 L331.4,-110.2 L326.0,-110.0 L322.5,-108.6 L320.4,-105.3 L318.5,-102.4 Z" fill="#2f7825" stroke="none"/>
<path d="M75.4,195.2 L73.5,190.7 L72.6,185.1 L71.7,179.4 L71.7,174.6 L73.2,169.3 L75.1,165.5 L77.1,161.2 L80.9,157.0 L84.9,155.1 L88.4,155.0 L92.9,156.7 L96.3,161.0 L100.0,166.7 L102.3,173.8 L103.9,179.9 L106.2,186.8 L109.2,192.4 L112.4,197.7 L116.3,203.2 L120.7,207.4 L126.3,211.2 L131.6,214.9 L134.3,219.2 L135.1,224.2 L133.8,229.2 L131.9,234.1 L128.4,237.2 L124.3,238.9 L120.4,239.4 L115.7,238.1 L111.1,237.7 L104.7,237.7 L99.8,237.8 L96.4,236.3 L93.3,232.0 L91.6,226.2 L90.9,220.7 L90.0,214.7 L87.4,210.3 L83.4,205.4 L80.4,202.2 L77.9,198.8 L75.4,195.2 Z" fill="#2f7825" stroke="none"/>
<path d="M312.8,692.0 L310.5,696.4 L308.3,700.8 L304.8,705.5 L300.9,710.1 L297.7,714.9 L296.1,718.6 L296.1,722.9 L296.7,726.7 L298.6,729.7 L301.3,731.8 L305.7,731.8 L310.6,729.8 L314.0,726.9 L317.6,724.0 L319.7,718.0 L321.8,712.6 L325.1,707.2 L327.9,702.6 L332.1,698.1 L336.4,692.8 L338.3,689.4 L341.0,682.6 L342.1,676.8 L341.1,669.2 L338.6,664.8 L335.2,661.5 L332.0,658.9 L328.7,657.4 L325.7,657.7 L322.0,658.8 L318.6,661.5 L317.1,664.2 L317.1,668.7 L317.0,674.0 L316.5,679.2 L315.7,683.6 L314.5,688.4 L312.8,692.0 Z" fill="#2f7825" stroke="none"/>
<path d="M232.8,708.7 L226.3,711.0 L221.0,715.8 L218.8,721.3 L217.7,727.6 L218.8,733.2 L221.2,738.6 L224.4,741.9 L229.4,744.0 L235.5,744.5 L242.0,742.3 L248.9,738.0 L255.5,732.3 L258.7,724.8 L260.9,718.5 L262.1,713.2 L263.0,708.1 L263.3,703.9 L261.6,701.1 L259.5,699.6 L255.0,699.6 L249.2,702.3 L243.4,704.9 L239.0,707.0 L232.8,708.7 Z" fill="#2f7825" stroke="none"/>
<path d="M43.0,-34.3 L39.3,-33.8 L35.7,-32.1 L33.1,-30.1 L31.4,-26.8 L29.3,-23.3 L27.2,-18.4 L25.8,-14.8 L24.6,-9.9 L23.3,-6.1 L21.0,-2.8 L17.5,2.1 L15.8,6.5 L15.0,10.6 L15.0,14.6 L15.4,17.6 L16.2,20.7 L18.2,24.4 L21.0,26.6 L24.5,27.9 L29.7,27.9 L34.1,26.4 L39.0,22.7 L45.0,16.5 L51.0,10.6 L55.4,4.3 L58.8,-1.1 L60.7,-5.7 L62.1,-10.1 L61.8,-15.7 L60.5,-20.8 L58.7,-25.3 L55.8,-28.8 L52.4,-31.2 L48.9,-33.2 L43.0,-34.3 Z" fill="#2f7825" stroke="none"/>
<path d="M151.9,-88.3 L144.8,-86.6 L142.8,-82.9 L141.4,-78.4 L142.1,-74.4 L145.2,-70.9 L149.0,-68.3 L155.3,-66.4 L161.9,-65.5 L168.8,-65.6 L174.7,-67.2 L179.2,-69.3 L182.0,-72.0 L184.2,-75.8 L185.8,-80.6 L186.9,-86.3 L186.9,-90.2 L185.3,-93.2 L182.7,-94.8 L178.9,-94.8 L171.7,-92.7 L165.8,-90.8 L159.6,-89.0 L151.9,-88.3 Z" fill="#2f7825" stroke="none"/>
<path d="M134.7,102.6 L321.3,553.1 L319.2,697.4" fill="none" stroke="#ffd64a" stroke-width="3.5" stroke-linecap="round" stroke-linejoin="round" opacity="0.95"/>
</svg>