<svg xmlns="http://www.w3.org/2000/svg" viewBox="0 0 800 600" preserveAspectRatio="xMidYMid slice">
<rect width="100%" height="100%" fill="#143018"/>
<path d="M196.5,245.9 L201.1,242.7 L207.6,240.6 L214.7,239.6 L221.8,240.5 L228.2,242.7 L234.3,246.9 L238.8,251.8 L242.6,255.0 L250.5,253.6 L253.3,249.6 L255.4,243.7 L255.4,237.8 L254.5,231.8 L250.9,228.1 L247.7,220.0 L246.0,210.9 L245.2,204.0 L242.4,198.1 L236.7,193.3 L229.0,189.7 L220.5,185.2 L213.3,178.9 L209.4,175.5 L201.3,175.3 L202.1,165.5 L202.1,152.1 L210.0,153.2 L218.5,154.4 L226.6,156.0 L233.5,157.3 L238.2,159.7 L242.4,162.5 L244.8,166.2 L247.9,167.4 L251.7,166.8 L254.1,164.5 L255.8,159.5 L256.4,152.8 L254.3,145.7 L251.1,141.1 L245.2,137.6 L236.7,133.0 L232.9,129.7 L224.4,125.1 L219.2,122.4 L220.6,119.5 L224.0,113.7 L228.2,108.3 L233.3,104.7 L239.3,104.6 L247.8,108.1 L255.0,110.9 L260.3,110.4 L265.0,107.2 L271.7,100.3 L280.9,89.9 L288.8,82.2 L312.9,61.0 L325.7,68.0 L340.0,76.4 L354.8,84.3 L365.2,88.7 L369.1,90.3 L378.9,95.6 L382.2,102.0 L380.2,131.9 L373.5,134.6 L359.2,140.5 L353.3,144.0 L350.1,150.7 L347.5,160.4 L345.6,179.0 L342.3,191.1 L336.9,200.8 L331.6,216.4 L329.3,231.2 L327.5,249.7 L326.5,270.4 L325.2,294.4 L325.5,299.5 L326.5,319.5 L327.5,337.9 L330.3,357.1 L333.4,373.7 L335.9,391.6 L336.4,405.2 L335.7,423.9 L334.9,441.8 L332.6,457.1 L328.0,471.7 L322.6,484.7 L316.0,500.9 L309.8,515.4 L307.5,530.0 L306.0,547.4 L305.0,570.2 L302.5,589.1 L300.1,599.9 L295.8,611.6 L291.7,622.9 L288.1,635.7 L288.3,645.5 L290.8,658.7 L292.2,678.0 L293.4,682.2 L296.9,691.9 L296.5,698.4 L292.8,717.4 L280.5,743.6 L271.3,757.8 L260.4,762.7 L247.8,762.6 L234.5,753.8 L231.1,742.5 L232.4,723.2 L236.0,715.8 L240.0,700.6 L240.4,706.3 L242.4,709.4 L246.4,709.0 L249.5,706.7 L252.9,702.9 L254.8,696.0 L256.0,687.9 L256.4,681.6 L259.6,678.8 L260.6,675.2 L261.4,668.9 L261.6,659.6 L261.4,653.5 L261.4,646.0 L261.6,637.7 L263.7,631.6 L265.5,626.2 L268.1,622.1 L269.3,615.0 L269.3,609.2 L266.7,599.7 L264.1,592.0 L259.6,584.1 L252.3,575.6 L244.2,569.3 L237.9,564.4 L232.7,554.5 L228.6,542.6 L226.8,530.6 L226.2,516.9 L225.6,498.5 L225.6,484.9 L226.0,473.8 L226.2,460.0 L226.8,449.8 L225.6,440.7 L224.6,432.4 L225.8,423.3 L228.0,411.4 L230.0,403.1 L232.5,394.0 L236.3,387.8 L239.8,381.1 L241.0,375.1 L242.0,370.4 L245.0,363.5 L247.3,357.0 L249.3,349.3 L250.5,342.7 L250.5,338.2 L248.3,334.0 L244.8,331.3 L241.4,330.5 L237.1,330.3 L232.1,332.0 L230.0,336.6 L229.4,345.3 L228.0,354.8 L226.2,363.9 L222.4,373.5 L215.7,381.6 L209.6,386.8 L206.8,393.7 L204.3,404.6 L202.1,413.5 L198.1,422.4 L194.8,430.5 L190.6,436.4 L186.5,442.6 L183.9,447.9 L181.1,455.6 L176.2,463.1 L167.7,475.5 L162.0,485.0 L158.2,492.5 L151.3,505.3 L140.2,520.8 L131.7,531.6 L124.4,540.9 L116.1,550.2 L109.6,557.9 L105.0,564.6 L96.9,583.7 L93.4,592.4 L88.8,599.0 L82.3,605.7 L70.6,611.2 L57.2,616.0 L47.1,621.3 L36.1,628.6 L30.5,633.7 L26.4,640.5 L23.8,649.0 L12.0,643.1 L-8.8,631.9 L-19.8,624.3 L-30.6,616.7 L-53.4,596.1 L-46.5,585.6 L-41.2,574.4 L-39.3,573.3 L-36.5,572.0 L-34.3,570.1 L-33.8,568.7 L-24.1,567.6 L-15.5,563.4 L-6.1,555.1 L0.5,547.0 L5.8,539.3 L13.4,525.9 L18.0,512.3 L23.9,497.6 L29.8,485.0 L37.1,473.3 L43.5,462.2 L51.6,443.9 L58.9,419.8 L65.2,398.0 L73.5,375.7 L79.0,360.3 L86.2,349.2 L95.8,339.8 L104.9,332.3 L112.2,327.4 L126.0,322.5 L139.9,316.8 L153.6,310.8 L163.7,303.7 L166.5,301.0 L174.1,293.6 L182.0,285.5 L186.4,278.3 L189.4,269.5 L192.1,259.8 L193.7,248.7 L196.5,245.9 Z" fill="#2b5a2a" stroke="none"/>
<path d="M-7.9,347.6 L-0.3,339.2 L5.0,328.5 L7.4,322.5 L11.8,319.5 L17.8,320.2 L20.9,323.2 L28.3,323.2 L41.6,320.6 L51.1,318.8 L56.9,313.0 L76.9,307.2 L98.5,299.0 L114.3,289.9 L127.4,281.6 L144.1,271.3 L153.9,259.7 L157.0,239.7 L157.9,226.0 L167.7,215.3 L171.6,191.1 L174.7,165.1 L175.6,148.4 L178.2,136.5 L186.3,125.3 L198.1,120.2 L208.1,119.5 L219.2,122.4 L220.6,119.5 L224.0,113.7 L228.2,108.3 L233.3,104.7 L239.3,104.6 L247.8,108.1 L255.0,110.9 L260.3,110.4 L265.0,107.2 L271.7,100.3 L280.9,89.9 L288.8,82.2 L312.9,61.0 L304.4,52.1 L299.1,42.6 L296.8,32.6 L296.3,22.1 L296.8,19.2 L301.1,11.1 L304.1,6.9 L308.9,2.7 L297.0,3.8 L303.1,-4.6 L310.7,-13.1 L308.0,-15.8 L303.5,-21.2 L293.7,-31.2 L283.0,-41.4 L271.1,-48.4 L260.9,-50.0 L245.8,-45.4 L234.2,-36.3 L222.3,-22.6 L214.4,-8.2 L205.6,11.6 L187.9,34.6 L177.0,43.5 L159.1,59.3 L138.2,74.1 L87.9,129.8 L74.4,142.4 L68.6,158.6 L60.7,179.6 L44.9,200.5 L34.0,213.3 L10.8,240.5 L-0.6,249.3 L-10.1,267.9 L-15.5,282.8 L-22.2,294.0 L-32.0,300.2 L-40.6,303.9 L-45.7,314.9 L-42.7,332.6 L-39.9,342.8 L-35.9,348.1 L-31.3,349.1 L-19.9,349.1 L-7.9,347.6 Z" fill="#2b5a2a" stroke="none"/>
<path d="M308.9,2.7 L306.3,8.5 L306.3,15.3 L306.9,26.4 L309.4,29.6 L314.9,28.5 L323.5,25.3 L333.2,22.7 L344.9,19.5 L358.7,17.6 L368.8,15.7 L374.8,12.9 L381.2,8.8 L385.5,4.1 L390.3,1.0 L398.7,-0.7 L407.9,-1.5 L414.2,-5.1 L419.7,-13.0 L424.2,-20.9 L425.1,-32.1 L424.5,-40.8 L426.9,-51.9 L433.3,-60.1 L436.3,-65.9 L442.9,-70.4 L454.0,-70.5 L465.6,-68.7 L476.0,-66.7 L485.9,-62.7 L493.1,-58.0 L497.4,-52.1 L502.1,-42.2 L503.4,-31.0 L505.0,-23.0 L510.6,-18.1 L525.6,-11.5 L551.0,-12.6 L574.2,-16.1 L584.8,-18.7 L591.4,-22.7 L598.0,-29.6 L600.1,-35.7 L598.5,-47.7 L596.3,-62.4 L598.1,-71.2 L596.9,-74.1 L591.3,-75.1 L582.5,-75.1 L560.9,-75.1 L539.5,-73.8 L522.4,-73.8 L506.9,-75.0 L497.2,-78.2 L489.8,-82.6 L484.5,-89.2 L481.3,-97.3 L480.2,-103.9 L483.8,-111.4 L490.2,-116.6 L496.8,-121.3 L501.0,-128.0 L502.5,-134.4 L504.4,-139.6 L509.3,-143.5 L517.6,-147.2 L527.2,-148.3 L533.9,-150.9 L537.5,-154.9 L538.0,-161.4 L543.2,-162.0 L557.2,-163.2 L568.2,-165.9 L575.4,-169.5 L583.9,-171.9 L590.3,-175.9 L593.1,-177.7 L603.8,-183.7 L620.8,-190.4 L614.6,-184.7 L613.0,-179.5 L614.3,-174.0 L619.6,-170.6 L626.0,-170.3 L633.8,-171.1 L646.1,-171.2 L656.2,-167.9 L662.6,-167.1 L673.1,-168.2 L686.0,-171.0 L693.2,-174.6 L702.7,-178.2 L711.7,-179.4 L721.3,-179.6 L729.6,-181.6 L743.9,-184.9 L754.8,-185.8 L766.4,-187.5 L775.6,-187.5 L784.7,-184.9 L790.9,-181.4 L792.6,-173.9 L791.9,-156.8 L790.7,-132.5 L789.3,-99.1 L789.0,-65.6 L788.1,-40.2 L787.4,-3.0 L787.2,10.6 L775.9,21.4 L760.3,34.7 L741.1,40.1 L714.0,45.4 L686.4,49.8 L663.3,52.4 L645.4,54.7 L625.0,57.5 L605.0,61.3 L585.8,63.1 L570.2,63.4 L554.6,65.1 L531.3,68.0 L510.1,69.8 L487.3,70.8 L465.3,70.3 L445.6,69.8 L437.7,69.8 L428.5,72.1 L406.6,78.8 L369.1,90.3 L365.2,88.7 L354.8,84.3 L340.0,76.4 L325.7,68.0 L312.9,61.0 L304.4,52.1 L299.1,42.6 L296.8,32.6 L296.3,22.1 L296.8,19.2 L301.1,11.1 L304.1,6.9 L308.9,2.7 Z" fill="#2b5a2a" stroke="none"/>
<path d="M598.2,406.8 L605.1,401.2 L611.7,397.3 L634.0,386.8 L647.4,379.7 L655.1,374.7 L657.8,373.6 L660.6,373.2 L665.2,373.9 L668.3,375.1 L671.4,376.9 L672.8,379.1 L673.2,381.8 L672.8,383.6 L670.5,387.2 L664.9,391.9 L654.4,397.5 L640.2,405.7 L621.7,417.5 L615.1,420.8 L608.1,423.4 L602.5,424.3 L599.8,423.7 L597.8,421.8 L596.2,419.5 L594.6,414.8 L594.8,412.2 L595.6,409.8 L598.2,406.8 Z" fill="#5a9540" stroke="none"/>
<path d="M557.2,368.8 L556.4,377.1 L559.3,384.4 L565.0,389.1 L573.3,390.5 L583.4,386.6 L593.4,379.8 L608.3,364.2 L628.9,344.0 L652.1,320.2 L676.5,296.2 L697.1,275.1 L715.5,256.6 L731.1,241.0 L743.0,229.7 L754.2,218.3 L764.7,206.8 L771.6,198.2 L775.0,191.3 L773.4,181.7 L769.5,174.5 L762.8,170.7 L756.0,170.7 L748.0,175.7 L734.5,188.7 L718.2,206.2 L695.8,229.3 L674.9,250.1 L657.3,267.0 L636.3,288.5 L614.5,311.9 L594.3,331.6 L575.3,349.5 L565.2,359.8 L557.2,368.8 Z" fill="#5a9540" stroke="none"/>
<path d="M380.1,347.8 L378.9,346.6 L377.8,345.0 L377.2,344.1 L376.5,343.7 L375.5,343.9 L374.9,345.1 L373.7,347.0 L371.5,348.0 L370.7,348.3 L370.6,349.4 L371.1,350.3 L372.8,351.0 L374.7,352.5 L375.5,354.6 L376.0,359.8 L375.7,362.0 L374.3,363.7 L371.1,364.3 L366.1,364.6 L364.2,365.1 L362.4,366.2 L360.9,366.4 L359.0,365.6 L357.6,364.4 L355.9,362.9 L355.0,360.9 L355.2,358.7 L355.7,357.1 L356.8,355.5 L358.8,354.4 L360.5,353.3 L360.6,352.1 L360.7,351.2 L360.3,350.2 L359.7,349.5 L358.4,349.7 L357.1,350.1 L355.4,350.5 L353.6,350.4 L352.5,350.3 L351.3,349.5 L350.5,347.7 L350.5,344.7 L351.5,341.2 L353.3,337.5 L354.3,335.5 L356.7,333.7 L358.1,332.2 L358.2,330.1 L359.0,328.6 L359.0,327.0 L358.4,325.1 L358.0,322.6 L357.2,320.5 L357.2,318.4 L357.9,316.5 L359.0,314.3 L360.7,313.3 L362.6,313.3 L364.6,314.1 L366.8,315.7 L369.0,316.3 L371.5,315.5 L372.7,314.3 L372.8,312.8 L371.0,311.9 L369.1,310.8 L367.4,309.0 L366.5,306.5 L366.3,304.5 L366.9,301.9 L368.0,300.0 L368.9,297.7 L369.1,295.2 L369.4,293.0 L370.3,292.2 L371.9,291.7 L373.2,291.8 L374.1,292.5 L374.4,294.0 L374.3,296.2 L374.9,297.5 L376.0,298.4 L377.8,298.1 L379.0,296.8 L379.5,294.8 L380.8,293.9 L381.9,293.1 L381.9,292.1 L381.1,290.9 L381.0,289.9 L381.4,288.9 L383.9,286.8 L386.5,284.0 L389.0,281.4 L391.1,278.7 L392.4,278.0 L393.6,277.9 L394.6,278.2 L395.8,279.1 L397.4,281.4 L399.0,283.7 L400.9,286.7 L402.0,287.9 L403.2,288.3 L404.2,287.8 L405.3,286.9 L405.4,285.6 L405.4,284.6 L405.2,283.7 L404.6,282.7 L403.4,282.3 L402.5,281.4 L402.4,279.8 L402.7,277.6 L403.6,275.8 L404.6,274.9 L405.7,274.6 L406.7,275.1 L407.5,276.3 L408.4,278.1 L408.4,280.9 L408.7,284.2 L410.1,287.1 L410.4,290.4 L409.2,294.7 L407.1,297.7 L403.8,298.6 L400.8,298.8 L398.6,297.7 L397.4,295.5 L397.5,292.9 L397.1,291.3 L396.3,289.8 L395.3,289.4 L394.2,289.6 L393.3,290.4 L392.8,291.2 L392.4,292.2 L392.0,293.4 L391.5,294.3 L389.9,295.8 L387.7,296.7 L386.2,297.1 L385.3,297.7 L384.8,298.4 L384.5,299.4 L384.9,300.6 L386.0,302.4 L386.8,303.6 L386.9,305.0 L386.8,306.8 L386.6,308.9 L386.9,310.7 L387.3,312.5 L387.8,314.8 L387.7,317.3 L386.9,319.7 L386.2,320.4 L385.2,320.8 L384.4,321.1 L383.5,320.7 L381.5,319.9 L378.6,320.3 L377.2,320.9 L376.0,322.6 L375.5,324.0 L375.2,325.5 L375.5,327.0 L376.0,327.8 L376.8,328.1 L378.2,327.8 L379.5,327.2 L380.8,326.9 L382.2,327.0 L383.9,328.0 L384.8,330.4 L385.0,333.3 L385.4,335.5 L385.3,337.5 L385.0,338.9 L385.2,340.5 L386.6,342.4 L387.0,344.0 L386.9,345.7 L384.3,349.0 L382.6,349.2 L380.1,347.8 Z" fill="#e7d6a3" stroke="none"/>
<path d="M358.0,56.0 L359.9,56.0 L361.6,57.1 L364.6,57.7 L367.6,58.0 L370.5,57.8 L371.7,58.1 L372.6,58.8 L373.8,60.9 L374.3,62.7 L373.9,65.1 L374.4,67.0 L375.2,70.5 L374.4,73.4 L372.5,75.6 L369.7,77.1 L367.5,77.1 L365.6,76.8 L364.1,75.8 L362.2,74.2 L360.9,74.2 L358.8,74.2 L356.4,73.8 L354.2,73.4 L352.5,71.9 L350.9,69.4 L351.1,67.2 L352.5,66.1 L353.8,66.8 L355.5,68.0 L357.5,67.9 L358.9,66.3 L359.2,64.6 L357.8,63.4 L354.7,63.7 L352.5,63.7 L351.2,63.0 L351.5,61.2 L353.0,59.1 L355.3,56.8 L358.0,56.0 Z" fill="#e7d6a3" stroke="none"/>
<path d="M427.2,289.6 L428.7,290.8 L430.4,292.1 L431.5,294.2 L433.1,296.7 L435.1,297.9 L438.0,300.0 L439.7,302.2 L441.1,304.5 L441.8,306.4 L441.8,308.3 L441.8,309.8 L442.3,311.6 L442.2,313.7 L441.9,315.2 L440.0,316.5 L436.9,316.9 L433.6,316.9 L430.9,316.3 L428.5,314.8 L427.1,312.5 L425.2,310.6 L423.9,309.4 L423.4,308.0 L424.3,306.8 L425.0,305.6 L425.1,304.2 L424.1,303.6 L421.8,303.9 L418.4,304.1 L416.0,303.9 L414.7,303.6 L413.9,302.2 L413.9,300.1 L414.9,298.3 L415.6,296.7 L416.3,295.2 L417.6,293.3 L418.3,291.0 L417.9,289.2 L417.0,287.9 L416.8,286.4 L417.6,284.8 L419.1,284.2 L420.6,284.1 L421.7,285.5 L423.3,287.0 L425.4,288.2 L427.2,289.6 Z" fill="#e7d6a3" stroke="none"/>
<path d="M565.5,303.4 L565.5,301.5 L567.2,300.2 L570.5,300.6 L571.7,303.9 L572.1,308.8 L571.5,311.3 L569.8,312.6 L567.3,313.0 L564.4,313.4 L563.4,314.9 L562.3,316.3 L560.1,316.4 L558.0,317.3 L555.8,316.9 L553.9,315.7 L553.0,313.8 L553.4,311.8 L554.4,309.1 L554.3,306.8 L553.9,305.0 L555.2,303.5 L556.3,301.8 L558.5,301.3 L559.8,301.0 L561.0,302.3 L561.0,303.7 L561.0,304.9 L561.4,306.0 L562.6,306.1 L564.6,304.7 L565.5,303.4 Z" fill="#e7d6a3" stroke="none"/>
<path d="M386.1,16.8 L384.7,18.4 L383.0,20.3 L380.8,21.8 L380.1,23.6 L380.1,25.7 L380.9,26.9 L382.2,28.2 L384.0,29.3 L385.8,29.8 L387.6,29.9 L389.0,29.6 L391.1,29.1 L391.5,28.1 L391.7,26.4 L391.9,25.2 L392.5,24.0 L393.6,23.2 L395.0,22.8 L396.9,22.5 L398.0,21.7 L398.8,19.8 L399.1,17.7 L398.6,15.5 L397.5,14.0 L396.2,13.4 L393.9,12.9 L391.8,12.9 L389.9,13.2 L388.4,13.9 L387.3,15.2 L386.1,16.8 Z" fill="#e7d6a3" stroke="none"/>
<path d="M394.9,56.7 L395.5,54.6 L396.1,52.1 L396.7,49.9 L397.4,48.1 L398.6,46.8 L400.4,46.0 L402.0,46.0 L404.1,46.2 L406.1,46.9 L407.2,48.2 L407.0,49.5 L405.8,50.8 L404.8,51.9 L404.9,52.9 L405.7,53.5 L407.3,53.4 L408.3,52.6 L409.6,51.9 L411.1,52.3 L412.2,53.8 L412.5,55.8 L411.8,58.4 L410.3,60.7 L409.8,61.6 L408.7,63.9 L407.6,65.7 L406.8,67.4 L405.9,68.5 L404.5,68.5 L403.6,67.8 L403.0,66.9 L401.9,66.3 L400.3,66.2 L398.9,66.6 L397.0,67.0 L395.3,67.1 L393.7,66.5 L392.2,65.7 L391.2,64.0 L390.8,62.0 L391.4,60.2 L392.1,59.0 L393.2,58.0 L394.2,57.4 L394.9,56.7 Z" fill="#e7d6a3" stroke="none"/>
<path d="M507.3,13.2 L505.4,12.7 L503.0,12.5 L501.1,12.8 L499.6,13.3 L498.3,14.7 L498.0,16.5 L498.1,19.2 L498.1,20.7 L498.1,22.2 L498.3,23.6 L498.9,24.8 L499.8,25.8 L501.0,26.6 L502.3,26.9 L504.1,26.7 L505.4,26.2 L506.5,25.6 L507.5,25.1 L508.7,25.4 L510.1,25.8 L510.9,25.7 L512.2,25.1 L513.9,24.3 L515.3,23.6 L516.6,23.2 L518.2,23.1 L520.3,23.4 L521.6,24.2 L522.3,25.8 L523.3,26.8 L524.4,27.4 L526.2,27.6 L527.8,27.1 L529.5,26.0 L531.5,24.6 L532.6,23.3 L533.5,22.2 L534.1,21.0 L534.3,19.6 L534.4,18.2 L533.8,16.3 L532.6,14.8 L530.8,13.8 L528.9,13.3 L526.7,13.1 L523.9,12.9 L521.8,12.8 L519.7,13.0 L517.3,13.4 L515.0,13.6 L513.1,13.9 L511.3,13.8 L509.6,13.7 L507.3,13.2 Z" fill="#e7d6a3" stroke="none"/>
<path d="M444.6,-21.0 L446.7,-20.4 L448.0,-21.2 L447.8,-23.0 L446.8,-24.2 L447.8,-25.8 L449.0,-26.8 L450.3,-27.0 L451.5,-26.1 L453.8,-26.1 L455.3,-24.2 L455.9,-21.7 L455.4,-19.6 L454.2,-17.9 L452.6,-16.1 L450.6,-15.2 L447.5,-15.4 L444.7,-14.1 L442.3,-12.9 L439.0,-13.5 L437.4,-14.5 L436.9,-16.4 L435.4,-18.9 L435.9,-21.9 L436.7,-24.2 L437.4,-25.6 L439.4,-26.0 L441.0,-26.5 L442.8,-26.3 L443.5,-25.5 L443.2,-23.9 L442.4,-22.3 L443.2,-21.3 L444.6,-21.0 Z" fill="#e7d6a3" stroke="none"/>
<path d="M188.2,340.4 L185.1,342.4 L183.1,344.5 L181.5,347.0 L179.9,350.0 L179.3,352.7 L179.6,355.1 L180.8,357.1 L182.9,358.6 L185.6,358.9 L188.4,357.6 L190.4,355.8 L194.0,354.1 L196.5,353.5 L198.6,354.1 L200.1,355.1 L199.1,357.6 L199.3,359.9 L200.2,362.8 L200.5,365.2 L202.5,366.9 L207.9,366.4 L212.6,363.8 L215.9,361.6 L217.9,360.0 L218.7,357.6 L215.4,355.8 L212.3,352.6 L209.6,351.0 L206.0,349.8 L201.9,348.0 L198.8,346.3 L195.8,343.4 L192.5,342.7 L190.7,341.3 L188.2,340.4 Z" fill="#e7d6a3" stroke="none"/>
<path d="M305.0,444.4 L301.8,442.7 L298.5,441.8 L295.4,442.0 L292.7,442.3 L290.4,442.0 L288.6,442.8 L287.2,444.5 L286.9,446.9 L287.3,449.0 L287.4,450.7 L286.3,452.0 L284.1,453.6 L284.4,455.6 L285.5,457.1 L287.8,455.9 L289.5,454.7 L291.4,454.3 L294.1,455.0 L297.9,456.4 L301.4,457.0 L303.7,456.3 L306.2,456.3 L309.6,457.7 L313.1,456.9 L315.6,455.6 L317.5,454.0 L318.6,451.3 L318.4,449.0 L316.5,447.8 L312.9,446.7 L309.6,445.9 L307.4,445.3 L305.0,444.4 Z" fill="#e7d6a3" stroke="none"/>
<path d="M258.5,368.4 L255.0,370.3 L253.0,371.9 L251.3,373.5 L250.4,375.6 L250.4,377.1 L251.6,378.8 L252.8,379.9 L254.8,381.4 L257.3,383.0 L258.9,385.4 L260.6,386.9 L262.7,387.6 L264.0,387.1 L265.5,386.4 L266.4,385.1 L267.2,383.8 L269.3,382.0 L271.4,380.9 L273.9,379.9 L274.8,379.6 L276.8,378.4 L278.2,376.0 L279.3,373.6 L279.7,372.2 L280.0,371.2 L279.2,367.9 L278.7,366.3 L276.8,365.3 L275.6,365.8 L274.3,366.3 L271.6,367.8 L268.9,369.5 L266.7,370.7 L264.3,372.3 L263.5,372.2 L262.5,370.6 L260.7,369.1 L258.5,368.4 Z" fill="#e7d6a3" stroke="none"/>
<path d="M257.6,195.4 L254.9,197.0 L253.2,199.0 L252.0,201.0 L252.2,203.7 L252.8,205.9 L253.1,206.9 L254.4,207.3 L254.7,209.2 L254.4,211.4 L254.0,213.1 L254.2,215.8 L254.3,217.9 L254.8,219.2 L255.1,221.1 L257.6,223.6 L259.7,223.9 L263.0,224.3 L265.4,225.5 L269.2,227.1 L271.4,226.9 L272.7,225.5 L272.7,223.2 L271.9,220.4 L271.2,217.8 L271.0,215.4 L269.2,213.5 L267.4,212.5 L265.6,211.3 L264.1,211.2 L262.6,212.5 L261.1,212.5 L260.4,211.4 L260.0,210.3 L261.1,209.4 L262.9,208.6 L263.7,207.1 L263.1,203.3 L262.8,200.1 L262.0,197.9 L261.4,196.1 L260.4,195.3 L257.6,195.4 Z" fill="#e7d6a3" stroke="none"/>
<path d="M309.3,190.8 L314.0,190.3 L318.3,190.7 L321.2,193.6 L323.2,196.2 L324.0,198.5 L323.3,201.2 L324.1,203.8 L322.9,206.8 L319.5,208.4 L316.3,208.4 L312.9,207.0 L310.7,205.5 L309.5,204.5 L309.2,202.9 L308.6,200.9 L306.7,200.2 L305.3,198.2 L305.1,195.7 L305.4,193.9 L307.1,191.9 L309.3,190.8 Z" fill="#e7d6a3" stroke="none"/>
<path d="M320.4,172.5 L317.0,169.9 L313.7,168.4 L310.4,167.9 L306.6,167.8 L303.9,168.7 L302.2,170.1 L301.2,171.9 L301.3,173.1 L301.3,173.6 L302.0,175.7 L303.0,177.5 L303.7,178.2 L305.7,178.2 L307.9,178.3 L308.7,179.9 L309.4,181.6 L310.2,183.7 L312.1,184.7 L315.3,184.5 L318.3,183.2 L320.2,181.5 L321.3,180.0 L322.4,177.5 L322.0,174.0 L320.4,172.5 Z" fill="#e7d6a3" stroke="none"/>
<path d="M274.1,159.3 L277.4,158.3 L279.2,157.7 L282.4,157.7 L284.9,156.8 L287.0,154.7 L288.9,153.1 L289.0,151.1 L288.6,149.5 L287.8,147.8 L286.3,146.8 L284.8,146.3 L282.6,148.2 L280.6,149.2 L279.5,148.3 L279.1,147.1 L279.5,146.1 L281.2,145.6 L282.0,144.7 L281.6,142.9 L279.9,141.6 L277.3,141.1 L274.8,141.1 L273.2,142.1 L272.3,143.6 L273.8,145.2 L273.1,146.6 L271.1,147.8 L269.4,149.5 L267.7,151.0 L266.7,153.0 L266.5,155.0 L266.9,157.1 L268.7,158.4 L271.5,159.4 L274.1,159.3 Z" fill="#e7d6a3" stroke="none"/>
<path d="M453.6,378.9 L450.8,379.7 L449.3,381.7 L448.0,384.4 L446.9,386.8 L444.6,390.0 L444.0,392.8 L444.2,396.1 L445.6,399.8 L449.4,402.1 L454.8,400.0 L458.8,397.7 L461.7,395.7 L464.2,394.2 L467.4,392.4 L469.5,388.8 L470.7,385.9 L471.6,383.3 L470.7,380.0 L469.9,378.5 L467.7,376.7 L464.1,376.7 L461.1,377.8 L458.6,379.2 L455.9,379.0 L453.6,378.9 Z" fill="#e7d6a3" stroke="none"/>
<path d="M420.8,469.6 L419.1,469.4 L417.2,470.4 L416.2,472.4 L416.1,474.8 L417.1,477.2 L419.6,479.8 L422.2,482.1 L424.5,483.5 L427.0,484.5 L429.2,484.5 L430.4,483.4 L430.9,481.8 L430.7,480.1 L430.1,478.6 L429.2,477.4 L427.7,476.9 L426.0,476.7 L424.8,476.0 L423.9,475.3 L423.0,473.9 L422.3,472.1 L421.8,470.6 L420.8,469.6 Z" fill="#e7d6a3" stroke="none"/>
<path d="M435.6,474.1 L434.6,475.3 L433.4,476.3 L432.8,477.4 L433.4,478.7 L434.6,479.8 L436.5,480.2 L438.4,479.7 L440.5,478.1 L442.6,475.9 L444.2,474.1 L445.6,472.1 L446.1,470.4 L447.0,468.2 L447.8,466.7 L449.1,464.9 L450.3,462.9 L450.6,461.1 L450.0,459.4 L449.1,458.2 L447.5,457.5 L445.8,457.5 L444.3,458.9 L443.1,461.0 L441.9,462.9 L441.2,464.7 L440.5,466.8 L439.7,468.4 L438.7,470.2 L437.5,471.9 L435.6,474.1 Z" fill="#e7d6a3" stroke="none"/>
<path d="M426.6,427.8 L424.4,428.8 L423.1,431.2 L423.3,433.2 L424.4,435.6 L425.6,438.3 L426.2,440.9 L425.9,443.1 L425.1,445.5 L424.2,447.7 L423.1,450.4 L421.5,452.5 L420.5,454.5 L418.2,456.9 L417.4,459.6 L416.8,462.2 L416.7,464.5 L417.6,465.8 L419.1,466.4 L421.0,466.4 L422.4,465.6 L423.1,463.8 L424.1,462.0 L426.0,459.9 L428.3,457.7 L429.5,455.2 L429.8,453.1 L430.3,450.8 L431.0,448.8 L432.0,446.9 L432.8,444.6 L433.4,442.0 L433.6,438.4 L433.1,435.2 L433.2,432.6 L433.3,430.6 L431.9,428.8 L430.7,427.5 L428.1,427.3 L426.6,427.8 Z" fill="#e7d6a3" stroke="none"/>
<path d="M388.4,450.4 L391.3,449.1 L393.8,447.7 L395.0,445.8 L395.2,443.8 L399.3,442.9 L403.0,442.6 L405.4,442.6 L407.3,441.2 L407.5,439.3 L406.4,436.4 L406.1,433.7 L405.8,431.7 L405.1,429.7 L404.0,429.7 L403.2,430.9 L402.7,432.0 L401.0,432.0 L400.3,431.0 L400.1,429.4 L401.0,427.2 L402.4,424.6 L404.1,420.8 L406.0,417.1 L406.2,414.1 L405.8,410.5 L404.3,409.2 L402.0,408.3 L398.1,409.7 L395.4,412.1 L393.2,414.8 L392.6,417.2 L392.6,419.5 L393.4,421.6 L391.3,422.0 L389.5,422.5 L387.2,424.1 L385.8,426.4 L385.0,429.1 L386.3,432.0 L387.4,434.1 L388.6,435.2 L390.0,436.5 L389.4,438.5 L388.1,440.2 L385.9,440.8 L384.5,442.0 L383.9,443.6 L384.7,446.2 L385.7,448.3 L387.0,449.3 L388.4,450.4 Z" fill="#e7d6a3" stroke="none"/>
<path d="M754.4,308.5 L751.8,309.0 L749.3,311.5 L747.9,314.7 L748.3,317.7 L749.6,320.5 L751.8,323.0 L754.7,324.6 L758.4,325.3 L760.7,324.9 L763.8,323.2 L766.3,322.4 L769.8,321.3 L772.9,319.5 L773.8,316.9 L774.5,313.7 L774.6,311.3 L774.0,308.2 L772.3,307.0 L769.8,306.2 L767.9,306.3 L766.0,307.1 L764.8,308.4 L764.7,311.0 L762.7,312.3 L760.0,313.0 L758.6,313.5 L757.6,313.0 L757.6,311.1 L757.1,309.8 L755.8,309.0 L754.4,308.5 Z" fill="#e7d6a3" stroke="none"/>
<path d="M367.7,685.7 L367.2,687.9 L367.1,690.1 L367.9,692.9 L369.7,694.5 L372.2,695.1 L374.9,694.5 L376.9,692.0 L378.8,689.2 L380.2,687.0 L380.9,684.9 L381.0,683.2 L379.7,681.2 L379.4,679.7 L380.4,677.4 L381.7,674.0 L382.8,671.0 L383.0,668.5 L382.4,666.0 L381.4,663.5 L378.8,662.7 L376.8,663.5 L374.5,664.7 L372.7,666.7 L372.2,669.2 L372.5,671.7 L372.7,675.5 L371.7,678.9 L370.3,681.1 L369.3,683.2 L367.7,685.7 Z" fill="#e7d6a3" stroke="none"/>
<path d="M205.0,98.6 L206.0,97.5 L208.0,97.4 L209.6,98.8 L210.4,101.2 L210.7,103.9 L209.8,105.3 L207.9,105.5 L206.5,104.9 L206.1,103.5 L205.7,101.6 L205.0,98.6 Z" fill="#e7d6a3" stroke="none"/>
<path d="M189.4,86.1 L191.2,85.2 L192.7,85.0 L194.6,85.8 L195.3,86.4 L195.3,87.6 L194.8,89.5 L194.4,91.9 L194.7,93.3 L195.7,93.9 L196.9,92.7 L197.6,91.2 L199.2,90.8 L200.3,90.1 L202.4,90.0 L203.8,90.6 L204.1,93.4 L203.6,95.0 L204.0,96.5 L203.2,98.6 L204.0,100.9 L204.2,103.2 L203.5,106.0 L201.7,107.1 L199.9,106.4 L198.6,105.9 L197.5,104.3 L196.6,102.9 L195.3,102.2 L194.0,102.9 L193.0,103.2 L191.9,104.2 L191.5,105.2 L189.8,105.8 L188.6,105.8 L188.0,104.5 L186.7,102.2 L185.7,101.1 L184.8,99.9 L184.5,99.0 L184.7,97.8 L185.1,96.8 L185.8,95.8 L186.0,94.5 L186.0,93.6 L187.0,92.8 L188.0,92.3 L189.0,91.5 L189.2,90.5 L188.4,89.0 L188.5,87.5 L189.4,86.1 Z" fill="#e7d6a3" stroke="none"/>
<path d="M223.5,74.7 L221.7,73.3 L219.9,73.8 L218.2,75.0 L216.8,76.8 L215.6,78.4 L215.6,80.3 L216.2,82.5 L217.2,83.7 L218.7,84.9 L220.8,85.3 L222.7,84.8 L224.4,84.8 L225.9,85.1 L227.8,86.1 L228.8,85.1 L229.1,83.9 L230.0,82.5 L231.9,81.6 L232.6,80.7 L233.1,79.5 L232.8,77.9 L232.1,76.5 L230.7,75.3 L229.1,74.5 L227.3,73.8 L225.5,73.6 L224.6,74.9 L223.5,74.7 Z" fill="#e7d6a3" stroke="none"/>
<path d="M371.1,143.8 L373.3,150.0 L375.4,156.2 L379.3,154.9 L383.2,153.5 L381.1,147.4 L379.1,141.3 L375.2,142.5 L371.1,143.8 Z" fill="#4f8a3e" stroke="none"/>
<path d="M347.8,104.8 L356.6,128.5 L368.8,124.0 L360.0,100.3 L347.8,104.8 Z" fill="#4f8a3e" stroke="none"/>
<path d="M429.1,-129.0 L432.4,-130.7 L435.0,-130.7 L437.2,-128.3 L437.9,-124.3 L436.3,-117.8 L433.6,-111.8 L429.8,-106.5 L426.7,-103.0 L423.0,-99.7 L419.4,-98.3 L416.0,-99.0 L414.1,-100.6 L413.8,-103.8 L414.8,-107.8 L417.5,-112.0 L420.1,-116.3 L422.9,-120.8 L425.7,-125.2 L429.1,-129.0 Z" fill="#4f8a3e" stroke="none"/>
<path d="M383.4,-81.6 L384.9,-80.6 L385.3,-77.3 L385.7,-75.0 L386.3,-71.8 L385.3,-68.7 L384.1,-65.1 L382.1,-60.5 L381.6,-57.1 L379.5,-54.3 L376.9,-52.1 L374.5,-50.4 L371.0,-48.1 L368.2,-48.2 L365.4,-49.1 L363.0,-49.7 L365.2,-54.8 L366.4,-58.7 L368.7,-64.3 L370.3,-68.6 L371.1,-70.5 L372.5,-72.4 L375.4,-76.0 L378.2,-79.3 L381.0,-80.7 L383.4,-81.6 Z" fill="#4f8a3e" stroke="none"/>
<path d="M265.8,670.5 L278.3,671.0 L277.2,697.4 L264.7,696.9 L265.8,670.5 Z" fill="#4f8a3e" stroke="none"/>
<path d="M265.8,665.7 L278.5,666.4 L279.8,643.9 L267.1,643.1 L265.8,665.7 Z" fill="#4f8a3e" stroke="none"/>
<path d="M321.6,86.4 L324.1,92.7 L327.0,100.2 L332.9,98.0 L338.8,95.7 L335.9,87.7 L332.9,79.8 L325.9,76.5 L319.0,73.2 L313.5,74.9 L315.8,81.2 L318.2,87.5 L321.6,86.4 Z" fill="#4f8a3e" stroke="none"/>
<path d="M439.3,501.1 L447.0,508.7 L435.2,520.7 L427.5,513.1 L439.3,501.1 Z" fill="#4f8a3e" stroke="none"/>
<path d="M418.6,89.3 L411.3,139.7 L431.2,157.5 L456.0,189.2 L476.0,226.1 L504.6,273.4 L527.6,309.5 L535.9,285.6 L528.1,263.3 L489.3,198.4 L475.0,168.6 L465.1,133.6 L462.2,92.4 L418.6,89.3 Z" fill="#4f8a3e" stroke="none"/>
<path d="M228.1,159.6 L239.7,163.7 L235.3,176.2 L223.7,172.1 L228.1,159.6 Z" fill="#4f8a3e" stroke="none"/>
<path d="M238.9,113.1 L234.6,122.1 L259.6,134.0 L263.9,125.0 L238.9,113.1 Z" fill="#4f8a3e" stroke="none"/>
<path d="M265.9,75.6 L271.2,77.5 L264.2,96.9 L258.9,95.0 L265.9,75.6 Z" fill="#4f8a3e" stroke="none"/>
<path d="M495.5,444.2 L503.4,452.1 L528.4,427.4 L520.5,419.5 L495.5,444.2 Z" fill="#4f8a3e" stroke="none"/>
<path d="M553.6,407.9 L560.0,414.0 L568.8,404.7 L562.4,398.6 L553.6,407.9 Z" fill="#4f8a3e" stroke="none"/>
<path d="M766.8,386.7 L773.1,399.2 L780.8,392.6 L786.2,385.3 L792.1,375.8 L800.0,363.7 L795.0,356.1 L777.5,367.3 L782.6,375.7 L766.8,386.7 Z" fill="#4f8a3e" stroke="none"/>
<path d="M718.2,410.8 L724.2,421.8 L740.1,413.1 L734.1,402.2 L718.2,410.8 Z" fill="#4f8a3e" stroke="none"/>
<path d="M668.5,408.4 L674.5,416.4 L693.6,402.0 L687.7,394.1 L668.5,408.4 Z" fill="#4f8a3e" stroke="none"/>
<path d="M642.6,427.8 L646.1,432.6 L656.9,424.7 L653.3,419.9 L642.6,427.8 Z" fill="#4f8a3e" stroke="none"/>
<path d="M227.0,599.2 L242.5,611.6 L224.2,634.3 L208.8,621.9 L227.0,599.2 Z" fill="#4f8a3e" stroke="none"/>
<path d="M214.1,631.4 L199.2,646.8 L219.0,665.9 L233.9,650.5 L214.1,631.4 Z" fill="#4f8a3e" stroke="none"/>
<path d="M577.1,274.3 L577.4,270.6 L577.1,267.0 L575.1,263.0 L572.4,259.8 L570.1,258.3 L567.3,257.3 L563.2,257.2 L559.3,257.8 L555.5,259.8 L552.2,262.2 L549.8,265.0 L549.0,267.1 L548.9,269.2 L549.8,272.2 L550.6,275.5 L550.8,279.6 L550.0,282.8 L548.5,284.7 L547.5,286.7 L547.1,289.4 L547.7,292.2 L548.9,294.3 L550.8,296.0 L555.0,297.6 L559.3,297.3 L563.7,296.4 L567.5,294.8 L570.0,292.9 L571.8,290.6 L573.4,286.3 L575.0,282.5 L576.4,278.0 L577.1,274.3 Z" fill="#2f7825" stroke="none"/>
<path d="M345.4,36.0 L342.1,37.0 L339.3,38.3 L337.4,39.3 L335.7,40.7 L334.5,42.1 L333.8,43.6 L332.9,45.9 L332.7,47.3 L333.2,49.0 L333.8,50.4 L335.8,52.0 L337.1,52.5 L342.1,52.2 L347.2,51.8 L351.9,51.4 L356.7,51.7 L362.4,51.9 L367.2,52.5 L370.9,51.6 L373.4,50.2 L375.5,48.0 L376.7,46.0 L377.2,43.1 L377.0,41.1 L375.7,38.8 L372.9,37.0 L369.0,36.4 L364.6,35.4 L359.3,34.9 L355.6,34.8 L351.6,35.1 L348.7,35.5 L345.4,36.0 Z" fill="#2f7825" stroke="none"/>
<path d="M437.7,-47.3 L435.5,-43.8 L434.0,-40.3 L432.8,-37.2 L432.5,-33.3 L434.3,-30.6 L436.5,-29.4 L439.8,-29.4 L444.1,-30.0 L448.4,-30.0 L453.1,-29.4 L456.5,-28.1 L460.5,-25.7 L463.2,-24.5 L466.6,-25.3 L468.9,-27.5 L470.1,-29.8 L470.5,-31.7 L469.9,-34.3 L468.2,-36.5 L466.0,-39.3 L464.5,-41.4 L462.8,-44.2 L461.5,-46.5 L458.8,-48.7 L454.8,-50.3 L450.2,-51.2 L445.7,-52.1 L442.3,-52.1 L440.1,-51.2 L438.8,-49.1 L437.7,-47.3 Z" fill="#2f7825" stroke="none"/>
<path d="M285.3,139.2 L284.1,136.4 L283.6,132.8 L283.0,129.3 L283.0,126.3 L284.0,123.0 L285.1,120.5 L286.4,117.9 L288.8,115.3 L291.3,114.1 L293.5,114.0 L296.3,115.1 L298.4,117.8 L300.7,121.4 L302.2,125.8 L303.2,129.6 L304.6,133.9 L306.5,137.4 L308.5,140.8 L311.0,144.2 L313.7,146.9 L317.2,149.2 L320.6,151.5 L322.2,154.2 L322.7,157.3 L321.9,160.5 L320.7,163.5 L318.6,165.5 L316.0,166.5 L313.5,166.9 L310.6,166.1 L307.7,165.8 L303.7,165.8 L300.6,165.9 L298.5,164.9 L296.5,162.2 L295.5,158.6 L295.1,155.1 L294.5,151.4 L292.9,148.7 L290.3,145.6 L288.5,143.6 L286.9,141.4 L285.3,139.2 Z" fill="#2f7825" stroke="none"/>
<path d="M434.1,450.4 L432.7,453.2 L431.2,455.9 L429.1,458.9 L426.6,461.8 L424.6,464.8 L423.6,467.1 L423.6,469.8 L424.0,472.1 L425.2,474.0 L426.9,475.4 L429.6,475.4 L432.7,474.1 L434.8,472.3 L437.1,470.5 L438.4,466.7 L439.7,463.3 L441.8,460.0 L443.5,457.1 L446.2,454.3 L448.9,451.0 L450.1,448.8 L451.8,444.6 L452.4,440.9 L451.8,436.1 L450.2,433.4 L448.1,431.3 L446.1,429.7 L444.0,428.8 L442.1,429.0 L439.8,429.6 L437.7,431.3 L436.7,433.0 L436.7,435.8 L436.7,439.2 L436.4,442.4 L435.9,445.2 L435.1,448.2 L434.1,450.4 Z" fill="#2f7825" stroke="none"/>
<path d="M384.0,460.9 L379.9,462.3 L376.5,465.3 L375.2,468.8 L374.5,472.7 L375.2,476.2 L376.7,479.6 L378.7,481.7 L381.8,483.0 L385.7,483.3 L389.7,481.9 L394.0,479.2 L398.2,475.7 L400.2,471.0 L401.6,467.0 L402.3,463.7 L402.9,460.5 L403.0,457.9 L402.0,456.1 L400.7,455.2 L397.9,455.2 L394.2,456.9 L390.6,458.5 L387.8,459.8 L384.0,460.9 Z" fill="#2f7825" stroke="none"/>
<path d="M737.8,327.3 L735.8,330.6 L734.0,333.9 L733.1,337.4 L732.0,341.0 L730.5,343.6 L728.7,347.3 L728.0,351.9 L729.1,355.2 L730.8,358.4 L733.1,361.2 L736.3,363.0 L740.2,363.5 L744.8,362.3 L748.4,360.2 L752.2,356.7 L755.0,353.9 L757.7,351.6 L762.0,349.5 L766.0,347.7 L768.7,346.9 L769.7,345.5 L770.9,340.9 L772.4,336.2 L772.6,332.0 L771.8,329.0 L770.2,327.2 L768.5,326.7 L766.0,326.5 L764.1,327.3 L761.1,328.3 L757.8,329.0 L755.5,328.7 L753.2,328.0 L750.7,326.6 L748.0,325.3 L745.7,324.5 L742.7,324.7 L740.1,325.8 L737.8,327.3 Z" fill="#2f7825" stroke="none"/>
<path d="M265.1,-4.6 L262.7,-4.3 L260.5,-3.2 L258.8,-2.0 L257.8,0.1 L256.4,2.3 L255.1,5.4 L254.2,7.6 L253.5,10.7 L252.7,13.1 L251.2,15.1 L249.0,18.2 L248.0,21.0 L247.5,23.5 L247.5,26.1 L247.8,27.9 L248.3,29.9 L249.5,32.2 L251.2,33.5 L253.5,34.4 L256.7,34.3 L259.4,33.4 L262.5,31.1 L266.3,27.2 L270.0,23.5 L272.8,19.6 L274.9,16.2 L276.1,13.3 L277.0,10.6 L276.8,7.0 L276.0,3.9 L274.9,1.0 L273.0,-1.1 L270.9,-2.6 L268.7,-3.9 L265.1,-4.6 Z" fill="#2f7825" stroke="none"/>
<path d="M273.7,-89.1 L270.1,-91.0 L267.8,-93.6 L265.1,-95.6 L261.6,-96.8 L258.0,-95.3 L256.0,-93.6 L255.6,-89.9 L256.9,-85.6 L258.0,-81.3 L262.0,-78.3 L267.4,-76.8 L274.1,-74.7 L278.8,-73.1 L283.4,-70.6 L289.1,-69.2 L292.6,-70.2 L294.2,-72.5 L294.8,-75.0 L293.6,-78.1 L291.5,-80.1 L288.6,-81.4 L285.8,-82.8 L283.7,-84.8 L282.2,-86.4 L280.7,-87.3 L277.4,-87.9 L273.7,-89.1 Z" fill="#2f7825" stroke="none"/>
<path d="M305.4,-61.3 L301.7,-59.4 L298.3,-55.7 L297.0,-51.8 L298.0,-46.9 L300.4,-41.7 L302.7,-38.3 L306.5,-35.7 L310.7,-33.7 L313.9,-33.4 L316.8,-34.3 L319.5,-36.3 L320.7,-39.0 L320.7,-42.5 L318.2,-46.2 L315.5,-50.2 L313.7,-54.3 L311.3,-57.4 L309.9,-59.6 L309.1,-60.4 L305.4,-61.3 Z" fill="#2f7825" stroke="none"/>
<path d="M333.3,-38.4 L328.8,-37.3 L327.6,-35.0 L326.7,-32.2 L327.1,-29.7 L329.0,-27.5 L331.4,-25.9 L335.4,-24.7 L339.5,-24.2 L343.8,-24.2 L347.5,-25.2 L350.4,-26.5 L352.1,-28.2 L353.5,-30.6 L354.5,-33.6 L355.2,-37.2 L355.2,-39.6 L354.2,-41.5 L352.6,-42.5 L350.2,-42.5 L345.7,-41.2 L342.0,-40.0 L338.1,-38.9 L333.3,-38.4 Z" fill="#2f7825" stroke="none"/>
<path d="M322.5,81.2 L439.4,363.4 L438.1,453.8" fill="none" stroke="#ffd64a" stroke-width="5" stroke-linecap="round" stroke-linejoin="round" opacity="0.95"/>
</svg>