<svg xmlns="http://www.w3.org/2000/svg" viewBox="0 0 800 600" preserveAspectRatio="xMidYMid slice">
<rect width="100%" height="100%" fill="#143018"/>
<path d="M258.4,367.2 L274.8,363.4 L284.0,356.5 L283.8,346.7 L276.4,299.7 L343.2,234.5 L382.0,162.6 L414.9,83.2 L453.5,-58.8 L463.1,-94.0 L507.9,-271.8 L440.7,-360.5 L395.5,-304.4 L421.2,-273.9 L434.6,-256.5 L439.2,-242.4 L398.5,-114.5 L311.1,160.5 L234.4,171.5 L167.6,40.6 L112.6,-72.2 L99.2,-95.1 L-4.5,-181.5 L-18.4,-189.2 L-54.3,-206.3 L-71.7,-147.2 L-126.2,38.3 L-266.3,61.9 L-285.4,40.2 L-293.6,30.9 L-300.8,65.6 L-311.9,119.6 L-313.9,170.3 L-306.3,241.2 L-260.3,230.1 L-283.4,183.9 L-287.4,164.3 L-291.4,140.1 L-283.9,110.8 L-277.2,102.9 L-264.6,89.0 L-260.6,84.4 L-245.6,77.6 L-222.4,71.8 L-164.6,64.1 L-123.5,58.7 L-97.0,52.8 L-97.4,42.2 L-90.8,29.4 L-101.4,21.6 L-63.4,-106.9 L-21.2,-128.0 L12.6,-106.2 L49.6,-83.5 L78.2,-59.9 L74.9,-40.6 L66.2,-24.0 L61.8,-15.3 L70.5,-13.4 L77.2,-9.0 L91.0,-7.4 L103.6,-24.0 L117.8,8.0 L161.8,96.2 L194.5,170.3 L237.4,261.4 L239.7,277.3 L241.1,295.2 L258.4,367.2 Z" fill="#0f2810" stroke="none"/>
<path d="M208.3,743.2 L205.4,737.7 L213.4,731.2 L218.9,725.1 L226.4,719.0 L234.1,715.4 L243.4,711.5 L252.6,706.6 L259.6,702.3 L264.5,698.8 L271.4,693.1 L275.9,689.1 L280.4,684.4 L283.9,680.2 L288.9,676.1 L293.9,673.5 L297.3,672.3 L300.3,670.5 L305.3,666.5 L309.6,663.6 L314.2,661.8 L328.8,647.6 L340.1,664.4 L338.3,667.5 L337.2,672.5 L339.3,676.5 L337.6,682.1 L333.6,691.0 L332.3,693.8 L330.2,699.4 L326.8,704.6 L325.6,708.5 L306.2,718.2 L300.1,716.8 L294.8,717.5 L286.1,719.0 L280.6,722.5 L274.5,725.6 L267.9,727.6 L259.8,730.2 L253.6,732.8 L248.5,735.6 L242.1,740.3 L237.2,744.6 L232.6,747.5 L228.7,748.3 L224.9,748.0 L221.8,746.0 L217.3,743.9 L215.3,742.2 L211.9,741.7 L208.3,743.2 Z" fill="#2b5a2a" stroke="none"/>
<path d="M381.8,809.4 L373.9,805.0 L368.2,798.6 L362.7,792.8 L359.1,784.2 L358.0,774.0 L360.4,767.1 L363.8,763.2 L366.4,757.9 L369.9,754.5 L373.1,750.8 L377.9,748.8 L381.3,742.2 L388.1,736.8 L393.9,735.5 L403.1,730.9 L410.9,726.0 L416.2,721.8 L428.6,716.3 L437.7,714.0 L453.2,707.4 L466.4,700.8 L482.2,690.8 L493.7,683.3 L507.8,680.8 L515.8,678.7 L527.6,673.3 L539.3,668.5 L562.5,658.5 L572.9,652.7 L581.1,645.2 L587.7,637.7 L593.0,627.5 L599.2,615.6 L604.8,610.6 L609.9,604.5 L621.2,590.7 L624.0,577.6 L634.5,549.9 L642.9,527.7 L633.0,520.1 L622.9,527.3 L613.4,534.3 L605.2,541.6 L599.0,546.3 L594.6,547.0 L590.8,544.9 L586.0,544.5 L580.9,546.1 L573.3,551.2 L565.2,556.5 L558.7,560.2 L551.4,564.2 L546.3,568.0 L542.8,572.9 L541.5,578.2 L538.6,582.6 L534.4,585.9 L524.0,593.6 L514.5,597.7 L501.0,603.2 L493.2,608.3 L488.6,614.9 L483.7,623.5 L479.5,630.6 L470.0,642.5 L459.1,651.6 L449.6,658.3 L439.9,664.9 L429.1,670.4 L421.7,673.8 L409.1,676.9 L398.9,678.4 L388.1,682.6 L381.2,688.1 L375.5,692.3 L362.2,698.5 L343.2,705.6 L335.6,710.3 L329.5,710.7 L325.6,708.5 L306.2,718.2 L305.0,723.8 L301.3,728.0 L294.3,733.9 L286.8,740.4 L281.4,744.8 L277.2,750.3 L275.5,756.7 L275.5,764.5 L275.4,770.7 L278.1,777.6 L283.7,784.8 L285.0,791.0 L285.0,796.1 L287.8,800.8 L289.2,806.7 L290.9,811.4 L297.6,816.5 L303.4,822.3 L306.4,825.4 L335.8,833.6 L381.8,809.4 Z" fill="#2b5a2a" stroke="none"/>
<path d="M580.0,310.8 L577.2,313.4 L575.4,318.9 L580.5,323.1 L583.9,329.1 L587.9,332.9 L593.4,338.4 L600.3,344.3 L604.3,348.8 L610.1,354.8 L615.7,360.6 L619.2,364.4 L624.2,368.0 L625.7,372.0 L635.5,371.1 L634.9,369.1 L634.6,366.9 L635.2,365.7 L637.0,364.6 L639.1,364.9 L640.6,365.5 L643.0,366.3 L645.2,368.0 L650.5,356.8 L648.2,353.9 L647.8,351.8 L646.4,349.8 L645.8,348.4 L645.6,347.4 L646.9,346.7 L646.2,344.1 L640.1,344.5 L636.4,344.9 L632.9,344.9 L625.7,344.2 L620.7,341.8 L613.5,338.4 L608.0,335.1 L601.0,330.1 L595.6,326.0 L589.6,320.7 L585.8,316.6 L580.0,310.8 Z" fill="#2b5a2a" stroke="none"/>
<path d="M718.4,437.5 L715.6,432.8 L713.5,429.9 L711.2,426.8 L709.4,425.4 L708.0,422.8 L707.7,420.1 L707.0,418.6 L706.2,415.3 L711.4,413.6 L713.1,412.6 L718.1,410.3 L727.6,406.6 L736.2,403.0 L746.3,412.2 L742.8,414.8 L741.6,417.6 L742.4,420.2 L737.5,416.7 L727.5,426.3 L719.9,435.0 L718.4,437.5 Z" fill="#2b5a2a" stroke="none"/>
<path d="M811.3,-3.1 L812.4,-17.2 L809.3,-16.4 L805.2,-18.1 L802.1,-18.3 L797.8,-14.8 L796.3,-11.4 L797.4,-6.8 L799.0,-2.5 L794.9,0.2 L785.6,5.6 L778.8,8.5 L771.7,14.2 L766.3,17.3 L757.1,19.3 L749.8,19.0 L742.6,17.8 L735.0,17.9 L726.9,19.3 L720.6,20.3 L712.2,17.7 L705.7,13.7 L699.8,12.4 L692.0,13.7 L681.4,17.5 L671.8,23.3 L665.7,27.7 L659.3,33.7 L655.2,39.4 L650.0,51.4 L646.7,59.0 L643.2,66.3 L642.4,70.2 L641.5,75.6 L642.2,80.8 L643.8,86.4 L643.8,91.4 L640.0,100.8 L634.2,105.4 L629.5,110.4 L627.0,114.6 L621.2,122.3 L611.8,130.6 L602.4,137.0 L593.4,140.4 L586.5,144.4 L580.9,150.0 L576.9,155.6 L573.8,162.3 L570.8,168.5 L566.9,171.1 L561.1,175.4 L559.4,177.6 L545.6,183.6 L535.9,186.1 L532.0,188.1 L526.2,193.2 L512.1,208.5 L508.0,211.9 L501.8,216.6 L496.4,221.4 L497.1,225.5 L499.7,230.0 L499.3,235.8 L497.1,240.1 L496.2,247.0 L496.5,252.7 L498.0,257.9 L500.8,262.0 L503.3,266.5 L508.0,272.9 L513.3,276.5 L517.4,277.6 L523.9,279.2 L527.6,279.5 L535.4,276.5 L539.9,271.4 L547.9,262.9 L551.8,258.6 L561.9,247.2 L573.4,235.5 L578.6,231.4 L582.5,222.3 L587.1,214.7 L595.7,208.0 L603.8,203.7 L612.8,201.5 L617.1,199.5 L622.6,195.2 L633.5,186.9 L643.2,179.3 L650.3,172.6 L658.0,165.3 L664.4,158.0 L680.4,145.6 L691.9,140.3 L702.8,133.4 L714.6,125.9 L721.6,120.2 L729.9,112.1 L742.1,101.4 L751.7,91.6 L761.4,81.8 L767.0,75.7 L769.3,68.3 L770.5,64.4 L768.3,56.4 L767.0,49.6 L765.1,45.0 L765.0,39.2 L767.4,33.8 L771.0,28.0 L777.3,23.2 L783.5,19.2 L788.7,14.2 L792.7,9.8 L801.1,4.0 L811.3,-3.1 Z" fill="#2b5a2a" stroke="none"/>
<path d="M736.2,403.0 L738.0,398.4 L738.2,389.0 L734.2,377.7 L733.1,369.9 L727.9,359.9 L722.3,349.3 L714.2,339.5 L712.3,335.0 L716.3,332.0 L722.2,334.4 L726.1,334.6 L729.7,334.8 L730.2,334.8 L733.0,335.8 L737.7,337.4 L744.5,341.8 L750.9,347.6 L755.5,352.0 L759.6,355.3 L764.9,355.2 L769.5,354.2 L773.9,352.0 L779.3,355.5 L781.4,358.5 L786.5,364.1 L791.7,367.9 L798.4,373.0 L805.1,377.7 L810.1,383.3 L812.2,388.2 L813.5,396.0 L813.3,401.2 L811.6,407.6 L807.8,415.0 L805.5,419.8 L802.4,422.8 L798.2,425.8 L792.8,428.7 L788.5,430.9 L782.8,428.5 L779.5,424.7 L773.3,424.3 L765.7,421.4 L760.4,416.9 L758.2,414.1 L753.3,411.2 L749.3,411.1 L746.3,412.2 L736.2,403.0 Z" fill="#2b5a2a" stroke="none"/>
<path d="M582.5,222.3 L590.7,223.6 L598.0,224.6 L604.7,224.9 L610.7,227.1 L618.2,221.3 L612.7,214.2 L619.7,206.3 L636.1,222.4 L651.6,238.1 L640.8,250.5 L647.0,253.6 L658.9,256.1 L655.6,250.6 L663.1,244.3 L675.3,256.3 L667.7,263.8 L673.7,270.0 L678.6,277.1 L680.4,281.8 L682.2,286.6 L683.0,288.8 L688.6,297.5 L696.8,310.5 L707.1,322.0 L716.3,332.0 L712.3,335.0 L708.5,330.4 L698.3,320.0 L689.4,309.4 L678.4,290.6 L674.6,282.2 L667.6,272.1 L660.9,264.8 L653.6,260.5 L644.1,256.8 L635.8,254.3 L623.9,245.4 L616.4,239.5 L606.3,232.3 L597.0,229.5 L590.5,229.5 L584.9,229.5 L578.6,231.4 L582.5,222.3 Z" fill="#2b5a2a" stroke="none"/>
<path d="M779.3,355.5 L784.4,349.6 L792.3,341.5 L800.6,333.3 L807.6,326.9 L812.8,323.6 L815.0,314.3 L809.1,320.0 L803.3,326.2 L795.0,334.1 L788.1,340.5 L782.0,346.7 L777.1,350.1 L773.9,352.0 L779.3,355.5 Z" fill="#2b5a2a" stroke="none"/>
<path d="M680.4,281.8 L683.4,283.5 L691.0,287.5 L696.4,290.3 L702.9,294.9 L707.8,299.0 L711.6,302.7 L714.5,305.9 L717.6,310.4 L719.2,314.5 L721.8,319.7 L724.2,324.9 L726.1,328.5 L729.1,332.3 L733.0,335.8 L729.7,334.8 L726.1,334.6 L721.4,327.1 L717.9,320.5 L715.4,315.0 L713.8,311.6 L712.4,309.1 L710.2,305.9 L705.7,301.9 L700.2,297.0 L696.7,294.4 L691.5,291.1 L687.6,289.3 L682.2,286.6 L680.4,281.8 Z" fill="#2b5a2a" stroke="none"/>
<path d="M649.0,417.1 L648.7,420.6 L652.7,417.1 L655.6,416.1 L657.2,415.5 L658.4,415.6 L660.2,418.0 L669.0,412.1 L669.8,410.2 L669.6,408.1 L669.3,407.1 L668.1,406.3 L666.9,405.9 L665.5,405.3 L664.5,404.6 L664.2,403.6 L664.6,402.0 L665.8,400.6 L661.0,400.8 L662.0,403.2 L662.4,405.4 L662.1,407.7 L659.2,410.2 L655.4,412.7 L649.0,417.1 Z" fill="#2b5a2a" stroke="none"/>
<path d="M645.5,436.5 L646.7,433.2 L648.3,429.1 L649.1,424.6 L648.7,420.6 L649.0,417.1 L650.0,410.2 L651.1,406.3 L652.3,403.3 L655.2,401.4 L658.6,400.6 L661.0,400.8 L665.8,400.6 L670.4,399.7 L673.8,400.6 L677.1,402.0 L679.4,404.2 L680.5,407.0 L680.7,409.5 L680.6,412.6 L681.0,415.8 L681.1,418.2 L681.8,420.1 L683.9,423.7 L688.0,421.7 L685.1,418.0 L684.8,413.9 L685.2,411.7 L687.6,411.3 L689.9,413.9 L695.3,418.1 L701.6,416.2 L692.6,410.8 L689.2,407.9 L684.6,403.4 L677.9,399.3 L675.6,397.0 L671.6,393.4 L646.5,374.5 L644.0,376.5 L641.4,377.3 L638.4,376.4 L636.5,373.6 L635.5,371.1 L625.7,372.0 L625.9,376.4 L627.6,380.5 L630.0,384.2 L631.1,387.9 L633.2,392.4 L635.3,394.4 L637.7,395.5 L640.3,396.6 L643.4,397.4 L646.3,399.0 L647.6,401.5 L648.2,405.3 L647.1,408.4 L646.0,411.6 L645.6,416.0 L645.7,419.0 L645.8,425.0 L644.9,428.9 L643.2,432.9 L640.8,437.4 L645.5,436.5 Z" fill="#2b5a2a" stroke="none"/>
<path d="M527.6,279.5 L538.6,284.1 L546.6,287.4 L552.4,289.8 L558.7,293.5 L564.7,296.9 L569.4,302.3 L573.4,307.6 L577.2,313.4 L580.0,310.8 L574.9,304.6 L571.5,300.0 L570.8,295.1 L571.1,292.1 L572.9,286.6 L572.6,284.5 L576.4,283.9 L577.8,281.3 L577.2,278.6 L574.0,276.7 L569.9,275.7 L565.7,275.2 L563.6,274.3 L560.8,272.9 L556.7,270.0 L547.9,262.9 L539.9,271.4 L535.4,276.5 L527.6,279.5 Z" fill="#2b5a2a" stroke="none"/>
<path d="M334.2,630.2 L328.8,647.6 L340.1,664.4 L348.9,659.8 L356.0,655.6 L363.6,652.2 L372.2,648.7 L382.0,647.0 L387.0,644.7 L390.6,640.3 L393.3,634.8 L397.3,629.8 L405.1,625.6 L411.8,616.6 L416.4,610.9 L420.6,602.1 L426.0,596.5 L434.2,592.9 L439.9,588.5 L445.3,582.8 L452.6,577.0 L462.7,572.2 L474.2,566.1 L481.1,561.7 L485.5,556.9 L492.7,554.1 L510.9,544.5 L520.1,536.7 L530.0,527.7 L540.2,520.0 L548.8,515.4 L557.0,512.4 L563.1,510.3 L575.0,504.9 L580.0,500.7 L591.6,491.7 L613.4,475.1 L627.2,464.4 L649.0,447.9 L673.9,435.9 L691.5,424.8 L700.1,421.3 L707.0,418.6 L706.2,415.3 L701.6,416.2 L695.3,418.1 L688.0,421.7 L683.9,423.7 L673.7,428.2 L661.6,432.4 L653.4,434.3 L645.5,436.5 L640.8,437.4 L630.1,439.3 L620.9,440.8 L602.7,438.5 L594.5,435.9 L579.6,433.6 L568.5,433.9 L556.2,437.6 L543.6,442.0 L535.8,444.1 L531.2,447.9 L524.3,464.9 L520.3,474.9 L515.5,477.9 L509.4,479.9 L499.2,484.8 L489.7,489.6 L481.6,493.2 L473.6,498.6 L465.2,506.4 L458.9,511.8 L451.4,520.4 L434.6,530.5 L425.8,535.9 L413.4,542.4 L400.2,547.8 L390.0,554.6 L380.3,563.4 L375.1,570.1 L369.4,577.0 L362.5,582.8 L354.3,587.9 L350.2,593.5 L348.9,600.4 L351.4,604.5 L356.8,608.0 L360.4,609.5 L364.4,611.3 L366.0,613.5 L366.7,616.7 L364.3,618.7 L359.1,621.2 L358.0,623.9 L355.3,624.9 L352.0,625.4 L348.5,623.9 L345.1,621.7 L343.7,626.4 L341.7,629.9 L339.3,630.7 L336.9,630.9 L334.2,630.2 Z" fill="#2b5a2a" stroke="none"/>
<path d="M364.3,618.7 L360.0,618.1 L355.2,616.3 L352.0,616.5 L349.2,617.2 L347.3,618.6 L345.1,621.7 L348.5,623.9 L348.5,621.1 L351.0,619.3 L354.0,618.4 L356.9,618.9 L359.1,621.2 L364.3,618.7 Z" fill="#2b5a2a" stroke="none"/>
<path d="M641.4,699.7 L632.0,702.5 L622.6,702.8 L611.6,704.4 L602.4,709.1 L595.5,709.9 L586.4,708.3 L578.4,701.9 L573.4,694.7 L573.4,692.9 L573.1,684.2 L575.9,676.8 L584.5,668.5 L595.8,659.9 L608.8,651.0 L617.6,641.4 L627.6,630.6 L634.0,622.3 L642.8,611.2 L648.6,604.0 L657.2,594.1 L670.2,580.8 L675.4,572.2 L682.1,558.1 L690.4,542.1 L699.5,525.2 L709.2,514.2 L719.7,506.7 L737.4,496.7 L745.4,490.9 L750.4,486.0 L753.4,477.1 L758.9,466.6 L763.4,461.9 L771.7,458.6 L783.0,461.6 L788.8,466.3 L781.3,477.1 L777.2,487.3 L768.3,500.1 L757.3,510.6 L747.9,522.5 L740.1,531.9 L736.3,547.9 L737.4,564.8 L742.1,579.1 L746.5,598.2 L746.8,614.3 L745.4,630.6 L732.7,644.1 L718.6,647.2 L703.4,650.2 L679.0,658.0 L664.9,665.4 L659.7,674.3 L657.5,682.3 L653.9,689.2 L641.4,699.7 Z" fill="#2b5a2a" stroke="none"/>
<path d="M689.2,407.9 L689.4,405.6 L693.2,404.1 L699.7,404.8 L693.7,401.7 L684.6,403.4 L689.2,407.9 Z" fill="#2b5a2a" stroke="none"/>
<path d="M671.6,393.4 L673.3,390.5 L677.1,390.5 L682.6,393.0 L686.0,394.8 L689.2,397.1 L693.7,401.7 L699.7,404.8 L705.3,407.2 L711.7,409.9 L715.7,410.7 L718.1,410.3 L727.6,406.6 L724.8,403.8 L724.3,397.6 L723.1,388.8 L720.5,383.5 L715.8,378.2 L708.6,370.0 L705.1,365.4 L696.2,358.9 L693.1,357.3 L689.2,356.3 L686.1,356.1 L682.8,356.2 L678.7,354.6 L674.6,351.2 L669.6,347.4 L666.2,345.2 L661.8,343.2 L655.9,342.9 L650.9,343.3 L646.2,344.1 L646.9,346.7 L655.3,346.3 L661.0,346.9 L664.8,348.3 L670.5,352.8 L674.9,356.3 L676.1,360.4 L675.2,362.3 L671.3,363.3 L667.2,363.8 L663.6,365.1 L659.7,365.2 L655.4,362.2 L650.5,356.8 L645.2,368.0 L647.1,370.0 L647.9,372.3 L646.5,374.5 L671.6,393.4 Z" fill="#2b5a2a" stroke="none"/>
<path d="M512.5,333.3 L518.8,329.4 L524.1,325.0 L527.3,318.9 L528.7,311.8 L530.4,305.3 L529.8,299.1 L527.6,294.8 L525.8,292.2 L524.3,298.8 L522.0,301.2 L524.4,301.6 L526.2,303.3 L525.9,306.7 L523.8,308.5 L522.1,308.6 L520.3,308.3 L517.4,315.0 L519.5,316.8 L521.2,319.2 L521.1,322.0 L520.1,324.4 L517.5,326.1 L514.1,326.4 L512.5,333.3 Z" fill="#2b5a2a" stroke="none"/>
<path d="M586.0,544.5 L586.3,538.3 L585.3,529.4 L582.6,518.4 L578.6,509.5 L575.0,504.9 L580.0,500.7 L584.7,511.9 L588.3,520.3 L589.8,529.2 L590.7,539.4 L590.8,544.9 L586.0,544.5 Z" fill="#2b5a2a" stroke="none"/>
<path d="M465.2,506.4 L461.2,504.9 L458.7,500.7 L456.9,494.7 L455.1,486.9 L454.6,479.3 L454.9,470.1 L451.3,474.7 L452.1,485.3 L453.3,493.8 L455.6,501.6 L458.2,507.0 L458.9,511.8 L465.2,506.4 Z" fill="#2b5a2a" stroke="none"/>
<path d="M170.7,729.6 L176.3,726.0 L181.9,720.7 L186.3,715.9 L191.0,711.4 L194.4,708.7 L197.7,706.5 L200.6,707.1 L202.7,711.3 L206.4,716.0 L209.6,718.8 L214.4,720.8 L219.0,719.5 L225.9,716.0 L231.2,711.6 L232.3,706.9 L231.8,702.0 L228.7,696.8 L226.0,694.6 L222.3,692.6 L219.4,691.9 L217.0,690.6 L217.7,687.8 L220.1,684.5 L225.1,679.6 L236.5,670.1 L248.0,665.3 L255.9,662.8 L263.6,661.0 L268.9,660.8 L273.0,662.5 L277.1,665.1 L283.0,664.3 L289.8,662.9 L292.7,663.0 L296.5,663.7 L299.3,665.7 L300.3,670.5 L305.3,666.5 L309.6,663.6 L314.2,661.8 L310.6,657.2 L309.5,651.6 L307.6,649.4 L302.4,646.3 L302.6,641.5 L307.6,631.0 L309.5,625.7 L311.3,620.6 L307.5,619.4 L291.7,614.2 L282.2,658.6 L256.9,654.1 L205.4,679.2 L167.5,725.7 L170.7,729.6 Z" fill="#2b5a2a" stroke="none"/>
<path d="M307.5,619.4 L314.7,615.0 L321.9,606.7 L326.8,598.1 L330.7,587.5 L336.5,574.5 L342.7,563.8 L351.2,549.6 L356.7,541.4 L365.3,529.5 L374.0,519.7 L380.7,510.4 L385.1,502.3 L389.9,490.0 L393.1,482.8 L396.8,477.3 L401.8,471.2 L410.0,453.8 L414.1,436.2 L419.0,423.2 L422.6,413.2 L430.4,397.2 L435.1,383.1 L437.5,374.3 L441.0,364.2 L445.2,359.3 L449.8,355.5 L454.6,349.2 L462.7,335.3 L462.9,329.5 L464.9,323.8 L470.3,317.7 L472.2,313.1 L473.3,306.8 L474.1,302.2 L474.5,298.2 L478.3,294.6 L481.3,294.5 L485.9,295.6 L487.5,293.2 L486.7,290.1 L482.0,287.8 L482.3,283.8 L477.9,282.5 L474.6,282.3 L475.1,265.2 L487.3,264.3 L490.0,256.0 L498.0,257.9 L500.8,262.0 L503.3,266.5 L508.0,272.9 L513.3,276.5 L517.4,277.6 L523.9,279.2 L527.6,279.5 L538.6,284.1 L534.6,304.7 L531.1,322.8 L530.8,328.2 L527.4,336.4 L522.1,342.6 L519.6,347.7 L514.4,353.9 L511.0,359.7 L507.3,364.3 L503.6,370.8 L498.6,379.1 L499.3,381.4 L496.4,385.5 L491.0,391.7 L488.6,398.0 L488.6,404.9 L489.7,409.0 L489.6,412.6 L485.7,417.5 L484.8,421.3 L481.7,425.7 L477.7,429.3 L474.1,433.3 L473.4,437.7 L471.8,444.6 L468.3,452.2 L459.6,463.4 L454.9,470.1 L451.3,474.7 L446.2,479.6 L437.2,487.6 L430.4,492.0 L425.3,493.9 L421.6,496.6 L415.6,503.9 L408.9,514.3 L405.8,519.4 L405.3,521.5 L403.8,524.7 L396.1,530.1 L386.3,539.6 L379.2,548.1 L369.6,558.8 L359.4,570.9 L349.0,580.1 L342.1,588.4 L333.8,600.3 L330.8,605.6 L326.2,612.6 L325.6,620.4 L334.2,630.2 L328.8,647.6 L314.2,661.8 L310.6,657.2 L309.5,651.6 L307.6,649.4 L302.4,646.3 L302.6,641.5 L307.6,631.0 L309.5,625.7 L311.3,620.6 L307.5,619.4 Z" fill="#2b5a2a" stroke="none"/>
<path d="M332.0,280.3 L285.1,328.6 L285.2,334.0 L286.3,338.4 L290.2,343.1 L295.2,346.2 L305.5,350.8 L314.4,350.5 L324.7,350.0 L332.8,349.6 L341.1,350.0 L350.3,348.4 L357.8,346.0 L363.3,343.4 L369.8,339.1 L376.2,335.1 L382.1,331.6 L389.5,327.6 L395.6,324.9 L403.2,324.6 L407.8,319.4 L404.3,312.9 L402.7,301.0 L403.7,291.6 L405.9,278.6 L406.8,272.0 L404.1,267.9 L396.0,272.5 L384.6,273.5 L377.8,273.9 L367.8,274.4 L359.5,276.0 L354.6,277.1 L350.1,279.7 L344.9,282.4 L339.7,283.6 L334.7,283.0 L332.0,280.3 Z" fill="#2b5a2a" stroke="none"/>
<path d="M406.8,272.0 L411.4,266.0 L416.4,260.1 L420.8,257.1 L424.0,256.6 L418.6,247.7 L414.1,255.7 L409.5,262.8 L404.1,267.9 L406.8,272.0 Z" fill="#2b5a2a" stroke="none"/>
<path d="M577.2,313.4 L571.4,314.7 L563.5,315.6 L553.8,316.9 L545.5,318.5 L537.8,320.7 L531.1,322.8 L530.8,328.2 L539.2,324.7 L549.3,321.3 L560.8,319.1 L569.0,318.9 L575.4,318.9 L577.2,313.4 Z" fill="#2b5a2a" stroke="none"/>
<path d="M332.0,280.3 L331.7,275.4 L333.0,271.8 L335.6,270.0 L341.6,264.2 L344.7,261.0 L351.7,258.9 L360.1,257.4 L367.4,254.1 L372.9,246.1 L380.9,236.5 L389.5,227.3 L400.4,219.2 L410.5,211.7 L418.4,201.8 L423.5,197.0 L558.9,-66.8 L555.4,-74.0 L545.3,-77.4 L539.0,-79.3 L536.4,-84.9 L539.5,-88.0 L545.0,-90.1 L561.1,-91.1 L569.3,-95.0 L575.1,-100.3 L579.9,-107.2 L581.4,-114.5 L584.7,-119.0 L588.8,-120.2 L594.4,-116.5 L598.5,-130.7 L591.7,-130.1 L582.8,-131.4 L531.9,-164.0 L514.4,-153.0 L504.6,-144.3 L498.1,-131.6 L494.5,-119.3 L490.1,-103.9 L487.2,-94.0 L483.9,-85.1 L481.2,-77.1 L478.6,-72.3 L472.6,-69.7 L466.8,-68.7 L466.6,-75.2 L462.5,-78.5 L457.4,-79.8 L453.6,-77.9 L449.9,-65.6 L453.5,-58.8 L459.6,-49.0 L457.6,-30.9 L453.8,-16.3 L450.7,-0.6 L448.7,17.0 L440.8,30.0 L431.4,42.2 L429.0,49.5 L428.0,60.3 L430.9,73.5 L428.0,84.6 L417.7,108.2 L408.1,126.0 L396.7,147.4 L391.0,160.4 L379.9,185.5 L369.8,197.7 L357.7,216.7 L348.2,228.8 L342.5,243.4 L336.3,252.1 L324.8,265.1 L317.9,273.9 L307.0,286.0 L297.4,294.5 L293.4,292.6 L279.6,307.8 L285.4,313.7 L285.8,319.8 L285.1,328.6 L332.0,280.3 Z" fill="#2b5a2a" stroke="none"/>
<path d="M751.6,30.4 L749.7,29.0 L747.0,29.5 L742.2,29.4 L737.0,27.8 L733.0,27.6 L729.1,28.3 L724.5,30.5 L718.4,34.1 L711.2,38.1 L704.2,42.2 L697.4,44.3 L693.2,46.5 L689.6,50.2 L685.7,55.2 L681.8,58.3 L677.7,60.7 L673.0,62.7 L667.5,64.5 L661.1,66.5 L656.4,68.6 L653.8,71.9 L653.1,74.9 L653.6,78.1 L652.9,82.8 L653.1,86.7 L654.4,90.0 L656.3,92.7 L657.1,96.0 L655.9,99.6 L653.1,104.1 L648.4,110.1 L645.8,114.8 L643.6,119.2 L641.3,125.3 L639.2,128.6 L633.9,132.0 L626.0,134.6 L645.6,150.1 L659.0,135.8 L667.2,127.0 L675.1,120.1 L681.1,111.9 L687.6,105.7 L692.2,101.2 L695.4,99.0 L699.6,98.8 L703.4,100.3 L708.1,101.7 L712.7,102.5 L717.3,102.4 L721.3,101.8 L725.4,98.9 L727.0,95.3 L729.8,88.0 L732.8,84.1 L736.5,80.5 L743.1,78.1 L749.8,75.1 L755.6,72.0 L759.3,69.2 L761.7,65.6 L764.0,61.7 L763.2,56.9 L761.6,54.1 L758.8,51.0 L756.0,46.7 L754.2,43.1 L752.4,38.2 L751.8,35.2 L752.1,32.7 L751.6,30.4 Z" fill="#5a9540" stroke="none"/>
<path d="M701.2,370.8 L696.7,365.8 L692.7,362.7 L687.5,360.8 L683.8,360.7 L681.0,361.7 L679.5,364.4 L678.9,370.4 L678.9,378.0 L681.3,384.4 L684.5,390.4 L689.2,397.1 L693.7,401.7 L699.7,404.8 L705.3,407.2 L711.7,409.9 L715.7,410.7 L718.1,410.3 L719.7,408.6 L720.4,406.6 L719.7,403.0 L719.1,400.0 L718.9,396.8 L719.1,392.8 L718.6,389.5 L716.4,386.7 L713.4,383.2 L708.4,378.4 L701.2,370.8 Z" fill="#5a9540" stroke="none"/>
<path d="M336.0,342.9 L334.2,338.1 L335.8,336.3 L336.1,334.5 L335.7,332.9 L334.6,331.6 L333.4,330.8 L331.6,330.5 L329.6,317.0 L330.8,315.4 L331.1,313.8 L330.4,312.2 L329.2,311.0 L327.6,310.1 L326.1,309.7 L325.4,306.8 L330.3,306.8 L334.6,307.2 L338.4,307.8 L342.8,307.9 L347.0,307.3 L350.0,305.9 L354.0,303.4 L356.7,299.7 L359.8,296.7 L363.3,294.3 L366.6,292.7 L370.1,291.7 L373.5,291.3 L377.0,291.7 L381.4,293.3 L384.3,296.2 L386.2,298.6 L387.1,303.0 L387.0,308.6 L386.3,312.5 L385.5,316.4 L383.6,319.8 L381.2,321.4 L378.4,322.6 L375.5,322.8 L372.0,322.2 L367.4,322.5 L363.7,323.2 L359.8,324.8 L354.2,328.5 L350.0,331.2 L347.3,333.8 L343.5,337.9 L339.6,341.0 L336.0,342.9 Z" fill="#5a9540" stroke="none"/>
<path d="M325.4,306.8 L321.1,307.4 L316.6,308.6 L313.3,308.8 L310.6,308.8 L307.6,310.3 L305.2,312.8 L302.8,315.3 L299.9,318.0 L297.0,320.7 L293.7,324.6 L292.8,328.3 L292.4,332.3 L293.4,335.4 L295.3,338.8 L298.1,341.9 L301.6,344.2 L305.3,344.8 L309.8,345.2 L316.4,344.4 L321.2,343.6 L325.8,343.5 L329.8,343.8 L333.0,343.5 L336.0,342.9 L334.2,338.1 L332.1,338.4 L330.6,338.2 L329.3,337.1 L328.5,335.7 L328.3,333.8 L328.5,332.2 L329.6,331.4 L331.6,330.5 L329.6,317.0 L327.5,317.3 L325.4,317.0 L324.0,315.7 L322.7,314.5 L322.2,313.0 L322.8,310.9 L324.0,310.0 L326.1,309.7 L325.4,306.8 Z" fill="#5a9540" stroke="none"/>
<path d="M285.8,707.4 L288.7,710.2 L295.0,711.8 L301.1,710.0 L306.4,707.9 L310.5,705.4 L312.3,703.5 L314.8,698.6 L313.2,695.7 L313.7,693.8 L314.4,692.1 L316.3,690.8 L318.8,690.1 L324.0,685.9 L325.3,682.2 L326.2,678.8 L325.5,674.2 L323.1,671.3 L320.3,668.8 L317.1,666.9 L312.8,666.3 L309.3,666.9 L305.4,668.8 L302.2,671.3 L300.0,673.8 L297.1,675.8 L294.5,677.4 L293.5,681.5 L295.0,682.6 L295.2,685.0 L294.5,687.6 L293.2,689.2 L291.6,690.1 L289.4,689.6 L287.7,687.7 L283.1,688.1 L281.4,694.8 L281.6,699.4 L283.3,704.2 L285.8,707.4 Z" fill="#5a9540" stroke="none"/>
<path d="M287.7,687.7 L287.4,685.8 L288.6,683.5 L290.1,682.0 L291.5,681.5 L293.5,681.5 L294.5,677.4 L291.1,679.0 L288.6,680.0 L287.1,680.7 L285.2,682.4 L284.4,683.8 L284.0,686.0 L283.1,688.1 L287.7,687.7 Z" fill="#5a9540" stroke="none"/>
<path d="M413.6,685.2 L409.8,687.2 L407.1,689.5 L406.1,691.6 L406.1,694.3 L406.3,697.2 L405.4,700.0 L404.2,701.3 L401.7,702.7 L397.6,703.9 L388.6,706.6 L379.0,709.2 L368.5,712.2 L359.7,715.0 L353.4,717.1 L347.8,719.2 L342.5,719.9 L337.6,720.4 L334.7,724.2 L335.8,727.3 L335.7,730.4 L334.6,732.2 L332.0,733.9 L329.2,733.9 L326.7,732.8 L319.2,743.8 L320.5,745.1 L321.2,747.1 L320.7,749.8 L318.4,751.5 L316.2,751.1 L313.8,749.7 L311.9,747.8 L309.4,743.5 L305.0,743.3 L301.0,744.8 L297.8,747.7 L295.7,751.1 L294.1,753.8 L291.6,756.5 L288.8,759.1 L287.4,761.6 L287.3,766.5 L287.3,771.1 L288.0,775.3 L289.6,780.0 L290.2,786.9 L291.2,793.5 L293.0,799.8 L295.8,808.4 L329.3,794.8 L328.4,789.3 L328.1,787.4 L324.0,786.9 L322.3,789.4 L320.2,790.2 L317.7,790.2 L316.0,788.4 L315.2,786.3 L315.4,783.8 L317.8,781.6 L319.8,780.5 L321.5,780.8 L322.7,782.1 L326.3,779.9 L326.0,777.7 L326.8,775.1 L327.2,773.4 L328.8,772.6 L330.9,772.2 L332.8,772.3 L333.8,774.2 L339.1,770.4 L339.2,767.4 L341.3,764.5 L343.9,762.9 L346.2,762.9 L348.6,763.8 L349.9,765.7 L350.3,767.9 L356.3,769.8 L359.2,762.9 L362.9,754.9 L368.9,745.5 L373.4,738.3 L377.9,733.2 L382.9,727.5 L389.5,725.4 L400.3,722.3 L408.0,719.6 L420.9,715.0 L434.0,709.8 L443.9,705.6 L455.5,699.9 L463.6,696.5 L469.6,692.1 L476.0,687.6 L480.1,682.6 L482.9,678.9 L484.9,676.1 L486.9,673.7 L489.9,671.2 L493.5,670.6 L497.3,669.1 L501.9,667.5 L508.8,666.2 L513.8,665.3 L519.7,662.8 L527.5,659.1 L531.8,655.7 L535.7,652.5 L537.7,649.5 L538.6,647.0 L539.4,644.7 L541.1,643.2 L544.5,641.8 L547.9,640.3 L553.3,638.6 L562.1,636.6 L570.4,635.5 L575.8,634.9 L579.2,631.4 L580.3,626.1 L581.5,618.4 L582.2,613.5 L584.2,607.8 L587.8,602.6 L588.9,599.2 L588.3,593.9 L586.4,591.3 L584.4,585.8 L582.5,580.3 L583.2,575.7 L582.9,573.1 L580.9,571.1 L578.9,570.7 L576.2,569.5 L573.3,568.2 L568.5,568.4 L564.1,570.6 L560.6,572.8 L558.6,575.5 L557.3,579.3 L555.8,581.0 L553.4,582.6 L550.7,583.2 L547.4,583.6 L544.3,584.7 L540.6,587.3 L538.5,589.9 L537.5,594.0 L536.5,598.8 L535.6,604.7 L533.3,609.7 L532.0,614.5 L529.2,618.5 L526.5,621.6 L521.5,625.8 L516.6,628.7 L510.7,630.1 L503.1,631.3 L497.4,632.1 L492.5,632.3 L488.2,633.8 L484.9,635.9 L482.0,638.9 L480.1,641.4 L479.1,645.9 L478.2,650.8 L477.9,655.4 L476.9,659.4 L471.8,664.2 L468.1,666.8 L462.4,668.3 L459.2,668.2 L454.5,667.1 L451.1,666.7 L447.8,667.2 L445.2,668.4 L442.5,670.6 L440.0,674.1 L437.8,676.1 L435.7,677.7 L432.7,679.2 L424.8,682.0 L413.6,685.2 Z" fill="#5a9540" stroke="none"/>
<path d="M324.0,685.9 L323.6,689.8 L323.6,692.6 L323.2,695.7 L322.1,697.8 L321.0,699.6 L318.8,700.9 L316.1,701.8 L314.4,702.0 L312.3,703.5 L314.8,698.6 L317.3,698.9 L319.4,698.0 L320.9,696.5 L321.5,694.1 L321.2,692.1 L320.5,690.9 L318.8,690.1 L324.0,685.9 Z" fill="#5a9540" stroke="none"/>
<path d="M772.3,414.8 L770.8,411.0 L772.1,408.6 L772.2,406.3 L771.4,404.6 L770.4,402.8 L768.8,401.0 L767.3,399.5 L766.1,398.9 L764.8,398.8 L763.1,399.3 L761.3,393.3 L762.4,392.1 L763.0,390.1 L762.5,388.1 L761.2,386.1 L759.8,385.6 L758.6,385.6 L757.2,386.2 L755.8,378.8 L757.2,378.3 L758.6,377.0 L759.5,375.9 L760.3,374.1 L760.2,372.3 L759.6,371.1 L764.5,367.7 L765.4,368.6 L766.9,369.4 L768.2,369.6 L769.7,369.4 L770.8,368.8 L771.7,367.7 L776.6,370.5 L776.5,372.7 L777.3,374.5 L778.7,375.4 L780.3,376.5 L782.0,377.4 L783.5,377.4 L784.6,377.0 L785.9,375.9 L786.7,374.2 L786.5,372.5 L793.5,373.0 L798.2,376.2 L800.2,378.1 L801.6,380.1 L802.9,383.2 L803.3,387.2 L802.6,391.3 L802.1,397.3 L801.7,403.4 L800.5,408.4 L798.6,411.7 L796.1,414.5 L792.4,416.7 L788.1,417.2 L784.7,417.3 L781.0,416.3 L778.1,415.3 L775.0,414.7 L772.3,414.8 Z" fill="#5a9540" stroke="none"/>
<path d="M770.8,411.0 L767.8,411.7 L764.9,410.2 L762.9,407.8 L761.5,405.1 L760.6,402.6 L761.1,401.1 L763.1,399.3 L761.3,393.3 L758.1,394.0 L755.6,392.4 L754.5,390.0 L755.2,387.9 L757.2,386.2 L755.8,378.8 L752.9,378.8 L751.9,376.9 L751.9,374.9 L752.6,373.0 L754.0,371.1 L756.8,369.5 L758.2,369.5 L759.6,371.1 L764.5,367.7 L764.3,364.2 L765.8,362.3 L768.3,362.2 L770.2,363.1 L771.8,364.7 L771.7,367.7 L776.6,370.5 L777.7,368.7 L779.9,368.1 L782.0,368.6 L783.5,369.4 L785.0,370.6 L786.5,372.5 L793.5,373.0 L786.5,367.4 L779.1,363.6 L774.8,361.2 L771.1,359.7 L768.0,359.1 L764.5,360.5 L760.7,362.7 L757.8,365.4 L755.6,367.1 L751.7,370.4 L750.4,373.0 L748.7,375.1 L747.2,378.7 L747.0,384.2 L747.5,387.9 L747.8,391.8 L747.2,396.1 L746.5,400.3 L746.3,403.2 L747.8,405.8 L751.1,407.4 L755.4,408.8 L761.6,412.4 L764.2,414.4 L767.1,415.3 L772.3,414.8 L770.8,411.0 Z" fill="#5a9540" stroke="none"/>
<path d="M544.5,249.8 L547.5,248.8 L549.6,246.8 L550.5,244.1 L551.0,242.0 L550.9,239.8 L551.1,238.2 L553.0,236.3 L555.2,234.4 L558.0,232.1 L560.6,229.2 L562.6,227.1 L566.1,224.4 L569.3,222.8 L573.4,219.5 L577.6,216.4 L579.1,214.5 L581.0,211.5 L589.3,201.4 L593.7,197.2 L601.2,191.0 L604.2,188.5 L618.3,181.2 L629.8,172.9 L635.4,164.6 L640.8,156.4 L645.6,150.1 L626.0,134.6 L616.3,137.8 L605.1,142.2 L596.8,146.0 L590.8,148.4 L586.4,152.0 L583.4,155.4 L582.1,160.4 L578.9,168.9 L574.6,177.1 L571.2,182.7 L565.2,188.5 L557.3,195.9 L552.4,200.2 L548.4,204.2 L545.5,207.6 L543.0,210.0 L540.0,212.3 L535.9,214.5 L531.2,217.5 L525.3,220.2 L521.0,223.5 L520.2,226.2 L521.0,228.5 L521.8,230.7 L521.0,233.4 L518.3,235.6 L515.2,237.4 L511.7,239.4 L508.2,241.6 L506.0,244.2 L505.3,246.8 L505.2,250.7 L506.4,255.0 L508.3,258.8 L512.2,264.8 L516.0,268.2 L521.0,270.6 L525.3,271.6 L529.4,270.7 L532.4,269.4 L535.2,266.5 L536.1,263.4 L536.4,260.0 L536.4,257.2 L537.2,253.7 L538.8,251.0 L541.9,249.7 L544.5,249.8 Z" fill="#5a9540" stroke="none"/>
<path d="M642.9,527.7 L647.0,522.5 L655.0,516.0 L666.5,505.5 L678.4,495.9 L694.2,484.4 L703.0,477.0 L711.3,470.5 L715.1,466.6 L719.3,460.9 L722.7,455.2 L725.4,449.6 L726.4,445.6 L732.1,450.4 L735.9,449.2 L739.8,446.6 L746.6,448.3 L750.7,452.1 L755.6,451.1 L760.2,445.6 L763.7,441.8 L768.8,436.4 L766.7,432.2 L761.4,429.0 L755.4,425.5 L748.2,424.0 L742.4,420.2 L737.5,416.7 L727.5,426.3 L719.9,435.0 L718.4,437.5 L716.4,445.8 L714.9,454.8 L711.3,462.2 L699.6,472.8 L690.4,479.8 L679.7,487.3 L669.8,493.8 L660.0,501.8 L656.6,495.9 L652.7,495.9 L648.5,498.0 L646.6,502.2 L647.0,506.6 L647.0,511.0 L642.8,514.1 L637.8,516.9 L633.0,520.1 L642.9,527.7 Z" fill="#5a9540" stroke="none"/>
<path d="M341.4,656.8 L337.0,654.3 L335.1,648.2 L335.1,644.0 L336.4,639.9 L340.3,634.4 L344.1,631.3 L351.5,626.6 L358.4,625.0 L363.6,622.9 L370.9,620.4 L378.3,622.7 L382.0,626.2 L383.7,631.5 L383.1,636.1 L381.2,640.7 L375.1,644.0 L366.5,646.1 L361.1,648.0 L355.9,652.6 L351.9,656.0 L347.1,657.5 L341.4,656.8 Z" fill="#5a9540" stroke="none"/>
<path d="M523.2,488.9 L514.0,492.1 L509.0,495.4 L504.4,499.6 L496.8,506.1 L487.6,510.1 L480.1,510.7 L471.3,514.5 L463.9,517.4 L457.2,525.2 L451.6,530.8 L444.7,535.2 L436.7,539.9 L419.1,550.7 L410.9,554.7 L403.4,561.2 L393.9,569.2 L385.4,578.4 L379.5,586.8 L371.7,591.6 L365.0,597.1 L362.5,602.5 L364.0,607.8 L368.2,609.0 L375.9,607.8 L383.1,605.4 L391.4,603.1 L396.0,600.6 L404.8,597.3 L412.2,591.4 L418.9,584.5 L428.1,578.6 L436.5,574.6 L443.0,571.3 L449.3,567.5 L462.7,560.2 L472.5,555.8 L482.4,550.3 L488.2,544.0 L496.0,538.6 L504.6,530.2 L511.7,526.6 L529.3,516.6 L542.9,512.0 L555.9,507.2 L563.3,504.0 L572.5,499.0 L579.4,493.7 L585.7,486.2 L588.4,481.4 L591.1,472.6 L591.3,465.2 L589.0,459.0 L583.6,454.6 L574.4,453.7 L566.8,456.0 L557.8,459.2 L549.4,463.6 L543.2,469.6 L538.5,475.9 L535.8,480.3 L530.4,485.4 L523.2,488.9 Z" fill="#5a9540" stroke="none"/>
<path d="M380.1,226.7 L386.0,220.0 L393.1,213.5 L399.6,207.2 L410.9,196.3 L417.6,188.8 L423.3,181.7 L428.1,172.7 L430.0,163.4 L431.7,149.2 L432.5,140.6 L435.5,134.1 L441.3,128.4 L447.6,123.4 L451.4,118.2 L457.0,110.6 L465.0,104.8 L476.3,85.7 L481.6,75.8 L480.7,68.9 L477.1,66.4 L477.6,62.2 L478.0,59.3 L479.7,56.4 L479.0,54.0 L474.8,54.7 L471.9,52.8 L471.1,48.6 L473.0,44.2 L476.7,43.1 L484.3,38.1 L484.3,23.5 L489.5,2.9 L494.8,-14.7 L502.3,-33.5 L511.3,-55.1 L517.4,-72.1 L522.6,-83.0 L526.8,-91.8 L529.6,-94.7 L532.7,-96.1 L532.8,-99.7 L530.2,-101.8 L529.3,-104.2 L531.1,-107.6 L532.7,-108.8 L535.0,-108.5 L537.8,-106.8 L538.6,-104.6 L542.6,-100.6 L547.1,-101.0 L552.2,-100.2 L557.6,-100.9 L559.9,-102.1 L562.7,-107.5 L560.9,-110.7 L561.2,-113.5 L562.3,-116.1 L563.8,-118.2 L565.7,-119.3 L555.7,-142.9 L555.8,-140.4 L554.3,-138.2 L552.7,-137.5 L550.7,-137.3 L548.8,-137.8 L547.3,-139.7 L543.4,-143.6 L540.7,-143.5 L538.0,-143.6 L534.9,-144.5 L532.2,-145.5 L528.8,-145.7 L526.0,-144.3 L523.9,-142.4 L522.4,-139.8 L520.4,-137.9 L518.8,-135.9 L516.8,-134.3 L516.1,-129.7 L518.3,-128.6 L519.2,-127.4 L519.1,-125.1 L518.2,-122.9 L516.4,-120.9 L513.5,-119.9 L511.3,-120.7 L506.9,-118.0 L505.6,-113.1 L500.4,-96.9 L496.6,-86.1 L490.8,-74.6 L488.0,-68.4 L481.7,-57.6 L477.0,-49.1 L473.4,-41.0 L469.8,-31.5 L465.9,-19.1 L462.0,-3.5 L458.9,9.7 L456.4,21.7 L451.8,38.2 L448.1,54.2 L445.8,65.7 L438.9,83.8 L434.5,96.2 L424.2,116.1 L418.1,126.8 L412.3,137.0 L406.6,145.7 L403.6,149.7 L401.3,154.1 L394.7,167.9 L389.4,177.6 L381.7,189.2 L375.7,198.6 L368.8,207.2 L364.1,213.7 L358.6,219.4 L354.5,224.5 L350.9,229.9 L347.6,235.9 L345.6,241.8 L345.0,244.7 L345.6,247.9 L347.5,249.8 L351.7,250.9 L356.7,251.6 L359.9,250.5 L363.0,248.4 L365.8,244.1 L372.8,235.7 L380.1,226.7 Z" fill="#5a9540" stroke="none"/>
<path d="M415.1,496.8 L425.3,491.6 L435.7,483.3 L445.7,472.5 L454.5,460.6 L463.9,447.1 L469.4,436.7 L472.9,425.2 L473.9,412.4 L473.7,400.6 L474.8,392.0 L477.6,385.7 L482.6,376.2 L489.1,367.2 L499.5,351.7 L506.8,341.1 L512.5,333.3 L514.1,326.4 L511.4,323.6 L511.0,319.4 L512.7,316.5 L514.8,315.4 L517.4,315.0 L520.3,308.3 L519.2,305.9 L519.8,302.5 L522.0,301.2 L524.3,298.8 L525.8,292.2 L522.9,286.4 L518.3,282.6 L511.4,278.9 L503.0,278.8 L497.3,280.4 L492.0,283.3 L489.3,289.0 L488.4,296.4 L489.1,303.2 L488.9,310.1 L486.7,315.0 L480.9,318.9 L475.4,321.6 L470.7,326.4 L467.2,333.8 L465.0,341.7 L457.7,360.5 L450.3,375.3 L445.0,387.7 L438.8,404.6 L431.3,420.5 L418.9,444.6 L411.8,456.4 L407.9,468.3 L401.9,477.8 L397.5,487.3 L396.5,492.7 L399.4,498.0 L405.8,499.4 L415.1,496.8 Z" fill="#5a9540" stroke="none"/>
<path d="M481.6,75.8 L485.3,70.2 L487.9,66.3 L488.3,62.1 L488.5,57.5 L488.1,53.2 L486.9,48.5 L485.5,43.0 L484.3,38.1 L476.7,43.1 L480.1,45.2 L481.8,48.7 L481.3,51.9 L479.0,54.0 L479.7,56.4 L481.9,55.9 L484.3,56.9 L486.2,59.1 L485.6,62.6 L484.4,66.2 L480.7,68.9 L481.6,75.8 Z" fill="#5a9540" stroke="none"/>
<path d="M487.2,192.7 L492.5,184.9 L495.9,178.7 L497.8,175.4 L498.1,171.4 L496.9,166.5 L496.5,162.8 L498.3,159.3 L501.8,157.2 L503.8,155.5 L506.2,151.3 L508.7,147.7 L511.8,146.4 L515.6,146.2 L518.7,144.4 L521.7,140.6 L525.1,131.6 L530.4,122.3 L534.1,111.2 L537.5,101.0 L546.5,83.1 L557.4,60.8 L569.8,37.8 L579.1,19.4 L587.5,4.5 L593.9,-9.9 L596.6,-21.8 L595.4,-31.3 L591.9,-37.9 L586.1,-41.3 L579.3,-42.6 L571.3,-40.2 L562.7,-33.3 L558.3,-23.1 L554.1,-11.0 L548.1,1.2 L540.6,14.7 L532.6,30.7 L525.3,43.1 L520.4,55.2 L515.3,68.9 L510.9,80.4 L505.8,94.4 L500.1,106.8 L491.9,127.1 L485.7,137.6 L479.0,146.8 L474.6,152.1 L469.5,158.3 L460.9,165.0 L457.8,171.9 L460.9,174.1 L462.0,177.4 L461.5,181.6 L459.5,184.0 L455.1,184.7 L448.5,194.2 L448.1,198.4 L446.5,204.2 L443.8,208.2 L439.7,213.4 L437.1,217.5 L440.1,222.6 L441.0,225.2 L440.9,227.6 L440.2,229.1 L438.7,230.3 L436.9,231.0 L434.2,230.8 L430.2,230.4 L428.2,236.0 L426.4,241.2 L426.0,244.9 L427.6,248.1 L430.0,251.2 L432.4,254.1 L434.0,254.7 L437.0,255.6 L439.8,255.7 L442.7,255.4 L446.1,254.8 L449.9,254.4 L450.7,249.5 L448.5,247.8 L448.0,245.9 L448.4,243.6 L450.4,241.9 L452.3,241.1 L454.6,241.2 L456.4,242.6 L460.0,244.8 L465.3,236.5 L468.2,231.7 L470.3,227.1 L471.8,221.5 L473.5,216.3 L478.5,206.4 L487.2,192.7 Z" fill="#5a9540" stroke="none"/>
<path d="M448.5,194.2 L446.9,186.8 L445.3,179.8 L446.1,174.9 L448.5,172.4 L452.5,169.7 L460.9,165.0 L457.8,171.9 L454.8,172.5 L452.1,175.4 L451.2,180.3 L452.6,183.2 L455.1,184.7 L448.5,194.2 Z" fill="#5a9540" stroke="none"/>
<path d="M450.7,249.5 L452.7,249.1 L454.7,247.9 L455.8,246.6 L456.2,245.5 L456.3,244.0 L456.4,242.6 L460.0,244.8 L459.2,246.9 L457.9,249.1 L456.0,251.4 L454.1,252.8 L451.8,253.8 L449.9,254.4 L450.7,249.5 Z" fill="#5a9540" stroke="none"/>
<path d="M438.7,230.3 L435.7,229.8 L434.1,228.3 L434.0,226.0 L434.3,224.3 L435.5,223.2 L437.4,222.8 L439.2,223.3 L441.0,225.2 L440.1,222.6 L437.1,217.5 L435.0,220.8 L432.7,224.2 L431.2,228.2 L430.2,230.4 L434.2,230.8 L436.9,231.0 L438.7,230.3 Z" fill="#5a9540" stroke="none"/>
<path d="M511.7,147.7 L510.4,148.6 L509.6,149.6 L509.3,150.5 L509.0,151.9 L509.4,153.0 L510.1,154.0 L511.2,154.8 L513.1,155.2 L515.0,154.2 L516.1,153.2 L516.8,151.4 L516.3,149.4 L515.1,148.5 L513.9,147.9 L511.7,147.7 Z" fill="#e7d6a3" stroke="none"/>
<path d="M500.5,160.0 L499.6,161.3 L499.5,162.3 L499.6,163.3 L500.0,164.2 L500.7,165.0 L501.4,165.5 L502.2,165.9 L503.4,166.0 L504.9,165.7 L505.8,164.7 L506.3,164.1 L506.8,162.8 L506.8,161.9 L506.5,160.7 L506.0,159.8 L504.9,159.3 L504.2,158.8 L502.7,158.8 L501.5,159.3 L500.5,160.0 Z" fill="#e7d6a3" stroke="none"/>
<path d="M436.7,223.9 L435.6,224.8 L435.0,225.7 L434.9,226.6 L435.2,227.7 L435.5,228.4 L436.4,229.3 L437.4,229.7 L438.6,229.5 L439.7,228.5 L440.2,227.4 L440.3,226.3 L440.1,225.4 L439.6,224.6 L438.9,224.1 L437.7,223.7 L436.7,223.9 Z" fill="#e7d6a3" stroke="none"/>
<path d="M451.4,242.6 L450.3,243.4 L449.5,244.3 L449.1,245.2 L449.1,246.0 L449.5,247.3 L450.2,248.0 L451.4,248.4 L452.7,248.2 L453.9,247.4 L454.5,246.8 L455.0,245.9 L455.3,245.1 L455.2,244.1 L454.7,243.2 L454.1,242.5 L453.3,242.2 L452.5,242.0 L451.4,242.6 Z" fill="#e7d6a3" stroke="none"/>
<path d="M513.2,228.8 L511.8,230.1 L510.1,231.1 L509.6,232.1 L509.1,233.0 L509.0,234.3 L509.8,235.6 L510.9,236.5 L512.1,237.0 L513.1,237.2 L514.3,236.8 L515.9,236.1 L516.8,235.4 L517.8,234.7 L518.7,233.9 L519.7,232.6 L520.7,231.9 L521.1,230.9 L520.7,229.6 L519.4,228.5 L517.7,228.0 L516.0,228.1 L514.3,228.3 L513.2,228.8 Z" fill="#e7d6a3" stroke="none"/>
<path d="M565.5,226.3 L564.3,227.5 L564.0,229.0 L564.5,230.7 L565.6,231.9 L567.8,232.1 L569.0,231.7 L570.2,230.9 L571.2,229.8 L571.7,228.6 L571.3,227.0 L569.6,225.9 L567.7,225.5 L565.5,226.3 Z" fill="#e7d6a3" stroke="none"/>
<path d="M555.5,237.0 L553.8,237.0 L552.7,238.0 L551.7,239.7 L552.3,241.2 L553.5,242.8 L555.2,243.9 L557.7,243.4 L558.7,242.1 L559.0,240.4 L558.8,238.6 L557.8,237.4 L556.8,237.3 L555.5,237.0 Z" fill="#e7d6a3" stroke="none"/>
<path d="M540.5,251.2 L538.4,253.3 L538.1,255.3 L538.6,257.0 L540.0,258.2 L542.5,258.0 L544.0,256.4 L544.9,254.2 L544.6,251.9 L543.5,250.6 L541.8,250.5 L540.5,251.2 Z" fill="#e7d6a3" stroke="none"/>
<path d="M759.0,386.4 L757.1,387.4 L756.3,388.7 L755.9,389.7 L756.0,390.7 L756.7,391.8 L758.1,392.5 L759.7,392.5 L761.3,392.0 L762.1,390.9 L762.2,389.1 L761.5,387.7 L760.6,386.7 L759.0,386.4 Z" fill="#e7d6a3" stroke="none"/>
<path d="M765.8,400.3 L763.9,400.3 L763.0,400.9 L762.3,401.9 L762.4,403.2 L762.9,404.3 L763.6,405.4 L764.5,406.6 L765.5,407.8 L766.2,409.0 L767.7,410.1 L769.2,410.4 L770.1,409.9 L771.1,409.1 L771.5,407.7 L771.2,405.7 L770.3,403.7 L769.1,402.4 L768.0,401.3 L765.8,400.3 Z" fill="#e7d6a3" stroke="none"/>
<path d="M544.7,643.9 L542.7,643.6 L541.1,644.4 L540.1,645.5 L540.0,647.1 L540.7,648.8 L542.2,649.8 L543.7,650.5 L545.5,650.4 L546.8,649.5 L547.0,648.0 L546.8,646.1 L545.9,645.0 L544.7,643.9 Z" fill="#e7d6a3" stroke="none"/>
<path d="M491.6,672.3 L490.0,672.8 L488.9,674.0 L488.8,675.5 L489.4,677.0 L491.2,677.6 L493.1,677.4 L494.7,676.8 L495.3,675.2 L494.8,673.2 L493.6,672.4 L492.3,672.3 L491.6,672.3 Z" fill="#e7d6a3" stroke="none"/>
<path d="M646.8,76.3 L644.9,77.5 L644.0,78.8 L643.7,80.1 L644.3,81.5 L644.9,82.9 L646.8,83.7 L648.7,84.1 L650.6,83.7 L651.7,82.5 L652.3,79.8 L651.7,78.3 L650.5,77.0 L649.5,76.5 L646.8,76.3 Z" fill="#e7d6a3" stroke="none"/>
<path d="M651.8,92.0 L650.1,92.7 L649.3,93.7 L648.9,95.4 L649.7,96.4 L651.2,96.9 L653.2,97.0 L654.4,96.9 L655.1,96.0 L655.3,94.3 L654.8,93.2 L654.3,92.2 L653.1,91.7 L651.8,92.0 Z" fill="#e7d6a3" stroke="none"/>
<path d="M690.6,110.0 L688.4,110.2 L686.8,111.0 L685.9,111.8 L685.1,113.4 L686.0,115.1 L687.5,115.8 L689.4,116.5 L691.5,116.7 L692.9,116.0 L693.5,114.5 L693.4,112.7 L692.8,111.3 L692.2,110.6 L690.6,110.0 Z" fill="#e7d6a3" stroke="none"/>
<path d="M458.9,181.4 L459.6,180.0 L460.3,177.9 L460.1,175.7 L458.5,174.5 L457.2,174.0 L455.3,174.6 L454.0,175.7 L453.3,176.8 L453.0,178.3 L453.1,179.9 L453.9,181.3 L454.8,182.1 L456.0,182.6 L457.4,182.4 L458.9,181.4 Z" fill="#e7d6a3" stroke="none"/>
<path d="M478.3,51.7 L479.2,50.3 L478.9,48.4 L478.4,46.8 L477.1,46.0 L475.4,46.3 L474.3,46.9 L473.7,47.9 L473.3,49.1 L473.4,50.2 L474.0,51.2 L475.2,52.0 L476.5,52.3 L478.3,51.7 Z" fill="#e7d6a3" stroke="none"/>
<path d="M483.3,64.5 L484.0,62.4 L484.1,60.4 L483.6,58.9 L482.8,58.1 L481.5,58.2 L480.1,58.7 L479.5,60.0 L479.3,61.0 L479.4,62.3 L479.4,63.7 L479.1,65.2 L479.5,66.4 L480.5,67.1 L481.8,66.8 L482.7,66.0 L483.3,64.5 Z" fill="#e7d6a3" stroke="none"/>
<path d="M355.2,624.2 L356.3,623.5 L357.1,622.5 L357.3,621.3 L356.8,620.4 L355.6,619.9 L354.0,619.8 L352.6,620.0 L351.4,620.6 L350.6,621.2 L350.1,622.2 L350.1,623.1 L350.7,623.9 L351.7,624.5 L353.5,624.5 L355.2,624.2 Z" fill="#e7d6a3" stroke="none"/>
<path d="M403.6,699.3 L404.7,697.9 L405.1,695.6 L404.1,694.0 L402.6,693.4 L401.0,693.6 L399.8,694.2 L398.8,695.3 L398.1,696.6 L398.0,698.0 L398.2,699.1 L399.1,700.0 L400.4,700.4 L401.8,700.4 L403.6,699.3 Z" fill="#e7d6a3" stroke="none"/>
<path d="M329.2,312.6 L327.6,311.3 L326.1,310.8 L324.9,310.8 L323.7,311.5 L323.4,312.4 L323.7,313.5 L324.4,314.5 L326.1,315.5 L326.9,316.0 L328.5,315.9 L329.4,315.3 L329.9,314.1 L329.2,312.6 Z" fill="#e7d6a3" stroke="none"/>
<path d="M332.3,332.2 L331.0,332.3 L330.0,333.0 L329.4,334.0 L329.5,335.0 L329.9,336.0 L330.6,336.7 L331.7,337.2 L332.8,337.1 L333.9,336.5 L334.6,335.4 L334.8,334.2 L334.4,333.2 L333.5,332.4 L332.3,332.2 Z" fill="#e7d6a3" stroke="none"/>
<path d="M553.9,581.1 L555.1,580.1 L555.4,578.6 L555.4,577.0 L554.8,575.8 L553.7,574.9 L552.4,574.6 L550.8,574.8 L549.8,575.2 L548.8,575.9 L548.0,577.0 L547.8,578.3 L547.8,579.5 L548.4,580.8 L549.5,581.6 L550.9,581.8 L552.7,581.6 L553.9,581.1 Z" fill="#e7d6a3" stroke="none"/>
<path d="M319.1,697.0 L319.8,696.1 L320.3,694.4 L320.2,692.8 L319.4,691.7 L318.7,691.2 L317.6,691.2 L316.4,691.8 L315.5,692.8 L314.7,694.3 L314.6,695.8 L315.1,696.7 L316.0,697.7 L317.8,697.7 L319.1,697.0 Z" fill="#e7d6a3" stroke="none"/>
<path d="M292.4,688.8 L293.4,687.7 L294.0,686.6 L294.3,685.3 L294.0,683.8 L293.3,682.9 L292.1,682.7 L290.6,683.2 L289.7,683.8 L288.9,684.9 L288.7,686.0 L288.7,687.1 L289.2,688.2 L290.1,689.1 L291.3,689.3 L292.4,688.8 Z" fill="#e7d6a3" stroke="none"/>
<path d="M757.2,377.7 L758.4,376.5 L759.5,374.8 L759.5,372.7 L758.5,371.3 L756.7,371.0 L754.9,371.9 L753.8,373.3 L753.1,374.6 L752.9,375.8 L753.2,377.0 L754.0,377.8 L755.5,378.1 L757.2,377.7 Z" fill="#e7d6a3" stroke="none"/>
<path d="M769.1,368.7 L770.0,367.9 L770.5,367.1 L770.6,365.9 L770.3,364.9 L769.8,364.3 L769.0,363.8 L768.1,363.7 L767.2,363.8 L766.4,364.1 L765.8,365.0 L765.6,365.9 L765.7,366.7 L765.9,367.4 L766.5,368.1 L767.2,368.7 L768.1,368.8 L769.1,368.7 Z" fill="#e7d6a3" stroke="none"/>
<path d="M779.4,375.2 L780.9,376.2 L782.2,376.6 L783.3,376.5 L784.3,376.1 L785.0,375.4 L785.3,374.5 L785.3,373.2 L784.6,371.9 L783.8,371.1 L782.6,370.3 L781.7,369.8 L780.5,369.5 L779.4,369.4 L778.5,369.6 L778.0,369.9 L777.4,370.5 L777.2,371.6 L777.4,372.8 L777.8,373.8 L778.3,374.5 L779.4,375.2 Z" fill="#e7d6a3" stroke="none"/>
<path d="M519.0,321.4 L518.9,320.2 L518.3,318.6 L517.1,317.7 L515.8,317.5 L514.7,317.8 L513.6,318.5 L513.0,319.7 L512.8,321.0 L513.5,322.1 L514.4,323.2 L515.9,323.6 L517.2,323.4 L518.3,322.7 L519.0,321.4 Z" fill="#e7d6a3" stroke="none"/>
<path d="M524.0,306.6 L524.6,305.6 L524.7,304.0 L523.7,303.0 L522.5,302.8 L521.1,303.4 L520.7,304.6 L520.7,305.6 L521.1,306.2 L521.7,306.9 L522.9,307.2 L524.0,306.6 Z" fill="#e7d6a3" stroke="none"/>
<path d="M786.3,155.9 L771.4,163.2 L756.0,174.5 L748.4,188.3 L750.2,201.5 L758.2,211.3 L761.1,221.9 L759.0,232.8 L756.4,236.0 L755.1,240.7 L758.0,247.6 L765.2,250.0 L774.6,256.9 L776.8,265.0 L780.1,269.0 L790.7,270.8 L798.4,269.0 L805.7,264.6 L800.9,227.4 L789.6,225.2 L790.0,216.8 L794.7,210.2 L790.3,206.2 L788.5,202.2 L792.9,199.7 L786.3,155.9 Z" fill="#e7d6a3" stroke="none"/>
<path d="M484.7,280.5 L476.1,280.4 L476.2,267.4 L484.9,267.6 L484.7,280.5 Z" fill="#4f8a3e" stroke="none"/>
<path d="M305.2,653.1 L297.7,648.3 L291.2,658.3 L298.7,663.1 L305.2,653.1 Z" fill="#4f8a3e" stroke="none"/>
<path d="M300.0,634.8 L292.8,630.5 L298.0,621.7 L305.2,625.9 L300.0,634.8 Z" fill="#4f8a3e" stroke="none"/>
<path d="M667.5,261.4 L672.1,257.2 L662.4,247.3 L657.9,251.5 L667.5,261.4 Z" fill="#4f8a3e" stroke="none"/>
<path d="M638.8,248.0 L648.4,238.9 L620.9,209.3 L615.9,214.0 L623.1,221.7 L618.4,226.0 L638.8,248.0 Z" fill="#4f8a3e" stroke="none"/>
<path d="M752.5,449.2 L765.0,436.9 L755.7,427.4 L751.1,432.0 L740.8,421.5 L724.0,438.1 L733.9,448.2 L742.8,439.4 L752.5,449.2 Z" fill="#4f8a3e" stroke="none"/>
<path d="M555.1,286.2 L561.5,277.1 L550.1,269.1 L543.7,278.1 L555.1,286.2 Z" fill="#4f8a3e" stroke="none"/>
<path d="M574.5,283.0 L576.1,280.7 L571.2,277.2 L569.6,279.5 L574.5,283.0 Z" fill="#4f8a3e" stroke="none"/>
<path d="M710.4,420.7 L713.1,425.8 L725.2,419.5 L722.5,414.4 L710.4,420.7 Z" fill="#4f8a3e" stroke="none"/>
<path d="M659.2,412.4 L661.5,415.7 L668.5,410.9 L666.2,407.6 L659.2,412.4 Z" fill="#4f8a3e" stroke="none"/>
<path d="M657.0,502.6 L653.0,498.3 L648.1,502.8 L652.1,507.1 L657.0,502.6 Z" fill="#4f8a3e" stroke="none"/>
<path d="M463.4,-74.5 L456.1,-76.7 L452.6,-65.5 L459.9,-63.2 L463.4,-74.5 Z" fill="#4f8a3e" stroke="none"/>
<path d="M295.0,294.9 L283.1,307.8 L288.8,313.3 L300.9,300.2 L295.0,294.9 Z" fill="#4f8a3e" stroke="none"/>
<path d="M311.8,317.8 L307.1,319.1 L302.8,322.6 L300.4,326.1 L299.4,330.6 L300.7,334.9 L303.3,338.3 L306.1,339.7 L309.2,339.6 L312.2,338.9 L315.0,338.1 L318.0,337.0 L321.7,335.5 L324.6,333.4 L327.3,331.0 L329.3,328.6 L330.3,325.3 L328.9,321.9 L326.8,320.0 L322.4,318.4 L317.6,317.8 L311.8,317.8 Z" fill="#2f7825" stroke="none"/>
<path d="M496.2,284.4 L493.2,287.9 L492.6,291.9 L492.5,297.6 L493.2,305.2 L494.1,310.5 L496.2,313.9 L501.3,317.1 L507.0,317.2 L510.0,315.3 L512.2,313.3 L515.5,309.2 L517.6,303.6 L519.2,298.5 L520.1,293.7 L519.2,289.0 L516.5,285.5 L513.4,283.2 L508.2,281.9 L501.5,281.8 L496.2,284.4 Z" fill="#2f7825" stroke="none"/>
<path d="M349.1,631.0 L343.7,634.6 L340.3,637.7 L338.1,642.4 L338.4,647.7 L340.1,650.8 L343.8,653.8 L348.4,653.9 L352.4,652.1 L356.5,648.6 L360.3,645.8 L365.0,644.1 L369.9,643.1 L373.0,641.8 L374.7,639.6 L375.5,635.4 L374.0,631.8 L371.4,628.4 L366.6,626.0 L363.1,625.5 L360.0,626.0 L352.6,629.0 L349.1,631.0 Z" fill="#2f7825" stroke="none"/>
<path d="M693.1,369.7 L688.4,369.5 L684.7,370.8 L682.6,374.3 L682.7,379.5 L684.1,384.7 L686.5,389.5 L689.0,394.0 L693.0,398.1 L697.3,401.6 L701.6,403.9 L706.3,405.2 L709.9,404.7 L713.4,402.6 L715.4,399.3 L716.1,393.9 L714.8,389.4 L711.0,385.1 L707.4,381.4 L699.3,373.8 L695.4,371.0 L693.1,369.7 Z" fill="#2f7825" stroke="none"/>
<path d="M446.1,215.6 L444.3,218.0 L443.0,220.5 L442.4,222.9 L442.1,226.3 L441.5,228.8 L439.8,231.1 L436.8,232.8 L434.5,234.2 L432.7,236.1 L431.2,238.8 L430.4,242.4 L431.1,246.1 L432.4,249.0 L434.4,251.2 L436.7,251.9 L439.3,251.3 L442.1,249.7 L444.0,246.6 L446.4,243.5 L448.8,241.1 L452.9,238.5 L457.8,235.9 L460.9,233.1 L462.8,228.7 L463.3,224.4 L462.2,220.0 L459.7,216.3 L456.3,213.7 L452.2,213.2 L448.1,214.1 L446.1,215.6 Z" fill="#2f7825" stroke="none"/>
<path d="M778.6,376.3 L774.8,373.5 L771.4,370.9 L768.6,370.4 L765.1,371.1 L762.7,372.9 L760.8,375.7 L760.0,378.2 L760.3,381.3 L761.2,384.1 L763.6,388.3 L765.6,394.4 L768.6,399.3 L772.6,404.8 L774.8,410.0 L778.2,414.0 L785.1,416.3 L790.8,415.3 L795.5,413.0 L798.3,409.2 L800.1,404.3 L800.5,399.5 L799.4,395.5 L797.2,391.6 L794.6,388.4 L791.6,385.0 L787.8,381.7 L783.3,379.1 L778.6,376.3 Z" fill="#2f7825" stroke="none"/>
<path d="M533.7,226.8 L529.5,227.7 L526.2,231.5 L524.0,235.0 L519.0,238.0 L513.9,240.8 L509.5,245.2 L508.0,252.4 L510.3,258.8 L515.0,265.0 L520.3,268.6 L525.6,269.7 L531.3,268.2 L533.9,264.7 L534.5,259.0 L535.7,253.5 L538.6,249.3 L541.9,245.8 L544.8,242.8 L546.5,238.8 L546.0,235.4 L544.1,231.8 L541.5,229.2 L537.8,227.3 L533.7,226.8 Z" fill="#2f7825" stroke="none"/>
<path d="M312.8,691.8 L315.6,689.1 L317.9,687.5 L320.2,685.8 L321.5,683.5 L322.3,681.0 L322.6,678.8 L322.1,676.4 L321.2,674.4 L319.9,672.7 L318.1,670.9 L314.8,669.5 L312.0,669.1 L309.7,669.4 L307.6,670.3 L305.8,671.1 L303.8,672.2 L302.5,673.8 L301.0,675.7 L299.4,678.6 L298.1,681.7 L296.9,684.9 L296.2,686.8 L295.2,688.4 L294.0,689.8 L292.2,691.3 L290.4,694.7 L290.4,698.4 L291.4,700.7 L293.1,702.8 L295.4,704.3 L299.2,705.4 L302.1,705.4 L304.9,704.7 L307.3,703.5 L309.1,701.7 L310.8,700.3 L311.6,697.8 L311.7,695.7 L312.0,693.6 L312.8,691.8 Z" fill="#2f7825" stroke="none"/>
<path d="M481.6,271.5 L318.4,327.0" fill="none" stroke="#ffd64a" stroke-width="5" stroke-linecap="round" stroke-linejoin="round" opacity="0.95"/>
</svg>