<svg xmlns="http://www.w3.org/2000/svg" viewBox="0 0 321 800" preserveAspectRatio="xMidYMid meet">
<rect width="100%" height="100%" fill="#143018"/>
<path d="M20.1,459.6 L20.2,453.7 L22.5,450.6 L24.4,447.7 L24.8,443.8 L24.8,439.5 L26.2,437.3 L28.0,436.4 L29.9,436.3 L32.1,437.1 L33.1,438.7 L34.0,440.7 L35.1,447.2 L35.5,450.7 L34.6,453.7 L33.3,455.3 L30.6,456.1 L29.1,455.7 L26.3,454.4 L23.1,455.5 L20.1,459.6 Z" fill="#2b5a2a" stroke="none"/>
<path d="M95.7,723.5 L98.7,731.8 L111.1,733.5 L123.6,731.8 L138.5,729.6 L145.4,727.8 L154.7,725.1 L158.8,724.9 L164.1,745.5 L169.5,757.4 L175.6,764.3 L184.9,771.8 L192.7,774.0 L199.8,775.1 L208.7,775.5 L215.7,777.0 L224.5,782.3 L235.1,796.3 L247.0,812.9 L257.8,825.6 L264.7,834.9 L269.5,820.3 L262.0,819.1 L254.2,813.4 L248.5,806.4 L241.9,795.6 L234.1,785.6 L224.5,776.2 L217.4,771.1 L214.3,766.2 L218.4,760.4 L225.5,749.9 L227.5,740.4 L226.8,726.9 L224.1,717.4 L217.5,702.4 L211.4,693.2 L203.3,686.0 L197.9,676.7 L193.7,664.5 L191.5,655.3 L185.9,634.9 L181.8,621.1 L177.8,613.0 L173.4,606.1 L109.1,566.2 L108.2,581.9 L112.7,593.8 L119.3,613.8 L125.2,634.9 L129.2,646.4 L135.4,665.5 L141.0,681.6 L145.3,696.5 L151.7,711.4 L154.9,719.2 L143.9,721.6 L131.8,723.6 L122.3,725.6 L115.7,726.6 L106.4,726.2 L95.7,723.5 Z" fill="#2b5a2a" stroke="none"/>
<path d="M263.3,83.5 L289.9,61.4 L290.0,53.3 L289.5,44.9 L285.8,31.0 L284.9,22.5 L282.1,13.5 L280.8,6.7 L277.1,-5.4 L274.5,-15.2 L271.0,-25.3 L267.7,-34.2 L262.2,-46.7 L260.0,-56.4 L260.6,-61.8 L261.7,-64.8 L264.3,-67.5 L267.3,-69.3 L269.6,-74.2 L269.3,-80.0 L266.0,-84.1 L260.3,-91.8 L256.7,-97.8 L257.3,-102.9 L260.2,-110.9 L263.1,-116.6 L267.7,-123.1 L268.7,-128.4 L267.8,-134.6 L264.4,-140.6 L258.0,-146.9 L252.9,-151.1 L249.5,-155.1 L242.9,-159.4 L235.4,-163.5 L225.4,-167.5 L221.7,-167.5 L218.5,-167.5 L214.6,-167.5 L210.9,-164.1 L208.2,-156.5 L206.7,-146.7 L204.8,-140.2 L202.7,-138.9 L198.3,-138.6 L192.2,-141.0 L189.9,-131.6 L194.0,-120.8 L200.0,-111.3 L204.2,-101.6 L206.5,-90.5 L207.1,-81.3 L207.8,-70.2 L204.8,-59.4 L202.1,-53.8 L200.4,-49.7 L200.7,-44.8 L200.7,-38.9 L202.8,-34.2 L205.4,-30.6 L207.8,-28.8 L213.9,-26.2 L217.6,-23.4 L221.9,-20.5 L227.0,-13.8 L229.3,-3.6 L231.4,8.4 L233.3,20.6 L234.3,31.1 L233.7,41.1 L232.6,53.1 L232.8,60.6 L234.0,67.8 L237.8,74.3 L243.1,78.9 L247.8,80.4 L253.5,81.9 L263.3,83.5 Z" fill="#2b5a2a" stroke="none"/>
<path d="M263.3,83.5 L268.6,88.1 L272.2,94.9 L273.9,102.5 L274.3,110.2 L272.8,119.3 L269.2,127.7 L261.8,147.0 L258.5,157.4 L256.0,167.5 L255.5,174.8 L256.4,182.3 L259.1,190.3 L262.5,203.2 L263.5,215.7 L264.4,223.1 L264.2,232.1 L262.4,243.3 L260.8,253.7 L256.4,266.1 L253.1,280.5 L249.8,301.7 L249.0,317.9 L248.4,334.6 L248.4,355.2 L246.6,364.3 L246.2,380.8 L246.3,389.6 L247.6,397.4 L249.1,406.3 L253.1,424.8 L257.2,436.0 L259.8,445.0 L261.0,448.9 L261.1,452.5 L248.7,453.7 L226.9,452.5 L196.5,453.2 L176.9,453.7 L176.2,458.0 L200.4,457.5 L220.0,456.3 L239.6,456.8 L250.6,458.0 L263.3,457.3 L269.8,456.6 L278.9,457.0 L282.2,462.5 L285.8,468.5 L285.3,470.0 L281.2,470.2 L278.1,470.4 L273.6,473.7 L273.1,478.5 L274.4,485.6 L278.0,487.7 L281.8,487.7 L284.6,486.1 L287.1,485.3 L289.2,489.4 L289.2,495.8 L289.6,502.8 L290.7,523.8 L292.0,529.5 L299.9,555.5 L305.8,579.4 L313.1,575.9 L302.8,532.6 L309.4,534.1 L348.9,560.5 L351.5,554.6 L331.5,540.9 L316.2,531.8 L308.8,527.5 L301.7,521.0 L300.0,514.4 L297.1,479.7 L295.7,460.7 L295.4,451.2 L302.1,445.8 L310.3,437.9 L315.0,429.7 L316.4,423.6 L316.8,414.2 L312.8,383.6 L310.9,371.1 L309.9,361.5 L309.9,334.9 L312.2,319.6 L315.0,306.7 L317.2,292.8 L320.2,278.2 L322.4,264.1 L324.0,255.6 L325.4,235.7 L327.4,218.0 L327.8,208.3 L329.3,199.5 L329.1,192.8 L326.8,188.8 L319.1,182.2 L312.7,174.2 L311.0,167.3 L310.9,160.8 L315.6,148.1 L321.9,136.6 L326.3,129.2 L327.9,122.8 L328.3,113.6 L326.8,103.8 L324.7,97.2 L326.3,92.5 L329.5,86.0 L328.1,79.1 L324.9,75.6 L318.8,73.3 L312.5,71.6 L306.0,72.2 L299.4,72.0 L293.8,70.0 L291.2,67.2 L289.9,61.4 L263.3,83.5 Z" fill="#2b5a2a" stroke="none"/>
<path d="M115.2,226.8 L112.5,226.6 L108.7,226.3 L107.7,225.9 L104.1,224.3 L102.4,223.3 L99.7,221.7 L95.4,218.6 L91.9,213.9 L88.9,209.1 L85.6,201.5 L85.0,195.1 L85.2,189.7 L85.2,183.5 L86.4,172.9 L86.7,164.1 L85.5,160.0 L84.6,155.0 L81.7,146.6 L79.2,136.8 L78.2,128.4 L77.9,120.9 L76.9,110.6 L73.6,99.7 L71.4,92.1 L69.2,86.4 L66.0,77.7 L63.4,72.8 L61.4,67.8 L60.3,61.2 L59.7,54.8 L58.3,47.4 L55.3,38.0 L51.6,31.8 L46.3,25.5 L39.1,16.7 L35.2,10.6 L31.8,2.3 L27.3,-7.6 L24.5,-12.0 L22.6,-16.0 L20.3,-24.3 L18.9,-32.8 L19.6,-41.1 L24.4,-51.7 L28.5,-59.0 L33.4,-66.7 L36.8,-72.1 L38.5,-77.9 L39.9,-85.6 L40.1,-92.2 L38.6,-99.3 L42.1,-103.5 L44.3,-106.2 L46.8,-110.4 L48.7,-115.5 L53.2,-120.2 L56.4,-123.3 L59.7,-125.4 L57.8,-134.0 L55.9,-142.1 L53.6,-150.3 L49.9,-161.9 L46.8,-173.0 L42.9,-183.8 L40.2,-191.2 L37.1,-203.8 L33.5,-213.9 L28.3,-228.6 L25.6,-240.3 L19.7,-257.8 L16.3,-265.2 L12.9,-269.7 L9.9,-271.4 L7.3,-272.6 L3.5,-273.9 L-0.1,-299.1 L2.9,-298.6 L5.1,-300.4 L5.8,-302.8 L5.7,-305.7 L4.3,-307.2 L1.6,-307.5 L-1.3,-307.3 L-0.7,-310.3 L3.6,-312.2 L5.7,-316.7 L8.8,-317.7 L11.4,-313.5 L14.3,-313.7 L18.1,-315.3 L20.4,-317.0 L21.8,-318.8 L21.2,-324.1 L21.0,-328.3 L21.2,-331.5 L23.4,-333.2 L27.1,-334.2 L32.6,-335.8 L33.5,-342.4 L35.6,-350.6 L36.5,-354.1 L30.5,-348.1 L27.4,-345.4 L21.0,-340.7 L23.8,-346.7 L27.3,-349.7 L31.1,-354.7 L34.4,-358.7 L37.4,-362.8 L41.4,-368.2 L47.3,-374.5 L50.5,-377.6 L53.8,-379.4 L55.8,-382.1 L60.1,-385.0 L63.8,-386.2 L66.8,-385.6 L70.4,-384.7 L73.7,-384.7 L79.1,-386.0 L83.2,-387.5 L88.5,-390.7 L94.4,-394.3 L96.2,-396.0 L100.7,-388.3 L96.0,-388.7 L90.0,-387.1 L83.0,-384.3 L79.5,-382.8 L76.0,-379.8 L72.2,-375.3 L67.9,-373.4 L61.7,-372.5 L58.9,-373.4 L55.3,-373.7 L51.5,-372.3 L47.2,-367.9 L44.5,-364.3 L41.1,-355.2 L38.6,-348.2 L37.8,-343.3 L37.0,-337.6 L37.0,-335.1 L43.6,-335.0 L46.9,-334.4 L49.1,-332.1 L49.7,-328.3 L50.4,-317.9 L50.1,-314.3 L47.5,-311.6 L42.0,-310.4 L32.9,-309.2 L28.6,-309.0 L21.2,-285.3 L27.1,-287.2 L31.0,-288.2 L33.8,-288.3 L36.5,-287.1 L37.8,-282.6 L39.2,-277.8 L39.0,-273.6 L38.0,-271.7 L36.0,-270.0 L32.7,-268.0 L25.5,-265.9 L30.2,-245.7 L33.2,-236.6 L34.6,-233.6 L38.6,-232.2 L45.1,-230.9 L49.7,-230.5 L55.1,-231.0 L54.2,-226.9 L48.7,-225.8 L43.5,-227.1 L34.6,-228.4 L43.2,-203.5 L48.3,-190.7 L52.6,-180.6 L57.8,-173.1 L62.5,-183.1 L65.0,-189.0 L72.9,-208.1 L77.3,-206.2 L71.1,-193.2 L68.1,-182.8 L65.4,-173.0 L65.6,-168.1 L68.1,-162.5 L65.8,-157.9 L63.8,-150.4 L65.2,-141.8 L70.2,-130.5 L74.9,-127.3 L79.3,-125.3 L83.7,-123.3 L87.4,-119.2 L90.7,-113.2 L94.1,-105.0 L97.2,-100.3 L100.5,-97.2 L104.5,-92.9 L108.6,-90.0 L111.7,-88.3 L113.9,-87.2 L117.0,-84.7 L118.7,-81.8 L119.0,-77.1 L117.9,-69.8 L116.3,-65.6 L122.2,-61.5 L125.3,-58.2 L126.6,-54.7 L127.0,-49.5 L126.4,-44.4 L124.5,-35.0 L122.0,-26.0 L118.2,-16.8 L113.6,-2.2 L111.2,9.8 L111.7,17.9 L113.0,30.4 L115.0,39.2 L117.6,47.8 L120.4,55.2 L124.1,60.7 L127.0,67.9 L128.4,71.8 L130.7,78.5 L131.2,83.0 L131.5,92.3 L130.5,98.1 L127.8,105.2 L137.5,101.3 L147.0,99.7 L156.7,98.7 L168.1,98.2 L180.3,98.7 L180.7,104.6 L176.7,103.3 L170.6,102.2 L163.7,101.9 L149.5,103.0 L140.2,105.0 L133.4,107.6 L130.0,109.4 L127.1,112.8 L126.5,118.2 L127.4,123.1 L129.2,135.6 L130.6,146.4 L130.9,152.4 L133.6,158.8 L137.3,162.6 L142.5,167.2 L146.9,171.5 L150.5,174.9 L154.4,176.0 L158.5,175.3 L161.1,184.7 L156.5,188.0 L155.2,193.6 L154.6,203.1 L152.4,208.4 L149.5,211.7 L146.0,215.8 L140.7,219.2 L130.5,223.9 L121.5,226.2 L115.2,226.8 Z" fill="#2b5a2a" stroke="none"/>
<path d="M235.5,1042.2 L251.4,1016.5 L256.6,1008.1 L261.5,1000.5 L265.8,992.1 L270.3,980.9 L274.1,969.4 L276.3,958.7 L278.9,946.9 L281.5,934.2 L284.2,922.5 L284.9,912.7 L284.2,905.4 L279.5,897.7 L274.3,890.3 L270.8,881.7 L267.3,872.0 L267.1,862.8 L267.3,850.6 L267.9,842.6 L266.8,838.2 L264.7,834.9 L269.5,820.3 L271.9,813.4 L274.6,807.0 L278.9,802.4 L287.2,795.7 L286.7,788.5 L287.5,783.1 L288.7,774.8 L291.6,764.7 L295.2,754.3 L299.5,744.5 L300.4,738.2 L303.5,729.8 L307.5,722.3 L311.2,711.0 L316.0,697.2 L318.9,683.4 L322.8,670.2 L325.3,660.0 L316.3,615.7 L319.5,607.6 L329.3,651.6 L333.3,635.3 L335.7,619.5 L336.7,611.3 L338.8,601.2 L338.8,597.9 L345.0,580.9 L347.3,577.4 L348.6,573.0 L349.9,568.0 L350.4,564.4 L348.9,560.5 L351.5,554.6 L354.2,553.3 L358.8,548.7 L363.9,543.6 L368.6,538.9 L375.8,535.0 L383.2,533.7 L387.9,533.5 L393.0,533.1 L399.1,536.8 L403.7,540.8 L407.4,542.8 L412.8,547.0 L417.6,555.7 L420.1,560.3 L422.2,564.2 L424.4,569.1 L426.9,574.3 L426.4,578.8 L427.2,583.7 L427.5,590.5 L424.0,596.8 L418.9,603.0 L414.7,606.4 L409.9,610.4 L405.2,614.9 L401.9,623.0 L398.8,633.1 L392.9,648.7 L388.8,660.8 L385.1,673.3 L382.1,685.0 L379.1,696.2 L376.0,712.2 L374.8,724.2 L370.3,737.3 L366.7,745.8 L364.6,752.6 L364.8,758.0 L369.1,762.9 L370.6,767.3 L369.6,772.2 L367.2,776.3 L358.5,792.7 L350.5,809.8 L346.2,820.5 L336.4,846.3 L329.6,864.9 L324.8,878.5 L321.1,887.3 L317.5,893.5 L313.9,897.8 L309.7,902.1 L305.1,904.3 L301.6,906.3 L298.5,909.9 L295.6,918.7 L289.4,944.6 L285.4,959.1 L282.0,970.1 L278.8,983.0 L278.5,986.1 L280.0,986.8 L283.4,985.3 L286.8,985.2 L289.0,986.3 L290.1,988.9 L290.1,993.3 L288.4,996.7 L285.6,997.1 L282.6,996.7 L280.1,995.7 L277.9,994.5 L276.0,995.0 L273.3,998.6 L269.4,1006.0 L263.1,1016.2 L256.3,1030.9 L255.2,1035.1 L256.9,1038.9 L259.8,1041.2 L261.3,1044.5 L260.7,1049.7 L259.6,1063.0 L258.6,1069.5 L270.1,1072.2 L279.6,1074.1 L282.3,1070.4 L287.4,1070.0 L298.8,1071.6 L307.2,1072.9 L309.5,1075.1 L310.6,1079.5 L309.2,1084.5 L306.3,1086.5 L301.8,1086.9 L287.6,1085.5 L281.7,1083.7 L279.0,1080.2 L277.8,1078.5 L268.3,1076.4 L260.2,1074.7 L257.7,1074.4 L257.9,1081.2 L256.1,1087.8 L253.4,1093.0 L249.3,1093.1 L242.9,1092.6 L236.6,1091.8 L233.7,1089.3 L233.0,1092.8 L237.1,1100.1 L240.0,1105.8 L245.4,1113.8 L250.5,1119.6 L255.5,1127.1 L258.1,1130.9 L261.3,1133.5 L262.6,1135.6 L262.9,1138.8 L261.6,1142.4 L259.4,1145.3 L256.9,1147.4 L253.7,1148.1 L250.8,1145.4 L249.9,1141.7 L251.4,1136.7 L252.9,1133.5 L252.7,1129.9 L250.2,1126.3 L244.7,1120.5 L239.4,1113.1 L235.7,1106.9 L230.4,1096.5 L218.4,1129.2 L212.6,1144.5 L203.3,1168.0 L201.0,1174.9 L202.4,1181.0 L201.2,1185.6 L198.4,1189.8 L195.6,1190.6 L192.7,1190.2 L190.2,1187.8 L189.9,1183.3 L191.7,1177.7 L193.9,1174.3 L197.0,1171.3 L212.5,1133.6 L219.5,1114.2 L224.6,1100.3 L227.4,1091.3 L229.2,1085.7 L229.6,1079.1 L227.9,1073.0 L226.3,1069.1 L223.0,1065.9 L219.2,1064.6 L235.5,1042.2 Z" fill="#2b5a2a" stroke="none"/>
<path d="M158.5,175.3 L164.2,172.9 L169.7,170.1 L173.0,167.8 L177.1,162.5 L178.7,155.8 L179.7,145.8 L180.7,104.6 L180.3,98.7 L181.5,93.7 L181.7,85.9 L179.4,82.9 L178.7,78.9 L180.3,71.3 L182.4,66.5 L185.4,64.9 L188.9,65.1 L192.5,68.1 L193.2,74.1 L191.7,80.5 L188.4,85.6 L187.2,91.0 L186.6,96.7 L186.4,106.4 L185.5,111.9 L184.2,117.9 L182.4,126.9 L182.2,134.6 L183.1,139.8 L189.8,136.8 L196.5,136.2 L201.3,139.2 L203.4,142.9 L203.7,151.2 L199.5,164.3 L197.2,175.9 L194.2,180.9 L188.4,187.8 L181.3,192.9 L179.7,201.5 L181.2,220.4 L181.7,227.8 L181.3,233.8 L187.0,239.6 L191.0,237.5 L195.6,240.3 L199.2,246.5 L201.1,252.3 L199.7,256.6 L195.1,258.3 L191.0,259.7 L187.5,258.3 L185.4,254.8 L184.5,250.0 L184.3,243.5 L180.8,239.6 L180.3,252.7 L181.7,260.8 L183.1,273.9 L181.7,283.9 L176.9,295.9 L165.6,322.9 L160.0,338.8 L156.5,350.3 L154.7,357.9 L152.9,364.7 L167.2,372.9 L172.0,379.0 L175.7,385.4 L177.1,392.1 L176.2,400.7 L172.5,408.9 L168.6,418.0 L168.3,423.9 L170.4,429.7 L174.8,438.3 L176.4,442.7 L177.5,448.7 L176.9,453.7 L176.2,458.0 L170.4,464.3 L165.1,471.7 L162.6,481.6 L167.6,501.3 L175.7,534.4 L179.6,557.4 L181.6,566.0 L182.1,572.0 L181.3,577.8 L178.1,583.9 L173.3,588.3 L169.5,590.8 L163.9,590.7 L158.6,586.9 L140.8,575.0 L125.2,565.1 L117.6,560.5 L114.8,558.6 L112.4,557.0 L108.7,554.3 L100.6,549.9 L105.1,505.2 L105.8,485.5 L106.2,468.7 L106.8,446.9 L108.6,425.0 L109.5,411.8 L111.2,401.0 L112.8,391.0 L116.7,384.2 L121.9,378.0 L128.6,372.9 L137.2,366.8 L143.1,362.2 L146.8,357.3 L148.6,354.7 L154.1,339.5 L160.8,321.6 L167.2,305.1 L172.1,293.8 L175.8,283.9 L177.5,276.0 L178.0,269.4 L176.5,258.5 L176.4,251.1 L176.1,228.2 L174.6,206.9 L174.9,195.5 L172.9,190.6 L166.9,184.3 L164.8,183.1 L162.9,183.4 L161.1,184.7 L158.5,175.3 Z" fill="#2b5a2a" stroke="none"/>
<path d="M273.7,682.4 L270.9,680.5 L266.1,680.7 L262.9,681.9 L260.9,683.8 L260.8,690.0 L261.4,695.6 L263.3,698.0 L267.6,699.1 L272.2,697.3 L273.9,695.5 L274.2,690.1 L279.2,687.6 L283.2,682.9 L287.0,676.3 L291.0,666.9 L294.7,659.9 L299.7,646.7 L303.8,637.6 L309.2,628.0 L313.7,620.0 L316.3,615.7 L319.5,607.6 L322.2,605.0 L329.8,601.4 L335.0,598.6 L338.8,597.9 L345.0,580.9 L335.9,583.9 L324.9,586.8 L320.2,587.5 L314.8,586.7 L313.1,575.9 L305.8,579.4 L306.1,585.3 L305.3,588.3 L299.4,590.3 L298.4,585.6 L296.5,583.9 L293.5,583.2 L290.1,583.5 L286.8,583.9 L283.7,585.2 L281.9,588.8 L281.6,596.7 L281.2,611.2 L282.2,616.4 L284.5,618.2 L289.7,618.8 L295.7,617.0 L298.9,612.4 L299.6,606.4 L298.9,597.6 L305.4,597.8 L309.4,601.5 L310.8,606.9 L311.6,613.2 L309.9,617.9 L299.6,635.5 L296.1,642.1 L291.5,652.2 L289.3,658.3 L286.2,667.2 L282.5,675.3 L278.0,680.9 L274.4,684.7 L273.7,682.4 Z" fill="#2b5a2a" stroke="none"/>
<path d="M235.5,1042.2 L230.3,1042.7 L223.6,1040.5 L220.2,1034.0 L219.2,1028.0 L219.3,1024.3 L221.8,1020.8 L226.8,1018.1 L234.3,1017.1 L241.2,1018.1 L251.4,1016.5 L256.6,1008.1 L252.2,1004.7 L249.2,998.5 L240.7,995.5 L230.6,995.9 L225.5,994.3 L213.9,990.4 L206.4,988.1 L197.1,985.4 L191.6,976.4 L183.2,963.2 L174.7,944.7 L167.9,926.2 L163.2,905.2 L156.7,885.5 L147.5,860.8 L139.0,840.1 L130.5,821.6 L122.5,804.2 L112.5,782.2 L105.5,762.7 L101.1,747.8 L98.4,737.1 L98.7,731.8 L95.7,723.5 L93.8,707.1 L83.9,672.7 L72.2,644.5 L108.2,581.9 L109.1,566.2 L111.5,559.9 L114.8,558.6 L108.7,554.3 L100.6,549.9 L90.2,578.9 L78.6,595.8 L64.4,613.4 L58.8,588.4 L50.7,549.2 L44.2,529.8 L36.5,522.3 L29.8,520.3 L30.8,512.1 L31.0,507.1 L33.9,505.3 L35.9,502.0 L35.4,495.9 L32.9,489.9 L29.2,488.2 L26.0,488.2 L23.1,491.1 L21.4,493.1 L19.1,493.8 L18.8,502.4 L22.2,503.7 L24.4,505.7 L24.8,509.6 L24.8,516.9 L22.9,526.5 L20.4,532.3 L18.4,536.8 L18.9,549.9 L22.8,558.0 L24.8,567.4 L26.5,581.1 L28.8,593.8 L30.8,601.7 L33.8,614.9 L34.9,622.0 L32.9,629.3 L27.7,643.4 L20.1,661.6 L22.9,662.9 L28.5,651.2 L32.7,641.5 L35.6,635.4 L38.3,633.0 L40.9,635.1 L42.2,644.8 L42.7,659.8 L39.6,686.0 L33.7,705.3 L24.7,727.0 L20.5,737.2 L20.9,747.1 L24.2,776.9 L28.3,799.5 L36.0,810.5 L45.4,821.8 L47.5,830.4 L55.9,839.2 L65.5,843.3 L78.3,875.6 L85.4,896.0 L101.6,932.3 L107.9,951.2 L115.0,972.0 L118.1,981.0 L115.6,985.6 L110.0,987.7 L104.1,991.5 L99.5,993.6 L95.3,998.8 L87.3,1003.9 L80.6,1006.0 L68.2,1003.9 L55.4,1000.7 L42.6,996.1 L41.1,1002.0 L54.1,1008.7 L68.4,1013.5 L90.2,1014.4 L104.7,1014.2 L113.9,1016.3 L124.9,1018.2 L128.8,1024.7 L130.9,1034.1 L132.6,1050.0 L135.8,1060.5 L139.6,1071.2 L147.7,1078.4 L155.7,1084.0 L167.0,1084.3 L180.7,1083.0 L189.3,1080.3 L198.5,1076.9 L205.7,1076.5 L210.1,1078.0 L212.4,1080.9 L212.4,1084.0 L210.5,1089.5 L213.2,1092.6 L218.2,1092.9 L227.4,1091.3 L229.2,1085.7 L222.7,1083.4 L220.1,1081.5 L217.6,1077.0 L214.4,1074.1 L213.1,1071.6 L214.1,1068.1 L216.4,1065.9 L219.2,1064.6 L235.5,1042.2 Z" fill="#2b5a2a" stroke="none"/>
<path d="M149.5,211.7 L155.2,214.3 L156.1,216.6 L152.9,224.7 L146.9,235.9 L141.9,244.8 L136.6,255.4 L133.5,262.6 L130.3,271.4 L128.2,282.5 L127.8,291.4 L126.9,299.4 L126.0,311.0 L124.7,326.1 L122.7,338.5 L118.8,343.6 L116.6,345.1 L112.8,391.0 L116.7,384.2 L121.9,378.0 L128.6,372.9 L126.9,369.6 L126.3,360.2 L127.1,349.9 L129.0,336.9 L130.6,322.7 L131.8,310.3 L132.6,301.5 L132.9,292.0 L134.4,281.3 L135.9,272.3 L138.3,265.3 L141.6,257.8 L145.6,250.1 L149.9,238.8 L154.4,230.7 L157.4,224.7 L161.4,217.5 L165.2,216.2 L170.6,216.8 L173.4,219.0 L176.1,228.2 L174.6,206.9 L174.9,195.5 L172.9,190.6 L166.9,184.3 L164.8,183.1 L162.9,183.4 L161.1,184.7 L156.5,188.0 L155.2,193.6 L154.6,203.1 L152.4,208.4 L149.5,211.7 Z" fill="#2b5a2a" stroke="none"/>
<path d="M112.5,226.6 L114.2,230.4 L116.0,238.0 L116.7,245.2 L117.5,253.8 L117.1,259.3 L115.9,255.2 L114.4,247.2 L113.2,241.1 L111.1,236.1 L107.7,225.9 L102.4,223.3 L103.8,228.3 L106.1,234.1 L108.1,240.9 L110.4,248.6 L112.3,256.5 L114.0,261.2 L115.0,265.8 L114.8,269.5 L112.5,276.7 L110.0,285.1 L105.6,298.1 L102.1,307.1 L100.4,308.3 L103.7,319.2 L107.0,311.4 L109.5,301.2 L111.5,292.8 L113.1,285.4 L114.6,280.2 L115.8,277.2 L116.9,276.6 L118.9,280.5 L121.8,288.0 L124.9,295.9 L126.9,299.4 L127.8,291.4 L124.4,285.2 L121.9,277.6 L120.4,273.8 L120.3,270.0 L120.6,263.8 L120.8,256.0 L120.8,251.1 L120.5,245.8 L120.2,240.5 L119.9,234.7 L120.0,229.7 L121.5,226.2 L112.5,226.6 Z" fill="#2b5a2a" stroke="none"/>
<path d="M112.8,391.0 L107.7,381.9 L105.7,371.7 L103.2,361.8 L103.4,353.3 L104.1,348.9 L103.5,341.6 L102.3,337.3 L100.9,331.6 L99.7,325.8 L98.5,318.9 L96.3,311.1 L93.2,305.7 L84.2,291.1 L76.8,278.8 L72.2,269.7 L67.3,257.2 L62.0,243.6 L58.9,233.3 L55.9,223.6 L56.4,209.6 L57.2,198.2 L60.5,183.9 L64.2,171.1 L69.9,158.6 L75.5,145.3 L79.2,136.8 L81.7,146.6 L76.5,155.6 L71.0,166.1 L67.6,173.2 L67.1,175.5 L71.7,177.0 L76.9,179.8 L85.2,183.5 L85.2,189.7 L77.2,185.5 L71.7,181.9 L67.2,180.8 L65.2,182.0 L63.7,186.5 L60.9,199.1 L60.3,209.9 L60.2,220.5 L60.2,223.7 L61.7,231.2 L65.5,241.1 L68.7,249.9 L71.8,258.0 L75.1,267.4 L79.8,275.8 L83.5,282.3 L88.1,290.2 L92.1,296.8 L95.4,302.6 L100.4,308.3 L103.7,319.2 L104.6,326.1 L105.8,333.9 L107.2,338.6 L110.3,342.3 L114.1,344.5 L116.6,345.1 L112.8,391.0 Z" fill="#2b5a2a" stroke="none"/>
<path d="M186.7,72.2 L129.8,517.6 L191.2,727.8" fill="none" stroke="#4e8b39" stroke-width="56.2" stroke-linecap="round" stroke-linejoin="round" opacity="0.85"/>
<path d="M275.1,867.7 L275.2,853.8 L277.7,838.7 L280.5,828.4 L283.2,818.0 L287.5,810.7 L293.0,803.2 L295.5,796.1 L296.9,783.6 L298.0,772.9 L300.5,763.0 L303.2,755.7 L307.0,743.2 L320.1,691.9 L336.2,643.9 L340.1,623.9 L343.5,618.4 L348.3,614.6 L358.4,608.6 L359.5,606.4 L359.9,603.9 L358.3,596.4 L356.3,589.2 L355.5,582.2 L355.5,574.5 L357.5,567.0 L361.6,558.3 L368.0,550.0 L374.1,546.1 L383.4,544.5 L392.5,546.6 L401.6,551.5 L408.9,558.4 L412.5,565.5 L414.2,572.1 L413.8,578.3 L410.9,583.4 L407.3,587.9 L402.7,596.1 L400.6,604.7 L398.0,614.4 L396.7,621.3 L394.3,629.3 L385.7,649.7 L377.4,679.4 L372.8,700.5 L370.6,709.9 L369.5,723.2 L366.1,734.7 L362.0,742.4 L356.8,747.4 L355.2,750.6 L354.9,754.8 L357.0,762.4 L358.7,768.0 L358.2,774.7 L354.7,784.9 L344.8,804.6 L329.5,843.9 L324.3,862.5 L319.8,875.2 L313.7,885.5 L306.8,895.2 L302.2,899.3 L297.3,901.8 L293.1,901.8 L289.2,901.2 L285.8,898.9 L281.6,893.9 L277.2,885.2 L275.2,875.9 L275.1,867.7 Z" fill="#5a9540" stroke="none"/>
<path d="M81.6,703.0 L85.8,705.0 L89.3,710.5 L90.4,723.2 L88.2,734.5 L86.9,741.4 L87.2,746.4 L90.1,759.2 L94.8,771.0 L102.0,786.3 L110.9,800.2 L122.6,822.6 L145.5,871.5 L149.8,881.7 L152.7,889.1 L155.4,897.0 L157.9,907.8 L161.5,923.5 L170.4,948.0 L183.7,976.8 L185.0,986.3 L184.4,990.5 L181.8,992.5 L165.8,990.2 L143.7,988.2 L135.9,983.2 L131.4,975.7 L126.5,964.7 L104.1,912.9 L89.1,873.3 L75.1,832.1 L58.1,795.2 L54.2,781.6 L53.6,768.6 L54.0,755.4 L54.5,744.9 L56.9,732.4 L60.8,722.6 L67.8,712.4 L71.0,709.5 L73.9,706.8 L77.5,704.4 L81.6,703.0 Z" fill="#5a9540" stroke="none"/>
<path d="M264.3,306.9 L264.4,285.6 L266.0,264.1 L268.9,248.7 L269.2,244.4 L270.5,239.3 L271.4,233.8 L272.6,226.9 L272.9,220.8 L272.3,213.2 L271.4,206.6 L264.6,178.8 L263.4,171.3 L265.1,162.2 L267.8,153.4 L272.0,143.7 L277.3,134.4 L282.5,124.9 L285.8,116.9 L288.6,111.7 L291.6,106.5 L294.4,102.1 L299.6,97.0 L307.0,94.9 L313.6,94.7 L318.0,97.6 L321.3,104.6 L319.1,123.0 L313.7,138.8 L306.8,153.2 L304.9,159.0 L304.9,164.1 L307.4,179.4 L310.8,187.0 L317.7,200.7 L319.5,207.4 L320.1,217.3 L319.6,229.1 L315.4,257.2 L311.9,275.9 L310.3,287.0 L309.5,294.7 L308.5,303.7 L306.4,316.0 L302.8,342.7 L301.2,359.9 L301.1,369.4 L302.4,380.8 L304.8,394.4 L307.6,407.0 L307.3,416.0 L305.1,423.9 L301.6,432.1 L295.5,438.7 L285.8,442.3 L278.7,442.5 L272.2,440.4 L267.3,434.2 L263.2,423.4 L260.3,412.4 L257.9,395.8 L257.5,385.2 L259.4,367.3 L262.9,336.0 L264.3,306.9 Z" fill="#5a9540" stroke="none"/>
<path d="M125.5,607.6 L125.1,600.9 L126.8,597.2 L130.1,595.2 L136.0,594.9 L142.6,597.6 L163.0,608.3 L169.2,612.1 L172.2,615.4 L176.3,621.4 L178.8,627.5 L183.2,649.9 L190.0,672.5 L195.0,686.8 L199.5,696.8 L204.2,708.3 L210.6,722.3 L213.4,731.4 L213.4,740.3 L210.2,747.3 L205.7,752.6 L199.9,755.9 L194.4,756.9 L186.2,754.9 L179.5,752.5 L174.9,747.4 L171.0,740.7 L168.3,732.6 L163.4,716.0 L158.2,699.7 L156.0,693.0 L148.8,670.3 L141.2,649.2 L135.8,635.1 L129.0,618.3 L125.5,607.6 Z" fill="#5a9540" stroke="none"/>
<path d="M122.1,391.3 L127.1,384.3 L132.2,376.4 L140.1,369.9 L144.6,368.4 L151.2,369.1 L155.9,372.0 L160.0,374.5 L163.0,378.3 L165.7,382.6 L166.8,386.8 L166.7,391.8 L165.6,396.5 L161.7,403.0 L159.8,409.3 L158.7,414.6 L160.4,421.5 L163.1,430.1 L166.6,440.1 L167.2,446.4 L166.2,453.2 L161.6,461.2 L156.2,468.7 L153.6,474.6 L152.1,482.1 L152.9,493.6 L174.5,567.7 L175.0,574.1 L173.7,579.3 L171.3,581.8 L168.9,583.0 L166.0,583.6 L161.6,584.1 L156.9,582.4 L117.5,556.7 L112.0,551.4 L109.8,546.5 L109.7,542.0 L111.8,522.1 L113.1,504.9 L113.9,479.6 L114.9,452.2 L115.9,429.6 L116.2,413.3 L116.6,407.2 L118.0,401.6 L119.6,396.2 L122.1,391.3 Z" fill="#5a9540" stroke="none"/>
<path d="M74.4,84.9 L69.9,72.7 L65.4,61.3 L63.3,46.9 L57.5,33.7 L50.1,24.2 L41.8,14.0 L32.4,-7.2 L29.8,-24.0 L28.4,-36.7 L30.1,-50.1 L38.9,-66.1 L46.2,-84.7 L50.8,-97.3 L54.2,-107.7 L57.7,-114.6 L62.3,-119.4 L65.1,-121.6 L70.4,-123.1 L74.0,-121.4 L79.7,-116.2 L90.6,-101.5 L99.1,-91.9 L103.5,-88.0 L106.7,-85.2 L108.8,-82.2 L109.9,-77.5 L108.5,-73.4 L106.8,-69.2 L106.8,-64.7 L108.7,-61.7 L112.9,-59.1 L116.1,-57.5 L118.5,-53.1 L118.3,-47.1 L115.8,-32.5 L106.1,-7.4 L102.8,2.2 L101.6,12.2 L104.2,25.1 L109.0,44.1 L114.6,55.4 L118.6,63.3 L124.1,73.7 L126.3,82.8 L125.8,94.2 L122.9,108.8 L122.5,124.5 L123.8,140.8 L127.4,158.5 L133.1,169.0 L140.0,177.2 L144.6,186.2 L145.9,193.5 L144.7,200.6 L141.4,204.8 L135.7,209.8 L126.5,214.1 L117.6,215.9 L109.0,215.6 L101.6,212.0 L96.5,205.4 L94.7,198.9 L94.3,189.5 L95.5,180.9 L97.8,172.4 L98.9,163.0 L96.5,152.3 L89.7,136.6 L84.1,120.2 L78.2,101.0 L74.4,84.9 Z" fill="#5a9540" stroke="none"/>
<path d="M181.6,72.9 L182.9,69.2 L185.9,67.8 L189.0,68.3 L190.9,69.9 L191.0,74.4 L189.5,81.0 L187.9,82.3 L184.7,82.7 L181.4,81.4 L180.8,78.3 L181.6,72.9 Z" fill="#5a9540" stroke="none"/>
<path d="M187.2,144.7 L188.9,141.5 L191.2,139.5 L193.8,138.9 L196.6,139.8 L198.3,141.1 L199.9,143.2 L200.8,146.8 L200.2,150.1 L194.0,174.2 L192.2,178.6 L189.7,181.1 L186.4,181.0 L183.7,179.2 L182.6,174.9 L182.5,169.8 L183.1,163.5 L185.2,153.7 L187.2,144.7 Z" fill="#5a9540" stroke="none"/>
<path d="M186.7,246.4 L187.8,242.8 L190.1,240.6 L193.2,240.8 L195.1,242.9 L196.7,245.6 L197.6,248.2 L198.8,252.2 L198.4,254.5 L196.8,256.1 L193.0,257.2 L188.4,256.0 L187.1,253.8 L186.4,251.1 L186.7,246.4 Z" fill="#5a9540" stroke="none"/>
<path d="M23.0,533.3 L24.9,528.6 L26.9,527.4 L34.6,526.6 L36.2,526.8 L37.3,527.9 L47.3,566.9 L50.5,580.6 L52.1,587.2 L53.9,595.5 L55.3,604.6 L56.9,611.1 L59.1,620.6 L58.8,624.9 L56.5,627.1 L45.7,629.5 L42.3,629.0 L40.5,628.0 L32.9,590.7 L28.6,569.5 L23.0,533.3 Z" fill="#5a9540" stroke="none"/>
<path d="M26.6,490.3 L28.1,489.7 L30.0,489.9 L31.8,491.0 L32.8,492.4 L33.5,494.0 L34.4,497.2 L34.7,500.5 L34.1,503.0 L32.3,504.7 L29.4,505.3 L27.7,504.7 L25.8,503.4 L24.0,500.7 L23.5,497.8 L23.6,494.6 L24.3,492.2 L25.4,491.1 L26.6,490.3 Z" fill="#5a9540" stroke="none"/>
<path d="M290.1,615.6 L286.9,615.6 L284.0,614.0 L283.2,609.0 L283.6,602.5 L283.9,597.0 L283.7,591.8 L284.1,588.4 L285.5,586.0 L288.8,585.1 L291.5,584.5 L294.6,584.9 L297.0,587.5 L297.5,593.3 L297.4,598.4 L297.2,603.0 L296.8,609.1 L296.5,613.3 L294.9,615.0 L292.4,615.9 L290.1,615.6 Z" fill="#5a9540" stroke="none"/>
<path d="M275.3,478.4 L275.3,481.2 L275.9,484.0 L276.9,485.5 L278.3,486.0 L279.9,486.2 L282.1,485.7 L283.8,485.0 L285.0,482.2 L285.4,479.3 L285.5,476.1 L284.5,474.1 L282.9,472.6 L281.1,472.3 L278.5,472.6 L277.2,473.4 L276.1,474.7 L275.3,476.4 L275.3,478.4 Z" fill="#5a9540" stroke="none"/>
<path d="M242.2,69.1 L239.8,62.1 L239.6,56.4 L238.1,46.6 L238.1,31.3 L237.1,13.3 L236.5,-0.3 L235.7,-13.2 L233.9,-25.8 L232.6,-35.8 L229.8,-40.9 L225.4,-44.9 L220.3,-48.5 L216.7,-50.8 L214.6,-55.2 L212.4,-61.3 L213.1,-78.2 L212.4,-90.7 L211.4,-100.0 L208.8,-108.3 L204.1,-115.6 L202.0,-121.3 L202.0,-127.0 L204.1,-131.0 L206.7,-138.1 L207.8,-144.2 L209.3,-151.2 L212.1,-158.0 L214.9,-160.7 L218.0,-162.5 L222.9,-162.6 L233.9,-157.9 L239.1,-154.2 L244.0,-149.9 L247.7,-145.6 L251.5,-141.1 L254.2,-138.4 L257.4,-135.6 L259.1,-132.8 L260.3,-129.6 L260.3,-126.0 L258.3,-120.3 L255.2,-113.0 L250.9,-106.3 L249.6,-100.3 L250.8,-94.4 L255.0,-88.1 L258.4,-83.6 L260.5,-79.1 L260.6,-73.9 L258.8,-69.6 L256.4,-66.8 L254.5,-63.6 L252.6,-60.5 L251.3,-55.8 L251.7,-50.6 L252.7,-44.3 L255.9,-30.0 L263.7,-16.7 L268.6,-3.3 L272.7,18.6 L276.1,31.8 L280.6,47.1 L281.7,53.7 L281.3,61.4 L279.8,66.3 L274.1,71.2 L265.7,73.7 L257.0,74.7 L251.1,73.9 L245.9,72.5 L242.2,69.1 Z" fill="#5a9540" stroke="none"/>
<path d="M25.8,442.9 L26.1,447.7 L26.7,451.2 L27.5,453.3 L29.3,454.5 L32.7,453.5 L33.8,451.4 L33.6,447.8 L32.6,442.1 L32.1,440.0 L30.4,438.7 L28.5,438.5 L27.0,439.0 L26.2,440.4 L25.8,442.9 Z" fill="#5a9540" stroke="none"/>
<path d="M262.8,684.8 L262.8,690.0 L263.0,693.8 L264.0,696.2 L265.8,696.9 L268.6,697.3 L271.2,696.2 L272.8,694.1 L272.8,689.3 L272.5,685.0 L270.7,683.2 L268.3,682.6 L265.7,682.6 L263.7,683.0 L262.8,684.8 Z" fill="#5a9540" stroke="none"/>
<path d="M-92.3,709.9 L-116.9,714.7 L-104.9,804.5 L-48.0,800.0 L-52.5,733.6 L-69.5,733.4 L-88.5,729.7 L-92.3,709.9 Z" fill="#5a9540" stroke="none"/>
<path d="M282.2,794.8 L283.8,793.4 L285.8,792.6 L287.4,792.1 L289.2,792.4 L290.1,793.6 L290.4,795.4 L290.3,797.4 L289.5,799.3 L287.9,800.4 L286.4,800.4 L284.5,799.8 L282.2,799.0 L280.0,799.5 L277.6,799.9 L276.0,798.9 L275.3,797.1 L276.2,795.0 L278.2,794.3 L279.8,794.9 L282.2,794.8 Z" fill="#e7d6a3" stroke="none"/>
<path d="M358.5,754.8 L359.7,752.3 L361.1,750.9 L362.6,750.3 L364.1,749.7 L366.4,749.7 L368.2,750.8 L369.3,752.9 L369.5,755.1 L368.8,757.3 L368.2,759.0 L367.0,760.2 L365.1,761.0 L363.5,760.7 L360.9,759.6 L359.6,758.2 L358.8,756.6 L358.5,754.8 Z" fill="#e7d6a3" stroke="none"/>
<path d="M107.9,91.5 L110.6,86.9 L113.3,84.7 L115.6,84.2 L119.5,84.9 L121.0,86.6 L121.7,89.5 L121.8,94.4 L120.8,97.4 L118.8,100.6 L116.0,102.8 L113.1,103.5 L110.6,102.8 L108.4,100.9 L107.4,98.4 L107.3,95.0 L107.9,91.5 Z" fill="#e7d6a3" stroke="none"/>
<path d="M350.3,595.4 L351.7,594.6 L353.2,594.6 L354.7,596.3 L355.8,598.5 L356.5,600.4 L357.0,602.4 L356.7,603.9 L355.6,605.5 L354.1,606.6 L352.6,606.6 L351.4,605.8 L350.7,604.8 L350.6,602.1 L350.6,600.3 L349.8,598.2 L349.6,596.6 L350.3,595.4 Z" fill="#e7d6a3" stroke="none"/>
<path d="M285.6,84.6 L286.2,82.4 L287.4,81.0 L288.7,79.8 L291.1,79.4 L293.6,79.7 L296.1,81.3 L297.3,83.7 L297.5,85.5 L297.1,87.8 L295.6,89.3 L292.6,90.7 L289.4,90.7 L288.2,90.1 L287.0,89.2 L286.3,88.0 L285.7,86.1 L285.6,84.6 Z" fill="#e7d6a3" stroke="none"/>
<path d="M311.4,83.0 L313.3,81.5 L316.1,80.9 L318.4,81.0 L319.7,81.7 L320.3,82.8 L320.6,84.1 L320.5,85.3 L319.7,86.8 L318.2,88.0 L315.4,88.9 L313.3,89.0 L311.5,88.5 L310.7,87.6 L310.2,86.6 L310.3,85.3 L310.4,83.9 L311.4,83.0 Z" fill="#e7d6a3" stroke="none"/>
<path d="M84.5,91.3 L85.5,86.3 L86.5,83.8 L88.2,82.5 L91.3,82.2 L94.1,83.0 L96.1,84.3 L98.6,87.6 L99.4,90.3 L99.5,92.8 L99.0,97.6 L97.7,100.1 L95.3,102.0 L92.7,102.4 L89.7,101.9 L87.6,100.6 L85.7,98.4 L84.4,95.5 L84.5,91.3 Z" fill="#e7d6a3" stroke="none"/>
<path d="M318.2,196.2 L321.4,196.6 L323.2,196.1 L324.1,195.0 L324.6,193.3 L324.0,191.9 L322.7,191.0 L320.9,190.6 L319.0,191.1 L316.2,192.6 L314.9,192.6 L312.0,192.5 L310.4,192.6 L309.1,193.2 L308.1,194.4 L307.7,195.7 L307.9,196.9 L308.9,197.8 L309.9,198.2 L311.7,198.1 L313.0,197.6 L314.7,196.9 L316.4,196.4 L318.2,196.2 Z" fill="#e7d6a3" stroke="none"/>
<path d="M306.2,736.9 L307.0,737.8 L308.3,738.6 L310.0,738.6 L310.9,738.1 L311.8,737.2 L312.5,736.0 L312.3,734.8 L312.3,734.0 L311.3,733.1 L310.0,732.6 L308.5,732.7 L307.5,733.2 L306.6,733.8 L306.1,734.7 L306.0,735.7 L306.2,736.9 Z" fill="#e7d6a3" stroke="none"/>
<path d="M172.4,-11.4 L169.9,-14.9 L171.5,-17.2 L172.6,-19.9 L171.9,-22.4 L169.7,-22.7 L163.9,-29.2 L165.7,-30.8 L167.8,-32.6 L167.8,-34.4 L168.5,-36.7 L166.7,-38.6 L164.5,-37.1 L161.3,-36.2 L154.1,-54.2 L158.3,-55.9 L162.2,-58.4 L166.1,-57.4 L168.2,-57.7 L170.5,-57.2 L172.3,-59.2 L174.2,-63.2 L174.2,-65.2 L172.6,-66.8 L174.8,-68.0 L175.7,-70.9 L175.3,-72.8 L175.1,-75.7 L177.2,-77.0 L180.4,-77.3 L181.6,-77.2 L183.7,-77.8 L185.5,-76.7 L187.1,-76.4 L188.6,-75.9 L190.0,-73.4 L191.2,-71.0 L191.3,-68.4 L190.6,-66.4 L192.7,-64.6 L193.4,-62.5 L193.6,-59.4 L191.7,-57.8 L189.2,-56.0 L185.3,-54.5 L183.9,-52.7 L182.9,-49.8 L181.5,-47.0 L180.3,-43.4 L177.9,-41.0 L176.7,-39.2 L175.3,-37.1 L173.2,-36.7 L171.7,-35.0 L173.0,-33.7 L175.3,-32.8 L176.9,-30.7 L178.4,-27.2 L180.2,-27.5 L182.1,-25.0 L184.0,-19.6 L183.9,-16.5 L181.7,-14.7 L179.0,-13.6 L176.5,-14.4 L174.3,-13.4 L172.4,-11.4 Z" fill="#e7d6a3" stroke="none"/>
<path d="M170.0,33.2 L171.1,25.5 L172.1,25.2 L173.4,25.5 L175.2,25.5 L176.1,24.7 L177.0,23.0 L177.4,21.5 L177.0,19.8 L175.9,18.4 L174.8,17.5 L173.6,16.8 L172.6,16.2 L175.0,10.2 L176.0,10.7 L176.6,11.7 L177.6,13.5 L178.1,15.0 L178.9,15.7 L180.0,15.6 L181.0,14.7 L182.0,14.5 L182.5,16.1 L183.1,17.0 L184.1,17.5 L184.7,19.4 L185.0,20.5 L182.9,22.3 L182.8,23.7 L183.1,25.7 L182.7,27.5 L182.5,29.3 L181.5,29.1 L179.7,27.8 L178.0,27.8 L176.1,28.6 L174.8,30.3 L174.2,32.2 L174.8,34.0 L173.7,35.4 L172.2,35.1 L171.5,33.7 L170.0,33.2 Z" fill="#e7d6a3" stroke="none"/>
<path d="M175.0,10.2 L174.3,8.6 L172.7,8.6 L170.4,8.7 L168.3,8.1 L166.7,6.9 L165.8,5.0 L165.8,1.9 L165.7,-0.4 L167.0,-2.2 L168.5,-3.5 L169.2,-4.9 L170.7,-6.3 L170.5,-8.1 L170.7,-9.5 L172.4,-11.4 L169.9,-14.9 L167.8,-15.0 L166.2,-15.0 L164.9,-16.4 L164.7,-17.6 L166.6,-18.5 L166.9,-20.3 L167.0,-21.6 L168.4,-22.0 L169.7,-22.7 L163.9,-29.2 L161.7,-28.1 L160.4,-28.9 L158.9,-29.2 L158.0,-30.4 L157.6,-31.7 L157.7,-33.7 L158.4,-34.9 L159.3,-36.0 L161.3,-36.2 L154.1,-54.2 L153.2,-52.5 L151.5,-53.6 L151.2,-52.8 L150.1,-52.2 L150.0,-51.4 L150.6,-49.9 L149.3,-49.0 L147.7,-48.9 L146.7,-48.3 L146.5,-46.9 L146.1,-46.3 L145.1,-45.5 L145.8,-43.9 L145.8,-42.4 L144.9,-41.0 L144.0,-39.9 L144.0,-38.5 L143.2,-37.6 L142.5,-36.6 L142.6,-34.8 L143.3,-32.2 L143.5,-30.5 L145.1,-29.4 L145.0,-28.0 L145.4,-26.9 L146.1,-25.4 L147.5,-24.3 L148.2,-22.9 L148.8,-22.0 L149.7,-20.9 L149.9,-19.9 L150.6,-17.7 L149.5,-17.0 L148.6,-15.4 L148.7,-14.0 L148.6,-12.4 L149.5,-11.8 L149.7,-10.5 L150.7,-10.1 L152.0,-10.0 L152.3,-8.9 L152.5,-7.2 L152.9,-5.8 L152.3,-4.7 L153.3,-3.9 L153.2,-2.4 L154.7,-1.3 L156.4,-1.2 L157.8,-1.4 L158.4,-2.1 L158.6,-3.5 L158.9,-4.4 L160.3,-4.6 L160.9,-4.1 L162.1,-4.0 L162.8,-3.3 L162.6,-1.3 L162.5,0.4 L162.4,1.7 L161.3,2.7 L160.6,3.7 L160.1,5.0 L160.3,6.5 L161.0,8.4 L162.6,9.5 L163.1,10.9 L162.4,12.5 L160.5,13.9 L159.0,14.2 L158.0,13.0 L156.6,13.5 L154.9,13.1 L154.0,11.8 L154.4,10.5 L156.1,10.2 L156.6,9.5 L156.5,8.1 L156.8,6.8 L156.3,5.7 L154.4,5.4 L153.5,6.6 L152.1,6.7 L151.8,5.3 L152.0,4.0 L150.5,3.2 L149.2,2.3 L147.8,1.7 L147.7,0.6 L147.7,-1.2 L146.5,-2.2 L145.0,-2.6 L143.6,-1.2 L143.7,0.5 L145.1,2.6 L147.5,4.2 L148.3,5.1 L149.4,6.6 L150.2,8.4 L151.1,10.5 L150.8,11.8 L150.4,13.3 L149.9,14.7 L149.2,16.1 L148.2,17.2 L147.6,18.2 L145.6,19.7 L145.6,20.8 L145.2,23.3 L144.4,25.0 L142.9,27.4 L143.2,29.2 L143.0,30.4 L142.2,31.8 L141.5,33.0 L140.7,34.8 L141.3,36.6 L142.5,37.3 L144.1,37.5 L145.4,38.4 L146.7,39.9 L148.3,38.5 L149.5,37.6 L151.7,37.7 L152.1,38.5 L152.5,40.0 L154.3,40.9 L155.6,41.2 L156.8,40.5 L157.3,39.4 L158.8,39.9 L160.2,37.7 L161.3,38.0 L160.7,35.7 L161.8,35.1 L162.9,34.8 L164.1,34.0 L165.7,33.4 L166.8,33.4 L168.1,33.2 L170.0,33.2 L171.1,25.5 L169.7,24.4 L168.9,23.3 L167.7,22.5 L168.0,20.6 L167.8,19.2 L168.8,18.3 L168.8,17.1 L169.4,16.8 L170.6,17.2 L171.3,16.4 L172.6,16.2 L175.0,10.2 Z" fill="#e7d6a3" stroke="none"/>
<path d="M229.2,472.0 L227.1,468.2 L226.3,463.8 L226.1,460.9 L221.1,460.4 L221.1,463.5 L219.9,466.0 L219.8,468.5 L219.2,470.2 L217.0,471.0 L215.7,473.7 L217.1,478.2 L216.7,481.8 L218.1,484.0 L220.9,484.2 L223.0,484.9 L224.3,486.4 L226.7,485.0 L228.4,483.6 L229.9,483.8 L231.8,484.3 L235.7,482.7 L238.5,483.6 L241.4,483.2 L243.3,483.2 L245.0,484.6 L246.5,485.0 L249.4,483.8 L251.4,482.2 L253.2,480.9 L256.9,477.5 L252.3,478.0 L249.4,477.0 L247.2,478.9 L245.1,478.9 L242.1,479.2 L239.7,478.7 L238.2,476.9 L236.8,476.1 L235.6,475.7 L232.6,475.1 L229.2,472.0 Z" fill="#e7d6a3" stroke="none"/>
<path d="M252.2,465.4 L254.6,464.5 L257.1,465.3 L258.8,465.9 L259.7,467.3 L260.5,468.7 L260.5,470.0 L260.3,471.8 L260.1,472.9 L261.7,473.6 L262.6,472.1 L264.0,471.3 L265.6,470.4 L265.1,468.2 L264.8,465.4 L265.1,463.6 L265.1,461.9 L262.5,461.6 L260.8,460.4 L259.5,459.2 L257.6,459.4 L256.5,460.1 L256.0,461.5 L253.5,462.3 L250.9,462.9 L251.7,464.3 L252.2,465.4 Z" fill="#e7d6a3" stroke="none"/>
<path d="M170.8,232.5 L171.0,230.7 L171.1,228.2 L170.2,226.4 L169.1,225.6 L167.8,225.9 L165.6,227.2 L163.8,227.8 L163.5,229.9 L163.8,231.5 L163.6,233.8 L163.0,235.0 L161.5,235.5 L160.0,235.5 L158.9,236.9 L156.7,237.9 L154.8,238.8 L152.4,239.7 L152.0,241.0 L153.1,241.9 L153.7,243.2 L153.2,244.4 L152.7,246.5 L153.1,247.5 L154.3,249.1 L155.1,250.2 L154.9,251.0 L153.7,251.8 L152.9,252.4 L153.1,254.5 L152.6,255.4 L150.7,256.5 L147.9,257.9 L145.9,259.1 L145.8,260.1 L146.3,261.9 L146.6,263.0 L145.6,264.3 L145.4,265.1 L145.0,266.4 L144.9,268.3 L144.6,269.0 L144.8,270.9 L144.6,272.6 L145.5,274.6 L146.8,275.4 L148.1,275.1 L150.9,273.2 L152.2,272.2 L153.7,272.4 L152.9,274.2 L151.0,275.8 L149.4,277.3 L149.2,279.4 L150.0,280.1 L151.6,280.9 L151.8,282.3 L150.5,283.4 L151.2,285.0 L169.2,236.9 L170.8,232.5 Z" fill="#e7d6a3" stroke="none"/>
<path d="M169.2,236.9 L168.9,239.4 L169.0,241.1 L170.0,242.0 L171.2,243.0 L171.6,244.4 L170.1,246.9 L169.4,248.5 L169.9,249.5 L169.4,251.1 L168.1,252.2 L167.6,254.4 L166.8,256.2 L166.7,258.4 L167.3,260.6 L168.8,262.0 L170.4,262.8 L170.7,264.3 L170.2,266.5 L170.1,268.8 L171.3,269.7 L173.1,269.8 L174.3,271.2 L175.2,273.1 L175.9,275.2 L176.0,277.7 L175.9,279.7 L175.7,280.9 L175.0,283.2 L174.0,285.7 L173.1,288.1 L171.9,289.8 L169.8,290.9 L168.2,291.5 L167.1,293.6 L167.1,295.6 L166.9,297.9 L166.7,299.4 L165.5,301.2 L164.3,302.0 L162.4,302.3 L160.3,302.5 L159.1,303.4 L158.2,304.3 L157.7,305.7 L157.9,307.6 L158.1,309.5 L157.5,310.9 L157.0,311.7 L155.5,312.8 L154.9,314.2 L154.5,315.8 L153.8,316.2 L152.0,315.2 L150.9,316.3 L149.6,316.5 L149.0,315.6 L147.8,314.5 L146.3,314.2 L145.0,313.9 L143.3,313.8 L142.4,314.3 L140.9,313.8 L139.5,311.8 L138.8,310.3 L139.0,308.0 L140.4,307.3 L142.8,306.3 L143.7,305.5 L143.5,304.3 L142.2,303.3 L140.5,302.0 L140.3,300.5 L141.7,299.4 L142.6,297.8 L143.3,296.1 L145.0,295.3 L146.9,294.3 L148.6,293.1 L149.3,292.3 L148.0,291.9 L146.7,291.6 L145.8,291.2 L145.3,289.8 L147.0,288.6 L149.0,287.7 L149.9,286.6 L150.7,286.0 L151.2,285.0 L169.2,236.9 Z" fill="#e7d6a3" stroke="none"/>
<path d="M262.0,548.9 L259.6,547.5 L257.7,545.5 L256.1,543.4 L254.0,541.8 L251.4,540.6 L248.3,539.2 L245.6,537.6 L243.6,535.4 L242.9,532.6 L242.8,530.0 L242.8,527.6 L241.5,525.0 L239.8,522.7 L237.9,521.0 L234.2,520.3 L231.1,520.0 L227.8,518.8 L225.6,516.0 L224.6,513.2 L223.5,509.9 L221.7,506.7 L220.0,505.8 L217.2,505.1 L213.2,506.1 L210.4,507.8 L208.2,510.5 L207.0,513.2 L206.7,516.0 L207.3,518.7 L207.3,521.0 L205.9,522.7 L202.3,523.2 L199.9,523.3 L197.0,524.1 L195.2,526.2 L194.4,528.4 L194.5,531.1 L196.1,533.4 L198.2,535.7 L201.1,538.9 L204.1,541.1 L206.5,542.9 L207.9,545.1 L208.7,547.9 L208.6,551.3 L206.8,553.4 L205.1,555.8 L204.2,559.3 L205.1,563.2 L206.0,566.1 L208.1,568.1 L210.8,568.3 L212.3,568.4 L216.4,569.9 L219.8,571.6 L222.0,572.9 L223.1,574.8 L222.5,577.1 L222.8,579.3 L223.5,581.8 L223.8,584.4 L224.8,586.2 L226.2,588.0 L227.2,590.7 L226.2,592.2 L225.3,594.9 L225.2,599.2 L224.7,602.6 L223.9,605.6 L222.0,608.4 L218.5,610.3 L215.4,612.6 L217.0,615.5 L219.0,616.5 L222.4,618.8 L225.1,621.4 L227.3,622.3 L228.3,625.3 L227.6,628.0 L228.4,630.7 L230.9,631.2 L233.1,631.9 L234.8,633.0 L235.9,634.5 L236.6,637.8 L237.3,640.9 L237.5,645.0 L238.2,647.8 L240.0,649.7 L243.2,650.4 L245.2,651.8 L245.6,654.1 L245.6,657.6 L246.3,660.1 L246.3,663.6 L247.2,667.7 L248.9,670.4 L250.9,672.1 L252.7,672.6 L252.8,669.0 L256.0,667.5 L258.1,667.8 L259.6,671.2 L259.9,672.4 L261.8,672.4 L263.5,672.0 L265.7,672.8 L266.3,675.2 L267.4,676.6 L270.5,677.1 L273.7,677.2 L275.1,675.7 L276.8,671.4 L277.7,667.5 L278.3,663.0 L279.4,659.0 L280.1,654.7 L282.2,651.4 L282.4,648.2 L280.6,645.7 L279.6,642.3 L280.4,639.0 L282.2,635.1 L284.1,630.9 L284.9,628.4 L284.7,625.1 L282.7,622.7 L279.5,621.8 L274.7,620.1 L272.4,618.3 L271.5,615.7 L271.6,612.4 L272.2,610.7 L273.7,610.2 L275.6,608.4 L275.5,604.9 L275.4,600.7 L276.1,596.0 L277.1,591.2 L277.5,586.3 L278.0,583.5 L280.4,579.9 L283.6,578.6 L286.4,577.1 L287.9,575.1 L288.5,572.6 L288.2,569.7 L288.8,567.9 L290.7,566.7 L290.2,563.5 L287.3,560.7 L283.2,559.6 L278.9,559.3 L274.3,558.1 L270.7,556.7 L267.4,553.7 L266.2,551.8 L264.4,550.4 L262.0,548.9 Z" fill="#e7d6a3" stroke="none"/>
<path d="M172.3,726.4 L173.6,717.4 L174.3,710.8 L175.8,706.8 L178.0,703.7 L182.0,701.9 L187.1,701.1 L190.3,702.0 L195.4,704.3 L199.4,706.9 L203.3,712.7 L207.1,722.2 L208.1,731.5 L207.0,738.8 L203.3,746.3 L198.8,750.5 L193.1,752.0 L188.7,751.9 L184.5,750.4 L180.5,747.9 L177.2,744.7 L174.0,738.9 L172.5,732.3 L172.3,726.4 Z" fill="#2f7825" stroke="none"/>
<path d="M97.6,190.7 L98.8,186.6 L101.1,182.6 L103.8,180.3 L109.5,178.3 L118.9,176.8 L123.9,176.6 L129.1,177.8 L134.1,181.0 L137.1,184.0 L139.5,188.8 L139.5,195.1 L139.1,198.3 L137.8,201.7 L132.9,206.5 L129.6,208.7 L122.3,211.3 L117.1,212.3 L112.0,211.9 L106.3,210.9 L103.7,209.3 L101.2,206.9 L99.7,204.3 L97.9,197.6 L97.5,193.8 L97.6,190.7 Z" fill="#2f7825" stroke="none"/>
<path d="M360.7,569.3 L362.4,564.3 L365.3,560.0 L369.8,554.8 L373.7,551.7 L378.4,549.9 L381.5,549.2 L385.0,549.3 L389.7,550.0 L393.1,551.1 L398.5,554.4 L404.0,559.2 L408.1,564.5 L410.8,569.9 L411.1,574.0 L410.3,578.0 L406.4,583.2 L399.8,589.9 L393.1,595.8 L386.2,600.0 L381.1,600.9 L377.0,601.0 L373.6,600.1 L370.1,598.2 L365.5,593.4 L362.6,589.1 L360.9,584.3 L360.1,577.7 L360.1,573.4 L360.7,569.3 Z" fill="#2f7825" stroke="none"/>
<path d="M186.7,72.2 L129.8,517.6 L191.2,727.8" fill="none" stroke="#ffd64a" stroke-width="3.5" stroke-linecap="round" stroke-linejoin="round" opacity="0.95"/>
</svg>