<svg xmlns="http://www.w3.org/2000/svg" viewBox="0 0 800 783" preserveAspectRatio="xMidYMid meet">
<rect width="100%" height="100%" fill="#143018"/>
<path d="M11.9,577.8 L56.9,567.5 L82.2,548.5 L81.5,521.6 L61.3,392.7 L244.2,214.1 L350.7,16.8 L440.7,-200.8 L546.8,-589.8 L573.1,-686.4 L695.8,-1173.7 L511.5,-1416.8 L387.6,-1263.1 L458.1,-1179.4 L494.7,-1131.8 L507.5,-1093.2 L395.9,-742.5 L156.2,11.2 L-53.9,41.4 L-237.0,-317.5 L-387.9,-626.7 L-424.4,-689.3 L-708.6,-926.2 L-746.8,-947.3 L-845.3,-994.1 L-892.8,-832.3 L-1042.3,-323.7 L-1426.4,-259.0 L-1478.8,-318.4 L-1501.2,-343.9 L-1520.9,-248.9 L-1551.5,-100.9 L-1556.9,38.1 L-1536.0,232.4 L-1409.8,202.1 L-1473.2,75.3 L-1484.2,21.6 L-1495.3,-44.7 L-1474.7,-125.0 L-1456.3,-146.6 L-1421.8,-184.7 L-1410.6,-197.4 L-1369.5,-216.0 L-1306.0,-232.0 L-1147.6,-252.9 L-1034.9,-267.8 L-962.3,-283.9 L-963.5,-313.1 L-945.4,-348.0 L-974.5,-369.5 L-870.1,-721.8 L-754.5,-779.6 L-661.8,-719.7 L-560.4,-657.6 L-482.1,-593.0 L-491.1,-539.9 L-515.0,-494.4 L-527.0,-470.6 L-503.1,-465.4 L-484.9,-453.4 L-447.1,-449.0 L-412.4,-494.6 L-373.5,-406.8 L-253.0,-164.9 L-163.2,38.2 L-45.7,287.8 L-39.4,331.4 L-35.5,380.6 L11.9,577.8 Z" fill="#0f2810" stroke="none"/>
<path d="M893.4,423.2 L885.8,430.4 L880.8,445.5 L894.9,456.9 L904.0,473.2 L914.9,483.8 L930.1,499.0 L949.0,514.9 L960.0,527.4 L976.0,543.7 L991.1,559.6 L1001.0,570.2 L1014.6,580.1 L1018.8,591.1 L1045.6,588.4 L1043.9,583.1 L1042.9,577.0 L1044.6,573.6 L1049.7,570.8 L1055.3,571.4 L1059.6,573.1 L1066.0,575.3 L1072.1,580.1 L1086.7,549.2 L1080.3,541.2 L1079.1,535.6 L1075.5,530.0 L1073.8,526.3 L1073.1,523.4 L1076.7,521.7 L1074.8,514.5 L1058.1,515.5 L1048.1,516.6 L1038.4,516.8 L1018.7,514.7 L1004.8,508.3 L985.3,499.0 L970.2,489.9 L950.9,476.2 L936.1,464.9 L919.8,450.5 L909.2,439.1 L893.4,423.2 Z" fill="#2b5a2a" stroke="none"/>
<path d="M1527.5,-437.1 L1530.5,-475.8 L1521.8,-473.5 L1510.8,-478.4 L1502.1,-478.8 L1490.3,-469.4 L1486.2,-459.9 L1489.2,-447.4 L1493.7,-435.6 L1482.4,-428.1 L1457.0,-413.3 L1438.4,-405.3 L1418.7,-389.8 L1403.9,-381.4 L1378.9,-375.7 L1358.8,-376.5 L1339.1,-379.9 L1318.3,-379.6 L1295.9,-375.7 L1278.9,-373.1 L1255.8,-380.3 L1237.9,-391.3 L1221.6,-394.7 L1200.4,-391.3 L1171.3,-380.7 L1145.1,-364.8 L1128.4,-352.7 L1110.6,-336.4 L1099.6,-320.8 L1085.2,-287.8 L1076.1,-267.0 L1066.7,-246.9 L1064.4,-236.3 L1062.1,-221.5 L1064.0,-207.1 L1068.2,-192.0 L1068.2,-178.3 L1057.9,-152.5 L1042.0,-139.7 L1029.1,-126.0 L1022.3,-114.6 L1006.4,-93.4 L980.6,-70.7 L954.9,-53.3 L930.2,-43.8 L911.3,-32.8 L895.7,-17.6 L884.8,-2.1 L876.4,16.1 L868.1,33.1 L857.5,40.4 L841.6,52.1 L837.0,58.1 L799.1,74.4 L772.6,81.3 L762.0,87.0 L746.1,101.0 L707.4,142.7 L696.0,152.2 L679.0,165.0 L664.2,178.3 L666.1,189.3 L673.3,201.8 L672.2,217.7 L666.1,229.4 L663.8,248.4 L664.6,263.9 L668.7,278.1 L676.3,289.3 L683.1,301.8 L696.0,319.3 L710.4,329.1 L721.8,332.1 L739.6,336.7 L749.8,337.4 L771.0,329.1 L783.6,315.1 L805.3,291.9 L816.2,280.2 L843.8,248.8 L875.3,216.9 L889.7,205.6 L900.3,180.5 L912.8,159.7 L936.3,141.5 L958.7,129.8 L983.3,123.7 L995.0,118.0 L1010.2,106.3 L1040.1,83.5 L1066.7,62.7 L1086.0,44.5 L1107.2,24.4 L1124.6,4.3 L1168.6,-29.7 L1200.0,-44.2 L1230.0,-63.1 L1262.2,-83.6 L1281.5,-99.1 L1304.3,-121.5 L1337.6,-150.7 L1364.1,-177.6 L1390.7,-204.5 L1405.8,-221.2 L1412.3,-241.6 L1415.7,-252.2 L1409.6,-274.2 L1405.8,-292.8 L1400.9,-305.3 L1400.5,-321.2 L1407.0,-336.0 L1416.8,-351.9 L1434.2,-365.1 L1451.3,-376.1 L1465.3,-389.8 L1476.3,-401.9 L1499.4,-417.8 L1527.5,-437.1 Z" fill="#2b5a2a" stroke="none"/>
<path d="M900.3,180.5 L922.6,184.3 L942.6,186.8 L961.1,187.8 L977.6,193.8 L998.1,177.8 L983.1,158.3 L1002.1,136.8 L1047.2,180.8 L1089.7,223.8 L1060.1,257.8 L1077.1,266.3 L1109.7,273.3 L1100.7,258.3 L1121.1,240.8 L1154.6,273.8 L1133.7,294.3 L1150.1,311.3 L1163.6,330.8 L1168.5,343.7 L1173.4,356.9 L1175.7,362.8 L1191.2,386.8 L1213.7,422.3 L1241.7,453.8 L1266.9,481.3 L1256.0,489.5 L1245.7,476.8 L1217.7,448.3 L1193.2,419.3 L1163.2,367.8 L1152.6,344.8 L1133.4,317.2 L1115.2,297.1 L1095.1,285.4 L1069.0,275.1 L1046.2,268.3 L1013.6,244.0 L993.2,227.7 L965.5,208.0 L940.1,200.5 L922.3,200.5 L906.8,200.5 L889.7,205.6 L900.3,180.5 Z" fill="#2b5a2a" stroke="none"/>
<path d="M749.8,337.4 L779.9,349.9 L801.9,359.1 L817.8,365.7 L834.9,375.9 L851.4,385.2 L864.3,400.0 L875.2,414.5 L885.8,430.4 L893.4,423.2 L879.5,406.2 L870.2,393.7 L868.2,380.2 L868.9,372.0 L873.8,356.8 L873.2,351.2 L883.4,349.5 L887.4,342.3 L885.7,335.0 L876.8,329.7 L865.6,327.1 L854.1,325.7 L848.5,323.1 L840.8,319.2 L829.5,311.3 L805.3,291.9 L783.6,315.1 L771.0,329.1 L749.8,337.4 Z" fill="#2b5a2a" stroke="none"/>
<path d="M219.7,1298.7 L204.8,1346.4 L235.8,1392.3 L259.9,1379.7 L279.5,1368.2 L300.1,1359.0 L323.7,1349.3 L350.7,1344.7 L364.5,1338.4 L374.2,1326.3 L381.7,1311.4 L392.6,1297.6 L413.9,1286.1 L432.2,1261.4 L444.9,1245.9 L456.4,1221.7 L471.3,1206.2 L493.7,1196.5 L509.2,1184.4 L524.2,1168.9 L544.3,1152.8 L571.8,1139.6 L603.4,1122.9 L622.4,1110.9 L634.4,1097.7 L654.0,1090.2 L704.0,1063.8 L729.2,1042.5 L756.2,1017.8 L784.4,996.6 L807.9,983.9 L830.3,975.9 L847.0,970.2 L879.7,955.2 L893.5,943.7 L925.1,919.0 L984.8,873.6 L1022.8,844.3 L1082.5,799.0 L1150.8,766.2 L1199.1,735.8 L1222.6,726.0 L1241.6,718.7 L1239.2,709.7 L1226.7,712.1 L1209.4,717.2 L1189.3,727.3 L1178.1,732.8 L1150.3,745.0 L1117.0,756.4 L1094.6,761.6 L1073.0,767.8 L1060.1,770.4 L1030.8,775.4 L1005.5,779.4 L955.5,773.1 L933.1,766.2 L892.4,759.9 L861.9,760.5 L828.0,770.8 L793.6,782.9 L772.3,788.7 L759.7,799.0 L740.7,845.5 L729.8,873.1 L716.6,881.1 L699.9,886.8 L671.8,900.1 L645.9,913.3 L623.5,923.0 L601.7,938.0 L578.7,959.2 L561.5,974.2 L540.8,997.7 L494.9,1025.3 L470.7,1040.2 L436.8,1058.0 L400.7,1073.0 L372.5,1091.3 L346.1,1115.5 L331.7,1133.8 L316.2,1152.8 L297.3,1168.9 L274.9,1182.7 L263.4,1198.2 L259.8,1217.0 L266.7,1228.3 L281.6,1237.7 L291.4,1242.0 L302.3,1246.9 L306.9,1252.9 L308.6,1261.5 L302.0,1267.1 L288.0,1273.9 L284.8,1281.4 L277.3,1284.2 L268.4,1285.4 L258.9,1281.4 L249.5,1275.3 L245.7,1288.3 L240.3,1297.8 L233.7,1300.1 L227.1,1300.6 L219.7,1298.7 Z" fill="#2b5a2a" stroke="none"/>
<path d="M708.3,484.7 L725.7,474.3 L740.2,462.1 L748.8,445.3 L752.8,425.8 L757.4,408.0 L755.7,391.2 L749.8,379.3 L744.8,372.3 L740.8,390.3 L734.3,396.9 L740.9,398.1 L745.8,402.7 L745.2,412.0 L739.2,416.9 L734.6,417.2 L729.8,416.4 L721.8,434.8 L727.7,439.7 L732.3,446.3 L732.0,453.9 L729.3,460.4 L722.1,465.1 L712.6,466.1 L708.3,484.7 Z" fill="#2b5a2a" stroke="none"/>
<path d="M578.7,959.2 L567.8,955.2 L561.0,943.8 L556.1,927.2 L551.1,905.9 L549.6,885.1 L550.4,859.7 L540.5,872.6 L542.8,901.4 L546.2,924.9 L552.3,946.1 L559.5,960.9 L561.5,974.2 L578.7,959.2 Z" fill="#2b5a2a" stroke="none"/>
<path d="M146.6,1269.0 L166.2,1256.9 L185.8,1234.3 L199.3,1210.8 L210.2,1181.7 L225.8,1145.9 L242.8,1116.8 L266.3,1077.6 L281.4,1055.3 L304.9,1022.7 L328.8,995.8 L347.0,970.4 L359.1,948.0 L372.4,914.3 L381.1,894.6 L391.4,879.4 L405.0,862.8 L427.3,815.0 L438.7,766.9 L452.0,731.3 L461.8,704.0 L483.4,660.0 L496.3,621.4 L502.8,597.1 L512.2,569.5 L524.0,556.2 L536.5,545.6 L549.8,528.5 L571.7,490.3 L572.5,474.4 L577.8,458.8 L592.6,442.1 L597.9,429.6 L600.9,412.2 L603.2,399.7 L604.3,388.7 L614.6,378.9 L622.9,378.5 L635.4,381.5 L640.0,375.0 L637.7,366.3 L624.8,360.3 L625.6,349.3 L613.6,345.7 L604.4,345.2 L605.8,298.2 L639.4,295.7 L646.8,273.0 L668.7,278.1 L676.3,289.3 L683.1,301.8 L696.0,319.3 L710.4,329.1 L721.8,332.1 L739.6,336.7 L749.8,337.4 L779.9,349.9 L768.8,406.5 L759.3,456.1 L758.6,470.9 L749.1,493.3 L734.7,510.3 L727.9,524.4 L713.5,541.4 L704.4,557.3 L694.1,569.8 L683.9,587.7 L670.3,610.4 L672.2,616.8 L664.2,627.8 L649.4,644.9 L643.0,662.3 L643.0,681.2 L646.0,692.2 L645.6,702.1 L635.0,715.8 L632.4,726.0 L624.0,738.1 L613.0,748.0 L603.2,759.0 L601.3,771.1 L596.7,790.0 L587.3,810.9 L563.4,841.5 L550.4,859.7 L540.5,872.6 L526.6,885.9 L502.0,907.9 L483.4,920.0 L469.4,925.0 L459.2,932.5 L442.9,952.6 L424.3,981.0 L416.0,995.1 L414.5,1000.7 L410.3,1009.5 L389.4,1024.2 L362.5,1050.4 L342.9,1073.5 L316.7,1103.1 L288.6,1136.0 L260.2,1161.4 L241.3,1184.2 L218.5,1216.7 L210.2,1231.2 L197.7,1250.5 L196.2,1271.7 L219.7,1298.7 L204.8,1346.4 L164.7,1385.2 L155.1,1372.8 L152.0,1357.3 L146.7,1351.2 L132.3,1342.9 L133.1,1329.6 L146.7,1300.8 L152.0,1286.4 L157.0,1272.4 L146.6,1269.0 Z" fill="#2b5a2a" stroke="none"/>
<path d="M213.7,339.6 L85.0,472.0 L85.4,486.7 L88.3,499.0 L99.1,511.8 L112.7,520.3 L141.0,532.9 L165.4,532.0 L193.7,530.7 L215.9,529.4 L238.5,530.7 L263.7,526.3 L284.2,519.8 L299.4,512.4 L317.3,500.7 L334.7,489.8 L350.8,480.2 L371.3,469.3 L387.8,461.9 L408.7,461.1 L421.3,446.7 L411.8,428.8 L407.4,396.2 L410.0,370.5 L416.1,334.8 L418.7,317.0 L411.3,305.7 L389.1,318.3 L357.8,320.9 L339.1,322.2 L311.6,323.5 L289.0,327.8 L275.5,330.9 L263.3,337.9 L249.0,345.3 L234.6,348.7 L221.1,347.0 L213.7,339.6 Z" fill="#2b5a2a" stroke="none"/>
<path d="M418.7,317.0 L431.4,300.4 L444.9,284.3 L457.0,276.1 L465.7,274.6 L451.0,250.3 L438.8,272.2 L426.1,291.7 L411.3,305.7 L418.7,317.0 Z" fill="#2b5a2a" stroke="none"/>
<path d="M885.8,430.4 L869.9,433.8 L848.1,436.4 L821.6,439.9 L798.9,444.2 L777.6,450.4 L759.3,456.1 L758.6,470.9 L781.5,461.2 L809.4,452.1 L840.7,446.0 L863.3,445.5 L880.8,445.5 L885.8,430.4 Z" fill="#2b5a2a" stroke="none"/>
<path d="M213.7,339.6 L212.8,326.1 L216.3,316.4 L223.5,311.2 L240.0,295.4 L248.6,286.8 L267.7,280.9 L290.8,276.9 L310.6,267.7 L325.7,245.9 L347.5,219.5 L371.3,194.4 L401.0,172.0 L428.7,151.5 L450.5,124.5 L464.5,111.3 L835.6,-611.8 L825.9,-631.6 L798.2,-640.9 L781.0,-646.1 L773.8,-661.3 L782.3,-669.9 L797.5,-675.8 L841.7,-678.5 L864.2,-689.0 L880.0,-703.5 L893.2,-722.7 L897.1,-742.4 L906.4,-755.0 L917.6,-758.3 L932.8,-748.0 L944.1,-787.0 L925.5,-785.3 L901.0,-788.8 L761.6,-878.2 L713.7,-848.0 L686.7,-824.2 L668.9,-789.3 L659.0,-755.7 L647.1,-713.4 L639.2,-686.4 L629.9,-661.9 L622.7,-640.2 L615.4,-627.0 L598.9,-619.7 L583.1,-617.1 L582.4,-634.9 L571.4,-643.9 L557.3,-647.4 L546.8,-642.2 L536.9,-608.5 L546.8,-589.8 L563.3,-563.0 L558.0,-513.5 L547.4,-473.3 L538.9,-430.4 L533.6,-382.2 L511.8,-346.6 L486.1,-312.9 L479.5,-293.1 L476.8,-263.5 L484.8,-227.2 L476.8,-196.8 L448.5,-132.2 L422.1,-83.3 L391.1,-24.6 L375.2,11.0 L344.9,79.7 L317.2,113.3 L284.1,165.2 L258.0,198.6 L242.4,238.4 L225.3,262.2 L193.9,297.9 L175.0,322.1 L145.0,355.1 L118.9,378.6 L107.9,373.3 L70.0,415.0 L85.9,431.3 L87.0,447.9 L85.0,472.0 L213.7,339.6 Z" fill="#2b5a2a" stroke="none"/>
<path d="M623.8,315.4 L176.2,467.5" fill="none" stroke="#4e8b39" stroke-width="137.1" stroke-linecap="round" stroke-linejoin="round" opacity="0.85"/>
<path d="M224.5,511.1 L219.7,498.1 L224.1,493.1 L224.7,488.3 L223.7,483.7 L220.8,480.2 L217.3,478.1 L212.6,477.2 L207.1,440.2 L210.4,435.8 L211.0,431.5 L209.3,427.1 L205.8,423.6 L201.5,421.2 L197.3,420.2 L195.6,412.1 L208.9,412.1 L220.8,413.4 L231.3,414.9 L243.3,415.2 L254.8,413.6 L263.1,409.7 L273.9,402.9 L281.3,392.7 L289.8,384.5 L299.4,378.0 L308.3,373.6 L318.1,371.0 L327.5,369.6 L337.1,370.7 L349.0,375.3 L356.9,383.2 L362.3,389.7 L364.7,401.9 L364.3,417.1 L362.5,427.8 L360.4,438.5 L355.1,447.8 L348.6,452.4 L340.8,455.6 L332.9,456.1 L323.3,454.3 L310.5,455.4 L300.5,457.1 L289.8,461.7 L274.4,471.7 L263.1,479.1 L255.4,486.3 L245.0,497.4 L234.3,505.9 L224.5,511.1 Z" fill="#5a9540" stroke="none"/>
<path d="M195.6,412.1 L183.7,413.9 L171.5,417.2 L162.3,417.6 L154.9,417.8 L146.6,421.7 L140.1,428.7 L133.6,435.5 L125.7,442.8 L117.7,450.5 L108.6,461.1 L106.2,471.1 L105.1,482.0 L107.9,490.7 L113.1,499.9 L120.8,508.3 L130.3,514.6 L140.3,516.4 L152.7,517.5 L170.8,515.3 L184.1,513.1 L196.5,512.9 L207.6,513.6 L216.3,512.9 L224.5,511.1 L219.7,498.1 L213.9,498.8 L209.8,498.3 L206.3,495.3 L203.9,491.6 L203.5,486.4 L204.1,481.8 L207.2,479.6 L212.6,477.2 L207.1,440.2 L201.3,440.9 L195.4,440.2 L191.7,436.8 L188.2,433.5 L186.7,429.3 L188.4,423.5 L191.7,421.1 L197.3,420.2 L195.6,412.1 Z" fill="#5a9540" stroke="none"/>
<path d="M796.0,255.9 L804.3,253.2 L810.0,247.9 L812.6,240.4 L813.8,234.6 L813.5,228.6 L814.0,224.1 L819.3,218.9 L825.5,213.9 L833.0,207.4 L840.3,199.7 L845.6,193.7 L855.3,186.4 L864.0,181.9 L875.3,172.9 L886.8,164.4 L891.0,159.1 L896.1,151.2 L918.8,123.4 L930.8,111.9 L951.6,94.9 L959.8,87.9 L998.3,67.9 L1029.8,45.1 L1045.3,22.4 L1060.1,0.1 L1073.3,-17.2 L1019.5,-59.7 L992.8,-50.9 L962.1,-38.9 L939.5,-28.6 L923.1,-21.9 L910.8,-12.1 L902.8,-2.6 L899.1,10.9 L890.3,34.4 L878.6,56.6 L869.3,72.1 L852.8,87.9 L831.0,108.1 L817.8,120.1 L806.8,131.1 L798.8,140.4 L792.0,146.9 L783.8,153.2 L772.5,159.1 L759.5,167.4 L743.5,174.9 L731.8,183.9 L729.5,191.4 L731.8,197.7 L733.8,203.7 L731.5,211.1 L724.3,217.1 L715.8,221.9 L706.3,227.4 L696.5,233.6 L690.5,240.6 L688.5,247.9 L688.3,258.4 L691.8,270.2 L696.8,280.6 L707.5,297.1 L718.0,306.4 L731.5,312.9 L743.5,315.9 L754.8,313.4 L762.8,309.7 L770.5,301.9 L773.0,293.4 L773.8,283.9 L773.8,276.2 L776.0,266.6 L780.5,259.4 L789.0,255.6 L796.0,255.9 Z" fill="#5a9540" stroke="none"/>
<path d="M737.8,911.4 L712.5,920.0 L698.7,929.3 L686.1,940.7 L665.4,958.6 L640.2,969.5 L619.5,971.2 L595.4,981.5 L575.3,989.6 L556.9,1010.8 L541.4,1026.3 L522.4,1038.4 L500.6,1051.0 L452.3,1080.9 L429.9,1091.8 L409.3,1109.6 L383.4,1131.5 L359.9,1156.7 L343.8,1179.7 L322.5,1192.9 L304.1,1207.9 L297.2,1222.8 L301.3,1237.2 L312.7,1240.6 L334.0,1237.2 L353.5,1230.8 L376.5,1224.5 L389.1,1217.6 L413.3,1208.4 L433.4,1192.4 L451.8,1173.4 L477.0,1157.3 L500.0,1146.4 L517.8,1137.2 L535.1,1126.9 L571.8,1106.8 L598.8,1094.7 L625.8,1079.7 L641.9,1062.5 L663.1,1047.6 L686.7,1024.6 L706.2,1014.8 L754.5,987.3 L791.8,974.6 L827.4,961.4 L847.5,952.8 L872.8,939.0 L891.8,924.7 L909.0,904.0 L916.5,890.7 L923.9,866.6 L924.5,846.5 L918.2,829.3 L903.2,817.2 L878.0,814.9 L857.3,821.2 L832.6,829.9 L809.6,841.9 L792.4,858.6 L779.7,875.8 L772.3,887.9 L757.3,901.7 L737.8,911.4 Z" fill="#5a9540" stroke="none"/>
<path d="M345.5,192.7 L361.6,174.4 L381.1,156.5 L398.9,139.3 L430.0,109.4 L448.3,88.7 L463.8,69.2 L477.1,44.5 L482.2,19.2 L486.8,-19.8 L489.1,-43.4 L497.2,-61.2 L513.2,-76.6 L530.5,-90.5 L540.8,-104.8 L556.3,-125.5 L578.2,-141.6 L609.2,-193.8 L623.5,-220.8 L621.2,-239.8 L611.5,-246.7 L612.6,-258.2 L613.8,-266.2 L618.3,-274.2 L616.6,-280.6 L605.2,-278.8 L597.1,-284.0 L594.8,-295.5 L600.0,-307.6 L610.3,-310.4 L631.0,-324.2 L631.0,-364.4 L645.4,-420.7 L659.7,-469.0 L680.4,-520.6 L705.1,-579.8 L721.8,-626.3 L736.1,-656.2 L747.6,-680.3 L755.3,-688.3 L763.8,-692.2 L764.1,-702.0 L756.8,-707.6 L754.5,-714.2 L759.5,-723.8 L763.7,-727.1 L770.0,-726.1 L777.6,-721.4 L779.9,-715.5 L790.8,-704.3 L803.3,-705.6 L817.2,-703.3 L832.0,-705.3 L838.3,-708.6 L845.9,-723.4 L840.9,-732.0 L841.9,-739.9 L844.9,-746.9 L848.9,-752.8 L854.2,-755.7 L826.7,-820.3 L826.9,-813.5 L823.0,-807.4 L818.7,-805.7 L813.0,-805.0 L807.8,-806.6 L803.8,-811.6 L793.0,-822.4 L785.8,-822.0 L778.2,-822.4 L769.9,-824.8 L762.3,-827.5 L753.1,-828.1 L745.3,-824.2 L739.6,-819.2 L735.5,-812.0 L730.1,-806.8 L725.7,-801.3 L720.3,-796.9 L718.3,-784.1 L724.2,-781.3 L726.8,-777.8 L726.4,-771.5 L724.0,-765.6 L719.2,-760.2 L711.1,-757.4 L705.0,-759.5 L693.0,-752.1 L689.4,-738.7 L675.2,-694.2 L664.8,-664.6 L648.9,-633.3 L641.2,-616.1 L624.1,-586.5 L611.0,-563.2 L601.2,-541.0 L591.4,-515.1 L580.5,-481.0 L569.9,-438.3 L561.4,-402.2 L554.6,-369.3 L542.0,-324.0 L531.8,-280.3 L525.5,-248.7 L506.7,-199.1 L494.6,-165.1 L466.3,-110.5 L449.7,-81.1 L433.6,-53.3 L418.2,-29.3 L409.9,-18.4 L403.6,-6.2 L385.5,31.6 L370.9,58.2 L349.8,90.0 L333.3,115.6 L314.6,139.2 L301.5,157.0 L286.5,172.7 L275.1,186.6 L265.3,201.4 L256.4,217.9 L251.0,234.0 L249.3,242.1 L250.8,250.8 L256.0,256.0 L267.5,259.1 L281.2,260.8 L290.2,258.0 L298.4,252.1 L306.3,240.3 L325.4,217.3 L345.5,192.7 Z" fill="#5a9540" stroke="none"/>
<path d="M441.3,932.9 L469.3,918.9 L497.8,895.9 L525.3,866.4 L549.3,833.9 L575.3,796.9 L590.3,768.4 L599.8,736.9 L602.5,701.7 L602.0,669.3 L605.0,645.8 L612.6,628.4 L626.3,602.4 L644.3,577.9 L672.8,535.4 L692.8,506.4 L708.3,484.7 L712.6,466.1 L705.3,458.4 L704.3,446.9 L708.8,438.8 L714.8,435.8 L721.8,434.8 L729.8,416.4 L726.8,409.9 L728.3,400.4 L734.3,396.9 L740.8,390.3 L744.8,372.3 L736.8,356.3 L724.3,345.9 L705.3,335.8 L682.3,335.4 L666.8,339.9 L652.3,347.9 L644.8,363.3 L642.3,383.9 L644.3,402.4 L643.8,421.4 L637.8,434.8 L621.8,445.4 L606.8,452.9 L593.8,465.9 L584.3,486.4 L578.3,507.9 L558.3,559.4 L537.8,599.9 L523.3,633.9 L506.3,680.4 L485.8,723.9 L451.8,789.9 L432.3,822.4 L421.8,854.9 L405.3,880.9 L393.3,906.9 L390.3,921.9 L398.3,936.4 L415.9,940.0 L441.3,932.9 Z" fill="#5a9540" stroke="none"/>
<path d="M639.0,99.6 L653.5,78.1 L663.0,61.1 L668.0,52.1 L669.0,41.1 L665.5,27.6 L664.5,17.6 L669.5,8.1 L679.0,2.1 L684.5,-2.4 L691.0,-13.9 L698.0,-23.9 L706.5,-27.4 L717.0,-27.9 L725.5,-32.9 L733.5,-43.4 L743.0,-67.9 L757.5,-93.4 L767.5,-123.9 L777.0,-151.9 L801.5,-200.9 L831.5,-261.9 L865.5,-325.0 L891.0,-375.4 L914.0,-416.5 L931.5,-456.0 L939.0,-488.4 L935.5,-514.5 L926.0,-532.5 L910.0,-541.9 L891.5,-545.5 L869.5,-538.9 L846.0,-519.9 L834.0,-492.0 L822.5,-459.0 L806.0,-425.5 L785.5,-388.5 L763.5,-344.4 L743.5,-310.4 L730.0,-277.5 L716.0,-239.9 L704.0,-208.4 L690.0,-169.9 L674.5,-135.9 L652.0,-80.4 L635.0,-51.4 L616.5,-26.4 L604.5,-11.9 L590.5,5.1 L567.0,23.6 L558.5,42.6 L567.0,48.6 L570.0,57.6 L568.5,69.1 L563.0,75.6 L551.0,77.6 L533.0,103.6 L532.0,115.1 L527.5,131.1 L520.0,142.1 L509.0,156.1 L501.8,167.6 L509.8,181.5 L512.5,188.4 L512.0,195.2 L510.1,199.4 L506.1,202.6 L501.0,204.4 L493.6,203.9 L482.8,202.9 L477.2,218.1 L472.4,232.3 L471.3,242.6 L475.6,251.4 L482.3,259.8 L488.7,267.7 L493.3,269.5 L501.4,271.9 L509.0,272.3 L517.0,271.3 L526.2,269.8 L536.8,268.5 L538.9,255.2 L533.0,250.5 L531.5,245.2 L532.7,239.1 L538.2,234.2 L543.3,232.1 L549.5,232.3 L554.7,236.3 L564.5,242.2 L578.9,219.6 L587.1,206.4 L592.7,193.7 L596.9,178.3 L601.5,164.1 L615.3,137.0 L639.0,99.6 Z" fill="#5a9540" stroke="none"/>
<path d="M533.0,103.6 L528.6,83.4 L524.2,64.2 L526.4,50.7 L532.9,43.7 L543.8,36.4 L567.0,23.6 L558.5,42.6 L550.3,44.2 L542.9,52.1 L540.3,65.5 L544.2,73.3 L551.0,77.6 L533.0,103.6 Z" fill="#5a9540" stroke="none"/>
<path d="M538.9,255.2 L544.5,254.0 L549.8,250.9 L553.0,247.3 L554.1,244.1 L554.3,240.1 L554.7,236.3 L564.5,242.2 L562.2,248.1 L558.7,254.2 L553.4,260.5 L548.4,264.2 L542.1,267.1 L536.8,268.5 L538.9,255.2 Z" fill="#5a9540" stroke="none"/>
<path d="M506.1,202.6 L497.9,201.2 L493.4,197.1 L493.1,190.8 L494.1,186.1 L497.4,183.1 L502.6,181.9 L507.5,183.4 L512.5,188.4 L509.8,181.5 L501.8,167.6 L495.8,176.4 L489.7,185.9 L485.5,196.7 L482.8,202.9 L493.6,203.9 L501.0,204.4 L506.1,202.6 Z" fill="#5a9540" stroke="none"/>
<path d="M706.2,-23.8 L702.6,-21.4 L700.5,-18.7 L699.6,-16.2 L698.8,-12.5 L699.8,-9.5 L701.9,-6.5 L704.9,-4.3 L709.9,-3.3 L715.3,-6.1 L718.2,-8.8 L720.1,-13.8 L718.8,-19.2 L715.5,-21.6 L712.3,-23.4 L706.2,-23.8 Z" fill="#e7d6a3" stroke="none"/>
<path d="M675.5,9.9 L673.0,13.5 L672.7,16.1 L673.1,18.9 L674.1,21.5 L675.9,23.6 L678.1,24.9 L680.2,25.9 L683.4,26.4 L687.5,25.5 L689.9,22.8 L691.3,21.0 L692.7,17.6 L692.7,14.9 L691.8,11.7 L690.5,9.2 L687.6,7.8 L685.5,6.7 L681.6,6.7 L678.3,8.1 L675.5,9.9 Z" fill="#e7d6a3" stroke="none"/>
<path d="M500.7,184.9 L497.5,187.4 L495.9,190.0 L495.7,192.4 L496.3,195.4 L497.3,197.4 L499.9,199.8 L502.5,201.0 L505.9,200.2 L508.8,197.6 L510.2,194.6 L510.4,191.6 L509.9,189.0 L508.7,187.0 L506.7,185.6 L503.3,184.6 L500.7,184.9 Z" fill="#e7d6a3" stroke="none"/>
<path d="M540.8,236.3 L537.7,238.5 L535.7,241.0 L534.6,243.3 L534.7,245.6 L535.7,249.1 L537.6,250.9 L540.9,252.3 L544.4,251.7 L547.6,249.4 L549.3,247.7 L550.9,245.4 L551.5,243.1 L551.3,240.3 L550.0,237.9 L548.2,236.1 L546.0,235.0 L543.8,234.7 L540.8,236.3 Z" fill="#e7d6a3" stroke="none"/>
<path d="M710.3,198.6 L706.3,201.9 L701.7,204.7 L700.3,207.4 L699.1,210.0 L698.9,213.4 L700.9,217.0 L703.9,219.4 L707.2,220.8 L710.0,221.4 L713.4,220.5 L717.6,218.3 L720.3,216.5 L722.8,214.6 L725.3,212.3 L728.1,209.0 L730.7,207.0 L731.9,204.1 L730.9,200.7 L727.3,197.6 L722.6,196.4 L718.1,196.5 L713.4,197.0 L710.3,198.6 Z" fill="#e7d6a3" stroke="none"/>
<path d="M853.6,191.5 L850.3,195.0 L849.5,199.0 L850.9,203.7 L854.0,207.0 L859.9,207.6 L863.3,206.5 L866.4,204.1 L869.1,201.0 L870.7,198.0 L869.5,193.5 L864.8,190.5 L859.6,189.4 L853.6,191.5 Z" fill="#e7d6a3" stroke="none"/>
<path d="M826.3,220.9 L821.6,221.0 L818.4,223.7 L815.9,228.4 L817.3,232.5 L820.8,236.8 L825.4,239.7 L832.3,238.3 L835.0,235.0 L835.9,230.2 L835.2,225.4 L832.4,222.0 L829.8,221.7 L826.3,220.9 Z" fill="#e7d6a3" stroke="none"/>
<path d="M785.0,259.9 L779.5,265.7 L778.5,270.9 L779.8,275.9 L783.6,279.0 L790.5,278.4 L794.7,274.1 L797.3,268.1 L796.3,261.7 L793.4,258.2 L788.6,258.0 L785.0,259.9 Z" fill="#e7d6a3" stroke="none"/>
<path d="M561.4,68.5 L563.4,64.8 L565.4,58.8 L564.6,52.8 L560.4,49.5 L556.9,48.3 L551.6,49.8 L548.1,52.8 L546.1,55.8 L545.4,60.0 L545.6,64.5 L547.6,68.3 L550.1,70.5 L553.4,71.8 L557.4,71.3 L561.4,68.5 Z" fill="#e7d6a3" stroke="none"/>
<path d="M206.0,428.2 L201.7,424.6 L197.5,423.3 L194.3,423.3 L190.9,425.2 L189.9,427.6 L190.9,430.5 L192.8,433.3 L197.3,436.2 L199.6,437.5 L203.9,437.1 L206.4,435.4 L207.9,432.4 L206.0,428.2 Z" fill="#e7d6a3" stroke="none"/>
<path d="M214.3,481.8 L210.8,482.1 L208.1,483.9 L206.5,486.9 L206.8,489.7 L208.0,492.2 L209.7,494.3 L212.7,495.5 L215.7,495.2 L218.7,493.7 L220.7,490.7 L221.2,487.3 L220.2,484.7 L217.7,482.5 L214.3,481.8 Z" fill="#e7d6a3" stroke="none"/>
<path d="M726.1,452.2 L725.8,448.9 L724.2,444.6 L721.1,442.2 L717.5,441.5 L714.3,442.3 L711.4,444.3 L709.8,447.5 L709.3,451.1 L711.0,454.2 L713.6,457.2 L717.7,458.4 L721.3,457.7 L724.4,455.8 L726.1,452.2 Z" fill="#e7d6a3" stroke="none"/>
<path d="M739.9,411.7 L741.6,408.9 L741.9,404.6 L739.0,401.8 L735.8,401.2 L732.0,403.0 L730.8,406.3 L730.8,409.0 L731.8,410.7 L733.7,412.6 L737.0,413.3 L739.9,411.7 Z" fill="#e7d6a3" stroke="none"/>
<path d="M632.2,340.3 L608.5,340.0 L609.0,304.4 L632.7,304.7 L632.2,340.3 Z" fill="#4f8a3e" stroke="none"/>
<path d="M825.0,355.7 L842.6,331.0 L811.4,308.8 L793.8,333.6 L825.0,355.7 Z" fill="#4f8a3e" stroke="none"/>
<path d="M878.3,346.9 L882.7,340.6 L869.2,331.1 L864.8,337.3 L878.3,346.9 Z" fill="#4f8a3e" stroke="none"/>
<path d="M112.3,379.6 L79.5,415.1 L95.2,430.1 L128.2,394.1 L112.3,379.6 Z" fill="#4f8a3e" stroke="none"/>
<path d="M158.2,442.5 L145.4,446.0 L133.6,455.5 L126.9,465.1 L124.4,477.5 L127.7,489.2 L135.0,498.6 L142.7,502.4 L151.2,502.0 L159.2,500.3 L167.0,498.1 L175.1,495.0 L185.5,490.8 L193.3,485.2 L200.7,478.6 L206.1,472.0 L209.0,462.9 L205.2,453.5 L199.4,448.4 L187.3,444.0 L174.0,442.4 L158.2,442.5 Z" fill="#2f7825" stroke="none"/>
<path d="M663.7,350.8 L655.5,360.6 L653.9,371.3 L653.6,387.1 L655.5,407.9 L658.1,422.5 L663.6,431.7 L677.6,440.5 L693.2,440.7 L701.4,435.5 L707.6,430.0 L716.6,418.9 L722.2,403.4 L726.7,389.6 L729.1,376.3 L726.8,363.5 L719.3,353.8 L710.9,347.7 L696.6,344.1 L678.3,343.8 L663.7,350.8 Z" fill="#2f7825" stroke="none"/>
<path d="M526.4,162.1 L521.4,168.9 L517.9,175.6 L516.2,182.3 L515.3,191.6 L513.6,198.3 L509.1,204.8 L500.8,209.5 L494.7,213.3 L489.7,218.5 L485.4,225.8 L483.2,235.7 L485.2,245.9 L488.8,253.9 L494.3,259.8 L500.7,261.9 L507.6,260.1 L515.4,255.6 L520.7,247.3 L527.1,238.9 L533.7,232.0 L545.0,224.9 L558.4,217.8 L567.0,210.3 L572.1,198.1 L573.6,186.4 L570.5,174.2 L563.6,164.1 L554.3,157.1 L543.2,155.6 L531.8,158.1 L526.4,162.1 Z" fill="#2f7825" stroke="none"/>
<path d="M766.5,193.0 L755.1,195.3 L746.1,205.8 L739.9,215.4 L726.3,223.6 L712.1,231.2 L700.3,243.5 L696.1,263.2 L702.2,280.7 L715.3,297.5 L729.7,307.5 L744.3,310.7 L759.9,306.5 L767.0,296.9 L768.7,281.2 L772.0,266.1 L780.0,254.6 L788.9,245.0 L796.8,236.9 L801.5,225.9 L800.1,216.6 L795.0,206.6 L788.0,199.6 L777.8,194.4 L766.5,193.0 Z" fill="#2f7825" stroke="none"/>
<path d="M623.8,315.4 L176.2,467.5" fill="none" stroke="#ffd64a" stroke-width="3.5" stroke-linecap="round" stroke-linejoin="round" opacity="0.95"/>
</svg>