<svg xmlns="http://www.w3.org/2000/svg" viewBox="0 0 800 734" preserveAspectRatio="xMidYMid meet">
<rect width="100%" height="100%" fill="#143018"/>
<path d="M82.9,651.1 L381.2,326.0 L717.1,82.7" fill="none" stroke="#4e8b39" stroke-width="64.5" stroke-linecap="round" stroke-linejoin="round" opacity="0.85"/>
<path d="M291.9,258.8 L294.2,258.3 L294.5,255.8 L291.8,255.4 L288.4,255.3 L282.0,252.9 L250.3,253.3 L233.6,253.4 L219.1,255.8 L198.3,259.0 L186.3,260.1 L187.2,262.2 L203.5,260.4 L233.5,256.3 L253.3,255.4 L277.7,256.0 L291.9,258.8 Z" fill="#2e5577" stroke="none"/>
<path d="M443.7,155.7 L436.3,160.8 L418.8,170.9 L412.5,176.6 L407.3,179.7 L398.0,187.5 L387.6,196.0 L381.8,204.4 L376.7,210.4 L371.8,216.5 L369.2,219.6 L372.3,220.9 L383.2,206.6 L393.2,195.3 L403.7,184.9 L409.7,181.9 L418.4,175.5 L432.0,166.4 L440.7,159.4 L445.0,157.7 L443.7,155.7 Z" fill="#2e5577" stroke="none"/>
<path d="M139.6,109.7 L115.4,103.6 L107.3,102.0 L101.2,100.9 L61.4,184.5 L64.3,184.8 L76.6,157.8 L85.1,139.9 L92.5,123.2 L99.7,108.8 L102.7,102.7 L124.6,108.2 L135.0,110.4 L139.1,111.7 L139.6,109.7 Z" fill="#2e5577" stroke="none"/>
<path d="M568.9,774.2 L567.6,774.8 L566.3,775.0 L564.8,774.7 L563.7,774.2 L563.1,773.4 L562.7,772.3 L562.7,770.9 L563.2,769.9 L564.0,769.2 L565.4,768.8 L566.7,768.6 L567.7,768.0 L568.4,767.2 L569.1,766.3 L569.7,765.6 L570.9,765.0 L572.1,764.7 L573.3,764.7 L574.2,765.0 L575.3,765.8 L575.9,767.0 L576.1,768.5 L576.0,769.9 L575.6,771.1 L574.6,772.3 L573.1,772.9 L571.5,773.2 L570.1,773.4 L568.9,774.2 Z" fill="#e7d6a3" stroke="none"/>
<path d="M525.2,755.1 L523.9,755.1 L522.7,754.7 L521.5,754.1 L520.7,753.1 L520.0,752.2 L519.7,751.1 L519.9,750.2 L520.1,749.3 L521.0,748.2 L522.6,746.6 L523.2,746.0 L523.5,745.4 L524.6,742.6 L525.0,741.8 L525.6,741.1 L526.5,740.8 L527.5,740.7 L529.0,740.9 L530.6,741.4 L531.5,741.9 L532.1,742.6 L532.5,743.5 L532.7,744.7 L532.4,745.9 L531.6,747.2 L530.2,748.0 L528.7,748.6 L528.0,749.3 L527.7,750.0 L527.5,753.3 L527.2,754.0 L526.2,754.8 L525.2,755.1 Z" fill="#e7d6a3" stroke="none"/>
<path d="M136.6,771.9 L138.1,772.3 L139.4,772.6 L140.9,773.7 L143.1,776.3 L144.1,777.1 L145.5,777.5 L146.8,777.3 L148.3,776.3 L148.9,774.9 L148.8,773.5 L148.0,772.0 L146.4,770.3 L146.1,769.3 L145.8,767.7 L145.1,766.7 L144.0,765.9 L142.9,765.5 L139.8,765.4 L138.0,765.8 L136.5,766.4 L135.4,767.4 L134.7,768.8 L134.8,770.0 L135.5,771.0 L136.6,771.9 Z" fill="#e7d6a3" stroke="none"/>
<path d="M188.3,745.7 L189.6,746.3 L191.3,746.2 L192.7,745.6 L194.0,744.5 L194.8,743.1 L195.1,741.9 L195.0,740.6 L194.5,739.6 L193.5,738.8 L191.8,738.2 L190.5,738.3 L189.0,738.8 L187.9,739.9 L187.0,741.3 L186.8,742.7 L187.2,744.3 L188.3,745.7 Z" fill="#e7d6a3" stroke="none"/>
<path d="M230.8,765.4 L232.1,765.0 L233.2,763.6 L233.5,762.3 L233.6,760.7 L233.1,759.6 L232.2,758.7 L230.7,758.3 L229.3,758.3 L227.9,758.9 L226.6,759.9 L226.1,761.0 L225.8,762.3 L226.2,763.6 L226.9,764.4 L228.8,765.5 L230.8,765.4 Z" fill="#e7d6a3" stroke="none"/>
<path d="M195.6,771.4 L194.6,771.7 L193.8,772.3 L193.2,773.2 L192.9,774.2 L192.9,775.2 L193.3,776.2 L193.9,777.1 L194.9,777.7 L196.0,777.9 L197.1,777.8 L198.1,777.3 L198.9,776.5 L199.4,775.5 L199.5,774.3 L199.2,773.3 L198.5,772.3 L197.7,771.7 L196.7,771.4 L195.6,771.4 Z" fill="#e7d6a3" stroke="none"/>
<path d="M-18.2,333.4 L-19.2,330.3 L-17.6,326.8 L-14.9,326.8 L-11.9,327.1 L-10.7,329.2 L-10.7,332.3 L-11.9,334.3 L-15.4,334.5 L-18.2,333.4 Z" fill="#e7d6a3" stroke="none"/>
<path d="M-19.7,310.6 L-15.5,310.5 L-12.1,312.1 L-10.4,315.1 L-11.8,317.5 L-15.1,317.6 L-17.8,317.6 L-20.9,315.7 L-20.6,313.1 L-19.7,310.6 Z" fill="#e7d6a3" stroke="none"/>
<path d="M62.1,299.7 L62.1,298.4 L62.5,296.7 L63.2,295.5 L64.3,294.7 L65.6,294.6 L66.7,294.8 L67.6,295.4 L68.2,296.4 L68.5,297.9 L68.3,298.6 L68.0,299.5 L67.5,300.3 L66.4,301.0 L65.1,301.4 L63.9,301.3 L62.8,300.8 L62.1,299.7 Z" fill="#e7d6a3" stroke="none"/>
<path d="M83.2,290.9 L83.4,289.7 L84.2,288.5 L85.3,287.4 L86.6,286.8 L88.3,286.7 L89.6,286.9 L90.5,288.1 L90.8,289.4 L90.3,291.0 L89.6,292.2 L88.6,293.0 L87.2,293.5 L85.7,293.6 L84.6,293.2 L83.7,292.2 L83.2,290.9 Z" fill="#e7d6a3" stroke="none"/>
<path d="M125.7,256.6 L126.6,255.1 L126.9,254.7 L128.0,253.9 L129.4,253.5 L130.8,253.5 L132.3,253.8 L133.3,254.5 L133.8,255.2 L133.9,256.2 L133.8,257.2 L133.3,258.3 L132.7,259.3 L131.3,260.2 L129.4,260.6 L128.0,260.6 L126.8,259.9 L126.1,259.1 L125.7,258.0 L125.7,256.6 Z" fill="#e7d6a3" stroke="none"/>
<path d="M374.8,351.9 L375.1,350.4 L376.4,348.4 L377.9,346.7 L379.5,345.7 L381.4,345.1 L383.2,345.2 L384.1,345.7 L384.7,346.5 L385.0,347.5 L384.9,348.3 L384.5,349.0 L380.1,351.0 L379.5,351.4 L379.0,351.9 L378.8,352.4 L378.6,353.4 L378.7,354.1 L379.7,356.8 L380.0,357.7 L380.0,358.7 L379.7,359.4 L379.1,360.1 L375.2,361.0 L374.0,361.3 L373.1,361.2 L372.5,360.7 L372.3,359.7 L372.2,358.5 L372.4,356.9 L372.9,355.9 L373.7,354.8 L374.2,354.2 L374.4,353.4 L374.8,351.9 Z" fill="#e7d6a3" stroke="none"/>
<path d="M465.4,286.5 L466.6,285.2 L468.3,284.9 L469.8,284.9 L471.1,285.5 L471.8,286.5 L472.2,287.7 L472.1,289.0 L471.6,290.2 L470.5,291.4 L469.3,292.0 L467.6,292.1 L466.2,291.6 L465.3,290.7 L464.7,289.4 L464.8,287.8 L465.4,286.5 Z" fill="#e7d6a3" stroke="none"/>
<path d="M444.5,223.6 L445.0,222.5 L445.8,221.7 L446.8,221.3 L447.9,221.2 L449.1,221.3 L450.1,221.7 L451.2,222.2 L452.9,222.1 L454.1,222.1 L455.5,222.7 L456.5,223.7 L457.1,225.0 L457.0,226.7 L456.4,228.1 L455.5,229.0 L454.1,229.5 L452.6,229.5 L451.4,229.1 L450.5,228.2 L449.4,227.5 L448.2,227.5 L446.7,227.5 L445.5,226.9 L444.7,226.2 L444.5,224.9 L444.5,223.6 Z" fill="#e7d6a3" stroke="none"/>
<path d="M541.6,186.7 L541.2,185.6 L540.6,185.1 L539.9,185.0 L538.9,185.1 L538.1,185.5 L537.4,186.3 L536.7,187.5 L535.0,190.8 L534.6,192.4 L534.7,193.7 L535.6,195.3 L536.8,196.4 L538.5,197.2 L540.4,197.7 L541.7,197.7 L542.4,197.2 L543.1,196.4 L543.2,195.6 L543.1,194.7 L542.8,194.0 L542.1,193.3 L541.2,192.9 L540.9,192.3 L540.8,191.7 L541.6,187.4 L541.6,186.7 Z" fill="#e7d6a3" stroke="none"/>
<path d="M612.6,172.5 L612.9,173.6 L613.8,174.6 L618.4,176.9 L619.4,177.1 L621.4,177.0 L622.9,176.3 L623.7,175.5 L624.0,174.4 L624.0,172.8 L623.7,171.6 L623.0,170.6 L621.2,169.3 L619.0,168.6 L617.5,168.6 L615.5,168.8 L614.1,169.4 L613.1,170.3 L612.6,171.2 L612.6,172.5 Z" fill="#e7d6a3" stroke="none"/>
<path d="M705.5,112.2 L706.3,112.2 L708.7,112.4 L709.5,112.4 L710.3,112.2 L711.2,112.1 L712.1,112.2 L713.3,112.4 L714.8,112.5 L715.8,112.2 L716.5,111.9 L717.2,111.4 L718.0,111.0 L719.1,111.1 L720.1,111.6 L720.7,112.2 L721.1,113.2 L721.1,114.3 L720.8,115.2 L720.0,116.4 L717.9,117.3 L716.5,117.6 L714.9,117.6 L712.9,117.1 L711.4,116.9 L709.1,117.3 L706.4,117.8 L705.2,117.7 L704.3,117.3 L703.5,116.5 L703.2,115.6 L703.2,114.5 L703.6,113.4 L704.3,112.7 L705.5,112.2 Z" fill="#e7d6a3" stroke="none"/>
<path d="M682.6,95.5 L683.7,95.2 L684.4,94.6 L684.9,93.6 L685.2,92.2 L685.4,91.1 L685.6,90.2 L685.8,89.6 L686.2,88.7 L686.7,87.9 L686.9,86.9 L686.9,85.7 L686.6,85.0 L685.9,84.5 L685.1,84.4 L683.7,84.7 L682.8,85.3 L681.7,86.7 L680.8,88.5 L680.2,90.7 L680.0,92.7 L680.2,94.1 L680.8,94.9 L681.6,95.4 L682.6,95.5 Z" fill="#e7d6a3" stroke="none"/>
<path d="M688.4,75.5 L689.4,75.5 L690.3,75.2 L690.9,74.7 L691.4,73.9 L691.4,73.1 L691.2,71.8 L691.3,70.7 L691.6,69.9 L692.3,68.8 L692.6,68.2 L692.6,67.8 L692.4,67.3 L691.9,66.8 L691.2,66.6 L690.3,66.6 L689.3,66.8 L688.5,67.4 L687.7,68.6 L686.9,70.7 L686.7,72.5 L687.0,74.0 L687.5,75.0 L688.4,75.5 Z" fill="#e7d6a3" stroke="none"/>
<path d="M482.7,-42.8 L481.8,-43.4 L480.8,-45.1 L480.4,-46.3 L480.4,-47.5 L480.9,-48.4 L481.7,-49.2 L482.8,-49.6 L483.9,-49.6 L485.2,-49.2 L485.9,-48.4 L486.5,-47.2 L486.8,-46.0 L486.9,-44.9 L486.5,-43.9 L485.7,-43.0 L484.7,-42.6 L483.7,-42.4 L482.7,-42.8 Z" fill="#e7d6a3" stroke="none"/>
<path d="M494.4,-24.4 L494.3,-23.4 L494.5,-22.3 L495.2,-21.4 L496.1,-20.8 L497.1,-20.7 L498.1,-21.0 L499.3,-21.8 L500.3,-23.2 L500.6,-24.0 L500.6,-24.9 L500.2,-25.8 L499.8,-26.2 L499.2,-26.5 L498.2,-26.7 L497.0,-26.6 L495.9,-26.2 L495.0,-25.5 L494.4,-24.4 Z" fill="#e7d6a3" stroke="none"/>
<path d="M439.5,-38.0 L439.3,-36.8 L439.7,-35.7 L440.7,-34.8 L441.9,-34.5 L443.3,-34.5 L444.6,-35.0 L445.6,-35.9 L447.7,-39.7 L447.9,-40.6 L447.8,-42.0 L447.3,-43.2 L446.6,-43.8 L445.0,-44.4 L443.9,-44.3 L443.1,-43.8 L442.7,-43.0 L442.2,-41.5 L441.3,-40.2 L440.1,-39.0 L439.5,-38.0 Z" fill="#e7d6a3" stroke="none"/>
<path d="M426.1,-8.1 L426.4,-9.3 L427.4,-10.2 L428.7,-10.6 L430.0,-10.4 L431.0,-9.7 L431.7,-8.6 L432.1,-7.4 L432.1,-3.2 L431.8,-2.2 L431.0,-1.5 L429.8,-1.0 L428.8,-0.9 L427.7,-1.2 L426.7,-1.8 L426.2,-2.9 L426.1,-8.1 Z" fill="#e7d6a3" stroke="none"/>
<path d="M320.4,-38.3 L321.1,-39.3 L322.7,-40.0 L325.8,-40.8 L328.0,-40.9 L330.0,-40.6 L331.0,-39.9 L331.4,-38.7 L331.4,-36.9 L331.1,-35.8 L330.6,-34.8 L329.5,-33.8 L328.5,-33.4 L327.3,-33.3 L326.4,-33.6 L325.8,-33.9 L325.1,-34.1 L323.1,-34.1 L321.7,-34.2 L320.8,-34.7 L320.2,-35.9 L320.1,-37.1 L320.4,-38.3 Z" fill="#e7d6a3" stroke="none"/>
<path d="M283.5,-32.2 L283.8,-33.3 L284.3,-34.4 L285.2,-35.2 L286.1,-35.4 L287.2,-35.2 L287.9,-35.0 L288.4,-34.7 L288.8,-34.2 L288.9,-33.5 L288.8,-32.7 L288.5,-31.9 L287.6,-31.0 L286.8,-30.5 L285.8,-30.2 L284.8,-30.3 L284.0,-30.7 L283.6,-31.5 L283.5,-32.2 Z" fill="#e7d6a3" stroke="none"/>
<path d="M256.3,-34.9 L255.8,-36.0 L255.8,-37.3 L256.1,-38.4 L257.0,-39.3 L258.0,-40.2 L259.4,-40.6 L260.8,-40.6 L261.9,-40.2 L263.1,-39.5 L263.6,-38.9 L263.8,-38.0 L263.7,-36.8 L263.4,-35.6 L262.5,-34.6 L261.3,-33.9 L260.1,-33.6 L258.7,-33.5 L257.2,-34.1 L256.3,-34.9 Z" fill="#e7d6a3" stroke="none"/>
<path d="M223.0,-26.1 L224.4,-26.4 L225.6,-27.2 L227.6,-29.0 L228.4,-30.2 L228.8,-31.3 L228.8,-32.7 L228.4,-34.0 L228.1,-34.7 L227.3,-35.1 L226.2,-35.2 L224.8,-35.1 L223.8,-34.5 L222.6,-33.3 L221.1,-31.6 L220.7,-30.0 L220.8,-28.4 L221.2,-27.4 L222.1,-26.3 L223.0,-26.1 Z" fill="#e7d6a3" stroke="none"/>
<path d="M724.6,726.1 L736.2,742.4 L716.1,743.3 L710.8,736.0 L724.6,726.1 Z" fill="#4f8a3e" stroke="none"/>
<path d="M729.1,775.0 L734.8,780.6 L744.2,770.6 L738.4,765.5 L729.1,775.0 Z" fill="#4f8a3e" stroke="none"/>
<path d="M757.1,744.0 L747.1,752.2 L753.5,760.0 L763.2,751.5 L757.1,744.0 Z" fill="#4f8a3e" stroke="none"/>
<path d="M643.1,782.4 L654.1,795.9 L691.4,765.5 L680.5,752.1 L643.1,782.4 Z" fill="#4f8a3e" stroke="none"/>
<path d="M612.7,-148.9 L610.0,-151.4 L606.9,-153.7 L601.9,-153.2 L597.4,-150.6 L595.1,-147.9 L600.4,-126.8 L609.5,-96.6 L617.9,-68.0 L622.5,-55.4 L626.3,-53.3 L632.2,-53.6 L636.7,-57.5 L638.2,-61.9 L612.7,-148.9 Z" fill="#4f8a3e" stroke="none"/>
<path d="M619.1,-24.1 L618.1,-20.8 L618.6,-11.4 L620.9,-7.3 L628.3,-7.2 L630.6,-8.1 L632.2,-11.9 L632.0,-17.8 L630.0,-23.5 L625.8,-25.5 L619.1,-24.1 Z" fill="#4f8a3e" stroke="none"/>
<path d="M158.9,-99.9 L105.1,-78.9 L136.4,1.7 L190.3,-19.3 L158.9,-99.9 Z" fill="#4f8a3e" stroke="none"/>
<path d="M386.1,-1.9 L383.3,-5.7 L380.0,-7.0 L376.0,-7.3 L372.3,-6.0 L365.4,-1.5 L361.9,1.1 L359.4,4.1 L358.8,7.1 L359.2,10.2 L364.5,17.1 L369.7,19.8 L373.3,19.2 L381.7,14.8 L387.6,8.2 L388.4,5.4 L387.7,1.5 L386.1,-1.9 Z" fill="#4f8a3e" stroke="none"/>
<path d="M340.3,53.8 L323.8,36.8 L321.0,36.4 L318.8,37.5 L308.3,46.1 L305.4,49.6 L305.8,52.6 L319.5,68.2 L321.9,69.6 L325.2,70.1 L328.4,68.5 L340.3,58.2 L340.3,53.8 Z" fill="#4f8a3e" stroke="none"/>
<path d="M36.5,575.8 L39.0,583.5 L41.4,585.4 L44.9,584.6 L51.3,583.5 L54.8,580.9 L54.4,575.9 L52.7,571.7 L50.4,568.8 L47.7,567.5 L44.0,568.3 L40.1,571.3 L36.5,575.8 Z" fill="#4f8a3e" stroke="none"/>
<path d="M-8.6,615.1 L-12.8,613.5 L-23.0,620.9 L-22.8,623.8 L-19.4,631.9 L-16.5,632.7 L-11.9,631.9 L-6.7,629.0 L-4.3,626.5 L-4.5,621.1 L-8.6,615.1 Z" fill="#4f8a3e" stroke="none"/>
<path d="M-47.7,649.9 L-41.9,646.3 L-41.1,642.5 L-43.0,636.9 L-47.4,633.6 L-50.8,633.4 L-58.8,637.5 L-78.6,648.5 L-89.2,654.7 L-91.1,656.8 L-91.0,661.8 L-86.7,667.0 L-80.9,666.2 L-67.8,659.6 L-57.9,654.6 L-51.3,651.2 L-47.7,649.9 Z" fill="#4f8a3e" stroke="none"/>
<path d="M228.3,669.1 L233.0,671.1 L235.2,675.5 L234.7,680.3 L230.5,687.4 L223.0,689.2 L218.3,688.8 L215.3,684.6 L214.3,681.2 L216.6,675.4 L222.8,670.0 L228.3,669.1 Z" fill="#4f8a3e" stroke="none"/>
<path d="M116.5,606.5 L125.5,619.9 L128.8,621.5 L132.1,621.2 L134.7,619.6 L176.0,571.6 L161.0,559.3 L116.5,606.5 Z" fill="#4f8a3e" stroke="none"/>
<path d="M163.6,149.4 L169.4,143.0 L170.6,139.7 L170.7,136.3 L168.8,134.2 L166.3,134.0 L164.2,134.5 L161.8,136.3 L155.5,143.3 L154.4,145.8 L153.8,148.3 L154.5,150.3 L156.5,151.8 L159.0,151.8 L160.9,151.6 L163.6,149.4 Z" fill="#4f8a3e" stroke="none"/>
<path d="M84.1,656.8 L88.9,654.0 L91.1,651.1 L91.4,648.0 L90.2,645.7 L87.8,644.6 L84.2,645.0 L79.6,648.4 L78.2,650.8 L78.2,653.6 L78.7,655.8 L81.2,657.1 L84.1,656.8 Z" fill="#4f8a3e" stroke="none"/>
<path d="M55.5,-88.1 L5.3,-72.0 L54.9,82.3 L105.0,66.2 L55.5,-88.1 Z" fill="#4f8a3e" stroke="none"/>
<path d="M548.4,726.9 L553.1,725.9 L559.2,725.7 L564.8,726.5 L570.9,728.6 L576.0,731.6 L580.0,736.1 L581.7,740.1 L582.4,744.9 L581.6,748.9 L579.1,751.9 L575.4,753.3 L571.6,753.4 L568.1,753.6 L564.0,755.0 L560.7,757.7 L556.2,761.7 L552.7,764.7 L549.6,765.7 L545.9,765.6 L542.3,763.9 L539.0,761.0 L536.1,756.9 L535.0,754.1 L535.2,749.5 L535.8,743.7 L536.9,739.4 L538.7,735.7 L540.7,732.8 L544.3,729.3 L548.4,726.9 Z" fill="#2f7825" stroke="none"/>
<path d="M754.5,-71.6 L742.1,-69.1 L729.3,-68.7 L725.6,-67.1 L723.9,-64.6 L722.9,-62.3 L723.1,-58.6 L725.7,-48.2 L726.1,-43.9 L724.9,-38.6 L720.6,-24.2 L720.7,-20.7 L724.0,-12.9 L728.7,-9.9 L732.1,-8.3 L740.5,-7.2 L749.1,-7.7 L754.9,-8.9 L763.0,-13.0 L769.4,-18.0 L771.7,-21.1 L773.4,-25.5 L774.0,-31.1 L773.3,-39.9 L771.0,-49.5 L763.8,-66.6 L761.8,-68.7 L758.5,-71.2 L754.5,-71.6 Z" fill="#2f7825" stroke="none"/>
<path d="M-61.0,8.8 L-63.0,9.4 L-92.0,34.3 L-94.8,39.3 L-95.1,44.8 L-94.6,47.6 L-92.9,50.2 L-89.9,51.3 L-85.8,50.7 L-81.4,48.7 L-50.3,24.1 L-48.2,21.5 L-47.8,17.6 L-48.9,14.3 L-50.4,11.3 L-53.7,9.1 L-57.1,8.7 L-61.0,8.8 Z" fill="#2f7825" stroke="none"/>
<path d="M343.9,-62.8 L348.3,-69.4 L349.9,-71.0 L352.4,-71.9 L356.1,-70.9 L357.4,-69.2 L358.0,-66.4 L358.0,-63.3 L358.3,-60.6 L359.9,-56.7 L363.1,-52.8 L364.1,-49.8 L364.4,-46.9 L363.8,-43.9 L361.3,-40.6 L358.1,-38.9 L353.4,-38.2 L347.6,-39.3 L337.6,-44.6 L333.8,-46.1 L330.1,-46.7 L326.7,-46.0 L324.2,-44.9 L316.8,-40.2 L314.4,-38.7 L310.8,-38.0 L307.2,-38.0 L304.5,-39.0 L301.5,-40.8 L299.8,-43.1 L299.3,-45.6 L299.4,-49.4 L299.8,-53.2 L301.4,-56.9 L303.3,-59.9 L306.4,-62.5 L310.4,-64.3 L313.8,-65.0 L317.4,-64.9 L320.6,-64.0 L323.4,-62.2 L327.0,-60.4 L330.8,-59.4 L337.1,-59.5 L341.8,-61.1 L343.9,-62.8 Z" fill="#2f7825" stroke="none"/>
<path d="M293.2,-16.9 L293.1,-19.4 L292.3,-21.9 L290.9,-23.8 L279.4,-30.9 L274.7,-33.0 L271.7,-33.8 L268.9,-33.5 L266.1,-32.7 L262.8,-31.3 L260.6,-30.6 L257.8,-30.8 L253.6,-32.0 L247.9,-33.5 L243.5,-33.8 L239.8,-33.1 L236.6,-31.6 L233.2,-29.3 L230.1,-26.0 L228.1,-21.7 L227.7,-17.6 L228.4,-13.1 L230.2,-9.7 L233.7,-5.9 L236.8,-4.2 L240.9,-3.8 L246.1,-3.9 L255.7,-5.6 L265.0,-8.6 L270.9,-9.8 L278.3,-10.4 L287.9,-10.4 L290.7,-11.5 L292.4,-14.0 L293.2,-16.9 Z" fill="#2f7825" stroke="none"/>
<path d="M481.1,-35.0 L483.5,-29.8 L484.4,-24.1 L483.1,-11.7 L477.1,12.8 L474.2,15.6 L469.7,17.1 L464.3,16.8 L460.5,15.0 L453.0,10.5 L447.8,5.5 L442.8,-1.8 L441.0,-8.8 L440.3,-19.4 L441.2,-25.4 L443.6,-30.2 L448.6,-36.4 L452.8,-40.2 L457.8,-42.4 L463.9,-44.0 L468.9,-43.8 L473.9,-42.3 L478.3,-38.8 L481.1,-35.0 Z" fill="#2f7825" stroke="none"/>
<path d="M186.4,753.0 L182.2,755.9 L180.9,757.4 L179.9,759.6 L180.1,762.8 L182.4,767.1 L184.9,769.2 L188.4,770.0 L191.7,769.2 L194.6,768.4 L198.4,768.8 L205.1,769.6 L209.8,769.2 L213.9,767.2 L217.7,765.1 L221.6,759.6 L223.6,758.0 L225.7,756.8 L229.4,755.9 L235.8,754.8 L241.5,751.4 L245.3,748.2 L247.3,744.2 L246.9,739.8 L245.7,736.1 L243.6,733.8 L239.4,730.8 L234.3,728.8 L231.4,728.7 L227.0,730.6 L213.7,738.3 L208.0,741.7 L202.6,744.5 L196.6,747.6 L186.4,753.0 Z" fill="#2f7825" stroke="none"/>
<path d="M726.6,63.1 L719.5,60.6 L711.8,59.3 L707.1,59.3 L704.7,60.4 L702.6,62.2 L701.6,64.6 L700.6,70.1 L699.3,76.8 L696.9,83.5 L692.0,90.8 L686.8,97.7 L685.5,100.0 L684.5,103.1 L684.5,105.8 L685.3,108.6 L687.1,111.3 L690.1,113.0 L693.4,113.7 L696.9,112.8 L701.6,110.2 L705.4,107.8 L710.3,105.9 L714.6,105.5 L720.0,105.2 L725.7,104.4 L730.7,101.9 L734.8,98.7 L737.8,94.3 L740.3,87.7 L741.3,82.5 L740.6,77.0 L738.9,73.3 L735.1,68.5 L731.5,65.8 L726.6,63.1 Z" fill="#2f7825" stroke="none"/>
<path d="M82.9,651.1 L381.2,326.0 L717.1,82.7" fill="none" stroke="#ffd64a" stroke-width="3.5" stroke-linecap="round" stroke-linejoin="round" opacity="0.95"/>
</svg>