<svg xmlns="http://www.w3.org/2000/svg" viewBox="0 0 800 600" preserveAspectRatio="xMidYMid slice">
<rect width="100%" height="100%" fill="#143018"/>
<path d="M321.3,227.2 L323.1,226.8 L323.4,224.9 L321.2,224.6 L318.6,224.5 L313.7,222.7 L289.1,223.0 L276.1,223.1 L264.8,224.9 L248.7,227.4 L239.4,228.2 L240.1,229.9 L252.7,228.5 L276.0,225.3 L291.4,224.6 L310.3,225.1 L321.3,227.2 Z" fill="#2e5577" stroke="none"/>
<path d="M439.1,147.2 L433.3,151.3 L419.8,159.0 L414.8,163.5 L410.8,165.9 L403.6,172.0 L395.6,178.5 L391.0,185.1 L387.1,189.7 L383.3,194.5 L381.3,196.9 L383.7,197.9 L392.1,186.8 L399.9,178.0 L408.1,169.9 L412.7,167.6 L419.5,162.7 L430.0,155.6 L436.7,150.2 L440.1,148.9 L439.1,147.2 Z" fill="#2e5577" stroke="none"/>
<path d="M203.2,111.6 L184.4,106.9 L178.2,105.7 L173.4,104.8 L142.6,169.6 L144.8,169.8 L154.4,148.9 L160.9,135.0 L166.7,122.1 L172.2,110.9 L174.6,106.2 L191.6,110.4 L199.7,112.1 L202.8,113.1 L203.2,111.6 Z" fill="#2e5577" stroke="none"/>
<path d="M536.2,626.9 L535.2,627.4 L534.1,627.6 L533.0,627.4 L532.2,627.0 L531.7,626.4 L531.3,625.5 L531.4,624.4 L531.8,623.6 L532.4,623.1 L533.5,622.8 L534.5,622.6 L535.3,622.2 L535.8,621.6 L536.3,620.9 L536.8,620.3 L537.7,619.8 L538.6,619.6 L539.6,619.6 L540.3,619.9 L541.1,620.5 L541.6,621.4 L541.8,622.6 L541.7,623.6 L541.4,624.6 L540.6,625.5 L539.4,625.9 L538.2,626.2 L537.1,626.4 L536.2,626.9 Z" fill="#e7d6a3" stroke="none"/>
<path d="M502.3,612.2 L501.3,612.1 L500.3,611.9 L499.4,611.4 L498.8,610.6 L498.2,609.9 L498.0,609.1 L498.1,608.3 L498.3,607.6 L499.0,606.8 L500.3,605.5 L500.7,605.1 L501.0,604.7 L501.8,602.5 L502.2,601.8 L502.6,601.3 L503.3,601.1 L504.1,601.0 L505.2,601.2 L506.5,601.6 L507.2,601.9 L507.6,602.4 L507.9,603.2 L508.1,604.1 L507.9,605.0 L507.3,606.0 L506.2,606.7 L505.0,607.2 L504.4,607.6 L504.2,608.2 L504.1,610.8 L503.8,611.3 L503.1,611.9 L502.3,612.2 Z" fill="#e7d6a3" stroke="none"/>
<path d="M200.8,625.2 L202.0,625.5 L203.1,625.7 L204.2,626.6 L205.9,628.6 L206.7,629.2 L207.8,629.5 L208.8,629.4 L209.9,628.6 L210.4,627.5 L210.3,626.5 L209.7,625.3 L208.4,623.9 L208.3,623.2 L208.0,621.9 L207.5,621.2 L206.6,620.5 L205.8,620.2 L203.4,620.2 L202.0,620.5 L200.8,620.9 L199.9,621.7 L199.4,622.8 L199.5,623.7 L200.0,624.5 L200.8,625.2 Z" fill="#e7d6a3" stroke="none"/>
<path d="M241.0,604.9 L242.0,605.4 L243.3,605.2 L244.4,604.8 L245.4,603.9 L246.1,602.8 L246.2,601.9 L246.1,601.0 L245.8,600.1 L245.0,599.5 L243.7,599.1 L242.7,599.1 L241.5,599.5 L240.6,600.4 L240.0,601.4 L239.8,602.5 L240.1,603.8 L241.0,604.9 Z" fill="#e7d6a3" stroke="none"/>
<path d="M273.9,620.2 L274.9,619.8 L275.8,618.7 L276.0,617.8 L276.1,616.5 L275.8,615.7 L275.0,615.0 L273.9,614.7 L272.8,614.7 L271.7,615.1 L270.7,615.9 L270.3,616.7 L270.1,617.7 L270.4,618.8 L270.9,619.3 L272.4,620.2 L273.9,620.2 Z" fill="#e7d6a3" stroke="none"/>
<path d="M246.7,624.8 L245.9,625.0 L245.2,625.5 L244.8,626.2 L244.5,627.0 L244.6,627.8 L244.8,628.6 L245.3,629.2 L246.1,629.7 L246.9,629.9 L247.8,629.8 L248.6,629.4 L249.2,628.8 L249.6,628.0 L249.6,627.1 L249.4,626.2 L248.9,625.5 L248.3,625.0 L247.5,624.8 L246.7,624.8 Z" fill="#e7d6a3" stroke="none"/>
<path d="M31.8,390.1 L31.1,389.9 L31.0,389.2 L31.1,388.5 L31.6,387.4 L32.1,386.9 L32.7,386.6 L33.3,386.5 L34.0,386.7 L36.1,388.1 L36.8,388.7 L37.3,389.5 L37.4,390.2 L37.4,390.9 L37.2,391.6 L36.7,392.2 L36.0,392.9 L35.2,393.1 L34.6,392.9 L34.0,392.5 L33.7,392.0 L33.4,391.1 L33.2,390.7 L32.7,390.4 L31.8,390.1 Z" fill="#e7d6a3" stroke="none"/>
<path d="M33.3,380.6 L32.7,380.0 L32.4,379.1 L32.4,378.1 L32.8,377.3 L33.4,376.5 L34.2,376.1 L35.3,376.0 L36.2,376.5 L36.7,377.0 L37.0,377.7 L36.9,378.7 L36.7,379.6 L36.0,380.3 L35.2,380.7 L34.0,380.8 L33.3,380.6 Z" fill="#e7d6a3" stroke="none"/>
<path d="M44.5,380.3 L44.5,379.6 L44.8,379.0 L45.4,378.4 L46.2,378.1 L47.2,378.0 L48.0,378.3 L48.7,378.8 L49.1,379.6 L48.9,380.5 L48.5,381.4 L47.9,381.9 L47.2,382.2 L46.2,382.3 L45.5,382.1 L45.1,381.8 L44.7,381.2 L44.5,380.3 Z" fill="#e7d6a3" stroke="none"/>
<path d="M3.3,360.1 L4.5,359.2 L5.6,359.0 L6.6,359.1 L7.3,359.4 L7.9,360.0 L8.2,360.7 L8.5,361.9 L8.5,362.9 L8.4,364.1 L7.8,365.0 L6.9,365.7 L5.7,366.0 L4.6,365.8 L3.4,364.9 L2.8,364.0 L2.4,362.5 L2.5,361.4 L3.3,360.1 Z" fill="#e7d6a3" stroke="none"/>
<path d="M5.3,353.7 L6.2,353.2 L6.8,352.4 L7.3,351.3 L7.6,349.8 L7.4,349.3 L7.2,348.9 L6.7,348.8 L6.0,348.7 L5.1,348.8 L4.2,349.5 L3.3,350.4 L2.7,351.1 L2.5,352.1 L2.5,352.9 L2.7,353.5 L3.3,353.9 L4.1,353.9 L5.3,353.7 Z" fill="#e7d6a3" stroke="none"/>
<path d="M80.8,285.1 L80.0,282.7 L81.3,280.0 L83.4,280.0 L85.7,280.2 L86.7,281.8 L86.6,284.2 L85.7,285.8 L83.0,286.0 L80.8,285.1 Z" fill="#e7d6a3" stroke="none"/>
<path d="M79.7,267.4 L82.9,267.4 L85.6,268.6 L86.9,270.9 L85.7,272.8 L83.2,272.8 L81.1,272.8 L78.8,271.4 L78.9,269.3 L79.7,267.4 Z" fill="#e7d6a3" stroke="none"/>
<path d="M143.1,259.0 L143.1,258.0 L143.4,256.7 L144.0,255.7 L144.8,255.1 L145.8,255.0 L146.7,255.2 L147.4,255.6 L147.8,256.4 L148.0,257.5 L147.9,258.2 L147.7,258.9 L147.3,259.5 L146.4,260.0 L145.4,260.3 L144.5,260.2 L143.6,259.8 L143.1,259.0 Z" fill="#e7d6a3" stroke="none"/>
<path d="M159.5,252.1 L159.6,251.2 L160.2,250.3 L161.1,249.4 L162.1,248.9 L163.4,248.9 L164.4,249.1 L165.1,250.0 L165.3,251.0 L164.9,252.2 L164.4,253.1 L163.7,253.8 L162.6,254.2 L161.4,254.2 L160.5,254.0 L159.9,253.2 L159.5,252.1 Z" fill="#e7d6a3" stroke="none"/>
<path d="M192.4,225.5 L193.1,224.4 L193.3,224.1 L194.2,223.4 L195.3,223.1 L196.4,223.1 L197.6,223.3 L198.3,223.9 L198.7,224.5 L198.8,225.2 L198.7,226.0 L198.3,226.9 L197.8,227.6 L196.7,228.3 L195.3,228.7 L194.2,228.6 L193.3,228.1 L192.7,227.5 L192.4,226.6 L192.4,225.5 Z" fill="#e7d6a3" stroke="none"/>
<path d="M385.6,299.4 L385.9,298.3 L386.9,296.7 L388.0,295.4 L389.2,294.7 L390.8,294.2 L392.2,294.3 L392.9,294.7 L393.3,295.3 L393.5,296.0 L393.5,296.6 L393.2,297.2 L389.7,298.7 L389.2,299.0 L388.9,299.5 L388.7,299.9 L388.6,300.7 L388.7,301.2 L389.4,303.3 L389.7,304.0 L389.7,304.7 L389.4,305.3 L389.0,305.8 L385.9,306.5 L385.0,306.7 L384.3,306.6 L383.9,306.3 L383.7,305.5 L383.6,304.6 L383.8,303.3 L384.2,302.5 L384.8,301.7 L385.2,301.3 L385.3,300.7 L385.6,299.4 Z" fill="#e7d6a3" stroke="none"/>
<path d="M455.9,248.7 L456.8,247.7 L458.2,247.5 L459.3,247.5 L460.3,248.0 L460.9,248.7 L461.2,249.7 L461.1,250.7 L460.7,251.6 L459.9,252.5 L458.9,253.0 L457.6,253.1 L456.5,252.7 L455.8,252.0 L455.4,251.0 L455.5,249.7 L455.9,248.7 Z" fill="#e7d6a3" stroke="none"/>
<path d="M439.7,199.9 L440.1,199.1 L440.7,198.5 L441.5,198.2 L442.3,198.1 L443.2,198.1 L444.0,198.5 L444.9,198.9 L446.2,198.8 L447.1,198.8 L448.2,199.3 L449.0,200.1 L449.4,201.0 L449.4,202.3 L449.0,203.5 L448.2,204.1 L447.1,204.6 L445.9,204.5 L445.1,204.2 L444.3,203.5 L443.5,203.0 L442.6,203.0 L441.4,203.0 L440.5,202.5 L439.8,201.9 L439.7,201.0 L439.7,199.9 Z" fill="#e7d6a3" stroke="none"/>
<path d="M515.0,171.4 L514.7,170.5 L514.2,170.1 L513.7,170.0 L512.9,170.1 L512.3,170.4 L511.7,171.0 L511.2,171.9 L509.9,174.5 L509.5,175.7 L509.7,176.8 L510.3,178.0 L511.2,178.9 L512.6,179.5 L514.1,179.9 L515.0,179.9 L515.6,179.5 L516.1,178.8 L516.3,178.2 L516.1,177.5 L516.0,177.0 L515.4,176.5 L514.7,176.1 L514.4,175.7 L514.4,175.2 L515.0,171.9 L515.0,171.4 Z" fill="#e7d6a3" stroke="none"/>
<path d="M570.0,160.3 L570.3,161.1 L571.0,162.0 L574.6,163.7 L575.4,163.9 L576.9,163.8 L578.1,163.2 L578.7,162.7 L578.9,161.8 L578.9,160.6 L578.7,159.6 L578.2,158.8 L576.7,157.8 L575.1,157.3 L573.9,157.3 L572.3,157.5 L571.2,157.9 L570.4,158.6 L570.1,159.3 L570.0,160.3 Z" fill="#e7d6a3" stroke="none"/>
<path d="M642.2,113.6 L642.7,113.5 L644.6,113.7 L645.2,113.7 L645.8,113.6 L646.5,113.5 L647.3,113.5 L648.2,113.7 L649.3,113.8 L650.1,113.6 L650.6,113.3 L651.2,112.9 L651.8,112.6 L652.6,112.7 L653.5,113.1 L653.9,113.6 L654.2,114.4 L654.2,115.2 L654.0,115.9 L653.4,116.8 L651.7,117.5 L650.7,117.8 L649.4,117.7 L647.8,117.4 L646.7,117.2 L644.9,117.5 L642.8,117.9 L641.9,117.8 L641.2,117.5 L640.6,116.9 L640.4,116.2 L640.3,115.3 L640.7,114.5 L641.2,113.9 L642.2,113.6 Z" fill="#e7d6a3" stroke="none"/>
<path d="M624.4,100.6 L625.2,100.3 L625.8,99.9 L626.1,99.1 L626.4,98.0 L626.5,97.2 L626.7,96.5 L626.8,96.0 L627.2,95.3 L627.5,94.7 L627.7,93.9 L627.7,93.0 L627.4,92.5 L626.9,92.1 L626.3,92.0 L625.2,92.2 L624.5,92.7 L623.7,93.8 L623.0,95.2 L622.5,96.9 L622.3,98.4 L622.5,99.5 L623.0,100.1 L623.6,100.5 L624.4,100.6 Z" fill="#e7d6a3" stroke="none"/>
<path d="M628.9,85.1 L629.6,85.1 L630.3,84.8 L630.8,84.5 L631.2,83.8 L631.2,83.2 L631.1,82.2 L631.1,81.4 L631.4,80.7 L631.9,79.9 L632.1,79.5 L632.1,79.1 L631.9,78.7 L631.6,78.3 L631.1,78.2 L630.3,78.1 L629.6,78.3 L628.9,78.8 L628.3,79.7 L627.7,81.3 L627.6,82.7 L627.7,83.9 L628.2,84.7 L628.9,85.1 Z" fill="#e7d6a3" stroke="none"/>
<path d="M475.1,-40.4 L474.1,-40.5 L473.2,-40.8 L472.4,-41.3 L471.7,-41.8 L471.3,-42.7 L471.3,-43.6 L471.6,-44.4 L472.2,-45.1 L473.2,-45.5 L474.2,-45.5 L475.8,-44.8 L476.6,-44.2 L477.1,-43.5 L477.2,-42.8 L477.1,-42.1 L476.7,-41.2 L476.0,-40.7 L475.1,-40.4 Z" fill="#e7d6a3" stroke="none"/>
<path d="M469.3,-6.6 L468.6,-7.1 L467.8,-8.4 L467.5,-9.4 L467.5,-10.3 L467.9,-11.0 L468.5,-11.6 L469.4,-11.9 L470.3,-12.0 L471.2,-11.6 L471.8,-11.0 L472.3,-10.1 L472.5,-9.2 L472.5,-8.3 L472.2,-7.5 L471.6,-6.8 L470.9,-6.5 L470.1,-6.4 L469.3,-6.6 Z" fill="#e7d6a3" stroke="none"/>
<path d="M478.4,7.6 L478.3,8.4 L478.5,9.3 L479.0,9.9 L479.7,10.4 L480.5,10.5 L481.3,10.3 L482.2,9.6 L483.0,8.5 L483.2,7.9 L483.2,7.2 L482.9,6.5 L482.6,6.2 L482.1,6.0 L481.3,5.8 L480.4,5.9 L479.5,6.2 L478.9,6.7 L478.4,7.6 Z" fill="#e7d6a3" stroke="none"/>
<path d="M435.8,-3.0 L435.6,-2.0 L435.9,-1.1 L436.7,-0.4 L437.7,-0.2 L438.8,-0.2 L439.7,-0.6 L440.5,-1.3 L442.2,-4.2 L442.4,-4.9 L442.3,-6.0 L441.9,-7.0 L441.3,-7.4 L440.1,-7.9 L439.2,-7.9 L438.6,-7.4 L438.3,-6.8 L437.9,-5.7 L437.2,-4.6 L436.2,-3.7 L435.8,-3.0 Z" fill="#e7d6a3" stroke="none"/>
<path d="M425.4,20.2 L425.6,19.3 L426.4,18.6 L427.4,18.3 L428.4,18.4 L429.2,19.0 L429.8,19.9 L430.1,20.8 L430.1,24.0 L429.8,24.8 L429.2,25.4 L428.3,25.8 L427.5,25.9 L426.6,25.6 L425.9,25.1 L425.5,24.3 L425.4,20.2 Z" fill="#e7d6a3" stroke="none"/>
<path d="M381.0,-28.8 L381.9,-28.7 L382.7,-28.3 L383.1,-27.8 L383.3,-27.1 L383.7,-26.3 L384.3,-25.7 L385.4,-24.6 L385.8,-23.7 L385.8,-22.7 L385.5,-22.0 L384.8,-21.5 L383.5,-21.3 L382.2,-21.3 L381.4,-21.7 L380.4,-22.6 L379.7,-23.6 L379.3,-25.0 L379.4,-26.7 L379.6,-27.6 L380.2,-28.4 L381.0,-28.8 Z" fill="#e7d6a3" stroke="none"/>
<path d="M351.7,-29.1 L352.1,-29.9 L352.9,-30.9 L354.3,-31.4 L355.3,-31.5 L356.1,-31.4 L356.8,-31.2 L357.4,-30.7 L357.6,-30.1 L357.7,-29.4 L357.5,-28.7 L356.8,-27.9 L355.7,-27.0 L354.5,-26.6 L353.4,-26.6 L352.4,-26.9 L351.8,-27.4 L351.6,-28.2 L351.7,-29.1 Z" fill="#e7d6a3" stroke="none"/>
<path d="M343.4,-3.2 L343.9,-3.9 L345.2,-4.5 L347.6,-5.1 L349.3,-5.2 L350.9,-4.9 L351.7,-4.4 L351.9,-3.5 L352.0,-2.1 L351.8,-1.2 L351.4,-0.5 L350.5,0.3 L349.8,0.6 L348.8,0.7 L348.1,0.5 L347.6,0.2 L347.1,0.1 L345.5,0.1 L344.5,-0.0 L343.8,-0.4 L343.3,-1.3 L343.2,-2.3 L343.4,-3.2 Z" fill="#e7d6a3" stroke="none"/>
<path d="M314.8,1.6 L315.0,0.7 L315.4,-0.1 L316.1,-0.8 L316.8,-1.0 L317.7,-0.8 L318.2,-0.6 L318.6,-0.4 L318.9,-0.0 L319.0,0.6 L319.0,1.1 L318.7,1.8 L318.0,2.5 L317.4,2.8 L316.6,3.1 L315.8,3.0 L315.2,2.7 L314.9,2.1 L314.8,1.6 Z" fill="#e7d6a3" stroke="none"/>
<path d="M293.7,-0.6 L293.3,-1.4 L293.3,-2.4 L293.6,-3.2 L294.2,-4.0 L295.1,-4.6 L296.1,-5.0 L297.2,-4.9 L298.1,-4.6 L299.0,-4.1 L299.4,-3.6 L299.6,-2.9 L299.5,-2.0 L299.2,-1.1 L298.5,-0.3 L297.6,0.2 L296.7,0.5 L295.6,0.5 L294.5,0.1 L293.7,-0.6 Z" fill="#e7d6a3" stroke="none"/>
<path d="M267.9,6.3 L269.0,6.0 L269.9,5.5 L271.4,4.0 L272.1,3.1 L272.4,2.2 L272.4,1.2 L272.1,0.1 L271.9,-0.4 L271.2,-0.7 L270.3,-0.8 L269.3,-0.7 L268.5,-0.2 L267.6,0.7 L266.5,2.0 L266.1,3.3 L266.2,4.5 L266.5,5.3 L267.2,6.1 L267.9,6.3 Z" fill="#e7d6a3" stroke="none"/>
<path d="M656.9,589.7 L666.0,602.3 L650.3,603.0 L646.2,597.3 L656.9,589.7 Z" fill="#4f8a3e" stroke="none"/>
<path d="M593.7,633.4 L602.2,643.8 L631.2,620.3 L622.7,609.8 L593.7,633.4 Z" fill="#4f8a3e" stroke="none"/>
<path d="M570.1,-89.0 L568.1,-90.9 L565.7,-92.7 L561.7,-92.3 L558.2,-90.3 L556.5,-88.2 L560.6,-71.8 L567.6,-48.4 L574.2,-26.2 L577.7,-16.5 L580.7,-14.8 L585.3,-15.1 L588.8,-18.0 L589.9,-21.5 L570.1,-89.0 Z" fill="#4f8a3e" stroke="none"/>
<path d="M575.1,7.8 L574.3,10.4 L574.7,17.7 L576.5,20.8 L582.3,20.9 L584.1,20.2 L585.2,17.3 L585.1,12.7 L583.5,8.3 L580.3,6.8 L575.1,7.8 Z" fill="#4f8a3e" stroke="none"/>
<path d="M218.2,-50.9 L176.4,-34.6 L200.7,27.8 L242.5,11.6 L218.2,-50.9 Z" fill="#4f8a3e" stroke="none"/>
<path d="M394.4,25.1 L392.2,22.1 L389.6,21.1 L386.5,20.9 L383.7,21.8 L378.3,25.4 L375.6,27.4 L373.7,29.7 L373.3,32.0 L373.5,34.5 L377.6,39.8 L381.7,41.9 L384.5,41.4 L390.9,38.0 L395.6,32.9 L396.2,30.7 L395.6,27.7 L394.4,25.1 Z" fill="#4f8a3e" stroke="none"/>
<path d="M358.9,68.2 L346.1,55.1 L343.9,54.7 L342.2,55.6 L334.0,62.3 L331.8,65.0 L332.1,67.3 L342.7,79.4 L344.6,80.5 L347.1,80.9 L349.6,79.7 L358.9,71.6 L358.9,68.2 Z" fill="#4f8a3e" stroke="none"/>
<path d="M123.2,473.1 L125.2,479.1 L127.1,480.6 L129.7,479.9 L134.7,479.1 L137.5,477.1 L137.2,473.2 L135.8,469.9 L134.0,467.7 L131.9,466.7 L129.1,467.3 L126.0,469.6 L123.2,473.1 Z" fill="#4f8a3e" stroke="none"/>
<path d="M88.3,503.6 L85.0,502.4 L77.1,508.1 L77.2,510.3 L79.8,516.6 L82.1,517.2 L85.7,516.6 L89.7,514.3 L91.6,512.4 L91.4,508.2 L88.3,503.6 Z" fill="#4f8a3e" stroke="none"/>
<path d="M272.0,545.5 L275.6,547.0 L277.4,550.5 L277.0,554.2 L273.7,559.6 L267.9,561.1 L264.3,560.8 L261.9,557.5 L261.1,554.8 L262.9,550.4 L267.8,546.1 L272.0,545.5 Z" fill="#4f8a3e" stroke="none"/>
<path d="M185.3,496.9 L192.3,507.3 L194.8,508.6 L197.4,508.3 L199.4,507.0 L231.4,469.8 L219.8,460.3 L185.3,496.9 Z" fill="#4f8a3e" stroke="none"/>
<path d="M556.8,662.0 L559.5,661.7 L561.2,662.1 L562.3,663.0 L563.2,664.3 L563.7,666.3 L563.5,667.9 L562.5,669.4 L560.9,670.2 L559.1,670.5 L556.5,670.3 L554.9,669.2 L554.3,667.6 L554.4,665.5 L555.2,663.0 L556.8,662.0 Z" fill="#4f8a3e" stroke="none"/>
<path d="M775.7,278.8 L833.3,354.8 L869.0,326.4 L819.9,271.5 L804.8,267.0 L789.9,265.0 L784.2,265.6 L775.1,274.5 L775.7,278.8 Z" fill="#4f8a3e" stroke="none"/>
<path d="M221.8,142.4 L226.3,137.4 L227.2,134.9 L227.3,132.2 L225.8,130.6 L223.9,130.4 L222.3,130.9 L220.4,132.2 L215.5,137.7 L214.7,139.6 L214.2,141.5 L214.8,143.1 L216.3,144.3 L218.2,144.3 L219.7,144.1 L221.8,142.4 Z" fill="#4f8a3e" stroke="none"/>
<path d="M160.1,535.9 L163.9,533.8 L165.6,531.5 L165.8,529.1 L164.9,527.3 L163.0,526.5 L160.2,526.8 L156.7,529.4 L155.6,531.3 L155.6,533.4 L156.0,535.1 L157.9,536.1 L160.1,535.9 Z" fill="#4f8a3e" stroke="none"/>
<path d="M138.0,-41.8 L99.1,-29.3 L137.5,90.4 L176.3,77.9 L138.0,-41.8 Z" fill="#4f8a3e" stroke="none"/>
<path d="M520.3,590.3 L523.9,589.5 L528.6,589.3 L533.0,590.0 L537.7,591.6 L541.7,594.0 L544.8,597.5 L546.1,600.5 L546.7,604.2 L546.0,607.4 L544.1,609.7 L541.2,610.8 L538.2,610.8 L535.5,611.0 L532.4,612.1 L529.8,614.2 L526.3,617.3 L523.6,619.6 L521.2,620.4 L518.3,620.3 L515.5,619.0 L513.0,616.8 L510.7,613.5 L509.9,611.4 L510.0,607.8 L510.5,603.3 L511.3,600.0 L512.7,597.1 L514.3,594.9 L517.1,592.1 L520.3,590.3 Z" fill="#2f7825" stroke="none"/>
<path d="M680.1,-29.0 L670.5,-27.1 L660.5,-26.8 L657.7,-25.5 L656.4,-23.6 L655.6,-21.8 L655.8,-18.9 L657.8,-10.8 L658.1,-7.5 L657.2,-3.4 L653.8,7.8 L653.9,10.4 L656.5,16.5 L660.1,18.9 L662.8,20.1 L669.2,20.9 L675.9,20.5 L680.4,19.6 L686.7,16.5 L691.7,12.5 L693.4,10.2 L694.8,6.8 L695.2,2.4 L694.7,-4.4 L692.9,-11.9 L687.4,-25.1 L685.8,-26.7 L683.2,-28.7 L680.1,-29.0 Z" fill="#2f7825" stroke="none"/>
<path d="M361.7,-22.2 L365.1,-27.3 L366.3,-28.6 L368.3,-29.2 L371.1,-28.4 L372.2,-27.1 L372.6,-24.9 L372.6,-22.6 L372.8,-20.5 L374.1,-17.5 L376.5,-14.4 L377.3,-12.1 L377.6,-9.9 L377.1,-7.5 L375.2,-5.0 L372.7,-3.7 L369.1,-3.1 L364.6,-4.0 L356.8,-8.1 L353.8,-9.2 L350.9,-9.7 L348.3,-9.2 L346.4,-8.3 L340.7,-4.6 L338.8,-3.5 L336.0,-2.9 L333.2,-3.0 L331.1,-3.7 L328.8,-5.1 L327.5,-6.9 L327.1,-8.9 L327.1,-11.8 L327.5,-14.7 L328.7,-17.6 L330.1,-20.0 L332.6,-22.0 L335.7,-23.4 L338.3,-23.9 L341.1,-23.8 L343.6,-23.1 L345.8,-21.7 L348.6,-20.3 L351.5,-19.5 L356.4,-19.6 L360.1,-20.9 L361.7,-22.2 Z" fill="#2f7825" stroke="none"/>
<path d="M322.3,13.4 L322.3,11.5 L321.7,9.5 L320.5,8.1 L311.7,2.6 L308.0,0.9 L305.7,0.3 L303.5,0.5 L301.3,1.2 L298.8,2.3 L297.0,2.8 L294.8,2.6 L291.6,1.7 L287.2,0.5 L283.8,0.3 L280.9,0.9 L278.4,2.0 L275.8,3.8 L273.4,6.4 L271.9,9.7 L271.6,12.9 L272.1,16.3 L273.5,19.0 L276.2,22.0 L278.6,23.2 L281.8,23.6 L285.8,23.5 L293.2,22.2 L300.5,19.9 L305.1,18.9 L310.8,18.4 L318.2,18.5 L320.4,17.6 L321.7,15.7 L322.3,13.4 Z" fill="#2f7825" stroke="none"/>
<path d="M468.1,-0.7 L469.9,3.4 L470.6,7.9 L469.6,17.5 L465.0,36.4 L462.7,38.6 L459.2,39.8 L455.0,39.5 L452.1,38.1 L446.3,34.7 L442.3,30.8 L438.3,25.1 L437.0,19.7 L436.4,11.5 L437.1,6.9 L439.0,3.1 L442.9,-1.7 L446.1,-4.6 L450.0,-6.4 L454.7,-7.6 L458.6,-7.4 L462.5,-6.3 L465.9,-3.6 L468.1,-0.7 Z" fill="#2f7825" stroke="none"/>
<path d="M239.5,610.5 L236.3,612.8 L235.2,614.0 L234.4,615.6 L234.6,618.1 L236.4,621.5 L238.4,623.1 L241.0,623.7 L243.6,623.1 L245.8,622.5 L248.8,622.8 L254.0,623.4 L257.6,623.1 L260.8,621.6 L263.8,619.9 L266.8,615.7 L268.3,614.4 L270.0,613.5 L272.8,612.8 L277.8,611.9 L282.2,609.3 L285.2,606.9 L286.7,603.7 L286.4,600.3 L285.5,597.4 L283.9,595.6 L280.6,593.3 L276.6,591.8 L274.4,591.7 L271.0,593.1 L260.7,599.1 L256.3,601.7 L252.1,604.0 L247.4,606.3 L239.5,610.5 Z" fill="#2f7825" stroke="none"/>
<path d="M658.5,75.5 L653.0,73.6 L647.0,72.5 L643.4,72.5 L641.5,73.3 L639.9,74.8 L639.1,76.7 L638.3,80.9 L637.3,86.1 L635.4,91.3 L631.6,96.9 L627.6,102.3 L626.6,104.1 L625.9,106.5 L625.8,108.6 L626.5,110.8 L627.9,112.9 L630.2,114.2 L632.7,114.7 L635.5,114.0 L639.1,112.0 L642.1,110.2 L645.8,108.7 L649.2,108.4 L653.4,108.1 L657.8,107.5 L661.6,105.6 L664.8,103.1 L667.2,99.6 L669.1,94.5 L669.9,90.5 L669.4,86.3 L668.0,83.4 L665.1,79.7 L662.3,77.5 L658.5,75.5 Z" fill="#2f7825" stroke="none"/>
<path d="M159.2,531.5 L390.6,279.4 L651.1,90.7" fill="none" stroke="#ffd64a" stroke-width="5" stroke-linecap="round" stroke-linejoin="round" opacity="0.95"/>
</svg>