<svg xmlns="http://www.w3.org/2000/svg" viewBox="0 0 800 600" preserveAspectRatio="xMidYMid slice">
<rect width="100%" height="100%" fill="#143018"/>
<path d="M267.6,318.1 L267.7,312.9 L269.8,310.1 L271.4,307.6 L271.8,304.1 L271.8,300.3 L273.0,298.3 L274.7,297.5 L276.3,297.4 L278.3,298.2 L279.2,299.5 L280.0,301.3 L281.0,307.1 L281.3,310.2 L280.5,312.9 L279.3,314.4 L276.9,315.0 L275.6,314.7 L273.1,313.5 L270.2,314.6 L267.6,318.1 Z" fill="#2b5a2a" stroke="none"/>
<path d="M334.9,553.1 L337.6,560.5 L348.6,562.0 L359.7,560.5 L373.0,558.5 L379.2,556.9 L387.4,554.5 L391.1,554.3 L395.7,572.7 L400.5,583.2 L406.0,589.4 L414.3,596.0 L421.2,598.0 L427.5,599.0 L435.5,599.4 L441.7,600.7 L449.5,605.4 L459.0,617.9 L469.5,632.6 L479.2,643.9 L485.4,652.2 L489.6,639.3 L482.9,638.2 L476.0,633.1 L470.9,626.9 L465.0,617.3 L458.1,608.4 L449.5,600.0 L443.2,595.4 L440.5,591.1 L444.1,585.9 L450.4,576.6 L452.2,568.2 L451.6,556.1 L449.2,547.7 L443.3,534.3 L437.9,526.1 L430.7,519.7 L425.9,511.4 L422.1,500.5 L420.1,492.4 L415.2,474.2 L411.5,462.0 L407.9,454.7 L404.0,448.6 L346.8,413.0 L346.0,427.0 L350.0,437.7 L355.9,455.4 L361.1,474.2 L364.7,484.4 L370.2,501.4 L375.3,515.8 L379.0,529.0 L384.8,542.3 L387.6,549.2 L377.8,551.4 L367.0,553.2 L358.6,555.0 L352.7,555.9 L344.4,555.5 L334.9,553.1 Z" fill="#2b5a2a" stroke="none"/>
<path d="M484.1,-16.6 L488.8,-12.5 L492.0,-6.4 L493.5,0.3 L493.9,7.1 L492.5,15.2 L489.3,22.7 L482.7,39.9 L479.8,49.2 L477.5,58.1 L477.2,64.6 L477.9,71.3 L480.3,78.4 L483.4,89.9 L484.3,101.1 L485.0,107.7 L484.9,115.7 L483.2,125.7 L481.8,134.9 L477.9,145.9 L475.0,158.7 L472.1,177.6 L471.3,192.0 L470.8,206.9 L470.8,225.2 L469.2,233.3 L468.8,248.0 L468.9,255.9 L470.1,262.8 L471.5,270.7 L475.0,287.2 L478.7,297.2 L481.0,305.1 L482.0,308.7 L482.1,311.8 L471.1,312.9 L451.7,311.8 L424.6,312.5 L407.2,312.9 L406.5,316.7 L428.0,316.3 L445.5,315.3 L463.0,315.7 L472.8,316.7 L484.1,316.1 L489.8,315.5 L497.9,315.9 L500.9,320.8 L504.1,326.1 L503.6,327.4 L500.0,327.6 L497.3,327.8 L493.2,330.7 L492.8,335.0 L494.0,341.3 L497.2,343.2 L500.6,343.2 L503.0,341.7 L505.2,341.1 L507.2,344.7 L507.2,350.3 L507.5,356.6 L508.4,375.3 L509.6,380.4 L516.7,403.5 L521.9,424.8 L528.4,421.7 L519.2,383.2 L525.1,384.5 L560.3,408.0 L562.6,402.7 L544.8,390.5 L531.1,382.4 L524.6,378.6 L518.2,372.8 L516.7,367.0 L514.2,336.1 L512.9,319.1 L512.7,310.7 L518.6,305.9 L525.9,298.9 L530.1,291.5 L531.3,286.2 L531.7,277.8 L528.1,250.5 L526.5,239.4 L525.6,230.8 L525.6,207.2 L527.6,193.6 L530.1,182.1 L532.0,169.7 L534.7,156.7 L536.7,144.1 L538.1,136.6 L539.4,118.9 L541.2,103.1 L541.5,94.5 L542.8,86.6 L542.6,80.7 L540.6,77.1 L533.8,71.2 L528.1,64.1 L526.6,58.0 L526.4,52.2 L530.6,40.9 L536.2,30.7 L540.1,24.1 L541.6,18.3 L541.9,10.2 L540.6,1.5 L538.8,-4.4 L540.1,-8.6 L543.0,-14.4 L541.8,-20.5 L538.9,-23.7 L533.5,-25.7 L527.9,-27.2 L522.0,-26.7 L516.2,-26.9 L511.2,-28.7 L508.9,-31.1 L507.7,-36.3 L484.1,-16.6 Z" fill="#2b5a2a" stroke="none"/>
<path d="M459.4,836.8 L473.5,813.9 L478.1,806.4 L482.5,799.7 L486.3,792.1 L490.3,782.2 L493.7,771.9 L495.7,762.4 L497.9,752.0 L500.3,740.6 L502.7,730.2 L503.3,721.5 L502.7,715.0 L498.4,708.1 L493.8,701.5 L490.8,693.9 L487.6,685.3 L487.5,677.1 L487.6,666.3 L488.1,659.1 L487.2,655.2 L485.4,652.2 L489.6,639.3 L491.7,633.1 L494.1,627.4 L497.9,623.3 L505.3,617.4 L504.9,610.9 L505.6,606.2 L506.6,598.7 L509.3,589.8 L512.4,580.5 L516.3,571.8 L517.1,566.1 L519.8,558.7 L523.4,552.0 L526.7,541.9 L530.9,529.7 L533.6,517.4 L537.0,505.6 L539.3,496.5 L531.2,457.2 L534.1,449.9 L542.8,489.1 L546.4,474.6 L548.5,460.5 L549.4,453.2 L551.3,444.2 L551.3,441.3 L556.8,426.1 L558.8,423.1 L560.0,419.1 L561.2,414.6 L561.6,411.4 L560.3,408.0 L562.6,402.7 L565.0,401.5 L569.1,397.4 L573.6,393.0 L577.8,388.7 L584.2,385.3 L590.8,384.1 L595.0,384.0 L599.5,383.6 L604.9,386.9 L609.0,390.4 L612.4,392.3 L617.1,396.0 L621.4,403.7 L623.7,407.8 L625.5,411.2 L627.5,415.6 L629.7,420.3 L629.2,424.3 L630.0,428.6 L630.3,434.7 L627.1,440.3 L622.6,445.8 L618.9,448.9 L614.6,452.4 L610.4,456.4 L607.5,463.6 L604.7,472.6 L599.4,486.5 L595.8,497.2 L592.5,508.4 L589.8,518.8 L587.1,528.8 L584.4,543.0 L583.3,553.7 L579.4,565.3 L576.1,572.9 L574.2,579.0 L574.4,583.7 L578.2,588.1 L579.5,592.1 L578.7,596.4 L576.6,600.1 L568.8,614.7 L561.7,629.9 L557.9,639.4 L549.1,662.4 L543.1,678.9 L538.8,691.1 L535.6,698.9 L532.3,704.4 L529.1,708.2 L525.4,712.1 L521.3,714.0 L518.2,715.8 L515.4,719.0 L512.9,726.8 L507.3,749.9 L503.7,762.8 L500.7,772.6 L497.8,784.1 L497.6,786.8 L498.9,787.4 L501.9,786.1 L505.0,786.1 L507.0,787.0 L507.9,789.3 L507.9,793.3 L506.4,796.2 L503.9,796.6 L501.3,796.2 L499.0,795.4 L497.1,794.3 L495.4,794.7 L493.0,797.9 L489.5,804.5 L483.9,813.6 L477.8,826.7 L476.9,830.4 L478.4,833.8 L480.9,835.8 L482.3,838.8 L481.7,843.4 L480.8,855.3 L479.9,861.1 L490.1,863.5 L498.6,865.2 L501.0,861.8 L505.6,861.5 L515.7,862.9 L523.1,864.1 L525.2,866.1 L526.2,869.9 L524.9,874.4 L522.3,876.2 L518.3,876.6 L505.7,875.3 L500.4,873.7 L498.0,870.6 L497.0,869.0 L488.6,867.2 L481.3,865.7 L479.1,865.4 L479.2,871.5 L477.7,877.4 L475.2,881.9 L471.6,882.1 L465.9,881.6 L460.3,880.9 L457.7,878.7 L457.1,881.8 L460.8,888.3 L463.3,893.4 L468.1,900.5 L472.6,905.6 L477.1,912.4 L479.5,915.7 L482.3,918.1 L483.5,919.9 L483.8,922.7 L482.5,925.9 L480.6,928.5 L478.3,930.4 L475.5,931.1 L472.9,928.6 L472.2,925.3 L473.5,920.9 L474.8,918.1 L474.6,914.8 L472.4,911.6 L467.5,906.5 L462.8,899.8 L459.5,894.3 L454.8,885.1 L444.1,914.2 L438.9,927.8 L430.7,948.7 L428.6,954.9 L429.9,960.3 L428.8,964.4 L426.3,968.1 L423.8,968.9 L421.3,968.5 L419.0,966.3 L418.7,962.3 L420.3,957.4 L422.3,954.4 L425.1,951.7 L438.8,918.2 L445.1,900.9 L449.7,888.5 L452.1,880.5 L453.7,875.5 L454.1,869.6 L452.6,864.2 L451.2,860.7 L448.2,857.8 L444.8,856.7 L459.4,836.8 Z" fill="#2b5a2a" stroke="none"/>
<path d="M390.8,65.1 L395.9,63.0 L400.7,60.5 L403.7,58.4 L407.3,53.7 L408.8,47.8 L409.7,38.8 L410.5,2.1 L410.2,-3.0 L411.3,-7.5 L411.4,-14.4 L409.4,-17.1 L408.8,-20.7 L410.2,-27.5 L412.1,-31.7 L414.7,-33.1 L417.9,-33.0 L421.0,-30.3 L421.6,-25.0 L420.4,-19.3 L417.4,-14.8 L416.3,-9.9 L415.8,-4.9 L415.6,3.8 L414.8,8.7 L413.6,14.0 L412.1,22.0 L411.9,28.9 L412.7,33.5 L418.6,30.8 L424.6,30.3 L428.9,33.0 L430.7,36.3 L431.1,43.7 L427.3,55.3 L425.2,65.7 L422.6,70.1 L417.4,76.2 L411.1,80.7 L409.7,88.4 L410.9,105.2 L411.4,111.8 L411.1,117.2 L416.1,122.4 L419.7,120.5 L423.8,123.0 L427.0,128.5 L428.7,133.7 L427.4,137.4 L423.4,139.0 L419.7,140.3 L416.6,139.0 L414.7,135.9 L413.9,131.6 L413.8,125.8 L410.6,122.4 L410.2,134.0 L411.4,141.2 L412.7,152.8 L411.4,161.8 L407.2,172.5 L397.1,196.5 L392.1,210.6 L389.0,220.9 L387.4,227.6 L385.8,233.7 L398.5,240.9 L402.8,246.5 L406.1,252.1 L407.3,258.1 L406.6,265.8 L403.3,273.0 L399.8,281.2 L399.5,286.3 L401.4,291.5 L405.3,299.2 L406.7,303.2 L407.7,308.5 L407.2,312.9 L406.5,316.7 L401.4,322.3 L396.7,328.9 L394.5,337.7 L398.9,355.2 L406.1,384.8 L409.6,405.2 L411.3,412.9 L411.8,418.2 L411.1,423.4 L408.2,428.9 L404.0,432.7 L400.5,435.0 L395.6,434.8 L390.9,431.5 L375.0,420.8 L361.1,412.1 L354.3,408.0 L351.9,406.3 L349.8,404.9 L346.5,402.4 L339.2,398.5 L343.2,358.8 L343.9,341.2 L344.2,326.2 L344.8,306.9 L346.3,287.3 L347.1,275.6 L348.7,266.0 L350.1,257.1 L353.6,251.0 L358.2,245.5 L364.1,241.0 L371.8,235.6 L377.1,231.5 L380.4,227.1 L382.0,224.8 L386.9,211.3 L392.8,195.3 L398.5,180.6 L402.8,170.6 L406.1,161.8 L407.7,154.7 L408.1,148.8 L406.8,139.2 L406.7,132.6 L406.4,112.2 L405.1,93.2 L405.4,83.0 L403.6,78.7 L398.2,73.1 L396.4,72.1 L394.7,72.3 L393.1,73.4 L390.8,65.1 Z" fill="#2b5a2a" stroke="none"/>
<path d="M493.4,516.5 L490.8,514.8 L486.6,514.9 L483.7,516.1 L481.9,517.7 L481.8,523.3 L482.4,528.3 L484.0,530.4 L487.9,531.4 L492.0,529.7 L493.5,528.2 L493.8,523.4 L498.2,521.2 L501.8,516.9 L505.1,511.1 L508.7,502.7 L512.0,496.5 L516.5,484.7 L520.1,476.6 L524.9,468.1 L528.9,461.0 L531.2,457.2 L534.1,449.9 L536.5,447.6 L543.2,444.4 L547.9,441.9 L551.3,441.3 L556.8,426.1 L548.7,428.9 L538.9,431.4 L534.7,432.0 L529.9,431.3 L528.4,421.7 L521.9,424.8 L522.1,430.1 L521.5,432.8 L516.2,434.5 L515.4,430.3 L513.6,428.9 L510.9,428.2 L507.9,428.4 L505.0,428.9 L502.2,430.0 L500.6,433.2 L500.4,440.2 L500.0,453.1 L500.9,457.7 L502.9,459.3 L507.6,459.9 L512.9,458.3 L515.8,454.2 L516.4,448.9 L515.8,441.0 L521.6,441.2 L525.1,444.5 L526.4,449.3 L527.0,454.9 L525.6,459.1 L516.4,474.7 L513.2,480.6 L509.1,489.6 L507.2,495.1 L504.5,503.0 L501.1,510.2 L497.1,515.2 L493.9,518.5 L493.4,516.5 Z" fill="#2b5a2a" stroke="none"/>
<path d="M459.4,836.8 L454.7,837.2 L448.7,835.3 L445.7,829.5 L444.8,824.1 L444.9,820.8 L447.1,817.7 L451.5,815.3 L458.3,814.4 L464.4,815.3 L473.5,813.9 L478.1,806.4 L474.2,803.4 L471.5,797.9 L464.0,795.2 L455.0,795.5 L450.4,794.1 L440.1,790.6 L433.4,788.6 L425.2,786.2 L420.3,778.2 L412.7,766.4 L405.2,750.0 L399.2,733.5 L395.0,714.9 L389.2,697.3 L381.0,675.3 L373.4,656.9 L365.9,640.4 L358.8,624.9 L349.9,605.3 L343.7,588.0 L339.7,574.7 L337.3,565.2 L337.6,560.5 L334.9,553.1 L333.2,538.4 L324.3,507.9 L314.0,482.8 L346.0,427.0 L346.8,413.0 L349.0,407.5 L351.9,406.3 L346.5,402.4 L339.2,398.5 L330.0,424.3 L319.6,439.4 L307.1,455.1 L302.0,432.8 L294.8,397.9 L289.1,380.6 L282.2,374.0 L276.2,372.2 L277.1,364.9 L277.3,360.4 L279.9,358.8 L281.7,355.9 L281.2,350.5 L279.0,345.1 L275.7,343.6 L272.8,343.6 L270.3,346.2 L268.8,348.0 L266.7,348.6 L266.5,356.3 L269.4,357.4 L271.4,359.2 L271.8,362.7 L271.8,369.2 L270.1,377.7 L267.9,382.9 L266.1,386.8 L266.6,398.5 L270.0,405.7 L271.8,414.1 L273.3,426.3 L275.3,437.7 L277.1,444.7 L279.8,456.4 L280.8,462.7 L279.0,469.2 L274.4,481.7 L267.6,498.0 L270.1,499.1 L275.1,488.7 L278.8,480.1 L281.4,474.7 L283.8,472.5 L286.1,474.4 L287.3,483.1 L287.8,496.4 L284.9,519.7 L279.7,536.9 L271.7,556.2 L267.9,565.3 L268.3,574.1 L271.2,600.6 L274.9,620.7 L281.8,630.5 L290.1,640.5 L292.0,648.2 L299.4,656.0 L308.0,659.7 L319.4,688.5 L325.7,706.6 L340.1,738.9 L345.7,755.8 L352.1,774.3 L354.9,782.3 L352.6,786.4 L347.6,788.3 L342.4,791.6 L338.2,793.5 L334.5,798.2 L327.4,802.6 L321.4,804.5 L310.4,802.6 L299.0,799.8 L287.6,795.7 L286.3,801.0 L297.9,806.9 L310.6,811.2 L330.0,812.0 L342.9,811.8 L351.1,813.7 L360.8,815.4 L364.4,821.1 L366.3,829.5 L367.8,843.7 L370.6,853.1 L373.9,862.6 L381.2,869.0 L388.3,874.0 L398.4,874.2 L410.5,873.1 L418.2,870.7 L426.4,867.7 L432.8,867.3 L436.7,868.6 L438.7,871.2 L438.7,874.0 L437.1,878.9 L439.5,881.7 L444.0,881.9 L452.1,880.5 L453.7,875.5 L447.9,873.4 L445.6,871.7 L443.4,867.8 L440.6,865.2 L439.4,862.9 L440.3,859.9 L442.4,857.9 L444.8,856.7 L459.4,836.8 Z" fill="#2b5a2a" stroke="none"/>
<path d="M382.7,97.5 L387.8,99.8 L388.6,101.9 L385.8,109.1 L380.5,119.1 L376.0,126.9 L371.3,136.4 L368.5,142.8 L365.7,150.6 L363.9,160.5 L363.5,168.5 L362.7,175.5 L361.9,185.9 L360.7,199.4 L358.9,210.4 L355.5,214.9 L353.5,216.3 L350.1,257.1 L353.6,251.0 L358.2,245.5 L364.1,241.0 L362.7,238.1 L362.1,229.7 L362.8,220.5 L364.5,208.9 L366.0,196.3 L367.1,185.2 L367.7,177.4 L368.0,169.0 L369.3,159.4 L370.6,151.4 L372.8,145.2 L375.7,138.5 L379.3,131.7 L383.2,121.6 L387.2,114.4 L389.8,109.1 L393.4,102.7 L396.7,101.5 L401.5,102.0 L404.1,104.0 L406.4,112.2 L405.1,93.2 L405.4,83.0 L403.6,78.7 L398.2,73.1 L396.4,72.1 L394.7,72.3 L393.1,73.4 L389.0,76.4 L387.9,81.4 L387.4,89.8 L385.3,94.5 L382.7,97.5 Z" fill="#2b5a2a" stroke="none"/>
<path d="M349.8,110.8 L351.3,114.2 L352.9,120.9 L353.6,127.3 L354.3,135.0 L353.9,139.8 L352.8,136.2 L351.5,129.1 L350.5,123.6 L348.6,119.2 L345.6,110.1 L340.8,107.8 L342.1,112.2 L344.1,117.4 L346.0,123.5 L348.0,130.3 L349.7,137.4 L351.2,141.6 L352.1,145.6 L351.8,149.0 L349.8,155.3 L347.6,162.8 L343.7,174.4 L340.6,182.4 L339.1,183.5 L342.0,193.2 L345.0,186.2 L347.1,177.2 L349.0,169.7 L350.3,163.1 L351.7,158.4 L352.8,155.8 L353.8,155.3 L355.5,158.8 L358.1,165.4 L360.9,172.4 L362.7,175.5 L363.5,168.5 L360.4,162.9 L358.2,156.2 L356.9,152.8 L356.8,149.4 L357.0,143.9 L357.2,136.9 L357.2,132.6 L357.0,127.8 L356.7,123.1 L356.5,117.9 L356.5,113.5 L357.8,110.4 L349.8,110.8 Z" fill="#2b5a2a" stroke="none"/>
<path d="M350.1,257.1 L345.5,249.0 L343.8,239.9 L341.5,231.1 L341.7,223.6 L342.4,219.7 L341.8,213.1 L340.8,209.3 L339.5,204.2 L338.5,199.1 L337.4,192.9 L335.4,185.9 L332.7,181.2 L324.6,168.2 L318.1,157.2 L314.0,149.2 L309.6,138.0 L304.9,125.9 L302.1,116.7 L299.5,108.1 L299.9,95.6 L300.6,85.5 L303.6,72.8 L306.9,61.4 L311.9,50.3 L316.9,38.4 L320.2,30.8 L322.5,39.6 L317.8,47.5 L312.9,56.9 L309.8,63.3 L309.4,65.3 L313.5,66.6 L318.2,69.1 L325.5,72.4 L325.5,77.9 L318.4,74.1 L313.5,71.0 L309.5,70.0 L307.7,71.1 L306.4,75.1 L303.9,86.3 L303.4,95.9 L303.3,105.3 L303.3,108.2 L304.6,114.8 L308.0,123.7 L310.9,131.5 L313.6,138.7 L316.6,147.1 L320.7,154.6 L324.0,160.4 L328.1,167.3 L331.7,173.3 L334.7,178.4 L339.1,183.5 L342.0,193.2 L342.8,199.4 L343.9,206.2 L345.1,210.5 L347.9,213.7 L351.2,215.7 L353.5,216.3 L350.1,257.1 Z" fill="#2b5a2a" stroke="none"/>
<path d="M494.6,681.5 L494.7,669.0 L496.9,655.7 L499.3,646.4 L501.8,637.2 L505.6,630.7 L510.5,624.1 L512.7,617.7 L514.0,606.6 L515.0,597.1 L517.1,588.2 L519.6,581.8 L523.0,570.6 L534.7,524.9 L549.0,482.2 L552.4,464.4 L555.4,459.5 L559.7,456.1 L568.7,450.8 L569.7,448.9 L570.1,446.6 L568.7,440.0 L566.9,433.5 L566.1,427.3 L566.2,420.5 L567.9,413.7 L571.6,406.0 L577.2,398.6 L582.7,395.2 L590.9,393.7 L599.1,395.6 L607.1,400.0 L613.7,406.1 L616.9,412.4 L618.4,418.3 L618.0,423.9 L615.4,428.4 L612.3,432.4 L608.2,439.7 L606.2,447.3 L603.9,455.9 L602.8,462.1 L600.7,469.2 L593.0,487.4 L585.6,513.8 L581.6,532.6 L579.6,541.0 L578.6,552.8 L575.5,563.0 L571.9,569.9 L567.3,574.3 L565.8,577.2 L565.6,580.9 L567.5,587.7 L569.0,592.7 L568.5,598.6 L565.5,607.7 L556.6,625.2 L543.0,660.3 L538.4,676.8 L534.3,688.1 L529.0,697.2 L522.8,705.9 L518.7,709.6 L514.3,711.8 L510.6,711.8 L507.1,711.2 L504.1,709.2 L500.3,704.8 L496.5,697.0 L494.6,688.7 L494.6,681.5 Z" fill="#5a9540" stroke="none"/>
<path d="M322.3,534.9 L326.1,536.6 L329.2,541.5 L330.2,552.8 L328.2,562.8 L327.0,569.0 L327.3,573.4 L329.9,584.9 L334.1,595.4 L340.5,609.0 L348.4,621.3 L358.9,641.2 L379.2,684.9 L383.1,693.9 L385.6,700.5 L388.0,707.5 L390.2,717.2 L393.4,731.1 L401.4,752.9 L413.2,778.5 L414.4,787.0 L413.8,790.7 L411.5,792.5 L397.2,790.5 L377.6,788.7 L370.6,784.2 L366.7,777.6 L362.3,767.8 L342.3,721.6 L329.0,686.5 L316.5,649.7 L301.4,616.9 L298.0,604.8 L297.4,593.2 L297.8,581.5 L298.3,572.1 L300.3,561.0 L303.8,552.2 L310.0,543.2 L312.9,540.6 L315.5,538.2 L318.7,536.0 L322.3,534.9 Z" fill="#5a9540" stroke="none"/>
<path d="M484.9,182.3 L485.0,163.2 L486.5,144.1 L489.1,130.4 L489.3,126.6 L490.5,122.1 L491.2,117.1 L492.4,111.1 L492.6,105.6 L492.1,98.8 L491.3,93.0 L485.2,68.2 L484.2,61.5 L485.6,53.4 L488.1,45.6 L491.8,37.0 L496.5,28.7 L501.1,20.3 L504.1,13.1 L506.6,8.5 L509.3,3.9 L511.7,-0.1 L516.4,-4.6 L522.9,-6.5 L528.9,-6.7 L532.8,-4.1 L535.7,2.2 L533.7,18.5 L528.9,32.6 L522.8,45.4 L521.1,50.6 L521.1,55.1 L523.3,68.8 L526.4,75.5 L532.5,87.7 L534.1,93.6 L534.6,102.5 L534.2,113.0 L530.5,138.0 L527.3,154.6 L525.9,164.5 L525.2,171.4 L524.3,179.4 L522.5,190.3 L519.2,214.1 L517.8,229.4 L517.7,237.9 L518.9,248.0 L521.0,260.1 L523.5,271.3 L523.3,279.4 L521.3,286.3 L518.1,293.7 L512.7,299.6 L504.1,302.7 L497.8,302.9 L492.0,301.1 L487.6,295.5 L484.0,286.0 L481.4,276.2 L479.3,261.4 L478.9,252.0 L480.6,236.0 L483.7,208.2 L484.9,182.3 Z" fill="#5a9540" stroke="none"/>
<path d="M361.4,449.9 L361.0,444.0 L362.6,440.6 L365.5,438.8 L370.8,438.6 L376.6,441.0 L394.8,450.5 L400.3,453.9 L403.0,456.8 L406.6,462.2 L408.8,467.6 L412.7,487.6 L418.8,507.7 L423.3,520.4 L427.3,529.3 L431.4,539.6 L437.1,552.0 L439.6,560.1 L439.7,568.0 L436.8,574.3 L432.8,579.0 L427.6,582.0 L422.7,582.8 L415.4,581.0 L409.5,578.9 L405.4,574.4 L401.9,568.4 L399.5,561.2 L395.2,546.4 L390.5,531.9 L388.6,525.9 L382.2,505.7 L375.4,487.0 L370.6,474.4 L364.6,459.5 L361.4,449.9 Z" fill="#5a9540" stroke="none"/>
<path d="M358.4,257.4 L362.8,251.2 L367.4,244.1 L374.4,238.3 L378.4,237.0 L384.3,237.6 L388.5,240.2 L392.1,242.5 L394.7,245.8 L397.2,249.6 L398.2,253.4 L398.1,257.8 L397.1,262.0 L393.6,267.8 L392.0,273.4 L391.0,278.1 L392.5,284.3 L394.8,291.9 L398.0,300.8 L398.5,306.5 L397.6,312.5 L393.5,319.6 L388.7,326.2 L386.4,331.6 L385.1,338.2 L385.8,348.4 L405.0,414.4 L405.5,420.1 L404.3,424.7 L402.2,427.0 L400.1,428.0 L397.5,428.5 L393.6,429.0 L389.3,427.4 L354.3,404.6 L349.4,399.9 L347.4,395.5 L347.4,391.5 L349.2,373.8 L350.4,358.4 L351.0,336.0 L352.0,311.6 L352.9,291.5 L353.1,276.9 L353.5,271.5 L354.8,266.6 L356.1,261.7 L358.4,257.4 Z" fill="#5a9540" stroke="none"/>
<path d="M315.9,-15.4 L311.9,-26.2 L307.9,-36.4 L306.0,-49.2 L300.8,-60.9 L294.3,-69.4 L286.9,-78.5 L278.6,-97.3 L276.2,-112.3 L274.9,-123.6 L276.5,-135.5 L284.4,-149.8 L290.8,-166.3 L294.9,-177.6 L297.9,-186.8 L301.1,-192.9 L305.1,-197.2 L307.7,-199.2 L312.4,-200.5 L315.6,-199.0 L320.7,-194.4 L330.4,-181.2 L337.9,-172.7 L341.9,-169.3 L344.6,-166.8 L346.6,-164.1 L347.5,-159.9 L346.3,-156.3 L344.8,-152.5 L344.8,-148.5 L346.5,-145.9 L350.2,-143.5 L353.0,-142.1 L355.2,-138.2 L355.0,-132.9 L352.7,-119.9 L344.2,-97.6 L341.2,-89.0 L340.1,-80.1 L342.5,-68.6 L346.7,-51.6 L351.7,-41.6 L355.3,-34.6 L360.2,-25.3 L362.1,-17.2 L361.6,-7.1 L359.1,5.9 L358.7,19.8 L359.9,34.4 L363.1,50.2 L368.2,59.5 L374.3,66.8 L378.4,74.8 L379.6,81.3 L378.5,87.6 L375.6,91.4 L370.5,95.8 L362.3,99.6 L354.4,101.2 L346.7,101.0 L340.1,97.8 L335.6,91.9 L334.0,86.1 L333.6,77.7 L334.7,70.1 L336.7,62.5 L337.8,54.2 L335.6,44.6 L329.5,30.7 L324.6,16.0 L319.3,-1.0 L315.9,-15.4 Z" fill="#5a9540" stroke="none"/>
<path d="M411.4,-26.0 L412.5,-29.4 L415.1,-30.6 L417.9,-30.1 L419.6,-28.7 L419.7,-24.7 L418.4,-18.8 L416.9,-17.7 L414.1,-17.4 L411.1,-18.5 L410.6,-21.2 L411.4,-26.0 Z" fill="#5a9540" stroke="none"/>
<path d="M416.4,37.9 L417.8,35.0 L419.9,33.3 L422.2,32.7 L424.7,33.5 L426.2,34.7 L427.7,36.5 L428.5,39.7 L427.9,42.7 L422.4,64.1 L420.8,68.1 L418.6,70.3 L415.6,70.2 L413.2,68.6 L412.3,64.7 L412.2,60.2 L412.7,54.6 L414.6,45.8 L416.4,37.9 Z" fill="#5a9540" stroke="none"/>
<path d="M415.9,128.4 L416.9,125.2 L418.9,123.2 L421.6,123.4 L423.4,125.3 L424.8,127.7 L425.6,130.0 L426.6,133.6 L426.3,135.6 L424.9,137.0 L421.5,138.0 L417.4,137.0 L416.2,135.0 L415.6,132.6 L415.9,128.4 Z" fill="#5a9540" stroke="none"/>
<path d="M270.2,383.8 L271.9,379.6 L273.7,378.6 L280.5,377.8 L281.9,378.0 L282.9,379.0 L291.8,413.7 L294.7,425.9 L296.0,431.8 L297.7,439.1 L298.9,447.2 L300.4,453.0 L302.3,461.5 L302.1,465.3 L300.0,467.2 L290.4,469.4 L287.3,469.0 L285.8,468.1 L279.0,434.9 L275.1,416.0 L270.2,383.8 Z" fill="#5a9540" stroke="none"/>
<path d="M273.4,345.5 L274.7,345.0 L276.4,345.2 L278.0,346.1 L278.9,347.4 L279.5,348.8 L280.3,351.6 L280.6,354.6 L280.0,356.8 L278.4,358.4 L275.9,358.9 L274.4,358.3 L272.7,357.2 L271.1,354.8 L270.6,352.2 L270.7,349.4 L271.4,347.2 L272.3,346.2 L273.4,345.5 Z" fill="#5a9540" stroke="none"/>
<path d="M507.9,457.0 L505.1,457.0 L502.5,455.6 L501.8,451.1 L502.1,445.4 L502.4,440.4 L502.2,435.8 L502.5,432.8 L503.8,430.7 L506.7,429.9 L509.1,429.3 L512.0,429.7 L514.1,432.0 L514.5,437.2 L514.4,441.7 L514.3,445.8 L513.9,451.2 L513.6,455.0 L512.2,456.5 L510.0,457.3 L507.9,457.0 Z" fill="#5a9540" stroke="none"/>
<path d="M494.8,334.9 L494.7,337.4 L495.3,339.9 L496.2,341.2 L497.4,341.6 L498.9,341.8 L500.8,341.4 L502.4,340.8 L503.4,338.3 L503.8,335.7 L503.8,332.9 L502.9,331.0 L501.5,329.8 L499.9,329.4 L497.6,329.7 L496.4,330.4 L495.4,331.6 L494.7,333.1 L494.8,334.9 Z" fill="#5a9540" stroke="none"/>
<path d="M272.7,303.3 L272.9,307.5 L273.4,310.7 L274.2,312.5 L275.8,313.7 L278.8,312.7 L279.8,310.9 L279.7,307.6 L278.7,302.6 L278.3,300.7 L276.7,299.6 L275.1,299.3 L273.7,299.9 L273.0,301.1 L272.7,303.3 Z" fill="#5a9540" stroke="none"/>
<path d="M483.6,518.7 L483.6,523.2 L483.8,526.7 L484.7,528.8 L486.3,529.4 L488.8,529.8 L491.1,528.8 L492.5,526.9 L492.5,522.6 L492.2,518.8 L490.6,517.2 L488.5,516.7 L486.2,516.7 L484.5,517.1 L483.6,518.7 Z" fill="#5a9540" stroke="none"/>
<path d="M167.5,541.0 L145.6,545.2 L156.3,625.1 L207.0,621.1 L203.0,562.1 L187.9,561.8 L170.9,558.6 L167.5,541.0 Z" fill="#5a9540" stroke="none"/>
<path d="M500.9,616.6 L502.4,615.3 L504.1,614.6 L505.5,614.2 L507.1,614.4 L507.9,615.5 L508.2,617.1 L508.1,618.9 L507.4,620.5 L506.0,621.5 L504.6,621.5 L502.9,621.0 L500.9,620.3 L499.0,620.7 L496.8,621.1 L495.4,620.2 L494.8,618.6 L495.6,616.7 L497.3,616.1 L498.7,616.6 L500.9,616.6 Z" fill="#e7d6a3" stroke="none"/>
<path d="M568.9,580.9 L569.9,578.7 L571.1,577.5 L572.5,576.9 L573.8,576.4 L575.8,576.4 L577.4,577.4 L578.4,579.2 L578.6,581.2 L578.0,583.2 L577.4,584.6 L576.4,585.7 L574.7,586.4 L573.3,586.2 L571.0,585.2 L569.8,583.9 L569.1,582.5 L568.9,580.9 Z" fill="#e7d6a3" stroke="none"/>
<path d="M345.7,-9.5 L348.2,-13.6 L350.5,-15.6 L352.6,-16.0 L356.1,-15.4 L357.4,-13.9 L358.1,-11.3 L358.1,-6.9 L357.2,-4.3 L355.4,-1.4 L352.9,0.6 L350.4,1.2 L348.2,0.6 L346.2,-1.1 L345.3,-3.3 L345.2,-6.4 L345.7,-9.5 Z" fill="#e7d6a3" stroke="none"/>
<path d="M561.5,439.0 L562.7,438.3 L564.1,438.4 L565.4,439.8 L566.4,441.8 L567.1,443.5 L567.5,445.2 L567.2,446.6 L566.2,448.0 L564.9,449.1 L563.5,449.0 L562.5,448.3 L561.8,447.4 L561.8,445.0 L561.8,443.4 L561.1,441.6 L560.9,440.1 L561.5,439.0 Z" fill="#e7d6a3" stroke="none"/>
<path d="M503.9,-15.6 L504.5,-17.6 L505.5,-18.9 L506.7,-19.9 L508.9,-20.3 L511.0,-20.0 L513.2,-18.6 L514.3,-16.4 L514.5,-14.8 L514.1,-12.8 L512.9,-11.4 L510.2,-10.2 L507.3,-10.2 L506.2,-10.7 L505.2,-11.5 L504.6,-12.6 L504.0,-14.3 L503.9,-15.6 Z" fill="#e7d6a3" stroke="none"/>
<path d="M526.8,-17.1 L528.6,-18.4 L531.1,-19.0 L533.1,-18.8 L534.3,-18.2 L534.8,-17.3 L535.1,-16.0 L535.0,-15.0 L534.3,-13.7 L532.9,-12.6 L530.5,-11.8 L528.6,-11.8 L527.0,-12.1 L526.3,-12.9 L525.8,-13.9 L525.9,-15.0 L526.0,-16.2 L526.8,-17.1 Z" fill="#e7d6a3" stroke="none"/>
<path d="M324.9,-9.6 L325.8,-14.1 L326.7,-16.4 L328.2,-17.5 L331.0,-17.8 L333.5,-17.1 L335.2,-15.9 L337.5,-12.9 L338.2,-10.6 L338.3,-8.4 L337.9,-4.1 L336.6,-1.9 L334.5,-0.2 L332.2,0.2 L329.5,-0.3 L327.7,-1.4 L326.0,-3.3 L324.9,-5.9 L324.9,-9.6 Z" fill="#e7d6a3" stroke="none"/>
<path d="M613.0,435.3 L616.3,432.2 L617.7,431.3 L618.8,430.9 L619.8,430.9 L620.9,431.4 L621.6,432.3 L621.8,433.2 L621.3,435.4 L620.1,437.7 L618.4,439.6 L616.4,441.0 L615.3,441.4 L613.6,441.3 L612.5,440.8 L612.0,439.9 L611.8,438.6 L611.9,437.8 L612.4,436.5 L613.0,435.3 Z" fill="#e7d6a3" stroke="none"/>
<path d="M532.9,83.7 L535.8,84.0 L537.4,83.6 L538.2,82.6 L538.6,81.2 L538.1,79.9 L537.0,79.1 L535.3,78.7 L533.6,79.2 L531.2,80.5 L530.0,80.5 L527.4,80.4 L526.0,80.5 L524.8,81.0 L524.0,82.1 L523.6,83.3 L523.8,84.4 L524.6,85.2 L525.6,85.5 L527.1,85.4 L528.3,84.9 L529.8,84.3 L531.3,83.9 L532.9,83.7 Z" fill="#e7d6a3" stroke="none"/>
<path d="M522.2,565.0 L522.9,565.8 L524.1,566.5 L525.6,566.5 L526.4,566.1 L527.2,565.2 L527.9,564.2 L527.7,563.1 L527.6,562.4 L526.8,561.6 L525.6,561.2 L524.3,561.2 L523.4,561.7 L522.6,562.3 L522.2,563.1 L522.1,564.0 L522.2,565.0 Z" fill="#e7d6a3" stroke="none"/>
<path d="M401.0,-61.4 L402.0,-68.3 L402.9,-68.5 L404.1,-68.2 L405.6,-68.2 L406.5,-69.0 L407.3,-70.5 L407.6,-71.8 L407.3,-73.3 L406.3,-74.5 L405.3,-75.4 L404.2,-76.0 L403.4,-76.6 L405.5,-81.8 L406.4,-81.5 L406.9,-80.6 L407.8,-78.9 L408.2,-77.6 L408.9,-76.9 L409.9,-77.1 L410.8,-77.8 L411.7,-78.0 L412.2,-76.6 L412.7,-75.8 L413.6,-75.4 L414.1,-73.7 L414.4,-72.7 L412.5,-71.1 L412.4,-69.9 L412.7,-68.1 L412.3,-66.5 L412.2,-64.8 L411.3,-65.0 L409.7,-66.2 L408.1,-66.2 L406.5,-65.5 L405.3,-64.0 L404.7,-62.3 L405.3,-60.7 L404.3,-59.5 L403.0,-59.7 L402.3,-61.0 L401.0,-61.4 Z" fill="#e7d6a3" stroke="none"/>
<path d="M405.5,-81.8 L404.8,-83.3 L403.4,-83.3 L401.4,-83.2 L399.5,-83.8 L398.0,-84.8 L397.3,-86.5 L397.3,-89.2 L397.2,-91.3 L398.4,-92.9 L399.7,-94.1 L400.3,-95.3 L401.7,-96.5 L401.5,-98.1 L401.7,-99.4 L403.1,-101.1 L400.9,-104.2 L399.1,-104.3 L397.6,-104.3 L396.5,-105.5 L396.3,-106.6 L398.0,-107.4 L398.3,-109.1 L398.4,-110.2 L399.6,-110.6 L400.8,-111.1 L395.6,-116.9 L393.6,-115.9 L392.5,-116.6 L391.2,-117.0 L390.4,-118.0 L390.0,-119.2 L390.1,-120.9 L390.7,-122.0 L391.5,-123.0 L393.3,-123.2 L386.9,-139.2 L386.1,-137.7 L384.6,-138.6 L384.2,-138.0 L383.3,-137.5 L383.2,-136.7 L383.7,-135.4 L382.6,-134.6 L381.2,-134.5 L380.3,-134.0 L380.1,-132.7 L379.8,-132.2 L378.9,-131.4 L379.5,-130.0 L379.4,-128.7 L378.6,-127.4 L377.9,-126.4 L377.9,-125.2 L377.1,-124.4 L376.5,-123.5 L376.6,-121.9 L377.3,-119.6 L377.5,-118.1 L378.8,-117.1 L378.8,-115.9 L379.1,-114.9 L379.8,-113.6 L381.0,-112.5 L381.6,-111.3 L382.1,-110.5 L382.9,-109.5 L383.1,-108.7 L383.7,-106.7 L382.7,-106.1 L382.0,-104.7 L382.1,-103.4 L381.9,-101.9 L382.7,-101.4 L382.9,-100.3 L383.8,-99.9 L385.0,-99.9 L385.3,-98.8 L385.4,-97.4 L385.8,-96.1 L385.3,-95.2 L386.2,-94.4 L386.1,-93.0 L387.4,-92.1 L388.9,-92.0 L390.2,-92.2 L390.7,-92.8 L390.9,-94.1 L391.2,-94.8 L392.3,-95.0 L393.0,-94.6 L394.0,-94.5 L394.6,-93.8 L394.4,-92.1 L394.3,-90.5 L394.3,-89.4 L393.3,-88.5 L392.7,-87.7 L392.2,-86.5 L392.4,-85.1 L393.0,-83.4 L394.4,-82.4 L394.8,-81.3 L394.2,-79.8 L392.5,-78.6 L391.2,-78.3 L390.4,-79.3 L389.1,-79.0 L387.5,-79.3 L386.7,-80.4 L387.2,-81.6 L388.7,-81.9 L389.1,-82.4 L389.0,-83.7 L389.3,-84.9 L388.9,-85.9 L387.2,-86.1 L386.4,-85.1 L385.1,-85.0 L384.9,-86.2 L385.0,-87.4 L383.7,-88.1 L382.5,-88.9 L381.2,-89.4 L381.1,-90.4 L381.1,-92.0 L380.1,-92.9 L378.8,-93.3 L377.5,-92.0 L377.6,-90.5 L378.9,-88.6 L381.0,-87.2 L381.7,-86.4 L382.7,-85.1 L383.4,-83.4 L384.2,-81.6 L383.9,-80.4 L383.6,-79.1 L383.1,-77.9 L382.5,-76.6 L381.6,-75.7 L381.1,-74.8 L379.3,-73.4 L379.3,-72.4 L378.9,-70.2 L378.2,-68.6 L376.9,-66.6 L377.2,-64.9 L377.0,-63.9 L376.3,-62.6 L375.7,-61.5 L374.9,-60.0 L375.5,-58.3 L376.6,-57.8 L378.0,-57.5 L379.1,-56.8 L380.3,-55.5 L381.7,-56.7 L382.8,-57.5 L384.7,-57.4 L385.1,-56.6 L385.5,-55.3 L387.1,-54.6 L388.2,-54.3 L389.3,-54.9 L389.8,-55.9 L391.1,-55.5 L392.3,-57.4 L393.3,-57.2 L392.7,-59.2 L393.8,-59.7 L394.7,-60.0 L395.8,-60.7 L397.2,-61.2 L398.2,-61.2 L399.3,-61.4 L401.0,-61.4 L402.0,-68.3 L400.8,-69.2 L400.1,-70.2 L399.0,-70.9 L399.2,-72.6 L399.1,-73.9 L400.0,-74.6 L400.0,-75.7 L400.4,-76.0 L401.6,-75.6 L402.2,-76.3 L403.4,-76.6 L405.5,-81.8 Z" fill="#e7d6a3" stroke="none"/>
<path d="M453.7,329.2 L451.9,325.9 L451.1,321.9 L451.0,319.3 L446.5,318.8 L446.5,321.7 L445.4,323.9 L445.3,326.1 L444.8,327.6 L442.8,328.3 L441.7,330.7 L443.0,334.8 L442.6,338.0 L443.8,339.9 L446.3,340.1 L448.2,340.7 L449.4,342.0 L451.5,340.8 L453.0,339.6 L454.3,339.7 L456.0,340.2 L459.5,338.7 L462.0,339.6 L464.6,339.2 L466.3,339.2 L467.8,340.4 L469.1,340.8 L471.7,339.7 L473.5,338.3 L475.1,337.1 L478.4,334.1 L474.3,334.5 L471.7,333.6 L469.7,335.4 L467.9,335.4 L465.2,335.6 L463.0,335.1 L461.7,333.6 L460.5,332.9 L459.4,332.5 L456.8,331.9 L453.7,329.2 Z" fill="#e7d6a3" stroke="none"/>
<path d="M474.2,323.4 L476.3,322.5 L478.6,323.2 L480.1,323.8 L480.8,325.0 L481.6,326.2 L481.5,327.4 L481.4,329.0 L481.2,330.0 L482.7,330.6 L483.5,329.3 L484.7,328.6 L486.2,327.8 L485.6,325.8 L485.4,323.4 L485.6,321.7 L485.6,320.2 L483.4,320.0 L481.8,318.8 L480.7,317.8 L479.0,318.0 L478.0,318.6 L477.6,319.9 L475.3,320.6 L473.1,321.1 L473.8,322.3 L474.2,323.4 Z" fill="#e7d6a3" stroke="none"/>
<path d="M401.7,116.1 L401.9,114.4 L402.0,112.2 L401.2,110.6 L400.2,109.9 L399.0,110.1 L397.1,111.3 L395.5,111.9 L395.3,113.7 L395.5,115.1 L395.4,117.2 L394.8,118.2 L393.4,118.7 L392.1,118.7 L391.2,119.9 L389.1,120.8 L387.5,121.6 L385.4,122.4 L385.0,123.6 L386.0,124.4 L386.5,125.5 L386.1,126.6 L385.6,128.5 L386.0,129.4 L387.1,130.8 L387.7,131.7 L387.6,132.5 L386.5,133.2 L385.8,133.8 L386.0,135.6 L385.5,136.4 L383.9,137.4 L381.3,138.6 L379.6,139.7 L379.5,140.6 L379.9,142.1 L380.2,143.2 L379.3,144.3 L379.1,145.1 L378.8,146.2 L378.7,147.9 L378.4,148.5 L378.6,150.2 L378.4,151.7 L379.3,153.5 L380.3,154.2 L381.5,154.0 L384.0,152.2 L385.2,151.4 L386.5,151.5 L385.8,153.1 L384.1,154.6 L382.7,155.9 L382.5,157.7 L383.2,158.4 L384.6,159.1 L384.8,160.3 L383.7,161.3 L384.3,162.8 L400.3,119.9 L401.7,116.1 Z" fill="#e7d6a3" stroke="none"/>
<path d="M400.3,119.9 L400.0,122.1 L400.1,123.7 L401.0,124.5 L402.1,125.3 L402.4,126.6 L401.1,128.8 L400.5,130.2 L400.9,131.1 L400.5,132.6 L399.3,133.5 L398.9,135.5 L398.2,137.1 L398.1,139.1 L398.6,141.0 L399.9,142.2 L401.3,143.0 L401.7,144.4 L401.2,146.3 L401.1,148.4 L402.2,149.2 L403.8,149.2 L404.8,150.4 L405.7,152.1 L406.3,154.0 L406.4,156.3 L406.3,158.0 L406.1,159.1 L405.5,161.1 L404.6,163.4 L403.7,165.5 L402.7,167.0 L400.9,168.0 L399.4,168.5 L398.4,170.4 L398.4,172.2 L398.3,174.2 L398.1,175.5 L397.0,177.2 L395.9,177.8 L394.2,178.2 L392.4,178.3 L391.4,179.1 L390.6,179.9 L390.1,181.2 L390.3,182.8 L390.4,184.6 L389.9,185.8 L389.4,186.6 L388.1,187.5 L387.6,188.8 L387.2,190.2 L386.6,190.5 L385.0,189.6 L384.0,190.6 L382.8,190.8 L382.4,190.0 L381.2,189.0 L379.9,188.7 L378.8,188.5 L377.2,188.4 L376.4,188.8 L375.1,188.4 L373.9,186.6 L373.3,185.3 L373.5,183.2 L374.7,182.6 L376.8,181.7 L377.6,181.0 L377.4,179.9 L376.2,179.0 L374.8,177.9 L374.6,176.5 L375.8,175.5 L376.6,174.1 L377.2,172.7 L378.8,171.9 L380.4,171.0 L382.0,170.0 L382.6,169.3 L381.4,168.9 L380.3,168.6 L379.5,168.3 L379.0,167.1 L380.6,166.0 L382.3,165.1 L383.1,164.1 L383.8,163.6 L384.3,162.8 L400.3,119.9 Z" fill="#e7d6a3" stroke="none"/>
<path d="M482.9,397.7 L480.8,396.4 L479.0,394.7 L477.6,392.7 L475.8,391.3 L473.5,390.3 L470.7,389.1 L468.3,387.6 L466.6,385.6 L465.9,383.2 L465.8,380.8 L465.8,378.7 L464.7,376.4 L463.1,374.4 L461.4,372.9 L458.2,372.2 L455.4,371.9 L452.5,370.8 L450.5,368.3 L449.6,365.9 L448.7,363.0 L447.0,360.1 L445.5,359.3 L443.1,358.7 L439.5,359.5 L436.9,361.0 L435.0,363.5 L433.9,365.9 L433.7,368.3 L434.2,370.8 L434.3,372.8 L433.0,374.3 L429.8,374.8 L427.6,374.9 L425.0,375.5 L423.4,377.5 L422.8,379.4 L422.9,381.8 L424.3,383.9 L426.1,385.9 L428.7,388.7 L431.4,390.7 L433.5,392.3 L434.8,394.3 L435.4,396.8 L435.4,399.8 L433.8,401.6 L432.2,403.8 L431.5,406.9 L432.2,410.3 L433.1,413.0 L434.9,414.7 L437.4,415.0 L438.7,415.0 L442.3,416.3 L445.3,417.8 L447.3,419.0 L448.3,420.8 L447.8,422.8 L448.0,424.7 L448.7,427.0 L448.9,429.2 L449.8,430.9 L451.0,432.5 L452.0,434.8 L451.0,436.2 L450.3,438.6 L450.2,442.4 L449.7,445.5 L449.0,448.2 L447.3,450.6 L444.2,452.3 L441.5,454.4 L442.8,456.9 L444.7,457.8 L447.7,459.9 L450.0,462.2 L452.0,463.0 L452.9,465.6 L452.3,468.1 L453.0,470.5 L455.2,470.9 L457.2,471.5 L458.7,472.5 L459.7,473.8 L460.3,476.8 L460.9,479.6 L461.1,483.2 L461.8,485.7 L463.4,487.4 L466.1,488.0 L468.0,489.3 L468.3,491.3 L468.3,494.4 L468.9,496.7 L468.9,499.8 L469.7,503.4 L471.2,505.8 L473.0,507.3 L474.6,507.7 L474.7,504.5 L477.5,503.2 L479.5,503.5 L480.8,506.6 L481.1,507.6 L482.7,507.6 L484.2,507.2 L486.2,508.0 L486.8,510.1 L487.7,511.3 L490.5,511.8 L493.3,511.8 L494.6,510.5 L496.1,506.7 L496.9,503.2 L497.4,499.3 L498.4,495.6 L499.0,491.8 L500.8,488.9 L501.1,486.1 L499.5,483.8 L498.6,480.8 L499.3,477.9 L500.8,474.3 L502.6,470.7 L503.3,468.4 L503.1,465.5 L501.4,463.4 L498.5,462.5 L494.2,461.0 L492.2,459.4 L491.4,457.1 L491.5,454.2 L492.0,452.7 L493.3,452.2 L495.0,450.6 L494.9,447.5 L494.8,443.7 L495.5,439.5 L496.3,435.3 L496.7,431.0 L497.2,428.5 L499.3,425.3 L502.1,424.1 L504.6,422.8 L506.0,421.0 L506.5,418.7 L506.2,416.1 L506.8,414.6 L508.5,413.5 L508.0,410.7 L505.5,408.2 L501.8,407.2 L497.9,406.9 L493.9,405.8 L490.6,404.6 L487.7,402.0 L486.7,400.3 L485.1,398.9 L482.9,397.7 Z" fill="#e7d6a3" stroke="none"/>
<path d="M403.1,555.7 L404.2,547.7 L404.8,541.8 L406.2,538.2 L408.1,535.4 L411.7,533.8 L416.2,533.1 L419.1,534.0 L423.6,536.0 L427.2,538.3 L430.7,543.5 L434.0,552.0 L434.9,560.2 L433.9,566.7 L430.7,573.4 L426.7,577.1 L421.6,578.5 L417.7,578.3 L413.9,577.0 L410.4,574.8 L407.4,571.9 L404.6,566.8 L403.3,560.9 L403.1,555.7 Z" fill="#2f7825" stroke="none"/>
<path d="M336.6,78.8 L337.6,75.1 L339.7,71.6 L342.1,69.5 L347.2,67.8 L355.6,66.4 L360.0,66.2 L364.6,67.3 L369.1,70.2 L371.7,72.8 L373.8,77.2 L373.9,82.7 L373.5,85.6 L372.3,88.6 L368.0,92.9 L365.1,94.8 L358.6,97.2 L353.9,98.0 L349.4,97.7 L344.3,96.8 L342.0,95.4 L339.8,93.3 L338.4,90.9 L336.9,84.9 L336.5,81.6 L336.6,78.8 Z" fill="#2f7825" stroke="none"/>
<path d="M570.7,415.8 L572.3,411.3 L574.9,407.5 L578.9,402.9 L582.4,400.1 L586.5,398.5 L589.3,398.0 L592.4,398.0 L596.5,398.6 L599.6,399.6 L604.4,402.5 L609.3,406.8 L613.0,411.6 L615.4,416.4 L615.6,420.0 L614.9,423.5 L611.5,428.2 L605.6,434.2 L599.6,439.4 L593.4,443.1 L588.9,444.0 L585.2,444.0 L582.2,443.3 L579.1,441.5 L575.0,437.3 L572.4,433.5 L571.0,429.1 L570.3,423.3 L570.2,419.5 L570.7,415.8 Z" fill="#2f7825" stroke="none"/>
<path d="M415.9,-26.7 L365.3,369.8 L419.9,556.9" fill="none" stroke="#ffd64a" stroke-width="5" stroke-linecap="round" stroke-linejoin="round" opacity="0.95"/>
</svg>