<svg xmlns="http://www.w3.org/2000/svg" viewBox="0 0 800 600" preserveAspectRatio="xMidYMid slice">
<rect width="100%" height="100%" fill="#143018"/>
<path d="M591.9,681.5 L520.9,687.0 L517.7,686.5 L514.6,683.6 L513.0,679.7 L512.8,676.2 L514.6,672.1 L518.1,669.4 L588.7,663.7 L592.5,664.0 L595.3,666.1 L596.9,669.0 L597.8,672.2 L597.3,675.6 L595.9,679.1 L591.9,681.5 Z" fill="#2b5a2a" stroke="none"/>
<path d="M474.4,163.9 L471.0,165.5 L466.7,171.5 L464.4,177.4 L465.4,183.5 L473.8,201.0 L479.0,210.4 L483.0,214.9 L484.3,219.2 L484.2,224.3 L479.8,233.9 L480.0,239.3 L487.9,247.1 L504.1,255.9 L507.5,256.1 L510.6,253.9 L513.7,249.9 L515.3,239.3 L500.9,216.9 L497.7,208.0 L500.1,202.8 L499.5,193.6 L495.2,187.6 L491.3,181.7 L491.6,172.9 L490.4,170.0 L485.3,166.8 L478.7,164.4 L474.4,163.9 Z" fill="#2b5a2a" stroke="none"/>
<path d="M244.1,67.6 L237.2,81.4 L236.1,85.1 L237.2,88.3 L240.5,91.7 L245.3,93.9 L248.3,93.9 L251.5,93.7 L254.2,91.2 L260.2,80.5 L266.3,69.6 L267.6,65.5 L266.3,61.2 L262.8,57.4 L258.4,56.2 L253.7,56.5 L249.1,57.8 L246.3,61.9 L244.1,67.6 Z" fill="#2b5a2a" stroke="none"/>
<path d="M676.3,275.8 L672.9,307.0 L670.7,332.5 L668.6,343.3 L664.5,351.7 L646.0,380.5 L638.5,388.0 L637.7,397.9 L642.3,404.5 L648.2,409.5 L655.2,414.4 L659.6,413.3 L666.4,399.2 L673.0,374.8 L683.7,350.3 L687.8,341.1 L693.4,333.2 L698.7,329.2 L708.7,323.7 L716.5,320.9 L723.7,317.1 L730.5,310.1 L733.8,302.4 L733.7,291.6 L741.1,282.0 L753.9,271.2 L760.5,258.8 L778.6,235.0 L794.2,213.5 L809.1,194.9 L828.7,170.2 L840.4,154.2 L849.3,135.2 L857.7,118.1 L869.0,100.8 L879.3,86.9 L893.5,70.6 L904.7,59.4 L916.6,52.1 L932.3,42.7 L939.9,35.9 L946.8,27.6 L950.8,21.4 L953.5,15.0 L956.1,7.3 L986.2,-1.3 L979.0,-6.4 L956.1,-2.5 L953.4,-10.0 L950.3,-15.5 L946.4,-18.9 L941.0,-21.5 L933.6,-24.1 L924.3,-25.3 L916.4,-25.4 L912.9,-28.1 L910.8,-31.7 L901.4,-25.6 L902.6,-23.2 L902.9,-19.1 L900.4,-14.8 L891.6,-10.5 L886.3,-0.4 L884.7,8.2 L879.9,23.9 L868.8,40.7 L854.4,50.1 L848.9,55.7 L844.4,67.2 L837.7,73.7 L823.6,87.8 L813.1,101.0 L806.2,113.1 L802.4,123.6 L774.2,134.2 L765.5,135.9 L756.5,140.7 L744.4,154.6 L726.4,172.8 L698.2,198.3 L689.9,206.3 L684.1,218.9 L680.3,240.6 L678.3,259.5 L676.3,275.8 Z" fill="#2b5a2a" stroke="none"/>
<path d="M-2.9,268.6 L-5.8,267.2 L-12.2,268.4 L-14.8,273.8 L-14.7,278.5 L-13.8,282.2 L-5.2,289.9 L-2.0,290.9 L2.0,288.6 L6.8,282.7 L8.0,279.4 L5.3,275.0 L1.3,272.3 L-2.9,268.6 Z" fill="#2b5a2a" stroke="none"/>
<path d="M203.5,122.1 L197.0,131.4 L192.3,135.2 L184.8,134.6 L179.6,131.7 L177.4,127.3 L177.2,122.1 L183.5,115.1 L188.2,109.9 L195.0,108.3 L203.5,122.1 Z" fill="#2b5a2a" stroke="none"/>
<path d="M100.6,299.2 L108.3,285.7 L121.7,272.5 L127.5,266.5 L132.2,257.3 L136.9,232.7 L146.1,199.5 L154.6,152.8 L155.7,116.5 L152.6,103.7 L149.0,91.8 L139.4,72.1 L120.8,52.9 L96.8,31.2 L89.4,4.3 L78.3,-16.3 L68.6,-23.0 L63.9,-25.2 L54.3,-22.6 L43.5,-15.6 L33.5,-3.1 L28.8,9.4 L27.4,25.6 L32.6,61.2 L33.7,71.5 L42.0,88.5 L48.0,97.4 L48.0,110.0 L50.5,117.4 L57.4,131.9 L61.9,136.6 L65.5,164.4 L66.6,180.7 L62.6,194.2 L53.2,212.3 L45.3,226.4 L38.0,251.7 L32.6,269.0 L31.9,282.6 L35.0,293.1 L47.4,303.0 L63.0,308.8 L74.5,311.7 L83.6,311.1 L91.9,309.0 L96.8,305.9 L100.6,299.2 Z" fill="#2b5a2a" stroke="none"/>
<path d="M650.6,683.5 L661.9,675.9 L665.7,665.5 L672.6,648.8 L671.8,635.6 L652.6,625.8 L637.7,617.4 L630.1,617.4 L619.9,621.2 L613.9,625.3 L607.6,644.5 L607.3,660.7 L611.1,691.1 L612.9,695.9 L628.8,700.2 L637.2,718.4 L655.4,744.2 L659.9,756.6 L658.4,770.3 L661.2,786.4 L669.3,800.1 L677.9,807.0 L681.4,815.8 L689.8,816.1 L688.3,807.2 L696.6,803.1 L715.3,798.1 L723.7,794.3 L728.5,787.0 L729.5,775.1 L715.3,757.1 L697.6,737.1 L678.7,715.9 L665.7,704.2 L656.1,694.1 L650.8,688.8 L650.6,683.5 Z" fill="#2b5a2a" stroke="none"/>
<path d="M230.0,479.6 L224.9,490.7 L223.2,498.2 L224.2,507.8 L225.4,515.7 L223.6,525.0 L254.1,536.7 L255.6,532.5 L258.4,529.9 L263.0,531.1 L275.2,535.4 L308.1,544.5 L323.9,549.1 L335.1,547.9 L346.5,545.3 L364.3,539.0 L375.7,535.9 L381.6,536.5 L391.3,537.4 L422.0,541.9 L443.9,547.0 L461.7,553.5 L472.6,557.5 L478.1,557.5 L484.7,554.6 L491.6,547.1 L495.4,539.3 L497.5,532.7 L501.3,511.0 L500.7,501.5 L495.5,491.7 L496.0,486.1 L463.0,473.7 L455.9,481.7 L443.1,484.0 L425.9,483.5 L411.2,482.8 L397.1,482.7 L360.5,481.4 L335.6,478.8 L318.3,476.3 L302.0,471.8 L288.4,466.4 L273.1,464.1 L261.1,463.2 L253.1,465.0 L242.0,468.9 L234.8,474.2 L230.0,479.6 Z" fill="#5a9540" stroke="none"/>
<path d="M37.7,77.0 L36.8,78.3 L36.1,79.4 L35.9,80.6 L35.7,81.7 L35.7,82.9 L36.1,84.0 L36.2,85.2 L36.6,86.1 L36.8,86.9 L37.1,87.6 L37.8,88.7 L38.3,89.3 L39.1,90.7 L39.8,91.9 L40.2,92.9 L40.8,93.5 L41.1,94.2 L41.3,94.7 L42.4,95.0 L43.4,96.0 L44.0,97.2 L44.8,98.9 L45.4,99.9 L47.0,101.7 L48.0,102.4 L49.6,102.9 L50.8,102.8 L51.8,102.0 L52.8,101.6 L54.0,101.0 L54.5,99.2 L54.6,96.2 L54.3,93.7 L53.7,91.1 L52.9,89.3 L52.3,88.4 L51.6,86.7 L50.4,84.6 L49.6,82.4 L48.4,80.4 L47.4,78.9 L46.4,77.7 L44.9,76.7 L43.5,76.1 L42.3,75.9 L41.1,76.0 L40.5,76.4 L39.2,76.4 L38.5,76.4 L37.7,77.0 Z" fill="#e7d6a3" stroke="none"/>
<path d="M45.0,123.0 L47.4,122.4 L48.6,122.2 L50.5,122.5 L52.4,122.5 L54.5,122.2 L55.9,121.9 L56.6,121.5 L57.1,120.7 L58.0,120.4 L59.3,120.7 L60.0,121.5 L61.2,122.1 L63.3,122.0 L65.2,122.3 L67.6,123.0 L69.9,123.5 L71.9,124.6 L74.0,125.7 L75.5,126.8 L77.0,128.7 L77.8,131.0 L78.1,133.6 L78.3,135.6 L77.7,137.5 L76.7,139.7 L75.4,140.7 L74.7,142.1 L73.6,143.2 L72.3,143.2 L71.2,143.5 L70.5,143.6 L69.3,143.9 L68.3,143.4 L67.1,142.8 L65.9,142.7 L65.0,143.1 L63.9,143.2 L63.5,142.6 L61.4,141.7 L58.9,141.1 L55.8,140.4 L53.5,139.7 L52.3,139.5 L51.3,138.3 L50.3,137.1 L49.6,136.0 L49.1,134.8 L47.5,133.9 L45.0,132.7 L43.0,131.3 L42.1,129.9 L41.3,128.3 L41.1,126.6 L42.5,124.6 L43.5,123.6 L45.0,123.0 Z" fill="#e7d6a3" stroke="none"/>
<path d="M65.9,159.1 L67.7,158.0 L69.3,157.0 L70.5,156.3 L71.8,156.2 L73.0,157.2 L74.6,159.4 L75.6,162.6 L75.9,165.3 L76.3,167.0 L77.0,168.8 L78.1,170.9 L78.9,173.3 L79.3,176.5 L79.0,179.1 L78.2,181.1 L77.5,183.5 L76.6,185.5 L75.0,188.1 L73.0,189.4 L71.1,190.1 L68.9,190.1 L67.6,189.0 L67.2,188.2 L66.0,187.0 L65.0,186.4 L64.4,184.9 L63.8,183.9 L62.9,182.5 L62.5,181.1 L62.7,179.5 L62.5,177.8 L62.3,176.6 L62.5,175.5 L63.8,173.5 L64.3,172.0 L64.3,170.5 L63.9,169.1 L63.2,167.1 L62.6,165.4 L62.3,163.9 L62.3,162.4 L63.3,162.0 L64.2,160.7 L65.0,160.0 L65.9,159.1 Z" fill="#e7d6a3" stroke="none"/>
<path d="M62.0,214.7 L62.6,213.6 L64.2,212.6 L65.3,212.3 L66.6,212.5 L68.3,213.2 L69.2,213.8 L70.8,215.0 L71.8,216.4 L72.3,218.2 L72.5,219.6 L72.5,220.8 L72.2,222.3 L71.8,223.0 L71.7,224.7 L71.5,226.1 L71.1,227.1 L71.1,227.8 L71.5,230.1 L72.0,232.3 L72.3,233.2 L73.6,236.4 L74.8,238.9 L75.0,240.6 L74.8,242.2 L74.1,243.4 L73.0,244.1 L71.9,245.0 L69.2,245.5 L68.3,245.7 L66.9,246.0 L65.8,246.5 L64.4,246.7 L62.3,247.0 L60.2,246.5 L58.6,245.8 L56.6,244.5 L55.1,243.0 L54.6,242.2 L53.5,239.8 L53.4,237.8 L54.0,235.5 L54.9,233.1 L55.9,231.1 L57.1,229.7 L58.1,228.4 L58.9,227.6 L59.5,226.6 L60.0,224.6 L60.0,223.0 L60.3,221.3 L60.6,219.6 L60.7,218.4 L61.0,216.2 L62.0,214.7 Z" fill="#e7d6a3" stroke="none"/>
<path d="M44.6,254.7 L45.2,253.1 L45.5,251.8 L46.3,250.4 L47.0,249.6 L48.0,249.1 L49.1,248.6 L50.0,248.5 L51.6,248.9 L52.9,249.7 L54.1,250.7 L54.5,251.6 L54.8,252.5 L55.2,253.9 L55.2,254.6 L55.4,255.3 L56.1,256.0 L56.6,256.9 L56.9,257.8 L57.0,259.3 L56.8,260.6 L56.3,261.4 L56.1,262.2 L56.0,263.1 L55.5,264.3 L55.0,265.1 L54.3,266.0 L54.0,267.0 L53.5,268.0 L52.7,268.6 L51.9,269.3 L50.9,270.2 L49.3,270.4 L48.0,270.4 L46.3,270.3 L45.3,269.7 L44.1,268.6 L43.4,267.3 L43.0,266.0 L43.0,263.9 L43.5,261.8 L44.0,260.3 L44.2,258.7 L44.5,258.0 L44.4,256.4 L44.6,254.7 Z" fill="#e7d6a3" stroke="none"/>
<path d="M100.1,254.0 L100.6,253.3 L101.6,252.7 L102.5,252.3 L103.3,252.0 L104.0,251.5 L104.8,250.8 L105.9,250.3 L106.9,249.9 L107.7,249.4 L107.9,248.9 L108.5,248.3 L109.1,247.8 L109.7,247.6 L110.3,247.3 L110.9,246.8 L112.2,245.4 L112.9,244.6 L113.6,243.7 L114.0,243.2 L114.8,242.2 L115.0,240.8 L115.0,239.8 L115.0,238.9 L114.5,236.8 L113.8,235.9 L112.7,235.2 L110.7,234.7 L109.5,234.3 L107.8,234.4 L106.9,234.7 L106.3,234.8 L105.4,235.3 L104.9,235.8 L104.2,236.4 L103.7,237.2 L103.4,237.9 L103.0,238.6 L102.5,238.9 L101.8,239.4 L101.4,240.2 L100.8,240.9 L100.4,241.6 L100.0,242.5 L99.4,243.2 L99.0,243.9 L98.6,244.2 L97.8,244.7 L97.2,245.4 L96.6,245.9 L95.9,246.4 L94.7,247.4 L93.8,248.1 L92.8,249.1 L92.1,250.2 L91.7,250.9 L91.3,252.1 L91.2,254.1 L91.5,255.3 L91.5,256.2 L91.9,257.4 L92.5,258.1 L93.0,258.8 L94.1,259.6 L94.6,259.8 L95.1,260.2 L95.8,260.2 L96.8,260.3 L97.4,260.1 L98.2,259.6 L98.8,258.5 L98.9,257.8 L99.0,257.0 L99.1,256.4 L99.2,255.9 L99.3,255.2 L99.6,254.4 L100.1,254.0 Z" fill="#e7d6a3" stroke="none"/>
<path d="M107.6,-0.7 L108.4,-2.9 L109.3,-4.5 L110.1,-5.7 L110.7,-6.8 L111.2,-8.1 L112.6,-9.9 L113.5,-10.6 L114.8,-11.5 L116.0,-11.8 L116.9,-11.8 L118.0,-11.7 L118.8,-10.9 L119.8,-9.9 L120.8,-9.0 L121.0,-8.0 L121.5,-6.5 L122.2,-5.4 L122.6,-4.6 L122.9,-3.5 L123.8,-2.7 L124.7,-1.9 L125.6,-1.0 L126.4,-0.3 L127.3,-0.1 L127.4,0.5 L126.8,1.4 L126.6,2.7 L126.7,3.9 L126.5,5.0 L126.2,5.6 L125.2,5.9 L123.8,6.9 L122.3,8.1 L121.3,8.9 L120.8,11.9 L120.7,13.7 L120.3,15.0 L119.3,16.9 L118.4,17.8 L117.2,18.4 L114.6,18.1 L112.1,18.0 L110.6,17.9 L109.5,17.6 L107.4,16.8 L106.4,15.9 L106.1,14.8 L105.4,13.4 L105.2,11.7 L105.0,10.3 L105.2,9.4 L105.1,7.3 L104.8,5.0 L105.0,3.4 L105.2,2.4 L105.6,1.2 L106.7,0.2 L107.6,-0.7 Z" fill="#e7d6a3" stroke="none"/>
<path d="M88.3,18.9 L89.2,18.4 L90.8,18.4 L92.9,18.3 L93.8,18.2 L95.3,18.4 L97.4,19.5 L99.0,20.5 L100.4,21.3 L101.8,22.1 L102.5,23.0 L104.4,24.3 L104.8,25.1 L106.6,26.0 L107.8,26.2 L109.0,27.0 L110.4,27.6 L111.4,28.1 L111.8,28.9 L111.8,29.9 L111.1,30.7 L110.9,32.6 L110.9,33.7 L110.4,35.1 L110.2,36.4 L109.3,38.0 L108.9,38.9 L108.7,39.9 L107.8,41.0 L107.1,42.5 L106.0,42.8 L104.2,42.4 L103.2,42.5 L102.3,42.5 L101.3,42.4 L100.2,41.9 L99.3,41.5 L98.0,40.9 L97.4,40.5 L95.7,39.8 L94.9,39.8 L93.9,39.2 L93.3,38.6 L92.5,37.6 L91.6,37.0 L91.1,36.4 L90.8,35.0 L90.6,34.2 L90.0,33.2 L89.7,32.3 L89.2,31.4 L88.9,30.5 L88.3,29.2 L87.7,28.5 L87.2,27.6 L86.9,26.2 L86.2,24.5 L85.8,22.4 L85.6,20.7 L85.6,19.6 L87.4,18.7 L88.3,18.9 Z" fill="#e7d6a3" stroke="none"/>
<path d="M118.8,27.4 L120.0,27.4 L121.1,27.4 L122.1,27.3 L123.2,27.4 L124.0,27.4 L124.9,27.4 L126.1,26.9 L127.7,26.5 L129.3,26.2 L130.5,26.2 L131.4,26.8 L132.1,27.6 L132.7,29.3 L133.1,30.4 L133.3,31.8 L133.3,32.6 L133.1,33.4 L133.1,34.4 L133.5,35.3 L133.7,36.3 L133.9,37.4 L133.9,38.3 L133.4,39.1 L132.9,39.7 L132.1,40.7 L130.6,41.5 L129.7,41.8 L129.2,42.3 L128.5,42.6 L127.7,44.4 L127.5,45.6 L127.8,46.8 L128.1,48.4 L128.5,49.3 L128.5,50.1 L128.5,50.8 L128.5,51.7 L128.9,52.7 L129.3,53.5 L129.8,54.5 L130.6,55.6 L131.3,56.5 L132.0,57.4 L132.3,58.1 L131.9,58.8 L131.0,58.9 L130.3,59.6 L130.2,60.3 L129.4,61.0 L128.6,61.2 L126.9,61.5 L126.3,61.4 L124.2,61.0 L123.2,60.8 L121.8,60.4 L121.1,60.0 L120.2,59.7 L119.4,59.3 L118.6,58.4 L117.3,57.3 L116.5,56.5 L115.5,55.4 L114.9,54.9 L114.4,53.9 L114.2,53.0 L113.6,52.2 L113.2,51.4 L112.0,48.9 L111.4,47.6 L111.3,46.5 L111.3,45.5 L111.9,44.2 L112.5,42.8 L113.0,41.7 L113.2,41.0 L113.6,40.6 L114.1,39.5 L114.4,38.5 L114.7,37.2 L114.8,35.2 L115.0,32.8 L115.0,31.5 L115.4,30.4 L116.0,29.6 L116.9,28.8 L117.5,28.0 L118.8,27.4 Z" fill="#e7d6a3" stroke="none"/>
<path d="M142.9,57.1 L141.7,58.4 L140.8,59.6 L139.4,60.6 L138.5,61.4 L137.4,62.3 L135.8,63.7 L134.9,65.4 L134.1,66.8 L133.7,67.7 L133.7,69.3 L133.3,71.2 L133.8,72.6 L134.7,74.3 L135.2,75.4 L135.8,76.5 L137.1,77.7 L137.9,78.6 L138.9,79.3 L139.6,80.3 L141.0,80.5 L141.7,80.2 L141.9,79.4 L143.6,79.3 L144.5,79.1 L145.9,79.2 L147.1,78.9 L148.5,79.0 L149.7,78.2 L152.4,76.8 L153.1,75.7 L153.8,74.9 L154.2,73.8 L154.2,72.6 L154.3,71.5 L154.1,70.2 L153.5,69.0 L153.2,68.2 L152.7,67.6 L152.1,66.6 L151.8,65.4 L151.8,64.2 L151.8,63.5 L152.1,62.3 L152.6,61.2 L152.9,59.8 L152.7,59.0 L152.0,58.1 L151.5,57.2 L150.9,56.1 L150.1,55.4 L149.3,55.1 L148.9,53.9 L148.7,52.5 L148.2,51.5 L147.4,51.3 L146.6,51.2 L145.7,51.4 L145.0,52.1 L145.1,53.7 L145.2,54.7 L145.2,55.6 L144.1,56.5 L143.6,56.8 L142.9,57.1 Z" fill="#e7d6a3" stroke="none"/>
<path d="M203.4,416.5 L205.0,415.6 L205.8,415.1 L207.1,414.7 L207.9,414.6 L208.7,415.3 L209.5,415.3 L210.6,415.9 L211.7,416.4 L213.0,416.9 L214.4,417.1 L215.4,417.5 L216.7,417.9 L217.7,417.9 L218.7,417.8 L219.6,417.8 L220.6,417.8 L221.5,417.9 L222.5,418.5 L223.3,419.5 L223.9,420.8 L224.2,421.9 L224.2,422.8 L224.0,423.7 L223.5,424.2 L222.9,425.0 L222.5,425.9 L221.4,426.6 L220.2,427.4 L218.7,427.7 L216.5,428.7 L215.4,429.0 L214.4,429.0 L213.6,429.0 L212.3,428.7 L210.9,429.0 L209.8,429.0 L208.4,429.2 L207.2,429.4 L206.7,429.1 L205.5,429.0 L204.2,429.1 L202.8,429.4 L201.9,429.8 L201.0,430.1 L199.9,429.8 L199.2,429.1 L198.9,427.8 L198.9,426.2 L198.9,425.3 L199.0,424.4 L199.4,423.3 L200.1,421.9 L200.1,420.8 L200.2,419.9 L200.9,419.0 L201.8,418.5 L201.8,417.5 L202.0,416.9 L203.4,416.5 Z" fill="#e7d6a3" stroke="none"/>
<path d="M239.0,427.4 L239.9,426.9 L240.7,426.9 L242.3,426.8 L244.2,426.6 L245.6,426.6 L246.8,426.6 L248.4,426.1 L249.7,425.8 L251.7,424.9 L254.6,424.0 L255.9,423.7 L257.1,424.3 L258.6,424.6 L259.8,425.6 L261.0,426.1 L261.7,426.1 L263.5,426.6 L264.1,428.3 L264.4,429.9 L264.6,431.3 L264.2,432.4 L263.7,433.4 L263.0,434.5 L261.9,435.5 L261.2,436.4 L260.0,437.3 L258.5,437.9 L257.1,438.3 L255.4,438.9 L253.8,439.2 L252.5,439.0 L251.3,439.1 L250.2,438.5 L248.4,438.5 L247.2,438.0 L246.2,437.9 L245.1,438.0 L243.5,438.5 L241.6,438.9 L240.3,439.2 L239.0,439.7 L238.1,440.0 L236.8,439.9 L235.3,439.9 L233.9,439.3 L232.9,438.4 L232.3,437.5 L231.9,436.2 L231.9,434.8 L232.1,433.8 L232.9,433.5 L233.9,433.4 L233.9,432.0 L234.2,430.7 L234.9,429.6 L236.2,428.2 L237.2,427.4 L238.1,427.8 L239.0,427.4 Z" fill="#e7d6a3" stroke="none"/>
<path d="M583.7,467.8 L584.6,467.5 L585.5,467.1 L587.0,466.8 L588.1,466.8 L589.0,466.9 L590.3,467.3 L591.3,467.5 L592.4,467.8 L594.3,468.5 L594.9,469.5 L595.4,470.4 L595.3,471.0 L595.2,471.8 L595.0,472.4 L594.8,473.1 L594.3,473.7 L593.8,474.1 L592.8,474.4 L592.3,474.6 L591.7,474.6 L591.0,474.6 L590.5,474.3 L589.4,474.1 L588.7,474.1 L588.1,474.4 L587.3,475.4 L586.6,475.7 L585.9,475.6 L585.2,475.6 L584.4,475.1 L584.0,474.8 L583.2,474.7 L582.5,474.4 L582.0,473.7 L582.0,473.1 L581.8,472.2 L581.7,471.7 L581.6,470.0 L582.0,469.2 L582.8,468.5 L583.7,467.8 Z" fill="#e7d6a3" stroke="none"/>
<path d="M613.9,459.4 L615.3,458.3 L616.2,457.6 L617.2,457.3 L618.3,457.4 L619.4,457.7 L620.5,458.3 L621.1,459.0 L621.5,459.8 L621.5,460.2 L622.2,461.2 L622.4,462.0 L622.2,463.4 L621.9,464.8 L620.9,466.3 L619.7,467.4 L618.9,467.8 L618.3,467.8 L618.0,468.2 L617.2,468.5 L616.0,468.4 L615.6,468.2 L614.4,468.0 L613.2,467.5 L612.1,466.9 L611.0,465.5 L610.9,464.4 L610.9,463.5 L611.3,462.6 L612.3,461.4 L613.0,460.4 L613.9,459.4 Z" fill="#e7d6a3" stroke="none"/>
<path d="M486.4,384.7 L487.0,384.2 L488.1,384.0 L489.3,384.1 L490.1,384.6 L491.3,385.0 L492.7,385.4 L494.1,385.6 L495.1,385.6 L496.4,385.7 L496.8,386.1 L498.5,386.2 L499.5,386.2 L500.7,386.5 L501.6,386.6 L502.6,386.7 L503.6,387.1 L504.0,387.6 L504.0,388.3 L504.5,389.2 L504.1,390.0 L503.8,391.2 L503.7,392.0 L503.7,393.3 L502.9,394.3 L502.3,395.3 L501.6,395.9 L500.8,396.6 L499.8,396.9 L499.1,397.0 L497.9,397.3 L497.0,397.3 L495.7,397.4 L495.0,397.4 L494.1,397.3 L493.3,396.9 L492.3,396.5 L491.5,396.3 L490.6,395.9 L489.7,395.7 L488.9,395.2 L488.0,394.7 L487.2,394.1 L486.8,393.7 L486.0,393.1 L485.5,392.3 L485.0,391.3 L484.6,390.3 L484.4,389.4 L484.3,388.4 L484.3,387.6 L484.3,386.8 L484.5,386.0 L485.3,385.4 L486.4,384.7 Z" fill="#e7d6a3" stroke="none"/>
<path d="M512.1,419.7 L512.9,419.9 L513.9,419.7 L515.2,419.7 L516.1,419.6 L517.2,419.5 L518.4,419.5 L520.0,419.5 L521.4,419.7 L522.0,419.6 L522.8,419.2 L523.6,419.5 L524.5,420.0 L524.7,420.7 L525.1,421.4 L525.7,421.7 L526.2,422.7 L526.3,423.7 L526.2,424.8 L525.6,426.2 L525.3,427.3 L524.5,428.3 L524.1,429.3 L523.2,430.4 L522.1,431.3 L520.8,432.1 L519.1,432.8 L518.1,433.8 L516.7,434.5 L516.2,435.6 L515.4,436.1 L514.4,436.1 L513.3,436.0 L512.2,435.8 L510.8,435.7 L509.5,434.7 L508.9,434.0 L508.4,432.9 L507.7,431.9 L506.9,431.2 L506.1,430.1 L506.0,428.8 L505.7,427.4 L505.5,426.5 L505.3,425.5 L505.3,424.5 L505.4,423.9 L505.7,423.4 L506.5,423.0 L507.2,422.9 L507.9,422.0 L509.7,421.1 L510.8,420.4 L512.1,419.7 Z" fill="#e7d6a3" stroke="none"/>
<path d="M531.4,422.9 L532.4,422.8 L533.5,422.5 L534.6,422.6 L536.0,422.8 L537.0,423.1 L537.7,423.1 L538.3,423.8 L539.1,424.3 L539.5,424.7 L540.7,425.4 L541.5,426.3 L542.4,427.2 L542.7,428.1 L543.4,428.6 L544.9,429.6 L546.4,430.4 L547.4,431.8 L547.9,433.2 L548.2,434.6 L548.4,436.5 L547.9,438.0 L547.0,439.2 L545.3,441.4 L542.1,443.2 L539.3,444.4 L537.1,444.9 L534.8,445.1 L533.2,444.7 L531.3,444.5 L530.4,444.1 L528.6,443.3 L527.0,442.5 L525.5,441.6 L524.0,440.7 L523.1,439.1 L522.5,437.2 L522.5,435.4 L523.1,434.1 L523.9,433.6 L524.5,433.4 L525.3,432.1 L525.7,431.2 L526.7,430.1 L527.8,428.3 L528.2,427.1 L528.7,426.1 L528.9,425.2 L529.5,424.6 L530.2,423.8 L531.4,422.9 Z" fill="#e7d6a3" stroke="none"/>
<path d="M577.2,421.0 L578.2,420.9 L579.2,421.0 L579.8,420.5 L580.3,420.4 L581.4,420.5 L582.5,420.7 L583.3,420.7 L584.0,420.7 L585.0,420.7 L585.8,420.9 L586.6,421.1 L587.6,421.1 L589.0,421.1 L590.4,421.1 L591.4,421.1 L592.5,421.3 L593.9,421.4 L594.8,421.5 L595.7,421.7 L596.5,422.2 L597.2,422.8 L597.9,423.6 L598.4,424.5 L598.6,425.2 L598.6,426.0 L598.6,426.7 L598.1,427.3 L597.8,428.3 L596.7,429.2 L595.3,430.2 L593.7,430.8 L592.2,431.4 L590.5,432.1 L588.4,432.6 L587.0,432.9 L585.6,433.1 L584.0,433.0 L582.7,432.9 L581.1,432.6 L579.5,432.3 L578.1,431.9 L577.3,431.6 L575.8,430.5 L575.0,429.3 L574.3,428.4 L574.2,428.0 L574.1,427.6 L574.2,426.6 L574.2,425.6 L574.2,424.7 L574.3,423.8 L574.7,423.1 L574.9,422.5 L575.4,421.9 L576.3,421.5 L577.2,421.0 Z" fill="#e7d6a3" stroke="none"/>
<path d="M301.9,92.4 L301.4,93.4 L301.2,94.7 L301.2,95.4 L301.2,96.0 L300.9,96.9 L300.9,97.8 L301.2,98.6 L301.6,99.8 L302.1,101.0 L302.7,101.8 L303.8,102.6 L305.3,103.2 L306.5,103.6 L307.8,103.9 L310.1,103.6 L311.0,103.1 L312.0,102.8 L313.0,102.7 L313.9,102.7 L314.6,103.1 L315.3,103.5 L316.1,103.9 L317.1,104.0 L318.1,103.9 L318.9,103.9 L319.5,104.2 L320.7,105.0 L321.5,105.7 L322.3,105.8 L323.5,105.8 L325.2,105.9 L326.5,106.5 L327.9,107.2 L328.8,108.2 L329.9,109.4 L330.8,109.8 L331.9,110.1 L333.0,110.3 L334.4,110.4 L336.9,110.4 L338.5,109.8 L340.5,109.1 L342.3,108.2 L344.0,106.6 L344.6,105.8 L345.2,103.9 L345.2,102.7 L344.8,101.6 L344.1,100.9 L343.3,100.5 L342.1,100.3 L340.9,100.2 L339.8,99.9 L338.1,99.5 L336.6,98.8 L335.5,98.4 L333.7,98.2 L332.2,98.0 L330.8,97.9 L329.2,97.1 L326.2,94.6 L322.5,91.6 L319.7,90.1 L317.8,89.4 L316.1,88.6 L314.2,88.2 L311.8,88.1 L309.4,88.3 L307.4,89.0 L305.6,89.5 L304.7,90.0 L303.6,90.6 L302.5,91.4 L301.9,92.4 Z" fill="#e7d6a3" stroke="none"/>
<path d="M308.5,135.6 L307.9,136.5 L307.6,137.2 L307.4,138.1 L307.7,139.4 L308.1,140.5 L308.7,141.4 L309.7,142.3 L311.6,143.6 L312.8,144.1 L313.9,144.7 L315.2,145.4 L316.3,146.1 L317.7,147.2 L319.1,148.0 L320.7,148.8 L322.3,149.1 L323.8,149.2 L325.1,149.4 L326.6,149.2 L328.4,148.9 L329.7,148.6 L330.9,148.0 L332.0,147.3 L332.8,146.6 L333.4,145.3 L333.9,143.9 L334.0,142.7 L334.0,141.6 L333.6,140.2 L333.1,138.5 L332.6,137.6 L331.6,135.1 L331.3,134.1 L330.6,133.4 L329.7,133.0 L328.8,132.8 L328.3,132.7 L327.3,132.7 L326.1,133.2 L325.3,133.5 L324.2,134.0 L323.6,134.4 L322.7,134.9 L322.0,135.2 L321.4,135.5 L320.7,135.6 L319.5,135.7 L318.0,135.5 L317.3,135.2 L315.7,134.5 L314.3,134.1 L312.9,134.0 L311.3,134.1 L309.7,134.6 L309.0,135.0 L308.5,135.6 Z" fill="#e7d6a3" stroke="none"/>
<path d="M340.2,130.9 L339.2,131.1 L338.3,131.6 L337.6,132.6 L337.5,133.5 L337.2,134.8 L337.4,136.1 L337.8,137.2 L338.9,139.1 L340.0,141.4 L341.0,142.4 L341.6,143.1 L342.5,144.9 L343.3,145.9 L343.5,146.7 L344.0,147.1 L345.0,147.1 L345.8,147.1 L346.7,147.2 L347.7,147.5 L349.5,147.3 L350.4,147.1 L351.4,146.9 L352.2,146.4 L353.8,145.3 L355.1,144.5 L356.2,142.9 L356.3,142.0 L356.3,140.8 L356.3,139.8 L356.4,137.3 L356.4,136.7 L356.2,136.3 L355.5,135.3 L354.7,134.5 L354.1,133.8 L353.4,133.3 L352.9,132.7 L352.6,131.8 L351.8,130.8 L349.9,129.8 L348.8,129.4 L347.9,129.4 L347.3,129.3 L346.3,129.1 L345.5,128.9 L344.6,128.9 L344.0,128.9 L343.5,129.0 L342.6,129.5 L342.3,129.8 L341.7,130.1 L341.1,130.5 L340.2,130.9 Z" fill="#e7d6a3" stroke="none"/>
<path d="M364.3,143.2 L365.3,142.6 L366.7,142.2 L367.5,142.1 L368.7,142.1 L369.4,142.3 L370.1,142.4 L371.1,142.8 L371.9,143.1 L372.8,143.0 L373.6,143.2 L374.4,143.4 L375.2,143.8 L375.8,144.3 L376.5,144.7 L377.0,145.3 L377.6,146.1 L378.0,146.6 L378.9,146.9 L379.7,147.4 L380.3,148.2 L380.9,149.0 L381.2,149.8 L381.5,150.4 L382.2,151.6 L383.4,153.0 L383.6,153.9 L383.7,154.4 L383.9,155.0 L384.0,156.1 L383.5,157.0 L382.8,157.5 L382.0,158.0 L380.8,158.4 L379.4,158.3 L378.2,158.5 L377.2,158.3 L376.0,157.8 L374.7,157.4 L373.6,156.9 L372.5,156.5 L371.1,155.9 L369.9,155.5 L368.4,155.4 L367.5,154.9 L366.0,154.7 L364.8,154.5 L363.8,154.1 L362.7,153.3 L361.6,152.6 L360.8,152.0 L360.3,150.8 L360.0,148.4 L360.5,146.8 L361.1,145.7 L362.1,144.8 L363.1,143.9 L364.3,143.2 Z" fill="#e7d6a3" stroke="none"/>
<path d="M242.2,-80.4 L241.2,-79.7 L240.5,-78.5 L239.9,-77.3 L239.6,-76.2 L239.1,-74.8 L239.0,-73.5 L238.7,-72.7 L238.8,-71.4 L238.9,-69.5 L239.1,-68.6 L239.0,-67.6 L239.2,-66.8 L239.4,-66.1 L239.2,-65.4 L239.2,-64.5 L239.2,-63.8 L239.1,-63.1 L239.3,-62.1 L240.0,-61.1 L240.7,-60.1 L241.2,-59.8 L241.6,-59.4 L242.2,-58.8 L243.0,-58.1 L243.8,-57.6 L245.1,-57.4 L245.8,-57.6 L246.5,-58.0 L247.1,-58.5 L247.6,-59.0 L248.0,-59.6 L248.5,-60.4 L248.7,-60.8 L249.0,-61.1 L249.4,-61.7 L249.8,-62.4 L249.9,-62.7 L250.3,-62.9 L250.7,-63.5 L250.6,-64.1 L250.0,-65.6 L249.9,-66.2 L249.5,-67.0 L249.3,-67.8 L249.0,-68.8 L248.9,-69.7 L248.7,-70.6 L249.0,-71.7 L249.4,-72.6 L249.7,-73.3 L250.0,-73.8 L250.2,-74.8 L250.1,-75.4 L249.8,-76.0 L249.5,-76.6 L249.1,-77.3 L248.8,-78.1 L247.8,-79.5 L246.0,-80.4 L244.2,-80.8 L243.4,-80.8 L242.2,-80.4 Z" fill="#e7d6a3" stroke="none"/>
<path d="M299.7,-135.8 L302.5,-138.6 L305.7,-141.2 L307.8,-142.7 L310.0,-143.7 L312.4,-143.3 L314.2,-142.9 L316.3,-141.9 L317.5,-140.6 L318.2,-138.6 L319.2,-136.9 L319.3,-135.0 L319.3,-133.7 L319.3,-132.5 L320.1,-131.0 L321.3,-130.0 L322.1,-128.8 L323.0,-127.7 L324.2,-126.1 L324.7,-124.7 L326.1,-123.1 L327.3,-121.5 L328.0,-118.5 L328.0,-116.5 L327.9,-115.2 L326.7,-113.9 L326.0,-112.3 L325.4,-110.3 L326.2,-105.6 L326.4,-103.2 L324.4,-100.0 L322.3,-98.1 L320.5,-96.7 L318.5,-94.7 L317.7,-93.3 L317.2,-89.0 L316.2,-85.5 L315.2,-83.0 L313.4,-80.1 L310.5,-78.2 L307.8,-77.3 L305.4,-77.4 L304.1,-78.0 L301.7,-79.6 L300.4,-82.1 L300.0,-84.5 L300.0,-87.1 L300.5,-89.1 L301.7,-91.1 L302.5,-92.4 L303.1,-94.4 L303.7,-96.3 L304.5,-98.1 L304.8,-99.9 L305.5,-102.1 L306.5,-102.4 L307.3,-103.2 L307.4,-104.7 L307.3,-106.3 L304.9,-110.0 L304.9,-112.4 L305.4,-118.3 L304.9,-121.5 L303.8,-124.5 L303.1,-125.8 L302.4,-127.6 L301.0,-129.0 L300.4,-130.4 L299.4,-132.6 L299.1,-134.1 L299.7,-135.8 Z" fill="#e7d6a3" stroke="none"/>
<path d="M537.2,272.0 L536.8,273.1 L536.8,273.8 L536.6,274.3 L536.3,275.0 L536.2,275.7 L536.2,276.5 L536.2,277.3 L536.1,278.0 L535.8,279.1 L535.8,280.0 L535.8,281.3 L536.0,282.6 L536.0,284.0 L536.0,284.7 L536.1,285.8 L536.2,286.6 L536.7,287.9 L538.1,288.5 L539.1,288.8 L540.0,289.1 L540.9,289.2 L541.7,289.0 L542.7,288.7 L543.6,288.0 L544.2,287.3 L544.6,286.2 L544.9,285.0 L545.4,284.2 L545.9,283.0 L546.4,281.6 L546.9,280.4 L547.1,279.8 L546.8,278.9 L546.6,277.9 L546.6,277.3 L547.3,276.2 L547.7,275.4 L547.8,274.6 L548.4,273.5 L548.4,272.6 L547.9,271.4 L547.1,270.6 L546.1,269.7 L545.1,269.0 L544.4,268.5 L542.7,268.3 L541.5,268.3 L539.9,268.8 L539.1,269.1 L538.4,269.6 L537.8,270.3 L537.7,270.8 L537.3,271.3 L537.2,272.0 Z" fill="#e7d6a3" stroke="none"/>
<path d="M549.9,251.9 L550.6,250.8 L551.3,249.8 L551.5,249.1 L551.8,248.0 L552.2,247.4 L553.1,246.4 L554.0,245.7 L556.4,244.7 L558.0,244.6 L559.3,245.1 L560.6,245.6 L561.7,246.6 L562.3,247.8 L562.7,248.8 L562.9,249.8 L562.9,251.2 L562.9,251.9 L562.6,252.4 L562.6,253.2 L562.6,253.7 L562.4,254.4 L562.0,255.4 L561.4,256.6 L560.9,257.7 L559.5,259.4 L558.5,260.2 L557.6,260.6 L556.8,261.0 L556.1,261.9 L555.5,262.9 L554.8,263.8 L553.8,264.6 L552.6,265.3 L551.5,265.2 L550.0,264.9 L548.7,263.5 L547.5,262.2 L546.7,260.9 L546.3,259.7 L546.2,258.4 L546.5,257.1 L547.2,256.2 L547.7,255.0 L548.3,254.1 L549.2,252.7 L549.9,251.9 Z" fill="#e7d6a3" stroke="none"/>
<path d="M581.8,270.6 L582.0,269.7 L582.9,268.5 L583.7,267.4 L584.7,266.4 L586.1,265.7 L587.2,265.4 L588.6,265.4 L589.5,265.7 L590.9,266.7 L591.8,267.7 L592.1,269.1 L592.2,270.5 L592.2,271.9 L592.2,272.7 L592.0,274.0 L592.1,275.1 L592.2,276.2 L592.5,276.9 L592.8,277.6 L592.8,278.1 L592.1,278.4 L591.3,278.9 L590.6,279.4 L589.8,280.2 L589.2,281.1 L588.9,282.3 L588.6,283.3 L588.4,284.2 L588.2,285.6 L587.9,286.9 L587.8,287.8 L587.4,288.2 L587.4,288.8 L587.2,289.9 L586.7,290.3 L586.3,291.2 L585.8,291.8 L585.1,292.5 L584.5,292.9 L584.0,293.1 L583.0,293.5 L582.2,293.5 L581.2,293.7 L580.3,293.6 L579.1,292.7 L577.9,291.3 L577.3,289.8 L577.1,288.8 L577.1,287.2 L577.1,286.0 L577.4,285.1 L577.7,284.0 L578.5,282.9 L578.9,281.7 L579.5,280.7 L579.9,279.7 L580.0,278.8 L580.5,278.1 L580.6,277.4 L580.7,276.1 L580.8,274.5 L581.0,272.9 L581.3,271.5 L581.8,270.6 Z" fill="#e7d6a3" stroke="none"/>
<path d="M598.1,260.3 L599.4,260.5 L600.2,260.2 L601.0,260.5 L601.9,261.1 L603.0,261.8 L603.8,262.6 L604.8,263.2 L605.4,263.8 L606.1,264.6 L606.5,265.3 L606.1,266.0 L605.9,266.8 L605.5,267.4 L605.2,267.8 L604.7,268.2 L604.5,268.8 L604.4,269.7 L603.9,270.3 L603.0,270.4 L602.2,270.8 L601.6,271.0 L600.9,271.4 L600.4,271.3 L599.5,271.3 L598.4,271.0 L597.7,270.8 L596.7,270.0 L596.0,269.2 L596.4,268.5 L596.0,267.2 L595.3,265.9 L595.3,264.8 L595.5,263.5 L596.1,262.5 L596.8,261.4 L598.1,260.3 Z" fill="#e7d6a3" stroke="none"/>
<path d="M605.8,248.4 L606.8,248.7 L607.6,249.1 L608.5,249.2 L609.0,250.2 L609.7,251.2 L610.0,252.0 L610.3,252.8 L610.5,253.6 L610.4,254.3 L610.5,255.2 L610.5,256.2 L610.2,256.9 L609.8,257.4 L609.5,258.1 L609.1,258.9 L607.9,259.1 L606.8,259.2 L605.9,259.1 L605.5,258.9 L604.3,258.7 L603.7,258.4 L602.6,258.0 L602.1,258.0 L601.0,257.5 L600.4,257.2 L599.7,256.7 L598.9,255.6 L598.5,254.3 L598.4,252.9 L598.6,252.0 L599.0,251.2 L599.5,250.4 L600.4,249.7 L601.7,249.1 L602.6,248.7 L603.3,248.6 L604.5,248.6 L605.8,248.4 Z" fill="#e7d6a3" stroke="none"/>
<path d="M580.5,244.8 L582.4,244.8 L584.1,245.0 L585.3,245.1 L586.5,244.8 L587.7,245.2 L588.5,245.9 L588.9,246.1 L589.1,246.6 L589.2,247.2 L589.3,247.6 L589.7,247.9 L589.8,248.5 L589.8,249.2 L589.6,249.6 L589.6,250.1 L589.6,250.8 L589.6,251.4 L589.7,252.1 L589.7,252.6 L589.9,253.0 L589.8,253.6 L589.6,254.4 L589.0,254.6 L588.6,255.1 L588.1,255.8 L587.8,256.7 L587.9,257.5 L587.4,257.9 L586.5,258.5 L585.7,259.0 L585.2,259.1 L584.7,259.2 L584.1,259.1 L583.7,259.5 L582.6,259.9 L581.3,260.0 L580.2,260.1 L578.3,259.6 L576.9,258.9 L575.3,258.2 L574.4,257.1 L574.2,256.4 L574.0,255.7 L573.8,253.3 L573.8,252.1 L573.8,251.3 L574.1,250.7 L574.2,249.8 L574.4,249.1 L575.3,247.4 L575.9,246.9 L576.7,246.3 L578.0,245.7 L578.6,245.3 L579.4,244.9 L580.5,244.8 Z" fill="#e7d6a3" stroke="none"/>
<path d="M576.3,231.1 L575.5,231.7 L574.7,232.9 L574.4,234.2 L574.3,235.7 L574.5,237.3 L574.9,238.8 L575.6,239.7 L577.8,241.6 L579.2,242.0 L581.0,242.0 L581.9,242.0 L583.5,241.5 L584.4,240.9 L585.2,240.1 L585.9,239.3 L586.4,238.6 L586.7,237.7 L587.1,237.6 L587.0,236.6 L586.9,235.7 L586.7,235.2 L586.7,234.9 L586.7,234.5 L586.5,233.7 L586.0,232.8 L585.1,232.3 L584.2,231.9 L583.3,231.7 L582.5,231.5 L581.9,231.3 L581.1,230.7 L580.0,230.6 L579.3,230.6 L578.6,230.6 L577.9,230.6 L576.9,230.6 L576.3,231.1 Z" fill="#e7d6a3" stroke="none"/>
<path d="M592.1,235.3 L591.7,236.8 L591.6,238.1 L591.7,240.4 L592.1,241.1 L592.3,241.7 L592.7,242.8 L593.2,243.6 L594.1,244.4 L594.6,244.8 L595.6,244.8 L596.2,244.9 L596.3,245.3 L596.7,245.7 L597.4,245.7 L598.0,245.4 L598.5,245.7 L599.0,245.7 L599.0,245.2 L599.5,245.0 L599.8,244.5 L600.1,243.9 L600.6,243.5 L601.1,242.4 L601.2,241.5 L601.1,240.8 L601.3,239.9 L601.3,239.2 L601.3,238.5 L601.4,238.0 L601.3,237.5 L600.8,237.1 L600.6,236.6 L600.6,235.9 L600.2,235.4 L600.0,234.8 L600.2,234.2 L599.9,233.6 L598.4,232.4 L597.1,231.7 L595.9,231.3 L594.9,231.3 L594.5,231.4 L593.7,232.0 L593.2,232.6 L592.8,233.3 L592.4,234.1 L592.1,235.3 Z" fill="#e7d6a3" stroke="none"/>
<path d="M605.2,231.3 L606.7,230.6 L607.8,230.4 L608.8,230.3 L609.7,230.1 L611.4,230.0 L612.3,230.2 L613.2,230.7 L614.1,231.8 L615.0,233.0 L615.7,234.0 L616.0,235.0 L616.1,235.8 L616.3,236.6 L616.6,237.2 L617.1,238.0 L617.2,239.0 L617.7,239.8 L617.7,240.4 L617.9,241.4 L617.7,242.1 L617.7,242.8 L617.0,243.2 L616.7,243.6 L616.3,244.0 L615.7,244.2 L615.5,244.9 L614.7,245.2 L613.5,245.4 L612.6,245.4 L610.4,244.8 L609.5,244.3 L609.0,243.8 L608.4,243.2 L607.0,242.2 L605.9,241.3 L604.8,240.1 L604.5,239.4 L604.3,238.8 L604.8,238.4 L604.4,237.6 L604.3,237.1 L604.0,236.3 L603.7,235.5 L603.7,234.8 L603.7,234.1 L603.6,233.2 L603.8,232.8 L604.5,231.9 L605.2,231.3 Z" fill="#e7d6a3" stroke="none"/>
<path d="M599.4,215.6 L598.2,216.3 L597.4,217.0 L597.1,217.5 L596.9,218.0 L596.8,218.5 L596.8,218.9 L596.6,219.5 L596.5,220.1 L596.5,220.9 L596.5,221.7 L596.3,222.6 L596.2,223.7 L596.4,224.2 L596.5,225.1 L596.7,225.7 L596.9,226.5 L597.3,227.1 L597.8,227.4 L598.3,227.6 L599.0,227.4 L599.6,227.3 L600.2,227.2 L600.9,227.2 L601.5,227.2 L602.1,227.1 L602.7,227.1 L603.6,227.3 L604.4,227.5 L605.4,227.6 L606.2,227.7 L607.1,228.0 L608.0,228.0 L610.0,228.0 L610.7,227.8 L611.3,227.1 L611.3,226.5 L611.3,225.5 L610.9,224.7 L610.7,224.2 L610.5,223.7 L610.8,223.1 L611.5,222.1 L611.4,221.4 L611.4,220.4 L611.4,219.5 L611.0,218.2 L609.7,217.0 L608.0,216.5 L606.1,215.9 L605.6,215.4 L603.9,215.1 L602.9,215.0 L601.4,215.2 L600.4,215.5 L599.4,215.6 Z" fill="#e7d6a3" stroke="none"/>
<path d="M539.7,145.0 L538.2,145.8 L537.1,147.7 L536.5,149.8 L536.7,152.3 L537.3,154.2 L538.2,155.8 L539.9,156.7 L542.2,157.5 L544.4,158.4 L546.9,159.0 L548.7,159.6 L550.2,159.9 L551.9,159.9 L553.3,159.6 L554.5,159.0 L555.4,158.3 L556.1,156.9 L556.1,155.7 L555.8,154.1 L555.3,153.0 L554.8,151.9 L554.4,151.1 L553.4,150.6 L552.6,150.5 L551.2,149.8 L549.9,148.9 L548.9,148.4 L548.1,147.7 L547.2,146.9 L545.8,146.2 L544.7,145.6 L542.8,144.7 L541.1,144.5 L539.7,145.0 Z" fill="#e7d6a3" stroke="none"/>
<path d="M601.3,106.8 L600.6,107.6 L599.9,108.8 L599.4,109.8 L599.3,111.1 L599.0,112.2 L598.7,113.7 L598.8,115.2 L599.0,116.5 L599.2,117.3 L598.8,118.0 L599.0,119.0 L599.8,120.1 L600.5,121.2 L601.3,122.5 L602.1,123.6 L602.5,124.5 L603.6,125.4 L604.1,125.7 L605.6,125.8 L606.1,125.9 L606.9,125.5 L607.8,125.6 L608.7,125.4 L609.6,125.2 L611.3,124.4 L612.0,124.1 L612.8,124.6 L613.6,124.7 L613.8,124.0 L614.6,123.9 L615.3,123.6 L615.9,122.9 L616.6,122.0 L617.0,120.1 L617.1,119.2 L616.5,118.4 L616.5,117.6 L616.5,116.9 L616.2,116.1 L615.8,115.3 L615.7,114.3 L615.2,113.7 L614.1,113.4 L613.5,112.9 L612.6,112.8 L611.3,112.5 L610.9,112.3 L610.0,111.7 L609.4,110.8 L609.1,109.2 L608.8,107.9 L608.3,106.7 L607.7,105.7 L606.2,105.4 L604.9,105.2 L604.0,105.2 L602.3,105.9 L601.3,106.8 Z" fill="#e7d6a3" stroke="none"/>
<path d="M590.9,89.5 L589.8,91.9 L589.2,93.6 L589.2,94.4 L588.9,95.4 L589.1,96.8 L589.3,97.5 L589.3,98.4 L589.0,99.6 L588.9,100.9 L588.9,102.0 L589.1,103.3 L589.6,104.4 L589.9,106.1 L590.2,107.3 L590.9,108.2 L592.0,108.9 L593.2,109.3 L593.9,109.4 L594.9,109.6 L596.1,109.1 L596.3,108.6 L597.1,108.2 L598.0,107.5 L599.2,106.4 L599.5,105.1 L600.1,103.7 L600.8,102.5 L601.2,101.3 L601.5,99.9 L601.7,97.6 L601.4,95.5 L601.4,94.5 L600.9,93.2 L600.4,92.3 L599.6,91.2 L599.7,90.4 L599.7,89.8 L598.6,88.9 L597.3,88.5 L596.1,88.3 L595.2,88.3 L594.3,88.4 L593.0,88.3 L591.8,88.4 L590.9,89.5 Z" fill="#e7d6a3" stroke="none"/>
<path d="M580.9,55.4 L579.8,56.0 L579.1,56.0 L578.6,56.6 L578.0,57.1 L576.9,57.8 L576.1,58.2 L575.3,58.8 L574.7,59.6 L574.3,60.5 L574.3,61.3 L574.7,62.2 L574.7,63.2 L574.7,64.1 L575.2,65.1 L575.2,66.1 L574.5,66.8 L574.5,67.9 L574.3,69.5 L574.8,70.9 L575.0,72.0 L575.4,73.0 L576.2,73.4 L576.7,73.8 L577.2,74.5 L577.8,74.7 L578.9,75.5 L579.5,76.4 L579.8,77.6 L580.2,78.7 L580.6,79.4 L581.0,80.2 L581.7,81.5 L582.3,82.5 L582.9,83.8 L583.8,84.4 L585.4,85.1 L586.6,85.4 L587.2,84.7 L588.1,84.4 L588.9,84.0 L589.6,83.5 L589.9,82.5 L590.1,81.6 L590.1,80.8 L590.1,80.1 L589.8,79.1 L589.8,78.5 L590.1,77.6 L590.3,76.9 L591.0,75.2 L591.4,74.0 L591.2,73.4 L591.2,71.9 L592.0,72.1 L592.4,71.0 L592.5,68.8 L592.4,67.4 L592.4,66.3 L591.9,64.9 L592.4,64.0 L592.2,62.3 L591.8,60.9 L591.4,59.3 L590.9,58.0 L590.4,57.3 L589.5,56.5 L588.0,55.5 L587.1,55.0 L585.6,54.6 L584.2,54.6 L583.2,54.8 L582.4,55.2 L580.9,55.4 Z" fill="#e7d6a3" stroke="none"/>
<path d="M600.7,60.9 L601.3,61.8 L601.2,62.3 L601.2,63.2 L601.8,64.4 L601.3,64.7 L601.5,65.9 L602.0,67.1 L602.5,68.5 L603.0,69.4 L603.6,70.8 L604.8,72.2 L605.9,73.4 L606.3,74.6 L607.1,74.9 L608.7,76.6 L609.4,78.0 L609.7,79.4 L610.0,80.8 L609.8,81.8 L609.1,83.3 L609.3,84.9 L610.3,87.6 L611.4,89.6 L613.6,90.1 L615.0,90.2 L616.0,90.1 L617.2,89.5 L618.2,88.8 L619.1,88.0 L619.5,86.5 L619.5,85.3 L619.1,84.5 L618.9,83.9 L618.3,83.2 L618.3,82.5 L618.7,81.8 L618.9,81.2 L620.2,80.6 L621.3,79.8 L622.2,79.6 L622.8,79.6 L622.6,78.2 L622.2,76.3 L622.1,75.3 L622.1,74.0 L622.4,73.2 L623.1,72.6 L621.3,70.4 L620.0,69.6 L619.2,69.2 L618.8,68.7 L617.2,66.9 L614.7,64.4 L613.4,64.0 L613.3,62.5 L610.6,60.4 L608.2,59.7 L606.0,59.2 L604.3,59.2 L603.0,58.9 L601.4,59.8 L600.7,60.9 Z" fill="#e7d6a3" stroke="none"/>
<path d="M580.8,25.8 L580.1,26.6 L579.8,27.7 L579.6,28.8 L579.4,29.9 L579.4,30.8 L579.3,31.9 L579.5,32.7 L579.5,33.5 L579.6,34.1 L579.6,35.2 L580.1,35.9 L580.0,36.7 L579.7,37.5 L579.3,38.2 L578.9,38.9 L578.3,39.6 L577.7,40.7 L577.5,42.0 L577.0,43.5 L576.8,44.9 L577.1,46.2 L577.1,47.0 L577.9,47.5 L578.5,48.4 L579.0,48.6 L579.8,48.9 L580.6,49.2 L581.3,49.3 L582.2,49.3 L582.8,49.4 L583.6,49.2 L584.2,49.3 L585.4,49.4 L586.2,49.7 L586.6,49.8 L587.2,49.2 L587.7,48.9 L588.4,48.8 L589.1,48.4 L590.6,48.8 L593.1,49.4 L594.1,49.9 L595.3,50.3 L596.1,50.5 L596.7,50.4 L596.9,49.7 L597.6,49.3 L598.3,48.8 L599.0,48.2 L599.7,47.7 L599.9,46.4 L600.2,46.0 L600.1,45.2 L599.7,44.6 L599.5,43.9 L599.3,43.1 L598.9,41.9 L598.4,40.4 L597.8,39.3 L597.4,38.2 L597.0,37.0 L597.0,35.0 L596.8,33.8 L596.4,33.3 L596.6,32.6 L596.3,30.8 L596.2,30.0 L596.2,28.8 L596.4,28.0 L596.3,26.1 L596.0,24.8 L595.4,23.0 L594.9,22.3 L594.0,22.0 L592.5,21.6 L591.7,21.2 L590.2,21.2 L588.9,21.1 L588.1,21.2 L586.9,21.7 L586.0,22.0 L585.4,22.3 L584.4,22.6 L583.7,22.8 L582.9,23.4 L582.2,23.9 L581.5,24.3 L581.0,24.8 L580.8,25.8 Z" fill="#e7d6a3" stroke="none"/>
<path d="M711.6,189.0 L712.1,188.3 L713.0,187.2 L713.5,186.5 L713.9,185.7 L714.4,185.1 L715.4,185.1 L716.1,184.6 L716.9,184.1 L717.7,183.6 L718.8,182.9 L719.8,182.4 L720.7,181.7 L721.0,180.9 L722.1,180.4 L722.9,180.8 L723.9,181.5 L724.7,181.0 L725.9,181.6 L726.6,182.3 L727.1,183.2 L727.4,183.8 L728.0,184.8 L728.1,186.1 L728.0,186.7 L727.2,187.8 L726.3,189.2 L725.2,190.3 L724.2,191.3 L723.1,192.2 L721.8,193.3 L720.5,193.8 L718.8,194.9 L717.6,195.7 L716.7,196.0 L715.8,196.6 L714.7,197.2 L713.5,197.6 L711.9,197.3 L710.8,197.2 L709.4,197.2 L706.9,196.1 L706.4,194.6 L706.0,193.5 L706.6,192.2 L707.4,191.5 L708.3,191.4 L708.8,191.0 L709.3,190.1 L710.6,189.7 L711.6,189.0 Z" fill="#e7d6a3" stroke="none"/>
<path d="M732.9,267.0 L734.2,266.5 L735.3,265.9 L736.5,265.6 L737.8,265.4 L739.6,265.2 L740.2,265.7 L741.3,266.5 L741.7,267.1 L742.5,267.5 L742.6,268.1 L743.2,268.8 L743.6,269.4 L743.0,270.5 L742.0,271.5 L741.8,272.5 L741.8,273.3 L741.1,273.7 L740.7,274.2 L740.0,274.8 L739.4,275.2 L739.1,275.9 L738.6,276.3 L737.9,276.7 L737.3,276.7 L736.6,276.8 L736.5,277.3 L736.8,277.8 L736.6,278.5 L736.7,279.5 L736.7,280.2 L736.3,281.2 L735.6,282.1 L734.4,282.7 L733.0,283.4 L732.1,283.5 L730.7,283.6 L729.0,283.3 L727.2,281.9 L725.9,280.9 L725.3,278.5 L725.8,275.0 L726.1,273.8 L726.7,272.2 L727.4,271.0 L728.2,270.1 L728.7,269.3 L729.3,268.3 L730.0,267.5 L731.2,267.0 L732.1,267.1 L732.9,267.0 Z" fill="#e7d6a3" stroke="none"/>
<path d="M5.2,417.8 L4.4,418.8 L4.0,419.6 L3.8,420.3 L3.8,421.3 L3.9,422.4 L4.0,423.4 L4.3,424.3 L5.0,425.5 L6.4,427.1 L7.9,428.5 L9.2,429.0 L11.3,430.2 L13.1,431.1 L15.2,431.8 L18.0,432.2 L20.3,432.0 L21.5,431.7 L22.7,431.0 L23.6,429.8 L24.3,428.6 L24.3,426.5 L24.0,424.5 L22.9,422.8 L20.8,420.6 L17.9,419.0 L16.8,418.9 L15.2,418.5 L14.5,418.7 L13.3,418.0 L10.5,417.0 L8.9,416.7 L7.7,416.5 L6.4,416.9 L5.7,417.2 L5.2,417.8 Z" fill="#e7d6a3" stroke="none"/>
<path d="M26.5,380.5 L25.8,380.4 L25.1,380.6 L24.7,381.1 L24.3,381.7 L24.0,382.2 L23.8,382.9 L23.8,383.5 L23.9,384.1 L24.9,385.6 L26.1,386.2 L27.0,386.9 L27.8,387.6 L28.9,388.7 L30.5,389.9 L32.4,391.1 L34.2,392.4 L35.2,392.5 L36.3,392.5 L37.5,391.9 L37.8,391.4 L37.8,390.5 L37.5,389.3 L37.0,388.4 L36.5,387.8 L35.5,387.1 L35.0,386.5 L34.4,385.6 L33.9,384.8 L33.4,384.2 L33.0,383.3 L32.1,382.4 L30.9,381.1 L29.9,380.7 L29.3,380.2 L28.7,380.2 L28.0,380.3 L27.4,380.4 L27.0,380.5 L26.5,380.5 Z" fill="#e7d6a3" stroke="none"/>
<path d="M88.3,422.9 L89.1,422.4 L90.1,422.5 L90.7,422.3 L91.7,422.5 L92.8,422.9 L94.4,423.7 L94.9,424.5 L95.3,425.4 L95.3,426.0 L95.9,427.0 L96.0,427.7 L96.9,428.8 L97.9,429.5 L98.7,430.6 L100.0,431.5 L101.6,432.9 L102.4,433.9 L102.3,434.8 L102.1,435.5 L102.7,436.7 L103.8,438.1 L103.9,438.8 L103.3,439.5 L102.5,440.1 L101.3,440.7 L100.1,441.4 L99.2,441.7 L98.2,441.7 L97.0,441.4 L95.9,440.8 L95.2,439.9 L93.0,437.4 L91.8,436.0 L90.0,434.4 L87.9,432.9 L87.0,431.9 L86.4,431.3 L85.3,429.0 L85.0,427.0 L85.1,425.4 L85.5,424.8 L86.4,424.2 L87.1,423.4 L87.4,422.8 L88.3,422.9 Z" fill="#e7d6a3" stroke="none"/>
<path d="M120.9,465.0 L121.8,465.2 L122.9,465.8 L124.1,466.3 L124.8,466.2 L125.5,466.4 L127.6,468.1 L128.7,469.4 L129.8,470.8 L131.5,472.1 L133.0,473.1 L135.0,474.9 L136.9,476.9 L138.3,478.5 L139.0,479.6 L139.0,480.8 L138.2,481.9 L138.0,482.6 L137.3,483.3 L136.4,484.4 L135.5,484.7 L134.2,484.9 L132.5,484.8 L131.5,484.6 L130.1,483.5 L128.5,482.6 L126.7,481.6 L125.5,480.6 L123.7,478.2 L121.4,476.0 L119.4,473.6 L117.6,472.0 L116.9,471.3 L116.3,469.4 L116.4,467.8 L117.0,466.7 L118.0,465.8 L119.3,465.4 L120.0,465.2 L120.9,465.0 Z" fill="#e7d6a3" stroke="none"/>
<path d="M202.1,483.6 L200.6,483.5 L199.4,482.8 L198.0,482.0 L196.4,483.5 L194.7,484.9 L194.3,486.0 L194.0,487.0 L193.8,487.7 L194.0,488.8 L194.7,490.4 L195.3,492.1 L195.7,493.8 L196.7,495.6 L197.6,497.7 L198.1,499.5 L198.6,500.9 L198.8,502.1 L198.9,504.2 L198.7,506.1 L198.7,507.3 L198.9,508.7 L199.4,510.1 L200.0,511.1 L200.9,511.6 L204.0,513.0 L205.1,513.5 L206.8,513.7 L208.0,513.7 L209.1,513.3 L210.2,513.5 L211.3,512.8 L212.0,511.9 L213.4,511.4 L214.3,510.7 L215.0,509.8 L215.5,508.3 L215.6,506.7 L215.8,504.1 L216.2,503.2 L216.1,502.1 L215.6,500.5 L215.0,499.6 L214.1,498.4 L213.2,497.7 L212.9,496.7 L212.8,496.1 L212.2,495.4 L211.3,493.0 L211.4,491.7 L211.1,490.0 L210.8,488.6 L209.9,486.5 L209.3,485.7 L208.6,485.0 L207.6,483.9 L206.6,483.6 L205.7,483.6 L204.4,483.2 L203.8,483.0 L203.0,483.2 L202.1,483.6 Z" fill="#e7d6a3" stroke="none"/>
<path d="M213.9,536.3 L214.2,535.8 L214.9,535.7 L215.6,536.0 L215.8,536.4 L216.1,536.8 L217.7,537.3 L218.2,537.5 L218.7,537.2 L219.1,536.7 L219.5,536.6 L220.0,536.8 L220.8,537.6 L220.9,538.1 L221.2,539.1 L221.7,541.3 L221.8,542.4 L222.1,544.0 L222.3,545.6 L222.5,546.7 L222.0,549.1 L221.0,552.0 L220.3,553.0 L219.1,554.0 L217.7,554.7 L216.4,554.7 L215.3,554.8 L214.1,554.9 L210.5,553.8 L208.5,552.3 L207.8,551.6 L207.4,550.7 L207.7,550.0 L207.6,548.1 L207.6,547.3 L208.3,546.9 L209.2,545.8 L209.6,544.5 L209.6,543.1 L209.5,541.0 L209.6,539.0 L210.2,537.7 L210.9,536.8 L212.2,536.1 L212.8,536.2 L213.3,536.2 L213.9,536.3 Z" fill="#e7d6a3" stroke="none"/>
<path d="M478.6,562.1 L479.6,562.0 L480.5,562.1 L482.7,563.1 L483.7,563.2 L484.4,563.2 L484.7,563.5 L484.8,564.1 L484.7,564.6 L485.1,565.7 L485.2,566.6 L484.9,567.6 L485.1,568.9 L485.1,569.3 L484.2,569.9 L483.6,570.9 L482.9,571.4 L482.1,572.1 L481.1,572.2 L480.2,572.7 L479.5,573.4 L478.5,573.6 L477.3,574.0 L476.2,573.6 L474.4,572.5 L473.7,570.8 L473.7,569.7 L473.8,568.5 L474.4,567.9 L474.4,566.6 L474.6,565.6 L474.9,564.5 L475.5,563.3 L476.6,562.7 L477.1,562.7 L477.6,562.0 L478.2,561.8 L478.6,562.1 Z" fill="#e7d6a3" stroke="none"/>
<path d="M515.9,535.8 L516.9,535.1 L517.7,534.2 L518.6,533.9 L519.4,533.7 L520.6,534.0 L521.1,534.5 L521.4,535.1 L521.8,535.8 L522.7,536.2 L523.0,536.4 L523.5,536.9 L524.1,537.3 L524.6,537.7 L524.8,538.5 L525.0,539.2 L524.8,540.0 L524.5,540.6 L524.2,540.9 L523.7,541.5 L523.0,541.9 L522.5,542.7 L521.8,542.9 L520.9,543.5 L520.3,543.9 L520.1,544.7 L519.5,545.3 L518.5,545.5 L517.7,545.5 L516.8,545.2 L516.4,544.8 L515.4,544.3 L515.0,544.2 L514.6,543.8 L514.7,543.3 L514.3,542.7 L514.0,542.1 L514.0,541.5 L513.7,540.9 L513.6,540.2 L514.0,538.6 L514.1,538.1 L514.1,537.6 L514.6,536.7 L515.1,536.4 L515.4,536.2 L515.9,535.8 Z" fill="#e7d6a3" stroke="none"/>
<path d="M532.7,537.3 L533.7,537.1 L534.5,536.9 L536.2,537.2 L536.8,537.7 L537.2,538.4 L537.5,539.0 L537.0,539.4 L536.8,539.9 L535.9,540.1 L535.0,540.6 L533.6,541.4 L532.8,541.9 L532.4,542.6 L531.7,542.8 L531.2,542.8 L530.5,542.7 L530.3,542.3 L529.7,541.9 L529.5,541.6 L529.2,541.0 L529.1,540.6 L529.1,540.1 L529.3,539.6 L529.5,539.0 L530.0,538.3 L530.4,538.0 L531.2,537.7 L531.9,537.4 L532.1,537.2 L532.7,537.3 Z" fill="#e7d6a3" stroke="none"/>
<path d="M528.5,524.3 L529.6,524.3 L530.6,524.4 L531.3,524.5 L531.7,524.8 L532.5,525.1 L532.9,525.6 L534.3,526.8 L534.7,527.6 L535.7,528.9 L536.1,530.4 L536.1,531.5 L536.0,532.3 L535.3,532.8 L534.4,533.5 L534.1,533.9 L533.1,534.2 L531.2,534.8 L530.2,535.1 L529.5,535.2 L529.0,535.7 L528.1,535.5 L527.5,534.9 L526.9,534.7 L526.6,534.0 L526.3,533.2 L526.3,532.6 L525.9,531.9 L525.6,531.5 L524.9,530.7 L524.6,530.1 L524.4,529.6 L523.8,528.8 L524.2,527.4 L524.7,526.6 L524.8,526.1 L525.7,525.6 L526.7,524.7 L527.2,524.6 L528.0,524.4 L528.5,524.3 Z" fill="#e7d6a3" stroke="none"/>
<path d="M544.3,526.3 L545.2,526.4 L545.9,526.4 L546.5,527.0 L546.7,527.6 L547.3,528.2 L548.0,529.1 L548.5,529.2 L548.9,529.7 L549.5,530.2 L549.7,531.0 L549.7,531.8 L549.3,532.6 L548.9,533.0 L549.0,533.6 L548.4,533.8 L547.4,534.2 L546.2,534.7 L545.4,535.1 L544.4,535.1 L543.7,534.9 L543.3,534.8 L542.8,534.5 L542.8,534.0 L542.5,533.4 L542.4,532.4 L542.0,532.0 L541.7,531.4 L541.4,530.5 L541.3,529.7 L541.3,529.2 L541.6,528.5 L542.0,527.8 L542.3,527.3 L542.5,526.9 L543.2,526.4 L543.6,526.3 L544.3,526.3 Z" fill="#e7d6a3" stroke="none"/>
<path d="M515.0,485.8 L514.4,487.2 L514.1,488.0 L513.8,488.7 L513.6,489.3 L513.6,489.8 L513.2,490.3 L512.7,491.6 L512.7,492.3 L512.6,493.3 L512.5,494.2 L512.6,494.9 L512.4,496.3 L512.4,496.9 L512.6,497.3 L513.2,497.7 L514.3,498.2 L515.3,498.7 L516.4,498.9 L517.2,498.8 L517.7,498.2 L519.0,497.5 L519.9,496.9 L522.0,495.1 L522.7,494.5 L522.8,493.9 L523.6,493.5 L523.9,493.2 L524.6,492.9 L524.9,492.4 L525.1,492.0 L525.2,491.6 L525.2,490.7 L525.2,489.5 L524.3,487.9 L524.1,487.6 L522.7,486.9 L522.2,486.5 L521.5,485.9 L520.9,485.9 L520.3,485.9 L519.3,485.6 L517.9,485.0 L517.6,484.8 L516.5,484.8 L515.9,484.8 L515.4,485.1 L515.0,485.8 Z" fill="#e7d6a3" stroke="none"/>
<path d="M508.5,484.0 L509.1,484.5 L509.4,485.0 L510.0,485.2 L510.3,485.7 L510.5,486.2 L510.7,486.8 L510.8,487.4 L510.4,488.0 L510.2,489.0 L510.1,489.7 L509.9,490.3 L509.7,490.7 L509.3,490.9 L509.1,491.8 L508.6,492.6 L508.6,493.4 L508.3,493.7 L508.3,494.4 L507.9,495.0 L507.0,495.5 L506.3,495.8 L504.7,495.4 L503.5,495.4 L502.6,495.1 L502.0,494.7 L501.2,493.9 L500.6,492.5 L500.1,491.3 L499.7,489.9 L499.6,488.4 L499.7,487.0 L500.1,485.5 L501.0,484.3 L501.7,483.5 L503.5,482.6 L505.4,482.5 L505.8,482.5 L506.6,482.6 L507.7,483.2 L508.4,483.2 L508.8,483.5 L508.5,484.0 Z" fill="#e7d6a3" stroke="none"/>
<path d="M358.9,268.5 L357.3,265.3 L355.7,263.1 L354.6,262.1 L353.8,261.8 L351.5,263.3 L349.8,266.8 L347.9,268.4 L345.6,270.2 L344.3,272.0 L343.4,274.5 L344.0,277.1 L344.2,279.6 L345.8,280.7 L347.5,281.5 L351.5,281.6 L352.9,281.7 L354.7,279.8 L356.2,278.4 L357.7,277.5 L358.0,275.0 L358.4,273.3 L359.3,271.6 L358.9,268.5 Z" fill="#e7d6a3" stroke="none"/>
<path d="M405.5,325.6 L407.4,322.2 L410.2,320.0 L412.4,318.0 L413.8,316.3 L414.3,314.6 L413.7,312.5 L412.9,311.0 L412.0,309.4 L411.1,308.1 L409.1,307.4 L405.5,308.2 L402.3,308.9 L400.5,309.6 L399.5,311.4 L398.1,312.4 L396.7,312.9 L395.4,313.6 L393.2,313.1 L391.3,312.4 L389.1,311.4 L387.2,312.0 L385.2,313.5 L383.2,314.9 L382.3,316.7 L382.2,318.9 L382.6,320.6 L384.0,322.5 L387.7,325.0 L391.6,327.8 L393.6,328.7 L395.1,329.3 L396.6,328.7 L401.4,327.0 L403.3,326.1 L405.5,325.6 Z" fill="#e7d6a3" stroke="none"/>
<path d="M-12.8,280.3 L-7.4,273.5 L2.6,281.2 L-2.7,288.1 L-12.8,280.3 Z" fill="#4f8a3e" stroke="none"/>
<path d="M269.6,262.8 L273.0,258.7 L281.8,265.6 L278.0,269.7 L269.6,262.8 Z" fill="#4f8a3e" stroke="none"/>
<path d="M168.7,12.4 L174.0,21.7 L180.8,17.9 L175.1,8.5 L168.7,12.4 Z" fill="#4f8a3e" stroke="none"/>
<path d="M190.1,118.2 L184.3,127.3 L190.3,131.5 L196.1,121.4 L190.1,118.2 Z" fill="#4f8a3e" stroke="none"/>
<path d="M240.7,84.2 L251.8,62.8 L260.9,68.1 L249.9,89.4 L240.7,84.2 Z" fill="#4f8a3e" stroke="none"/>
<path d="M481.6,191.2 L478.6,197.4 L492.8,204.2 L495.9,197.9 L481.6,191.2 Z" fill="#4f8a3e" stroke="none"/>
<path d="M477.1,171.8 L475.1,177.8 L484.2,181.1 L486.6,175.3 L477.1,171.8 Z" fill="#4f8a3e" stroke="none"/>
<path d="M484.3,236.5 L489.9,227.9 L512.0,244.1 L506.1,252.5 L484.3,236.5 Z" fill="#4f8a3e" stroke="none"/>
<path d="M615.8,528.3 L618.5,521.7 L627.5,525.6 L624.8,532.4 L615.8,528.3 Z" fill="#4f8a3e" stroke="none"/>
<path d="M621.8,513.9 L626.8,502.7 L635.8,506.6 L630.7,517.8 L621.8,513.9 Z" fill="#4f8a3e" stroke="none"/>
<path d="M634.4,487.4 L630.9,495.4 L639.7,499.3 L643.3,491.3 L634.4,487.4 Z" fill="#4f8a3e" stroke="none"/>
<path d="M647.5,388.5 L643.5,395.5 L649.0,398.6 L653.2,391.5 L647.5,388.5 Z" fill="#4f8a3e" stroke="none"/>
<path d="M25.5,315.2 L20.8,321.0 L35.7,332.2 L40.4,326.6 L25.5,315.2 Z" fill="#4f8a3e" stroke="none"/>
<path d="M47.2,331.5 L42.7,337.2 L63.2,352.9 L67.9,347.0 L47.2,331.5 Z" fill="#4f8a3e" stroke="none"/>
<path d="M91.3,364.6 L86.8,369.7 L102.9,382.0 L107.7,376.3 L91.3,364.6 Z" fill="#4f8a3e" stroke="none"/>
<path d="M165.5,429.6 L162.6,434.1 L169.7,438.4 L172.6,433.9 L165.5,429.6 Z" fill="#4f8a3e" stroke="none"/>
<path d="M397.4,629.8 L403.0,604.9 L487.0,619.7 L488.6,650.8 L397.4,629.8 Z" fill="#4f8a3e" stroke="none"/>
<path d="M-6.4,393.8 L-7.5,396.8 L-7.8,401.9 L-6.7,408.8 L-5.4,412.6 L-3.2,414.8 L-0.5,415.9 L2.5,415.5 L6.1,413.8 L10.9,413.6 L16.6,414.5 L20.6,416.5 L22.5,418.5 L25.0,419.2 L29.5,417.8 L32.8,415.2 L35.4,410.8 L36.1,405.5 L35.4,399.3 L33.4,394.4 L30.3,391.7 L22.9,386.3 L16.7,382.9 L11.0,382.9 L4.0,384.9 L-1.2,388.1 L-4.2,390.8 L-6.4,393.8 Z" fill="#2f7825" stroke="none"/>
<path d="M208.7,-55.8 L205.1,-47.4 L206.6,-38.6 L210.0,-30.8 L216.6,-25.8 L221.7,-23.6 L229.0,-23.7 L235.5,-28.0 L241.7,-34.9 L245.3,-43.6 L245.3,-50.3 L241.6,-55.9 L231.5,-62.5 L226.2,-65.2 L216.9,-64.6 L212.4,-62.3 L208.7,-55.8 Z" fill="#2f7825" stroke="none"/>
<path d="M69.1,250.3 L64.3,252.2 L62.2,253.4 L61.0,255.2 L60.1,259.8 L58.1,266.0 L54.9,272.3 L51.3,274.0 L48.5,274.7 L47.1,276.9 L49.8,283.1 L54.3,288.0 L62.5,291.0 L70.2,291.5 L78.8,289.4 L83.9,285.9 L89.2,279.3 L92.8,272.9 L94.6,265.2 L94.1,262.2 L91.1,260.5 L89.2,257.8 L89.1,253.9 L90.8,249.6 L91.3,247.4 L89.2,245.7 L84.4,244.1 L80.4,243.7 L77.7,243.7 L75.6,246.4 L74.3,248.6 L71.9,249.7 L69.1,250.3 Z" fill="#2f7825" stroke="none"/>
<path d="M520.3,562.9 L521.4,568.2 L525.8,574.3 L534.1,578.8 L541.0,581.2 L549.4,581.4 L557.1,579.6 L562.9,575.3 L565.4,571.7 L565.0,565.5 L560.7,551.8 L556.1,543.1 L550.2,540.1 L542.9,541.0 L535.1,544.8 L527.1,549.7 L522.9,552.8 L520.5,557.7 L520.3,562.9 Z" fill="#2f7825" stroke="none"/>
<path d="M567.9,259.7 L565.7,260.0 L563.5,261.2 L559.2,264.5 L555.9,267.1 L552.6,269.7 L551.1,272.8 L550.6,274.7 L550.2,276.6 L549.6,281.2 L548.7,283.7 L548.2,285.5 L546.2,288.8 L545.6,289.8 L544.0,294.0 L544.3,296.7 L545.2,299.0 L550.6,303.0 L555.8,305.3 L562.0,305.8 L569.3,303.5 L574.7,300.7 L577.3,298.4 L578.2,296.1 L578.0,294.1 L576.8,292.4 L575.9,290.2 L576.0,287.7 L576.0,284.2 L577.4,278.8 L579.2,272.4 L580.5,268.7 L581.4,265.4 L580.6,263.2 L578.0,261.4 L574.6,260.1 L570.9,259.5 L567.9,259.7 Z" fill="#2f7825" stroke="none"/>
<path d="M288.2,106.7 L286.0,111.8 L284.7,118.1 L286.5,128.0 L291.2,135.1 L294.3,137.4 L298.6,138.3 L301.5,137.9 L304.1,135.1 L307.6,131.2 L312.5,129.9 L321.7,130.1 L332.1,129.3 L340.1,127.1 L342.1,125.9 L344.0,123.5 L344.9,116.8 L344.4,112.6 L342.8,110.7 L341.1,110.5 L337.6,111.6 L330.9,111.9 L315.8,107.4 L312.0,106.8 L305.5,105.5 L301.4,103.4 L298.8,101.5 L295.8,100.7 L291.5,103.1 L288.2,106.7 Z" fill="#2f7825" stroke="none"/>
<path d="M578.0,433.9 L575.1,432.8 L572.7,432.8 L570.2,435.0 L569.4,438.4 L569.9,449.5 L572.5,460.6 L575.3,465.6 L577.7,467.6 L581.0,467.4 L584.9,465.5 L589.2,465.3 L593.9,466.0 L597.2,467.4 L599.5,468.9 L601.4,469.6 L603.4,469.6 L606.3,468.5 L608.4,465.0 L610.2,460.5 L614.7,456.4 L618.5,454.6 L620.0,452.4 L620.4,447.1 L616.4,434.2 L613.7,428.9 L608.6,425.4 L604.6,425.0 L600.8,428.1 L598.0,431.7 L593.3,434.5 L588.0,435.5 L582.8,435.4 L578.0,433.9 Z" fill="#2f7825" stroke="none"/>
<path d="M403.1,661.5 L426.3,674.2 L433.8,677.1 L438.0,676.7 L441.4,673.5 L443.6,666.9 L442.6,659.6 L438.6,654.0 L429.7,648.2 L418.9,644.0 L411.2,642.8 L405.0,643.7 L401.6,645.5 L399.7,648.6 L398.7,653.2 L399.4,656.9 L400.4,658.9 L403.1,661.5 Z" fill="#2f7825" stroke="none"/>
<path d="M173.5,14.6 L323.3,241.3 L350.9,285.7 L407.2,372.9 L551.0,433.2 L595.4,450.6" fill="none" stroke="#ffd64a" stroke-width="5" stroke-linecap="round" stroke-linejoin="round" opacity="0.95"/>
</svg>