<svg xmlns="http://www.w3.org/2000/svg" viewBox="0 0 780 800" preserveAspectRatio="xMidYMid meet">
<rect width="100%" height="100%" fill="#143018"/>
<path d="M517.5,302.6 L512.7,305.0 L506.5,313.4 L503.4,321.8 L504.7,330.4 L516.6,355.2 L524.0,368.6 L529.7,374.9 L531.5,381.1 L531.3,388.3 L525.1,401.8 L525.5,409.5 L536.6,420.6 L559.6,433.1 L564.4,433.2 L568.8,430.2 L573.1,424.5 L575.4,409.5 L555.1,377.8 L550.4,365.1 L553.9,357.8 L553.0,344.7 L547.0,336.3 L541.4,327.8 L541.8,315.4 L540.2,311.3 L533.0,306.8 L523.5,303.3 L517.5,302.6 Z" fill="#2b5a2a" stroke="none"/>
<path d="M225.8,-66.0 L222.2,-63.3 L219.1,-58.8 L217.1,-52.6 L216.4,-48.1 L219.3,-44.1 L224.4,-42.1 L228.0,-40.5 L232.7,-41.5 L236.7,-44.6 L242.0,-50.6 L244.7,-57.2 L246.1,-63.8 L245.9,-68.8 L241.9,-71.7 L236.7,-72.0 L229.2,-68.8 L225.8,-66.0 Z" fill="#2b5a2a" stroke="none"/>
<path d="M191.2,166.2 L181.4,185.8 L179.8,191.0 L181.4,195.6 L186.1,200.3 L192.9,203.4 L197.2,203.5 L201.7,203.1 L205.4,199.6 L214.0,184.5 L222.6,169.1 L224.5,163.2 L222.7,157.1 L217.6,151.8 L211.5,150.1 L204.8,150.5 L198.3,152.3 L194.3,158.1 L191.2,166.2 Z" fill="#2b5a2a" stroke="none"/>
<path d="M803.6,461.2 L798.8,505.4 L795.6,541.5 L792.6,556.8 L786.8,568.7 L760.6,609.6 L750.0,620.2 L748.8,634.2 L755.3,643.5 L763.7,650.7 L773.7,657.5 L779.9,656.0 L789.6,636.0 L798.9,601.5 L814.1,566.8 L819.8,553.8 L827.8,542.6 L835.3,536.9 L849.4,529.1 L860.5,525.1 L870.7,519.7 L880.3,509.8 L885.0,498.9 L884.8,483.6 L895.3,470.0 L913.4,454.7 L922.8,437.0 L948.4,403.3 L970.5,372.9 L991.6,346.6 L1019.5,311.5 L1036.1,288.9 L1048.7,261.9 L1060.5,237.8 L1076.6,213.3 L1091.1,193.6 L1111.2,170.5 L1127.2,154.6 L1144.0,144.2 L1166.2,131.0 L1177.0,121.3 L1186.8,109.5 L1192.5,100.8 L1196.3,91.7 L1199.9,80.8 L1242.6,68.7 L1232.5,61.4 L1200.0,66.9 L1196.2,56.2 L1191.8,48.5 L1186.2,43.7 L1178.6,40.0 L1168.1,36.2 L1154.9,34.6 L1143.7,34.5 L1138.8,30.6 L1135.7,25.6 L1122.4,34.1 L1124.2,37.6 L1124.6,43.4 L1121.1,49.4 L1108.6,55.5 L1101.0,69.8 L1098.8,82.1 L1092.0,104.2 L1076.3,128.1 L1055.9,141.4 L1048.1,149.4 L1041.7,165.6 L1032.3,174.8 L1012.2,194.9 L997.4,213.5 L987.5,230.7 L982.3,245.6 L942.3,260.6 L930.0,263.0 L917.2,269.8 L900.0,289.4 L874.5,315.3 L834.5,351.4 L822.8,362.7 L814.6,380.5 L809.1,411.3 L806.4,438.1 L803.6,461.2 Z" fill="#2b5a2a" stroke="none"/>
<path d="M133.7,243.5 L124.4,256.6 L117.8,262.0 L107.1,261.1 L99.8,257.0 L96.6,250.8 L96.4,243.5 L105.3,233.5 L111.9,226.2 L121.5,223.9 L133.7,243.5 Z" fill="#2b5a2a" stroke="none"/>
<path d="M-12.1,494.3 L-1.3,475.3 L17.7,456.6 L26.0,448.0 L32.6,435.0 L39.3,400.1 L52.3,353.2 L64.4,286.9 L66.0,235.5 L61.5,217.4 L56.4,200.6 L42.8,172.7 L16.5,145.4 L-17.5,114.6 L-28.0,76.5 L-43.8,47.3 L-57.5,37.8 L-64.1,34.7 L-77.7,38.5 L-93.0,48.3 L-107.3,66.1 L-113.9,83.8 L-115.8,106.7 L-108.5,157.1 L-106.9,171.7 L-95.2,195.8 L-86.6,208.5 L-86.6,226.3 L-83.1,236.7 L-73.3,257.4 L-67.0,264.0 L-61.9,303.3 L-60.3,326.5 L-66.0,345.5 L-79.3,371.2 L-90.4,391.2 L-100.9,427.1 L-108.5,451.5 L-109.5,470.9 L-105.0,485.8 L-87.6,499.7 L-65.4,508.0 L-49.2,512.1 L-36.2,511.1 L-24.5,508.3 L-17.5,503.8 L-12.1,494.3 Z" fill="#2b5a2a" stroke="none"/>
<path d="M91.1,91.1 L303.4,412.4 L342.4,475.3 L422.2,598.8 L626.0,684.2 L688.9,708.9" fill="none" stroke="#4e8b39" stroke-width="70.8" stroke-linecap="round" stroke-linejoin="round" opacity="0.85"/>
<path d="M171.2,750.0 L164.0,765.7 L161.5,776.3 L163.0,789.9 L164.7,801.1 L162.2,814.3 L205.3,830.9 L207.4,825.0 L211.5,821.2 L218.0,822.9 L235.2,829.0 L281.8,841.9 L304.3,848.4 L320.2,846.7 L336.3,843.1 L361.5,834.1 L377.6,829.7 L386.0,830.5 L399.7,831.8 L443.2,838.3 L474.2,845.5 L499.4,854.7 L514.9,860.3 L522.7,860.3 L532.0,856.2 L541.8,845.5 L547.3,834.5 L550.2,825.1 L555.5,794.4 L554.8,781.0 L547.4,767.2 L548.1,759.1 L501.4,741.6 L491.3,753.0 L473.1,756.2 L448.7,755.4 L427.9,754.4 L408.0,754.3 L356.0,752.4 L320.8,748.8 L296.4,745.2 L273.2,738.9 L253.9,731.2 L232.3,727.9 L215.2,726.8 L203.9,729.3 L188.2,734.8 L178.0,742.3 L171.2,750.0 Z" fill="#5a9540" stroke="none"/>
<path d="M-90.9,244.7 L-87.5,243.9 L-85.8,243.6 L-83.2,244.0 L-80.4,244.0 L-77.4,243.6 L-75.5,243.1 L-74.4,242.6 L-73.8,241.4 L-72.5,241.0 L-70.6,241.4 L-69.7,242.6 L-68.0,243.4 L-65.0,243.2 L-62.3,243.8 L-58.9,244.7 L-55.6,245.5 L-52.8,246.9 L-49.8,248.6 L-47.7,250.0 L-45.6,252.8 L-44.5,256.1 L-44.1,259.7 L-43.8,262.6 L-44.6,265.2 L-46.0,268.3 L-47.9,269.8 L-48.9,271.8 L-50.4,273.3 L-52.2,273.3 L-53.7,273.7 L-54.8,273.8 L-56.5,274.4 L-57.9,273.6 L-59.6,272.8 L-61.3,272.7 L-62.5,273.2 L-64.1,273.3 L-64.8,272.4 L-67.6,271.2 L-71.3,270.3 L-75.6,269.4 L-78.9,268.3 L-80.6,268.1 L-82.0,266.4 L-83.5,264.7 L-84.4,263.1 L-85.1,261.4 L-87.4,260.1 L-90.9,258.4 L-93.8,256.5 L-95.0,254.5 L-96.1,252.3 L-96.4,249.8 L-94.4,246.9 L-93.0,245.6 L-90.9,244.7 Z" fill="#e7d6a3" stroke="none"/>
<path d="M-61.4,295.8 L-58.7,294.2 L-56.5,292.9 L-54.8,291.9 L-53.0,291.8 L-51.3,293.2 L-48.9,296.3 L-47.6,300.8 L-47.1,304.6 L-46.6,307.1 L-45.5,309.5 L-44.0,312.6 L-42.9,316.0 L-42.3,320.5 L-42.8,324.2 L-43.8,327.1 L-44.9,330.4 L-46.2,333.2 L-48.4,336.9 L-51.3,338.8 L-53.9,339.8 L-57.0,339.8 L-58.9,338.2 L-59.5,337.0 L-61.1,335.5 L-62.5,334.5 L-63.4,332.4 L-64.2,331.0 L-65.6,329.0 L-66.1,327.0 L-65.8,324.7 L-66.1,322.4 L-66.5,320.7 L-66.1,319.1 L-64.2,316.2 L-63.6,314.1 L-63.6,312.0 L-64.1,310.0 L-65.2,307.2 L-65.9,304.7 L-66.5,302.6 L-66.5,300.5 L-65.0,300.0 L-63.7,298.2 L-62.5,297.1 L-61.4,295.8 Z" fill="#e7d6a3" stroke="none"/>
<path d="M-66.8,374.6 L-66.0,373.0 L-63.8,371.6 L-62.2,371.2 L-60.3,371.5 L-57.9,372.5 L-56.6,373.3 L-54.4,375.0 L-52.9,377.1 L-52.3,379.6 L-52.0,381.5 L-52.0,383.2 L-52.4,385.3 L-52.9,386.4 L-53.1,388.9 L-53.4,390.8 L-53.9,392.1 L-53.9,393.2 L-53.3,396.5 L-52.7,399.6 L-52.3,400.8 L-50.4,405.3 L-48.7,408.9 L-48.5,411.4 L-48.7,413.6 L-49.7,415.3 L-51.2,416.3 L-52.9,417.5 L-56.6,418.3 L-57.9,418.6 L-59.9,418.9 L-61.5,419.7 L-63.4,420.0 L-66.4,420.4 L-69.4,419.7 L-71.6,418.7 L-74.5,416.9 L-76.7,414.8 L-77.3,413.6 L-78.8,410.2 L-79.1,407.3 L-78.2,404.0 L-76.9,400.8 L-75.4,397.9 L-73.7,395.9 L-72.3,394.1 L-71.2,392.9 L-70.3,391.5 L-69.7,388.6 L-69.7,386.4 L-69.3,384.0 L-68.8,381.5 L-68.6,379.8 L-68.2,376.8 L-66.8,374.6 Z" fill="#e7d6a3" stroke="none"/>
<path d="M-12.8,430.4 L-12.2,429.4 L-10.8,428.4 L-9.4,427.9 L-8.3,427.5 L-7.4,426.8 L-6.1,425.8 L-4.7,425.0 L-3.2,424.5 L-2.1,423.8 L-1.7,423.0 L-0.9,422.2 L-0.0,421.5 L0.7,421.3 L1.7,420.8 L2.4,420.1 L4.3,418.1 L5.3,416.9 L6.3,415.8 L6.8,415.0 L7.9,413.6 L8.3,411.6 L8.3,410.2 L8.3,408.9 L7.5,406.0 L6.6,404.7 L4.9,403.7 L2.1,403.0 L0.5,402.4 L-1.9,402.5 L-3.3,402.9 L-4.1,403.1 L-5.3,403.9 L-6.1,404.5 L-7.1,405.4 L-7.8,406.6 L-8.2,407.5 L-8.8,408.4 L-9.5,408.9 L-10.4,409.6 L-11.0,410.8 L-11.8,411.7 L-12.4,412.7 L-13.0,414.0 L-13.8,415.0 L-14.4,416.0 L-15.0,416.5 L-16.1,417.1 L-17.0,418.1 L-17.8,418.8 L-18.8,419.6 L-20.5,420.9 L-21.8,422.0 L-23.1,423.3 L-24.2,424.9 L-24.8,425.9 L-25.3,427.7 L-25.4,430.5 L-25.0,432.2 L-25.1,433.4 L-24.5,435.1 L-23.7,436.2 L-22.9,437.2 L-21.4,438.3 L-20.7,438.5 L-20.0,439.0 L-19.0,439.1 L-17.6,439.2 L-16.7,438.9 L-15.6,438.2 L-14.7,436.6 L-14.5,435.6 L-14.4,434.5 L-14.3,433.7 L-14.2,432.9 L-14.1,432.0 L-13.6,430.9 L-12.8,430.4 Z" fill="#e7d6a3" stroke="none"/>
<path d="M-52.7,41.2 L-50.8,39.2 L-48.6,37.8 L-46.4,36.8 L-43.7,36.5 L-41.3,36.3 L-39.1,37.8 L-37.0,39.1 L-35.0,41.0 L-33.9,44.3 L-31.7,49.5 L-29.6,54.9 L-26.7,59.9 L-25.1,62.7 L-24.2,64.2 L-22.1,65.8 L-21.2,67.0 L-19.8,68.1 L-18.6,69.4 L-16.3,72.0 L-14.9,73.0 L-14.1,74.7 L-13.9,76.2 L-14.9,77.4 L-15.7,78.6 L-16.8,80.2 L-17.4,82.4 L-18.4,83.8 L-19.3,85.5 L-20.1,86.3 L-21.2,87.7 L-22.4,89.2 L-23.7,90.3 L-25.1,90.3 L-27.0,89.9 L-28.5,90.2 L-31.4,90.9 L-32.6,90.9 L-33.7,90.6 L-35.1,89.8 L-35.7,88.3 L-35.9,87.0 L-36.3,85.6 L-37.2,83.1 L-37.5,81.6 L-37.4,80.4 L-37.3,78.9 L-38.0,77.0 L-38.9,75.1 L-38.9,74.0 L-39.2,72.7 L-39.8,70.9 L-40.1,69.0 L-40.8,66.6 L-41.4,63.5 L-42.1,61.4 L-43.2,59.3 L-44.5,57.7 L-47.1,55.7 L-49.7,53.9 L-51.4,51.5 L-53.1,49.7 L-54.0,47.2 L-54.0,44.2 L-52.7,41.2 Z" fill="#e7d6a3" stroke="none"/>
<path d="M-27.7,32.4 L-26.5,31.3 L-25.1,29.7 L-23.9,28.4 L-22.7,27.2 L-22.1,26.1 L-22.0,24.3 L-21.3,22.8 L-20.3,21.6 L-19.4,21.4 L-17.9,20.8 L-16.6,20.2 L-15.0,19.1 L-13.2,18.6 L-12.2,19.1 L-11.4,19.2 L-10.1,19.7 L-9.1,20.9 L-9.1,22.6 L-8.7,24.5 L-8.7,26.0 L-8.7,27.3 L-8.6,28.3 L-8.6,29.6 L-8.8,30.4 L-8.8,31.8 L-8.8,32.8 L-9.0,34.3 L-9.1,35.6 L-9.1,37.2 L-8.6,38.6 L-7.7,40.0 L-6.3,41.5 L-5.2,42.9 L-4.5,44.7 L-4.3,46.4 L-5.0,48.4 L-4.6,49.6 L-4.0,51.0 L-3.8,52.3 L-4.2,53.5 L-6.1,53.7 L-7.5,55.3 L-8.8,56.5 L-10.0,56.9 L-11.6,57.5 L-13.6,57.3 L-14.8,57.2 L-16.4,57.2 L-17.9,56.7 L-18.9,55.1 L-19.6,53.3 L-19.9,52.3 L-20.8,50.2 L-21.3,48.0 L-21.9,46.5 L-22.5,45.4 L-23.3,44.7 L-24.8,43.1 L-25.8,42.7 L-26.5,42.6 L-28.0,41.9 L-29.0,41.0 L-29.6,40.0 L-30.6,38.6 L-30.1,36.3 L-28.9,34.0 L-27.7,32.4 Z" fill="#e7d6a3" stroke="none"/>
<path d="M-2.2,69.5 L-1.1,66.3 L0.2,64.0 L1.3,62.3 L2.1,60.8 L2.8,59.0 L4.8,56.4 L6.2,55.4 L8.0,54.1 L9.6,53.7 L10.9,53.7 L12.5,53.8 L13.7,55.0 L15.1,56.3 L16.5,57.6 L16.8,59.1 L17.5,61.2 L18.5,62.8 L19.1,63.9 L19.5,65.5 L20.8,66.6 L22.0,67.7 L23.3,69.0 L24.4,70.0 L25.6,70.2 L25.9,71.2 L24.9,72.5 L24.7,74.2 L24.8,75.9 L24.6,77.5 L24.1,78.3 L22.7,78.8 L20.8,80.3 L18.6,81.9 L17.2,83.1 L16.5,87.2 L16.4,89.9 L15.7,91.6 L14.3,94.3 L13.0,95.7 L11.4,96.5 L7.7,96.0 L4.1,96.0 L2.0,95.8 L0.4,95.4 L-2.5,94.2 L-3.9,93.0 L-4.3,91.4 L-5.3,89.5 L-5.6,87.0 L-5.9,85.1 L-5.6,83.8 L-5.7,80.8 L-6.2,77.6 L-5.9,75.2 L-5.6,73.8 L-5.0,72.1 L-3.5,70.7 L-2.2,69.5 Z" fill="#e7d6a3" stroke="none"/>
<path d="M-29.6,97.1 L-28.3,96.5 L-26.0,96.5 L-23.0,96.3 L-21.8,96.2 L-19.6,96.5 L-16.6,98.0 L-14.4,99.5 L-12.4,100.6 L-10.4,101.8 L-9.4,103.1 L-6.8,104.9 L-6.1,106.1 L-3.6,107.3 L-2.0,107.5 L-0.3,108.6 L1.7,109.5 L3.2,110.2 L3.8,111.4 L3.7,112.8 L2.8,114.0 L2.5,116.7 L2.5,118.2 L1.8,120.1 L1.4,122.0 L0.2,124.3 L-0.4,125.5 L-0.7,127.0 L-2.0,128.6 L-3.0,130.6 L-4.5,131.1 L-7.0,130.4 L-8.5,130.6 L-9.8,130.6 L-11.2,130.6 L-12.7,129.9 L-14.1,129.3 L-15.8,128.4 L-16.7,127.9 L-19.1,126.8 L-20.2,126.8 L-21.6,126.0 L-22.5,125.1 L-23.6,123.7 L-25.0,122.8 L-25.7,122.0 L-26.1,120.0 L-26.4,118.9 L-27.2,117.5 L-27.5,116.3 L-28.2,115.0 L-28.7,113.7 L-29.5,111.8 L-30.4,110.8 L-31.1,109.5 L-31.6,107.5 L-32.6,105.2 L-33.1,102.2 L-33.4,99.7 L-33.4,98.1 L-30.8,96.9 L-29.6,97.1 Z" fill="#e7d6a3" stroke="none"/>
<path d="M13.7,109.2 L15.4,109.3 L16.9,109.3 L18.4,109.1 L19.9,109.3 L21.0,109.3 L22.2,109.2 L24.0,108.5 L26.2,108.0 L28.5,107.5 L30.2,107.5 L31.5,108.4 L32.5,109.5 L33.3,112.0 L33.8,113.6 L34.2,115.5 L34.2,116.6 L33.9,117.7 L33.9,119.1 L34.5,120.4 L34.8,121.9 L35.0,123.5 L35.0,124.7 L34.3,125.9 L33.6,126.7 L32.5,128.2 L30.4,129.2 L29.1,129.6 L28.3,130.3 L27.4,130.8 L26.3,133.3 L26.0,135.0 L26.3,136.8 L26.9,139.0 L27.4,140.3 L27.4,141.4 L27.4,142.4 L27.4,143.7 L27.9,145.0 L28.6,146.3 L29.2,147.7 L30.3,149.2 L31.4,150.5 L32.3,151.8 L32.8,152.7 L32.3,153.7 L31.0,153.9 L29.9,154.8 L29.7,155.9 L28.7,156.9 L27.5,157.2 L25.2,157.5 L24.2,157.5 L21.2,156.9 L19.9,156.5 L18.0,156.0 L16.9,155.5 L15.6,155.0 L14.6,154.4 L13.3,153.2 L11.6,151.6 L10.4,150.5 L9.0,148.9 L8.1,148.2 L7.4,146.8 L7.2,145.5 L6.3,144.4 L5.7,143.2 L4.0,139.7 L3.2,137.9 L3.0,136.3 L3.0,135.0 L3.9,133.1 L4.7,131.1 L5.4,129.5 L5.7,128.5 L6.3,128.0 L7.0,126.5 L7.4,125.0 L7.9,123.1 L8.0,120.2 L8.3,116.9 L8.3,115.0 L8.9,113.5 L9.7,112.3 L10.9,111.3 L11.8,110.0 L13.7,109.2 Z" fill="#e7d6a3" stroke="none"/>
<path d="M47.8,151.3 L46.0,153.2 L44.8,154.8 L42.9,156.3 L41.5,157.5 L40.0,158.7 L37.7,160.7 L36.4,163.1 L35.3,165.1 L34.7,166.4 L34.7,168.6 L34.2,171.3 L34.9,173.4 L36.1,175.7 L36.9,177.2 L37.7,178.8 L39.6,180.5 L40.7,181.8 L42.1,182.8 L43.1,184.3 L45.1,184.5 L46.1,184.0 L46.4,183.0 L48.8,182.9 L50.0,182.6 L52.0,182.7 L53.8,182.3 L55.8,182.4 L57.4,181.2 L61.2,179.2 L62.2,177.7 L63.2,176.5 L63.8,175.0 L63.8,173.4 L64.0,171.7 L63.7,169.9 L62.8,168.2 L62.4,167.0 L61.7,166.2 L60.8,164.7 L60.4,163.1 L60.4,161.4 L60.4,160.4 L60.8,158.8 L61.5,157.2 L62.0,155.2 L61.6,154.0 L60.7,152.8 L60.0,151.5 L59.1,149.9 L58.0,149.0 L56.8,148.5 L56.4,146.8 L56.1,144.9 L55.3,143.4 L54.2,143.1 L53.0,142.9 L51.7,143.3 L50.7,144.2 L50.9,146.5 L51.1,147.9 L51.0,149.2 L49.5,150.4 L48.8,150.8 L47.8,151.3 Z" fill="#e7d6a3" stroke="none"/>
<path d="M133.5,660.5 L135.7,659.3 L136.9,658.6 L138.7,658.0 L139.8,657.9 L141.0,658.8 L142.2,658.8 L143.7,659.6 L145.3,660.4 L147.1,661.1 L149.0,661.4 L150.5,662.0 L152.4,662.5 L153.7,662.6 L155.2,662.4 L156.4,662.4 L157.8,662.4 L159.2,662.6 L160.6,663.4 L161.7,664.9 L162.5,666.6 L162.9,668.2 L162.9,669.4 L162.7,670.7 L162.0,671.5 L161.1,672.6 L160.6,673.9 L159.0,674.9 L157.4,676.0 L155.2,676.5 L152.1,677.8 L150.5,678.2 L149.0,678.2 L148.0,678.2 L146.1,677.8 L144.2,678.3 L142.6,678.2 L140.6,678.5 L138.9,678.8 L138.1,678.4 L136.5,678.2 L134.6,678.4 L132.7,678.9 L131.4,679.4 L130.1,679.8 L128.5,679.4 L127.5,678.4 L127.1,676.6 L127.1,674.3 L127.1,672.9 L127.3,671.7 L127.9,670.2 L128.9,668.2 L128.9,666.7 L129.0,665.3 L130.0,664.1 L131.3,663.4 L131.3,662.0 L131.5,661.1 L133.5,660.5 Z" fill="#e7d6a3" stroke="none"/>
<path d="M184.0,676.0 L185.1,675.3 L186.3,675.3 L188.7,675.2 L191.3,674.8 L193.4,674.8 L195.1,674.8 L197.2,674.1 L199.2,673.7 L202.0,672.4 L206.1,671.2 L207.9,670.8 L209.6,671.6 L211.7,672.0 L213.4,673.4 L215.1,674.1 L216.1,674.1 L218.6,674.9 L219.5,677.2 L219.9,679.5 L220.2,681.5 L219.7,683.1 L219.0,684.5 L217.9,686.1 L216.3,687.4 L215.4,688.7 L213.7,690.1 L211.6,690.9 L209.5,691.4 L207.1,692.2 L204.8,692.7 L203.1,692.5 L201.3,692.6 L199.8,691.8 L197.3,691.8 L195.6,691.0 L194.2,690.9 L192.6,691.0 L190.4,691.8 L187.7,692.3 L185.8,692.7 L184.0,693.5 L182.6,693.8 L180.8,693.7 L178.7,693.7 L176.7,692.8 L175.2,691.5 L174.5,690.3 L173.9,688.5 L173.9,686.5 L174.2,685.0 L175.4,684.7 L176.7,684.5 L176.7,682.5 L177.2,680.7 L178.2,679.1 L180.0,677.1 L181.4,676.0 L182.6,676.5 L184.0,676.0 Z" fill="#e7d6a3" stroke="none"/>
<path d="M672.4,733.2 L673.6,732.8 L675.0,732.3 L677.0,731.8 L678.6,731.8 L679.9,732.0 L681.7,732.5 L683.1,732.8 L684.7,733.2 L687.4,734.2 L688.2,735.7 L688.9,736.9 L688.7,737.7 L688.6,739.0 L688.3,739.8 L688.0,740.7 L687.3,741.6 L686.6,742.1 L685.2,742.5 L684.6,742.8 L683.6,742.8 L682.6,742.8 L681.9,742.4 L680.5,742.1 L679.4,742.2 L678.5,742.6 L677.4,744.1 L676.5,744.4 L675.5,744.3 L674.4,744.2 L673.3,743.6 L672.7,743.2 L671.6,743.1 L670.7,742.6 L670.0,741.6 L670.0,740.7 L669.7,739.5 L669.5,738.8 L669.3,736.3 L670.0,735.2 L671.1,734.2 L672.4,733.2 Z" fill="#e7d6a3" stroke="none"/>
<path d="M715.1,721.4 L717.2,719.7 L718.4,718.8 L719.7,718.3 L721.3,718.4 L722.9,718.9 L724.5,719.8 L725.3,720.7 L725.9,721.9 L725.9,722.4 L726.9,723.8 L727.1,725.0 L726.9,727.0 L726.5,729.0 L725.0,731.1 L723.4,732.6 L722.2,733.2 L721.4,733.2 L721.0,733.8 L719.8,734.2 L718.1,734.1 L717.5,733.8 L715.8,733.5 L714.1,732.8 L712.5,732.0 L711.1,730.0 L710.8,728.4 L710.8,727.2 L711.4,725.9 L712.8,724.1 L713.8,722.8 L715.1,721.4 Z" fill="#e7d6a3" stroke="none"/>
<path d="M534.5,615.5 L535.4,614.8 L536.8,614.5 L538.6,614.7 L539.8,615.3 L541.4,615.9 L543.4,616.5 L545.4,616.7 L546.8,616.7 L548.7,616.9 L549.3,617.5 L551.6,617.7 L553.1,617.7 L554.8,618.1 L556.0,618.2 L557.4,618.4 L558.8,618.9 L559.5,619.7 L559.5,620.5 L560.1,621.9 L559.6,623.0 L559.2,624.7 L559.0,625.9 L558.9,627.6 L557.9,629.1 L557.0,630.5 L556.0,631.3 L554.9,632.4 L553.5,632.8 L552.5,633.0 L550.7,633.3 L549.5,633.3 L547.7,633.5 L546.7,633.5 L545.4,633.3 L544.2,632.7 L542.8,632.2 L541.7,631.9 L540.4,631.3 L539.2,631.1 L538.1,630.4 L536.8,629.7 L535.5,628.8 L535.0,628.2 L533.9,627.4 L533.2,626.2 L532.5,624.8 L531.9,623.5 L531.7,622.2 L531.5,620.7 L531.5,619.7 L531.5,618.5 L531.8,617.3 L532.9,616.5 L534.5,615.5 Z" fill="#e7d6a3" stroke="none"/>
<path d="M570.9,665.1 L572.0,665.4 L573.5,665.1 L575.3,665.1 L576.6,665.0 L578.1,664.8 L579.9,664.7 L582.1,664.7 L584.1,665.1 L585.0,665.0 L586.1,664.4 L587.2,664.8 L588.4,665.5 L588.7,666.5 L589.4,667.5 L590.2,667.8 L590.8,669.3 L591.0,670.8 L590.9,672.3 L590.1,674.3 L589.5,675.8 L588.5,677.2 L587.8,678.7 L586.6,680.2 L585.1,681.5 L583.2,682.7 L580.7,683.6 L579.5,685.1 L577.5,686.0 L576.7,687.6 L575.6,688.4 L574.2,688.3 L572.5,688.2 L571.0,687.9 L569.0,687.7 L567.2,686.3 L566.3,685.3 L565.6,683.8 L564.7,682.4 L563.6,681.3 L562.4,679.8 L562.2,677.9 L561.8,676.0 L561.5,674.7 L561.3,673.3 L561.2,671.9 L561.4,671.0 L561.8,670.3 L562.9,669.7 L564.0,669.6 L565.0,668.3 L567.5,667.1 L569.0,666.0 L570.9,665.1 Z" fill="#e7d6a3" stroke="none"/>
<path d="M598.3,669.6 L599.6,669.5 L601.2,669.0 L602.8,669.2 L604.8,669.4 L606.2,669.8 L607.1,669.9 L608.0,670.9 L609.1,671.6 L609.7,672.2 L611.4,673.1 L612.6,674.4 L613.8,675.7 L614.3,677.0 L615.3,677.8 L617.4,679.1 L619.5,680.3 L620.9,682.2 L621.6,684.1 L622.1,686.2 L622.3,688.8 L621.6,691.0 L620.4,692.7 L617.9,695.8 L613.4,698.4 L609.5,700.0 L606.4,700.7 L603.1,701.1 L600.8,700.4 L598.1,700.2 L596.8,699.7 L594.2,698.5 L592.0,697.4 L589.9,696.1 L587.7,694.8 L586.4,692.6 L585.6,689.8 L585.6,687.4 L586.5,685.5 L587.6,684.7 L588.5,684.5 L589.5,682.6 L590.1,681.4 L591.5,679.8 L593.1,677.2 L593.7,675.6 L594.4,674.1 L594.7,672.9 L595.5,672.1 L596.5,670.9 L598.3,669.6 Z" fill="#e7d6a3" stroke="none"/>
<path d="M663.1,666.9 L664.6,666.8 L666.0,666.9 L666.8,666.2 L667.4,666.1 L669.0,666.3 L670.7,666.5 L671.7,666.5 L672.7,666.5 L674.2,666.5 L675.4,666.7 L676.5,667.1 L677.9,667.1 L679.8,667.1 L681.8,667.1 L683.2,667.1 L684.9,667.3 L686.7,667.5 L688.0,667.6 L689.3,667.9 L690.4,668.6 L691.4,669.4 L692.4,670.6 L693.1,671.9 L693.5,672.9 L693.4,674.0 L693.4,675.0 L692.8,675.9 L692.2,677.2 L690.7,678.5 L688.8,679.9 L686.5,680.9 L684.4,681.7 L682.0,682.7 L679.0,683.4 L676.9,683.8 L675.0,684.0 L672.8,683.9 L671.0,683.7 L668.7,683.4 L666.4,682.9 L664.4,682.4 L663.2,681.9 L661.2,680.4 L660.0,678.6 L659.1,677.5 L658.9,676.8 L658.7,676.3 L658.8,674.8 L658.9,673.5 L658.9,672.1 L659.0,670.9 L659.5,669.9 L659.9,669.1 L660.5,668.2 L661.9,667.6 L663.1,666.9 Z" fill="#e7d6a3" stroke="none"/>
<path d="M273.1,201.3 L272.3,202.7 L272.0,204.5 L272.0,205.6 L272.0,206.4 L271.7,207.8 L271.7,209.0 L272.1,210.2 L272.6,211.8 L273.4,213.5 L274.2,214.7 L275.7,215.7 L277.9,216.7 L279.5,217.2 L281.5,217.7 L284.7,217.2 L286.0,216.4 L287.4,216.0 L288.8,215.9 L290.0,216.0 L291.0,216.5 L292.0,217.1 L293.2,217.6 L294.6,217.8 L296.0,217.6 L297.1,217.6 L298.0,218.1 L299.7,219.2 L300.8,220.2 L302.0,220.3 L303.7,220.3 L306.0,220.5 L308.0,221.3 L309.9,222.3 L311.2,223.7 L312.8,225.4 L314.0,226.0 L315.5,226.4 L317.1,226.7 L319.2,226.9 L322.6,226.8 L324.9,226.0 L327.8,225.0 L330.3,223.7 L332.7,221.5 L333.6,220.4 L334.4,217.7 L334.4,215.9 L333.8,214.4 L332.9,213.4 L331.7,212.8 L330.0,212.6 L328.3,212.4 L326.7,212.0 L324.4,211.4 L322.3,210.4 L320.7,209.9 L318.1,209.5 L316.0,209.3 L314.0,209.1 L311.7,208.1 L307.5,204.4 L302.3,200.2 L298.3,198.1 L295.5,197.1 L293.1,196.0 L290.5,195.5 L287.1,195.3 L283.7,195.5 L280.9,196.5 L278.3,197.2 L277.0,197.9 L275.4,198.7 L274.0,199.9 L273.1,201.3 Z" fill="#e7d6a3" stroke="none"/>
<path d="M282.4,262.5 L281.6,263.8 L281.1,264.8 L280.9,266.2 L281.2,267.9 L281.8,269.5 L282.7,270.8 L284.1,272.0 L286.7,273.8 L288.6,274.7 L290.0,275.4 L291.9,276.4 L293.4,277.5 L295.5,278.9 L297.4,280.2 L299.7,281.2 L301.9,281.7 L304.0,281.9 L306.0,282.1 L308.1,281.9 L310.7,281.4 L312.4,281.0 L314.1,280.1 L315.8,279.2 L316.8,278.1 L317.6,276.3 L318.3,274.4 L318.5,272.7 L318.5,271.1 L318.0,269.1 L317.3,266.7 L316.6,265.4 L315.2,261.8 L314.7,260.4 L313.8,259.4 L312.5,258.8 L311.2,258.6 L310.4,258.4 L309.1,258.5 L307.3,259.1 L306.2,259.6 L304.7,260.3 L303.8,260.8 L302.5,261.6 L301.5,261.9 L300.8,262.4 L299.7,262.6 L298.0,262.8 L295.9,262.4 L294.8,261.9 L292.6,261.0 L290.7,260.4 L288.7,260.3 L286.3,260.5 L284.1,261.1 L283.2,261.7 L282.4,262.5 Z" fill="#e7d6a3" stroke="none"/>
<path d="M327.3,255.9 L325.9,256.2 L324.6,257.0 L323.7,258.4 L323.4,259.6 L323.1,261.4 L323.3,263.2 L323.9,264.8 L325.4,267.5 L327.1,270.8 L328.5,272.2 L329.4,273.2 L330.6,275.7 L331.7,277.1 L332.0,278.3 L332.8,278.9 L334.1,278.9 L335.3,278.9 L336.6,279.0 L338.0,279.4 L340.6,279.2 L341.8,278.9 L343.1,278.6 L344.3,277.9 L346.6,276.4 L348.4,275.2 L350.0,273.0 L350.2,271.6 L350.2,270.0 L350.2,268.5 L350.3,265.0 L350.3,264.2 L350.0,263.6 L349.0,262.1 L347.9,261.0 L347.1,260.1 L346.0,259.3 L345.3,258.4 L344.9,257.2 L343.8,255.8 L341.1,254.3 L339.5,253.8 L338.2,253.8 L337.4,253.6 L336.0,253.4 L334.8,253.1 L333.6,253.1 L332.7,253.1 L332.0,253.2 L330.7,253.9 L330.3,254.3 L329.5,254.8 L328.6,255.4 L327.3,255.9 Z" fill="#e7d6a3" stroke="none"/>
<path d="M361.5,273.3 L362.9,272.5 L364.9,272.0 L366.1,271.8 L367.8,271.7 L368.7,272.0 L369.6,272.2 L371.1,272.7 L372.2,273.2 L373.5,273.1 L374.7,273.3 L375.8,273.6 L376.9,274.2 L377.8,274.8 L378.8,275.4 L379.5,276.2 L380.3,277.4 L380.9,278.1 L382.1,278.6 L383.3,279.3 L384.2,280.4 L385.0,281.6 L385.5,282.7 L385.9,283.6 L386.8,285.2 L388.5,287.2 L388.9,288.4 L388.9,289.2 L389.2,290.1 L389.5,291.6 L388.7,292.9 L387.7,293.6 L386.5,294.3 L384.8,294.9 L382.9,294.8 L381.1,295.0 L379.8,294.7 L378.1,294.0 L376.2,293.4 L374.7,292.7 L373.1,292.1 L371.1,291.3 L369.5,290.8 L367.3,290.6 L366.0,289.9 L363.8,289.6 L362.2,289.3 L360.8,288.8 L359.3,287.6 L357.6,286.6 L356.5,285.7 L355.9,284.1 L355.5,280.7 L356.0,278.5 L356.9,276.9 L358.4,275.6 L359.8,274.3 L361.5,273.3 Z" fill="#e7d6a3" stroke="none"/>
<path d="M123.9,-30.5 L122.2,-28.6 L121.3,-25.7 L120.9,-23.7 L120.9,-22.4 L121.0,-21.0 L121.2,-20.3 L121.1,-18.9 L121.1,-17.3 L121.2,-15.7 L121.4,-14.2 L121.8,-12.8 L121.8,-11.1 L122.1,-9.5 L122.4,-7.8 L123.3,-6.9 L124.1,-5.9 L125.6,-5.8 L126.8,-5.4 L127.6,-5.2 L128.4,-4.6 L129.3,-4.1 L130.5,-3.8 L131.8,-3.8 L133.5,-4.6 L134.4,-5.8 L135.1,-7.1 L135.7,-8.6 L136.9,-11.3 L137.6,-13.0 L138.2,-14.2 L139.6,-15.8 L140.2,-17.9 L141.2,-20.3 L141.7,-22.5 L141.9,-25.4 L141.4,-26.8 L140.1,-28.6 L138.4,-29.9 L135.9,-30.7 L133.7,-31.2 L132.6,-31.5 L130.5,-31.7 L129.3,-31.8 L127.9,-31.8 L126.9,-31.7 L125.3,-31.4 L123.9,-30.5 Z" fill="#e7d6a3" stroke="none"/>
<path d="M176.4,-57.8 L177.4,-57.7 L178.8,-57.7 L179.9,-57.5 L181.3,-56.5 L182.3,-55.6 L183.5,-54.3 L184.8,-52.8 L185.8,-51.2 L186.5,-49.8 L186.5,-48.5 L186.5,-47.2 L186.1,-46.0 L185.5,-44.8 L185.0,-43.6 L184.4,-41.8 L183.8,-39.9 L183.1,-38.2 L182.2,-37.0 L181.7,-35.4 L181.1,-33.9 L180.2,-33.1 L179.5,-32.5 L178.6,-32.6 L177.6,-33.1 L176.8,-34.1 L176.2,-34.8 L175.6,-35.6 L175.1,-36.9 L174.4,-38.4 L174.8,-39.8 L175.0,-40.9 L175.5,-41.7 L175.7,-42.3 L175.8,-43.4 L175.8,-44.5 L175.8,-45.5 L174.8,-47.3 L174.3,-48.3 L173.7,-49.5 L173.5,-50.7 L173.2,-52.5 L173.0,-54.3 L173.2,-55.7 L173.8,-56.6 L174.4,-57.2 L175.3,-57.6 L176.4,-57.8 Z" fill="#e7d6a3" stroke="none"/>
<path d="M188.4,-43.4 L187.1,-42.4 L186.1,-40.8 L185.3,-39.0 L184.8,-37.5 L184.0,-35.5 L184.0,-33.7 L183.5,-32.5 L183.6,-30.8 L183.9,-28.0 L184.0,-26.7 L183.9,-25.3 L184.2,-24.2 L184.5,-23.3 L184.3,-22.2 L184.2,-21.0 L184.2,-19.9 L184.1,-18.9 L184.4,-17.5 L185.4,-16.1 L186.4,-14.7 L187.0,-14.4 L187.6,-13.8 L188.5,-12.9 L189.6,-11.8 L190.8,-11.2 L192.6,-10.9 L193.6,-11.2 L194.6,-11.7 L195.4,-12.5 L196.2,-13.2 L196.7,-14.0 L197.5,-15.2 L197.6,-15.7 L198.2,-16.1 L198.7,-17.0 L199.2,-17.9 L199.4,-18.5 L200.0,-18.6 L200.5,-19.5 L200.4,-20.4 L199.6,-22.4 L199.3,-23.3 L198.8,-24.4 L198.5,-25.6 L198.2,-27.0 L197.9,-28.3 L197.8,-29.6 L198.2,-31.1 L198.7,-32.5 L199.1,-33.4 L199.5,-34.2 L199.9,-35.5 L199.7,-36.5 L199.3,-37.2 L198.9,-38.1 L198.2,-39.1 L197.8,-40.2 L196.4,-42.3 L193.8,-43.5 L191.3,-44.1 L190.2,-44.1 L188.4,-43.4 Z" fill="#e7d6a3" stroke="none"/>
<path d="M194.3,-70.3 L196.1,-70.6 L197.6,-70.6 L199.1,-70.5 L200.7,-69.9 L201.0,-68.7 L201.3,-67.7 L202.7,-65.3 L203.1,-63.3 L203.5,-61.4 L204.2,-59.6 L205.1,-57.7 L205.5,-56.4 L205.5,-54.7 L205.2,-53.3 L204.8,-52.3 L204.3,-50.6 L204.0,-48.7 L203.9,-47.0 L203.6,-45.9 L203.2,-44.4 L202.5,-43.5 L201.0,-43.3 L199.3,-43.6 L195.7,-45.0 L194.5,-46.3 L193.3,-47.6 L192.0,-49.0 L191.0,-50.3 L189.4,-51.7 L188.5,-53.0 L187.9,-55.9 L187.7,-57.0 L187.5,-58.4 L187.8,-59.8 L188.1,-61.3 L188.6,-63.1 L189.2,-64.8 L190.8,-67.8 L191.8,-68.9 L192.3,-70.0 L193.4,-70.5 L194.3,-70.3 Z" fill="#e7d6a3" stroke="none"/>
<path d="M270.0,-122.0 L274.0,-125.9 L278.4,-129.7 L281.5,-131.8 L284.6,-133.2 L288.0,-132.6 L290.5,-132.0 L293.4,-130.7 L295.1,-128.7 L296.2,-125.9 L297.5,-123.5 L297.7,-120.9 L297.7,-118.9 L297.8,-117.2 L298.8,-115.2 L300.6,-113.7 L301.8,-112.1 L303.0,-110.5 L304.6,-108.2 L305.4,-106.3 L307.3,-103.9 L309.0,-101.8 L310.1,-97.5 L310.1,-94.6 L310.0,-92.8 L308.1,-90.9 L307.2,-88.7 L306.3,-85.8 L307.6,-79.2 L307.8,-75.8 L304.9,-71.2 L302.0,-68.5 L299.4,-66.6 L296.5,-63.7 L295.4,-61.8 L294.7,-55.6 L293.3,-50.7 L291.9,-47.2 L289.3,-43.1 L285.2,-40.4 L281.5,-39.1 L278.1,-39.2 L276.1,-40.0 L272.7,-42.3 L270.9,-45.9 L270.4,-49.2 L270.3,-53.0 L271.1,-55.7 L272.7,-58.7 L273.9,-60.5 L274.8,-63.4 L275.7,-66.0 L276.7,-68.5 L277.2,-71.1 L278.2,-74.2 L279.6,-74.7 L280.7,-75.8 L280.9,-77.8 L280.7,-80.1 L277.4,-85.4 L277.4,-88.9 L278.1,-97.2 L277.4,-101.6 L275.8,-106.0 L274.8,-107.8 L273.7,-110.4 L271.8,-112.3 L270.9,-114.3 L269.5,-117.5 L269.1,-119.5 L270.0,-122.0 Z" fill="#e7d6a3" stroke="none"/>
<path d="M606.4,455.8 L605.9,457.4 L605.8,458.3 L605.6,459.1 L605.2,460.1 L605.0,461.0 L605.0,462.2 L605.0,463.3 L604.9,464.3 L604.5,465.9 L604.5,467.1 L604.5,469.0 L604.7,470.8 L604.7,472.7 L604.8,473.7 L604.9,475.4 L605.0,476.5 L605.7,478.3 L607.7,479.2 L609.1,479.6 L610.5,480.0 L611.8,480.1 L612.8,479.9 L614.2,479.4 L615.6,478.5 L616.3,477.5 L616.9,475.9 L617.3,474.3 L618.0,473.2 L618.8,471.4 L619.6,469.5 L620.1,467.6 L620.5,466.9 L620.1,465.6 L619.7,464.2 L619.7,463.3 L620.8,461.7 L621.4,460.6 L621.4,459.5 L622.3,458.0 L622.3,456.7 L621.6,455.0 L620.5,453.8 L619.1,452.5 L617.6,451.5 L616.6,450.9 L614.2,450.6 L612.6,450.5 L610.3,451.2 L609.1,451.7 L608.2,452.3 L607.3,453.4 L607.1,454.1 L606.5,454.8 L606.4,455.8 Z" fill="#e7d6a3" stroke="none"/>
<path d="M624.5,427.3 L625.5,425.7 L626.4,424.3 L626.7,423.3 L627.1,421.8 L627.6,421.0 L629.0,419.6 L630.3,418.6 L633.6,417.2 L635.9,417.0 L637.8,417.6 L639.5,418.5 L641.1,419.9 L642.0,421.5 L642.5,422.9 L642.8,424.4 L642.9,426.3 L642.8,427.4 L642.5,428.0 L642.5,429.1 L642.5,429.9 L642.1,430.8 L641.6,432.4 L640.8,434.0 L640.1,435.5 L638.0,438.0 L636.7,439.0 L635.3,439.6 L634.2,440.3 L633.3,441.5 L632.3,442.9 L631.4,444.2 L630.0,445.3 L628.2,446.3 L626.7,446.2 L624.6,445.7 L622.8,443.8 L621.1,442.0 L619.9,440.1 L619.3,438.4 L619.3,436.5 L619.6,434.8 L620.6,433.4 L621.4,431.7 L622.1,430.4 L623.4,428.5 L624.5,427.3 Z" fill="#e7d6a3" stroke="none"/>
<path d="M669.6,453.9 L670.0,452.5 L671.1,450.9 L672.3,449.3 L673.8,447.9 L675.8,446.9 L677.2,446.4 L679.3,446.5 L680.6,446.9 L682.6,448.3 L683.8,449.7 L684.3,451.7 L684.4,453.7 L684.4,455.7 L684.4,456.8 L684.2,458.6 L684.3,460.3 L684.4,461.7 L684.7,462.8 L685.3,463.8 L685.3,464.5 L684.2,464.9 L683.1,465.5 L682.1,466.3 L681.0,467.4 L680.2,468.7 L679.7,470.4 L679.3,471.8 L679.0,473.1 L678.7,475.0 L678.3,477.0 L678.1,478.2 L677.6,478.7 L677.6,479.6 L677.3,481.2 L676.6,481.7 L676.0,483.0 L675.3,483.9 L674.4,484.9 L673.5,485.4 L672.8,485.8 L671.4,486.2 L670.2,486.3 L668.7,486.6 L667.5,486.4 L665.8,485.1 L664.1,483.1 L663.3,481.0 L663.0,479.7 L662.9,477.4 L663.0,475.6 L663.4,474.4 L663.8,472.7 L664.9,471.3 L665.6,469.6 L666.4,468.1 L666.9,466.7 L667.1,465.4 L667.8,464.4 L667.9,463.4 L668.1,461.6 L668.2,459.4 L668.5,457.0 L668.9,455.2 L669.6,453.9 Z" fill="#e7d6a3" stroke="none"/>
<path d="M692.8,439.3 L694.6,439.5 L695.7,439.0 L696.8,439.6 L698.2,440.4 L699.7,441.4 L700.8,442.4 L702.2,443.4 L703.0,444.1 L704.1,445.4 L704.6,446.3 L704.1,447.3 L703.8,448.4 L703.3,449.2 L702.7,449.8 L702.0,450.4 L701.8,451.3 L701.7,452.5 L701.0,453.4 L699.7,453.6 L698.6,454.1 L697.6,454.4 L696.7,455.0 L695.9,454.9 L694.7,454.8 L693.2,454.4 L692.2,454.1 L690.8,453.0 L689.7,451.8 L690.3,450.8 L689.8,449.0 L688.7,447.1 L688.7,445.6 L689.1,443.7 L689.9,442.3 L690.8,440.8 L692.8,439.3 Z" fill="#e7d6a3" stroke="none"/>
<path d="M703.6,422.4 L705.1,422.8 L706.2,423.4 L707.5,423.5 L708.2,424.9 L709.1,426.4 L709.6,427.4 L710.0,428.6 L710.3,429.7 L710.2,430.8 L710.3,432.0 L710.3,433.4 L709.8,434.5 L709.4,435.1 L708.9,436.1 L708.3,437.3 L706.6,437.6 L705.1,437.7 L703.7,437.6 L703.2,437.3 L701.6,437.0 L700.7,436.5 L699.1,436.0 L698.4,436.0 L696.9,435.3 L696.0,434.8 L695.0,434.1 L693.9,432.6 L693.3,430.8 L693.2,428.7 L693.4,427.5 L694.1,426.3 L694.7,425.3 L696.0,424.2 L697.8,423.4 L699.1,422.8 L700.1,422.6 L701.8,422.6 L703.6,422.4 Z" fill="#e7d6a3" stroke="none"/>
<path d="M667.8,417.3 L670.5,417.3 L672.8,417.6 L674.6,417.7 L676.2,417.3 L678.0,417.8 L679.1,418.8 L679.8,419.1 L679.9,419.8 L680.1,420.7 L680.3,421.3 L680.9,421.7 L681.0,422.6 L681.0,423.5 L680.7,424.1 L680.7,424.8 L680.7,425.7 L680.7,426.6 L680.8,427.6 L680.9,428.3 L681.2,428.9 L680.9,429.8 L680.7,430.8 L679.8,431.2 L679.3,431.8 L678.6,432.9 L678.2,434.1 L678.3,435.3 L677.6,435.8 L676.3,436.7 L675.2,437.3 L674.5,437.6 L673.8,437.6 L672.9,437.6 L672.3,438.1 L670.8,438.7 L669.0,438.8 L667.4,438.9 L664.6,438.2 L662.7,437.2 L660.4,436.2 L659.2,434.6 L658.9,433.7 L658.6,432.8 L658.3,429.3 L658.3,427.6 L658.3,426.5 L658.7,425.6 L658.9,424.4 L659.2,423.3 L660.4,420.9 L661.3,420.3 L662.4,419.4 L664.3,418.5 L665.1,418.0 L666.3,417.5 L667.8,417.3 Z" fill="#e7d6a3" stroke="none"/>
<path d="M661.9,397.8 L660.7,398.7 L659.6,400.4 L659.1,402.3 L659.0,404.4 L659.3,406.7 L659.9,408.8 L660.8,410.1 L664.0,412.7 L666.0,413.3 L668.4,413.3 L669.8,413.3 L672.1,412.6 L673.3,411.8 L674.5,410.7 L675.5,409.5 L676.2,408.4 L676.6,407.2 L677.2,407.1 L677.0,405.7 L676.9,404.4 L676.6,403.7 L676.6,403.3 L676.6,402.7 L676.3,401.5 L675.6,400.3 L674.3,399.6 L673.0,399.0 L671.8,398.7 L670.6,398.5 L669.8,398.1 L668.6,397.3 L667.1,397.2 L666.1,397.2 L665.2,397.2 L664.2,397.2 L662.8,397.1 L661.9,397.8 Z" fill="#e7d6a3" stroke="none"/>
<path d="M684.2,403.8 L683.7,406.0 L683.5,407.7 L683.7,411.1 L684.3,412.1 L684.5,412.9 L685.1,414.4 L685.8,415.6 L687.0,416.6 L687.8,417.2 L689.1,417.3 L690.0,417.4 L690.1,418.0 L690.8,418.5 L691.7,418.5 L692.6,418.1 L693.3,418.6 L694.0,418.6 L694.0,417.9 L694.8,417.6 L695.2,416.9 L695.6,416.0 L696.2,415.5 L696.9,413.8 L697.1,412.6 L697.0,411.6 L697.3,410.4 L697.3,409.4 L697.3,408.4 L697.4,407.6 L697.3,406.9 L696.6,406.4 L696.3,405.6 L696.2,404.6 L695.7,404.0 L695.4,403.1 L695.7,402.3 L695.3,401.4 L693.2,399.7 L691.3,398.7 L689.6,398.2 L688.3,398.1 L687.7,398.3 L686.5,399.2 L685.8,400.0 L685.2,401.0 L684.6,402.1 L684.2,403.8 Z" fill="#e7d6a3" stroke="none"/>
<path d="M702.9,398.2 L704.9,397.2 L706.5,396.9 L707.9,396.8 L709.2,396.4 L711.5,396.3 L712.9,396.6 L714.1,397.3 L715.4,398.8 L716.7,400.5 L717.6,402.0 L718.1,403.4 L718.2,404.5 L718.5,405.7 L718.9,406.6 L719.7,407.6 L719.8,409.1 L720.5,410.2 L720.4,411.0 L720.8,412.4 L720.5,413.4 L720.5,414.4 L719.5,415.0 L719.1,415.5 L718.5,416.2 L717.7,416.5 L717.3,417.5 L716.2,417.8 L714.5,418.2 L713.3,418.2 L710.1,417.3 L708.9,416.6 L708.1,415.8 L707.3,415.0 L705.4,413.6 L703.7,412.4 L702.2,410.6 L701.7,409.7 L701.5,408.8 L702.2,408.2 L701.6,407.1 L701.5,406.4 L701.0,405.3 L700.7,404.2 L700.6,403.1 L700.6,402.0 L700.6,400.9 L700.8,400.2 L701.7,399.0 L702.9,398.2 Z" fill="#e7d6a3" stroke="none"/>
<path d="M694.5,375.8 L692.9,376.9 L691.7,377.9 L691.4,378.6 L691.0,379.2 L690.9,380.1 L690.9,380.6 L690.6,381.4 L690.5,382.3 L690.5,383.4 L690.5,384.5 L690.2,385.8 L690.0,387.4 L690.4,388.0 L690.5,389.4 L690.8,390.2 L691.0,391.3 L691.6,392.2 L692.2,392.7 L693.0,393.0 L694.1,392.7 L694.9,392.5 L695.7,392.3 L696.6,392.4 L697.5,392.3 L698.5,392.2 L699.2,392.2 L700.5,392.5 L701.6,392.7 L703.0,392.9 L704.2,393.1 L705.5,393.4 L706.8,393.5 L709.6,393.5 L710.6,393.2 L711.4,392.2 L711.4,391.3 L711.4,390.0 L710.8,388.8 L710.6,388.1 L710.2,387.4 L710.8,386.5 L711.7,385.1 L711.6,384.1 L711.6,382.7 L711.6,381.4 L711.1,379.6 L709.1,377.9 L706.7,377.2 L704.0,376.3 L703.3,375.6 L701.0,375.2 L699.6,375.1 L697.4,375.3 L696.0,375.7 L694.5,375.8 Z" fill="#e7d6a3" stroke="none"/>
<path d="M610.1,275.9 L607.9,277.0 L606.3,279.7 L605.5,282.7 L605.7,286.2 L606.6,288.9 L607.9,291.2 L610.3,292.5 L613.6,293.6 L616.6,294.8 L620.2,295.8 L622.7,296.5 L624.9,297.1 L627.3,297.1 L629.2,296.5 L630.9,295.7 L632.2,294.7 L633.2,292.7 L633.3,291.1 L632.7,288.8 L632.1,287.2 L631.4,285.7 L630.8,284.5 L629.4,283.8 L628.3,283.7 L626.3,282.7 L624.5,281.4 L623.0,280.7 L621.9,279.6 L620.7,278.6 L618.6,277.6 L617.0,276.7 L614.4,275.5 L611.9,275.2 L610.1,275.9 Z" fill="#e7d6a3" stroke="none"/>
<path d="M697.3,221.7 L696.3,222.9 L695.3,224.5 L694.6,225.9 L694.5,227.8 L694.0,229.3 L693.6,231.6 L693.8,233.6 L694.1,235.5 L694.3,236.6 L693.8,237.7 L694.0,239.0 L695.2,240.6 L696.2,242.2 L697.2,244.1 L698.3,245.6 L699.0,246.8 L700.5,248.1 L701.2,248.5 L703.3,248.7 L704.0,248.8 L705.2,248.3 L706.5,248.3 L707.8,248.1 L709.0,247.8 L711.4,246.6 L712.4,246.3 L713.5,246.9 L714.7,247.1 L715.0,246.1 L716.1,245.9 L717.0,245.6 L718.0,244.6 L718.9,243.3 L719.5,240.5 L719.6,239.3 L718.9,238.1 L718.9,237.0 L718.8,236.1 L718.3,234.9 L717.9,233.8 L717.7,232.4 L716.9,231.6 L715.5,231.1 L714.5,230.4 L713.2,230.2 L711.5,229.8 L710.8,229.5 L709.6,228.7 L708.7,227.5 L708.3,225.2 L707.9,223.3 L707.1,221.6 L706.3,220.2 L704.2,219.7 L702.4,219.5 L701.1,219.5 L698.6,220.5 L697.3,221.7 Z" fill="#e7d6a3" stroke="none"/>
<path d="M682.6,197.2 L681.0,200.6 L680.1,203.0 L680.1,204.2 L679.6,205.7 L679.9,207.5 L680.2,208.6 L680.2,209.9 L679.9,211.6 L679.7,213.4 L679.7,215.0 L679.9,216.9 L680.8,218.4 L681.1,220.7 L681.5,222.4 L682.6,223.8 L684.1,224.7 L685.8,225.3 L686.8,225.5 L688.2,225.7 L689.9,225.0 L690.2,224.4 L691.4,223.7 L692.6,222.7 L694.3,221.1 L694.7,219.4 L695.6,217.3 L696.5,215.7 L697.1,213.9 L697.5,212.0 L697.8,208.7 L697.4,205.8 L697.4,204.4 L696.7,202.4 L695.9,201.2 L694.8,199.6 L695.0,198.5 L695.0,197.6 L693.5,196.3 L691.7,195.9 L689.9,195.5 L688.6,195.5 L687.4,195.7 L685.5,195.5 L683.8,195.7 L682.6,197.2 Z" fill="#e7d6a3" stroke="none"/>
<path d="M668.3,148.9 L666.9,149.7 L665.8,149.8 L665.1,150.6 L664.2,151.3 L662.7,152.3 L661.5,153.0 L660.5,153.7 L659.5,154.8 L659.0,156.1 L659.0,157.2 L659.6,158.6 L659.6,159.9 L659.5,161.3 L660.3,162.6 L660.3,164.1 L659.4,165.0 L659.3,166.7 L659.1,168.9 L659.7,170.9 L660.0,172.4 L660.6,173.8 L661.7,174.5 L662.4,175.0 L663.1,176.0 L664.0,176.3 L665.5,177.4 L666.4,178.7 L666.9,180.4 L667.4,181.9 L668.0,182.9 L668.5,184.1 L669.4,185.9 L670.3,187.4 L671.2,189.2 L672.5,190.0 L674.8,191.0 L676.5,191.5 L677.2,190.4 L678.6,190.1 L679.7,189.4 L680.7,188.8 L681.1,187.4 L681.4,186.0 L681.4,184.9 L681.4,183.9 L681.0,182.5 L681.0,181.7 L681.4,180.4 L681.7,179.4 L682.7,177.0 L683.2,175.3 L683.0,174.4 L683.0,172.3 L684.1,172.6 L684.6,171.1 L684.7,167.9 L684.7,165.9 L684.7,164.4 L684.0,162.3 L684.7,161.1 L684.4,158.7 L683.8,156.8 L683.3,154.5 L682.5,152.6 L681.8,151.6 L680.5,150.5 L678.4,149.1 L677.1,148.4 L675.1,147.8 L673.1,147.8 L671.6,148.1 L670.5,148.7 L668.3,148.9 Z" fill="#e7d6a3" stroke="none"/>
<path d="M696.5,156.8 L697.2,158.0 L697.1,158.7 L697.1,160.0 L698.0,161.7 L697.3,162.1 L697.5,163.8 L698.3,165.6 L699.0,167.4 L699.7,168.8 L700.6,170.7 L702.3,172.7 L703.8,174.5 L704.4,176.2 L705.6,176.5 L707.7,179.0 L708.8,180.9 L709.2,182.9 L709.5,184.9 L709.3,186.4 L708.3,188.4 L708.6,190.7 L710.1,194.5 L711.6,197.4 L714.7,198.1 L716.7,198.2 L718.1,198.1 L719.8,197.3 L721.2,196.2 L722.5,195.2 L723.0,192.9 L723.0,191.3 L722.5,190.1 L722.2,189.3 L721.4,188.3 L721.4,187.4 L721.9,186.4 L722.2,185.5 L724.0,184.6 L725.5,183.4 L726.8,183.2 L727.7,183.2 L727.5,181.2 L726.8,178.6 L726.7,177.1 L726.7,175.3 L727.2,174.1 L728.2,173.2 L725.6,170.1 L723.8,169.0 L722.6,168.4 L722.0,167.7 L719.8,165.3 L716.3,161.7 L714.4,161.1 L714.3,159.0 L710.5,156.0 L707.1,155.0 L704.0,154.3 L701.5,154.3 L699.6,153.9 L697.5,155.2 L696.5,156.8 Z" fill="#e7d6a3" stroke="none"/>
<path d="M668.2,107.0 L667.2,108.2 L666.8,109.6 L666.6,111.3 L666.3,112.9 L666.2,114.0 L666.1,115.6 L666.3,116.8 L666.3,118.0 L666.5,118.8 L666.6,120.3 L667.2,121.3 L667.0,122.5 L666.6,123.5 L666.1,124.5 L665.6,125.5 L664.7,126.6 L663.9,128.1 L663.5,129.9 L662.9,132.1 L662.6,134.1 L663.0,135.9 L663.0,137.0 L664.2,137.8 L664.9,139.0 L665.7,139.3 L666.8,139.7 L667.9,140.2 L669.0,140.3 L670.2,140.3 L671.0,140.5 L672.2,140.2 L673.1,140.3 L674.8,140.5 L675.8,140.8 L676.5,141.0 L677.2,140.2 L678.1,139.7 L679.0,139.5 L680.0,139.1 L682.0,139.6 L685.6,140.5 L687.1,141.1 L688.7,141.8 L689.9,141.9 L690.8,141.8 L691.1,140.8 L692.0,140.4 L693.0,139.6 L694.1,138.8 L695.0,138.0 L695.3,136.1 L695.7,135.6 L695.5,134.5 L695.0,133.6 L694.7,132.7 L694.4,131.5 L693.8,129.7 L693.1,127.7 L692.3,126.1 L691.7,124.5 L691.2,122.9 L691.2,120.1 L690.8,118.3 L690.4,117.7 L690.5,116.7 L690.2,114.1 L690.0,113.0 L690.1,111.3 L690.3,110.1 L690.2,107.4 L689.8,105.6 L688.9,103.1 L688.2,102.1 L686.9,101.6 L684.8,101.1 L683.6,100.5 L681.6,100.5 L679.7,100.4 L678.5,100.5 L676.9,101.2 L675.6,101.6 L674.8,102.0 L673.3,102.4 L672.4,102.8 L671.2,103.5 L670.2,104.4 L669.3,104.9 L668.5,105.6 L668.2,107.0 Z" fill="#e7d6a3" stroke="none"/>
<path d="M759.2,-38.8 L760.6,-39.9 L761.8,-40.8 L762.6,-42.1 L763.5,-43.3 L765.8,-44.3 L767.1,-44.6 L768.5,-44.6 L770.2,-44.6 L772.0,-44.4 L773.6,-43.8 L775.0,-43.3 L775.9,-42.5 L777.2,-41.6 L778.8,-40.8 L780.0,-39.4 L780.6,-38.3 L781.0,-37.0 L781.0,-35.9 L780.6,-34.8 L780.3,-33.1 L779.6,-31.5 L779.3,-30.0 L778.8,-28.5 L778.7,-27.2 L778.2,-25.7 L777.5,-24.2 L776.0,-22.3 L775.2,-21.6 L773.7,-19.9 L772.8,-19.0 L770.4,-18.5 L768.4,-17.9 L766.4,-16.9 L764.8,-16.8 L763.2,-17.4 L762.4,-18.0 L761.6,-19.3 L760.6,-20.5 L759.2,-21.5 L757.9,-22.2 L757.2,-22.9 L755.7,-23.1 L754.7,-23.9 L753.9,-25.3 L754.3,-27.2 L754.8,-28.5 L754.5,-29.7 L754.7,-30.8 L755.7,-31.1 L756.3,-31.7 L757.0,-33.1 L757.7,-33.8 L758.0,-35.3 L758.0,-36.3 L758.1,-36.9 L758.8,-37.8 L759.2,-38.8 Z" fill="#e7d6a3" stroke="none"/>
<path d="M671.6,-112.0 L675.0,-111.5 L677.4,-111.0 L679.5,-109.7 L681.3,-108.1 L683.1,-106.0 L685.6,-102.3 L687.5,-99.0 L688.1,-95.8 L688.5,-93.4 L688.4,-91.4 L688.1,-89.5 L687.1,-87.6 L686.5,-85.8 L685.9,-83.9 L685.0,-81.9 L684.2,-80.4 L683.7,-78.8 L682.8,-77.9 L681.6,-76.4 L680.6,-75.2 L680.2,-73.7 L680.4,-72.1 L680.8,-69.9 L680.1,-68.3 L679.3,-67.6 L678.9,-66.2 L678.2,-64.8 L677.8,-63.2 L677.2,-61.7 L676.1,-60.5 L673.9,-59.5 L671.6,-58.8 L669.6,-58.8 L667.8,-59.4 L665.7,-60.8 L664.5,-62.1 L662.9,-63.8 L662.1,-66.0 L661.1,-69.0 L661.6,-71.3 L662.1,-73.5 L662.2,-75.1 L662.7,-76.9 L663.2,-78.3 L664.3,-79.6 L665.2,-80.5 L666.5,-82.7 L667.6,-84.0 L668.6,-85.5 L669.2,-86.8 L669.9,-88.5 L670.2,-90.4 L670.2,-92.7 L669.6,-94.7 L669.2,-96.4 L668.7,-97.4 L667.8,-98.4 L667.0,-99.4 L666.8,-101.0 L666.0,-102.7 L665.5,-104.5 L665.0,-106.0 L665.8,-108.4 L667.0,-109.8 L668.0,-110.4 L669.2,-111.0 L671.6,-112.0 Z" fill="#e7d6a3" stroke="none"/>
<path d="M-29.5,669.7 L-28.4,668.9 L-27.1,669.1 L-26.1,668.7 L-24.7,669.0 L-23.2,669.6 L-21.0,670.7 L-20.2,671.9 L-19.7,673.1 L-19.7,674.1 L-18.8,675.4 L-18.6,676.4 L-17.4,678.0 L-15.9,678.9 L-14.8,680.5 L-13.1,681.8 L-10.8,683.8 L-9.6,685.3 L-9.7,686.4 L-10.1,687.5 L-9.2,689.1 L-7.7,691.2 L-7.5,692.2 L-8.3,693.1 L-9.4,694.0 L-11.2,694.8 L-12.8,695.8 L-14.1,696.3 L-15.5,696.2 L-17.2,695.8 L-18.8,695.0 L-19.7,693.6 L-22.9,690.2 L-24.6,688.2 L-27.2,685.9 L-30.1,683.8 L-31.3,682.4 L-32.2,681.5 L-33.8,678.3 L-34.3,675.5 L-34.2,673.1 L-33.5,672.3 L-32.2,671.5 L-31.2,670.3 L-30.8,669.5 L-29.5,669.7 Z" fill="#e7d6a3" stroke="none"/>
<path d="M16.6,729.3 L17.9,729.5 L19.4,730.4 L21.1,731.1 L22.1,731.0 L23.2,731.3 L26.0,733.7 L27.7,735.6 L29.3,737.5 L31.7,739.3 L33.8,740.7 L36.6,743.3 L39.3,746.2 L41.3,748.3 L42.3,749.9 L42.3,751.6 L41.1,753.2 L40.9,754.2 L39.9,755.2 L38.6,756.7 L37.3,757.1 L35.4,757.4 L33.0,757.3 L31.7,757.0 L29.6,755.4 L27.3,754.2 L24.9,752.8 L23.1,751.4 L20.5,747.9 L17.3,744.8 L14.5,741.4 L11.9,739.2 L11.0,738.1 L10.0,735.5 L10.3,733.3 L11.0,731.7 L12.5,730.4 L14.3,729.9 L15.3,729.5 L16.6,729.3 Z" fill="#e7d6a3" stroke="none"/>
<path d="M131.7,755.6 L129.5,755.4 L127.9,754.4 L125.8,753.4 L123.6,755.5 L121.2,757.4 L120.6,759.0 L120.2,760.4 L119.9,761.5 L120.2,762.9 L121.1,765.3 L122.1,767.6 L122.6,770.1 L124.0,772.5 L125.4,775.5 L126.0,778.2 L126.6,780.1 L127.0,781.9 L127.1,784.7 L126.8,787.5 L126.8,789.3 L127.1,791.1 L127.8,793.2 L128.6,794.5 L130.0,795.3 L134.4,797.3 L136.0,797.9 L138.3,798.2 L140.1,798.2 L141.6,797.6 L143.1,797.9 L144.7,797.0 L145.7,795.7 L147.7,794.9 L149.0,794.0 L149.9,792.7 L150.6,790.7 L150.7,788.3 L151.1,784.7 L151.6,783.4 L151.5,781.8 L150.7,779.6 L149.9,778.3 L148.7,776.6 L147.4,775.6 L147.0,774.2 L146.8,773.3 L146.0,772.3 L144.6,768.9 L144.9,767.1 L144.4,764.7 L143.9,762.7 L142.7,759.7 L141.9,758.5 L140.9,757.6 L139.4,756.1 L138.0,755.6 L136.8,755.6 L135.0,755.0 L134.0,754.8 L132.9,755.1 L131.7,755.6 Z" fill="#e7d6a3" stroke="none"/>
<path d="M148.4,830.2 L148.9,829.6 L149.8,829.5 L150.8,829.8 L151.0,830.4 L151.5,831.0 L153.8,831.7 L154.5,832.0 L155.2,831.6 L155.8,830.8 L156.3,830.6 L157.1,831.0 L158.1,832.1 L158.3,832.9 L158.7,834.3 L159.4,837.4 L159.6,839.0 L160.0,841.2 L160.3,843.5 L160.6,845.0 L159.8,848.5 L158.4,852.5 L157.5,853.9 L155.7,855.3 L153.7,856.4 L151.9,856.4 L150.3,856.5 L148.7,856.7 L143.6,855.1 L140.7,853.0 L139.7,852.0 L139.2,850.7 L139.6,849.6 L139.4,847.0 L139.5,845.9 L140.5,845.4 L141.7,843.7 L142.2,841.9 L142.3,839.9 L142.1,837.0 L142.2,834.1 L143.2,832.2 L144.1,831.0 L146.0,830.1 L146.8,830.2 L147.6,830.2 L148.4,830.2 Z" fill="#e7d6a3" stroke="none"/>
<path d="M576.3,829.5 L577.7,828.6 L578.9,827.3 L580.1,826.9 L581.2,826.6 L583.0,827.0 L583.6,827.7 L584.0,828.5 L584.7,829.6 L585.8,830.2 L586.3,830.4 L587.0,831.2 L587.9,831.7 L588.5,832.3 L588.9,833.4 L589.2,834.4 L588.9,835.5 L588.5,836.3 L588.0,836.8 L587.4,837.7 L586.3,838.3 L585.6,839.3 L584.6,839.7 L583.3,840.5 L582.5,841.1 L582.2,842.1 L581.4,843.0 L579.9,843.3 L578.8,843.3 L577.6,842.9 L576.9,842.3 L575.6,841.6 L575.0,841.5 L574.4,840.9 L574.5,840.1 L574.1,839.4 L573.6,838.6 L573.5,837.7 L573.2,836.8 L573.0,835.8 L573.6,833.5 L573.8,832.8 L573.8,832.2 L574.4,830.9 L575.2,830.4 L575.6,830.1 L576.3,829.5 Z" fill="#e7d6a3" stroke="none"/>
<path d="M600.1,831.7 L601.5,831.4 L602.7,831.1 L605.0,831.5 L605.9,832.3 L606.5,833.2 L606.8,834.1 L606.1,834.7 L605.9,835.4 L604.6,835.7 L603.4,836.4 L601.3,837.5 L600.2,838.2 L599.6,839.2 L598.6,839.4 L597.9,839.5 L596.9,839.3 L596.6,838.8 L595.9,838.3 L595.5,837.8 L595.2,837.0 L595.0,836.4 L595.0,835.7 L595.3,834.9 L595.6,834.1 L596.2,833.2 L596.8,832.7 L597.9,832.3 L598.9,831.9 L599.2,831.6 L600.1,831.7 Z" fill="#e7d6a3" stroke="none"/>
<path d="M594.2,813.3 L595.6,813.2 L597.0,813.4 L598.1,813.6 L598.6,814.0 L599.8,814.4 L600.3,815.2 L602.4,816.8 L602.9,818.0 L604.4,819.7 L604.9,821.9 L604.9,823.5 L604.8,824.6 L603.7,825.3 L602.5,826.3 L602.0,826.9 L600.6,827.4 L597.9,828.1 L596.5,828.5 L595.5,828.7 L594.9,829.4 L593.6,829.1 L592.7,828.4 L591.9,828.0 L591.5,827.0 L591.1,825.8 L591.0,825.0 L590.5,824.1 L590.0,823.5 L589.1,822.4 L588.6,821.5 L588.3,820.8 L587.5,819.6 L588.0,817.7 L588.7,816.6 L588.9,815.8 L590.1,815.1 L591.6,813.9 L592.3,813.7 L593.4,813.4 L594.2,813.3 Z" fill="#e7d6a3" stroke="none"/>
<path d="M616.5,816.1 L617.8,816.2 L618.7,816.2 L619.7,817.1 L620.0,818.0 L620.7,818.8 L621.7,820.0 L622.4,820.2 L623.1,820.9 L623.8,821.6 L624.2,822.8 L624.2,824.0 L623.6,825.0 L623.0,825.6 L623.1,826.5 L622.3,826.8 L620.9,827.3 L619.3,828.0 L618.0,828.5 L616.7,828.5 L615.7,828.4 L615.1,828.2 L614.4,827.7 L614.4,827.0 L613.9,826.2 L613.7,824.8 L613.3,824.1 L612.8,823.3 L612.3,822.0 L612.2,820.9 L612.2,820.2 L612.6,819.3 L613.3,818.2 L613.6,817.5 L613.9,817.0 L614.9,816.3 L615.5,816.1 L616.5,816.1 Z" fill="#e7d6a3" stroke="none"/>
<path d="M575.0,758.7 L574.2,760.7 L573.7,761.9 L573.3,762.9 L573.1,763.7 L573.0,764.4 L572.5,765.0 L571.7,767.0 L571.7,767.9 L571.6,769.4 L571.5,770.6 L571.5,771.7 L571.3,773.6 L571.3,774.5 L571.6,775.0 L572.5,775.6 L574.0,776.3 L575.4,777.0 L577.0,777.4 L578.1,777.2 L578.9,776.3 L580.7,775.3 L581.9,774.5 L585.0,771.9 L585.9,771.1 L586.0,770.3 L587.2,769.6 L587.7,769.2 L588.5,768.9 L589.0,768.1 L589.2,767.5 L589.4,766.9 L589.5,765.7 L589.4,763.9 L588.2,761.6 L587.9,761.2 L585.9,760.3 L585.3,759.8 L584.2,758.9 L583.3,758.8 L582.6,758.8 L581.1,758.5 L579.1,757.6 L578.6,757.4 L577.1,757.4 L576.2,757.4 L575.6,757.7 L575.0,758.7 Z" fill="#e7d6a3" stroke="none"/>
<path d="M565.8,756.2 L566.7,756.8 L567.1,757.6 L568.0,757.9 L568.4,758.6 L568.6,759.4 L569.0,760.2 L569.0,760.9 L568.5,761.9 L568.2,763.2 L568.0,764.3 L567.8,765.2 L567.5,765.7 L566.9,765.9 L566.6,767.2 L565.9,768.4 L566.0,769.5 L565.5,770.0 L565.5,770.9 L564.9,771.7 L563.7,772.5 L562.6,772.9 L560.4,772.4 L558.7,772.3 L557.4,771.9 L556.5,771.3 L555.4,770.1 L554.6,768.2 L553.9,766.6 L553.4,764.5 L553.2,762.4 L553.3,760.5 L553.9,758.3 L555.1,756.5 L556.1,755.4 L558.7,754.2 L561.4,754.0 L562.0,754.0 L563.1,754.2 L564.7,755.1 L565.7,755.0 L566.2,755.5 L565.8,756.2 Z" fill="#e7d6a3" stroke="none"/>
<path d="M353.8,450.9 L351.5,446.3 L349.2,443.3 L347.8,441.8 L346.6,441.4 L343.4,443.5 L341.0,448.4 L338.2,450.7 L335.0,453.3 L333.1,455.8 L331.9,459.4 L332.7,463.0 L333.0,466.6 L335.2,468.1 L337.7,469.2 L343.3,469.4 L345.4,469.5 L347.9,466.8 L350.0,464.9 L352.1,463.6 L352.6,460.0 L353.1,457.6 L354.4,455.3 L353.8,450.9 Z" fill="#e7d6a3" stroke="none"/>
<path d="M419.8,531.7 L422.5,527.0 L426.5,523.8 L429.6,521.0 L431.6,518.6 L432.3,516.2 L431.5,513.2 L430.3,511.1 L429.1,508.8 L427.7,507.0 L424.9,506.0 L419.9,507.1 L415.4,508.2 L412.8,509.1 L411.3,511.7 L409.3,513.1 L407.3,513.7 L405.5,514.7 L402.4,514.0 L399.8,513.1 L396.7,511.7 L393.9,512.4 L391.1,514.6 L388.3,516.6 L387.0,519.1 L386.8,522.3 L387.4,524.7 L389.3,527.3 L394.7,530.8 L400.2,534.9 L403.0,536.2 L405.1,536.9 L407.2,536.2 L414.0,533.8 L416.7,532.5 L419.8,531.7 Z" fill="#e7d6a3" stroke="none"/>
<path d="M227.3,442.8 L232.2,437.0 L244.6,446.7 L239.3,452.5 L227.3,442.8 Z" fill="#4f8a3e" stroke="none"/>
<path d="M84.3,88.0 L91.9,101.2 L101.5,95.7 L93.4,82.4 L84.3,88.0 Z" fill="#4f8a3e" stroke="none"/>
<path d="M114.7,237.9 L106.5,250.8 L115.0,256.7 L123.2,242.5 L114.7,237.9 Z" fill="#4f8a3e" stroke="none"/>
<path d="M186.4,189.7 L202.1,159.4 L214.9,166.9 L199.4,197.1 L186.4,189.7 Z" fill="#4f8a3e" stroke="none"/>
<path d="M527.7,341.3 L523.4,350.1 L543.5,359.8 L548.0,350.8 L527.7,341.3 Z" fill="#4f8a3e" stroke="none"/>
<path d="M521.3,313.9 L518.5,322.4 L531.4,327.0 L534.7,318.8 L521.3,313.9 Z" fill="#4f8a3e" stroke="none"/>
<path d="M531.4,405.5 L539.5,393.3 L570.7,416.3 L562.3,428.2 L531.4,405.5 Z" fill="#4f8a3e" stroke="none"/>
<path d="M222.1,-52.3 L230.3,-62.3 L237.2,-56.5 L229.0,-46.6 L222.1,-52.3 Z" fill="#4f8a3e" stroke="none"/>
<path d="M717.8,818.9 L721.7,809.6 L734.4,815.1 L730.5,824.8 L717.8,818.9 Z" fill="#4f8a3e" stroke="none"/>
<path d="M726.4,798.6 L733.4,782.7 L746.1,788.2 L738.9,804.0 L726.4,798.6 Z" fill="#4f8a3e" stroke="none"/>
<path d="M744.1,761.1 L739.2,772.3 L751.7,777.8 L756.7,766.5 L744.1,761.1 Z" fill="#4f8a3e" stroke="none"/>
<path d="M762.7,620.8 L757.0,630.8 L764.9,635.2 L770.8,625.1 L762.7,620.8 Z" fill="#4f8a3e" stroke="none"/>
<path d="M-87.8,540.1 L-94.1,548.2 L-65.1,570.5 L-58.4,562.0 L-87.8,540.1 Z" fill="#4f8a3e" stroke="none"/>
<path d="M-25.3,587.0 L-31.7,594.3 L-8.9,611.7 L-2.1,603.6 L-25.3,587.0 Z" fill="#4f8a3e" stroke="none"/>
<path d="M79.8,679.0 L75.7,685.4 L85.7,691.6 L89.9,685.3 L79.8,679.0 Z" fill="#4f8a3e" stroke="none"/>
<path d="M141.0,-8.7 L136.0,3.3 L138.0,15.8 L142.9,26.8 L152.2,33.9 L159.5,37.0 L169.7,36.8 L179.0,30.8 L187.8,21.0 L192.9,8.7 L192.9,-0.8 L187.6,-8.8 L173.3,-18.1 L165.8,-21.9 L152.6,-21.1 L146.2,-17.8 L141.0,-8.7 Z" fill="#2f7825" stroke="none"/>
<path d="M-56.8,425.0 L-63.5,427.8 L-66.6,429.5 L-68.3,432.0 L-69.5,438.5 L-72.3,447.3 L-76.9,456.3 L-82.0,458.6 L-86.0,459.6 L-87.9,462.7 L-84.1,471.6 L-77.7,478.5 L-66.1,482.7 L-55.3,483.4 L-43.1,480.5 L-35.8,475.5 L-28.3,466.2 L-23.1,457.1 L-20.6,446.2 L-21.4,442.0 L-25.6,439.5 L-28.4,435.7 L-28.4,430.2 L-26.0,424.0 L-25.3,420.9 L-28.4,418.6 L-35.1,416.3 L-40.8,415.8 L-44.6,415.8 L-47.6,419.5 L-49.4,422.7 L-52.8,424.2 L-56.8,425.0 Z" fill="#2f7825" stroke="none"/>
<path d="M582.6,868.0 L584.1,875.5 L590.2,884.2 L602.0,890.5 L611.8,893.9 L623.7,894.2 L634.6,891.6 L642.9,885.6 L646.5,880.5 L645.9,871.7 L639.7,852.3 L633.2,840.0 L624.8,835.7 L614.5,837.0 L603.5,842.3 L592.2,849.2 L586.2,853.7 L582.8,860.6 L582.6,868.0 Z" fill="#2f7825" stroke="none"/>
<path d="M650.0,438.4 L646.8,438.8 L643.7,440.6 L637.6,445.2 L632.9,448.8 L628.3,452.5 L626.1,457.0 L625.4,459.6 L624.8,462.3 L624.0,468.9 L622.8,472.5 L622.0,474.9 L619.2,479.6 L618.4,481.1 L616.1,487.0 L616.5,490.8 L617.7,494.1 L625.5,499.8 L632.7,503.0 L641.6,503.7 L651.9,500.4 L659.6,496.5 L663.2,493.1 L664.5,489.9 L664.3,487.1 L662.6,484.7 L661.3,481.7 L661.4,478.0 L661.5,473.1 L663.4,465.4 L665.9,456.4 L667.9,451.1 L669.1,446.4 L667.9,443.4 L664.2,440.8 L659.4,439.0 L654.1,438.0 L650.0,438.4 Z" fill="#2f7825" stroke="none"/>
<path d="M253.7,221.6 L250.5,228.8 L248.8,237.8 L251.2,251.7 L257.9,261.8 L262.3,265.1 L268.4,266.3 L272.5,265.9 L276.2,261.9 L281.1,256.4 L288.0,254.5 L301.1,254.8 L315.9,253.6 L327.2,250.5 L330.0,248.8 L332.7,245.4 L334.0,235.9 L333.3,230.0 L331.1,227.3 L328.6,227.0 L323.7,228.5 L314.1,229.0 L292.7,222.7 L287.4,221.7 L278.1,219.9 L272.3,216.9 L268.7,214.2 L264.4,213.1 L258.4,216.5 L253.7,221.6 Z" fill="#2f7825" stroke="none"/>
<path d="M664.3,685.2 L660.2,683.7 L656.7,683.7 L653.2,686.8 L652.1,691.6 L652.8,707.3 L656.4,723.1 L660.4,730.1 L663.9,732.9 L668.5,732.7 L674.0,730.0 L680.2,729.7 L686.8,730.7 L691.5,732.6 L694.7,734.8 L697.4,735.8 L700.2,735.8 L704.3,734.3 L707.3,729.3 L709.9,722.8 L716.3,717.1 L721.6,714.5 L723.8,711.4 L724.3,704.0 L718.6,685.6 L714.9,678.1 L707.5,673.2 L701.9,672.5 L696.5,677.0 L692.6,682.1 L686.0,686.0 L678.4,687.5 L671.0,687.3 L664.3,685.2 Z" fill="#2f7825" stroke="none"/>
<path d="M91.1,91.1 L303.4,412.4 L342.4,475.3 L422.2,598.8 L626.0,684.2 L688.9,708.9" fill="none" stroke="#ffd64a" stroke-width="3.5" stroke-linecap="round" stroke-linejoin="round" opacity="0.95"/>
</svg>