<svg xmlns="http://www.w3.org/2000/svg" viewBox="0 0 454 800" preserveAspectRatio="xMidYMid meet">
<rect width="100%" height="100%" fill="#143018"/>
<path d="M1381.6,1775.5 L1393.1,1801.7 L1419.1,1856.4 L1427.0,1873.1 L1430.5,1880.7 L1456.1,1935.2 L1472.6,1969.9 L1491.0,2008.7 L1445.2,2058.2 L1273.2,1841.2 L1257.7,1828.2 L1235.0,1816.7 L1204.4,1812.8 L1172.1,1816.9 L1143.1,1827.2 L1124.7,1839.0 L1123.6,1842.5 L1118.7,1854.4 L1118.8,1869.4 L1204.8,1992.1 L1241.7,2036.6 L1319.9,2098.8 L1330.2,2145.4 L1320.5,2146.4 L1301.5,2137.8 L1264.9,2120.5 L1221.5,2093.6 L1212.4,2086.5 L1213.6,2081.2 L1199.8,2071.0 L1191.0,2071.2 L1180.6,2064.7 L1160.4,2046.9 L1142.8,2026.0 L1127.9,2005.8 L1114.2,1980.1 L1074.1,1907.8 L1055.8,1908.4 L968.2,1911.0 L916.4,1940.9 L821.9,1996.2 L760.4,2028.0 L741.0,2042.9 L700.0,2080.0 L556.0,1982.5 L488.8,2043.1 L442.9,2084.6 L411.4,2108.3 L375.9,2131.4 L316.5,2171.9 L286.1,2195.5 L300.4,2374.8 L449.1,2564.1 L410.7,2595.7 L392.0,2610.0 L378.8,2618.7 L366.3,2623.0 L354.0,2624.9 L346.7,2625.2 L337.3,2623.2 L325.2,2618.6 L309.2,2610.0 L290.4,2597.0 L255.8,2570.5 L223.4,2543.1 L183.0,2509.3 L147.1,2474.2 L106.9,2431.2 L78.6,2399.4 L51.9,2369.7 L22.3,2339.6 L-4.0,2316.6 L11.8,2301.9 L21.9,2296.6 L33.2,2292.5 L46.9,2290.2 L57.4,2062.0 L183.3,2049.3 L297.9,2018.9 L419.9,1928.0 L506.1,1700.8 L524.7,1602.6 L518.7,1508.3 L369.2,1393.7 L223.0,1274.1 L53.9,1225.8 L7.3,1171.8 L-10.1,1127.4 L-2.1,1109.1 L15.3,1095.8 L37.3,1090.2 L52.1,1089.6 L68.5,1092.5 L82.0,1103.4 L92.8,1112.3 L114.2,1117.4 L157.0,1116.9 L211.0,1108.2 L241.2,1097.7 L266.8,1082.3 L274.7,1068.4 L278.7,1046.7 L275.5,1010.5 L274.2,985.7 L276.8,971.8 L283.9,957.5 L297.6,939.5 L347.7,873.5 L360.9,876.7 L379.5,876.5 L394.6,866.4 L399.0,857.1 L407.4,844.5 L420.9,861.6 L465.0,919.1 L554.0,1019.9 L565.6,1029.5 L579.6,1038.0 L607.6,1050.2 L672.3,1135.2 L752.0,1200.6 L832.4,1139.1 L862.6,1116.9 L891.1,1097.5 L918.6,1080.7 L936.7,1071.1 L961.0,1061.2 L982.5,1054.6 L999.9,1051.7 L1027.0,1050.1 L1067.5,1052.0 L1090.0,1057.4 L1113.6,1064.6 L1174.1,1094.6 L1209.9,1112.3 L1318.4,1169.5 L1303.8,1198.5 L1294.3,1222.3 L1287.2,1242.9 L1282.7,1257.5 L1279.2,1276.3 L1276.2,1307.5 L1275.8,1319.7 L1275.7,1329.3 L1275.5,1339.3 L1276.9,1390.0 L1279.5,1440.1 L1281.6,1483.3 L1283.1,1511.0 L1285.2,1544.1 L1286.9,1560.7 L1290.6,1575.2 L1295.8,1589.9 L1302.8,1606.7 L1311.9,1626.7 L1330.1,1666.9 L1362.1,1733.8 L1381.6,1775.5 Z" fill="#0f2810" stroke="none"/>
<path d="M124.8,129.9 L139.0,133.5 L155.7,139.2 L169.5,146.1 L182.8,153.8 L200.6,166.4 L211.5,174.4 L224.5,186.7 L232.8,195.7 L243.9,212.2 L260.2,231.5 L281.9,258.0 L296.3,278.0 L312.6,300.5 L327.6,329.6 L335.5,348.9 L339.2,364.6 L343.4,401.9 L346.8,429.6 L350.0,465.4 L351.1,507.7 L351.7,543.0 L353.8,566.2 L358.1,577.4 L359.0,588.5 L361.2,600.2 L362.6,606.5 L360.1,622.9 L356.8,646.3 L353.9,659.4 L356.6,673.4 L357.2,688.1 L356.4,716.9 L355.1,737.9 L360.4,764.8 L366.8,788.8 L377.4,813.1 L383.1,826.9 L386.4,832.8 L393.4,833.4 L398.5,829.5 L402.5,822.8 L409.7,814.6 L414.6,812.4 L422.5,812.6 L420.4,797.4 L416.8,774.1 L414.8,765.5 L404.3,762.9 L399.4,761.0 L394.2,756.8 L388.8,749.9 L389.6,740.8 L388.6,730.2 L386.8,718.1 L386.6,705.6 L386.3,697.4 L389.6,681.1 L393.4,663.9 L394.0,654.6 L391.3,648.5 L388.3,641.9 L389.5,629.4 L390.6,618.4 L391.2,605.5 L393.9,594.6 L396.5,581.0 L400.9,569.3 L402.5,552.3 L402.8,549.0 L415.7,514.8 L430.2,474.2 L435.8,456.5 L443.1,430.2 L452.3,398.5 L453.5,389.5 L451.4,379.5 L448.3,369.4 L447.9,353.4 L448.1,343.1 L445.5,335.6 L425.7,306.5 L418.8,296.0 L417.1,288.2 L415.4,281.6 L409.4,273.6 L406.0,269.1 L403.2,264.3 L395.8,257.5 L388.8,250.8 L379.6,234.1 L374.5,221.9 L363.7,207.8 L351.5,196.4 L328.0,180.4 L324.5,177.0 L314.4,158.7 L306.8,143.3 L298.3,121.7 L293.4,115.9 L262.6,94.8 L258.4,91.7 L255.5,88.1 L247.4,75.7 L238.9,67.4 L233.2,64.2 L222.2,60.6 L213.2,60.2 L207.5,60.3 L203.8,65.7 L197.1,66.7 L189.9,62.7 L177.5,50.5 L167.6,41.4 L155.7,36.5 L135.9,28.9 L130.4,27.1 L115.6,23.6 L95.2,18.6 L79.6,17.8 L58.1,18.6 L44.5,21.7 L36.3,28.4 L29.0,38.8 L25.4,49.9 L24.0,63.6 L25.0,83.4 L29.0,96.1 L34.9,111.7 L37.8,119.1 L41.5,128.0 L43.1,130.5 L46.7,132.9 L57.9,131.3 L83.0,126.5 L100.2,125.2 L115.6,127.2 L124.8,129.9 Z" fill="#2b5a2a" stroke="none"/>
<path d="M-37.0,58.0 L-33.9,63.3 L-32.0,70.7 L-32.7,81.8 L-34.8,87.4 L-38.2,88.1 L-38.9,93.4 L-35.6,94.6 L-28.7,94.8 L-24.4,96.0 L-20.5,99.6 L-18.3,103.3 L-11.6,117.6 L-5.0,124.5 L2.4,130.5 L9.0,134.8 L15.5,141.8 L20.4,147.9 L26.7,151.2 L32.7,150.4 L36.4,146.8 L37.0,141.2 L33.3,134.3 L27.4,126.8 L16.2,113.3 L9.8,101.4 L4.7,87.4 L5.0,76.8 L7.5,64.2 L8.2,54.5 L5.8,44.2 L1.7,37.3 L-3.8,28.2 L-7.2,24.1 L-15.1,13.4 L-26.6,35.5 L-37.0,58.0 Z" fill="#2b5a2a" stroke="none"/>
<path d="M-57.5,-22.7 L-55.5,-25.4 L-51.4,-25.7 L-46.8,-23.8 L-32.6,6.5 L-28.6,9.8 L-23.5,8.1 L-18.9,8.5 L-16.5,9.6 L-34.3,42.8 L-37.9,36.7 L-40.0,30.2 L-39.9,23.6 L-42.7,12.6 L-48.5,-2.0 L-57.6,-19.9 L-57.5,-22.7 Z" fill="#2b5a2a" stroke="none"/>
<path d="M78.9,257.2 L87.1,255.9 L90.7,258.6 L93.0,264.2 L91.7,270.8 L87.7,278.9 L77.2,288.4 L67.5,294.1 L56.8,297.6 L53.9,292.5 L53.5,282.7 L58.3,268.9 L68.6,259.5 L78.9,257.2 Z" fill="#2b5a2a" stroke="none"/>
<path d="M8.9,360.9 L12.1,357.2 L19.7,354.6 L27.9,356.2 L34.0,360.7 L35.9,368.3 L32.9,375.7 L27.1,382.4 L22.5,387.7 L14.5,387.1 L8.8,381.9 L6.0,375.2 L5.0,366.8 L8.9,360.9 Z" fill="#2b5a2a" stroke="none"/>
<path d="M-224.9,530.0 L-218.2,529.0 L-188.1,521.6 L-170.7,512.9 L-156.8,499.8 L-151.2,486.2 L-144.2,470.1 L-138.5,459.4 L-127.3,451.8 L-113.8,446.1 L-105.4,438.4 L-99.6,429.0 L-93.5,419.1 L-81.4,410.5 L-64.2,406.7 L-52.7,402.6 L-42.3,394.6 L-15.1,412.8 L-2.6,421.6 L8.6,433.0 L13.9,443.7 L10.3,456.8 L-1.4,470.6 L-13.1,486.5 L-26.2,502.0 L-35.9,507.5 L-42.6,511.6 L-52.4,519.5 L-61.4,522.7 L-73.5,524.9 L-89.3,531.0 L-108.7,535.6 L-125.9,536.5 L-143.9,542.4 L-163.5,547.4 L-180.2,558.5 L-196.0,569.6 L-207.7,579.5 L-218.3,586.6 L-225.1,593.7 L-230.9,600.3 L-232.0,607.3 L-228.1,616.9 L-225.0,621.3 L-223.7,625.3 L-224.1,627.5 L-226.7,630.7 L-231.7,633.7 L-237.4,635.2 L-245.0,636.4 L-249.8,637.9 L-253.4,640.5 L-260.6,645.4 L-266.3,646.5 L-269.0,643.9 L-270.2,640.1 L-267.9,635.3 L-262.9,630.0 L-257.5,624.6 L-255.4,621.1 L-257.7,614.4 L-261.3,610.2 L-263.2,611.5 L-269.0,619.0 L-272.9,623.4 L-278.6,628.4 L-283.0,630.3 L-287.7,629.8 L-290.4,626.7 L-290.2,622.5 L-287.0,617.0 L-278.8,607.5 L-270.2,597.6 L-268.5,596.2 L-266.0,594.0 L-268.0,591.3 L-271.7,588.9 L-274.1,587.6 L-276.2,579.1 L-280.6,567.0 L-279.5,556.9 L-273.1,547.7 L-261.3,541.2 L-247.8,535.5 L-235.0,531.8 L-224.9,530.0 Z" fill="#2b5a2a" stroke="none"/>
<path d="M-9.7,-134.2 L-10.0,-130.4 L-9.2,-126.4 L-4.8,-121.8 L-0.4,-117.7 L3.1,-111.4 L-5.8,-108.3 L-9.7,-100.5 L-12.3,-95.6 L-17.7,-91.2 L-28.3,-86.2 L-37.6,-84.5 L-50.0,-91.4 L-56.4,-95.3 L-61.2,-97.6 L-68.4,-97.5 L-76.8,-98.1 L-85.4,-103.3 L-88.1,-107.9 L-87.9,-117.8 L-86.1,-126.4 L-84.1,-134.0 L-79.6,-139.9 L-71.6,-146.4 L-64.9,-149.6 L-54.7,-153.3 L-50.6,-154.8 L-48.8,-155.6 L-44.9,-157.7 L-41.6,-160.5 L-36.7,-165.1 L-34.1,-168.6 L-33.8,-171.6 L-35.1,-174.6 L-38.3,-177.4 L-40.3,-180.3 L-39.6,-183.0 L-36.1,-186.5 L-32.0,-187.0 L-27.8,-185.4 L-23.0,-181.9 L-18.1,-179.9 L-9.8,-175.9 L-0.9,-172.0 L7.7,-166.8 L18.5,-159.4 L25.6,-154.8 L28.6,-151.8 L29.9,-149.0 L37.0,-145.6 L44.1,-144.9 L50.3,-144.1 L58.1,-141.2 L69.5,-135.6 L77.0,-132.0 L84.3,-128.8 L136.2,-104.9 L159.9,-92.5 L174.0,-88.2 L186.0,-83.4 L196.8,-76.7 L206.1,-70.9 L221.9,-64.0 L233.1,-63.0 L247.7,-64.0 L258.3,-64.9 L278.8,-61.6 L303.5,-52.5 L321.2,-44.6 L328.8,-36.0 L339.9,-28.8 L355.6,-22.1 L368.1,-14.2 L379.0,-2.2 L382.7,5.5 L386.6,14.1 L384.6,27.7 L386.2,41.7 L391.2,51.8 L406.8,73.1 L415.4,85.2 L426.9,96.9 L429.9,104.9 L433.2,115.6 L440.6,121.1 L450.0,123.4 L458.3,125.7 L463.6,132.1 L464.9,142.8 L466.4,154.9 L467.4,162.7 L469.6,168.1 L476.3,177.6 L479.0,183.3 L480.8,189.5 L483.3,197.8 L483.6,200.9 L469.6,213.4 L454.1,227.8 L440.4,241.6 L435.9,242.6 L427.9,238.8 L405.4,224.2 L394.9,215.8 L380.0,200.0 L362.7,177.8 L350.7,156.5 L336.8,132.4 L328.3,118.8 L310.3,96.6 L294.1,77.6 L273.1,58.4 L267.3,54.1 L262.6,51.6 L253.1,48.3 L249.4,45.5 L240.6,36.2 L234.0,32.0 L227.2,29.5 L216.3,27.9 L209.6,23.7 L202.8,16.4 L191.7,0.2 L187.8,-5.3 L182.4,-11.0 L184.0,-16.3 L184.6,-22.1 L182.1,-26.6 L178.9,-29.5 L171.2,-32.2 L164.8,-34.1 L157.5,-39.1 L153.2,-44.9 L149.1,-49.8 L142.8,-51.8 L133.2,-54.7 L128.1,-58.2 L123.7,-63.2 L120.4,-68.1 L114.8,-70.8 L107.3,-72.6 L98.4,-74.9 L95.1,-82.4 L88.4,-88.8 L80.0,-94.1 L71.4,-97.9 L66.2,-100.3 L56.9,-104.3 L48.9,-108.2 L36.0,-117.6 L28.9,-124.8 L18.6,-134.6 L10.8,-139.9 L6.5,-142.0 L-1.1,-142.2 L-6.0,-139.6 L-9.7,-134.2 Z" fill="#2b5a2a" stroke="none"/>
<path d="M502.6,185.2 L484.6,203.2 L466.8,219.5 L457.8,227.8 L461.4,232.7 L466.8,240.3 L467.6,249.6 L467.1,253.4 L481.6,255.6 L490.1,255.3 L518.6,223.4 L527.4,211.6 L536.2,198.0 L518.6,187.9 L511.3,183.0 L505.6,183.0 L502.6,185.2 Z" fill="#2b5a2a" stroke="none"/>
<path d="M661.7,616.6 L667.4,602.5 L669.5,595.4 L683.1,585.0 L690.1,576.4 L696.3,557.5 L699.6,546.2 L706.8,537.3 L716.2,530.1 L722.5,518.0 L729.8,515.5 L736.0,511.4 L744.3,501.1 L748.7,490.8 L751.3,480.4 L750.5,473.5 L750.5,469.3 L756.0,457.3 L758.6,449.0 L764.9,443.9 L769.7,437.5 L773.2,429.0 L773.4,421.9 L771.1,410.1 L780.5,397.2 L788.2,382.8 L791.9,373.1 L794.8,362.9 L793.9,350.3 L798.0,325.5 L804.9,321.2 L807.7,320.2 L813.5,320.4 L817.0,318.3 L818.3,293.3 L830.0,292.5 L840.8,294.9 L846.5,299.0 L849.8,302.9 L843.2,319.0 L828.6,362.0 L817.7,407.2 L811.7,417.1 L807.7,426.6 L802.6,448.4 L797.9,465.0 L791.6,501.0 L786.7,513.7 L787.1,522.4 L789.2,529.8 L789.7,557.8 L789.6,574.6 L784.8,588.9 L779.3,607.7 L775.5,620.5 L768.7,629.0 L763.4,633.2 L761.6,636.8 L762.7,643.5 L761.1,655.9 L756.1,671.2 L752.2,685.6 L745.8,697.8 L736.1,708.8 L723.2,716.4 L713.6,724.1 L708.1,732.0 L701.5,748.9 L694.1,757.7 L685.5,768.4 L667.7,787.3 L658.1,796.0 L652.0,802.3 L645.1,811.3 L640.1,814.9 L630.8,821.3 L626.6,826.3 L623.0,834.2 L622.1,841.1 L617.5,847.5 L613.4,849.8 L609.2,850.9 L602.3,853.2 L599.1,857.1 L598.0,861.2 L591.3,868.5 L583.6,876.7 L570.2,888.7 L562.2,893.1 L551.6,896.7 L528.0,878.9 L511.7,864.7 L500.5,847.3 L499.3,841.0 L500.8,834.4 L509.7,825.4 L521.5,815.6 L529.3,809.0 L533.3,805.6 L549.5,785.4 L551.4,782.0 L561.4,764.9 L584.7,735.7 L607.1,710.0 L614.8,700.7 L619.6,685.1 L625.5,677.1 L646.7,656.1 L650.1,647.8 L651.0,636.1 L653.7,629.4 L661.7,616.6 Z" fill="#2b5a2a" stroke="none"/>
<path d="M363.0,731.7 L386.0,329.3 L234.6,128.9 L68.3,68.3" fill="none" stroke="#4e8b39" stroke-width="53.1" stroke-linecap="round" stroke-linejoin="round" opacity="0.85"/>
<path d="M207.0,134.8 L189.9,118.7 L179.1,107.0 L172.2,98.1 L169.9,93.1 L169.4,89.5 L169.5,85.5 L170.9,81.1 L172.5,78.3 L174.8,75.9 L177.8,74.4 L181.8,73.2 L185.6,73.1 L189.8,74.2 L194.5,76.2 L203.5,81.3 L213.6,88.0 L239.1,105.3 L258.5,119.8 L269.6,132.2 L304.7,185.8 L345.4,229.1 L378.1,271.3 L391.0,288.7 L398.6,302.5 L404.8,316.0 L410.1,328.7 L417.0,349.4 L419.0,366.0 L419.1,380.1 L419.3,392.1 L416.4,416.0 L413.6,435.7 L407.9,464.9 L404.1,482.5 L401.4,493.1 L399.4,495.2 L397.6,497.5 L395.3,499.3 L392.9,500.8 L389.6,501.5 L386.7,501.5 L383.4,501.1 L380.7,500.2 L378.0,498.9 L375.7,496.8 L373.8,494.8 L372.3,492.0 L371.9,489.1 L371.9,485.5 L372.6,480.8 L374.0,473.6 L377.1,452.6 L379.4,438.5 L379.2,427.2 L378.0,414.4 L374.4,397.6 L363.8,360.8 L357.3,341.0 L350.8,322.9 L343.5,307.2 L336.2,293.0 L328.4,279.4 L321.1,269.6 L311.5,255.0 L300.8,235.1 L291.7,217.6 L284.7,204.0 L279.4,196.0 L273.9,189.1 L261.7,177.5 L245.4,164.2 L227.8,150.8 L217.1,143.4 L207.0,134.8 Z" fill="#5a9540" stroke="none"/>
<path d="M-66.5,425.7 L-72.2,430.4 L-77.3,437.8 L-83.8,447.3 L-89.2,458.1 L-93.3,468.6 L-98.3,484.9 L-101.9,492.9 L-105.8,497.8 L-110.4,501.6 L-115.4,503.7 L-121.1,504.5 L-130.2,503.8 L-138.7,503.3 L-144.0,504.4 L-147.1,506.6 L-149.2,509.9 L-150.1,512.9 L-150.6,515.9 L-150.3,519.5 L-148.7,522.7 L-146.0,524.8 L-142.2,526.2 L-136.9,526.5 L-124.1,524.8 L-110.4,521.8 L-96.7,516.2 L-71.8,504.2 L-49.9,493.1 L-33.4,482.5 L-23.5,474.4 L-18.0,467.2 L-14.0,458.9 L-13.6,451.9 L-14.7,442.6 L-17.8,435.5 L-24.3,428.5 L-30.4,425.0 L-37.7,422.6 L-45.8,421.4 L-53.8,421.5 L-60.5,423.0 L-66.5,425.7 Z" fill="#5a9540" stroke="none"/>
<path d="M432.9,168.7 L430.6,168.0 L427.3,168.9 L425.9,169.9 L424.9,172.5 L423.8,170.2 L420.7,166.1 L418.3,162.2 L415.6,158.9 L412.7,155.8 L408.6,152.5 L402.7,149.0 L394.6,145.4 L388.7,142.1 L382.5,137.4 L376.2,130.3 L369.6,119.5 L363.9,111.3 L357.8,104.3 L353.2,100.4 L348.1,97.2 L339.7,92.2 L331.9,87.2 L321.7,77.3 L309.6,63.4 L306.1,58.5 L303.7,53.7 L301.6,46.7 L299.9,38.0 L298.3,31.5 L296.5,26.6 L293.9,22.4 L291.4,19.3 L288.9,17.7 L284.8,15.9 L280.0,15.2 L274.2,15.4 L267.0,15.9 L262.4,16.0 L257.3,15.0 L252.7,13.5 L248.6,11.3 L244.8,8.5 L240.9,4.8 L236.1,-1.1 L232.0,-6.6 L227.3,-11.7 L221.6,-17.0 L214.9,-21.6 L200.7,-31.0 L193.3,-36.9 L190.1,-41.1 L188.8,-44.4 L188.5,-48.1 L189.1,-52.3 L191.1,-56.3 L193.1,-58.9 L196.3,-61.5 L200.1,-63.0 L204.9,-63.5 L209.8,-63.5 L218.4,-60.8 L274.2,-38.0 L302.5,-26.4 L311.9,-22.3 L319.5,-19.1 L327.1,-14.3 L332.3,-8.4 L337.7,3.8 L343.8,17.0 L351.3,30.7 L359.5,41.1 L368.9,52.4 L381.9,71.4 L396.7,93.8 L412.1,120.0 L427.2,146.9 L431.0,155.8 L432.1,165.9 L432.9,168.7 Z" fill="#5a9540" stroke="none"/>
<path d="M544.3,278.2 L681.6,329.5 L657.8,370.9 L630.6,418.7 L600.4,466.1 L574.1,506.6 L558.5,530.2 L549.4,544.5 L545.0,553.3 L541.9,559.6 L540.4,567.1 L540.3,577.7 L508.6,594.0 L502.7,612.5 L424.3,573.7 L446.4,528.1 L470.4,461.9 L474.6,432.6 L479.9,410.7 L489.4,385.4 L502.6,355.2 L544.3,278.2 Z" fill="#5a9540" stroke="none"/>
<path d="M104.4,49.0 L104.0,47.5 L103.9,44.9 L103.6,42.8 L102.9,41.2 L101.7,39.8 L99.9,38.5 L98.2,37.7 L96.8,37.2 L95.6,36.9 L94.3,36.9 L92.9,37.5 L92.1,38.6 L91.7,40.0 L91.6,42.2 L92.1,44.3 L92.6,45.4 L93.2,46.4 L94.8,48.7 L96.0,50.8 L97.2,53.3 L99.1,56.4 L101.7,59.3 L103.9,61.5 L106.6,63.5 L109.1,64.6 L112.0,65.5 L114.8,66.0 L118.3,66.3 L121.4,66.2 L124.8,65.2 L126.8,64.0 L127.8,63.2 L128.4,62.0 L128.4,60.9 L128.4,59.7 L127.8,58.5 L126.7,57.1 L125.6,55.9 L124.6,55.4 L123.5,55.1 L122.2,55.0 L121.2,54.6 L120.2,53.8 L118.9,52.5 L117.7,50.8 L116.6,49.9 L115.2,49.5 L113.9,49.6 L112.4,50.1 L110.8,50.6 L108.7,51.2 L107.2,51.3 L105.7,50.9 L104.8,50.1 L104.4,49.0 Z" fill="#e7d6a3" stroke="none"/>
<path d="M100.2,83.2 L98.3,84.5 L97.2,86.7 L97.9,89.8 L99.6,93.2 L101.9,95.8 L104.8,99.5 L106.7,102.5 L108.4,104.3 L110.0,105.0 L111.8,107.4 L113.5,110.8 L115.6,113.3 L117.7,114.4 L120.6,113.9 L122.2,111.6 L122.4,109.0 L121.9,106.0 L120.4,103.5 L118.5,101.3 L117.1,99.3 L117.3,97.2 L119.0,95.6 L121.5,95.5 L124.1,97.2 L126.8,102.3 L128.8,107.7 L130.2,110.7 L130.9,113.7 L131.8,116.8 L133.6,118.3 L136.3,118.9 L139.8,117.4 L141.6,113.9 L141.6,109.9 L139.0,103.9 L138.8,101.0 L140.4,99.1 L143.3,98.9 L145.3,100.0 L145.6,103.7 L145.8,109.8 L147.5,113.1 L151.8,115.3 L158.1,116.0 L163.7,117.3 L168.3,119.8 L170.9,122.9 L174.1,126.8 L177.1,132.0 L179.4,137.3 L181.8,141.0 L184.8,143.9 L188.0,145.1 L191.1,144.2 L192.2,141.8 L191.8,139.3 L189.7,137.1 L186.2,133.6 L181.4,125.9 L177.7,119.9 L171.8,112.5 L166.9,106.4 L162.3,100.8 L157.0,95.0 L154.0,91.8 L153.1,88.7 L152.9,83.7 L152.1,78.5 L150.4,75.3 L147.8,73.5 L142.6,72.6 L138.3,73.4 L136.1,75.4 L135.8,77.7 L137.5,80.0 L139.9,81.3 L143.7,82.0 L145.6,83.3 L146.4,85.6 L144.6,87.0 L141.5,87.9 L137.6,87.4 L135.4,85.9 L133.8,82.6 L132.8,80.9 L130.4,80.2 L126.4,81.3 L122.2,83.4 L120.3,84.4 L117.8,84.3 L115.1,83.4 L110.2,80.8 L108.0,80.2 L104.9,80.6 L102.3,81.6 L100.2,83.2 Z" fill="#e7d6a3" stroke="none"/>
<path d="M82.5,90.2 L85.1,94.5 L86.9,97.8 L88.4,99.8 L89.6,102.4 L89.7,105.3 L89.3,107.8 L88.2,108.8 L86.9,109.3 L84.7,109.4 L82.0,109.0 L80.6,109.1 L77.4,109.6 L74.6,109.7 L72.1,109.3 L70.0,109.4 L67.9,110.2 L65.7,112.4 L62.7,115.5 L60.9,116.2 L59.3,116.0 L56.4,114.6 L52.0,111.2 L50.4,108.8 L49.9,106.5 L50.7,104.4 L52.3,102.8 L53.9,102.1 L56.5,102.6 L58.6,102.6 L61.2,101.4 L63.1,99.8 L66.0,98.4 L70.2,95.2 L74.3,91.9 L76.4,89.9 L78.8,88.8 L81.4,89.2 L82.5,90.2 Z" fill="#e7d6a3" stroke="none"/>
<path d="M273.5,24.9 L271.0,27.7 L270.1,29.8 L270.0,32.3 L271.3,34.0 L272.9,34.4 L274.6,34.2 L275.8,35.2 L276.3,36.7 L276.6,39.5 L278.5,42.1 L280.3,43.3 L281.8,43.5 L284.3,42.5 L286.0,42.6 L287.0,43.7 L287.3,45.5 L287.9,46.5 L290.1,46.1 L291.9,44.3 L291.8,42.5 L290.4,41.1 L289.3,40.0 L289.0,36.3 L288.3,34.6 L287.2,33.5 L286.0,32.9 L283.8,33.1 L282.1,32.1 L281.8,29.9 L282.7,28.5 L283.4,26.8 L283.0,25.2 L281.5,23.6 L279.7,23.1 L277.7,23.0 L276.1,23.5 L273.5,24.9 Z" fill="#e7d6a3" stroke="none"/>
<path d="M349.5,-3.0 L347.9,-1.1 L347.4,1.4 L348.6,4.3 L350.7,6.6 L353.1,8.4 L354.1,12.5 L355.2,16.3 L355.0,18.2 L354.5,22.1 L356.0,25.5 L358.8,27.8 L360.6,28.4 L361.6,27.6 L361.2,25.7 L361.0,24.2 L364.1,23.0 L365.0,25.1 L366.4,26.5 L369.0,25.1 L370.8,21.8 L371.0,18.7 L370.0,15.9 L368.6,14.7 L366.2,14.7 L364.0,13.6 L363.4,11.2 L364.0,9.4 L365.9,8.3 L367.0,6.6 L365.3,2.7 L362.9,0.7 L361.4,0.0 L358.5,0.4 L355.8,-0.4 L354.5,-2.1 L353.7,-3.8 L352.2,-4.0 L349.5,-3.0 Z" fill="#e7d6a3" stroke="none"/>
<path d="M402.3,180.9 L401.8,182.1 L400.4,183.0 L398.6,183.6 L397.4,185.3 L397.8,191.2 L399.0,193.1 L400.4,194.2 L400.9,195.5 L401.5,198.9 L403.2,201.4 L404.7,202.2 L407.2,201.5 L408.8,198.8 L408.9,195.4 L407.9,191.6 L408.0,187.6 L409.2,184.1 L409.8,178.8 L409.2,177.5 L407.9,177.0 L406.5,176.1 L405.9,174.5 L406.3,172.9 L408.4,171.9 L410.9,170.0 L412.3,167.0 L412.4,164.4 L411.5,162.5 L410.3,161.5 L407.7,161.6 L405.6,162.8 L404.8,164.5 L404.8,166.7 L404.4,168.3 L403.2,169.7 L401.7,169.8 L400.4,168.9 L399.3,167.9 L397.3,168.0 L395.0,170.0 L394.3,173.3 L395.1,175.8 L396.8,177.6 L398.5,178.8 L400.3,178.6 L401.7,178.9 L402.3,180.9 Z" fill="#e7d6a3" stroke="none"/>
<path d="M416.5,178.3 L416.5,180.1 L416.8,181.7 L416.5,183.1 L415.4,185.1 L414.4,186.9 L414.0,188.8 L414.5,190.9 L415.9,192.4 L417.7,193.2 L419.6,193.4 L420.8,192.7 L422.2,189.9 L422.6,189.1 L422.0,188.3 L421.0,188.1 L420.2,187.4 L419.6,185.0 L420.3,183.1 L421.4,181.9 L422.0,181.1 L421.3,179.0 L420.3,177.5 L419.2,176.8 L418.1,177.0 L417.1,177.4 L416.5,178.3 Z" fill="#e7d6a3" stroke="none"/>
<path d="M440.3,158.3 L439.1,159.3 L438.5,160.9 L438.8,163.0 L439.6,164.0 L441.6,164.3 L443.3,164.5 L444.1,165.2 L444.3,166.4 L443.7,167.4 L442.5,168.2 L441.6,168.6 L441.6,170.4 L442.7,172.1 L443.9,173.0 L446.1,172.6 L448.4,171.8 L449.0,170.5 L448.9,169.2 L447.8,168.0 L447.6,166.4 L448.3,165.3 L449.8,165.3 L451.6,164.9 L452.5,163.5 L452.3,161.5 L451.3,160.1 L450.2,159.4 L448.9,159.5 L448.1,160.4 L447.4,160.8 L445.9,160.6 L444.7,159.2 L443.7,158.1 L442.0,157.8 L440.3,158.3 Z" fill="#e7d6a3" stroke="none"/>
<path d="M359.3,723.5 L358.4,740.8 L368.0,741.3 L369.0,724.1 L359.3,723.5 Z" fill="#4f8a3e" stroke="none"/>
<path d="M361.8,672.7 L360.2,701.2 L370.2,701.8 L371.8,673.3 L361.8,672.7 Z" fill="#4f8a3e" stroke="none"/>
<path d="M426.8,587.1 L423.8,588.9 L421.9,591.0 L420.2,593.4 L419.0,595.9 L418.4,599.1 L418.6,602.2 L419.4,604.5 L421.6,607.2 L425.7,610.7 L431.7,614.4 L443.5,621.3 L455.7,627.7 L464.8,631.8 L470.2,633.9 L474.1,634.9 L477.6,634.9 L480.7,634.4 L483.6,633.4 L486.2,631.7 L488.1,629.7 L489.7,627.0 L490.4,623.8 L490.5,621.3 L489.8,618.7 L488.1,616.6 L484.4,613.5 L480.6,611.1 L470.4,605.8 L457.5,598.9 L446.1,592.5 L437.8,588.0 L433.4,586.4 L430.0,586.2 L426.8,587.1 Z" fill="#4f8a3e" stroke="none"/>
<path d="M364.4,625.5 L363.1,653.8 L372.9,654.2 L374.3,625.9 L364.4,625.5 Z" fill="#4f8a3e" stroke="none"/>
<path d="M367.4,573.5 L366.6,586.1 L376.1,586.7 L376.9,574.1 L367.4,573.5 Z" fill="#4f8a3e" stroke="none"/>
<path d="M76.8,262.1 L74.6,263.4 L72.3,265.6 L69.4,269.2 L66.3,273.3 L65.1,275.3 L64.3,277.5 L64.1,280.3 L64.5,282.1 L65.1,283.5 L66.3,284.9 L67.8,285.7 L69.5,286.1 L71.5,286.0 L73.7,285.3 L76.3,283.2 L82.7,275.0 L84.4,272.2 L85.1,269.6 L85.2,267.4 L84.8,265.5 L84.1,264.1 L83.0,263.1 L81.2,262.0 L79.0,261.7 L76.8,262.1 Z" fill="#4f8a3e" stroke="none"/>
<path d="M20.1,359.3 L18.2,358.8 L16.2,359.4 L13.6,361.7 L12.7,363.1 L12.0,364.6 L11.5,366.3 L12.0,368.1 L13.0,369.3 L14.5,370.1 L16.4,370.0 L18.5,369.1 L20.2,367.1 L21.9,364.3 L22.2,362.4 L21.7,360.4 L20.1,359.3 Z" fill="#4f8a3e" stroke="none"/>
<path d="M105.5,327.0 L102.9,328.2 L95.1,335.2 L90.5,339.3 L89.1,342.2 L89.1,345.3 L90.3,346.7 L92.5,347.6 L95.0,347.6 L98.9,344.8 L102.7,341.4 L107.3,337.3 L109.6,335.0 L111.0,332.5 L111.1,330.5 L110.1,328.8 L108.1,327.2 L105.5,327.0 Z" fill="#4f8a3e" stroke="none"/>
<path d="M21.4,138.4 L20.7,139.2 L20.1,140.6 L20.1,141.7 L20.3,142.9 L21.0,144.0 L22.3,145.1 L24.1,145.9 L26.1,146.5 L28.3,146.4 L29.7,146.1 L31.0,145.5 L31.9,144.6 L32.4,143.5 L32.3,142.0 L31.9,140.7 L31.1,139.4 L30.2,138.3 L28.9,137.3 L27.3,136.7 L25.6,136.6 L23.9,136.8 L22.4,137.5 L21.4,138.4 Z" fill="#4f8a3e" stroke="none"/>
<path d="M-6.6,89.8 L-7.4,87.6 L-8.2,86.1 L-9.2,85.1 L-10.3,84.7 L-11.3,84.6 L-12.3,84.6 L-13.5,85.1 L-14.9,86.1 L-15.9,87.6 L-16.5,90.0 L-16.7,92.7 L-16.4,96.4 L-15.4,101.0 L-13.3,106.3 L-10.6,111.0 L-5.6,117.5 L0.1,123.8 L1.3,124.8 L2.5,125.4 L3.7,125.7 L4.6,125.5 L5.4,124.8 L5.8,124.0 L5.8,122.6 L5.6,121.3 L4.6,119.0 L1.4,112.7 L-1.3,107.3 L-3.2,101.9 L-6.6,89.8 Z" fill="#4f8a3e" stroke="none"/>
<path d="M-7.4,34.0 L-9.6,34.7 L-10.8,35.7 L-11.4,37.0 L-12.1,39.3 L-12.3,42.6 L-11.9,46.0 L-10.5,50.4 L-9.6,55.7 L-9.5,62.5 L-9.8,65.4 L-9.4,67.7 L-8.2,69.3 L-6.8,70.0 L-4.9,70.1 L-2.3,69.3 L0.1,67.7 L2.6,64.2 L3.4,61.9 L3.3,57.2 L2.8,53.3 L0.6,44.4 L-1.4,38.2 L-3.5,35.2 L-5.7,34.1 L-7.4,34.0 Z" fill="#4f8a3e" stroke="none"/>
<path d="M-49.4,-21.8 L-50.6,-23.1 L-51.7,-23.8 L-53.0,-24.0 L-54.3,-23.7 L-55.2,-22.8 L-55.5,-21.5 L-55.4,-19.7 L-54.5,-17.2 L-52.2,-13.2 L-47.6,-4.5 L-43.0,4.1 L-39.8,9.8 L-38.1,14.3 L-36.8,18.2 L-35.4,20.8 L-34.3,21.8 L-33.1,22.2 L-31.5,22.1 L-30.4,21.5 L-29.6,20.3 L-28.9,18.6 L-29.0,16.4 L-29.8,14.2 L-31.2,12.0 L-32.6,10.4 L-34.0,8.6 L-37.2,3.1 L-43.5,-9.5 L-47.6,-18.3 L-49.4,-21.8 Z" fill="#4f8a3e" stroke="none"/>
<path d="M515.0,193.8 L488.7,226.9 L500.6,235.6 L526.1,202.4 L515.0,193.8 Z" fill="#4f8a3e" stroke="none"/>
<path d="M484.1,235.3 L491.4,241.3 L482.9,251.6 L475.6,245.6 L484.1,235.3 Z" fill="#4f8a3e" stroke="none"/>
<path d="M391.2,766.6 L384.3,764.2 L380.3,763.9 L376.6,764.6 L373.3,766.5 L371.0,769.7 L369.6,773.3 L369.4,778.5 L373.5,790.5 L380.7,808.7 L382.2,813.2 L384.0,816.2 L386.2,818.0 L389.0,819.3 L391.9,820.1 L395.6,819.5 L398.7,817.0 L401.8,813.9 L404.4,810.5 L406.6,806.2 L407.9,802.4 L408.9,796.5 L409.1,790.9 L408.1,785.9 L406.4,779.7 L403.7,774.6 L400.4,771.0 L391.2,766.6 Z" fill="#2f7825" stroke="none"/>
<path d="M52.4,57.4 L48.4,63.7 L45.6,73.5 L45.9,80.9 L48.8,86.3 L52.4,89.3 L59.0,90.0 L64.5,90.0 L69.7,88.3 L73.3,86.0 L75.7,82.5 L77.3,79.9 L80.9,77.3 L84.1,76.6 L90.1,75.9 L95.5,74.9 L99.6,72.9 L101.0,70.1 L100.7,67.6 L99.0,64.1 L95.8,60.4 L92.1,57.4 L88.4,55.1 L83.5,52.8 L77.8,51.1 L73.8,50.8 L67.9,50.6 L63.2,51.5 L57.5,54.0 L52.4,57.4 Z" fill="#2f7825" stroke="none"/>
<path d="M429.5,182.7 L430.4,187.1 L428.9,191.4 L425.7,195.6 L424.3,200.1 L424.6,203.7 L426.5,206.7 L430.8,209.5 L435.3,210.4 L440.3,209.8 L445.2,207.4 L451.2,201.1 L456.2,195.2 L458.1,191.6 L458.5,189.0 L458.5,186.0 L456.7,182.8 L454.8,181.2 L452.6,180.1 L449.1,179.9 L443.8,179.5 L439.8,177.9 L437.2,175.1 L434.8,171.1 L432.9,168.7 L430.6,168.0 L427.3,168.9 L425.9,169.9 L424.9,172.5 L426.5,176.1 L428.3,179.5 L429.5,182.7 Z" fill="#2f7825" stroke="none"/>
<path d="M363.0,731.7 L386.0,329.3 L234.6,128.9 L68.3,68.3" fill="none" stroke="#ffd64a" stroke-width="3.5" stroke-linecap="round" stroke-linejoin="round" opacity="0.95"/>
</svg>