<svg xmlns="http://www.w3.org/2000/svg" viewBox="0 0 800 600" preserveAspectRatio="xMidYMid slice">
<rect width="100%" height="100%" fill="#143018"/>
<path d="M269.9,126.5 L283.2,129.9 L299.0,135.3 L312.0,141.8 L324.5,149.0 L341.3,160.9 L351.5,168.4 L363.8,180.0 L371.6,188.5 L382.1,204.0 L397.4,222.2 L417.9,247.2 L431.4,266.0 L446.8,287.1 L460.8,314.6 L468.3,332.8 L471.8,347.5 L475.7,382.7 L479.0,408.7 L482.0,442.5 L483.0,482.3 L483.6,515.5 L485.5,537.3 L489.6,547.9 L490.5,558.4 L492.5,569.3 L493.8,575.3 L491.5,590.8 L488.4,612.8 L485.6,625.1 L488.2,638.3 L488.8,652.2 L488.0,679.3 L486.8,699.1 L491.7,724.4 L497.8,746.9 L507.8,769.9 L513.1,782.9 L516.2,788.4 L522.8,789.0 L527.6,785.3 L531.4,779.0 L538.1,771.3 L542.8,769.2 L550.2,769.4 L548.2,755.1 L544.8,733.1 L543.0,725.0 L533.1,722.6 L528.5,720.9 L523.6,716.9 L518.5,710.4 L519.3,701.8 L518.3,691.8 L516.6,680.4 L516.4,668.7 L516.1,661.0 L519.3,645.6 L522.8,629.4 L523.3,620.6 L520.8,614.9 L518.0,608.7 L519.2,596.9 L520.1,586.5 L520.7,574.4 L523.3,564.2 L525.8,551.3 L529.9,540.3 L531.4,524.3 L531.7,521.2 L543.9,489.0 L557.5,450.8 L562.8,434.1 L569.6,409.3 L578.3,379.5 L579.4,371.0 L577.4,361.5 L574.5,352.1 L574.1,337.0 L574.4,327.3 L571.9,320.2 L553.3,292.8 L546.7,282.9 L545.2,275.6 L543.5,269.4 L537.9,261.8 L534.7,257.6 L532.1,253.1 L525.1,246.7 L518.5,240.3 L509.8,224.6 L505.0,213.1 L494.8,199.9 L483.4,189.1 L461.2,174.1 L458.0,170.8 L448.4,153.7 L441.2,139.2 L433.3,118.8 L428.6,113.4 L399.7,93.5 L395.7,90.6 L393.0,87.1 L385.3,75.5 L377.3,67.7 L372.0,64.6 L361.6,61.3 L353.2,60.9 L347.8,61.0 L344.2,66.1 L338.0,67.0 L331.2,63.3 L319.5,51.8 L310.2,43.2 L299.0,38.5 L280.3,31.4 L275.2,29.7 L261.2,26.4 L242.0,21.7 L227.3,20.9 L207.0,21.7 L194.3,24.6 L186.6,31.0 L179.7,40.8 L176.3,51.2 L175.0,64.1 L175.9,82.7 L179.7,94.7 L185.2,109.4 L187.9,116.4 L191.4,124.7 L192.9,127.1 L196.4,129.3 L206.9,127.8 L230.5,123.3 L246.7,122.1 L261.2,124.0 L269.9,126.5 Z" fill="#2b5a2a" stroke="none"/>
<path d="M117.5,58.8 L120.4,63.8 L122.2,70.7 L121.6,81.2 L119.6,86.5 L116.4,87.1 L115.7,92.1 L118.8,93.3 L125.3,93.5 L129.3,94.6 L133.1,98.0 L135.1,101.4 L141.4,115.0 L147.7,121.4 L154.6,127.1 L160.8,131.2 L167.0,137.7 L171.6,143.5 L177.5,146.6 L183.2,145.9 L186.6,142.4 L187.2,137.1 L183.7,130.7 L178.2,123.6 L167.6,110.9 L161.6,99.7 L156.8,86.5 L157.1,76.5 L159.5,64.7 L160.0,55.5 L157.8,45.8 L154.0,39.4 L148.8,30.7 L145.6,26.9 L138.2,16.8 L127.3,37.6 L117.5,58.8 Z" fill="#2b5a2a" stroke="none"/>
<path d="M98.3,-17.1 L100.1,-19.7 L103.9,-20.0 L108.3,-18.2 L121.7,10.3 L125.4,13.5 L130.2,11.8 L134.5,12.2 L136.8,13.3 L120.0,44.5 L116.7,38.8 L114.7,32.7 L114.8,26.4 L112.2,16.1 L106.7,2.3 L98.2,-14.5 L98.3,-17.1 Z" fill="#2b5a2a" stroke="none"/>
<path d="M226.6,246.4 L234.4,245.2 L237.8,247.7 L240.0,253.0 L238.7,259.2 L234.9,266.8 L225.1,275.8 L215.9,281.2 L205.8,284.4 L203.1,279.6 L202.7,270.4 L207.2,257.4 L216.9,248.6 L226.6,246.4 Z" fill="#2b5a2a" stroke="none"/>
<path d="M160.8,344.1 L163.7,340.6 L170.9,338.1 L178.6,339.6 L184.4,343.9 L186.2,351.1 L183.3,358.0 L177.8,364.3 L173.5,369.3 L166.0,368.7 L160.7,363.8 L158.0,357.5 L157.0,349.6 L160.8,344.1 Z" fill="#2b5a2a" stroke="none"/>
<path d="M-59.4,503.3 L-53.1,502.3 L-24.7,495.4 L-8.4,487.2 L4.7,474.9 L10.0,462.0 L16.6,446.9 L21.9,436.8 L32.5,429.6 L45.2,424.3 L53.1,417.0 L58.5,408.2 L64.3,398.9 L75.7,390.7 L91.9,387.2 L102.8,383.4 L112.6,375.8 L138.1,392.9 L149.9,401.2 L160.4,412.0 L165.5,422.1 L162.1,434.4 L151.1,447.3 L140.1,462.3 L127.7,476.9 L118.5,482.1 L112.3,486.0 L103.0,493.4 L94.6,496.4 L83.1,498.5 L68.3,504.3 L50.0,508.6 L33.8,509.5 L16.8,515.0 L-1.6,519.7 L-17.4,530.1 L-32.2,540.5 L-43.2,549.9 L-53.2,556.6 L-59.6,563.3 L-65.1,569.5 L-66.1,576.1 L-62.4,585.1 L-59.5,589.3 L-58.3,593.0 L-58.7,595.1 L-61.1,598.1 L-65.8,601.0 L-71.2,602.3 L-78.4,603.4 L-82.8,604.9 L-86.3,607.4 L-93.0,612.0 L-98.4,613.0 L-101.0,610.6 L-102.1,607.0 L-99.9,602.5 L-95.2,597.4 L-90.1,592.4 L-88.2,589.1 L-90.3,582.7 L-93.7,578.8 L-95.5,580.0 L-101.0,587.1 L-104.7,591.3 L-110.0,595.9 L-114.2,597.7 L-118.6,597.2 L-121.1,594.4 L-120.9,590.4 L-117.9,585.3 L-110.2,576.3 L-102.1,566.9 L-100.4,565.6 L-98.2,563.6 L-100.0,561.0 L-103.5,558.8 L-105.8,557.6 L-107.8,549.5 L-111.8,538.1 L-110.9,528.6 L-104.8,520.0 L-93.7,513.9 L-81.0,508.5 L-68.9,505.0 L-59.4,503.3 Z" fill="#2b5a2a" stroke="none"/>
<path d="M74.3,142.6 L74.3,149.5 L77.3,154.7 L81.4,160.4 L82.8,164.5 L83.3,173.3 L83.6,183.2 L83.7,200.0 L81.7,209.3 L77.2,221.7 L68.1,243.5 L46.6,272.5 L37.8,284.0 L32.5,294.9 L31.5,301.5 L30.9,308.0 L29.5,327.8 L27.8,338.9 L22.9,353.0 L19.7,357.7 L13.7,362.8 L7.7,366.2 L0.1,368.4 L-26.5,371.5 L-36.9,373.7 L-43.7,375.9 L-51.9,379.8 L-58.7,384.2 L-62.7,387.1 L-66.3,387.9 L-69.8,386.9 L-83.9,380.3 L-99.2,373.3 L-98.5,362.4 L-95.6,351.6 L-91.2,342.0 L-82.4,331.3 L-72.0,315.8 L-62.2,303.2 L-56.4,295.6 L-52.2,290.2 L-44.3,279.3 L-31.8,265.6 L-14.9,250.2 L0.4,232.1 L12.3,217.3 L23.4,203.5 L31.1,193.0 L32.4,183.2 L31.5,174.7 L27.8,167.9 L22.1,161.4 L19.5,156.1 L17.4,147.4 L18.6,135.8 L19.0,127.0 L16.1,116.0 L10.7,102.2 L9.4,96.1 L12.6,94.6 L13.1,97.9 L14.9,98.9 L16.6,98.5 L17.5,97.2 L17.6,95.3 L17.4,93.4 L16.9,90.6 L15.9,88.6 L15.0,88.5 L14.2,88.9 L13.1,89.6 L12.8,91.5 L12.6,94.4 L9.4,95.9 L9.3,91.4 L11.4,82.7 L14.2,75.1 L15.8,72.9 L19.0,71.2 L24.9,72.2 L28.5,74.3 L31.4,77.5 L35.6,86.7 L37.9,96.0 L44.9,115.1 L49.7,117.8 L55.7,117.9 L63.3,120.8 L71.7,125.4 L79.9,128.9 L76.8,136.7 L74.3,142.6 Z" fill="#2b5a2a" stroke="none"/>
<path d="M143.2,-122.2 L143.0,-118.6 L143.7,-114.9 L147.9,-110.5 L152.0,-106.7 L155.3,-100.7 L146.9,-97.8 L143.2,-90.4 L140.8,-85.8 L135.7,-81.7 L125.7,-77.0 L116.9,-75.4 L105.3,-81.9 L99.3,-85.5 L94.8,-87.7 L88.0,-87.6 L80.0,-88.2 L71.9,-93.1 L69.4,-97.4 L69.6,-106.7 L71.3,-114.8 L73.2,-122.0 L77.4,-127.6 L85.0,-133.7 L91.3,-136.7 L100.8,-140.1 L104.7,-141.6 L106.4,-142.4 L110.1,-144.3 L113.2,-146.9 L117.8,-151.3 L120.3,-154.5 L120.6,-157.4 L119.3,-160.3 L116.2,-162.9 L114.5,-165.6 L115.1,-168.1 L118.3,-171.4 L122.3,-171.9 L126.2,-170.4 L130.7,-167.1 L135.3,-165.2 L143.2,-161.4 L151.5,-157.8 L159.6,-152.8 L169.8,-145.9 L176.4,-141.6 L179.3,-138.7 L180.5,-136.1 L187.2,-132.9 L193.8,-132.2 L199.7,-131.5 L207.1,-128.7 L217.8,-123.5 L224.9,-120.1 L231.7,-117.1 L280.6,-94.6 L302.9,-82.9 L316.2,-78.8 L327.5,-74.3 L337.7,-68.0 L346.4,-62.6 L361.3,-56.1 L371.9,-55.2 L385.7,-56.1 L395.6,-57.0 L414.9,-53.8 L438.1,-45.2 L454.8,-37.8 L462.0,-29.7 L472.4,-22.9 L487.3,-16.6 L499.0,-9.2 L509.2,2.2 L512.8,9.4 L516.4,17.5 L514.5,30.3 L516.0,43.5 L520.7,53.0 L535.4,73.0 L543.6,84.4 L554.3,95.5 L557.2,102.9 L560.3,113.0 L567.3,118.2 L576.1,120.4 L584.0,122.6 L589.0,128.6 L590.2,138.7 L591.5,150.0 L592.5,157.4 L594.6,162.5 L600.9,171.5 L603.5,176.8 L605.2,182.6 L607.5,190.4 L607.7,193.3 L594.5,205.1 L580.0,218.7 L567.0,231.7 L562.8,232.7 L555.3,229.1 L534.1,215.3 L524.2,207.4 L510.2,192.5 L493.9,171.6 L482.6,151.5 L469.5,128.9 L461.5,116.1 L444.6,95.1 L429.3,77.3 L409.5,59.2 L404.1,55.1 L399.7,52.8 L390.7,49.7 L387.2,47.1 L378.9,38.3 L372.7,34.3 L366.3,32.0 L356.1,30.5 L349.8,26.5 L343.4,19.6 L332.9,4.4 L329.2,-0.7 L324.1,-6.2 L325.6,-11.1 L326.2,-16.6 L323.8,-20.9 L320.9,-23.6 L313.6,-26.1 L307.5,-27.9 L300.7,-32.6 L296.6,-38.1 L292.8,-42.7 L286.8,-44.6 L277.8,-47.4 L273.0,-50.6 L268.8,-55.3 L265.7,-59.9 L260.5,-62.4 L253.4,-64.1 L245.0,-66.3 L241.9,-73.4 L235.6,-79.5 L227.7,-84.4 L219.6,-87.9 L214.7,-90.3 L205.9,-94.0 L198.4,-97.7 L186.3,-106.6 L179.5,-113.3 L169.9,-122.6 L162.5,-127.5 L158.5,-129.5 L151.4,-129.7 L146.8,-127.2 L143.2,-122.2 Z" fill="#2b5a2a" stroke="none"/>
<path d="M625.7,178.6 L608.7,195.5 L591.9,210.9 L583.4,218.7 L586.9,223.3 L591.9,230.5 L592.7,239.3 L592.2,242.8 L605.9,244.9 L613.9,244.6 L640.7,214.6 L649.0,203.4 L657.3,190.6 L640.7,181.1 L633.8,176.5 L628.5,176.5 L625.7,178.6 Z" fill="#2b5a2a" stroke="none"/>
<path d="M632.8,173.5 L643.8,161.4 L652.4,152.3 L664.6,138.5 L670.5,131.3 L672.7,127.2 L674.8,118.8 L678.4,112.8 L685.8,105.1 L690.4,98.8 L694.7,89.1 L697.3,81.0 L705.5,64.6 L713.0,49.8 L719.7,41.8 L723.4,33.0 L726.0,22.8 L733.9,13.0 L742.3,4.5 L746.1,-9.2 L750.7,-27.9 L756.6,-41.5 L768.2,-61.1 L782.3,-81.0 L796.6,-98.7 L809.7,-110.0 L825.1,-117.0 L838.3,-120.2 L843.9,-122.1 L847.1,-124.8 L849.9,-132.1 L857.6,-140.4 L869.5,-153.4 L885.6,-166.1 L903.3,-180.6 L921.8,-194.3 L950.3,-214.1 L969.6,-227.6 L982.0,-236.6 L995.0,-245.8 L1009.0,-256.3 L1019.4,-266.1 L1027.7,-275.3 L1032.2,-285.0 L1039.3,-293.6 L1047.7,-297.8 L1059.5,-299.5 L1066.2,-301.8 L1077.2,-307.0 L1083.3,-308.0 L1086.7,-305.3 L1095.7,-302.6 L1108.7,-299.3 L1112.8,-299.6 L1123.7,-295.7 L1127.3,-290.4 L1132.0,-281.6 L1135.7,-271.7 L1135.1,-265.7 L1124.6,-259.0 L1112.6,-256.0 L1099.7,-248.9 L1093.0,-236.2 L1093.1,-220.1 L1099.1,-214.7 L1110.0,-210.6 L1119.0,-205.7 L1124.8,-204.1 L1129.3,-200.6 L1134.9,-193.5 L1131.5,-186.1 L1124.6,-179.0 L1113.5,-166.6 L1076.8,-129.7 L1064.9,-120.6 L1059.4,-135.2 L1056.4,-145.2 L1057.8,-153.9 L1064.2,-165.0 L1072.2,-169.2 L1076.3,-179.9 L1079.0,-187.0 L1087.5,-192.0 L1090.6,-196.7 L1089.1,-202.4 L1085.0,-206.1 L1081.4,-207.6 L1075.6,-206.4 L1069.6,-202.4 L1065.7,-197.5 L1060.6,-193.1 L1041.2,-184.5 L1027.0,-176.9 L1020.2,-172.2 L1012.8,-165.5 L1003.3,-156.4 L989.2,-141.7 L981.8,-134.2 L970.5,-123.8 L956.9,-112.2 L949.3,-103.2 L945.1,-98.6 L940.9,-92.2 L936.0,-87.8 L928.0,-85.1 L917.7,-84.5 L908.7,-82.2 L903.3,-77.9 L899.4,-74.8 L891.7,-63.3 L878.3,-41.4 L874.4,-35.5 L862.0,-24.4 L846.8,-11.1 L830.5,3.9 L818.5,15.2 L805.1,29.2 L790.0,44.6 L781.1,54.5 L775.1,62.6 L770.0,72.0 L764.3,92.3 L760.8,99.1 L757.3,105.0 L748.5,111.5 L736.8,117.6 L728.6,121.5 L712.3,129.8 L699.1,137.8 L691.1,145.1 L658.5,188.5 L632.8,173.5 Z" fill="#2b5a2a" stroke="none"/>
<path d="M767.7,182.5 L761.0,190.5 L759.2,196.2 L758.5,203.1 L758.0,212.8 L759.1,226.8 L761.4,244.1 L764.0,257.5 L774.2,257.5 L791.0,259.0 L806.5,261.9 L819.7,265.8 L836.6,270.8 L844.8,252.6 L840.4,249.3 L834.6,243.4 L831.4,237.9 L830.7,234.3 L831.1,229.5 L832.4,226.3 L836.7,221.1 L839.6,215.0 L841.8,207.4 L842.7,201.3 L844.0,194.3 L845.5,189.2 L847.6,184.6 L851.9,175.6 L859.5,156.2 L867.1,143.6 L872.3,137.7 L874.8,132.9 L877.5,126.9 L879.4,118.3 L881.3,110.7 L882.7,105.3 L886.5,99.3 L891.9,94.6 L900.9,87.7 L901.4,81.9 L901.5,77.9 L903.2,73.8 L911.4,65.6 L917.0,61.6 L922.5,50.2 L928.2,44.4 L935.1,43.2 L936.6,43.2 L947.3,31.7 L962.4,17.8 L973.5,7.1 L972.9,-1.0 L974.6,-9.9 L982.6,-14.3 L990.8,-18.2 L995.4,-20.5 L1000.1,-24.9 L1004.0,-31.2 L1006.8,-40.4 L1011.3,-49.1 L1018.8,-54.4 L1024.5,-55.7 L1027.1,-56.2 L1037.6,-77.1 L1050.2,-90.2 L1057.3,-97.6 L1062.4,-106.2 L1063.2,-115.9 L1052.8,-144.4 L1047.0,-142.4 L1033.8,-139.7 L1024.4,-139.0 L1013.9,-130.5 L1007.8,-122.4 L1007.5,-115.3 L1008.5,-110.0 L1003.3,-101.8 L990.4,-93.6 L976.6,-89.8 L964.5,-82.8 L957.3,-79.6 L947.6,-76.4 L931.7,-64.2 L919.5,-54.9 L910.8,-39.9 L907.0,-32.0 L901.6,-29.8 L890.8,-17.1 L880.2,-2.5 L872.6,7.8 L871.4,20.0 L865.8,28.0 L856.9,34.3 L850.8,41.4 L842.7,52.9 L825.1,76.2 L818.7,85.9 L817.4,92.9 L813.4,108.2 L810.6,117.2 L806.1,127.4 L801.4,135.7 L792.8,156.4 L786.7,162.7 L777.1,173.2 L770.5,179.4 L767.7,182.5 Z" fill="#2b5a2a" stroke="none"/>
<path d="M347.3,131.1 L331.2,115.9 L321.0,104.9 L314.5,96.5 L312.4,91.9 L311.9,88.4 L312.0,84.8 L313.3,80.6 L314.8,78.0 L317.0,75.7 L319.8,74.3 L323.6,73.1 L327.1,73.1 L331.1,74.0 L335.5,75.9 L343.9,80.7 L353.5,87.1 L377.6,103.3 L395.8,117.0 L406.2,128.7 L439.3,179.2 L477.6,219.9 L508.5,259.7 L520.6,276.1 L527.7,289.0 L533.5,301.7 L538.5,313.7 L545.0,333.2 L546.9,348.9 L547.0,362.2 L547.2,373.5 L544.5,395.9 L541.8,414.5 L536.5,442.0 L532.9,458.6 L530.4,468.5 L528.4,470.5 L526.8,472.7 L524.6,474.3 L522.3,475.8 L519.3,476.5 L516.5,476.5 L513.4,476.1 L510.9,475.3 L508.3,474.0 L506.2,472.1 L504.4,470.1 L503.0,467.5 L502.6,464.8 L502.6,461.4 L503.2,457.0 L504.5,450.1 L507.4,430.4 L509.6,417.1 L509.5,406.5 L508.3,394.4 L504.9,378.6 L495.0,344.0 L488.9,325.3 L482.7,308.3 L475.9,293.5 L469.0,280.1 L461.6,267.3 L454.7,258.1 L445.7,244.3 L435.6,225.6 L427.1,209.1 L420.5,196.3 L415.5,188.8 L410.3,182.3 L398.8,171.4 L383.4,158.8 L366.9,146.2 L356.8,139.3 L347.3,131.1 Z" fill="#5a9540" stroke="none"/>
<path d="M89.7,405.1 L84.4,409.5 L79.6,416.5 L73.4,425.4 L68.3,435.6 L64.5,445.4 L59.8,460.8 L56.4,468.3 L52.7,473.0 L48.4,476.6 L43.6,478.5 L38.3,479.2 L29.8,478.6 L21.7,478.1 L16.8,479.1 L13.8,481.3 L11.8,484.3 L11.0,487.2 L10.5,490.0 L10.8,493.4 L12.3,496.4 L14.9,498.4 L18.4,499.7 L23.4,500.0 L35.5,498.4 L48.4,495.5 L61.3,490.3 L84.8,479.0 L105.4,468.5 L120.9,458.6 L130.2,451.0 L135.4,444.2 L139.1,436.4 L139.5,429.7 L138.5,421.0 L135.6,414.3 L129.5,407.7 L123.7,404.4 L116.9,402.1 L109.2,401.0 L101.7,401.1 L95.3,402.5 L89.7,405.1 Z" fill="#5a9540" stroke="none"/>
<path d="M560.1,163.1 L557.8,162.4 L554.7,163.3 L553.4,164.2 L552.5,166.7 L551.5,164.5 L548.5,160.6 L546.3,156.9 L543.7,153.8 L541.0,150.9 L537.2,147.8 L531.6,144.5 L524.0,141.1 L518.4,138.1 L512.5,133.5 L506.6,126.9 L500.4,116.7 L495.1,109.0 L489.3,102.4 L485.0,98.7 L480.2,95.7 L472.3,91.0 L464.9,86.3 L455.3,77.0 L443.9,63.9 L440.6,59.3 L438.4,54.8 L436.4,48.2 L434.8,40.0 L433.3,33.9 L431.6,29.2 L429.1,25.3 L426.8,22.4 L424.4,20.9 L420.6,19.2 L416.1,18.6 L410.6,18.7 L403.8,19.2 L399.4,19.3 L394.7,18.3 L390.3,16.9 L386.4,14.8 L382.9,12.2 L379.2,8.7 L374.7,3.2 L370.8,-2.0 L366.4,-6.8 L361.0,-11.8 L354.7,-16.1 L341.4,-25.0 L334.4,-30.6 L331.4,-34.5 L330.1,-37.6 L329.8,-41.1 L330.4,-45.0 L332.3,-48.8 L334.2,-51.2 L337.3,-53.7 L340.8,-55.1 L345.4,-55.6 L349.9,-55.6 L358.0,-53.1 L410.6,-31.6 L437.3,-20.6 L446.1,-16.8 L453.3,-13.8 L460.4,-9.2 L465.3,-3.7 L470.4,7.7 L476.1,20.2 L483.2,33.1 L490.9,42.9 L499.7,53.6 L512.0,71.5 L525.9,92.5 L540.4,117.2 L554.6,142.5 L558.2,150.9 L559.2,160.5 L560.1,163.1 Z" fill="#5a9540" stroke="none"/>
<path d="M664.9,266.2 L794.2,314.5 L771.8,353.5 L746.2,398.4 L717.8,443.1 L693.0,481.2 L678.3,503.4 L669.7,516.9 L665.6,525.2 L662.7,531.2 L661.3,538.2 L661.2,548.2 L631.3,563.5 L625.7,580.9 L551.9,544.5 L572.7,501.5 L595.3,439.2 L599.3,411.5 L604.3,391.0 L613.2,367.1 L625.7,338.7 L664.9,266.2 Z" fill="#5a9540" stroke="none"/>
<path d="M20.9,300.7 L12.4,326.0 L5.2,339.3 L-12.5,358.7 L-21.9,364.8 L-33.8,366.9 L-45.8,368.7 L-57.2,368.7 L-68.8,361.7 L-73.5,349.9 L-72.1,341.5 L-64.8,330.3 L-46.6,311.4 L-28.6,291.4 L-17.7,277.9 L-4.4,262.0 L3.2,253.7 L12.4,243.7 L26.1,229.2 L33.8,220.4 L38.3,214.5 L41.9,208.3 L44.4,202.5 L49.2,193.7 L54.7,189.8 L62.7,189.0 L68.9,193.0 L72.1,198.9 L73.1,204.7 L71.1,211.5 L63.2,226.4 L53.2,243.5 L37.9,266.6 L29.3,281.7 L25.0,289.9 L20.9,300.7 Z" fill="#5a9540" stroke="none"/>
<path d="M250.7,50.3 L250.3,48.9 L250.2,46.5 L249.9,44.5 L249.3,43.0 L248.1,41.7 L246.5,40.5 L244.8,39.7 L243.5,39.2 L242.4,38.9 L241.1,38.9 L239.8,39.5 L239.1,40.6 L238.7,41.8 L238.6,43.9 L239.1,45.9 L239.6,47.0 L240.1,47.9 L241.6,50.1 L242.8,52.0 L243.9,54.4 L245.7,57.4 L248.1,60.0 L250.2,62.1 L252.7,64.0 L255.1,65.0 L257.8,65.9 L260.5,66.4 L263.8,66.7 L266.7,66.5 L269.9,65.6 L271.8,64.5 L272.7,63.7 L273.2,62.6 L273.3,61.6 L273.3,60.5 L272.7,59.3 L271.6,57.9 L270.7,56.9 L269.7,56.4 L268.6,56.1 L267.5,56.0 L266.5,55.6 L265.6,54.9 L264.4,53.6 L263.2,52.1 L262.1,51.2 L260.9,50.8 L259.6,50.9 L258.2,51.4 L256.7,51.9 L254.7,52.4 L253.3,52.5 L251.9,52.1 L251.1,51.3 L250.7,50.3 Z" fill="#e7d6a3" stroke="none"/>
<path d="M679.1,579.1 L677.6,578.2 L675.8,577.8 L674.1,578.5 L673.0,579.2 L671.7,579.7 L670.1,579.4 L668.8,578.9 L667.6,579.0 L666.2,579.7 L664.7,581.1 L663.7,583.1 L663.5,585.5 L664.3,587.3 L665.6,588.4 L667.2,588.9 L668.8,588.7 L670.3,588.0 L671.2,587.0 L672.4,586.0 L673.9,585.3 L675.7,585.1 L677.0,584.9 L678.1,584.3 L679.1,583.1 L679.4,581.7 L679.5,580.2 L679.1,579.1 Z" fill="#e7d6a3" stroke="none"/>
<path d="M246.7,82.5 L245.0,83.8 L243.9,85.8 L244.6,88.8 L246.2,92.0 L248.3,94.4 L251.0,97.9 L252.8,100.8 L254.5,102.4 L256.0,103.1 L257.6,105.3 L259.3,108.6 L261.2,110.9 L263.2,111.9 L266.0,111.5 L267.5,109.3 L267.6,106.9 L267.1,104.1 L265.8,101.6 L263.9,99.6 L262.6,97.7 L262.9,95.8 L264.4,94.3 L266.8,94.2 L269.2,95.8 L271.8,100.5 L273.7,105.6 L275.0,108.4 L275.6,111.3 L276.5,114.2 L278.2,115.6 L280.7,116.2 L284.0,114.7 L285.7,111.5 L285.7,107.7 L283.3,102.1 L283.1,99.3 L284.5,97.6 L287.3,97.4 L289.2,98.4 L289.4,101.9 L289.7,107.6 L291.3,110.7 L295.3,112.8 L301.3,113.5 L306.5,114.6 L310.8,117.0 L313.3,119.9 L316.3,123.6 L319.1,128.5 L321.3,133.5 L323.6,137.0 L326.4,139.7 L329.4,140.8 L332.3,140.0 L333.3,137.8 L333.0,135.4 L331.0,133.3 L327.7,130.0 L323.2,122.7 L319.7,117.1 L314.1,110.2 L309.5,104.4 L305.2,99.1 L300.2,93.7 L297.4,90.6 L296.5,87.7 L296.4,83.0 L295.6,78.1 L294.0,75.1 L291.6,73.4 L286.7,72.5 L282.6,73.3 L280.5,75.2 L280.3,77.4 L281.8,79.5 L284.1,80.7 L287.7,81.4 L289.4,82.6 L290.2,84.8 L288.5,86.1 L285.6,87.0 L281.9,86.5 L279.9,85.1 L278.3,81.9 L277.4,80.4 L275.1,79.8 L271.4,80.8 L267.4,82.7 L265.7,83.7 L263.3,83.6 L260.8,82.7 L256.1,80.3 L254.1,79.8 L251.2,80.1 L248.7,81.0 L246.7,82.5 Z" fill="#e7d6a3" stroke="none"/>
<path d="M230.0,89.1 L232.5,93.1 L234.2,96.3 L235.6,98.2 L236.7,100.6 L236.8,103.4 L236.4,105.7 L235.4,106.7 L234.2,107.1 L232.1,107.2 L229.5,106.8 L228.3,107.0 L225.3,107.4 L222.6,107.5 L220.2,107.1 L218.3,107.2 L216.3,108.0 L214.2,110.0 L211.4,112.9 L209.7,113.6 L208.2,113.5 L205.4,112.1 L201.4,109.0 L199.9,106.7 L199.3,104.5 L200.1,102.5 L201.6,101.0 L203.1,100.4 L205.6,100.8 L207.5,100.8 L210.0,99.6 L211.8,98.2 L214.6,96.9 L218.5,93.9 L222.3,90.8 L224.3,88.8 L226.6,87.9 L229.0,88.2 L230.0,89.1 Z" fill="#e7d6a3" stroke="none"/>
<path d="M52.4,132.0 L49.9,134.9 L49.0,138.2 L50.4,140.3 L52.4,141.3 L54.2,140.7 L55.7,140.7 L57.1,141.6 L57.4,143.1 L57.0,144.9 L58.0,146.9 L59.7,147.7 L61.7,147.3 L65.5,143.7 L66.7,140.8 L66.7,138.2 L66.1,136.6 L65.0,136.2 L63.3,137.3 L61.8,137.5 L60.0,135.9 L60.2,133.0 L59.9,131.4 L57.9,130.6 L55.9,130.7 L54.3,131.0 L52.4,132.0 Z" fill="#e7d6a3" stroke="none"/>
<path d="M409.9,27.6 L407.5,30.3 L406.7,32.3 L406.6,34.6 L407.9,36.3 L409.3,36.6 L410.9,36.4 L412.1,37.3 L412.5,38.7 L412.8,41.4 L414.6,43.9 L416.3,45.0 L417.7,45.2 L420.1,44.2 L421.7,44.3 L422.6,45.3 L422.9,47.0 L423.5,48.0 L425.5,47.6 L427.3,45.9 L427.2,44.2 L425.8,42.9 L424.8,41.9 L424.5,38.4 L423.9,36.8 L422.9,35.7 L421.7,35.2 L419.6,35.4 L418.0,34.4 L417.7,32.4 L418.6,31.0 L419.2,29.4 L418.8,28.0 L417.5,26.5 L415.8,25.9 L413.8,25.8 L412.3,26.3 L409.9,27.6 Z" fill="#e7d6a3" stroke="none"/>
<path d="M481.5,1.4 L479.9,3.2 L479.5,5.5 L480.6,8.2 L482.6,10.4 L484.9,12.1 L485.8,16.0 L486.8,19.6 L486.7,21.3 L486.2,25.0 L487.6,28.2 L490.2,30.4 L491.9,30.9 L492.8,30.2 L492.5,28.4 L492.4,27.0 L495.2,25.8 L496.1,27.8 L497.4,29.1 L499.8,27.9 L501.5,24.8 L501.7,21.8 L500.7,19.1 L499.4,18.1 L497.2,18.1 L495.1,17.0 L494.6,14.8 L495.1,13.1 L497.0,12.0 L497.9,10.4 L496.3,6.7 L494.1,4.8 L492.6,4.2 L489.9,4.6 L487.4,3.9 L486.2,2.3 L485.4,0.6 L484.0,0.4 L481.5,1.4 Z" fill="#e7d6a3" stroke="none"/>
<path d="M531.2,174.5 L530.7,175.7 L529.4,176.6 L527.7,177.1 L526.6,178.7 L527.0,184.2 L528.1,186.1 L529.4,187.1 L529.9,188.3 L530.4,191.5 L532.1,193.9 L533.5,194.6 L535.9,194.0 L537.3,191.4 L537.4,188.2 L536.5,184.7 L536.6,180.9 L537.7,177.5 L538.2,172.6 L537.7,171.3 L536.5,170.9 L535.2,170.1 L534.6,168.5 L535.0,167.0 L536.9,166.1 L539.3,164.2 L540.6,161.5 L540.7,159.0 L539.9,157.2 L538.8,156.2 L536.3,156.4 L534.3,157.5 L533.5,159.1 L533.5,161.2 L533.2,162.6 L532.0,164.0 L530.7,164.1 L529.4,163.3 L528.4,162.3 L526.5,162.4 L524.3,164.3 L523.6,167.4 L524.4,169.8 L526.1,171.5 L527.6,172.6 L529.3,172.4 L530.7,172.7 L531.2,174.5 Z" fill="#e7d6a3" stroke="none"/>
<path d="M544.6,172.1 L544.6,173.8 L544.9,175.3 L544.6,176.6 L543.6,178.5 L542.6,180.2 L542.2,181.9 L542.7,184.0 L544.0,185.4 L545.7,186.2 L547.5,186.4 L548.7,185.6 L550.0,183.0 L550.3,182.3 L549.8,181.5 L548.9,181.3 L548.1,180.6 L547.5,178.4 L548.1,176.6 L549.2,175.5 L549.8,174.7 L549.1,172.7 L548.2,171.4 L547.1,170.7 L546.1,170.9 L545.2,171.3 L544.6,172.1 Z" fill="#e7d6a3" stroke="none"/>
<path d="M567.0,153.3 L565.8,154.2 L565.3,155.7 L565.6,157.7 L566.4,158.6 L568.3,158.9 L569.8,159.1 L570.6,159.8 L570.7,160.9 L570.1,161.8 L569.1,162.6 L568.2,163.0 L568.2,164.6 L569.2,166.3 L570.4,167.1 L572.4,166.7 L574.6,165.9 L575.2,164.8 L575.1,163.5 L574.0,162.4 L573.9,160.9 L574.6,159.8 L576.0,159.8 L577.7,159.5 L578.4,158.2 L578.3,156.3 L577.4,155.0 L576.3,154.3 L575.1,154.4 L574.4,155.2 L573.7,155.7 L572.3,155.5 L571.1,154.1 L570.2,153.1 L568.6,152.8 L567.0,153.3 Z" fill="#e7d6a3" stroke="none"/>
<path d="M806.4,181.0 L807.3,181.9 L807.5,183.2 L806.9,184.7 L805.8,186.0 L804.6,186.7 L804.0,186.5 L802.5,185.1 L801.0,184.2 L799.7,184.0 L798.1,184.9 L797.3,187.1 L797.6,188.9 L798.7,190.3 L798.5,191.8 L797.2,193.1 L795.3,193.8 L793.5,193.5 L791.5,191.9 L790.3,189.6 L788.5,188.5 L785.6,189.3 L784.5,190.7 L784.1,192.1 L784.4,194.0 L784.1,195.3 L782.0,196.3 L779.0,196.2 L776.3,194.2 L775.6,191.7 L776.6,189.3 L778.1,187.7 L780.0,186.5 L783.1,185.3 L785.6,184.1 L787.5,181.7 L788.7,180.3 L790.8,179.5 L792.8,179.9 L794.7,181.1 L795.8,181.6 L797.6,181.5 L799.9,180.3 L802.8,179.7 L804.6,179.9 L806.4,181.0 Z" fill="#e7d6a3" stroke="none"/>
<path d="M490.7,685.6 L489.8,701.8 L498.9,702.3 L499.8,686.0 L490.7,685.6 Z" fill="#4f8a3e" stroke="none"/>
<path d="M493.1,637.7 L491.6,664.5 L501.0,665.0 L502.5,638.2 L493.1,637.7 Z" fill="#4f8a3e" stroke="none"/>
<path d="M554.3,557.0 L551.4,558.7 L549.7,560.7 L548.1,563.0 L546.9,565.4 L546.3,568.4 L546.5,571.3 L547.3,573.5 L549.3,576.0 L553.3,579.3 L558.8,582.8 L570.0,589.3 L581.5,595.3 L590.1,599.1 L595.1,601.2 L598.8,602.0 L602.1,602.1 L605.0,601.6 L607.8,600.7 L610.2,599.0 L612.0,597.2 L613.5,594.6 L614.2,591.6 L614.2,589.3 L613.6,586.8 L612.0,584.8 L608.5,581.9 L605.0,579.7 L595.3,574.7 L583.2,568.1 L572.5,562.2 L564.6,557.9 L560.5,556.4 L557.3,556.2 L554.3,557.0 Z" fill="#4f8a3e" stroke="none"/>
<path d="M495.5,593.2 L494.3,619.8 L503.6,620.3 L504.8,593.6 L495.5,593.2 Z" fill="#4f8a3e" stroke="none"/>
<path d="M498.4,544.3 L497.6,556.1 L506.5,556.7 L507.2,544.8 L498.4,544.3 Z" fill="#4f8a3e" stroke="none"/>
<path d="M224.7,251.0 L222.6,252.3 L220.5,254.3 L217.7,257.7 L214.8,261.6 L213.7,263.5 L212.9,265.5 L212.7,268.1 L213.1,269.9 L213.6,271.2 L214.8,272.5 L216.2,273.2 L217.8,273.6 L219.7,273.6 L221.7,272.8 L224.2,270.9 L230.3,263.1 L231.8,260.6 L232.5,258.0 L232.6,256.0 L232.2,254.2 L231.5,252.9 L230.5,251.9 L228.8,250.9 L226.8,250.7 L224.7,251.0 Z" fill="#4f8a3e" stroke="none"/>
<path d="M171.3,342.5 L169.5,342.1 L167.6,342.6 L165.2,344.8 L164.3,346.1 L163.6,347.5 L163.2,349.1 L163.7,350.8 L164.6,352.0 L166.0,352.7 L167.8,352.6 L169.7,351.8 L171.4,349.9 L173.0,347.2 L173.3,345.4 L172.8,343.6 L171.3,342.5 Z" fill="#4f8a3e" stroke="none"/>
<path d="M251.7,312.1 L249.3,313.2 L241.9,319.9 L237.6,323.7 L236.3,326.4 L236.2,329.4 L237.4,330.7 L239.5,331.6 L241.9,331.5 L245.5,328.9 L249.1,325.7 L253.4,321.9 L255.6,319.7 L256.9,317.3 L257.0,315.4 L256.0,313.8 L254.2,312.3 L251.7,312.1 Z" fill="#4f8a3e" stroke="none"/>
<path d="M172.5,134.5 L171.8,135.3 L171.3,136.6 L171.3,137.6 L171.5,138.7 L172.1,139.8 L173.4,140.8 L175.0,141.6 L176.9,142.1 L179.0,142.1 L180.4,141.8 L181.5,141.3 L182.4,140.4 L182.9,139.3 L182.8,137.9 L182.4,136.7 L181.6,135.4 L180.8,134.4 L179.6,133.5 L178.1,132.9 L176.4,132.8 L174.9,133.0 L173.5,133.6 L172.5,134.5 Z" fill="#4f8a3e" stroke="none"/>
<path d="M146.1,88.7 L145.4,86.7 L144.6,85.2 L143.7,84.4 L142.7,84.0 L141.8,83.8 L140.8,83.9 L139.6,84.3 L138.3,85.3 L137.4,86.7 L136.8,88.9 L136.6,91.5 L136.9,95.0 L137.9,99.3 L139.8,104.3 L142.4,108.7 L147.1,114.8 L152.4,120.8 L153.6,121.7 L154.7,122.3 L155.9,122.5 L156.7,122.3 L157.4,121.8 L157.8,120.9 L157.9,119.6 L157.7,118.5 L156.7,116.2 L153.7,110.3 L151.2,105.2 L149.3,100.2 L146.1,88.7 Z" fill="#4f8a3e" stroke="none"/>
<path d="M145.4,36.2 L143.3,36.9 L142.2,37.8 L141.6,39.1 L141.0,41.2 L140.8,44.4 L141.2,47.6 L142.5,51.7 L143.3,56.7 L143.4,63.0 L143.1,65.8 L143.5,68.0 L144.6,69.5 L146.0,70.1 L147.7,70.2 L150.2,69.4 L152.5,67.9 L154.8,64.7 L155.5,62.4 L155.4,58.0 L155.0,54.4 L152.9,46.0 L151.1,40.2 L149.0,37.4 L147.0,36.3 L145.4,36.2 Z" fill="#4f8a3e" stroke="none"/>
<path d="M105.8,-16.3 L104.7,-17.6 L103.7,-18.2 L102.4,-18.4 L101.2,-18.1 L100.4,-17.3 L100.1,-16.0 L100.2,-14.3 L101.0,-12.0 L103.2,-8.2 L107.6,-0.0 L111.9,8.1 L114.8,13.5 L116.5,17.7 L117.7,21.3 L119.0,23.8 L120.1,24.8 L121.2,25.1 L122.7,25.0 L123.7,24.4 L124.5,23.3 L125.1,21.7 L125.0,19.7 L124.3,17.6 L123.0,15.5 L121.7,14.0 L120.3,12.3 L117.3,7.1 L111.4,-4.7 L107.5,-13.0 L105.8,-16.3 Z" fill="#4f8a3e" stroke="none"/>
<path d="M637.3,186.7 L612.6,217.8 L623.8,226.0 L647.7,194.8 L637.3,186.7 Z" fill="#4f8a3e" stroke="none"/>
<path d="M677.2,136.4 L648.6,169.7 L658.6,178.3 L687.2,145.0 L677.2,136.4 Z" fill="#4f8a3e" stroke="none"/>
<path d="M608.2,225.8 L615.1,231.5 L607.1,241.1 L600.2,235.5 L608.2,225.8 Z" fill="#4f8a3e" stroke="none"/>
<path d="M29.1,81.1 L27.3,79.6 L25.9,78.9 L24.6,78.8 L23.1,78.9 L21.9,79.3 L20.8,79.9 L19.8,80.9 L18.8,82.4 L18.1,84.6 L17.9,87.4 L18.3,91.1 L19.0,95.7 L20.0,101.1 L21.8,106.8 L25.5,114.8 L28.3,121.4 L29.1,123.2 L29.7,126.2 L29.8,128.6 L29.7,133.2 L28.7,142.1 L28.2,146.9 L28.3,148.8 L28.7,150.5 L29.8,152.5 L31.0,153.8 L32.3,154.9 L33.4,155.3 L35.1,155.1 L36.3,154.5 L37.5,153.4 L38.4,151.7 L39.0,149.4 L39.3,147.3 L40.3,140.5 L41.3,135.4 L41.9,133.0 L43.2,129.9 L44.1,126.5 L44.5,124.2 L44.4,121.8 L43.3,119.1 L41.0,114.7 L38.6,110.4 L37.4,107.5 L36.6,104.7 L35.8,100.2 L35.1,95.9 L34.0,92.1 L32.3,86.6 L30.5,83.1 L29.1,81.1 Z" fill="#2f7825" stroke="none"/>
<path d="M201.7,58.2 L197.9,64.2 L195.3,73.4 L195.6,80.4 L198.3,85.5 L201.7,88.3 L207.9,88.9 L213.1,88.9 L218.0,87.4 L221.4,85.2 L223.6,81.9 L225.1,79.4 L228.5,77.0 L231.6,76.3 L237.2,75.7 L242.3,74.7 L246.1,72.8 L247.5,70.2 L247.2,67.8 L245.6,64.6 L242.6,61.1 L239.1,58.2 L235.6,56.1 L230.9,53.9 L225.6,52.3 L221.9,52.0 L216.3,51.9 L211.9,52.7 L206.5,55.1 L201.7,58.2 Z" fill="#2f7825" stroke="none"/>
<path d="M556.8,176.2 L557.7,180.3 L556.3,184.4 L553.2,188.4 L551.9,192.6 L552.2,196.0 L554.0,198.9 L558.0,201.5 L562.3,202.4 L567.0,201.7 L571.6,199.5 L577.2,193.6 L582.0,188.0 L583.7,184.6 L584.1,182.2 L584.1,179.4 L582.4,176.4 L580.6,174.8 L578.6,173.8 L575.2,173.6 L570.2,173.2 L566.6,171.7 L564.1,169.1 L561.8,165.3 L560.1,163.1 L557.8,162.4 L554.7,163.3 L553.4,164.2 L552.5,166.7 L554.0,170.0 L555.7,173.3 L556.8,176.2 Z" fill="#2f7825" stroke="none"/>
<path d="M800.3,198.7 L797.9,199.7 L793.2,200.0 L788.6,200.4 L784.7,201.1 L781.7,202.9 L778.8,206.4 L778.1,210.7 L779.0,214.5 L780.9,218.3 L785.1,222.2 L790.5,224.5 L796.4,225.4 L803.7,224.3 L808.9,221.6 L813.5,216.3 L815.8,211.9 L817.1,207.4 L817.2,200.4 L816.5,196.6 L815.8,194.6 L814.2,193.6 L812.3,192.9 L810.3,193.0 L808.5,193.8 L805.8,195.8 L803.6,197.1 L800.3,198.7 Z" fill="#2f7825" stroke="none"/>
<path d="M494.2,693.3 L515.9,314.3 L373.3,125.6 L216.6,68.5" fill="none" stroke="#ffd64a" stroke-width="5" stroke-linecap="round" stroke-linejoin="round" opacity="0.95"/>
</svg>