<svg xmlns="http://www.w3.org/2000/svg" viewBox="0 0 299 800" preserveAspectRatio="xMidYMid meet">
<rect width="100%" height="100%" fill="#143018"/>
<path d="M402.7,1200.3 L153.8,1075.8 L-6.2,939.1 L-150.6,840.3 L-240.1,747.3 L11.2,904.4 L27.0,867.8 L-53.6,753.3 L7.0,711.2 L169.3,958.0 L296.0,1071.4 L402.7,1200.3 Z" fill="#0f2810" stroke="none"/>
<path d="M181.4,803.5 L175.4,838.9 L215.7,926.6 L252.2,894.5 L236.9,866.1 L203.0,846.0 L181.4,803.5 Z" fill="#0f2810" stroke="none"/>
<path d="M109.0,561.4 L158.6,721.0 L169.7,714.2 L164.2,575.7 L109.0,561.4 Z" fill="#0f2810" stroke="none"/>
<path d="M373.7,198.3 L322.7,151.8 L266.7,142.5 L306.2,225.7 L293.6,387.1 L276.4,434.9 L286.0,447.0 L373.7,198.3 Z" fill="#0f2810" stroke="none"/>
<path d="M351.4,35.5 L348.2,40.0 L343.9,45.9 L338.9,51.3 L333.3,57.3 L327.8,63.0 L323.6,68.6 L318.5,74.6 L316.1,79.1 L314.8,82.8 L313.4,89.0 L313.1,94.4 L313.9,104.8 L317.2,114.2 L329.7,130.5 L380.1,189.0 L410.9,227.0 L427.0,246.8 L437.5,259.5 L445.0,265.0 L452.2,266.2 L461.3,266.2 L473.4,262.2 L484.7,259.5 L497.2,260.5 L507.1,263.0 L522.1,270.7 L532.3,278.5 L542.2,284.0 L550.0,285.1 L557.3,284.1 L565.9,280.1 L575.0,273.3 L584.0,263.8 L591.8,254.1 L603.8,240.4 L610.1,234.0 L501.5,140.8 L448.5,89.9 L422.0,65.1 L392.8,41.8 L363.2,13.2 L360.0,19.9 L355.5,27.9 L351.4,35.5 Z" fill="#2b5a2a" stroke="none"/>
<path d="M356.6,7.6 L284.2,-64.5 L212.7,-2.9 L226.3,12.0 L241.7,28.7 L303.2,100.9 L304.2,89.9 L306.3,79.8 L310.3,71.0 L318.2,60.9 L327.8,50.3 L335.5,42.1 L342.7,33.9 L349.2,24.8 L356.6,7.6 Z" fill="#2b5a2a" stroke="none"/>
<path d="M100.3,297.7 L98.0,282.1 L97.5,266.4 L95.3,239.9 L91.0,224.8 L88.2,205.8 L86.7,195.2 L85.9,178.5 L86.2,162.9 L87.9,147.2 L89.5,143.4 L90.8,138.1 L91.8,132.4 L93.1,128.9 L97.6,114.1 L101.2,110.1 L102.2,105.6 L103.3,101.2 L109.3,98.0 L116.7,91.8 L117.6,87.4 L120.2,86.3 L120.9,81.3 L119.6,69.2 L123.0,61.8 L125.2,58.7 L131.1,54.7 L136.3,51.2 L138.6,47.3 L139.7,42.6 L144.3,41.8 L148.1,46.1 L152.7,47.8 L160.8,49.6 L166.1,51.0 L170.7,55.5 L176.1,62.2 L178.1,66.3 L177.2,72.9 L174.0,77.4 L167.1,80.3 L162.3,81.3 L154.9,89.6 L152.6,96.3 L154.3,104.0 L151.9,106.4 L149.1,104.9 L146.3,103.3 L142.0,102.1 L138.4,102.6 L135.9,103.0 L133.7,104.2 L131.4,106.6 L129.6,111.2 L129.6,115.4 L131.9,117.8 L137.3,120.7 L136.3,124.0 L133.1,122.3 L130.2,122.0 L127.1,123.5 L125.9,126.8 L125.3,129.9 L126.5,133.6 L129.6,136.0 L134.4,139.1 L140.8,141.1 L147.4,142.5 L152.8,143.6 L153.6,150.5 L152.9,156.8 L151.0,164.7 L149.5,175.6 L151.0,180.5 L155.5,184.5 L156.0,189.3 L155.8,193.7 L158.3,197.4 L163.6,199.8 L166.4,201.4 L170.6,207.6 L174.1,217.1 L172.4,229.8 L169.6,239.3 L168.4,254.1 L169.2,270.1 L170.6,273.0 L173.0,294.1 L173.5,304.4 L170.8,319.6 L171.0,339.6 L174.8,361.1 L175.7,380.9 L177.0,400.3 L178.7,424.5 L182.7,450.4 L186.4,470.8 L186.2,497.9 L183.8,510.9 L186.7,528.7 L186.9,544.9 L188.0,555.7 L191.7,563.0 L197.2,564.9 L201.8,564.1 L209.3,563.2 L211.1,611.3 L182.9,615.7 L186.9,646.7 L190.4,655.7 L196.1,668.5 L201.2,679.5 L206.2,684.7 L201.4,696.4 L200.9,705.9 L196.8,713.8 L188.6,715.1 L192.4,739.5 L177.2,739.3 L174.6,714.7 L169.7,714.2 L167.1,680.4 L165.8,665.2 L166.9,652.9 L166.4,633.7 L164.9,601.9 L164.2,575.7 L158.7,550.4 L156.5,536.4 L154.1,522.1 L147.5,512.4 L140.9,495.9 L138.3,469.7 L136.8,449.1 L130.2,427.3 L127.1,408.4 L125.5,396.5 L121.8,378.5 L120.0,360.3 L119.4,343.8 L114.3,328.8 L108.8,314.3 L100.3,297.7 Z" fill="#2b5a2a" stroke="none"/>
<path d="M154.3,104.0 L156.8,108.6 L158.1,113.0 L158.6,118.0 L157.1,123.0 L155.1,128.5 L154.3,133.4 L153.5,139.8 L152.8,143.6 L147.4,142.5 L140.8,141.1 L134.4,139.1 L129.6,136.0 L134.9,136.6 L139.5,134.4 L141.6,130.8 L142.4,127.7 L141.0,124.6 L138.6,123.8 L136.3,124.0 L137.3,120.7 L143.2,121.4 L146.3,122.7 L149.9,123.6 L152.6,123.4 L154.5,120.3 L155.3,114.5 L154.2,111.3 L151.9,106.4 L154.3,104.0 Z" fill="#2b5a2a" stroke="none"/>
<path d="M209.3,563.2 L213.7,556.8 L213.9,549.0 L212.6,536.7 L212.8,528.7 L215.6,511.5 L215.3,499.4 L215.4,480.3 L215.4,464.2 L212.2,448.7 L208.0,435.7 L204.9,422.3 L201.7,407.3 L199.0,394.7 L201.5,382.1 L205.3,368.5 L207.4,357.8 L205.7,344.6 L204.7,333.9 L203.4,315.7 L204.2,298.6 L205.5,282.4 L203.0,265.9 L200.5,252.3 L200.7,241.0 L202.0,232.0 L202.6,215.4 L201.9,199.3 L198.8,184.6 L197.3,168.3 L194.2,154.9 L187.1,145.2 L182.7,139.0 L178.5,127.7 L176.0,118.0 L173.3,98.8 L181.8,97.1 L186.2,92.5 L187.7,81.4 L190.4,69.4 L183.5,58.8 L177.5,53.1 L176.0,43.5 L175.1,34.2 L169.1,26.3 L162.1,18.1 L153.1,9.9 L151.1,-24.6 L189.0,-14.5 L193.0,-12.0 L195.7,-6.4 L200.9,-12.1 L205.1,-17.7 L208.4,-1.8 L210.3,13.1 L217.4,31.5 L224.4,54.2 L225.0,65.0 L225.2,75.1 L227.3,81.2 L233.8,85.1 L241.3,86.4 L244.9,89.7 L246.4,103.1 L247.4,114.5 L242.6,120.7 L235.2,122.8 L214.7,125.6 L198.8,127.5 L190.2,128.7 L195.0,140.2 L198.4,153.2 L203.0,163.5 L215.6,178.3 L229.0,184.8 L239.2,189.2 L250.7,195.5 L259.1,205.2 L265.8,220.7 L270.0,236.4 L274.0,251.9 L276.7,270.7 L278.0,287.3 L275.3,303.8 L274.4,324.9 L271.9,343.2 L268.3,362.0 L266.3,375.0 L260.8,383.6 L254.9,393.6 L250.7,402.4 L254.5,410.4 L259.1,420.2 L263.7,435.7 L262.9,453.8 L263.5,468.0 L265.6,482.9 L269.2,502.8 L271.3,525.2 L274.6,542.1 L278.0,561.6 L278.8,578.4 L278.8,592.4 L276.7,603.5 L271.7,619.4 L275.8,633.5 L273.6,638.0 L270.2,647.1 L269.3,651.7 L267.5,655.8 L264.3,657.5 L260.5,657.6 L253.4,655.4 L247.2,653.7 L243.7,651.5 L242.2,650.9 L240.6,650.5 L238.0,647.7 L230.9,637.2 L228.3,624.9 L226.4,616.3 L222.7,611.7 L217.2,610.4 L211.1,611.3 L209.3,563.2 Z" fill="#2b5a2a" stroke="none"/>
<path d="M201.9,743.4 L199.4,747.3 L195.7,750.3 L191.7,752.7 L188.8,752.7 L184.8,749.3 L179.6,746.2 L175.7,743.3 L172.9,740.4 L168.8,737.1 L165.4,733.9 L161.6,731.9 L157.7,731.8 L155.5,732.5 L153.2,734.7 L151.9,737.5 L151.9,742.9 L152.4,747.4 L153.2,751.0 L154.4,755.1 L156.6,759.0 L160.1,765.9 L164.1,768.5 L169.1,772.6 L172.6,775.3 L177.6,777.0 L182.7,777.2 L187.2,776.0 L194.5,774.6 L205.4,763.5 L204.0,760.4 L204.2,755.0 L205.4,749.8 L206.8,742.9 L207.3,735.6 L208.0,732.0 L201.1,731.3 L202.2,735.7 L202.5,739.6 L201.9,743.4 Z" fill="#2b5a2a" stroke="none"/>
<path d="M355.0,897.0 L351.4,892.3 L348.9,886.3 L347.8,882.1 L344.9,879.1 L340.1,878.1 L336.5,876.2 L332.1,873.1 L330.7,871.2 L327.3,870.4 L323.3,867.4 L321.2,864.5 L316.9,861.8 L313.9,860.5 L306.6,857.1 L299.1,847.5 L297.0,844.0 L291.9,840.6 L287.3,838.7 L281.0,840.2 L277.1,839.4 L271.0,836.0 L267.6,829.7 L264.9,821.8 L261.3,814.2 L256.7,806.9 L251.9,800.6 L245.4,794.8 L239.2,790.4 L233.1,787.4 L227.2,783.0 L216.5,776.1 L208.6,770.5 L205.4,763.5 L194.5,774.6 L201.2,774.2 L210.5,778.4 L219.5,784.3 L227.8,788.7 L235.6,794.3 L246.9,803.3 L251.3,808.8 L257.2,818.8 L261.1,826.6 L266.0,839.8 L264.9,845.9 L264.3,852.6 L266.8,859.3 L268.5,869.1 L272.6,873.5 L276.2,876.9 L279.1,883.3 L282.1,888.2 L287.3,891.5 L291.7,894.0 L293.2,896.1 L296.3,904.1 L300.3,908.1 L308.7,911.6 L314.8,914.3 L321.2,915.8 L328.8,916.0 L335.3,915.6 L342.0,911.6 L348.3,911.0 L351.4,908.1 L355.6,905.5 L357.9,903.7 L355.0,897.0 Z" fill="#2b5a2a" stroke="none"/>
<path d="M367.7,817.0 L387.2,827.3 L392.6,833.0 L398.4,840.5 L402.1,844.5 L407.3,850.1 L412.4,857.1 L400.1,870.4 L393.7,867.5 L384.3,865.8 L377.3,859.6 L368.4,847.1 L354.6,832.1 L340.7,821.8 L316.5,806.5 L305.0,793.1 L295.1,781.5 L286.7,768.4 L274.2,756.2 L261.0,745.4 L249.1,740.6 L235.2,732.5 L222.2,728.2 L212.3,727.1 L209.5,727.6 L208.1,730.9 L208.0,732.0 L201.1,731.3 L199.9,722.7 L198.0,716.8 L196.8,713.8 L200.9,705.9 L201.4,696.4 L206.2,684.7 L201.2,679.5 L204.1,674.9 L208.1,666.3 L217.2,660.7 L221.2,655.9 L227.2,648.8 L230.9,637.2 L240.6,650.5 L238.7,651.2 L237.6,653.3 L236.9,656.2 L237.2,659.1 L238.8,662.4 L241.6,665.1 L247.5,667.3 L255.9,671.3 L263.7,675.1 L271.9,680.0 L277.7,683.7 L280.6,690.6 L280.2,698.2 L280.5,706.4 L284.3,716.5 L289.6,733.0 L298.9,744.8 L314.3,761.7 L327.6,771.9 L337.2,780.2 L352.8,801.7 L367.7,817.0 Z" fill="#2b5a2a" stroke="none"/>
<path d="M-43.7,5.0 L-39.2,4.0 L-35.6,1.5 L-28.0,-7.5 L-24.3,-13.1 L-20.9,-18.5 L-15.3,-31.1 L-11.9,-42.0 L-9.8,-51.6 L-7.7,-57.9 L-4.5,-65.9 L0.4,-70.1 L8.9,-73.6 L14.9,-73.9 L21.1,-72.6 L29.7,-70.1 L34.9,-67.8 L39.5,-67.1 L46.5,-68.8 L54.6,-69.0 L64.3,-66.8 L70.7,-62.9 L77.4,-59.4 L88.4,-53.2 L111.3,-41.8 L113.6,-40.8 L124.7,-35.9 L136.6,-30.4 L146.0,-25.9 L151.1,-24.6 L153.1,9.9 L148.5,23.7 L146.4,30.1 L144.8,34.2 L143.6,37.2 L143.6,39.8 L144.3,41.8 L139.7,42.6 L139.3,38.7 L134.8,35.8 L130.5,37.5 L128.0,41.5 L124.4,46.1 L120.8,49.4 L117.2,50.5 L112.4,52.6 L108.0,56.0 L105.4,60.5 L103.1,64.3 L99.1,67.4 L94.1,69.3 L87.8,69.8 L84.5,70.1 L81.4,70.5 L78.4,72.0 L76.6,73.8 L74.5,76.2 L73.2,81.7 L72.6,89.6 L72.0,97.4 L71.0,105.9 L70.3,111.9 L68.3,116.6 L64.3,122.0 L58.4,127.9 L53.3,130.6 L48.4,131.2 L43.7,133.4 L40.1,136.7 L38.1,140.3 L37.1,145.3 L35.6,151.2 L35.9,156.1 L38.7,161.4 L42.7,167.3 L51.6,183.5 L53.6,190.9 L55.5,199.2 L57.2,206.4 L57.6,216.0 L55.9,221.5 L54.6,229.0 L56.0,240.7 L56.3,248.7 L55.5,255.2 L56.3,262.8 L63.6,279.4 L66.9,286.7 L71.9,303.5 L76.6,322.7 L76.3,329.7 L72.8,337.3 L68.8,344.5 L63.8,354.3 L64.8,364.1 L77.1,397.1 L81.1,419.6 L70.6,419.1 L66.1,402.8 L61.8,392.0 L54.9,370.5 L49.8,360.0 L46.9,355.3 L42.3,352.1 L36.1,349.5 L29.3,343.5 L22.0,334.8 L11.1,324.7 L8.0,318.0 L0.8,299.5 L-5.5,287.7 L-10.9,282.5 L-16.2,280.0 L-17.0,258.0 L-11.9,246.7 L-14.4,237.2 L-21.4,219.5 L-25.2,207.7 L-26.5,200.0 L-27.5,184.0 L-26.2,166.5 L-23.2,155.7 L-23.7,145.9 L-24.7,136.7 L-27.7,127.7 L-32.2,121.7 L-37.9,113.4 L-43.4,100.7 L-47.2,96.3 L-49.4,90.1 L-45.2,85.7 L-42.7,79.3 L-41.2,70.4 L-42.5,62.9 L-44.8,59.9 L-43.7,5.0 Z" fill="#2b5a2a" stroke="none"/>
<path d="M70.6,419.1 L63.9,416.2 L56.4,416.0 L49.9,415.4 L44.0,413.7 L39.2,414.6 L36.9,417.7 L35.9,423.2 L33.3,425.4 L24.3,432.8 L22.9,446.0 L20.1,454.8 L21.2,461.7 L21.0,468.2 L22.0,480.5 L20.3,482.7 L13.8,506.0 L20.3,511.8 L24.5,516.8 L27.1,523.7 L29.5,530.3 L36.3,538.3 L39.3,541.3 L38.8,551.8 L36.0,574.2 L31.3,589.7 L33.8,611.6 L34.5,621.6 L36.0,627.8 L40.1,641.6 L43.8,650.3 L44.0,658.0 L41.0,666.0 L31.8,679.0 L25.5,685.5 L20.3,692.6 L19.5,700.4 L20.8,708.3 L28.6,725.3 L37.6,736.1 L43.6,749.3 L50.1,761.8 L58.1,776.1 L64.5,788.8 L75.1,804.2 L86.0,819.2 L94.9,828.9 L109.6,836.4 L117.9,841.2 L126.6,849.6 L136.1,857.1 L141.9,861.2 L146.1,860.2 L150.8,847.7 L156.3,830.1 L155.9,820.6 L152.9,813.2 L149.3,806.9 L146.9,792.9 L146.8,782.9 L143.3,769.3 L141.1,761.8 L138.3,757.8 L132.9,753.3 L128.1,745.1 L127.4,733.3 L127.9,721.1 L127.9,709.4 L121.4,702.3 L113.9,695.5 L101.5,687.5 L97.1,682.8 L97.1,675.6 L96.8,670.0 L100.8,657.8 L102.6,647.0 L102.4,641.3 L100.6,630.5 L97.8,613.3 L96.8,600.5 L96.0,589.2 L95.1,575.7 L96.9,566.0 L95.8,552.2 L98.4,544.2 L101.9,535.0 L103.8,529.2 L107.1,525.8 L113.1,524.7 L117.4,528.7 L123.9,541.0 L132.1,565.8 L138.6,565.3 L143.9,561.5 L144.3,553.7 L139.3,541.0 L133.1,523.7 L127.9,509.7 L116.3,511.8 L111.1,507.4 L100.9,508.8 L98.0,512.2 L95.6,510.5 L94.8,503.7 L95.1,497.5 L98.0,489.5 L95.3,475.7 L94.8,466.9 L89.3,445.2 L73.8,445.7 L69.8,459.0 L65.5,472.0 L60.5,465.2 L63.1,452.9 L65.3,442.0 L68.8,438.9 L73.5,436.4 L79.6,435.5 L85.5,433.0 L82.6,425.0 L81.1,419.6 L70.6,419.1 Z" fill="#2b5a2a" stroke="none"/>
<path d="M89.3,445.2 L87.6,439.0 L85.5,433.0 L79.6,435.5 L77.5,439.9 L73.8,445.7 L89.3,445.2 Z" fill="#2b5a2a" stroke="none"/>
<path d="M111.1,507.4 L106.9,504.0 L102.3,499.0 L99.5,493.2 L98.0,489.5 L95.1,497.5 L99.8,502.4 L100.6,505.7 L100.9,508.8 L111.1,507.4 Z" fill="#2b5a2a" stroke="none"/>
<path d="M-49.4,90.1 L-56.6,88.3 L-58.2,81.6 L-57.9,73.0 L-55.9,66.6 L-52.6,62.3 L-44.8,59.9 L-43.7,5.0 L-80.3,4.0 L-79.0,32.4 L-79.2,50.4 L-79.0,73.2 L-76.6,105.3 L-78.1,127.1 L-75.5,153.3 L-76.4,165.8 L-75.9,190.6 L-79.0,203.6 L-81.9,219.2 L-80.1,269.3 L-82.3,292.4 L-81.0,305.2 L-76.6,320.6 L-72.0,343.9 L-70.4,359.0 L-72.6,379.5 L-71.8,396.6 L-73.3,409.2 L-74.2,429.2 L-74.6,443.7 L-70.4,478.4 L-69.3,494.5 L-69.3,505.7 L-77.0,522.8 L-84.9,537.3 L-90.2,548.1 L-96.8,564.1 L-99.2,589.2 L-98.6,605.7 L-94.8,617.6 L-89.6,634.1 L-86.0,642.4 L-83.0,662.6 L-77.7,676.9 L-69.6,695.4 L-66.5,702.6 L-61.2,714.3 L-57.0,719.6 L-50.9,723.7 L-42.3,723.3 L-32.2,715.8 L-23.4,708.8 L-16.8,703.7 L-10.0,693.6 L-8.4,685.0 L-10.9,675.2 L-14.2,667.7 L-19.0,660.0 L-24.7,652.5 L-30.2,644.4 L-33.9,636.3 L-38.3,622.8 L-42.4,605.8 L-43.9,594.2 L-43.8,585.0 L-42.9,578.2 L-41.3,573.2 L-35.9,565.3 L-30.3,563.7 L-22.3,559.8 L-17.8,556.8 L-15.1,554.0 L-10.4,549.0 L-6.1,541.3 L-3.4,534.7 L-0.6,518.0 L1.9,511.7 L4.9,507.2 L7.5,505.4 L10.9,504.8 L13.8,506.0 L20.3,482.7 L14.9,480.4 L3.5,475.7 L-5.6,470.2 L-10.9,467.4 L-15.4,464.0 L-18.6,461.2 L-18.4,456.5 L-16.8,451.5 L-14.3,447.5 L-10.4,438.1 L-6.8,429.0 L-6.1,422.1 L-6.9,413.9 L-9.3,407.2 L-11.9,393.7 L-13.8,380.6 L-14.8,368.4 L-16.8,350.4 L-21.1,328.8 L-24.8,311.1 L-26.4,301.3 L-28.4,293.1 L-29.4,287.3 L-29.1,281.3 L-28.3,278.3 L-25.6,276.8 L-20.8,276.4 L-16.2,280.0 L-17.0,258.0 L-20.1,262.8 L-26.4,263.1 L-28.8,256.3 L-31.1,246.0 L-32.9,233.8 L-34.4,223.0 L-35.1,211.1 L-38.3,204.8 L-43.6,200.3 L-49.1,194.5 L-51.4,185.5 L-52.1,169.3 L-52.1,157.0 L-50.9,136.2 L-51.8,127.8 L-53.3,107.7 L-52.9,102.7 L-51.8,98.8 L-49.6,96.8 L-47.2,96.3 L-49.4,90.1 Z" fill="#2b5a2a" stroke="none"/>
<path d="M-75.3,-4.9 L-70.1,-2.5 L-61.1,0.7 L-53.6,1.4 L-43.1,0.1 L-37.4,-3.5 L-32.4,-9.1 L-27.9,-15.1 L-22.9,-22.6 L-19.1,-32.9 L-16.3,-42.1 L-12.4,-56.4 L-13.3,-61.1 L-15.4,-64.9 L-72.9,-87.8 L-79.7,-7.0 L-75.3,-4.9 Z" fill="#2b5a2a" stroke="none"/>
<path d="M226.2,961.1 L220.4,962.4 L216.9,967.8 L213.3,970.6 L213.7,973.5 L221.2,973.1 L226.1,979.2 L225.0,986.5 L215.6,992.6 L207.2,998.6 L202.4,992.4 L200.3,988.6 L201.1,982.1 L198.2,978.7 L190.2,974.3 L178.1,968.7 L169.3,953.6 L169.1,946.9 L175.6,942.7 L184.6,939.2 L193.4,933.5 L192.4,928.1 L188.2,921.2 L181.5,910.0 L176.2,896.9 L171.8,884.1 L168.3,873.0 L163.8,857.5 L161.1,852.3 L158.4,849.3 L155.3,850.8 L160.9,840.9 L166.2,849.7 L170.6,858.7 L176.8,877.2 L180.0,886.6 L182.7,895.2 L186.7,905.7 L189.2,911.7 L193.2,917.2 L200.3,925.7 L203.4,930.8 L203.9,942.5 L205.7,949.9 L211.8,952.3 L218.0,951.3 L226.2,961.1 Z" fill="#2b5a2a" stroke="none"/>
<path d="M160.9,840.9 L166.2,827.2 L170.0,815.9 L175.5,806.3 L184.5,793.5 L192.2,785.6 L197.0,780.7 L201.2,774.2 L194.5,774.6 L187.2,782.4 L180.1,789.5 L169.4,805.0 L163.5,817.2 L158.5,827.9 L156.3,830.1 L150.8,847.7 L155.3,850.8 L160.9,840.9 Z" fill="#2b5a2a" stroke="none"/>
<path d="M202.6,215.4 L194.4,243.0 L184.4,269.7 L173.0,294.1 L173.5,304.4 L180.1,294.7 L190.1,271.0 L197.1,257.7 L200.5,252.3 L200.7,241.0 L202.0,232.0 L202.6,215.4 Z" fill="#2b5a2a" stroke="none"/>
<path d="M184.2,732.7 L147.9,357.7 L114.8,165.2 L158.3,67.3" fill="none" stroke="#4e8b39" stroke-width="52.3" stroke-linecap="round" stroke-linejoin="round" opacity="0.85"/>
<path d="M257.5,221.5 L253.6,212.3 L250.3,202.1 L244.5,195.1 L237.5,193.5 L230.6,195.4 L223.1,202.4 L219.7,210.7 L213.9,220.4 L206.7,232.9 L203.4,249.0 L206.1,261.0 L210.9,286.2 L209.5,314.0 L207.2,341.2 L213.9,352.9 L214.8,361.8 L211.1,374.6 L207.0,393.2 L205.3,409.0 L210.6,435.7 L216.1,453.5 L218.1,471.2 L218.6,486.5 L218.9,503.2 L218.6,511.8 L222.3,517.1 L228.6,518.7 L236.7,521.5 L240.3,524.6 L241.7,530.7 L238.4,538.7 L235.0,543.2 L230.9,547.1 L227.3,554.3 L225.9,565.1 L225.3,574.6 L228.1,584.3 L231.7,591.2 L234.2,597.3 L235.0,606.2 L233.9,614.3 L233.6,626.0 L235.0,633.7 L239.5,640.3 L245.9,644.7 L250.0,646.4 L255.6,646.0 L259.7,645.2 L262.3,642.7 L264.6,639.2 L265.0,636.9 L265.9,633.9 L265.0,630.3 L263.8,628.3 L262.3,625.2 L261.4,620.8 L262.2,617.4 L265.0,613.1 L268.6,609.6 L270.5,606.7 L272.0,602.9 L272.6,596.5 L273.3,585.4 L272.2,571.5 L269.7,552.3 L263.0,515.2 L260.8,489.4 L258.8,461.6 L255.8,435.0 L255.8,420.8 L254.4,415.2 L248.3,410.5 L244.4,404.4 L244.7,393.8 L249.4,385.2 L256.0,376.1 L261.3,366.6 L264.7,357.5 L266.3,336.1 L267.7,316.6 L268.8,294.7 L267.7,276.6 L264.1,251.3 L260.5,235.8 L257.5,221.5 Z" fill="#5a9540" stroke="none"/>
<path d="M177.8,498.1 L180.6,488.3 L179.7,462.8 L175.0,434.2 L169.2,401.4 L168.1,368.3 L168.1,344.7 L167.0,328.0 L166.1,301.4 L163.6,267.8 L160.8,237.2 L153.9,203.6 L148.9,182.2 L146.7,170.3 L149.5,155.8 L149.0,150.2 L145.2,147.6 L140.4,146.3 L134.9,144.3 L130.6,142.6 L126.3,138.6 L123.9,133.0 L124.5,128.1 L125.7,122.8 L127.2,116.2 L128.3,110.2 L129.5,106.6 L131.5,103.6 L135.0,101.0 L139.2,99.5 L145.0,97.6 L146.8,95.0 L148.1,90.1 L148.7,86.9 L150.0,84.8 L154.0,82.0 L159.0,80.3 L163.2,77.7 L167.0,74.7 L168.3,71.0 L168.3,65.5 L166.6,61.2 L164.8,57.1 L162.2,54.0 L159.0,52.0 L155.7,50.8 L151.1,49.8 L143.9,50.7 L141.1,52.0 L138.0,54.2 L134.1,58.5 L130.5,61.3 L128.4,63.5 L126.8,66.2 L126.1,69.1 L126.0,73.2 L126.4,76.5 L126.7,80.9 L125.7,86.8 L124.3,91.1 L122.3,96.4 L119.8,100.3 L116.1,103.9 L113.7,105.8 L110.9,110.5 L110.3,115.0 L107.5,123.8 L104.7,129.0 L102.9,136.8 L98.4,144.0 L96.8,150.8 L95.4,164.1 L97.3,181.2 L97.3,191.4 L100.4,208.7 L101.2,224.5 L104.7,247.9 L105.7,269.4 L106.4,283.4 L110.8,305.2 L125.2,339.7 L128.7,365.4 L132.9,390.5 L136.9,407.7 L142.1,422.8 L143.4,444.5 L145.0,460.3 L146.9,473.1 L147.4,485.7 L149.1,495.6 L154.1,501.3 L160.3,503.9 L166.1,505.0 L170.8,503.3 L175.6,501.7 L177.8,498.1 Z" fill="#5a9540" stroke="none"/>
<path d="M253.1,678.1 L253.0,676.2 L252.5,674.5 L250.6,672.7 L248.6,671.6 L244.8,669.8 L242.1,668.0 L240.1,667.2 L237.7,666.7 L235.4,666.9 L233.3,667.7 L231.3,669.2 L229.9,670.9 L227.8,673.2 L226.4,675.6 L224.8,680.0 L224.1,682.8 L223.5,685.7 L223.7,689.6 L224.7,693.6 L226.5,699.2 L227.2,703.2 L227.7,711.9 L228.6,717.1 L231.4,722.2 L232.7,724.3 L235.5,726.5 L238.8,728.2 L242.1,730.0 L246.4,731.1 L250.0,731.6 L254.7,730.7 L258.8,729.2 L261.0,726.9 L263.9,723.3 L266.2,720.2 L268.1,717.5 L270.0,712.8 L270.0,709.5 L268.7,707.9 L267.0,707.6 L265.3,707.9 L264.2,708.3 L262.7,708.5 L260.6,707.6 L258.5,706.4 L257.5,704.9 L256.1,701.8 L255.4,698.7 L254.8,695.4 L255.0,692.4 L255.3,691.1 L254.9,689.8 L253.8,687.6 L253.2,684.8 L253.1,681.7 L253.1,678.1 Z" fill="#5a9540" stroke="none"/>
<path d="M28.8,-26.7 L26.7,-27.8 L24.2,-28.6 L20.1,-28.6 L17.0,-28.2 L14.0,-26.8 L11.5,-25.6 L9.5,-24.3 L7.4,-21.8 L5.4,-19.0 L4.3,-16.4 L2.1,-12.5 L-0.2,-8.5 L-1.9,-4.2 L-3.4,0.7 L-5.8,8.0 L-8.3,10.4 L-12.7,12.1 L-16.6,13.6 L-21.3,16.8 L-24.7,21.2 L-26.4,25.8 L-26.5,31.1 L-25.7,34.8 L-23.1,38.3 L-20.0,40.4 L-17.6,42.8 L-16.3,45.6 L-15.3,48.6 L-15.8,52.7 L-17.3,56.3 L-19.9,59.6 L-22.3,62.0 L-26.2,64.0 L-29.2,63.8 L-31.5,62.0 L-33.2,61.0 L-35.2,61.4 L-37.4,63.8 L-37.8,67.3 L-38.3,70.8 L-39.1,77.1 L-40.1,81.7 L-40.4,85.1 L-39.8,89.0 L-38.0,93.1 L-35.3,96.4 L-30.7,99.8 L-23.0,105.8 L-19.7,109.1 L-15.2,111.6 L-11.6,111.8 L-8.1,110.5 L-5.4,108.7 L-2.8,104.6 L0.9,97.5 L6.5,87.2 L12.8,77.8 L20.1,67.7 L24.2,62.4 L27.7,57.7 L30.7,52.6 L32.3,47.0 L32.4,38.9 L29.9,32.9 L27.0,30.1 L22.7,26.9 L19.9,24.2 L17.7,21.4 L17.3,18.7 L17.2,15.1 L17.9,11.9 L19.8,7.9 L21.6,5.9 L24.1,4.3 L27.5,0.8 L30.8,-2.6 L33.6,-5.2 L35.4,-8.2 L35.9,-12.9 L35.8,-16.4 L34.9,-19.6 L33.0,-23.0 L31.1,-24.9 L28.8,-26.7 Z" fill="#5a9540" stroke="none"/>
<path d="M68.5,7.9 L71.0,-8.8 L72.9,-19.4 L71.9,-23.8 L68.8,-27.4 L58.4,-27.4 L52.3,-19.4 L50.7,-7.8 L47.3,3.6 L42.9,14.7 L38.3,23.4 L36.4,31.1 L37.8,41.5 L41.9,50.0 L44.6,59.9 L45.6,66.4 L45.1,74.2 L42.4,81.9 L26.2,101.7 L14.4,114.8 L5.4,126.9 L-7.6,138.7 L-16.3,149.9 L-22.4,165.8 L-24.5,187.3 L-20.7,206.7 L-14.2,229.4 L-7.1,245.6 L-0.1,255.5 L0.1,269.8 L-1.3,282.1 L1.3,289.6 L5.7,297.6 L12.9,309.2 L24.3,327.1 L30.6,336.5 L39.0,340.2 L51.1,339.4 L56.7,335.6 L62.0,328.1 L64.2,319.1 L63.7,311.1 L61.5,296.6 L53.6,283.8 L47.3,273.9 L44.6,262.8 L46.3,255.8 L46.8,246.8 L44.8,240.5 L42.9,229.9 L36.9,219.7 L30.3,200.9 L27.7,183.5 L26.2,165.1 L27.2,151.5 L30.1,138.7 L37.6,127.8 L47.7,120.1 L55.5,112.6 L64.0,101.7 L66.9,92.8 L68.1,82.1 L66.6,74.4 L69.0,66.9 L74.1,64.0 L81.6,63.0 L89.3,62.3 L94.7,61.8 L97.8,58.9 L98.0,54.6 L94.9,51.7 L88.4,49.7 L79.2,47.6 L73.4,45.6 L67.3,40.1 L66.9,29.7 L68.8,20.0 L67.8,13.0 L68.5,7.9 Z" fill="#5a9540" stroke="none"/>
<path d="M-38.7,556.5 L-46.9,556.7 L-51.9,553.0 L-57.0,545.5 L-59.6,541.9 L-59.6,537.6 L-56.4,532.0 L-53.9,526.8 L-54.8,518.8 L-57.7,509.1 L-61.8,500.3 L-66.7,481.9 L-70.0,460.9 L-71.8,444.9 L-71.1,435.2 L-68.2,417.6 L-65.8,400.4 L-64.9,376.7 L-64.1,361.0 L-64.7,347.4 L-64.7,331.6 L-65.4,314.8 L-67.3,298.9 L-69.8,284.7 L-73.7,262.2 L-75.5,248.5 L-76.8,232.3 L-77.2,225.2 L-76.6,217.7 L-73.5,212.2 L-65.8,206.5 L-55.2,205.2 L-46.4,208.7 L-41.4,212.7 L-38.3,220.0 L-37.0,235.1 L-35.0,259.4 L-32.3,280.9 L-29.5,303.6 L-27.3,321.0 L-24.4,333.1 L-20.5,358.8 L-18.1,380.6 L-16.3,403.7 L-16.1,425.3 L-16.5,435.7 L-18.5,444.0 L-22.9,450.0 L-24.4,461.0 L-22.9,470.0 L-19.4,474.2 L-12.3,480.3 L-9.3,485.6 L-7.5,493.7 L-7.2,506.5 L-7.9,520.0 L-10.1,533.6 L-11.4,542.4 L-15.9,549.6 L-22.5,553.9 L-31.5,556.7 L-38.7,556.5 Z" fill="#5a9540" stroke="none"/>
<path d="M-49.2,581.6 L-49.9,573.4 L-51.4,567.4 L-56.0,563.5 L-65.2,559.4 L-70.3,560.6 L-78.7,565.2 L-86.4,571.7 L-90.6,581.9 L-91.5,595.4 L-87.7,605.6 L-84.3,617.4 L-80.4,626.6 L-73.1,640.4 L-72.2,653.2 L-70.0,663.1 L-66.6,667.5 L-65.4,674.0 L-64.7,683.2 L-63.5,695.3 L-60.8,702.5 L-56.2,709.1 L-50.4,712.5 L-44.1,710.5 L-33.5,705.4 L-28.7,701.8 L-23.8,697.5 L-22.6,691.7 L-25.5,684.2 L-31.3,676.9 L-37.1,671.1 L-39.5,665.8 L-38.1,662.6 L-35.9,659.5 L-32.8,656.1 L-32.3,650.8 L-35.4,642.6 L-38.3,636.0 L-43.2,626.8 L-46.1,613.3 L-48.0,597.3 L-49.2,581.6 Z" fill="#5a9540" stroke="none"/>
<path d="M54.2,429.5 L51.4,427.4 L48.8,426.7 L45.8,426.6 L42.6,426.7 L38.6,427.8 L35.6,429.6 L32.2,433.1 L30.2,435.4 L29.1,439.1 L28.0,443.3 L27.7,446.1 L27.5,449.0 L26.8,452.4 L25.2,455.4 L23.5,458.4 L23.3,462.4 L23.8,466.1 L24.8,469.8 L26.5,473.0 L28.1,476.6 L29.7,481.0 L29.3,484.8 L28.1,486.9 L23.9,490.8 L19.4,496.4 L19.0,502.5 L20.3,506.5 L23.3,510.2 L26.8,513.4 L30.4,516.4 L33.3,522.5 L37.1,526.5 L41.3,528.4 L46.8,528.8 L55.1,529.3 L61.7,530.5 L66.7,532.8 L70.3,536.3 L72.6,538.9 L73.0,543.0 L73.0,546.0 L71.3,547.8 L67.6,549.0 L64.3,548.6 L58.2,547.3 L54.5,546.5 L52.0,547.4 L49.9,548.9 L46.7,552.7 L44.1,558.3 L43.6,562.4 L43.5,567.4 L42.0,570.4 L40.2,572.7 L38.7,579.7 L38.0,592.7 L38.4,608.0 L40.3,624.7 L44.7,638.0 L48.8,645.8 L52.0,652.8 L51.8,658.6 L48.1,664.2 L42.4,673.4 L36.9,681.7 L30.2,687.3 L26.9,693.2 L27.1,699.3 L29.4,708.8 L39.3,724.4 L44.9,732.6 L49.4,742.5 L53.3,751.5 L58.9,760.0 L63.8,769.8 L66.8,775.9 L69.2,781.5 L76.4,789.3 L86.2,800.1 L95.9,807.2 L107.1,812.9 L116.5,815.6 L124.0,815.0 L130.7,812.4 L136.9,806.2 L140.9,798.2 L139.0,787.2 L136.2,776.4 L134.0,768.9 L129.4,761.7 L124.9,756.1 L120.1,748.9 L116.3,739.3 L115.5,724.2 L113.8,712.2 L113.4,702.6 L111.8,698.2 L108.5,695.5 L102.3,694.5 L96.8,692.0 L93.0,688.6 L90.3,680.1 L87.0,667.7 L86.2,655.1 L86.8,641.5 L88.9,620.6 L89.4,604.7 L89.9,588.9 L89.9,576.1 L89.3,567.9 L89.3,559.5 L90.3,547.1 L89.3,530.5 L92.1,509.4 L91.4,495.8 L90.3,482.0 L89.0,469.5 L88.9,461.7 L87.4,455.3 L84.4,451.5 L81.0,451.2 L76.9,455.7 L75.3,460.1 L73.7,466.0 L72.6,470.2 L71.3,476.6 L68.3,479.3 L64.3,481.0 L60.9,480.2 L58.1,477.8 L56.2,474.8 L56.5,466.5 L57.0,459.5 L57.6,454.7 L58.7,449.6 L60.5,445.8 L61.9,441.6 L61.1,435.7 L57.9,431.6 L54.2,429.5 Z" fill="#5a9540" stroke="none"/>
<path d="M253.6,681.8 L254.3,678.5 L255.2,676.4 L257.2,675.5 L260.2,675.8 L262.4,677.7 L263.0,680.7 L262.9,683.5 L263.0,685.7 L262.4,687.7 L260.8,689.0 L259.5,688.1 L257.4,687.2 L256.5,686.2 L254.9,684.7 L253.6,681.8 Z" fill="#e7d6a3" stroke="none"/>
<path d="M258.0,693.5 L259.5,693.2 L261.5,692.6 L263.3,692.5 L264.2,693.1 L264.4,695.0 L265.2,696.5 L266.5,698.2 L267.1,701.0 L266.9,703.4 L266.3,704.9 L264.9,706.7 L262.9,707.1 L261.3,706.7 L259.3,705.7 L258.5,704.5 L257.5,702.6 L257.0,700.7 L256.3,699.2 L256.2,697.3 L256.1,695.9 L256.3,694.4 L258.0,693.5 Z" fill="#e7d6a3" stroke="none"/>
<path d="M264.7,617.6 L265.6,615.0 L267.3,613.4 L268.7,612.1 L270.6,612.0 L273.3,614.0 L275.3,617.0 L276.4,619.6 L277.5,622.1 L278.8,624.2 L279.5,626.4 L279.2,629.4 L278.0,630.9 L276.0,631.7 L273.6,631.9 L271.3,631.6 L269.1,630.4 L268.3,628.0 L267.8,626.3 L266.5,625.8 L265.2,624.6 L264.2,622.4 L263.9,620.0 L264.7,617.6 Z" fill="#e7d6a3" stroke="none"/>
<path d="M-34.4,43.2 L-34.2,42.3 L-33.3,41.7 L-31.9,41.3 L-30.1,41.3 L-28.8,41.5 L-26.1,42.8 L-25.0,43.9 L-24.1,44.8 L-23.5,45.5 L-22.2,46.0 L-21.2,46.3 L-20.1,47.0 L-19.2,47.9 L-19.0,49.5 L-19.1,51.1 L-19.8,52.9 L-21.6,55.2 L-23.3,57.4 L-24.2,58.4 L-24.9,59.4 L-26.1,60.1 L-27.1,60.5 L-29.2,60.3 L-31.5,59.9 L-34.2,59.0 L-35.8,58.2 L-36.5,57.5 L-36.2,56.7 L-35.8,55.5 L-35.5,53.9 L-35.1,52.4 L-34.6,51.2 L-33.5,50.5 L-32.6,49.5 L-32.2,48.3 L-32.5,46.6 L-33.2,45.5 L-34.1,44.7 L-34.4,43.2 Z" fill="#e7d6a3" stroke="none"/>
<path d="M268.2,383.3 L267.3,381.6 L266.5,380.6 L265.4,379.9 L263.8,379.5 L262.4,379.0 L261.3,378.9 L260.0,379.3 L258.3,381.1 L256.5,384.1 L255.5,385.0 L255.0,386.1 L254.6,387.7 L254.3,389.2 L253.4,390.4 L252.1,391.6 L251.4,392.6 L250.9,394.6 L250.3,396.4 L250.6,398.1 L251.9,399.4 L253.8,400.5 L255.5,400.9 L258.4,400.4 L260.8,399.2 L262.2,397.8 L263.2,396.3 L263.6,394.6 L262.8,393.7 L262.9,392.2 L263.3,391.2 L264.2,390.4 L265.7,390.4 L266.8,389.6 L267.5,388.3 L267.8,386.8 L268.1,385.3 L268.2,383.3 Z" fill="#e7d6a3" stroke="none"/>
<path d="M236.9,527.2 L235.6,526.7 L234.3,526.8 L233.4,527.0 L231.5,527.3 L230.4,527.6 L229.2,528.5 L228.4,529.5 L227.1,530.6 L226.1,532.1 L226.1,533.3 L226.8,534.6 L227.7,535.6 L229.2,536.5 L231.1,536.4 L232.5,536.0 L233.5,534.9 L235.3,534.2 L237.0,533.8 L238.3,532.8 L239.0,531.6 L239.3,529.9 L238.7,528.5 L238.1,527.8 L236.9,527.2 Z" fill="#e7d6a3" stroke="none"/>
<path d="M123.6,66.5 L122.9,65.3 L121.3,64.7 L120.0,64.6 L118.5,65.3 L117.0,66.5 L116.5,67.3 L116.3,68.4 L116.0,69.6 L115.3,70.6 L114.3,71.6 L113.2,72.6 L112.9,73.9 L113.3,75.2 L114.9,76.6 L116.3,77.6 L116.5,78.9 L116.7,80.5 L117.3,82.3 L118.5,83.7 L120.4,84.2 L121.7,84.2 L122.8,83.6 L123.3,82.5 L123.7,80.7 L123.6,78.2 L123.1,76.8 L122.3,75.2 L121.8,73.9 L122.0,72.9 L122.7,71.9 L123.5,71.0 L124.0,69.6 L124.1,68.0 L123.6,66.5 Z" fill="#e7d6a3" stroke="none"/>
<path d="M143.5,111.7 L142.1,111.4 L140.5,111.6 L139.1,112.0 L138.0,112.3 L136.6,113.6 L135.6,114.7 L134.9,116.3 L135.1,117.7 L136.3,118.8 L137.5,119.2 L138.8,119.1 L139.8,118.6 L140.8,118.6 L142.0,119.2 L143.3,119.6 L144.7,119.5 L146.0,118.5 L146.9,117.1 L147.3,115.6 L147.3,114.3 L146.5,113.1 L145.1,112.2 L143.5,111.7 Z" fill="#e7d6a3" stroke="none"/>
<path d="M137.5,130.7 L136.2,129.6 L135.2,129.3 L134.2,129.5 L133.2,129.8 L132.3,129.8 L131.3,129.6 L130.3,129.8 L129.3,130.0 L128.3,130.6 L127.6,131.4 L127.6,132.8 L127.9,133.8 L128.0,134.9 L128.1,136.0 L128.6,137.1 L129.1,137.9 L130.2,138.3 L131.1,137.9 L132.3,137.6 L133.3,137.9 L134.5,138.1 L135.4,137.9 L136.3,137.4 L136.9,136.8 L136.9,135.6 L136.9,134.5 L137.3,133.5 L137.8,132.6 L137.5,130.7 Z" fill="#e7d6a3" stroke="none"/>
<path d="M164.2,87.4 L163.6,85.8 L162.6,84.4 L161.6,83.6 L159.9,82.9 L158.3,83.1 L157.4,84.0 L156.9,85.0 L156.1,85.5 L155.1,85.2 L153.7,84.9 L153.0,84.8 L152.1,84.9 L151.3,85.6 L150.6,86.7 L150.4,87.8 L150.4,88.8 L149.9,89.7 L149.5,90.5 L149.2,91.9 L149.9,92.8 L150.1,94.1 L150.1,95.9 L151.0,97.0 L153.1,97.6 L154.9,97.6 L156.2,96.6 L157.0,95.3 L158.4,94.7 L160.1,94.7 L161.4,94.0 L162.2,93.2 L162.8,92.1 L162.7,90.8 L162.7,90.2 L162.9,89.5 L163.9,88.8 L164.2,87.4 Z" fill="#e7d6a3" stroke="none"/>
<path d="M143.2,13.1 L142.9,11.4 L142.4,10.3 L141.6,9.5 L140.9,8.9 L139.6,8.6 L138.5,8.1 L136.8,8.4 L135.7,9.1 L134.3,9.5 L133.1,9.8 L132.2,11.1 L131.4,12.0 L130.9,13.1 L130.5,14.5 L130.4,15.8 L130.6,17.1 L131.0,17.9 L131.7,18.9 L132.6,19.7 L134.5,20.4 L136.6,21.5 L138.4,21.8 L139.9,22.2 L141.3,22.2 L142.4,22.0 L143.6,21.5 L144.7,20.3 L145.3,18.4 L145.2,16.9 L144.6,15.6 L144.1,14.2 L143.2,13.1 Z" fill="#e7d6a3" stroke="none"/>
<path d="M126.7,-0.1 L125.7,-2.8 L124.3,-3.8 L121.4,-4.0 L119.4,-4.3 L117.2,-4.2 L115.8,-3.2 L114.4,-1.5 L114.6,0.5 L116.1,2.1 L117.5,3.3 L119.3,4.2 L120.2,4.4 L120.2,6.0 L121.0,7.3 L122.4,7.8 L124.8,8.2 L126.8,8.3 L128.4,7.7 L129.2,6.6 L129.8,5.0 L129.4,3.8 L128.8,2.3 L127.6,1.2 L126.7,-0.1 Z" fill="#e7d6a3" stroke="none"/>
<path d="M-12.8,250.2 L-15.1,249.0 L-17.6,247.9 L-20.3,247.5 L-22.8,247.9 L-23.7,250.4 L-23.5,252.3 L-22.6,254.3 L-22.1,256.2 L-22.5,258.6 L-22.4,260.5 L-23.3,262.3 L-23.1,264.7 L-22.3,266.1 L-21.5,267.1 L-20.3,267.8 L-17.4,268.6 L-15.8,267.6 L-14.0,266.5 L-11.2,266.1 L-8.9,265.1 L-7.5,263.7 L-6.1,260.3 L-6.0,256.7 L-7.2,254.9 L-8.4,253.9 L-10.6,253.1 L-12.8,250.2 Z" fill="#e7d6a3" stroke="none"/>
<path d="M59.0,261.9 L57.2,259.1 L53.3,258.4 L51.4,258.7 L50.8,261.1 L49.1,262.7 L48.1,264.3 L47.8,265.9 L49.4,269.0 L49.4,271.4 L49.4,273.7 L50.9,276.7 L52.3,277.8 L53.6,278.3 L56.1,278.3 L57.6,278.1 L59.8,276.6 L58.0,274.2 L58.8,271.6 L60.4,270.2 L61.2,269.2 L61.5,266.5 L61.2,264.0 L59.0,261.9 Z" fill="#e7d6a3" stroke="none"/>
<path d="M36.9,2.9 L36.4,0.8 L35.7,-0.7 L34.6,-1.8 L32.9,-2.3 L30.9,-2.3 L28.9,-2.0 L27.8,-1.0 L27.0,0.3 L27.1,1.4 L28.0,2.5 L28.7,3.3 L29.0,4.2 L28.8,5.6 L28.5,6.8 L28.3,7.9 L28.4,9.2 L28.5,10.5 L28.8,12.0 L29.2,13.5 L30.1,14.6 L31.1,15.1 L32.9,15.1 L34.3,14.5 L35.2,13.7 L36.1,11.0 L37.0,8.5 L37.4,6.3 L37.3,4.6 L36.9,2.9 Z" fill="#e7d6a3" stroke="none"/>
<path d="M27.0,14.1 L26.7,12.2 L26.4,10.4 L25.9,8.9 L24.7,7.8 L23.6,7.1 L22.6,6.7 L21.2,6.9 L20.2,7.5 L19.2,8.3 L18.6,9.9 L17.9,12.2 L17.3,14.5 L17.0,16.6 L17.3,18.4 L18.2,20.1 L19.3,21.2 L20.8,21.7 L22.4,21.8 L24.7,21.0 L26.4,20.3 L27.4,19.4 L28.0,18.4 L28.5,17.3 L28.3,16.2 L27.8,15.2 L27.0,14.1 Z" fill="#e7d6a3" stroke="none"/>
<path d="M-3.2,-25.3 L-5.1,-24.6 L-6.0,-24.0 L-6.9,-23.1 L-7.5,-22.4 L-8.0,-21.6 L-8.7,-20.1 L-9.2,-18.9 L-9.9,-18.0 L-11.0,-16.5 L-11.8,-15.3 L-12.2,-14.2 L-13.0,-12.8 L-13.0,-11.4 L-13.4,-9.9 L-14.3,-8.2 L-15.6,-6.6 L-16.7,-5.6 L-17.6,-4.2 L-18.4,-2.4 L-18.4,-1.0 L-18.1,-0.1 L-17.7,0.9 L-17.4,2.6 L-16.8,4.4 L-15.8,6.5 L-14.4,7.7 L-13.1,8.0 L-11.7,8.4 L-10.4,7.9 L-9.5,7.0 L-8.6,5.7 L-8.4,4.4 L-8.2,3.4 L-8.0,2.0 L-7.8,0.5 L-8.1,-1.0 L-8.6,-2.6 L-8.6,-3.6 L-7.9,-5.5 L-7.1,-6.8 L-6.9,-7.9 L-6.8,-8.8 L-7.6,-9.9 L-8.4,-10.6 L-9.2,-11.1 L-9.3,-11.8 L-8.9,-12.6 L-8.1,-12.5 L-7.6,-11.7 L-7.0,-11.0 L-6.3,-10.5 L-5.5,-10.2 L-4.3,-10.4 L-3.4,-10.8 L-1.8,-12.1 L-0.6,-14.0 L0.4,-15.7 L1.4,-17.7 L2.0,-19.7 L2.4,-21.3 L2.1,-22.7 L1.4,-23.8 L0.4,-24.7 L-1.2,-25.2 L-3.2,-25.3 Z" fill="#e7d6a3" stroke="none"/>
<path d="M140.8,731.6 L140.4,729.7 L139.6,728.6 L138.4,727.9 L136.8,727.6 L134.8,727.3 L133.6,727.3 L132.3,727.8 L131.4,728.6 L130.7,730.1 L131.1,731.9 L130.9,733.4 L130.3,735.1 L129.6,736.8 L128.6,737.8 L126.8,738.6 L125.3,739.0 L124.0,739.8 L123.0,740.7 L122.3,741.9 L122.3,743.9 L123.1,744.8 L124.5,745.9 L126.1,746.6 L127.8,746.9 L130.1,746.6 L131.3,746.2 L133.5,744.7 L134.6,743.3 L135.8,742.1 L137.4,741.1 L139.1,739.8 L140.3,738.6 L141.0,736.9 L141.2,735.0 L141.1,733.3 L140.8,731.6 Z" fill="#e7d6a3" stroke="none"/>
<path d="M115.2,682.3 L113.9,681.1 L112.0,680.6 L110.3,680.7 L109.1,681.3 L107.6,681.5 L105.8,681.1 L104.3,681.1 L102.6,681.8 L101.3,682.7 L100.1,684.0 L99.1,685.6 L98.1,687.4 L98.1,688.9 L98.8,690.0 L99.9,690.6 L101.5,691.1 L103.6,691.5 L106.2,691.8 L108.5,691.3 L111.2,689.8 L113.0,688.5 L115.4,686.2 L115.7,684.3 L115.2,682.3 Z" fill="#e7d6a3" stroke="none"/>
<path d="M49.8,535.6 L48.3,534.1 L46.7,532.9 L45.0,532.1 L43.3,531.7 L41.8,532.1 L40.6,533.5 L40.4,534.6 L40.7,536.2 L41.2,537.9 L41.2,539.5 L40.9,541.5 L40.0,543.1 L39.6,543.7 L39.6,545.3 L39.5,546.3 L38.7,546.7 L37.6,545.8 L36.9,544.9 L36.0,545.1 L35.4,545.8 L35.3,546.5 L36.2,547.6 L36.5,548.6 L36.1,550.9 L35.3,552.8 L34.9,554.9 L35.0,556.6 L35.0,558.2 L33.4,559.0 L32.0,559.7 L30.7,561.0 L30.7,562.8 L32.3,563.3 L33.2,563.9 L34.4,565.3 L35.2,566.2 L36.0,567.0 L37.1,567.4 L39.2,567.7 L40.4,567.1 L41.4,566.2 L41.9,564.7 L41.9,561.6 L41.9,557.5 L41.9,555.0 L43.0,552.1 L45.0,548.0 L47.1,546.0 L49.7,544.5 L51.9,544.4 L55.3,544.4 L59.9,544.9 L63.0,545.4 L66.1,546.0 L68.0,545.8 L69.3,544.7 L69.6,542.8 L69.1,541.1 L68.0,539.6 L67.0,538.0 L65.9,536.5 L65.0,535.5 L63.1,535.1 L61.2,535.0 L59.3,535.2 L57.5,535.8 L56.1,536.3 L54.7,536.9 L53.4,537.5 L52.1,537.5 L50.8,536.5 L49.8,535.6 Z" fill="#e7d6a3" stroke="none"/>
<path d="M23.1,476.8 L22.1,474.4 L21.0,472.9 L19.1,472.1 L16.7,471.6 L14.8,471.5 L13.1,472.1 L12.1,473.4 L11.2,475.5 L11.0,477.4 L12.6,480.1 L14.8,482.0 L15.9,483.2 L17.2,484.1 L18.7,485.1 L20.1,485.7 L21.9,485.8 L23.9,485.5 L24.9,484.9 L25.3,482.9 L25.0,481.0 L24.2,479.0 L23.1,476.8 Z" fill="#e7d6a3" stroke="none"/>
<path d="M67.7,464.1 L66.6,463.0 L65.2,462.0 L63.4,461.4 L62.0,461.1 L60.8,461.2 L59.7,461.8 L59.2,462.4 L58.6,463.6 L58.6,465.1 L58.3,466.6 L57.9,467.7 L57.5,469.2 L57.7,471.6 L58.2,473.3 L58.9,474.5 L60.0,475.6 L61.6,476.7 L63.4,477.0 L64.8,476.8 L66.1,476.0 L66.9,474.8 L67.5,473.4 L67.6,471.9 L67.8,471.1 L68.1,470.0 L68.0,468.7 L67.7,467.7 L67.5,467.0 L67.8,465.9 L68.0,465.2 L67.7,464.1 Z" fill="#e7d6a3" stroke="none"/>
<path d="M-29.2,663.5 L-31.1,662.2 L-33.0,661.9 L-34.8,662.0 L-36.0,662.3 L-36.8,663.2 L-37.4,664.5 L-37.4,665.7 L-36.8,666.9 L-35.9,668.2 L-34.9,669.0 L-33.9,669.7 L-32.8,669.8 L-31.0,669.7 L-29.5,669.8 L-28.5,670.2 L-28.0,671.2 L-27.9,672.5 L-28.1,674.3 L-27.6,676.5 L-26.4,678.7 L-25.2,680.0 L-24.1,680.8 L-22.7,681.3 L-21.1,680.8 L-20.1,680.2 L-19.2,679.5 L-18.3,678.2 L-18.0,676.6 L-18.3,675.0 L-18.8,673.6 L-21.0,671.2 L-22.3,669.4 L-23.5,667.3 L-24.9,666.6 L-26.9,664.8 L-29.2,663.5 Z" fill="#e7d6a3" stroke="none"/>
<path d="M15.3,93.9 L14.0,92.9 L12.6,92.8 L11.1,93.3 L10.0,93.9 L8.9,94.8 L8.0,95.7 L7.3,97.1 L6.6,99.2 L6.3,101.0 L6.1,104.0 L6.4,106.0 L6.9,107.6 L7.8,108.9 L8.9,109.7 L10.3,109.5 L11.7,108.7 L12.4,107.3 L12.8,105.0 L13.5,103.1 L14.1,101.2 L15.2,100.0 L16.1,99.1 L16.7,97.8 L16.9,96.3 L16.3,94.8 L15.3,93.9 Z" fill="#e7d6a3" stroke="none"/>
<path d="M37.5,64.8 L36.7,63.9 L35.7,63.2 L34.7,62.9 L33.8,62.9 L32.6,63.0 L31.9,63.3 L31.4,63.8 L31.3,64.6 L31.6,65.9 L31.5,67.0 L31.2,67.6 L30.1,68.8 L29.3,69.7 L28.6,70.4 L28.1,71.2 L27.9,71.9 L27.7,72.6 L28.1,73.7 L28.8,74.6 L29.5,75.3 L30.8,76.4 L32.0,77.0 L33.4,77.0 L35.0,76.2 L36.2,74.5 L37.6,71.6 L38.6,70.2 L39.0,68.9 L39.1,67.7 L38.7,66.5 L38.2,65.6 L37.5,64.8 Z" fill="#e7d6a3" stroke="none"/>
<path d="M29.6,77.6 L28.1,75.8 L27.1,74.2 L25.9,73.2 L24.8,73.7 L24.2,74.3 L23.4,75.7 L23.0,77.3 L22.5,79.0 L22.9,80.5 L23.2,81.8 L23.4,83.1 L23.0,85.1 L22.3,86.4 L21.0,88.2 L19.7,89.9 L19.2,91.4 L18.9,92.9 L19.2,94.1 L19.6,95.4 L20.4,96.7 L21.0,97.3 L21.9,97.6 L23.3,96.4 L25.2,94.3 L26.9,92.5 L28.6,90.3 L29.8,88.7 L30.2,86.8 L30.2,83.3 L30.5,80.6 L30.7,79.1 L29.6,77.6 Z" fill="#e7d6a3" stroke="none"/>
<path d="M-15.5,118.3 L-17.5,118.0 L-18.7,117.7 L-19.9,117.6 L-20.9,116.3 L-21.7,115.0 L-22.2,114.3 L-23.4,114.1 L-25.5,114.6 L-27.0,115.6 L-28.0,116.7 L-27.8,118.7 L-26.6,120.7 L-24.3,122.8 L-21.8,123.2 L-18.3,123.3 L-16.4,123.5 L-14.8,124.4 L-13.4,125.4 L-12.0,126.7 L-10.4,127.1 L-8.5,126.9 L-6.1,125.3 L-3.7,123.6 L-1.4,122.3 L1.4,121.1 L4.0,119.6 L4.9,118.0 L5.7,116.3 L5.7,114.9 L4.8,113.3 L3.3,112.7 L1.2,112.9 L-0.9,114.0 L-3.8,115.3 L-5.3,116.0 L-7.0,117.2 L-8.1,118.2 L-10.1,118.5 L-11.5,118.6 L-13.0,118.8 L-15.5,118.3 Z" fill="#e7d6a3" stroke="none"/>
<path d="M71.5,445.1 L69.9,444.5 L68.6,444.3 L66.5,445.2 L65.0,445.6 L63.5,445.5 L62.5,446.5 L61.1,448.9 L60.6,452.1 L60.8,454.8 L61.7,457.3 L63.8,457.9 L66.6,457.8 L68.7,457.4 L70.2,456.6 L70.7,454.7 L70.7,453.4 L72.4,451.8 L73.8,449.8 L75.5,449.0 L76.9,447.4 L77.7,445.6 L79.9,443.8 L80.0,442.5 L78.8,442.2 L77.4,442.1 L75.9,441.5 L73.6,443.1 L71.5,445.1 Z" fill="#e7d6a3" stroke="none"/>
<path d="M30.0,423.8 L27.7,423.5 L25.9,423.6 L24.6,424.4 L23.2,424.8 L21.4,425.6 L20.1,426.8 L19.3,429.0 L18.9,431.7 L18.4,433.4 L17.4,434.2 L16.1,434.8 L14.7,435.9 L15.0,437.9 L15.7,439.9 L15.6,442.2 L15.2,443.8 L14.1,445.5 L14.0,447.5 L15.1,448.5 L16.8,448.6 L18.8,447.9 L20.9,448.1 L22.7,449.4 L25.1,448.9 L26.0,447.4 L26.5,444.2 L26.5,440.1 L26.0,436.7 L26.6,434.5 L27.9,432.9 L29.6,430.7 L31.0,428.6 L31.4,426.1 L30.9,424.6 L30.0,423.8 Z" fill="#e7d6a3" stroke="none"/>
<path d="M112.2,102.8 L115.0,101.3 L117.0,99.7 L118.3,97.2 L117.9,95.1 L116.6,93.9 L113.4,93.6 L111.1,94.9 L107.9,96.2 L106.6,97.2 L106.0,98.3 L106.2,100.4 L107.8,101.7 L110.2,102.6 L112.2,102.8 Z" fill="#e7d6a3" stroke="none"/>
<path d="M98.3,130.2 L100.3,129.2 L101.8,128.0 L102.1,126.3 L100.8,123.9 L101.3,122.0 L102.4,120.9 L104.2,119.7 L104.9,117.8 L104.4,116.0 L102.5,115.1 L100.0,115.1 L98.7,115.5 L96.8,114.6 L95.6,113.4 L93.5,113.7 L92.2,114.2 L91.7,116.5 L92.3,120.7 L93.0,123.5 L93.3,125.8 L95.0,127.6 L96.7,129.4 L98.3,130.2 Z" fill="#e7d6a3" stroke="none"/>
<path d="M80.6,299.5 L76.2,300.1 L72.4,298.5 L70.4,295.3 L70.2,292.2 L72.4,289.5 L73.4,287.0 L73.5,284.5 L71.2,282.8 L72.2,279.7 L75.7,280.3 L77.2,281.5 L79.1,282.5 L80.8,285.3 L83.0,286.9 L85.4,288.3 L83.4,291.4 L81.7,295.7 L80.6,299.5 Z" fill="#e7d6a3" stroke="none"/>
<path d="M84.8,276.9 L88.1,276.4 L88.3,272.7 L88.6,269.1 L89.1,264.4 L89.1,260.6 L85.8,258.9 L81.1,257.4 L77.8,256.6 L74.6,258.7 L72.2,263.7 L73.3,266.2 L76.3,265.9 L80.8,266.7 L84.1,270.2 L85.5,272.9 L84.8,276.9 Z" fill="#e7d6a3" stroke="none"/>
<path d="M68.5,230.9 L68.5,226.7 L65.2,225.4 L61.8,223.7 L60.0,225.7 L56.8,225.9 L54.5,226.7 L52.8,229.1 L52.5,231.7 L52.8,234.6 L54.3,235.9 L57.8,233.4 L61.3,230.9 L64.5,232.4 L65.7,233.6 L67.6,232.9 L68.5,230.9 Z" fill="#e7d6a3" stroke="none"/>
<path d="M176.8,-3.7 L193.5,-5.7 L196.2,16.8 L179.4,18.8 L176.8,-3.7 Z" fill="#4f8a3e" stroke="none"/>
<path d="M184.5,25.1 L201.1,22.5 L204.5,45.2 L187.9,47.7 L184.5,25.1 Z" fill="#4f8a3e" stroke="none"/>
<path d="M196.2,57.8 L209.4,55.4 L212.2,70.0 L198.9,72.4 L196.2,57.8 Z" fill="#4f8a3e" stroke="none"/>
<path d="M183.5,116.2 L193.8,115.0 L192.5,103.9 L182.3,105.1 L183.5,116.2 Z" fill="#4f8a3e" stroke="none"/>
<path d="M-49.2,842.1 L-41.2,834.5 L-22.8,853.6 L-30.8,861.3 L-49.2,842.1 Z" fill="#4f8a3e" stroke="none"/>
<path d="M186.7,719.6 L179.3,720.3 L180.9,737.5 L188.2,736.8 L186.7,719.6 Z" fill="#4f8a3e" stroke="none"/>
<path d="M174.3,711.5 L171.2,679.6 L185.8,678.1 L188.9,710.0 L174.3,711.5 Z" fill="#4f8a3e" stroke="none"/>
<path d="M203.6,598.0 L200.5,581.4 L192.0,583.0 L195.0,599.6 L203.6,598.0 Z" fill="#4f8a3e" stroke="none"/>
<path d="M158.1,756.4 L169.9,743.3 L159.2,734.0 L157.8,733.5 L156.2,734.4 L154.8,738.1 L154.6,745.7 L155.4,749.3 L156.5,753.2 L158.1,756.4 Z" fill="#4f8a3e" stroke="none"/>
<path d="M188.6,760.0 L175.1,748.5 L163.3,761.9 L177.3,773.5 L188.6,760.0 Z" fill="#4f8a3e" stroke="none"/>
<path d="M331.6,-5.2 L280.8,-60.2 L233.9,-19.1 L273.0,44.8 L331.6,-5.2 Z" fill="#4f8a3e" stroke="none"/>
<path d="M125.3,514.6 L118.7,516.9 L134.6,562.5 L141.2,560.1 L125.3,514.6 Z" fill="#4f8a3e" stroke="none"/>
<path d="M247.7,715.1 L250.7,713.4 L253.2,710.5 L254.5,705.1 L254.9,700.7 L254.3,696.9 L253.6,692.7 L252.5,687.1 L252.5,683.4 L252.3,679.6 L251.1,675.5 L248.5,673.0 L242.6,669.8 L238.7,668.4 L234.7,669.1 L230.4,673.4 L227.8,677.1 L226.6,680.3 L226.7,685.2 L227.4,690.8 L228.5,698.2 L231.6,704.2 L234.2,707.9 L236.1,710.6 L238.6,713.2 L242.8,715.0 L247.7,715.1 Z" fill="#2f7825" stroke="none"/>
<path d="M244.3,639.5 L247.9,642.3 L252.2,643.7 L257.5,643.4 L261.3,641.2 L262.9,637.5 L263.6,633.6 L262.3,629.7 L260.0,626.3 L258.9,622.7 L258.4,620.3 L258.5,618.1 L258.9,616.1 L258.9,613.8 L258.4,611.6 L256.7,609.5 L254.0,607.4 L250.8,606.0 L246.1,606.5 L242.4,609.3 L240.5,613.3 L239.1,616.9 L238.5,620.3 L238.0,624.4 L238.5,629.7 L239.6,633.4 L242.2,637.4 L244.3,639.5 Z" fill="#2f7825" stroke="none"/>
<path d="M78.7,29.3 L78.3,31.0 L78.3,33.1 L78.7,35.0 L78.9,37.1 L81.7,40.7 L86.4,41.7 L89.7,42.0 L92.6,41.7 L95.1,41.8 L99.4,43.2 L102.5,44.6 L106.0,45.5 L109.2,45.5 L112.3,44.2 L115.3,42.5 L118.0,41.1 L120.5,39.2 L123.9,35.5 L127.1,28.3 L127.2,24.4 L127.4,22.5 L126.7,20.5 L125.5,18.6 L118.7,13.2 L116.7,10.9 L115.0,9.0 L110.6,5.0 L108.3,3.7 L106.1,2.5 L102.0,-0.5 L99.0,-1.4 L95.9,-1.8 L93.7,-1.8 L91.1,-1.4 L88.5,-1.0 L86.7,0.3 L85.7,2.4 L84.9,4.3 L83.2,7.2 L82.0,9.3 L81.6,11.2 L80.4,13.5 L79.5,15.8 L79.5,18.5 L79.3,21.5 L79.2,25.4 L78.7,29.3 Z" fill="#2f7825" stroke="none"/>
<path d="M-57.8,698.6 L-55.7,701.8 L-53.5,705.0 L-52.0,706.8 L-50.4,708.0 L-48.4,708.8 L-46.4,709.0 L-43.9,708.1 L-40.4,706.2 L-35.7,703.0 L-31.9,700.2 L-29.3,698.0 L-27.7,695.4 L-26.9,693.1 L-26.7,690.6 L-27.3,688.2 L-28.5,686.0 L-33.4,678.7 L-38.5,672.6 L-41.9,668.3 L-43.5,666.5 L-44.8,665.1 L-46.8,663.9 L-48.4,663.4 L-50.4,663.4 L-52.0,663.6 L-54.0,664.1 L-55.4,665.4 L-57.7,667.9 L-59.3,670.4 L-60.6,673.0 L-61.5,676.0 L-62.2,679.3 L-62.4,683.2 L-62.0,686.6 L-61.1,690.9 L-60.0,694.2 L-57.8,698.6 Z" fill="#2f7825" stroke="none"/>
<path d="M160.5,55.9 L158.8,54.1 L156.5,52.8 L152.9,51.8 L149.8,51.6 L145.3,52.1 L142.0,53.9 L138.3,56.1 L134.7,59.6 L131.9,62.9 L130.0,65.6 L128.5,68.7 L128.3,72.3 L129.6,75.7 L131.8,79.2 L134.7,82.1 L137.6,83.4 L141.9,83.8 L146.2,84.3 L149.5,82.8 L154.0,80.2 L158.4,77.6 L161.6,76.2 L163.6,74.0 L164.9,71.9 L165.8,68.9 L165.8,66.4 L165.0,63.2 L164.4,60.9 L162.6,58.3 L160.5,55.9 Z" fill="#2f7825" stroke="none"/>
<path d="M57.1,434.6 L55.2,432.3 L52.7,430.5 L50.4,429.3 L46.9,428.6 L42.5,428.8 L40.0,429.8 L36.8,432.0 L33.8,433.8 L32.5,435.5 L31.6,439.5 L30.8,442.0 L29.9,447.6 L28.7,451.5 L27.9,454.4 L26.4,457.4 L25.6,459.4 L25.2,462.3 L25.8,465.6 L27.4,469.9 L29.5,472.0 L33.1,475.5 L36.4,477.3 L39.5,478.6 L42.8,479.1 L45.5,478.3 L48.4,477.1 L50.5,474.8 L51.9,472.4 L53.3,467.9 L53.6,462.2 L54.6,456.1 L56.2,450.3 L58.6,445.0 L59.3,442.6 L59.7,440.2 L59.0,437.5 L57.1,434.6 Z" fill="#2f7825" stroke="none"/>
<path d="M27.5,-24.7 L24.9,-26.2 L22.0,-26.8 L19.4,-26.3 L15.6,-24.5 L11.9,-22.7 L8.6,-19.0 L5.8,-15.7 L3.8,-12.6 L1.2,-7.3 L-1.0,-1.0 L-2.3,3.2 L-3.2,8.0 L-2.4,12.3 L-0.6,15.9 L2.6,18.1 L5.9,18.7 L9.2,18.2 L11.6,17.1 L13.4,15.2 L15.1,11.5 L16.8,7.8 L19.4,3.7 L23.8,0.5 L27.4,-1.9 L29.7,-3.7 L32.3,-6.0 L33.6,-9.3 L34.0,-12.8 L33.2,-16.9 L32.1,-19.7 L30.4,-22.4 L27.5,-24.7 Z" fill="#2f7825" stroke="none"/>
<path d="M-22.2,-62.0 L-26.7,-65.3 L-32.2,-66.6 L-38.7,-66.3 L-42.6,-64.9 L-45.8,-63.1 L-48.4,-60.2 L-50.8,-52.8 L-54.0,-9.5 L-53.1,-4.1 L-50.9,-2.3 L-47.6,-1.7 L-43.4,-2.6 L-38.5,-6.0 L-32.7,-13.1 L-24.2,-25.1 L-21.0,-31.3 L-19.1,-37.3 L-17.4,-44.8 L-17.0,-50.5 L-18.5,-57.0 L-22.2,-62.0 Z" fill="#2f7825" stroke="none"/>
<path d="M184.2,732.7 L147.9,357.7 L114.8,165.2 L158.3,67.3" fill="none" stroke="#ffd64a" stroke-width="3.5" stroke-linecap="round" stroke-linejoin="round" opacity="0.95"/>
</svg>