<svg xmlns="http://www.w3.org/2000/svg" viewBox="0 0 800 600" preserveAspectRatio="xMidYMid slice">
<rect width="100%" height="100%" fill="#143018"/>
<path d="M359.8,520.0 L407.2,672.6 L417.8,666.0 L412.6,533.7 L359.8,520.0 Z" fill="#0f2810" stroke="none"/>
<path d="M612.7,173.1 L564.0,128.6 L510.5,119.7 L548.3,199.2 L536.2,353.5 L519.8,399.1 L528.9,410.8 L612.7,173.1 Z" fill="#0f2810" stroke="none"/>
<path d="M591.4,17.6 L588.4,21.8 L584.3,27.5 L579.5,32.6 L574.2,38.3 L568.9,43.8 L564.9,49.1 L560.0,54.9 L557.7,59.2 L556.5,62.7 L555.1,68.6 L554.8,73.8 L555.6,83.7 L558.8,92.7 L570.7,108.3 L618.9,164.2 L648.3,200.5 L663.7,219.4 L673.7,231.6 L680.9,236.8 L687.8,238.0 L696.5,238.0 L708.0,234.2 L718.9,231.6 L730.8,232.5 L740.2,234.9 L754.5,242.3 L764.3,249.7 L773.8,254.9 L781.2,256.0 L788.2,255.1 L796.5,251.3 L805.2,244.7 L813.7,235.7 L821.2,226.4 L832.6,213.3 L838.7,207.2 L734.9,118.2 L684.3,69.5 L658.9,45.8 L631.1,23.5 L602.7,-3.8 L599.7,2.6 L595.4,10.2 L591.4,17.6 Z" fill="#2b5a2a" stroke="none"/>
<path d="M596.4,-9.2 L527.2,-78.1 L458.9,-19.2 L471.9,-4.9 L486.6,11.0 L545.4,80.0 L546.3,69.5 L548.3,59.8 L552.2,51.4 L559.8,41.8 L568.9,31.7 L576.2,23.8 L583.1,16.0 L589.3,7.3 L596.4,-9.2 Z" fill="#2b5a2a" stroke="none"/>
<path d="M351.5,268.1 L349.3,253.1 L348.9,238.2 L346.7,212.8 L342.6,198.4 L339.9,180.2 L338.5,170.1 L337.8,154.2 L338.0,139.2 L339.7,124.3 L341.1,120.6 L342.4,115.5 L343.4,110.1 L344.6,106.8 L348.9,92.6 L352.4,88.8 L353.4,84.5 L354.3,80.3 L360.1,77.3 L367.2,71.3 L368.0,67.1 L370.5,66.0 L371.2,61.3 L370.0,49.7 L373.2,42.6 L375.3,39.7 L380.9,35.8 L385.9,32.5 L388.1,28.7 L389.1,24.3 L393.5,23.5 L397.1,27.6 L401.6,29.3 L409.3,31.0 L414.3,32.3 L418.8,36.6 L423.9,43.0 L425.8,46.9 L425.0,53.3 L421.9,57.6 L415.3,60.4 L410.7,61.3 L403.7,69.2 L401.4,75.6 L403.1,82.9 L400.8,85.3 L398.1,83.8 L395.4,82.3 L391.4,81.1 L387.9,81.6 L385.5,82.0 L383.4,83.2 L381.2,85.4 L379.5,89.9 L379.5,93.9 L381.7,96.2 L386.8,98.9 L385.9,102.1 L382.9,100.5 L380.1,100.1 L377.1,101.6 L375.9,104.8 L375.4,107.7 L376.5,111.3 L379.5,113.6 L384.1,116.5 L390.2,118.4 L396.5,119.8 L401.6,120.8 L402.4,127.4 L401.8,133.4 L399.9,141.0 L398.5,151.4 L400.0,156.0 L404.3,159.9 L404.7,164.5 L404.6,168.7 L406.9,172.3 L412.0,174.5 L414.7,176.1 L418.7,182.0 L422.0,191.0 L420.4,203.2 L417.7,212.3 L416.6,226.4 L417.3,241.7 L418.7,244.4 L421.0,264.6 L421.4,274.5 L418.9,289.0 L419.1,308.1 L422.7,328.7 L423.5,347.6 L424.8,366.1 L426.5,389.2 L430.2,414.0 L433.8,433.5 L433.6,459.3 L431.3,471.7 L434.0,488.7 L434.2,504.3 L435.3,514.6 L438.9,521.5 L444.1,523.4 L448.5,522.6 L455.7,521.7 L457.3,567.7 L430.4,571.9 L434.2,601.6 L437.6,610.2 L443.0,622.4 L447.9,632.9 L452.7,637.9 L448.1,649.0 L447.7,658.1 L443.7,665.6 L435.9,666.9 L439.5,690.2 L425.0,690.0 L422.5,666.5 L417.8,666.0 L415.3,633.7 L414.1,619.2 L415.1,607.4 L414.7,589.2 L413.2,558.7 L412.6,533.7 L407.3,509.6 L405.2,496.1 L402.9,482.5 L396.6,473.2 L390.3,457.4 L387.8,432.5 L386.3,412.7 L380.0,391.9 L377.1,373.8 L375.6,362.5 L372.0,345.3 L370.4,327.8 L369.7,312.1 L364.9,297.8 L359.7,283.9 L351.5,268.1 Z" fill="#2b5a2a" stroke="none"/>
<path d="M403.1,82.9 L405.5,87.3 L406.7,91.5 L407.2,96.4 L405.8,101.1 L403.9,106.3 L403.1,111.1 L402.3,117.2 L401.6,120.8 L396.5,119.8 L390.2,118.4 L384.1,116.5 L379.5,113.6 L384.6,114.1 L389.0,112.0 L391.0,108.5 L391.7,105.6 L390.4,102.7 L388.1,101.9 L385.9,102.1 L386.8,98.9 L392.5,99.6 L395.4,100.9 L398.9,101.7 L401.5,101.5 L403.3,98.6 L404.0,93.0 L403.0,90.0 L400.8,85.3 L403.1,82.9 Z" fill="#2b5a2a" stroke="none"/>
<path d="M455.7,521.7 L459.9,515.6 L460.1,508.1 L458.8,496.4 L459.0,488.8 L461.7,472.3 L461.3,460.8 L461.5,442.5 L461.5,427.1 L458.4,412.3 L454.4,399.9 L451.5,387.1 L448.4,372.8 L445.8,360.7 L448.2,348.7 L451.8,335.7 L453.8,325.5 L452.2,312.8 L451.3,302.6 L450.0,285.2 L450.7,269.0 L452.0,253.4 L449.6,237.7 L447.3,224.7 L447.4,213.9 L448.7,205.3 L449.3,189.4 L448.5,174.0 L445.6,160.0 L444.2,144.4 L441.2,131.6 L434.5,122.3 L430.3,116.4 L426.2,105.6 L423.9,96.3 L421.3,78.0 L429.3,76.4 L433.5,72.0 L435.0,61.4 L437.6,49.9 L431.0,39.8 L425.3,34.3 L423.9,25.2 L422.9,16.2 L417.3,8.7 L410.5,0.9 L401.9,-7.0 L400.1,-39.9 L436.3,-30.2 L440.1,-27.8 L442.7,-22.5 L447.6,-28.0 L451.6,-33.3 L454.8,-18.2 L456.6,-3.9 L463.4,13.7 L470.1,35.4 L470.7,45.7 L470.9,55.4 L472.9,61.2 L479.1,64.9 L486.2,66.2 L489.7,69.3 L491.2,82.1 L492.1,93.0 L487.5,98.9 L480.4,100.9 L460.8,103.6 L445.6,105.5 L437.4,106.6 L442.0,117.5 L445.3,130.0 L449.6,139.8 L461.7,153.9 L474.5,160.1 L484.2,164.3 L495.2,170.4 L503.2,179.7 L509.6,194.5 L513.6,209.5 L517.5,224.3 L520.0,242.2 L521.3,258.2 L518.8,273.9 L517.9,294.0 L515.5,311.6 L512.0,329.5 L510.2,341.9 L504.9,350.1 L499.2,359.7 L495.2,368.1 L498.8,375.7 L503.2,385.1 L507.6,399.9 L506.9,417.3 L507.4,430.8 L509.4,445.1 L512.9,464.1 L514.9,485.5 L518.0,501.6 L521.3,520.2 L522.1,536.3 L522.1,549.7 L520.0,560.3 L515.3,575.4 L519.2,588.9 L517.1,593.2 L513.8,602.0 L513.0,606.4 L511.3,610.2 L508.2,611.8 L504.5,611.9 L497.8,609.9 L491.9,608.3 L488.5,606.2 L487.1,605.6 L485.5,605.2 L483.1,602.5 L476.3,592.5 L473.8,580.8 L472.0,572.5 L468.5,568.1 L463.2,566.8 L457.3,567.7 L455.7,521.7 Z" fill="#2b5a2a" stroke="none"/>
<path d="M448.5,693.9 L446.2,697.7 L442.6,700.6 L438.9,702.9 L436.1,702.9 L432.3,699.6 L427.3,696.6 L423.6,693.8 L420.9,691.0 L416.9,687.9 L413.7,684.9 L410.1,683.0 L406.3,682.8 L404.3,683.6 L402.1,685.6 L400.8,688.3 L400.8,693.4 L401.2,697.8 L402.1,701.2 L403.2,705.2 L405.3,708.9 L408.6,715.4 L412.5,717.9 L417.3,721.8 L420.5,724.5 L425.4,726.0 L430.2,726.3 L434.5,725.1 L441.5,723.7 L451.9,713.1 L450.6,710.2 L450.8,705.0 L451.9,700.1 L453.2,693.4 L453.7,686.5 L454.4,683.1 L447.8,682.3 L448.9,686.6 L449.1,690.3 L448.5,693.9 Z" fill="#2b5a2a" stroke="none"/>
<path d="M607.1,764.2 L625.6,774.1 L630.9,779.6 L636.3,786.7 L639.9,790.5 L644.9,795.9 L649.7,802.6 L638.0,815.3 L631.9,812.5 L622.9,810.9 L616.2,805.0 L607.7,793.0 L594.5,778.7 L581.2,768.8 L558.1,754.2 L547.1,741.4 L537.7,730.3 L529.6,717.8 L517.7,706.2 L505.1,695.8 L493.6,691.3 L480.4,683.5 L467.9,679.4 L458.5,678.3 L455.9,678.8 L454.6,682.0 L454.4,683.1 L447.8,682.3 L446.7,674.1 L444.9,668.6 L443.7,665.6 L447.7,658.1 L448.1,649.0 L452.7,637.9 L447.9,632.9 L450.7,628.5 L454.6,620.3 L463.2,614.9 L467.0,610.3 L472.8,603.5 L476.3,592.5 L485.5,605.2 L483.7,605.9 L482.7,607.9 L482.0,610.6 L482.3,613.4 L483.9,616.5 L486.5,619.1 L492.2,621.3 L500.2,625.0 L507.6,628.6 L515.5,633.3 L521.0,636.9 L523.8,643.5 L523.4,650.7 L523.7,658.6 L527.3,668.2 L532.4,684.0 L541.3,695.2 L556.0,711.4 L568.7,721.2 L577.9,729.1 L592.8,749.6 L607.1,764.2 Z" fill="#2b5a2a" stroke="none"/>
<path d="M213.9,-11.6 L218.2,-12.6 L221.7,-15.0 L228.9,-23.5 L232.5,-29.0 L235.6,-34.1 L241.1,-46.1 L244.2,-56.5 L246.3,-65.7 L248.3,-71.8 L251.3,-79.4 L256.0,-83.4 L264.2,-86.7 L269.9,-87.0 L275.8,-85.8 L284.0,-83.4 L289.0,-81.2 L293.4,-80.5 L300.1,-82.2 L307.9,-82.3 L317.1,-80.2 L323.2,-76.5 L329.6,-73.2 L340.1,-67.2 L362.0,-56.4 L364.2,-55.4 L374.8,-50.7 L386.2,-45.4 L395.2,-41.2 L400.1,-39.9 L401.9,-7.0 L397.5,6.3 L395.5,12.3 L394.0,16.2 L392.9,19.2 L392.9,21.6 L393.5,23.5 L389.1,24.3 L388.7,20.5 L384.4,17.8 L380.3,19.4 L378.0,23.2 L374.6,27.7 L371.1,30.8 L367.6,31.9 L363.0,33.8 L358.8,37.1 L356.4,41.4 L354.2,45.0 L350.3,48.0 L345.6,49.8 L339.6,50.2 L336.4,50.5 L333.4,51.0 L330.6,52.4 L328.9,54.1 L326.8,56.4 L325.6,61.7 L325.0,69.2 L324.5,76.7 L323.5,84.8 L322.8,90.5 L320.9,95.0 L317.1,100.2 L311.5,105.8 L306.5,108.4 L301.9,109.0 L297.4,111.1 L294.0,114.2 L292.1,117.6 L291.1,122.4 L289.7,128.1 L290.0,132.7 L292.6,137.8 L296.5,143.4 L305.0,159.0 L306.9,166.0 L308.7,173.9 L310.3,180.8 L310.6,190.0 L309.1,195.3 L307.9,202.4 L309.2,213.6 L309.4,221.2 L308.7,227.5 L309.4,234.7 L316.4,250.5 L319.6,257.5 L324.4,273.6 L328.8,291.9 L328.5,298.6 L325.2,305.9 L321.4,312.7 L316.6,322.2 L317.5,331.5 L329.3,363.1 L333.2,384.6 L323.1,384.1 L318.8,368.5 L314.7,358.1 L308.2,337.6 L303.2,327.6 L300.5,323.1 L296.1,320.1 L290.2,317.5 L283.6,311.8 L276.6,303.5 L266.3,293.8 L263.3,287.4 L256.4,269.8 L250.4,258.5 L245.3,253.5 L240.2,251.1 L239.4,230.1 L244.3,219.3 L241.9,210.2 L235.2,193.4 L231.6,182.1 L230.3,174.7 L229.4,159.4 L230.6,142.7 L233.5,132.4 L233.0,123.0 L232.1,114.2 L229.2,105.6 L224.9,99.9 L219.5,92.0 L214.2,79.9 L210.6,75.6 L208.5,69.7 L212.5,65.5 L214.9,59.3 L216.3,50.9 L215.0,43.7 L212.8,40.8 L213.9,-11.6 Z" fill="#2b5a2a" stroke="none"/>
<path d="M690.2,249.4 L793.1,366.7 L867.2,289.2 L885.1,275.8 L905.7,256.4 L920.1,234.4 L929.3,219.7 L955.4,199.1 L977.1,179.6 L1011.1,161.2 L1030.2,151.0 L1081.5,106.4 L1102.5,87.9 L1077.0,89.2 L1057.6,91.4 L1041.1,94.9 L1019.5,96.7 L994.4,101.5 L974.0,105.1 L961.1,111.5 L951.9,115.3 L942.4,122.0 L930.9,130.9 L918.2,142.4 L907.3,152.9 L882.5,174.2 L864.7,192.0 L852.6,203.2 L841.1,215.0 L829.3,229.9 L818.8,241.4 L807.7,252.5 L800.4,258.9 L791.4,264.0 L780.3,265.9 L770.4,263.1 L760.5,258.0 L752.6,251.9 L745.3,246.5 L737.3,242.0 L729.3,240.1 L722.0,239.8 L708.3,243.9 L690.2,249.4 Z" fill="#2b5a2a" stroke="none"/>
<path d="M323.1,384.1 L316.7,381.3 L309.6,381.1 L303.4,380.5 L297.7,378.9 L293.1,379.8 L290.9,382.7 L290.0,388.0 L287.5,390.0 L278.9,397.2 L277.6,409.8 L274.8,418.2 L275.9,424.8 L275.7,431.0 L276.7,442.7 L275.1,444.8 L268.9,467.1 L275.1,472.7 L279.0,477.5 L281.6,484.0 L283.8,490.3 L290.4,498.0 L293.2,500.9 L292.7,510.9 L290.0,532.2 L285.6,547.0 L288.0,568.0 L288.6,577.6 L290.0,583.5 L294.0,596.7 L297.5,605.0 L297.7,612.3 L294.8,619.9 L286.0,632.4 L280.0,638.6 L275.1,645.4 L274.3,652.9 L275.5,660.4 L283.0,676.6 L291.6,687.0 L297.3,699.6 L303.6,711.5 L311.2,725.2 L317.3,737.3 L327.4,752.1 L337.8,766.4 L346.4,775.7 L360.4,782.8 L368.4,787.4 L376.6,795.4 L385.7,802.6 L391.3,806.5 L395.3,805.6 L399.7,793.6 L405.0,776.8 L404.7,767.7 L401.8,760.7 L398.3,754.6 L396.1,741.3 L395.9,731.7 L392.6,718.7 L390.5,711.5 L387.8,707.7 L382.7,703.4 L378.1,695.6 L377.4,684.3 L377.9,672.6 L377.9,661.5 L371.7,654.7 L364.5,648.1 L352.6,640.5 L348.5,636.0 L348.5,629.2 L348.1,623.8 L352.0,612.1 L353.7,601.8 L353.5,596.4 L351.8,586.0 L349.1,569.6 L348.1,557.4 L347.3,546.6 L346.5,533.7 L348.3,524.4 L347.2,511.2 L349.7,503.6 L353.1,494.8 L354.8,489.2 L358.0,486.1 L363.7,484.9 L367.9,488.8 L374.1,500.5 L381.9,524.3 L388.1,523.8 L393.2,520.1 L393.5,512.6 L388.7,500.5 L382.8,484.0 L377.9,470.6 L366.8,472.7 L361.8,468.4 L352.1,469.8 L349.3,473.0 L347.0,471.4 L346.2,464.9 L346.5,459.0 L349.3,451.4 L346.7,438.1 L346.2,429.7 L341.0,409.0 L326.2,409.5 L322.3,422.2 L318.2,434.6 L313.4,428.1 L316.0,416.3 L318.1,406.0 L321.4,403.0 L325.8,400.6 L331.7,399.8 L337.3,397.4 L334.6,389.7 L333.2,384.6 L323.1,384.1 Z" fill="#2b5a2a" stroke="none"/>
<path d="M341.0,409.0 L339.4,403.1 L337.3,397.4 L331.7,399.8 L329.7,403.9 L326.2,409.5 L341.0,409.0 Z" fill="#2b5a2a" stroke="none"/>
<path d="M361.8,468.4 L357.9,465.2 L353.4,460.4 L350.7,454.9 L349.3,451.4 L346.5,459.0 L351.0,463.6 L351.8,466.8 L352.1,469.8 L361.8,468.4 Z" fill="#2b5a2a" stroke="none"/>
<path d="M208.5,69.7 L201.6,67.9 L200.0,61.6 L200.3,53.3 L202.2,47.3 L205.4,43.1 L212.8,40.8 L213.9,-11.6 L178.9,-12.6 L180.2,14.5 L179.9,31.7 L180.2,53.6 L182.5,84.2 L181.0,105.1 L183.5,130.0 L182.7,142.0 L183.1,165.8 L180.2,178.1 L177.4,193.1 L179.1,240.9 L177.0,263.0 L178.3,275.2 L182.5,289.9 L186.9,312.2 L188.3,326.7 L186.2,346.2 L187.1,362.6 L185.6,374.6 L184.8,393.7 L184.4,407.5 L188.3,440.7 L189.4,456.1 L189.4,466.8 L182.0,483.2 L174.5,497.0 L169.4,507.3 L163.1,522.7 L160.8,546.6 L161.5,562.4 L165.0,573.7 L170.1,589.5 L173.4,597.4 L176.4,616.8 L181.4,630.4 L189.2,648.1 L192.1,655.0 L197.2,666.1 L201.2,671.2 L207.0,675.2 L215.2,674.8 L224.9,667.6 L233.3,660.9 L239.6,656.1 L246.1,646.4 L247.6,638.2 L245.3,628.7 L242.1,621.6 L237.5,614.2 L232.0,607.1 L226.8,599.3 L223.2,591.6 L219.1,578.7 L215.1,562.5 L213.7,551.3 L213.8,542.6 L214.6,536.0 L216.2,531.3 L221.3,523.8 L226.7,522.2 L234.4,518.5 L238.7,515.7 L241.2,513.0 L245.7,508.2 L249.8,500.9 L252.4,494.5 L255.1,478.6 L257.5,472.5 L260.3,468.2 L262.9,466.5 L266.0,466.0 L268.9,467.1 L275.1,444.8 L269.9,442.6 L259.0,438.1 L250.3,432.9 L245.2,430.2 L240.9,427.0 L237.9,424.3 L238.0,419.8 L239.6,415.1 L242.0,411.2 L245.7,402.2 L249.2,393.6 L249.8,386.9 L249.0,379.1 L246.8,372.7 L244.2,359.8 L242.5,347.2 L241.5,335.6 L239.6,318.4 L235.5,297.7 L232.0,280.8 L230.4,271.5 L228.5,263.7 L227.5,258.1 L227.8,252.3 L228.6,249.5 L231.2,248.1 L235.8,247.7 L240.2,251.1 L239.4,230.1 L236.4,234.7 L230.4,235.0 L228.2,228.5 L225.9,218.6 L224.2,207.0 L222.8,196.6 L222.1,185.3 L219.1,179.3 L214.0,175.0 L208.7,169.4 L206.5,160.8 L205.9,145.4 L205.9,133.6 L207.0,113.7 L206.2,105.7 L204.8,86.5 L205.1,81.7 L206.2,78.0 L208.3,76.1 L210.6,75.6 L208.5,69.7 Z" fill="#2b5a2a" stroke="none"/>
<path d="M183.7,-21.1 L188.7,-18.8 L197.3,-15.7 L204.4,-15.1 L214.5,-16.4 L219.9,-19.7 L224.7,-25.1 L229.0,-30.9 L233.7,-38.0 L237.4,-47.9 L240.1,-56.6 L243.8,-70.3 L243.0,-74.8 L240.9,-78.4 L186.0,-100.3 L179.4,-23.1 L183.7,-21.1 Z" fill="#2b5a2a" stroke="none"/>
<path d="M449.3,189.4 L441.4,215.8 L431.9,241.3 L421.0,264.6 L421.4,274.5 L427.7,265.1 L437.3,242.5 L444.0,229.8 L447.3,224.7 L447.4,213.9 L448.7,205.3 L449.3,189.4 Z" fill="#2b5a2a" stroke="none"/>
<path d="M501.7,195.3 L498.0,186.5 L494.8,176.7 L489.3,170.0 L482.6,168.4 L476.0,170.3 L468.8,176.9 L465.6,184.9 L460.1,194.2 L453.2,206.1 L450.0,221.5 L452.6,232.9 L457.1,257.1 L455.8,283.6 L453.7,309.7 L460.1,320.8 L460.9,329.3 L457.4,341.5 L453.4,359.3 L451.8,374.4 L456.9,399.9 L462.2,416.9 L464.1,433.9 L464.6,448.5 L464.8,464.4 L464.6,472.6 L468.0,477.7 L474.1,479.3 L481.8,481.9 L485.3,484.8 L486.6,490.7 L483.4,498.4 L480.2,502.6 L476.3,506.3 L472.8,513.2 L471.5,523.6 L471.0,532.6 L473.6,541.9 L477.1,548.5 L479.4,554.4 L480.2,562.9 L479.2,570.6 L478.9,581.7 L480.2,589.2 L484.5,595.4 L490.6,599.6 L494.5,601.2 L499.9,600.9 L503.8,600.1 L506.3,597.7 L508.5,594.4 L508.9,592.2 L509.7,589.3 L508.9,585.8 L507.7,583.9 L506.3,581.0 L505.4,576.8 L506.2,573.6 L508.9,569.4 L512.3,566.1 L514.1,563.3 L515.6,559.7 L516.2,553.6 L516.9,543.0 L515.8,529.6 L513.4,511.3 L507.0,475.9 L504.8,451.2 L503.0,424.7 L500.1,399.2 L500.1,385.7 L498.7,380.4 L492.9,375.9 L489.2,370.0 L489.4,359.9 L494.0,351.7 L500.3,342.9 L505.4,333.9 L508.6,325.2 L510.2,304.7 L511.5,286.1 L512.5,265.2 L511.5,247.9 L508.0,223.8 L504.6,208.9 L501.7,195.3 Z" fill="#5a9540" stroke="none"/>
<path d="M425.6,459.6 L428.2,450.2 L427.4,425.8 L422.9,398.4 L417.3,367.1 L416.2,335.5 L416.2,313.0 L415.2,297.1 L414.4,271.6 L412.0,239.4 L409.4,210.2 L402.7,178.1 L397.9,157.7 L395.8,146.3 L398.5,132.5 L398.1,127.2 L394.4,124.6 L389.8,123.3 L384.6,121.5 L380.5,119.8 L376.3,116.0 L374.0,110.6 L374.6,106.0 L375.7,100.9 L377.2,94.7 L378.2,88.9 L379.4,85.4 L381.3,82.6 L384.7,80.1 L388.7,78.7 L394.2,76.9 L396.0,74.4 L397.2,69.7 L397.8,66.6 L399.0,64.6 L402.8,62.0 L407.6,60.3 L411.6,57.9 L415.3,54.9 L416.5,51.4 L416.5,46.2 L414.9,42.1 L413.2,38.1 L410.6,35.2 L407.6,33.3 L404.4,32.1 L400.1,31.2 L393.1,32.0 L390.5,33.3 L387.5,35.4 L383.8,39.5 L380.4,42.2 L378.3,44.3 L376.8,46.9 L376.1,49.6 L376.0,53.5 L376.4,56.6 L376.7,60.9 L375.7,66.5 L374.4,70.6 L372.5,75.7 L370.1,79.5 L366.6,82.9 L364.3,84.7 L361.7,89.1 L361.0,93.5 L358.3,101.9 L355.7,106.8 L354.0,114.3 L349.7,121.2 L348.2,127.6 L346.8,140.4 L348.6,156.7 L348.6,166.5 L351.6,183.1 L352.4,198.1 L355.7,220.5 L356.7,241.0 L357.3,254.4 L361.5,275.3 L375.3,308.2 L378.7,332.7 L382.6,356.7 L386.4,373.1 L391.5,387.6 L392.7,408.4 L394.2,423.5 L396.0,435.7 L396.5,447.7 L398.2,457.1 L402.9,462.6 L408.8,465.1 L414.3,466.2 L418.9,464.5 L423.5,462.9 L425.6,459.6 Z" fill="#5a9540" stroke="none"/>
<path d="M497.5,631.5 L497.5,629.7 L497.0,628.1 L495.1,626.4 L493.3,625.3 L489.6,623.6 L487.0,621.9 L485.1,621.1 L482.8,620.7 L480.6,620.8 L478.6,621.6 L476.7,623.1 L475.3,624.7 L473.3,626.9 L472.0,629.2 L470.4,633.3 L469.8,636.0 L469.2,638.8 L469.4,642.6 L470.4,646.3 L472.1,651.7 L472.8,655.5 L473.3,663.8 L474.1,668.8 L476.8,673.7 L478.1,675.7 L480.7,677.8 L483.8,679.5 L487.0,681.1 L491.1,682.2 L494.6,682.6 L499.0,681.8 L503.0,680.4 L505.0,678.2 L507.8,674.8 L510.1,671.8 L511.9,669.2 L513.7,664.7 L513.7,661.6 L512.4,660.0 L510.8,659.8 L509.2,660.1 L508.2,660.4 L506.7,660.6 L504.6,659.8 L502.7,658.5 L501.8,657.2 L500.4,654.2 L499.7,651.2 L499.1,648.0 L499.3,645.3 L499.6,644.0 L499.2,642.7 L498.2,640.6 L497.6,638.0 L497.5,635.0 L497.5,631.5 Z" fill="#5a9540" stroke="none"/>
<path d="M283.2,-41.9 L281.2,-43.0 L278.7,-43.7 L274.9,-43.8 L271.9,-43.3 L269.0,-42.0 L266.6,-40.9 L264.7,-39.6 L262.7,-37.2 L260.8,-34.6 L259.8,-32.1 L257.6,-28.4 L255.5,-24.5 L253.8,-20.4 L252.4,-15.7 L250.2,-8.8 L247.7,-6.5 L243.5,-4.8 L239.8,-3.4 L235.3,-0.3 L232.1,3.9 L230.4,8.2 L230.3,13.3 L231.1,16.8 L233.6,20.2 L236.6,22.2 L238.9,24.5 L240.1,27.2 L241.0,30.0 L240.6,34.0 L239.1,37.4 L236.7,40.5 L234.4,42.8 L230.6,44.8 L227.8,44.6 L225.5,42.9 L223.9,41.9 L222.0,42.3 L219.9,44.6 L219.5,47.9 L219.1,51.3 L218.3,57.3 L217.3,61.6 L217.1,64.9 L217.6,68.6 L219.4,72.5 L221.9,75.7 L226.3,78.9 L233.7,84.7 L236.8,87.8 L241.1,90.2 L244.6,90.4 L247.9,89.1 L250.5,87.5 L253.0,83.6 L256.5,76.8 L261.9,66.9 L267.9,58.0 L274.9,48.3 L278.8,43.3 L282.1,38.8 L285.0,33.8 L286.5,28.5 L286.6,20.8 L284.2,15.0 L281.4,12.3 L277.4,9.3 L274.6,6.7 L272.6,4.1 L272.2,1.5 L272.1,-2.0 L272.8,-5.1 L274.5,-8.9 L276.3,-10.8 L278.7,-12.3 L281.9,-15.7 L285.1,-18.9 L287.7,-21.4 L289.5,-24.3 L289.9,-28.7 L289.9,-32.1 L289.0,-35.2 L287.2,-38.4 L285.4,-40.2 L283.2,-41.9 Z" fill="#5a9540" stroke="none"/>
<path d="M321.1,-8.8 L323.5,-24.8 L325.3,-35.0 L324.4,-39.1 L321.4,-42.6 L311.5,-42.6 L305.7,-35.0 L304.1,-23.9 L300.8,-13.0 L296.7,-2.4 L292.3,5.9 L290.4,13.3 L291.8,23.3 L295.7,31.3 L298.3,40.8 L299.2,47.1 L298.7,54.5 L296.2,61.8 L280.7,80.8 L269.4,93.3 L260.8,104.8 L248.4,116.2 L240.1,126.8 L234.3,142.0 L232.2,162.6 L235.9,181.1 L242.1,202.8 L248.8,218.3 L255.5,227.8 L255.8,241.4 L254.4,253.2 L256.9,260.3 L261.1,268.0 L268.0,279.1 L278.9,296.1 L284.9,305.2 L293.0,308.6 L304.5,307.9 L309.8,304.2 L314.9,297.1 L317.0,288.5 L316.5,280.9 L314.4,267.0 L306.8,254.8 L300.8,245.3 L298.3,234.7 L299.9,228.0 L300.4,219.4 L298.5,213.4 L296.7,203.3 L290.9,193.6 L284.6,175.5 L282.1,158.9 L280.7,141.3 L281.6,128.4 L284.4,116.2 L291.6,105.8 L301.3,98.4 L308.7,91.2 L316.8,80.8 L319.5,72.2 L320.7,62.1 L319.3,54.7 L321.6,47.5 L326.5,44.7 L333.6,43.8 L341.0,43.1 L346.1,42.7 L349.1,39.9 L349.3,35.7 L346.3,33.0 L340.1,31.1 L331.3,29.0 L325.8,27.2 L320.0,21.9 L319.5,11.9 L321.4,2.7 L320.5,-4.0 L321.1,-8.8 Z" fill="#5a9540" stroke="none"/>
<path d="M218.7,515.4 L210.8,515.5 L206.1,512.0 L201.2,504.9 L198.7,501.4 L198.7,497.3 L201.7,491.9 L204.2,487.0 L203.3,479.3 L200.5,470.0 L196.6,461.6 L191.9,444.1 L188.8,424.0 L187.0,408.7 L187.7,399.4 L190.5,382.6 L192.8,366.2 L193.7,343.6 L194.4,328.5 L193.8,315.6 L193.8,300.5 L193.1,284.4 L191.4,269.2 L188.9,255.7 L185.3,234.1 L183.5,221.0 L182.3,205.6 L181.9,198.8 L182.5,191.6 L185.4,186.3 L192.8,180.9 L202.9,179.7 L211.3,183.0 L216.1,186.8 L219.1,193.9 L220.3,208.2 L222.2,231.5 L224.8,252.0 L227.5,273.7 L229.6,290.3 L232.4,301.9 L236.0,326.4 L238.3,347.3 L240.1,369.3 L240.2,390.0 L239.9,400.0 L238.0,407.8 L233.8,413.6 L232.4,424.1 L233.8,432.7 L237.1,436.7 L243.9,442.5 L246.7,447.6 L248.5,455.3 L248.8,467.6 L248.1,480.5 L246.0,493.5 L244.8,501.9 L240.4,508.7 L234.1,512.9 L225.5,515.5 L218.7,515.4 Z" fill="#5a9540" stroke="none"/>
<path d="M208.6,539.4 L207.9,531.5 L206.6,525.7 L202.2,522.0 L193.4,518.1 L188.5,519.3 L180.4,523.6 L173.0,529.9 L169.1,539.6 L168.2,552.5 L171.9,562.2 L175.1,573.6 L178.8,582.4 L185.8,595.5 L186.7,607.8 L188.8,617.2 L192.0,621.4 L193.1,627.6 L193.8,636.4 L195.0,648.0 L197.5,654.9 L201.9,661.1 L207.5,664.4 L213.5,662.5 L223.7,657.7 L228.3,654.2 L232.9,650.0 L234.0,644.5 L231.3,637.3 L225.7,630.4 L220.2,624.9 L217.9,619.8 L219.3,616.8 L221.3,613.8 L224.3,610.5 L224.8,605.5 L221.8,597.6 L219.0,591.4 L214.4,582.6 L211.6,569.6 L209.8,554.4 L208.6,539.4 Z" fill="#5a9540" stroke="none"/>
<path d="M307.5,394.0 L304.8,392.0 L302.3,391.4 L299.4,391.2 L296.4,391.4 L292.6,392.4 L289.7,394.1 L286.4,397.5 L284.5,399.7 L283.4,403.1 L282.4,407.2 L282.2,409.8 L281.9,412.6 L281.2,415.8 L279.7,418.7 L278.1,421.6 L277.9,425.4 L278.3,429.0 L279.4,432.5 L281.0,435.6 L282.5,439.0 L284.0,443.2 L283.7,446.8 L282.5,448.9 L278.5,452.6 L274.2,457.9 L273.8,463.8 L275.0,467.6 L277.9,471.1 L281.2,474.2 L284.7,477.1 L287.5,482.8 L291.1,486.7 L295.1,488.5 L300.4,488.9 L308.3,489.3 L314.6,490.5 L319.4,492.7 L322.8,496.0 L325.0,498.6 L325.4,502.5 L325.4,505.3 L323.8,507.0 L320.3,508.2 L317.1,507.8 L311.3,506.5 L307.7,505.8 L305.4,506.7 L303.3,508.0 L300.3,511.7 L297.8,517.1 L297.3,521.0 L297.2,525.7 L295.8,528.6 L294.1,530.8 L292.7,537.5 L292.0,550.0 L292.3,564.5 L294.2,580.5 L298.3,593.2 L302.3,600.7 L305.4,607.4 L305.2,613.0 L301.6,618.3 L296.1,627.1 L290.9,635.0 L284.5,640.3 L281.4,646.0 L281.6,651.8 L283.8,660.9 L293.3,675.8 L298.6,683.7 L302.8,693.1 L306.5,701.7 L312.0,709.8 L316.6,719.1 L319.5,725.0 L321.8,730.3 L328.7,737.8 L338.0,748.2 L347.3,754.9 L358.0,760.3 L366.9,762.9 L374.1,762.3 L380.5,759.9 L386.5,753.9 L390.3,746.3 L388.4,735.8 L385.8,725.4 L383.7,718.3 L379.3,711.4 L375.0,706.1 L370.5,699.2 L366.8,690.1 L366.0,675.6 L364.4,664.1 L364.0,655.0 L362.5,650.7 L359.3,648.1 L353.4,647.2 L348.2,644.8 L344.5,641.6 L341.9,633.5 L338.7,621.6 L338.0,609.6 L338.6,596.6 L340.6,576.6 L341.1,561.4 L341.6,546.3 L341.5,534.0 L341.0,526.3 L341.0,518.2 L342.0,506.3 L341.0,490.5 L343.6,470.4 L343.0,457.3 L341.9,444.2 L340.7,432.3 L340.6,424.8 L339.2,418.7 L336.3,415.0 L333.1,414.7 L329.1,419.0 L327.6,423.3 L326.1,428.9 L325.0,432.9 L323.8,439.0 L320.9,441.6 L317.1,443.2 L313.9,442.5 L311.1,440.2 L309.3,437.3 L309.6,429.4 L310.1,422.7 L310.7,418.1 L311.8,413.2 L313.4,409.5 L314.8,405.6 L314.0,399.9 L311.0,396.0 L307.5,394.0 Z" fill="#5a9540" stroke="none"/>
<path d="M628.3,82.0 L627.5,74.3 L626.4,69.5 L624.5,65.9 L621.4,64.4 L616.3,62.1 L610.9,58.5 L606.7,58.3 L601.6,59.8 L598.5,64.2 L599.1,70.5 L602.3,75.7 L604.2,78.5 L604.8,85.0 L603.7,90.7 L605.0,94.9 L609.2,97.0 L616.1,98.9 L621.4,98.4 L625.4,95.3 L627.7,91.5 L628.7,87.3 L628.3,82.0 Z" fill="#5a9540" stroke="none"/>
<path d="M680.6,144.9 L677.7,141.9 L674.1,137.9 L670.5,134.6 L666.3,132.5 L662.8,132.5 L659.4,133.9 L659.8,139.4 L662.5,146.5 L665.1,153.7 L665.9,159.3 L669.1,164.6 L673.7,168.8 L679.8,171.1 L683.6,170.3 L689.0,167.5 L693.0,164.2 L694.5,159.8 L692.8,153.7 L688.6,150.5 L683.1,147.2 L680.6,144.9 Z" fill="#5a9540" stroke="none"/>
<path d="M735.4,197.9 L730.2,194.8 L723.5,191.6 L719.1,189.5 L713.6,190.6 L708.8,193.1 L707.1,198.5 L708.5,205.9 L713.4,213.2 L721.6,218.7 L730.0,222.5 L736.9,222.9 L741.7,220.6 L744.9,217.9 L747.4,213.0 L746.2,207.8 L743.8,203.6 L740.7,200.6 L735.4,197.9 Z" fill="#5a9540" stroke="none"/>
<path d="M498.0,635.1 L498.6,631.9 L499.5,629.9 L501.5,629.1 L504.3,629.3 L506.4,631.2 L507.0,634.0 L506.9,636.7 L506.9,638.8 L506.4,640.7 L504.9,641.9 L503.6,641.1 L501.6,640.3 L500.8,639.3 L499.3,637.9 L498.0,635.1 Z" fill="#e7d6a3" stroke="none"/>
<path d="M502.2,646.3 L503.6,646.0 L505.6,645.4 L507.3,645.3 L508.1,645.9 L508.3,647.7 L509.1,649.1 L510.3,650.8 L510.9,653.4 L510.7,655.7 L510.1,657.1 L508.8,658.9 L506.9,659.2 L505.3,658.9 L503.5,658.0 L502.7,656.8 L501.7,654.9 L501.3,653.1 L500.6,651.7 L500.5,649.9 L500.4,648.6 L500.6,647.1 L502.2,646.3 Z" fill="#e7d6a3" stroke="none"/>
<path d="M508.6,573.7 L509.5,571.2 L511.1,569.7 L512.4,568.5 L514.3,568.4 L516.8,570.3 L518.8,573.2 L519.8,575.7 L520.9,578.1 L522.0,580.0 L522.7,582.1 L522.5,585.0 L521.3,586.4 L519.4,587.2 L517.1,587.4 L514.9,587.1 L512.8,586.0 L512.1,583.6 L511.6,582.0 L510.3,581.5 L509.1,580.4 L508.1,578.3 L507.8,576.0 L508.6,573.7 Z" fill="#e7d6a3" stroke="none"/>
<path d="M222.7,24.9 L223.0,24.0 L223.9,23.4 L225.2,23.1 L226.9,23.1 L228.1,23.2 L230.7,24.5 L231.8,25.5 L232.6,26.4 L233.2,27.0 L234.4,27.6 L235.4,27.8 L236.5,28.5 L237.3,29.4 L237.5,30.9 L237.4,32.4 L236.7,34.1 L235.0,36.3 L233.4,38.5 L232.6,39.4 L231.8,40.3 L230.7,41.0 L229.7,41.4 L227.8,41.2 L225.5,40.8 L223.0,40.0 L221.4,39.2 L220.8,38.5 L221.0,37.7 L221.5,36.7 L221.7,35.1 L222.1,33.7 L222.5,32.5 L223.7,31.9 L224.5,30.9 L224.9,29.7 L224.6,28.2 L223.9,27.1 L223.1,26.3 L222.7,24.9 Z" fill="#e7d6a3" stroke="none"/>
<path d="M511.9,349.9 L511.1,348.2 L510.4,347.2 L509.2,346.6 L507.7,346.3 L506.4,345.7 L505.4,345.7 L504.1,346.0 L502.5,347.7 L500.7,350.6 L499.9,351.5 L499.3,352.6 L499.0,354.1 L498.6,355.5 L497.8,356.7 L496.5,357.7 L495.9,358.8 L495.4,360.6 L494.9,362.4 L495.1,364.0 L496.4,365.3 L498.2,366.3 L499.9,366.7 L502.6,366.2 L504.8,365.1 L506.2,363.7 L507.1,362.3 L507.6,360.6 L506.8,359.7 L506.9,358.3 L507.3,357.4 L508.1,356.7 L509.6,356.7 L510.6,355.9 L511.2,354.6 L511.6,353.2 L511.9,351.8 L511.9,349.9 Z" fill="#e7d6a3" stroke="none"/>
<path d="M482.0,487.4 L480.8,486.9 L479.6,487.0 L478.7,487.2 L476.9,487.4 L475.9,487.7 L474.7,488.6 L473.9,489.6 L472.7,490.6 L471.7,492.0 L471.7,493.2 L472.3,494.4 L473.3,495.3 L474.7,496.2 L476.4,496.1 L477.8,495.7 L478.8,494.7 L480.5,494.0 L482.2,493.7 L483.4,492.7 L484.1,491.6 L484.3,489.9 L483.7,488.6 L483.2,488.0 L482.0,487.4 Z" fill="#e7d6a3" stroke="none"/>
<path d="M373.8,47.1 L373.1,45.9 L371.6,45.4 L370.3,45.4 L368.9,46.0 L367.5,47.1 L367.0,47.9 L366.7,48.9 L366.5,50.1 L365.8,51.1 L364.9,52.0 L363.8,53.0 L363.5,54.2 L363.9,55.4 L365.4,56.8 L366.7,57.8 L366.9,59.0 L367.2,60.5 L367.7,62.2 L368.9,63.5 L370.7,64.0 L371.9,64.1 L373.0,63.5 L373.4,62.5 L373.9,60.7 L373.8,58.4 L373.3,57.0 L372.5,55.4 L372.1,54.2 L372.3,53.2 L372.9,52.3 L373.6,51.4 L374.1,50.1 L374.3,48.5 L373.8,47.1 Z" fill="#e7d6a3" stroke="none"/>
<path d="M392.8,90.4 L391.4,90.0 L389.9,90.3 L388.6,90.6 L387.5,90.9 L386.2,92.1 L385.3,93.2 L384.5,94.8 L384.8,96.0 L385.9,97.1 L387.0,97.5 L388.3,97.4 L389.2,96.9 L390.2,96.9 L391.3,97.5 L392.5,97.9 L393.9,97.8 L395.2,96.8 L396.1,95.5 L396.4,94.0 L396.4,92.8 L395.7,91.6 L394.3,90.8 L392.8,90.4 Z" fill="#e7d6a3" stroke="none"/>
<path d="M387.0,108.5 L385.8,107.5 L384.9,107.2 L383.9,107.3 L382.9,107.6 L382.1,107.6 L381.1,107.5 L380.2,107.6 L379.2,107.8 L378.2,108.4 L377.6,109.1 L377.6,110.5 L377.8,111.4 L378.0,112.5 L378.1,113.6 L378.5,114.6 L379.1,115.4 L380.0,115.7 L381.0,115.3 L382.1,115.0 L383.0,115.4 L384.1,115.5 L385.0,115.3 L385.9,114.9 L386.5,114.3 L386.5,113.1 L386.5,112.1 L386.9,111.2 L387.3,110.3 L387.0,108.5 Z" fill="#e7d6a3" stroke="none"/>
<path d="M412.5,67.1 L412.0,65.6 L411.0,64.2 L410.0,63.5 L408.4,62.8 L406.9,63.0 L406.1,63.8 L405.6,64.9 L404.8,65.3 L403.8,65.0 L402.5,64.7 L401.8,64.6 L401.0,64.7 L400.3,65.4 L399.6,66.4 L399.3,67.5 L399.3,68.5 L398.9,69.3 L398.5,70.1 L398.2,71.4 L398.9,72.3 L399.1,73.5 L399.1,75.2 L400.0,76.3 L401.9,76.8 L403.7,76.9 L404.9,75.9 L405.7,74.6 L407.0,74.0 L408.6,74.0 L409.9,73.4 L410.7,72.7 L411.2,71.6 L411.1,70.3 L411.1,69.8 L411.4,69.1 L412.3,68.4 L412.5,67.1 Z" fill="#e7d6a3" stroke="none"/>
<path d="M392.4,-3.9 L392.2,-5.5 L391.7,-6.5 L391.0,-7.3 L390.3,-7.9 L389.0,-8.2 L388.0,-8.7 L386.4,-8.4 L385.3,-7.7 L384.0,-7.3 L382.9,-7.1 L382.0,-5.8 L381.2,-4.9 L380.7,-3.9 L380.3,-2.6 L380.3,-1.3 L380.5,-0.1 L380.8,0.7 L381.5,1.6 L382.4,2.4 L384.1,3.1 L386.2,4.1 L387.9,4.4 L389.3,4.8 L390.7,4.8 L391.8,4.6 L392.9,4.1 L394.0,3.0 L394.5,1.2 L394.4,-0.3 L393.8,-1.6 L393.3,-2.8 L392.4,-3.9 Z" fill="#e7d6a3" stroke="none"/>
<path d="M376.7,-16.5 L375.8,-19.1 L374.5,-20.0 L371.7,-20.2 L369.7,-20.5 L367.6,-20.4 L366.3,-19.4 L365.0,-17.8 L365.1,-15.9 L366.6,-14.4 L367.9,-13.3 L369.6,-12.4 L370.5,-12.2 L370.5,-10.7 L371.3,-9.5 L372.7,-9.0 L374.9,-8.6 L376.8,-8.5 L378.4,-9.1 L379.1,-10.1 L379.7,-11.6 L379.3,-12.8 L378.7,-14.2 L377.6,-15.3 L376.7,-16.5 Z" fill="#e7d6a3" stroke="none"/>
<path d="M243.5,222.7 L241.2,221.5 L238.8,220.5 L236.3,220.1 L233.9,220.5 L233.0,222.9 L233.2,224.7 L234.0,226.6 L234.6,228.4 L234.2,230.7 L234.2,232.5 L233.4,234.2 L233.6,236.5 L234.4,237.8 L235.1,238.8 L236.3,239.5 L239.1,240.2 L240.5,239.3 L242.3,238.3 L244.9,237.8 L247.2,236.9 L248.5,235.6 L249.8,232.3 L249.9,228.9 L248.8,227.1 L247.6,226.2 L245.5,225.4 L243.5,222.7 Z" fill="#e7d6a3" stroke="none"/>
<path d="M312.0,233.9 L310.3,231.2 L306.6,230.5 L304.8,230.8 L304.2,233.1 L302.5,234.6 L301.6,236.1 L301.3,237.7 L302.8,240.6 L302.8,243.0 L302.9,245.2 L304.3,248.0 L305.6,249.1 L306.9,249.5 L309.2,249.5 L310.7,249.3 L312.8,247.9 L311.0,245.6 L311.8,243.1 L313.3,241.8 L314.1,240.8 L314.4,238.2 L314.1,235.8 L312.0,233.9 Z" fill="#e7d6a3" stroke="none"/>
<path d="M290.9,-13.6 L290.5,-15.6 L289.8,-17.1 L288.7,-18.1 L287.1,-18.6 L285.1,-18.6 L283.2,-18.3 L282.2,-17.3 L281.5,-16.1 L281.6,-15.1 L282.4,-14.0 L283.1,-13.2 L283.4,-12.4 L283.2,-11.0 L282.9,-10.0 L282.7,-8.8 L282.8,-7.6 L282.9,-6.4 L283.2,-4.9 L283.5,-3.6 L284.4,-2.5 L285.4,-2.0 L287.1,-2.0 L288.4,-2.6 L289.3,-3.3 L290.2,-5.9 L291.0,-8.3 L291.4,-10.4 L291.3,-12.0 L290.9,-13.6 Z" fill="#e7d6a3" stroke="none"/>
<path d="M281.5,-3.0 L281.2,-4.7 L280.9,-6.5 L280.4,-7.9 L279.3,-9.0 L278.2,-9.6 L277.2,-10.0 L276.0,-9.8 L275.0,-9.3 L274.0,-8.4 L273.4,-6.9 L272.7,-4.7 L272.2,-2.5 L271.9,-0.6 L272.2,1.1 L273.0,2.8 L274.1,3.9 L275.5,4.3 L277.1,4.4 L279.2,3.7 L280.9,2.9 L281.8,2.2 L282.4,1.1 L282.9,0.1 L282.7,-0.9 L282.2,-1.9 L281.5,-3.0 Z" fill="#e7d6a3" stroke="none"/>
<path d="M252.6,-40.6 L250.8,-40.0 L249.9,-39.4 L249.0,-38.5 L248.5,-37.9 L248.0,-37.1 L247.4,-35.6 L246.8,-34.4 L246.2,-33.6 L245.1,-32.2 L244.3,-31.0 L244.0,-30.0 L243.2,-28.6 L243.2,-27.4 L242.9,-25.9 L242.0,-24.3 L240.8,-22.8 L239.7,-21.8 L238.8,-20.4 L238.1,-18.7 L238.1,-17.4 L238.3,-16.5 L238.8,-15.5 L239.0,-14.0 L239.6,-12.2 L240.6,-10.2 L241.9,-9.1 L243.2,-8.8 L244.5,-8.4 L245.7,-8.9 L246.6,-9.8 L247.5,-10.9 L247.6,-12.2 L247.8,-13.1 L248.0,-14.5 L248.2,-15.9 L247.9,-17.3 L247.4,-18.9 L247.4,-19.8 L248.1,-21.7 L248.9,-22.9 L249.0,-24.0 L249.1,-24.9 L248.4,-25.9 L247.6,-26.5 L246.8,-27.1 L246.8,-27.7 L247.2,-28.5 L247.9,-28.4 L248.4,-27.6 L248.9,-27.0 L249.6,-26.4 L250.4,-26.2 L251.5,-26.3 L252.4,-26.7 L253.9,-28.0 L255.1,-29.8 L256.0,-31.5 L257.0,-33.3 L257.6,-35.2 L258.0,-36.8 L257.6,-38.1 L257.0,-39.2 L256.1,-40.0 L254.5,-40.5 L252.6,-40.6 Z" fill="#e7d6a3" stroke="none"/>
<path d="M390.2,682.7 L389.8,680.9 L389.0,679.8 L387.9,679.1 L386.4,678.9 L384.4,678.6 L383.3,678.6 L382.0,679.0 L381.2,679.8 L380.6,681.3 L380.9,683.0 L380.7,684.4 L380.2,686.0 L379.5,687.6 L378.5,688.6 L376.8,689.4 L375.4,689.8 L374.2,690.5 L373.2,691.3 L372.5,692.5 L372.5,694.4 L373.3,695.3 L374.6,696.3 L376.2,697.0 L377.7,697.3 L380.0,697.0 L381.1,696.6 L383.2,695.2 L384.2,693.9 L385.4,692.7 L387.0,691.8 L388.6,690.5 L389.7,689.4 L390.4,687.7 L390.6,685.9 L390.5,684.3 L390.2,682.7 Z" fill="#e7d6a3" stroke="none"/>
<path d="M365.7,635.6 L364.5,634.4 L362.7,633.9 L361.1,634.1 L359.9,634.6 L358.5,634.8 L356.7,634.5 L355.3,634.5 L353.7,635.1 L352.4,635.9 L351.3,637.2 L350.3,638.7 L349.4,640.4 L349.4,641.8 L350.1,642.9 L351.1,643.5 L352.7,644.0 L354.7,644.4 L357.1,644.6 L359.3,644.1 L361.9,642.8 L363.6,641.5 L365.9,639.3 L366.2,637.4 L365.7,635.6 Z" fill="#e7d6a3" stroke="none"/>
<path d="M303.2,495.4 L301.8,493.9 L300.3,492.8 L298.7,492.1 L297.0,491.7 L295.6,492.1 L294.4,493.3 L294.3,494.4 L294.6,495.9 L295.0,497.6 L295.0,499.1 L294.8,501.0 L293.9,502.6 L293.5,503.2 L293.5,504.6 L293.4,505.6 L292.6,506.0 L291.6,505.2 L290.9,504.2 L290.1,504.5 L289.5,505.2 L289.4,505.8 L290.2,506.9 L290.5,507.8 L290.1,510.0 L289.3,511.8 L289.0,513.8 L289.1,515.4 L289.1,517.0 L287.6,517.7 L286.2,518.4 L285.0,519.7 L285.0,521.3 L286.5,521.8 L287.4,522.4 L288.5,523.7 L289.3,524.7 L290.1,525.4 L291.1,525.8 L293.1,526.1 L294.3,525.5 L295.2,524.7 L295.7,523.2 L295.7,520.2 L295.7,516.3 L295.7,513.9 L296.8,511.1 L298.7,507.2 L300.7,505.3 L303.1,503.9 L305.3,503.8 L308.5,503.8 L312.9,504.3 L315.8,504.8 L318.8,505.3 L320.7,505.1 L321.9,504.1 L322.1,502.3 L321.7,500.6 L320.7,499.2 L319.7,497.7 L318.6,496.3 L317.7,495.3 L316.0,494.9 L314.1,494.8 L312.4,495.0 L310.6,495.5 L309.2,496.1 L307.9,496.7 L306.7,497.2 L305.4,497.2 L304.2,496.2 L303.2,495.4 Z" fill="#e7d6a3" stroke="none"/>
<path d="M277.8,439.1 L276.8,436.9 L275.7,435.5 L273.9,434.7 L271.6,434.2 L269.8,434.2 L268.2,434.7 L267.2,435.9 L266.4,437.9 L266.2,439.8 L267.7,442.4 L269.8,444.1 L270.8,445.3 L272.1,446.2 L273.5,447.1 L274.9,447.7 L276.6,447.8 L278.4,447.6 L279.4,446.9 L279.9,445.0 L279.5,443.3 L278.8,441.3 L277.8,439.1 Z" fill="#e7d6a3" stroke="none"/>
<path d="M320.3,427.0 L319.3,426.0 L317.9,425.0 L316.3,424.4 L314.9,424.2 L313.8,424.3 L312.7,424.8 L312.2,425.4 L311.7,426.6 L311.6,428.0 L311.4,429.4 L310.9,430.5 L310.6,431.9 L310.8,434.2 L311.2,435.9 L311.9,437.0 L313.0,438.0 L314.5,439.1 L316.2,439.4 L317.5,439.2 L318.8,438.4 L319.6,437.3 L320.2,436.0 L320.2,434.5 L320.5,433.7 L320.7,432.7 L320.6,431.4 L320.3,430.5 L320.1,429.9 L320.5,428.8 L320.7,428.1 L320.3,427.0 Z" fill="#e7d6a3" stroke="none"/>
<path d="M227.8,617.6 L225.9,616.4 L224.2,616.0 L222.4,616.1 L221.3,616.5 L220.5,617.3 L219.9,618.6 L219.9,619.7 L220.5,620.8 L221.4,622.1 L222.3,622.9 L223.3,623.5 L224.3,623.7 L226.0,623.5 L227.5,623.6 L228.4,624.0 L228.9,625.0 L228.9,626.2 L228.8,627.9 L229.3,630.0 L230.4,632.1 L231.6,633.4 L232.6,634.2 L233.9,634.6 L235.5,634.2 L236.5,633.6 L237.3,632.9 L238.1,631.6 L238.4,630.1 L238.2,628.6 L237.7,627.3 L235.6,625.0 L234.4,623.2 L233.2,621.2 L231.8,620.6 L230.0,618.9 L227.8,617.6 Z" fill="#e7d6a3" stroke="none"/>
<path d="M270.3,73.3 L269.0,72.4 L267.7,72.3 L266.2,72.7 L265.2,73.3 L264.1,74.1 L263.3,75.0 L262.6,76.4 L261.9,78.4 L261.7,80.1 L261.5,82.9 L261.8,84.8 L262.2,86.4 L263.1,87.6 L264.1,88.4 L265.5,88.2 L266.8,87.5 L267.5,86.1 L267.8,83.9 L268.5,82.1 L269.1,80.3 L270.1,79.2 L271.0,78.2 L271.6,77.0 L271.8,75.6 L271.2,74.1 L270.3,73.3 Z" fill="#e7d6a3" stroke="none"/>
<path d="M291.5,45.5 L290.7,44.6 L289.7,44.0 L288.8,43.7 L288.0,43.7 L286.8,43.8 L286.2,44.1 L285.6,44.5 L285.5,45.3 L285.9,46.6 L285.8,47.6 L285.5,48.2 L284.4,49.4 L283.7,50.2 L283.0,50.9 L282.5,51.6 L282.3,52.2 L282.1,52.9 L282.5,54.0 L283.2,54.8 L283.8,55.6 L285.0,56.6 L286.3,57.1 L287.5,57.1 L289.1,56.4 L290.3,54.8 L291.6,52.0 L292.6,50.6 L293.0,49.5 L293.1,48.3 L292.7,47.1 L292.1,46.3 L291.5,45.5 Z" fill="#e7d6a3" stroke="none"/>
<path d="M284.0,57.8 L282.5,56.0 L281.5,54.5 L280.4,53.5 L279.3,54.0 L278.8,54.6 L278.1,55.9 L277.6,57.4 L277.2,59.1 L277.5,60.5 L277.9,61.8 L278.0,63.0 L277.7,64.9 L277.0,66.2 L275.7,67.9 L274.5,69.5 L274.0,71.0 L273.7,72.4 L274.0,73.5 L274.4,74.7 L275.2,76.0 L275.7,76.6 L276.6,76.9 L277.9,75.7 L279.7,73.7 L281.4,72.0 L283.0,69.9 L284.1,68.3 L284.5,66.5 L284.6,63.2 L284.8,60.6 L285.0,59.2 L284.0,57.8 Z" fill="#e7d6a3" stroke="none"/>
<path d="M632.5,58.2 L631.8,55.9 L630.1,55.2 L627.8,55.6 L626.5,56.8 L625.9,58.4 L626.0,59.8 L626.7,61.2 L628.0,62.8 L629.5,64.0 L630.7,64.3 L631.3,63.7 L632.1,62.4 L632.7,60.8 L632.5,58.2 Z" fill="#e7d6a3" stroke="none"/>
<path d="M742.9,195.8 L744.5,193.9 L745.3,192.6 L743.5,191.1 L740.4,189.6 L738.7,188.7 L737.7,188.6 L736.5,189.6 L736.3,190.7 L738.5,192.6 L739.8,194.2 L740.5,195.1 L742.9,195.8 Z" fill="#e7d6a3" stroke="none"/>
<path d="M601.1,79.0 L600.9,77.3 L599.6,76.5 L597.5,75.9 L594.8,76.8 L592.7,78.8 L592.2,80.7 L592.8,82.6 L593.5,85.0 L594.9,86.5 L596.7,87.9 L598.1,87.7 L599.7,87.4 L600.6,86.6 L600.9,85.2 L600.8,83.9 L600.1,82.9 L600.0,81.7 L600.4,80.9 L601.4,80.2 L601.1,79.0 Z" fill="#e7d6a3" stroke="none"/>
<path d="M240.9,96.6 L239.0,96.3 L237.8,96.0 L236.6,95.9 L235.7,94.7 L234.9,93.5 L234.5,92.8 L233.3,92.7 L231.3,93.1 L229.9,94.0 L228.9,95.1 L229.0,97.0 L230.2,98.9 L232.4,100.9 L234.8,101.3 L238.2,101.4 L240.0,101.6 L241.5,102.5 L242.8,103.4 L244.2,104.6 L245.7,105.0 L247.6,104.8 L249.9,103.3 L252.1,101.7 L254.4,100.4 L257.0,99.3 L259.5,97.9 L260.4,96.3 L261.1,94.7 L261.1,93.3 L260.2,91.9 L258.9,91.3 L256.8,91.4 L254.8,92.5 L252.1,93.8 L250.6,94.4 L248.9,95.6 L247.9,96.5 L246.0,96.9 L244.7,96.9 L243.2,97.1 L240.9,96.6 Z" fill="#e7d6a3" stroke="none"/>
<path d="M324.0,408.9 L322.4,408.3 L321.2,408.2 L319.2,409.0 L317.8,409.4 L316.4,409.3 L315.4,410.3 L314.1,412.5 L313.6,415.6 L313.8,418.1 L314.6,420.5 L316.6,421.2 L319.3,421.1 L321.3,420.7 L322.7,419.8 L323.2,418.0 L323.2,416.8 L324.8,415.3 L326.1,413.4 L327.8,412.6 L329.1,411.1 L329.9,409.4 L332.0,407.7 L332.1,406.5 L331.0,406.2 L329.6,406.1 L328.1,405.5 L326.0,407.0 L324.0,408.9 Z" fill="#e7d6a3" stroke="none"/>
<path d="M284.4,388.5 L282.1,388.2 L280.4,388.3 L279.1,389.1 L277.8,389.5 L276.1,390.2 L274.9,391.4 L274.1,393.6 L273.7,396.1 L273.2,397.7 L272.3,398.5 L271.1,399.1 L269.7,400.1 L270.0,402.0 L270.7,403.9 L270.6,406.1 L270.2,407.6 L269.2,409.3 L269.1,411.2 L270.1,412.2 L271.7,412.3 L273.6,411.6 L275.6,411.8 L277.3,413.0 L279.6,412.6 L280.5,411.1 L280.9,408.1 L280.9,404.1 L280.5,400.9 L281.0,398.8 L282.3,397.3 L284.0,395.2 L285.3,393.2 L285.7,390.8 L285.2,389.3 L284.4,388.5 Z" fill="#e7d6a3" stroke="none"/>
<path d="M660.5,158.0 L660.2,156.8 L660.4,155.8 L659.9,154.0 L660.8,153.0 L660.8,152.0 L660.7,151.0 L660.0,150.1 L659.0,149.7 L658.1,149.7 L656.8,149.6 L656.0,149.6 L655.2,150.1 L655.7,151.4 L655.7,152.5 L655.4,153.7 L654.9,154.5 L655.2,155.1 L654.9,155.8 L654.8,156.6 L655.2,157.6 L656.6,158.0 L656.9,158.9 L657.3,160.1 L657.9,160.8 L658.4,162.1 L659.3,162.4 L661.4,162.3 L663.4,162.2 L664.1,161.8 L664.0,160.6 L663.7,159.6 L663.1,158.7 L662.0,158.3 L660.5,158.0 Z" fill="#e7d6a3" stroke="none"/>
<path d="M362.9,81.9 L365.6,80.4 L367.4,78.9 L368.7,76.4 L368.3,74.4 L367.1,73.3 L364.0,73.1 L361.8,74.3 L358.8,75.5 L357.5,76.5 L357.0,77.5 L357.2,79.6 L358.6,80.8 L360.9,81.6 L362.9,81.9 Z" fill="#e7d6a3" stroke="none"/>
<path d="M349.5,108.0 L351.5,107.1 L353.0,105.9 L353.2,104.3 L352.0,101.9 L352.4,100.2 L353.5,99.2 L355.2,97.9 L355.9,96.2 L355.4,94.4 L353.6,93.5 L351.2,93.5 L350.0,94.0 L348.2,93.1 L347.0,92.0 L345.0,92.2 L343.8,92.7 L343.2,94.9 L343.9,98.9 L344.5,101.6 L344.8,103.8 L346.4,105.5 L348.0,107.2 L349.5,108.0 Z" fill="#e7d6a3" stroke="none"/>
<path d="M332.7,269.7 L328.4,270.3 L324.8,268.8 L322.9,265.7 L322.7,262.8 L324.8,260.2 L325.8,257.8 L325.9,255.5 L323.7,253.8 L324.7,250.9 L328.0,251.4 L329.4,252.6 L331.2,253.5 L332.9,256.2 L334.9,257.7 L337.3,259.1 L335.4,262.0 L333.7,266.1 L332.7,269.7 Z" fill="#e7d6a3" stroke="none"/>
<path d="M336.7,248.2 L339.9,247.7 L340.0,244.2 L340.4,240.7 L340.8,236.2 L340.8,232.6 L337.7,231.0 L333.2,229.5 L330.0,228.7 L327.0,230.8 L324.6,235.6 L325.7,238.0 L328.6,237.6 L332.9,238.4 L336.1,241.8 L337.3,244.3 L336.7,248.2 Z" fill="#e7d6a3" stroke="none"/>
<path d="M321.1,204.2 L321.1,200.2 L317.9,199.0 L314.7,197.4 L313.0,199.3 L310.0,199.4 L307.7,200.2 L306.1,202.5 L305.8,205.0 L306.1,207.7 L307.6,209.0 L310.9,206.6 L314.3,204.2 L317.3,205.6 L318.4,206.8 L320.3,206.1 L321.1,204.2 Z" fill="#e7d6a3" stroke="none"/>
<path d="M424.6,-19.9 L440.6,-21.8 L443.1,-0.4 L427.1,1.5 L424.6,-19.9 Z" fill="#4f8a3e" stroke="none"/>
<path d="M431.9,7.5 L447.8,5.1 L451.1,26.7 L435.2,29.1 L431.9,7.5 Z" fill="#4f8a3e" stroke="none"/>
<path d="M443.2,38.8 L455.8,36.5 L458.4,50.5 L445.8,52.8 L443.2,38.8 Z" fill="#4f8a3e" stroke="none"/>
<path d="M431.0,94.6 L440.8,93.5 L439.6,82.9 L429.8,84.0 L431.0,94.6 Z" fill="#4f8a3e" stroke="none"/>
<path d="M185.0,-9.9 L196.6,-10.7 L200.4,44.6 L188.7,45.4 L185.0,-9.9 Z" fill="#4f8a3e" stroke="none"/>
<path d="M434.1,671.2 L427.0,671.8 L428.5,688.3 L435.5,687.6 L434.1,671.2 Z" fill="#4f8a3e" stroke="none"/>
<path d="M422.2,663.4 L419.2,633.0 L433.2,631.6 L436.2,662.1 L422.2,663.4 Z" fill="#4f8a3e" stroke="none"/>
<path d="M450.2,555.0 L447.3,539.2 L439.1,540.7 L442.0,556.5 L450.2,555.0 Z" fill="#4f8a3e" stroke="none"/>
<path d="M406.8,706.3 L418.0,693.8 L407.8,684.9 L406.4,684.5 L404.9,685.3 L403.5,688.9 L403.4,696.1 L404.1,699.6 L405.2,703.3 L406.8,706.3 Z" fill="#4f8a3e" stroke="none"/>
<path d="M435.9,709.8 L423.0,698.8 L411.7,711.6 L425.0,722.7 L435.9,709.8 Z" fill="#4f8a3e" stroke="none"/>
<path d="M572.5,-21.4 L524.0,-74.0 L479.1,-34.7 L516.5,26.4 L572.5,-21.4 Z" fill="#4f8a3e" stroke="none"/>
<path d="M375.4,475.3 L369.1,477.5 L384.3,521.0 L390.6,518.8 L375.4,475.3 Z" fill="#4f8a3e" stroke="none"/>
<path d="M492.4,666.9 L495.2,665.3 L497.6,662.5 L498.8,657.3 L499.2,653.1 L498.7,649.5 L498.0,645.5 L497.0,640.2 L497.0,636.6 L496.7,633.0 L495.6,629.0 L493.1,626.7 L487.4,623.6 L483.7,622.3 L480.0,622.9 L475.8,627.1 L473.4,630.6 L472.2,633.7 L472.3,638.4 L472.9,643.6 L474.0,650.7 L477.0,656.5 L479.4,660.0 L481.2,662.6 L483.6,665.1 L487.7,666.8 L492.4,666.9 Z" fill="#2f7825" stroke="none"/>
<path d="M489.1,594.7 L492.5,597.3 L496.7,598.6 L501.7,598.4 L505.4,596.2 L506.9,592.8 L507.6,589.0 L506.3,585.3 L504.1,582.1 L503.0,578.6 L502.6,576.3 L502.7,574.2 L503.0,572.3 L503.0,570.1 L502.6,568.0 L500.9,566.0 L498.3,564.0 L495.3,562.6 L490.9,563.1 L487.3,565.8 L485.5,569.6 L484.2,573.1 L483.5,576.4 L483.1,580.3 L483.5,585.3 L484.6,588.8 L487.1,592.7 L489.1,594.7 Z" fill="#2f7825" stroke="none"/>
<path d="M330.8,11.6 L330.5,13.2 L330.5,15.2 L330.8,17.0 L331.0,19.0 L333.7,22.5 L338.2,23.5 L341.4,23.7 L344.1,23.5 L346.5,23.6 L350.6,24.9 L353.6,26.2 L357.0,27.1 L360.0,27.1 L363.0,25.8 L365.8,24.2 L368.4,22.9 L370.8,21.1 L374.1,17.5 L377.1,10.6 L377.2,6.9 L377.4,5.1 L376.7,3.2 L375.6,1.3 L369.0,-3.8 L367.1,-6.0 L365.5,-7.8 L361.3,-11.6 L359.2,-12.8 L357.1,-14.1 L353.2,-16.9 L350.2,-17.8 L347.3,-18.2 L345.2,-18.2 L342.7,-17.8 L340.2,-17.4 L338.5,-16.2 L337.6,-14.1 L336.8,-12.3 L335.2,-9.5 L334.0,-7.5 L333.6,-5.7 L332.4,-3.5 L331.6,-1.3 L331.6,1.2 L331.4,4.2 L331.3,7.9 L330.8,11.6 Z" fill="#2f7825" stroke="none"/>
<path d="M200.4,651.1 L202.5,654.2 L204.5,657.2 L205.9,659.0 L207.5,660.1 L209.4,660.9 L211.4,661.0 L213.7,660.2 L217.0,658.4 L221.5,655.4 L225.2,652.7 L227.6,650.5 L229.1,648.1 L229.9,645.9 L230.2,643.5 L229.6,641.2 L228.5,639.1 L223.7,632.1 L218.9,626.3 L215.6,622.2 L214.1,620.5 L212.8,619.1 L210.9,617.9 L209.4,617.5 L207.5,617.5 L205.9,617.7 L204.1,618.2 L202.7,619.4 L200.5,621.8 L199.0,624.2 L197.7,626.7 L196.9,629.5 L196.2,632.7 L196.0,636.4 L196.5,639.7 L197.3,643.8 L198.3,646.9 L200.4,651.1 Z" fill="#2f7825" stroke="none"/>
<path d="M409.0,37.0 L407.4,35.3 L405.2,34.1 L401.8,33.1 L398.8,32.9 L394.5,33.4 L391.3,35.1 L387.8,37.2 L384.4,40.5 L381.7,43.7 L379.8,46.2 L378.4,49.3 L378.2,52.7 L379.5,55.9 L381.6,59.3 L384.4,62.0 L387.2,63.2 L391.2,63.6 L395.3,64.1 L398.6,62.7 L402.8,60.2 L407.0,57.7 L410.1,56.4 L412.0,54.3 L413.2,52.3 L414.0,49.5 L414.0,47.0 L413.3,44.0 L412.7,41.8 L411.0,39.3 L409.0,37.0 Z" fill="#2f7825" stroke="none"/>
<path d="M310.3,398.9 L308.4,396.7 L306.0,395.0 L303.8,393.8 L300.4,393.1 L296.3,393.4 L293.9,394.3 L290.9,396.3 L288.0,398.1 L286.7,399.7 L285.9,403.5 L285.1,405.9 L284.3,411.3 L283.1,415.1 L282.3,417.8 L280.9,420.6 L280.1,422.6 L279.8,425.4 L280.3,428.5 L281.8,432.6 L283.8,434.6 L287.3,437.9 L290.4,439.7 L293.4,441.0 L296.5,441.4 L299.2,440.6 L302.0,439.4 L303.9,437.2 L305.3,434.9 L306.6,430.7 L306.9,425.2 L307.8,419.5 L309.3,413.9 L311.6,408.8 L312.4,406.5 L312.7,404.2 L312.0,401.7 L310.3,398.9 Z" fill="#2f7825" stroke="none"/>
<path d="M282.0,-40.1 L279.4,-41.4 L276.7,-42.0 L274.2,-41.6 L270.5,-39.8 L267.1,-38.1 L263.8,-34.6 L261.2,-31.4 L259.3,-28.5 L256.8,-23.4 L254.7,-17.4 L253.4,-13.4 L252.6,-8.7 L253.3,-4.7 L255.1,-1.2 L258.2,0.8 L261.3,1.4 L264.4,1.0 L266.7,-0.1 L268.5,-1.9 L270.1,-5.4 L271.7,-9.0 L274.2,-12.9 L278.4,-15.9 L281.9,-18.2 L284.0,-19.9 L286.5,-22.2 L287.8,-25.3 L288.1,-28.6 L287.4,-32.5 L286.4,-35.2 L284.7,-37.9 L282.0,-40.1 Z" fill="#2f7825" stroke="none"/>
<path d="M619.2,66.4 L616.1,64.9 L613.5,63.5 L611.1,62.2 L608.4,61.2 L604.7,61.6 L603.0,62.8 L602.1,64.6 L602.5,68.0 L604.5,71.4 L606.1,74.3 L607.4,77.4 L608.3,80.3 L608.0,83.0 L607.3,86.0 L606.3,88.2 L606.9,90.1 L610.1,93.0 L613.1,95.0 L617.5,95.8 L620.2,95.1 L622.2,94.0 L623.9,91.5 L624.6,89.4 L624.9,87.2 L624.9,83.1 L624.5,79.2 L624.6,76.0 L624.7,72.5 L624.0,69.8 L622.3,67.8 L619.2,66.4 Z" fill="#2f7825" stroke="none"/>
<path d="M725.4,196.2 L722.1,194.2 L719.5,193.3 L716.7,193.0 L713.4,193.8 L711.5,195.0 L710.0,197.0 L709.3,199.9 L709.3,202.5 L710.6,205.7 L713.1,209.3 L715.7,212.4 L719.6,215.4 L723.7,217.8 L728.5,219.8 L733.9,221.1 L739.2,219.8 L742.0,218.1 L744.2,215.8 L744.8,213.1 L744.4,209.9 L742.8,206.4 L740.9,204.1 L738.2,201.7 L734.2,199.8 L729.6,198.1 L725.4,196.2 Z" fill="#2f7825" stroke="none"/>
<path d="M676.0,143.5 L672.8,140.2 L669.7,136.9 L667.8,135.3 L665.4,134.5 L663.1,134.6 L661.5,135.8 L661.4,138.5 L662.8,141.5 L664.8,146.5 L666.7,153.2 L668.3,159.2 L671.2,163.7 L674.1,166.1 L676.7,168.0 L679.8,169.0 L683.7,168.2 L687.4,165.8 L690.6,163.7 L691.8,161.9 L692.0,159.1 L691.2,155.6 L689.0,153.2 L685.8,151.2 L681.8,148.6 L676.0,143.5 Z" fill="#2f7825" stroke="none"/>
<path d="M234.5,-75.7 L230.1,-78.8 L224.9,-80.0 L218.7,-79.8 L215.0,-78.4 L211.9,-76.7 L209.4,-73.9 L207.1,-66.9 L204.1,-25.5 L204.9,-20.3 L207.0,-18.6 L210.2,-18.1 L214.2,-18.9 L218.8,-22.2 L224.4,-28.9 L232.5,-40.4 L235.5,-46.3 L237.4,-52.0 L239.0,-59.2 L239.4,-64.7 L237.9,-70.9 L234.5,-75.7 Z" fill="#2f7825" stroke="none"/>
<path d="M431.7,683.7 L397.0,325.4 L365.4,141.4 L406.9,47.9" fill="none" stroke="#ffd64a" stroke-width="5" stroke-linecap="round" stroke-linejoin="round" opacity="0.95"/>
</svg>