<svg xmlns="http://www.w3.org/2000/svg" viewBox="0 0 352 800" preserveAspectRatio="xMidYMid meet">
<rect width="100%" height="100%" fill="#143018"/>
<path d="M343.8,349.4 L332.2,364.9 L321.2,383.6 L319.9,399.4 L320.3,414.6 L325.1,420.4 L334.8,422.3 L342.9,420.7 L357.4,397.2 L366.1,383.6 L378.0,341.4 L376.4,328.5 L370.3,309.8 L370.6,280.1 L373.5,241.7 L374.8,215.6 L366.7,189.5 L364.1,182.4 L355.1,177.9 L347.4,181.7 L342.9,219.8 L336.4,241.7 L342.9,258.2 L346.1,266.5 L336.7,283.3 L332.2,306.9 L337.0,323.0 L339.0,335.6 L343.8,349.4 Z" fill="#0f2810" stroke="none"/>
<path d="M191.1,613.0 L164.2,635.9 L164.2,643.8 L167.9,657.2 L185.1,672.3 L202.2,678.9 L213.8,677.6 L226.4,667.6 L221.0,644.7 L213.1,625.7 L209.9,608.3 L205.4,601.7 L191.1,613.0 Z" fill="#0f2810" stroke="none"/>
<path d="M306.6,726.2 L296.8,750.5 L277.0,760.3 L269.3,786.9 L303.6,793.1 L313.6,783.1 L325.4,768.8 L335.9,760.3 L346.0,757.6 L353.5,756.6 L359.5,736.0 L349.7,733.0 L350.5,723.2 L349.0,712.7 L342.0,708.9 L327.7,718.5 L317.9,721.2 L306.6,726.2 Z" fill="#0f2810" stroke="none"/>
<path d="M97.0,-125.5 L88.9,-96.8 L84.3,-87.5 L77.9,-72.1 L71.8,-64.6 L68.9,-60.5 L75.0,-42.2 L89.8,-40.8 L127.2,-59.1 L142.9,-66.9 L182.4,-69.8 L220.1,-66.3 L231.9,-79.9 L228.2,-86.9 L192.0,-92.2 L174.8,-100.0 L166.7,-119.2 L166.7,-128.2 L164.1,-139.2 L156.9,-147.9 L144.9,-150.8 L130.1,-149.6 L112.1,-134.8 L111.0,-122.9 L97.0,-125.5 Z" fill="#0f2810" stroke="none"/>
<path d="M-94.1,598.3 L-106.1,577.8 L-114.7,554.4 L-117.1,543.4 L-126.1,523.3 L-135.2,508.5 L-144.3,499.5 L-148.6,489.9 L-148.1,482.8 L-143.3,477.0 L-135.7,476.6 L-129.5,479.9 L-113.7,504.2 L-97.0,530.5 L-87.4,536.2 L-72.6,537.7 L-60.2,558.7 L-45.0,580.6 L-37.3,588.7 L-41.1,596.4 L-50.2,616.0 L-55.5,618.8 L-65.5,616.0 L-72.6,611.2 L-94.1,598.3 Z" fill="#0f2810" stroke="none"/>
<path d="M6.2,492.6 L-4.1,480.7 L-7.4,472.4 L-8.7,464.4 L-8.3,459.2 L-5.2,456.3 L-0.9,455.7 L2.0,457.2 L13.6,469.5 L21.7,475.1 L29.3,487.7 L30.8,499.5 L36.8,509.1 L41.4,510.9 L50.1,508.9 L62.6,509.1 L72.0,512.0 L86.0,524.3 L95.0,541.1 L103.1,552.2 L102.6,557.9 L99.2,561.2 L92.7,561.9 L84.0,557.8 L74.6,552.5 L46.2,533.9 L31.7,517.2 L22.6,505.5 L15.9,499.3 L6.2,492.6 Z" fill="#0f2810" stroke="none"/>
<path d="M275.2,-75.1 L263.3,-80.2 L256.0,-78.4 L251.0,-76.2 L249.1,-72.2 L249.9,-65.7 L254.2,-58.5 L272.7,-46.2 L295.8,-36.1 L347.6,-20.1 L412.0,-1.7 L436.2,0.9 L439.3,-1.0 L444.9,-3.2 L450.7,-1.2 L452.3,3.2 L458.7,9.2 L467.5,9.3 L472.0,7.0 L472.6,0.1 L469.2,-8.9 L490.9,-12.9 L502.9,-17.1 L508.5,-23.1 L511.9,-31.9 L519.9,-36.2 L528.6,-43.8 L519.2,-51.5 L504.2,-57.9 L488.9,-60.1 L473.4,-59.5 L451.1,-59.1 L419.9,-57.7 L381.8,-56.3 L354.3,-55.3 L330.4,-59.2 L317.4,-65.6 L306.3,-66.5 L301.6,-64.3 L298.7,-59.8 L292.0,-60.5 L285.5,-63.4 L275.2,-75.1 Z" fill="#0f2810" stroke="none"/>
<path d="M103.3,372.5 L103.4,371.8 L103.4,371.2 L103.2,370.6 L103.0,369.8 L103.1,369.2 L103.4,368.9 L103.9,368.8 L104.6,369.0 L105.1,369.8 L105.5,370.9 L105.9,372.2 L106.3,372.9 L106.8,373.6 L107.2,374.3 L107.1,375.1 L106.9,375.8 L106.6,376.3 L106.2,376.8 L106.0,377.5 L106.2,378.2 L106.3,378.9 L106.2,379.6 L106.0,380.3 L105.6,380.7 L104.9,380.9 L104.1,380.8 L103.5,380.4 L103.1,379.9 L102.7,379.0 L102.4,378.1 L102.0,377.5 L101.6,376.9 L100.9,376.6 L100.2,376.3 L99.7,375.8 L99.4,375.3 L99.4,374.7 L99.8,374.2 L100.4,374.1 L101.1,374.2 L101.9,374.0 L102.5,373.6 L102.9,373.2 L103.3,372.5 Z" fill="#2b5a2a" stroke="none"/>
<path d="M285.8,734.1 L187.3,438.2 L65.9,192.7 L75.4,65.9" fill="none" stroke="#4e8b39" stroke-width="51.3" stroke-linecap="round" stroke-linejoin="round" opacity="0.85"/>
<path d="M54.5,895.6 L118.1,948.5 L146.4,973.9 L168.1,996.2 L180.4,1013.5 L186.8,1025.9 L191.3,1041.5 L195.8,1056.5 L200.7,1065.3 L206.2,1072.8 L212.7,1080.9 L216.3,1082.4 L219.0,1082.7 L222.0,1082.9 L226.0,1081.1 L228.1,1080.1 L230.3,1079.3 L232.7,1079.4 L235.0,1079.8 L238.9,1080.7 L239.3,1077.4 L240.2,1074.8 L243.4,1072.1 L246.1,1071.4 L245.7,1069.4 L243.6,1067.8 L236.0,1067.0 L232.1,1064.9 L229.6,1061.8 L228.3,1057.2 L228.6,1052.8 L229.8,1049.7 L231.5,1047.1 L232.4,1043.9 L232.9,1040.2 L201.5,996.0 L169.1,954.3 L150.9,926.2 L127.3,901.2 L95.1,875.9 L56.7,846.3 L35.0,830.7 L-14.0,786.3 L-33.2,767.7 L-52.5,748.9 L-72.6,728.4 L-83.4,718.5 L-90.4,713.6 L-95.9,711.3 L-99.6,710.6 L-104.2,710.9 L-107.4,712.3 L-110.7,714.1 L-114.1,717.6 L-117.1,721.6 L-118.9,727.3 L-118.8,731.0 L-118.9,734.6 L-118.1,737.2 L-115.2,743.5 L-105.9,754.2 L-64.4,804.1 L-42.9,828.5 L-32.0,840.9 L-25.9,847.0 L-19.4,851.4 L-9.9,854.3 L-1.0,859.0 L10.9,860.9 L20.2,864.7 L39.3,880.9 L54.5,895.6 Z" fill="#5a9540" stroke="none"/>
<path d="M-145.1,605.8 L-124.1,620.7 L-116.3,629.7 L-109.3,639.7 L-101.6,654.8 L-98.4,662.6 L-94.5,669.5 L-89.6,674.0 L-83.8,678.1 L-43.5,696.1 L-23.0,710.1 L-16.5,714.5 L-10.6,718.4 L-0.1,724.1 L11.0,729.0 L18.5,731.4 L25.7,732.9 L32.3,733.9 L38.8,733.7 L43.8,732.6 L48.4,730.8 L51.3,727.9 L53.1,724.3 L54.1,720.6 L53.8,716.5 L51.2,713.2 L45.8,710.0 L30.6,701.8 L16.1,692.9 L-14.3,673.3 L-75.4,631.6 L-97.2,615.2 L-101.2,611.8 L-105.1,608.4 L-109.4,602.5 L-113.1,596.4 L-141.8,546.2 L-153.5,527.1 L-160.2,519.1 L-167.6,513.9 L-170.4,510.5 L-172.0,513.3 L-174.2,516.1 L-176.3,517.7 L-178.9,519.2 L-182.2,519.6 L-177.9,524.7 L-176.3,530.7 L-174.9,535.9 L-156.8,578.6 L-154.4,585.5 L-151.9,592.4 L-149.0,599.7 L-145.1,605.8 Z" fill="#5a9540" stroke="none"/>
<path d="M-30.6,539.7 L-27.2,549.6 L-22.4,559.1 L5.9,605.3 L24.2,636.9 L28.3,639.4 L32.6,639.8 L42.7,640.2 L46.0,640.8 L49.0,642.1 L52.4,643.8 L55.3,646.1 L61.3,651.8 L75.9,663.7 L79.7,666.9 L83.8,669.6 L90.1,672.7 L96.4,675.5 L99.4,677.5 L102.4,679.4 L111.4,688.6 L121.6,697.1 L156.2,721.7 L195.4,754.5 L198.8,756.0 L202.1,756.6 L206.0,756.1 L209.1,754.9 L212.6,753.4 L215.6,751.6 L219.2,748.6 L223.1,746.4 L227.4,745.8 L233.5,744.7 L239.5,743.9 L242.0,742.7 L243.9,741.2 L245.5,739.1 L246.6,736.9 L247.0,734.5 L246.9,732.1 L246.3,729.4 L245.3,727.1 L244.1,725.3 L242.7,723.6 L241.0,722.2 L239.3,721.4 L233.8,720.5 L228.0,719.8 L218.8,716.5 L214.0,717.3 L209.5,719.7 L205.2,720.8 L203.1,720.8 L200.6,720.2 L197.4,717.8 L195.3,714.3 L194.8,710.6 L195.4,706.8 L194.5,701.3 L193.3,698.5 L191.6,696.3 L189.7,694.0 L187.7,692.1 L155.1,674.6 L141.4,665.7 L126.3,656.4 L112.0,648.2 L97.5,638.5 L80.3,624.4 L73.0,616.8 L66.0,608.6 L52.3,588.9 L38.8,571.1 L15.7,541.7 L5.6,531.6 L-5.3,522.5 L-8.9,520.6 L-12.2,519.7 L-16.0,520.4 L-19.9,522.0 L-22.4,523.6 L-25.5,525.9 L-28.0,529.6 L-30.1,534.1 L-30.5,537.0 L-30.6,539.7 Z" fill="#5a9540" stroke="none"/>
<path d="M180.0,490.1 L197.6,526.9 L204.0,538.3 L205.1,540.2 L206.5,541.9 L207.9,543.0 L210.1,544.4 L212.4,545.5 L215.5,546.3 L218.7,546.2 L220.2,545.9 L222.3,545.5 L224.2,544.7 L226.7,543.5 L228.6,542.1 L230.2,540.7 L231.6,538.8 L232.8,536.6 L233.3,533.3 L233.1,530.0 L206.8,441.8 L187.9,405.4 L170.9,378.6 L166.6,374.8 L162.4,371.5 L152.2,363.4 L150.8,361.6 L149.6,359.7 L148.4,357.6 L147.7,355.0 L147.3,342.4 L147.0,338.4 L145.7,334.4 L130.7,296.0 L107.9,237.1 L96.6,211.1 L91.8,203.7 L83.3,187.4 L79.6,177.1 L78.0,171.6 L76.8,166.1 L72.8,144.1 L66.9,124.9 L63.7,110.7 L63.6,107.8 L64.1,104.8 L65.1,101.5 L68.9,98.0 L76.4,94.4 L80.0,92.5 L82.8,90.9 L84.6,89.1 L85.7,87.3 L86.7,85.3 L87.3,82.8 L88.6,72.8 L90.0,62.8 L89.5,60.0 L88.4,57.5 L83.3,50.2 L80.2,46.2 L78.0,43.5 L76.6,42.3 L75.2,41.2 L70.3,40.1 L66.4,40.3 L63.2,40.5 L60.1,41.2 L57.2,41.9 L54.0,43.3 L49.8,47.5 L46.5,52.0 L43.3,56.4 L40.9,61.0 L38.8,65.3 L37.8,69.8 L38.0,74.9 L38.6,79.1 L39.4,82.9 L40.6,86.8 L41.8,90.5 L43.5,94.0 L45.9,100.0 L48.2,106.8 L48.1,110.4 L47.4,114.2 L45.7,121.1 L45.5,124.7 L45.9,128.2 L47.3,135.2 L48.3,141.7 L48.2,148.0 L45.2,156.3 L41.0,167.2 L40.0,172.1 L39.9,174.7 L40.1,177.3 L40.5,180.2 L41.2,183.0 L43.2,188.4 L69.3,251.2 L91.8,299.5 L108.1,317.5 L119.6,329.3 L121.0,332.8 L119.6,339.4 L112.3,348.4 L111.6,353.6 L115.8,362.0 L125.2,376.9 L142.5,400.5 L160.8,426.7 L175.1,443.2 L178.4,451.9 L178.6,456.3 L178.2,460.9 L177.3,465.0 L175.8,468.5 L172.4,471.5 L167.5,473.1 L162.3,472.8 L158.2,471.3 L155.0,469.9 L151.9,467.5 L149.1,464.0 L143.6,453.6 L137.7,443.6 L135.6,441.2 L132.4,439.4 L122.9,438.1 L113.4,436.6 L110.1,435.1 L107.5,432.4 L106.2,426.2 L107.1,418.6 L93.7,395.7 L91.1,392.4 L88.3,389.9 L83.3,387.1 L77.7,385.1 L74.3,383.0 L72.3,380.3 L71.5,372.7 L70.0,366.5 L64.8,357.7 L60.9,350.7 L56.1,341.4 L49.8,323.1 L37.3,280.2 L33.8,272.8 L29.1,266.1 L24.6,261.6 L19.5,259.3 L14.3,258.5 L9.1,259.3 L4.2,261.3 L1.9,263.5 L0.1,266.0 L-1.6,271.2 L-2.0,276.6 L-1.0,286.6 L1.9,303.0 L22.8,379.6 L24.8,385.0 L28.5,390.1 L36.7,396.1 L44.1,402.6 L54.9,417.6 L61.1,428.2 L66.1,436.3 L69.2,438.9 L72.5,440.6 L78.5,445.6 L84.9,452.0 L89.6,456.9 L93.8,462.0 L97.4,467.7 L99.7,473.2 L99.8,484.9 L100.7,496.5 L102.4,506.6 L105.4,515.9 L117.8,541.6 L128.9,560.2 L132.8,569.2 L134.1,587.6 L134.8,594.2 L135.7,596.7 L136.5,599.0 L138.9,604.6 L140.9,607.3 L143.4,609.9 L145.8,611.3 L148.4,612.4 L152.8,613.0 L156.6,613.3 L160.8,613.4 L164.7,612.9 L168.5,612.0 L170.7,611.5 L172.8,610.9 L174.6,610.3 L176.5,609.3 L179.6,607.1 L182.4,604.6 L185.4,601.1 L186.5,599.5 L187.7,597.8 L189.4,594.4 L191.5,589.7 L192.5,586.3 L193.1,582.8 L192.9,578.8 L192.1,574.9 L191.3,572.4 L190.4,570.0 L187.9,565.4 L175.5,541.0 L162.7,524.0 L157.1,511.8 L154.8,502.7 L155.8,499.0 L158.4,496.0 L163.1,492.1 L168.5,489.4 L173.9,488.5 L177.0,489.0 L180.0,490.1 Z" fill="#5a9540" stroke="none"/>
<path d="M280.8,859.2 L282.3,862.1 L284.7,866.8 L287.3,871.2 L287.5,875.0 L286.8,877.6 L283.9,882.3 L278.9,888.7 L276.7,893.5 L276.5,898.0 L276.0,914.5 L275.4,924.1 L275.3,934.2 L276.1,938.8 L277.1,941.3 L278.2,943.8 L280.3,946.0 L282.3,947.1 L284.6,947.6 L287.3,947.7 L290.0,947.8 L292.7,947.5 L295.7,946.7 L298.1,945.1 L299.8,943.0 L301.7,938.5 L303.3,933.1 L305.7,922.0 L308.8,898.8 L313.6,875.6 L321.4,842.9 L321.8,836.0 L320.5,830.2 L317.5,825.2 L314.2,820.3 L311.0,816.3 L307.3,812.5 L303.1,808.6 L300.9,807.2 L297.8,805.7 L293.7,804.2 L289.3,802.9 L285.2,801.9 L280.3,801.1 L275.6,800.7 L270.6,800.8 L265.9,802.0 L263.4,803.9 L262.6,805.5 L262.3,807.5 L263.2,809.4 L264.2,811.2 L266.3,813.2 L268.6,814.9 L270.9,816.1 L272.2,817.4 L272.9,819.1 L273.1,821.8 L270.3,826.3 L268.9,828.8 L266.8,833.5 L266.3,836.2 L266.6,839.0 L269.1,842.7 L271.8,845.7 L275.1,849.0 L278.7,854.8 L280.8,859.2 Z" fill="#5a9540" stroke="none"/>
<path d="M341.3,497.4 L343.5,499.9 L345.0,502.5 L346.1,504.9 L346.8,508.3 L346.5,516.7 L346.6,525.4 L346.9,538.8 L347.2,543.1 L348.8,546.5 L350.4,549.8 L354.9,558.5 L356.7,564.2 L356.5,573.2 L356.5,584.5 L356.7,595.6 L355.9,610.0 L354.3,625.4 L353.5,636.4 L350.2,655.4 L348.1,660.2 L345.4,663.8 L343.8,665.4 L341.5,666.3 L340.1,666.6 L338.9,666.3 L336.7,664.7 L334.7,663.2 L333.6,661.7 L331.5,657.4 L330.3,653.7 L330.2,652.0 L330.3,650.1 L329.9,647.0 L329.3,644.0 L328.4,641.3 L326.5,638.8 L322.5,634.9 L315.1,630.5 L308.0,627.1 L304.8,624.9 L301.8,622.4 L300.4,619.3 L299.5,616.2 L299.6,612.2 L301.8,603.3 L304.3,594.1 L306.2,587.7 L307.5,581.1 L308.6,574.7 L309.3,567.9 L308.9,558.7 L308.2,549.3 L308.4,539.8 L309.7,533.0 L311.4,526.4 L313.0,521.7 L314.4,511.8 L315.3,505.7 L316.7,500.1 L317.9,497.7 L319.8,495.8 L322.3,494.2 L324.7,493.6 L328.5,492.8 L331.5,492.6 L333.8,493.2 L337.0,494.5 L339.2,495.6 L341.3,497.4 Z" fill="#2e5577" stroke="none"/>
<path d="M71.9,124.2 L74.4,131.6 L76.7,139.0 L77.9,145.9 L78.5,151.5 L79.0,156.6 L80.3,165.7 L83.0,175.9 L85.6,183.0 L87.2,187.7 L89.0,191.1 L92.0,195.1 L95.6,198.4 L100.5,201.4 L105.0,202.7 L107.5,202.8 L110.0,202.3 L111.7,201.1 L113.3,199.5 L113.8,195.6 L113.2,192.2 L112.1,188.6 L111.4,181.6 L110.1,174.8 L106.9,163.8 L104.2,152.3 L102.0,144.2 L99.3,136.0 L98.0,131.3 L98.2,129.1 L98.9,127.2 L101.1,125.1 L103.6,123.2 L107.3,121.0 L108.2,116.3 L107.7,113.1 L108.1,109.7 L109.9,101.9 L111.7,93.6 L114.7,86.5 L118.0,79.2 L121.5,74.3 L123.0,72.4 L124.4,69.7 L124.0,66.3 L122.9,63.9 L119.4,59.6 L115.4,56.7 L111.4,55.2 L107.7,54.5 L102.7,54.7 L100.8,55.3 L99.3,56.4 L98.1,57.8 L96.9,59.7 L95.3,64.1 L94.0,71.4 L92.9,79.7 L91.9,84.8 L91.4,87.1 L90.5,89.1 L88.3,91.2 L86.1,92.9 L81.1,96.3 L76.1,99.1 L70.9,103.9 L69.7,105.7 L68.8,107.6 L68.5,109.5 L68.6,111.3 L71.9,124.2 Z" fill="#2e5577" stroke="none"/>
<path d="M89.0,44.6 L90.1,43.2 L91.8,42.8 L93.4,43.2 L94.9,44.3 L96.2,45.1 L97.1,45.7 L98.4,45.8 L100.0,45.7 L101.7,45.6 L103.3,45.7 L104.1,46.8 L104.5,48.2 L104.4,49.4 L103.7,50.3 L102.6,51.3 L101.1,51.6 L99.8,51.7 L98.9,52.1 L97.8,53.0 L96.8,53.9 L95.4,55.2 L94.0,56.1 L92.6,56.3 L90.8,55.9 L89.0,54.8 L87.8,53.7 L87.1,52.8 L86.7,51.1 L86.8,49.3 L87.2,47.8 L87.7,46.3 L89.0,44.6 Z" fill="#e7d6a3" stroke="none"/>
<path d="M48.4,78.0 L48.2,76.3 L48.6,74.8 L49.9,73.7 L51.3,72.9 L51.8,71.6 L51.7,70.2 L51.9,68.6 L52.4,67.7 L53.8,67.1 L55.2,66.8 L56.3,66.8 L57.4,67.3 L58.1,68.8 L58.4,70.1 L58.5,71.3 L59.2,72.4 L60.2,73.4 L61.3,74.3 L62.1,75.2 L62.9,76.6 L62.9,78.4 L62.4,80.2 L61.3,81.7 L60.0,82.5 L57.9,83.0 L56.2,83.3 L54.3,83.1 L52.7,82.7 L51.0,81.4 L49.6,80.0 L48.4,78.0 Z" fill="#e7d6a3" stroke="none"/>
<path d="M33.9,112.2 L32.6,111.6 L31.6,110.9 L31.1,109.9 L30.9,108.6 L30.8,107.3 L31.2,106.1 L31.9,105.5 L33.5,104.7 L34.6,103.9 L35.5,103.6 L36.3,103.4 L37.7,103.7 L38.9,104.2 L39.7,105.0 L40.1,106.2 L40.6,107.3 L41.4,108.3 L42.4,109.2 L42.9,110.3 L43.2,111.7 L43.4,113.2 L43.4,114.7 L42.8,116.0 L41.8,117.2 L40.5,117.7 L39.1,118.0 L37.8,117.6 L37.1,116.5 L36.5,115.0 L36.0,113.7 L35.0,112.8 L33.9,112.2 Z" fill="#e7d6a3" stroke="none"/>
<path d="M33.0,145.7 L32.1,144.5 L31.1,143.5 L29.9,142.3 L29.0,140.8 L28.6,139.2 L28.8,137.5 L29.1,136.2 L29.8,135.7 L30.8,135.1 L32.2,135.5 L33.1,136.2 L34.8,137.1 L35.5,137.9 L35.9,139.2 L36.6,140.3 L37.8,141.0 L39.1,141.2 L40.3,141.0 L41.5,141.7 L42.7,142.9 L43.1,144.4 L43.6,146.0 L43.4,147.6 L43.0,149.1 L42.7,150.6 L42.6,152.8 L42.4,154.4 L41.9,155.5 L40.9,157.1 L40.0,158.1 L38.9,159.0 L37.3,159.7 L36.1,160.4 L35.3,161.2 L35.1,162.1 L35.1,163.3 L35.6,164.9 L36.0,166.3 L36.1,167.9 L35.9,169.6 L35.2,170.8 L34.3,171.6 L33.4,172.4 L31.0,173.2 L29.5,173.4 L27.7,172.9 L26.4,171.9 L25.4,170.6 L24.7,168.8 L24.4,167.3 L24.7,165.4 L25.5,164.4 L26.4,163.7 L27.4,162.8 L28.2,161.3 L27.6,160.0 L26.4,158.2 L25.8,156.7 L25.1,155.9 L24.7,154.4 L24.4,152.9 L24.7,151.5 L25.1,150.2 L26.0,149.4 L27.0,149.2 L28.3,149.4 L29.5,150.7 L30.8,152.4 L31.7,153.4 L33.0,154.0 L34.1,153.8 L34.6,153.1 L34.4,152.0 L34.1,150.8 L33.9,149.5 L34.3,148.3 L34.0,146.9 L33.0,145.7 Z" fill="#e7d6a3" stroke="none"/>
<path d="M61.6,326.0 L62.9,324.9 L64.3,323.9 L65.5,323.4 L67.1,323.3 L68.8,323.4 L70.3,323.8 L71.7,324.5 L72.8,325.5 L73.4,326.3 L73.7,327.2 L73.9,328.3 L73.7,329.3 L72.6,330.3 L71.2,330.5 L70.3,331.0 L69.9,331.5 L70.0,332.2 L70.3,333.0 L70.2,333.8 L69.8,334.5 L68.9,335.1 L68.2,335.5 L67.8,336.2 L68.0,337.3 L68.6,338.4 L69.3,339.1 L70.5,339.8 L71.9,340.0 L73.3,340.3 L74.1,340.9 L74.7,341.7 L75.1,342.5 L75.4,343.5 L75.4,345.0 L75.5,346.4 L76.0,347.6 L76.7,348.6 L77.3,349.5 L77.5,350.0 L77.7,350.5 L77.8,351.2 L77.7,351.8 L77.4,352.9 L77.3,353.9 L77.4,354.4 L77.5,354.9 L78.2,355.6 L78.7,356.1 L79.4,356.5 L80.1,356.6 L80.8,356.4 L81.2,356.0 L81.5,355.1 L82.0,354.3 L82.7,354.0 L83.4,354.0 L84.5,354.3 L85.4,355.0 L86.4,356.4 L87.1,357.5 L87.8,358.5 L88.7,359.5 L89.8,360.2 L90.9,360.6 L91.6,360.6 L92.1,360.6 L92.6,360.4 L93.0,360.1 L93.5,359.6 L93.9,359.0 L94.3,358.3 L94.6,357.4 L95.0,356.9 L95.6,356.7 L96.4,356.7 L97.0,356.3 L97.3,355.9 L97.5,355.5 L97.5,354.9 L97.5,354.4 L97.3,353.6 L97.2,352.8 L97.0,351.9 L96.6,351.2 L96.3,350.4 L95.8,349.5 L95.2,348.1 L95.1,347.4 L95.0,346.8 L95.0,345.9 L95.3,345.1 L96.2,343.9 L97.2,343.2 L98.2,342.6 L99.0,341.7 L99.6,340.7 L100.1,339.4 L100.4,338.0 L100.8,336.7 L101.5,335.7 L102.3,335.2 L103.4,335.1 L104.3,334.5 L104.6,333.6 L104.5,332.5 L103.4,331.1 L103.1,329.8 L103.1,328.3 L103.6,326.8 L104.6,326.0 L106.0,325.6 L107.5,325.4 L110.2,325.8 L111.7,326.3 L112.9,327.2 L114.1,328.6 L114.7,330.0 L115.3,331.4 L115.3,333.0 L115.0,335.1 L114.3,336.7 L113.1,338.3 L111.6,339.8 L110.0,340.8 L108.5,341.4 L107.0,342.4 L105.8,343.6 L104.5,345.2 L103.8,347.4 L103.5,349.7 L103.9,352.5 L104.6,355.4 L105.0,358.2 L105.4,360.0 L106.1,361.6 L107.2,363.2 L108.7,364.6 L110.3,365.9 L112.0,367.1 L113.4,368.0 L114.9,368.7 L115.9,369.8 L116.3,371.2 L116.5,372.6 L116.5,374.3 L116.6,375.7 L116.9,377.1 L117.4,378.4 L118.1,379.6 L119.7,381.1 L121.8,382.4 L123.8,383.2 L126.3,384.3 L127.6,385.0 L128.6,385.8 L129.5,386.7 L130.1,387.6 L130.8,389.2 L131.0,390.4 L131.2,391.4 L132.0,392.8 L133.0,394.0 L134.6,395.6 L136.1,397.2 L137.0,398.9 L137.9,400.6 L138.9,402.4 L139.4,403.2 L139.9,403.8 L141.7,405.0 L143.4,405.8 L144.6,406.9 L146.1,409.2 L147.6,412.5 L150.3,418.1 L151.6,420.4 L152.9,422.6 L155.8,426.8 L157.5,428.9 L159.2,430.8 L161.4,432.5 L163.2,434.2 L164.4,436.3 L165.1,438.3 L166.0,440.1 L166.6,441.6 L167.4,443.1 L168.4,444.5 L169.6,445.7 L171.3,447.1 L172.7,448.6 L173.5,450.3 L173.9,451.9 L174.0,453.3 L174.0,454.8 L173.7,456.1 L173.3,457.1 L172.6,457.6 L171.7,458.3 L170.9,459.0 L170.7,459.5 L170.5,460.0 L170.6,460.6 L170.8,461.2 L171.3,462.5 L171.5,463.0 L171.6,463.6 L171.7,464.2 L171.6,464.8 L171.4,465.5 L171.2,466.2 L170.8,466.8 L170.3,467.3 L169.4,468.1 L168.2,468.5 L166.8,468.6 L165.5,468.4 L164.2,467.8 L162.9,467.1 L162.4,466.8 L161.8,466.5 L160.5,466.2 L159.2,466.3 L158.1,466.5 L157.0,466.8 L156.5,466.9 L155.9,466.9 L155.3,466.7 L154.8,466.5 L153.8,465.8 L153.0,464.9 L152.4,464.1 L152.1,463.6 L151.9,462.9 L151.8,462.4 L151.8,461.8 L151.8,460.9 L152.0,460.0 L152.7,458.5 L153.4,457.3 L154.1,456.3 L154.7,455.7 L155.5,455.0 L156.4,454.8 L157.3,455.1 L158.3,456.1 L159.0,457.2 L159.8,458.4 L160.4,458.8 L160.9,458.9 L161.5,458.6 L162.0,458.2 L162.2,457.4 L162.1,456.5 L161.6,455.0 L160.6,453.3 L159.6,451.9 L158.8,451.3 L158.4,450.6 L158.0,449.7 L157.7,448.6 L157.5,447.3 L157.3,446.0 L156.9,445.3 L156.1,444.6 L155.3,444.1 L154.4,444.0 L153.9,444.3 L153.5,444.8 L153.0,446.1 L151.9,448.3 L151.1,449.4 L150.1,450.3 L148.9,450.5 L147.8,450.5 L147.0,450.2 L146.3,449.6 L145.7,448.8 L145.4,448.0 L145.2,446.8 L145.2,445.5 L145.6,444.3 L146.2,443.2 L147.1,442.1 L147.7,441.0 L148.1,439.3 L148.0,437.6 L147.6,436.5 L146.8,435.3 L146.0,434.4 L145.3,433.2 L144.8,432.2 L144.5,431.1 L143.7,429.2 L143.0,428.3 L142.0,427.6 L141.1,427.4 L140.0,427.4 L138.3,428.0 L137.6,428.2 L136.8,428.2 L135.8,427.7 L134.7,426.9 L134.0,425.7 L133.6,424.5 L132.9,419.8 L132.5,415.0 L132.7,413.7 L133.5,412.8 L134.5,412.3 L135.3,411.7 L135.9,410.7 L135.8,409.6 L134.7,408.2 L132.9,407.1 L130.9,406.6 L128.9,406.1 L127.0,405.3 L125.2,404.3 L124.2,403.4 L123.2,402.4 L122.7,401.4 L122.4,400.1 L122.1,398.0 L121.8,397.2 L121.1,396.4 L120.6,396.2 L120.0,396.2 L119.3,396.2 L118.7,396.5 L117.9,397.1 L117.0,397.9 L116.4,398.3 L115.6,398.6 L114.8,398.3 L114.0,397.7 L113.1,396.3 L112.7,395.9 L112.2,395.6 L111.6,395.5 L110.9,395.7 L110.6,396.1 L110.2,396.7 L110.0,398.1 L110.0,399.2 L110.2,400.3 L110.6,401.5 L111.3,402.5 L112.2,403.4 L112.5,403.9 L112.7,404.5 L112.9,405.4 L112.8,406.4 L112.6,407.1 L112.4,408.0 L112.5,408.8 L112.8,409.6 L113.5,411.0 L114.6,412.3 L115.7,413.4 L116.4,413.9 L117.1,414.2 L118.1,414.3 L119.0,414.3 L120.6,414.4 L122.4,414.4 L123.0,414.6 L123.4,414.8 L124.0,415.2 L124.8,415.8 L125.2,416.5 L125.9,417.8 L126.3,419.2 L126.5,420.6 L126.4,421.5 L126.1,422.3 L125.7,422.9 L124.9,423.5 L124.1,423.8 L123.3,423.9 L122.7,423.8 L122.0,423.7 L121.5,423.8 L121.0,424.3 L120.8,424.7 L121.0,425.2 L121.3,425.7 L122.5,427.1 L123.2,427.7 L123.7,428.4 L124.2,429.4 L124.1,430.4 L124.0,431.0 L123.7,431.5 L122.8,432.1 L121.7,432.9 L120.5,433.8 L119.1,434.9 L118.4,435.1 L117.5,435.0 L116.7,434.5 L115.9,434.0 L114.9,432.7 L114.0,431.3 L112.8,430.5 L111.3,430.5 L110.1,430.0 L109.4,429.1 L109.1,428.1 L109.2,426.8 L109.7,425.8 L111.9,424.9 L112.8,424.2 L113.4,423.4 L113.3,422.5 L113.1,421.7 L112.6,420.0 L112.1,418.0 L111.0,416.4 L109.5,414.0 L107.6,411.6 L106.2,409.3 L105.0,406.8 L104.0,405.4 L102.7,404.2 L100.5,401.5 L98.3,398.2 L96.6,394.2 L94.1,388.6 L93.2,387.2 L92.3,386.2 L91.0,384.6 L89.5,383.2 L86.5,380.9 L85.5,380.1 L84.9,379.7 L83.9,379.8 L83.1,380.1 L81.6,380.8 L80.1,381.1 L79.2,381.4 L78.1,381.5 L77.3,381.2 L76.5,380.5 L75.8,379.7 L75.4,378.6 L75.3,377.1 L75.6,375.6 L76.2,372.4 L75.8,370.0 L75.2,367.4 L74.4,364.9 L73.4,362.5 L71.9,359.9 L69.8,357.5 L67.6,355.2 L65.7,352.3 L62.4,346.4 L61.4,344.2 L60.6,342.1 L60.0,339.9 L59.7,337.5 L59.5,335.9 L59.5,334.2 L59.6,332.5 L59.7,330.9 L60.4,328.2 L61.6,326.0 Z" fill="#e7d6a3" stroke="none"/>
<path d="M184.4,733.3 L184.6,735.0 L185.5,736.6 L186.5,738.1 L187.5,739.4 L189.2,739.9 L191.3,739.9 L193.1,739.5 L194.8,738.9 L196.1,737.6 L196.2,735.7 L195.3,734.3 L193.6,732.7 L190.5,730.3 L188.7,729.9 L187.2,730.1 L186.2,730.8 L185.3,731.5 L184.4,733.3 Z" fill="#e7d6a3" stroke="none"/>
<path d="M271.3,467.0 L271.6,465.6 L272.5,464.4 L274.3,464.4 L275.1,463.8 L275.7,462.2 L275.8,459.9 L275.0,458.3 L273.2,457.2 L270.8,456.6 L269.0,457.2 L267.3,459.1 L266.6,462.0 L266.7,464.4 L266.8,466.5 L268.1,467.6 L269.9,467.5 L271.3,467.0 Z" fill="#e7d6a3" stroke="none"/>
<path d="M315.1,649.4 L313.7,649.4 L312.4,648.1 L311.9,645.9 L311.2,645.0 L310.4,644.7 L309.1,644.5 L308.3,643.4 L308.2,641.3 L308.9,639.2 L308.9,636.8 L308.9,635.2 L309.3,633.5 L310.1,632.9 L312.1,632.5 L313.7,633.2 L315.1,635.2 L316.9,636.4 L318.8,636.8 L321.3,638.0 L324.7,641.0 L326.7,643.7 L327.4,646.3 L327.3,649.1 L326.7,651.2 L324.9,653.2 L323.1,653.6 L321.4,653.1 L320.4,651.6 L319.9,649.3 L320.2,646.8 L320.2,644.8 L318.9,643.2 L317.7,642.4 L316.5,642.5 L316.9,644.0 L316.9,646.5 L316.8,648.1 L316.2,649.2 L315.1,649.4 Z" fill="#e7d6a3" stroke="none"/>
<path d="M73.2,464.2 L73.8,461.6 L73.7,458.9 L72.3,457.4 L70.7,459.3 L69.3,459.1 L67.8,456.9 L67.4,453.4 L68.1,451.0 L69.5,449.1 L71.6,447.5 L74.0,447.1 L76.5,447.6 L80.0,450.8 L81.8,454.3 L82.1,456.4 L80.7,457.4 L78.9,458.4 L78.3,459.7 L78.3,461.3 L79.5,462.6 L82.5,462.8 L84.7,461.9 L86.0,462.6 L87.5,464.4 L90.2,464.9 L93.8,466.6 L95.3,468.7 L95.3,470.9 L94.3,474.2 L92.3,475.4 L89.7,475.2 L87.3,474.1 L85.8,472.4 L84.2,472.4 L82.2,473.4 L79.5,471.6 L77.6,468.6 L75.2,468.2 L73.2,466.4 L73.2,464.2 Z" fill="#e7d6a3" stroke="none"/>
<path d="M42.9,413.9 L41.3,413.7 L40.0,414.3 L39.8,415.8 L38.4,417.3 L36.8,417.5 L34.9,416.0 L33.9,414.3 L34.1,412.5 L35.1,410.3 L35.2,408.4 L34.2,405.7 L34.7,403.8 L36.4,403.1 L39.4,403.5 L42.3,406.4 L43.3,409.1 L44.6,411.0 L44.0,412.6 L42.9,413.9 Z" fill="#e7d6a3" stroke="none"/>
<path d="M98.0,691.5 L97.1,691.5 L96.2,691.3 L94.9,690.5 L93.6,690.1 L92.4,689.5 L91.7,688.5 L91.3,687.0 L90.9,685.8 L90.1,685.3 L89.0,685.2 L87.8,685.2 L86.6,684.4 L86.2,683.3 L86.3,681.4 L87.2,679.5 L88.4,678.5 L89.7,677.7 L91.0,677.1 L92.1,677.2 L93.4,677.5 L94.7,678.1 L95.9,679.0 L97.0,680.4 L98.6,681.4 L100.2,682.2 L101.4,683.1 L102.0,684.3 L102.3,685.5 L102.4,687.3 L101.8,689.2 L100.9,690.3 L99.5,691.3 L98.0,691.5 Z" fill="#e7d6a3" stroke="none"/>
<path d="M60.6,665.7 L59.2,667.2 L57.8,668.5 L56.6,669.0 L53.7,668.2 L51.3,665.0 L49.2,662.4 L46.7,660.3 L44.5,658.9 L42.2,658.0 L38.2,656.4 L36.4,655.0 L34.9,652.5 L34.5,650.9 L34.8,649.1 L35.0,647.5 L35.9,645.8 L37.3,644.7 L38.9,643.9 L43.2,644.0 L46.6,644.8 L49.6,646.2 L52.1,647.5 L54.6,649.6 L56.7,652.6 L58.8,654.5 L61.5,656.0 L63.4,657.4 L64.4,659.7 L64.4,661.6 L63.4,663.6 L60.6,665.7 Z" fill="#e7d6a3" stroke="none"/>
<path d="M111.9,627.4 L111.9,629.1 L111.3,631.0 L111.2,632.6 L112.0,634.8 L112.2,637.1 L111.2,638.8 L109.7,639.6 L108.3,639.4 L107.2,638.1 L105.5,636.3 L103.8,635.1 L103.2,633.9 L103.2,632.4 L103.1,630.8 L103.6,628.6 L104.7,626.9 L106.1,626.1 L107.0,625.5 L108.2,625.3 L109.6,625.6 L110.9,626.2 L111.9,627.4 Z" fill="#e7d6a3" stroke="none"/>
<path d="M85.6,596.9 L90.4,608.3 L91.7,610.6 L93.7,612.2 L98.0,615.3 L98.7,616.5 L97.9,618.6 L97.9,619.9 L98.7,621.1 L99.2,622.4 L98.8,623.3 L98.2,624.6 L96.8,625.2 L94.9,625.4 L93.3,626.3 L92.3,626.8 L91.1,626.9 L89.9,626.5 L89.0,625.4 L88.4,624.4 L88.2,622.9 L88.4,621.2 L88.0,619.7 L87.0,618.4 L85.6,617.4 L84.5,616.4 L83.5,614.3 L83.8,611.4 L84.8,608.2 L84.5,606.8 L84.1,605.1 L82.6,603.7 L81.0,603.6 L80.2,604.8 L79.9,606.1 L79.2,607.5 L78.2,608.1 L75.2,607.4 L73.1,605.9 L72.0,604.7 L71.5,603.3 L71.1,601.4 L71.0,599.4 L71.2,597.2 L72.1,594.8 L73.1,593.6 L74.1,592.9 L75.7,592.3 L77.2,592.0 L79.0,592.0 L80.7,592.4 L82.2,593.3 L83.6,594.5 L85.6,596.9 Z" fill="#e7d6a3" stroke="none"/>
<path d="M139.0,567.1 L140.5,568.7 L142.4,570.2 L142.8,571.2 L142.8,572.2 L143.0,573.3 L143.6,575.2 L145.9,576.1 L148.6,577.0 L149.9,577.1 L151.0,576.5 L151.8,575.3 L151.8,573.5 L151.5,572.0 L150.1,570.2 L146.9,567.1 L144.0,564.9 L143.0,564.3 L141.8,564.0 L141.1,564.0 L140.3,564.4 L139.1,565.4 L139.0,566.2 L139.0,567.1 Z" fill="#e7d6a3" stroke="none"/>
<path d="M173.0,574.0 L175.3,577.4 L175.3,579.9 L173.9,582.4 L171.2,581.7 L167.0,576.8 L166.0,574.3 L166.3,572.5 L168.6,570.3 L170.4,570.3 L172.0,571.0 L173.5,571.9 L173.0,574.0 Z" fill="#e7d6a3" stroke="none"/>
<path d="M265.5,417.9 L264.1,423.5 L264.1,426.2 L266.3,429.7 L266.6,432.2 L265.9,434.4 L263.9,436.8 L261.7,437.2 L259.8,436.9 L257.2,434.6 L256.2,432.6 L255.8,429.2 L256.5,421.9 L256.2,418.0 L256.4,415.1 L258.0,411.5 L260.8,410.1 L262.4,410.0 L264.3,411.9 L265.5,415.9 L265.5,417.9 Z" fill="#e7d6a3" stroke="none"/>
<path d="M163.4,367.4 L162.0,365.8 L160.9,364.2 L158.7,363.1 L155.8,362.2 L154.8,361.2 L153.9,360.1 L153.4,358.8 L153.5,357.4 L154.4,355.8 L155.3,354.5 L155.6,352.9 L155.3,351.2 L155.2,350.2 L155.3,349.5 L155.9,348.0 L157.3,347.6 L159.1,347.7 L161.0,348.3 L162.1,350.5 L161.8,352.5 L161.5,353.7 L161.5,355.7 L162.0,357.0 L162.9,357.6 L164.0,357.9 L165.2,357.6 L166.3,357.1 L167.3,356.2 L168.2,355.3 L168.9,355.3 L169.7,355.6 L170.5,357.2 L171.2,358.9 L171.7,361.1 L171.2,363.1 L170.7,364.7 L169.8,366.3 L168.7,367.4 L167.0,368.4 L165.9,368.5 L164.7,368.4 L163.4,367.4 Z" fill="#e7d6a3" stroke="none"/>
<path d="M221.8,761.7 L222.0,764.3 L222.5,766.4 L222.7,768.4 L222.2,769.6 L220.5,771.2 L218.1,771.9 L216.6,771.9 L215.1,771.3 L213.8,770.0 L212.6,768.5 L211.7,766.5 L212.3,764.3 L212.7,762.9 L212.5,761.0 L212.6,759.6 L212.5,758.0 L212.8,756.8 L213.3,755.6 L215.1,754.4 L217.6,753.3 L219.3,751.5 L221.9,749.0 L222.7,748.4 L223.7,748.2 L224.6,748.3 L225.6,748.6 L227.4,750.8 L229.6,753.1 L230.7,753.1 L231.5,752.9 L232.1,751.8 L232.2,750.5 L231.8,748.0 L232.4,746.9 L233.6,746.1 L234.7,746.2 L235.9,746.3 L236.9,746.7 L238.4,747.7 L239.8,749.4 L240.7,751.3 L240.3,753.8 L239.4,755.9 L238.2,757.5 L236.3,758.6 L233.3,758.6 L231.0,757.9 L228.6,757.7 L227.0,757.7 L225.4,758.2 L223.9,758.8 L222.7,759.7 L221.8,761.7 Z" fill="#e7d6a3" stroke="none"/>
<path d="M262.4,7.3 L263.8,9.8 L263.3,11.4 L261.2,12.1 L257.9,11.5 L255.6,9.2 L255.8,6.3 L257.8,3.9 L259.6,2.2 L261.2,1.0 L264.4,1.9 L266.7,3.5 L267.7,4.6 L267.2,6.1 L265.7,7.2 L264.4,6.1 L262.4,7.3 Z" fill="#e7d6a3" stroke="none"/>
<path d="M300.5,844.0 L300.2,841.6 L299.7,840.3 L299.3,839.2 L298.4,837.8 L297.1,836.5 L295.6,834.6 L295.6,832.4 L297.1,830.7 L298.4,830.1 L299.8,829.8 L302.0,830.7 L304.2,833.9 L306.5,835.4 L307.8,837.6 L308.1,839.3 L307.3,841.9 L306.0,843.3 L304.3,844.0 L302.6,844.6 L301.4,844.4 L300.5,844.0 Z" fill="#e7d6a3" stroke="none"/>
<path d="M265.1,833.2 L264.4,837.7 L265.3,841.4 L264.6,843.8 L262.6,844.5 L259.9,844.9 L258.0,846.2 L256.9,846.8 L255.4,845.6 L253.7,840.7 L253.9,838.4 L254.8,836.6 L256.7,836.1 L257.5,834.7 L257.5,833.3 L257.1,832.4 L255.3,830.2 L252.9,829.3 L252.1,828.2 L252.1,825.3 L252.2,823.7 L253.3,822.6 L255.2,823.1 L256.6,824.2 L258.2,822.9 L259.1,819.3 L260.0,816.9 L261.6,816.1 L263.8,816.1 L268.9,816.9 L270.5,818.6 L270.6,820.5 L270.1,823.0 L267.9,824.2 L264.9,825.4 L263.1,826.8 L261.8,828.7 L261.6,830.1 L261.9,830.9 L263.8,831.3 L265.1,833.2 Z" fill="#e7d6a3" stroke="none"/>
<path d="M234.8,18.9 L227.2,19.2 L224.2,20.9 L221.0,20.6 L217.8,18.7 L215.0,15.3 L214.5,11.8 L214.7,9.5 L216.7,6.8 L219.1,6.1 L221.9,6.1 L224.5,4.7 L227.2,3.0 L229.8,3.0 L232.9,4.3 L233.9,5.7 L232.9,7.8 L231.7,9.2 L231.5,10.4 L232.9,11.4 L235.5,11.2 L239.5,10.1 L241.2,7.8 L241.2,5.0 L239.6,2.8 L237.4,1.5 L235.5,0.2 L234.5,-1.3 L234.6,-2.9 L235.7,-3.8 L237.7,-4.5 L245.6,-4.4 L248.9,-3.6 L252.2,-1.9 L251.9,1.4 L250.9,3.4 L250.9,7.3 L250.2,10.0 L251.0,12.7 L252.9,14.7 L256.7,15.4 L260.5,17.0 L270.7,15.4 L278.0,14.9 L279.9,13.3 L287.9,12.7 L293.9,14.1 L294.7,16.7 L293.7,19.1 L291.6,19.1 L289.6,19.5 L288.6,20.5 L289.0,21.9 L288.4,23.5 L289.3,25.3 L291.1,25.5 L295.0,24.4 L298.0,23.7 L301.5,23.9 L303.0,24.0 L303.0,26.6 L304.3,28.0 L307.4,28.0 L309.4,28.8 L311.2,30.5 L311.3,32.4 L309.9,33.7 L307.3,34.8 L305.3,35.0 L303.3,32.9 L298.5,31.0 L296.8,31.9 L296.7,32.9 L294.9,34.2 L292.3,35.0 L288.6,34.6 L277.3,31.5 L266.5,27.5 L259.5,26.0 L247.3,24.0 L234.8,18.9 Z" fill="#e7d6a3" stroke="none"/>
<path d="M232.6,711.7 L231.4,710.9 L229.7,710.0 L227.9,709.4 L226.0,709.1 L224.1,708.5 L222.4,707.7 L221.2,707.0 L220.6,705.5 L220.9,704.2 L221.3,702.9 L220.7,701.4 L219.6,700.3 L218.4,699.8 L217.0,699.5 L215.2,699.7 L213.9,700.1 L212.6,700.6 L211.0,701.0 L209.6,700.8 L207.8,700.6 L206.1,700.7 L204.4,700.9 L203.2,701.5 L202.0,702.6 L200.9,703.7 L200.0,705.1 L199.2,706.5 L198.4,708.0 L198.1,709.5 L198.1,710.9 L198.0,712.5 L198.4,714.0 L199.2,715.5 L200.2,716.4 L201.1,717.2 L202.6,718.0 L203.8,718.5 L205.6,718.8 L206.8,718.4 L207.8,717.7 L208.9,716.4 L209.1,715.0 L208.6,713.8 L208.2,712.8 L208.0,711.8 L208.2,710.6 L209.0,710.0 L210.0,710.1 L211.3,710.2 L212.2,709.7 L213.2,708.7 L214.3,708.4 L215.5,708.8 L216.5,709.6 L217.5,710.4 L218.4,711.4 L218.7,712.3 L218.8,713.6 L219.5,714.8 L220.6,715.6 L222.2,715.9 L223.8,716.1 L225.7,716.8 L226.4,717.7 L228.0,718.6 L229.2,718.7 L230.4,718.5 L231.7,718.4 L233.0,717.9 L233.9,717.0 L234.2,716.1 L234.3,714.8 L234.0,713.4 L233.3,712.5 L232.6,711.7 Z" fill="#e7d6a3" stroke="none"/>
<path d="M307.5,88.8 L307.7,87.0 L308.0,85.1 L308.0,83.5 L307.5,82.1 L306.8,81.0 L306.2,80.1 L305.1,79.3 L304.1,79.3 L302.7,79.6 L300.9,80.3 L299.0,80.4 L297.4,80.2 L296.1,79.7 L294.8,79.0 L293.9,78.5 L292.7,78.1 L291.5,78.0 L290.5,78.7 L289.7,79.3 L287.3,80.1 L285.7,79.7 L283.8,79.5 L281.9,79.3 L280.1,79.4 L278.2,79.9 L277.7,81.3 L277.8,82.4 L278.1,83.6 L278.2,84.8 L278.9,86.2 L280.0,86.8 L281.5,87.3 L283.2,87.2 L285.4,85.8 L287.3,85.8 L289.0,86.0 L291.0,86.6 L292.4,87.5 L293.9,88.1 L295.2,88.1 L296.0,87.6 L296.9,86.5 L297.8,85.3 L299.0,84.6 L300.3,84.6 L302.0,85.2 L302.7,86.1 L303.4,87.2 L303.5,88.7 L303.5,89.7 L303.0,90.7 L302.3,91.6 L301.9,92.5 L302.6,93.7 L303.2,95.3 L303.4,96.6 L303.4,98.3 L303.5,99.5 L303.5,100.1 L303.5,101.3 L304.3,102.4 L305.5,103.1 L307.1,103.3 L308.9,103.3 L310.4,102.5 L312.0,100.4 L312.0,99.0 L311.9,97.6 L311.5,96.0 L310.8,94.9 L309.8,94.1 L308.8,93.2 L308.1,91.7 L307.5,90.4 L307.5,88.8 Z" fill="#e7d6a3" stroke="none"/>
<path d="M300.9,111.8 L298.9,111.6 L296.8,112.6 L294.7,113.5 L293.4,114.6 L291.6,116.3 L290.5,118.1 L289.8,120.6 L290.0,122.8 L290.6,124.7 L291.6,126.4 L292.8,127.5 L295.4,128.9 L297.4,129.2 L299.4,128.8 L300.8,128.0 L301.5,126.9 L301.8,125.5 L301.1,124.0 L300.5,122.0 L300.8,120.4 L301.7,119.0 L303.3,118.2 L304.6,117.8 L305.0,116.3 L304.6,114.6 L303.7,113.5 L302.2,112.5 L300.9,111.8 Z" fill="#e7d6a3" stroke="none"/>
<path d="M185.3,111.9 L185.4,110.3 L185.1,108.7 L186.0,106.3 L188.5,105.4 L192.7,105.1 L194.3,106.0 L195.4,108.4 L196.6,111.4 L197.7,112.3 L198.4,113.9 L198.2,115.0 L197.3,117.3 L196.6,118.8 L196.7,120.1 L197.8,121.7 L200.8,123.1 L202.0,124.8 L203.7,127.3 L204.9,127.8 L206.4,127.8 L209.3,127.6 L210.4,128.6 L211.5,129.9 L211.7,131.1 L211.6,132.5 L210.0,136.5 L208.7,138.5 L205.5,139.6 L202.2,140.4 L199.7,140.3 L197.1,139.9 L195.7,138.7 L195.0,137.3 L194.9,135.9 L194.6,132.5 L193.8,131.0 L192.4,129.7 L190.4,128.6 L186.8,126.8 L183.8,123.7 L182.9,121.6 L182.2,119.4 L182.1,117.4 L182.9,114.8 L184.8,113.1 L185.3,111.9 Z" fill="#e7d6a3" stroke="none"/>
<path d="M173.0,174.6 L174.4,174.6 L176.0,173.6 L176.9,172.2 L177.1,171.2 L176.6,169.8 L175.6,168.1 L174.6,167.8 L173.1,168.2 L171.8,168.6 L171.0,169.5 L170.6,171.3 L171.4,173.7 L173.0,174.6 Z" fill="#e7d6a3" stroke="none"/>
<path d="M149.8,195.4 L152.2,194.7 L154.2,194.5 L156.7,195.7 L159.4,195.9 L161.1,195.8 L162.2,194.1 L162.9,192.9 L162.9,191.7 L162.4,190.4 L161.9,189.4 L160.6,188.9 L159.7,188.8 L158.8,189.0 L157.9,189.2 L156.6,189.2 L155.6,188.6 L154.5,188.1 L153.3,187.5 L152.4,187.5 L151.2,187.8 L150.1,188.3 L149.2,188.9 L148.2,189.8 L147.6,190.9 L147.4,191.6 L147.3,192.3 L147.4,193.3 L148.0,195.1 L149.8,195.4 Z" fill="#e7d6a3" stroke="none"/>
<path d="M187.3,202.0 L190.3,203.7 L191.7,205.5 L193.2,206.1 L195.7,205.5 L197.2,204.1 L198.0,202.7 L198.1,200.9 L197.3,199.4 L196.2,198.3 L194.4,197.8 L192.1,197.0 L190.8,195.6 L189.6,194.3 L188.3,193.9 L186.9,193.9 L185.6,194.9 L184.4,196.7 L184.9,198.8 L186.0,201.2 L187.3,202.0 Z" fill="#e7d6a3" stroke="none"/>
<path d="M237.5,222.8 L238.7,222.0 L240.4,222.6 L241.4,222.6 L242.4,221.7 L242.9,220.7 L244.3,219.5 L248.2,217.8 L249.5,217.3 L251.1,217.3 L252.4,217.9 L253.4,218.4 L254.4,219.1 L255.2,220.2 L255.7,221.3 L255.5,222.5 L254.8,223.5 L253.8,225.0 L252.6,226.1 L251.0,226.6 L249.6,226.7 L248.7,226.7 L247.8,226.4 L247.3,226.3 L246.9,226.6 L246.5,227.1 L246.3,227.7 L245.9,228.5 L245.0,229.0 L243.8,229.4 L242.3,229.3 L241.6,228.6 L240.9,228.4 L239.4,228.6 L237.8,228.7 L236.7,228.1 L235.9,227.1 L236.0,224.7 L237.5,222.8 Z" fill="#e7d6a3" stroke="none"/>
<path d="M197.6,277.1 L197.5,270.5 L196.7,269.0 L195.2,268.7 L193.0,269.0 L192.1,269.8 L190.8,271.4 L190.6,272.2 L191.1,273.0 L191.0,273.9 L190.0,275.5 L189.6,276.6 L189.7,278.1 L190.5,280.2 L191.1,280.6 L192.3,281.1 L194.6,280.9 L195.4,279.7 L197.6,277.1 Z" fill="#e7d6a3" stroke="none"/>
<path d="M256.7,255.5 L258.5,254.9 L259.7,255.0 L261.3,255.7 L262.3,255.5 L263.0,255.0 L263.8,254.3 L264.2,253.2 L264.1,251.2 L263.5,249.6 L262.5,248.5 L261.4,248.0 L260.3,247.9 L259.2,247.9 L258.6,247.7 L258.1,247.3 L257.2,247.0 L255.9,247.2 L255.2,247.4 L254.1,248.1 L253.4,248.8 L253.0,249.7 L252.8,250.4 L253.0,250.9 L253.4,252.1 L253.3,253.2 L253.2,254.1 L253.3,254.7 L254.8,255.3 L256.7,255.5 Z" fill="#e7d6a3" stroke="none"/>
<path d="M196.7,325.0 L198.6,325.0 L200.8,326.0 L202.2,327.1 L203.3,328.5 L203.7,330.5 L203.4,332.6 L201.9,333.7 L201.2,334.0 L198.5,334.0 L197.0,333.0 L195.1,332.0 L194.2,329.8 L194.4,327.2 L195.4,325.8 L196.7,325.0 Z" fill="#e7d6a3" stroke="none"/>
<path d="M228.9,339.7 L230.8,339.6 L232.7,337.8 L232.9,336.5 L232.7,335.4 L232.9,334.0 L233.5,333.1 L234.1,332.2 L234.3,331.4 L234.2,330.5 L233.0,328.3 L231.1,327.2 L230.0,327.0 L228.6,327.2 L227.2,327.9 L226.1,329.5 L225.1,330.8 L224.6,332.0 L225.0,333.6 L225.5,335.3 L226.0,337.2 L227.8,339.1 L228.9,339.7 Z" fill="#e7d6a3" stroke="none"/>
<path d="M230.2,802.6 L232.4,803.4 L234.3,804.2 L236.6,806.3 L237.4,808.2 L237.7,809.9 L237.6,811.6 L237.1,814.2 L236.2,816.5 L234.7,817.5 L233.1,818.3 L229.9,818.6 L226.4,817.8 L223.1,816.3 L221.0,814.7 L219.5,812.5 L218.8,809.5 L219.3,807.3 L219.8,805.6 L220.8,803.8 L222.9,802.4 L225.3,801.7 L227.7,801.9 L230.2,802.6 Z" fill="#4f8a3e" stroke="none"/>
<path d="M251.6,667.7 L256.9,686.9 L257.6,687.8 L258.8,688.7 L261.0,689.4 L262.0,689.4 L263.2,689.2 L264.5,688.8 L265.6,688.1 L266.3,687.4 L267.0,686.6 L267.4,685.4 L267.8,683.9 L268.0,682.1 L265.5,670.9 L263.4,663.6 L262.6,662.7 L261.9,662.2 L260.4,661.6 L259.0,661.2 L257.3,661.1 L255.7,661.4 L254.4,662.2 L253.3,663.1 L252.5,664.2 L252.0,665.4 L251.7,666.5 L251.6,667.7 Z" fill="#4f8a3e" stroke="none"/>
<path d="M262.4,699.8 L265.3,710.9 L268.0,718.3 L270.2,720.3 L272.5,721.0 L274.7,721.1 L276.9,720.3 L278.2,719.6 L279.3,718.3 L279.8,716.3 L279.5,714.5 L276.9,708.5 L274.0,701.0 L271.3,695.5 L270.4,694.9 L269.5,694.7 L267.2,694.5 L265.9,694.9 L264.6,695.3 L262.9,696.5 L262.3,698.2 L262.4,699.8 Z" fill="#4f8a3e" stroke="none"/>
<path d="M368.3,618.8 L363.3,648.2 L358.9,674.2 L355.3,678.1 L350.3,681.7 L348.0,683.8 L346.9,686.8 L346.8,690.0 L347.9,692.1 L356.8,693.9 L361.1,694.5 L363.1,694.6 L364.9,693.8 L366.4,692.2 L367.3,689.9 L369.0,678.8 L375.1,639.9 L376.2,628.3 L377.1,619.6 L376.8,618.3 L376.3,617.3 L375.4,616.1 L374.2,615.4 L373.0,614.9 L370.8,615.0 L369.3,616.0 L368.7,617.4 L368.3,618.8 Z" fill="#4f8a3e" stroke="none"/>
<path d="M208.8,809.7 L200.4,806.4 L198.1,804.3 L197.2,801.4 L197.9,798.9 L199.1,797.3 L201.0,796.2 L203.1,796.2 L207.6,797.6 L212.4,799.8 L213.9,801.3 L214.5,803.0 L214.9,804.6 L214.5,806.2 L213.9,808.2 L212.7,809.5 L210.6,810.0 L208.8,809.7 Z" fill="#4f8a3e" stroke="none"/>
<path d="M297.0,209.4 L298.0,210.5 L299.4,211.0 L301.5,211.4 L303.6,211.2 L304.7,210.2 L305.7,208.7 L307.0,206.8 L307.9,204.3 L308.6,202.0 L308.9,199.6 L309.1,197.0 L308.9,194.5 L308.2,193.1 L307.8,192.6 L307.3,192.0 L306.3,191.0 L305.2,190.3 L304.4,189.9 L303.4,189.7 L302.3,189.5 L301.2,189.6 L300.1,190.0 L299.1,190.6 L298.2,191.2 L297.5,192.0 L296.6,193.1 L296.0,194.5 L295.4,197.2 L295.5,205.8 L295.6,206.8 L295.9,207.8 L296.5,208.7 L297.0,209.4 Z" fill="#4f8a3e" stroke="none"/>
<path d="M174.0,790.0 L172.0,789.1 L170.2,787.9 L169.1,786.6 L168.1,784.8 L168.1,782.8 L169.0,781.1 L169.9,779.7 L171.3,778.8 L173.2,778.1 L175.2,778.3 L177.2,779.1 L179.5,780.4 L184.7,783.2 L189.0,785.0 L191.6,786.5 L193.5,789.0 L194.2,791.2 L193.9,793.2 L193.4,794.8 L191.9,796.5 L189.6,797.3 L187.7,797.2 L174.0,790.0 Z" fill="#4f8a3e" stroke="none"/>
<path d="M141.7,770.6 L139.8,768.8 L139.0,766.8 L138.8,764.5 L139.2,762.4 L140.6,760.7 L142.5,759.7 L145.0,759.3 L147.2,759.5 L149.5,760.2 L152.0,761.3 L156.4,763.5 L159.3,765.1 L161.0,766.5 L162.2,768.4 L162.9,771.0 L162.8,773.4 L162.0,775.7 L160.6,776.7 L159.0,777.2 L157.2,777.2 L141.7,770.6 Z" fill="#4f8a3e" stroke="none"/>
<path d="M283.0,724.9 L284.8,725.3 L286.0,725.9 L287.3,726.8 L288.4,727.8 L289.8,729.5 L290.5,731.4 L290.5,733.3 L290.1,734.9 L289.2,736.7 L288.5,737.6 L287.2,738.5 L286.2,739.0 L284.4,739.3 L283.2,739.0 L281.7,738.1 L280.7,737.2 L279.8,735.9 L278.9,734.4 L278.4,732.9 L278.3,731.5 L278.3,729.6 L278.9,728.2 L279.8,726.7 L281.0,725.8 L281.9,725.1 L283.0,724.9 Z" fill="#4f8a3e" stroke="none"/>
<path d="M240.2,606.0 L240.6,604.2 L241.7,602.7 L243.1,601.7 L244.6,601.1 L246.4,601.1 L247.6,601.5 L248.7,602.1 L249.4,603.0 L255.1,616.3 L255.3,617.9 L254.9,619.4 L254.3,620.8 L253.4,622.2 L252.5,623.0 L251.1,624.1 L249.7,624.5 L248.2,624.3 L246.8,624.0 L245.5,623.0 L244.6,621.7 L240.2,606.0 Z" fill="#4f8a3e" stroke="none"/>
<path d="M-24.9,216.5 L-23.6,215.6 L-22.1,214.9 L-20.1,214.8 L-17.7,215.6 L-16.5,216.8 L-15.5,218.6 L-14.7,220.0 L-14.7,221.8 L-15.3,223.4 L-15.9,224.6 L-17.0,225.9 L-18.6,226.8 L-20.0,226.8 L-22.1,226.6 L-23.8,225.7 L-24.8,224.5 L-25.4,223.6 L-25.9,221.7 L-26.0,219.8 L-25.8,217.9 L-24.9,216.5 Z" fill="#4f8a3e" stroke="none"/>
<path d="M-39.4,98.1 L-40.2,96.0 L-40.9,93.3 L-41.2,91.4 L-41.1,89.6 L-40.5,87.9 L-39.5,86.4 L-38.3,85.1 L-37.0,84.3 L-35.9,84.0 L-34.5,84.1 L-32.9,84.5 L-31.6,85.3 L-30.8,86.3 L-30.4,87.8 L-30.3,89.4 L-30.2,90.8 L-30.4,92.9 L-30.4,94.4 L-30.2,95.7 L-29.8,97.1 L-29.3,98.3 L-28.5,100.6 L-28.5,102.2 L-29.0,103.8 L-29.9,105.2 L-31.0,106.1 L-32.4,106.8 L-34.0,106.8 L-35.7,106.3 L-36.6,105.4 L-37.3,104.5 L-38.2,102.0 L-38.8,100.1 L-39.1,99.2 L-39.4,98.1 Z" fill="#4f8a3e" stroke="none"/>
<path d="M-43.1,67.5 L-44.3,68.3 L-45.0,69.4 L-45.8,71.0 L-45.8,72.8 L-45.6,74.4 L-44.8,76.0 L-43.8,77.0 L-42.4,78.0 L-41.1,78.6 L-39.3,78.9 L-37.6,78.5 L-36.4,77.8 L-35.8,77.0 L-35.2,76.1 L-34.8,75.0 L-34.8,73.6 L-35.2,71.8 L-35.9,69.9 L-37.0,68.5 L-38.3,67.6 L-39.5,67.1 L-40.6,66.8 L-41.7,66.8 L-43.1,67.5 Z" fill="#4f8a3e" stroke="none"/>
<path d="M20.5,434.7 L19.0,431.2 L17.1,428.6 L14.7,426.6 L13.7,425.8 L12.4,425.0 L11.0,424.8 L9.7,424.8 L7.9,424.9 L6.3,425.4 L4.8,425.9 L3.3,426.6 L2.2,427.4 L1.0,428.2 L0.2,429.3 L-0.2,430.4 L-0.8,431.9 L-1.0,433.4 L-0.1,436.1 L1.4,438.3 L3.0,440.6 L4.8,443.3 L6.4,445.7 L7.3,446.8 L8.4,447.6 L9.7,448.2 L11.2,448.5 L13.5,448.0 L15.9,446.8 L17.4,446.1 L18.9,445.2 L20.0,444.2 L20.8,443.1 L21.3,441.8 L21.6,440.4 L21.7,438.9 L21.4,437.3 L20.5,434.7 Z" fill="#4f8a3e" stroke="none"/>
<path d="M-5.1,421.9 L-5.1,420.4 L-5.2,419.8 L-5.4,418.7 L-6.0,417.5 L-6.4,416.7 L-7.2,415.9 L-8.3,415.2 L-9.5,414.5 L-10.9,413.9 L-12.1,413.6 L-13.5,413.5 L-14.8,413.5 L-16.7,414.4 L-18.4,415.4 L-19.3,416.5 L-19.8,417.6 L-20.0,418.8 L-19.9,420.0 L-19.6,421.1 L-19.1,422.1 L-17.1,424.0 L-14.7,425.9 L-12.2,427.4 L-11.1,427.7 L-10.0,427.7 L-8.9,427.3 L-7.9,426.7 L-7.0,425.9 L-6.3,424.9 L-5.6,424.1 L-5.3,423.3 L-5.1,421.9 Z" fill="#4f8a3e" stroke="none"/>
<path d="M24.9,450.3 L23.5,451.0 L22.6,451.8 L21.7,452.9 L20.8,454.7 L20.4,456.6 L20.3,458.5 L20.6,459.6 L21.1,460.3 L21.7,461.8 L22.8,463.4 L26.9,468.1 L29.2,470.4 L31.3,472.4 L32.9,474.1 L34.4,474.7 L36.2,475.1 L38.1,475.0 L39.7,474.0 L41.0,472.6 L41.9,470.9 L42.6,468.5 L42.2,465.7 L41.1,463.0 L39.9,460.3 L37.9,456.4 L36.5,453.6 L35.3,452.1 L33.9,450.9 L32.2,450.1 L30.2,449.7 L28.2,449.5 L26.8,449.6 L25.9,449.8 L24.9,450.3 Z" fill="#4f8a3e" stroke="none"/>
<path d="M58.3,487.4 L58.3,485.5 L57.7,483.5 L56.7,482.1 L55.6,480.6 L54.3,479.2 L52.9,478.1 L51.2,477.1 L49.6,476.6 L47.3,476.6 L45.8,476.9 L44.3,477.6 L43.3,478.6 L42.7,479.9 L42.2,481.4 L41.9,482.6 L41.9,484.5 L42.3,486.3 L43.5,488.4 L44.7,489.7 L45.9,490.5 L47.7,491.8 L50.1,492.7 L52.3,493.0 L54.7,492.5 L56.8,491.0 L57.9,489.4 L58.3,487.4 Z" fill="#4f8a3e" stroke="none"/>
<path d="M-40.1,50.1 L-39.6,48.4 L-39.5,45.9 L-39.9,43.6 L-40.7,41.9 L-42.8,40.3 L-45.3,39.8 L-47.3,40.1 L-49.4,41.2 L-51.0,42.5 L-52.0,44.3 L-52.2,45.9 L-52.0,47.6 L-51.5,49.2 L-51.0,50.4 L-49.8,51.8 L-48.3,52.7 L-46.6,52.9 L-44.5,53.1 L-42.7,52.4 L-41.3,51.4 L-40.1,50.1 Z" fill="#4f8a3e" stroke="none"/>
<path d="M-3.2,23.4 L-3.7,21.6 L-5.1,19.8 L-7.3,18.7 L-9.9,18.0 L-12.7,18.3 L-14.7,19.0 L-16.4,20.0 L-17.9,21.5 L-18.5,23.2 L-18.6,25.3 L-17.8,27.0 L-17.0,28.6 L-15.2,30.1 L-13.0,31.0 L-10.3,31.3 L-7.1,31.2 L-5.2,30.1 L-4.2,28.9 L-3.4,27.2 L-3.2,25.6 L-3.2,24.5 L-3.2,23.4 Z" fill="#4f8a3e" stroke="none"/>
<path d="M343.5,80.1 L343.9,78.4 L345.0,76.4 L346.4,74.7 L348.2,73.7 L350.6,73.9 L352.1,74.8 L353.4,76.2 L354.1,78.6 L354.3,80.9 L354.3,83.3 L353.9,85.6 L352.8,87.7 L351.3,89.6 L350.0,90.5 L347.8,90.9 L346.1,90.6 L344.9,89.9 L343.8,88.9 L343.1,87.2 L342.8,84.9 L343.0,82.9 L343.2,81.7 L343.5,80.1 Z" fill="#4f8a3e" stroke="none"/>
<path d="M332.8,134.6 L332.4,132.8 L339.0,108.4 L339.9,107.3 L340.7,106.7 L341.7,106.3 L342.7,106.1 L343.9,106.0 L344.9,106.2 L346.1,106.7 L347.0,107.5 L347.8,108.4 L348.3,109.3 L348.4,110.6 L343.9,133.7 L342.7,135.5 L341.1,136.4 L339.5,136.6 L337.7,136.5 L335.9,136.1 L334.3,135.6 L332.8,134.6 Z" fill="#4f8a3e" stroke="none"/>
<path d="M178.3,84.5 L242.5,86.5 L241.6,117.5 L177.4,115.6 L178.3,84.5 Z" fill="#4f8a3e" stroke="none"/>
<path d="M310.5,650.1 L308.4,647.0 L306.7,645.5 L304.6,644.3 L302.2,644.0 L300.0,644.5 L297.7,645.6 L296.2,647.3 L295.1,650.5 L294.2,653.9 L293.5,656.9 L293.3,658.7 L293.5,660.9 L295.8,665.7 L298.8,669.9 L310.7,683.9 L313.1,684.3 L315.4,684.2 L317.8,684.0 L320.3,683.5 L322.7,682.8 L324.7,682.2 L327.3,680.4 L329.6,678.3 L331.3,675.2 L331.9,673.3 L332.1,671.1 L332.0,669.4 L331.6,667.7 L330.1,664.5 L328.3,662.0 L326.2,659.5 L324.2,657.6 L321.9,655.7 L318.8,654.0 L315.8,653.1 L313.0,652.0 L310.5,650.1 Z" fill="#2f7825" stroke="none"/>
<path d="M62.5,45.5 L64.4,45.3 L66.4,45.3 L70.9,45.3 L74.3,46.0 L76.5,47.7 L77.9,50.0 L79.0,52.1 L80.2,53.8 L81.4,55.2 L82.8,56.7 L84.5,57.9 L86.3,60.5 L86.6,63.7 L86.3,69.3 L85.8,73.5 L85.0,78.8 L84.3,82.8 L83.0,85.9 L82.2,87.5 L80.8,89.0 L78.2,89.8 L76.6,89.7 L74.9,89.1 L73.4,88.5 L72.3,87.4 L70.5,83.3 L69.2,77.5 L67.4,72.4 L64.8,67.6 L61.2,63.9 L58.4,61.0 L57.2,59.8 L55.4,57.9 L54.5,56.2 L54.3,54.3 L54.4,52.4 L55.0,50.7 L56.2,48.6 L58.0,47.0 L60.0,46.1 L62.5,45.5 Z" fill="#2f7825" stroke="none"/>
<path d="M283.9,92.4 L278.6,94.1 L271.0,97.5 L260.7,100.4 L258.4,102.2 L256.6,104.6 L255.4,107.2 L254.7,109.9 L254.2,113.3 L254.2,117.1 L255.5,121.2 L257.9,125.0 L259.8,127.1 L262.0,129.0 L264.4,130.9 L267.2,132.3 L270.2,132.4 L272.6,131.4 L275.5,129.7 L277.7,127.4 L281.7,121.2 L286.2,113.6 L288.3,110.6 L290.7,108.0 L294.2,105.3 L296.0,102.6 L296.6,100.9 L296.5,99.7 L295.4,96.9 L294.3,94.7 L292.3,93.2 L290.0,92.1 L286.9,91.9 L283.9,92.4 Z" fill="#2f7825" stroke="none"/>
<path d="M-28.2,-70.6 L-27.0,-68.2 L-25.6,-66.0 L-22.7,-59.8 L-20.1,-53.8 L-19.0,-50.4 L-18.2,-47.3 L-16.5,-44.8 L-14.2,-43.5 L-11.6,-42.7 L-9.2,-42.7 L-6.2,-43.0 L-3.7,-43.6 L-1.1,-44.2 L1.9,-45.2 L4.6,-46.3 L6.4,-47.6 L7.5,-48.4 L8.3,-49.8 L9.4,-52.3 L9.9,-54.6 L9.6,-57.3 L8.3,-59.8 L6.0,-62.0 L0.3,-65.3 L-2.0,-66.6 L-4.4,-68.8 L-6.1,-72.0 L-7.7,-76.5 L-8.2,-79.3 L-9.1,-82.0 L-10.4,-83.8 L-11.3,-85.1 L-13.6,-86.7 L-15.7,-87.4 L-18.0,-87.4 L-20.5,-86.8 L-22.1,-86.3 L-23.7,-85.2 L-25.1,-83.7 L-26.3,-81.9 L-27.4,-79.7 L-28.0,-77.3 L-28.5,-74.0 L-28.2,-70.6 Z" fill="#2f7825" stroke="none"/>
<path d="M269.6,839.8 L268.8,837.2 L268.8,834.0 L269.8,831.9 L271.3,829.6 L272.7,827.4 L274.2,824.9 L275.4,822.0 L275.8,819.4 L276.6,816.7 L278.4,814.2 L280.3,813.0 L282.3,812.6 L284.5,813.0 L286.7,813.9 L288.9,815.8 L289.8,817.5 L290.7,819.9 L291.1,822.7 L290.9,825.4 L290.8,829.3 L291.3,832.8 L292.1,836.4 L293.4,840.0 L294.6,842.1 L295.4,844.1 L296.5,846.7 L296.6,849.0 L295.2,851.5 L292.7,853.3 L291.1,854.0 L289.2,854.6 L286.8,854.2 L283.7,852.7 L281.7,851.0 L279.8,849.3 L277.4,847.1 L274.7,844.7 L272.5,842.8 L271.0,841.6 L269.6,839.8 Z" fill="#2f7825" stroke="none"/>
<path d="M213.8,719.2 L209.8,721.2 L204.6,723.9 L200.6,726.1 L199.6,727.7 L199.2,729.4 L199.7,732.3 L200.5,736.5 L201.9,740.0 L203.3,742.9 L205.1,746.0 L207.7,747.9 L211.1,748.9 L214.6,748.6 L217.8,747.4 L220.4,744.6 L222.2,743.6 L224.3,743.2 L233.4,742.7 L237.8,741.8 L241.1,740.4 L243.0,737.6 L243.9,735.1 L243.9,732.4 L243.4,730.6 L242.7,728.8 L241.8,726.5 L240.7,725.0 L239.3,723.9 L237.3,723.1 L234.3,722.0 L231.0,721.6 L226.3,720.7 L221.8,719.7 L218.1,718.2 L216.2,718.1 L213.8,719.2 Z" fill="#2f7825" stroke="none"/>
<path d="M159.3,577.4 L155.8,578.4 L152.5,579.6 L148.8,581.1 L145.7,582.6 L143.5,583.9 L142.5,584.8 L142.0,585.3 L141.7,585.9 L141.7,587.1 L141.8,588.1 L142.7,590.8 L144.2,595.1 L145.5,598.1 L146.8,600.2 L149.0,603.0 L150.6,604.5 L152.4,605.8 L154.9,606.5 L157.8,606.4 L160.0,605.8 L161.9,604.9 L164.3,604.2 L166.9,604.0 L168.5,604.0 L170.3,604.1 L172.5,604.2 L175.6,603.5 L177.7,602.4 L179.1,600.6 L180.0,598.6 L180.4,596.5 L180.1,593.5 L179.3,591.2 L178.2,589.5 L176.0,587.6 L173.5,586.2 L171.2,585.0 L168.9,583.3 L167.1,581.6 L165.6,579.8 L163.8,577.8 L162.8,577.1 L162.2,576.9 L161.5,576.9 L159.3,577.4 Z" fill="#2f7825" stroke="none"/>
<path d="M285.8,734.1 L187.3,438.2 L65.9,192.7 L75.4,65.9" fill="none" stroke="#ffd64a" stroke-width="3.5" stroke-linecap="round" stroke-linejoin="round" opacity="0.95"/>
</svg>