<svg xmlns="http://www.w3.org/2000/svg" viewBox="0 0 800 600" preserveAspectRatio="xMidYMid slice">
<rect width="100%" height="100%" fill="#143018"/>
<path d="M585.5,292.7 L574.2,307.8 L563.5,326.1 L562.2,341.5 L562.6,356.2 L567.3,361.9 L576.7,363.8 L584.6,362.2 L598.7,339.3 L607.2,326.1 L618.9,284.8 L617.3,272.3 L611.3,254.0 L611.6,225.1 L614.5,187.6 L615.7,162.2 L607.9,136.7 L605.3,129.8 L596.5,125.3 L589.0,129.1 L584.6,166.2 L578.3,187.6 L584.6,203.7 L587.7,211.9 L578.6,228.2 L574.2,251.2 L578.9,266.9 L580.8,279.2 L585.5,292.7 Z" fill="#0f2810" stroke="none"/>
<path d="M436.5,549.7 L410.3,572.1 L410.3,579.8 L414.0,592.9 L430.8,607.6 L447.4,614.1 L458.7,612.8 L471.0,603.0 L465.7,580.7 L458.0,562.2 L454.9,545.2 L450.5,538.7 L436.5,549.7 Z" fill="#0f2810" stroke="none"/>
<path d="M549.2,660.2 L539.7,683.9 L520.4,693.5 L512.8,719.4 L546.3,725.5 L556.1,715.7 L567.6,701.8 L577.8,693.5 L587.6,690.8 L594.9,689.8 L600.8,669.8 L591.3,666.8 L592.0,657.3 L590.5,647.0 L583.7,643.4 L569.8,652.6 L560.2,655.3 L549.2,660.2 Z" fill="#0f2810" stroke="none"/>
<path d="M713.0,46.9 L706.0,67.9 L707.2,84.1 L717.9,119.7 L713.9,143.8 L717.0,201.1 L715.7,213.3 L702.0,238.9 L692.3,287.0 L684.7,319.0 L682.5,347.3 L667.9,401.9 L656.9,441.2 L652.4,455.2 L671.3,486.4 L695.5,395.2 L719.0,309.5 L755.9,175.3 L791.0,47.3 L846.9,62.3 L879.4,-59.6 L848.6,-36.3 L847.9,-34.4 L838.5,-8.6 L829.7,2.4 L811.7,10.3 L782.8,15.8 L764.5,19.2 L730.4,32.3 L713.0,46.9 Z" fill="#0f2810" stroke="none"/>
<path d="M158.4,535.4 L146.7,515.4 L138.3,492.6 L136.0,481.9 L127.2,462.3 L118.3,447.9 L109.5,439.0 L105.3,429.7 L105.7,422.7 L110.4,417.2 L117.9,416.7 L123.9,419.9 L139.3,443.7 L155.6,469.3 L164.9,474.9 L179.3,476.3 L191.4,496.8 L206.3,518.2 L213.8,526.1 L210.1,533.6 L201.2,552.7 L196.1,555.5 L186.3,552.7 L179.3,548.0 L158.4,535.4 Z" fill="#0f2810" stroke="none"/>
<path d="M256.2,432.4 L246.1,420.7 L243.0,412.6 L241.7,404.8 L242.1,399.7 L245.1,396.9 L249.3,396.4 L252.1,397.8 L263.4,409.8 L271.4,415.2 L278.8,427.6 L280.2,439.1 L286.0,448.4 L290.6,450.2 L299.1,448.2 L311.3,448.4 L320.4,451.3 L334.0,463.2 L342.9,479.7 L350.8,490.4 L350.3,496.1 L346.9,499.3 L340.6,500.0 L332.1,495.9 L322.9,490.8 L295.2,472.6 L281.1,456.4 L272.3,444.9 L265.7,438.9 L256.2,432.4 Z" fill="#0f2810" stroke="none"/>
<path d="M351.0,315.2 L351.1,314.5 L351.0,313.9 L350.9,313.3 L350.6,312.6 L350.7,312.0 L351.1,311.7 L351.5,311.6 L352.2,311.8 L352.7,312.6 L353.1,313.7 L353.4,314.9 L353.9,315.6 L354.3,316.3 L354.7,317.0 L354.7,317.7 L354.4,318.4 L354.2,318.9 L353.7,319.4 L353.6,320.0 L353.7,320.8 L353.8,321.5 L353.8,322.1 L353.6,322.8 L353.2,323.2 L352.5,323.4 L351.8,323.3 L351.2,322.9 L350.7,322.4 L350.4,321.6 L350.0,320.7 L349.7,320.0 L349.2,319.5 L348.6,319.2 L348.0,318.9 L347.4,318.4 L347.1,317.9 L347.1,317.3 L347.5,316.9 L348.1,316.7 L348.7,316.8 L349.5,316.7 L350.2,316.3 L350.6,315.9 L351.0,315.2 Z" fill="#2b5a2a" stroke="none"/>
<path d="M108.7,542.8 L129.1,557.3 L136.8,566.0 L143.6,575.8 L151.1,590.6 L154.2,598.2 L158.0,604.9 L162.8,609.3 L168.5,613.2 L207.8,630.9 L227.7,644.5 L234.1,648.8 L239.9,652.6 L250.1,658.2 L261.0,663.0 L268.2,665.2 L275.2,666.7 L281.7,667.7 L288.0,667.5 L292.9,666.4 L297.4,664.7 L300.2,661.8 L302.0,658.4 L303.0,654.8 L302.7,650.8 L300.2,647.5 L294.9,644.4 L280.1,636.4 L265.9,627.7 L236.2,608.6 L176.6,568.0 L155.4,551.9 L151.5,548.6 L147.7,545.3 L143.5,539.5 L139.8,533.6 L111.8,484.6 L100.5,466.0 L93.9,458.2 L86.7,453.1 L84.0,449.8 L82.4,452.5 L80.2,455.3 L78.2,456.9 L75.7,458.3 L72.4,458.7 L76.7,463.7 L78.3,469.5 L79.6,474.5 L97.2,516.2 L99.5,523.0 L102.0,529.7 L104.9,536.8 L108.7,542.8 Z" fill="#5a9540" stroke="none"/>
<path d="M220.4,478.3 L223.6,488.0 L228.3,497.2 L255.9,542.2 L273.8,573.1 L277.8,575.5 L281.9,576.0 L291.8,576.3 L295.1,576.9 L298.0,578.1 L301.2,579.8 L304.1,582.1 L310.0,587.6 L324.2,599.3 L328.0,602.4 L332.0,604.9 L338.1,608.0 L344.2,610.7 L347.1,612.6 L350.1,614.6 L358.8,623.5 L368.8,631.8 L402.6,655.8 L440.7,687.8 L444.1,689.3 L447.3,689.8 L451.1,689.4 L454.1,688.2 L457.5,686.7 L460.4,685.0 L463.9,682.0 L467.7,679.9 L472.0,679.3 L477.9,678.2 L483.8,677.4 L486.2,676.3 L488.1,674.8 L489.7,672.8 L490.7,670.6 L491.1,668.3 L491.0,665.9 L490.4,663.3 L489.5,661.1 L488.2,659.3 L486.9,657.7 L485.2,656.3 L483.6,655.5 L478.2,654.6 L472.6,653.9 L463.6,650.7 L458.9,651.5 L454.5,653.8 L450.3,655.0 L448.3,654.9 L445.9,654.4 L442.7,651.9 L440.6,648.6 L440.2,644.9 L440.8,641.2 L439.9,635.9 L438.7,633.2 L437.1,631.1 L435.2,628.8 L433.3,626.9 L401.5,609.8 L388.1,601.2 L373.3,592.1 L359.4,584.1 L345.3,574.6 L328.5,560.9 L321.4,553.5 L314.6,545.5 L301.2,526.2 L288.0,508.9 L265.5,480.2 L255.7,470.3 L245.1,461.5 L241.5,459.6 L238.2,458.7 L234.6,459.5 L230.8,461.0 L228.3,462.6 L225.3,464.8 L222.9,468.4 L220.8,472.9 L220.4,475.7 L220.4,478.3 Z" fill="#5a9540" stroke="none"/>
<path d="M425.8,429.9 L442.9,465.8 L449.1,476.9 L450.2,478.8 L451.6,480.4 L453.0,481.5 L455.1,482.8 L457.3,483.9 L460.4,484.7 L463.5,484.6 L465.0,484.4 L467.0,483.9 L468.8,483.1 L471.3,482.0 L473.1,480.6 L474.7,479.3 L476.1,477.4 L477.2,475.2 L477.7,472.1 L477.6,468.8 L451.9,382.8 L433.4,347.3 L416.8,321.1 L412.7,317.5 L408.6,314.2 L398.7,306.3 L397.3,304.6 L396.1,302.7 L395.0,300.6 L394.3,298.2 L393.9,285.9 L393.6,281.9 L392.3,278.1 L377.7,240.6 L355.4,183.1 L344.4,157.8 L339.8,150.5 L331.4,134.7 L327.8,124.7 L326.3,119.3 L325.1,113.9 L321.2,92.4 L315.4,73.7 L312.3,59.8 L312.2,57.0 L312.7,54.1 L313.7,50.9 L317.4,47.4 L324.7,44.0 L328.2,42.1 L331.0,40.5 L332.7,38.8 L333.8,37.0 L334.7,35.1 L335.3,32.6 L336.6,22.9 L337.9,13.2 L337.5,10.4 L336.4,8.0 L331.4,0.9 L328.4,-3.1 L326.3,-5.7 L324.9,-6.9 L323.5,-7.9 L318.7,-9.0 L314.9,-8.8 L311.9,-8.6 L308.8,-7.9 L306.0,-7.2 L302.9,-5.9 L298.7,-1.8 L295.5,2.6 L292.4,6.8 L290.0,11.4 L288.0,15.6 L287.0,20.0 L287.2,25.0 L287.8,29.0 L288.6,32.8 L289.8,36.5 L291.0,40.1 L292.6,43.5 L294.9,49.5 L297.2,56.0 L297.1,59.6 L296.4,63.3 L294.7,70.0 L294.6,73.5 L294.9,77.0 L296.3,83.7 L297.3,90.0 L297.2,96.2 L294.2,104.3 L290.1,115.0 L289.2,119.7 L289.1,122.2 L289.3,124.8 L289.6,127.6 L290.4,130.4 L292.4,135.7 L317.8,196.9 L339.8,244.0 L355.7,261.6 L366.8,273.1 L368.2,276.5 L366.8,282.9 L359.7,291.7 L359.1,296.8 L363.1,304.9 L372.3,319.5 L389.2,342.5 L407.1,368.0 L421.0,384.2 L424.1,392.6 L424.3,396.9 L424.0,401.5 L423.1,405.5 L421.7,408.8 L418.3,411.8 L413.6,413.3 L408.5,413.1 L404.5,411.6 L401.4,410.2 L398.3,407.9 L395.6,404.5 L390.2,394.3 L384.4,384.5 L382.4,382.2 L379.4,380.4 L370.1,379.2 L360.7,377.7 L357.6,376.2 L355.0,373.7 L353.8,367.6 L354.7,360.1 L341.5,337.8 L339.0,334.6 L336.3,332.2 L331.4,329.4 L326.0,327.5 L322.7,325.4 L320.7,322.8 L319.9,315.4 L318.5,309.3 L313.4,300.8 L309.5,293.9 L304.9,284.9 L298.7,267.0 L286.6,225.2 L283.1,218.0 L278.6,211.4 L274.1,207.1 L269.2,204.8 L264.2,204.0 L259.1,204.8 L254.3,206.7 L252.0,208.9 L250.3,211.3 L248.6,216.4 L248.2,221.7 L249.2,231.4 L252.0,247.4 L272.5,322.1 L274.4,327.4 L277.9,332.3 L286.0,338.2 L293.2,344.6 L303.8,359.2 L309.8,369.5 L314.6,377.4 L317.6,379.9 L320.9,381.7 L326.7,386.5 L333.0,392.8 L337.6,397.6 L341.6,402.5 L345.2,408.0 L347.4,413.5 L347.5,424.8 L348.4,436.2 L350.0,446.0 L353.0,455.1 L365.1,480.1 L375.9,498.2 L379.7,507.1 L381.0,525.0 L381.7,531.4 L382.6,533.8 L383.3,536.1 L385.7,541.6 L387.6,544.2 L390.1,546.7 L392.4,548.2 L394.9,549.2 L399.2,549.8 L403.0,550.1 L407.0,550.2 L410.9,549.6 L414.5,548.8 L416.6,548.3 L418.7,547.7 L420.5,547.1 L422.4,546.2 L425.4,544.0 L428.1,541.6 L431.0,538.2 L432.1,536.6 L433.2,535.0 L434.9,531.6 L436.9,527.0 L437.9,523.7 L438.6,520.4 L438.3,516.4 L437.5,512.6 L436.8,510.2 L435.9,507.8 L433.5,503.3 L421.3,479.6 L408.9,462.9 L403.4,451.1 L401.2,442.2 L402.1,438.6 L404.7,435.7 L409.2,431.8 L414.5,429.2 L419.8,428.3 L422.8,428.8 L425.8,429.9 Z" fill="#5a9540" stroke="none"/>
<path d="M583.1,437.0 L585.2,439.4 L586.7,442.0 L587.8,444.3 L588.4,447.7 L588.1,455.9 L588.2,464.3 L588.5,477.4 L588.8,481.6 L590.4,484.9 L592.0,488.1 L596.3,496.6 L598.1,502.2 L597.9,511.0 L597.9,522.0 L598.1,532.8 L597.4,546.9 L595.7,561.9 L595.0,572.6 L591.7,591.2 L589.7,595.8 L587.1,599.4 L585.5,600.9 L583.3,601.8 L581.9,602.0 L580.7,601.7 L578.6,600.2 L576.6,598.7 L575.5,597.3 L573.5,593.1 L572.4,589.5 L572.2,587.8 L572.4,586.0 L571.9,582.9 L571.4,580.0 L570.5,577.4 L568.6,574.9 L564.7,571.1 L557.5,566.8 L550.6,563.6 L547.4,561.4 L544.5,559.0 L543.2,556.0 L542.3,552.9 L542.4,549.0 L544.5,540.3 L547.0,531.3 L548.8,525.1 L550.1,518.7 L551.2,512.4 L551.8,505.7 L551.4,496.8 L550.8,487.6 L551.0,478.3 L552.2,471.7 L553.9,465.3 L555.4,460.7 L556.9,451.0 L557.7,445.1 L559.0,439.6 L560.3,437.3 L562.1,435.5 L564.6,433.9 L566.9,433.3 L570.5,432.5 L573.5,432.4 L575.8,432.9 L578.9,434.2 L581.0,435.3 L583.1,437.0 Z" fill="#2e5577" stroke="none"/>
<path d="M320.3,73.0 L322.7,80.3 L325.0,87.4 L326.2,94.2 L326.8,99.6 L327.2,104.6 L328.5,113.5 L331.1,123.4 L333.6,130.3 L335.3,134.9 L337.0,138.3 L339.9,142.1 L343.5,145.3 L348.2,148.3 L352.6,149.6 L355.0,149.7 L357.5,149.2 L359.1,148.0 L360.7,146.5 L361.2,142.6 L360.6,139.3 L359.6,135.8 L358.9,129.0 L357.6,122.3 L354.5,111.6 L351.8,100.4 L349.7,92.6 L347.0,84.5 L345.8,80.0 L346.0,77.8 L346.7,76.0 L348.8,73.8 L351.3,72.1 L354.9,69.9 L355.7,65.3 L355.3,62.2 L355.7,58.8 L357.3,51.3 L359.1,43.1 L362.1,36.2 L365.3,29.1 L368.7,24.4 L370.2,22.5 L371.6,19.8 L371.1,16.6 L370.1,14.2 L366.6,10.0 L362.8,7.2 L358.9,5.7 L355.3,5.1 L350.3,5.2 L348.5,5.8 L347.0,6.9 L345.9,8.3 L344.7,10.1 L343.1,14.4 L341.9,21.5 L340.8,29.6 L339.8,34.6 L339.3,36.8 L338.5,38.8 L336.3,40.9 L334.2,42.5 L329.2,45.8 L324.4,48.6 L319.4,53.2 L318.2,55.0 L317.3,56.9 L317.0,58.7 L317.1,60.4 L320.3,73.0 Z" fill="#2e5577" stroke="none"/>
<path d="M337.0,-4.6 L338.0,-6.0 L339.7,-6.4 L341.3,-6.0 L342.8,-5.0 L344.0,-4.1 L344.9,-3.6 L346.2,-3.4 L347.8,-3.5 L349.4,-3.7 L350.9,-3.5 L351.8,-2.5 L352.2,-1.1 L352.0,0.1 L351.4,1.0 L350.3,1.9 L348.8,2.2 L347.5,2.3 L346.7,2.7 L345.6,3.6 L344.6,4.4 L343.2,5.8 L341.9,6.5 L340.5,6.8 L338.8,6.4 L337.0,5.4 L335.8,4.2 L335.1,3.4 L334.8,1.8 L334.8,-0.0 L335.2,-1.5 L335.7,-3.0 L337.0,-4.6 Z" fill="#e7d6a3" stroke="none"/>
<path d="M297.4,28.0 L297.2,26.3 L297.6,24.9 L298.9,23.7 L300.2,23.0 L300.7,21.7 L300.6,20.3 L300.8,18.8 L301.3,17.9 L302.7,17.3 L304.0,17.0 L305.1,17.0 L306.2,17.5 L306.8,19.0 L307.2,20.3 L307.3,21.4 L307.9,22.5 L308.9,23.5 L309.9,24.3 L310.8,25.2 L311.5,26.6 L311.5,28.3 L311.1,30.1 L310.0,31.5 L308.7,32.3 L306.6,32.9 L305.0,33.1 L303.2,32.9 L301.6,32.5 L299.9,31.3 L298.6,29.9 L297.4,28.0 Z" fill="#e7d6a3" stroke="none"/>
<path d="M283.2,61.3 L282.0,60.7 L281.0,60.1 L280.5,59.1 L280.3,57.8 L280.2,56.5 L280.7,55.4 L281.3,54.8 L282.8,54.0 L284.0,53.2 L284.8,52.9 L285.6,52.8 L286.9,53.0 L288.1,53.5 L288.9,54.3 L289.3,55.4 L289.8,56.5 L290.5,57.5 L291.5,58.3 L292.1,59.4 L292.3,60.8 L292.5,62.3 L292.5,63.7 L291.9,65.1 L290.9,66.2 L289.7,66.7 L288.3,66.9 L287.1,66.5 L286.3,65.5 L285.8,64.1 L285.3,62.8 L284.3,61.9 L283.2,61.3 Z" fill="#e7d6a3" stroke="none"/>
<path d="M282.4,94.0 L281.5,92.9 L280.5,91.8 L279.3,90.6 L278.4,89.2 L278.0,87.7 L278.3,85.9 L278.6,84.8 L279.2,84.2 L280.3,83.6 L281.6,84.0 L282.5,84.7 L284.1,85.5 L284.8,86.4 L285.2,87.6 L285.9,88.7 L287.0,89.4 L288.3,89.6 L289.5,89.4 L290.7,90.1 L291.8,91.3 L292.3,92.7 L292.7,94.3 L292.5,95.8 L292.1,97.3 L291.8,98.7 L291.7,100.9 L291.5,102.5 L291.1,103.6 L290.0,105.1 L289.2,106.1 L288.1,107.0 L286.5,107.6 L285.4,108.4 L284.6,109.1 L284.4,109.9 L284.4,111.1 L284.9,112.7 L285.3,114.1 L285.4,115.7 L285.2,117.2 L284.5,118.4 L283.7,119.2 L282.7,120.0 L280.4,120.8 L279.0,121.0 L277.2,120.5 L276.0,119.5 L274.9,118.3 L274.3,116.5 L274.0,115.0 L274.3,113.2 L275.1,112.2 L276.0,111.5 L276.9,110.6 L277.7,109.2 L277.1,108.0 L276.0,106.1 L275.3,104.7 L274.7,103.9 L274.2,102.5 L274.0,101.0 L274.2,99.6 L274.6,98.3 L275.5,97.6 L276.5,97.4 L277.8,97.6 L279.0,98.9 L280.3,100.5 L281.1,101.5 L282.4,102.1 L283.4,101.9 L283.9,101.2 L283.8,100.2 L283.4,99.0 L283.3,97.7 L283.7,96.5 L283.4,95.2 L282.4,94.0 Z" fill="#e7d6a3" stroke="none"/>
<path d="M310.2,269.9 L311.5,268.7 L312.9,267.8 L314.1,267.3 L315.7,267.3 L317.3,267.4 L318.7,267.7 L320.1,268.4 L321.2,269.3 L321.8,270.1 L322.1,271.1 L322.2,272.1 L322.0,273.0 L321.0,274.0 L319.6,274.2 L318.7,274.7 L318.4,275.2 L318.4,275.9 L318.8,276.7 L318.7,277.5 L318.3,278.2 L317.4,278.7 L316.7,279.1 L316.3,279.8 L316.5,280.9 L317.1,281.9 L317.8,282.7 L319.0,283.3 L320.3,283.5 L321.7,283.8 L322.5,284.4 L323.1,285.2 L323.5,286.0 L323.7,286.9 L323.7,288.3 L323.9,289.8 L324.3,290.9 L325.0,291.9 L325.6,292.8 L325.8,293.2 L325.9,293.8 L326.0,294.4 L326.0,295.0 L325.7,296.0 L325.6,297.1 L325.7,297.6 L325.8,298.1 L326.4,298.7 L327.0,299.2 L327.6,299.6 L328.3,299.7 L329.0,299.5 L329.4,299.1 L329.7,298.2 L330.2,297.4 L330.8,297.2 L331.5,297.1 L332.6,297.5 L333.5,298.2 L334.5,299.5 L335.2,300.5 L335.8,301.5 L336.7,302.5 L337.7,303.2 L338.9,303.6 L339.5,303.6 L340.0,303.6 L340.5,303.4 L340.9,303.1 L341.4,302.6 L341.7,302.1 L342.2,301.3 L342.4,300.5 L342.9,300.0 L343.5,299.8 L344.2,299.8 L344.8,299.4 L345.1,299.0 L345.3,298.6 L345.3,298.0 L345.2,297.5 L345.1,296.7 L345.0,295.9 L344.8,295.1 L344.4,294.4 L344.1,293.6 L343.6,292.7 L343.0,291.4 L342.9,290.8 L342.9,290.1 L342.9,289.3 L343.1,288.5 L344.0,287.3 L345.0,286.6 L345.9,286.0 L346.7,285.1 L347.3,284.1 L347.8,282.9 L348.1,281.5 L348.5,280.3 L349.2,279.3 L349.9,278.8 L351.0,278.7 L351.9,278.1 L352.2,277.3 L352.1,276.2 L351.1,274.8 L350.7,273.6 L350.8,272.0 L351.2,270.6 L352.2,269.8 L353.6,269.4 L355.0,269.3 L357.7,269.7 L359.1,270.2 L360.3,271.0 L361.4,272.3 L362.1,273.7 L362.6,275.1 L362.7,276.7 L362.4,278.8 L361.6,280.3 L360.5,281.8 L359.0,283.3 L357.5,284.3 L356.0,284.9 L354.5,285.8 L353.4,287.0 L352.1,288.6 L351.4,290.7 L351.2,293.0 L351.6,295.7 L352.2,298.5 L352.6,301.2 L353.0,303.0 L353.6,304.6 L354.8,306.1 L356.2,307.5 L357.8,308.8 L359.4,309.9 L360.8,310.8 L362.2,311.5 L363.2,312.6 L363.6,314.0 L363.8,315.3 L363.8,317.0 L363.9,318.3 L364.2,319.7 L364.7,320.9 L365.4,322.1 L366.9,323.6 L369.0,324.9 L370.9,325.6 L373.4,326.8 L374.6,327.4 L375.6,328.2 L376.5,329.1 L377.1,330.0 L377.7,331.5 L377.9,332.6 L378.2,333.7 L378.9,335.0 L379.9,336.2 L381.4,337.7 L382.9,339.3 L383.9,340.9 L384.7,342.6 L385.6,344.4 L386.1,345.1 L386.6,345.7 L388.4,346.9 L390.1,347.7 L391.2,348.7 L392.7,351.0 L394.1,354.2 L396.8,359.6 L398.1,361.9 L399.3,364.0 L402.2,368.2 L403.8,370.2 L405.5,372.0 L407.6,373.7 L409.4,375.4 L410.5,377.4 L411.2,379.3 L412.1,381.1 L412.7,382.6 L413.5,384.1 L414.4,385.4 L415.6,386.6 L417.3,388.0 L418.6,389.4 L419.4,391.1 L419.8,392.7 L419.9,394.0 L419.9,395.4 L419.6,396.7 L419.2,397.7 L418.6,398.3 L417.6,398.8 L416.9,399.6 L416.6,400.0 L416.5,400.6 L416.6,401.2 L416.8,401.7 L417.2,402.9 L417.4,403.5 L417.6,404.1 L417.6,404.6 L417.6,405.2 L417.4,405.9 L417.1,406.6 L416.8,407.1 L416.3,407.7 L415.4,408.4 L414.2,408.8 L412.9,408.9 L411.6,408.7 L410.3,408.2 L409.1,407.5 L408.6,407.1 L408.0,406.9 L406.8,406.6 L405.5,406.7 L404.4,406.9 L403.4,407.2 L402.8,407.3 L402.2,407.2 L401.7,407.1 L401.2,406.8 L400.2,406.2 L399.4,405.4 L398.8,404.5 L398.5,404.0 L398.4,403.4 L398.2,402.9 L398.2,402.3 L398.2,401.4 L398.4,400.6 L399.1,399.1 L399.8,397.9 L400.5,397.0 L401.1,396.3 L401.9,395.6 L402.7,395.5 L403.6,395.8 L404.5,396.8 L405.2,397.8 L406.1,399.0 L406.6,399.3 L407.1,399.4 L407.7,399.2 L408.2,398.8 L408.4,398.0 L408.3,397.2 L407.8,395.7 L406.8,394.0 L405.8,392.7 L405.1,392.0 L404.7,391.4 L404.3,390.5 L404.0,389.5 L403.8,388.1 L403.6,386.9 L403.2,386.2 L402.5,385.5 L401.7,385.0 L400.8,385.0 L400.3,385.2 L399.9,385.7 L399.4,386.9 L398.4,389.1 L397.6,390.2 L396.5,391.0 L395.5,391.3 L394.4,391.3 L393.6,391.0 L392.9,390.4 L392.3,389.6 L392.0,388.8 L391.8,387.6 L391.8,386.4 L392.2,385.2 L392.8,384.1 L393.6,383.1 L394.3,382.0 L394.6,380.4 L394.5,378.7 L394.1,377.6 L393.3,376.4 L392.6,375.6 L391.9,374.4 L391.4,373.5 L391.1,372.3 L390.3,370.5 L389.6,369.6 L388.7,368.9 L387.8,368.7 L386.7,368.8 L385.1,369.4 L384.4,369.5 L383.6,369.5 L382.6,369.1 L381.6,368.2 L380.9,367.1 L380.5,365.9 L379.8,361.3 L379.4,356.6 L379.7,355.4 L380.4,354.5 L381.3,354.0 L382.1,353.4 L382.7,352.5 L382.6,351.4 L381.6,350.0 L379.9,348.9 L377.9,348.5 L375.9,348.0 L374.1,347.2 L372.3,346.2 L371.3,345.4 L370.4,344.4 L369.9,343.4 L369.6,342.1 L369.2,340.0 L368.9,339.2 L368.3,338.5 L367.8,338.4 L367.2,338.3 L366.6,338.3 L365.9,338.6 L365.1,339.2 L364.3,340.0 L363.7,340.3 L363.0,340.6 L362.1,340.3 L361.4,339.8 L360.5,338.5 L360.1,338.1 L359.6,337.7 L359.0,337.6 L358.4,337.8 L358.0,338.2 L357.7,338.8 L357.5,340.2 L357.5,341.3 L357.7,342.3 L358.1,343.5 L358.7,344.4 L359.6,345.3 L360.0,345.8 L360.1,346.4 L360.3,347.3 L360.2,348.2 L360.0,349.0 L359.8,349.8 L359.9,350.6 L360.2,351.4 L360.9,352.7 L362.0,354.0 L363.1,355.1 L363.7,355.6 L364.4,355.9 L365.3,356.0 L366.2,356.0 L367.8,356.0 L369.5,356.1 L370.1,356.3 L370.6,356.5 L371.2,356.9 L371.9,357.4 L372.3,358.1 L373.0,359.4 L373.4,360.8 L373.5,362.1 L373.5,363.0 L373.2,363.7 L372.8,364.4 L372.0,365.0 L371.2,365.3 L370.4,365.3 L369.9,365.2 L369.2,365.2 L368.7,365.3 L368.2,365.7 L368.0,366.1 L368.2,366.6 L368.5,367.1 L369.7,368.4 L370.3,369.0 L370.9,369.7 L371.4,370.7 L371.3,371.6 L371.1,372.3 L370.8,372.8 L370.0,373.4 L368.9,374.1 L367.8,374.9 L366.4,376.1 L365.6,376.2 L364.8,376.2 L364.0,375.7 L363.2,375.2 L362.3,373.9 L361.4,372.6 L360.2,371.8 L358.8,371.7 L357.6,371.3 L356.9,370.4 L356.6,369.4 L356.7,368.2 L357.1,367.2 L359.3,366.3 L360.2,365.6 L360.8,364.8 L360.7,364.0 L360.5,363.2 L360.0,361.5 L359.5,359.6 L358.5,358.1 L357.0,355.6 L355.2,353.3 L353.8,351.1 L352.6,348.6 L351.6,347.3 L350.4,346.1 L348.2,343.5 L346.1,340.2 L344.4,336.4 L342.0,330.9 L341.1,329.6 L340.2,328.5 L339.0,327.0 L337.4,325.7 L334.5,323.4 L333.6,322.7 L332.9,322.2 L332.1,322.3 L331.3,322.6 L329.8,323.3 L328.3,323.6 L327.4,323.9 L326.4,324.0 L325.6,323.7 L324.8,323.0 L324.1,322.2 L323.7,321.1 L323.6,319.7 L323.9,318.2 L324.5,315.1 L324.1,312.7 L323.6,310.2 L322.7,307.8 L321.8,305.5 L320.3,302.9 L318.3,300.6 L316.1,298.3 L314.2,295.5 L311.1,289.7 L310.0,287.6 L309.3,285.6 L308.7,283.4 L308.5,281.1 L308.2,279.5 L308.2,277.8 L308.3,276.2 L308.4,274.6 L309.1,272.0 L310.2,269.9 Z" fill="#e7d6a3" stroke="none"/>
<path d="M430.1,667.1 L430.3,668.8 L431.1,670.3 L432.1,671.8 L433.0,673.0 L434.8,673.5 L436.7,673.5 L438.5,673.1 L440.2,672.6 L441.4,671.3 L441.5,669.5 L440.6,668.0 L439.1,666.5 L435.9,664.2 L434.3,663.8 L432.8,664.0 L431.8,664.6 L430.9,665.4 L430.1,667.1 Z" fill="#e7d6a3" stroke="none"/>
<path d="M682.0,70.1 L679.4,67.2 L677.0,65.5 L676.8,63.1 L678.1,60.9 L680.1,59.2 L683.1,58.9 L685.8,58.9 L686.6,61.1 L685.8,63.7 L686.4,66.1 L686.4,67.9 L685.5,69.6 L682.0,70.1 Z" fill="#e7d6a3" stroke="none"/>
<path d="M664.9,89.0 L663.2,89.9 L661.9,91.3 L660.0,93.7 L659.0,94.7 L657.2,94.8 L655.4,93.4 L654.4,91.4 L654.4,89.8 L656.1,86.9 L655.8,84.2 L656.0,82.2 L657.7,79.8 L659.3,78.6 L660.0,80.7 L661.5,81.7 L663.0,81.4 L663.9,80.0 L664.2,77.9 L664.4,75.0 L664.9,72.1 L665.9,71.3 L667.2,70.5 L668.1,70.2 L669.9,70.6 L671.5,71.4 L671.4,72.6 L670.8,74.7 L670.7,76.3 L671.1,78.7 L672.2,78.1 L673.6,77.8 L675.2,78.0 L676.1,80.0 L676.8,82.0 L676.6,84.4 L674.9,86.2 L673.3,87.9 L671.1,87.8 L666.6,88.2 L664.9,89.0 Z" fill="#e7d6a3" stroke="none"/>
<path d="M514.8,407.4 L515.1,406.0 L516.0,404.8 L517.8,404.9 L518.5,404.2 L519.1,402.7 L519.2,400.5 L518.4,398.9 L516.7,397.8 L514.3,397.2 L512.6,397.8 L510.9,399.7 L510.2,402.5 L510.3,404.9 L510.4,406.9 L511.7,407.9 L513.4,407.9 L514.8,407.4 Z" fill="#e7d6a3" stroke="none"/>
<path d="M557.6,585.3 L556.1,585.3 L554.9,584.0 L554.4,581.8 L553.7,581.0 L552.9,580.7 L551.7,580.5 L550.9,579.4 L550.8,577.4 L551.4,575.4 L551.4,573.0 L551.4,571.5 L551.9,569.7 L552.7,569.2 L554.6,568.8 L556.1,569.5 L557.5,571.5 L559.3,572.6 L561.1,572.9 L563.5,574.2 L566.8,577.1 L568.8,579.8 L569.5,582.3 L569.5,585.0 L568.8,587.1 L567.1,589.0 L565.3,589.4 L563.7,588.9 L562.7,587.4 L562.2,585.2 L562.5,582.8 L562.5,580.8 L561.3,579.2 L560.0,578.5 L558.8,578.6 L559.3,580.0 L559.2,582.5 L559.2,584.0 L558.6,585.1 L557.6,585.3 Z" fill="#e7d6a3" stroke="none"/>
<path d="M321.6,404.7 L322.2,402.1 L322.0,399.5 L320.7,398.0 L319.1,399.8 L317.8,399.6 L316.3,397.5 L315.9,394.1 L316.6,391.8 L318.0,389.9 L320.0,388.4 L322.4,388.0 L324.8,388.5 L328.2,391.5 L330.0,395.0 L330.3,397.0 L328.9,398.0 L327.2,399.0 L326.6,400.3 L326.6,401.8 L327.7,403.1 L330.7,403.2 L332.8,402.4 L334.1,403.1 L335.5,404.8 L338.1,405.3 L341.7,407.0 L343.2,409.1 L343.2,411.2 L342.2,414.4 L340.2,415.6 L337.6,415.4 L335.4,414.3 L333.9,412.6 L332.3,412.6 L330.4,413.6 L327.8,411.9 L325.9,408.9 L323.5,408.6 L321.6,406.8 L321.6,404.7 Z" fill="#e7d6a3" stroke="none"/>
<path d="M292.0,355.6 L290.4,355.4 L289.2,356.0 L289.0,357.4 L287.6,358.9 L286.1,359.1 L284.3,357.7 L283.3,356.0 L283.4,354.2 L284.4,352.1 L284.5,350.2 L283.6,347.6 L284.0,345.7 L285.7,345.1 L288.6,345.5 L291.4,348.3 L292.4,350.9 L293.7,352.8 L293.1,354.3 L292.0,355.6 Z" fill="#e7d6a3" stroke="none"/>
<path d="M345.8,626.4 L344.9,626.3 L344.0,626.2 L342.7,625.3 L341.4,624.9 L340.3,624.4 L339.6,623.5 L339.2,621.9 L338.9,620.8 L338.1,620.3 L337.0,620.2 L335.8,620.2 L334.7,619.5 L334.3,618.3 L334.4,616.5 L335.3,614.7 L336.4,613.6 L337.7,612.8 L339.0,612.3 L340.0,612.4 L341.3,612.7 L342.5,613.3 L343.7,614.2 L344.8,615.5 L346.3,616.5 L347.9,617.2 L349.1,618.2 L349.7,619.3 L350.0,620.5 L350.1,622.3 L349.5,624.1 L348.6,625.2 L347.2,626.1 L345.8,626.4 Z" fill="#e7d6a3" stroke="none"/>
<path d="M309.3,601.2 L307.9,602.6 L306.6,603.9 L305.4,604.4 L302.6,603.6 L300.2,600.5 L298.2,598.0 L295.7,595.9 L293.6,594.5 L291.4,593.6 L287.5,592.2 L285.7,590.8 L284.2,588.3 L283.8,586.7 L284.1,585.0 L284.3,583.4 L285.2,581.8 L286.5,580.7 L288.2,579.9 L292.3,580.1 L295.6,580.8 L298.5,582.1 L301.0,583.4 L303.4,585.5 L305.5,588.4 L307.5,590.3 L310.2,591.7 L312.0,593.1 L313.0,595.3 L313.0,597.2 L312.0,599.1 L309.3,601.2 Z" fill="#e7d6a3" stroke="none"/>
<path d="M359.3,563.8 L359.3,565.5 L358.7,567.3 L358.6,568.9 L359.5,571.0 L359.6,573.3 L358.6,574.9 L357.2,575.7 L355.8,575.5 L354.7,574.3 L353.1,572.5 L351.4,571.4 L350.8,570.1 L350.8,568.7 L350.8,567.1 L351.2,565.0 L352.3,563.4 L353.7,562.5 L354.6,562.0 L355.7,561.8 L357.1,562.1 L358.3,562.7 L359.3,563.8 Z" fill="#e7d6a3" stroke="none"/>
<path d="M333.7,534.1 L338.4,545.2 L339.7,547.4 L341.5,549.0 L345.7,552.0 L346.5,553.1 L345.6,555.2 L345.6,556.5 L346.4,557.6 L347.0,558.9 L346.6,559.8 L346.0,561.1 L344.6,561.7 L342.7,561.9 L341.2,562.7 L340.2,563.2 L339.0,563.3 L337.9,562.9 L337.0,561.9 L336.4,560.9 L336.2,559.4 L336.4,557.7 L336.0,556.3 L335.0,555.1 L333.7,554.1 L332.6,553.1 L331.6,551.0 L331.9,548.2 L332.9,545.1 L332.6,543.7 L332.2,542.1 L330.8,540.7 L329.1,540.6 L328.4,541.7 L328.1,543.0 L327.4,544.5 L326.4,545.0 L323.5,544.3 L321.5,542.9 L320.4,541.7 L319.9,540.4 L319.6,538.5 L319.5,536.5 L319.6,534.4 L320.5,532.0 L321.5,530.9 L322.5,530.1 L324.0,529.6 L325.4,529.3 L327.2,529.3 L328.9,529.7 L330.4,530.5 L331.7,531.7 L333.7,534.1 Z" fill="#e7d6a3" stroke="none"/>
<path d="M385.7,505.0 L387.2,506.5 L389.1,508.0 L389.4,509.0 L389.5,509.9 L389.6,511.1 L390.3,512.9 L392.5,513.8 L395.1,514.7 L396.4,514.7 L397.4,514.2 L398.2,513.0 L398.2,511.3 L397.9,509.8 L396.5,508.1 L393.4,505.0 L390.6,502.9 L389.6,502.3 L388.5,502.0 L387.8,501.9 L387.0,502.4 L385.9,503.4 L385.7,504.2 L385.7,505.0 Z" fill="#e7d6a3" stroke="none"/>
<path d="M418.9,511.8 L421.2,515.0 L421.2,517.5 L419.8,519.9 L417.1,519.2 L413.1,514.4 L412.1,512.1 L412.4,510.2 L414.6,508.1 L416.4,508.1 L418.0,508.8 L419.4,509.7 L418.9,511.8 Z" fill="#e7d6a3" stroke="none"/>
<path d="M509.2,359.5 L507.7,364.9 L507.8,367.6 L510.0,370.9 L510.3,373.5 L509.6,375.6 L507.6,377.9 L505.4,378.3 L503.6,378.0 L501.0,375.8 L500.1,373.9 L499.7,370.5 L500.3,363.4 L500.1,359.6 L500.3,356.8 L501.8,353.3 L504.5,351.9 L506.1,351.8 L508.0,353.7 L509.2,357.5 L509.2,359.5 Z" fill="#e7d6a3" stroke="none"/>
<path d="M675.2,244.9 L673.6,247.7 L671.0,250.8 L670.2,253.2 L670.6,254.7 L672.1,256.0 L673.9,255.7 L676.7,254.4 L678.3,253.9 L679.6,255.7 L678.2,259.3 L674.8,263.3 L671.3,265.9 L668.9,266.6 L666.8,265.1 L665.9,262.9 L665.6,257.0 L664.5,252.6 L663.1,249.1 L663.0,244.6 L664.8,242.3 L666.2,241.7 L668.4,242.9 L669.3,242.3 L669.9,241.1 L669.9,239.8 L668.6,237.0 L668.6,235.3 L669.9,233.3 L670.8,232.3 L671.8,231.9 L673.4,232.1 L674.8,233.0 L676.0,233.8 L676.8,235.0 L677.2,236.5 L677.0,239.2 L676.3,241.9 L675.2,244.9 Z" fill="#e7d6a3" stroke="none"/>
<path d="M409.5,310.2 L408.2,308.7 L407.1,307.1 L404.9,306.0 L402.2,305.1 L401.2,304.2 L400.3,303.1 L399.8,301.9 L399.9,300.5 L400.8,299.0 L401.7,297.7 L401.9,296.0 L401.7,294.4 L401.6,293.5 L401.7,292.7 L402.3,291.3 L403.6,290.9 L405.4,291.0 L407.2,291.6 L408.3,293.7 L408.0,295.7 L407.7,296.8 L407.7,298.8 L408.2,300.0 L409.0,300.7 L410.1,301.0 L411.3,300.7 L412.4,300.2 L413.4,299.3 L414.2,298.5 L414.9,298.5 L415.7,298.7 L416.5,300.3 L417.2,302.0 L417.7,304.0 L417.2,306.1 L416.7,307.6 L415.8,309.2 L414.7,310.2 L413.1,311.2 L412.0,311.3 L410.9,311.2 L409.5,310.2 Z" fill="#e7d6a3" stroke="none"/>
<path d="M92.8,453.9 L91.6,453.9 L90.4,453.6 L89.2,453.1 L87.9,452.1 L86.8,450.6 L86.7,449.8 L86.9,449.1 L87.6,448.2 L88.6,447.5 L89.7,447.0 L90.8,446.5 L91.7,446.6 L92.4,446.9 L93.1,447.4 L93.7,448.2 L94.2,449.1 L94.6,450.6 L94.3,452.3 L93.6,453.3 L92.8,453.9 Z" fill="#e7d6a3" stroke="none"/>
<path d="M74.4,470.3 L75.7,471.8 L76.2,474.4 L75.2,476.5 L73.7,478.1 L71.9,478.3 L69.1,477.6 L67.6,476.5 L67.0,475.2 L66.8,473.3 L67.4,472.7 L69.2,472.0 L69.4,471.0 L68.3,468.8 L67.7,466.5 L68.4,465.4 L69.9,464.5 L71.9,464.1 L73.3,464.2 L74.3,465.0 L74.9,467.2 L74.4,470.3 Z" fill="#e7d6a3" stroke="none"/>
<path d="M146.4,604.9 L148.1,601.9 L149.3,597.8 L148.7,595.2 L146.4,592.9 L144.7,592.0 L142.7,586.1 L140.6,584.6 L137.8,583.5 L136.0,580.9 L135.4,576.9 L133.9,571.7 L131.2,571.4 L126.8,569.8 L125.1,566.6 L124.6,564.5 L123.8,559.7 L121.8,558.6 L118.2,557.5 L115.8,556.8 L113.4,557.6 L110.6,562.0 L107.7,564.9 L107.6,568.7 L111.5,572.2 L115.6,574.5 L121.7,576.1 L125.2,576.9 L127.3,578.8 L127.4,580.3 L126.0,580.5 L123.1,581.0 L120.8,582.7 L119.3,585.3 L119.3,587.6 L121.4,589.5 L124.6,592.6 L126.6,595.1 L128.9,595.6 L132.5,595.8 L135.1,597.1 L135.9,598.0 L136.3,599.3 L136.8,602.1 L138.1,603.2 L139.4,603.0 L142.1,604.5 L143.8,605.4 L144.9,605.5 L146.4,604.9 Z" fill="#e7d6a3" stroke="none"/>
<path d="M466.5,694.9 L466.7,697.4 L467.2,699.4 L467.4,701.4 L466.9,702.5 L465.2,704.1 L462.9,704.8 L461.5,704.8 L460.0,704.2 L458.7,702.9 L457.6,701.5 L456.7,699.5 L457.2,697.4 L457.6,695.9 L457.5,694.1 L457.5,692.8 L457.5,691.2 L457.7,690.1 L458.3,688.9 L459.9,687.7 L462.4,686.6 L464.1,684.9 L466.6,682.4 L467.4,681.9 L468.3,681.7 L469.3,681.8 L470.2,682.0 L472.0,684.2 L474.2,686.4 L475.2,686.4 L476.0,686.2 L476.6,685.2 L476.7,683.9 L476.3,681.5 L476.9,680.4 L478.1,679.6 L479.1,679.7 L480.3,679.8 L481.3,680.2 L482.7,681.2 L484.1,682.9 L484.9,684.7 L484.6,687.1 L483.7,689.1 L482.5,690.7 L480.7,691.8 L477.7,691.8 L475.5,691.1 L473.2,690.9 L471.6,690.9 L470.0,691.4 L468.5,692.0 L467.4,692.9 L466.5,694.9 Z" fill="#e7d6a3" stroke="none"/>
<path d="M506.1,-41.0 L507.5,-38.5 L507.0,-37.0 L504.9,-36.3 L501.7,-36.9 L499.5,-39.2 L499.6,-42.0 L501.6,-44.3 L503.4,-46.0 L504.9,-47.2 L508.1,-46.3 L510.3,-44.7 L511.3,-43.7 L510.8,-42.2 L509.3,-41.1 L508.1,-42.2 L506.1,-41.0 Z" fill="#e7d6a3" stroke="none"/>
<path d="M156.9,205.8 L156.4,209.3 L155.0,210.4 L153.6,210.5 L152.1,210.1 L150.3,208.5 L150.2,206.3 L150.7,204.1 L151.7,202.4 L151.2,201.6 L150.2,200.4 L150.6,199.2 L151.5,198.4 L152.5,197.7 L154.7,198.2 L157.1,199.6 L158.1,201.3 L158.3,203.6 L156.9,205.8 Z" fill="#e7d6a3" stroke="none"/>
<path d="M187.8,224.0 L185.8,223.2 L184.0,222.2 L182.1,219.4 L181.4,217.9 L181.4,216.5 L181.9,214.8 L183.0,213.8 L183.9,213.4 L184.9,213.2 L186.0,213.2 L187.1,213.8 L188.6,214.8 L190.2,215.5 L191.4,215.8 L192.4,216.6 L193.0,218.4 L193.2,220.1 L193.0,221.2 L192.6,222.2 L191.5,223.0 L190.2,223.6 L189.1,223.9 L187.8,224.0 Z" fill="#e7d6a3" stroke="none"/>
<path d="M479.2,-29.7 L471.8,-29.4 L468.9,-27.8 L465.7,-28.0 L462.6,-29.9 L459.9,-33.2 L459.4,-36.6 L459.6,-38.9 L461.6,-41.5 L463.8,-42.1 L466.6,-42.1 L469.1,-43.5 L471.8,-45.2 L474.3,-45.2 L477.3,-43.9 L478.3,-42.5 L477.3,-40.5 L476.2,-39.1 L476.0,-38.0 L477.3,-37.0 L479.9,-37.2 L483.8,-38.2 L485.4,-40.5 L485.4,-43.3 L483.9,-45.4 L481.8,-46.7 L479.9,-48.0 L478.9,-49.3 L479.0,-51.0 L480.1,-51.9 L482.0,-52.5 L489.7,-52.4 L493.0,-51.6 L496.1,-50.0 L495.9,-46.8 L494.9,-44.8 L494.9,-41.0 L494.2,-38.4 L495.0,-35.7 L496.9,-33.8 L500.6,-33.1 L504.2,-31.6 L514.2,-33.1 L521.4,-33.6 L523.1,-35.2 L531.0,-35.7 L536.9,-34.3 L537.7,-31.8 L536.6,-29.5 L534.6,-29.5 L532.6,-29.1 L531.7,-28.1 L532.1,-26.8 L531.5,-25.2 L532.3,-23.5 L534.1,-23.2 L537.9,-24.4 L540.8,-25.0 L544.2,-24.9 L545.7,-24.7 L545.7,-22.2 L547.0,-20.8 L550.0,-20.8 L551.9,-20.1 L553.7,-18.4 L553.8,-16.5 L552.4,-15.3 L549.9,-14.1 L548.0,-14.0 L546.0,-16.0 L541.3,-17.9 L539.7,-17.0 L539.5,-16.0 L537.8,-14.8 L535.3,-14.0 L531.7,-14.4 L520.6,-17.4 L510.2,-21.3 L503.3,-22.7 L491.3,-24.7 L479.2,-29.7 Z" fill="#e7d6a3" stroke="none"/>
<path d="M477.1,646.0 L475.9,645.3 L474.2,644.4 L472.5,643.8 L470.6,643.5 L468.8,642.9 L467.1,642.2 L466.0,641.4 L465.3,640.0 L465.7,638.7 L466.0,637.4 L465.5,636.0 L464.4,634.9 L463.2,634.5 L461.8,634.1 L460.1,634.3 L458.8,634.7 L457.5,635.2 L456.0,635.6 L454.6,635.4 L452.9,635.2 L451.2,635.3 L449.6,635.5 L448.3,636.1 L447.2,637.1 L446.1,638.3 L445.2,639.6 L444.4,641.0 L443.7,642.4 L443.4,643.9 L443.4,645.2 L443.3,646.8 L443.6,648.3 L444.4,649.7 L445.4,650.6 L446.3,651.4 L447.8,652.2 L449.0,652.7 L450.7,653.0 L451.9,652.6 L452.9,651.9 L453.9,650.6 L454.1,649.3 L453.7,648.1 L453.2,647.1 L453.0,646.1 L453.3,645.0 L454.1,644.4 L455.1,644.4 L456.2,644.6 L457.2,644.1 L458.1,643.1 L459.2,642.8 L460.3,643.2 L461.4,644.0 L462.3,644.8 L463.2,645.7 L463.5,646.6 L463.6,647.9 L464.3,649.1 L465.4,649.8 L467.0,650.2 L468.5,650.4 L470.3,651.0 L471.0,651.9 L472.5,652.8 L473.7,652.9 L474.9,652.7 L476.1,652.6 L477.5,652.1 L478.3,651.3 L478.6,650.3 L478.7,649.1 L478.4,647.7 L477.8,646.8 L477.1,646.0 Z" fill="#e7d6a3" stroke="none"/>
<path d="M550.1,38.5 L550.3,36.7 L550.6,34.9 L550.6,33.3 L550.1,31.9 L549.5,30.9 L548.8,30.0 L547.8,29.2 L546.7,29.3 L545.5,29.5 L543.6,30.2 L541.9,30.3 L540.2,30.1 L539.0,29.6 L537.8,28.9 L536.8,28.4 L535.7,28.0 L534.5,27.9 L533.5,28.7 L532.8,29.3 L530.4,30.0 L528.8,29.6 L527.0,29.4 L525.2,29.3 L523.4,29.3 L521.5,29.8 L521.0,31.1 L521.1,32.3 L521.4,33.4 L521.5,34.6 L522.2,36.0 L523.3,36.5 L524.7,37.0 L526.4,36.9 L528.6,35.6 L530.4,35.6 L532.0,35.7 L534.0,36.4 L535.4,37.2 L536.9,37.8 L538.1,37.8 L538.9,37.3 L539.7,36.2 L540.6,35.1 L541.8,34.4 L543.1,34.4 L544.7,35.0 L545.5,35.8 L546.1,36.9 L546.2,38.4 L546.2,39.4 L545.7,40.4 L545.0,41.2 L544.6,42.1 L545.3,43.2 L546.0,44.8 L546.1,46.1 L546.1,47.7 L546.2,48.9 L546.2,49.6 L546.2,50.7 L547.0,51.7 L548.2,52.4 L549.7,52.7 L551.5,52.7 L552.9,51.9 L554.5,49.8 L554.5,48.5 L554.4,47.1 L554.0,45.5 L553.3,44.5 L552.3,43.6 L551.4,42.8 L550.7,41.4 L550.1,40.1 L550.1,38.5 Z" fill="#e7d6a3" stroke="none"/>
<path d="M543.6,60.9 L541.7,60.8 L539.6,61.7 L537.6,62.6 L536.3,63.6 L534.6,65.3 L533.5,67.0 L532.8,69.5 L533.1,71.7 L533.7,73.5 L534.6,75.2 L535.8,76.2 L538.3,77.6 L540.3,77.9 L542.2,77.5 L543.6,76.7 L544.2,75.6 L544.6,74.3 L543.8,72.8 L543.3,70.9 L543.6,69.3 L544.5,68.0 L546.0,67.2 L547.3,66.8 L547.7,65.3 L547.2,63.6 L546.4,62.6 L545.0,61.6 L543.6,60.9 Z" fill="#e7d6a3" stroke="none"/>
<path d="M430.9,61.0 L431.0,59.5 L430.7,57.9 L431.6,55.5 L434.1,54.7 L438.2,54.4 L439.7,55.3 L440.7,57.6 L442.0,60.5 L443.0,61.4 L443.7,62.9 L443.5,64.1 L442.6,66.2 L441.9,67.8 L442.0,69.0 L443.1,70.6 L446.0,71.9 L447.2,73.6 L448.9,76.0 L450.0,76.5 L451.5,76.5 L454.3,76.3 L455.4,77.3 L456.5,78.5 L456.7,79.7 L456.6,81.2 L455.0,85.1 L453.7,86.9 L450.6,88.0 L447.4,88.8 L444.9,88.7 L442.5,88.3 L441.1,87.2 L440.4,85.8 L440.3,84.5 L440.0,81.1 L439.3,79.7 L437.9,78.4 L435.9,77.3 L432.4,75.6 L429.4,72.5 L428.5,70.5 L427.9,68.3 L427.8,66.4 L428.5,63.9 L430.4,62.2 L430.9,61.0 Z" fill="#e7d6a3" stroke="none"/>
<path d="M418.9,122.1 L420.3,122.2 L421.9,121.2 L422.8,119.8 L422.9,118.8 L422.5,117.5 L421.4,115.8 L420.5,115.6 L419.1,115.9 L417.8,116.3 L417.0,117.2 L416.6,118.9 L417.4,121.3 L418.9,122.1 Z" fill="#e7d6a3" stroke="none"/>
<path d="M396.3,142.4 L398.6,141.8 L400.6,141.6 L403.1,142.7 L405.7,143.0 L407.3,142.8 L408.4,141.2 L409.1,140.0 L409.1,138.8 L408.6,137.6 L408.1,136.6 L406.8,136.1 L405.9,136.0 L405.1,136.2 L404.2,136.4 L403.0,136.4 L401.9,135.9 L400.9,135.3 L399.7,134.8 L398.9,134.7 L397.7,135.1 L396.6,135.6 L395.7,136.1 L394.8,137.0 L394.2,138.1 L393.9,138.8 L393.9,139.5 L393.9,140.4 L394.5,142.2 L396.3,142.4 Z" fill="#e7d6a3" stroke="none"/>
<path d="M432.9,148.8 L435.8,150.6 L437.1,152.4 L438.7,152.9 L441.0,152.3 L442.5,151.0 L443.3,149.5 L443.4,147.8 L442.6,146.3 L441.5,145.3 L439.8,144.8 L437.6,144.0 L436.3,142.6 L435.1,141.4 L433.8,141.0 L432.5,141.0 L431.2,142.0 L430.0,143.7 L430.5,145.8 L431.6,148.1 L432.9,148.8 Z" fill="#e7d6a3" stroke="none"/>
<path d="M481.8,169.2 L483.0,168.4 L484.7,169.0 L485.7,169.0 L486.6,168.1 L487.1,167.1 L488.5,166.0 L492.2,164.3 L493.5,163.9 L495.1,163.8 L496.4,164.4 L497.3,164.9 L498.4,165.6 L499.1,166.7 L499.6,167.7 L499.4,168.9 L498.7,169.9 L497.7,171.3 L496.6,172.4 L495.0,172.9 L493.6,173.0 L492.8,173.0 L491.9,172.7 L491.4,172.6 L491.0,172.9 L490.6,173.4 L490.4,174.0 L490.0,174.7 L489.2,175.2 L487.9,175.6 L486.5,175.6 L485.8,174.9 L485.2,174.7 L483.6,174.9 L482.1,174.9 L481.1,174.4 L480.3,173.3 L480.3,171.0 L481.8,169.2 Z" fill="#e7d6a3" stroke="none"/>
<path d="M442.9,222.1 L442.8,215.7 L442.0,214.3 L440.6,214.0 L438.5,214.3 L437.5,215.1 L436.3,216.6 L436.0,217.4 L436.6,218.1 L436.5,219.0 L435.5,220.6 L435.1,221.7 L435.2,223.1 L435.9,225.1 L436.5,225.5 L437.8,226.1 L440.0,225.9 L440.8,224.7 L442.9,222.1 Z" fill="#e7d6a3" stroke="none"/>
<path d="M500.5,201.1 L502.3,200.5 L503.4,200.5 L505.1,201.2 L506.1,201.1 L506.7,200.6 L507.5,199.9 L507.8,198.8 L507.8,196.9 L507.2,195.3 L506.2,194.3 L505.1,193.7 L504.0,193.7 L503.0,193.6 L502.4,193.5 L501.9,193.1 L501.1,192.8 L499.8,193.0 L499.1,193.2 L498.0,193.9 L497.3,194.5 L496.9,195.4 L496.8,196.1 L497.0,196.6 L497.3,197.8 L497.2,198.9 L497.2,199.7 L497.2,200.3 L498.7,200.9 L500.5,201.1 Z" fill="#e7d6a3" stroke="none"/>
<path d="M442.1,268.8 L443.9,268.9 L446.0,269.9 L447.4,270.9 L448.4,272.2 L448.8,274.3 L448.6,276.3 L447.1,277.3 L446.4,277.7 L443.8,277.7 L442.4,276.6 L440.5,275.7 L439.6,273.5 L439.8,271.0 L440.8,269.6 L442.1,268.8 Z" fill="#e7d6a3" stroke="none"/>
<path d="M473.4,283.2 L475.3,283.1 L477.2,281.3 L477.4,280.1 L477.1,279.0 L477.3,277.7 L477.9,276.8 L478.5,275.9 L478.7,275.1 L478.6,274.2 L477.4,272.0 L475.6,271.0 L474.6,270.8 L473.1,271.0 L471.8,271.7 L470.7,273.2 L469.7,274.5 L469.3,275.7 L469.6,277.2 L470.1,278.9 L470.6,280.7 L472.4,282.6 L473.4,283.2 Z" fill="#e7d6a3" stroke="none"/>
<path d="M495.6,603.1 L500.7,621.9 L501.5,622.7 L502.6,623.6 L504.7,624.3 L505.8,624.3 L506.9,624.1 L508.2,623.7 L509.2,623.1 L509.9,622.4 L510.6,621.6 L511.0,620.4 L511.4,619.0 L511.6,617.2 L509.1,606.2 L507.1,599.1 L506.3,598.2 L505.6,597.8 L504.2,597.1 L502.8,596.8 L501.1,596.7 L499.5,597.0 L498.3,597.8 L497.2,598.6 L496.5,599.8 L496.0,600.9 L495.7,602.0 L495.6,603.1 Z" fill="#4f8a3e" stroke="none"/>
<path d="M506.2,634.5 L509.0,645.2 L511.5,652.5 L513.8,654.5 L516.0,655.1 L518.1,655.2 L520.2,654.4 L521.5,653.7 L522.6,652.5 L523.1,650.6 L522.8,648.8 L520.2,642.9 L517.4,635.6 L514.8,630.2 L514.0,629.7 L513.0,629.4 L510.8,629.3 L509.5,629.6 L508.3,630.0 L506.6,631.2 L506.0,632.9 L506.2,634.5 Z" fill="#4f8a3e" stroke="none"/>
<path d="M609.4,555.4 L604.5,584.1 L600.3,609.5 L596.8,613.3 L591.8,616.8 L589.6,618.8 L588.5,621.7 L588.4,624.9 L589.5,626.9 L598.2,628.7 L602.4,629.2 L604.3,629.4 L606.1,628.5 L607.6,627.0 L608.4,624.8 L610.1,614.0 L616.0,576.0 L617.1,564.7 L618.0,556.3 L617.7,555.0 L617.2,554.0 L616.3,552.8 L615.2,552.1 L614.0,551.7 L611.9,551.8 L610.3,552.7 L609.8,554.0 L609.4,555.4 Z" fill="#4f8a3e" stroke="none"/>
<path d="M127.0,253.7 L126.5,255.1 L125.4,256.5 L123.8,257.4 L122.9,257.9 L121.9,257.9 L120.9,257.4 L120.0,256.8 L118.8,255.1 L118.0,253.5 L117.9,251.4 L118.6,249.7 L119.7,248.9 L120.9,248.5 L122.1,248.3 L123.3,248.5 L124.7,248.9 L125.8,249.7 L127.0,251.6 L127.0,253.7 Z" fill="#4f8a3e" stroke="none"/>
<path d="M141.8,281.6 L140.9,289.1 L141.6,292.5 L142.7,295.4 L142.7,298.7 L141.6,300.8 L139.9,302.5 L138.0,303.4 L135.5,303.9 L133.3,303.4 L131.3,302.3 L130.1,299.7 L129.8,286.5 L130.5,282.9 L131.7,279.7 L132.6,278.2 L133.8,276.9 L135.7,276.0 L137.3,276.2 L139.1,276.8 L140.9,277.8 L141.6,279.7 L141.8,281.6 Z" fill="#4f8a3e" stroke="none"/>
<path d="M47.0,484.5 L48.5,485.8 L49.2,487.2 L49.7,489.4 L49.2,492.7 L47.6,494.1 L45.0,494.6 L42.8,493.9 L41.4,491.3 L41.1,489.2 L41.6,486.6 L42.2,484.9 L44.7,484.2 L47.0,484.5 Z" fill="#4f8a3e" stroke="none"/>
<path d="M539.8,156.1 L540.9,157.2 L542.2,157.7 L544.3,158.1 L546.3,157.8 L547.4,156.9 L548.4,155.5 L549.6,153.6 L550.5,151.1 L551.2,148.9 L551.5,146.6 L551.7,144.0 L551.5,141.6 L550.8,140.2 L550.4,139.7 L549.9,139.1 L548.9,138.2 L547.9,137.5 L547.0,137.1 L546.1,136.9 L545.1,136.8 L543.9,136.8 L542.9,137.1 L541.9,137.8 L541.0,138.4 L540.3,139.1 L539.5,140.2 L538.9,141.6 L538.3,144.2 L538.4,152.6 L538.5,153.6 L538.8,154.6 L539.3,155.4 L539.8,156.1 Z" fill="#4f8a3e" stroke="none"/>
<path d="M388.4,703.5 L386.5,701.8 L385.7,699.8 L385.5,697.5 L385.9,695.5 L387.3,693.9 L389.1,692.9 L391.6,692.4 L393.8,692.7 L396.0,693.4 L398.4,694.5 L402.7,696.6 L405.6,698.2 L407.2,699.5 L408.4,701.3 L409.0,703.9 L408.9,706.2 L408.2,708.4 L406.9,709.5 L405.3,709.9 L403.5,710.0 L388.4,703.5 Z" fill="#4f8a3e" stroke="none"/>
<path d="M526.2,659.0 L528.0,659.3 L529.1,659.9 L530.4,660.8 L531.4,661.7 L532.9,663.4 L533.6,665.3 L533.5,667.1 L533.2,668.7 L532.3,670.5 L531.5,671.3 L530.3,672.2 L529.3,672.7 L527.6,673.0 L526.4,672.7 L524.9,671.8 L523.9,670.9 L523.1,669.7 L522.2,668.2 L521.7,666.7 L521.6,665.3 L521.7,663.5 L522.2,662.1 L523.1,660.7 L524.3,659.8 L525.1,659.2 L526.2,659.0 Z" fill="#4f8a3e" stroke="none"/>
<path d="M484.5,543.0 L484.9,541.2 L486.0,539.7 L487.3,538.8 L488.7,538.2 L490.5,538.2 L491.7,538.6 L492.8,539.1 L493.5,540.1 L499.0,553.0 L499.2,554.5 L498.8,556.0 L498.2,557.4 L497.3,558.7 L496.4,559.5 L495.1,560.6 L493.7,561.0 L492.2,560.8 L490.9,560.5 L489.7,559.5 L488.7,558.3 L484.5,543.0 Z" fill="#4f8a3e" stroke="none"/>
<path d="M225.9,163.0 L227.2,162.1 L228.7,161.5 L230.6,161.4 L232.9,162.2 L234.1,163.3 L235.1,165.1 L235.8,166.5 L235.8,168.2 L235.3,169.7 L234.7,171.0 L233.6,172.2 L232.0,173.1 L230.7,173.1 L228.7,172.9 L227.0,172.0 L226.0,170.9 L225.4,169.9 L225.0,168.1 L224.8,166.2 L225.1,164.4 L225.9,163.0 Z" fill="#4f8a3e" stroke="none"/>
<path d="M211.7,47.6 L211.0,45.5 L210.3,42.9 L210.0,41.0 L210.1,39.3 L210.7,37.6 L211.6,36.2 L212.8,34.9 L214.1,34.1 L215.2,33.8 L216.5,33.9 L218.1,34.3 L219.4,35.1 L220.1,36.1 L220.5,37.5 L220.6,39.1 L220.7,40.5 L220.5,42.4 L220.5,44.0 L220.8,45.2 L221.1,46.6 L221.6,47.8 L222.4,49.9 L222.4,51.6 L221.9,53.1 L221.0,54.5 L220.0,55.4 L218.6,56.0 L217.0,56.0 L215.4,55.5 L214.5,54.7 L213.8,53.8 L213.0,51.4 L212.3,49.5 L212.1,48.6 L211.7,47.6 Z" fill="#4f8a3e" stroke="none"/>
<path d="M208.1,17.7 L207.0,18.5 L206.3,19.6 L205.5,21.1 L205.5,22.9 L205.8,24.5 L206.5,26.0 L207.4,27.0 L208.8,27.9 L210.1,28.6 L211.8,28.8 L213.5,28.5 L214.6,27.8 L215.3,26.9 L215.9,26.1 L216.2,25.1 L216.2,23.6 L215.9,21.9 L215.1,20.0 L214.1,18.7 L212.8,17.8 L211.6,17.4 L210.6,17.0 L209.6,17.1 L208.1,17.7 Z" fill="#4f8a3e" stroke="none"/>
<path d="M270.2,375.9 L268.7,372.4 L266.8,369.9 L264.6,367.9 L263.6,367.2 L262.3,366.4 L260.9,366.2 L259.6,366.2 L257.9,366.3 L256.3,366.8 L254.9,367.3 L253.4,367.9 L252.3,368.7 L251.1,369.5 L250.4,370.6 L250.0,371.6 L249.5,373.1 L249.3,374.6 L250.1,377.2 L251.6,379.4 L253.1,381.6 L254.9,384.3 L256.4,386.6 L257.3,387.7 L258.4,388.4 L259.7,389.0 L261.1,389.4 L263.3,388.8 L265.7,387.7 L267.2,387.0 L268.6,386.1 L269.7,385.2 L270.5,384.1 L271.0,382.8 L271.3,381.4 L271.3,380.0 L271.1,378.4 L270.2,375.9 Z" fill="#4f8a3e" stroke="none"/>
<path d="M245.2,363.4 L245.2,362.0 L245.1,361.3 L244.9,360.3 L244.3,359.1 L243.9,358.3 L243.2,357.5 L242.1,356.8 L240.9,356.2 L239.6,355.6 L238.4,355.3 L237.1,355.2 L235.7,355.2 L233.9,356.0 L232.3,357.1 L231.4,358.1 L230.9,359.2 L230.6,360.4 L230.8,361.6 L231.0,362.6 L231.6,363.6 L233.5,365.5 L235.9,367.3 L238.3,368.7 L239.3,369.0 L240.5,369.0 L241.5,368.6 L242.5,368.0 L243.4,367.3 L244.1,366.3 L244.7,365.6 L245.1,364.8 L245.2,363.4 Z" fill="#4f8a3e" stroke="none"/>
<path d="M274.4,391.1 L273.2,391.7 L272.2,392.6 L271.3,393.6 L270.5,395.4 L270.1,397.3 L270.0,399.1 L270.2,400.1 L270.7,400.9 L271.3,402.3 L272.4,403.8 L276.4,408.5 L278.7,410.7 L280.7,412.6 L282.3,414.3 L283.7,414.9 L285.5,415.3 L287.4,415.1 L288.9,414.2 L290.1,412.8 L291.1,411.2 L291.7,408.8 L291.4,406.1 L290.3,403.5 L289.1,400.9 L287.1,397.0 L285.8,394.3 L284.6,392.8 L283.2,391.7 L281.6,390.9 L279.6,390.5 L277.7,390.3 L276.3,390.4 L275.4,390.6 L274.4,391.1 Z" fill="#4f8a3e" stroke="none"/>
<path d="M307.0,427.3 L307.1,425.4 L306.5,423.5 L305.5,422.1 L304.4,420.7 L303.1,419.3 L301.7,418.2 L300.1,417.2 L298.6,416.7 L296.4,416.7 L294.8,417.1 L293.4,417.7 L292.5,418.7 L291.8,420.0 L291.4,421.4 L291.1,422.6 L291.0,424.4 L291.4,426.2 L292.6,428.3 L293.7,429.5 L294.9,430.3 L296.7,431.5 L299.0,432.4 L301.2,432.7 L303.6,432.2 L305.6,430.8 L306.6,429.2 L307.0,427.3 Z" fill="#4f8a3e" stroke="none"/>
<path d="M160.8,-8.7 L160.0,-10.5 L158.9,-12.0 L157.4,-12.9 L155.3,-13.1 L153.5,-12.8 L152.5,-12.1 L151.4,-10.8 L150.8,-9.7 L150.0,-7.9 L149.5,-6.2 L149.5,-4.5 L150.2,-2.8 L150.7,-2.0 L152.0,-1.2 L153.9,-0.9 L155.8,-1.1 L157.0,-1.6 L158.4,-2.6 L159.5,-3.9 L160.3,-5.2 L160.9,-7.2 L160.8,-8.7 Z" fill="#4f8a3e" stroke="none"/>
<path d="M180.8,-14.8 L180.6,-16.8 L179.8,-18.9 L179.0,-20.7 L177.9,-22.2 L176.6,-23.2 L175.0,-23.7 L173.4,-23.8 L172.0,-23.8 L170.7,-23.2 L169.7,-22.5 L168.4,-21.6 L167.6,-20.2 L167.0,-19.0 L166.9,-17.2 L167.2,-16.1 L167.7,-14.6 L168.1,-13.2 L168.8,-11.4 L169.6,-10.2 L170.4,-9.2 L171.6,-8.5 L173.1,-8.0 L174.5,-7.9 L175.9,-8.0 L177.3,-8.7 L178.3,-9.7 L179.3,-10.8 L180.2,-12.5 L180.5,-13.6 L180.8,-14.8 Z" fill="#4f8a3e" stroke="none"/>
<path d="M203.9,-26.5 L203.5,-28.7 L202.9,-30.7 L202.2,-32.7 L200.9,-34.3 L198.6,-35.6 L196.3,-36.0 L192.3,-35.5 L190.6,-34.8 L189.3,-33.4 L188.9,-31.7 L188.8,-30.1 L189.0,-27.9 L189.2,-26.1 L189.5,-24.3 L190.0,-22.4 L190.6,-21.4 L191.3,-20.3 L192.3,-19.4 L193.6,-18.6 L195.4,-17.9 L197.5,-17.2 L199.7,-17.2 L201.3,-18.0 L202.5,-19.6 L203.4,-21.4 L203.8,-23.0 L203.8,-24.8 L203.9,-26.5 Z" fill="#4f8a3e" stroke="none"/>
<path d="M211.0,0.7 L211.5,-0.9 L211.7,-3.4 L211.3,-5.6 L210.5,-7.2 L208.4,-8.8 L206.0,-9.3 L204.0,-9.0 L202.0,-8.0 L200.4,-6.6 L199.5,-4.9 L199.2,-3.4 L199.5,-1.7 L199.9,-0.1 L200.4,1.0 L201.6,2.4 L203.1,3.2 L204.7,3.4 L206.7,3.7 L208.5,3.0 L209.9,2.0 L211.0,0.7 Z" fill="#4f8a3e" stroke="none"/>
<path d="M247.0,-25.3 L246.6,-27.1 L245.2,-28.8 L243.1,-29.9 L240.5,-30.6 L237.8,-30.3 L235.8,-29.6 L234.2,-28.7 L232.8,-27.2 L232.2,-25.5 L232.1,-23.4 L232.8,-21.8 L233.6,-20.3 L235.3,-18.8 L237.5,-17.9 L240.1,-17.6 L243.3,-17.7 L245.1,-18.8 L246.1,-20.0 L246.8,-21.6 L247.0,-23.2 L247.0,-24.2 L247.0,-25.3 Z" fill="#4f8a3e" stroke="none"/>
<path d="M585.2,30.0 L585.6,28.3 L586.7,26.4 L588.0,24.7 L589.8,23.8 L592.1,24.0 L593.7,24.8 L594.9,26.2 L595.6,28.5 L595.7,30.8 L595.7,33.1 L595.3,35.4 L594.3,37.4 L592.9,39.2 L591.5,40.1 L589.4,40.5 L587.8,40.2 L586.6,39.6 L585.5,38.6 L584.8,36.9 L584.6,34.7 L584.8,32.8 L584.9,31.6 L585.2,30.0 Z" fill="#4f8a3e" stroke="none"/>
<path d="M574.8,83.1 L574.4,81.4 L580.9,57.6 L581.7,56.6 L582.5,56.0 L583.4,55.6 L584.5,55.3 L585.6,55.3 L586.6,55.5 L587.8,56.0 L588.6,56.7 L589.4,57.6 L589.9,58.5 L590.0,59.8 L585.6,82.2 L584.4,84.1 L582.9,84.9 L581.3,85.1 L579.6,85.0 L577.8,84.6 L576.2,84.1 L574.8,83.1 Z" fill="#4f8a3e" stroke="none"/>
<path d="M166.3,407.0 L165.0,405.0 L164.4,402.5 L164.4,400.0 L165.9,398.2 L167.5,397.4 L169.8,397.8 L171.4,398.8 L173.0,400.4 L174.1,402.1 L174.4,404.0 L173.9,406.0 L172.6,407.8 L171.0,408.6 L168.8,408.7 L167.4,408.1 L166.3,407.0 Z" fill="#4f8a3e" stroke="none"/>
<path d="M424.1,34.3 L486.8,36.2 L485.8,66.5 L423.2,64.6 L424.1,34.3 Z" fill="#4f8a3e" stroke="none"/>
<path d="M553.0,585.9 L551.0,582.9 L549.3,581.4 L547.3,580.3 L544.9,580.1 L542.7,580.5 L540.6,581.5 L539.1,583.3 L538.0,586.4 L537.1,589.7 L536.4,592.6 L536.3,594.4 L536.5,596.4 L538.7,601.2 L541.6,605.3 L553.2,619.0 L555.6,619.3 L557.8,619.2 L560.2,619.0 L562.5,618.5 L564.9,617.9 L566.9,617.3 L569.4,615.5 L571.7,613.4 L573.3,610.4 L573.9,608.6 L574.1,606.4 L574.0,604.7 L573.6,603.1 L572.1,600.0 L570.4,597.5 L568.4,595.2 L566.4,593.3 L564.2,591.5 L561.1,589.7 L558.2,588.9 L555.5,587.9 L553.0,585.9 Z" fill="#2f7825" stroke="none"/>
<path d="M311.1,-3.8 L313.0,-4.0 L314.9,-3.9 L319.4,-3.9 L322.6,-3.3 L324.8,-1.6 L326.2,0.6 L327.3,2.7 L328.4,4.3 L329.6,5.7 L331.0,7.2 L332.6,8.4 L334.4,10.9 L334.6,14.0 L334.4,19.5 L333.9,23.5 L333.1,28.7 L332.4,32.6 L331.1,35.6 L330.4,37.2 L329.0,38.7 L326.4,39.4 L324.9,39.3 L323.3,38.8 L321.8,38.2 L320.7,37.2 L319.0,33.1 L317.7,27.4 L315.9,22.5 L313.4,17.8 L309.9,14.2 L307.1,11.4 L306.0,10.2 L304.2,8.4 L303.3,6.7 L303.2,4.8 L303.2,3.0 L303.8,1.3 L305.0,-0.7 L306.7,-2.3 L308.7,-3.1 L311.1,-3.8 Z" fill="#2f7825" stroke="none"/>
<path d="M527.1,42.0 L521.9,43.7 L514.5,47.0 L504.5,49.8 L502.2,51.5 L500.5,53.9 L499.3,56.4 L498.6,59.1 L498.1,62.4 L498.2,66.1 L499.4,70.1 L501.7,73.8 L503.6,75.8 L505.7,77.7 L508.1,79.5 L510.8,80.9 L513.7,81.0 L516.0,80.1 L518.9,78.4 L521.0,76.1 L525.0,70.1 L529.3,62.7 L531.4,59.8 L533.7,57.2 L537.2,54.6 L538.9,52.0 L539.4,50.3 L539.3,49.1 L538.3,46.4 L537.2,44.3 L535.3,42.7 L533.0,41.7 L530.0,41.5 L527.1,42.0 Z" fill="#2f7825" stroke="none"/>
<path d="M57.5,427.3 L58.9,426.8 L60.3,426.5 L62.2,426.3 L64.2,426.2 L67.6,426.3 L71.4,427.0 L75.5,427.8 L78.0,428.9 L81.3,430.8 L83.9,432.8 L84.9,434.3 L85.6,435.9 L85.7,437.8 L85.5,439.7 L84.7,442.7 L83.7,445.7 L82.2,449.3 L79.9,452.7 L77.5,454.9 L74.8,456.6 L73.2,456.7 L71.7,456.6 L69.6,456.1 L67.4,455.2 L65.5,454.2 L63.7,453.2 L62.4,451.9 L61.0,450.2 L59.4,448.2 L56.9,445.5 L55.1,443.3 L54.0,441.9 L52.5,440.3 L51.8,438.7 L51.3,437.1 L51.3,435.7 L51.5,434.2 L52.0,432.3 L53.0,430.5 L54.0,429.3 L55.2,428.3 L57.5,427.3 Z" fill="#2f7825" stroke="none"/>
<path d="M458.8,653.4 L454.8,655.3 L449.7,658.0 L445.9,660.1 L444.9,661.7 L444.5,663.3 L445.0,666.2 L445.8,670.2 L447.1,673.7 L448.5,676.5 L450.2,679.5 L452.8,681.4 L456.1,682.3 L459.5,682.1 L462.6,680.9 L465.1,678.1 L467.0,677.2 L469.0,676.8 L477.8,676.3 L482.2,675.4 L485.3,674.1 L487.2,671.3 L488.0,668.9 L488.0,666.3 L487.6,664.5 L486.9,662.7 L486.0,660.5 L485.0,659.0 L483.5,658.0 L481.7,657.2 L478.7,656.1 L475.5,655.7 L470.9,654.8 L466.6,653.8 L462.9,652.4 L461.1,652.3 L458.8,653.4 Z" fill="#2f7825" stroke="none"/>
<path d="M405.5,515.0 L402.1,516.1 L399.0,517.2 L395.3,518.7 L392.3,520.1 L390.1,521.4 L389.1,522.2 L388.7,522.7 L388.4,523.3 L388.4,524.5 L388.5,525.5 L389.3,528.1 L390.8,532.3 L392.1,535.2 L393.4,537.3 L395.6,540.0 L397.1,541.4 L398.8,542.7 L401.3,543.4 L404.1,543.3 L406.3,542.8 L408.1,541.8 L410.4,541.2 L412.9,541.0 L414.6,540.9 L416.3,541.1 L418.4,541.2 L421.4,540.5 L423.5,539.4 L424.8,537.7 L425.7,535.7 L426.1,533.7 L425.8,530.8 L425.0,528.5 L424.0,526.9 L421.8,525.0 L419.4,523.6 L417.2,522.4 L414.9,520.8 L413.1,519.2 L411.7,517.4 L410.0,515.5 L409.0,514.8 L408.4,514.6 L407.7,514.5 L405.5,515.0 Z" fill="#2f7825" stroke="none"/>
<path d="M179.9,235.1 L180.6,232.5 L180.5,229.6 L179.0,224.5 L178.0,220.7 L177.7,217.1 L178.0,215.2 L178.8,213.3 L180.3,210.8 L181.6,208.1 L182.0,205.5 L181.7,204.0 L181.3,202.3 L180.5,200.9 L179.6,199.7 L178.3,198.5 L176.9,197.3 L174.3,196.2 L172.8,196.0 L171.2,195.8 L169.0,195.8 L167.3,196.4 L166.5,197.1 L165.9,197.9 L165.1,199.1 L164.5,200.2 L163.1,204.8 L161.5,208.7 L160.1,211.8 L158.8,214.1 L158.1,215.5 L157.7,217.0 L157.7,221.0 L158.2,224.5 L158.7,227.7 L159.6,230.7 L161.2,233.4 L162.4,234.9 L163.7,236.0 L164.9,237.0 L166.3,237.6 L168.9,238.6 L171.6,239.1 L174.5,239.1 L175.8,238.8 L177.0,238.2 L178.6,237.1 L179.9,235.1 Z" fill="#2f7825" stroke="none"/>
<path d="M192.0,77.9 L164.3,51.7 L162.4,45.1 L164.3,38.2 L168.1,31.9 L172.2,26.0 L176.4,23.2 L182.3,20.7 L187.2,21.3 L191.6,24.0 L194.9,26.4 L197.9,30.3 L200.2,37.4 L198.1,45.1 L197.3,53.6 L197.9,59.3 L199.3,67.6 L199.9,74.3 L198.9,78.5 L195.5,79.3 L192.0,77.9 Z" fill="#2f7825" stroke="none"/>
<path d="M169.1,132.8 L168.0,128.4 L167.9,124.5 L168.6,121.4 L169.9,118.5 L172.5,115.2 L174.9,112.9 L177.6,111.3 L180.6,110.3 L183.4,109.7 L185.9,109.7 L188.6,109.4 L191.0,110.2 L193.5,111.8 L195.3,113.9 L196.2,115.9 L197.0,118.6 L196.6,121.2 L195.4,123.8 L194.1,126.0 L192.3,127.8 L191.0,130.0 L190.0,132.5 L188.8,135.3 L187.6,137.6 L185.6,139.4 L183.8,140.4 L181.3,141.3 L178.6,141.7 L176.2,141.8 L174.0,140.6 L172.5,139.6 L170.9,137.8 L169.6,135.3 L169.1,132.8 Z" fill="#2f7825" stroke="none"/>
<path d="M667.9,42.0 L665.8,42.2 L663.8,42.8 L662.0,43.4 L660.5,44.1 L659.4,45.1 L657.8,46.2 L655.4,47.0 L653.6,47.2 L651.9,47.0 L649.6,47.4 L647.6,48.3 L646.2,49.6 L644.8,51.1 L643.3,54.2 L642.0,57.8 L641.0,61.4 L640.8,64.3 L640.9,67.2 L641.6,70.2 L643.2,72.5 L644.6,73.6 L645.9,74.4 L647.5,75.1 L649.1,75.6 L652.0,75.6 L655.3,75.0 L658.6,73.6 L660.3,72.0 L661.5,70.4 L663.0,68.1 L664.4,66.8 L666.1,65.7 L668.8,64.3 L671.2,62.9 L672.6,61.3 L673.4,59.8 L674.6,58.1 L675.4,55.9 L676.0,54.0 L676.2,52.2 L676.5,50.6 L676.5,49.0 L676.0,47.3 L675.2,45.7 L674.4,44.7 L673.5,43.7 L672.5,42.8 L670.9,42.1 L669.4,42.0 L667.9,42.0 Z" fill="#2f7825" stroke="none"/>
<path d="M529.0,667.9 L432.9,379.3 L314.5,139.8 L323.7,16.2" fill="none" stroke="#ffd64a" stroke-width="5" stroke-linecap="round" stroke-linejoin="round" opacity="0.95"/>
</svg>