<svg xmlns="http://www.w3.org/2000/svg" viewBox="0 0 800 600" preserveAspectRatio="xMidYMid slice">
<rect width="100%" height="100%" fill="#143018"/>
<path d="M177.9,375.1 L175.5,374.5 L174.7,372.1 L173.8,369.4 L174.9,367.2 L176.9,366.0 L178.8,367.1 L179.3,369.6 L178.8,372.7 L177.9,375.1 Z" fill="#2b5a2a" stroke="none"/>
<path d="M202.3,135.9 L216.2,156.2 L232.6,182.4 L246.2,204.6 L256.0,223.9 L258.4,231.0 L258.1,235.3 L257.2,238.7 L255.0,241.3 L252.9,243.9 L252.2,247.0 L253.4,254.9 L255.2,258.2 L258.5,260.6 L262.6,263.6 L259.9,262.6 L254.4,261.1 L249.1,262.6 L246.5,265.1 L245.0,267.9 L242.6,276.1 L243.1,270.6 L242.9,266.2 L242.1,261.5 L239.1,259.2 L235.0,257.0 L230.7,254.6 L224.8,249.6 L220.0,239.9 L218.8,234.1 L220.5,229.4 L224.0,220.1 L225.0,212.4 L223.3,205.8 L218.6,201.5 L212.1,198.8 L205.9,196.7 L200.2,193.6 L192.3,185.7 L175.9,162.9 L167.3,149.8 L165.4,143.8 L166.8,140.0 L172.3,136.9 L187.3,130.0 L192.6,128.5 L196.4,130.0 L200.0,133.3 L202.3,135.9 Z" fill="#5a9540" stroke="none"/>
<path d="M129.6,44.8 L142.3,58.7 L161.6,82.7 L176.4,101.1 L181.1,108.2 L181.6,112.5 L180.2,117.1 L173.0,121.6 L162.1,126.3 L156.1,127.8 L150.4,126.1 L142.8,121.3 L120.6,95.8 L90.3,61.5 L69.3,38.4 L61.7,27.9 L60.8,21.5 L64.8,14.6 L75.5,4.8 L84.6,-0.2 L91.8,1.2 L97.0,6.0 L106.5,17.7 L120.6,34.6 L129.6,44.8 Z" fill="#5a9540" stroke="none"/>
<path d="M389.0,395.4 L396.4,410.4 L407.1,434.1 L412.3,445.1 L415.4,454.5 L414.3,460.1 L412.9,462.3 L411.8,465.0 L412.0,468.9 L415.1,472.4 L418.0,475.2 L421.1,476.8 L423.7,480.5 L422.0,479.1 L418.8,477.2 L414.8,476.6 L411.7,477.4 L409.4,480.6 L408.7,484.3 L407.9,480.7 L406.6,477.4 L404.6,474.7 L402.4,472.2 L399.4,470.3 L393.7,466.2 L385.4,455.2 L374.6,436.8 L363.5,415.1 L351.4,390.9 L340.8,366.0 L335.0,349.0 L332.3,337.5 L332.3,324.4 L334.6,307.5 L340.1,285.4 L348.7,252.7 L355.6,224.2 L359.9,206.1 L362.8,197.6 L365.7,193.1 L369.9,188.4 L376.9,186.2 L385.8,186.4 L391.7,189.1 L395.3,193.3 L397.7,201.2 L396.6,211.0 L393.3,226.2 L388.1,249.1 L381.1,275.1 L375.8,295.5 L372.6,309.3 L371.3,315.2 L367.9,320.5 L363.2,326.2 L361.6,332.7 L362.5,339.2 L367.0,347.2 L373.7,357.3 L378.2,364.7 L380.9,372.7 L383.2,381.9 L385.6,389.6 L389.0,395.4 Z" fill="#5a9540" stroke="none"/>
<path d="M408.0,640.8 L402.8,639.8 L389.4,638.0 L371.0,637.0 L347.5,636.0 L330.5,633.7 L315.1,634.4 L298.0,632.5 L281.4,632.4 L268.0,630.8 L255.6,629.4 L241.9,627.2 L231.0,625.2 L221.5,621.7 L211.5,616.2 L202.1,610.7 L192.7,604.7 L174.5,593.1 L155.4,582.3 L136.3,568.5 L117.3,553.7 L101.6,539.8 L80.9,523.0 L67.9,513.1 L60.3,506.4 L56.6,502.1 L54.5,497.1 L53.9,490.6 L56.2,484.8 L67.6,470.9 L74.1,463.9 L79.4,461.7 L86.6,464.0 L98.9,473.9 L121.9,493.2 L142.7,511.1 L158.1,524.5 L166.7,531.9 L170.8,538.3 L175.7,545.4 L185.7,556.3 L195.6,566.3 L202.8,571.4 L211.9,574.0 L222.9,580.7 L228.8,585.7 L239.2,592.2 L246.9,595.2 L255.9,596.5 L267.9,597.5 L288.8,599.4 L315.3,602.2 L352.7,605.6 L370.6,608.0 L386.3,611.5 L394.5,613.7 L401.1,617.7 L405.7,621.7 L411.4,625.0 L414.6,625.9 L420.7,627.1 L417.2,627.4 L412.5,628.2 L410.4,629.2 L407.9,632.5 L407.2,635.1 L408.0,638.1 L409.9,640.2 L412.2,642.1 L408.0,640.8 Z" fill="#5a9540" stroke="none"/>
<path d="M17.5,306.7 L20.2,301.9 L24.0,298.0 L26.8,293.9 L33.1,289.2 L37.6,287.6 L42.1,286.8 L47.3,286.9 L54.5,287.1 L63.5,288.0 L74.1,289.5 L83.9,290.6 L93.9,292.3 L105.3,294.1 L122.1,297.5 L135.8,301.1 L147.9,304.8 L156.4,308.2 L165.0,311.8 L172.6,316.1 L181.8,322.0 L193.8,331.4 L207.9,342.1 L224.2,355.9 L240.0,368.2 L248.8,375.7 L263.8,388.7 L282.7,406.2 L300.2,421.2 L312.7,431.8 L319.6,438.8 L322.0,444.5 L322.5,450.9 L320.9,457.5 L320.3,459.4 L317.6,462.4 L313.7,464.4 L309.8,465.7 L305.1,466.3 L299.7,465.5 L290.8,462.3 L276.6,454.9 L264.8,447.9 L244.3,432.5 L235.8,426.0 L227.7,418.6 L217.2,407.7 L212.0,400.7 L206.3,393.3 L200.8,384.9 L195.2,377.8 L187.9,367.7 L179.5,358.4 L172.1,351.6 L168.2,348.1 L162.8,344.4 L158.9,342.8 L152.0,340.4 L132.1,336.6 L107.4,332.8 L86.1,329.8 L67.0,326.4 L54.4,323.8 L43.6,321.5 L32.8,319.5 L28.1,318.0 L20.6,315.1 L17.4,313.0 L16.6,310.9 L16.7,309.0 L17.5,306.7 Z" fill="#5a9540" stroke="none"/>
<path d="M389.4,364.8 L388.6,364.3 L388.4,363.4 L388.5,362.6 L388.4,361.4 L388.6,360.7 L388.7,359.8 L389.4,359.4 L390.4,359.0 L391.2,359.2 L391.6,360.1 L391.4,361.1 L391.6,361.8 L391.7,363.2 L391.5,364.1 L390.7,364.9 L389.4,364.8 Z" fill="#5a9540" stroke="none"/>
<path d="M339.2,577.7 L358.4,544.5 L360.9,545.9 L341.6,579.1 L339.2,577.7 Z" fill="#5a9540" stroke="none"/>
<path d="M207.7,210.9 L208.3,208.7 L209.8,206.8 L211.5,206.0 L212.6,204.8 L213.5,204.0 L215.6,204.2 L218.6,205.2 L220.6,206.9 L221.0,209.0 L220.7,210.8 L219.5,211.5 L218.1,211.4 L217.2,212.0 L217.3,213.1 L218.4,214.8 L220.1,216.0 L220.8,217.7 L220.9,219.2 L220.0,221.0 L218.9,222.5 L217.3,224.0 L215.2,224.9 L213.7,223.7 L212.7,222.0 L212.7,220.6 L212.8,219.3 L212.0,217.8 L211.0,216.5 L209.8,215.9 L208.6,215.1 L207.5,213.1 L207.7,210.9 Z" fill="#e7d6a3" stroke="none"/>
<path d="M254.8,244.1 L255.8,242.7 L257.7,241.7 L259.6,240.1 L260.3,239.1 L260.4,238.4 L260.0,237.2 L260.2,236.3 L261.4,235.5 L262.7,235.6 L264.4,236.9 L265.2,238.1 L266.2,240.0 L266.4,242.1 L266.2,244.1 L266.3,246.5 L267.7,249.2 L269.6,251.5 L270.4,252.9 L270.4,254.4 L269.9,255.6 L268.7,256.9 L267.3,257.6 L265.6,257.8 L264.4,257.6 L263.1,256.5 L262.7,255.5 L262.5,254.8 L261.7,254.2 L260.9,254.4 L260.5,254.9 L259.9,255.4 L258.4,255.3 L257.2,254.3 L256.3,253.2 L255.9,251.7 L255.7,250.5 L256.1,249.3 L256.1,248.5 L255.5,247.3 L254.6,246.7 L254.1,246.3 L253.8,245.5 L254.2,244.7 L254.8,244.1 Z" fill="#e7d6a3" stroke="none"/>
<path d="M228.4,268.8 L229.4,266.7 L230.2,264.3 L230.2,262.8 L231.0,261.5 L232.2,260.8 L233.3,260.4 L234.9,260.3 L237.1,260.8 L238.3,261.7 L238.7,263.1 L238.9,264.2 L238.7,264.7 L237.7,264.8 L236.6,264.8 L236.3,265.4 L236.0,266.3 L236.1,266.9 L236.6,267.5 L237.5,267.5 L238.5,267.1 L239.5,267.8 L240.4,269.5 L240.6,271.2 L240.3,272.7 L239.6,273.6 L238.4,274.0 L237.1,273.2 L236.6,272.3 L235.7,272.0 L234.5,272.1 L233.6,273.1 L233.2,274.7 L233.9,275.9 L235.2,276.4 L236.6,277.1 L236.9,277.9 L236.5,278.7 L235.4,279.3 L233.8,279.2 L231.3,278.5 L229.7,277.8 L227.7,276.2 L226.7,274.2 L226.3,271.9 L227.0,270.2 L228.4,268.8 Z" fill="#e7d6a3" stroke="none"/>
<path d="M274.4,282.8 L274.6,281.7 L274.2,279.9 L274.1,278.6 L274.4,277.5 L275.2,277.0 L277.2,277.5 L278.1,278.1 L278.6,280.0 L279.1,282.3 L280.2,284.2 L280.5,286.2 L280.0,287.4 L278.4,288.2 L276.9,288.0 L275.5,287.3 L274.2,286.3 L273.8,284.6 L274.4,282.8 Z" fill="#e7d6a3" stroke="none"/>
<path d="M356.4,9.3 L357.0,7.5 L357.8,5.6 L359.0,4.4 L359.9,3.2 L360.7,1.4 L361.4,0.3 L363.0,-0.9 L364.6,-1.6 L366.2,-1.2 L367.5,-0.3 L368.1,1.3 L368.0,3.4 L367.3,5.1 L365.5,6.8 L363.8,8.8 L362.7,10.0 L362.3,11.7 L361.8,13.5 L361.3,15.0 L359.1,15.2 L357.2,14.4 L356.3,12.9 L356.3,11.1 L356.4,9.3 Z" fill="#e7d6a3" stroke="none"/>
<path d="M388.2,385.7 L388.0,383.2 L387.7,381.7 L387.3,380.4 L388.7,379.0 L391.3,378.3 L395.6,377.7 L397.1,378.5 L397.6,380.8 L398.2,382.2 L398.1,383.8 L398.4,385.4 L399.0,386.0 L399.7,387.3 L399.3,389.1 L397.7,390.5 L395.8,391.9 L393.8,392.2 L391.3,391.2 L390.1,389.7 L389.4,388.3 L388.7,387.5 L388.2,385.7 Z" fill="#e7d6a3" stroke="none"/>
<path d="M199.0,546.6 L200.4,545.3 L202.1,544.5 L204.3,544.1 L206.2,544.5 L208.1,545.3 L209.1,546.7 L210.8,549.1 L211.5,550.7 L212.2,552.4 L213.0,554.3 L213.1,556.3 L212.7,557.9 L211.9,559.9 L210.8,562.0 L209.5,562.8 L207.9,563.2 L206.7,564.1 L205.0,565.0 L203.6,565.8 L201.4,565.6 L199.8,564.4 L198.2,562.9 L196.2,561.9 L194.9,560.3 L193.5,557.7 L193.1,555.6 L193.3,553.2 L193.9,551.7 L195.4,549.8 L197.1,548.1 L199.0,546.6 Z" fill="#e7d6a3" stroke="none"/>
<path d="M227.5,581.8 L226.3,580.4 L226.0,578.4 L226.7,576.7 L228.5,574.3 L229.9,572.7 L231.0,571.1 L232.6,570.2 L234.3,569.5 L235.9,569.6 L238.1,571.3 L240.1,573.1 L241.4,574.4 L242.7,575.3 L244.3,574.9 L246.3,573.9 L248.4,574.3 L249.4,575.7 L249.9,576.7 L249.7,578.6 L249.9,579.9 L249.7,581.5 L248.0,582.3 L247.5,583.9 L247.0,585.2 L245.8,585.6 L244.8,587.3 L243.0,588.9 L241.3,589.2 L239.0,588.6 L236.1,586.9 L233.7,585.4 L231.3,584.2 L229.3,583.4 L227.5,581.8 Z" fill="#e7d6a3" stroke="none"/>
<path d="M411.4,619.8 L410.9,617.5 L411.5,615.3 L412.5,613.6 L413.8,612.2 L415.9,612.3 L418.1,612.9 L419.8,613.4 L421.4,612.7 L423.2,612.8 L424.3,614.0 L424.9,615.6 L424.4,617.5 L423.9,619.2 L423.1,619.8 L422.1,621.2 L420.5,622.3 L418.6,622.5 L416.6,622.5 L415.0,622.5 L412.7,621.6 L411.4,619.8 Z" fill="#e7d6a3" stroke="none"/>
<path d="M430.8,620.2 L430.8,618.8 L431.5,617.6 L432.6,616.7 L434.0,616.3 L435.1,617.3 L436.9,618.5 L438.8,619.5 L440.6,620.1 L442.4,620.9 L443.6,621.9 L443.9,623.5 L444.3,624.8 L443.4,626.1 L442.2,626.7 L440.3,627.0 L438.5,626.5 L437.2,626.3 L436.2,625.9 L434.4,625.8 L432.7,625.4 L431.5,625.2 L430.5,624.5 L430.1,623.6 L430.8,621.6 L430.8,620.2 Z" fill="#e7d6a3" stroke="none"/>
<path d="M403.6,657.5 L402.3,655.5 L401.4,652.9 L401.7,650.5 L402.3,648.2 L402.4,646.9 L404.4,645.2 L406.5,644.9 L408.9,646.4 L411.4,647.7 L413.6,649.3 L415.0,650.5 L416.7,651.9 L418.0,653.5 L417.7,655.8 L416.0,657.4 L414.0,658.2 L412.3,659.0 L410.5,658.6 L408.8,658.4 L407.5,659.2 L405.4,659.1 L403.6,657.5 Z" fill="#e7d6a3" stroke="none"/>
<path d="M357.3,26.9 L355.6,26.2 L354.1,25.1 L353.2,23.8 L353.6,21.5 L354.8,20.6 L356.6,19.7 L358.7,19.4 L359.9,19.4 L360.9,20.2 L361.3,22.1 L361.5,23.9 L361.1,25.2 L359.8,26.8 L357.3,26.9 Z" fill="#e7d6a3" stroke="none"/>
<path d="M390.8,34.9 L389.4,33.6 L389.0,31.6 L389.8,29.9 L391.5,28.4 L393.4,26.9 L395.0,25.3 L396.5,24.1 L398.1,24.1 L399.4,25.6 L399.6,27.4 L398.5,29.1 L397.0,30.3 L395.3,32.3 L394.6,33.8 L392.8,35.1 L390.8,34.9 Z" fill="#e7d6a3" stroke="none"/>
<path d="M370.6,50.7 L368.7,51.3 L366.6,51.0 L365.4,49.9 L364.2,47.9 L363.6,45.8 L365.3,42.7 L366.9,41.3 L368.6,39.4 L369.9,38.5 L371.5,37.1 L374.1,36.4 L375.6,36.7 L377.3,37.7 L378.9,37.5 L379.9,36.7 L380.5,35.0 L381.7,34.4 L383.7,35.0 L386.4,36.5 L388.2,38.7 L389.1,40.9 L389.2,43.6 L388.0,45.8 L387.6,48.3 L386.4,50.6 L385.2,52.7 L382.9,55.0 L380.8,56.0 L378.7,56.7 L376.7,56.3 L375.3,54.8 L374.1,52.5 L373.6,51.1 L372.4,50.3 L370.6,50.7 Z" fill="#e7d6a3" stroke="none"/>
<path d="M391.3,307.6 L388.9,308.2 L386.2,307.6 L384.8,306.0 L384.3,303.3 L385.0,300.0 L386.4,298.8 L388.6,297.0 L390.8,295.3 L391.9,293.0 L393.2,290.8 L395.5,289.8 L396.9,289.2 L399.1,289.8 L400.4,291.2 L401.2,293.7 L401.6,296.6 L401.2,298.9 L401.0,301.1 L401.8,302.4 L401.8,304.6 L400.2,306.3 L397.5,306.9 L395.8,306.2 L393.6,306.0 L391.3,307.6 Z" fill="#e7d6a3" stroke="none"/>
<path d="M378.1,320.0 L377.3,321.4 L376.7,322.9 L376.4,324.1 L375.8,324.7 L374.7,325.7 L373.2,326.4 L371.7,325.8 L370.4,325.4 L368.4,325.5 L367.4,326.5 L366.6,327.9 L365.8,330.4 L365.7,331.8 L366.2,333.8 L366.9,335.3 L367.7,336.3 L369.3,337.1 L371.7,337.4 L373.0,336.5 L374.2,335.5 L376.1,334.9 L377.7,334.9 L379.4,334.5 L381.5,333.3 L383.1,331.3 L383.7,329.7 L383.2,328.4 L382.8,327.0 L382.5,325.1 L382.3,321.8 L381.6,320.5 L380.7,319.9 L379.2,319.5 L378.1,320.0 Z" fill="#e7d6a3" stroke="none"/>
<path d="M413.6,465.0 L413.7,466.8 L415.2,468.3 L416.7,468.7 L417.4,469.2 L417.8,470.0 L417.7,472.1 L419.1,474.0 L420.6,474.6 L422.5,474.1 L423.5,473.6 L423.1,471.1 L422.2,469.8 L422.5,468.6 L422.1,466.0 L421.4,464.9 L420.0,464.5 L418.6,463.7 L417.5,463.3 L415.1,463.4 L413.6,465.0 Z" fill="#e7d6a3" stroke="none"/>
<path d="M428.1,474.4 L426.7,471.7 L426.6,469.5 L427.4,467.9 L427.2,465.6 L427.7,463.6 L429.0,462.9 L430.3,463.8 L431.3,465.5 L432.7,466.5 L433.9,465.7 L435.5,464.9 L437.3,464.8 L439.1,465.6 L440.2,466.6 L440.7,469.2 L440.2,471.1 L440.5,473.0 L440.5,473.7 L440.0,474.4 L438.5,474.8 L437.1,475.5 L437.1,477.3 L436.8,478.3 L435.9,478.6 L435.4,478.4 L434.2,477.0 L432.5,476.3 L431.1,475.7 L429.5,475.6 L428.1,474.4 Z" fill="#e7d6a3" stroke="none"/>
<path d="M399.9,488.9 L397.9,487.7 L397.3,485.8 L397.3,483.5 L396.8,481.5 L395.9,480.5 L394.5,480.5 L393.6,479.8 L393.3,478.1 L394.0,476.4 L395.1,475.7 L396.5,475.4 L398.3,475.5 L399.4,476.5 L400.3,477.7 L400.9,479.5 L401.9,480.3 L403.0,481.1 L404.5,482.2 L405.0,483.8 L404.4,486.3 L403.4,487.6 L401.4,488.9 L399.9,488.9 Z" fill="#e7d6a3" stroke="none"/>
<path d="M407.8,510.9 L406.8,510.4 L405.8,508.9 L404.7,507.7 L403.6,505.8 L403.9,503.9 L404.9,502.2 L406.2,501.3 L407.3,501.8 L408.1,503.5 L408.1,505.1 L408.0,506.4 L409.0,507.4 L409.5,508.7 L409.3,510.0 L407.8,510.9 Z" fill="#e7d6a3" stroke="none"/>
<path d="M432.4,499.8 L431.7,499.1 L431.0,497.2 L430.1,494.6 L429.0,492.5 L428.1,490.8 L428.6,488.7 L429.9,487.3 L431.2,487.0 L432.4,486.9 L433.8,487.4 L434.6,488.5 L435.0,489.7 L435.9,490.4 L437.5,491.6 L438.6,492.7 L438.4,494.2 L437.7,495.1 L437.2,496.3 L436.7,497.7 L435.9,498.3 L434.8,499.1 L432.4,499.8 Z" fill="#e7d6a3" stroke="none"/>
<path d="M156.3,360.6 L155.2,358.6 L154.9,355.9 L155.5,352.9 L156.3,350.7 L157.9,348.5 L159.5,347.3 L161.5,347.9 L164.2,349.9 L166.6,351.5 L168.3,353.1 L169.5,354.8 L169.8,356.8 L168.3,359.4 L166.1,361.1 L164.8,362.8 L162.9,363.6 L160.4,363.8 L157.4,363.3 L156.3,360.6 Z" fill="#e7d6a3" stroke="none"/>
<path d="M4.8,313.3 L3.8,311.1 L3.0,307.3 L3.7,304.1 L4.8,300.7 L6.1,296.8 L6.8,294.8 L7.6,293.4 L9.8,292.0 L11.7,292.2 L12.9,292.9 L14.3,292.1 L14.3,290.3 L13.7,287.7 L12.5,286.0 L13.3,284.0 L15.0,282.5 L17.3,282.9 L19.9,283.9 L22.0,283.3 L24.2,282.5 L26.0,282.9 L28.1,282.1 L30.6,282.1 L32.2,283.3 L32.9,284.9 L32.3,286.2 L29.7,287.8 L27.2,289.8 L25.0,291.5 L23.0,293.5 L21.2,295.2 L19.2,297.8 L16.3,300.7 L14.1,303.2 L12.2,305.6 L10.5,307.7 L10.5,309.7 L10.5,311.5 L9.1,313.3 L7.3,314.0 L4.8,313.3 Z" fill="#e7d6a3" stroke="none"/>
<path d="M419.2,575.6 L425.6,568.9 L438.8,581.1 L433.0,588.0 L419.2,575.6 Z" fill="#4f8a3e" stroke="none"/>
<path d="M407.0,551.9 L421.9,565.4 L426.8,560.2 L411.9,546.6 L407.0,551.9 Z" fill="#4f8a3e" stroke="none"/>
<path d="M389.9,536.1 L399.5,544.6 L404.4,539.1 L394.9,530.5 L389.9,536.1 Z" fill="#4f8a3e" stroke="none"/>
<path d="M285.8,241.4 L300.3,204.0 L309.1,207.5 L295.3,245.2 L285.8,241.4 Z" fill="#4f8a3e" stroke="none"/>
<path d="M302.9,152.6 L296.8,163.3 L291.2,160.1 L297.3,149.4 L302.9,152.6 Z" fill="#4f8a3e" stroke="none"/>
<path d="M413.9,55.7 L420.1,28.5 L431.1,32.1 L424.9,58.8 L413.9,55.7 Z" fill="#4f8a3e" stroke="none"/>
<path d="M15.3,426.6 L20.3,420.3 L27.1,426.1 L21.6,432.6 L15.3,426.6 Z" fill="#4f8a3e" stroke="none"/>
<path d="M351.6,489.6 L356.9,483.1 L365.0,489.6 L359.6,496.2 L351.6,489.6 Z" fill="#4f8a3e" stroke="none"/>
<path d="M368.2,701.3 L387.1,692.7 L381.5,680.7 L362.7,689.3 L368.2,701.3 Z" fill="#4f8a3e" stroke="none"/>
<path d="M279.7,267.8 L289.1,270.8 L293.9,255.9 L284.5,252.9 L279.7,267.8 Z" fill="#4f8a3e" stroke="none"/>
<path d="M448.7,613.5 L453.7,609.1 L464.5,621.1 L459.4,625.6 L448.7,613.5 Z" fill="#4f8a3e" stroke="none"/>
<path d="M433.4,595.9 L438.0,591.0 L448.3,600.7 L443.8,605.6 L433.4,595.9 Z" fill="#4f8a3e" stroke="none"/>
<path d="M245.0,267.9 L242.6,276.1 L241.7,281.5 L241.7,284.2 L242.4,287.2 L244.3,291.8 L246.6,296.7 L251.3,303.2 L253.5,307.3 L257.8,311.8 L261.3,312.7 L265.1,312.2 L268.6,311.1 L271.7,308.6 L273.3,305.9 L273.4,302.7 L271.8,296.3 L270.3,289.7 L270.3,283.8 L271.3,278.7 L272.1,274.9 L271.8,271.1 L269.5,267.2 L266.2,264.9 L262.6,263.6 L259.9,262.6 L254.4,261.1 L249.1,262.6 L246.5,265.1 L245.0,267.9 Z" fill="#2f7825" stroke="none"/>
<path d="M424.4,481.9 L425.3,484.3 L425.4,488.3 L426.0,496.5 L426.1,503.1 L425.3,505.9 L423.4,508.8 L420.6,510.8 L417.2,511.3 L414.7,509.8 L413.1,507.6 L411.7,503.8 L410.5,496.9 L409.5,492.1 L408.8,488.8 L408.7,484.3 L409.4,480.6 L411.7,477.4 L414.8,476.6 L418.8,477.2 L422.0,479.1 L423.7,480.5 L424.4,481.9 Z" fill="#2f7825" stroke="none"/>
<path d="M407.2,635.1 L407.9,632.5 L410.4,629.2 L412.5,628.2 L417.2,627.4 L420.7,627.1 L423.1,627.0 L428.5,627.4 L432.8,628.7 L436.2,629.9 L439.8,631.4 L442.5,633.3 L444.4,635.7 L445.4,640.1 L445.5,643.3 L444.1,647.6 L442.1,651.0 L439.7,653.9 L437.4,655.3 L435.1,655.8 L431.9,655.7 L426.7,654.2 L422.9,651.9 L418.9,648.1 L415.8,645.0 L412.2,642.1 L409.9,640.2 L408.0,638.1 L407.2,635.1 Z" fill="#2f7825" stroke="none"/>
<path d="M378.7,0.1 L385.8,-0.9 L390.5,0.2 L394.6,2.3 L397.7,5.2 L399.4,9.2 L399.7,13.7 L398.5,18.2 L395.9,22.2 L392.9,24.9 L389.2,28.0 L385.4,30.3 L381.1,32.0 L377.2,33.3 L372.7,33.9 L369.2,33.6 L365.8,31.6 L363.3,28.1 L362.6,25.5 L362.7,23.0 L362.9,17.8 L363.7,14.7 L364.7,12.1 L367.4,7.7 L371.1,3.9 L374.7,1.5 L378.7,0.1 Z" fill="#2f7825" stroke="none"/>
<path d="M-7.2,305.3 L-10.7,305.2 L-13.7,304.1 L-17.2,301.4 L-19.3,298.9 L-20.9,296.2 L-22.3,293.8 L-23.4,290.9 L-23.8,287.9 L-23.5,284.7 L-22.8,281.4 L-20.0,276.1 L-16.3,272.2 L-11.7,269.8 L-7.2,269.0 L-2.3,269.6 L2.1,271.9 L5.0,274.3 L6.7,277.1 L7.5,280.4 L7.6,285.5 L6.6,289.8 L5.2,293.9 L1.5,298.9 L-1.2,302.2 L-3.3,304.5 L-7.2,305.3 Z" fill="#2f7825" stroke="none"/>
<path d="M423.5,39.9 L359.0,365.0 L417.6,493.5" fill="none" stroke="#ffd64a" stroke-width="5" stroke-linecap="round" stroke-linejoin="round" opacity="0.95"/>
</svg>