<svg xmlns="http://www.w3.org/2000/svg" viewBox="0 0 393 800" preserveAspectRatio="xMidYMid meet">
<rect width="100%" height="100%" fill="#143018"/>
<path d="M240.7,88.4 L152.0,535.1 L232.6,711.6" fill="none" stroke="#4e8b39" stroke-width="68.7" stroke-linecap="round" stroke-linejoin="round" opacity="0.85"/>
<path d="M-63.2,220.3 L-44.2,248.1 L-21.6,284.1 L-3.0,314.6 L10.5,341.2 L13.8,351.0 L13.4,356.9 L12.1,361.5 L9.2,365.1 L6.2,368.7 L5.2,372.9 L6.9,383.7 L9.4,388.3 L14.0,391.6 L19.5,395.7 L15.9,394.3 L8.3,392.3 L1.0,394.3 L-2.6,397.7 L-4.6,401.7 L-7.9,413.0 L-7.2,405.4 L-7.4,399.3 L-8.5,392.9 L-12.8,389.6 L-18.3,386.7 L-24.2,383.4 L-32.4,376.5 L-39.0,363.1 L-40.6,355.2 L-38.3,348.7 L-33.4,335.9 L-32.1,325.4 L-34.4,316.2 L-41.0,310.4 L-49.8,306.7 L-58.3,303.8 L-66.2,299.6 L-77.0,288.7 L-99.6,257.3 L-111.4,239.3 L-114.0,231.1 L-112.0,225.8 L-104.5,221.6 L-83.9,212.1 L-76.7,210.1 L-71.4,212.1 L-66.5,216.7 L-63.2,220.3 Z" fill="#5a9540" stroke="none"/>
<path d="M193.3,576.9 L203.5,597.5 L218.1,630.1 L225.3,645.2 L229.6,658.1 L228.1,665.8 L226.2,668.8 L224.6,672.5 L225.0,677.9 L229.2,682.7 L233.1,686.6 L237.4,688.7 L241.0,693.8 L238.6,691.9 L234.3,689.3 L228.8,688.4 L224.6,689.5 L221.3,694.0 L220.4,699.0 L219.3,694.1 L217.5,689.6 L214.7,685.9 L211.7,682.5 L207.6,679.9 L199.8,674.3 L188.3,659.1 L173.5,633.8 L158.3,604.0 L141.7,570.7 L127.0,536.4 L119.1,513.1 L115.4,497.2 L115.4,479.4 L118.6,456.0 L126.0,425.7 L138.0,380.8 L147.4,341.6 L153.3,316.7 L157.3,305.1 L161.3,298.9 L167.0,292.4 L176.7,289.4 L188.8,289.7 L197.0,293.4 L202.0,299.1 L205.2,310.0 L203.7,323.4 L199.3,344.3 L192.1,375.8 L182.4,411.6 L175.2,439.6 L170.7,458.5 L169.0,466.7 L164.3,473.9 L157.8,481.8 L155.6,490.8 L156.8,499.7 L163.0,510.6 L172.2,524.5 L178.4,534.7 L182.1,545.6 L185.4,558.3 L188.6,569.0 L193.3,576.9 Z" fill="#5a9540" stroke="none"/>
<path d="M219.4,914.2 L212.3,912.8 L193.8,910.4 L168.6,909.0 L136.3,907.6 L112.9,904.3 L91.7,905.3 L68.2,902.8 L45.4,902.6 L27.0,900.4 L10.0,898.5 L-8.9,895.5 L-23.8,892.7 L-36.9,887.8 L-50.7,880.4 L-63.6,872.7 L-76.5,864.5 L-101.5,848.6 L-127.7,833.7 L-154.1,814.8 L-180.1,794.4 L-201.8,775.4 L-230.2,752.2 L-248.0,738.7 L-258.5,729.4 L-263.6,723.5 L-266.4,716.7 L-267.3,707.8 L-264.0,699.7 L-248.4,680.7 L-239.5,671.0 L-232.2,668.0 L-222.4,671.1 L-205.5,684.8 L-173.8,711.3 L-145.2,735.9 L-124.0,754.3 L-112.2,764.5 L-106.5,773.2 L-99.9,783.0 L-86.0,798.1 L-72.5,811.7 L-62.6,818.8 L-50.1,822.3 L-35.0,831.5 L-26.9,838.4 L-12.6,847.4 L-2.0,851.5 L10.4,853.3 L26.8,854.7 L55.5,857.3 L92.0,861.0 L143.4,865.8 L168.0,869.1 L189.6,873.9 L200.9,876.9 L209.9,882.5 L216.3,887.9 L224.1,892.4 L228.5,893.7 L236.9,895.3 L232.0,895.7 L225.7,896.8 L222.8,898.2 L219.3,902.7 L218.4,906.3 L219.5,910.5 L222.0,913.3 L225.2,915.9 L219.4,914.2 Z" fill="#5a9540" stroke="none"/>
<path d="M-317.3,454.9 L-313.5,448.3 L-308.4,443.0 L-304.6,437.4 L-295.9,430.9 L-289.7,428.7 L-283.5,427.7 L-276.4,427.8 L-266.4,428.0 L-254.1,429.3 L-239.5,431.3 L-226.0,432.9 L-212.3,435.2 L-196.7,437.7 L-173.6,442.4 L-154.7,447.2 L-138.1,452.3 L-126.4,457.0 L-114.5,462.0 L-104.1,467.9 L-91.5,476.0 L-75.0,488.9 L-55.6,503.6 L-33.2,522.6 L-11.5,539.4 L0.6,549.9 L21.3,567.6 L47.2,591.7 L71.2,612.3 L88.5,627.0 L97.9,636.5 L101.2,644.4 L101.9,653.2 L99.8,662.2 L98.8,664.8 L95.2,668.9 L89.8,671.8 L84.4,673.4 L78.0,674.3 L70.6,673.3 L58.4,668.9 L38.9,658.7 L22.6,649.1 L-5.6,627.8 L-17.2,618.9 L-28.4,608.8 L-42.8,593.8 L-49.9,584.2 L-57.8,574.0 L-65.4,562.5 L-73.1,552.8 L-83.1,538.8 L-94.7,526.0 L-104.8,516.7 L-110.1,511.9 L-117.5,506.8 L-123.0,504.6 L-132.4,501.3 L-159.8,496.0 L-193.7,490.9 L-223.0,486.7 L-249.3,482.0 L-266.5,478.5 L-281.4,475.3 L-296.2,472.5 L-302.7,470.5 L-313.0,466.5 L-317.4,463.7 L-318.5,460.8 L-318.4,458.2 L-317.3,454.9 Z" fill="#5a9540" stroke="none"/>
<path d="M193.9,534.8 L192.7,534.1 L192.5,532.9 L192.6,531.7 L192.5,530.1 L192.7,529.3 L192.9,528.0 L193.9,527.4 L195.3,526.8 L196.3,527.1 L196.8,528.3 L196.7,529.8 L196.9,530.7 L197.0,532.6 L196.8,533.9 L195.7,535.0 L193.9,534.8 Z" fill="#5a9540" stroke="none"/>
<path d="M124.8,827.4 L151.3,781.8 L154.7,783.7 L128.2,829.4 L124.8,827.4 Z" fill="#5a9540" stroke="none"/>
<path d="M-55.9,323.3 L-55.1,320.3 L-53.0,317.7 L-50.7,316.5 L-49.1,314.9 L-47.9,313.8 L-44.9,314.1 L-40.9,315.5 L-38.2,317.8 L-37.6,320.8 L-38.1,323.2 L-39.6,324.2 L-41.6,323.9 L-42.8,324.8 L-42.7,326.3 L-41.1,328.7 L-38.8,330.3 L-37.8,332.7 L-37.7,334.8 L-39.0,337.2 L-40.4,339.2 L-42.7,341.3 L-45.6,342.6 L-47.6,340.9 L-49.0,338.5 L-48.9,336.6 L-48.8,334.9 L-50.0,332.8 L-51.4,331.0 L-53.0,330.2 L-54.7,329.1 L-56.1,326.3 L-55.9,323.3 Z" fill="#e7d6a3" stroke="none"/>
<path d="M8.8,368.9 L10.2,367.1 L12.8,365.6 L15.4,363.4 L16.5,362.1 L16.6,361.1 L16.0,359.5 L16.3,358.2 L17.9,357.1 L19.8,357.2 L22.1,359.0 L23.2,360.7 L24.5,363.3 L24.8,366.2 L24.5,368.9 L24.7,372.3 L26.6,375.9 L29.2,379.1 L30.2,381.0 L30.3,383.1 L29.7,384.8 L27.9,386.6 L26.1,387.4 L23.7,387.7 L22.0,387.4 L20.3,385.9 L19.8,384.6 L19.5,383.6 L18.3,382.8 L17.3,383.2 L16.7,383.8 L15.9,384.4 L13.9,384.3 L12.2,383.0 L10.9,381.4 L10.3,379.4 L10.1,377.7 L10.6,376.1 L10.6,375.0 L9.8,373.3 L8.6,372.5 L7.9,371.9 L7.5,370.8 L8.0,369.8 L8.8,368.9 Z" fill="#e7d6a3" stroke="none"/>
<path d="M-27.4,402.9 L-26.0,400.0 L-24.9,396.7 L-25.0,394.7 L-23.9,392.9 L-22.2,391.9 L-20.7,391.3 L-18.5,391.2 L-15.5,391.9 L-13.8,393.2 L-13.2,395.0 L-13.0,396.6 L-13.3,397.3 L-14.7,397.4 L-16.1,397.4 L-16.6,398.3 L-16.9,399.5 L-16.8,400.3 L-16.1,401.1 L-15.0,401.1 L-13.5,400.6 L-12.2,401.5 L-11.0,403.8 L-10.7,406.2 L-11.0,408.3 L-12.1,409.5 L-13.7,410.0 L-15.4,408.9 L-16.1,407.7 L-17.4,407.2 L-19.0,407.4 L-20.2,408.8 L-20.8,411.0 L-19.9,412.7 L-18.0,413.3 L-16.2,414.2 L-15.8,415.4 L-16.3,416.5 L-17.7,417.3 L-20.0,417.2 L-23.5,416.2 L-25.7,415.2 L-28.3,413.0 L-29.7,410.3 L-30.3,407.1 L-29.3,404.8 L-27.4,402.9 Z" fill="#e7d6a3" stroke="none"/>
<path d="M35.7,422.2 L36.1,420.6 L35.5,418.1 L35.3,416.3 L35.7,414.8 L36.9,414.1 L39.6,414.8 L40.9,415.7 L41.5,418.3 L42.3,421.4 L43.8,424.1 L44.1,426.8 L43.5,428.5 L41.3,429.5 L39.2,429.3 L37.3,428.4 L35.5,427.0 L35.0,424.6 L35.7,422.2 Z" fill="#e7d6a3" stroke="none"/>
<path d="M148.5,46.3 L149.3,43.7 L150.4,41.2 L152.1,39.5 L153.3,37.9 L154.4,35.4 L155.3,33.8 L157.6,32.2 L159.7,31.2 L161.9,31.8 L163.7,33.1 L164.5,35.2 L164.5,38.1 L163.5,40.5 L161.1,42.8 L158.7,45.5 L157.1,47.2 L156.6,49.5 L155.9,52.0 L155.2,54.0 L152.2,54.4 L149.6,53.3 L148.4,51.2 L148.4,48.8 L148.5,46.3 Z" fill="#e7d6a3" stroke="none"/>
<path d="M192.2,563.6 L192.0,560.1 L191.5,558.0 L191.0,556.3 L192.9,554.4 L196.5,553.3 L202.4,552.6 L204.4,553.6 L205.1,556.8 L206.0,558.7 L205.8,560.9 L206.2,563.1 L207.1,564.0 L208.1,565.8 L207.4,568.2 L205.3,570.1 L202.6,572.1 L199.8,572.4 L196.4,571.1 L194.8,569.1 L193.9,567.1 L192.9,566.0 L192.2,563.6 Z" fill="#e7d6a3" stroke="none"/>
<path d="M-67.9,784.7 L-65.9,782.9 L-63.6,781.7 L-60.6,781.3 L-57.9,781.9 L-55.3,782.9 L-53.9,784.9 L-51.6,788.1 L-50.6,790.3 L-49.8,792.7 L-48.6,795.3 L-48.5,798.0 L-49.0,800.3 L-50.0,803.0 L-51.6,805.8 L-53.5,807.0 L-55.6,807.5 L-57.3,808.7 L-59.6,810.0 L-61.5,811.1 L-64.6,810.8 L-66.7,809.1 L-68.9,807.1 L-71.7,805.7 L-73.4,803.6 L-75.4,800.0 L-76.0,797.0 L-75.7,793.7 L-74.8,791.7 L-72.7,789.1 L-70.4,786.7 L-67.9,784.7 Z" fill="#e7d6a3" stroke="none"/>
<path d="M-28.7,833.1 L-30.4,831.1 L-30.8,828.4 L-29.8,826.1 L-27.2,822.8 L-25.4,820.5 L-23.8,818.4 L-21.7,817.1 L-19.2,816.1 L-17.1,816.2 L-14.1,818.7 L-11.4,821.1 L-9.5,822.9 L-7.8,824.1 L-5.5,823.5 L-2.8,822.2 L0.0,822.8 L1.4,824.6 L2.2,826.1 L1.9,828.7 L2.2,830.5 L1.9,832.6 L-0.5,833.8 L-1.1,835.9 L-1.8,837.8 L-3.5,838.3 L-4.8,840.6 L-7.4,842.8 L-9.7,843.2 L-12.8,842.3 L-16.8,840.1 L-20.1,838.1 L-23.4,836.4 L-26.2,835.2 L-28.7,833.1 Z" fill="#e7d6a3" stroke="none"/>
<path d="M149.7,70.4 L147.4,69.4 L145.3,68.0 L144.2,66.1 L144.7,63.0 L146.3,61.7 L148.7,60.6 L151.7,60.1 L153.3,60.1 L154.6,61.2 L155.3,63.9 L155.5,66.3 L155.0,68.1 L153.2,70.2 L149.7,70.4 Z" fill="#e7d6a3" stroke="none"/>
<path d="M195.8,81.4 L193.8,79.6 L193.3,77.0 L194.5,74.5 L196.7,72.5 L199.4,70.4 L201.5,68.3 L203.6,66.6 L205.7,66.6 L207.6,68.6 L207.9,71.1 L206.4,73.5 L204.3,75.2 L202.0,77.8 L201.0,79.9 L198.5,81.7 L195.8,81.4 Z" fill="#e7d6a3" stroke="none"/>
<path d="M168.1,103.2 L165.5,104.0 L162.6,103.6 L160.9,102.0 L159.2,99.2 L158.4,96.5 L160.7,92.2 L163.0,90.2 L165.3,87.6 L167.1,86.3 L169.2,84.5 L172.8,83.5 L175.0,83.8 L177.2,85.3 L179.4,85.0 L180.9,83.8 L181.7,81.6 L183.3,80.7 L186.1,81.6 L189.7,83.7 L192.1,86.6 L193.5,89.7 L193.6,93.3 L192.0,96.5 L191.3,99.9 L189.7,103.0 L188.1,105.9 L184.9,109.1 L182.0,110.4 L179.2,111.4 L176.4,110.9 L174.5,108.7 L172.8,105.6 L172.2,103.7 L170.5,102.5 L168.1,103.2 Z" fill="#e7d6a3" stroke="none"/>
<path d="M196.4,456.2 L193.2,457.1 L189.5,456.2 L187.6,454.0 L186.9,450.3 L187.8,445.8 L189.7,444.1 L192.7,441.7 L195.8,439.3 L197.3,436.1 L199.0,433.1 L202.3,431.8 L204.2,430.9 L207.2,431.8 L209.0,433.7 L210.0,437.2 L210.7,441.1 L210.0,444.3 L209.8,447.3 L210.9,449.1 L210.9,452.1 L208.7,454.5 L205.1,455.3 L202.7,454.2 L199.7,454.0 L196.4,456.2 Z" fill="#e7d6a3" stroke="none"/>
<path d="M178.4,473.3 L177.2,475.2 L176.4,477.3 L176.0,478.9 L175.1,479.8 L173.6,481.1 L171.5,482.0 L169.5,481.2 L167.7,480.6 L164.9,480.7 L163.6,482.2 L162.5,484.1 L161.5,487.6 L161.4,489.4 L162.0,492.2 L163.0,494.3 L164.1,495.7 L166.2,496.8 L169.5,497.1 L171.3,495.9 L173.0,494.5 L175.6,493.8 L177.7,493.8 L180.1,493.2 L182.9,491.6 L185.2,488.8 L186.1,486.6 L185.3,484.8 L184.8,482.9 L184.3,480.2 L184.1,475.8 L183.2,473.9 L181.8,473.1 L179.9,472.6 L178.4,473.3 Z" fill="#e7d6a3" stroke="none"/>
<path d="M227.1,672.5 L227.2,675.0 L229.4,677.1 L231.4,677.6 L232.3,678.3 L232.9,679.4 L232.7,682.4 L234.7,684.8 L236.7,685.7 L239.4,685.0 L240.8,684.4 L240.2,681.0 L238.9,679.1 L239.4,677.5 L238.8,673.9 L237.8,672.4 L235.9,671.9 L234.0,670.7 L232.5,670.3 L229.1,670.4 L227.1,672.5 Z" fill="#e7d6a3" stroke="none"/>
<path d="M247.1,685.5 L245.1,681.7 L245.0,678.7 L246.1,676.5 L245.9,673.4 L246.5,670.7 L248.2,669.7 L250.1,670.9 L251.4,673.3 L253.3,674.5 L255.0,673.5 L257.3,672.4 L259.6,672.3 L262.1,673.4 L263.7,674.8 L264.4,678.4 L263.7,680.9 L264.1,683.6 L264.1,684.4 L263.4,685.4 L261.4,686.0 L259.4,686.9 L259.4,689.4 L258.9,690.9 L257.8,691.2 L257.0,690.9 L255.4,689.0 L253.1,688.0 L251.2,687.3 L249.0,687.1 L247.1,685.5 Z" fill="#e7d6a3" stroke="none"/>
<path d="M208.2,705.4 L205.5,703.7 L204.7,701.1 L204.7,698.0 L204.0,695.3 L202.8,693.9 L200.9,693.9 L199.6,692.9 L199.2,690.5 L200.2,688.2 L201.7,687.2 L203.7,686.8 L206.1,686.9 L207.6,688.3 L208.9,690.1 L209.6,692.4 L211.1,693.5 L212.6,694.6 L214.6,696.2 L215.3,698.4 L214.5,701.8 L213.1,703.6 L210.4,705.4 L208.2,705.4 Z" fill="#e7d6a3" stroke="none"/>
<path d="M219.1,735.6 L217.8,735.0 L216.5,732.9 L214.8,731.2 L213.4,728.6 L213.7,726.0 L215.2,723.7 L217.0,722.4 L218.4,723.2 L219.6,725.4 L219.6,727.6 L219.4,729.5 L220.8,730.9 L221.5,732.6 L221.2,734.4 L219.1,735.6 Z" fill="#e7d6a3" stroke="none"/>
<path d="M252.9,720.3 L252.1,719.5 L251.1,716.7 L249.8,713.3 L248.2,710.3 L247.1,708.0 L247.7,705.2 L249.5,703.2 L251.3,702.7 L252.9,702.6 L254.8,703.3 L256.0,704.8 L256.5,706.5 L257.8,707.4 L260.0,709.0 L261.4,710.6 L261.2,712.7 L260.3,713.8 L259.5,715.6 L258.9,717.4 L257.7,718.3 L256.2,719.4 L252.9,720.3 Z" fill="#e7d6a3" stroke="none"/>
<path d="M234.8,824.6 L243.6,815.3 L261.8,832.1 L253.8,841.5 L234.8,824.6 Z" fill="#4f8a3e" stroke="none"/>
<path d="M218.0,791.9 L238.5,810.5 L245.2,803.3 L224.8,784.6 L218.0,791.9 Z" fill="#4f8a3e" stroke="none"/>
<path d="M194.6,770.2 L207.7,782.0 L214.5,774.3 L201.4,762.6 L194.6,770.2 Z" fill="#4f8a3e" stroke="none"/>
<path d="M51.4,365.2 L71.4,313.8 L83.5,318.7 L64.5,370.4 L51.4,365.2 Z" fill="#4f8a3e" stroke="none"/>
<path d="M74.9,243.2 L66.6,257.9 L58.9,253.5 L67.2,238.8 L74.9,243.2 Z" fill="#4f8a3e" stroke="none"/>
<path d="M227.5,110.0 L236.0,72.6 L251.1,77.5 L242.6,114.2 L227.5,110.0 Z" fill="#4f8a3e" stroke="none"/>
<path d="M141.9,706.3 L149.2,697.4 L160.3,706.4 L152.9,715.4 L141.9,706.3 Z" fill="#4f8a3e" stroke="none"/>
<path d="M43.1,401.5 L56.0,405.6 L62.6,385.2 L49.7,381.0 L43.1,401.5 Z" fill="#4f8a3e" stroke="none"/>
<path d="M254.3,852.4 L260.6,845.7 L274.9,859.1 L268.6,865.8 L254.3,852.4 Z" fill="#4f8a3e" stroke="none"/>
<path d="M-4.6,401.7 L-7.9,413.0 L-9.2,420.3 L-9.1,424.1 L-8.1,428.2 L-5.6,434.5 L-2.4,441.2 L4.0,450.2 L7.0,455.7 L13.0,462.0 L17.9,463.3 L23.0,462.5 L27.8,461.0 L32.1,457.6 L34.3,453.9 L34.5,449.5 L32.3,440.6 L30.1,431.6 L30.2,423.5 L31.5,416.5 L32.6,411.3 L32.2,406.0 L29.0,400.7 L24.5,397.5 L19.5,395.7 L15.9,394.3 L8.3,392.3 L1.0,394.3 L-2.6,397.7 L-4.6,401.7 Z" fill="#2f7825" stroke="none"/>
<path d="M242.0,695.8 L243.2,699.0 L243.4,704.5 L244.1,715.8 L244.3,724.9 L243.2,728.8 L240.6,732.7 L236.8,735.4 L232.1,736.2 L228.7,734.1 L226.4,731.1 L224.6,725.8 L222.8,716.4 L221.5,709.7 L220.6,705.3 L220.4,699.0 L221.3,694.0 L224.6,689.5 L228.8,688.4 L234.3,689.3 L238.6,691.9 L241.0,693.8 L242.0,695.8 Z" fill="#2f7825" stroke="none"/>
<path d="M179.2,33.6 L188.9,32.3 L195.4,33.7 L201.0,36.7 L205.3,40.6 L207.6,46.2 L208.0,52.2 L206.4,58.5 L202.8,64.0 L198.7,67.6 L193.6,71.9 L188.4,75.2 L182.5,77.5 L177.1,79.2 L170.9,80.1 L166.1,79.6 L161.4,77.0 L157.9,72.1 L157.0,68.5 L157.1,65.0 L157.4,58.0 L158.5,53.6 L159.9,50.1 L163.7,44.0 L168.7,38.8 L173.6,35.5 L179.2,33.6 Z" fill="#2f7825" stroke="none"/>
<path d="M240.7,88.4 L152.0,535.1 L232.6,711.6" fill="none" stroke="#ffd64a" stroke-width="3.5" stroke-linecap="round" stroke-linejoin="round" opacity="0.95"/>
</svg>