<svg xmlns="http://www.w3.org/2000/svg" viewBox="0 0 800 800" preserveAspectRatio="xMidYMid meet">
<rect width="100%" height="100%" fill="#143018"/>
<path d="M532.4,613.1 L267.6,186.9" fill="none" stroke="#4e8b39" stroke-width="140.0" stroke-linecap="round" stroke-linejoin="round" opacity="0.85"/>
<path d="M233.8,159.3 L230.3,161.6 L226.8,163.1 L223.3,164.0 L219.7,164.4 L216.3,163.9 L212.0,162.9 L208.3,161.8 L204.4,160.8 L201.2,159.8 L198.6,158.2 L196.0,157.0 L193.0,155.7 L190.3,153.8 L187.4,152.4 L183.6,150.8 L180.1,149.5 L176.5,148.3 L172.9,147.2 L169.6,146.1 L166.6,145.1 L163.9,144.4 L160.9,143.9 L158.2,143.8 L155.0,143.9 L152.2,143.9 L149.2,144.1 L146.1,144.6 L143.0,145.1 L139.2,145.8 L135.6,146.3 L132.0,146.9 L128.8,147.4 L125.7,148.3 L122.2,149.5 L118.3,150.8 L114.9,152.2 L112.1,153.5 L109.6,155.4 L107.5,157.6 L106.9,160.7 L106.6,164.1 L106.6,166.9 L107.7,169.2 L109.2,171.1 L110.9,172.6 L112.8,173.9 L115.5,174.6 L117.7,174.8 L120.9,174.2 L123.1,173.3 L124.9,171.3 L126.6,169.3 L128.3,167.5 L130.4,165.3 L133.0,163.4 L135.4,161.7 L139.2,159.7 L142.9,158.0 L146.5,156.4 L149.7,155.3 L152.9,154.4 L156.3,154.4 L160.2,154.9 L163.2,155.7 L166.3,156.6 L169.4,157.6 L172.7,158.6 L176.3,159.8 L180.2,161.0 L183.9,162.3 L187.1,163.7 L190.3,165.4 L194.3,167.6 L197.7,169.8 L200.4,171.7 L202.9,174.2 L205.6,177.2 L208.0,180.0 L210.2,182.3 L211.7,185.0 L214.4,187.8 L217.4,189.8 L220.6,191.7 L223.9,194.4 L225.9,197.2 L228.7,201.3 L227.1,194.2 L226.4,187.9 L226.7,181.9 L227.1,175.6 L229.3,167.5 L231.4,163.7 L233.8,159.3 Z" fill="#5a9540" stroke="none"/>
<path d="M670.8,292.6 L671.2,283.2 L676.1,273.3 L683.9,267.4 L690.1,259.2 L695.6,252.8 L700.4,245.4 L705.3,236.4 L711.8,227.8 L719.4,221.6 L725.8,219.8 L735.4,220.0 L742.8,223.9 L748.8,229.8 L753.5,239.9 L755.4,253.7 L753.5,266.6 L754.1,277.2 L757.0,289.8 L765.0,301.2 L773.8,313.8 L777.1,326.3 L778.8,335.0 L776.7,341.7 L770.4,346.8 L780.8,343.1 L789.5,338.1 L794.8,332.0 L796.0,321.3 L790.3,311.8 L782.1,304.4 L773.5,295.7 L765.7,283.3 L764.1,271.4 L767.4,260.2 L775.9,253.9 L783.3,247.5 L785.5,238.7 L785.4,228.0 L777.0,215.3 L767.7,204.2 L750.9,196.7 L734.4,190.8 L718.6,183.8 L708.3,171.9 L702.7,159.9 L698.6,151.2 L686.7,140.9 L673.0,131.0 L665.5,124.4 L655.8,109.8 L652.1,96.6 L651.7,84.0 L652.4,68.6 L654.0,51.9 L655.6,33.9 L657.0,19.3 L656.8,4.9 L654.2,-6.9 L649.2,-20.9 L642.6,-38.7 L632.7,-54.0 L622.3,-70.1 L609.0,-86.0 L589.4,-102.9 L570.9,-120.4 L547.4,-141.6 L514.1,-168.3 L493.4,-184.2 L471.4,-201.9 L447.8,-220.8 L426.6,-239.4 L407.4,-257.7 L388.9,-277.5 L364.3,-302.9 L346.2,-321.4 L326.5,-343.4 L307.4,-366.1 L290.3,-387.1 L280.1,-404.0 L268.2,-424.0 L255.7,-444.0 L246.8,-457.9 L233.3,-478.0 L219.5,-507.5 L207.1,-529.2 L198.6,-547.9 L184.7,-573.4 L172.8,-596.5 L162.1,-618.0 L150.9,-637.4 L140.5,-658.9 L129.2,-678.3 L114.6,-693.2 L101.2,-708.0 L87.9,-718.3 L77.7,-723.8 L67.1,-726.8 L57.0,-727.5 L42.7,-726.8 L25.9,-720.2 L12.2,-713.6 L0.2,-701.9 L-4.5,-680.4 L2.9,-659.4 L9.9,-634.4 L23.6,-600.9 L41.9,-559.9 L58.7,-523.3 L80.9,-483.9 L99.2,-446.4 L116.4,-413.6 L139.8,-371.1 L159.7,-343.4 L188.2,-310.3 L219.0,-277.5 L250.2,-242.8 L284.1,-206.9 L308.3,-182.8 L330.2,-165.2 L357.1,-148.0 L374.6,-137.1 L386.7,-132.4 L400.0,-134.0 L416.3,-138.7 L438.6,-140.2 L459.6,-128.1 L458.9,-107.8 L453.4,-86.0 L456.5,-65.4 L467.0,-49.0 L482.7,-29.8 L500.6,-7.6 L522.4,17.7 L539.6,41.9 L557.5,66.9 L589.1,107.8 L617.6,148.0 L634.4,175.3 L649.9,198.6 L656.7,205.7 L666.3,208.1 L674.2,208.8 L682.3,211.8 L687.7,219.5 L687.2,228.3 L684.2,235.8 L681.8,240.0 L676.2,242.9 L670.2,245.4 L666.3,251.2 L664.6,258.7 L665.5,271.4 L668.2,285.4 L670.8,292.6 Z" fill="#5a9540" stroke="none"/>
<path d="M-310.1,582.7 L-324.5,592.0 L-342.0,611.0 L-362.0,632.6 L-376.5,653.2 L-378.0,687.7 L-358.4,712.4 L-331.7,741.7 L-303.9,775.2 L-251.4,830.3 L-225.6,842.6 L-206.1,839.0 L-196.3,819.4 L-188.1,793.7 L-176.3,769.5 L-159.3,753.1 L-126.8,752.0 L-106.8,745.3 L-93.9,730.9 L-94.4,718.1 L-109.3,698.0 L-122.7,672.3 L-136.1,645.5 L-150.0,618.8 L-161.8,593.0 L-169.6,578.6 L-180.4,569.3 L-198.9,566.8 L-216.9,567.8 L-230.3,574.0 L-245.7,575.5 L-268.9,575.5 L-287.4,577.1 L-310.1,582.7 Z" fill="#2e5577" stroke="none"/>
<path d="M-975.0,-1141.7 L-994.2,-1136.2 L-1011.3,-1128.1 L-1027.3,-1118.7 L-1034.3,-1104.7 L-1031.6,-1083.6 L-1018.3,-1050.9 L-1003.5,-1023.2 L-986.0,-988.8 L-967.3,-957.2 L-946.6,-922.9 L-915.0,-874.1 L-885.3,-832.8 L-854.9,-786.8 L-828.8,-750.1 L-797.2,-709.6 L-772.2,-679.9 L-746.9,-653.0 L-734.8,-640.9 L-724.6,-628.4 L-718.8,-606.2 L-715.3,-584.7 L-716.0,-557.4 L-705.1,-523.5 L-691.1,-485.7 L-676.3,-455.3 L-664.2,-424.8 L-660.3,-397.9 L-661.5,-362.8 L-664.6,-325.8 L-668.1,-284.4 L-667.7,-249.7 L-673.9,-223.6 L-681.4,-189.6 L-695.4,-159.6 L-699.7,-137.4 L-691.5,-95.6 L-682.9,-60.6 L-673.9,-16.1 L-663.0,36.6 L-650.9,79.9 L-635.3,120.8 L-618.6,157.1 L-604.1,190.3 L-585.0,229.2 L-562.8,267.9 L-537.0,304.1 L-515.6,331.8 L-491.0,360.3 L-472.3,386.8 L-450.8,409.1 L-436.0,423.5 L-409.9,426.2 L-369.7,418.0 L-334.6,402.0 L-310.8,390.3 L-282.3,372.4 L-263.2,350.5 L-259.7,327.1 L-254.7,309.6 L-243.3,292.8 L-221.1,277.6 L-188.3,257.3 L-161.1,240.6 L-136.5,224.2 L-119.7,207.8 L-112.3,191.4 L-115.4,170.0 L-123.2,150.9 L-131.4,128.2 L-143.9,96.3 L-151.3,76.4 L-156.4,58.8 L-159.5,48.7 L-154.8,34.2 L-149.4,16.3 L-154.8,-0.9 L-164.5,-23.1 L-169.5,-39.7 L-176.5,-60.0 L-185.7,-81.9 L-194.7,-105.0 L-201.2,-122.8 L-202.2,-137.2 L-202.5,-155.5 L-208.9,-171.5 L-220.0,-196.4 L-229.2,-217.8 L-240.6,-242.7 L-250.6,-266.9 L-258.0,-287.3 L-268.9,-310.7 L-277.9,-330.5 L-295.9,-368.0 L-304.9,-386.7 L-316.1,-409.4 L-327.8,-432.9 L-338.1,-452.7 L-350.6,-476.4 L-361.3,-498.9 L-372.2,-521.9 L-384.9,-546.4 L-399.5,-573.7 L-410.8,-595.4 L-426.6,-626.0 L-440.5,-651.9 L-457.2,-678.3 L-478.9,-710.7 L-498.0,-739.7 L-516.5,-763.1 L-539.2,-790.8 L-568.4,-823.2 L-590.6,-847.6 L-614.2,-872.9 L-645.6,-905.7 L-672.0,-934.0 L-697.9,-959.9 L-724.6,-983.7 L-743.3,-998.9 L-761.5,-1012.3 L-783.7,-1028.7 L-805.0,-1043.7 L-827.8,-1060.3 L-853.9,-1076.7 L-876.3,-1092.1 L-900.7,-1106.9 L-922.7,-1119.2 L-942.1,-1127.8 L-955.3,-1134.2 L-975.0,-1141.7 Z" fill="#2e5577" stroke="none"/>
<path d="M308.8,204.7 L312.7,204.1 L314.8,200.7 L314.3,197.8 L311.8,195.7 L308.8,195.4 L306.4,197.2 L305.4,200.1 L305.7,202.8 L308.8,204.7 Z" fill="#e7d6a3" stroke="none"/>
<path d="M697.5,49.2 L681.5,51.8 L671.1,55.4 L664.0,63.7 L658.7,77.6 L657.5,91.7 L662.9,107.4 L674.7,120.1 L687.4,126.9 L702.2,129.9 L722.5,124.0 L735.9,121.9 L749.5,118.1 L756.3,107.7 L755.1,94.7 L750.9,81.4 L745.6,69.3 L738.8,61.9 L725.8,54.5 L713.1,50.0 L697.5,49.2 Z" fill="#e7d6a3" stroke="none"/>
<path d="M733.6,138.7 L727.9,140.0 L724.2,146.7 L724.0,154.1 L729.6,160.1 L738.1,161.9 L744.9,155.8 L745.3,148.4 L741.5,141.6 L733.6,138.7 Z" fill="#e7d6a3" stroke="none"/>
<path d="M667.1,211.9 L664.1,213.6 L660.9,218.4 L661.0,225.1 L662.8,230.3 L665.8,234.7 L672.5,236.6 L678.5,233.7 L679.7,227.6 L678.6,221.2 L676.3,215.7 L672.2,211.8 L667.1,211.9 Z" fill="#e7d6a3" stroke="none"/>
<path d="M776.6,263.1 L773.1,264.3 L771.3,267.4 L771.1,270.7 L773.5,273.7 L777.5,273.8 L780.7,271.6 L782.2,268.7 L782.0,266.5 L779.2,264.3 L776.6,263.1 Z" fill="#e7d6a3" stroke="none"/>
<path d="M802.2,277.0 L799.5,280.0 L799.0,284.5 L801.3,287.7 L804.8,289.3 L809.0,287.8 L810.4,284.2 L809.8,280.1 L808.4,277.3 L805.8,276.7 L802.2,277.0 Z" fill="#e7d6a3" stroke="none"/>
<path d="M510.4,579.0 L515.5,572.8 L520.7,565.8 L525.6,561.7 L530.2,558.1 L533.5,557.6 L537.9,559.4 L541.0,562.0 L544.3,565.1 L546.7,568.1 L550.8,569.4 L553.8,572.0 L559.0,575.6 L563.9,579.7 L567.8,583.9 L570.8,588.5 L574.2,594.2 L576.3,601.6 L576.0,608.5 L575.0,613.7 L572.9,619.6 L569.8,625.0 L564.4,630.4 L560.0,634.8 L552.6,638.7 L542.5,642.8 L527.1,645.9 L517.1,646.4 L507.5,645.6 L501.6,644.3 L493.9,641.5 L485.9,637.4 L480.5,633.5 L477.2,626.8 L475.9,620.9 L477.7,614.0 L480.8,609.6 L485.4,607.8 L490.6,606.0 L496.0,601.6 L499.8,596.7 L503.2,591.9 L506.8,585.9 L510.4,579.0 Z" fill="#4f8a3e" stroke="none"/>
<path d="M273.9,449.0 L269.5,449.8 L265.9,451.6 L261.8,455.2 L259.5,459.3 L257.7,463.9 L257.4,468.8 L258.5,474.0 L260.2,479.4 L262.3,483.5 L265.4,487.6 L269.0,492.0 L273.4,495.1 L276.3,497.1 L278.8,498.9 L284.5,502.5 L290.9,504.3 L297.8,506.9 L303.2,509.5 L308.4,511.3 L313.3,513.1 L318.1,515.9 L322.8,519.0 L325.6,521.8 L328.4,524.9 L331.5,528.3 L334.6,532.4 L336.9,537.0 L338.8,542.7 L340.8,549.4 L342.1,555.0 L343.9,561.7 L344.9,566.9 L346.2,572.3 L347.2,576.9 L348.8,581.3 L351.3,585.1 L354.7,589.3 L357.8,592.9 L361.6,596.7 L366.0,601.4 L370.1,606.8 L374.2,610.9 L378.4,615.3 L382.0,619.1 L386.1,624.0 L390.4,628.6 L394.8,633.3 L398.7,638.2 L402.6,642.5 L406.1,646.1 L411.8,650.5 L416.7,652.8 L422.9,655.7 L428.6,657.7 L433.2,659.0 L438.3,660.3 L443.5,661.8 L449.1,662.8 L455.1,663.1 L461.5,662.6 L467.2,661.1 L473.1,659.0 L476.7,654.9 L478.2,648.7 L477.9,642.3 L475.6,637.1 L471.5,631.5 L467.7,625.3 L461.7,620.7 L455.6,617.1 L448.9,614.7 L441.1,612.1 L436.0,610.6 L430.4,606.8 L424.9,601.1 L419.3,594.9 L413.9,589.0 L408.5,582.0 L404.4,574.8 L400.2,567.9 L396.9,559.9 L394.3,553.2 L390.4,546.6 L386.9,540.1 L383.3,534.4 L379.1,529.3 L374.5,523.4 L367.8,517.2 L359.3,509.8 L351.3,504.1 L342.1,495.9 L332.8,488.9 L323.8,481.7 L315.8,475.3 L307.6,469.1 L299.6,462.4 L292.2,456.7 L286.5,452.6 L280.1,450.3 L273.9,449.0 Z" fill="#4f8a3e" stroke="none"/>
<path d="M-102.6,153.6 L-107.2,159.8 L-106.9,173.7 L-103.9,184.0 L-100.3,197.4 L-95.1,211.8 L-89.4,227.0 L-83.5,243.9 L-78.1,256.5 L-72.2,260.4 L-62.2,260.7 L-58.3,256.0 L-55.8,248.6 L-57.8,240.3 L-62.2,226.2 L-68.6,210.5 L-74.3,194.3 L-79.7,178.3 L-83.0,166.0 L-87.6,157.8 L-94.6,152.3 L-102.6,153.6 Z" fill="#4f8a3e" stroke="none"/>
<path d="M-137.1,57.4 L-143.2,64.1 L-143.2,76.1 L-138.9,89.3 L-134.0,102.9 L-126.8,117.6 L-122.9,128.1 L-116.0,135.9 L-108.5,137.4 L-102.3,133.3 L-100.0,126.9 L-102.1,116.8 L-106.7,104.2 L-111.1,92.1 L-115.2,80.5 L-119.6,69.2 L-123.7,59.9 L-129.1,56.9 L-137.1,57.4 Z" fill="#4f8a3e" stroke="none"/>
<path d="M296.1,202.1 L296.8,198.8 L298.1,195.3 L299.3,193.1 L301.9,190.8 L306.3,188.4 L311.5,185.2 L314.2,181.8 L317.1,177.8 L318.9,173.5 L319.4,169.7 L318.7,165.3 L316.6,159.4 L313.4,153.0 L309.4,146.6 L304.3,141.2 L300.1,137.9 L294.9,136.1 L289.1,135.0 L279.5,135.3 L271.4,136.8 L264.2,138.6 L255.2,141.8 L248.1,145.6 L243.2,149.9 L238.3,154.8 L233.8,159.3 L231.4,163.7 L229.3,167.5 L227.1,175.6 L226.7,181.9 L226.4,187.9 L227.1,194.2 L228.7,201.3 L229.8,205.4 L233.6,214.6 L237.8,220.5 L241.2,224.5 L244.4,227.0 L249.8,230.8 L255.8,234.1 L263.1,236.5 L271.6,237.7 L279.7,237.8 L286.6,236.4 L292.2,234.1 L295.4,230.4 L298.2,225.7 L298.9,218.5 L298.5,214.6 L297.1,210.0 L296.3,206.2 L296.1,202.1 Z" fill="#2f7825" stroke="none"/>
<path d="M725.8,219.8 L719.4,221.6 L711.8,227.8 L705.3,236.4 L700.4,245.4 L695.6,252.8 L690.1,259.2 L683.9,267.4 L676.1,273.3 L671.2,283.2 L670.8,292.6 L675.8,305.1 L678.6,311.5 L685.2,321.9 L694.9,332.0 L705.9,339.2 L715.4,344.9 L729.7,352.0 L745.0,353.8 L756.5,351.4 L770.4,346.8 L776.7,341.7 L778.8,335.0 L777.1,326.3 L773.8,313.8 L765.0,301.2 L757.0,289.8 L754.1,277.2 L753.5,266.6 L755.4,253.7 L753.5,239.9 L748.8,229.8 L742.8,223.9 L735.4,220.0 L725.8,219.8 Z" fill="#2f7825" stroke="none"/>
<path d="M532.4,613.1 L267.6,186.9" fill="none" stroke="#ffd64a" stroke-width="3.5" stroke-linecap="round" stroke-linejoin="round" opacity="0.95"/>
</svg>