<svg xmlns="http://www.w3.org/2000/svg" viewBox="0 0 800 600" preserveAspectRatio="xMidYMid slice">
<rect width="100%" height="100%" fill="#143018"/>
<path d="M-29.7,602.8 L-40.8,595.6 L-53.6,594.2 L-64.4,599.4 L-75.0,606.2 L-88.4,611.0 L-100.1,612.2 L-104.1,620.7 L-114.0,627.9 L-125.6,629.2 L-111.2,657.5 L-91.5,651.2 L-72.7,646.1 L-57.3,648.7 L-34.8,644.4 L-8.9,639.5 L0.5,632.7 L10.8,625.3 L22.5,621.0 L40.7,617.3 L57.3,616.4 L68.4,617.3 L80.6,621.9 L94.0,626.7 L110.0,627.0 L116.9,625.3 L119.7,620.2 L123.1,611.3 L128.0,604.8 L139.1,603.1 L147.6,607.3 L154.8,615.3 L159.9,622.4 L180.1,618.7 L212.1,616.2 L235.4,611.3 L255.4,602.8 L265.4,593.4 L273.3,587.4 L291.0,579.7 L302.4,580.2 L307.8,572.8 L312.4,563.4 L316.4,559.2 L328.9,561.7 L322.4,532.6 L295.9,514.7 L290.7,530.4 L285.0,545.8 L274.2,549.2 L267.1,542.3 L257.1,537.2 L250.8,530.9 L250.8,522.1 L242.6,515.8 L244.3,508.4 L230.3,506.7 L208.6,522.4 L195.5,528.1 L177.3,530.6 L163.6,534.1 L149.1,540.1 L141.6,543.0 L112.1,562.8 L77.5,571.4 L67.5,575.7 L65.3,583.1 L53.0,586.5 L38.5,591.9 L19.1,596.5 L3.1,601.1 L-10.0,603.6 L-22.8,605.6 L-29.7,602.8 Z" fill="#2b5a2a" stroke="none"/>
<path d="M763.8,127.0 L756.6,140.3 L752.3,149.1 L751.4,153.3 L751.7,157.0 L754.3,170.1 L755.4,173.8 L757.3,177.0 L759.7,179.5 L767.7,183.7 L771.2,184.9 L775.5,185.3 L780.0,184.3 L785.5,182.2 L789.0,179.8 L795.0,174.5 L797.9,170.1 L799.7,166.9 L800.6,162.3 L800.7,156.8 L799.7,152.0 L798.2,148.7 L796.4,146.0 L793.7,143.1 L790.6,140.5 L787.4,138.5 L783.7,137.2 L780.5,135.9 L777.7,134.3 L775.0,132.2 L773.7,129.7 L772.0,127.2 L770.8,126.0 L769.5,125.1 L768.2,124.5 L767.1,124.5 L765.6,124.9 L764.6,125.7 L763.8,127.0 Z" fill="#2b5a2a" stroke="none"/>
<path d="M340.0,214.0 L338.7,214.8 L337.5,215.4 L336.2,215.7 L334.9,215.9 L333.7,215.7 L332.2,215.3 L330.8,214.9 L329.5,214.6 L328.3,214.2 L327.4,213.7 L326.5,213.2 L325.4,212.7 L324.4,212.1 L323.4,211.6 L322.0,211.0 L320.8,210.5 L319.5,210.1 L318.2,209.7 L317.0,209.3 L316.0,209.0 L315.0,208.7 L313.9,208.6 L313.0,208.5 L311.8,208.6 L310.8,208.6 L309.7,208.6 L308.7,208.8 L307.5,209.0 L306.2,209.2 L304.9,209.4 L303.6,209.6 L302.4,209.8 L301.3,210.1 L300.1,210.5 L298.7,211.0 L297.5,211.5 L296.5,212.0 L295.6,212.6 L294.9,213.4 L294.6,214.5 L294.5,215.8 L294.5,216.7 L294.9,217.6 L295.5,218.3 L296.1,218.8 L296.7,219.3 L297.7,219.5 L298.5,219.6 L299.6,219.4 L300.4,219.0 L301.1,218.3 L301.7,217.6 L302.3,217.0 L303.0,216.2 L304.0,215.5 L304.8,214.9 L306.2,214.2 L307.5,213.6 L308.8,213.0 L309.9,212.6 L311.1,212.3 L312.3,212.3 L313.7,212.5 L314.8,212.7 L315.9,213.1 L316.9,213.4 L318.1,213.8 L319.4,214.2 L320.8,214.6 L322.1,215.1 L323.3,215.6 L324.4,216.2 L325.9,217.0 L327.1,217.8 L328.0,218.5 L328.9,219.4 L329.9,220.4 L330.7,221.4 L331.5,222.3 L332.1,223.2 L333.0,224.2 L334.1,224.9 L335.2,225.6 L336.4,226.6 L337.1,227.6 L338.1,229.0 L337.6,226.5 L337.3,224.2 L337.4,222.1 L337.6,219.9 L338.4,217.0 L339.1,215.6 L340.0,214.0 Z" fill="#5a9540" stroke="none"/>
<path d="M-98.4,98.5 L-104.9,98.1 L-113.0,100.2 L-116.1,106.0 L-116.8,116.0 L-114.4,129.2 L-111.7,141.0 L-106.9,154.4 L-97.7,166.7 L-85.9,182.1 L-73.2,200.0 L-59.8,216.9 L-48.2,232.1 L-35.4,247.0 L-15.9,265.6 L-2.7,281.7 L10.4,297.7 L19.8,310.6 L27.8,320.3 L37.4,329.5 L47.0,331.6 L55.1,328.4 L58.9,323.1 L60.7,315.4 L57.3,306.4 L48.4,293.1 L38.9,279.0 L28.8,265.4 L22.1,253.6 L17.7,245.4 L14.8,237.6 L14.2,227.7 L12.8,219.1 L8.7,211.0 L3.2,202.2 L-2.7,192.8 L-6.5,184.3 L-17.6,174.2 L-28.0,165.0 L-37.6,158.2 L-46.0,154.6 L-54.1,151.8 L-60.7,147.5 L-64.7,142.7 L-66.2,134.8 L-67.3,127.4 L-69.9,121.2 L-73.1,116.5 L-77.7,112.2 L-84.2,105.9 L-89.4,102.2 L-92.3,100.6 L-98.4,98.5 Z" fill="#5a9540" stroke="none"/>
<path d="M441.5,-138.6 L438.9,-137.8 L436.2,-136.7 L433.9,-134.7 L431.4,-132.4 L429.2,-129.1 L427.3,-125.0 L426.0,-120.8 L425.3,-116.6 L424.9,-112.4 L426.1,-105.1 L428.9,-97.4 L432.1,-90.3 L435.5,-83.3 L440.4,-76.0 L446.2,-69.2 L453.0,-60.4 L459.3,-53.7 L465.1,-47.5 L473.3,-39.9 L482.2,-32.8 L490.7,-26.1 L498.9,-18.9 L508.2,-11.8 L514.9,-6.7 L521.5,-1.7 L527.1,1.6 L533.8,4.0 L537.5,4.9 L541.3,4.2 L544.9,1.8 L546.5,-2.4 L547.0,-5.6 L546.0,-11.6 L543.3,-17.3 L540.1,-22.6 L533.5,-31.5 L527.1,-38.9 L521.6,-46.4 L515.9,-53.0 L510.0,-59.9 L503.2,-67.6 L496.0,-76.2 L489.8,-83.5 L483.5,-91.2 L478.8,-96.3 L476.4,-99.9 L474.0,-104.2 L473.4,-107.1 L473.4,-109.9 L474.3,-115.5 L474.4,-119.0 L473.3,-122.9 L471.6,-126.2 L469.7,-128.6 L467.6,-131.3 L465.2,-133.8 L461.8,-136.1 L458.3,-138.0 L453.8,-139.2 L449.2,-139.4 L445.8,-139.3 L441.5,-138.6 Z" fill="#5a9540" stroke="none"/>
<path d="M496.0,261.6 L496.2,258.3 L497.9,254.7 L500.7,252.7 L502.9,249.7 L504.9,247.4 L506.6,244.8 L508.4,241.6 L510.7,238.5 L513.4,236.3 L515.7,235.7 L519.1,235.7 L521.7,237.1 L523.9,239.2 L525.6,242.8 L526.3,247.8 L525.6,252.4 L525.8,256.1 L526.8,260.7 L529.7,264.7 L532.8,269.2 L534.0,273.7 L534.6,276.8 L533.9,279.2 L531.6,281.0 L535.3,279.7 L538.4,277.9 L540.3,275.7 L540.8,271.9 L538.7,268.5 L535.8,265.8 L532.7,262.8 L529.9,258.3 L529.4,254.1 L530.5,250.1 L533.5,247.8 L536.2,245.5 L537.0,242.4 L536.9,238.6 L534.0,234.0 L530.6,230.1 L524.6,227.4 L518.8,225.3 L513.1,222.8 L509.4,218.5 L507.4,214.2 L506.0,211.2 L501.7,207.5 L496.8,203.9 L494.1,201.6 L490.7,196.4 L489.3,191.6 L489.2,187.1 L489.5,181.7 L490.0,175.7 L490.6,169.3 L491.1,164.0 L491.0,158.9 L490.1,154.7 L488.3,149.7 L486.0,143.3 L482.4,137.8 L478.7,132.1 L474.0,126.4 L467.0,120.4 L460.4,114.1 L452.0,106.6 L440.0,97.0 L432.7,91.4 L424.8,85.0 L416.4,78.3 L408.8,71.6 L402.0,65.1 L395.4,58.1 L386.6,48.9 L380.1,42.4 L373.1,34.5 L366.2,26.4 L360.1,18.9 L356.5,12.9 L352.2,5.7 L347.8,-1.4 L344.6,-6.4 L339.8,-13.6 L334.9,-24.1 L330.4,-31.9 L327.4,-38.5 L322.4,-47.6 L318.2,-55.9 L314.4,-63.6 L310.4,-70.5 L306.7,-78.2 L302.6,-85.1 L297.4,-90.4 L292.6,-95.7 L287.9,-99.4 L284.2,-101.3 L280.4,-102.4 L276.8,-102.7 L271.7,-102.4 L265.7,-100.1 L260.8,-97.7 L256.5,-93.5 L254.8,-85.9 L257.5,-78.4 L260.0,-69.4 L264.9,-57.5 L271.4,-42.8 L277.4,-29.7 L285.4,-15.7 L291.9,-2.3 L298.0,9.4 L306.4,24.6 L313.5,34.5 L323.7,46.3 L334.7,58.0 L345.8,70.4 L357.9,83.2 L366.6,91.9 L374.4,98.1 L384.0,104.3 L390.2,108.2 L394.6,109.8 L399.3,109.3 L405.2,107.6 L413.1,107.1 L420.6,111.4 L420.3,118.6 L418.4,126.4 L419.5,133.8 L423.3,139.7 L428.8,146.5 L435.2,154.4 L443.0,163.5 L449.2,172.1 L455.6,181.0 L466.9,195.7 L477.0,210.0 L483.0,219.7 L488.6,228.1 L491.0,230.6 L494.4,231.5 L497.2,231.7 L500.1,232.8 L502.1,235.5 L501.9,238.7 L500.8,241.3 L500.0,242.9 L498.0,243.9 L495.8,244.8 L494.4,246.9 L493.8,249.5 L494.1,254.1 L495.1,259.1 L496.0,261.6 Z" fill="#5a9540" stroke="none"/>
<path d="M145.7,365.3 L140.6,368.6 L134.3,375.4 L127.2,383.1 L122.0,390.4 L121.5,402.8 L128.4,411.6 L138.0,422.1 L147.9,434.0 L166.7,453.7 L175.9,458.1 L182.8,456.8 L186.3,449.8 L189.3,440.6 L193.5,432.0 L199.6,426.1 L211.2,425.7 L218.3,423.3 L222.9,418.2 L222.7,413.6 L217.4,406.4 L212.6,397.2 L207.8,387.7 L202.9,378.1 L198.7,368.9 L195.9,363.8 L192.0,360.5 L185.4,359.6 L179.0,359.9 L174.2,362.1 L168.7,362.7 L160.4,362.7 L153.8,363.2 L145.7,365.3 Z" fill="#2e5577" stroke="none"/>
<path d="M-91.8,-250.6 L-98.6,-248.7 L-104.7,-245.7 L-110.4,-242.4 L-113.0,-237.4 L-112.0,-229.9 L-107.2,-218.2 L-101.9,-208.3 L-95.7,-196.0 L-89.0,-184.7 L-81.6,-172.5 L-70.3,-155.1 L-59.7,-140.3 L-48.9,-123.8 L-39.5,-110.8 L-28.3,-96.3 L-19.3,-85.7 L-10.3,-76.1 L-6.0,-71.8 L-2.3,-67.3 L-0.3,-59.4 L1.0,-51.7 L0.7,-41.9 L4.6,-29.8 L9.6,-16.3 L14.9,-5.5 L19.2,5.4 L20.6,15.0 L20.2,27.6 L19.1,40.8 L17.9,55.6 L18.0,68.0 L15.8,77.3 L13.1,89.4 L8.1,100.1 L6.6,108.1 L9.5,123.0 L12.6,135.5 L15.8,151.4 L19.7,170.2 L24.0,185.7 L29.5,200.3 L35.5,213.2 L40.7,225.1 L47.5,239.0 L55.5,252.8 L64.7,265.8 L72.3,275.7 L81.1,285.8 L87.8,295.3 L95.4,303.2 L100.7,308.4 L110.1,309.4 L124.4,306.4 L137.0,300.7 L145.5,296.5 L155.6,290.1 L162.5,282.3 L163.7,274.0 L165.5,267.7 L169.6,261.7 L177.5,256.3 L189.2,249.1 L198.9,243.1 L207.7,237.2 L213.7,231.4 L216.4,225.5 L215.2,217.8 L212.5,211.0 L209.5,202.9 L205.1,191.5 L202.4,184.4 L200.6,178.1 L199.5,174.5 L201.2,169.4 L203.1,163.0 L201.2,156.8 L197.7,148.9 L195.9,143.0 L193.4,135.7 L190.1,127.9 L186.9,119.6 L184.6,113.3 L184.2,108.1 L184.1,101.6 L181.8,95.9 L177.9,87.0 L174.6,79.4 L170.5,70.5 L167.0,61.8 L164.3,54.5 L160.4,46.2 L157.2,39.1 L150.8,25.7 L147.6,19.0 L143.6,10.9 L139.4,2.5 L135.7,-4.5 L131.3,-13.0 L127.4,-21.0 L123.5,-29.2 L119.0,-38.0 L113.8,-47.8 L109.7,-55.5 L104.1,-66.4 L99.1,-75.7 L93.2,-85.1 L85.4,-96.7 L78.6,-107.0 L72.0,-115.4 L63.9,-125.3 L53.5,-136.8 L45.5,-145.6 L37.1,-154.6 L25.9,-166.3 L16.5,-176.4 L7.2,-185.7 L-2.3,-194.2 L-9.0,-199.6 L-15.5,-204.4 L-23.4,-210.3 L-31.0,-215.6 L-39.2,-221.5 L-48.5,-227.4 L-56.5,-232.9 L-65.2,-238.2 L-73.1,-242.6 L-80.0,-245.6 L-84.7,-247.9 L-91.8,-250.6 Z" fill="#2e5577" stroke="none"/>
<path d="M707.0,103.1 L710.2,107.1 L712.4,110.3 L713.0,112.3 L712.6,114.2 L712.0,116.5 L710.7,118.9 L709.5,121.3 L707.8,123.7 L705.4,125.2 L702.8,126.6 L698.5,128.4 L696.2,128.8 L693.7,128.9 L691.0,129.2 L688.3,129.0 L683.4,127.8 L678.5,126.7 L674.0,124.6 L669.7,121.8 L667.1,118.2 L667.1,116.4 L667.8,114.4 L671.3,110.6 L674.5,106.1 L675.7,102.8 L676.0,99.4 L675.3,97.2 L673.7,94.8 L660.4,80.8 L657.8,78.6 L656.5,77.9 L655.1,77.4 L652.0,77.2 L649.1,77.4 L646.1,78.0 L643.6,79.1 L641.5,79.1 L637.2,78.6 L632.8,77.3 L629.2,75.6 L624.8,73.9 L621.0,72.2 L614.8,69.1 L612.7,67.9 L610.3,66.4 L608.2,64.6 L605.3,62.2 L599.0,57.4 L598.1,55.3 L598.5,52.5 L599.8,50.5 L599.9,48.1 L598.7,45.7 L595.6,43.1 L592.6,41.0 L587.2,37.1 L581.1,31.2 L577.3,27.4 L574.7,23.9 L573.9,21.8 L573.3,19.3 L573.0,16.5 L573.0,12.7 L573.7,9.4 L575.7,5.8 L577.6,2.4 L580.4,0.4 L583.4,-0.9 L586.6,-1.3 L590.0,-1.1 L594.2,0.9 L597.5,3.8 L599.6,6.9 L601.3,9.2 L604.4,12.9 L605.5,14.7 L607.6,16.6 L609.3,18.0 L612.5,19.4 L614.9,20.6 L617.7,21.1 L623.2,24.7 L625.6,26.3 L632.0,32.5 L652.0,48.4 L657.0,52.6 L660.5,56.0 L662.9,59.0 L665.4,61.3 L669.2,64.8 L674.3,69.0 L680.5,74.2 L685.3,79.2 L688.5,83.0 L691.8,87.8 L694.3,91.3 L698.3,95.6 L700.8,98.7 L703.7,100.9 L707.0,103.1 Z" fill="#2e5577" stroke="none"/>
<path d="M366.7,230.3 L368.1,230.0 L368.9,228.8 L368.7,227.8 L367.8,227.0 L366.7,226.9 L365.9,227.6 L365.5,228.6 L365.7,229.6 L366.7,230.3 Z" fill="#e7d6a3" stroke="none"/>
<path d="M264.7,-32.3 L260.8,-35.6 L258.2,-33.5 L256.6,-29.2 L261.8,-8.0 L267.4,5.4 L276.1,14.5 L281.3,15.4 L283.3,13.4 L283.3,10.3 L277.0,3.8 L269.8,-8.6 L265.8,-21.4 L264.7,-32.3 Z" fill="#e7d6a3" stroke="none"/>
<path d="M9.1,188.5 L6.6,189.4 L4.4,193.1 L6.9,198.4 L10.9,204.1 L16.4,210.7 L19.8,218.2 L21.9,225.3 L21.4,232.5 L20.7,239.6 L24.2,246.5 L30.4,256.2 L38.4,265.8 L44.5,274.3 L50.6,282.8 L58.0,291.7 L63.7,298.4 L67.5,305.1 L70.1,312.5 L75.1,315.3 L78.8,313.7 L79.5,309.8 L77.9,305.1 L71.7,298.0 L64.6,288.8 L57.0,279.6 L49.2,269.9 L41.3,260.1 L35.5,249.4 L29.9,239.4 L26.5,228.6 L23.9,220.0 L21.0,212.5 L17.3,204.7 L15.0,198.7 L13.3,193.0 L12.2,189.9 L9.1,188.5 Z" fill="#e7d6a3" stroke="none"/>
<path d="M483.1,-120.0 L481.4,-119.3 L479.9,-118.5 L478.4,-117.1 L477.4,-115.8 L476.8,-114.1 L476.1,-112.1 L475.7,-109.5 L475.9,-107.1 L476.4,-105.5 L477.5,-102.9 L479.7,-99.6 L481.6,-96.9 L485.0,-92.3 L487.6,-89.1 L493.2,-81.9 L500.2,-74.1 L507.0,-66.5 L514.9,-57.6 L521.8,-49.0 L528.9,-40.3 L534.7,-33.0 L541.2,-24.2 L547.3,-15.7 L550.8,-10.9 L552.1,-9.9 L553.9,-9.1 L555.8,-9.0 L557.6,-9.1 L559.5,-9.4 L561.0,-10.4 L562.4,-11.7 L563.5,-13.0 L564.2,-15.0 L564.3,-16.4 L564.0,-17.7 L559.9,-23.2 L555.2,-29.9 L552.4,-33.6 L547.2,-39.9 L543.6,-44.3 L541.9,-47.0 L539.9,-49.5 L538.2,-52.2 L535.9,-56.4 L533.5,-59.9 L530.8,-63.5 L528.0,-67.3 L524.9,-71.9 L522.5,-75.0 L519.3,-79.0 L515.8,-83.0 L509.6,-89.8 L505.0,-94.9 L502.1,-98.1 L497.6,-103.4 L494.0,-108.4 L490.0,-113.8 L486.2,-118.9 L484.8,-119.8 L483.1,-120.0 Z" fill="#e7d6a3" stroke="none"/>
<path d="M505.5,174.7 L499.8,175.6 L496.1,176.9 L493.6,179.9 L491.7,184.8 L491.3,189.9 L493.2,195.5 L497.4,200.0 L502.0,202.5 L507.2,203.5 L514.5,201.4 L519.3,200.7 L524.1,199.3 L526.6,195.6 L526.1,191.0 L524.7,186.2 L522.7,181.9 L520.3,179.2 L515.7,176.6 L511.1,175.0 L505.5,174.7 Z" fill="#e7d6a3" stroke="none"/>
<path d="M518.4,206.7 L516.4,207.2 L515.1,209.5 L515.0,212.2 L517.0,214.3 L520.0,215.0 L522.5,212.8 L522.6,210.1 L521.3,207.7 L518.4,206.7 Z" fill="#e7d6a3" stroke="none"/>
<path d="M494.7,232.8 L493.6,233.4 L492.5,235.1 L492.5,237.5 L493.2,239.4 L494.2,241.0 L496.6,241.6 L498.8,240.6 L499.2,238.4 L498.8,236.1 L498.0,234.2 L496.5,232.8 L494.7,232.8 Z" fill="#e7d6a3" stroke="none"/>
<path d="M533.8,251.1 L532.6,251.5 L531.9,252.6 L531.8,253.8 L532.7,254.9 L534.1,254.9 L535.3,254.2 L535.8,253.1 L535.7,252.3 L534.7,251.5 L533.8,251.1 Z" fill="#e7d6a3" stroke="none"/>
<path d="M543.0,256.1 L542.0,257.1 L541.8,258.7 L542.6,259.9 L543.9,260.5 L545.4,259.9 L545.9,258.7 L545.7,257.2 L545.2,256.2 L544.2,255.9 L543.0,256.1 Z" fill="#e7d6a3" stroke="none"/>
<path d="M158.2,580.9 L157.0,580.8 L155.9,581.2 L155.0,582.3 L155.1,583.5 L155.6,584.7 L156.7,585.2 L157.7,585.1 L158.7,584.4 L159.4,583.5 L159.5,582.5 L159.1,581.5 L158.2,580.9 Z" fill="#e7d6a3" stroke="none"/>
<path d="M185.6,550.5 L182.0,551.5 L179.6,553.6 L178.2,556.9 L178.7,559.7 L179.8,561.0 L181.4,561.8 L184.2,560.8 L187.6,558.9 L190.7,556.8 L193.7,555.1 L196.8,553.2 L198.3,552.0 L198.1,549.8 L197.2,548.0 L195.0,547.2 L193.3,548.3 L192.0,549.5 L190.7,550.3 L188.5,550.5 L185.6,550.5 Z" fill="#e7d6a3" stroke="none"/>
<path d="M183.7,590.9 L181.0,591.5 L177.9,591.6 L175.7,591.4 L174.2,592.1 L173.5,593.6 L173.8,595.0 L175.6,595.7 L178.6,596.1 L181.8,596.2 L185.0,595.8 L187.7,594.4 L190.5,592.7 L192.6,590.4 L194.6,587.8 L195.3,585.5 L194.7,583.6 L192.9,583.2 L191.5,583.5 L190.6,584.5 L189.9,586.1 L189.2,587.8 L188.2,589.2 L185.9,590.3 L183.7,590.9 Z" fill="#e7d6a3" stroke="none"/>
<path d="M202.2,589.3 L200.6,588.8 L199.1,589.1 L198.2,590.0 L198.0,591.7 L199.2,592.9 L201.0,593.0 L202.3,592.8 L203.2,592.0 L203.3,590.9 L203.0,590.0 L202.2,589.3 Z" fill="#e7d6a3" stroke="none"/>
<path d="M222.1,585.9 L221.0,585.9 L220.1,586.6 L219.9,587.6 L220.4,588.6 L221.2,589.0 L222.6,588.8 L223.6,588.2 L223.8,587.2 L223.4,586.5 L222.9,586.1 L222.1,585.9 Z" fill="#e7d6a3" stroke="none"/>
<path d="M231.6,581.3 L230.7,581.6 L230.2,582.4 L230.3,583.2 L230.5,584.0 L231.3,584.4 L232.6,584.5 L233.3,583.7 L233.5,582.7 L233.2,582.0 L232.6,581.4 L231.6,581.3 Z" fill="#e7d6a3" stroke="none"/>
<path d="M237.9,566.4 L236.8,565.9 L235.5,566.2 L234.7,566.9 L234.6,568.0 L234.9,568.9 L235.5,569.5 L236.5,569.6 L237.8,569.5 L238.5,568.8 L238.5,567.5 L237.9,566.4 Z" fill="#e7d6a3" stroke="none"/>
<path d="M233.6,556.9 L232.3,557.2 L231.5,558.0 L231.1,559.3 L231.2,560.3 L231.8,561.2 L233.0,561.5 L234.2,560.9 L235.1,560.1 L235.6,558.5 L235.4,557.8 L234.9,557.3 L233.6,556.9 Z" fill="#e7d6a3" stroke="none"/>
<path d="M222.4,550.5 L220.6,551.0 L219.9,552.2 L220.1,553.7 L220.8,555.3 L222.0,556.9 L223.7,558.3 L226.4,559.1 L227.5,558.2 L227.6,557.0 L227.2,555.2 L226.5,553.5 L225.4,552.0 L224.8,551.2 L223.7,550.6 L222.4,550.5 Z" fill="#e7d6a3" stroke="none"/>
<path d="M230.2,549.0 L228.8,549.8 L228.8,550.9 L229.2,552.2 L230.0,553.4 L231.4,554.0 L232.6,553.7 L233.4,552.9 L233.5,551.7 L232.9,550.4 L232.1,549.7 L231.3,549.1 L230.2,549.0 Z" fill="#e7d6a3" stroke="none"/>
<path d="M438.7,363.9 L440.6,361.7 L442.4,359.2 L444.2,357.8 L445.8,356.5 L447.0,356.3 L448.6,356.9 L449.7,357.8 L450.9,359.0 L451.7,360.1 L453.2,360.5 L454.3,361.4 L456.1,362.7 L457.9,364.2 L459.2,365.7 L460.3,367.3 L461.5,369.3 L462.3,372.0 L462.2,374.5 L461.8,376.3 L461.1,378.4 L460.0,380.4 L458.0,382.3 L456.5,383.9 L453.8,385.2 L450.2,386.7 L444.7,387.8 L441.1,388.0 L437.7,387.7 L435.6,387.3 L432.9,386.2 L430.0,384.8 L428.1,383.4 L426.9,381.0 L426.4,378.9 L427.1,376.4 L428.2,374.8 L429.8,374.2 L431.7,373.6 L433.6,372.0 L435.0,370.3 L436.2,368.5 L437.4,366.4 L438.7,363.9 Z" fill="#4f8a3e" stroke="none"/>
<path d="M354.3,317.5 L352.7,317.8 L351.4,318.4 L350.0,319.7 L349.1,321.2 L348.5,322.8 L348.4,324.6 L348.8,326.4 L349.4,328.4 L350.1,329.8 L351.2,331.3 L352.5,332.9 L354.1,334.0 L355.1,334.7 L356.0,335.3 L358.0,336.6 L360.3,337.3 L362.8,338.2 L364.7,339.1 L366.6,339.8 L368.3,340.4 L370.1,341.4 L371.7,342.5 L372.8,343.5 L373.8,344.6 L374.9,345.8 L376.0,347.3 L376.8,348.9 L377.4,351.0 L378.2,353.3 L378.6,355.4 L379.3,357.8 L379.6,359.6 L380.1,361.5 L380.5,363.2 L381.0,364.7 L381.9,366.1 L383.1,367.6 L384.2,368.9 L385.6,370.3 L387.2,371.9 L388.7,373.8 L390.1,375.3 L391.6,376.9 L392.9,378.3 L394.3,380.0 L395.9,381.6 L397.5,383.3 L398.8,385.1 L400.2,386.6 L401.5,387.9 L403.5,389.5 L405.3,390.3 L407.5,391.3 L409.5,392.0 L411.2,392.5 L413.0,393.0 L414.8,393.5 L416.9,393.9 L419.0,394.0 L421.3,393.8 L423.3,393.2 L425.4,392.5 L426.7,391.0 L427.2,388.8 L427.2,386.5 L426.3,384.7 L424.9,382.7 L423.5,380.5 L421.4,378.8 L419.2,377.5 L416.8,376.7 L414.0,375.8 L412.2,375.2 L410.2,373.8 L408.2,371.8 L406.2,369.6 L404.3,367.5 L402.3,365.0 L400.9,362.4 L399.4,360.0 L398.2,357.1 L397.3,354.7 L395.9,352.3 L394.6,350.0 L393.3,348.0 L391.9,346.2 L390.2,344.1 L387.8,341.9 L384.8,339.2 L381.9,337.2 L378.6,334.2 L375.3,331.7 L372.1,329.2 L369.3,326.9 L366.3,324.7 L363.5,322.3 L360.8,320.3 L358.8,318.8 L356.5,318.0 L354.3,317.5 Z" fill="#4f8a3e" stroke="none"/>
<path d="M176.6,476.6 L173.6,477.6 L172.0,480.3 L171.9,483.2 L173.4,487.5 L176.4,491.9 L180.1,494.5 L183.8,496.1 L187.8,495.0 L190.0,492.2 L189.2,488.5 L186.9,484.9 L184.3,481.8 L181.3,478.1 L176.6,476.6 Z" fill="#4f8a3e" stroke="none"/>
<path d="M115.8,412.7 L112.6,413.8 L111.2,416.0 L112.2,420.6 L116.2,426.8 L120.5,432.2 L124.6,437.4 L131.1,444.5 L136.1,450.3 L140.8,456.3 L145.2,461.4 L148.6,465.3 L152.0,465.9 L154.3,463.8 L153.9,459.4 L151.6,455.4 L147.2,449.5 L143.0,443.6 L138.4,438.2 L133.6,432.4 L128.6,426.4 L124.7,421.2 L122.3,417.5 L119.5,414.4 L115.8,412.7 Z" fill="#4f8a3e" stroke="none"/>
<path d="M53.5,360.6 L51.7,362.2 L51.1,364.9 L52.1,368.1 L53.8,370.9 L55.4,372.5 L57.5,372.8 L59.7,371.9 L60.8,369.2 L60.1,366.5 L58.9,363.9 L57.5,362.1 L56.1,360.9 L53.5,360.6 Z" fill="#4f8a3e" stroke="none"/>
<path d="M651.3,82.1 L650.2,82.3 L649.2,82.7 L647.6,83.9 L646.3,85.2 L645.5,87.0 L645.4,88.8 L646.0,90.9 L647.2,92.9 L661.4,105.8 L662.9,106.2 L664.5,106.4 L665.8,106.2 L667.1,105.8 L669.9,103.3 L670.9,101.9 L671.1,100.4 L670.8,98.8 L670.5,97.6 L669.8,96.4 L655.7,82.7 L653.6,82.0 L652.4,82.0 L651.3,82.1 Z" fill="#4f8a3e" stroke="none"/>
<path d="M219.8,212.0 L218.2,214.2 L218.3,219.2 L219.4,222.9 L220.6,227.6 L222.5,232.8 L224.5,238.2 L226.6,244.3 L228.6,248.8 L230.7,250.1 L234.2,250.2 L235.6,248.6 L236.5,245.9 L235.8,243.0 L234.2,237.9 L232.0,232.3 L229.9,226.5 L228.0,220.8 L226.8,216.4 L225.2,213.5 L222.7,211.5 L219.8,212.0 Z" fill="#4f8a3e" stroke="none"/>
<path d="M207.5,177.6 L205.3,180.0 L205.3,184.3 L206.9,189.0 L208.6,193.9 L211.2,199.1 L212.6,202.9 L215.0,205.7 L217.7,206.2 L219.9,204.7 L220.7,202.4 L220.0,198.9 L218.3,194.4 L216.8,190.0 L215.3,185.9 L213.8,181.9 L212.3,178.6 L210.4,177.5 L207.5,177.6 Z" fill="#4f8a3e" stroke="none"/>
<path d="M193.3,114.0 L191.3,114.9 L189.9,116.6 L190.1,119.3 L193.6,128.9 L195.3,133.8 L196.6,138.0 L197.9,141.8 L199.8,147.1 L201.1,151.4 L203.0,154.6 L204.8,156.1 L206.9,156.3 L208.7,155.8 L210.5,153.7 L211.0,151.5 L210.0,147.7 L208.2,143.5 L206.7,139.1 L204.6,134.0 L202.8,128.8 L201.0,124.0 L199.5,119.8 L198.1,116.5 L197.0,115.1 L195.3,114.1 L193.3,114.0 Z" fill="#4f8a3e" stroke="none"/>
<path d="M179.2,67.7 L177.4,68.2 L175.8,69.9 L174.9,72.2 L175.6,75.0 L176.8,78.2 L178.5,82.1 L179.8,85.5 L181.2,89.0 L182.7,92.8 L184.8,94.9 L187.3,96.0 L189.9,94.8 L191.1,93.0 L191.2,90.0 L189.9,85.5 L188.5,81.9 L186.7,78.1 L185.6,74.8 L184.1,71.4 L182.7,68.9 L181.4,67.9 L179.2,67.7 Z" fill="#4f8a3e" stroke="none"/>
<path d="M746.7,132.2 L747.3,133.1 L747.8,133.9 L748.0,134.9 L748.2,136.0 L748.0,137.1 L747.6,138.1 L747.2,138.8 L746.3,139.5 L745.4,140.0 L744.4,140.2 L743.5,140.4 L742.2,140.3 L741.1,139.9 L739.4,138.7 L738.1,137.8 L737.3,137.1 L736.4,136.6 L735.1,135.9 L733.9,135.5 L732.5,135.1 L730.5,134.9 L729.1,134.9 L727.2,134.9 L725.4,135.1 L723.3,135.3 L720.6,135.4 L719.3,135.1 L718.1,134.5 L717.1,133.8 L716.1,132.6 L715.7,131.8 L715.4,130.7 L715.5,129.7 L715.9,128.4 L719.1,123.3 L720.4,121.7 L721.5,120.8 L722.3,120.4 L723.6,119.9 L724.7,119.7 L726.0,119.7 L727.6,120.1 L746.7,132.2 Z" fill="#4f8a3e" stroke="none"/>
<path d="M785.2,162.3 L785.9,163.2 L786.5,164.2 L786.9,165.7 L786.8,166.8 L786.5,168.0 L785.8,169.2 L785.1,170.0 L783.7,170.7 L782.7,171.0 L781.2,170.9 L780.2,170.7 L779.0,170.1 L777.3,168.9 L757.5,154.0 L757.0,153.4 L756.8,151.9 L757.0,150.4 L757.9,149.1 L759.1,147.5 L760.4,146.6 L761.8,146.4 L763.1,146.5 L785.2,162.3 Z" fill="#4f8a3e" stroke="none"/>
<path d="M593.6,46.2 L594.1,47.5 L593.7,49.0 L591.2,52.2 L589.7,52.7 L588.2,52.2 L581.1,47.0 L580.5,45.4 L580.7,43.7 L583.9,40.3 L585.4,40.2 L586.9,41.2 L593.6,46.2 Z" fill="#4f8a3e" stroke="none"/>
<path d="M362.2,229.3 L362.5,228.2 L362.9,226.9 L363.4,226.1 L364.3,225.3 L365.9,224.4 L367.7,223.3 L368.7,222.1 L369.7,220.6 L370.3,219.1 L370.5,217.7 L370.3,216.2 L369.5,214.1 L368.4,211.8 L367.0,209.5 L365.1,207.6 L363.6,206.4 L361.8,205.8 L359.7,205.4 L356.3,205.5 L353.4,206.0 L350.8,206.6 L347.6,207.8 L345.1,209.2 L343.3,210.7 L341.6,212.4 L340.0,214.0 L339.1,215.6 L338.4,217.0 L337.6,219.9 L337.4,222.1 L337.3,224.2 L337.6,226.5 L338.1,229.0 L338.5,230.5 L339.9,233.8 L341.4,235.9 L342.6,237.3 L343.8,238.2 L345.7,239.6 L347.8,240.7 L350.4,241.6 L353.5,242.0 L356.3,242.1 L358.8,241.6 L360.8,240.7 L362.0,239.4 L363.0,237.7 L363.2,235.2 L363.1,233.8 L362.6,232.1 L362.3,230.8 L362.2,229.3 Z" fill="#2f7825" stroke="none"/>
<path d="M515.7,235.7 L513.4,236.3 L510.7,238.5 L508.4,241.6 L506.6,244.8 L504.9,247.4 L502.9,249.7 L500.7,252.7 L497.9,254.7 L496.2,258.3 L496.0,261.6 L497.8,266.1 L498.8,268.4 L501.2,272.1 L504.6,275.7 L508.6,278.3 L512.0,280.3 L517.1,282.9 L522.5,283.5 L526.6,282.6 L531.6,281.0 L533.9,279.2 L534.6,276.8 L534.0,273.7 L532.8,269.2 L529.7,264.7 L526.8,260.7 L525.8,256.1 L525.6,252.4 L526.3,247.8 L525.6,242.8 L523.9,239.2 L521.7,237.1 L519.1,235.7 L515.7,235.7 Z" fill="#2f7825" stroke="none"/>
<path d="M192.3,560.2 L189.4,561.4 L186.7,563.0 L184.6,565.4 L183.1,570.4 L184.1,573.0 L186.4,574.7 L189.3,575.5 L193.2,576.5 L197.0,577.5 L200.2,578.8 L202.8,580.7 L205.6,582.3 L206.9,583.0 L208.2,583.6 L210.8,584.4 L215.1,584.3 L219.1,582.8 L223.0,580.6 L226.2,578.1 L228.1,575.5 L228.8,572.6 L228.3,569.3 L224.9,565.3 L222.6,563.5 L220.4,561.8 L216.2,559.1 L212.5,555.8 L210.0,554.6 L206.7,554.4 L203.3,555.1 L200.2,556.3 L197.6,557.6 L195.0,558.9 L192.3,560.2 Z" fill="#2f7825" stroke="none"/>
<path d="M446.6,376.1 L352.0,223.9" fill="none" stroke="#ffd64a" stroke-width="5" stroke-linecap="round" stroke-linejoin="round" opacity="0.95"/>
</svg>