<svg xmlns="http://www.w3.org/2000/svg" viewBox="0 0 353 800" preserveAspectRatio="xMidYMid meet">
<rect width="100%" height="100%" fill="#143018"/>
<path d="M255.8,-60.7 L244.7,-55.7 L235.0,-51.0 L227.9,-47.1 L216.1,-46.0 L207.5,-47.6 L203.6,-48.9 L201.5,-46.9 L199.0,-34.6 L196.3,-24.4 L192.5,-16.9 L194.3,-12.6 L203.6,-10.7 L216.8,-10.3 L235.6,-10.5 L244.5,-12.1 L250.0,-15.3 L252.9,-24.1 L254.9,-36.0 L255.8,-60.7 Z" fill="#2b5a2a" stroke="none"/>
<path d="M259.8,38.0 L258.3,25.6 L259.1,14.2 L258.3,3.3 L256.5,-5.8 L258.0,-13.3 L263.0,-23.1 L263.2,-43.4 L264.5,-56.1 L269.9,-66.7 L278.5,-74.0 L285.5,-77.1 L307.8,-83.0 L325.2,-86.9 L341.5,-84.6 L360.7,-79.4 L375.7,-81.5 L382.8,-84.2 L393.6,-79.9 L411.5,-74.2 L422.4,-73.2 L430.4,-78.4 L434.9,-86.7 L441.3,-92.6 L454.0,-96.7 L485.4,-96.5 L509.2,-103.2 L521.5,-102.1 L538.1,-102.7 L553.3,-105.9 L566.9,-105.9 L582.0,-105.0 L603.5,-103.0 L627.0,-98.7 L655.8,-94.8 L684.5,-95.2 L711.7,-96.6 L740.1,-98.4 L754.6,-99.6 L767.0,-98.4 L772.9,-103.4 L778.6,-108.8 L786.3,-113.9 L869.5,-139.3 L877.5,-140.9 L883.4,-141.9 L903.9,-143.3 L921.6,-143.0 L954.2,-138.9 L971.6,-139.5 L989.9,-140.1 L1001.5,-142.3 L1003.4,-146.7 L1011.3,-144.0 L1018.5,-140.2 L1036.5,-140.2 L1037.1,-133.7 L1038.4,-124.4 L1040.9,-118.5 L1047.1,-117.6 L1050.8,-116.3 L1050.7,-112.6 L1049.7,-109.1 L1052.8,-105.7 L1056.7,-105.4 L1059.6,-101.7 L1063.9,-89.6 L1068.2,-75.4 L1072.3,-65.4 L1073.8,-57.2 L1073.0,-52.8 L1058.6,-43.2 L1046.0,-37.1 L1013.0,-33.6 L981.8,-42.4 L954.5,-47.7 L935.6,-52.4 L917.6,-53.0 L899.0,-51.3 L856.6,-38.3 L839.8,-34.9 L818.0,-26.7 L808.0,-22.1 L774.7,-13.7 L744.9,-1.9 L722.7,14.7 L714.3,25.1 L709.3,33.9 L706.4,43.5 L711.2,44.3 L729.4,37.2 L793.9,6.7 L807.2,6.7 L812.6,7.3 L828.7,-0.7 L860.0,-13.9 L875.1,-17.9 L894.1,-20.9 L920.5,-23.7 L925.9,-20.9 L927.8,-16.6 L921.7,-10.5 L892.9,4.3 L853.2,32.2 L820.4,65.8 L783.8,94.4 L783.2,120.9 L725.8,140.0 L673.1,158.5 L657.6,163.3 L634.9,166.5 L598.7,168.1 L561.1,168.5 L547.7,171.7 L538.7,168.7 L547.6,145.7 L497.6,128.7 L487.1,129.9 L472.3,127.2 L461.7,122.0 L456.2,115.3 L444.7,107.5 L422.8,101.0 L407.3,103.0 L382.0,107.1 L362.0,110.7 L336.3,117.2 L306.1,120.2 L259.8,38.0 Z" fill="#2b5a2a" stroke="none"/>
<path d="M410.2,373.9 L404.7,372.8 L397.6,372.8 L391.9,373.3 L385.0,374.2 L371.5,375.7 L351.6,377.3 L341.6,378.2 L334.8,379.5 L327.6,381.1 L317.4,381.4 L307.4,381.3 L300.7,380.8 L293.1,376.6 L287.8,371.8 L283.7,361.6 L279.1,349.5 L275.3,338.8 L271.4,330.7 L267.6,326.8 L256.4,320.4 L252.2,316.1 L250.7,310.9 L250.8,295.8 L250.8,285.9 L248.9,279.8 L245.0,274.7 L240.4,267.9 L238.1,261.9 L236.1,256.3 L236.0,250.3 L236.9,242.8 L237.0,236.4 L236.6,232.8 L233.3,230.0 L228.7,226.4 L225.9,221.4 L224.9,216.0 L225.5,210.7 L227.9,205.7 L230.1,203.2 L234.1,202.0 L237.5,201.0 L240.6,198.9 L242.4,195.6 L243.0,190.4 L241.6,185.2 L234.2,172.2 L228.1,161.9 L224.0,152.2 L221.4,145.8 L218.7,135.9 L210.1,126.1 L206.4,118.0 L205.6,110.2 L206.0,101.5 L206.0,89.9 L203.8,82.0 L202.4,75.8 L203.6,65.8 L205.5,55.5 L201.1,52.6 L197.9,49.1 L193.8,47.5 L192.4,47.1 L191.8,27.4 L196.9,26.7 L201.0,25.6 L204.0,24.1 L205.4,21.1 L205.6,17.0 L205.4,13.4 L205.9,10.6 L207.8,8.5 L211.2,7.5 L215.0,7.4 L218.9,8.6 L222.5,10.8 L225.5,14.0 L226.9,19.9 L227.8,27.1 L233.6,29.3 L234.9,35.8 L240.0,43.2 L244.6,49.0 L250.0,58.1 L253.5,66.9 L254.9,80.0 L260.5,94.4 L263.8,101.6 L269.9,123.0 L273.8,136.0 L274.4,139.0 L277.5,149.6 L281.7,161.1 L284.5,162.9 L290.1,163.7 L291.9,167.9 L288.6,170.5 L286.4,174.3 L286.3,179.3 L290.2,184.8 L297.5,193.9 L305.4,202.0 L311.3,209.8 L316.3,217.8 L321.1,226.0 L323.9,234.3 L325.1,239.5 L326.2,245.0 L329.4,248.7 L332.6,252.9 L336.5,257.9 L345.2,269.7 L353.7,280.1 L362.5,292.4 L366.1,297.4 L372.6,306.1 L376.3,314.5 L375.9,325.5 L376.5,327.2 L380.6,329.8 L381.8,330.1 L382.6,331.4 L384.1,338.0 L387.4,342.7 L392.9,342.8 L423.9,335.1 L438.8,340.7 L402.7,350.2 L399.6,352.4 L397.6,355.8 L399.4,360.2 L404.6,363.6 L409.0,366.9 L411.3,369.7 L410.2,373.9 Z" fill="#2b5a2a" stroke="none"/>
<path d="M431.1,787.1 L424.6,790.8 L416.8,793.2 L405.7,791.3 L396.4,787.3 L390.7,782.8 L386.0,773.0 L381.1,761.5 L378.6,751.7 L378.6,744.5 L379.9,737.8 L384.4,731.1 L390.7,726.1 L400.1,722.2 L409.0,717.4 L417.5,711.9 L431.2,702.1 L438.7,698.0 L441.0,696.5 L436.8,688.0 L433.8,685.8 L428.8,684.7 L425.1,685.2 L441.2,674.6 L442.4,680.7 L446.0,685.1 L452.2,689.1 L459.5,692.0 L466.2,694.3 L473.9,693.6 L479.1,690.3 L484.7,682.1 L485.0,679.3 L489.1,678.0 L495.7,672.1 L503.5,662.9 L509.8,657.1 L516.4,647.8 L525.6,635.7 L530.4,627.7 L535.1,618.6 L539.2,610.8 L543.7,603.1 L546.3,598.3 L547.7,594.8 L549.9,592.1 L555.2,589.6 L563.6,586.0 L570.5,581.7 L579.3,576.9 L589.0,571.2 L595.0,567.9 L600.8,565.6 L606.3,564.8 L611.6,564.3 L618.0,564.1 L623.4,563.2 L631.1,560.6 L639.3,557.9 L653.4,555.5 L660.3,554.7 L667.9,550.2 L671.8,546.7 L700.5,523.1 L720.4,511.2 L753.6,494.5 L758.1,493.9 L763.2,495.5 L768.7,496.2 L775.1,494.3 L780.2,490.7 L783.5,488.3 L799.6,485.3 L821.1,476.9 L835.4,467.0 L850.4,457.3 L869.4,451.3 L909.4,444.0 L949.6,437.0 L945.8,439.0 L946.0,441.8 L953.3,442.1 L963.2,440.5 L973.8,438.3 L980.1,437.7 L984.0,439.9 L985.2,444.0 L984.0,448.8 L978.1,454.2 L970.1,457.5 L959.1,458.7 L950.5,459.1 L943.4,460.3 L934.9,462.3 L929.7,463.9 L925.7,465.2 L920.7,464.1 L913.8,461.3 L909.7,460.7 L901.0,461.6 L890.9,464.3 L882.2,466.8 L874.0,470.7 L868.9,474.6 L857.8,480.3 L849.2,483.9 L842.3,485.7 L838.7,488.1 L834.9,492.0 L832.4,495.6 L828.3,497.3 L823.0,497.8 L816.1,496.9 L811.0,496.2 L793.9,504.3 L751.1,526.6 L722.4,544.4 L710.4,553.6 L702.7,561.3 L697.7,569.1 L696.8,577.4 L696.8,584.1 L691.9,592.5 L677.6,606.6 L651.7,625.5 L651.2,627.4 L652.0,630.8 L650.9,636.0 L647.9,640.6 L641.8,643.9 L632.0,645.1 L624.5,645.5 L613.8,650.5 L608.6,658.8 L604.8,669.0 L600.7,677.5 L586.8,690.0 L579.3,698.1 L566.2,710.2 L549.1,721.7 L532.2,731.8 L528.1,735.2 L522.6,738.4 L513.2,741.5 L497.2,745.5 L486.8,748.8 L472.0,755.7 L462.7,760.6 L453.1,767.9 L446.1,775.3 L439.0,782.0 L431.1,787.1 Z" fill="#2b5a2a" stroke="none"/>
<path d="M250.2,697.0 L253.3,697.0 L258.5,698.0 L263.4,700.4 L267.7,703.4 L268.7,706.2 L268.7,709.8 L269.1,713.0 L269.2,718.0 L271.7,725.5 L274.6,730.2 L278.9,734.4 L284.8,737.7 L288.8,738.9 L292.2,738.1 L293.6,735.4 L292.0,731.7 L290.8,727.3 L291.5,722.8 L295.7,718.8 L299.9,716.4 L301.2,715.8 L289.2,709.6 L279.6,702.2 L272.4,697.7 L267.7,695.0 L262.5,694.4 L256.0,694.9 L249.8,696.0 L250.2,697.0 Z" fill="#2b5a2a" stroke="none"/>
<path d="M259.9,690.4 L250.8,676.2 L238.3,655.2 L197.5,594.9 L185.0,578.1 L162.6,542.6 L160.5,544.6 L173.2,562.8 L176.4,570.0 L171.1,579.7 L168.9,580.3 L166.2,580.1 L163.5,579.0 L160.4,579.1 L157.1,581.5 L155.1,585.7 L155.0,589.6 L155.5,592.4 L153.9,594.5 L149.7,596.5 L148.1,597.8 L153.4,600.5 L163.6,602.2 L171.3,604.1 L178.8,612.3 L181.4,623.0 L185.1,633.4 L196.5,645.3 L202.8,653.2 L208.1,665.3 L214.4,674.1 L220.8,682.3 L227.2,688.8 L234.6,692.8 L241.3,694.3 L248.9,693.6 L259.1,691.7 L259.9,690.4 Z" fill="#2b5a2a" stroke="none"/>
<path d="M121.2,567.0 L117.4,561.7 L114.1,557.7 L107.4,555.1 L99.5,553.2 L101.7,545.8 L104.2,537.7 L103.2,534.4 L97.9,529.5 L91.6,521.9 L87.4,513.6 L80.4,498.4 L78.0,490.3 L75.7,484.2 L70.8,478.8 L63.7,468.4 L60.2,460.3 L53.5,447.6 L50.2,438.0 L47.7,427.7 L43.9,418.1 L39.5,408.9 L34.6,401.6 L34.2,395.3 L35.5,389.3 L36.0,383.2 L34.1,377.7 L29.9,371.2 L26.7,365.6 L23.4,358.6 L23.4,351.2 L26.4,342.5 L30.9,336.1 L33.1,328.2 L32.3,322.9 L29.6,320.0 L25.0,319.9 L21.2,322.0 L19.3,325.2 L20.8,317.2 L22.1,309.4 L20.3,302.7 L23.2,298.3 L26.4,288.9 L27.7,282.1 L27.3,278.0 L24.5,272.9 L21.2,268.9 L20.1,265.4 L20.1,260.3 L21.1,252.3 L24.1,229.7 L26.0,209.3 L27.7,200.0 L28.4,194.2 L28.6,188.3 L27.2,182.7 L23.2,178.6 L31.1,153.8 L44.0,128.3 L45.1,136.7 L46.3,138.3 L48.9,137.3 L51.3,134.9 L53.0,131.8 L52.3,127.3 L49.7,121.9 L48.7,121.4 L51.8,117.9 L53.0,112.0 L50.4,108.0 L46.2,103.3 L42.1,98.0 L48.3,98.7 L54.9,97.7 L60.3,94.1 L66.2,86.8 L71.0,80.5 L77.3,70.1 L81.4,63.0 L84.2,60.4 L88.7,56.1 L92.4,52.1 L96.4,49.9 L102.6,47.4 L107.3,45.1 L110.7,41.8 L115.1,37.2 L119.6,29.9 L121.6,25.6 L121.8,19.0 L119.3,12.4 L116.6,7.9 L115.5,5.4 L124.7,3.6 L130.5,5.9 L137.3,9.4 L141.9,8.8 L149.9,4.1 L160.1,-0.1 L156.2,4.2 L153.2,8.3 L152.3,13.7 L150.2,20.5 L147.5,29.6 L147.9,39.1 L151.6,48.6 L158.0,61.1 L164.2,72.2 L169.5,81.4 L171.9,87.1 L172.2,91.2 L171.8,95.4 L170.1,99.4 L171.1,107.6 L171.9,119.4 L171.8,125.9 L168.1,141.1 L166.3,149.7 L166.8,156.3 L167.0,161.3 L164.6,167.6 L153.6,178.3 L145.7,183.4 L144.7,192.0 L150.2,193.6 L137.8,222.5 L112.8,235.6 L112.0,251.3 L131.8,311.6 L133.1,347.8 L118.0,372.1 L119.2,376.5 L123.8,382.9 L130.6,388.2 L135.9,392.4 L139.8,397.1 L144.2,405.0 L146.5,413.9 L152.9,426.6 L160.1,443.2 L165.8,460.4 L168.0,469.5 L163.8,486.2 L159.2,500.2 L156.6,510.1 L151.6,521.8 L150.4,523.9 L152.2,526.9 L150.5,528.6 L148.8,526.9 L147.3,529.4 L141.6,536.4 L131.2,544.4 L124.0,549.7 L120.1,554.9 L119.7,561.5 L120.6,563.8 L121.2,567.0 Z" fill="#2b5a2a" stroke="none"/>
<path d="M285.5,732.6 L84.4,378.4 L67.4,153.9 L131.4,67.4" fill="none" stroke="#4e8b39" stroke-width="52.4" stroke-linecap="round" stroke-linejoin="round" opacity="0.85"/>
<path d="M319.3,303.3 L318.2,301.3 L318.0,293.0 L315.1,283.0 L308.7,271.3 L304.5,260.3 L304.3,258.4 L305.9,240.6 L305.5,234.8 L304.8,231.7 L303.3,228.8 L297.5,222.8 L291.3,217.0 L286.2,213.6 L281.6,212.4 L274.1,214.6 L266.9,217.5 L262.0,220.9 L258.2,224.9 L255.6,234.3 L252.8,247.6 L252.4,253.7 L252.4,259.4 L253.9,263.7 L255.7,266.6 L266.8,281.6 L277.4,294.8 L279.4,298.4 L280.5,306.2 L281.6,312.8 L283.0,316.3 L289.3,328.9 L291.2,334.7 L293.2,342.5 L296.2,352.6 L298.9,357.6 L302.9,362.4 L308.1,367.2 L314.0,371.6 L318.5,373.9 L324.0,375.3 L334.8,374.6 L344.8,373.9 L359.2,373.7 L365.0,372.8 L369.1,371.0 L371.6,368.4 L374.2,365.5 L375.7,362.6 L376.0,359.8 L376.5,355.6 L375.0,351.3 L373.5,350.2 L362.6,344.9 L341.6,337.5 L337.8,336.1 L336.1,335.1 L335.0,333.7 L334.8,328.4 L335.4,320.4 L334.7,316.7 L331.4,312.8 L322.1,306.1 L319.3,303.3 Z" fill="#5a9540" stroke="none"/>
<path d="M635.6,568.9 L617.5,575.8 L602.0,581.7 L592.2,587.3 L585.3,591.8 L578.6,597.0 L577.0,600.1 L574.6,604.4 L570.9,612.0 L567.0,616.9 L561.7,622.8 L560.3,624.5 L552.9,636.2 L550.5,639.0 L546.9,640.9 L540.2,643.7 L533.6,645.4 L532.1,645.9 L527.3,652.2 L524.7,658.5 L523.2,664.7 L521.7,670.3 L520.1,673.3 L517.3,675.9 L510.5,680.0 L498.6,687.4 L493.9,691.4 L490.4,696.2 L487.4,700.8 L483.2,704.1 L479.7,705.5 L475.0,706.5 L470.6,706.7 L459.4,706.1 L454.0,706.3 L448.5,708.1 L439.0,712.3 L428.7,717.9 L412.1,728.4 L395.4,735.9 L391.9,739.1 L389.0,743.0 L388.2,747.8 L388.7,752.9 L389.7,755.9 L391.7,758.5 L394.1,762.4 L395.5,768.3 L397.5,774.2 L402.4,778.4 L408.1,781.7 L415.8,784.0 L423.4,784.6 L426.7,783.2 L429.6,781.3 L431.2,779.7 L432.2,777.9 L432.6,776.0 L432.4,773.8 L431.0,769.9 L429.7,766.5 L428.7,767.6 L426.4,770.6 L423.2,772.0 L418.3,772.0 L413.5,770.6 L408.4,767.4 L404.4,763.5 L401.2,759.8 L400.3,756.1 L400.8,752.4 L402.4,747.5 L405.4,743.8 L410.9,739.4 L414.6,736.4 L419.5,733.2 L423.2,731.6 L426.2,731.5 L429.4,732.2 L432.1,733.9 L434.3,736.7 L434.6,739.8 L434.5,742.2 L438.9,738.5 L440.7,737.9 L443.0,737.6 L446.3,737.6 L449.6,738.5 L457.9,742.1 L462.0,743.1 L466.3,742.9 L470.4,741.2 L472.7,738.8 L477.5,733.5 L479.9,732.1 L482.7,731.0 L487.5,729.7 L506.9,726.9 L516.5,725.4 L521.6,724.1 L524.8,722.6 L528.5,720.3 L532.8,716.4 L543.8,705.9 L544.9,705.2 L551.1,702.7 L553.7,701.5 L557.6,699.3 L560.6,696.2 L562.0,694.4 L563.0,691.5 L563.4,687.3 L564.7,680.6 L566.7,676.1 L569.0,672.3 L573.2,667.5 L574.9,665.8 L578.4,660.9 L582.1,655.2 L584.9,649.4 L586.2,646.5 L588.5,641.8 L591.6,635.7 L594.9,630.2 L598.1,627.6 L601.9,624.4 L604.4,621.5 L606.4,618.4 L610.4,613.5 L617.8,608.3 L624.8,605.6 L631.0,603.5 L638.7,602.2 L645.1,601.3 L649.8,599.9 L651.8,598.3 L657.2,592.3 L658.2,589.6 L658.8,586.8 L658.8,584.2 L658.4,581.6 L657.5,579.5 L656.2,577.6 L653.0,574.2 L650.4,572.1 L644.5,569.7 L639.2,568.9 L635.6,568.9 Z" fill="#5a9540" stroke="none"/>
<path d="M143.4,87.6 L140.4,85.8 L140.1,91.3 L136.4,100.8 L134.3,108.9 L130.9,133.2 L129.1,142.5 L127.4,150.0 L126.1,154.6 L124.4,157.2 L121.5,159.6 L119.6,161.7 L118.4,164.9 L118.6,169.1 L120.2,172.5 L122.9,175.9 L127.4,177.9 L133.6,179.4 L139.9,180.1 L142.8,178.9 L145.4,177.2 L152.2,169.7 L160.4,162.1 L161.1,159.6 L160.6,157.0 L159.8,152.6 L160.2,149.5 L164.9,128.7 L166.2,121.1 L166.4,118.7 L166.2,115.7 L165.3,109.9 L163.5,101.8 L163.1,98.4 L164.1,95.9 L167.1,93.4 L168.4,91.5 L169.1,88.8 L168.5,86.9 L167.0,83.7 L163.3,78.3 L159.2,74.3 L152.6,68.1 L154.2,71.4 L156.4,74.4 L157.0,79.9 L155.8,83.0 L153.2,85.7 L148.8,87.5 L143.4,87.6 Z" fill="#5a9540" stroke="none"/>
<path d="M-186.2,-17.5 L-278.1,115.2 L-313.0,201.1 L-356.3,248.7 L-384.4,282.8 L-333.4,315.1 L-262.8,382.3 L-141.1,258.1 L-103.7,198.6 L-43.3,96.5 L-83.3,51.4 L-145.4,-0.5 L-186.2,-17.5 Z" fill="#5a9540" stroke="none"/>
<path d="M398.7,72.3 L404.1,72.2 L410.5,72.9 L420.5,74.2 L430.3,74.5 L448.7,72.7 L452.0,72.6 L455.3,72.8 L457.6,74.1 L459.2,76.2 L459.6,78.7 L459.5,81.1 L456.6,92.1 L453.8,98.9 L450.2,102.8 L443.6,105.4 L435.8,104.0 L427.9,100.6 L422.4,98.6 L418.0,98.1 L413.6,98.1 L407.1,98.0 L400.3,98.4 L394.5,98.8 L390.2,97.0 L388.0,95.1 L386.5,92.8 L385.7,90.0 L385.6,87.6 L386.8,81.6 L391.0,75.1 L395.0,73.2 L398.7,72.3 Z" fill="#5a9540" stroke="none"/>
<path d="M236.5,-29.9 L237.5,-30.7 L238.4,-32.1 L239.0,-33.3 L238.8,-34.8 L238.0,-36.0 L236.3,-37.2 L234.2,-37.9 L232.0,-38.1 L230.1,-38.1 L228.4,-37.7 L227.1,-36.8 L226.1,-35.6 L225.1,-34.1 L224.7,-32.7 L224.7,-31.1 L225.4,-29.4 L226.3,-28.3 L228.0,-28.0 L230.6,-27.9 L233.0,-28.3 L235.4,-29.1 L236.5,-29.9 Z" fill="#5a9540" stroke="none"/>
<path d="M229.7,213.2 L229.4,214.1 L229.2,215.3 L229.5,216.7 L230.2,218.2 L231.4,219.2 L232.5,219.9 L234.1,220.0 L235.9,219.4 L237.4,218.4 L238.4,217.3 L238.9,216.0 L238.9,214.6 L238.4,213.2 L237.6,212.2 L236.5,211.4 L234.9,210.9 L233.3,210.7 L232.0,211.0 L230.6,211.9 L229.7,213.2 Z" fill="#5a9540" stroke="none"/>
<path d="M280.0,733.4 L276.2,730.0 L273.5,727.1 L271.3,723.2 L270.2,719.4 L270.1,715.9 L270.7,714.5 L272.1,713.3 L273.8,713.2 L276.1,714.1 L277.6,715.6 L279.7,720.1 L282.1,723.4 L286.2,728.0 L289.6,731.3 L290.4,732.7 L290.5,734.2 L289.9,735.7 L289.1,737.1 L287.0,737.2 L284.2,736.4 L281.8,734.8 L280.0,733.4 Z" fill="#5a9540" stroke="none"/>
<path d="M243.5,682.7 L242.8,678.7 L240.9,674.1 L238.9,671.5 L237.9,670.9 L236.7,670.9 L235.6,670.9 L234.7,671.8 L234.0,673.1 L234.0,676.0 L235.1,683.1 L236.4,685.1 L237.7,687.0 L239.2,687.7 L240.7,687.7 L242.1,686.9 L243.2,685.0 L243.5,682.7 Z" fill="#5a9540" stroke="none"/>
<path d="M224.5,656.9 L224.1,654.1 L223.3,651.7 L221.5,648.7 L220.0,646.7 L218.4,645.1 L216.6,644.1 L214.8,644.0 L213.4,644.4 L211.9,645.6 L210.9,647.4 L210.4,650.0 L210.8,652.9 L211.9,655.5 L213.5,657.8 L215.4,660.0 L217.3,661.4 L219.1,662.3 L221.4,662.5 L222.9,662.0 L224.1,661.0 L224.7,659.1 L224.5,656.9 Z" fill="#5a9540" stroke="none"/>
<path d="M204.8,619.7 L203.7,617.8 L202.0,616.2 L200.2,615.5 L197.8,615.6 L195.7,616.7 L194.5,618.8 L194.1,621.0 L194.1,623.4 L194.5,625.4 L195.7,627.2 L197.0,628.4 L198.5,629.3 L200.6,629.5 L202.7,629.2 L204.5,628.3 L205.8,627.1 L206.3,625.4 L205.8,622.4 L204.8,619.7 Z" fill="#5a9540" stroke="none"/>
<path d="M158.1,590.0 L157.7,588.5 L157.9,586.6 L158.8,584.5 L160.2,582.8 L161.5,582.2 L163.3,582.1 L164.8,582.8 L166.1,584.4 L166.7,586.0 L166.1,588.3 L165.6,589.9 L163.9,591.0 L162.1,591.6 L160.1,591.6 L158.1,590.0 Z" fill="#5a9540" stroke="none"/>
<path d="M99.7,188.5 L98.3,188.0 L97.1,188.4 L96.6,189.6 L96.6,190.8 L97.1,192.0 L97.6,193.4 L98.2,194.3 L99.1,195.8 L99.0,196.6 L98.6,197.4 L99.5,198.3 L99.9,199.4 L99.0,200.6 L98.2,201.4 L98.1,202.6 L98.1,203.8 L98.1,204.7 L98.3,205.8 L99.5,206.5 L100.6,206.7 L102.6,206.5 L104.0,207.0 L104.9,208.4 L105.1,209.7 L105.4,211.0 L106.5,211.5 L106.8,212.8 L106.6,214.1 L105.5,215.1 L103.9,215.9 L101.9,216.1 L100.8,216.7 L100.5,217.7 L99.6,217.9 L98.2,218.3 L97.5,219.8 L96.3,221.7 L95.9,223.7 L95.5,225.2 L95.2,227.3 L94.7,229.3 L94.3,231.2 L93.6,232.9 L93.6,234.3 L93.8,235.4 L94.8,235.8 L96.9,235.6 L98.5,236.0 L100.2,237.4 L101.4,238.3 L103.0,239.9 L104.8,240.7 L106.6,240.3 L107.7,239.2 L109.2,238.7 L111.8,238.2 L113.7,237.8 L115.7,237.8 L117.3,238.0 L118.8,237.8 L119.9,237.4 L121.4,237.6 L123.0,237.7 L124.3,238.1 L125.1,239.0 L125.7,240.4 L126.3,242.1 L127.2,244.3 L129.2,246.8 L129.3,248.2 L130.7,249.7 L131.8,250.6 L133.1,251.3 L133.8,252.2 L135.3,253.1 L136.5,253.2 L138.2,253.6 L140.1,253.7 L141.4,254.2 L143.1,255.1 L144.6,256.0 L146.1,256.7 L147.4,256.7 L148.2,255.6 L148.3,254.5 L148.2,253.1 L147.2,251.9 L146.0,251.5 L145.2,250.4 L145.3,249.3 L145.7,247.5 L146.3,246.3 L146.5,245.1 L147.8,244.5 L148.4,243.7 L148.2,242.7 L147.6,241.6 L146.1,240.9 L145.7,239.8 L145.8,238.2 L145.3,236.7 L144.0,235.7 L142.7,235.1 L141.4,233.9 L140.1,232.8 L139.0,231.6 L138.7,230.1 L139.0,228.4 L140.6,226.8 L142.3,225.8 L143.4,223.5 L144.4,221.7 L144.7,219.5 L145.3,217.4 L146.4,215.8 L146.9,214.4 L147.3,212.0 L147.3,210.3 L147.9,208.8 L149.4,207.8 L150.2,206.5 L150.2,204.4 L150.5,201.9 L150.3,199.8 L149.7,197.7 L149.0,195.1 L147.4,193.2 L144.7,192.0 L141.3,191.8 L139.3,192.4 L137.0,192.2 L134.8,191.9 L133.1,191.0 L131.1,191.4 L128.5,192.5 L127.1,193.8 L126.0,194.7 L124.1,194.8 L122.2,195.1 L121.1,196.0 L120.2,197.0 L118.8,198.8 L117.3,199.9 L111.9,201.3 L108.5,201.4 L106.5,200.6 L105.2,199.4 L104.3,197.6 L103.4,196.3 L102.8,194.4 L103.0,192.8 L104.4,191.8 L105.8,190.5 L106.5,189.5 L109.0,189.2 L109.6,188.2 L108.7,187.1 L107.3,186.4 L106.3,186.3 L105.3,187.3 L103.4,187.7 L101.1,188.1 L99.7,188.5 Z" fill="#2e5577" stroke="none"/>
<path d="M96.2,247.7 L95.3,250.8 L95.3,253.8 L96.2,256.9 L98.5,260.1 L100.1,262.2 L101.6,264.5 L102.7,266.7 L103.7,269.1 L103.8,271.9 L104.5,276.1 L105.3,278.3 L107.1,281.2 L108.8,283.9 L110.5,287.7 L112.2,291.8 L114.0,294.0 L115.0,296.4 L115.1,298.8 L114.3,302.1 L112.7,304.6 L111.4,306.9 L110.8,309.1 L110.0,311.8 L110.0,314.3 L110.5,317.5 L111.1,320.0 L111.0,321.6 L110.1,322.8 L109.4,324.2 L107.8,326.5 L106.3,327.9 L105.0,329.4 L104.1,332.3 L104.0,334.7 L106.0,337.7 L108.1,337.9 L111.1,337.2 L112.9,336.4 L114.6,334.9 L116.4,332.5 L119.0,330.4 L121.5,330.2 L124.8,330.5 L128.9,330.6 L132.1,330.8 L135.1,331.6 L139.1,332.6 L142.6,333.9 L145.6,334.0 L147.5,333.5 L148.5,332.4 L149.1,330.3 L149.5,327.7 L149.2,325.6 L148.3,323.5 L146.9,321.6 L144.6,319.6 L142.9,317.9 L142.1,315.9 L141.2,314.5 L140.8,312.2 L140.0,309.8 L139.6,307.6 L139.6,306.0 L139.6,304.1 L140.1,302.6 L140.8,300.0 L140.6,298.5 L140.2,297.5 L140.2,295.8 L140.6,294.3 L141.3,293.1 L142.4,292.1 L144.1,291.1 L145.3,290.5 L146.1,289.2 L146.9,287.8 L147.5,285.6 L147.6,283.5 L147.8,282.4 L147.8,280.7 L147.2,279.5 L145.6,278.5 L144.2,277.4 L142.0,276.5 L141.4,275.5 L141.3,274.2 L141.0,273.0 L140.5,272.0 L139.3,271.2 L137.3,270.2 L136.0,269.7 L134.4,268.9 L133.5,267.9 L132.7,266.8 L132.3,265.4 L132.2,264.1 L132.6,262.6 L133.1,261.5 L134.1,260.2 L135.1,259.5 L136.7,259.8 L138.3,260.1 L139.9,260.0 L141.3,259.5 L142.3,259.2 L143.1,257.9 L143.3,256.9 L141.9,255.3 L138.9,254.5 L135.6,254.0 L133.5,254.5 L130.7,253.9 L128.2,254.0 L126.1,252.8 L124.1,252.7 L121.9,251.5 L121.1,250.1 L121.0,248.9 L121.7,247.3 L122.7,246.1 L123.8,245.4 L124.8,244.5 L125.8,244.2 L123.9,244.3 L122.5,244.4 L121.1,244.5 L121.3,243.3 L122.3,242.1 L123.0,240.9 L122.1,239.9 L120.7,239.9 L119.4,241.3 L119.6,243.0 L118.6,244.9 L116.5,245.3 L115.3,245.1 L113.7,244.9 L113.0,244.1 L111.7,243.2 L110.8,241.7 L112.3,245.4 L112.9,247.3 L111.0,247.6 L108.9,247.1 L106.2,247.0 L104.7,245.4 L102.2,244.1 L99.5,243.1 L97.3,244.3 L96.4,245.2 L95.5,246.6 L96.2,247.7 Z" fill="#2e5577" stroke="none"/>
<path d="M107.8,338.7 L107.8,341.1 L108.1,344.0 L108.5,346.3 L109.0,349.6 L109.7,352.4 L110.3,354.0 L111.5,356.4 L112.5,358.3 L113.5,359.7 L115.1,361.4 L116.4,361.7 L118.0,361.3 L119.8,360.2 L121.8,359.0 L123.9,357.6 L125.8,357.1 L128.0,357.3 L130.3,357.6 L133.0,358.4 L136.1,359.2 L138.5,359.5 L140.4,360.2 L141.7,360.9 L142.8,361.7 L143.5,362.6 L144.1,363.6 L145.7,364.7 L147.3,365.0 L148.2,364.2 L148.5,362.7 L148.9,361.1 L149.0,359.5 L148.7,357.8 L147.5,356.5 L147.2,354.9 L147.1,353.4 L146.8,352.2 L146.6,350.6 L146.6,349.3 L145.7,347.7 L146.1,346.0 L146.6,345.1 L147.7,344.0 L148.4,342.3 L149.0,341.1 L149.7,340.4 L149.8,339.2 L150.5,337.9 L149.8,336.8 L148.9,336.1 L147.7,335.5 L146.4,334.9 L142.6,334.8 L139.5,333.9 L137.3,333.0 L133.5,331.9 L130.0,331.2 L126.7,331.1 L123.3,331.0 L122.0,331.0 L120.1,331.1 L119.1,331.2 L118.2,332.1 L117.6,332.8 L116.4,334.1 L115.6,335.0 L114.9,335.5 L113.3,337.1 L111.8,337.6 L110.3,338.1 L107.8,338.7 Z" fill="#2e5577" stroke="none"/>
<path d="M117.5,363.3 L118.5,365.5 L119.3,367.9 L120.1,370.2 L120.1,370.8 L122.1,369.9 L124.3,368.7 L126.3,368.1 L129.1,367.7 L132.0,368.0 L134.6,368.8 L137.4,370.4 L140.6,371.6 L142.7,371.7 L145.8,371.6 L146.8,371.1 L146.6,369.8 L146.9,368.9 L146.9,367.8 L145.9,366.9 L144.7,366.1 L143.4,365.2 L142.5,364.2 L141.1,363.2 L140.0,362.8 L139.2,362.0 L137.7,362.2 L136.0,362.5 L134.6,362.2 L133.3,362.0 L132.3,362.0 L131.6,362.0 L130.9,361.6 L130.0,361.1 L128.8,360.3 L127.8,359.9 L126.9,359.7 L125.6,359.7 L124.4,359.7 L123.7,360.4 L122.6,361.4 L121.7,361.5 L120.3,361.9 L118.8,362.0 L118.2,362.5 L117.5,363.3 Z" fill="#2e5577" stroke="none"/>
<path d="M113.3,626.8 L116.2,605.7 L119.1,592.1 L123.4,583.9 L132.3,572.9 L140.4,563.9 L153.5,531.9 L157.9,532.4 L162.5,524.0 L170.8,504.6 L174.4,491.3 L176.8,482.1 L175.4,474.9 L172.4,463.9 L168.8,456.1 L165.0,448.0 L151.8,416.4 L148.3,406.0 L145.9,397.4 L145.3,390.7 L146.9,386.3 L145.2,383.6 L141.7,382.6 L136.3,382.0 L131.3,378.2 L127.6,376.1 L123.6,372.8 L125.3,370.8 L129.1,370.5 L132.1,370.4 L131.9,371.7 L130.5,372.9 L131.5,374.2 L132.7,374.9 L131.9,376.8 L136.8,381.2 L144.3,382.2 L148.3,384.8 L151.3,383.4 L156.1,381.7 L164.3,380.1 L173.9,377.0 L180.0,376.4 L195.5,377.8 L199.9,380.1 L208.3,383.4 L224.2,397.6 L240.9,412.9 L231.2,420.5 L213.6,401.9 L201.1,390.4 L189.2,384.7 L173.4,385.7 L156.7,392.7 L153.1,397.9 L160.4,424.0 L173.7,454.1 L180.9,471.4 L183.1,483.5 L177.4,503.8 L162.3,538.2 L151.0,559.2 L136.8,576.5 L130.1,595.3 L127.1,626.8 L117.7,631.6 L113.3,626.8 Z" fill="#2e5577" stroke="none"/>
<path d="M333.9,52.6 L334.2,51.1 L333.9,49.5 L333.0,48.2 L331.8,47.1 L330.1,46.6 L328.0,46.1 L326.4,45.0 L325.6,43.7 L325.4,42.2 L325.9,40.9 L326.7,39.5 L327.8,39.0 L328.8,39.1 L330.0,39.3 L331.4,39.3 L332.0,38.6 L332.4,37.8 L333.0,37.2 L333.9,36.9 L334.8,37.0 L335.9,37.6 L336.8,38.8 L337.4,40.6 L337.8,42.2 L338.3,44.7 L339.2,45.8 L341.0,47.0 L343.5,48.2 L344.9,49.3 L346.0,50.6 L346.4,52.5 L346.5,54.5 L346.1,56.4 L345.3,57.2 L344.3,57.3 L342.7,57.0 L341.2,56.8 L339.6,57.5 L338.5,58.0 L336.8,57.9 L335.6,57.3 L334.5,56.0 L333.9,54.4 L333.9,52.6 Z" fill="#e7d6a3" stroke="none"/>
<path d="M346.5,327.1 L345.9,325.9 L345.3,324.9 L343.8,323.7 L343.2,323.5 L340.4,324.8 L339.4,326.0 L339.1,327.1 L339.2,328.4 L339.6,330.2 L340.5,331.7 L341.5,332.5 L343.7,332.9 L345.9,332.5 L346.9,331.4 L347.3,329.6 L347.3,328.7 L346.5,327.1 Z" fill="#e7d6a3" stroke="none"/>
<path d="M358.0,326.3 L356.7,325.7 L355.2,325.4 L354.0,325.8 L353.4,326.8 L353.1,327.8 L353.2,329.3 L354.0,330.4 L355.2,331.4 L356.6,332.0 L358.1,331.8 L359.3,330.7 L359.7,329.3 L359.4,328.0 L358.9,327.0 L358.0,326.3 Z" fill="#e7d6a3" stroke="none"/>
<path d="M362.9,311.5 L361.0,309.9 L360.3,309.5 L359.1,309.3 L357.7,309.4 L356.6,309.9 L356.0,310.4 L355.6,311.4 L355.8,312.9 L356.0,313.9 L356.6,314.7 L357.9,315.6 L359.0,316.2 L360.5,316.3 L362.0,316.0 L363.0,315.3 L363.4,314.3 L363.6,312.8 L362.9,311.5 Z" fill="#e7d6a3" stroke="none"/>
<path d="M347.4,300.6 L345.3,298.4 L344.4,296.7 L344.2,295.5 L344.5,294.0 L345.1,292.7 L345.9,292.2 L347.0,292.1 L347.8,292.3 L348.6,293.2 L349.2,294.0 L350.3,294.3 L351.3,294.3 L352.2,294.4 L353.1,295.0 L353.5,295.8 L353.7,296.9 L353.4,298.2 L352.6,299.6 L351.6,300.4 L350.3,300.9 L348.7,301.0 L347.4,300.6 Z" fill="#e7d6a3" stroke="none"/>
<path d="M332.9,304.9 L331.5,304.6 L330.2,303.6 L329.5,302.5 L329.5,301.2 L330.2,300.2 L331.2,299.1 L332.4,298.7 L333.7,299.0 L335.0,300.0 L336.3,301.3 L337.6,301.8 L339.1,302.4 L340.1,303.6 L341.2,305.3 L341.3,306.5 L341.1,308.3 L340.6,309.5 L339.6,310.2 L337.9,310.3 L336.7,309.9 L335.7,308.9 L334.7,307.2 L334.1,305.6 L332.9,304.9 Z" fill="#e7d6a3" stroke="none"/>
<path d="M334.7,275.2 L333.7,273.2 L332.9,272.4 L332.1,272.0 L331.0,271.8 L329.2,272.6 L328.3,273.4 L327.7,274.3 L327.6,275.6 L327.5,277.2 L327.9,278.5 L328.4,279.6 L329.4,280.3 L330.5,280.5 L331.5,280.3 L332.6,279.7 L333.6,278.7 L334.5,277.1 L334.7,275.2 Z" fill="#e7d6a3" stroke="none"/>
<path d="M44.0,393.1 L43.9,391.3 L44.4,388.6 L45.1,387.0 L46.4,385.9 L47.4,385.4 L47.6,383.7 L47.1,381.3 L46.2,380.3 L44.2,378.8 L42.1,377.1 L40.5,374.8 L40.0,370.9 L39.7,364.9 L39.0,363.3 L36.8,361.8 L33.3,359.8 L31.7,358.1 L30.9,355.7 L31.3,353.3 L32.7,351.7 L34.5,350.8 L36.7,350.5 L38.1,349.9 L39.0,348.2 L39.0,344.0 L39.1,341.3 L40.2,339.9 L42.3,339.4 L44.4,339.5 L46.2,340.0 L47.4,339.1 L49.2,337.8 L50.5,337.2 L52.2,337.7 L53.4,338.7 L53.4,342.4 L54.0,344.8 L55.0,346.8 L55.2,349.5 L54.3,351.5 L52.3,352.6 L49.3,353.0 L46.0,353.8 L44.1,355.5 L44.0,357.5 L45.1,361.0 L46.8,362.3 L49.2,362.5 L51.7,361.7 L54.1,361.5 L56.3,362.3 L57.8,363.5 L58.3,365.1 L58.3,367.0 L57.4,369.0 L57.3,371.1 L58.6,372.4 L59.5,373.9 L59.5,376.4 L59.3,379.2 L58.5,381.5 L59.0,383.3 L60.4,387.5 L61.4,390.9 L61.4,393.1 L59.7,396.0 L57.7,397.7 L55.0,398.8 L52.0,398.6 L48.7,397.5 L45.9,395.6 L44.0,393.1 Z" fill="#e7d6a3" stroke="none"/>
<path d="M114.5,96.6 L114.3,94.8 L114.6,93.0 L115.5,91.5 L116.7,90.8 L118.2,90.7 L119.4,90.4 L120.3,89.1 L120.4,87.8 L120.4,86.2 L120.9,84.6 L121.7,83.8 L123.0,83.4 L124.2,83.6 L125.3,84.3 L126.3,84.9 L127.4,84.9 L128.3,84.3 L129.2,84.1 L130.6,84.2 L132.3,83.8 L133.1,83.7 L134.2,84.1 L135.3,85.1 L135.7,86.3 L135.9,88.2 L135.6,89.5 L134.5,91.4 L132.2,94.3 L130.6,96.2 L129.1,97.3 L126.8,98.2 L124.3,98.9 L121.8,99.4 L118.7,99.0 L116.6,98.1 L114.5,96.6 Z" fill="#e7d6a3" stroke="none"/>
<path d="M94.2,82.0 L92.5,80.9 L91.4,80.9 L88.9,81.7 L88.2,82.2 L87.9,83.1 L87.9,84.1 L88.6,85.3 L89.9,86.6 L91.2,87.5 L92.4,87.9 L93.7,87.8 L94.9,87.2 L95.7,86.1 L95.7,85.1 L95.2,83.5 L94.2,82.0 Z" fill="#e7d6a3" stroke="none"/>
<path d="M-141.1,-60.9 L-163.2,-26.9 L-35.6,70.9 L-13.5,46.3 L-141.1,-60.9 Z" fill="#4f8a3e" stroke="none"/>
<path d="M-96.9,-84.7 L-118.1,-56.7 L-2.4,36.1 L14.6,14.0 L-36.5,-42.2 L-96.9,-84.7 Z" fill="#4f8a3e" stroke="none"/>
<path d="M199.8,27.6 L204.4,26.5 L208.2,28.3 L209.8,31.9 L208.4,36.3 L204.7,39.3 L202.5,41.4 L200.6,42.2 L198.4,42.8 L196.9,42.4 L195.3,41.5 L194.5,39.2 L194.4,37.0 L195.4,33.0 L196.3,30.8 L197.7,28.8 L199.8,27.6 Z" fill="#4f8a3e" stroke="none"/>
<path d="M208.9,11.8 L212.3,9.7 L215.9,10.2 L219.6,13.0 L221.2,16.7 L221.5,20.7 L220.5,24.4 L217.3,25.6 L214.7,24.9 L212.6,23.5 L210.7,21.8 L208.8,19.7 L207.8,17.6 L207.9,14.9 L208.9,11.8 Z" fill="#4f8a3e" stroke="none"/>
<path d="M213.7,48.8 L215.6,47.2 L217.9,46.0 L219.9,45.9 L222.2,46.0 L223.7,47.2 L225.1,50.1 L225.7,53.4 L225.6,56.2 L224.3,62.2 L222.7,70.2 L220.7,74.8 L218.0,76.1 L215.1,75.2 L213.1,73.3 L211.8,71.2 L210.6,67.7 L209.5,64.2 L208.6,59.4 L209.3,54.4 L211.0,51.4 L213.7,48.8 Z" fill="#4f8a3e" stroke="none"/>
<path d="M221.7,103.6 L225.9,104.1 L229.1,105.9 L230.1,108.7 L229.8,111.4 L229.0,114.0 L226.5,118.0 L223.7,120.1 L220.6,120.6 L217.7,119.2 L216.0,117.7 L214.7,115.7 L214.0,113.6 L213.8,111.6 L214.5,108.7 L215.8,106.7 L217.3,105.0 L219.4,104.1 L221.7,103.6 Z" fill="#4f8a3e" stroke="none"/>
<path d="M24.4,-57.6 L17.2,-63.8 L-5.0,-65.9 L-20.5,-61.7 L-24.6,-49.9 L-8.6,-35.4 L9.9,-25.6 L18.7,-14.7 L28.5,-16.8 L31.6,-27.7 L24.4,-57.6 Z" fill="#2f7825" stroke="none"/>
<path d="M306.6,43.0 L310.0,40.4 L314.9,38.8 L319.1,39.1 L321.5,40.8 L323.7,44.9 L327.4,52.0 L331.9,58.1 L336.0,64.8 L337.3,68.2 L337.1,73.2 L335.7,77.1 L333.1,79.6 L330.2,81.2 L325.8,81.4 L322.2,80.7 L318.6,78.3 L315.7,74.5 L311.6,67.9 L309.2,65.2 L306.1,62.8 L303.6,60.1 L301.8,55.7 L302.0,52.0 L303.6,47.2 L306.6,43.0 Z" fill="#2f7825" stroke="none"/>
<path d="M116.8,60.1 L120.3,57.6 L125.8,54.9 L130.1,54.1 L134.9,54.4 L139.2,56.1 L143.3,59.0 L146.6,63.0 L150.1,66.6 L152.6,68.1 L154.2,71.4 L156.4,74.4 L157.0,79.9 L155.8,83.0 L153.2,85.7 L148.8,87.5 L143.4,87.6 L140.4,85.8 L139.1,82.8 L136.2,79.4 L133.2,77.3 L130.5,76.9 L126.6,76.9 L123.1,77.7 L119.4,80.5 L116.7,83.3 L113.5,86.5 L109.4,88.2 L104.8,88.1 L100.6,84.7 L99.1,79.8 L98.9,76.4 L99.6,72.9 L101.2,69.8 L103.5,66.8 L107.1,64.7 L111.5,62.4 L116.8,60.1 Z" fill="#2f7825" stroke="none"/>
<path d="M285.5,732.6 L84.4,378.4 L67.4,153.9 L131.4,67.4" fill="none" stroke="#ffd64a" stroke-width="3.5" stroke-linecap="round" stroke-linejoin="round" opacity="0.95"/>
</svg>