<svg xmlns="http://www.w3.org/2000/svg" viewBox="0 0 800 600" preserveAspectRatio="xMidYMid slice">
<rect width="100%" height="100%" fill="#143018"/>
<path d="M508.6,-75.9 L498.0,-71.1 L488.9,-66.7 L482.0,-62.9 L470.8,-61.9 L462.6,-63.4 L458.9,-64.6 L456.8,-62.7 L454.5,-51.0 L451.9,-41.3 L448.3,-34.1 L450.0,-30.1 L458.9,-28.2 L471.5,-27.8 L489.4,-28.0 L497.9,-29.5 L503.2,-32.6 L505.9,-41.0 L507.8,-52.4 L508.6,-75.9 Z" fill="#2b5a2a" stroke="none"/>
<path d="M512.5,18.3 L511.0,6.4 L511.8,-4.5 L511.0,-14.9 L509.3,-23.5 L510.8,-30.7 L515.5,-40.1 L515.7,-59.4 L517.0,-71.5 L522.1,-81.6 L530.3,-88.5 L537.0,-91.5 L558.2,-97.2 L574.8,-100.9 L590.4,-98.7 L608.7,-93.7 L623.0,-95.7 L629.7,-98.3 L640.1,-94.2 L657.1,-88.8 L667.5,-87.8 L675.2,-92.7 L679.4,-100.6 L685.6,-106.3 L697.7,-110.3 L727.6,-110.0 L750.3,-116.4 L762.0,-115.4 L777.9,-115.9 L792.3,-119.0 L805.3,-119.0 L819.7,-118.1 L840.2,-116.3 L862.7,-112.2 L890.1,-108.4 L917.5,-108.7 L943.4,-110.1 L970.5,-111.8 L984.3,-113.0 L996.1,-111.8 L1001.7,-116.6 L1007.2,-121.7 L1014.6,-126.7 L1093.8,-150.9 L1101.5,-152.4 L1107.1,-153.3 L1126.7,-154.7 L1143.6,-154.4 L1174.6,-150.4 L1191.2,-151.1 L1208.7,-151.6 L1219.7,-153.7 L1221.5,-157.9 L1229.1,-155.4 L1236.0,-151.6 L1253.1,-151.7 L1253.7,-145.5 L1254.9,-136.7 L1257.3,-131.0 L1263.2,-130.2 L1266.7,-128.9 L1266.7,-125.4 L1265.7,-122.0 L1268.7,-118.8 L1272.4,-118.5 L1275.2,-115.0 L1279.3,-103.5 L1283.3,-89.9 L1287.2,-80.4 L1288.7,-72.5 L1287.9,-68.3 L1274.2,-59.2 L1262.2,-53.3 L1230.8,-50.0 L1201.0,-58.4 L1175.0,-63.5 L1156.9,-68.0 L1139.8,-68.6 L1122.0,-66.9 L1081.6,-54.6 L1065.5,-51.3 L1044.8,-43.4 L1035.3,-39.1 L1003.5,-31.1 L975.1,-19.9 L953.9,-4.0 L945.9,6.0 L941.1,14.3 L938.4,23.5 L942.9,24.3 L960.3,17.5 L1021.8,-11.6 L1034.5,-11.7 L1039.7,-11.0 L1055.0,-18.7 L1084.8,-31.2 L1099.2,-35.1 L1117.3,-37.9 L1142.5,-40.6 L1147.6,-38.0 L1149.5,-33.8 L1143.6,-28.0 L1116.2,-13.9 L1078.3,12.7 L1047.1,44.8 L1012.1,72.1 L1011.6,97.3 L956.9,115.5 L906.5,133.2 L891.8,137.7 L870.1,140.8 L835.6,142.3 L799.8,142.7 L787.0,145.7 L778.4,142.8 L786.9,120.9 L739.3,104.7 L729.2,105.9 L715.1,103.3 L705.0,98.3 L699.8,91.9 L688.8,84.5 L667.9,78.3 L653.2,80.2 L629.0,84.1 L609.9,87.6 L585.4,93.7 L556.6,96.6 L512.5,18.3 Z" fill="#2b5a2a" stroke="none"/>
<path d="M668.5,389.6 L665.4,383.3 L662.2,376.0 L661.0,370.7 L661.0,366.5 L662.6,363.2 L664.5,360.8 L668.5,358.7 L672.5,357.5 L676.7,357.5 L680.5,358.2 L684.1,360.5 L687.0,361.9 L691.0,363.2 L692.2,362.3 L694.3,362.6 L698.4,365.0 L701.9,367.3 L703.9,370.4 L706.0,374.5 L707.9,375.6 L711.5,377.2 L712.5,379.0 L713.3,382.1 L715.1,387.7 L717.7,392.6 L718.9,395.9 L719.3,398.4 L719.0,399.9 L717.0,401.2 L713.3,401.6 L709.6,401.0 L704.0,400.3 L697.5,399.2 L689.3,396.5 L685.6,395.8 L682.4,395.7 L677.8,395.5 L674.9,394.9 L671.6,394.2 L669.4,392.6 L668.5,389.6 Z" fill="#2b5a2a" stroke="none"/>
<path d="M655.9,338.6 L650.6,337.5 L643.8,337.5 L638.4,338.0 L631.9,338.8 L619.0,340.3 L600.0,341.7 L590.5,342.6 L584.0,343.9 L577.1,345.4 L567.4,345.7 L557.8,345.6 L551.4,345.1 L544.3,341.1 L539.2,336.5 L535.2,326.8 L530.9,315.3 L527.3,305.1 L523.5,297.3 L519.9,293.7 L509.2,287.6 L505.2,283.4 L503.8,278.4 L503.9,264.1 L503.9,254.6 L502.1,248.8 L498.4,243.9 L493.9,237.4 L491.8,231.7 L489.9,226.4 L489.8,220.6 L490.6,213.5 L490.7,207.5 L490.3,204.0 L487.2,201.4 L482.8,197.9 L480.2,193.1 L479.2,188.0 L479.8,182.9 L482.0,178.2 L484.1,175.8 L487.9,174.6 L491.2,173.7 L494.1,171.7 L495.9,168.5 L496.4,163.5 L495.1,158.6 L488.0,146.2 L482.2,136.4 L478.3,127.1 L475.8,121.1 L473.3,111.6 L465.0,102.3 L461.5,94.5 L460.8,87.0 L461.2,78.8 L461.2,67.8 L459.0,60.2 L457.8,54.3 L458.8,44.8 L460.7,34.9 L456.5,32.2 L453.4,28.9 L449.5,27.3 L448.2,26.9 L447.6,8.1 L452.5,7.4 L456.4,6.4 L459.2,5.0 L460.6,2.1 L460.8,-1.8 L460.6,-5.2 L461.1,-7.9 L462.9,-9.9 L466.1,-10.9 L469.8,-11.0 L473.5,-9.8 L476.9,-7.7 L479.8,-4.7 L481.1,0.9 L481.9,7.8 L487.4,10.0 L488.7,16.2 L493.5,23.2 L498.0,28.7 L503.1,37.4 L506.4,45.8 L507.8,58.2 L513.1,72.0 L516.3,78.9 L522.1,99.3 L525.8,111.7 L526.4,114.6 L529.3,124.7 L533.4,135.6 L536.0,137.4 L541.3,138.1 L543.1,142.1 L539.9,144.6 L537.9,148.2 L537.8,153.0 L541.4,158.2 L548.4,166.9 L556.0,174.6 L561.6,182.1 L566.4,189.7 L570.9,197.5 L573.6,205.4 L574.7,210.4 L575.8,215.6 L578.9,219.2 L581.9,223.2 L585.6,227.9 L593.9,239.2 L602.0,249.1 L610.4,260.8 L613.9,265.6 L620.1,273.9 L623.6,281.9 L623.2,292.4 L623.8,294.1 L627.6,296.5 L628.8,296.8 L629.6,298.0 L631.0,304.3 L634.1,308.8 L639.4,308.9 L668.9,301.5 L683.2,306.8 L648.8,316.0 L645.8,318.0 L643.8,321.3 L645.6,325.5 L650.5,328.8 L654.8,331.9 L656.9,334.6 L655.9,338.6 Z" fill="#2b5a2a" stroke="none"/>
<path d="M763.2,382.8 L760.6,385.1 L756.9,386.9 L752.5,386.7 L748.0,385.8 L744.0,383.8 L741.3,383.7 L739.4,384.5 L738.6,386.6 L739.1,389.6 L738.2,390.5 L725.4,378.0 L722.8,365.5 L724.4,353.3 L726.5,342.8 L727.5,340.9 L729.6,339.2 L732.6,338.2 L735.6,337.9 L739.3,337.9 L742.6,339.6 L745.3,341.0 L748.9,344.9 L752.8,350.6 L757.0,356.5 L760.6,361.3 L764.5,364.0 L769.5,364.0 L773.8,362.5 L777.0,361.3 L781.3,361.2 L787.3,362.3 L793.1,363.7 L797.4,363.1 L826.1,333.7 L829.8,335.9 L803.3,364.1 L804.6,366.0 L806.9,368.8 L808.5,370.9 L810.2,373.8 L810.6,376.1 L810.1,379.6 L808.9,382.5 L803.1,384.1 L800.2,382.7 L797.4,381.5 L794.7,382.9 L791.4,386.6 L787.6,390.4 L784.2,392.6 L780.1,391.7 L773.3,383.4 L770.9,380.3 L767.9,379.5 L765.7,380.3 L763.2,382.8 Z" fill="#2b5a2a" stroke="none"/>
<path d="M698.2,430.6 L706.0,432.1 L715.6,433.1 L725.2,432.8 L731.5,432.9 L736.2,434.0 L740.6,436.9 L741.8,441.9 L739.9,449.4 L736.2,457.4 L731.2,464.7 L728.0,466.8 L719.1,469.2 L711.0,469.2 L704.9,466.3 L701.0,461.1 L698.9,454.2 L698.2,440.9 L698.2,430.6 Z" fill="#2b5a2a" stroke="none"/>
<path d="M503.3,646.7 L506.3,646.7 L511.3,647.6 L515.9,649.9 L520.0,652.7 L521.0,655.4 L520.9,658.9 L521.4,661.9 L521.4,666.7 L523.8,673.8 L526.6,678.3 L530.7,682.3 L536.3,685.4 L540.2,686.6 L543.4,685.9 L544.7,683.3 L543.1,679.7 L542.0,675.5 L542.7,671.2 L546.7,667.5 L550.7,665.1 L552.0,664.6 L540.5,658.7 L531.3,651.6 L524.5,647.3 L520.0,644.8 L515.1,644.2 L508.9,644.6 L503.0,645.7 L503.3,646.7 Z" fill="#2b5a2a" stroke="none"/>
<path d="M512.6,640.3 L503.9,626.8 L492.0,606.8 L453.0,549.3 L441.1,533.2 L419.8,499.4 L417.7,501.3 L429.9,518.7 L432.9,525.6 L427.9,534.8 L425.8,535.4 L423.2,535.1 L420.6,534.1 L417.6,534.2 L414.5,536.5 L412.6,540.5 L412.5,544.3 L413.0,546.9 L411.5,548.9 L407.5,550.8 L406.0,552.0 L411.0,554.6 L420.7,556.3 L428.1,558.1 L435.2,565.8 L437.7,576.1 L441.2,586.0 L452.1,597.4 L458.2,604.9 L463.2,616.4 L469.2,624.8 L475.3,632.6 L481.4,638.9 L488.4,642.7 L494.8,644.1 L502.1,643.4 L511.8,641.5 L512.6,640.3 Z" fill="#2b5a2a" stroke="none"/>
<path d="M380.3,522.7 L376.6,517.6 L373.5,513.8 L367.1,511.3 L359.6,509.5 L361.7,502.5 L364.1,494.7 L363.2,491.6 L358.1,486.9 L352.1,479.7 L348.0,471.8 L341.4,457.2 L339.1,449.6 L336.9,443.7 L332.2,438.6 L325.4,428.6 L322.1,421.0 L315.7,408.8 L312.6,399.6 L310.2,389.8 L306.6,380.7 L302.4,371.9 L297.7,365.0 L297.3,358.9 L298.6,353.2 L299.1,347.4 L297.2,342.1 L293.2,335.9 L290.1,330.6 L287.0,324.0 L287.0,316.9 L289.9,308.6 L294.2,302.5 L296.2,295.0 L295.5,289.9 L293.0,287.2 L288.6,287.1 L284.9,289.1 L283.2,292.1 L284.5,284.4 L285.8,277.1 L284.0,270.7 L286.8,266.4 L289.9,257.5 L291.1,251.0 L290.7,247.1 L288.1,242.3 L284.9,238.4 L283.8,235.1 L283.8,230.2 L284.8,222.6 L287.7,201.0 L289.6,181.6 L291.1,172.7 L291.8,167.2 L292.0,161.6 L290.6,156.3 L286.8,152.3 L294.4,128.6 L306.7,104.4 L307.7,112.3 L308.9,113.9 L311.4,112.9 L313.6,110.6 L315.3,107.7 L314.6,103.4 L312.2,98.3 L311.2,97.8 L314.1,94.4 L315.3,88.8 L312.8,85.0 L308.8,80.5 L304.9,75.5 L310.8,76.1 L317.1,75.2 L322.2,71.7 L327.9,64.7 L332.4,58.7 L338.4,48.8 L342.3,42.0 L345.0,39.6 L349.3,35.5 L352.9,31.7 L356.7,29.6 L362.6,27.2 L367.0,25.0 L370.3,21.9 L374.5,17.5 L378.8,10.5 L380.7,6.5 L380.9,0.2 L378.5,-6.1 L376.0,-10.5 L374.9,-12.8 L383.6,-14.6 L389.1,-12.4 L395.6,-9.1 L400.0,-9.6 L407.7,-14.1 L417.4,-18.1 L413.7,-14.0 L410.8,-10.1 L410.0,-4.9 L407.9,1.5 L405.3,10.2 L405.7,19.3 L409.3,28.4 L415.4,40.3 L421.3,50.9 L426.4,59.6 L428.6,65.0 L428.9,69.0 L428.6,73.0 L426.9,76.8 L427.9,84.6 L428.6,95.9 L428.5,102.1 L425.0,116.5 L423.3,124.8 L423.8,131.1 L423.9,135.8 L421.7,141.8 L411.1,152.0 L403.7,156.8 L402.7,165.0 L407.9,166.6 L396.1,194.2 L372.3,206.7 L371.5,221.6 L390.4,279.1 L391.7,313.6 L377.2,336.8 L378.4,341.1 L382.7,347.2 L389.2,352.2 L394.3,356.2 L398.1,360.6 L402.2,368.2 L404.5,376.6 L410.6,388.8 L417.4,404.7 L422.8,421.1 L424.9,429.7 L420.9,445.6 L416.6,459.0 L414.1,468.5 L409.3,479.6 L408.1,481.5 L409.9,484.5 L408.2,486.1 L406.6,484.5 L405.2,486.8 L399.7,493.5 L389.8,501.1 L382.9,506.2 L379.2,511.1 L378.9,517.4 L379.7,519.7 L380.3,522.7 Z" fill="#2b5a2a" stroke="none"/>
<path d="M569.2,271.2 L568.1,269.3 L567.9,261.4 L565.2,251.9 L559.1,240.7 L555.0,230.3 L554.9,228.4 L556.5,211.4 L556.1,205.9 L555.3,202.9 L553.9,200.2 L548.4,194.4 L542.5,188.9 L537.6,185.7 L533.3,184.5 L526.1,186.6 L519.2,189.4 L514.5,192.6 L511.0,196.5 L508.5,205.4 L505.8,218.1 L505.4,223.9 L505.5,229.3 L506.8,233.4 L508.6,236.2 L519.1,250.5 L529.3,263.1 L531.2,266.5 L532.2,274.0 L533.3,280.3 L534.6,283.6 L540.5,295.7 L542.4,301.2 L544.3,308.6 L547.1,318.2 L549.7,323.0 L553.6,327.6 L558.5,332.2 L564.1,336.3 L568.5,338.6 L573.7,339.8 L584.0,339.2 L593.5,338.5 L607.2,338.3 L612.7,337.5 L616.7,335.8 L619.1,333.3 L621.6,330.5 L622.9,327.8 L623.3,325.1 L623.7,321.0 L622.3,317.0 L620.9,315.9 L610.5,310.9 L590.5,303.9 L586.9,302.5 L585.2,301.5 L584.2,300.2 L584.0,295.2 L584.6,287.6 L583.9,284.0 L580.7,280.2 L571.9,273.9 L569.2,271.2 Z" fill="#5a9540" stroke="none"/>
<path d="M401.5,65.5 L398.6,63.8 L398.3,69.0 L394.8,78.1 L392.8,85.9 L389.5,109.0 L387.9,117.9 L386.2,125.0 L384.9,129.4 L383.4,131.9 L380.6,134.2 L378.8,136.2 L377.6,139.2 L377.9,143.3 L379.3,146.5 L381.9,149.7 L386.2,151.6 L392.2,153.1 L398.1,153.7 L400.9,152.6 L403.4,151.0 L409.8,143.8 L417.7,136.6 L418.3,134.2 L417.9,131.8 L417.1,127.6 L417.5,124.5 L421.9,104.7 L423.2,97.5 L423.4,95.2 L423.2,92.3 L422.3,86.8 L420.6,79.1 L420.2,75.8 L421.2,73.4 L424.0,71.1 L425.3,69.2 L425.9,66.7 L425.4,64.9 L424.0,61.8 L420.5,56.7 L416.5,52.8 L410.2,47.0 L411.8,50.1 L413.8,53.0 L414.4,58.2 L413.3,61.1 L410.8,63.7 L406.6,65.5 L401.5,65.5 Z" fill="#5a9540" stroke="none"/>
<path d="M87.2,-34.7 L-0.5,91.8 L-33.7,173.8 L-75.1,219.2 L-101.8,251.6 L-53.2,282.5 L14.2,346.6 L130.2,228.1 L165.9,171.3 L223.4,74.0 L185.3,31.0 L126.1,-18.5 L87.2,-34.7 Z" fill="#5a9540" stroke="none"/>
<path d="M644.9,50.9 L650.1,50.8 L656.1,51.5 L665.7,52.7 L675.0,53.0 L692.6,51.3 L695.7,51.2 L698.9,51.4 L701.1,52.7 L702.6,54.6 L703.0,57.0 L702.9,59.4 L700.2,69.8 L697.5,76.3 L694.0,80.0 L687.7,82.5 L680.3,81.2 L672.8,77.9 L667.5,76.0 L663.3,75.5 L659.2,75.5 L652.9,75.4 L646.5,75.9 L641.0,76.2 L636.8,74.5 L634.7,72.7 L633.3,70.5 L632.5,67.9 L632.4,65.5 L633.6,59.8 L637.6,53.6 L641.4,51.8 L644.9,50.9 Z" fill="#5a9540" stroke="none"/>
<path d="M713.0,441.3 L717.2,437.6 L723.0,435.3 L726.5,435.2 L730.2,435.6 L733.4,437.8 L734.9,441.6 L733.5,447.6 L729.7,452.0 L723.0,457.5 L720.3,459.1 L717.3,460.3 L714.8,460.1 L712.2,459.3 L709.8,457.8 L707.8,455.7 L706.9,453.2 L706.8,450.8 L708.6,446.3 L710.7,443.5 L713.0,441.3 Z" fill="#5a9540" stroke="none"/>
<path d="M490.3,-46.5 L491.2,-47.3 L492.1,-48.6 L492.6,-49.7 L492.5,-51.2 L491.7,-52.3 L490.0,-53.5 L488.0,-54.2 L485.9,-54.4 L484.1,-54.3 L482.5,-54.0 L481.3,-53.1 L480.3,-51.9 L479.4,-50.5 L478.9,-49.1 L479.0,-47.6 L479.6,-46.0 L480.5,-45.0 L482.1,-44.7 L484.6,-44.6 L486.9,-45.0 L489.2,-45.7 L490.3,-46.5 Z" fill="#5a9540" stroke="none"/>
<path d="M535.1,-75.7 L533.4,-77.2 L531.5,-78.3 L529.2,-78.9 L527.3,-78.6 L526.1,-77.8 L525.1,-76.2 L524.6,-74.6 L524.9,-72.3 L525.9,-70.2 L527.0,-68.3 L528.8,-66.5 L530.7,-65.1 L532.8,-64.9 L534.8,-65.4 L536.4,-66.6 L537.0,-68.5 L537.3,-70.6 L536.9,-72.9 L536.3,-74.4 L535.1,-75.7 Z" fill="#5a9540" stroke="none"/>
<path d="M483.8,185.3 L483.5,186.1 L483.3,187.3 L483.6,188.6 L484.2,190.1 L485.4,191.0 L486.4,191.7 L487.9,191.7 L489.7,191.2 L491.1,190.3 L492.0,189.2 L492.5,188.0 L492.5,186.6 L492.1,185.3 L491.3,184.3 L490.2,183.6 L488.7,183.1 L487.2,182.9 L486.0,183.2 L484.7,184.0 L483.8,185.3 Z" fill="#5a9540" stroke="none"/>
<path d="M751.0,358.4 L748.3,354.7 L745.1,349.5 L742.5,346.3 L740.8,344.6 L739.1,344.1 L737.1,344.5 L735.0,345.5 L733.7,347.1 L732.3,349.7 L731.6,352.7 L730.6,357.9 L730.2,362.8 L730.2,366.7 L730.8,370.3 L732.0,373.3 L734.1,375.9 L736.1,377.0 L739.1,377.8 L742.3,378.8 L745.4,379.6 L747.9,381.2 L751.5,382.8 L754.0,383.3 L757.1,383.2 L759.3,382.1 L761.2,379.5 L762.1,376.8 L762.2,373.7 L761.9,371.7 L755.5,364.1 L751.0,358.4 Z" fill="#5a9540" stroke="none"/>
<path d="M775.3,381.9 L773.9,379.4 L772.6,376.1 L772.2,372.0 L772.8,369.0 L774.1,366.4 L775.8,364.9 L778.2,364.2 L781.0,364.3 L783.8,365.1 L786.2,366.6 L787.8,368.9 L789.2,372.2 L790.1,374.6 L790.2,376.4 L789.8,379.1 L788.5,382.4 L786.8,384.7 L785.1,385.9 L783.0,386.4 L780.5,386.3 L777.7,384.7 L775.3,381.9 Z" fill="#5a9540" stroke="none"/>
<path d="M531.8,681.3 L528.1,678.1 L525.6,675.3 L523.5,671.6 L522.4,668.0 L522.3,664.7 L522.9,663.3 L524.2,662.2 L525.8,662.1 L528.0,662.9 L529.4,664.4 L531.4,668.7 L533.7,671.8 L537.6,676.2 L540.9,679.3 L541.6,680.6 L541.7,682.1 L541.2,683.6 L540.4,684.9 L538.4,684.9 L535.8,684.3 L533.5,682.7 L531.8,681.3 Z" fill="#5a9540" stroke="none"/>
<path d="M496.9,633.0 L496.3,629.2 L494.4,624.8 L492.6,622.3 L491.6,621.7 L490.4,621.7 L489.4,621.7 L488.6,622.6 L487.8,623.8 L487.8,626.6 L488.9,633.4 L490.2,635.3 L491.4,637.1 L492.9,637.8 L494.2,637.8 L495.6,637.0 L496.6,635.2 L496.9,633.0 Z" fill="#5a9540" stroke="none"/>
<path d="M478.8,608.4 L478.5,605.8 L477.7,603.4 L475.9,600.6 L474.5,598.7 L473.0,597.1 L471.3,596.2 L469.5,596.1 L468.3,596.5 L466.8,597.6 L465.8,599.3 L465.3,601.8 L465.7,604.6 L466.8,607.0 L468.3,609.3 L470.1,611.3 L471.9,612.7 L473.6,613.5 L475.8,613.8 L477.3,613.3 L478.5,612.3 L479.0,610.5 L478.8,608.4 Z" fill="#5a9540" stroke="none"/>
<path d="M460.0,572.9 L458.9,571.2 L457.4,569.6 L455.6,568.9 L453.4,569.0 L451.3,570.1 L450.2,572.0 L449.8,574.2 L449.8,576.5 L450.2,578.3 L451.3,580.0 L452.6,581.2 L454.0,582.1 L456.0,582.3 L458.0,582.0 L459.7,581.1 L461.0,580.0 L461.4,578.4 L461.0,575.5 L460.0,572.9 Z" fill="#5a9540" stroke="none"/>
<path d="M415.5,544.6 L415.1,543.2 L415.3,541.4 L416.1,539.3 L417.5,537.7 L418.8,537.2 L420.4,537.1 L421.9,537.7 L423.1,539.3 L423.7,540.8 L423.1,543.0 L422.6,544.5 L421.0,545.6 L419.3,546.2 L417.4,546.1 L415.5,544.6 Z" fill="#5a9540" stroke="none"/>
<path d="M-80.0,500.1 L-73.1,480.6 L-40.4,437.2 L-13.0,417.8 L17.8,405.1 L40.5,380.4 L59.2,350.3 L80.6,332.9 L95.3,332.3 L109.7,342.4 L152.7,399.1 L177.4,441.8 L180.1,483.9 L167.4,520.0 L162.8,562.8 L181.9,639.0 L198.2,684.4 L216.9,717.8 L211.5,754.5 L187.2,786.0 L120.4,810.1 L26.9,818.1 L-26.6,796.7 L-61.3,746.0 L-73.8,679.0 L-66.4,594.8 L-80.0,500.1 Z" fill="#2e5577" stroke="none"/>
<path d="M359.8,161.7 L358.5,161.3 L357.3,161.6 L356.9,162.8 L356.9,163.9 L357.3,165.1 L357.8,166.5 L358.4,167.3 L359.2,168.7 L359.1,169.5 L358.8,170.3 L359.6,171.1 L360.0,172.1 L359.1,173.3 L358.4,174.0 L358.3,175.2 L358.3,176.3 L358.3,177.2 L358.5,178.2 L359.6,178.9 L360.7,179.1 L362.6,178.9 L363.9,179.4 L364.8,180.8 L365.0,181.9 L365.2,183.2 L366.2,183.7 L366.6,184.9 L366.3,186.1 L365.3,187.1 L363.8,187.9 L361.9,188.0 L360.9,188.7 L360.6,189.6 L359.7,189.8 L358.4,190.1 L357.7,191.6 L356.6,193.4 L356.1,195.3 L355.8,196.8 L355.5,198.8 L355.0,200.7 L354.7,202.4 L353.9,204.1 L353.9,205.4 L354.1,206.4 L355.1,206.9 L357.1,206.6 L358.7,207.1 L360.2,208.3 L361.4,209.3 L363.0,210.8 L364.7,211.5 L366.3,211.2 L367.4,210.1 L368.9,209.6 L371.3,209.2 L373.2,208.8 L375.1,208.8 L376.6,209.0 L378.0,208.8 L379.1,208.3 L380.4,208.6 L382.0,208.6 L383.3,209.1 L384.0,209.9 L384.6,211.3 L385.2,212.9 L386.0,215.0 L387.9,217.4 L388.0,218.7 L389.4,220.1 L390.4,221.0 L391.6,221.6 L392.3,222.5 L393.7,223.4 L394.9,223.5 L396.6,223.8 L398.3,223.9 L399.6,224.4 L401.2,225.3 L402.7,226.1 L404.0,226.8 L405.3,226.8 L406.0,225.7 L406.1,224.6 L406.0,223.4 L405.1,222.2 L403.9,221.8 L403.2,220.8 L403.3,219.7 L403.7,218.0 L404.2,216.9 L404.4,215.7 L405.7,215.2 L406.2,214.3 L406.0,213.4 L405.5,212.3 L404.0,211.7 L403.6,210.7 L403.8,209.1 L403.3,207.7 L402.0,206.8 L400.8,206.2 L399.5,205.0 L398.3,204.0 L397.3,202.8 L397.0,201.4 L397.3,199.8 L398.8,198.3 L400.4,197.3 L401.4,195.1 L402.4,193.4 L402.7,191.3 L403.3,189.3 L404.3,187.7 L404.8,186.4 L405.2,184.1 L405.2,182.5 L405.8,181.1 L407.2,180.2 L407.9,178.9 L407.9,176.9 L408.3,174.6 L408.1,172.5 L407.4,170.5 L406.8,168.1 L405.3,166.3 L402.7,165.0 L399.5,164.8 L397.5,165.4 L395.4,165.3 L393.3,165.0 L391.6,164.2 L389.7,164.5 L387.3,165.6 L385.9,166.8 L384.8,167.7 L383.0,167.7 L381.2,168.1 L380.2,168.9 L379.3,169.8 L378.0,171.6 L376.6,172.6 L371.4,174.0 L368.2,174.0 L366.3,173.3 L365.0,172.1 L364.1,170.4 L363.3,169.2 L362.8,167.4 L363.0,165.9 L364.2,164.8 L365.6,163.6 L366.3,162.7 L368.7,162.4 L369.2,161.4 L368.4,160.4 L367.0,159.8 L366.1,159.6 L365.1,160.6 L363.3,160.9 L361.1,161.4 L359.8,161.7 Z" fill="#2e5577" stroke="none"/>
<path d="M356.5,218.2 L355.6,221.2 L355.6,224.0 L356.5,227.0 L358.7,230.0 L360.1,232.0 L361.6,234.2 L362.7,236.3 L363.6,238.6 L363.7,241.3 L364.4,245.3 L365.1,247.4 L366.9,250.1 L368.5,252.7 L370.1,256.3 L371.7,260.2 L373.4,262.3 L374.3,264.6 L374.5,267.0 L373.7,270.1 L372.2,272.4 L371.0,274.6 L370.3,276.7 L369.6,279.4 L369.6,281.7 L370.1,284.7 L370.7,287.2 L370.6,288.6 L369.7,289.8 L369.1,291.2 L367.5,293.4 L366.1,294.7 L364.9,296.1 L364.0,298.8 L363.9,301.1 L365.8,304.0 L367.8,304.2 L370.7,303.6 L372.4,302.8 L374.0,301.3 L375.7,299.0 L378.2,297.0 L380.6,296.8 L383.7,297.1 L387.6,297.2 L390.7,297.5 L393.6,298.2 L397.4,299.1 L400.7,300.4 L403.6,300.5 L405.4,300.0 L406.3,298.9 L406.9,296.9 L407.3,294.5 L407.0,292.5 L406.1,290.5 L404.8,288.6 L402.7,286.7 L401.0,285.2 L400.2,283.3 L399.4,281.9 L399.0,279.7 L398.2,277.4 L397.8,275.4 L397.8,273.8 L397.8,272.0 L398.3,270.5 L399.0,268.1 L398.8,266.6 L398.4,265.7 L398.4,264.1 L398.8,262.6 L399.5,261.5 L400.5,260.5 L402.1,259.6 L403.3,259.1 L404.0,257.8 L404.8,256.4 L405.4,254.3 L405.5,252.3 L405.7,251.3 L405.7,249.7 L405.1,248.5 L403.6,247.6 L402.2,246.5 L400.1,245.7 L399.6,244.7 L399.5,243.5 L399.2,242.3 L398.7,241.4 L397.6,240.6 L395.6,239.7 L394.4,239.2 L392.9,238.4 L392.0,237.5 L391.3,236.4 L390.9,235.1 L390.8,233.8 L391.2,232.4 L391.6,231.4 L392.6,230.1 L393.6,229.5 L395.1,229.7 L396.6,230.0 L398.1,229.9 L399.5,229.5 L400.4,229.2 L401.2,227.9 L401.4,227.0 L400.0,225.5 L397.2,224.6 L394.0,224.2 L392.0,224.6 L389.4,224.1 L387.0,224.2 L385.0,223.1 L383.1,223.0 L381.0,221.8 L380.2,220.4 L380.1,219.4 L380.8,217.8 L381.7,216.7 L382.8,216.0 L383.7,215.2 L384.7,214.9 L382.9,215.0 L381.5,215.1 L380.2,215.2 L380.3,214.0 L381.4,212.9 L382.0,211.7 L381.2,210.8 L379.8,210.8 L378.6,212.1 L378.8,213.7 L377.8,215.5 L375.8,215.9 L374.7,215.7 L373.2,215.5 L372.5,214.8 L371.2,213.9 L370.3,212.4 L371.8,216.0 L372.4,217.8 L370.6,218.1 L368.6,217.6 L366.0,217.5 L364.6,216.0 L362.1,214.8 L359.6,213.8 L357.5,215.0 L356.7,215.8 L355.8,217.2 L356.5,218.2 Z" fill="#2e5577" stroke="none"/>
<path d="M367.5,305.0 L367.5,307.3 L367.8,310.0 L368.2,312.2 L368.6,315.4 L369.3,318.0 L369.9,319.5 L371.0,321.9 L372.0,323.6 L373.0,325.0 L374.5,326.6 L375.7,326.9 L377.2,326.6 L379.0,325.5 L380.9,324.3 L382.9,323.0 L384.7,322.5 L386.8,322.7 L389.0,323.0 L391.6,323.8 L394.5,324.5 L396.8,324.8 L398.6,325.4 L399.8,326.1 L400.9,326.9 L401.6,327.7 L402.2,328.7 L403.6,329.7 L405.2,330.1 L406.0,329.3 L406.3,327.8 L406.7,326.3 L406.8,324.8 L406.5,323.2 L405.3,322.0 L405.1,320.5 L405.0,319.0 L404.7,317.9 L404.5,316.3 L404.5,315.1 L403.7,313.6 L404.1,312.0 L404.5,311.1 L405.6,310.0 L406.2,308.4 L406.8,307.3 L407.5,306.5 L407.6,305.4 L408.2,304.2 L407.5,303.2 L406.7,302.5 L405.5,301.9 L404.3,301.4 L400.7,301.3 L397.8,300.4 L395.6,299.5 L392.0,298.5 L388.6,297.8 L385.5,297.7 L382.3,297.7 L381.0,297.7 L379.2,297.7 L378.3,297.8 L377.4,298.7 L376.8,299.4 L375.7,300.6 L374.9,301.4 L374.3,302.0 L372.7,303.4 L371.3,304.0 L369.9,304.4 L367.5,305.0 Z" fill="#2e5577" stroke="none"/>
<path d="M376.7,328.4 L377.8,330.5 L378.5,332.8 L379.3,335.0 L379.3,335.6 L381.2,334.7 L383.2,333.6 L385.2,333.0 L387.9,332.6 L390.6,332.9 L393.1,333.6 L395.8,335.2 L398.8,336.3 L400.8,336.5 L403.8,336.3 L404.7,335.9 L404.5,334.6 L404.8,333.7 L404.8,332.7 L403.8,331.9 L402.7,331.1 L401.4,330.3 L400.6,329.3 L399.3,328.4 L398.3,327.9 L397.4,327.2 L396.0,327.4 L394.4,327.7 L393.1,327.4 L391.8,327.2 L390.9,327.2 L390.2,327.2 L389.5,326.8 L388.6,326.3 L387.5,325.6 L386.6,325.2 L385.7,325.0 L384.5,325.0 L383.3,325.0 L382.6,325.6 L381.6,326.6 L380.7,326.7 L379.4,327.1 L378.0,327.2 L377.4,327.7 L376.7,328.4 Z" fill="#2e5577" stroke="none"/>
<path d="M372.8,579.7 L375.6,559.6 L378.3,546.6 L382.4,538.8 L390.9,528.3 L398.6,519.8 L411.1,489.2 L415.3,489.7 L419.6,481.7 L427.5,463.2 L431.0,450.5 L433.3,441.7 L432.0,434.8 L429.1,424.4 L425.7,416.9 L422.1,409.2 L409.5,379.1 L406.2,369.2 L403.8,360.9 L403.3,354.6 L404.8,350.4 L403.2,347.8 L399.8,346.8 L394.7,346.2 L389.9,342.7 L386.4,340.7 L382.6,337.5 L384.2,335.6 L387.8,335.3 L390.7,335.2 L390.5,336.4 L389.1,337.6 L390.1,338.8 L391.3,339.5 L390.5,341.3 L395.2,345.5 L402.3,346.5 L406.2,348.9 L409.0,347.6 L413.6,346.0 L421.4,344.5 L430.6,341.5 L436.3,340.9 L451.1,342.2 L455.4,344.5 L463.4,347.6 L478.5,361.2 L494.4,375.7 L485.2,383.0 L468.4,365.3 L456.5,354.2 L445.1,348.8 L430.1,349.8 L414.2,356.5 L410.7,361.4 L417.6,386.3 L430.3,415.0 L437.2,431.5 L439.3,443.1 L433.9,462.4 L419.5,495.2 L408.7,515.2 L395.2,531.7 L388.8,549.7 L385.9,579.7 L376.9,584.3 L372.8,579.7 Z" fill="#2e5577" stroke="none"/>
<path d="M583.2,32.2 L583.4,30.8 L583.2,29.2 L582.3,27.9 L581.1,26.9 L579.5,26.5 L577.5,26.0 L576.0,25.0 L575.2,23.7 L575.0,22.2 L575.5,21.0 L576.3,19.7 L577.3,19.2 L578.3,19.3 L579.4,19.5 L580.7,19.4 L581.4,18.8 L581.7,18.0 L582.3,17.5 L583.1,17.2 L584.0,17.3 L585.0,17.9 L585.9,19.0 L586.5,20.7 L586.8,22.2 L587.3,24.6 L588.2,25.6 L589.9,26.8 L592.3,27.9 L593.6,29.0 L594.6,30.3 L595.1,32.0 L595.1,33.9 L594.8,35.8 L594.0,36.5 L593.0,36.7 L591.5,36.4 L590.1,36.2 L588.5,36.8 L587.6,37.3 L585.9,37.2 L584.8,36.6 L583.7,35.4 L583.1,33.9 L583.2,32.2 Z" fill="#e7d6a3" stroke="none"/>
<path d="M595.1,293.9 L594.6,292.8 L594.0,291.8 L592.6,290.7 L592.0,290.5 L589.3,291.7 L588.4,292.9 L588.1,294.0 L588.2,295.1 L588.5,296.9 L589.4,298.3 L590.4,299.1 L592.5,299.4 L594.6,299.1 L595.5,298.0 L595.9,296.3 L595.9,295.5 L595.1,293.9 Z" fill="#e7d6a3" stroke="none"/>
<path d="M606.1,293.2 L604.9,292.6 L603.4,292.2 L602.3,292.7 L601.7,293.6 L601.4,294.6 L601.5,296.0 L602.3,297.1 L603.4,298.0 L604.8,298.5 L606.2,298.4 L607.4,297.4 L607.7,296.0 L607.5,294.8 L607.0,293.8 L606.1,293.2 Z" fill="#e7d6a3" stroke="none"/>
<path d="M610.8,279.1 L608.9,277.5 L608.3,277.1 L607.1,277.0 L605.8,277.1 L604.7,277.5 L604.2,278.0 L603.8,279.0 L604.0,280.3 L604.2,281.3 L604.8,282.1 L606.0,282.9 L607.0,283.5 L608.5,283.6 L609.9,283.3 L610.9,282.7 L611.3,281.7 L611.4,280.2 L610.8,279.1 Z" fill="#e7d6a3" stroke="none"/>
<path d="M596.0,268.7 L594.0,266.5 L593.1,265.0 L593.0,263.8 L593.2,262.3 L593.8,261.1 L594.6,260.6 L595.6,260.6 L596.4,260.7 L597.1,261.6 L597.7,262.3 L598.7,262.6 L599.7,262.6 L600.6,262.7 L601.4,263.3 L601.9,264.1 L602.0,265.1 L601.7,266.4 L600.9,267.7 L600.0,268.4 L598.7,268.9 L597.2,269.0 L596.0,268.7 Z" fill="#e7d6a3" stroke="none"/>
<path d="M582.1,272.8 L580.8,272.4 L579.6,271.5 L578.9,270.4 L579.0,269.3 L579.6,268.2 L580.5,267.2 L581.7,266.8 L583.0,267.1 L584.2,268.0 L585.4,269.3 L586.6,269.8 L588.1,270.3 L589.0,271.5 L590.0,273.2 L590.2,274.3 L590.0,276.0 L589.6,277.1 L588.6,277.8 L586.9,277.9 L585.8,277.5 L584.8,276.5 L583.9,274.9 L583.3,273.4 L582.1,272.8 Z" fill="#e7d6a3" stroke="none"/>
<path d="M583.8,244.5 L582.9,242.5 L582.2,241.8 L581.4,241.4 L580.4,241.2 L578.6,241.9 L577.7,242.7 L577.3,243.5 L577.1,244.8 L577.0,246.3 L577.4,247.5 L577.9,248.6 L578.8,249.3 L579.8,249.5 L580.8,249.3 L581.9,248.7 L582.8,247.8 L583.7,246.2 L583.8,244.5 Z" fill="#e7d6a3" stroke="none"/>
<path d="M306.6,356.9 L306.6,355.2 L307.1,352.6 L307.7,351.1 L309.0,350.0 L309.9,349.5 L310.1,347.9 L309.6,345.6 L308.8,344.7 L306.9,343.2 L304.9,341.6 L303.3,339.4 L302.8,335.7 L302.6,330.0 L301.9,328.4 L299.8,327.0 L296.5,325.1 L294.9,323.5 L294.2,321.2 L294.6,318.9 L295.9,317.4 L297.6,316.5 L299.7,316.3 L301.1,315.7 L301.9,314.0 L301.9,310.0 L302.0,307.5 L303.1,306.1 L305.1,305.7 L307.1,305.8 L308.7,306.2 L309.9,305.3 L311.6,304.1 L312.9,303.6 L314.5,304.0 L315.7,305.0 L315.7,308.5 L316.2,310.8 L317.2,312.7 L317.3,315.3 L316.5,317.2 L314.5,318.3 L311.8,318.6 L308.6,319.4 L306.8,320.9 L306.6,322.9 L307.7,326.2 L309.3,327.5 L311.6,327.6 L314.0,326.9 L316.3,326.7 L318.4,327.5 L319.8,328.7 L320.3,330.1 L320.3,332.0 L319.5,333.9 L319.3,335.9 L320.6,337.1 L321.5,338.6 L321.5,340.9 L321.2,343.6 L320.5,345.8 L321.0,347.5 L322.4,351.5 L323.2,354.7 L323.2,356.9 L321.7,359.6 L319.8,361.2 L317.2,362.3 L314.3,362.1 L311.2,361.1 L308.5,359.2 L306.6,356.9 Z" fill="#e7d6a3" stroke="none"/>
<path d="M373.9,74.1 L373.7,72.4 L374.0,70.7 L374.9,69.3 L376.0,68.6 L377.5,68.5 L378.6,68.2 L379.4,67.0 L379.5,65.7 L379.5,64.2 L380.0,62.7 L380.8,61.9 L382.0,61.6 L383.2,61.7 L384.2,62.4 L385.2,63.0 L386.2,62.9 L387.1,62.4 L387.9,62.2 L389.3,62.3 L390.9,61.9 L391.7,61.8 L392.7,62.2 L393.7,63.1 L394.1,64.3 L394.3,66.1 L394.0,67.4 L393.0,69.1 L390.8,71.9 L389.3,73.8 L387.8,74.8 L385.7,75.6 L383.2,76.3 L380.8,76.8 L377.9,76.4 L375.9,75.6 L373.9,74.1 Z" fill="#e7d6a3" stroke="none"/>
<path d="M354.6,60.2 L352.9,59.2 L351.9,59.2 L349.5,59.9 L348.9,60.4 L348.6,61.2 L348.6,62.2 L349.2,63.3 L350.5,64.6 L351.7,65.5 L352.8,65.8 L354.1,65.7 L355.2,65.2 L355.9,64.1 L355.9,63.2 L355.5,61.6 L354.6,60.2 Z" fill="#e7d6a3" stroke="none"/>
<path d="M130.2,-76.1 L109.1,-43.6 L230.8,49.6 L251.8,26.1 L130.2,-76.1 Z" fill="#4f8a3e" stroke="none"/>
<path d="M172.3,-98.8 L152.1,-72.0 L262.4,16.4 L278.6,-4.7 L229.9,-58.2 L172.3,-98.8 Z" fill="#4f8a3e" stroke="none"/>
<path d="M455.3,8.3 L459.6,7.3 L463.3,8.9 L464.8,12.4 L463.5,16.6 L459.9,19.5 L457.8,21.5 L456.0,22.2 L454.0,22.8 L452.5,22.4 L451.0,21.5 L450.2,19.4 L450.1,17.3 L451.1,13.4 L451.9,11.4 L453.3,9.4 L455.3,8.3 Z" fill="#4f8a3e" stroke="none"/>
<path d="M464.0,-6.8 L467.1,-8.8 L470.6,-8.3 L474.1,-5.6 L475.6,-2.1 L476.0,1.8 L475.0,5.3 L472.0,6.4 L469.5,5.8 L467.4,4.5 L465.6,2.8 L463.8,0.7 L462.9,-1.3 L463.0,-3.8 L464.0,-6.8 Z" fill="#4f8a3e" stroke="none"/>
<path d="M468.5,28.6 L470.3,27.0 L472.5,25.9 L474.4,25.8 L476.6,25.8 L478.1,27.0 L479.3,29.8 L480.0,32.9 L479.9,35.6 L478.6,41.3 L477.1,49.0 L475.2,53.4 L472.6,54.5 L469.8,53.7 L468.0,51.9 L466.7,49.9 L465.5,46.6 L464.5,43.2 L463.6,38.7 L464.3,33.9 L466.0,31.0 L468.5,28.6 Z" fill="#4f8a3e" stroke="none"/>
<path d="M476.1,80.8 L480.2,81.3 L483.2,83.0 L484.2,85.6 L483.9,88.2 L483.1,90.7 L480.7,94.5 L478.0,96.5 L475.0,97.0 L472.3,95.7 L470.7,94.2 L469.5,92.3 L468.8,90.4 L468.6,88.4 L469.3,85.6 L470.5,83.8 L472.0,82.1 L473.9,81.3 L476.1,80.8 Z" fill="#4f8a3e" stroke="none"/>
<path d="M288.0,-72.9 L281.1,-78.8 L259.9,-80.8 L245.2,-76.9 L241.2,-65.5 L256.5,-51.8 L274.2,-42.4 L282.6,-32.0 L291.9,-34.0 L294.9,-44.4 L288.0,-72.9 Z" fill="#2f7825" stroke="none"/>
<path d="M557.1,23.0 L560.4,20.5 L565.0,19.0 L569.0,19.3 L571.3,20.9 L573.4,24.8 L576.9,31.6 L581.2,37.4 L585.1,43.8 L586.3,47.0 L586.2,51.8 L584.8,55.5 L582.4,57.9 L579.6,59.4 L575.4,59.6 L572.0,58.9 L568.5,56.7 L565.8,53.1 L561.9,46.8 L559.6,44.2 L556.6,41.9 L554.2,39.3 L552.5,35.1 L552.7,31.6 L554.2,27.0 L557.1,23.0 Z" fill="#2f7825" stroke="none"/>
<path d="M670.3,360.0 L672.4,359.5 L674.6,359.6 L678.5,360.1 L682.0,361.6 L686.7,364.3 L692.9,365.6 L697.1,367.0 L699.9,369.9 L701.4,372.6 L702.5,375.3 L703.0,378.2 L703.0,381.1 L702.7,383.5 L701.7,385.8 L699.6,388.9 L696.5,391.3 L690.0,392.5 L682.9,393.3 L677.6,392.8 L673.3,390.7 L670.2,387.7 L666.9,382.2 L663.8,374.7 L663.3,372.2 L663.3,369.9 L663.5,367.8 L664.1,365.6 L665.1,363.9 L666.4,362.3 L668.3,361.0 L670.3,360.0 Z" fill="#2f7825" stroke="none"/>
<path d="M376.1,39.3 L379.5,36.9 L384.7,34.3 L388.8,33.6 L393.3,33.8 L397.5,35.5 L401.4,38.3 L404.5,42.1 L407.9,45.5 L410.2,47.0 L411.8,50.1 L413.8,53.0 L414.4,58.2 L413.3,61.1 L410.8,63.7 L406.6,65.5 L401.5,65.5 L398.6,63.8 L397.3,61.0 L394.6,57.7 L391.7,55.7 L389.2,55.3 L385.5,55.3 L382.1,56.1 L378.6,58.7 L376.0,61.5 L373.0,64.5 L369.0,66.1 L364.7,66.0 L360.7,62.7 L359.2,58.1 L359.1,54.8 L359.7,51.5 L361.2,48.6 L363.4,45.7 L366.8,43.7 L371.1,41.5 L376.1,39.3 Z" fill="#2f7825" stroke="none"/>
<path d="M537.0,680.6 L345.2,342.8 L329.0,128.7 L390.0,46.3" fill="none" stroke="#ffd64a" stroke-width="5" stroke-linecap="round" stroke-linejoin="round" opacity="0.95"/>
</svg>