<svg xmlns="http://www.w3.org/2000/svg" viewBox="0 0 800 600" preserveAspectRatio="xMidYMid slice">
<rect width="100%" height="100%" fill="#143018"/>
<path d="M378.2,510.2 L437.1,501.9 L452.7,571.3 L378.2,510.2 Z" fill="#0f2810" stroke="none"/>
<path d="M764.1,428.1 L886.9,423.9 L942.3,353.6 L935.1,242.1 L853.1,231.6 L704.1,-82.4 L634.1,-192.8 L667.0,-241.6 L802.4,-96.3 L871.1,-66.3 L921.2,-39.3 L921.7,-16.2 L925.0,1.1 L930.1,18.1 L956.7,64.6 L976.5,109.3 L1089.6,126.0 L1104.5,169.7 L1123.3,165.9 L1197.2,139.7 L1225.7,164.1 L1040.6,219.0 L1064.1,254.3 L1101.0,540.4 L1006.5,539.4 L950.0,668.0 L764.1,428.1 Z" fill="#0f2810" stroke="none"/>
<path d="M-527.6,1024.8 L-337.6,942.0 L-171.0,863.4 L-87.1,813.5 L-75.5,790.2 L-90.1,749.1 L-99.4,723.1 L-91.0,698.8 L-88.3,679.1 L-82.9,666.9 L-67.0,649.0 L-38.5,637.6 L-5.5,643.0 L103.9,657.5 L194.1,645.8 L225.7,654.9 L259.1,664.4 L285.7,660.9 L308.1,657.9 L329.1,667.2 L346.6,675.0 L361.8,690.7 L378.2,699.9 L399.2,705.1 L412.8,708.2 L424.8,706.2 L438.2,699.5 L445.1,693.1 L452.3,681.9 L455.8,669.3 L455.7,657.7 L452.5,646.2 L447.8,633.1 L429.7,593.8 L452.7,571.3 L378.2,510.2 L248.2,623.6 L224.9,598.9 L223.9,585.7 L225.8,564.6 L227.7,548.2 L226.6,537.1 L224.5,529.0 L220.4,519.1 L217.1,513.4 L211.1,505.6 L199.7,495.5 L192.8,491.3 L184.2,487.5 L173.6,484.7 L163.8,483.7 L154.5,484.2 L144.4,486.2 L136.3,489.2 L128.6,493.1 L122.2,497.5 L113.3,505.9 L106.9,514.5 L104.3,519.2 L101.2,526.0 L97.4,542.0 L97.7,558.2 L99.3,574.3 L95.0,591.8 L87.5,602.6 L70.9,608.7 L37.0,610.8 L-16.0,610.8 L-83.3,522.3 L-204.5,602.1 L-315.9,668.4 L-311.9,690.7 L-324.9,750.9 L-289.8,877.2 L-383.2,918.6 L-597.6,1003.5 L-650.7,1050.2 L-654.9,1086.3 L-571.1,1040.7 L-527.6,1024.8 Z" fill="#0f2810" stroke="none"/>
<path d="M287.8,183.7 L323.5,183.3 L358.4,205.5 L458.7,298.9 L484.2,342.4 L497.4,374.8 L483.5,424.3 L491.6,450.1 L504.2,483.8 L510.2,507.4 L516.0,543.8 L522.8,568.2 L510.7,652.3 L469.3,593.4 L451.3,522.3 L498.3,523.4 L491.9,497.9 L455.0,504.8 L426.3,451.7 L356.3,378.5 L246.9,357.2 L246.9,301.5 L351.0,300.4 L353.6,252.2 L296.8,229.3 L287.8,183.7 Z" fill="#0f2810" stroke="none"/>
<path d="M387.5,195.7 L388.2,185.7 L393.4,179.1 L403.0,174.1 L412.7,175.0 L431.8,183.8 L458.0,198.0 L474.5,209.0 L485.5,217.4 L490.3,223.3 L495.8,234.2 L501.3,245.7 L505.7,258.0 L511.4,270.1 L518.9,280.1 L528.9,288.4 L534.6,295.8 L535.6,301.7 L532.5,309.6 L523.7,317.2 L510.4,324.0 L502.6,324.8 L494.0,320.0 L484.8,311.7 L475.8,301.7 L470.2,288.4 L465.4,274.8 L456.2,259.4 L447.7,246.8 L431.7,231.5 L417.6,222.1 L398.9,210.9 L390.8,203.5 L387.5,195.7 Z" fill="#5a9540" stroke="none"/>
<path d="M565.5,518.3 L569.1,516.7 L570.8,514.8 L571.8,508.9 L572.6,503.8 L575.3,500.9 L577.4,498.6 L577.7,491.4 L574.6,483.8 L571.3,470.9 L568.4,460.1 L566.1,450.3 L562.4,440.3 L558.9,434.8 L553.9,429.3 L548.0,425.2 L545.2,420.8 L545.1,416.4 L546.5,411.5 L548.5,408.4 L550.8,405.5 L551.0,400.8 L548.2,396.1 L543.6,392.5 L536.6,392.9 L528.4,398.7 L519.6,405.2 L515.2,411.7 L513.7,418.3 L515.1,424.7 L515.8,430.6 L521.2,438.5 L525.4,447.5 L531.7,455.2 L538.1,462.3 L543.3,473.0 L545.2,482.7 L548.1,494.8 L550.4,503.6 L552.9,510.1 L555.6,513.6 L560.0,517.3 L565.5,518.3 Z" fill="#5a9540" stroke="none"/>
<path d="M522.9,510.6 L523.9,502.6 L522.3,495.7 L520.1,489.2 L519.7,486.5 L519.5,483.0 L520.5,479.8 L523.3,478.5 L529.1,480.5 L532.1,484.6 L534.1,490.6 L535.8,496.6 L535.6,502.8 L536.1,508.0 L538.7,515.2 L541.5,522.8 L545.8,529.9 L550.0,535.3 L553.5,538.2 L556.1,539.4 L561.7,541.5 L564.8,542.9 L569.4,547.0 L573.4,551.6 L577.5,556.7 L580.2,561.1 L583.0,565.9 L583.8,570.3 L583.3,574.1 L581.0,577.2 L579.0,579.2 L575.0,580.1 L572.7,580.3 L569.0,578.9 L564.4,575.6 L559.9,573.7 L555.6,571.9 L553.4,570.8 L550.7,568.4 L548.8,564.6 L547.7,559.8 L547.5,554.9 L547.5,549.1 L546.2,546.9 L541.8,543.1 L537.7,539.3 L531.0,534.0 L527.4,530.5 L522.7,522.3 L522.0,516.0 L522.9,510.6 Z" fill="#5a9540" stroke="none"/>
<path d="M514.6,266.2 L514.3,265.1 L513.8,263.3 L513.2,262.6 L512.9,261.6 L512.9,260.1 L513.7,259.5 L514.1,258.5 L513.8,257.3 L512.8,256.2 L512.3,254.6 L512.6,252.6 L513.2,250.8 L513.9,249.3 L515.0,247.9 L515.5,247.3 L516.0,246.4 L516.4,246.1 L517.5,245.9 L519.2,245.9 L520.2,246.1 L520.6,246.4 L521.3,247.7 L521.2,249.0 L521.1,250.2 L521.3,251.0 L521.5,251.7 L522.4,252.2 L522.7,253.7 L522.9,255.1 L522.5,255.9 L521.6,256.6 L521.1,257.4 L520.4,258.3 L520.1,259.1 L520.2,259.6 L520.8,260.3 L522.1,260.6 L522.8,262.2 L522.9,263.1 L522.8,264.2 L522.6,264.8 L522.0,265.1 L521.1,265.6 L520.1,267.1 L518.2,268.0 L517.0,267.9 L515.3,267.3 L514.6,266.2 Z" fill="#e7d6a3" stroke="none"/>
<path d="M496.6,227.6 L494.9,226.5 L493.8,224.7 L493.7,223.4 L494.2,222.0 L495.1,221.3 L496.7,220.7 L498.1,220.1 L499.4,219.7 L500.3,219.8 L501.2,220.7 L502.3,221.1 L502.6,222.4 L502.6,223.7 L503.5,224.4 L504.8,224.6 L505.6,224.6 L506.7,224.7 L508.0,225.2 L508.6,226.3 L509.6,227.2 L510.0,227.8 L509.6,228.9 L509.5,230.1 L510.2,230.9 L511.3,231.2 L512.6,231.2 L513.1,231.7 L513.5,232.4 L513.9,233.1 L514.5,233.7 L515.1,234.8 L514.8,235.2 L514.6,236.2 L514.3,236.7 L513.2,237.0 L512.8,237.5 L512.3,238.3 L511.5,238.5 L509.7,238.2 L507.6,237.6 L507.0,236.9 L506.6,235.9 L505.7,234.9 L504.2,235.0 L503.2,234.0 L501.9,233.1 L501.9,232.4 L501.6,230.6 L500.9,229.8 L499.8,229.1 L498.1,228.1 L496.6,227.6 Z" fill="#e7d6a3" stroke="none"/>
<path d="M549.3,421.1 L549.7,420.0 L549.5,419.2 L548.6,418.4 L548.6,417.7 L549.1,416.5 L549.6,415.4 L550.5,414.6 L551.5,414.5 L552.2,413.9 L553.5,413.9 L553.9,414.7 L554.5,415.2 L555.3,415.4 L556.5,414.6 L557.5,414.6 L558.4,414.8 L559.1,415.3 L559.2,416.4 L559.4,417.2 L559.5,417.5 L559.7,418.5 L559.4,419.1 L558.5,419.5 L557.5,419.7 L556.6,420.5 L556.6,421.5 L557.4,422.6 L557.7,423.2 L557.2,424.1 L556.4,424.7 L555.8,425.1 L554.5,425.8 L553.5,426.0 L552.5,425.5 L551.0,424.6 L549.4,424.6 L548.6,424.0 L548.3,422.5 L548.1,421.7 L549.3,421.1 Z" fill="#e7d6a3" stroke="none"/>
<path d="M574.6,515.3 L575.5,514.2 L575.6,513.2 L575.0,512.4 L574.0,512.0 L573.9,511.0 L574.4,510.2 L574.3,508.8 L574.5,507.8 L575.8,507.2 L576.7,506.7 L577.2,506.2 L578.0,506.0 L579.1,506.3 L580.3,506.4 L581.0,506.8 L581.0,507.8 L581.3,508.5 L581.6,509.1 L582.6,509.3 L583.3,510.0 L583.6,511.2 L583.9,512.3 L583.6,513.1 L583.6,514.1 L583.5,514.6 L582.8,515.1 L581.9,515.4 L581.2,516.1 L581.4,517.2 L581.3,518.1 L580.9,518.5 L580.5,519.1 L580.1,519.6 L579.6,519.9 L578.8,520.0 L577.8,520.2 L577.2,519.6 L576.6,518.8 L576.2,518.1 L575.7,517.9 L575.0,517.8 L574.7,517.2 L574.5,515.9 L574.6,515.3 Z" fill="#e7d6a3" stroke="none"/>
<path d="M540.3,563.2 L541.5,562.6 L542.6,561.6 L543.2,560.4 L543.6,558.6 L544.3,557.5 L544.5,555.7 L544.3,553.8 L544.9,552.7 L545.1,551.7 L544.7,550.3 L544.5,549.2 L544.1,548.0 L542.9,547.0 L541.3,547.1 L539.7,547.9 L537.8,547.6 L537.2,548.4 L537.3,549.7 L536.8,550.6 L536.6,551.7 L536.5,553.0 L537.1,553.5 L537.8,554.6 L537.6,555.8 L537.0,556.5 L536.8,557.4 L536.0,558.5 L535.7,559.4 L536.2,560.4 L536.8,561.3 L537.4,562.3 L537.9,563.1 L539.2,563.4 L540.3,563.2 Z" fill="#e7d6a3" stroke="none"/>
<path d="M576.6,588.7 L576.0,588.1 L575.5,586.9 L575.0,586.1 L574.9,585.3 L575.3,584.4 L576.0,583.0 L576.8,582.1 L577.8,582.0 L579.2,582.7 L579.9,582.2 L580.1,581.4 L580.5,580.7 L581.3,580.1 L583.1,580.7 L584.4,581.8 L584.5,583.0 L585.1,583.9 L585.7,584.6 L585.6,585.9 L585.4,586.6 L584.7,587.2 L584.1,587.8 L583.5,588.7 L582.9,589.1 L582.0,589.1 L581.4,589.3 L580.7,589.9 L580.2,590.2 L579.5,590.3 L578.5,589.5 L577.5,589.1 L576.6,588.7 Z" fill="#e7d6a3" stroke="none"/>
<path d="M183.7,98.5 L162.5,89.5 L159.5,96.5 L180.7,105.5 L183.7,98.5 Z" fill="#4f8a3e" stroke="none"/>
<path d="M197.3,100.5 L201.2,93.5 L217.2,102.2 L213.3,109.2 L197.3,100.5 Z" fill="#4f8a3e" stroke="none"/>
<path d="M228.2,103.6 L232.1,97.1 L247.7,106.4 L243.9,112.9 L228.2,103.6 Z" fill="#4f8a3e" stroke="none"/>
<path d="M271.3,105.2 L276.2,99.0 L288.8,108.8 L283.9,115.1 L271.3,105.2 Z" fill="#4f8a3e" stroke="none"/>
<path d="M548.8,564.6 L547.7,559.8 L547.5,554.9 L549.4,549.7 L551.0,545.3 L553.5,542.6 L557.0,541.5 L561.7,541.5 L564.8,542.9 L569.4,547.0 L573.4,551.6 L577.5,556.7 L580.2,561.1 L583.0,565.9 L583.8,570.3 L583.3,574.1 L581.0,577.2 L579.0,579.2 L575.0,580.1 L572.7,580.3 L569.0,578.9 L564.4,575.6 L559.9,573.7 L555.6,571.9 L553.4,570.8 L550.7,568.4 L548.8,564.6 Z" fill="#2f7825" stroke="none"/>
<path d="M164.6,93.9 L473.2,241.3 L563.2,561.6" fill="none" stroke="#ffd64a" stroke-width="5" stroke-linecap="round" stroke-linejoin="round" opacity="0.95"/>
</svg>