<svg xmlns="http://www.w3.org/2000/svg" viewBox="0 0 707 800" preserveAspectRatio="xMidYMid meet">
<rect width="100%" height="100%" fill="#143018"/>
<path d="M372.8,644.8 L451.8,633.6 L472.7,726.7 L372.8,644.8 Z" fill="#0f2810" stroke="none"/>
<path d="M890.6,534.6 L1055.3,528.9 L1129.6,434.7 L1119.9,285.1 L1009.9,271.1 L810.1,-150.2 L716.1,-298.3 L760.2,-363.8 L941.9,-168.9 L1034.0,-128.6 L1101.3,-92.4 L1101.9,-61.4 L1106.4,-38.1 L1113.2,-15.4 L1149.0,46.9 L1175.5,107.0 L1327.1,129.4 L1347.2,188.0 L1372.4,182.9 L1471.5,147.8 L1509.8,180.4 L1261.4,254.1 L1293.0,301.5 L1342.4,685.3 L1215.7,683.9 L1139.9,856.5 L890.6,534.6 Z" fill="#0f2810" stroke="none"/>
<path d="M-842.3,1335.0 L-587.4,1224.0 L-363.9,1118.6 L-251.4,1051.7 L-235.8,1020.4 L-255.4,965.3 L-267.8,930.4 L-256.6,897.7 L-253.0,871.4 L-245.8,854.9 L-224.4,830.9 L-186.2,815.7 L-142.0,822.9 L4.9,842.4 L125.9,826.7 L168.3,838.8 L213.1,851.6 L248.7,846.9 L278.9,842.9 L306.9,855.4 L330.4,865.9 L350.9,886.9 L372.8,899.2 L401.1,906.1 L419.3,910.3 L435.4,907.7 L453.4,898.6 L462.6,890.1 L472.3,875.1 L477.0,858.2 L476.9,842.7 L472.5,827.2 L466.2,809.6 L442.0,757.0 L472.7,726.7 L372.8,644.8 L198.5,796.8 L167.2,763.7 L165.8,746.0 L168.4,717.8 L170.9,695.8 L169.5,680.8 L166.7,669.9 L161.2,656.7 L156.7,649.1 L148.7,638.5 L133.4,625.0 L124.2,619.4 L112.6,614.3 L98.4,610.6 L85.2,609.3 L72.7,609.9 L59.2,612.6 L48.3,616.5 L38.0,621.8 L29.4,627.8 L17.5,638.9 L8.9,650.6 L5.3,656.8 L1.3,665.9 L-3.9,687.4 L-3.5,709.1 L-1.4,730.7 L-7.1,754.2 L-17.2,768.7 L-39.4,776.9 L-84.9,779.7 L-156.0,779.7 L-246.3,660.9 L-408.9,768.1 L-558.3,857.0 L-552.9,886.9 L-570.3,967.7 L-523.4,1137.1 L-648.7,1192.7 L-936.3,1306.6 L-1007.5,1369.2 L-1013.2,1417.6 L-900.7,1356.4 L-842.3,1335.0 Z" fill="#0f2810" stroke="none"/>
<path d="M251.6,206.8 L299.4,206.3 L346.3,236.0 L480.8,361.2 L515.0,419.6 L532.8,463.1 L514.1,529.5 L524.9,564.1 L541.8,609.3 L549.9,641.0 L557.7,689.8 L566.8,722.6 L550.6,835.4 L495.0,756.3 L470.8,660.9 L534.0,662.4 L525.4,628.3 L475.8,637.5 L437.4,566.3 L343.4,468.0 L196.8,439.5 L196.8,364.8 L336.3,363.4 L339.9,298.6 L263.7,268.0 L251.6,206.8 Z" fill="#0f2810" stroke="none"/>
<path d="M86.2,86.2 L500.3,284.1 L621.1,713.8" fill="none" stroke="#4e8b39" stroke-width="67.1" stroke-linecap="round" stroke-linejoin="round" opacity="0.85"/>
<path d="M192.6,900.7 L200.9,895.6 L210.8,890.1 L219.3,885.9 L227.8,884.9 L235.8,886.6 L244.2,891.9 L249.2,896.6 L260.4,901.5 L277.0,902.0 L297.6,900.8 L304.8,900.7 L313.4,901.0 L317.7,902.5 L322.5,905.5 L326.3,909.4 L329.6,915.6 L330.4,927.1 L328.0,933.7 L325.8,937.1 L321.7,941.0 L316.1,944.0 L305.5,947.7 L297.9,949.9 L278.2,950.9 L245.0,950.1 L218.5,949.7 L160.5,951.5 L126.1,944.6 L89.2,928.2 L65.4,917.7 L48.5,910.8 L39.3,906.6 L27.4,903.0 L11.2,898.1 L-8.4,894.6 L-30.4,891.5 L-44.0,891.7 L-57.3,895.0 L-79.0,899.5 L-91.6,896.5 L-109.0,890.3 L-117.7,883.6 L-125.4,873.7 L-131.7,869.9 L-138.2,868.1 L-143.5,869.5 L-147.3,872.5 L-149.2,875.0 L-152.1,880.6 L-155.7,884.2 L-159.9,886.1 L-165.2,886.9 L-172.3,885.3 L-176.2,885.7 L-179.8,886.6 L-184.4,886.9 L-188.0,886.3 L-190.6,884.1 L-192.9,882.2 L-194.4,879.2 L-194.9,874.3 L-195.6,869.4 L-196.1,865.4 L-198.2,860.6 L-199.6,856.0 L-198.9,851.7 L-195.8,847.5 L-190.4,845.5 L-181.2,844.6 L-171.9,845.0 L-164.1,847.9 L-159.8,848.0 L-155.2,845.7 L-150.3,842.7 L-144.5,840.9 L-138.9,841.1 L-132.2,844.8 L-126.7,850.6 L-118.1,855.2 L-106.1,860.1 L-95.1,863.2 L-83.8,863.4 L-63.9,860.7 L-41.4,855.8 L-31.4,853.5 L-22.8,852.6 L-11.8,854.1 L4.5,859.8 L17.9,869.1 L31.5,874.9 L70.9,882.1 L92.3,886.3 L105.2,888.3 L120.7,891.8 L132.6,892.6 L144.8,894.3 L157.2,895.5 L165.2,897.7 L172.5,901.8 L178.4,904.9 L186.6,904.3 L192.6,900.7 Z" fill="#5a9540" stroke="none"/>
<path d="M385.3,222.8 L386.3,209.4 L393.3,200.6 L406.2,193.9 L419.1,195.0 L444.7,206.9 L479.9,226.0 L502.0,240.7 L516.8,252.0 L523.3,259.8 L530.7,274.5 L538.0,289.9 L543.9,306.5 L551.6,322.7 L561.6,336.1 L575.1,347.2 L582.7,357.1 L584.0,365.1 L579.8,375.6 L568.1,385.9 L550.2,395.0 L539.8,396.1 L528.2,389.6 L515.8,378.4 L503.8,365.1 L496.2,347.2 L489.8,329.0 L477.5,308.3 L466.1,291.4 L444.6,270.9 L425.7,258.3 L400.6,243.3 L389.8,233.3 L385.3,222.8 Z" fill="#5a9540" stroke="none"/>
<path d="M624.1,655.7 L628.9,653.5 L631.1,650.9 L632.6,643.0 L633.7,636.2 L637.2,632.3 L640.1,629.2 L640.4,619.6 L636.4,609.3 L631.9,592.0 L628.0,577.6 L625.0,564.5 L620.0,551.0 L615.3,543.6 L608.6,536.3 L600.6,530.7 L596.9,524.9 L596.7,519.0 L598.7,512.4 L601.3,508.1 L604.4,504.3 L604.7,498.0 L600.9,491.7 L594.8,486.8 L585.4,487.3 L574.3,495.2 L562.5,503.9 L556.6,512.7 L554.7,521.4 L556.4,530.1 L557.4,538.0 L564.7,548.5 L570.3,560.6 L578.8,571.0 L587.4,580.5 L594.3,594.8 L596.9,607.9 L600.8,624.0 L603.8,635.9 L607.2,644.7 L610.8,649.4 L616.7,654.3 L624.1,655.7 Z" fill="#5a9540" stroke="none"/>
<path d="M567.0,645.2 L568.3,634.6 L566.2,625.3 L563.2,616.5 L562.6,612.9 L562.4,608.3 L563.8,604.0 L567.5,602.2 L575.3,605.0 L579.3,610.4 L582.0,618.4 L584.3,626.5 L584.0,634.8 L584.7,641.8 L588.1,651.4 L591.9,661.7 L597.7,671.2 L603.3,678.5 L608.0,682.3 L611.5,683.9 L618.9,686.7 L623.2,688.7 L629.4,694.1 L634.8,700.3 L640.3,707.1 L643.9,713.0 L647.6,719.5 L648.7,725.4 L648.0,730.4 L644.9,734.7 L642.2,737.3 L636.8,738.5 L633.8,738.8 L628.7,736.9 L622.6,732.5 L616.5,730.0 L610.8,727.6 L607.8,726.1 L604.2,722.8 L601.7,717.8 L600.2,711.3 L600.0,704.7 L600.0,697.0 L598.2,694.0 L592.3,688.9 L586.8,683.8 L577.8,676.6 L573.0,672.0 L566.6,661.0 L565.7,652.6 L567.0,645.2 Z" fill="#5a9540" stroke="none"/>
<path d="M555.8,317.5 L555.5,316.0 L554.8,313.6 L553.9,312.6 L553.6,311.3 L553.6,309.3 L554.6,308.5 L555.1,307.2 L554.7,305.5 L553.4,304.0 L552.8,301.9 L553.2,299.2 L553.9,296.7 L554.9,294.8 L556.4,292.9 L557.0,292.0 L557.7,290.9 L558.3,290.4 L559.6,290.3 L562.0,290.3 L563.3,290.4 L563.8,290.9 L564.8,292.6 L564.7,294.3 L564.5,295.9 L564.8,297.0 L565.0,297.9 L566.2,298.6 L566.7,300.7 L566.9,302.6 L566.4,303.6 L565.3,304.6 L564.6,305.7 L563.6,306.8 L563.2,307.9 L563.4,308.6 L564.1,309.5 L565.9,309.9 L566.8,312.1 L566.9,313.2 L566.8,314.8 L566.6,315.6 L565.7,315.9 L564.6,316.7 L563.3,318.7 L560.6,319.9 L559.1,319.7 L556.8,318.9 L555.8,317.5 Z" fill="#e7d6a3" stroke="none"/>
<path d="M531.7,265.7 L529.4,264.1 L527.9,261.8 L527.7,260.1 L528.5,258.2 L529.6,257.2 L531.8,256.4 L533.7,255.5 L535.4,255.0 L536.6,255.2 L537.8,256.4 L539.4,257.0 L539.7,258.6 L539.8,260.4 L540.9,261.4 L542.6,261.6 L543.7,261.6 L545.2,261.8 L546.9,262.4 L547.7,263.9 L549.1,265.1 L549.7,265.9 L549.1,267.4 L549.0,269.1 L549.9,270.0 L551.4,270.4 L553.1,270.5 L553.8,271.1 L554.3,272.2 L554.8,273.0 L555.7,273.8 L556.5,275.3 L556.1,275.9 L555.8,277.2 L555.4,277.9 L554.0,278.3 L553.4,279.0 L552.7,280.1 L551.7,280.3 L549.2,279.9 L546.5,279.0 L545.6,278.1 L545.1,276.8 L543.9,275.5 L541.8,275.5 L540.6,274.2 L538.7,273.0 L538.7,272.0 L538.3,269.7 L537.5,268.7 L536.0,267.7 L533.7,266.3 L531.7,265.7 Z" fill="#e7d6a3" stroke="none"/>
<path d="M602.4,525.2 L602.9,523.8 L602.6,522.7 L601.4,521.6 L601.4,520.6 L602.2,519.0 L602.8,517.6 L603.9,516.5 L605.3,516.4 L606.2,515.6 L608.0,515.5 L608.5,516.7 L609.3,517.4 L610.4,517.5 L612.1,516.6 L613.4,516.5 L614.6,516.8 L615.6,517.5 L615.7,518.9 L615.9,520.0 L616.1,520.5 L616.3,521.7 L615.9,522.6 L614.7,523.1 L613.4,523.4 L612.2,524.5 L612.1,525.7 L613.2,527.2 L613.6,528.1 L613.0,529.3 L611.9,530.1 L611.1,530.7 L609.3,531.5 L608.0,531.8 L606.7,531.2 L604.6,529.9 L602.5,529.9 L601.4,529.1 L601.0,527.1 L600.7,526.1 L602.4,525.2 Z" fill="#e7d6a3" stroke="none"/>
<path d="M636.3,651.6 L637.6,650.1 L637.6,648.8 L636.8,647.7 L635.5,647.1 L635.4,645.8 L636.1,644.7 L635.9,642.8 L636.2,641.5 L637.9,640.7 L639.1,640.0 L639.8,639.4 L640.9,639.1 L642.3,639.5 L644.0,639.6 L644.9,640.1 L644.9,641.5 L645.3,642.4 L645.7,643.3 L647.0,643.6 L647.9,644.5 L648.3,646.1 L648.8,647.6 L648.4,648.7 L648.4,649.9 L648.3,650.6 L647.4,651.4 L646.1,651.8 L645.2,652.7 L645.5,654.1 L645.4,655.3 L644.8,655.9 L644.2,656.6 L643.7,657.4 L643.1,657.7 L641.9,658.0 L640.7,658.1 L639.8,657.3 L639.1,656.3 L638.5,655.3 L637.8,655.1 L636.9,654.9 L636.5,654.2 L636.2,652.4 L636.3,651.6 Z" fill="#e7d6a3" stroke="none"/>
<path d="M590.3,715.9 L591.9,715.1 L593.4,713.7 L594.2,712.1 L594.7,709.7 L595.7,708.2 L596.0,705.8 L595.6,703.3 L596.4,701.8 L596.8,700.4 L596.2,698.5 L595.9,697.1 L595.4,695.5 L593.8,694.1 L591.7,694.2 L589.5,695.4 L586.9,694.9 L586.1,696.1 L586.3,697.7 L585.6,698.9 L585.3,700.4 L585.2,702.1 L586.0,702.9 L586.9,704.3 L586.7,705.9 L585.8,706.9 L585.6,708.1 L584.5,709.6 L584.2,710.8 L584.8,712.1 L585.7,713.4 L586.5,714.6 L587.1,715.7 L588.9,716.1 L590.3,715.9 Z" fill="#e7d6a3" stroke="none"/>
<path d="M639.0,750.1 L638.2,749.2 L637.6,747.7 L636.8,746.6 L636.7,745.5 L637.3,744.3 L638.1,742.4 L639.3,741.3 L640.7,741.0 L642.4,741.9 L643.4,741.3 L643.7,740.3 L644.3,739.3 L645.3,738.5 L647.7,739.3 L649.5,740.8 L649.6,742.4 L650.4,743.6 L651.2,744.6 L651.1,746.3 L650.8,747.2 L649.9,748.0 L649.1,748.8 L648.2,750.0 L647.4,750.6 L646.2,750.5 L645.4,750.9 L644.5,751.6 L643.9,752.1 L642.9,752.2 L641.6,751.1 L640.2,750.5 L639.0,750.1 Z" fill="#e7d6a3" stroke="none"/>
<path d="M111.9,92.5 L83.4,80.4 L79.4,89.8 L107.9,101.9 L111.9,92.5 Z" fill="#4f8a3e" stroke="none"/>
<path d="M130.2,95.2 L135.3,85.7 L156.8,97.4 L151.7,106.9 L130.2,95.2 Z" fill="#4f8a3e" stroke="none"/>
<path d="M171.6,99.4 L176.9,90.6 L197.8,103.0 L192.6,111.8 L171.6,99.4 Z" fill="#4f8a3e" stroke="none"/>
<path d="M229.5,101.5 L236.0,93.1 L252.9,106.3 L246.3,114.7 L229.5,101.5 Z" fill="#4f8a3e" stroke="none"/>
<path d="M601.7,717.8 L600.2,711.3 L600.0,704.7 L602.5,697.7 L604.7,691.8 L608.0,688.3 L612.7,686.7 L618.9,686.7 L623.2,688.7 L629.4,694.1 L634.8,700.3 L640.3,707.1 L643.9,713.0 L647.6,719.5 L648.7,725.4 L648.0,730.4 L644.9,734.7 L642.2,737.3 L636.8,738.5 L633.8,738.8 L628.7,736.9 L622.6,732.5 L616.5,730.0 L610.8,727.6 L607.8,726.1 L604.2,722.8 L601.7,717.8 Z" fill="#2f7825" stroke="none"/>
<path d="M86.2,86.2 L500.3,284.1 L621.1,713.8" fill="none" stroke="#ffd64a" stroke-width="3.5" stroke-linecap="round" stroke-linejoin="round" opacity="0.95"/>
</svg>