<svg xmlns="http://www.w3.org/2000/svg" viewBox="0 0 800 600" preserveAspectRatio="xMidYMid slice">
<rect width="100%" height="100%" fill="#143018"/>
<path d="M120.7,726.5 L117.3,708.5 L132.4,685.6 L144.1,655.0 L163.0,640.8 L184.5,633.1 L203.0,600.9 L198.6,587.8 L223.4,552.2 L232.7,532.8 L229.7,473.4 L217.6,446.6 L219.5,417.9 L210.3,399.9 L188.4,389.6 L169.4,392.6 L155.3,392.1 L137.2,345.8 L142.1,321.5 L164.5,279.1 L153.8,250.9 L154.8,227.0 L174.7,178.8 L163.5,163.2 L137.2,139.9 L115.8,93.2 L103.2,44.5 L108.0,22.6 L115.3,-39.8 L106.6,-81.1 L91.0,-130.8 L83.7,-169.2 L69.1,-231.1 L55.5,-278.3 L40.8,-327.0 L30.1,-358.6 L8.2,-407.3 L-24.4,-422.4 L-40.0,-430.7 L-50.7,-518.8 L-34.1,-573.8 L-33.6,-631.2 L-38.5,-651.2 L-59.4,-783.6 L-55.5,-808.4 L-77.9,-816.7 L-132.0,-811.8 L-135.9,-804.5 L-139.3,-788.5 L-127.6,-767.5 L-112.0,-731.5 L-92.1,-692.1 L-76.5,-581.1 L-86.7,-495.9 L-60.9,-408.8 L-60.4,-342.5 L-32.2,-310.9 L-2.0,-219.9 L37.0,-121.1 L55.0,-78.7 L61.3,-44.1 L58.9,29.4 L63.2,41.5 L28.7,53.7 L-1.5,52.7 L-26.3,63.0 L-45.8,74.2 L-37.0,78.6 L-4.9,80.0 L26.7,72.2 L61.3,66.9 L74.0,71.7 L103.7,98.5 L133.8,165.2 L143.1,218.7 L128.5,255.8 L88.6,251.9 L79.8,255.3 L84.7,269.4 L101.2,286.4 L102.2,310.3 L102.2,331.2 L120.7,365.8 L162.6,421.8 L183.0,476.3 L176.2,503.6 L145.0,543.5 L117.8,573.2 L101.7,575.1 L75.4,550.8 L60.8,564.4 L43.3,586.3 L6.3,589.2 L-25.9,576.1 L-30.7,547.9 L-36.1,505.5 L-31.2,464.1 L-48.2,433.9 L-81.3,454.9 L-103.7,469.5 L-122.2,465.1 L-155.3,421.3 L-167.5,393.5 L-188.4,387.7 L-210.8,390.1 L-255.1,407.7 L-262.5,418.3 L-274.2,448.5 L-239.0,481.0 L-162.4,486.0 L-129.4,505.6 L-118.7,537.4 L-121.0,558.1 L-122.7,604.6 L-100.9,627.5 L-53.3,615.2 L-9.7,626.9 L12.1,651.5 L12.7,675.0 L-15.3,691.8 L-23.7,714.7 L-10.3,734.9 L16.6,731.5 L45.7,723.7 L75.9,734.9 L82.6,771.8 L62.4,803.6 L50.1,818.8 L58.0,837.8 L217.9,975.9 L243.1,993.2 L258.7,993.2 L271.0,979.8 L264.3,945.7 L220.1,916.0 L176.0,883.1 L164.2,835.5 L153.0,814.3 L128.4,798.6 L114.4,786.3 L109.4,776.8 L105.0,760.6 L103.3,740.4 L120.7,726.5 Z" fill="#0f2810" stroke="none"/>
<path d="M324.9,210.2 L324.8,207.3 L325.2,204.4 L327.3,200.8 L330.4,198.4 L334.6,197.5 L341.0,197.2 L349.0,197.3 L353.7,198.2 L355.9,200.1 L357.8,202.9 L359.0,208.2 L361.9,229.6 L371.9,294.0 L375.1,317.3 L376.7,327.2 L378.4,335.5 L380.3,342.8 L387.3,356.9 L401.5,383.8 L415.4,403.9 L440.9,437.1 L458.6,460.3 L471.8,477.1 L481.7,489.6 L488.2,498.2 L492.0,502.8 L495.1,505.4 L492.9,505.2 L489.4,506.0 L487.4,507.6 L485.4,509.7 L481.5,515.4 L479.9,518.4 L478.7,522.8 L480.3,526.2 L476.3,522.8 L471.9,519.9 L466.6,516.7 L457.3,510.2 L451.4,505.2 L447.5,501.0 L435.8,484.9 L414.6,456.0 L401.3,436.4 L392.2,418.6 L386.7,404.4 L380.9,396.0 L374.5,389.7 L368.0,384.6 L360.3,379.2 L355.1,372.2 L352.7,364.9 L349.9,357.9 L347.0,351.8 L344.3,343.0 L341.5,330.6 L338.2,314.3 L336.9,305.3 L334.7,289.3 L324.9,210.2 Z" fill="#5a9540" stroke="none"/>
<path d="M630.4,2.3 L630.4,41.8 L633.4,107.8 L637.1,183.1 L641.1,239.5 L643.6,274.0 L645.6,295.4 L649.6,318.3 L653.7,333.8 L656.3,346.7 L657.4,355.6 L657.8,370.4 L657.0,381.0 L656.4,387.1 L656.1,391.4 L655.8,396.7 L656.1,399.1 L656.9,403.2 L655.9,400.2 L654.0,398.8 L649.0,398.4 L642.1,398.4 L633.3,398.4 L625.8,398.6 L623.6,398.7 L622.0,399.4 L620.8,401.7 L621.1,399.3 L621.9,397.1 L623.4,394.3 L627.7,385.6 L632.9,376.5 L635.9,370.5 L637.9,365.4 L638.2,363.1 L637.5,359.7 L635.3,355.9 L633.1,353.5 L630.2,352.6 L626.0,353.3 L621.3,354.2 L617.7,353.6 L615.0,351.2 L612.9,346.8 L611.5,336.3 L610.2,325.0 L609.0,307.5 L608.4,291.5 L607.8,277.8 L606.2,256.9 L605.5,243.9 L604.6,224.8 L604.0,211.4 L601.3,174.5 L599.8,141.9 L599.4,125.5 L597.9,98.9 L596.7,68.1 L595.5,35.5 L594.8,12.6 L594.6,6.6 L595.7,1.6 L598.1,-4.3 L600.0,-7.4 L602.4,-9.6 L606.4,-11.5 L610.8,-12.6 L616.6,-13.4 L618.8,-13.4 L621.7,-12.9 L624.5,-11.7 L627.4,-9.7 L628.8,-7.0 L629.8,-4.4 L630.4,2.3 Z" fill="#5a9540" stroke="none"/>
<path d="M697.5,183.2 L698.1,168.4 L698.4,136.8 L695.4,104.8 L692.0,73.9 L687.7,54.4 L682.1,38.8 L672.2,18.1 L663.8,4.1 L657.7,-6.7 L654.6,-14.6 L655.2,-20.2 L657.4,-24.0 L661.4,-26.1 L668.3,-27.4 L675.9,-28.8 L680.8,-33.3 L682.1,-37.9 L681.7,-45.5 L679.5,-51.3 L675.5,-54.3 L670.1,-56.1 L665.4,-55.7 L660.8,-54.5 L656.2,-53.7 L652.5,-53.6 L648.8,-56.1 L646.1,-60.2 L644.7,-64.4 L643.9,-69.0 L644.1,-74.3 L645.8,-80.9 L647.8,-84.5 L648.3,-87.3 L648.1,-92.4 L649.8,-87.2 L650.8,-85.4 L652.3,-84.7 L657.0,-85.5 L666.2,-87.8 L670.8,-89.0 L674.6,-90.3 L676.2,-91.7 L676.4,-93.9 L676.1,-97.1 L675.4,-102.6 L677.1,-99.1 L680.5,-96.0 L684.1,-92.6 L686.1,-89.3 L688.7,-83.5 L691.8,-74.8 L696.0,-65.0 L701.2,-46.2 L711.0,-12.7 L715.3,8.8 L721.5,48.8 L726.1,94.2 L730.1,134.1 L731.6,155.2 L732.7,170.4 L732.7,175.6 L731.4,194.0 L728.9,233.8 L724.8,264.5 L723.1,270.8 L720.6,275.5 L714.4,279.5 L706.4,282.9 L701.9,282.9 L698.1,281.9 L694.8,280.0 L692.0,274.7 L691.6,266.9 L694.1,219.5 L697.5,183.2 Z" fill="#5a9540" stroke="none"/>
<path d="M268.0,554.4 L271.1,549.5 L273.5,544.6 L275.7,538.8 L276.5,532.9 L277.1,521.8 L278.7,499.5 L279.5,480.2 L280.2,462.1 L280.8,444.7 L281.2,423.2 L282.1,405.8 L282.9,388.1 L283.1,369.5 L283.6,356.0 L284.7,348.3 L285.9,342.5 L285.4,337.8 L283.1,334.1 L280.3,329.0 L277.9,323.2 L276.0,316.9 L276.8,311.6 L279.0,306.6 L281.7,302.0 L285.3,295.5 L287.8,288.8 L290.7,280.4 L290.9,275.7 L290.7,268.9 L290.2,260.2 L289.9,258.1 L289.6,256.0 L289.5,257.4 L287.9,258.2 L284.6,258.8 L281.5,258.9 L278.5,258.9 L277.2,257.8 L277.4,259.1 L277.4,260.5 L276.8,263.0 L275.7,265.3 L274.5,267.0 L272.9,268.0 L269.7,269.3 L266.4,269.4 L264.6,270.3 L262.5,273.0 L260.6,276.0 L259.0,279.9 L257.8,284.8 L255.5,294.8 L252.7,306.8 L250.5,317.0 L248.7,326.8 L247.3,338.9 L247.8,346.6 L248.7,350.3 L251.4,352.7 L253.7,354.1 L256.3,355.0 L259.2,356.6 L261.9,358.2 L264.1,361.1 L265.4,364.3 L265.5,367.4 L264.3,370.8 L262.0,375.9 L259.3,381.9 L257.9,384.3 L256.8,387.1 L255.5,390.5 L254.7,394.8 L253.2,405.3 L251.6,422.0 L249.4,440.2 L248.3,461.0 L246.9,482.4 L244.1,510.4 L242.4,526.0 L243.4,540.8 L244.2,547.5 L245.8,552.0 L247.3,555.0 L249.6,557.9 L251.9,559.1 L254.8,560.2 L257.9,560.4 L260.8,560.2 L263.9,558.4 L268.0,554.4 Z" fill="#5a9540" stroke="none"/>
<path d="M402.3,143.2 L402.1,138.2 L402.1,132.6 L402.3,127.7 L403.5,123.7 L404.6,120.3 L405.4,117.9 L405.6,116.8 L407.2,120.8 L410.0,122.7 L414.3,123.1 L418.7,122.4 L421.4,120.3 L421.8,117.9 L423.6,122.1 L426.4,124.7 L428.8,128.4 L430.7,133.9 L430.2,142.5 L429.3,150.5 L428.6,162.8 L429.0,173.7 L430.0,182.5 L431.9,192.7 L433.7,201.1 L434.5,205.9 L434.0,211.7 L432.8,217.5 L432.1,221.9 L433.2,226.2 L436.3,230.0 L439.8,231.7 L444.8,233.6 L449.6,235.6 L452.4,238.6 L454.6,243.7 L457.2,252.0 L461.1,262.9 L464.5,273.7 L469.3,289.2 L473.5,302.8 L476.8,318.0 L477.0,328.1 L477.7,337.8 L477.0,344.8 L475.0,352.2 L472.1,360.4 L470.1,364.1 L467.1,366.3 L462.5,365.9 L457.1,364.1 L453.5,361.2 L448.3,352.4 L443.7,343.4 L440.0,334.9 L436.5,323.9 L432.2,308.7 L429.1,299.5 L426.1,290.9 L422.4,281.1 L418.9,271.0 L415.2,255.0 L411.9,240.7 L408.8,224.1 L406.0,210.2 L404.5,193.7 L403.8,176.9 L403.1,156.7 L402.3,143.2 Z" fill="#5a9540" stroke="none"/>
<path d="M517.9,-45.6 L517.1,-39.0 L517.1,-34.3 L517.2,-29.6 L516.4,-25.4 L515.7,-22.3 L517.0,-24.3 L519.1,-25.3 L521.9,-25.9 L528.0,-26.5 L534.6,-27.0 L539.1,-26.1 L542.5,-24.2 L544.0,-21.3 L543.5,-25.4 L543.3,-31.2 L544.0,-39.8 L546.2,-47.2 L550.7,-53.2 L556.0,-55.9 L563.6,-58.2 L570.1,-60.9 L573.7,-66.3 L575.5,-74.5 L575.8,-83.4 L575.0,-93.3 L572.7,-101.8 L570.0,-107.4 L565.3,-113.4 L560.1,-118.4 L555.5,-121.7 L549.4,-123.5 L542.4,-122.4 L536.1,-118.9 L532.1,-113.1 L528.6,-107.1 L526.8,-99.8 L524.7,-88.2 L522.6,-76.3 L519.9,-65.9 L518.7,-56.3 L517.9,-45.6 Z" fill="#5a9540" stroke="none"/>
<path d="M531.8,317.1 L535.6,330.5 L539.1,344.9 L544.1,360.5 L547.8,373.0 L552.1,384.3 L555.4,398.9 L556.3,407.2 L558.0,416.4 L562.9,429.3 L568.2,441.9 L570.9,448.9 L572.6,453.1 L573.0,457.7 L573.5,453.9 L575.4,451.0 L579.0,449.3 L585.0,448.2 L591.1,447.4 L596.5,447.2 L601.0,448.6 L603.0,451.2 L603.7,454.8 L603.7,457.2 L604.5,453.8 L604.8,449.6 L605.8,444.9 L607.4,441.2 L608.8,436.6 L608.2,432.3 L606.3,427.7 L604.8,423.2 L603.0,418.6 L600.5,410.6 L598.0,403.6 L595.2,398.1 L592.1,395.0 L588.0,393.7 L583.8,394.4 L580.2,395.4 L577.6,394.5 L575.8,392.1 L575.4,387.7 L576.6,382.6 L579.5,378.8 L580.5,374.5 L579.3,368.5 L577.1,360.0 L573.4,348.8 L569.1,336.7 L565.4,323.9 L562.6,312.6 L561.9,302.7 L560.3,289.9 L558.6,271.0 L557.4,254.2 L556.2,237.3 L556.3,221.6 L554.5,207.3 L552.0,194.7 L549.3,182.7 L546.4,170.5 L544.1,163.9 L540.9,158.8 L535.0,154.8 L528.3,151.5 L522.1,148.6 L514.3,145.6 L508.3,144.0 L503.8,144.0 L499.4,145.7 L496.6,149.1 L494.8,153.4 L494.1,158.9 L494.1,163.9 L495.9,169.5 L499.1,173.9 L504.0,178.6 L510.1,182.4 L515.5,186.2 L519.3,190.8 L521.1,197.1 L519.7,201.7 L515.7,205.7 L512.6,211.0 L510.8,216.4 L510.3,224.3 L511.7,235.5 L514.1,251.4 L515.8,261.8 L518.9,273.1 L523.1,286.9 L528.2,300.1 L529.4,307.0 L531.8,317.1 Z" fill="#5a9540" stroke="none"/>
<path d="M531.2,540.1 L532.4,541.8 L533.2,544.6 L535.4,545.3 L536.3,546.8 L537.6,547.8 L540.1,547.2 L540.8,546.0 L539.7,543.1 L538.5,540.4 L536.9,537.8 L535.5,536.4 L532.6,536.2 L531.3,537.0 L530.8,538.2 L531.2,540.1 Z" fill="#e7d6a3" stroke="none"/>
<path d="M516.2,520.5 L514.8,522.0 L514.8,523.7 L516.1,526.8 L517.1,528.4 L519.1,530.7 L520.2,533.0 L522.5,534.1 L525.0,532.8 L526.0,530.5 L526.0,527.5 L524.0,526.0 L521.7,524.2 L520.2,522.1 L519.0,520.2 L516.2,520.5 Z" fill="#e7d6a3" stroke="none"/>
<path d="M494.7,493.6 L492.9,494.8 L492.3,497.1 L493.1,499.8 L493.7,501.9 L495.3,503.4 L497.6,503.8 L498.9,504.5 L499.3,506.2 L501.6,507.1 L503.8,507.3 L505.9,508.1 L508.3,509.7 L510.3,510.0 L512.6,507.9 L513.4,506.3 L512.1,504.4 L512.1,500.7 L511.8,498.6 L512.2,496.0 L510.3,494.5 L507.7,493.8 L505.8,494.3 L503.2,494.2 L500.9,494.1 L498.9,492.7 L496.8,492.7 L494.7,493.6 Z" fill="#e7d6a3" stroke="none"/>
<path d="M584.3,109.4 L582.6,111.2 L581.4,113.2 L580.5,115.5 L580.4,117.3 L581.4,118.7 L582.5,120.4 L584.3,121.1 L586.5,120.5 L588.0,120.1 L589.6,120.4 L591.3,121.0 L592.9,120.1 L593.8,118.9 L593.4,116.9 L592.7,115.4 L593.1,113.6 L593.1,110.9 L593.1,108.2 L592.1,106.1 L589.2,105.7 L587.2,106.4 L584.3,109.4 Z" fill="#e7d6a3" stroke="none"/>
<path d="M583.2,132.9 L582.6,134.7 L583.2,137.6 L584.2,141.0 L585.3,143.8 L587.6,144.6 L590.4,145.0 L593.1,144.0 L594.0,141.3 L594.1,138.7 L593.4,135.4 L593.3,133.6 L591.9,132.1 L590.0,130.2 L588.5,129.3 L586.2,129.4 L584.1,131.2 L583.2,132.9 Z" fill="#e7d6a3" stroke="none"/>
<path d="M611.8,363.2 L609.2,367.2 L607.5,371.1 L606.6,375.0 L606.7,378.9 L607.5,382.5 L609.1,385.0 L610.6,386.7 L612.1,388.1 L612.9,390.7 L614.9,392.3 L617.8,393.2 L620.3,392.1 L622.1,389.2 L622.9,386.5 L622.9,384.1 L621.7,382.3 L618.8,381.1 L616.6,380.3 L616.0,378.1 L615.5,374.3 L617.5,373.5 L619.7,375.4 L621.0,377.5 L622.6,378.3 L625.2,377.5 L627.4,374.3 L628.0,372.1 L626.8,370.3 L625.5,369.5 L625.3,368.0 L627.0,367.1 L629.1,367.9 L631.1,368.1 L632.9,366.0 L634.2,363.3 L634.2,359.7 L633.3,357.2 L631.8,355.5 L628.6,355.2 L625.1,355.4 L620.8,357.2 L617.1,358.6 L614.1,360.0 L611.8,363.2 Z" fill="#e7d6a3" stroke="none"/>
<path d="M606.0,408.1 L607.6,410.4 L608.8,414.3 L608.2,416.3 L606.0,421.2 L606.9,423.8 L608.5,425.7 L611.7,426.1 L614.4,425.2 L616.2,424.3 L618.1,424.7 L620.4,424.0 L620.8,422.0 L620.6,419.5 L619.7,418.2 L617.6,417.3 L615.7,416.3 L615.5,414.7 L617.0,413.0 L619.2,412.6 L620.0,411.0 L619.8,408.7 L618.2,406.1 L615.4,404.0 L612.3,402.4 L608.8,400.6 L606.9,401.3 L604.7,403.0 L604.9,405.0 L606.0,408.1 Z" fill="#e7d6a3" stroke="none"/>
<path d="M619.2,442.1 L621.6,444.0 L623.9,446.5 L624.9,449.3 L626.1,452.0 L627.3,453.8 L629.2,454.2 L631.0,452.7 L631.9,450.4 L633.1,448.8 L634.8,446.9 L634.7,445.3 L633.4,443.5 L631.5,442.4 L629.2,442.0 L627.4,442.0 L625.9,440.3 L626.0,438.5 L628.1,437.7 L628.7,436.1 L627.4,434.2 L624.0,432.4 L620.5,432.2 L617.8,432.3 L615.4,433.2 L614.2,435.1 L614.7,437.7 L616.1,440.2 L619.2,442.1 Z" fill="#e7d6a3" stroke="none"/>
<path d="M657.5,439.5 L656.5,442.0 L655.0,444.0 L653.4,445.3 L652.8,447.7 L652.9,450.7 L654.6,451.8 L656.6,453.4 L657.4,455.5 L659.4,456.6 L662.4,456.0 L666.2,452.6 L668.5,449.6 L670.6,446.4 L671.9,442.5 L673.7,439.3 L674.6,434.8 L673.4,431.1 L671.9,429.5 L669.0,429.4 L667.0,428.7 L665.8,427.5 L663.2,428.0 L662.4,429.6 L662.2,431.4 L662.9,433.4 L662.6,435.5 L661.0,436.0 L659.4,436.6 L658.7,438.4 L657.5,439.5 Z" fill="#e7d6a3" stroke="none"/>
<path d="M659.4,393.5 L658.8,395.6 L657.5,398.4 L657.9,400.6 L658.5,402.7 L658.5,403.9 L659.5,405.4 L661.6,406.1 L664.5,406.4 L664.9,407.5 L664.5,408.7 L663.1,409.6 L661.9,411.2 L661.5,413.1 L662.5,415.0 L663.6,416.9 L666.1,418.2 L669.2,418.6 L671.8,417.3 L672.6,414.9 L672.6,412.2 L672.0,409.1 L672.3,406.7 L671.7,402.5 L671.5,399.1 L670.1,395.4 L669.0,392.1 L666.0,389.9 L663.2,389.9 L660.8,391.0 L659.4,393.5 Z" fill="#e7d6a3" stroke="none"/>
<path d="M248.3,364.3 L246.8,366.5 L246.4,369.3 L247.0,373.0 L248.7,376.6 L251.0,379.6 L253.0,380.3 L255.5,380.6 L257.2,378.5 L257.8,376.7 L258.0,374.1 L258.8,372.2 L261.0,370.7 L261.9,368.6 L261.8,366.5 L260.9,364.4 L260.1,362.6 L258.4,361.5 L256.3,361.1 L252.4,362.4 L248.3,364.3 Z" fill="#e7d6a3" stroke="none"/>
<path d="M281.1,311.5 L279.4,313.8 L279.1,316.8 L280.6,319.6 L281.7,323.1 L282.6,327.1 L284.2,330.5 L286.6,332.4 L289.4,332.4 L292.4,330.9 L294.7,327.8 L295.5,324.9 L297.5,320.8 L298.1,318.0 L298.0,314.2 L298.6,310.4 L299.5,305.7 L299.5,302.6 L298.8,300.2 L298.4,296.4 L297.9,293.7 L297.3,291.3 L294.5,289.9 L292.0,290.1 L289.5,291.2 L288.9,293.5 L288.6,295.5 L289.6,298.2 L290.4,300.4 L290.3,302.7 L288.7,303.4 L286.8,302.8 L284.0,303.6 L282.8,305.1 L282.0,308.4 L281.1,311.5 Z" fill="#e7d6a3" stroke="none"/>
<path d="M256.2,243.3 L255.6,246.1 L255.4,249.2 L256.1,251.2 L257.5,253.6 L259.2,255.5 L261.4,256.6 L264.0,255.9 L265.5,253.5 L265.6,250.4 L265.9,248.0 L266.0,246.3 L264.1,244.3 L262.6,241.9 L261.2,239.9 L259.1,239.9 L257.4,241.0 L256.2,243.3 Z" fill="#e7d6a3" stroke="none"/>
<path d="M267.7,255.6 L267.3,257.5 L267.7,259.9 L268.6,261.8 L270.0,263.8 L272.0,265.1 L274.0,265.0 L275.6,263.6 L275.6,261.4 L276.0,260.0 L275.4,258.5 L274.1,257.6 L273.4,255.5 L272.6,253.7 L271.4,252.6 L269.3,252.8 L268.5,253.7 L267.7,255.6 Z" fill="#e7d6a3" stroke="none"/>
<path d="M295.5,224.0 L294.1,224.9 L292.8,226.5 L291.2,229.4 L290.5,231.5 L290.0,234.1 L290.5,235.8 L289.9,237.7 L289.4,239.6 L290.0,241.0 L290.3,242.9 L290.3,244.2 L291.1,245.8 L293.4,246.1 L296.2,246.1 L297.7,244.1 L298.5,241.8 L298.7,238.5 L299.5,234.8 L300.8,233.4 L302.3,231.4 L302.8,229.0 L301.7,226.8 L299.6,225.2 L297.7,224.1 L295.5,224.0 Z" fill="#e7d6a3" stroke="none"/>
<path d="M303.4,201.9 L302.2,203.2 L302.1,205.3 L303.3,207.2 L305.0,209.2 L306.9,209.5 L309.6,209.5 L310.5,208.6 L311.8,207.6 L311.5,206.2 L310.4,204.3 L309.7,202.8 L308.2,201.4 L306.2,201.1 L304.7,201.1 L303.4,201.9 Z" fill="#e7d6a3" stroke="none"/>
<path d="M307.8,213.0 L307.2,213.5 L307.1,215.0 L307.3,216.9 L307.9,218.6 L308.6,219.5 L310.4,220.0 L311.7,219.5 L313.8,219.5 L315.1,220.0 L316.3,220.3 L317.6,219.4 L318.9,218.3 L319.1,216.9 L318.5,215.5 L317.3,214.2 L315.9,213.5 L313.8,213.1 L312.0,212.6 L309.9,212.4 L308.3,212.6 L307.8,213.0 Z" fill="#e7d6a3" stroke="none"/>
<path d="M313.5,226.8 L312.6,227.5 L311.6,228.4 L311.6,230.0 L312.5,232.0 L313.3,233.3 L314.2,234.3 L315.1,235.0 L317.0,234.5 L318.3,233.4 L319.3,232.0 L320.1,230.6 L319.7,229.0 L318.8,227.9 L316.9,226.6 L315.0,226.4 L313.5,226.8 Z" fill="#e7d6a3" stroke="none"/>
<path d="M309.3,-55.8 L308.8,-53.5 L308.9,-51.0 L310.3,-48.9 L311.0,-47.3 L311.0,-45.2 L309.3,-44.1 L307.4,-43.3 L305.9,-40.3 L305.0,-36.6 L304.7,-32.8 L306.0,-31.0 L308.3,-29.8 L311.8,-29.4 L314.6,-30.3 L316.0,-32.7 L316.2,-34.6 L315.5,-35.9 L314.6,-37.3 L315.4,-39.8 L317.5,-42.0 L320.0,-43.6 L321.4,-45.6 L324.0,-47.7 L324.1,-50.5 L323.8,-53.3 L324.4,-55.9 L325.0,-58.1 L324.4,-61.5 L322.6,-63.6 L320.5,-64.5 L318.8,-63.3 L317.0,-62.8 L315.5,-61.9 L313.8,-62.3 L311.6,-61.1 L309.7,-59.2 L309.3,-55.8 Z" fill="#e7d6a3" stroke="none"/>
<path d="M359.8,26.4 L360.1,29.4 L359.1,33.1 L358.5,36.8 L358.5,40.5 L358.6,43.6 L359.7,46.4 L361.8,47.5 L364.6,47.6 L367.3,45.9 L368.3,44.4 L367.6,42.3 L366.8,41.2 L366.3,39.5 L367.6,37.8 L369.1,36.0 L369.8,33.8 L369.6,31.1 L368.5,29.0 L368.4,26.4 L368.9,23.2 L370.7,21.9 L372.0,20.0 L372.0,17.7 L370.7,16.4 L368.5,15.5 L366.9,15.0 L364.6,15.3 L362.6,14.2 L361.2,12.7 L358.5,11.0 L356.4,9.3 L354.4,8.8 L352.4,9.2 L350.6,11.0 L350.6,12.7 L352.0,15.3 L354.4,18.0 L356.2,19.9 L358.4,22.4 L359.3,24.6 L359.8,26.4 Z" fill="#e7d6a3" stroke="none"/>
<path d="M404.9,13.5 L406.4,15.8 L406.8,19.3 L406.4,22.5 L405.3,25.6 L403.3,27.7 L401.1,28.7 L399.5,29.4 L398.2,30.6 L397.4,33.1 L397.4,35.6 L398.5,37.7 L399.5,40.3 L399.7,41.6 L400.7,42.6 L402.5,42.8 L404.3,41.5 L406.3,39.3 L406.7,36.7 L407.4,33.8 L409.1,31.3 L411.3,28.5 L413.0,26.0 L413.2,22.6 L413.6,18.6 L413.1,15.3 L411.4,12.1 L409.2,9.1 L407.2,6.7 L405.9,5.6 L404.8,3.3 L403.4,1.0 L401.7,-0.5 L399.0,-1.0 L396.9,-0.7 L395.5,1.4 L394.2,4.6 L394.2,6.3 L395.1,8.7 L395.4,10.2 L395.2,11.5 L396.6,13.3 L398.0,13.9 L400.0,13.1 L400.9,12.1 L402.9,11.8 L404.9,13.5 Z" fill="#e7d6a3" stroke="none"/>
<path d="M353.6,389.8 L353.9,392.0 L355.0,393.5 L356.2,394.9 L358.5,395.1 L362.0,395.1 L363.5,395.8 L364.8,397.5 L366.0,399.7 L367.1,401.9 L368.7,403.0 L370.0,404.5 L372.4,405.1 L374.5,404.4 L375.7,402.5 L377.3,400.6 L377.4,398.4 L375.8,395.3 L374.3,393.2 L372.6,391.9 L369.7,391.4 L366.4,389.0 L364.7,386.8 L362.8,385.2 L359.0,384.9 L356.5,385.2 L354.8,387.1 L353.6,389.8 Z" fill="#e7d6a3" stroke="none"/>
<path d="M437.5,218.9 L436.3,220.7 L436.2,222.6 L436.8,225.2 L437.5,226.9 L440.1,228.2 L443.0,228.8 L445.1,229.0 L447.0,230.0 L449.2,231.4 L450.7,231.3 L452.4,228.8 L454.3,226.7 L454.0,224.7 L451.9,222.9 L449.9,222.3 L448.5,220.1 L448.6,218.0 L448.4,215.7 L446.9,214.1 L445.0,213.9 L444.0,216.2 L441.7,216.9 L438.9,217.1 L437.5,218.9 Z" fill="#e7d6a3" stroke="none"/>
<path d="M388.7,86.5 L389.7,88.1 L390.0,90.6 L389.5,94.4 L388.0,97.0 L386.2,100.2 L386.0,103.1 L386.8,106.6 L388.5,110.2 L390.1,114.2 L392.1,117.3 L394.0,120.0 L396.3,121.5 L399.8,121.7 L402.3,120.3 L404.0,118.3 L404.0,116.4 L403.0,114.6 L402.0,112.8 L401.6,110.9 L400.7,108.8 L400.5,107.1 L398.7,105.9 L396.8,105.8 L395.4,104.2 L394.5,101.8 L393.8,98.9 L394.5,96.0 L396.2,93.8 L397.4,91.5 L396.7,89.0 L397.3,87.1 L398.1,84.4 L397.9,82.1 L398.3,80.2 L398.6,79.0 L397.7,77.4 L396.1,76.5 L393.9,77.0 L391.8,78.7 L390.8,81.3 L390.4,83.0 L389.0,84.6 L388.7,86.5 Z" fill="#e7d6a3" stroke="none"/>
<path d="M427.1,90.0 L428.7,90.9 L430.5,91.8 L431.7,94.0 L432.0,96.7 L430.6,100.9 L428.9,101.5 L427.4,100.7 L426.1,99.8 L424.1,100.1 L422.7,101.5 L421.7,103.7 L421.8,106.1 L422.3,108.4 L423.6,109.4 L425.1,109.7 L425.7,111.3 L425.3,112.9 L424.4,114.5 L424.5,116.3 L426.2,118.2 L428.2,119.2 L431.1,119.4 L433.3,118.9 L435.9,117.2 L437.6,114.1 L438.3,111.1 L438.1,105.2 L437.5,98.9 L437.5,94.7 L437.6,91.1 L437.1,88.6 L435.6,86.1 L434.1,83.7 L433.5,81.2 L434.1,78.0 L435.6,75.7 L437.4,73.9 L439.0,70.9 L438.8,67.4 L438.1,64.0 L437.2,61.1 L435.9,59.4 L433.5,58.8 L431.6,59.7 L430.7,61.6 L430.4,65.2 L430.1,67.8 L429.9,70.8 L428.9,73.8 L427.9,76.1 L426.7,77.8 L426.8,79.9 L427.4,82.1 L427.1,83.9 L426.3,85.5 L425.7,87.5 L426.4,89.1 L427.1,90.0 Z" fill="#e7d6a3" stroke="none"/>
<path d="M487.4,190.3 L487.1,194.4 L486.6,198.0 L487.1,202.6 L488.0,205.0 L489.7,208.2 L491.5,208.9 L493.9,208.1 L495.6,206.0 L497.6,205.2 L499.4,204.5 L501.2,202.4 L503.2,200.9 L505.5,199.1 L507.6,197.6 L509.7,197.5 L512.0,198.6 L514.5,197.6 L515.1,195.2 L514.5,193.2 L514.0,190.6 L513.2,188.1 L510.9,187.5 L508.8,187.5 L507.3,186.0 L505.8,185.9 L503.3,184.8 L502.8,182.6 L500.9,179.5 L497.8,177.3 L494.5,175.4 L491.1,175.7 L488.5,177.1 L487.0,179.9 L486.4,183.4 L487.0,187.2 L487.4,190.3 Z" fill="#e7d6a3" stroke="none"/>
<path d="M558.5,457.6 L558.0,460.7 L556.0,463.9 L554.9,465.9 L555.0,467.6 L555.9,470.0 L557.3,472.9 L557.3,474.7 L557.1,476.2 L557.6,477.8 L559.1,478.7 L561.6,478.7 L564.0,479.7 L564.4,482.3 L564.4,486.5 L563.3,490.1 L562.7,493.3 L564.0,494.8 L566.0,495.8 L569.3,496.9 L570.9,499.1 L571.7,502.8 L572.0,505.5 L573.3,507.9 L575.4,508.8 L578.2,508.3 L580.0,506.3 L580.5,503.9 L580.9,502.0 L580.3,500.3 L578.4,498.7 L577.4,496.7 L576.3,493.6 L575.0,490.6 L573.4,489.0 L572.0,488.4 L570.9,487.1 L571.1,484.7 L573.1,483.2 L574.0,481.0 L573.4,480.1 L572.7,478.9 L571.9,476.9 L570.6,475.6 L568.9,474.4 L566.9,474.1 L565.3,473.5 L564.2,472.4 L564.6,470.3 L565.3,468.9 L565.5,466.9 L567.0,465.9 L567.4,464.5 L566.9,461.5 L567.1,459.3 L568.4,456.9 L569.4,454.5 L569.0,452.4 L567.7,450.5 L565.7,449.8 L563.8,450.3 L562.0,451.8 L559.6,454.8 L558.7,456.4 L558.5,457.6 Z" fill="#e7d6a3" stroke="none"/>
<path d="M606.0,461.9 L606.1,463.5 L606.5,465.9 L607.1,468.0 L608.6,469.5 L610.2,470.9 L612.3,471.2 L614.1,471.9 L614.6,475.2 L613.8,476.4 L611.7,477.7 L611.7,479.3 L612.9,480.6 L613.0,482.4 L612.7,484.8 L613.3,487.5 L614.4,489.7 L615.3,491.4 L615.4,493.1 L616.4,494.7 L618.8,495.1 L621.8,494.1 L623.9,492.2 L625.1,490.7 L624.5,488.9 L623.1,486.7 L622.2,484.6 L623.0,482.1 L624.1,480.0 L623.7,477.6 L622.3,474.6 L620.9,471.2 L619.6,468.3 L617.8,466.9 L615.1,465.0 L613.7,462.2 L613.4,459.2 L613.4,456.0 L613.0,452.3 L612.2,449.1 L611.4,447.3 L610.4,446.0 L608.5,445.9 L607.0,447.6 L606.7,450.2 L606.7,452.3 L606.0,453.8 L605.4,455.8 L605.6,457.5 L606.2,459.9 L606.0,461.9 Z" fill="#e7d6a3" stroke="none"/>
<path d="M583.0,378.9 L581.9,380.7 L579.6,382.4 L578.1,385.2 L577.1,387.2 L577.7,389.1 L578.0,390.9 L579.5,392.0 L581.5,392.2 L583.2,390.5 L585.1,388.3 L586.8,387.8 L588.1,387.1 L587.7,384.4 L587.7,381.9 L589.0,379.3 L590.5,379.1 L592.0,380.5 L591.1,382.2 L591.0,384.3 L591.8,385.8 L594.3,386.2 L596.4,385.1 L597.4,383.3 L597.4,380.2 L596.9,378.1 L594.9,376.6 L594.9,373.2 L594.1,371.1 L591.7,369.5 L588.6,368.6 L585.9,368.6 L584.3,369.9 L583.5,371.5 L584.2,374.4 L584.3,376.9 L583.0,378.9 Z" fill="#e7d6a3" stroke="none"/>
<path d="M551.4,667.7 L565.2,682.7 L574.0,674.6 L560.2,659.7 L551.4,667.7 Z" fill="#4f8a3e" stroke="none"/>
<path d="M328.4,72.5 L329.1,79.7 L329.8,87.0 L334.5,86.3 L339.2,85.6 L338.5,78.3 L337.8,71.1 L333.1,71.8 L328.4,72.5 Z" fill="#4f8a3e" stroke="none"/>
<path d="M328.3,65.5 L332.9,65.3 L337.5,65.0 L336.7,55.3 L335.9,45.9 L334.9,33.9 L333.9,21.8 L333.2,12.9 L328.5,13.3 L323.8,13.6 L324.5,22.3 L325.6,34.7 L326.6,46.2 L327.4,55.9 L328.3,65.5 Z" fill="#4f8a3e" stroke="none"/>
<path d="M477.9,643.8 L480.4,648.2 L483.0,652.6 L491.8,647.4 L501.9,641.3 L508.7,637.3 L506.1,633.1 L503.5,628.9 L495.6,633.5 L484.5,640.0 L477.9,643.8 Z" fill="#4f8a3e" stroke="none"/>
<path d="M249.5,643.4 L250.1,636.6 L250.6,629.9 L253.5,630.1 L256.5,630.3 L256.1,637.0 L255.8,643.6 L252.6,643.5 L249.5,643.4 Z" fill="#4f8a3e" stroke="none"/>
<path d="M235.5,594.1 L236.2,589.9 L236.8,585.6 L239.6,586.2 L242.5,586.7 L241.9,590.6 L241.2,594.5 L238.4,594.3 L235.5,594.1 Z" fill="#4f8a3e" stroke="none"/>
<path d="M540.7,518.4 L551.4,542.6 L562.8,537.6 L552.2,513.4 L540.7,518.4 Z" fill="#4f8a3e" stroke="none"/>
<path d="M533.0,501.1 L537.6,512.0 L548.5,507.5 L544.0,496.5 L533.0,501.1 Z" fill="#4f8a3e" stroke="none"/>
<path d="M509.0,458.3 L510.9,462.5 L512.7,466.7 L515.3,465.5 L517.9,464.2 L516.2,460.1 L514.6,456.1 L511.8,457.2 L509.0,458.3 Z" fill="#4f8a3e" stroke="none"/>
<path d="M446.2,75.4 L447.7,60.0 L449.1,44.7 L450.8,27.2 L452.4,10.6 L453.8,-4.6 L454.8,-15.9 L458.9,-15.2 L463.0,-14.4 L462.1,-4.0 L460.7,11.1 L459.2,27.7 L457.6,44.8 L455.9,63.3 L454.7,76.4 L450.5,75.9 L446.2,75.4 Z" fill="#4f8a3e" stroke="none"/>
<path d="M479.5,-6.7 L489.9,52.4 L501.0,50.5 L490.5,-8.7 L479.5,-6.7 Z" fill="#4f8a3e" stroke="none"/>
<path d="M477.2,-50.8 L481.1,-29.5 L491.0,-31.4 L487.1,-52.6 L477.2,-50.8 Z" fill="#4f8a3e" stroke="none"/>
<path d="M504.9,67.1 L506.7,76.6 L508.5,86.1 L516.9,84.9 L525.2,83.6 L523.0,73.8 L520.7,64.1 L512.8,65.6 L504.9,67.1 Z" fill="#4f8a3e" stroke="none"/>
<path d="M682.6,473.7 L683.5,461.9 L685.7,425.5 L695.7,426.2 L692.6,474.5 L682.6,473.7 Z" fill="#4f8a3e" stroke="none"/>
<path d="M686.4,419.6 L688.3,396.1 L697.6,396.8 L695.7,420.3 L686.4,419.6 Z" fill="#4f8a3e" stroke="none"/>
<path d="M689.0,389.5 L689.7,375.1 L699.2,375.6 L698.4,390.0 L689.0,389.5 Z" fill="#4f8a3e" stroke="none"/>
<path d="M712.0,316.6 L711.8,308.0 L718.2,307.8 L718.4,316.4 L712.0,316.6 Z" fill="#4f8a3e" stroke="none"/>
<path d="M157.7,385.9 L159.9,378.6 L163.4,366.6 L166.1,357.0 L160.2,355.5 L154.3,354.1 L152.3,360.9 L148.7,373.6 L146.3,382.2 L152.0,384.1 L157.7,385.9 Z" fill="#4f8a3e" stroke="none"/>
<path d="M170.4,299.7 L173.2,290.7 L175.9,281.6 L178.8,272.2 L181.4,263.9 L187.2,265.4 L193.0,266.9 L190.5,275.5 L188.1,284.2 L185.5,293.7 L182.6,304.0 L176.5,301.9 L170.4,299.7 Z" fill="#4f8a3e" stroke="none"/>
<path d="M189.1,236.2 L191.7,227.5 L195.0,216.5 L198.0,206.6 L200.3,198.8 L206.1,200.8 L211.9,202.7 L209.3,212.0 L206.6,221.3 L203.3,232.7 L201.3,239.8 L195.2,238.0 L189.1,236.2 Z" fill="#4f8a3e" stroke="none"/>
<path d="M235.6,156.2 L236.8,151.1 L238.8,143.1 L240.4,136.2 L235.5,134.9 L230.5,133.5 L229.1,139.6 L227.2,147.4 L225.7,154.0 L230.7,155.1 L235.6,156.2 Z" fill="#4f8a3e" stroke="none"/>
<path d="M266.0,92.2 L268.9,92.6 L271.9,93.1 L271.4,97.5 L271.0,102.0 L268.0,101.6 L265.0,101.3 L265.5,96.8 L266.0,92.2 Z" fill="#4f8a3e" stroke="none"/>
<path d="M768.4,421.2 L776.1,413.6 L724.6,401.2 L721.3,412.5 L723.9,411.8 L727.9,411.3 L732.0,411.1 L741.0,412.3 L754.6,414.3 L761.7,416.2 L764.5,418.4 L768.4,421.2 Z" fill="#4f8a3e" stroke="none"/>
<path d="M490.4,620.1 L499.0,613.5 L507.7,606.9 L504.8,595.8 L501.9,584.7 L490.0,593.4 L478.1,602.1 L484.2,611.1 L490.4,620.1 Z" fill="#4f8a3e" stroke="none"/>
<path d="M469.2,649.5 L471.4,653.7 L473.6,657.8 L470.5,659.5 L467.3,661.2 L465.0,657.2 L462.7,653.1 L465.9,651.3 L469.2,649.5 Z" fill="#4f8a3e" stroke="none"/>
<path d="M319.8,-29.9 L320.6,-20.9 L321.6,-9.9 L322.7,1.1 L323.5,9.6 L328.0,9.4 L333.4,9.2 L332.5,1.0 L331.4,-10.4 L330.3,-20.5 L329.3,-30.6 L324.5,-30.2 L319.8,-29.9 Z" fill="#4f8a3e" stroke="none"/>
<path d="M318.2,129.5 L319.2,134.0 L320.3,138.5 L323.6,137.8 L326.9,137.1 L325.9,132.6 L324.8,128.1 L321.5,128.8 L318.2,129.5 Z" fill="#4f8a3e" stroke="none"/>
<path d="M716.9,450.8 L715.9,448.5 L715.3,444.5 L716.6,441.4 L720.0,433.5 L721.5,427.9 L723.1,423.4 L724.7,420.7 L726.4,419.8 L728.7,419.8 L733.0,420.2 L738.8,420.4 L745.0,420.0 L750.3,419.8 L753.2,420.4 L755.0,421.3 L756.0,423.2 L756.8,425.1 L756.5,427.0 L754.2,430.0 L747.7,435.5 L738.9,441.4 L736.1,443.1 L734.2,445.8 L731.3,449.1 L729.0,451.9 L726.5,453.9 L725.1,454.5 L723.5,454.7 L721.3,454.3 L719.8,453.6 L717.9,452.6 L716.9,450.8 Z" fill="#2f7825" stroke="none"/>
<path d="M600.2,656.1 L597.5,652.8 L595.5,649.0 L596.0,645.2 L597.2,641.8 L600.2,637.1 L604.3,632.3 L607.3,629.5 L609.2,628.3 L611.0,628.0 L613.0,627.9 L617.5,629.4 L622.4,632.5 L629.6,637.7 L632.9,641.2 L635.8,644.5 L643.6,650.7 L646.3,653.2 L647.6,655.4 L648.4,657.5 L648.8,659.2 L648.9,660.5 L648.4,663.4 L646.4,665.7 L645.3,666.9 L644.4,668.1 L642.2,669.5 L640.5,669.8 L638.7,669.7 L637.2,669.2 L635.8,668.5 L634.4,665.7 L633.0,664.2 L630.9,663.0 L628.8,662.5 L620.4,661.9 L613.1,661.4 L611.1,661.3 L608.6,661.3 L606.5,660.9 L604.7,660.0 L602.4,658.8 L600.2,656.1 Z" fill="#2f7825" stroke="none"/>
<path d="M485.4,509.7 L487.4,507.6 L489.4,506.0 L492.9,505.2 L495.1,505.4 L498.0,507.4 L502.2,510.7 L506.5,514.5 L509.5,516.8 L511.9,518.4 L513.1,521.3 L513.5,523.8 L514.1,526.7 L516.1,530.4 L519.1,533.7 L521.5,535.9 L524.9,536.0 L528.0,537.3 L530.4,540.8 L532.2,545.2 L532.4,548.8 L529.1,551.5 L522.5,557.4 L515.7,561.6 L508.5,564.7 L503.7,566.2 L500.7,565.7 L498.3,564.2 L496.1,560.4 L492.8,551.5 L489.9,541.8 L487.2,534.3 L485.3,530.2 L481.9,527.3 L480.3,526.2 L478.7,522.8 L479.9,518.4 L481.5,515.4 L485.4,509.7 Z" fill="#2f7825" stroke="none"/>
<path d="M622.0,399.4 L620.8,401.7 L620.8,405.1 L622.4,410.8 L623.0,415.6 L622.9,421.2 L622.9,423.7 L623.9,426.2 L626.5,429.8 L629.5,434.5 L631.3,438.8 L633.9,442.8 L636.8,445.8 L642.0,446.6 L647.1,446.0 L651.5,443.9 L655.5,439.9 L658.1,435.1 L660.3,429.5 L661.4,424.9 L661.1,420.1 L660.2,414.3 L659.0,409.9 L657.2,404.3 L656.9,403.2 L655.9,400.2 L654.0,398.8 L649.0,398.4 L642.1,398.4 L633.3,398.4 L625.8,398.6 L623.6,398.7 L622.0,399.4 Z" fill="#2f7825" stroke="none"/>
<path d="M288.7,250.8 L289.2,253.5 L289.6,256.0 L289.5,257.4 L287.9,258.2 L284.6,258.8 L281.5,258.9 L278.5,258.9 L277.2,257.8 L275.5,254.7 L272.9,250.8 L269.2,246.4 L266.5,242.6 L263.8,239.8 L261.8,237.6 L262.0,235.2 L263.7,230.1 L266.7,223.9 L269.3,219.9 L273.4,214.6 L277.2,210.9 L280.5,207.8 L284.0,206.2 L286.7,205.7 L288.6,206.1 L290.5,207.6 L291.8,210.6 L293.1,214.2 L293.9,217.5 L293.7,220.7 L293.1,223.7 L291.1,227.6 L289.7,230.6 L288.8,234.2 L288.4,239.7 L288.3,244.2 L288.4,247.5 L288.7,250.8 Z" fill="#2f7825" stroke="none"/>
<path d="M371.0,40.2 L371.6,35.2 L372.6,29.7 L373.5,23.4 L373.3,18.3 L372.2,14.1 L370.6,10.7 L369.3,8.4 L369.3,5.8 L371.4,3.4 L375.3,1.6 L382.3,0.4 L387.2,-0.7 L390.3,-0.8 L392.6,0.2 L392.9,2.7 L392.8,5.0 L392.7,6.8 L393.3,10.9 L394.9,13.8 L395.9,16.9 L396.0,23.1 L395.8,28.4 L395.4,32.8 L395.8,36.8 L395.6,40.8 L392.8,44.8 L389.1,47.7 L384.3,50.2 L379.7,53.0 L375.4,55.2 L371.6,55.0 L369.3,53.4 L369.3,50.4 L370.1,45.1 L371.0,40.2 Z" fill="#2f7825" stroke="none"/>
<path d="M400.6,81.9 L399.1,87.4 L398.3,94.7 L399.1,100.5 L401.4,105.7 L403.7,111.6 L405.6,116.8 L407.2,120.8 L410.0,122.7 L414.3,123.1 L418.7,122.4 L421.4,120.3 L421.8,117.9 L420.7,112.4 L419.5,105.9 L419.2,100.0 L420.4,92.7 L422.6,88.0 L425.0,84.3 L425.8,80.0 L425.9,73.1 L426.2,67.8 L426.2,63.0 L425.6,59.0 L423.9,57.7 L421.1,57.4 L414.3,59.5 L409.2,61.0 L404.4,63.4 L400.4,66.0 L398.4,68.8 L397.6,71.8 L399.4,75.1 L400.6,78.3 L400.6,81.9 Z" fill="#2f7825" stroke="none"/>
<path d="M516.0,-13.4 L516.5,-8.2 L517.6,-1.0 L518.2,4.2 L518.7,8.4 L519.8,13.8 L521.7,17.1 L523.5,20.1 L526.3,20.5 L530.4,18.9 L534.8,17.7 L541.0,16.0 L543.7,14.5 L544.5,11.7 L544.3,5.8 L544.2,-2.3 L544.2,-10.0 L544.2,-16.7 L544.0,-21.3 L542.5,-24.2 L539.1,-26.1 L534.6,-27.0 L528.0,-26.5 L521.9,-25.9 L519.1,-25.3 L517.0,-24.3 L515.7,-22.3 L515.7,-17.3 L516.0,-13.4 Z" fill="#2f7825" stroke="none"/>
<path d="M575.1,473.2 L575.9,478.3 L576.3,484.6 L576.7,489.5 L578.1,494.2 L580.7,498.5 L583.5,503.2 L585.6,508.2 L587.8,511.0 L592.0,510.6 L599.2,507.7 L606.6,503.7 L611.3,500.0 L613.0,496.5 L613.3,493.0 L612.3,487.7 L610.6,482.7 L608.5,477.2 L606.0,473.1 L604.1,468.1 L603.7,460.2 L603.7,457.2 L603.7,454.8 L603.0,451.2 L601.0,448.6 L596.5,447.2 L591.1,447.4 L585.0,448.2 L579.0,449.3 L575.4,451.0 L573.5,453.9 L573.0,457.7 L573.5,463.0 L573.9,468.4 L575.1,473.2 Z" fill="#2f7825" stroke="none"/>
<path d="M327.0,-6.0 L371.3,363.4 L501.8,542.6" fill="none" stroke="#ffd64a" stroke-width="5" stroke-linecap="round" stroke-linejoin="round" opacity="0.95"/>
</svg>