<svg xmlns="http://www.w3.org/2000/svg" viewBox="0 0 358 800" preserveAspectRatio="xMidYMid meet">
<rect width="100%" height="100%" fill="#143018"/>
<path d="M-167.7,941.3 L-171.7,920.0 L-153.9,893.0 L-140.1,856.8 L-117.7,840.1 L-92.4,830.9 L-70.5,792.9 L-75.7,777.4 L-46.4,735.4 L-35.4,712.4 L-38.9,642.3 L-53.3,610.6 L-51.0,576.7 L-61.9,555.4 L-87.8,543.4 L-110.2,546.8 L-126.9,546.2 L-148.2,491.6 L-142.4,462.8 L-116.0,412.8 L-128.6,379.5 L-127.5,351.3 L-103.9,294.3 L-117.1,275.9 L-148.2,248.3 L-173.5,193.1 L-188.4,135.6 L-182.7,109.7 L-174.1,36.1 L-184.4,-12.8 L-202.8,-71.4 L-211.4,-116.8 L-228.7,-189.9 L-244.8,-245.7 L-262.0,-303.2 L-274.7,-340.5 L-300.6,-398.0 L-339.1,-415.9 L-357.5,-425.7 L-370.2,-529.7 L-350.6,-594.7 L-350.0,-662.6 L-355.8,-686.1 L-380.5,-842.6 L-375.9,-871.9 L-402.4,-881.7 L-466.2,-875.9 L-470.8,-867.3 L-474.8,-848.3 L-461.0,-823.6 L-442.6,-781.0 L-419.0,-734.5 L-400.6,-603.4 L-412.7,-502.7 L-382.2,-399.8 L-381.7,-321.6 L-348.3,-284.2 L-312.6,-176.7 L-266.6,-59.9 L-245.4,-9.9 L-237.9,30.9 L-240.8,117.8 L-235.6,132.2 L-276.4,146.5 L-312.1,145.4 L-341.4,157.5 L-364.4,170.7 L-354.1,175.9 L-316.1,177.6 L-278.7,168.4 L-237.9,162.1 L-222.9,167.8 L-187.8,199.4 L-152.2,278.2 L-141.3,341.5 L-158.5,385.2 L-205.7,380.6 L-216.0,384.6 L-210.3,401.3 L-190.7,421.4 L-189.6,449.6 L-189.6,474.3 L-167.7,515.2 L-118.3,581.3 L-94.1,645.7 L-102.2,677.9 L-139.0,725.1 L-171.2,760.2 L-190.1,762.5 L-221.2,733.7 L-238.5,749.8 L-259.2,775.7 L-302.9,779.1 L-340.8,763.6 L-346.6,730.3 L-352.9,680.2 L-347.2,631.3 L-367.3,595.7 L-406.4,620.4 L-432.8,637.7 L-454.7,632.5 L-493.8,580.7 L-508.2,547.9 L-532.9,541.1 L-559.4,543.9 L-611.7,564.6 L-620.3,577.2 L-634.2,612.9 L-592.6,651.2 L-502.1,657.2 L-463.1,680.3 L-450.6,718.0 L-453.2,742.4 L-455.2,797.2 L-429.4,824.3 L-373.3,809.8 L-321.7,823.7 L-296.0,852.7 L-295.3,880.5 L-328.4,900.3 L-338.3,927.4 L-322.4,951.1 L-290.7,947.2 L-256.4,937.9 L-220.7,951.1 L-212.7,994.8 L-236.5,1032.4 L-251.1,1050.3 L-241.8,1072.7 L-52.9,1235.9 L-23.2,1256.4 L-4.7,1256.4 L9.9,1240.5 L2.0,1200.2 L-50.2,1165.2 L-102.4,1126.2 L-116.3,1070.1 L-129.5,1045.0 L-158.6,1026.5 L-175.1,1011.9 L-181.0,1000.7 L-186.3,981.5 L-188.3,957.8 L-167.7,941.3 Z" fill="#0f2810" stroke="none"/>
<path d="M75.9,75.9 L128.3,512.4 L282.5,724.1" fill="none" stroke="#4e8b39" stroke-width="59.1" stroke-linecap="round" stroke-linejoin="round" opacity="0.85"/>
<path d="M73.5,331.4 L73.4,328.0 L73.9,324.5 L76.3,320.2 L80.0,317.5 L84.9,316.3 L92.5,316.1 L102.0,316.2 L107.5,317.2 L110.1,319.5 L112.4,322.8 L113.8,329.0 L117.3,354.3 L129.1,430.4 L132.8,457.8 L134.7,469.6 L136.7,479.4 L139.0,488.0 L147.2,504.7 L164.0,536.5 L180.5,560.2 L210.5,599.4 L231.5,626.8 L247.0,646.6 L258.7,661.4 L266.4,671.6 L270.9,677.0 L274.6,680.1 L272.0,679.8 L267.9,680.8 L265.5,682.8 L263.1,685.2 L258.6,692.0 L256.6,695.4 L255.2,700.6 L257.1,704.6 L252.3,700.7 L247.2,697.2 L240.9,693.4 L229.9,685.8 L222.9,679.9 L218.3,674.9 L204.6,655.9 L179.5,621.7 L163.8,598.6 L153.1,577.5 L146.5,560.8 L139.6,550.8 L132.2,543.5 L124.4,537.4 L115.4,531.0 L109.2,522.7 L106.3,514.1 L103.1,505.8 L99.6,498.7 L96.5,488.2 L93.1,473.6 L89.3,454.3 L87.7,443.7 L85.0,424.9 L73.5,331.4 Z" fill="#5a9540" stroke="none"/>
<path d="M434.4,85.8 L434.4,132.4 L437.9,210.4 L442.3,299.3 L447.1,366.0 L450.0,406.7 L452.3,432.1 L457.1,459.1 L461.9,477.4 L464.9,492.6 L466.3,503.1 L466.7,520.7 L465.8,533.2 L465.2,540.3 L464.7,545.5 L464.4,551.7 L464.7,554.5 L465.7,559.4 L464.5,555.8 L462.2,554.2 L456.3,553.7 L448.2,553.7 L437.8,553.7 L429.0,553.9 L426.4,554.1 L424.5,554.9 L423.1,557.6 L423.4,554.7 L424.4,552.2 L426.1,548.8 L431.3,538.5 L437.3,527.8 L440.9,520.7 L443.3,514.7 L443.6,512.0 L442.8,508.0 L440.2,503.5 L437.6,500.6 L434.2,499.6 L429.2,500.4 L423.7,501.5 L419.4,500.8 L416.2,497.9 L413.8,492.8 L412.1,480.3 L410.6,466.9 L409.2,446.3 L408.4,427.4 L407.7,411.2 L405.9,386.6 L405.0,371.2 L403.9,348.7 L403.2,332.8 L400.0,289.2 L398.2,250.7 L397.8,231.4 L396.0,199.9 L394.6,163.5 L393.2,125.0 L392.3,98.0 L392.1,90.9 L393.4,84.9 L396.3,78.1 L398.4,74.3 L401.4,71.8 L406.1,69.5 L411.3,68.2 L418.0,67.2 L420.7,67.2 L424.2,67.9 L427.4,69.3 L430.8,71.7 L432.5,74.8 L433.6,77.9 L434.4,85.8 Z" fill="#5a9540" stroke="none"/>
<path d="M6.4,738.0 L9.9,732.2 L12.8,726.5 L15.4,719.6 L16.3,712.6 L17.1,699.5 L18.9,673.2 L19.9,650.3 L20.7,628.9 L21.4,608.4 L21.8,583.0 L23.0,562.5 L23.9,541.5 L24.1,519.6 L24.8,503.6 L26.0,494.5 L27.4,487.6 L26.9,482.2 L24.2,477.7 L20.8,471.7 L17.9,464.8 L15.7,457.5 L16.7,451.2 L19.2,445.3 L22.5,439.9 L26.7,432.2 L29.6,424.3 L33.1,414.3 L33.3,408.7 L33.1,400.7 L32.5,390.4 L32.2,388.0 L31.8,385.5 L31.7,387.1 L29.8,388.1 L25.9,388.8 L22.3,388.9 L18.7,388.9 L17.2,387.6 L17.4,389.2 L17.4,390.8 L16.7,393.8 L15.4,396.5 L14.0,398.4 L12.1,399.6 L8.3,401.2 L4.4,401.3 L2.3,402.4 L-0.2,405.6 L-2.5,409.1 L-4.3,413.7 L-5.8,419.6 L-8.5,431.4 L-11.7,445.5 L-14.4,457.5 L-16.5,469.1 L-18.2,483.4 L-17.5,492.6 L-16.5,496.9 L-13.4,499.8 L-10.6,501.3 L-7.5,502.5 L-4.2,504.3 L-0.9,506.2 L1.7,509.6 L3.2,513.4 L3.3,517.1 L1.9,521.1 L-0.8,527.1 L-4.0,534.2 L-5.6,537.0 L-7.0,540.3 L-8.5,544.4 L-9.4,549.4 L-11.2,561.8 L-13.1,581.6 L-15.7,603.1 L-17.0,627.6 L-18.6,652.9 L-22.0,686.0 L-23.9,704.4 L-22.7,721.9 L-21.8,729.8 L-20.0,735.2 L-18.2,738.7 L-15.5,742.2 L-12.8,743.5 L-9.3,744.9 L-5.6,745.1 L-2.2,744.8 L1.5,742.8 L6.4,738.0 Z" fill="#5a9540" stroke="none"/>
<path d="M-34.4,136.8 L-36.9,146.0 L-37.7,154.7 L-36.5,164.3 L-34.0,169.4 L-31.5,173.3 L-26.5,176.6 L-20.1,178.3 L-15.2,178.3 L-9.7,177.6 L-3.3,174.5 L1.8,170.0 L5.4,161.6 L16.8,134.3 L30.8,93.5 L39.9,69.0 L43.9,49.3 L46.9,33.2 L52.1,8.9 L57.3,-15.5 L58.9,-28.5 L60.6,-41.5 L62.9,-68.0 L63.6,-92.6 L64.2,-118.4 L65.3,-144.9 L65.9,-180.7 L66.5,-195.0 L68.4,-213.3 L70.6,-232.7 L72.5,-241.9 L73.5,-249.6 L72.5,-258.2 L71.0,-265.4 L70.2,-270.0 L67.6,-273.1 L63.2,-273.9 L58.0,-271.8 L51.6,-269.0 L46.2,-267.6 L42.6,-267.9 L39.6,-269.2 L35.0,-274.2 L33.0,-280.3 L32.9,-285.3 L34.7,-291.0 L39.0,-297.6 L42.8,-302.1 L44.5,-307.2 L44.5,-312.8 L40.2,-326.5 L35.6,-340.0 L28.8,-358.6 L26.1,-368.7 L23.7,-377.9 L21.0,-384.6 L18.8,-391.0 L15.3,-396.3 L12.0,-399.2 L9.2,-402.2 L7.5,-404.3 L4.0,-410.0 L5.4,-406.2 L5.3,-402.5 L3.4,-398.8 L-2.7,-395.4 L-9.5,-392.9 L-13.4,-393.0 L-16.8,-393.4 L-20.2,-395.6 L-15.3,-391.8 L-12.2,-389.9 L-9.1,-387.3 L-7.2,-384.4 L-5.3,-380.6 L-4.1,-375.8 L-4.4,-371.8 L-6.3,-368.5 L-10.2,-363.1 L-12.7,-359.7 L-12.9,-354.0 L-7.8,-336.3 L-3.0,-321.3 L0.5,-310.3 L5.5,-294.4 L10.4,-278.3 L16.3,-257.2 L22.1,-236.1 L25.1,-219.9 L26.5,-210.1 L27.4,-196.6 L28.0,-179.0 L28.6,-156.9 L28.5,-136.0 L27.8,-115.4 L26.5,-98.5 L25.2,-81.7 L23.9,-66.3 L22.1,-55.1 L19.2,-40.5 L14.8,-23.6 L7.6,3.6 L0.5,30.8 L-6.7,59.5 L-27.3,118.0 L-34.4,136.8 Z" fill="#5a9540" stroke="none"/>
<path d="M117.0,-340.3 L125.4,-326.5 L136.3,-295.1 L153.5,-241.1 L161.6,-190.7 L166.8,-142.5 L167.3,-119.5 L165.5,-89.8 L164.9,-76.2 L162.7,-56.1 L160.4,-34.2 L157.9,-8.1 L155.3,15.6 L154.9,39.6 L152.7,62.4 L156.1,73.2 L155.9,78.0 L155.2,81.7 L154.5,85.2 L153.7,88.9 L153.8,86.2 L153.5,83.3 L150.7,82.1 L147.1,82.3 L141.3,83.6 L133.1,85.0 L128.4,87.1 L126.0,90.0 L126.0,93.0 L127.5,95.7 L129.4,99.8 L130.7,104.7 L129.1,101.3 L127.3,99.0 L124.6,96.9 L121.8,93.7 L120.8,89.9 L120.8,85.1 L121.5,79.1 L121.8,72.3 L122.2,57.0 L123.7,39.8 L124.1,23.1 L124.5,7.2 L125.8,-13.2 L126.7,-40.9 L128.4,-68.4 L130.8,-107.9 L132.1,-129.5 L132.1,-141.7 L130.1,-161.0 L128.5,-173.1 L126.1,-185.2 L122.3,-197.5 L118.4,-205.9 L114.9,-213.2 L110.2,-217.9 L104.0,-224.6 L100.6,-232.1 L98.5,-240.3 L97.7,-249.9 L97.4,-260.7 L97.0,-271.3 L95.3,-280.5 L92.0,-287.9 L88.9,-296.1 L88.6,-304.7 L88.1,-315.4 L88.3,-321.5 L89.3,-326.8 L92.4,-333.7 L95.2,-338.5 L97.1,-341.7 L99.5,-344.6 L102.5,-346.3 L105.6,-346.8 L108.6,-346.3 L111.6,-345.0 L114.1,-343.5 L117.0,-340.3 Z" fill="#5a9540" stroke="none"/>
<path d="M164.9,252.3 L164.7,246.4 L164.7,239.7 L164.9,233.9 L166.3,229.2 L167.7,225.2 L168.6,222.4 L168.8,221.1 L170.8,225.8 L174.0,228.0 L179.1,228.5 L184.4,227.7 L187.5,225.2 L188.0,222.4 L190.1,227.3 L193.4,230.3 L196.3,234.7 L198.5,241.3 L197.9,251.5 L196.9,260.9 L196.0,275.4 L196.5,288.3 L197.7,298.6 L199.9,310.7 L202.1,320.6 L203.0,326.3 L202.4,333.1 L201.0,340.1 L200.1,345.2 L201.4,350.3 L205.1,354.7 L209.2,356.7 L215.2,359.0 L220.8,361.3 L224.1,364.9 L226.7,370.9 L229.8,380.7 L234.4,393.6 L238.4,406.4 L244.1,424.8 L249.0,440.7 L252.9,458.7 L253.2,470.7 L254.1,482.2 L253.2,490.4 L250.8,499.1 L247.5,508.8 L245.1,513.2 L241.5,515.7 L236.1,515.4 L229.7,513.2 L225.5,509.8 L219.3,499.4 L213.9,488.8 L209.5,478.7 L205.4,465.7 L200.2,447.7 L196.6,436.8 L193.1,426.7 L188.6,415.1 L184.6,403.3 L180.2,384.4 L176.3,367.4 L172.7,347.8 L169.3,331.3 L167.6,311.9 L166.7,292.0 L165.9,268.2 L164.9,252.3 Z" fill="#5a9540" stroke="none"/>
<path d="M301.5,29.3 L300.5,37.0 L300.5,42.6 L300.7,48.2 L299.7,53.1 L298.9,56.7 L300.4,54.3 L302.9,53.2 L306.3,52.5 L313.4,51.8 L321.2,51.2 L326.6,52.2 L330.5,54.5 L332.3,58.0 L331.7,53.1 L331.5,46.2 L332.4,36.0 L335.0,27.3 L340.2,20.3 L346.5,17.0 L355.5,14.3 L363.2,11.2 L367.4,4.8 L369.5,-4.9 L369.9,-15.4 L368.9,-27.1 L366.2,-37.1 L363.1,-43.8 L357.5,-50.9 L351.3,-56.8 L345.9,-60.7 L338.7,-62.8 L330.4,-61.5 L323.1,-57.3 L318.3,-50.6 L314.2,-43.4 L312.0,-34.8 L309.5,-21.2 L307.1,-7.0 L303.9,5.2 L302.4,16.5 L301.5,29.3 Z" fill="#5a9540" stroke="none"/>
<path d="M317.9,457.7 L322.4,473.5 L326.6,490.5 L332.4,508.9 L336.9,523.7 L341.9,537.0 L345.8,554.3 L346.9,564.1 L348.9,574.9 L354.7,590.2 L360.9,605.0 L364.2,613.3 L366.2,618.3 L366.6,623.8 L367.2,619.3 L369.4,615.9 L373.6,613.9 L380.8,612.6 L388.0,611.6 L394.4,611.4 L399.7,613.0 L402.0,616.1 L402.8,620.4 L402.8,623.1 L403.8,619.2 L404.2,614.1 L405.4,608.7 L407.2,604.2 L408.9,598.9 L408.2,593.7 L406.0,588.3 L404.2,583.0 L402.0,577.6 L399.1,568.2 L396.2,559.9 L392.8,553.3 L389.1,549.7 L384.4,548.2 L379.3,549.0 L375.1,550.2 L372.0,549.1 L369.9,546.2 L369.4,541.1 L370.8,535.0 L374.3,530.6 L375.5,525.4 L374.1,518.3 L371.4,508.3 L367.1,495.1 L362.0,480.9 L357.6,465.7 L354.4,452.4 L353.4,440.6 L351.6,425.6 L349.6,403.3 L348.2,383.3 L346.8,363.5 L346.9,344.9 L344.8,328.0 L341.8,313.0 L338.6,298.9 L335.2,284.5 L332.4,276.6 L328.7,270.7 L321.7,265.9 L313.7,262.0 L306.5,258.7 L297.3,255.1 L290.2,253.2 L284.8,253.2 L279.7,255.2 L276.3,259.2 L274.2,264.3 L273.4,270.8 L273.4,276.7 L275.5,283.3 L279.3,288.5 L285.0,294.0 L292.3,298.6 L298.7,303.0 L303.1,308.5 L305.2,315.9 L303.6,321.3 L298.9,326.1 L295.2,332.3 L293.1,338.7 L292.5,348.1 L294.1,361.2 L297.1,380.0 L299.1,392.3 L302.7,405.7 L307.7,422.0 L313.6,437.6 L315.2,445.7 L317.9,457.7 Z" fill="#5a9540" stroke="none"/>
<path d="M317.2,721.1 L318.7,723.1 L319.6,726.5 L322.1,727.3 L323.2,729.0 L324.8,730.2 L327.7,729.5 L328.5,728.1 L327.3,724.6 L325.8,721.4 L324.0,718.3 L322.3,716.7 L318.9,716.5 L317.3,717.4 L316.8,718.9 L317.2,721.1 Z" fill="#e7d6a3" stroke="none"/>
<path d="M299.5,697.9 L297.9,699.7 L297.9,701.7 L299.3,705.4 L300.5,707.3 L302.9,709.9 L304.3,712.7 L306.9,713.9 L309.9,712.5 L311.1,709.8 L311.1,706.2 L308.7,704.5 L306.0,702.4 L304.3,699.8 L302.8,697.6 L299.5,697.9 Z" fill="#e7d6a3" stroke="none"/>
<path d="M274.2,666.1 L272.0,667.6 L271.2,670.2 L272.2,673.4 L273.0,676.0 L274.8,677.7 L277.5,678.2 L279.1,679.0 L279.5,681.0 L282.3,682.1 L284.8,682.4 L287.3,683.3 L290.1,685.2 L292.5,685.6 L295.2,683.0 L296.1,681.2 L294.7,678.9 L294.7,674.5 L294.3,672.1 L294.8,669.0 L292.5,667.2 L289.5,666.4 L287.2,667.0 L284.1,666.9 L281.5,666.8 L279.1,665.1 L276.6,665.1 L274.2,666.1 Z" fill="#e7d6a3" stroke="none"/>
<path d="M380.0,212.3 L378.0,214.4 L376.5,216.8 L375.5,219.5 L375.3,221.6 L376.5,223.3 L377.8,225.3 L380.0,226.1 L382.5,225.4 L384.4,225.0 L386.3,225.3 L388.2,226.0 L390.1,224.9 L391.1,223.6 L390.7,221.2 L389.9,219.4 L390.3,217.3 L390.4,214.0 L390.3,210.9 L389.2,208.5 L385.7,208.0 L383.4,208.7 L380.0,212.3 Z" fill="#e7d6a3" stroke="none"/>
<path d="M378.6,240.0 L378.0,242.2 L378.6,245.7 L379.8,249.6 L381.1,252.9 L383.8,253.9 L387.1,254.4 L390.4,253.2 L391.4,250.1 L391.5,246.9 L390.7,243.0 L390.6,240.9 L389.0,239.1 L386.7,236.8 L384.9,235.8 L382.2,236.0 L379.7,238.0 L378.6,240.0 Z" fill="#e7d6a3" stroke="none"/>
<path d="M412.5,512.1 L409.3,516.8 L407.4,521.5 L406.2,526.1 L406.4,530.7 L407.4,534.9 L409.2,537.9 L411.0,539.8 L412.8,541.6 L413.8,544.6 L416.1,546.5 L419.5,547.6 L422.4,546.3 L424.6,542.8 L425.6,539.6 L425.5,536.8 L424.1,534.6 L420.7,533.3 L418.2,532.3 L417.4,529.8 L416.8,525.3 L419.2,524.3 L421.7,526.5 L423.3,529.0 L425.2,530.0 L428.3,529.0 L430.8,525.3 L431.5,522.6 L430.2,520.5 L428.6,519.6 L428.4,517.8 L430.4,516.7 L432.8,517.6 L435.2,517.9 L437.3,515.5 L438.9,512.2 L438.9,507.9 L437.8,505.0 L436.0,503.0 L432.2,502.6 L428.1,503.0 L423.1,505.1 L418.7,506.7 L415.1,508.3 L412.5,512.1 Z" fill="#e7d6a3" stroke="none"/>
<path d="M405.5,565.2 L407.5,567.9 L408.9,572.4 L408.2,574.8 L405.5,580.6 L406.6,583.7 L408.6,585.9 L412.4,586.4 L415.5,585.4 L417.7,584.3 L419.9,584.8 L422.6,584.0 L423.1,581.6 L422.9,578.7 L421.7,577.1 L419.3,576.0 L417.0,574.9 L416.8,573.0 L418.6,570.9 L421.1,570.4 L422.1,568.6 L421.9,565.8 L420.0,562.8 L416.7,560.3 L413.0,558.4 L408.9,556.4 L406.6,557.2 L404.0,559.1 L404.3,561.4 L405.5,565.2 Z" fill="#e7d6a3" stroke="none"/>
<path d="M-17.0,513.4 L-18.8,516.0 L-19.2,519.3 L-18.5,523.7 L-16.5,528.0 L-13.7,531.5 L-11.4,532.3 L-8.4,532.7 L-6.5,530.2 L-5.8,528.1 L-5.6,524.9 L-4.5,522.8 L-2.0,521.0 L-0.9,518.5 L-1.0,516.0 L-2.1,513.6 L-3.0,511.4 L-5.1,510.1 L-7.5,509.7 L-12.1,511.1 L-17.0,513.4 Z" fill="#e7d6a3" stroke="none"/>
<path d="M21.8,451.1 L19.8,453.8 L19.4,457.3 L21.2,460.6 L22.5,464.8 L23.6,469.5 L25.4,473.5 L28.3,475.8 L31.6,475.8 L35.1,474.0 L37.8,470.4 L38.8,466.9 L41.1,462.0 L41.9,458.7 L41.8,454.2 L42.5,449.7 L43.5,444.2 L43.5,440.6 L42.7,437.7 L42.2,433.3 L41.7,430.0 L40.9,427.1 L37.6,425.5 L34.7,425.8 L31.7,427.0 L31.0,429.8 L30.6,432.2 L31.8,435.3 L32.8,438.0 L32.6,440.6 L30.8,441.5 L28.5,440.7 L25.2,441.7 L23.8,443.5 L22.9,447.4 L21.8,451.1 Z" fill="#e7d6a3" stroke="none"/>
<path d="M-7.6,370.5 L-8.3,373.8 L-8.6,377.4 L-7.7,379.8 L-6.1,382.6 L-4.1,384.9 L-1.5,386.2 L1.5,385.4 L3.3,382.5 L3.5,378.9 L3.8,376.0 L3.9,374.1 L1.6,371.7 L-0.1,368.9 L-1.7,366.5 L-4.3,366.5 L-6.2,367.7 L-7.6,370.5 Z" fill="#e7d6a3" stroke="none"/>
<path d="M6.0,385.1 L5.5,387.2 L6.0,390.1 L7.0,392.4 L8.7,394.8 L11.1,396.3 L13.4,396.1 L15.3,394.4 L15.3,391.8 L15.7,390.2 L15.0,388.4 L13.5,387.4 L12.7,384.9 L11.8,382.7 L10.3,381.5 L7.8,381.7 L6.9,382.7 L6.0,385.1 Z" fill="#e7d6a3" stroke="none"/>
<path d="M38.8,347.7 L37.1,348.7 L35.6,350.6 L33.7,354.1 L32.8,356.5 L32.3,359.6 L32.8,361.7 L32.1,363.8 L31.6,366.1 L32.3,367.7 L32.6,370.0 L32.6,371.5 L33.6,373.4 L36.3,373.9 L39.7,373.8 L41.4,371.4 L42.4,368.8 L42.5,364.8 L43.5,360.5 L45.0,358.8 L46.8,356.4 L47.5,353.6 L46.1,351.0 L43.6,349.0 L41.3,347.8 L38.8,347.7 Z" fill="#e7d6a3" stroke="none"/>
<path d="M48.1,321.6 L46.7,323.1 L46.5,325.6 L47.9,327.8 L50.0,330.1 L52.3,330.5 L55.5,330.6 L56.5,329.4 L58.0,328.3 L57.7,326.6 L56.4,324.4 L55.6,322.6 L53.8,321.0 L51.4,320.6 L49.7,320.7 L48.1,321.6 Z" fill="#e7d6a3" stroke="none"/>
<path d="M53.3,334.7 L52.6,335.2 L52.5,337.0 L52.8,339.3 L53.4,341.3 L54.2,342.3 L56.3,342.9 L57.9,342.4 L60.4,342.3 L62.0,342.9 L63.3,343.3 L64.9,342.3 L66.5,341.0 L66.7,339.3 L66.0,337.7 L64.6,336.1 L62.9,335.2 L60.4,334.8 L58.3,334.2 L55.8,334.0 L54.0,334.2 L53.3,334.7 Z" fill="#e7d6a3" stroke="none"/>
<path d="M60.0,351.0 L59.0,351.8 L57.8,352.9 L57.8,354.8 L58.9,357.1 L59.8,358.7 L60.9,359.8 L62.0,360.7 L64.2,360.1 L65.7,358.8 L67.0,357.1 L67.8,355.5 L67.4,353.6 L66.3,352.3 L64.0,350.7 L61.8,350.5 L60.0,351.0 Z" fill="#e7d6a3" stroke="none"/>
<path d="M55.1,17.2 L54.5,19.9 L54.7,22.9 L56.3,25.4 L57.0,27.3 L57.1,29.6 L55.1,31.0 L52.9,31.9 L51.1,35.4 L50.0,39.9 L49.6,44.3 L51.2,46.5 L53.9,47.8 L58.1,48.3 L61.3,47.3 L63.0,44.4 L63.3,42.2 L62.4,40.6 L61.3,39.0 L62.2,36.1 L64.8,33.4 L67.7,31.5 L69.4,29.2 L72.4,26.8 L72.6,23.5 L72.2,20.2 L73.0,17.0 L73.6,14.5 L72.9,10.4 L70.8,8.0 L68.3,6.9 L66.3,8.3 L64.2,8.9 L62.4,9.9 L60.4,9.5 L57.8,10.8 L55.6,13.1 L55.1,17.2 Z" fill="#e7d6a3" stroke="none"/>
<path d="M114.8,114.3 L115.1,117.8 L113.9,122.2 L113.2,126.6 L113.2,130.9 L113.3,134.6 L114.7,137.9 L117.1,139.2 L120.4,139.3 L123.6,137.3 L124.8,135.5 L124.0,133.1 L123.0,131.7 L122.4,129.8 L124.0,127.8 L125.7,125.7 L126.6,123.0 L126.3,119.8 L125.0,117.4 L124.9,114.3 L125.5,110.5 L127.6,108.9 L129.2,106.7 L129.2,104.0 L127.7,102.5 L125.0,101.3 L123.2,100.7 L120.4,101.2 L118.0,99.9 L116.4,98.1 L113.3,96.0 L110.8,94.1 L108.4,93.5 L106.0,94.0 L103.9,96.1 L103.9,98.0 L105.5,101.2 L108.4,104.3 L110.5,106.5 L113.0,109.5 L114.2,112.1 L114.8,114.3 Z" fill="#e7d6a3" stroke="none"/>
<path d="M168.0,99.0 L169.8,101.7 L170.3,105.9 L169.8,109.7 L168.5,113.3 L166.2,115.8 L163.5,117.0 L161.6,117.8 L160.1,119.2 L159.2,122.2 L159.2,125.1 L160.4,127.6 L161.7,130.7 L161.9,132.2 L163.1,133.4 L165.2,133.7 L167.3,132.1 L169.6,129.5 L170.1,126.4 L170.9,123.0 L173.0,120.1 L175.6,116.8 L177.6,113.8 L177.8,109.8 L178.3,105.0 L177.7,101.1 L175.7,97.4 L173.1,93.8 L170.8,91.0 L169.2,89.7 L167.9,86.9 L166.3,84.2 L164.3,82.5 L161.0,81.9 L158.6,82.3 L156.9,84.7 L155.4,88.5 L155.4,90.5 L156.5,93.3 L156.8,95.2 L156.6,96.6 L158.2,98.8 L159.8,99.5 L162.3,98.6 L163.3,97.4 L165.6,97.1 L168.0,99.0 Z" fill="#e7d6a3" stroke="none"/>
<path d="M107.4,543.6 L107.8,546.1 L109.0,547.9 L110.5,549.6 L113.2,549.8 L117.4,549.9 L119.2,550.7 L120.7,552.7 L122.1,555.2 L123.4,557.8 L125.3,559.1 L126.8,560.9 L129.6,561.6 L132.1,560.7 L133.5,558.5 L135.4,556.3 L135.5,553.7 L133.7,550.1 L131.9,547.6 L129.9,546.0 L126.4,545.4 L122.5,542.5 L120.6,539.9 L118.3,538.1 L113.8,537.7 L110.8,538.2 L108.8,540.3 L107.4,543.6 Z" fill="#e7d6a3" stroke="none"/>
<path d="M206.5,341.7 L205.2,343.7 L205.1,346.0 L205.7,349.1 L206.6,351.1 L209.6,352.7 L213.1,353.4 L215.5,353.6 L217.8,354.7 L220.3,356.5 L222.2,356.3 L224.1,353.4 L226.4,350.9 L226.0,348.5 L223.6,346.4 L221.2,345.7 L219.5,343.1 L219.6,340.6 L219.4,337.8 L217.7,336.0 L215.4,335.8 L214.2,338.4 L211.5,339.3 L208.2,339.5 L206.5,341.7 Z" fill="#e7d6a3" stroke="none"/>
<path d="M148.9,185.2 L150.0,187.1 L150.5,190.1 L149.9,194.5 L148.0,197.7 L146.0,201.5 L145.7,204.9 L146.6,209.0 L148.7,213.3 L150.6,217.9 L152.9,221.6 L155.1,224.9 L157.8,226.6 L162.0,226.8 L164.9,225.2 L167.0,222.8 L167.0,220.5 L165.8,218.5 L164.6,216.3 L164.1,214.1 L163.1,211.6 L162.8,209.6 L160.7,208.2 L158.5,208.0 L156.9,206.1 L155.8,203.3 L154.9,199.9 L155.8,196.4 L157.8,193.8 L159.1,191.1 L158.3,188.3 L159.0,185.9 L160.0,182.8 L159.7,180.1 L160.2,177.8 L160.5,176.4 L159.5,174.5 L157.6,173.4 L155.1,174.1 L152.5,176.0 L151.4,179.1 L150.9,181.2 L149.2,183.0 L148.9,185.2 Z" fill="#e7d6a3" stroke="none"/>
<path d="M194.2,189.4 L196.2,190.4 L198.3,191.5 L199.7,194.1 L200.0,197.4 L198.4,202.2 L196.3,203.0 L194.6,202.0 L193.1,201.0 L190.7,201.3 L189.1,202.9 L187.9,205.5 L188.0,208.4 L188.5,211.2 L190.1,212.3 L191.8,212.7 L192.6,214.6 L192.1,216.4 L191.1,218.3 L191.1,220.5 L193.1,222.7 L195.6,223.8 L198.9,224.2 L201.6,223.5 L204.7,221.5 L206.7,217.9 L207.4,214.3 L207.2,207.4 L206.5,199.9 L206.6,194.9 L206.7,190.7 L206.1,187.7 L204.3,184.8 L202.5,181.9 L201.8,179.0 L202.5,175.3 L204.3,172.5 L206.4,170.4 L208.3,166.8 L208.0,162.7 L207.2,158.7 L206.2,155.3 L204.7,153.2 L201.8,152.5 L199.6,153.6 L198.5,155.9 L198.1,160.1 L197.8,163.2 L197.6,166.7 L196.4,170.3 L195.2,173.0 L193.7,175.0 L193.9,177.5 L194.5,180.0 L194.2,182.2 L193.3,184.1 L192.6,186.4 L193.4,188.4 L194.2,189.4 Z" fill="#e7d6a3" stroke="none"/>
<path d="M265.4,307.9 L265.1,312.8 L264.5,317.0 L265.1,322.5 L266.1,325.2 L268.2,329.0 L270.3,329.9 L273.2,328.9 L275.1,326.4 L277.6,325.5 L279.7,324.7 L281.8,322.2 L284.1,320.4 L286.9,318.2 L289.4,316.5 L291.8,316.4 L294.5,317.7 L297.5,316.5 L298.2,313.7 L297.5,311.2 L296.8,308.2 L295.9,305.3 L293.2,304.6 L290.8,304.6 L289.0,302.8 L287.3,302.7 L284.2,301.3 L283.6,298.8 L281.4,295.1 L277.7,292.6 L273.8,290.2 L269.9,290.6 L266.7,292.3 L265.0,295.6 L264.3,299.7 L265.0,304.2 L265.4,307.9 Z" fill="#e7d6a3" stroke="none"/>
<path d="M349.4,623.6 L348.8,627.3 L346.6,631.0 L345.2,633.4 L345.4,635.5 L346.4,638.2 L348.1,641.7 L348.1,643.9 L347.8,645.6 L348.4,647.5 L350.2,648.5 L353.1,648.6 L355.9,649.7 L356.5,652.8 L356.4,657.8 L355.2,662.1 L354.5,665.8 L356.0,667.5 L358.4,668.8 L362.2,670.0 L364.1,672.7 L365.0,677.0 L365.4,680.2 L366.9,683.0 L369.5,684.1 L372.7,683.5 L374.9,681.2 L375.5,678.4 L376.0,676.1 L375.2,674.1 L373.0,672.2 L371.8,669.8 L370.5,666.2 L368.9,662.6 L367.1,660.7 L365.4,660.1 L364.1,658.4 L364.4,655.6 L366.8,653.9 L367.8,651.2 L367.0,650.2 L366.2,648.8 L365.3,646.4 L363.8,644.9 L361.7,643.5 L359.4,643.1 L357.6,642.4 L356.2,641.1 L356.7,638.7 L357.6,637.0 L357.7,634.7 L359.5,633.5 L359.9,631.8 L359.4,628.2 L359.7,625.7 L361.1,622.8 L362.3,620.0 L361.9,617.5 L360.3,615.3 L358.0,614.5 L355.7,615.0 L353.6,616.8 L350.7,620.4 L349.7,622.2 L349.4,623.6 Z" fill="#e7d6a3" stroke="none"/>
<path d="M405.5,628.7 L405.7,630.6 L406.2,633.5 L406.9,635.9 L408.6,637.7 L410.5,639.3 L413.0,639.7 L415.2,640.5 L415.7,644.4 L414.8,645.9 L412.4,647.3 L412.4,649.2 L413.7,650.8 L413.9,653.0 L413.6,655.8 L414.2,659.0 L415.5,661.5 L416.5,663.5 L416.7,665.6 L417.8,667.4 L420.7,667.9 L424.2,666.8 L426.7,664.5 L428.1,662.7 L427.4,660.6 L425.7,658.1 L424.7,655.5 L425.6,652.6 L426.9,650.1 L426.5,647.2 L424.8,643.7 L423.2,639.7 L421.6,636.2 L419.5,634.6 L416.3,632.4 L414.7,629.0 L414.4,625.6 L414.4,621.7 L413.8,617.4 L412.9,613.6 L411.9,611.5 L410.8,609.9 L408.5,609.8 L406.7,611.8 L406.4,614.9 L406.4,617.4 L405.6,619.2 L404.9,621.6 L405.1,623.6 L405.8,626.4 L405.5,628.7 Z" fill="#e7d6a3" stroke="none"/>
<path d="M378.4,530.7 L377.1,532.8 L374.4,534.8 L372.6,538.1 L371.4,540.5 L372.1,542.7 L372.5,544.8 L374.3,546.1 L376.7,546.4 L378.6,544.4 L380.9,541.8 L383.0,541.2 L384.5,540.4 L384.0,537.1 L384.0,534.2 L385.5,531.2 L387.3,530.9 L389.0,532.6 L388.0,534.6 L387.9,537.0 L388.8,538.8 L391.7,539.3 L394.3,537.9 L395.4,535.8 L395.4,532.2 L394.9,529.8 L392.4,527.9 L392.4,523.9 L391.5,521.5 L388.7,519.6 L385.1,518.5 L381.8,518.5 L379.9,520.1 L379.0,522.0 L379.8,525.3 L379.9,528.3 L378.4,530.7 Z" fill="#e7d6a3" stroke="none"/>
<path d="M77.7,168.8 L78.5,177.3 L79.3,185.8 L84.9,185.0 L90.4,184.2 L89.6,175.6 L88.7,167.1 L83.2,167.9 L77.7,168.8 Z" fill="#4f8a3e" stroke="none"/>
<path d="M77.5,160.4 L82.9,160.2 L88.3,159.9 L87.4,148.4 L86.5,137.3 L85.3,123.1 L84.1,108.8 L83.3,98.3 L77.7,98.8 L72.2,99.2 L73.1,109.4 L74.3,124.0 L75.5,137.7 L76.5,149.1 L77.5,160.4 Z" fill="#4f8a3e" stroke="none"/>
<path d="M254.2,843.6 L257.2,848.8 L260.2,854.0 L270.6,847.8 L282.6,840.7 L290.6,835.9 L287.6,831.0 L284.6,826.0 L275.2,831.5 L262.1,839.1 L254.2,843.6 Z" fill="#4f8a3e" stroke="none"/>
<path d="M-15.5,843.2 L-14.9,835.1 L-14.3,827.1 L-10.8,827.4 L-7.3,827.6 L-7.7,835.5 L-8.2,843.4 L-11.8,843.3 L-15.5,843.2 Z" fill="#4f8a3e" stroke="none"/>
<path d="M-32.0,784.9 L-31.3,779.9 L-30.6,774.9 L-27.2,775.5 L-23.8,776.2 L-24.6,780.8 L-25.3,785.4 L-28.7,785.1 L-32.0,784.9 Z" fill="#4f8a3e" stroke="none"/>
<path d="M328.5,695.5 L341.1,724.0 L354.5,718.1 L342.0,689.6 L328.5,695.5 Z" fill="#4f8a3e" stroke="none"/>
<path d="M319.4,675.0 L324.7,687.9 L337.7,682.5 L332.3,669.6 L319.4,675.0 Z" fill="#4f8a3e" stroke="none"/>
<path d="M291.0,624.5 L293.2,629.4 L295.4,634.4 L298.4,632.9 L301.5,631.4 L299.5,626.6 L297.6,621.8 L294.3,623.2 L291.0,624.5 Z" fill="#4f8a3e" stroke="none"/>
<path d="M216.9,172.1 L218.6,154.0 L220.3,135.9 L222.2,115.2 L224.1,95.6 L225.8,77.7 L227.0,64.3 L231.9,65.2 L236.7,66.1 L235.6,78.4 L233.9,96.2 L232.1,115.9 L230.3,136.0 L228.3,157.8 L226.9,173.3 L221.9,172.7 L216.9,172.1 Z" fill="#4f8a3e" stroke="none"/>
<path d="M256.1,75.2 L268.5,145.0 L281.6,142.7 L269.2,72.8 L256.1,75.2 Z" fill="#4f8a3e" stroke="none"/>
<path d="M253.4,23.1 L258.0,48.2 L269.7,46.0 L265.1,20.9 L253.4,23.1 Z" fill="#4f8a3e" stroke="none"/>
<path d="M286.2,162.3 L288.3,173.6 L290.4,184.8 L300.3,183.3 L310.1,181.8 L307.5,170.3 L304.9,158.8 L295.5,160.6 L286.2,162.3 Z" fill="#4f8a3e" stroke="none"/>
<path d="M384.4,-49.5 L385.3,-38.7 L393.0,-39.3 L392.1,-50.1 L384.4,-49.5 Z" fill="#4f8a3e" stroke="none"/>
<path d="M-31.9,267.5 L-30.5,261.6 L-28.2,252.1 L-26.3,244.0 L-32.1,242.4 L-38.0,240.8 L-39.7,248.0 L-41.9,257.2 L-43.7,265.0 L-37.8,266.3 L-31.9,267.5 Z" fill="#4f8a3e" stroke="none"/>
<path d="M3.9,192.0 L7.4,192.5 L10.9,193.0 L10.4,198.3 L9.8,203.6 L6.3,203.1 L2.7,202.8 L3.3,197.4 L3.9,192.0 Z" fill="#4f8a3e" stroke="none"/>
<path d="M269.0,815.6 L279.2,807.8 L289.5,800.0 L286.0,786.9 L282.6,773.8 L268.5,784.0 L254.5,794.3 L261.7,804.9 L269.0,815.6 Z" fill="#4f8a3e" stroke="none"/>
<path d="M244.0,850.4 L246.6,855.2 L249.2,860.1 L245.5,862.1 L241.7,864.1 L239.0,859.4 L236.2,854.6 L240.1,852.5 L244.0,850.4 Z" fill="#4f8a3e" stroke="none"/>
<path d="M67.5,47.8 L68.5,58.4 L69.7,71.3 L70.9,84.4 L71.9,94.4 L77.2,94.2 L83.5,94.0 L82.5,84.2 L81.1,70.8 L79.9,58.9 L78.7,47.0 L73.1,47.4 L67.5,47.8 Z" fill="#4f8a3e" stroke="none"/>
<path d="M65.6,236.1 L66.8,241.4 L68.1,246.7 L72.0,245.9 L75.9,245.1 L74.7,239.7 L73.4,234.4 L69.5,235.3 L65.6,236.1 Z" fill="#4f8a3e" stroke="none"/>
<path d="M398.7,858.1 L395.6,854.3 L393.2,849.7 L393.8,845.3 L395.2,841.3 L398.7,835.7 L403.6,830.1 L407.1,826.7 L409.3,825.3 L411.4,824.9 L413.8,824.8 L419.1,826.6 L424.9,830.3 L433.4,836.3 L437.3,840.5 L440.8,844.4 L449.9,851.7 L453.2,854.7 L454.7,857.3 L455.6,859.8 L456.1,861.8 L456.3,863.4 L455.6,866.7 L453.3,869.4 L452.0,870.9 L450.9,872.3 L448.3,873.9 L446.3,874.3 L444.2,874.2 L442.4,873.6 L440.8,872.8 L439.1,869.4 L437.4,867.6 L435.1,866.2 L432.5,865.7 L422.6,865.0 L414.0,864.3 L411.6,864.2 L408.7,864.2 L406.1,863.7 L404.0,862.7 L401.4,861.3 L398.7,858.1 Z" fill="#2f7825" stroke="none"/>
<path d="M263.1,685.2 L265.5,682.8 L267.9,680.8 L272.0,679.8 L274.6,680.1 L278.0,682.5 L283.0,686.4 L288.0,690.9 L291.6,693.6 L294.4,695.4 L295.9,698.9 L296.3,701.8 L297.1,705.3 L299.3,709.7 L302.9,713.5 L305.7,716.1 L309.7,716.2 L313.5,717.8 L316.3,721.9 L318.4,727.1 L318.7,731.4 L314.8,734.6 L306.9,741.5 L298.9,746.4 L290.4,750.2 L284.7,751.9 L281.2,751.4 L278.4,749.5 L275.8,745.1 L271.9,734.6 L268.4,723.1 L265.2,714.2 L263.0,709.4 L259.0,705.9 L257.1,704.6 L255.2,700.6 L256.6,695.4 L258.6,692.0 L263.1,685.2 Z" fill="#2f7825" stroke="none"/>
<path d="M30.8,379.3 L31.3,382.6 L31.8,385.5 L31.7,387.1 L29.8,388.1 L25.9,388.8 L22.3,388.9 L18.7,388.9 L17.2,387.6 L15.2,384.0 L12.0,379.4 L7.7,374.2 L4.5,369.6 L1.3,366.4 L-1.0,363.7 L-0.8,361.0 L1.2,354.9 L4.8,347.5 L7.9,342.8 L12.7,336.6 L17.2,332.3 L21.1,328.6 L25.1,326.6 L28.4,326.1 L30.6,326.5 L32.9,328.4 L34.4,331.9 L35.9,336.2 L36.9,340.0 L36.7,343.8 L35.9,347.3 L33.6,352.0 L32.0,355.5 L30.9,359.8 L30.4,366.2 L30.3,371.6 L30.4,375.5 L30.8,379.3 Z" fill="#2f7825" stroke="none"/>
<path d="M128.0,130.5 L128.7,124.6 L129.8,118.1 L131.0,110.7 L130.7,104.7 L129.4,99.8 L127.5,95.7 L126.0,93.0 L126.0,90.0 L128.4,87.1 L133.1,85.0 L141.3,83.6 L147.1,82.3 L150.7,82.1 L153.5,83.3 L153.8,86.2 L153.7,88.9 L153.6,91.1 L154.3,95.9 L156.1,99.4 L157.4,103.1 L157.5,110.4 L157.3,116.6 L156.8,121.8 L157.2,126.6 L157.0,131.3 L153.7,136.0 L149.3,139.5 L143.7,142.4 L138.2,145.7 L133.2,148.3 L128.6,148.0 L126.0,146.2 L126.0,142.6 L126.9,136.4 L128.0,130.5 Z" fill="#2f7825" stroke="none"/>
<path d="M163.0,179.8 L161.1,186.3 L160.2,195.0 L161.1,201.7 L163.9,208.0 L166.6,214.9 L168.8,221.1 L170.8,225.8 L174.0,228.0 L179.1,228.5 L184.4,227.7 L187.5,225.2 L188.0,222.4 L186.7,215.8 L185.3,208.1 L184.9,201.2 L186.3,192.6 L188.9,187.0 L191.8,182.7 L192.7,177.6 L192.8,169.4 L193.2,163.1 L193.2,157.5 L192.4,152.8 L190.5,151.2 L187.1,150.8 L179.1,153.3 L173.1,155.2 L167.4,158.0 L162.7,161.0 L160.3,164.3 L159.4,168.0 L161.5,171.7 L163.0,175.5 L163.0,179.8 Z" fill="#2f7825" stroke="none"/>
<path d="M299.3,67.3 L299.8,73.4 L301.1,81.9 L301.8,88.1 L302.4,93.0 L303.8,99.4 L306.0,103.3 L308.1,106.9 L311.4,107.3 L316.3,105.5 L321.4,103.9 L328.8,102.0 L331.9,100.2 L333.0,96.9 L332.7,89.9 L332.6,80.4 L332.5,71.3 L332.6,63.3 L332.3,58.0 L330.5,54.5 L326.6,52.2 L321.2,51.2 L313.4,51.8 L306.3,52.5 L302.9,53.2 L300.4,54.3 L298.9,56.7 L298.9,62.6 L299.3,67.3 Z" fill="#2f7825" stroke="none"/>
<path d="M369.1,642.0 L370.1,648.1 L370.5,655.5 L371.0,661.3 L372.6,666.9 L375.7,671.9 L379.0,677.5 L381.4,683.4 L384.1,686.7 L389.1,686.3 L397.6,682.9 L406.3,678.1 L411.8,673.7 L413.8,669.6 L414.2,665.4 L413.0,659.2 L411.0,653.3 L408.5,646.8 L405.6,641.9 L403.4,636.1 L402.8,626.7 L402.8,623.1 L402.8,620.4 L402.0,616.1 L399.7,613.0 L394.4,611.4 L388.0,611.6 L380.8,612.6 L373.6,613.9 L369.4,615.9 L367.2,619.3 L366.6,623.8 L367.2,630.0 L367.7,636.3 L369.1,642.0 Z" fill="#2f7825" stroke="none"/>
<path d="M75.9,75.9 L128.3,512.4 L282.5,724.1" fill="none" stroke="#ffd64a" stroke-width="3.5" stroke-linecap="round" stroke-linejoin="round" opacity="0.95"/>
</svg>